<svg width="220" height="410" viewBox="0 0 220 410" fill="none" xmlns="http://www.w3.org/2000/svg">
<circle cx="179.898" cy="32.914" r="9.84665" fill="#D9D9D9"/>
<circle cx="75.0805" cy="173.254" r="6.98896" fill="#D9D9D9"/>
<circle cx="213.971" cy="273.268" r="5.74168" fill="#D9D9D9"/>
<circle cx="85.2072" cy="4.12144" r="3.13779" fill="#D9D9D9"/>
<circle cx="53.4443" cy="399.964" r="9.02527" fill="#D9D9D9"/>
<path d="M3.5 63.7485C20.5 63.7485 21 61.7485 21 39.2485C21 61.7485 21.0001 63.7485 38.5001 63.7485C21.0001 63.7485 21 65.7485 21 88.2485C21 65.7485 20.5 63.7485 3.5 63.7485Z" fill="white" stroke="white" stroke-width="2" stroke-linejoin="round"/>
<path d="M151.852 125.898C160.352 125.898 160.602 124.978 160.602 114.628C160.602 124.978 160.602 125.898 169.352 125.898C160.602 125.898 160.602 126.818 160.602 137.168C160.602 126.818 160.352 125.898 151.852 125.898Z" fill="white" stroke="white" stroke-width="2" stroke-linejoin="round"/>
</svg>
