<svg width="575" height="610" viewBox="0 0 575 610" fill="none" xmlns="http://www.w3.org/2000/svg">
<circle cx="337.917" cy="11.6334" r="11.0348" fill="#D9D9D9"/>
<circle cx="568.656" cy="46.4155" r="6.03217" fill="#D9D9D9"/>
<circle cx="286.681" cy="178.225" r="9.35751" fill="#D9D9D9"/>
<circle cx="178.258" cy="233.062" r="9.84665" fill="#D9D9D9"/>
<circle cx="28.6259" cy="51.471" r="5.68656" fill="#D9D9D9"/>
<circle cx="73.4407" cy="373.402" r="6.98896" fill="#D9D9D9"/>
<circle cx="212.331" cy="473.416" r="5.74168" fill="#D9D9D9"/>
<circle cx="51.8045" cy="600.112" r="9.02527" fill="#D9D9D9"/>
<path d="M20.9947 132.678C87.578 132.678 89.5363 124.918 89.5363 37.6182C89.5363 124.918 89.5363 132.678 158.078 132.678C89.5363 132.678 89.5363 140.438 89.5363 227.738C89.5363 140.438 87.578 132.678 20.9947 132.678Z" fill="white" stroke="white" stroke-width="5" stroke-linejoin="round"/>
<path d="M128.787 93.8782C95.4955 126.858 83.7455 126.858 50.4538 93.8782C83.7455 126.858 83.7455 138.498 50.4538 171.478C83.7455 138.498 95.4955 138.498 128.787 171.478C95.4955 138.498 95.4955 126.858 128.787 93.8782Z" fill="white" stroke="white" stroke-width="5" stroke-linejoin="round"/>
<path d="M1.8602 263.897C18.8602 263.897 19.3602 261.897 19.3602 239.397C19.3602 261.897 19.3603 263.897 36.8603 263.897C19.3603 263.897 19.3602 265.897 19.3602 288.397C19.3602 265.897 18.8602 263.897 1.8602 263.897Z" fill="white" stroke="white" stroke-width="2" stroke-linejoin="round"/>
<path d="M185.529 27.327C196.39 27.327 196.709 26.127 196.709 12.627C196.709 26.127 196.709 27.327 207.89 27.327C196.709 27.327 196.709 28.527 196.709 42.027C196.709 28.527 196.39 27.327 185.529 27.327Z" fill="white" stroke="white" stroke-width="2" stroke-linejoin="round"/>
<path d="M417.499 196.616C430.721 196.616 431.11 195.176 431.11 178.976C431.11 195.176 431.11 196.616 444.721 196.616C431.11 196.616 431.11 198.056 431.11 214.256C431.11 198.056 430.721 196.616 417.499 196.616Z" fill="white" stroke="white" stroke-width="2" stroke-linejoin="round"/>
<path d="M150.212 326.046C158.712 326.046 158.962 325.126 158.962 314.776C158.962 325.126 158.962 326.046 167.712 326.046C158.962 326.046 158.962 326.966 158.962 337.316C158.962 326.966 158.712 326.046 150.212 326.046Z" fill="white" stroke="white" stroke-width="2" stroke-linejoin="round"/>
</svg>
