<svg width="3402" height="4338" viewBox="0 0 3402 4338" fill="none" xmlns="http://www.w3.org/2000/svg">
    <path d="M820.418 2284.14L1641.65 3005.69V3916.19" stroke="white" stroke-width="50" stroke-linecap="round"/>
    <circle cx="1374.93" cy="3291.84" r="100" stroke="white" stroke-width="50"/>
    <circle cx="3276.91" cy="797.227" r="100" stroke="white" stroke-width="50"/>
    <circle cx="2932.74" cy="1705.74" r="100" stroke="white" stroke-width="50"/>
    <circle cx="2903.58" cy="2038.41" r="100" stroke="white" stroke-width="50"/>
    <circle cx="2049.48" cy="1658.15" r="100" stroke="white" stroke-width="50"/>
    <circle cx="1414.81" cy="2481" r="100" stroke="white" stroke-width="50"/>
    <circle cx="1745.97" cy="2255.02" r="100" stroke="white" stroke-width="50"/>
    <circle cx="125.262" cy="3430.73" r="100" stroke="white" stroke-width="50"/>
    <circle cx="750.098" cy="3203.23" r="100" stroke="white" stroke-width="50"/>
    <circle cx="966.113" cy="2766.23" r="100" stroke="white" stroke-width="50"/>
    <circle cx="2229.26" cy="3016.23" r="100" stroke="white" stroke-width="50"/>
    <path d="M2229.26 515.824V2895.66" stroke="white" stroke-width="50" stroke-linecap="round"/>
    <path d="M984.417 4312.88V2859.05H947.805" stroke="white" stroke-width="50" stroke-linecap="round"/>
    <path d="M750.098 4216.93V3305.73" stroke="white" stroke-width="50" stroke-linecap="round"/>
    <path d="M479.163 4067.28V3854.92L178.938 3532.73" stroke="white" stroke-width="50" stroke-linecap="round"/>
    <path d="M1745.97 989.898V2130.03" stroke="white" stroke-width="50" stroke-linecap="round"/>
    <path d="M2456.26 416.887V1789.96L2807.74 1994.99" stroke="white" stroke-width="50" stroke-linecap="round"/>
    <path d="M2653.97 371.785V1504.37L2851.68 1650.82" stroke="white" stroke-width="50" stroke-linecap="round"/>
    <path d="M3276.91 25.6094V683.848" stroke="white" stroke-width="50" stroke-linecap="round"/>
    <path d="M1386.95 3405.85L1386.95 4139.8" stroke="white" stroke-width="50" stroke-linecap="round"/>
    <path d="M1442.45 2576.27L1748.18 2864.28L2049.48 2691.48V1783.15" stroke="white" stroke-width="50"
          stroke-linecap="round"/>
</svg>
