<svg width="565" height="620" viewBox="0 0 565 620" fill="none" xmlns="http://www.w3.org/2000/svg">
<mask id="mask0_1177_350" style="mask-type:alpha" maskUnits="userSpaceOnUse" x="-55" y="0" width="620" height="620">
<rect x="255" width="438.406" height="438.406" transform="rotate(45 255 0)" fill="#D9D9D9"/>
</mask>
<g mask="url(#mask0_1177_350)">
<rect x="267.416" y="628.2" width="26.1998" height="638.265" transform="rotate(-180 267.416 628.2)" fill="#141B2F"/>
<rect x="215.966" y="628.2" width="26.1998" height="638.265" transform="rotate(-180 215.966 628.2)" fill="#141B2F"/>
<rect x="164.518" y="628.2" width="26.1998" height="638.265" transform="rotate(-180 164.518 628.2)" fill="#141B2F"/>
<rect x="113.054" y="628.2" width="26.1998" height="638.265" transform="rotate(-180 113.054 628.2)" fill="#141B2F"/>
<rect x="61.603" y="628.2" width="26.1998" height="638.265" transform="rotate(-180 61.603 628.2)" fill="#141B2F"/>
<rect x="10.147" y="628.2" width="26.1998" height="638.265" transform="rotate(-180 10.147 628.2)" fill="#141B2F"/>
<rect x="318.866" y="628.2" width="26.1998" height="638.265" transform="rotate(-180 318.866 628.2)" fill="#141B2F"/>
<rect x="370.324" y="628.2" width="26.1998" height="638.265" transform="rotate(-180 370.324 628.2)" fill="#141B2F"/>
<rect x="421.77" y="628.2" width="26.1998" height="638.265" transform="rotate(-180 421.77 628.2)" fill="#141B2F"/>
<rect x="473.224" y="628.2" width="26.1998" height="638.265" transform="rotate(-180 473.224 628.2)" fill="#141B2F"/>
<rect x="524.676" y="628.2" width="26.1998" height="638.265" transform="rotate(-180 524.676 628.2)" fill="#141B2F"/>
<rect x="576.128" y="628.2" width="26.1998" height="638.265" transform="rotate(-180 576.128 628.2)" fill="#141B2F"/>
</g>
</svg>
