<?xml version="1.0" encoding="UTF-8" standalone="no"?>
<!DOCTYPE svg PUBLIC "-//W3C//DTD SVG 1.1//EN" "http://www.w3.org/Graphics/SVG/1.1/DTD/svg11.dtd">
<svg width="100%" height="100%" viewBox="0 0 1440 883" version="1.1" xmlns="http://www.w3.org/2000/svg" xmlns:xlink="http://www.w3.org/1999/xlink" xml:space="preserve" xmlns:serif="http://www.serif.com/" style="fill-rule:evenodd;clip-rule:evenodd;stroke-linejoin:round;stroke-miterlimit:2;">
    <g>
        <clipPath id="_clip1">
            <rect x="0" y="0" width="1440" height="883"/>
        </clipPath>
        <g clip-path="url(#_clip1)">
            <path d="M1346.99,2052.97C1276.72,2111.93 1201.81,2159.17 1123.8,2193.39C964.714,2264.4 791.423,2287.46 623.347,2267.09C504.314,2252.43 385.965,2213.77 279.293,2154.89C182.085,2101.09 92.217,2028.12 16.589,1937.99C6.334,1925.77 -5.202,1912.02 -13.929,1898.52C-27.784,1878.9 -42.919,1857.76 -56.774,1838.15C-156.371,1682.23 -204.713,1506.72 -203.521,1331.31C-203.487,1266.2 -196.305,1200.3 -183.506,1134.89C-173.708,1087.62 -159.574,1039.32 -142.63,991.258C-138.837,980.266 -135.045,969.274 -128.443,958.528C-128.443,958.528 -128.442,958.528 -126.915,957.246C-121.595,944.972 -117.802,933.98 -111.2,923.234C-93.957,887.94 -73.905,852.892 -52.571,819.371C-36.312,795.315 -20.052,771.259 -2.511,748.731C10.202,732.857 22.914,716.983 38.436,701.356C68.199,668.573 99.243,637.317 134.378,607.835C154.238,591.171 175.378,576.035 196.519,560.899C210.022,552.172 223.525,543.445 237.028,534.718C316.517,483.637 400.397,447.096 487.384,423.565C529.473,411.677 574.126,402.845 618.533,396.822C691.526,387.638 765.309,385.6 838.109,394.8C1073.86,418.256 1301.74,531.615 1465.82,727.151C1472.22,734.79 1478.63,742.428 1485.04,750.066C1491.45,757.704 1499.14,766.87 1504.02,775.79C1535.58,819.599 1564.08,865.973 1586.96,911.854C1600.07,939.896 1613.19,967.938 1623.5,995.734C1631.73,1014.86 1637.16,1033.73 1643.87,1054.13C1648.26,1068.67 1652.65,1083.21 1657.04,1097.75C1656.79,1100.56 1658.07,1102.09 1659.11,1106.43C1684.47,1204.9 1692.47,1307.51 1683.63,1408.65C1682.4,1422.7 1681.17,1436.75 1679.94,1450.79C1677.67,1460.5 1678.22,1470.46 1675.95,1480.17C1674.48,1497.03 1670.19,1513.64 1667.44,1528.97C1655.13,1588.76 1635.92,1646.53 1612.62,1702.52C1584.25,1767.98 1548.97,1831.42 1507.04,1890.04C1459.74,1945.35 1408.1,2001.7 1346.99,2052.97Z" style="fill:url(#_Radial2);"/>
            <path d="M1656.79,1100.56C1654.23,1097.5 1652.95,1095.97 1648.86,1094.2C1640.92,1087.84 1636.04,1078.92 1631.16,1070C1627.56,1062.61 1628.05,1056.99 1621.64,1049.36C1615.48,1038.91 1612.12,1028.71 1605.96,1018.26C1599.8,1007.81 1596.44,997.609 1591.81,985.879C1588.45,975.678 1584.36,973.904 1577.71,969.075C1571.05,964.247 1570.26,957.1 1566.66,949.708C1564.59,941.034 1558.18,933.396 1554.58,926.003C1542.25,905.108 1532.98,881.649 1522.18,859.472C1516.27,846.215 1507.29,835.522 1497.04,823.301C1489.35,814.135 1479.88,809.061 1472.19,799.895C1467.06,793.784 1464.75,787.92 1459.62,781.809C1456.02,774.417 1449.36,769.588 1444.24,763.478C1438.07,753.03 1435.76,747.165 1425.01,740.563C1417.07,734.207 1413.23,729.624 1405.29,723.268C1398.88,715.629 1388.14,709.027 1380.2,702.671C1365.61,691.486 1349.73,678.774 1338.2,665.025C1330.51,655.859 1323.31,641.074 1313.84,636C1308.47,632.699 1299.79,634.771 1292.89,632.752C1278.85,631.523 1266.33,629.012 1253.56,629.311C1240.8,629.609 1226.5,631.19 1215.81,640.162C1206.64,647.853 1199.8,661.409 1196,672.401C1190.68,684.675 1184.33,692.612 1170.53,688.574C1153.91,684.29 1136.27,675.668 1121.43,667.292C1110.68,660.69 1102.75,654.334 1103.73,643.096C1102.69,638.759 1106,633.386 1106.49,627.767C1105.45,623.43 1100.08,620.129 1095.99,618.356C1085.24,611.754 1074.49,605.151 1065.28,597.268C1058.62,592.439 1051.72,590.42 1046.59,584.309C1039.94,579.48 1040.67,571.052 1032.74,564.696C1023.52,556.812 1009.96,549.964 1002.27,540.798C995.864,533.16 991.228,521.431 989.156,512.756C988.12,508.419 989.893,504.328 984.52,501.027C981.956,497.972 973.528,497.235 969.191,498.271C963.572,497.779 958.989,501.624 953.37,501.133C946.224,501.923 941.886,502.959 934.74,503.749C923.256,505.576 911.773,507.402 900.289,509.228C893.142,510.018 882.941,513.372 874.513,512.635C870.176,513.671 864.802,510.37 860.711,508.596C849.719,504.804 837.199,502.293 826.207,498.5C803.977,493.725 780.22,490.23 757.99,485.455C741.379,481.17 723.978,469.74 707.613,462.646C698.148,457.572 688.684,452.497 679.219,447.423C675.128,445.649 671.283,441.066 666.946,442.102C661.327,441.611 656.989,442.647 651.125,444.965C638.359,445.263 622.785,445.316 609.773,448.424C601.099,450.496 595.234,452.814 586.56,454.886C576.358,458.24 564.875,460.066 554.427,466.23C532.496,474.219 514.164,489.601 490.951,496.063C479.222,500.699 464.929,502.279 451.918,505.387C430.232,510.568 410.619,524.422 392.533,536.995C382.085,543.158 371.146,554.94 363.262,564.159C353.851,574.66 343.157,583.632 332.464,592.605C321.77,601.578 303.14,604.195 290.375,604.493C277.609,604.792 265.582,596.662 251.534,595.433C240.296,594.45 227.777,591.939 216.048,596.575C211.71,597.611 208.409,602.984 203.826,606.829C193.379,612.993 183.177,616.346 174.011,624.037C162.036,631.483 151.342,640.456 139.121,650.71C133.011,655.837 128.428,659.683 122.318,664.81C116.207,669.938 112.906,675.311 109.605,680.684C106.55,683.248 101.967,687.093 98.912,689.657C94.329,693.502 92.31,700.403 89.254,702.967C81.125,714.995 73.241,724.213 63.829,734.714C55.945,743.933 50.625,756.206 42.741,765.425C34.366,780.262 23.427,792.045 12.241,806.636C4.357,815.855 -6.336,824.828 -14.22,834.046C-20.576,841.983 -26.932,849.92 -34.571,856.329C-46.792,866.584 -60.049,872.502 -72.27,882.756C-92.129,899.42 -105.579,923.722 -121.592,944.969C-126.421,951.623 -129.722,956.997 -134.551,963.652C-101.376,884.435 -56.405,809.288 -0.449,740.563C141.756,565.906 393.427,388.834 720,388.834C1046.57,388.834 1288.73,519.794 1440,697.847C1446.69,705.721 1453.23,715.116 1459.62,723.268C1472.44,738.545 1484.06,761.3 1495.35,777.858C1576.35,871.289 1628.82,983.456 1656.79,1100.56Z" style="fill:url(#_Linear3);"/>
            <path d="M-85.451,973.141C-66.448,965.722 -37.456,900.893 -25.336,869.406C-2.196,867.753 44.582,872.558 46.572,904.995C49.061,945.541 155.219,984.367 170.044,1014.56C184.869,1044.76 225.935,1106.22 212.679,1128.01C199.422,1149.79 156.244,1186.02 148.236,1214.06C141.829,1236.49 92.721,1260.64 68.968,1269.91C61.05,1273 40.832,1276.47 23.302,1265.6C1.388,1252.01 38.127,1295.79 57.28,1343.67C76.433,1391.55 -6.243,1418.29 -26.588,1456.68C-46.933,1495.07 -44.716,1610.45 -46.556,1633.31C-48.396,1656.17 -77.397,1659.19 -81.726,1641.51C-86.054,1623.82 -90.488,1393.05 -130.634,1320.15C-162.752,1261.83 -142.679,1088.67 -128.629,1009.37C-122.154,1000.39 -104.453,980.559 -85.451,973.141Z" style="fill:url(#_Linear4);fill-rule:nonzero;"/>
            <path d="M658.656,633.891L689.208,608.254L727.399,576.209C742.674,563.391 729.857,548.114 739.953,513.61C750.049,479.107 755.229,500.792 782.095,517.297C808.96,533.803 779.637,545.392 771.999,551.801C764.361,558.21 774.721,601.581 781.13,609.219C787.539,616.857 813.176,647.41 791.49,652.59C769.805,657.77 762.167,664.179 712.387,666.902C672.563,669.079 659.973,645.802 658.656,633.891Z" style="fill:url(#_Linear5);fill-rule:nonzero;"/>
            <path d="M699.303,573.741C710.541,574.724 708.082,527.326 705.448,503.505C690.581,511.641 655.229,527.421 632.754,525.454C604.659,522.996 636.705,561.187 641.885,582.872C647.065,604.558 685.256,572.512 699.303,573.741Z" style="fill:url(#_Linear6);fill-rule:nonzero;"/>
            <path d="M1142.87,1490.14C1118.42,1510.65 1094.4,1504.77 1085.45,1499.27L1100.98,1564.34C1106.49,1555.38 1123.9,1545.1 1149.54,1575.66C1165.56,1594.75 1149.43,1637.57 1133.3,1680.4C1117.17,1723.22 1101.03,1766.04 1117.06,1785.14C1149.1,1823.33 1279.48,1870.13 1321.62,1873.81C1355.33,1876.76 1363.58,1825.58 1363.49,1799.62C1343.95,1807.35 1307.06,1797.52 1315.91,1696.37C1326.98,1569.94 1361.48,1580.05 1369.38,1651.51C1375.71,1708.68 1400.29,1729.71 1411.78,1733.07C1425.42,1738.98 1455.56,1766.62 1467.01,1829.91C1478.46,1893.2 1309.82,2035.56 1224.08,2098.83C1298,2062.84 1459.05,1969.35 1511.87,1883.38C1676.93,1614.72 1684.04,1452.56 1689.92,1304.45C1694.62,1185.96 1613.44,965.125 1572.26,869.517C1544.99,857.694 1480.23,837.401 1439.43,850.818C1391.49,866.582 1382.94,860.778 1332.16,826.278C1328.91,824.07 1325.49,821.745 1321.87,819.301C1280.35,791.241 1280.3,790.416 1279.14,771.193C1278.62,762.571 1277.87,750.247 1273.06,730.103C1261.52,681.808 1201.5,652.67 1149.36,627.357C1131.26,618.573 1114.12,610.25 1100.28,601.747C1046.55,568.739 968.671,569 953.394,581.819C947.983,586.36 940.312,586.262 933.123,586.17C920.018,586.003 908.512,585.856 915.204,613.865C922.011,642.354 939.23,656.484 957.513,671.486C967.065,679.323 976.906,687.399 985.704,697.884C1011.34,728.44 975.606,732.385 947.514,729.93C919.422,727.475 886.142,703.325 846.46,671.547C825.249,654.56 809.956,662.356 788.421,673.334C769.67,682.893 746.186,694.864 709.942,694.987C665.152,695.14 649.353,695.632 645.75,696.048C634.973,683.344 614.891,665.753 618.014,694.022L618.021,694.086C621.967,729.8 625.907,765.47 600.283,734.932C589.077,721.577 571.331,721.171 554.676,720.79C533.223,720.299 513.579,719.849 512.045,691.828C510.001,654.495 476.506,658.199 432.959,663.014C418.444,664.619 402.811,666.347 386.855,666.721C345.949,667.678 335.513,685.836 323.24,707.19C316.363,719.156 308.909,732.125 295.194,743.633C275.424,760.222 282.992,767.823 294.21,779.091C304.663,789.59 318.286,803.273 315.914,830.375C311.369,882.333 394.055,905.613 433.815,916.807C437.053,917.719 440.006,918.55 442.604,919.31C477.108,929.407 623.729,871.457 640.231,844.594C654.223,821.817 725.28,844.734 767.607,858.385C775.2,860.834 781.868,862.984 787.116,864.519C811.985,871.793 813.046,899.045 814.657,940.45C815.282,956.498 815.989,974.671 818.197,994.632C823.044,1038.45 821.023,1039.1 811.409,1042.19C805.342,1044.14 796.252,1047.06 783.958,1062.41C768.069,1082.25 778.911,1079.66 797.885,1075.13C816.859,1070.6 843.963,1064.13 860.601,1076.2C893.875,1100.34 911.61,1059.43 880.793,1007.19C849.976,954.951 857.353,870.665 876.581,893.579L959.9,992.875C991.946,1031.07 988.253,1073.21 960.161,1070.75C932.07,1068.29 965.605,1170.31 984.833,1193.22C998.873,1209.95 1013.43,1177.67 1030.14,1140.61C1036.31,1126.92 1042.78,1112.57 1049.62,1099.81C1067.32,1066.81 1079.03,1102.11 1088.85,1131.68C1093.11,1144.52 1097.02,1156.28 1100.9,1160.91C1113.71,1176.18 1104.85,1196.64 1062.71,1192.95C1020.56,1189.27 1068.15,1292.51 1087.38,1315.43L1164.29,1407.09C1196.33,1445.28 1173.42,1464.5 1142.87,1490.14ZM1140.58,1192.69C1152.99,1212.65 1181.9,1254.34 1198.26,1261.44C1214.63,1268.53 1228.26,1323.04 1233.03,1349.41C1239.03,1361.73 1252.8,1382.28 1259.9,1365.91C1268.76,1345.45 1283.78,1254.76 1250.5,1230.62C1217.23,1206.48 1141.81,1178.64 1140.58,1192.69Z" style="fill:url(#_Linear7);"/>
        </g>
    </g>
    <defs>
        <radialGradient id="_Radial2" cx="0" cy="0" r="1" gradientUnits="userSpaceOnUse" gradientTransform="matrix(975.494,1162.55,-1162.55,975.494,703.145,596.628)"><stop offset="0" style="stop-color:rgb(12,185,196);stop-opacity:1"/><stop offset="0.01" style="stop-color:rgb(12,185,196);stop-opacity:1"/><stop offset="0.21" style="stop-color:rgb(12,150,193);stop-opacity:1"/><stop offset="0.36" style="stop-color:rgb(11,121,183);stop-opacity:1"/><stop offset="0.5" style="stop-color:rgb(9,110,167);stop-opacity:1"/><stop offset="0.63" style="stop-color:rgb(7,94,143);stop-opacity:1"/><stop offset="0.76" style="stop-color:rgb(4,74,114);stop-opacity:1"/><stop offset="0.87" style="stop-color:rgb(0,60,116);stop-opacity:1"/><stop offset="1" style="stop-color:rgb(0,60,116);stop-opacity:1"/></radialGradient>
        <linearGradient id="_Linear3" x1="0" y1="0" x2="1" y2="0" gradientUnits="userSpaceOnUse" gradientTransform="matrix(873.568,1041.07,-1041.07,873.568,332.002,438.545)"><stop offset="0" style="stop-color:rgb(193,231,253);stop-opacity:1"/><stop offset="0.09" style="stop-color:rgb(112,194,254);stop-opacity:1"/><stop offset="0.23" style="stop-color:rgb(45,202,252);stop-opacity:1"/><stop offset="0.39" style="stop-color:rgb(79,188,250);stop-opacity:1"/><stop offset="0.54" style="stop-color:rgb(58,126,227);stop-opacity:1"/><stop offset="0.67" style="stop-color:rgb(68,106,205);stop-opacity:1"/><stop offset="0.8" style="stop-color:rgb(66,104,177);stop-opacity:1"/><stop offset="0.91" style="stop-color:rgb(31,89,142);stop-opacity:1"/><stop offset="1" style="stop-color:rgb(0,93,114);stop-opacity:1"/></linearGradient>
        <linearGradient id="_Linear4" x1="0" y1="0" x2="1" y2="0" gradientUnits="userSpaceOnUse" gradientTransform="matrix(-458.288,384.55,-384.55,-458.288,204.316,1054.17)"><stop offset="0" style="stop-color:rgb(106,190,71);stop-opacity:1"/><stop offset="1" style="stop-color:rgb(75,255,0);stop-opacity:0"/></linearGradient>
        <linearGradient id="_Linear5" x1="0" y1="0" x2="1" y2="0" gradientUnits="userSpaceOnUse" gradientTransform="matrix(-135.249,113.487,-113.487,-135.249,807.199,544.093)"><stop offset="0" style="stop-color:rgb(106,190,71);stop-opacity:1"/><stop offset="1" style="stop-color:rgb(75,255,0);stop-opacity:0"/></linearGradient>
        <linearGradient id="_Linear6" x1="0" y1="0" x2="1" y2="0" gradientUnits="userSpaceOnUse" gradientTransform="matrix(-77.385,64.935,-64.935,-77.385,710.721,509.789)"><stop offset="0" style="stop-color:rgb(106,190,71);stop-opacity:1"/><stop offset="1" style="stop-color:rgb(75,255,0);stop-opacity:0"/></linearGradient>
        <linearGradient id="_Linear7" x1="0" y1="0" x2="1" y2="0" gradientUnits="userSpaceOnUse" gradientTransform="matrix(-809.638,679.369,-679.369,-809.638,1513.23,799.171)"><stop offset="0" style="stop-color:rgb(106,190,71);stop-opacity:1"/><stop offset="1" style="stop-color:rgb(75,255,0);stop-opacity:0"/></linearGradient>
    </defs>
</svg>
