<svg width="1440" height="866" viewBox="0 0 1440 866" fill="none" xmlns="http://www.w3.org/2000/svg">
<path fill-rule="evenodd" clip-rule="evenodd" d="M1332.18 2053.42C1261.9 2112.39 1187 2159.62 1108.98 2193.85C949.898 2264.86 776.608 2287.91 608.532 2267.55C489.499 2252.89 371.15 2214.22 264.478 2155.35C167.27 2101.55 77.4016 2028.57 1.77352 1938.44C-8.48111 1926.22 -20.0175 1912.47 -28.7446 1898.97C-42.5989 1879.36 -57.7348 1858.22 -71.5891 1838.6C-171.186 1682.68 -219.528 1507.18 -218.336 1331.76C-218.302 1266.65 -211.121 1200.75 -198.321 1135.35C-188.524 1088.08 -174.389 1039.77 -157.445 991.712C-153.652 980.72 -149.86 969.729 -143.258 958.982C-143.258 958.982 -143.258 958.982 -141.73 957.7C-136.41 945.427 -132.617 934.434 -126.015 923.688C-108.772 888.394 -88.7204 853.346 -67.3864 819.825C-51.1269 795.769 -34.8677 771.713 -17.3264 749.185C-4.61382 733.311 8.0989 717.438 23.6209 701.81C53.3832 669.027 84.4276 637.771 119.563 608.289C139.422 591.625 160.563 576.489 181.704 561.353C195.207 552.626 208.71 543.899 222.212 535.172C301.702 484.091 385.581 447.55 472.569 424.02C514.658 412.132 559.31 403.299 603.717 397.276C676.71 388.092 750.494 386.054 823.294 395.254C1059.04 418.71 1286.93 532.069 1451 727.606C1457.41 735.244 1463.82 742.882 1470.23 750.52C1476.64 758.158 1484.33 767.324 1489.21 776.244C1520.76 820.053 1549.26 866.427 1572.14 912.308C1585.26 940.35 1598.38 968.392 1608.68 996.188C1616.92 1015.31 1622.34 1034.19 1629.05 1054.59C1633.44 1069.13 1637.83 1083.67 1642.22 1098.21C1641.98 1101.02 1643.26 1102.54 1644.29 1106.88C1669.65 1205.35 1677.66 1307.97 1668.81 1409.11C1667.58 1423.15 1666.35 1437.2 1665.12 1451.25C1662.86 1460.96 1663.4 1470.91 1661.14 1480.62C1659.66 1497.48 1655.38 1514.09 1652.62 1529.42C1640.31 1589.21 1621.11 1646.98 1597.8 1702.98C1569.43 1768.44 1534.15 1831.88 1492.22 1890.49C1444.92 1945.8 1393.28 2002.15 1332.18 2053.42Z" fill="url(#paint0_radial_139_1023)"/>
<path fill-rule="evenodd" clip-rule="evenodd" d="M1647.58 1095.54C1645.01 1092.49 1643.73 1090.96 1639.64 1089.18C1631.7 1082.83 1626.82 1073.91 1621.94 1064.99C1618.34 1057.6 1618.83 1051.98 1612.42 1044.34C1606.26 1033.89 1602.91 1023.69 1596.74 1013.24C1590.58 1002.79 1587.22 992.593 1582.59 980.863C1579.23 970.662 1575.14 968.888 1568.49 964.059C1561.83 959.231 1561.04 952.084 1557.44 944.692C1555.37 936.018 1548.96 928.38 1545.36 920.987C1533.04 900.092 1523.76 876.633 1512.97 854.456C1507.05 841.199 1498.08 830.506 1487.82 818.285C1480.13 809.119 1470.67 804.045 1462.97 794.879C1457.85 788.768 1455.53 782.903 1450.4 776.793C1446.8 769.401 1440.15 764.572 1435.02 758.461C1428.86 748.014 1426.54 742.149 1415.79 735.547C1407.86 729.191 1404.01 724.608 1396.07 718.252C1389.66 710.613 1378.92 704.011 1370.98 697.655C1356.39 686.47 1340.52 673.757 1328.98 660.009C1321.29 650.843 1314.09 636.058 1304.62 630.984C1299.25 627.683 1290.58 629.755 1283.68 627.736C1269.63 626.507 1257.11 623.996 1244.34 624.295C1231.58 624.593 1217.29 626.174 1206.59 635.146C1197.43 642.837 1190.58 656.393 1186.79 667.385C1181.47 679.659 1175.11 687.596 1161.31 683.558C1144.7 679.273 1127.05 670.652 1112.21 662.276C1101.47 655.674 1093.53 649.318 1094.51 638.08C1093.48 633.743 1096.78 628.37 1097.27 622.751C1096.23 618.414 1090.86 615.113 1086.77 613.34C1076.02 606.738 1065.28 600.135 1056.06 592.251C1049.4 587.423 1042.5 585.404 1037.37 579.293C1030.72 574.464 1031.46 566.036 1023.52 559.679C1014.3 551.796 1000.75 544.948 993.055 535.782C986.646 528.144 982.01 516.414 979.938 507.74C978.902 503.403 980.675 499.312 975.302 496.011C972.738 492.956 964.31 492.218 959.973 493.254C954.354 492.763 949.771 496.608 944.152 496.116C937.006 496.907 932.668 497.943 925.522 498.733C914.038 500.559 902.555 502.386 891.071 504.212C883.924 505.002 873.723 508.356 865.295 507.619C860.958 508.655 855.584 505.354 851.493 503.58C840.501 499.788 827.981 497.277 816.989 493.484C794.759 488.708 771.002 485.214 748.772 480.438C732.161 476.154 714.76 464.724 698.395 457.63C688.93 452.555 679.466 447.481 670.001 442.407C665.91 440.633 662.065 436.05 657.728 437.086C652.109 436.594 647.771 437.631 641.907 439.949C629.141 440.247 613.567 440.3 600.555 443.408C591.881 445.48 586.016 447.798 577.342 449.87C567.14 453.224 555.657 455.05 545.209 461.214C523.278 469.203 504.947 484.585 481.733 491.047C470.004 495.683 455.711 497.263 442.7 500.371C421.014 505.551 401.401 519.406 383.315 531.979C372.867 538.142 361.928 549.924 354.044 559.143C344.633 569.643 333.939 578.616 323.246 587.589C312.552 596.562 293.922 599.178 281.157 599.477C268.391 599.776 256.364 591.646 242.316 590.417C231.078 589.434 218.559 586.923 206.83 591.558C202.492 592.595 199.191 597.968 194.608 601.813C184.161 607.977 173.959 611.33 164.793 619.021C152.818 626.467 142.125 635.439 129.904 645.694C123.793 650.821 119.21 654.667 113.1 659.794C106.989 664.922 103.688 670.295 100.387 675.668C97.3318 678.232 92.7492 682.077 89.694 684.641C85.1111 688.486 83.0915 695.387 80.0363 697.951C71.9066 709.979 64.0225 719.197 54.611 729.698C46.727 738.916 41.407 751.19 33.5231 760.409C25.1476 775.246 14.2085 787.029 3.02346 801.62C-4.8605 810.839 -15.5538 819.812 -23.4377 829.03C-29.7941 836.967 -36.1504 844.904 -43.7885 851.313C-56.0095 861.568 -69.2668 867.485 -81.4878 877.74C-101.347 894.404 -114.797 918.706 -130.81 939.952C-135.639 946.607 -138.94 951.981 -143.769 958.636C-88.3012 826.187 0.14232 705.116 117.77 606.415C261.367 485.923 428.88 415.649 600.643 393.874C673.636 384.689 747.419 382.652 820.219 391.852C1055.97 415.308 1283.85 528.667 1447.93 724.203C1460.74 739.48 1474.84 756.284 1486.13 772.842C1567.14 866.273 1619.6 978.44 1647.58 1095.54Z" fill="url(#paint1_linear_139_1023)"/>
<path d="M961.672 1369.89C986.325 1411.68 1011.39 1475.68 1020.85 1502.46L1059.3 1548.29C1072.12 1563.56 1081.51 1698.85 1056.14 1746.18C1030.77 1793.5 1107.41 1807.28 1139.46 1845.47C1171.51 1883.66 964.748 1900.96 908.559 1896.05C852.37 1891.13 836.129 1995.87 827.262 2016.33C818.395 2036.78 769.844 2025.46 702.33 2069.09C634.815 2112.73 531.568 2160.31 465.283 2189.9C412.255 2213.57 326.537 2184.84 290.307 2167.52C276.67 2161.6 253.434 2135.98 269.586 2080.77C289.776 2011.76 353.341 1932.4 377.484 1899.12C401.628 1865.85 619.711 1800 519.622 1649.7C419.534 1499.39 353.78 1684.73 336.217 1400.1C318.655 1115.47 737.352 1102.55 773.084 1098.6C808.817 1094.65 817.948 1152.07 898.545 1201.59C963.023 1241.2 998.048 1304.66 1007.5 1331.43C981.952 1326.84 937.018 1328.1 961.672 1369.89Z" fill="url(#paint2_linear_139_1023)"/>
<path d="M-100.266 973.595C-81.2633 966.176 -52.2718 901.347 -40.1513 869.86C-17.0114 868.207 29.7661 873.012 31.7568 905.449C34.2452 945.995 140.403 984.821 155.228 1015.02C170.053 1045.21 211.12 1106.68 197.863 1128.46C184.607 1150.24 141.429 1186.47 133.421 1214.51C127.014 1236.94 77.9059 1261.09 54.1527 1270.37C46.2349 1273.46 26.0168 1276.92 8.48614 1266.05C-13.4271 1252.46 23.3112 1296.24 42.4646 1344.12C61.6179 1392 -21.0584 1418.74 -41.4032 1457.13C-61.748 1495.52 -59.531 1610.91 -61.371 1633.77C-63.2109 1656.63 -92.2125 1659.65 -96.5409 1641.96C-100.869 1624.27 -105.303 1393.51 -145.45 1320.61C-177.567 1262.29 -157.495 1089.12 -143.444 1009.83C-136.969 1000.84 -119.268 981.013 -100.266 973.595Z" fill="url(#paint3_linear_139_1023)"/>
<path d="M643.84 634.345L674.393 608.708L712.583 576.662C727.859 563.845 715.041 548.568 725.138 514.064C735.234 479.56 740.414 501.246 767.279 517.751C794.145 534.256 764.821 545.846 757.183 552.255C749.545 558.664 759.906 602.035 766.315 609.673C772.724 617.311 798.36 647.863 776.675 653.044C754.99 658.224 747.351 664.633 697.571 667.355C657.747 669.533 645.157 646.256 643.84 634.345Z" fill="url(#paint4_linear_139_1023)"/>
<path d="M684.488 574.194C695.726 575.177 693.267 527.78 690.633 503.958C675.766 512.094 640.414 527.874 617.938 525.907C589.844 523.45 621.889 561.64 627.07 583.326C632.25 605.011 670.44 572.965 684.488 574.194Z" fill="url(#paint5_linear_139_1023)"/>
<path fill-rule="evenodd" clip-rule="evenodd" d="M1128.05 1490.59C1103.61 1511.1 1079.59 1505.23 1070.63 1499.73L1086.17 1564.79C1091.67 1555.83 1109.09 1545.56 1134.73 1576.11C1150.75 1595.2 1134.62 1638.03 1118.48 1680.85C1102.35 1723.67 1086.22 1766.5 1102.24 1785.59C1134.29 1823.78 1264.66 1870.58 1306.8 1874.27C1340.51 1877.22 1348.77 1826.04 1348.68 1800.08C1329.13 1807.8 1292.25 1797.97 1301.1 1696.83C1312.17 1570.39 1346.66 1580.5 1354.57 1651.96C1360.89 1709.13 1385.47 1730.16 1396.97 1733.53C1410.61 1739.44 1440.75 1767.08 1452.19 1830.36C1463.64 1893.65 1295.01 2036.02 1209.26 2099.29C1283.19 2063.29 1444.24 1969.8 1497.06 1883.83C1662.11 1615.17 1669.22 1453.02 1675.1 1304.91C1679.81 1186.42 1598.62 965.579 1557.45 869.971C1530.17 858.148 1465.42 837.855 1424.61 851.272C1376.67 867.036 1368.13 861.232 1317.34 826.732C1314.09 824.525 1310.67 822.199 1307.05 819.755C1265.53 791.695 1265.48 790.87 1264.32 771.647C1263.8 763.025 1263.06 750.701 1258.24 730.557C1246.71 682.262 1186.69 653.124 1134.54 627.811C1116.45 619.027 1099.3 610.704 1085.46 602.201C1031.73 569.193 953.855 569.455 938.579 582.273C933.167 586.814 925.497 586.716 918.307 586.624C905.202 586.457 893.696 586.31 900.388 614.319C907.195 642.809 924.415 656.938 942.698 671.94C952.249 679.777 962.091 687.853 970.889 698.338C996.528 728.894 960.79 732.839 932.698 730.384C904.606 727.929 871.326 703.779 831.645 672.001C810.433 655.014 795.14 662.81 773.606 673.788C754.854 683.347 731.371 695.318 695.127 695.441C650.336 695.594 634.538 696.086 630.935 696.503C620.158 683.798 600.076 666.207 603.199 694.476L603.206 694.54C607.151 730.254 611.092 765.924 585.468 735.386C574.262 722.031 556.516 721.625 539.86 721.244C518.408 720.753 498.764 720.304 497.23 692.282C495.185 654.949 461.691 658.653 418.144 663.468C403.628 665.073 387.996 666.802 372.039 667.175C331.134 668.132 320.697 686.29 308.425 707.644C301.547 719.61 294.093 732.579 280.378 744.088C260.609 760.676 268.176 768.278 279.395 779.545C289.848 790.044 303.47 803.727 301.099 830.829C296.553 882.787 379.24 906.067 419 917.261C422.238 918.173 425.191 919.004 427.789 919.765C462.293 929.861 608.914 871.911 625.415 845.048C639.407 822.271 710.465 845.188 752.791 858.839C760.384 861.288 767.052 863.438 772.301 864.973C797.169 872.247 798.23 899.499 799.842 940.904C800.466 956.952 801.174 975.125 803.382 995.086C808.229 1038.9 806.207 1039.55 796.593 1042.64C790.527 1044.59 781.437 1047.51 769.142 1062.86C753.253 1082.71 764.096 1080.12 783.069 1075.58C802.043 1071.05 829.148 1064.58 845.785 1076.65C879.06 1100.79 896.794 1059.88 865.978 1007.64C835.161 955.406 842.538 871.119 861.765 894.033L945.084 993.329C977.13 1031.52 973.437 1073.66 945.346 1071.2C917.255 1068.74 950.79 1170.76 970.018 1193.67C984.058 1210.41 998.611 1178.13 1015.32 1141.07C1021.49 1127.37 1027.96 1113.03 1034.81 1100.26C1052.5 1067.26 1064.22 1102.56 1074.03 1132.13C1078.3 1144.97 1082.2 1156.74 1086.08 1161.36C1098.9 1176.64 1090.03 1197.09 1047.89 1193.41C1005.75 1189.72 1053.33 1292.97 1072.56 1315.88L1149.47 1407.54C1181.52 1445.73 1158.6 1464.96 1128.05 1490.59ZM1125.77 1193.15C1138.17 1213.1 1167.08 1254.8 1183.45 1261.89C1199.81 1268.98 1213.45 1323.49 1218.22 1349.86C1224.22 1362.18 1237.99 1382.73 1245.08 1366.37C1253.95 1345.91 1268.96 1255.22 1235.69 1231.07C1202.41 1206.93 1127 1179.1 1125.77 1193.15Z" fill="url(#paint6_linear_139_1023)"/>
<defs>
<radialGradient id="paint0_radial_139_1023" cx="0" cy="0" r="1" gradientUnits="userSpaceOnUse" gradientTransform="translate(688.329 597.082) rotate(50) scale(1517.6 1517.6)">
<stop offset="0.00558659" stop-color="#0CB9C4"/>
<stop offset="0.2058" stop-color="#0C96C1"/>
<stop offset="0.3613" stop-color="#0B79B7"/>
<stop offset="0.5018" stop-color="#096EA7"/>
<stop offset="0.6334" stop-color="#075E8F"/>
<stop offset="0.7576" stop-color="#044A72"/>
<stop offset="0.8715" stop-color="#003C74"/>
</radialGradient>
<linearGradient id="paint1_linear_139_1023" x1="322.784" y1="433.529" x2="1196.35" y2="1474.6" gradientUnits="userSpaceOnUse">
<stop stop-color="#C1E7FD"/>
<stop offset="0.0885417" stop-color="#70C2FE"/>
<stop offset="0.2325" stop-color="#2DCAFC"/>
<stop offset="0.3947" stop-color="#4FBCFA"/>
<stop offset="0.5382" stop-color="#3A7EE3"/>
<stop offset="0.6707" stop-color="#446ACD"/>
<stop offset="0.7958" stop-color="#4268B1"/>
<stop offset="0.9136" stop-color="#1F598E"/>
<stop offset="1" stop-color="#005D72"/>
</linearGradient>
<linearGradient id="paint2_linear_139_1023" x1="1023.25" y1="1329.65" x2="177.991" y2="2038.91" gradientUnits="userSpaceOnUse">
<stop stop-color="#6ABE47"/>
<stop offset="1" stop-color="#4BFF00" stop-opacity="0"/>
</linearGradient>
<linearGradient id="paint3_linear_139_1023" x1="189.501" y1="1054.62" x2="-268.787" y2="1439.17" gradientUnits="userSpaceOnUse">
<stop stop-color="#6ABE47"/>
<stop offset="1" stop-color="#4BFF00" stop-opacity="0"/>
</linearGradient>
<linearGradient id="paint4_linear_139_1023" x1="792.383" y1="544.547" x2="657.135" y2="658.034" gradientUnits="userSpaceOnUse">
<stop stop-color="#6ABE47"/>
<stop offset="1" stop-color="#4BFF00" stop-opacity="0"/>
</linearGradient>
<linearGradient id="paint5_linear_139_1023" x1="695.906" y1="510.242" x2="618.52" y2="575.177" gradientUnits="userSpaceOnUse">
<stop stop-color="#6ABE47"/>
<stop offset="1" stop-color="#4BFF00" stop-opacity="0"/>
</linearGradient>
<linearGradient id="paint6_linear_139_1023" x1="1498.42" y1="799.625" x2="688.776" y2="1479" gradientUnits="userSpaceOnUse">
<stop stop-color="#6ABE47"/>
<stop offset="1" stop-color="#4BFF00" stop-opacity="0"/>
</linearGradient>
</defs>
</svg>
