<svg xmlns="http://www.w3.org/2000/svg" viewBox="0 0 290 290">
    <defs>
        <linearGradient id="d" x1="13.942" x2="13.942" y1="13.941" y2="276.06" gradientUnits="userSpaceOnUse">
            <stop offset="0" stop-color="#e0af79"/>
            <stop offset=".3" stop-color="#ffdbb5"/>
            <stop offset=".75" stop-color="#b2762f"/>
            <stop offset="1" stop-color="#ebba81"/>
        </linearGradient>
        <linearGradient id="a" x2="0" y2="290" gradientUnits="userSpaceOnUse">
            <stop offset="0" stop-color="#ffcea8"/>
            <stop offset="1" stop-color="#9c6c47"/>
        </linearGradient>
        <linearGradient id="c" x1="40.309" x2="40.309" y1="40.309" y2="249.69" gradientUnits="userSpaceOnUse">
            <stop offset="0" stop-color="#0b3f39"/>
            <stop offset="1" stop-color="#1ca596"/>
        </linearGradient>
        <mask id="b" maskUnits="userSpaceOnUse">
            <path fill="#fff" d="M0 0v290h290V0zm145 3.1914.002.0078.002-.0078 20.053 121.75 121.75 20.055-121.75 20.055-20.055 121.75v-.01l-.002.01-20.053-121.75-121.75-20.055 121.75-20.055z"/>
        </mask>
    </defs>
    <path fill="url(#a)" d="M145 0a145 145 0 0 0-29.131 3.3242l-5.0684 15.945c-4.0576 12.764-18.629 18.799-30.523 12.643l-15.107-7.8184a145 145 0 0 0-41.076 41.076l7.8184 15.107c6.1562 11.894.119 26.466-12.645 30.523l-15.943 5.0684a145 145 0 0 0-3.3242 29.131 145 145 0 0 0 3.3242 29.131l15.943 5.0684c12.764 4.0574 18.801 18.629 12.645 30.523l-7.8184 15.107a145 145 0 0 0 41.076 41.076l15.107-7.8184c11.895-6.1562 26.466-.119 30.523 12.645l5.0684 15.943A145 145 0 0 0 145 289.9984a145.03 145.03 0 0 0 29.012-2.9492l5.1875-16.318c4.0574-12.764 18.63-18.801 30.523-12.645l15.209 7.8711a145 145 0 0 0 41.027-41.027l-7.8711-15.209c-6.1559-11.894-.119-26.466 12.645-30.523l16.318-5.1875a145 145 0 0 0 2.9492-29.012 145 145 0 0 0-3.3242-29.131l-15.943-5.0684c-12.764-4.0576-18.8-18.629-12.645-30.523l7.8184-15.107a145 145 0 0 0-41.076-41.076l-15.107 7.8184c-11.893 6.1559-26.466.121-30.523-12.643l-5.0684-15.945a145 145 0 0 0-29.131-3.3242z" mask="url(#b)"/>
    <circle cx="145" cy="145" r="104.69" fill="url(#c)" mask="url(#b)"/>
    <path fill="url(#d)" d="m145 13.941-18.533 112.52-112.52 18.535 112.52 18.535L145 276.051l.002-.008v.008l18.533-112.52 112.52-18.535-112.52-18.535-18.533-112.52-.002.0078z"/>
</svg>
