<svg xmlns="http://www.w3.org/2000/svg" viewBox="0 0 290 290">
    <path d="M145 0a145 145 0 0 0-29.131 3.3242l-5.0684 15.945c-4.0576 12.764-18.629 18.798-30.523 12.643l-15.107-7.8184a145 145 0 0 0-41.076 41.076l7.8184 15.107c6.1562 11.894.119 26.466-12.645 30.523l-15.943 5.0684a145 145 0 0 0-3.3242 29.131 145 145 0 0 0 3.3242 29.131l15.943 5.0684c12.764 4.0574 18.801 18.629 12.645 30.523l-7.8184 15.107a145 145 0 0 0 41.076 41.076l15.107-7.8184c11.895-6.1562 26.466-.119 30.523 12.645l5.0684 15.943A145 145 0 0 0 145 289.9984a145.03 145.03 0 0 0 29.012-2.9492l5.1875-16.318c4.0574-12.764 18.63-18.801 30.523-12.645l15.209 7.8711a145 145 0 0 0 41.027-41.027l-7.8711-15.209c-6.1559-11.894-.119-26.466 12.645-30.523l16.318-5.1875a145 145 0 0 0 2.9492-29.012 145 145 0 0 0-3.3242-29.131l-15.943-5.0684c-12.764-4.0576-18.8-18.629-12.645-30.523l7.8184-15.107a145 145 0 0 0-41.076-41.076l-15.107 7.8184c-11.893 6.1559-26.466.121-30.523-12.643l-5.0684-15.945a145 145 0 0 0-29.131-3.3242zm-.002 3.1914.002.0078.002-.0078 6.1464 37.318a104.69 104.69 0 0 1 98.342 98.344l37.318 6.1465-37.561 6.1875a104.69 104.69 0 0 1-98.061 98.061l-6.1875 37.561v-.0098l-.0019.0098-6.1856-37.561a104.69 104.69 0 0 1-98.061-98.061l-37.561-6.1875 37.561-6.1875a104.69 104.69 0 0 1 98.061-98.061l6.1856-37.561zm.002 10.75-.002.0078-18.533 112.52-112.52 18.535 112.52 18.535L145 276.0592l.002-.0078v.0078l18.533-112.52 112.52-18.535-112.52-18.535-18.533-112.52-.002.0059v-.0059z"/>
</svg>
