<svg xmlns="http://www.w3.org/2000/svg" version="1.1" xmlns:xlink="http://www.w3.org/1999/xlink" width="24" height="24"><svg viewBox="0 0 24 24" xmlns="http://www.w3.org/2000/svg">
 <path d="m12.002 1.0188e-6c-0.24893 4.656e-5 -0.49741 0.11549-0.65469 0.34574-1.1071 1.6208-1.5818 3.026-1.7463 4.1934-0.013706 0.097254-0.02496 0.19253-0.034498 0.28595-0.063026-0.06758-0.12865-0.13565-0.19702-0.20392-0.8446-0.8433-2.0826-1.7051-3.958-2.388-0.54295-0.19769-1.1131 0.20014-1.0848 0.75588 0.09848 1.932 0.57601 3.332 1.1561 4.3643 0.041289 0.073481 0.082907 0.14514 0.12496 0.21465-0.080859-0.016616-0.1639-0.032792-0.24838-0.04753-1.1946-0.20838-2.7232-0.21203-4.6649 0.29285-0.57003 0.14825-0.80008 0.8295-0.43007 1.2703 1.2699 1.5128 2.5172 2.3725 3.6169 2.8756 0.049273 0.02254 0.098634 0.04408 0.14719 0.06516-0.064925 0.02791-0.1308 0.05687-0.19702 0.08739-1.0944 0.50449-2.334 1.3627-3.5954 2.8656-0.37028 0.44114-0.1395 1.1222 0.43007 1.2703 1.955 0.50838 3.492 0.50099 4.6902 0.28825 0.06659-0.01182 0.13193-0.02456 0.19625-0.03756-0.038989 0.06481-0.077434 0.13185-0.11576 0.20009-0.57981 1.0323-1.0576 2.4319-1.1561 4.3636-0.028339 0.55618 0.543 0.95343 1.0855 0.75588 1.8988-0.69136 3.1436-1.5664 3.9887-2.4194 0.06465-0.06526 0.12725-0.13011 0.18705-0.19472 9e-3 0.08485 0.019007 0.17113 0.031431 0.25912 0.16477 1.167 0.63907 2.5718 1.7456 4.1919 0.31483 0.46025 0.99632 0.46035 1.3109 7.67e-4v-7.67e-4c1.1141-1.6313 1.5879-3.0448 1.7494-4.2164 0.01187-0.0861 0.02207-0.17066 0.03066-0.25375 0.0568 0.06114 0.11518 0.12305 0.17632 0.18476 0.84511 0.85292 2.0903 1.7274 3.9887 2.4187 0.54256 0.19755 1.1131-0.1997 1.0848-0.75588-0.0984-1.9314-0.57564-3.3306-1.1553-4.3628-0.03983-0.07093-0.07981-0.13976-0.12036-0.20699 0.07812 0.01622 0.15767 0.03153 0.23918 0.046 1.1981 0.2127 2.7345 0.22005 4.6894-0.28825 0.56957-0.14809 0.80113-0.8291 0.43084-1.2703-1.2612-1.5026-2.5004-2.3611-3.5947-2.8656-0.06923-0.03192-0.13764-0.06217-0.20545-0.09123 0.06731-0.02862 0.1352-0.05826 0.20392-0.08969 1.0997-0.50304 2.3476-1.3633 3.6177-2.8763 0.37002-0.44079 0.1392-1.122-0.43084-1.2703-1.9418-0.50492-3.4709-0.50062-4.6656-0.29208-0.08595 0.015005-0.17002 0.031351-0.25222 0.048297 0.04275-0.07099 0.08531-0.14414 0.12726-0.21925 0.57561-1.0307 1.0482-2.4257 1.1461-4.3467 0.02834-0.55612-0.5422-0.95345-1.0848-0.75588-1.8862 0.68684-3.1278 1.5546-3.9726 2.4026-0.06849 0.068751-0.13393 0.13741-0.19702 0.20545-0.0097-0.091714-0.02154-0.1852-0.03526-0.28058-0.16729-1.1634-0.64193-2.5615-1.7425-4.1727-0.1574-0.23041-0.40653-0.34579-0.65546-0.34574zm0 1.8307c0.66101 1.134 0.95063 2.0966 1.0633 2.8802 0.09207 0.64012 0.06895 1.1764 0.01916 1.6222-0.34029-0.056065-0.68964-0.085094-1.0457-0.085094-0.38114 0-0.75425 0.033245-1.117 0.09736-0.05068-0.44416-0.07548-0.97873 0.01457-1.6176 0.11088-0.7867 0.39984-1.7549 1.0656-2.897zm6.2395 1.9342c-0.16227 1.2799-0.51717 2.2166-0.90614 2.9131-0.3205 0.57387-0.67138 0.99843-0.98663 1.3324-0.23902-0.2342-0.50132-0.4522-0.78655-0.65086-0.30523-0.21259-0.6246-0.39468-0.95367-0.5466 0.2322-0.38987 0.54256-0.83976 1.0104-1.3094 0.5712-0.57337 1.3946-1.1914 2.6226-1.7387zm-12.467 0.042164c1.2195 0.54348 2.0403 1.1565 2.6111 1.7264 0.47023 0.46954 0.78268 0.92029 1.0165 1.3109-0.3062 0.14556-0.60405 0.31727-0.88927 0.51593-0.30531 0.21266-0.58465 0.4475-0.83714 0.70069-0.31497-0.33218-0.6654-0.75379-0.98663-1.3255-0.39223-0.69803-0.75118-1.6396-0.91457-2.9285zm6.264 3.7894c0.45291 0 0.89031 0.059502 1.304 0.17019 0.03878 0.010374 0.07756 0.01785 0.11652 0.022232 0.02606 0.012184 0.05346 0.023416 0.08126 0.032964 0.4199 0.1442 0.82601 0.3474 1.2067 0.61253 0.36326 0.25301 0.6786 0.54522 0.9437 0.86551 0.03096 0.0374 0.06464 0.07151 0.10119 0.10196 0.01325 0.02433 0.02769 0.04802 0.0437 0.0713 0.23024 0.33481 0.41838 0.70459 0.55426 1.1055 0.14374 0.42406 0.21898 0.85264 0.23228 1.2756 0.0015 0.04813 0.0077 0.09585 0.01763 0.14182-0.0077 0.03829-0.01268 0.07674-0.01457 0.11653-0.01896 0.40067-0.09329 0.80643-0.22922 1.2074-0.1437 0.42395-0.34559 0.81327-0.59413 1.163-0.01861 0.02618-0.03552 0.05292-0.0506 0.08049-0.03693 0.03057-0.07145 0.06431-0.10273 0.10196-0.26408 0.31793-0.57723 0.60862-0.93834 0.86014-0.38167 0.26584-0.7888 0.46908-1.2097 0.61329-0.02818 0.0097-0.05565 0.02061-0.08203 0.03297-0.04044 0.0049-0.08092 0.0132-0.12112 0.02453-0.43195 0.12169-0.8911 0.18771-1.3661 0.18782-0.45-3e-6 -0.88401-0.05919-1.2956-0.16866-0.04418-0.01175-0.08904-0.01976-0.13339-0.02377-0.02004-0.0087-0.04029-0.01656-0.06133-0.02376-0.42091-0.14421-0.82884-0.34826-1.2105-0.61406-0.36107-0.25152-0.6743-0.54148-0.93834-0.85938-0.00999-0.01202-0.020061-0.02319-0.030665-0.0345-0.022159-0.05169-0.049774-0.10195-0.083561-0.14949-0.24853-0.34968-0.45051-0.73844-0.59413-1.1622-0.1334-0.39355-0.20789-0.79152-0.22845-1.1852 0.029917-0.07958 0.047827-0.16504 0.050597-0.25298 0.013306-0.42296 0.088587-0.8509 0.23228-1.2749 0.13593-0.40114 0.32394-0.77138 0.55426-1.1062 0.015578-0.02265 0.029961-0.04611 0.04293-0.06976 0.040445-0.03329 0.077544-0.07099 0.11116-0.11269 0.27283-0.33834 0.60042-0.64625 0.98127-0.91151 0.36323-0.25301 0.75027-0.44984 1.1499-0.59259 0.02967-0.010598 0.05823-0.022429 0.08586-0.036031 0.03736-0.0049 0.07481-0.012567 0.11193-0.022998 0.43148-0.12128 0.88854-0.18705 1.363-0.18705zm8.2848 1.0748c0.52457 0.00326 1.1116 0.054174 1.7678 0.17479-0.92153 0.9426-1.7893 1.4988-2.5367 1.8406-0.61959 0.2834-1.168 0.42622-1.6298 0.5167-0.04972-0.34275-0.13164-0.68579-0.24685-1.0257v-7.67e-4c-0.1061-0.31302-0.23674-0.61177-0.38944-0.89541 0.43136-0.18688 0.9653-0.38001 1.6429-0.4983 0.40561-0.070803 0.86761-0.11518 1.3922-0.11193zm-16.619 0.055963c0.52453-0.0033 0.98657 0.041172 1.3922 0.11193 0.67756 0.1182 1.2115 0.31148 1.6429 0.4983-0.15283 0.28392-0.2833 0.58299-0.38944 0.89617-0.11516 0.33985-0.19717 0.68314-0.24685 1.0257-0.46187-0.090491-1.0103-0.23327-1.6298-0.5167-0.7474-0.3419-1.6154-0.89744-2.5367-1.8399 0.65614-0.12062 1.2433-0.17225 1.7678-0.17555zm14.213 4.0493c0.46359 0.0919 1.0145 0.23667 1.6352 0.52283 0.74305 0.3426 1.6039 0.89688 2.5176 1.8314-1.3232 0.24324-2.3664 0.20434-3.1807 0.05979-0.67504-0.11985-1.2068-0.31429-1.636-0.50137 0.16985-0.30516 0.31412-0.62838 0.4293-0.96824 0.10612-0.31313 0.18419-0.6288 0.23458-0.94447zm-11.856 0.0276c0.050316 0.31577 0.12762 0.63189 0.23382 0.94524 0.11517 0.33979 0.25952 0.66322 0.4293 0.96824-0.42917 0.18708-0.96091 0.38073-1.636 0.5006-0.81435 0.14458-1.8574 0.18423-3.1807-0.05903 0.91391-0.93478 1.7751-1.4896 2.5183-1.8322 0.62067-0.28612 1.1716-0.43094 1.6352-0.52283zm10.244 3.1508c0.31618 0.33349 0.66908 0.75736 0.992 1.3324 0.392 0.698 0.75047 1.6395 0.9138 2.9277-1.2377-0.5515-2.0644-1.1753-2.6364-1.7525-0.46775-0.47208-0.7761-0.92363-1.0073-1.314 0.3305-0.15231 0.65101-0.33464 0.9575-0.54813 0.2829-0.19705 0.54292-0.41346 0.78042-0.64549zm-8.6704 0.02913c0.23751 0.23205 0.49756 0.44846 0.78041 0.64549h7.665e-4c0.30647 0.2135 0.62698 0.39582 0.9575 0.54813-0.23123 0.39038-0.54029 0.84178-1.0081 1.314-0.572 0.57732-1.3985 1.2009-2.6364 1.7525 0.16335-1.2885 0.52169-2.2296 0.91381-2.9277 0.32301-0.57505 0.67577-0.99888 0.992-1.3324zm5.4177 1.6505c0.05182 0.44406 0.07841 0.97902-0.01 1.6199-0.10899 0.79023-0.39766 1.7651-1.0687 2.9162-0.66546-1.1416-0.95374-2.1097-1.0648-2.8963-0.09071-0.64236-0.0662-1.1801-0.01533-1.626 0.33772 0.05525 0.68473 0.08433 1.038 0.08433 0.38248-2.5e-5 0.75697-0.03354 1.1208-0.09813z" fill="#65c7f0" style="--darkreader-inline-fill: var(--darkreader-text-65c7f0, #65c7f0);" data-darkreader-inline-fill=""></path>
</svg><style>@media (prefers-color-scheme: light) { :root { filter: none; } }
@media (prefers-color-scheme: dark) { :root { filter: none; } }
</style></svg>