<svg width="61" height="62" viewBox="0 0 61 62" fill="none" xmlns="http://www.w3.org/2000/svg">
<path d="M22.7257 20.8341L21.6879 19.4647L21.6879 19.4647L22.7257 20.8341ZM19.8757 23.4826L21.2637 24.526L19.8757 23.4826ZM26.2372 18.6879L27.7847 17.9186L26.2372 18.6879ZM26.0663 19.1135L26.6931 20.6942L26.0663 19.1135ZM13.1843 7.97774L12.5827 9.55295L13.1843 7.97774ZM13.1843 7.97774L12.5827 9.55295C16.8992 11.1247 19.5986 13.0491 21.3627 14.8106C23.1316 16.5769 24.0237 18.2375 24.6897 19.4573L26.2372 18.6879L27.7847 17.9186C27.1028 16.6696 26.0158 14.6309 23.8689 12.4871C21.7171 10.3386 18.564 8.14235 13.7859 6.40253L13.1843 7.97774ZM26.0663 19.1135L25.4394 17.5327C24.1316 17.9999 22.8688 18.6422 21.6879 19.4647L22.7257 20.8341L23.7635 22.2035C24.6889 21.5589 25.6749 21.0579 26.6931 20.6942L26.0663 19.1135ZM22.7257 20.8341L21.6879 19.4647C20.4508 20.3264 19.3811 21.3311 18.4877 22.4392L19.8757 23.4826L21.2637 24.526C21.9588 23.664 22.7932 22.8793 23.7635 22.2035L22.7257 20.8341ZM19.398 23.5103L20.638 22.3355C19.6343 21.3545 18.2559 20.0337 17.0414 17.8723C15.8306 15.7175 14.745 12.6515 14.5183 8.20477L12.7697 8.26654L11.0212 8.32832C11.2721 13.2506 12.4886 16.8171 13.9664 19.4472C15.4406 22.0708 17.1376 23.6874 18.1581 24.685L19.398 23.5103ZM19.8757 23.4826L18.4877 22.4392C18.991 21.815 19.9989 21.7108 20.638 22.3355L19.398 23.5103L18.1581 24.685C19.069 25.5754 20.5259 25.4412 21.2637 24.526L19.8757 23.4826ZM26.2372 18.6879L24.6897 19.4573C24.2695 18.6876 24.6742 17.806 25.4394 17.5327L26.0663 19.1135L26.6931 20.6942C27.8147 20.2936 28.3834 19.0151 27.7847 17.9186L26.2372 18.6879ZM13.1843 7.97774L13.7859 6.40253C12.4026 5.89886 10.949 6.91243 11.0212 8.32832L12.7697 8.26654L14.5183 8.20477C14.5689 9.19853 13.5538 9.90657 12.5827 9.55295L13.1843 7.97774Z" fill="#FAFAFA"/>
<path d="M17.8178 27.2968L16.1774 26.7858L16.1773 26.7859L17.8178 27.2968ZM17.1365 31.0389L18.8664 31.0576L17.1365 31.0389ZM16.7665 31.3455L17.0804 29.6623L16.7665 31.3455ZM19.3299 23.6002L20.1064 22.0608L19.3299 23.6002ZM19.4442 24.0522L20.8706 24.9898L19.4442 24.0522ZM2.17802 22.2674L2.58805 23.916C7.06941 22.7507 10.4558 22.792 12.9839 23.233C15.5192 23.6753 17.2676 24.5289 18.5534 25.1395L19.3299 23.6002L20.1064 22.0608C18.803 21.4418 16.6896 20.4033 13.6532 19.8736C10.6097 19.3427 6.71477 19.3324 1.768 20.6187L2.17802 22.2674ZM19.4442 24.0522L18.0178 23.1146C17.2515 24.2286 16.6273 25.4583 16.1774 26.7858L17.8178 27.2968L19.4583 27.8078C19.8046 26.7858 20.2838 25.8429 20.8706 24.9898L19.4442 24.0522ZM17.8178 27.2968L16.1773 26.7859C15.7018 28.1891 15.4509 29.6131 15.4067 31.0202L17.1365 31.0389L18.8664 31.0576C18.9003 29.98 19.0922 28.888 19.4583 27.8078L17.8178 27.2968ZM16.7665 31.3455L17.0804 29.6623C15.6688 29.4336 13.7288 29.1493 11.3957 28.082C9.06999 27.0181 6.28707 25.141 3.3562 21.6495L2.01374 22.7523L0.671278 23.8551C3.90668 27.7093 7.08523 29.8996 9.88689 31.1813C12.6811 32.4596 15.0343 32.799 16.4525 33.0287L16.7665 31.3455ZM17.1365 31.0389L15.4067 31.0202C15.4322 30.2073 16.1875 29.5177 17.0804 29.6623L16.7665 31.3455L16.4525 33.0287C17.7254 33.2349 18.8288 32.2513 18.8664 31.0576L17.1365 31.0389ZM19.3299 23.6002L18.5534 25.1395C17.7491 24.7576 17.5553 23.7871 18.0178 23.1146L19.4442 24.0522L20.8706 24.9898C21.5496 24.0027 21.2522 22.605 20.1064 22.0608L19.3299 23.6002ZM2.17802 22.2674L1.768 20.6187C0.315712 20.9964 -0.271394 22.7321 0.671278 23.8551L2.01374 22.7523L3.3562 21.6495C4.01783 22.4377 3.6077 23.6509 2.58805 23.916L2.17802 22.2674Z" fill="#FAFAFA"/>
<path d="M17.6795 35.2309L16.039 35.7419L16.039 35.7419L17.6795 35.2309ZM19.4223 38.6413L20.8333 37.6817L19.4223 38.6413ZM19.3109 39.0979L20.0889 40.6365L19.3109 39.0979ZM16.6372 31.3879L16.9528 33.0708L16.6372 31.3879ZM17.0069 31.6892L18.7357 31.6442L17.0069 31.6892ZM2.10621 40.4595L1.69622 42.1081L2.10621 40.4595ZM1.94182 39.9746L3.28432 41.0773C6.19572 37.6088 8.96125 35.734 11.2773 34.6664C13.5999 33.5957 15.5381 33.3014 16.9528 33.0708L16.6372 31.3879L16.3217 29.705C14.8881 29.9386 12.5412 30.2889 9.75953 31.5712C6.97122 32.8565 3.81317 35.043 0.599314 38.8719L1.94182 39.9746ZM17.0069 31.6892L15.278 31.7342C15.3408 33.067 15.5888 34.4135 16.039 35.7419L17.6795 35.2309L19.32 34.7199C18.9737 33.6983 18.7838 32.6657 18.7357 31.6442L17.0069 31.6892ZM17.6795 35.2309L16.039 35.7419C16.5146 37.1451 17.1849 38.438 18.0113 39.6009L19.4223 38.6413L20.8333 37.6817C20.2001 36.7908 19.6858 35.7995 19.3199 34.7199L17.6795 35.2309ZM19.3109 39.0979L18.5329 37.5592C17.2507 38.1697 15.5067 39.033 12.9647 39.4844C10.4307 39.9343 7.02824 39.984 2.5162 38.8108L2.10621 40.4595L1.69622 42.1081C6.67712 43.4033 10.5918 43.384 13.6443 42.842C16.6888 42.3014 18.8008 41.2498 20.0889 40.6365L19.3109 39.0979ZM19.4223 38.6413L18.0113 39.6009C17.5336 38.9288 17.722 37.9453 18.5329 37.5592L19.3109 39.0979L20.0889 40.6365C21.245 40.0861 21.5347 38.6687 20.8333 37.6817L19.4223 38.6413ZM16.6372 31.3879L16.9528 33.0708C16.0681 33.215 15.316 32.5391 15.278 31.7342L17.0069 31.6892L18.7357 31.6442C18.68 30.4628 17.5822 29.4995 16.3217 29.705L16.6372 31.3879ZM1.94182 39.9746L0.599314 38.8719C-0.34407 39.9958 0.245117 41.7308 1.69622 42.1081L2.10621 40.4595L2.5162 38.8108C3.53468 39.0757 3.94667 40.2882 3.28432 41.0773L1.94182 39.9746Z" fill="#FAFAFA"/>
<path d="M22.4782 41.7102L21.4404 43.0796L21.4405 43.0796L22.4782 41.7102ZM25.994 43.4929L25.3889 45.0812L25.994 43.4929ZM26.1693 43.9208L24.6213 43.1523L26.1693 43.9208ZM19.2778 39.1897L20.5197 40.3625L19.2778 39.1897ZM19.7531 39.2135L18.3804 40.2757L19.7531 39.2135ZM12.6533 54.4345L14.4018 54.4962L12.6533 54.4345ZM12.6533 54.4345L14.4018 54.4962C14.6283 50.0505 15.7138 46.9849 16.9243 44.8297C18.1386 42.6679 19.5164 41.3465 20.5197 40.3625L19.2778 39.1897L18.036 38.0169C17.0184 39.0148 15.3224 40.6322 13.849 43.2554C12.3718 45.8854 11.1555 49.4512 10.9047 54.3727L12.6533 54.4345ZM19.7531 39.2135L18.3804 40.2757C19.2448 41.3163 20.2671 42.2623 21.4404 43.0796L22.4782 41.7102L23.516 40.3408C22.5961 39.7 21.7984 38.9612 21.1257 38.1513L19.7531 39.2135ZM22.4782 41.7102L21.4405 43.0796C22.6802 43.9432 24.0105 44.6089 25.3889 45.0812L25.994 43.4929L26.5992 41.9045C25.5268 41.5371 24.4883 41.018 23.516 40.3408L22.4782 41.7102ZM26.1693 43.9208L24.6213 43.1523C23.9579 44.3694 23.0822 46.0387 21.3128 47.8247C19.5495 49.6044 16.836 51.5569 12.4663 53.148L13.0679 54.7232L13.6695 56.2984C18.507 54.537 21.6791 52.3081 23.8323 50.1347C25.9793 47.9676 27.0508 45.912 27.7174 44.6892L26.1693 43.9208ZM25.994 43.4929L25.3889 45.0812C24.6122 44.8151 24.199 43.927 24.6213 43.1523L26.1693 43.9208L27.7174 44.6892C28.3198 43.5841 27.7379 42.2947 26.5992 41.9045L25.994 43.4929ZM19.2778 39.1897L20.5197 40.3625C19.8877 40.9823 18.8893 40.8883 18.3804 40.2757L19.7531 39.2135L21.1257 38.1513C20.3799 37.2535 18.937 37.1333 18.036 38.0169L19.2778 39.1897ZM12.6533 54.4345L10.9047 54.3727C10.8325 55.7897 12.2873 56.8017 13.6695 56.2984L13.0679 54.7232L12.4663 53.148C13.4364 52.7948 14.4525 53.5014 14.4018 54.4962L12.6533 54.4345Z" fill="#FAFAFA"/>
<path d="M30.6704 18.3491L30.6704 16.6309H30.6704V18.3491ZM26.7322 18.889L27.1971 20.5431L26.7322 18.889ZM34.8271 18.59L33.1288 18.3293L34.8271 18.59ZM34.4361 18.8409L33.992 20.5007L34.4361 18.8409ZM30.8271 2.56243L32.2459 1.59327L30.8271 2.56243ZM30.3262 2.56248L28.9074 1.59336L30.3262 2.56248ZM30.8271 2.56243L29.4083 3.53159C31.9372 7.23371 32.9387 10.3056 33.285 12.714C33.6324 15.1294 33.3379 16.9672 33.1288 18.3293L34.8271 18.59L36.5254 18.8507C36.7397 17.4543 37.1117 15.1819 36.6864 12.2248C36.2602 9.2609 35.0499 5.69821 32.2459 1.59327L30.8271 2.56243ZM34.4361 18.8409L34.8803 17.1811C33.5382 16.822 32.1259 16.6309 30.6704 16.6309L30.6704 18.3491L30.6704 20.0673C31.8243 20.0673 32.938 20.2187 33.992 20.5007L34.4361 18.8409ZM30.6704 18.3491V16.6309C29.1442 16.6309 27.6662 16.8416 26.2672 17.2349L26.7322 18.889L27.1971 20.5431C28.2964 20.2341 29.4615 20.0673 30.6704 20.0673V18.3491ZM26.3371 18.6392L28.0351 18.3763C27.8246 17.0169 27.5207 15.1801 27.8622 12.7573C28.2026 10.3422 29.2012 7.25571 31.745 3.53161L30.3262 2.56248L28.9074 1.59336C26.0868 5.72279 24.8786 9.30345 24.4594 12.2777C24.0413 15.2443 24.425 17.519 24.6391 18.9021L26.3371 18.6392ZM26.7322 18.889L26.2672 17.2349C27.0435 17.0167 27.9004 17.5067 28.0351 18.3763L26.3371 18.6392L24.6391 18.9021C24.8311 20.1422 26.06 20.8627 27.1971 20.5431L26.7322 18.889ZM34.8271 18.59L33.1288 18.3293C33.2614 17.4653 34.1074 16.9743 34.8803 17.1811L34.4361 18.8409L33.992 20.5007C35.1238 20.8035 36.3363 20.082 36.5254 18.8507L34.8271 18.59ZM30.8271 2.56243L32.2459 1.59327C31.4439 0.41924 29.7088 0.420099 28.9074 1.59336L30.3262 2.56248L31.745 3.53161C31.1826 4.35506 29.9713 4.35582 29.4083 3.53159L30.8271 2.56243Z" fill="#FAFAFA"/>
<path d="M38.6089 20.8317L39.6467 19.4624L39.6467 19.4623L38.6089 20.8317ZM35.1016 19.0522L35.7079 17.4642L35.1016 19.0522ZM34.9266 18.6252L33.378 17.8577L34.9266 18.6252ZM41.8231 23.3702L43.0645 24.5435L41.8231 23.3702ZM41.3481 23.3459L39.9737 24.4059L41.3481 23.3459ZM48.4143 8.15917L46.6657 8.09743L48.4143 8.15917ZM47.9997 7.87045L48.6013 9.44565L47.9997 7.87045ZM48.4143 8.15917L46.6657 8.09743C46.4404 12.5188 45.3655 15.5748 44.1633 17.7275C42.9577 19.8862 41.586 21.2128 40.5817 22.197L41.8231 23.3702L43.0645 24.5435C44.0929 23.5358 45.7794 21.9146 47.2426 19.2947C48.7091 16.6688 49.9134 13.1152 50.1628 8.2209L48.4143 8.15917ZM41.3481 23.3459L42.7226 22.2859C41.855 21.2378 40.8276 20.2849 39.6467 19.4624L38.6089 20.8317L37.5711 22.2011C38.4966 22.8457 39.2983 23.5899 39.9737 24.4059L41.3481 23.3459ZM38.6089 20.8317L39.6467 19.4623C38.4098 18.6008 37.0827 17.9362 35.7079 17.4642L35.1016 19.0522L34.4954 20.6401C35.5652 21.0075 36.6014 21.5256 37.5712 22.2011L38.6089 20.8317ZM34.9266 18.6252L36.4751 19.3926C37.1383 18.1742 38.0224 16.5092 39.7911 14.7338C41.5544 12.9638 44.2602 11.0264 48.6013 9.44565L47.9997 7.87045L47.3981 6.29524C42.5926 8.04512 39.4306 10.2565 37.2783 12.4169C35.1314 14.572 34.0523 16.6189 33.378 17.8577L34.9266 18.6252ZM35.1016 19.0522L35.7079 17.4642C36.4826 17.7302 36.8973 18.617 36.4751 19.3926L34.9266 18.6252L33.378 17.8577C32.7763 18.9632 33.3596 20.2501 34.4954 20.6401L35.1016 19.0522ZM41.8231 23.3702L40.5817 22.197C41.2154 21.576 42.215 21.6726 42.7226 22.2859L41.3481 23.3459L39.9737 24.4059C40.7177 25.3047 42.1617 25.4282 43.0645 24.5435L41.8231 23.3702ZM48.4143 8.15917L50.1628 8.2209C50.235 6.80406 48.7804 5.79189 47.3981 6.29524L47.9997 7.87045L48.6013 9.44565C47.6311 9.79893 46.615 9.09215 46.6657 8.09743L48.4143 8.15917Z" fill="#FAFAFA"/>
<path d="M43.3964 27.1527L45.0369 26.6416L45.0369 26.6417L43.3964 27.1527ZM44.0781 30.8956L42.3482 30.9143L44.0781 30.8956ZM41.885 23.4579L42.6615 24.9973L41.885 23.4579ZM41.7707 23.9099L43.1971 22.9724L41.7707 23.9099ZM59.0375 22.1239L58.6275 23.7725L59.0375 22.1239ZM59.2018 22.6088L57.8593 21.506L59.2018 22.6088ZM59.0375 22.1239L58.6275 23.7725C54.1457 22.6071 50.7591 22.6488 48.231 23.0901C45.6957 23.5327 43.9473 24.3866 42.6615 24.9973L41.885 23.4579L41.1085 21.9185C42.4115 21.2997 44.5249 20.2608 47.5613 19.7307C50.605 19.1994 54.5002 19.1888 59.4475 20.4752L59.0375 22.1239ZM41.7707 23.9099L43.1971 22.9724C43.9629 24.0857 44.587 25.3143 45.0369 26.6416L43.3964 27.1527L41.756 27.6637C41.4098 26.6424 40.9309 25.7004 40.3443 24.8474L41.7707 23.9099ZM43.3964 27.1527L45.0369 26.6417C45.5125 28.045 45.7636 29.4695 45.8079 30.8769L44.0781 30.8956L42.3482 30.9143C42.3143 29.8366 42.1222 28.7441 41.756 27.6637L43.3964 27.1527ZM44.4481 31.2023L44.1342 29.5191C45.5457 29.2904 47.4858 29.0062 49.819 27.939C52.1448 26.8752 54.928 24.998 57.8593 21.506L59.2018 22.6088L60.5442 23.7116C57.3084 27.5664 54.1295 29.7568 51.3277 31.0384C48.5332 32.3166 46.18 32.6558 44.7621 32.8855L44.4481 31.2023ZM44.0781 30.8956L45.8079 30.8769C45.7823 30.064 45.027 29.3744 44.1342 29.5191L44.4481 31.2023L44.7621 32.8855C43.4892 33.0917 42.3858 32.1081 42.3482 30.9143L44.0781 30.8956ZM41.885 23.4579L42.6615 24.9973C43.4656 24.6154 43.6597 23.6449 43.1971 22.9724L41.7707 23.9099L40.3443 24.8474C39.6652 23.8603 39.9628 22.4626 41.1085 21.9185L41.885 23.4579ZM59.0375 22.1239L59.4475 20.4752C60.8998 20.8529 61.4869 22.5886 60.5442 23.7116L59.2018 22.6088L57.8593 21.506C57.1977 22.2942 57.6078 23.5074 58.6275 23.7725L59.0375 22.1239Z" fill="#FAFAFA"/>
<path d="M43.4113 35.1589L45.0517 35.6699L45.0517 35.67L43.4113 35.1589ZM41.6682 38.5702L43.0791 39.5299L41.6682 38.5702ZM44.4541 31.3171L44.7696 29.6342L44.4541 31.3171ZM44.0845 31.6184L45.8133 31.6637L44.0845 31.6184ZM59.1477 39.9033L57.8052 41.006L59.1477 39.9033ZM58.9833 40.3881L59.3933 42.0368L58.9833 40.3881ZM59.1477 39.9033L57.8052 41.006C54.8944 37.5381 52.1294 35.6635 49.8137 34.5958C47.4914 33.5251 45.5533 33.2306 44.1385 33.0001L44.4541 31.3171L44.7696 29.6342C46.2036 29.8679 48.5503 30.2184 51.3316 31.5007C54.1195 32.7861 57.277 34.9724 60.4902 38.8005L59.1477 39.9033ZM44.0845 31.6184L45.8133 31.6637C45.7502 32.9963 45.5016 34.3424 45.0517 35.6699L43.4113 35.1589L41.7708 34.6479C42.1171 33.6263 42.3074 32.5939 42.3557 31.5731L44.0845 31.6184ZM43.4113 35.1589L45.0517 35.67C44.5761 37.0732 43.906 38.3666 43.0791 39.5299L41.6682 38.5702L40.2573 37.6106C40.8905 36.7197 41.4047 35.728 41.7708 34.6479L43.4113 35.1589ZM41.7796 39.0268L42.5576 37.4882C43.8399 38.0987 45.5838 38.9619 48.1257 39.4132C50.6595 39.863 54.0617 39.9126 58.5733 38.7395L58.9833 40.3881L59.3933 42.0368C54.4129 43.3318 50.4985 43.3127 47.4461 42.7708C44.4018 42.2304 42.2899 41.1789 41.0016 40.5655L41.7796 39.0268ZM41.6682 38.5702L43.0791 39.5299C43.5568 38.8579 43.3686 37.8743 42.5576 37.4882L41.7796 39.0268L41.0016 40.5655C39.8454 40.015 39.5558 38.5975 40.2573 37.6106L41.6682 38.5702ZM44.4541 31.3171L44.1385 33.0001C45.0233 33.1442 45.7752 32.4684 45.8133 31.6637L44.0845 31.6184L42.3557 31.5731C42.4116 30.3919 43.5091 29.4288 44.7696 29.6342L44.4541 31.3171ZM59.1477 39.9033L60.4902 38.8005C61.4336 39.9245 60.8444 41.6595 59.3933 42.0368L58.9833 40.3881L58.5733 38.7395C57.5549 39.0043 57.1428 40.2169 57.8052 41.006L59.1477 39.9033Z" fill="#FAFAFA"/>
<path d="M38.5146 41.6361L39.5524 43.0055L39.5524 43.0055L38.5146 41.6361ZM34.9988 43.4188L35.604 45.0071L34.9988 43.4188ZM41.715 39.1156L40.4732 40.2884L41.715 39.1156ZM41.2398 39.1394L42.6124 40.2016L41.2398 39.1394ZM47.9238 54.6475L47.3221 56.2227L47.9238 54.6475ZM48.3384 54.3588L46.5899 54.4205C46.3633 49.9756 45.2782 46.9104 44.068 44.7555C42.854 42.5938 41.4765 41.2723 40.4732 40.2884L41.715 39.1156L42.9569 37.9427C43.9748 38.9409 45.6703 40.5583 47.1434 43.1813C48.6202 45.8111 49.8362 49.3764 50.0869 54.297L48.3384 54.3588ZM41.2398 39.1394L42.6124 40.2016C41.7481 41.2422 40.7259 42.1881 39.5524 43.0055L38.5146 41.6361L37.4769 40.2667C38.3969 39.6259 39.1944 38.8871 39.8672 38.0771L41.2398 39.1394ZM38.5146 41.6361L39.5524 43.0055C38.3126 43.8691 36.9825 44.5348 35.604 45.0071L34.9988 43.4188L34.3937 41.8304C35.4661 41.463 36.5045 40.944 37.4769 40.2667L38.5146 41.6361ZM34.8235 43.8466L36.3716 43.0782C37.035 44.2953 37.9108 45.9644 39.68 47.75C41.4432 49.5294 44.1564 51.4814 48.5254 53.0723L47.9238 54.6475L47.3221 56.2227C42.4855 54.4615 39.3137 52.2332 37.1606 50.0602C35.0137 47.8934 33.9422 45.8382 33.2755 44.615L34.8235 43.8466ZM34.9988 43.4188L35.604 45.0071C36.3806 44.741 36.7938 43.8529 36.3716 43.0782L34.8235 43.8466L33.2755 44.615C32.6731 43.5099 33.255 42.2206 34.3937 41.8304L34.9988 43.4188ZM41.715 39.1156L40.4732 40.2884C41.1052 40.9082 42.1036 40.8141 42.6124 40.2016L41.2398 39.1394L39.8672 38.0771C40.6129 37.1793 42.0559 37.0592 42.9569 37.9427L41.715 39.1156ZM48.3384 54.3588L50.0869 54.297C50.1592 55.714 48.7044 56.726 47.3221 56.2227L47.9238 54.6475L48.5254 53.0723C47.5553 52.7191 46.5392 53.4257 46.5899 54.4205L48.3384 54.3588Z" fill="#FAFAFA"/>
<path d="M30.7578 60.0093L32.1756 60.9798L32.1767 60.9783L30.7578 60.0093ZM30.2549 60.0093L28.836 60.9784L28.8368 60.9794L30.2549 60.0093ZM30.3975 44.1724V45.8906H30.3975L30.3975 44.1724ZM34.3424 43.6301L33.8765 41.9763L34.3424 43.6301ZM34.7382 43.8805L36.4364 43.6187L34.7382 43.8805ZM26.2627 43.9375L27.9611 44.1976L26.2627 43.9375ZM26.6535 43.6859L26.2119 45.3464L26.6535 43.6859ZM30.7578 60.0093L29.34 59.0387C29.9025 58.2169 31.1097 58.2158 31.673 59.0391L30.2549 60.0093L28.8368 60.9794C29.6389 62.152 31.3741 62.1507 32.1756 60.9798L30.7578 60.0093ZM30.2549 60.0093L31.6737 59.0402C29.1315 55.3181 28.133 52.2329 27.792 49.8183C27.4499 47.3958 27.7525 45.5591 27.9611 44.1976L26.2627 43.9375L24.5643 43.6774C24.3526 45.0593 23.9707 47.3337 24.3894 50.2988C24.8092 53.2719 26.0169 56.8509 28.836 60.9784L30.2549 60.0093ZM26.6535 43.6859L26.2119 45.3464C27.5464 45.7013 28.9505 45.8906 30.3975 45.8906V44.1724V42.4542C29.251 42.4542 28.1437 42.3043 27.0951 42.0254L26.6535 43.6859ZM30.3975 44.1724L30.3975 45.8906C31.9268 45.8905 33.4073 45.6786 34.8084 45.2839L34.3424 43.6301L33.8765 41.9763C32.7754 42.2865 31.6083 42.4541 30.3974 42.4542L30.3975 44.1724ZM34.7382 43.8805L33.0401 44.1424C33.2496 45.5013 33.5631 47.3365 33.2278 49.7678C32.8937 52.1902 31.8986 55.2924 29.339 59.0402L30.7578 60.0093L32.1767 60.9783C35.0152 56.8222 36.2204 53.2221 36.632 50.2372C37.0424 47.2612 36.6469 44.984 36.4364 43.6187L34.7382 43.8805ZM34.3424 43.6301L34.8084 45.2839C34.0302 45.5032 33.174 45.0109 33.0401 44.1424L34.7382 43.8805L36.4364 43.6187C36.2452 42.3789 35.0162 41.6552 33.8765 41.9763L34.3424 43.6301ZM26.2627 43.9375L27.9611 44.1976C27.8291 45.0594 26.9855 45.5521 26.2119 45.3464L26.6535 43.6859L27.0951 42.0254C25.9623 41.7242 24.7525 42.4481 24.5643 43.6774L26.2627 43.9375Z" fill="#FAFAFA"/>
</svg>
