<svg width="275" height="165" viewBox="0 0 275 165" fill="none" xmlns="http://www.w3.org/2000/svg">
<g filter="url(#filter0_d_3146_3421)">
<g filter="url(#filter1_i_3146_3421)">
<path d="M34.8535 14.5825L144.071 10.7686L251.914 65.7075L146.118 69.402L34.8535 14.5825Z" fill="#4C647E"/>
</g>
<path d="M41.5557 17.8813L145.969 68.9031L147.91 124.512L45.4043 128.092L41.5557 17.8813Z" fill="url(#paint0_linear_3146_3421)"/>
<rect x="145.855" y="69.4126" width="106.124" height="55.1389" transform="rotate(-2 145.855 69.4126)" fill="#7897A7"/>
<rect x="50.5869" y="72.7388" width="55.0368" height="17.8193" transform="rotate(-2 50.5869 72.7388)" fill="#EFE0CA"/>
<rect x="50.5869" y="72.7388" width="12.1134" height="17.8193" transform="rotate(-2 50.5869 72.7388)" fill="#5F8683"/>
<path d="M107.823 93.2802L115.409 125.648L102.513 126.098L107.823 93.2802Z" fill="url(#paint1_linear_3146_3421)"/>
<path d="M124.036 52.0079L137.87 124.696L115.306 125.484L118.441 99.3017L120.048 84.9479L123.79 78.9299L121.214 76.8331L122.231 68.219L124.564 67.1282L122.645 65.0085L124.036 52.0079Z" fill="url(#paint2_linear_3146_3421)"/>
</g>
<g filter="url(#filter2_g_3146_3421)">
<path d="M212.426 88.9531C209.559 86.7415 204.829 85.8498 197.02 87.3379C186.406 91.751 182.446 94.7236 183.08 101.775C180.361 101.206 176.813 101.252 172.184 102.134C162.218 106.277 158.118 109.151 158.18 115.324C156.513 115.025 154.367 115.073 151.606 115.588C147.976 117.066 145.592 118.281 144.241 119.784C142.088 116.149 137.331 114.006 126.828 115.764C114.032 120.436 111.217 123.211 114.544 133.14C116.079 142.484 121.966 144.383 126.828 145.259C130.468 145.259 133.871 144.481 136.771 143.129C136.774 143.141 136.777 143.154 136.78 143.167C138.365 154.152 144.441 156.383 149.461 157.412C154.783 157.412 159.614 155.576 163.174 152.589C165.752 155.734 169.159 156.792 172.184 157.412C178.782 157.412 184.626 154.59 188.227 150.25C190.695 152.76 193.751 153.681 196.492 154.243C200.34 154.243 203.931 153.283 206.971 151.622C209.592 156.805 213.9 158.233 217.628 158.998C228.571 158.998 237.441 151.237 237.441 141.663C237.441 140.248 237.44 138.79 237.376 137.345C239.029 139.849 241.439 140.609 243.553 141.033C245.882 141.033 248.061 140.481 249.922 139.523C252.955 143.206 258.739 143.627 263.038 140.408C267.451 137.105 272.769 133.124 265.666 127.264C263.988 126.472 262.599 125.905 261.373 125.606C263.734 122.253 265.408 118.653 260.029 116.6C255.723 116.231 253.824 116.686 251.8 120.028C250.324 119.425 248.323 119.197 245.606 119.506C245.796 118.768 245.897 118.001 245.897 117.214C245.897 114.044 245.897 110.523 243.937 108.324C244.793 105.242 244.467 102.505 239.767 101.936C235.621 102.599 233.869 103.467 232.712 106.937C232.691 106.945 232.67 106.955 232.648 106.964C232.391 94.8422 230.365 82.9724 214.421 87.6455C213.725 88.0906 213.06 88.5259 212.426 88.9531Z" fill="url(#paint3_linear_3146_3421)"/>
</g>
<g filter="url(#filter3_g_3146_3421)">
<path d="M85.2061 109.077C82.9184 108.08 79.1424 107.679 72.9102 108.35C64.4401 110.339 61.2801 111.678 61.7861 114.856C59.616 114.6 56.7837 114.621 53.0879 115.019C45.1375 116.886 41.8652 118.181 41.9121 120.961C40.5817 120.826 38.8693 120.848 36.666 121.08C33.769 121.746 31.8659 122.294 30.7881 122.972C29.0696 121.333 25.2735 120.367 16.8906 121.159C6.67842 123.265 4.43172 124.516 7.08691 128.991C8.31239 133.203 13.01 134.058 16.8906 134.453C19.7955 134.453 22.5118 134.103 24.8262 133.493C24.8292 133.499 24.8319 133.505 24.835 133.511C26.1 138.462 30.9492 139.468 34.9551 139.932C39.202 139.932 43.0567 139.102 45.8975 137.756C47.955 139.174 50.6739 139.652 53.0879 139.932C58.3541 139.932 63.0177 138.657 65.8916 136.701C67.8612 137.832 70.2994 138.249 72.4873 138.503C75.5591 138.503 78.426 138.068 80.8525 137.319C82.9442 139.656 86.3824 140.301 89.3574 140.646C98.0905 140.646 105.17 137.147 105.17 132.832C105.17 132.194 105.17 131.537 105.119 130.886C106.438 132.013 108.361 132.357 110.047 132.548C111.906 132.548 113.645 132.298 115.131 131.866C117.551 133.527 122.168 133.719 125.601 132.268C129.122 130.779 133.366 128.984 127.698 126.343C126.359 125.986 125.249 125.729 124.271 125.595C126.154 124.084 127.486 122.463 123.195 121.538C119.761 121.372 118.248 121.579 116.634 123.083C115.455 122.81 113.856 122.706 111.685 122.846C111.836 122.513 111.917 122.168 111.917 121.813C111.917 120.385 111.916 118.801 110.352 117.81C111.037 116.419 110.778 115.185 107.024 114.928C103.715 115.227 102.317 115.618 101.394 117.184C101.378 117.187 101.362 117.191 101.347 117.194C101.141 111.731 99.5224 106.382 86.7988 108.488C86.2435 108.689 85.7125 108.885 85.2061 109.077Z" fill="url(#paint4_linear_3146_3421)"/>
</g>
<g filter="url(#filter4_d_3146_3421)">
<mask id="mask0_3146_3421" style="mask-type:alpha" maskUnits="userSpaceOnUse" x="68" y="15" width="146" height="44">
<rect width="83.4105" height="71.3878" transform="matrix(0.881674 0.471859 -0.998768 0.0496338 140.209 15.877)" fill="#D9D9D9"/>
</mask>
<g mask="url(#mask0_3146_3421)">
<g filter="url(#filter5_d_3146_3421)">
<rect width="83.7053" height="72.2644" transform="matrix(0.881674 0.471859 -0.998768 0.0496338 140.21 15.877)" fill="url(#paint5_linear_3146_3421)"/>
<rect width="83.7053" height="72.2644" transform="matrix(0.881674 0.471859 -0.998768 0.0496338 140.21 15.877)" fill="url(#paint6_linear_3146_3421)" fill-opacity="0.2"/>
<rect x="-0.0301119" y="0.134108" width="83.191" height="71.7501" transform="matrix(0.881674 0.471859 -0.998768 0.0496338 140.34 16.0186)" stroke="url(#paint7_linear_3146_3421)" stroke-width="0.514322"/>
</g>
<path d="M150.577 28.425C151.728 28.7001 152.593 29.1632 152.579 29.4962L152.428 33.0082C152.42 33.1913 152.143 33.3093 151.666 33.333L137.822 34.021C137.345 34.0447 136.712 33.9719 136.079 33.8207L123.945 30.9192C122.794 30.6441 121.929 30.181 121.943 29.848L122.094 26.336C122.102 26.1529 122.378 26.0349 122.856 26.0112L136.699 25.3232C137.177 25.2995 137.81 25.3723 138.443 25.5236L150.577 28.425Z" fill="#1955DF" fill-opacity="0.26"/>
<path d="M123.177 25.9055C124.327 26.1806 125.193 26.6437 125.178 26.9767L125.028 30.4887C125.02 30.6718 124.743 30.7898 124.266 30.8135L110.422 31.5015C109.945 31.5252 109.311 31.4524 108.679 31.3011L96.5442 28.3996C95.3937 28.1245 94.5284 27.6615 94.5427 27.3285L94.6934 23.8165C94.7013 23.6334 94.9781 23.5154 95.4554 23.4916L109.299 22.8037C109.776 22.78 110.41 22.8527 111.042 23.004L123.177 25.9055Z" fill="#274FAA" fill-opacity="0.38"/>
<path d="M152.043 16.2444C153.193 16.5195 154.059 16.9825 154.044 17.3155L153.894 20.8275C153.886 21.0107 153.609 21.1287 153.132 21.1524L139.288 21.8403C138.811 21.8641 138.177 21.7913 137.545 21.64L125.41 18.7385C124.26 18.4634 123.395 18.0003 123.409 17.6674L123.56 14.1554C123.568 13.9722 123.844 13.8542 124.322 13.8305L138.165 13.1425C138.643 13.1188 139.276 13.1916 139.909 13.3429L152.043 16.2444Z" fill="#1955DF" fill-opacity="0.26"/>
<path d="M178.911 43.053C180.062 43.3281 180.927 43.7911 180.913 44.1241L180.762 47.6361C180.754 47.8192 180.477 47.9373 180 47.961L166.156 48.6489C165.679 48.6727 165.046 48.5999 164.413 48.4486L152.279 45.5471C151.128 45.272 150.263 44.8089 150.277 44.4759L150.428 40.964C150.436 40.7808 150.712 40.6628 151.19 40.6391L165.033 39.9511C165.511 39.9274 166.144 40.0002 166.777 40.1515L178.911 43.053Z" fill="#0C48D2" fill-opacity="0.38"/>
<path d="M122.077 37.7913C123.228 38.0664 124.093 38.5294 124.079 38.8624L123.928 42.3744C123.92 42.5575 123.643 42.6755 123.166 42.6993L109.322 43.3872C108.845 43.4109 108.212 43.3382 107.579 43.1869L95.4446 40.2854C94.2941 40.0103 93.4288 39.5472 93.4431 39.2142L93.5938 35.7022C93.6017 35.5191 93.8785 35.4011 94.3558 35.3774L108.199 34.6894C108.677 34.6657 109.31 34.7385 109.943 34.8898L122.077 37.7913Z" fill="#79EFFF" fill-opacity="0.24"/>
<path d="M222.174 53.6125C223.324 53.8876 224.19 54.3507 224.175 54.6837L224.025 58.1957C224.017 58.3788 223.74 58.4968 223.263 58.5205L209.419 59.2085C208.942 59.2322 208.308 59.1594 207.676 59.0082L195.541 56.1067C194.391 55.8316 193.526 55.3685 193.54 55.0355L193.691 51.5235C193.698 51.3404 193.975 51.2224 194.453 51.1987L208.296 50.5107C208.773 50.487 209.407 50.5598 210.039 50.7111L222.174 53.6125Z" fill="#1955DF" fill-opacity="0.26"/>
<path d="M163.788 47.6399C164.939 47.915 165.804 48.3781 165.79 48.711L165.639 52.223C165.631 52.4062 165.354 52.5242 164.877 52.5479L151.033 53.2359C150.556 53.2596 149.923 53.1868 149.29 53.0355L137.156 50.134C136.005 49.8589 135.14 49.3958 135.154 49.0629L135.305 45.5509C135.313 45.3677 135.589 45.2497 136.067 45.226L149.91 44.5381C150.388 44.5143 151.021 44.5871 151.654 44.7384L163.788 47.6399Z" fill="#274FAA" fill-opacity="0.38"/>
<path d="M149.883 40.1975C151.033 40.4726 151.899 40.9357 151.884 41.2687L151.734 44.7807C151.726 44.9638 151.449 45.0818 150.972 45.1055L137.128 45.7935C136.651 45.8172 136.017 45.7444 135.385 45.5931L123.25 42.6916C122.1 42.4165 121.234 41.9535 121.249 41.6205L121.399 38.1085C121.407 37.9254 121.684 37.8073 122.161 37.7836L136.005 37.0957C136.482 37.0719 137.116 37.1447 137.748 37.296L149.883 40.1975Z" fill="#5F74EE" fill-opacity="0.38"/>
<g filter="url(#filter6_d_3146_3421)">
<path d="M220.208 53.0052C221.358 53.2803 222.223 53.7432 222.209 54.0761L222.058 57.5881C222.05 57.7712 221.773 57.8893 221.296 57.913L208.218 58.5629C208.291 58.6441 208.332 58.7229 208.329 58.7951L208.178 62.3071C208.17 62.4901 207.894 62.6082 207.417 62.6319L193.573 63.3199C193.096 63.3436 192.462 63.2707 191.829 63.1195L179.696 60.218C179.446 60.1582 179.209 60.0891 178.992 60.0148L165.767 60.672C165.841 60.7537 165.882 60.8326 165.879 60.9052L165.728 64.4171C165.72 64.6002 165.443 64.7183 164.966 64.742L151.123 65.43C150.645 65.4537 150.011 65.3809 149.379 65.2296L137.245 62.3281C136.167 62.0702 135.338 61.6471 135.251 61.3208L135.244 61.2572L135.389 57.8453L123.6 55.0264C122.521 54.7684 121.693 54.3453 121.606 54.0191L121.599 53.9555L121.747 50.4678L109.697 47.5864C108.618 47.3285 107.79 46.9053 107.703 46.5791L107.696 46.5155L107.842 43.0631L95.9217 40.213C94.843 39.9551 94.015 39.532 93.9276 39.2057L93.9207 39.1421L94.0651 35.7282L82.2811 32.9105C81.2027 32.6526 80.3747 32.2295 80.2871 31.9032L80.2802 31.8396L80.4286 28.352L68.3765 25.4701C67.2979 25.2122 66.4699 24.7891 66.3824 24.4628L66.3755 24.3992L66.5197 21.025L54.8611 18.2374C53.7827 17.9795 52.9545 17.5563 52.867 17.2301L52.8601 17.1665L53.0093 13.6541C53.0162 13.4939 53.2301 13.3836 53.603 13.3426L53.7727 13.3297L67.616 12.6417C68.0336 12.621 68.5708 12.6741 69.1222 12.7889L69.3583 12.8417L81.4937 15.7436C81.6675 15.7851 81.8348 15.8314 81.9935 15.8804L95.3676 15.2158C95.3466 15.1835 95.3296 15.1516 95.3214 15.1209L95.3144 15.0573L95.4636 11.5449C95.4706 11.3846 95.6842 11.2743 96.0573 11.2334L96.2271 11.2204L110.07 10.5325C110.488 10.5118 111.025 10.5647 111.577 10.6797L111.813 10.7324L123.948 13.6343C124.27 13.7114 124.569 13.8036 124.833 13.9031L137.852 13.2561C138.27 13.2354 138.807 13.2884 139.358 13.4033L139.594 13.456L151.73 16.3579C152.88 16.633 153.745 17.0959 153.731 17.4288L153.586 20.8025L165.243 23.5902C166.393 23.8653 167.258 24.3281 167.244 24.6611L167.098 28.0716L178.886 30.8911C180.036 31.1662 180.901 31.629 180.887 31.962L180.737 35.4517L192.788 38.3336C193.938 38.6087 194.804 39.0716 194.789 39.4045L194.641 42.8529L206.565 45.7044C207.715 45.9794 208.58 46.4423 208.566 46.7753L208.419 50.1858L220.208 53.0052ZM124.165 42.9132C124.018 42.8781 123.876 42.8394 123.74 42.7988L110.1 43.4767L109.949 46.9887L122.083 49.8901L135.926 49.2022L136.074 45.7609L124.165 42.9132ZM137.94 50.2855C137.872 50.2692 137.804 50.2518 137.737 50.2342L124.002 50.9167L123.851 54.4287L135.986 57.3301L149.623 56.6525C149.608 56.6273 149.596 56.6023 149.589 56.5781L149.582 56.5145L149.727 53.1035L137.94 50.2855ZM110.393 35.5432C110.242 35.5072 110.098 35.4675 109.958 35.4258L96.3246 36.1034L96.1735 39.6153L108.308 42.5168L122.151 41.8288L122.3 38.39L110.393 35.5432ZM69.1073 13.4398L55.264 14.1278L55.113 17.6397L67.2475 20.5412L80.883 19.8636C80.8696 19.8396 80.8579 19.8157 80.8517 19.7926L80.8448 19.729L80.9911 16.2812L69.1073 13.4398ZM151.583 57.5854C151.517 57.5695 151.451 57.5528 151.387 57.5357L137.648 58.2185L137.497 61.7304L149.632 64.6319L163.475 63.9439L163.625 60.4647L151.583 57.5854ZM82.8458 20.7999C82.6957 20.764 82.551 20.7245 82.412 20.683L68.7794 21.3604L68.6283 24.8724L80.7629 27.7738L94.3965 27.0963C94.383 27.0723 94.3724 27.0485 94.3661 27.0253L94.3592 26.9617L94.5027 23.5866L82.8458 20.7999ZM96.5273 28.1129L82.6841 28.8009L82.533 32.3128L94.6676 35.2143L108.399 34.5319L108.392 34.4723L108.54 30.9852L96.5273 28.1129ZM152.279 45.5452C152.21 45.5287 152.142 45.5113 152.075 45.4935L138.343 46.1759L138.194 49.6535L150.232 52.5325C150.301 52.549 150.369 52.5661 150.436 52.5839L164.059 51.9069L164.052 51.8463L164.198 48.395L152.279 45.5452ZM138.411 38.1156L124.568 38.8035L124.42 42.2443L136.329 45.0925C136.477 45.1278 136.619 45.166 136.756 45.2068L150.285 44.5344L150.278 44.4743L150.427 40.9882L138.411 38.1156ZM111.088 23.4991C110.79 23.4277 110.512 23.3432 110.262 23.2521L96.9728 23.9125C96.9989 23.9591 97.0119 24.0042 97.0101 24.0471L96.862 27.4945L108.747 30.3364L122.59 29.6484L122.735 26.2838L111.088 23.4991ZM166.053 52.9172C165.901 52.8808 165.754 52.8408 165.613 52.7985L152.194 53.4654C152.221 53.5132 152.235 53.5595 152.233 53.6034L152.086 57.0145L163.878 59.8343C163.944 59.8501 164.01 59.8669 164.074 59.8839L177.702 59.2067L177.695 59.1471L177.841 55.7356L166.053 52.9172ZM124.862 30.871C124.713 30.8356 124.571 30.7968 124.433 30.7558L110.908 31.428C110.913 31.4482 110.916 31.4682 110.915 31.4876L110.769 34.9006L122.554 37.7192C122.705 37.7552 122.851 37.7946 122.991 37.8365L136.412 37.1695C136.398 37.1451 136.387 37.121 136.381 37.0975L136.374 37.0339L136.518 33.6578L124.862 30.871ZM97.3154 16.1282C97.1669 16.0926 97.0229 16.0537 96.8852 16.0126L83.4574 16.6799C83.4835 16.7264 83.4965 16.7716 83.4947 16.8145L83.3497 20.1877L95.0091 22.9762C95.1596 23.0123 95.3054 23.0513 95.4448 23.0931L109.075 22.4157L109.223 18.9749L97.3154 16.1282ZM206.07 58.4773C205.95 58.4543 205.829 58.4294 205.709 58.4006L193.575 55.4991C193.507 55.4829 193.441 55.466 193.375 55.4486L180.21 56.1028C180.215 56.123 180.218 56.1431 180.217 56.1624L180.067 59.6487L192.082 62.5218L205.925 61.8338L206.07 58.4773ZM166.156 40.8275C166.087 40.8111 166.019 40.7937 165.953 40.7761L152.793 41.4301C152.798 41.4506 152.799 41.4706 152.798 41.4903L152.651 44.9406L164.573 47.7917C164.642 47.8083 164.711 47.8255 164.778 47.8434L177.939 47.1894L177.931 47.1273L178.078 43.678L166.156 40.8275ZM152.253 33.3849C152.187 33.3689 152.121 33.3524 152.056 33.3353L138.989 33.9846C139.016 34.0316 139.028 34.077 139.026 34.1203L138.878 37.5671L150.761 40.4086L164.156 39.7429L164.303 36.2659L152.253 33.3849ZM138.66 26.0957L125.265 26.7614L125.116 30.2012L137.025 33.0494C137.174 33.0848 137.317 33.1235 137.455 33.1645L150.344 32.524C150.302 32.4738 150.272 32.4245 150.259 32.3776L150.252 32.314L150.397 28.9026L138.66 26.0957ZM111.562 11.3306L97.7183 12.0185L97.571 15.4583L109.478 18.306C109.627 18.3417 109.772 18.3804 109.91 18.4216L123.097 17.7662L123.245 14.2685C123.247 14.2205 123.27 14.1775 123.308 14.139L111.562 11.3306ZM179.932 48.1982C179.865 48.182 179.798 48.1652 179.732 48.1477L166.567 48.802C166.572 48.8225 166.575 48.8429 166.574 48.8626L166.426 52.2721L178.216 55.0915C178.368 55.128 178.516 55.1678 178.657 55.2101L191.615 54.5662C191.6 54.5411 191.588 54.516 191.581 54.4918L191.574 54.4282L191.719 51.0167L179.932 48.1982ZM125.097 18.8518C124.947 18.8159 124.802 18.7764 124.663 18.7349L111.491 19.3895L111.346 22.7536L122.993 25.5388C123.292 25.6102 123.571 25.6944 123.821 25.7857L136.648 25.1482C136.634 25.1241 136.623 25.1 136.617 25.0768L136.61 25.0131L136.754 21.639L125.097 18.8518ZM180.402 36.0299L167.008 36.6955L166.858 40.1686L178.912 43.0514C178.981 43.0679 179.049 43.085 179.116 43.1027L192.385 42.4433L192.536 38.9313L180.402 36.0299ZM194.178 43.4006L180.906 44.0602C180.911 44.0813 180.914 44.1021 180.913 44.1223L180.765 47.5727L192.686 50.4233C192.753 50.4395 192.82 50.4564 192.885 50.4738L206.162 49.814L206.313 46.3021L194.178 43.4006ZM152.857 21.2864L139.685 21.941C139.711 21.9878 139.724 22.0331 139.722 22.0762L139.574 25.5265L151.446 28.3655L164.84 27.6998L164.991 24.1879L152.857 21.2864ZM139.343 14.0542L125.949 14.7198L125.8 18.1546L137.721 21.0053C137.871 21.0412 138.017 21.0804 138.157 21.1221L151.327 20.4676L151.478 16.9556L139.343 14.0542ZM207.821 50.7015L194.647 51.3562C194.675 51.4039 194.688 51.4503 194.687 51.4942L194.54 54.9047L206.328 57.7242C206.396 57.7404 206.463 57.7571 206.529 57.7746L219.805 57.1149L219.956 53.6029L207.821 50.7015ZM166.5 28.5873L153.405 29.238C153.467 29.3115 153.498 29.3823 153.495 29.4481L153.351 32.8233L165.007 35.611C165.074 35.6269 165.14 35.6434 165.205 35.6606L178.483 35.0007L178.634 31.4887L166.5 28.5873Z" fill="url(#paint8_linear_3146_3421)"/>
<path d="M220.208 53.0052C221.358 53.2803 222.223 53.7432 222.209 54.0761L222.058 57.5881C222.05 57.7712 221.773 57.8893 221.296 57.913L208.218 58.5629C208.291 58.6441 208.332 58.7229 208.329 58.7951L208.178 62.3071C208.17 62.4901 207.894 62.6082 207.417 62.6319L193.573 63.3199C193.096 63.3436 192.462 63.2707 191.829 63.1195L179.696 60.218C179.446 60.1582 179.209 60.0891 178.992 60.0148L165.767 60.672C165.841 60.7537 165.882 60.8326 165.879 60.9052L165.728 64.4171C165.72 64.6002 165.443 64.7183 164.966 64.742L151.123 65.43C150.645 65.4537 150.011 65.3809 149.379 65.2296L137.245 62.3281C136.167 62.0702 135.338 61.6471 135.251 61.3208L135.244 61.2572L135.389 57.8453L123.6 55.0264C122.521 54.7684 121.693 54.3453 121.606 54.0191L121.599 53.9555L121.747 50.4678L109.697 47.5864C108.618 47.3285 107.79 46.9053 107.703 46.5791L107.696 46.5155L107.842 43.0631L95.9217 40.213C94.843 39.9551 94.015 39.532 93.9276 39.2057L93.9207 39.1421L94.0651 35.7282L82.2811 32.9105C81.2027 32.6526 80.3747 32.2295 80.2871 31.9032L80.2802 31.8396L80.4286 28.352L68.3765 25.4701C67.2979 25.2122 66.4699 24.7891 66.3824 24.4628L66.3755 24.3992L66.5197 21.025L54.8611 18.2374C53.7827 17.9795 52.9545 17.5563 52.867 17.2301L52.8601 17.1665L53.0093 13.6541C53.0162 13.4939 53.2301 13.3836 53.603 13.3426L53.7727 13.3297L67.616 12.6417C68.0336 12.621 68.5708 12.6741 69.1222 12.7889L69.3583 12.8417L81.4937 15.7436C81.6675 15.7851 81.8348 15.8314 81.9935 15.8804L95.3676 15.2158C95.3466 15.1835 95.3296 15.1516 95.3214 15.1209L95.3144 15.0573L95.4636 11.5449C95.4706 11.3846 95.6842 11.2743 96.0573 11.2334L96.2271 11.2204L110.07 10.5325C110.488 10.5118 111.025 10.5647 111.577 10.6797L111.813 10.7324L123.948 13.6343C124.27 13.7114 124.569 13.8036 124.833 13.9031L137.852 13.2561C138.27 13.2354 138.807 13.2884 139.358 13.4033L139.594 13.456L151.73 16.3579C152.88 16.633 153.745 17.0959 153.731 17.4288L153.586 20.8025L165.243 23.5902C166.393 23.8653 167.258 24.3281 167.244 24.6611L167.098 28.0716L178.886 30.8911C180.036 31.1662 180.901 31.629 180.887 31.962L180.737 35.4517L192.788 38.3336C193.938 38.6087 194.804 39.0716 194.789 39.4045L194.641 42.8529L206.565 45.7044C207.715 45.9794 208.58 46.4423 208.566 46.7753L208.419 50.1858L220.208 53.0052ZM124.165 42.9132C124.018 42.8781 123.876 42.8394 123.74 42.7988L110.1 43.4767L109.949 46.9887L122.083 49.8901L135.926 49.2022L136.074 45.7609L124.165 42.9132ZM137.94 50.2855C137.872 50.2692 137.804 50.2518 137.737 50.2342L124.002 50.9167L123.851 54.4287L135.986 57.3301L149.623 56.6525C149.608 56.6273 149.596 56.6023 149.589 56.5781L149.582 56.5145L149.727 53.1035L137.94 50.2855ZM110.393 35.5432C110.242 35.5072 110.098 35.4675 109.958 35.4258L96.3246 36.1034L96.1735 39.6153L108.308 42.5168L122.151 41.8288L122.3 38.39L110.393 35.5432ZM69.1073 13.4398L55.264 14.1278L55.113 17.6397L67.2475 20.5412L80.883 19.8636C80.8696 19.8396 80.8579 19.8157 80.8517 19.7926L80.8448 19.729L80.9911 16.2812L69.1073 13.4398ZM151.583 57.5854C151.517 57.5695 151.451 57.5528 151.387 57.5357L137.648 58.2185L137.497 61.7304L149.632 64.6319L163.475 63.9439L163.625 60.4647L151.583 57.5854ZM82.8458 20.7999C82.6957 20.764 82.551 20.7245 82.412 20.683L68.7794 21.3604L68.6283 24.8724L80.7629 27.7738L94.3965 27.0963C94.383 27.0723 94.3724 27.0485 94.3661 27.0253L94.3592 26.9617L94.5027 23.5866L82.8458 20.7999ZM96.5273 28.1129L82.6841 28.8009L82.533 32.3128L94.6676 35.2143L108.399 34.5319L108.392 34.4723L108.54 30.9852L96.5273 28.1129ZM152.279 45.5452C152.21 45.5287 152.142 45.5113 152.075 45.4935L138.343 46.1759L138.194 49.6535L150.232 52.5325C150.301 52.549 150.369 52.5661 150.436 52.5839L164.059 51.9069L164.052 51.8463L164.198 48.395L152.279 45.5452ZM138.411 38.1156L124.568 38.8035L124.42 42.2443L136.329 45.0925C136.477 45.1278 136.619 45.166 136.756 45.2068L150.285 44.5344L150.278 44.4743L150.427 40.9882L138.411 38.1156ZM111.088 23.4991C110.79 23.4277 110.512 23.3432 110.262 23.2521L96.9728 23.9125C96.9989 23.9591 97.0119 24.0042 97.0101 24.0471L96.862 27.4945L108.747 30.3364L122.59 29.6484L122.735 26.2838L111.088 23.4991ZM166.053 52.9172C165.901 52.8808 165.754 52.8408 165.613 52.7985L152.194 53.4654C152.221 53.5132 152.235 53.5595 152.233 53.6034L152.086 57.0145L163.878 59.8343C163.944 59.8501 164.01 59.8669 164.074 59.8839L177.702 59.2067L177.695 59.1471L177.841 55.7356L166.053 52.9172ZM124.862 30.871C124.713 30.8356 124.571 30.7968 124.433 30.7558L110.908 31.428C110.913 31.4482 110.916 31.4682 110.915 31.4876L110.769 34.9006L122.554 37.7192C122.705 37.7552 122.851 37.7946 122.991 37.8365L136.412 37.1695C136.398 37.1451 136.387 37.121 136.381 37.0975L136.374 37.0339L136.518 33.6578L124.862 30.871ZM97.3154 16.1282C97.1669 16.0926 97.0229 16.0537 96.8852 16.0126L83.4574 16.6799C83.4835 16.7264 83.4965 16.7716 83.4947 16.8145L83.3497 20.1877L95.0091 22.9762C95.1596 23.0123 95.3054 23.0513 95.4448 23.0931L109.075 22.4157L109.223 18.9749L97.3154 16.1282ZM206.07 58.4773C205.95 58.4543 205.829 58.4294 205.709 58.4006L193.575 55.4991C193.507 55.4829 193.441 55.466 193.375 55.4486L180.21 56.1028C180.215 56.123 180.218 56.1431 180.217 56.1624L180.067 59.6487L192.082 62.5218L205.925 61.8338L206.07 58.4773ZM166.156 40.8275C166.087 40.8111 166.019 40.7937 165.953 40.7761L152.793 41.4301C152.798 41.4506 152.799 41.4706 152.798 41.4903L152.651 44.9406L164.573 47.7917C164.642 47.8083 164.711 47.8255 164.778 47.8434L177.939 47.1894L177.931 47.1273L178.078 43.678L166.156 40.8275ZM152.253 33.3849C152.187 33.3689 152.121 33.3524 152.056 33.3353L138.989 33.9846C139.016 34.0316 139.028 34.077 139.026 34.1203L138.878 37.5671L150.761 40.4086L164.156 39.7429L164.303 36.2659L152.253 33.3849ZM138.66 26.0957L125.265 26.7614L125.116 30.2012L137.025 33.0494C137.174 33.0848 137.317 33.1235 137.455 33.1645L150.344 32.524C150.302 32.4738 150.272 32.4245 150.259 32.3776L150.252 32.314L150.397 28.9026L138.66 26.0957ZM111.562 11.3306L97.7183 12.0185L97.571 15.4583L109.478 18.306C109.627 18.3417 109.772 18.3804 109.91 18.4216L123.097 17.7662L123.245 14.2685C123.247 14.2205 123.27 14.1775 123.308 14.139L111.562 11.3306ZM179.932 48.1982C179.865 48.182 179.798 48.1652 179.732 48.1477L166.567 48.802C166.572 48.8225 166.575 48.8429 166.574 48.8626L166.426 52.2721L178.216 55.0915C178.368 55.128 178.516 55.1678 178.657 55.2101L191.615 54.5662C191.6 54.5411 191.588 54.516 191.581 54.4918L191.574 54.4282L191.719 51.0167L179.932 48.1982ZM125.097 18.8518C124.947 18.8159 124.802 18.7764 124.663 18.7349L111.491 19.3895L111.346 22.7536L122.993 25.5388C123.292 25.6102 123.571 25.6944 123.821 25.7857L136.648 25.1482C136.634 25.1241 136.623 25.1 136.617 25.0768L136.61 25.0131L136.754 21.639L125.097 18.8518ZM180.402 36.0299L167.008 36.6955L166.858 40.1686L178.912 43.0514C178.981 43.0679 179.049 43.085 179.116 43.1027L192.385 42.4433L192.536 38.9313L180.402 36.0299ZM194.178 43.4006L180.906 44.0602C180.911 44.0813 180.914 44.1021 180.913 44.1223L180.765 47.5727L192.686 50.4233C192.753 50.4395 192.82 50.4564 192.885 50.4738L206.162 49.814L206.313 46.3021L194.178 43.4006ZM152.857 21.2864L139.685 21.941C139.711 21.9878 139.724 22.0331 139.722 22.0762L139.574 25.5265L151.446 28.3655L164.84 27.6998L164.991 24.1879L152.857 21.2864ZM139.343 14.0542L125.949 14.7198L125.8 18.1546L137.721 21.0053C137.871 21.0412 138.017 21.0804 138.157 21.1221L151.327 20.4676L151.478 16.9556L139.343 14.0542ZM207.821 50.7015L194.647 51.3562C194.675 51.4039 194.688 51.4503 194.687 51.4942L194.54 54.9047L206.328 57.7242C206.396 57.7404 206.463 57.7571 206.529 57.7746L219.805 57.1149L219.956 53.6029L207.821 50.7015ZM166.5 28.5873L153.405 29.238C153.467 29.3115 153.498 29.3823 153.495 29.4481L153.351 32.8233L165.007 35.611C165.074 35.6269 165.14 35.6434 165.205 35.6606L178.483 35.0007L178.634 31.4887L166.5 28.5873Z" fill="#274FAA" fill-opacity="0.38"/>
</g>
</g>
</g>
<defs>
<filter id="filter0_d_3146_3421" x="20.2727" y="0.266272" width="248.147" height="146.485" filterUnits="userSpaceOnUse" color-interpolation-filters="sRGB">
<feFlood flood-opacity="0" result="BackgroundImageFix"/>
<feColorMatrix in="SourceAlpha" type="matrix" values="0 0 0 0 0 0 0 0 0 0 0 0 0 0 0 0 0 0 127 0" result="hardAlpha"/>
<feOffset dy="4.07856"/>
<feGaussianBlur stdDeviation="7.29042"/>
<feComposite in2="hardAlpha" operator="out"/>
<feColorMatrix type="matrix" values="0 0 0 0 0 0 0 0 0 0 0 0 0 0 0 0 0 0 0.25 0"/>
<feBlend mode="normal" in2="BackgroundImageFix" result="effect1_dropShadow_3146_3421"/>
<feBlend mode="normal" in="SourceGraphic" in2="effect1_dropShadow_3146_3421" result="shape"/>
</filter>
<filter id="filter1_i_3146_3421" x="34.8535" y="10.7686" width="217.061" height="58.6333" filterUnits="userSpaceOnUse" color-interpolation-filters="sRGB">
<feFlood flood-opacity="0" result="BackgroundImageFix"/>
<feBlend mode="normal" in="SourceGraphic" in2="BackgroundImageFix" result="shape"/>
<feColorMatrix in="SourceAlpha" type="matrix" values="0 0 0 0 0 0 0 0 0 0 0 0 0 0 0 0 0 0 127 0" result="hardAlpha"/>
<feOffset dx="-40.7856" dy="-14.2749"/>
<feComposite in2="hardAlpha" operator="arithmetic" k2="-1" k3="1"/>
<feColorMatrix type="matrix" values="0 0 0 0 0 0 0 0 0 0 0 0 0 0 0 0 0 0 0.25 0"/>
<feBlend mode="normal" in2="shape" result="effect1_innerShadow_3146_3421"/>
</filter>
<filter id="filter2_g_3146_3421" x="107.449" y="80.7916" width="167.494" height="84.0184" filterUnits="userSpaceOnUse" color-interpolation-filters="sRGB">
<feFlood flood-opacity="0" result="BackgroundImageFix"/>
<feBlend mode="normal" in="SourceGraphic" in2="BackgroundImageFix" result="shape"/>
<feTurbulence type="fractalNoise" baseFrequency="0.12736871838569641 0.12736871838569641" numOctaves="3" seed="5311" />
<feDisplacementMap in="shape" scale="11.623885154724121" xChannelSelector="R" yChannelSelector="G" result="displacedImage" width="100%" height="100%" />
<feMerge result="effect1_texture_3146_3421">
<feMergeNode in="displacedImage"/>
</feMerge>
</filter>
<filter id="filter3_g_3146_3421" x="0.250557" y="102.207" width="136.024" height="44.2508" filterUnits="userSpaceOnUse" color-interpolation-filters="sRGB">
<feFlood flood-opacity="0" result="BackgroundImageFix"/>
<feBlend mode="normal" in="SourceGraphic" in2="BackgroundImageFix" result="shape"/>
<feTurbulence type="fractalNoise" baseFrequency="0.12736871838569641 0.12736871838569641" numOctaves="3" seed="5311" />
<feDisplacementMap in="shape" scale="11.623885154724121" xChannelSelector="R" yChannelSelector="G" result="displacedImage" width="100%" height="100%" />
<feMerge result="effect1_texture_3146_3421">
<feMergeNode in="displacedImage"/>
</feMerge>
</filter>
<filter id="filter4_d_3146_3421" x="68.0863" y="15.877" width="146.487" height="44.5472" filterUnits="userSpaceOnUse" color-interpolation-filters="sRGB">
<feFlood flood-opacity="0" result="BackgroundImageFix"/>
<feColorMatrix in="SourceAlpha" type="matrix" values="0 0 0 0 0 0 0 0 0 0 0 0 0 0 0 0 0 0 127 0" result="hardAlpha"/>
<feOffset dy="0.822915"/>
<feGaussianBlur stdDeviation="0.411458"/>
<feComposite in2="hardAlpha" operator="out"/>
<feColorMatrix type="matrix" values="0 0 0 0 0 0 0 0 0 0 0 0 0 0 0 0 0 0 0.25 0"/>
<feBlend mode="normal" in2="BackgroundImageFix" result="effect1_dropShadow_3146_3421"/>
<feBlend mode="normal" in="SourceGraphic" in2="effect1_dropShadow_3146_3421" result="shape"/>
</filter>
<filter id="filter5_d_3146_3421" x="67.2113" y="15.877" width="147.622" height="44.7298" filterUnits="userSpaceOnUse" color-interpolation-filters="sRGB">
<feFlood flood-opacity="0" result="BackgroundImageFix"/>
<feColorMatrix in="SourceAlpha" type="matrix" values="0 0 0 0 0 0 0 0 0 0 0 0 0 0 0 0 0 0 127 0" result="hardAlpha"/>
<feOffset dy="0.822915"/>
<feGaussianBlur stdDeviation="0.411458"/>
<feComposite in2="hardAlpha" operator="out"/>
<feColorMatrix type="matrix" values="0 0 0 0 0 0 0 0 0 0 0 0 0 0 0 0 0 0 0.25 0"/>
<feBlend mode="normal" in2="BackgroundImageFix" result="effect1_dropShadow_3146_3421"/>
<feBlend mode="normal" in="SourceGraphic" in2="effect1_dropShadow_3146_3421" result="shape"/>
</filter>
<filter id="filter6_d_3146_3421" x="52.6546" y="10.5278" width="170.994" height="56.5526" filterUnits="userSpaceOnUse" color-interpolation-filters="sRGB">
<feFlood flood-opacity="0" result="BackgroundImageFix"/>
<feColorMatrix in="SourceAlpha" type="matrix" values="0 0 0 0 0 0 0 0 0 0 0 0 0 0 0 0 0 0 127 0" result="hardAlpha"/>
<feOffset dx="0.617186" dy="0.822915"/>
<feGaussianBlur stdDeviation="0.411458"/>
<feComposite in2="hardAlpha" operator="out"/>
<feColorMatrix type="matrix" values="0 0 0 0 0 0 0 0 0 0 0 0 0 0 0 0 0 0 0.25 0"/>
<feBlend mode="normal" in2="BackgroundImageFix" result="effect1_dropShadow_3146_3421"/>
<feBlend mode="normal" in="SourceGraphic" in2="effect1_dropShadow_3146_3421" result="shape"/>
</filter>
<linearGradient id="paint0_linear_3146_3421" x1="123.834" y1="145.236" x2="92.8087" y2="16.0915" gradientUnits="userSpaceOnUse">
<stop stop-color="#ACAC9E"/>
<stop offset="1" stop-color="#D7C19E"/>
</linearGradient>
<linearGradient id="paint1_linear_3146_3421" x1="93.2448" y1="110.059" x2="116.696" y2="110.059" gradientUnits="userSpaceOnUse">
<stop stop-color="#6CA370"/>
<stop offset="1" stop-color="#283D2A"/>
</linearGradient>
<linearGradient id="paint2_linear_3146_3421" x1="115.168" y1="90.1758" x2="146.267" y2="88.6463" gradientUnits="userSpaceOnUse">
<stop stop-color="#6CA370"/>
<stop offset="1" stop-color="#283D2A"/>
</linearGradient>
<linearGradient id="paint3_linear_3146_3421" x1="204.927" y1="78.9413" x2="191.196" y2="158.998" gradientUnits="userSpaceOnUse">
<stop offset="0.171397" stop-color="#3D674B"/>
<stop offset="1" stop-color="#70A772"/>
</linearGradient>
<linearGradient id="paint4_linear_3146_3421" x1="79.2217" y1="104.565" x2="75.6576" y2="141.362" gradientUnits="userSpaceOnUse">
<stop offset="0.171397" stop-color="#3D674B"/>
<stop offset="1" stop-color="#70A772"/>
</linearGradient>
<linearGradient id="paint5_linear_3146_3421" x1="-17.0278" y1="-44.5305" x2="125.337" y2="32.7441" gradientUnits="userSpaceOnUse">
<stop offset="0.307472" stop-color="#97D5F2"/>
<stop offset="0.713892" stop-color="#6489AF"/>
<stop offset="0.746634" stop-color="#6082A9"/>
</linearGradient>
<linearGradient id="paint6_linear_3146_3421" x1="-2.50937" y1="-24.4426" x2="127.31" y2="50.6514" gradientUnits="userSpaceOnUse">
<stop offset="0.233858"/>
<stop offset="0.274162" stop-opacity="0"/>
<stop offset="0.437285" stop-opacity="0.25"/>
<stop offset="0.486224" stop-opacity="0.83"/>
<stop offset="0.639372" stop-color="#FFBBBB" stop-opacity="0.05"/>
</linearGradient>
<linearGradient id="paint7_linear_3146_3421" x1="-9.80921" y1="-32.5446" x2="108.453" y2="27.2199" gradientUnits="userSpaceOnUse">
<stop stop-color="#ECF7FD" stop-opacity="0.71"/>
<stop offset="1" stop-color="#FFDDDD" stop-opacity="0.22"/>
</linearGradient>
<linearGradient id="paint8_linear_3146_3421" x1="140.761" y1="9.00677" x2="135.438" y2="66.977" gradientUnits="userSpaceOnUse">
<stop stop-color="#3465B0"/>
<stop offset="0.288462" stop-color="#B7D3FE"/>
<stop offset="0.533654" stop-color="#5992D4"/>
<stop offset="0.831731" stop-color="#A7E5DE"/>
</linearGradient>
</defs>
</svg>
