<svg width="322" height="203" viewBox="0 0 322 203" fill="none" xmlns="http://www.w3.org/2000/svg">
  <g filter="url(#filter0_i_1732_137)">
    <path d="M152.225 34.7019C188.225 41.2498 177.377 83.9923 154.911 70.4248C128.983 54.7667 122.585 83.2983 114.267 76.0644C105.95 68.8304 102.017 43.1596 123.184 32.781C128.947 26.1556 143.908 27.468 152.225 34.7019Z" fill="url(#paint0_linear_1732_137)"/>
  </g>
  <path d="M151.817 50.2666C151.554 54.9484 150.687 56.1816 149.245 57.866C149.52 61.0155 149.732 62.5463 151.011 65.2928C151.096 65.3162 151.167 65.3071 151.246 65.2746C151.008 63.5704 151.361 62.4127 151.83 60.5903C152.309 59.4063 152.783 58.1705 153.255 55.9527C153.349 53.334 153.209 52.1715 152.707 50.552L153.692 50.8363C153.701 52.1503 154.008 52.7985 154.611 53.9741C155.269 52.9004 155.553 52.2171 155.855 50.8131L156.653 51.8856C154.955 55.2717 154.255 57.418 153.6 60.5713C152.531 64.1727 151.865 63.7372 152.89 67.5608C154.176 59.1897 156.536 59.2622 157.449 52.7609L158.144 53.442C158.35 55.6405 158.147 56.873 157.124 59.0587C159.196 57.7056 160.109 56.4418 161.692 54.0924L161.711 55.8618C159.814 58.7369 158.504 60.0388 155.977 62.1181L155.141 66.6508L157.95 62.6878L159.054 64.8391C157.48 66.623 156.253 68.1876 155.346 68.8186C157.177 68.7644 158.994 68.3704 159.703 68.0061C161.901 68.9087 163.827 71.7106 164.17 71.89C163.05 71.7622 158.37 71.953 155.619 72.1792C155.481 72.0985 155.344 72.0149 155.207 71.9326C157.026 75.1228 158.319 77.156 160.498 80.26L158.934 86.787C156.852 81.0853 155.034 77.7603 151.9 71.64C151.658 71.9739 151.342 72.3705 150.315 72.7274C144.088 87.9357 149.209 88.6674 151.309 91.795C151.526 111.949 153.667 109.861 156.606 127.232L149.135 127.313C148.679 123.044 147.906 118.404 147.264 113.483C145.987 111.384 144.886 110.619 143.351 110.757C137.609 101.967 134.443 98.3186 126.636 92.3532C123.192 90.5922 121.14 90.0719 117.174 90.194C115.092 89.3481 113.895 89.077 111.933 87.3986L108.167 84.7837L110.031 84.4687C112.548 86.2788 113.989 87.2712 116.96 88.7187C119.107 89.0637 120.312 88.8897 122.461 88.3646C121.307 86.5434 120.861 85.5877 117.982 83.2035C116.118 83.2163 115.073 83.1949 113.251 82.1712L114.511 80.4867C115.455 81.4336 116.01 81.9424 117.081 81.5402C116.801 80.8059 116.602 80.4045 115.88 79.7835L116.856 79.0854C120.02 83.1878 122.438 86.1036 126.403 89.1094C125.496 87.0539 124.692 85.4892 119.208 78.3707L120.676 77.766C121.589 80.4094 123.225 80.839 124.078 83.1379C124.082 82.2793 124.006 81.7882 123.66 80.8806C123.042 79.2941 122.505 78.5729 121.459 77.365L122.481 76.8002C121.412 76.2531 120.149 75.4155 118.573 74.1497L118.763 73.4592C121.178 74.2214 122.158 75.0165 123.096 74.1001C119.841 73.1519 118.05 71.2047 116.437 67.4858L117.515 67.1792C119.315 69.913 120.902 71.2729 125.243 72.701C123.349 70.2636 122.155 68.829 119.079 66.2786L120.848 66.2596C123.819 68.1939 125.405 69.3567 127.205 72.1887C126.084 68.5628 125.888 65.8743 125.618 61.7832L127.088 61.3739L128.067 70.1148L129.085 73.3482L132.268 76.7556C134.149 78.0133 134.959 80.0687 136.138 80.056C137.875 81.4722 139.946 84.5459 143.025 86.1425C143.161 81.6216 144.945 76.827 146.462 70.9992C146.35 67.6434 143.174 66.9041 142.144 62.59C142.502 62.2895 143.161 62.2206 143.91 62.2703C145.722 66.1889 148.351 68.9839 146.172 62.246C146.715 62.3782 147.044 62.1445 147.352 62.2333C149.161 65.9499 147.624 69.2168 149.003 69.4972C149.279 69.6764 149.427 68.2811 149.567 66.9431C148.042 63.5607 147.613 61.3318 147.868 57.8808C145.461 57.0928 144.262 56.4607 142.429 54.8912L142.906 53.6058C144.872 55.7194 145.832 55.9232 148.245 56.3034C147.863 53.9463 147.694 53.2533 146.134 51.9987L146.618 51.4056C147.704 51.7871 148.108 53.8921 149.308 54.621C148.802 53.4086 148.395 51.7635 148.479 50.5984L149.262 50.2941C149.046 51.3901 149.123 53.1383 150.178 53.2346C151.063 53.2251 151.058 51.5351 151.225 49.978L151.817 50.2666ZM122.916 77.0114C124.675 80.2914 125.155 81.8157 125.761 84.2996C126.939 86.9252 127.809 88.1057 129.462 90.0619C133.291 93.5517 135.506 95.5281 138.306 98.7174L146.516 106.654C146.23 103.225 146.094 99.6891 146.241 96.0733C145.302 94.8134 144.601 93.5756 144.097 92.3442L139.573 88.5733L129.818 77.4695C127.179 77.5251 125.711 78.2975 122.916 77.0114ZM151.261 65.3731C151.225 65.4602 151.195 65.5453 151.169 65.628C151.242 65.7813 151.318 65.9387 151.398 66.1002C151.341 65.8457 151.296 65.6042 151.261 65.3731Z" fill="url(#paint1_linear_1732_137)"/>
  <g filter="url(#filter1_i_1732_137)">
    <path d="M173.012 61.963C173.081 68.3698 169.043 73.6076 163.994 73.6619C157.758 60.6521 145.969 70.7094 142.241 62.2938C142.172 55.8869 154.45 45.6445 162.741 48.6033C167.791 48.549 172.943 55.5561 173.012 61.963Z" fill="url(#paint2_linear_1732_137)"/>
  </g>
  <g filter="url(#filter2_i_1732_137)">
    <path d="M114.696 70.1597C118.549 71.0635 124.343 75.0951 123.724 77.7318C116.408 81.2691 113.103 90.302 109.25 89.3983C105.397 88.4945 102.038 81.5865 104.882 77.7042C105.501 75.0675 110.843 69.256 114.696 70.1597Z" fill="url(#paint3_linear_1732_137)"/>
  </g>
  <g filter="url(#filter3_i_1732_137)">
    <path d="M120.624 54.6422C126.593 56.0423 130.593 60.7534 129.558 65.1647C118.079 71.2612 118.443 81.3138 112.474 79.9137C106.505 78.5136 101.47 67.0935 106.002 60.5451C107.036 56.1338 114.656 53.2421 120.624 54.6422Z" fill="url(#paint4_linear_1732_137)"/>
  </g>
  <g filter="url(#filter4_i_1732_137)">
    <path d="M148.798 46.5272C153.357 51.571 153.028 54.2822 148.922 57.9931C133.893 56.9521 129.992 66.3488 123.208 66.4217C118.649 61.3779 122.098 47.0352 130.982 43.3656C135.087 39.6547 144.24 41.4833 148.798 46.5272Z" fill="url(#paint5_linear_1732_137)"/>
  </g>
  <g filter="url(#filter5_i_1732_137)">
    <path d="M102.76 99.5834C88.0408 110.29 103.911 127.643 111.327 117.654C119.887 106.125 126.576 116.36 128.909 111.891C131.242 107.421 126.571 90.7867 115.261 92.1188C111.473 91.1558 105.093 95.1139 102.76 99.5834Z" fill="url(#paint6_linear_1732_137)"/>
  </g>
  <path d="M110.056 108.047C109.948 109.767 111.238 110.547 110.68 110.967C110.509 111.211 109.462 109.313 109.323 109.523C109.058 109.932 109.022 110.013 108.862 110.025C109.515 110.431 109.195 110.991 109.128 111.289C108.285 112.145 106.295 112.887 105.663 112.951C104.859 113.78 104.528 115.208 104.41 115.35C104.882 115.044 106.99 114.015 108.251 113.451C108.581 113.017 108.893 112.549 109.155 112.413C109.847 112.142 109.658 112.633 110.702 112.401C115.569 115.748 114.591 117.284 114.026 118.668C112.978 118.42 111.869 118.104 110.232 117.685C108.755 117.324 108.004 117.315 106.899 117.736C106.387 116.977 106.063 116.62 105.391 116.122L105.073 116.391C105.918 116.889 106.091 117.2 106.484 117.995C105.754 118.058 105.532 118.057 104.983 117.627L104.868 117.841C105.107 118.181 105.766 118.147 106.119 118.497C105.707 118.424 105.18 118.42 104.851 118.544L104.854 118.837C105.148 118.673 105.666 118.555 105.818 118.908C105.919 119.211 105.426 119.349 104.993 119.534L105.146 119.713C106.478 119.238 106.735 118.84 107.056 118.208C108.093 118.027 108.56 117.98 109.705 118.267C109.01 118.278 108.701 118.511 108.153 118.868C107.864 119.13 107.56 119.393 106.97 119.737C106.219 119.984 105.864 120.032 105.334 119.994L105.532 120.307C105.915 120.202 106.14 120.255 106.553 120.364C106.318 120.677 106.152 120.83 105.779 121.049L106.185 121.234C106.971 120.375 107.514 119.959 108.355 119.475C109.277 118.814 109.072 118.621 110.305 118.657C108.02 119.786 108.318 120.587 106.533 121.434L106.813 121.616C107.476 121.505 107.811 121.334 108.327 120.805C108.176 121.625 107.916 122.041 107.418 122.775L107.935 122.636C108.549 121.751 108.775 121.196 109.083 120.161L110.304 119.502L109.481 120.788L110.236 120.989C110.661 120.118 111.051 119.468 110.967 119.141C111.139 118.996 111.219 118.952 111.336 118.931C112.488 119.284 113.218 119.533 114.132 119.901C117.406 126.36 116.205 126.34 118.087 132.887L124.659 130.842C123.4 127.465 122.55 123.419 120.196 119.513C120.542 118.252 120.205 117.231 119.485 116.337L121.567 110.653C123.681 110.383 124.798 110.91 127.145 108.339L126.886 108.063C125.699 108.58 125.324 108.996 124.595 108.685C126.212 108.021 126.787 107.054 126.87 105.354L126.197 105.312C125.791 106.611 125.201 107.314 123.08 108.269C123.604 107.087 123.957 106.385 125.119 105.059L124.121 105.194C122.882 106.251 122.249 106.871 121.865 108.212C121.692 106.591 121.207 105.441 120.454 103.693L119.537 103.64L120.922 107.407L121.066 108.854L120.034 110.55C119.256 111.233 119.257 112.167 118.592 112.257C118.142 112.759 117.775 113.594 117.155 114.369C115.467 113.249 113.462 112.21 112.085 110.897C111.509 109.7 112.778 108.698 112.429 106.953C112.214 106.931 111.909 107.062 111.586 107.254C111.515 109.045 110.873 110.635 110.58 107.775C110.364 107.948 110.175 107.944 110.056 108.047Z" fill="url(#paint7_linear_1732_137)"/>
  <g filter="url(#filter6_i_1732_137)">
    <path d="M98.6434 113.956C99.8085 116.207 102.574 117.089 104.82 115.927C105.154 109.929 112.251 110.68 112.331 106.872C111.166 104.62 103.818 103.92 100.698 106.892C98.4524 108.055 97.4784 111.705 98.6434 113.956Z" fill="url(#paint8_linear_1732_137)"/>
  </g>
  <g filter="url(#filter7_i_1732_137)">
    <path d="M136.529 101.636C134.147 103.521 133.255 106.1 134.536 107.397C140.757 106.838 142.472 110.43 144.854 108.545C147.236 106.66 147.334 101.498 144.106 100.274C142.824 98.9774 138.911 99.7513 136.529 101.636Z" fill="url(#paint9_linear_1732_137)"/>
  </g>
  <g filter="url(#filter8_i_1732_137)">
    <path d="M106.101 124.095C108.977 124.292 111.073 122.248 110.837 120.817C105.802 117.798 107.973 116.884 105.854 115.439C102.978 115.241 99.7446 117.948 101.499 120.383C101.735 121.814 103.225 123.897 106.101 124.095Z" fill="url(#paint10_linear_1732_137)"/>
  </g>
  <g filter="url(#filter9_i_1732_137)">
    <path d="M198.762 68.2796C226.359 80.6463 206.5 114.292 191.022 100.591C173.158 84.7795 165.788 103.711 160.465 97.2432C155.141 90.7758 157.038 62.1319 175.882 60.4246C181.711 57.5618 193.438 61.8121 198.762 68.2796Z" fill="url(#paint11_linear_1732_137)"/>
  </g>
  <path d="M173.797 84.5385C174.561 87.2979 172.731 89.0071 173.783 89.4996C174.144 89.8405 175.198 86.3908 175.494 86.6881C176.065 87.2623 176.151 87.3811 176.416 87.3454C175.492 88.2296 176.205 89.0304 176.417 89.4918C178.08 90.5943 181.569 91.1182 182.618 91.0064C184.21 92.0787 185.235 94.288 185.477 94.4797C184.604 94.1428 180.825 93.1921 178.583 92.7056C177.898 92.1137 177.229 91.4596 176.756 91.3286C175.54 91.1261 176.014 91.8581 174.239 91.8388C167.472 98.9479 169.588 101.109 170.982 103.166C172.599 102.404 174.293 101.511 176.811 100.269C179.088 99.1765 180.306 98.9046 182.247 99.2106C182.82 97.802 183.225 97.1089 184.146 96.0691L184.757 96.3981C183.552 97.4983 183.379 98.063 183.011 99.4887C184.22 99.3414 184.581 99.2645 185.324 98.3771L185.586 98.6867C185.315 99.3212 184.229 99.49 183.776 100.181C184.421 99.9202 185.276 99.733 185.854 99.8226L185.948 100.3C185.415 100.134 184.532 100.12 184.406 100.746C184.346 101.274 185.194 101.329 185.962 101.482L185.774 101.825C183.446 101.508 182.892 100.949 182.154 100.032C180.405 100.094 179.632 100.177 177.868 101.035C179.002 100.815 179.584 101.087 180.598 101.481C181.156 101.807 181.741 102.131 182.818 102.488C184.124 102.634 184.717 102.589 185.566 102.345L185.35 102.923C184.691 102.883 184.344 103.045 183.71 103.364C184.2 103.792 184.521 103.986 185.203 104.213L184.607 104.652C183.035 103.525 182.009 103.035 180.477 102.537C178.75 101.777 179.018 101.394 177.026 101.874C181.127 102.926 180.917 104.331 184.109 105.097L183.716 105.489C182.599 105.536 181.996 105.373 180.976 104.689C181.501 105.97 182.069 106.558 183.13 107.581L182.24 107.533C180.939 106.304 180.383 105.478 179.527 103.901L177.316 103.248L179.096 105.058L177.936 105.642C176.946 104.371 176.089 103.448 176.115 102.887C175.786 102.711 175.641 102.667 175.445 102.673C173.689 103.643 172.586 104.298 171.223 105.21C168.116 116.827 170.064 116.387 169.246 127.672L157.862 126.6C158.752 120.679 158.748 113.809 161.237 106.654C160.243 104.72 160.44 102.944 161.305 101.243L155.975 92.7178C152.446 93.0027 150.811 94.2414 146.115 90.8654L146.441 90.3284C148.548 90.7636 149.299 91.3103 150.378 90.5558C147.521 90.0294 146.256 88.6534 145.539 85.9175L146.62 85.6197C147.724 87.5939 148.925 88.5338 152.7 89.3603C151.443 87.6174 150.628 86.5959 148.284 84.8381L149.953 84.7173C152.33 86.012 153.571 86.8025 154.654 88.8515C154.382 86.157 154.775 84.1212 155.402 81.0211L156.873 80.6206L155.912 87.2195L156.173 89.6223L158.433 92.0261C159.932 92.8709 160.25 94.3887 161.362 94.308C162.264 94.9695 163.148 96.2009 164.42 97.2478C166.781 94.8491 169.685 92.474 171.474 89.8668C172.002 87.7235 169.596 86.5306 169.565 83.573C169.907 83.465 170.447 83.572 171.038 83.7747C171.767 86.662 173.355 89.0271 172.851 84.2767C173.262 84.4845 173.567 84.4121 173.797 84.5385Z" fill="url(#paint12_linear_1732_137)"/>
  <g filter="url(#filter10_i_1732_137)">
    <path d="M194.376 90.2366C193.253 94.2953 189.059 96.677 185.009 95.5562C182.413 85.9201 171.132 89.57 169.697 83.4066C170.82 79.3478 182.527 75.693 188.616 79.4566C192.666 80.5774 195.499 86.1778 194.376 90.2366Z" fill="url(#paint13_linear_1732_137)"/>
  </g>
  <g filter="url(#filter11_i_1732_137)">
    <path d="M154.574 77.7021C159.092 79.9509 161.425 83.8387 159.786 86.3858C149.481 87.6071 147.923 94.034 143.405 91.7851C138.888 89.5362 136.96 81.1779 141.789 78.0822C143.429 75.5352 150.056 75.4532 154.574 77.7021Z" fill="url(#paint14_linear_1732_137)"/>
  </g>
  <g filter="url(#filter12_i_1732_137)">
    <path d="M185.722 109.274C181.113 110.58 177.005 107.974 176.899 105.567C184.052 98.9352 180.209 98.1921 183.158 95.1173C187.767 93.8112 193.951 97.1041 191.933 101.663C192.039 104.071 190.33 107.968 185.722 109.274Z" fill="url(#paint15_linear_1732_137)"/>
  </g>
  <path d="M115.898 121.429L93.4015 119.989L81.2656 136.514L61.9086 135.252L54.4788 144.223L53.3289 117.605L54.987 89.181L67.4091 63.4191L83.8546 43.9226L111.337 27.3123L138.702 21.5608L163.948 21.8317L193.12 31.0267L215.981 50.2123L233.943 77.3494L239.651 93.403L243.48 122.895L231.825 117.551L217.315 128.396L196.959 123.075L179.25 135.892L159.61 129.993L144.192 142.571L123.048 139.729L115.898 121.429Z" fill="url(#paint16_radial_1732_137)" fill-opacity="0.83"/>
  <path d="M115.898 121.429L132.85 106.799M115.898 121.429L93.4015 119.989M115.898 121.429L123.048 139.729M132.85 106.799L128.782 89.3132M132.85 106.799L155.061 112.683M128.782 89.3132L104.114 86.2074M128.782 89.3132L145.986 75.6655M104.114 86.2074L86.5248 101.913M104.114 86.2074L99.4085 72.1934M86.5248 101.913L93.4015 119.989M86.5248 101.913L66.8623 101.313M93.4015 119.989L81.2656 136.514M99.4085 72.1934L79.2584 72.9052M99.4085 72.1934L117.674 58.1829M79.2584 72.9052L75.3586 61.8342M79.2584 72.9052L63.0731 87.708M75.3586 61.8342L87.8585 48.8027M75.3586 61.8342L67.4091 63.4191M87.8585 48.8027L109.614 45.5274M87.8585 48.8027L83.8545 43.9226M109.614 45.5274L117.674 58.1829M109.614 45.5274L123.745 34.9744M117.674 58.1829L141.031 60.7946M66.8623 101.313L63.0731 87.708M66.8623 101.313L53.3289 117.605M63.0731 87.708L54.987 89.181M53.3289 117.605L61.9086 135.252M53.3289 117.605L54.4788 144.223L61.9086 135.252M53.3289 117.605L54.987 89.181M61.9086 135.252L81.2656 136.514M81.2656 136.514L86.6408 148.567M67.4091 63.4191L54.987 89.181M67.4091 63.4191L83.8545 43.9226M123.048 139.729L118.381 145.26M123.048 139.729L144.192 142.571L159.61 129.993M159.61 129.993L155.061 112.683M159.61 129.993L179.25 135.892M155.061 112.683L170.812 99.6912M123.745 34.9744L118.877 27.7881M123.745 34.9744L148.198 37.2198M118.877 27.7881L111.337 27.3123M118.877 27.7881L138.702 21.5608M111.337 27.3123L83.8545 43.9226M111.337 27.3123L138.702 21.5608M141.031 60.7946L155.361 48.4553M141.031 60.7946L145.986 75.6655M155.361 48.4553L148.198 37.2198M155.361 48.4553L177.448 51.9561M148.198 37.2198L164.871 30.6903M164.871 30.6903L159.879 23.5168M164.871 30.6903L188.544 35.0349M159.879 23.5168L138.702 21.5608M159.879 23.5168L163.948 21.8317M138.702 21.5608L163.948 21.8317M145.986 75.6655L166.289 80.4872M166.289 80.4872L182.941 68.4105M166.289 80.4872L170.812 99.6912M182.941 68.4105L177.448 51.9561M182.941 68.4105L203.181 74.8784M177.448 51.9561L194.615 45.3752M194.615 45.3752L188.544 35.0349M194.615 45.3752L211.71 52.8013M188.544 35.0349L193.12 31.0267M211.71 52.8013L216.566 67.9347M211.71 52.8013L215.981 50.2123M216.566 67.9347L203.181 74.8784M216.566 67.9347L233.943 77.3494M203.181 74.8784L208.89 92.3192M163.948 21.8317L193.12 31.0267M193.12 31.0267L215.981 50.2123M170.812 99.6912L192.304 105.02M192.304 105.02L208.89 92.3192M192.304 105.02L196.959 123.075M208.89 92.3192L227.556 99.5817M227.556 99.5817L239.651 93.403M227.556 99.5817L231.825 117.551M239.651 93.403L233.943 77.3494M239.651 93.403L243.48 122.895L231.825 117.551M233.943 77.3494L215.981 50.2123M231.825 117.551L217.315 128.396M217.315 128.396L196.959 123.075M217.315 128.396L219.002 134.904M196.959 123.075L179.25 135.892M179.25 135.892L180.277 139.695" stroke="url(#paint17_linear_1732_137)" stroke-width="2.5508"/>
  <path d="M79.576 74.257L64.4154 88.0828L67.5339 99.7324L83.9117 100.203L100.547 84.8632L96.38 73.5951L79.576 74.257Z" fill="url(#paint18_linear_1732_137)"/>
  <path d="M113.037 120.094L129.989 105.463M113.037 120.094L90.5401 118.654M113.037 120.094L120.186 138.394M129.989 105.463L125.92 87.9778M129.989 105.463L152.199 111.348M125.92 87.9778L101.253 84.8719M125.92 87.9778L143.125 74.3301M101.253 84.8719L83.6635 100.578M101.253 84.8719L96.5472 70.858M83.6635 100.578L90.5401 118.654M83.6635 100.578L64.001 99.9775M90.5401 118.654L78.4043 135.179M96.5472 70.858L76.3971 71.5697M96.5472 70.858L114.813 56.8475M76.3971 71.5697L72.4973 60.4988M76.3971 71.5697L60.2117 86.3726M72.4973 60.4988L84.9971 47.4672M72.4973 60.4988L64.5478 62.0836M84.9971 47.4672L106.753 44.1919M84.9971 47.4672L80.9932 42.5872M106.753 44.1919L114.813 56.8475M106.753 44.1919L120.884 33.639M114.813 56.8475L138.17 59.4592M64.001 99.9775L60.2117 86.3726M64.001 99.9775L50.4676 116.27M60.2117 86.3726L52.1257 87.8455M50.4676 116.27L59.0472 133.916M50.4676 116.27L51.6175 142.888L59.0472 133.916M50.4676 116.27L52.1257 87.8455M59.0472 133.916L78.4043 135.179M78.4043 135.179L83.7795 147.231M64.5478 62.0836L52.1257 87.8455M64.5478 62.0836L80.9932 42.5872M120.186 138.394L115.519 143.925M120.186 138.394L141.331 141.236L156.749 128.657M156.749 128.657L152.199 111.348M156.749 128.657L176.389 134.557M152.199 111.348L167.951 98.3558M120.884 33.639L116.016 26.4526M120.884 33.639L145.337 35.8843M116.016 26.4526L108.476 25.9769M116.016 26.4526L135.841 20.2254M108.476 25.9769L80.9932 42.5872M108.476 25.9769L135.841 20.2254M138.17 59.4592L152.5 47.1198M138.17 59.4592L143.125 74.3301M152.5 47.1198L145.337 35.8843M152.5 47.1198L174.587 50.6207M145.337 35.8843L162.01 29.3548M162.01 29.3548L157.018 22.1814M162.01 29.3548L185.683 33.6994M157.018 22.1814L135.841 20.2254M157.018 22.1814L161.087 20.4962M135.841 20.2254L161.087 20.4962M143.125 74.3301L163.428 79.1518M163.428 79.1518L180.079 67.0751M163.428 79.1518L167.951 98.3558M180.079 67.0751L174.587 50.6207M180.079 67.0751L200.32 73.5429M174.587 50.6207L191.754 44.0397M191.754 44.0397L185.683 33.6994M191.754 44.0397L208.849 51.4658M185.683 33.6994L190.259 29.6913M208.849 51.4658L213.705 66.5992M208.849 51.4658L213.12 48.8768M213.705 66.5992L200.32 73.5429M213.705 66.5992L231.081 76.014M200.32 73.5429L206.029 90.9838M161.087 20.4962L190.259 29.6913M190.259 29.6913L213.12 48.8768M167.951 98.3558L189.443 103.684M189.443 103.684L206.029 90.9838M189.443 103.684L194.098 121.739M206.029 90.9838L224.695 98.2463M224.695 98.2463L236.79 92.0676M224.695 98.2463L228.963 116.216M236.79 92.0676L231.081 76.014M236.79 92.0676L240.619 121.56L228.963 116.216M231.081 76.014L213.12 48.8768M228.963 116.216L214.454 127.06M214.454 127.06L194.098 121.739M214.454 127.06L216.141 133.569M194.098 121.739L176.389 134.557M176.389 134.557L177.416 138.36" stroke="url(#paint19_linear_1732_137)" stroke-width="2.5508"/>
  <g filter="url(#filter13_dg_1732_137)">
    <path d="M244.717 121.909C243.338 121.053 241.06 120.708 237.302 121.284C232.195 122.991 230.292 124.141 230.597 126.868C229.288 126.648 227.58 126.665 225.352 127.007C220.557 128.61 218.585 129.721 218.614 132.108C217.812 131.993 216.779 132.012 215.45 132.211C213.702 132.783 212.554 133.253 211.904 133.835C210.868 132.429 208.582 131.599 203.528 132.278C197.371 134.086 196.017 135.158 197.617 138.998C198.356 142.612 201.189 143.347 203.528 143.686C205.28 143.686 206.918 143.384 208.313 142.861C208.315 142.867 208.316 142.873 208.318 142.878C209.081 147.126 212.005 147.99 214.42 148.388C216.98 148.388 219.304 147.676 221.017 146.521C222.257 147.737 223.896 148.147 225.352 148.387C228.527 148.387 231.339 147.293 233.071 145.614C234.259 146.585 235.729 146.943 237.048 147.16C238.9 147.16 240.627 146.787 242.09 146.145C243.351 148.151 245.425 148.704 247.219 149C252.484 149 256.752 145.998 256.752 142.295C256.752 139.655 256.752 136.63 253.298 135.64C254.038 134.247 254.464 132.632 254.464 130.91C254.464 125.66 254.464 119.333 245.675 121.403C245.34 121.575 245.022 121.744 244.717 121.909ZM273.871 126.93C271.875 127.187 271.032 127.522 270.476 128.866C267.258 129.949 266.273 130.705 266.776 132.71C266.242 133.401 266.291 134.272 266.793 135.614C267.27 138.214 269.097 138.742 270.606 138.985C271.058 138.985 271.499 138.949 271.922 138.884C272.455 141.307 274.223 141.814 275.692 142.051C276.813 142.051 277.861 141.837 278.757 141.467C280.216 142.891 282.999 143.054 285.068 141.81C287.192 140.532 289.75 138.992 286.333 136.726C285.525 136.419 284.856 136.202 284.266 136.087C285.403 134.789 286.211 133.395 283.621 132.601C281.549 132.458 280.637 132.635 279.663 133.928C278.953 133.694 277.989 133.606 276.68 133.726C276.771 133.44 276.82 133.143 276.82 132.839C276.82 131.613 276.819 130.252 275.875 129.401C276.288 128.209 276.133 127.15 273.871 126.93Z" fill="url(#paint20_linear_1732_137)"/>
  </g>
  <g filter="url(#filter14_dg_1732_137)">
    <path d="M81.7168 132.909C80.3376 132.053 78.0603 131.708 74.3018 132.284C69.1953 133.991 67.2915 135.141 67.5967 137.868C66.2882 137.648 64.5804 137.665 62.3516 138.007C57.5565 139.61 55.5847 140.721 55.6143 143.108C54.812 142.993 53.7791 143.012 52.4502 143.211C50.7019 143.783 49.5537 144.253 48.9043 144.835C47.8683 143.429 45.5823 142.599 40.5283 143.278C34.3713 145.086 33.0165 146.158 34.6172 149.998C35.356 153.612 38.1886 154.347 40.5283 154.686C42.2801 154.686 43.9179 154.384 45.3135 153.861C45.3154 153.867 45.3164 153.873 45.3184 153.878C46.0812 158.126 49.0048 158.99 51.4199 159.388C53.9803 159.388 56.3039 158.676 58.0166 157.521C59.2571 158.737 60.8962 159.147 62.3516 159.387C65.5273 159.387 68.3388 158.293 70.0713 156.614C71.2588 157.585 72.7287 157.943 74.0479 158.16C75.8995 158.16 77.6271 157.787 79.0898 157.145C80.3508 159.151 82.4245 159.704 84.2188 160C89.4838 160 93.752 156.998 93.752 153.295C93.752 150.655 93.7517 147.63 90.2979 146.64C91.0382 145.247 91.4638 143.632 91.4639 141.91C91.4639 136.66 91.4636 130.333 82.6748 132.403C82.3405 132.575 82.0217 132.744 81.7168 132.909ZM110.871 137.93C108.875 138.187 108.032 138.522 107.476 139.866C104.258 140.949 103.273 141.705 103.776 143.71C103.242 144.401 103.291 145.272 103.793 146.614C104.27 149.214 106.097 149.742 107.606 149.985C108.058 149.985 108.499 149.949 108.922 149.884C109.455 152.307 111.223 152.814 112.692 153.051C113.813 153.051 114.861 152.837 115.757 152.467C117.216 153.891 119.999 154.054 122.068 152.81C124.192 151.532 126.75 149.992 123.333 147.726C122.525 147.419 121.856 147.202 121.266 147.087C122.403 145.789 123.211 144.395 120.621 143.601C118.549 143.458 117.637 143.635 116.663 144.928C115.953 144.694 114.989 144.606 113.68 144.726C113.771 144.44 113.82 144.143 113.82 143.839C113.82 142.613 113.819 141.252 112.875 140.401C113.288 139.209 113.133 138.15 110.871 137.93Z" fill="url(#paint21_linear_1732_137)"/>
  </g>
  <g filter="url(#filter15_dg_1732_137)">
    <path d="M139.531 129.21C137.839 128.071 135.047 127.613 130.438 128.379C122.642 131.207 120.926 132.886 122.953 138.896C123.116 139.882 123.363 140.73 123.67 141.463C123.42 142.4 123.478 143.496 123.806 144.849C122.167 146.365 121.627 148.11 121.952 150.724C121.709 151.968 121.966 153.489 122.642 155.493C123.138 158.493 124.38 160.224 125.879 161.269C127.441 163.448 129.754 164.1 131.778 164.462C133.951 164.462 135.984 164.008 137.727 163.221C139.183 164.512 140.985 164.989 142.603 165.278C149.061 165.278 154.297 161.281 154.297 156.352C154.297 155.623 154.297 154.871 154.259 154.127C155.234 155.416 156.656 155.808 157.903 156.026C159.278 156.026 160.565 155.742 161.663 155.248C163.453 157.145 166.867 157.362 169.405 155.704C172.01 154.003 175.148 151.953 170.956 148.936C169.966 148.528 169.145 148.236 168.422 148.082C169.815 146.355 170.803 144.503 167.629 143.445C165.087 143.256 163.968 143.491 162.773 145.213C161.902 144.902 160.72 144.783 159.114 144.942C159.226 144.562 159.287 144.167 159.287 143.762C159.287 142.13 159.286 140.318 158.128 139.186C158.634 137.598 158.444 136.187 155.668 135.894C153.221 136.235 152.188 136.684 151.505 138.472C151.492 138.476 151.479 138.481 151.467 138.485C151.315 132.243 150.119 126.13 140.708 128.536C140.297 128.765 139.906 128.99 139.531 129.21ZM99.2871 145.085C98.0162 143.213 95.2085 142.11 89.0088 143.015C81.4561 145.421 79.7942 146.849 81.7578 151.962C82.6641 156.774 86.1387 157.751 89.0088 158.202C91.1568 158.202 93.1655 157.802 94.877 157.106C94.8792 157.113 94.8806 157.12 94.8828 157.127C95.8185 162.783 99.4056 163.932 102.368 164.462C108.827 164.462 114.062 160.465 114.062 155.535C114.062 152.355 114.062 148.754 110.922 147.121C110.803 144.461 109.936 141.899 103.633 142.925C101.491 143.686 100.084 144.311 99.2871 145.085Z" fill="url(#paint22_linear_1732_137)"/>
  </g>
  <g filter="url(#filter16_dg_1732_137)">
    <path fill-rule="evenodd" clip-rule="evenodd" d="M178.684 138.699C178.794 135.306 179.664 131.984 186.519 133.291C186.818 133.416 187.105 133.539 187.378 133.659C188.61 133.04 190.643 132.789 193.998 133.206C199.676 134.743 200.924 135.655 199.448 138.921C199.329 139.457 199.15 139.918 198.927 140.316C199.109 140.825 199.067 141.42 198.828 142.156C200.021 142.98 200.415 143.929 200.178 145.349C200.355 146.025 200.168 146.852 199.676 147.942C199.314 149.573 198.409 150.513 197.317 151.081C196.18 152.264 194.495 152.619 193.021 152.816C191.44 152.816 189.959 152.569 188.689 152.141C187.629 152.843 186.317 153.102 185.139 153.259C180.435 153.259 176.622 151.087 176.622 148.408C176.622 148.011 176.622 147.602 176.649 147.197C175.939 147.898 174.904 148.112 173.995 148.231C172.994 148.231 172.057 148.076 171.257 147.808C169.953 148.838 167.467 148.957 165.619 148.056C163.722 147.132 161.436 146.017 164.489 144.377C165.211 144.156 165.81 143.998 166.337 143.915C165.321 142.976 164.601 141.969 166.913 141.394C168.764 141.291 169.578 141.419 170.448 142.354C171.083 142.185 171.944 142.12 173.113 142.207C173.032 142 172.988 141.786 172.988 141.566C172.988 140.679 172.989 139.694 173.832 139.079C173.463 138.216 173.602 137.449 175.623 137.29C177.405 137.475 178.158 137.719 178.655 138.691C178.665 138.693 178.674 138.696 178.684 138.699ZM216.685 142.286C217.611 141.268 219.655 140.668 224.169 141.16C229.669 142.467 230.879 143.244 229.449 146.022C228.789 148.637 226.259 149.168 224.169 149.414C222.605 149.414 221.142 149.195 219.895 148.817C219.894 148.821 219.892 148.825 219.891 148.83C219.209 151.903 216.597 152.528 214.439 152.816C209.736 152.816 205.923 150.644 205.923 147.964C205.923 146.236 205.924 144.282 208.21 143.394C208.296 141.948 208.926 140.553 213.519 141.111C215.079 141.525 216.105 141.865 216.685 142.286Z" fill="url(#paint23_linear_1732_137)"/>
  </g>
  <defs>
    <filter id="filter0_i_1732_137" x="106.251" y="27.137" width="69.3469" height="50.1257" filterUnits="userSpaceOnUse" color-interpolation-filters="sRGB">
      <feFlood flood-opacity="0" result="BackgroundImageFix"/>
      <feBlend mode="normal" in="SourceGraphic" in2="BackgroundImageFix" result="shape"/>
      <feColorMatrix in="SourceAlpha" type="matrix" values="0 0 0 0 0 0 0 0 0 0 0 0 0 0 0 0 0 0 127 0" result="hardAlpha"/>
      <feOffset dx="-3.24443" dy="-30.183"/>
      <feGaussianBlur stdDeviation="0.66855"/>
      <feComposite in2="hardAlpha" operator="arithmetic" k2="-1" k3="1"/>
      <feColorMatrix type="matrix" values="0 0 0 0 0.033221 0 0 0 0 0.577712 0 0 0 0 0.468814 0 0 0 0.25 0"/>
      <feBlend mode="normal" in2="shape" result="effect1_innerShadow_1732_137"/>
    </filter>
    <filter id="filter1_i_1732_137" x="142.24" y="47.2926" width="31.559" height="26.3695" filterUnits="userSpaceOnUse" color-interpolation-filters="sRGB">
      <feFlood flood-opacity="0" result="BackgroundImageFix"/>
      <feBlend mode="normal" in="SourceGraphic" in2="BackgroundImageFix" result="shape"/>
      <feColorMatrix in="SourceAlpha" type="matrix" values="0 0 0 0 0 0 0 0 0 0 0 0 0 0 0 0 0 0 127 0" result="hardAlpha"/>
      <feOffset dx="5.80065" dy="-6.78381"/>
      <feGaussianBlur stdDeviation="0.393265"/>
      <feComposite in2="hardAlpha" operator="arithmetic" k2="-1" k3="1"/>
      <feColorMatrix type="matrix" values="0 0 0 0 0 0 0 0 0 0.310904 0 0 0 0 0.339168 0 0 0 0.25 0"/>
      <feBlend mode="normal" in2="shape" result="effect1_innerShadow_1732_137"/>
    </filter>
    <filter id="filter2_i_1732_137" x="103.035" y="69.2789" width="20.7348" height="20.1825" filterUnits="userSpaceOnUse" color-interpolation-filters="sRGB">
      <feFlood flood-opacity="0" result="BackgroundImageFix"/>
      <feBlend mode="normal" in="SourceGraphic" in2="BackgroundImageFix" result="shape"/>
      <feColorMatrix in="SourceAlpha" type="matrix" values="0 0 0 0 0 0 0 0 0 0 0 0 0 0 0 0 0 0 127 0" result="hardAlpha"/>
      <feOffset dx="-5.80065" dy="-2.75285"/>
      <feGaussianBlur stdDeviation="0.393265"/>
      <feComposite in2="hardAlpha" operator="arithmetic" k2="-1" k3="1"/>
      <feColorMatrix type="matrix" values="0 0 0 0 0 0 0 0 0 0.295407 0 0 0 0 0.361722 0 0 0 0.25 0"/>
      <feBlend mode="normal" in2="shape" result="effect1_innerShadow_1732_137"/>
    </filter>
    <filter id="filter3_i_1732_137" x="102.818" y="52.8512" width="26.9032" height="27.1947" filterUnits="userSpaceOnUse" color-interpolation-filters="sRGB">
      <feFlood flood-opacity="0" result="BackgroundImageFix"/>
      <feBlend mode="normal" in="SourceGraphic" in2="BackgroundImageFix" result="shape"/>
      <feColorMatrix in="SourceAlpha" type="matrix" values="0 0 0 0 0 0 0 0 0 0 0 0 0 0 0 0 0 0 127 0" result="hardAlpha"/>
      <feOffset dx="-5.60402" dy="-7.07876"/>
      <feGaussianBlur stdDeviation="0.717708"/>
      <feComposite in2="hardAlpha" operator="arithmetic" k2="-1" k3="1"/>
      <feColorMatrix type="matrix" values="0 0 0 0 0 0 0 0 0 0.349947 0 0 0 0 0.256628 0 0 0 0.25 0"/>
      <feBlend mode="normal" in2="shape" result="effect1_innerShadow_1732_137"/>
    </filter>
    <filter id="filter4_i_1732_137" x="121.197" y="40.6163" width="30.9121" height="25.8056" filterUnits="userSpaceOnUse" color-interpolation-filters="sRGB">
      <feFlood flood-opacity="0" result="BackgroundImageFix"/>
      <feBlend mode="normal" in="SourceGraphic" in2="BackgroundImageFix" result="shape"/>
      <feColorMatrix in="SourceAlpha" type="matrix" values="0 0 0 0 0 0 0 0 0 0 0 0 0 0 0 0 0 0 127 0" result="hardAlpha"/>
      <feOffset dy="-11.8963"/>
      <feGaussianBlur stdDeviation="0.393265"/>
      <feComposite in2="hardAlpha" operator="arithmetic" k2="-1" k3="1"/>
      <feColorMatrix type="matrix" values="0 0 0 0 0.0261306 0 0 0 0 0.405801 0 0 0 0 0.440317 0 0 0 0.25 0"/>
      <feBlend mode="normal" in2="shape" result="effect1_innerShadow_1732_137"/>
    </filter>
    <filter id="filter5_i_1732_137" x="95.795" y="91.0514" width="33.6982" height="29.5927" filterUnits="userSpaceOnUse" color-interpolation-filters="sRGB">
      <feFlood flood-opacity="0" result="BackgroundImageFix"/>
      <feBlend mode="normal" in="SourceGraphic" in2="BackgroundImageFix" result="shape"/>
      <feColorMatrix in="SourceAlpha" type="matrix" values="0 0 0 0 0 0 0 0 0 0 0 0 0 0 0 0 0 0 127 0" result="hardAlpha"/>
      <feOffset dx="-2.23668" dy="-20.8079"/>
      <feGaussianBlur stdDeviation="0.460892"/>
      <feComposite in2="hardAlpha" operator="arithmetic" k2="-1" k3="1"/>
      <feColorMatrix type="matrix" values="0 0 0 0 0.033221 0 0 0 0 0.577712 0 0 0 0 0.468814 0 0 0 0.25 0"/>
      <feBlend mode="normal" in2="shape" result="effect1_innerShadow_1732_137"/>
    </filter>
    <filter id="filter6_i_1732_137" x="98.1484" y="104.373" width="14.7248" height="12.0662" filterUnits="userSpaceOnUse" color-interpolation-filters="sRGB">
      <feFlood flood-opacity="0" result="BackgroundImageFix"/>
      <feBlend mode="normal" in="SourceGraphic" in2="BackgroundImageFix" result="shape"/>
      <feColorMatrix in="SourceAlpha" type="matrix" values="0 0 0 0 0 0 0 0 0 0 0 0 0 0 0 0 0 0 127 0" result="hardAlpha"/>
      <feOffset dx="3.99891" dy="-4.67669"/>
      <feGaussianBlur stdDeviation="0.271113"/>
      <feComposite in2="hardAlpha" operator="arithmetic" k2="-1" k3="1"/>
      <feColorMatrix type="matrix" values="0 0 0 0 0 0 0 0 0 0.310904 0 0 0 0 0.339168 0 0 0 0.25 0"/>
      <feBlend mode="normal" in2="shape" result="effect1_innerShadow_1732_137"/>
    </filter>
    <filter id="filter7_i_1732_137" x="132.962" y="98.6423" width="13.6292" height="10.4549" filterUnits="userSpaceOnUse" color-interpolation-filters="sRGB">
      <feFlood flood-opacity="0" result="BackgroundImageFix"/>
      <feBlend mode="normal" in="SourceGraphic" in2="BackgroundImageFix" result="shape"/>
      <feColorMatrix in="SourceAlpha" type="matrix" values="0 0 0 0 0 0 0 0 0 0 0 0 0 0 0 0 0 0 127 0" result="hardAlpha"/>
      <feOffset dx="-3.86336" dy="-4.88003"/>
      <feGaussianBlur stdDeviation="0.494781"/>
      <feComposite in2="hardAlpha" operator="arithmetic" k2="-1" k3="1"/>
      <feColorMatrix type="matrix" values="0 0 0 0 0 0 0 0 0 0.349947 0 0 0 0 0.256628 0 0 0 0.25 0"/>
      <feBlend mode="normal" in2="shape" result="effect1_innerShadow_1732_137"/>
    </filter>
    <filter id="filter8_i_1732_137" x="101.002" y="114.886" width="9.85352" height="9.22142" filterUnits="userSpaceOnUse" color-interpolation-filters="sRGB">
      <feFlood flood-opacity="0" result="BackgroundImageFix"/>
      <feBlend mode="normal" in="SourceGraphic" in2="BackgroundImageFix" result="shape"/>
      <feColorMatrix in="SourceAlpha" type="matrix" values="0 0 0 0 0 0 0 0 0 0 0 0 0 0 0 0 0 0 127 0" result="hardAlpha"/>
      <feOffset dy="-8.20116"/>
      <feGaussianBlur stdDeviation="0.271113"/>
      <feComposite in2="hardAlpha" operator="arithmetic" k2="-1" k3="1"/>
      <feColorMatrix type="matrix" values="0 0 0 0 0.0261306 0 0 0 0 0.405801 0 0 0 0 0.440317 0 0 0 0.25 0"/>
      <feBlend mode="normal" in2="shape" result="effect1_innerShadow_1732_137"/>
    </filter>
    <filter id="filter9_i_1732_137" x="156.963" y="58.5938" width="55.5722" height="45.2206" filterUnits="userSpaceOnUse" color-interpolation-filters="sRGB">
      <feFlood flood-opacity="0" result="BackgroundImageFix"/>
      <feBlend mode="normal" in="SourceGraphic" in2="BackgroundImageFix" result="shape"/>
      <feColorMatrix in="SourceAlpha" type="matrix" values="0 0 0 0 0 0 0 0 0 0 0 0 0 0 0 0 0 0 127 0" result="hardAlpha"/>
      <feOffset dx="-2.23668" dy="-20.8079"/>
      <feGaussianBlur stdDeviation="0.460892"/>
      <feComposite in2="hardAlpha" operator="arithmetic" k2="-1" k3="1"/>
      <feColorMatrix type="matrix" values="0 0 0 0 0.033221 0 0 0 0 0.577712 0 0 0 0 0.468814 0 0 0 0.25 0"/>
      <feBlend mode="normal" in2="shape" result="effect1_innerShadow_1732_137"/>
    </filter>
    <filter id="filter10_i_1732_137" x="169.697" y="77.3401" width="25.469" height="18.4929" filterUnits="userSpaceOnUse" color-interpolation-filters="sRGB">
      <feFlood flood-opacity="0" result="BackgroundImageFix"/>
      <feBlend mode="normal" in="SourceGraphic" in2="BackgroundImageFix" result="shape"/>
      <feColorMatrix in="SourceAlpha" type="matrix" values="0 0 0 0 0 0 0 0 0 0 0 0 0 0 0 0 0 0 127 0" result="hardAlpha"/>
      <feOffset dx="3.99891" dy="-4.67669"/>
      <feGaussianBlur stdDeviation="0.271113"/>
      <feComposite in2="hardAlpha" operator="arithmetic" k2="-1" k3="1"/>
      <feColorMatrix type="matrix" values="0 0 0 0 0 0 0 0 0 0.310904 0 0 0 0 0.339168 0 0 0 0.25 0"/>
      <feBlend mode="normal" in2="shape" result="effect1_innerShadow_1732_137"/>
    </filter>
    <filter id="filter11_i_1732_137" x="137.98" y="75.0998" width="22.3304" height="17.1585" filterUnits="userSpaceOnUse" color-interpolation-filters="sRGB">
      <feFlood flood-opacity="0" result="BackgroundImageFix"/>
      <feBlend mode="normal" in="SourceGraphic" in2="BackgroundImageFix" result="shape"/>
      <feColorMatrix in="SourceAlpha" type="matrix" values="0 0 0 0 0 0 0 0 0 0 0 0 0 0 0 0 0 0 127 0" result="hardAlpha"/>
      <feOffset dx="-3.86336" dy="-4.88003"/>
      <feGaussianBlur stdDeviation="0.494781"/>
      <feComposite in2="hardAlpha" operator="arithmetic" k2="-1" k3="1"/>
      <feColorMatrix type="matrix" values="0 0 0 0 0 0 0 0 0 0.349947 0 0 0 0 0.256628 0 0 0 0.25 0"/>
      <feBlend mode="normal" in2="shape" result="effect1_innerShadow_1732_137"/>
    </filter>
    <filter id="filter12_i_1732_137" x="176.899" y="94.2864" width="15.4268" height="15.3371" filterUnits="userSpaceOnUse" color-interpolation-filters="sRGB">
      <feFlood flood-opacity="0" result="BackgroundImageFix"/>
      <feBlend mode="normal" in="SourceGraphic" in2="BackgroundImageFix" result="shape"/>
      <feColorMatrix in="SourceAlpha" type="matrix" values="0 0 0 0 0 0 0 0 0 0 0 0 0 0 0 0 0 0 127 0" result="hardAlpha"/>
      <feOffset dy="-8.20116"/>
      <feGaussianBlur stdDeviation="0.271113"/>
      <feComposite in2="hardAlpha" operator="arithmetic" k2="-1" k3="1"/>
      <feColorMatrix type="matrix" values="0 0 0 0 0.0261306 0 0 0 0 0.405801 0 0 0 0 0.440317 0 0 0 0.25 0"/>
      <feBlend mode="normal" in2="shape" result="effect1_innerShadow_1732_137"/>
    </filter>
    <filter id="filter13_dg_1732_137" x="163.352" y="91.4305" width="158.296" height="95.2962" filterUnits="userSpaceOnUse" color-interpolation-filters="sRGB">
      <feFlood flood-opacity="0" result="BackgroundImageFix"/>
      <feColorMatrix in="SourceAlpha" type="matrix" values="0 0 0 0 0 0 0 0 0 0 0 0 0 0 0 0 0 0 127 0" result="hardAlpha"/>
      <feOffset dy="4.07856"/>
      <feGaussianBlur stdDeviation="16.824"/>
      <feComposite in2="hardAlpha" operator="out"/>
      <feColorMatrix type="matrix" values="0 0 0 0 0 0 0 0 0 0 0 0 0 0 0 0 0 0 0.17 0"/>
      <feBlend mode="normal" in2="BackgroundImageFix" result="effect1_dropShadow_1732_137"/>
      <feBlend mode="normal" in="SourceGraphic" in2="effect1_dropShadow_1732_137" result="shape"/>
      <feTurbulence type="fractalNoise" baseFrequency="0.12736871838569641 0.12736871838569641" numOctaves="3" seed="5311" />
      <feDisplacementMap in="shape" scale="11.623885154724121" xChannelSelector="R" yChannelSelector="G" result="displacedImage" width="100%" height="100%" />
      <feMerge result="effect2_texture_1732_137">
        <feMergeNode in="displacedImage"/>
      </feMerge>
    </filter>
    <filter id="filter14_dg_1732_137" x="0.35191" y="102.43" width="158.296" height="95.2962" filterUnits="userSpaceOnUse" color-interpolation-filters="sRGB">
      <feFlood flood-opacity="0" result="BackgroundImageFix"/>
      <feColorMatrix in="SourceAlpha" type="matrix" values="0 0 0 0 0 0 0 0 0 0 0 0 0 0 0 0 0 0 127 0" result="hardAlpha"/>
      <feOffset dy="4.07856"/>
      <feGaussianBlur stdDeviation="16.824"/>
      <feComposite in2="hardAlpha" operator="out"/>
      <feColorMatrix type="matrix" values="0 0 0 0 0 0 0 0 0 0 0 0 0 0 0 0 0 0 0.17 0"/>
      <feBlend mode="normal" in2="BackgroundImageFix" result="effect1_dropShadow_1732_137"/>
      <feBlend mode="normal" in="SourceGraphic" in2="effect1_dropShadow_1732_137" result="shape"/>
      <feTurbulence type="fractalNoise" baseFrequency="0.12736871838569641 0.12736871838569641" numOctaves="3" seed="5311" />
      <feDisplacementMap in="shape" scale="11.623885154724121" xChannelSelector="R" yChannelSelector="G" result="displacedImage" width="100%" height="100%" />
      <feMerge result="effect2_texture_1732_137">
        <feMergeNode in="displacedImage"/>
      </feMerge>
    </filter>
    <filter id="filter15_dg_1732_137" x="47.3519" y="98.4305" width="159.297" height="104.575" filterUnits="userSpaceOnUse" color-interpolation-filters="sRGB">
      <feFlood flood-opacity="0" result="BackgroundImageFix"/>
      <feColorMatrix in="SourceAlpha" type="matrix" values="0 0 0 0 0 0 0 0 0 0 0 0 0 0 0 0 0 0 127 0" result="hardAlpha"/>
      <feOffset dy="4.07856"/>
      <feGaussianBlur stdDeviation="16.824"/>
      <feComposite in2="hardAlpha" operator="out"/>
      <feColorMatrix type="matrix" values="0 0 0 0 0 0 0 0 0 0 0 0 0 0 0 0 0 0 0.17 0"/>
      <feBlend mode="normal" in2="BackgroundImageFix" result="effect1_dropShadow_1732_137"/>
      <feBlend mode="normal" in="SourceGraphic" in2="effect1_dropShadow_1732_137" result="shape"/>
      <feTurbulence type="fractalNoise" baseFrequency="0.12736871838569641 0.12736871838569641" numOctaves="3" seed="5311" />
      <feDisplacementMap in="shape" scale="11.623885154724121" xChannelSelector="R" yChannelSelector="G" result="displacedImage" width="100%" height="100%" />
      <feMerge result="effect2_texture_1732_137">
        <feMergeNode in="displacedImage"/>
      </feMerge>
    </filter>
    <filter id="filter16_dg_1732_137" x="129.352" y="103.43" width="134.297" height="87.5555" filterUnits="userSpaceOnUse" color-interpolation-filters="sRGB">
      <feFlood flood-opacity="0" result="BackgroundImageFix"/>
      <feColorMatrix in="SourceAlpha" type="matrix" values="0 0 0 0 0 0 0 0 0 0 0 0 0 0 0 0 0 0 127 0" result="hardAlpha"/>
      <feOffset dy="4.07856"/>
      <feGaussianBlur stdDeviation="16.824"/>
      <feComposite in2="hardAlpha" operator="out"/>
      <feColorMatrix type="matrix" values="0 0 0 0 0 0 0 0 0 0 0 0 0 0 0 0 0 0 0.17 0"/>
      <feBlend mode="normal" in2="BackgroundImageFix" result="effect1_dropShadow_1732_137"/>
      <feBlend mode="normal" in="SourceGraphic" in2="effect1_dropShadow_1732_137" result="shape"/>
      <feTurbulence type="fractalNoise" baseFrequency="0.12736871838569641 0.12736871838569641" numOctaves="3" seed="5311" />
      <feDisplacementMap in="shape" scale="11.623885154724121" xChannelSelector="R" yChannelSelector="G" result="displacedImage" width="100%" height="100%" />
      <feMerge result="effect2_texture_1732_137">
        <feMergeNode in="displacedImage"/>
      </feMerge>
    </filter>
    <linearGradient id="paint0_linear_1732_137" x1="131.301" y1="14.2332" x2="138.597" y2="70.9848" gradientUnits="userSpaceOnUse">
      <stop offset="0.202239" stop-color="#F7F6A7"/>
      <stop offset="0.791956" stop-color="#3C784D"/>
    </linearGradient>
    <linearGradient id="paint1_linear_1732_137" x1="135.866" y1="50.1431" x2="136.696" y2="127.446" gradientUnits="userSpaceOnUse">
      <stop stop-color="#3D5A44"/>
      <stop offset="0.701923" stop-color="#8E6635"/>
      <stop offset="0.975962" stop-color="#8E6635" stop-opacity="0.06"/>
    </linearGradient>
    <linearGradient id="paint2_linear_1732_137" x1="167.441" y1="46.783" x2="158.39" y2="73.7222" gradientUnits="userSpaceOnUse">
      <stop stop-color="#9CBF7C"/>
      <stop offset="0.741107" stop-color="#326F40"/>
    </linearGradient>
    <linearGradient id="paint3_linear_1732_137" x1="102.882" y1="13.85" x2="108.313" y2="89.2045" gradientUnits="userSpaceOnUse">
      <stop stop-color="#9FC480"/>
      <stop offset="0.950658" stop-color="#527A4A"/>
    </linearGradient>
    <linearGradient id="paint4_linear_1732_137" x1="113.27" y1="47.2665" x2="115.513" y2="82.1467" gradientUnits="userSpaceOnUse">
      <stop stop-color="#A1C682"/>
      <stop offset="1" stop-color="#266741"/>
    </linearGradient>
    <linearGradient id="paint5_linear_1732_137" x1="138.017" y1="35.398" x2="139.308" y2="63.9958" gradientUnits="userSpaceOnUse">
      <stop offset="0.252677" stop-color="#A3C984"/>
      <stop offset="1" stop-color="#3D653A"/>
    </linearGradient>
    <linearGradient id="paint6_linear_1732_137" x1="108.206" y1="87.5475" x2="116.727" y2="108.581" gradientUnits="userSpaceOnUse">
      <stop offset="0.202239" stop-color="#F7F6A7"/>
      <stop offset="0.791956" stop-color="#3C784D"/>
    </linearGradient>
    <linearGradient id="paint7_linear_1732_137" x1="108.047" y1="91.6537" x2="123.211" y2="134.674" gradientUnits="userSpaceOnUse">
      <stop stop-color="#3D5A44"/>
      <stop offset="0.358286" stop-color="#4B5C42"/>
      <stop offset="0.64294" stop-color="#8E6635" stop-opacity="0.74"/>
      <stop offset="0.970732" stop-color="#8E6635" stop-opacity="0"/>
    </linearGradient>
    <linearGradient id="paint8_linear_1732_137" x1="98.2776" y1="107.357" x2="106.067" y2="115.788" gradientUnits="userSpaceOnUse">
      <stop stop-color="#9CBF7C"/>
      <stop offset="0.741107" stop-color="#326F40"/>
    </linearGradient>
    <linearGradient id="paint9_linear_1732_137" x1="138.409" y1="97.3426" x2="144.244" y2="109.887" gradientUnits="userSpaceOnUse">
      <stop stop-color="#A1C682"/>
      <stop offset="1" stop-color="#266741"/>
    </linearGradient>
    <linearGradient id="paint10_linear_1732_137" x1="101.444" y1="123.08" x2="106.307" y2="116.339" gradientUnits="userSpaceOnUse">
      <stop offset="0.252677" stop-color="#A3C984"/>
      <stop offset="1" stop-color="#3D653A"/>
    </linearGradient>
    <linearGradient id="paint11_linear_1732_137" x1="185.787" y1="50.5765" x2="179.136" y2="87.6906" gradientUnits="userSpaceOnUse">
      <stop offset="0.202239" stop-color="#F7F6A7"/>
      <stop offset="0.791956" stop-color="#3C784D"/>
    </linearGradient>
    <linearGradient id="paint12_linear_1732_137" x1="171.45" y1="57.1994" x2="161.528" y2="132.334" gradientUnits="userSpaceOnUse">
      <stop stop-color="#3D5A44"/>
      <stop offset="0.358286" stop-color="#4B5C42"/>
      <stop offset="0.64294" stop-color="#8E6635" stop-opacity="0.74"/>
      <stop offset="0.970732" stop-color="#8E6635" stop-opacity="0"/>
    </linearGradient>
    <linearGradient id="paint13_linear_1732_137" x1="192.711" y1="79.3831" x2="182.935" y2="95.7572" gradientUnits="userSpaceOnUse">
      <stop stop-color="#9CBF7C"/>
      <stop offset="0.741107" stop-color="#326F40"/>
    </linearGradient>
    <linearGradient id="paint14_linear_1732_137" x1="150.047" y1="71.3655" x2="144.857" y2="93.7576" gradientUnits="userSpaceOnUse">
      <stop stop-color="#A1C682"/>
      <stop offset="1" stop-color="#266741"/>
    </linearGradient>
    <linearGradient id="paint15_linear_1732_137" x1="192.945" y1="106.029" x2="182.73" y2="96.7361" gradientUnits="userSpaceOnUse">
      <stop offset="0.252677" stop-color="#A3C984"/>
      <stop offset="1" stop-color="#3D653A"/>
    </linearGradient>
    <radialGradient id="paint16_radial_1732_137" cx="0" cy="0" r="1" gradientUnits="userSpaceOnUse" gradientTransform="translate(77.5729 0.169941) rotate(38.4622) scale(185.668 137.712)">
      <stop offset="0.25548" stop-color="#FFDA7E" stop-opacity="0"/>
      <stop offset="0.57059" stop-color="#E7FBFF" stop-opacity="0.73"/>
      <stop offset="1" stop-color="#50E2FF" stop-opacity="0"/>
    </radialGradient>
    <linearGradient id="paint17_linear_1732_137" x1="80.2983" y1="6.73776" x2="264.668" y2="205.2" gradientUnits="userSpaceOnUse">
      <stop offset="0.163396" stop-color="#8ED4FF"/>
      <stop offset="0.473368" stop-color="#8CD3FF"/>
      <stop offset="0.656463" stop-color="#DCEBF5"/>
      <stop offset="0.791088" stop-color="white" stop-opacity="0.1"/>
    </linearGradient>
    <linearGradient id="paint18_linear_1732_137" x1="69.2276" y1="66.3542" x2="101.445" y2="119.604" gradientUnits="userSpaceOnUse">
      <stop offset="0.287171" stop-color="#44CCD3" stop-opacity="0.08"/>
      <stop offset="0.346813" stop-color="#C2F3FF" stop-opacity="0.59"/>
    </linearGradient>
    <linearGradient id="paint19_linear_1732_137" x1="77.437" y1="5.40231" x2="150.166" y2="173.724" gradientUnits="userSpaceOnUse">
      <stop offset="0.223717" stop-color="white"/>
      <stop offset="0.446358" stop-color="#DCEBF5"/>
      <stop offset="0.791088" stop-color="white" stop-opacity="0.1"/>
    </linearGradient>
    <linearGradient id="paint20_linear_1732_137" x1="242.5" y1="121" x2="242.5" y2="149" gradientUnits="userSpaceOnUse">
      <stop stop-color="#B0D87D"/>
      <stop offset="1" stop-color="#8BAE5D"/>
    </linearGradient>
    <linearGradient id="paint21_linear_1732_137" x1="79.4998" y1="132" x2="79.4998" y2="160" gradientUnits="userSpaceOnUse">
      <stop stop-color="#B0D87D"/>
      <stop offset="1" stop-color="#8BAE5D"/>
    </linearGradient>
    <linearGradient id="paint22_linear_1732_137" x1="127.001" y1="128" x2="127.001" y2="165.278" gradientUnits="userSpaceOnUse">
      <stop stop-color="#B0D87D"/>
      <stop offset="1" stop-color="#8BAE5D"/>
    </linearGradient>
    <linearGradient id="paint23_linear_1732_137" x1="196.5" y1="133" x2="196.5" y2="153.259" gradientUnits="userSpaceOnUse">
      <stop stop-color="#B0D87D"/>
      <stop offset="1" stop-color="#8BAE5D"/>
    </linearGradient>
  </defs>
</svg>
