<svg width="887" height="293" viewBox="0 0 887 293" fill="none" xmlns="http://www.w3.org/2000/svg">
<g filter="url(#filter0_dg_3146_3409)">
<path d="M143.22 103.894C148.752 99.6278 157.881 97.9099 172.948 100.781C193.427 109.297 201.069 115.032 199.845 128.639C205.092 127.54 211.938 127.629 220.871 129.331C240.098 137.326 248.01 142.871 247.892 154.78C251.109 154.203 255.248 154.297 260.574 155.291C267.579 158.143 272.181 160.485 274.787 163.387C278.942 156.372 288.119 152.239 308.385 155.63C333.076 164.646 338.508 169.999 332.089 189.158C329.126 207.19 317.767 210.853 308.385 212.543C301.363 212.543 294.798 211.042 289.204 208.434C289.197 208.458 289.19 208.482 289.183 208.506C286.125 229.701 274.4 234.006 264.715 235.993C254.446 235.993 245.124 232.45 238.256 226.686C233.281 232.755 226.707 234.796 220.871 235.993C208.14 235.993 196.864 230.547 189.916 222.175C185.154 227.016 179.257 228.793 173.968 229.878C166.543 229.878 159.614 228.024 153.749 224.82C148.692 234.824 140.376 237.579 133.182 239.055C112.068 239.055 94.951 224.079 94.951 205.605C94.951 202.877 94.9509 200.067 95.074 197.281C91.885 202.106 87.233 203.567 83.158 204.386C78.6637 204.386 74.4597 203.322 70.8689 201.474C65.0158 208.58 53.854 209.39 45.5574 203.18C37.0423 196.805 26.7813 189.124 40.4861 177.816C43.7224 176.29 46.4033 175.195 48.7674 174.618C44.2124 168.148 40.9892 161.202 51.366 157.24C59.6756 156.53 63.3397 157.405 67.2459 163.854C70.0931 162.691 73.9551 162.252 79.1961 162.848C78.8302 161.424 78.6365 159.945 78.6365 158.427C78.6365 152.31 78.6373 145.517 82.4217 141.274C80.7688 135.327 81.3944 130.043 90.4656 128.943C98.4658 130.224 101.847 131.9 104.08 138.598C104.12 138.614 104.16 138.632 104.2 138.648C104.697 115.259 108.608 92.3562 139.372 101.373C140.714 102.231 141.997 103.07 143.22 103.894Z" fill="url(#paint0_linear_3146_3409)"/>
</g>
<g filter="url(#filter1_dg_3146_3409)">
<path d="M362.444 119.188C367.975 114.921 377.104 113.202 392.171 116.073C412.649 124.588 420.292 130.324 419.069 143.93C424.315 142.831 431.161 142.92 440.094 144.622C459.322 152.618 467.234 158.163 467.116 170.073C470.332 169.496 474.471 169.589 479.798 170.583C486.802 173.435 491.404 175.778 494.01 178.679C498.166 171.665 507.343 167.531 527.608 170.922C552.299 179.938 557.732 185.292 551.312 204.45C548.349 222.482 536.991 226.146 527.608 227.836C520.587 227.836 514.023 226.334 508.428 223.727C508.421 223.751 508.415 223.776 508.408 223.8C505.349 244.995 493.624 249.302 483.939 251.288C473.67 251.288 464.348 247.744 457.48 241.981C452.505 248.05 445.93 250.091 440.094 251.288C427.362 251.288 416.086 245.841 409.137 237.467C404.375 242.307 398.48 244.085 393.191 245.17C385.767 245.17 378.838 243.315 372.973 240.111C367.916 250.116 359.599 252.871 352.406 254.347C332.484 254.347 316.123 241.015 314.338 223.992C311.416 226.741 307.862 227.78 304.665 228.422C296.953 228.422 290.096 225.291 285.727 220.434C279.631 223.9 271.316 223.364 264.781 218.472C256.266 212.097 246.006 204.416 259.71 193.109C262.945 191.583 265.625 190.487 267.989 189.91C263.434 183.441 260.213 176.495 270.589 172.534C280.412 171.695 283.743 173.071 288.657 183.25C289.542 184.703 290.235 186.026 290.768 187.234C293.008 186.67 295.749 186.471 299.104 186.731C298.956 185.81 298.878 184.87 298.878 183.915C298.878 182.554 298.88 181.159 298.921 179.767C298.232 177.855 297.86 175.823 297.86 173.717C297.86 167.601 297.861 160.808 301.645 156.566C299.993 150.619 300.62 145.337 309.69 144.237C317.688 145.518 321.07 147.192 323.303 153.887C323.344 153.904 323.383 153.922 323.423 153.939C323.921 130.55 327.833 107.65 358.596 116.666C359.938 117.524 361.22 118.364 362.444 119.188Z" fill="url(#paint1_linear_3146_3409)"/>
</g>
<g filter="url(#filter2_g_3146_3409)">
<path d="M509.271 81.4594C514.803 77.1928 523.932 75.4749 538.999 78.3461C559.477 86.8614 567.12 92.5965 565.896 106.203C571.143 105.104 577.989 105.193 586.923 106.895C606.151 114.89 614.062 120.435 613.944 132.345C617.161 131.768 621.3 131.861 626.627 132.855C633.631 135.706 638.233 138.05 640.839 140.951C644.994 133.937 654.172 129.803 674.436 133.194C699.128 142.21 704.56 147.563 698.141 166.722C695.178 184.754 683.819 188.418 674.436 190.108C667.416 190.108 660.851 188.606 655.257 185.998C655.25 186.023 655.243 186.047 655.236 186.072C652.178 207.267 640.453 211.573 630.768 213.56C620.499 213.56 611.177 210.017 604.309 204.253C599.334 210.322 592.759 212.363 586.923 213.56C574.191 213.56 562.914 208.113 555.966 199.739C551.204 204.58 545.308 206.358 540.019 207.443C532.595 207.443 525.666 205.589 519.801 202.385C514.744 212.389 506.427 215.145 499.233 216.621C478.119 216.621 461.001 201.645 461.001 183.171C461.001 180.443 461.002 177.633 461.125 174.847C457.936 179.671 453.285 181.133 449.21 181.952C444.716 181.952 440.512 180.887 436.922 179.039C431.069 186.146 419.906 186.957 411.609 180.746C403.094 174.371 392.834 166.689 406.539 155.382C409.774 153.856 412.455 152.761 414.818 152.184C410.264 145.714 407.04 138.768 417.417 134.807C425.726 134.097 429.389 134.973 433.295 141.42C436.142 140.256 440.005 139.816 445.248 140.413C444.882 138.989 444.687 137.51 444.687 135.993C444.687 129.876 444.689 123.083 448.474 118.84C446.821 112.893 447.446 107.61 456.518 106.51C464.518 107.791 467.9 109.466 470.133 116.164C470.173 116.18 470.212 116.198 470.252 116.214C470.749 92.8249 474.66 69.9209 505.425 78.9379C506.767 79.7961 508.048 80.6356 509.271 81.4594Z" fill="url(#paint2_linear_3146_3409)"/>
</g>
<g filter="url(#filter3_g_3146_3409)">
<path d="M175.679 12.3666C182.748 6.91391 194.414 4.71778 213.67 8.3871C239.841 19.2697 249.608 26.5996 248.045 43.9887C254.75 42.5843 263.499 42.6978 274.916 44.8734C299.488 55.0907 309.598 62.1768 309.449 77.3959C313.56 76.6584 318.849 76.7802 325.656 78.0502C334.608 81.6948 340.49 84.6882 343.82 88.3959C349.131 79.4317 360.86 74.1486 386.759 78.4828C418.313 90.0056 425.256 96.8468 417.052 121.331C413.265 144.376 398.75 149.057 386.759 151.217C377.785 151.217 369.395 149.299 362.245 145.966C362.236 145.998 362.227 146.029 362.218 146.061C358.309 173.148 343.326 178.651 330.948 181.19C317.825 181.19 305.912 176.663 297.134 169.297C290.776 177.053 282.374 179.66 274.916 181.19C258.644 181.19 244.233 174.229 235.352 163.527C229.615 169.359 222.589 171.713 216.14 173.124L214.973 173.371L214.341 173.368C214.235 173.366 214.13 173.363 214.024 173.361C204.895 173.209 196.379 170.866 189.134 166.909C182.671 179.692 172.044 183.214 162.851 185.1C135.866 185.1 113.99 165.961 113.99 142.352C113.99 138.865 113.991 135.272 114.148 131.71C110.073 137.878 104.127 139.747 98.9189 140.793C93.1758 140.793 87.8035 139.433 83.2148 137.072C75.7347 146.154 61.4685 147.19 50.8652 139.252C39.983 131.106 26.8702 121.289 44.3847 106.838C48.5197 104.888 51.945 103.487 54.9658 102.75C49.1453 94.4824 45.0282 85.6055 58.289 80.5434C68.9063 79.6359 73.5881 80.755 78.579 88.9926C82.2182 87.5048 87.1556 86.9455 93.8554 87.7074C93.3877 85.8877 93.1396 83.9972 93.1396 82.057C93.1396 74.242 93.142 65.5623 97.9755 60.14C95.8626 52.5381 96.6639 45.7845 108.258 44.3793C118.481 46.0165 122.802 48.1566 125.656 56.7152C125.708 56.7368 125.759 56.7582 125.81 56.7797C126.446 26.8894 131.444 -2.37901 170.76 9.14394C172.475 10.2411 174.114 11.3135 175.679 12.3666Z" fill="url(#paint3_linear_3146_3409)"/>
</g>
<g filter="url(#filter4_dg_3146_3409)">
<path d="M727.56 114.075C721.241 109.823 710.812 108.11 693.598 110.972C670.201 119.459 661.47 125.175 662.868 138.737C656.874 137.642 649.052 137.731 638.846 139.428C616.879 147.396 607.84 152.923 607.973 164.792C604.299 164.217 599.57 164.31 593.485 165.301C585.484 168.143 580.226 170.478 577.249 173.369C572.501 166.378 562.016 162.259 538.863 165.639C510.654 174.625 504.448 179.961 511.782 199.057C515.167 217.029 528.144 220.68 538.863 222.364C546.885 222.364 554.385 220.867 560.776 218.269C560.785 218.293 560.792 218.318 560.801 218.343C564.295 239.469 577.69 243.76 588.756 245.74C600.487 245.74 611.137 242.209 618.984 236.465C624.668 242.513 632.178 244.547 638.846 245.74C653.391 245.74 666.274 240.311 674.213 231.965C679.653 236.79 686.39 238.561 692.432 239.643C700.914 239.643 708.831 237.795 715.532 234.602C721.31 244.571 730.81 247.318 739.028 248.788C763.151 248.788 782.707 233.862 782.707 215.449C782.707 212.731 782.707 209.929 782.566 207.153C786.21 211.962 791.524 213.42 796.181 214.236C801.315 214.235 806.118 213.175 810.221 211.333C816.908 218.416 829.66 219.224 839.139 213.033C848.867 206.68 860.59 199.024 844.932 187.754C841.235 186.233 838.172 185.14 835.472 184.566C840.675 178.117 844.357 171.194 832.502 167.246C823.009 166.538 818.824 167.411 814.361 173.838C811.108 172.678 806.695 172.24 800.707 172.834C801.125 171.415 801.347 169.941 801.348 168.428C801.348 162.332 801.346 155.561 797.022 151.332C798.911 145.404 798.196 140.138 787.832 139.042C778.692 140.319 774.829 141.989 772.278 148.664C772.232 148.681 772.186 148.698 772.14 148.715C771.573 125.403 767.104 102.574 731.956 111.562C730.423 112.417 728.959 113.254 727.56 114.075Z" fill="url(#paint4_linear_3146_3409)"/>
</g>
<defs>
<filter id="filter0_dg_3146_3409" x="0.152691" y="69.7937" width="368.061" height="206.988" filterUnits="userSpaceOnUse" color-interpolation-filters="sRGB">
<feFlood flood-opacity="0" result="BackgroundImageFix"/>
<feColorMatrix in="SourceAlpha" type="matrix" values="0 0 0 0 0 0 0 0 0 0 0 0 0 0 0 0 0 0 127 0" result="hardAlpha"/>
<feOffset dy="4.07856"/>
<feGaussianBlur stdDeviation="16.824"/>
<feComposite in2="hardAlpha" operator="out"/>
<feColorMatrix type="matrix" values="0 0 0 0 0 0 0 0 0 0 0 0 0 0 0 0 0 0 0.17 0"/>
<feBlend mode="normal" in2="BackgroundImageFix" result="effect1_dropShadow_3146_3409"/>
<feBlend mode="normal" in="SourceGraphic" in2="effect1_dropShadow_3146_3409" result="shape"/>
<feTurbulence type="fractalNoise" baseFrequency="0.12736871838569641 0.12736871838569641" numOctaves="3" seed="5311" />
<feDisplacementMap in="shape" scale="11.623885154724121" xChannelSelector="R" yChannelSelector="G" result="displacedImage" width="100%" height="100%" />
<feMerge result="effect2_texture_3146_3409">
<feMergeNode in="displacedImage"/>
</feMerge>
</filter>
<filter id="filter1_dg_3146_3409" x="219.377" y="85.0867" width="368.06" height="206.987" filterUnits="userSpaceOnUse" color-interpolation-filters="sRGB">
<feFlood flood-opacity="0" result="BackgroundImageFix"/>
<feColorMatrix in="SourceAlpha" type="matrix" values="0 0 0 0 0 0 0 0 0 0 0 0 0 0 0 0 0 0 127 0" result="hardAlpha"/>
<feOffset dy="4.07856"/>
<feGaussianBlur stdDeviation="16.824"/>
<feComposite in2="hardAlpha" operator="out"/>
<feColorMatrix type="matrix" values="0 0 0 0 0 0 0 0 0 0 0 0 0 0 0 0 0 0 0.17 0"/>
<feBlend mode="normal" in2="BackgroundImageFix" result="effect1_dropShadow_3146_3409"/>
<feBlend mode="normal" in="SourceGraphic" in2="effect1_dropShadow_3146_3409" result="shape"/>
<feTurbulence type="fractalNoise" baseFrequency="0.12736871838569641 0.12736871838569641" numOctaves="3" seed="5311" />
<feDisplacementMap in="shape" scale="11.623885154724121" xChannelSelector="R" yChannelSelector="G" result="displacedImage" width="100%" height="100%" />
<feMerge result="effect2_texture_3146_3409">
<feMergeNode in="displacedImage"/>
</feMerge>
</filter>
<filter id="filter2_g_3146_3409" x="394.042" y="71.1163" width="312.388" height="151.316" filterUnits="userSpaceOnUse" color-interpolation-filters="sRGB">
<feFlood flood-opacity="0" result="BackgroundImageFix"/>
<feBlend mode="normal" in="SourceGraphic" in2="BackgroundImageFix" result="shape"/>
<feTurbulence type="fractalNoise" baseFrequency="0.12736871838569641 0.12736871838569641" numOctaves="3" seed="5311" />
<feDisplacementMap in="shape" scale="11.623885154724121" xChannelSelector="R" yChannelSelector="G" result="displacedImage" width="100%" height="100%" />
<feMerge result="effect1_texture_3146_3409">
<feMergeNode in="displacedImage"/>
</feMerge>
</filter>
<filter id="filter3_g_3146_3409" x="30.0289" y="0.763741" width="396" height="190.148" filterUnits="userSpaceOnUse" color-interpolation-filters="sRGB">
<feFlood flood-opacity="0" result="BackgroundImageFix"/>
<feBlend mode="normal" in="SourceGraphic" in2="BackgroundImageFix" result="shape"/>
<feTurbulence type="fractalNoise" baseFrequency="0.12736871838569641 0.12736871838569641" numOctaves="3" seed="5311" />
<feDisplacementMap in="shape" scale="11.623885154724121" xChannelSelector="R" yChannelSelector="G" result="displacedImage" width="100%" height="100%" />
<feMerge result="effect1_texture_3146_3409">
<feMergeNode in="displacedImage"/>
</feMerge>
</filter>
<filter id="filter4_dg_3146_3409" x="475.304" y="79.9891" width="410.914" height="206.526" filterUnits="userSpaceOnUse" color-interpolation-filters="sRGB">
<feFlood flood-opacity="0" result="BackgroundImageFix"/>
<feColorMatrix in="SourceAlpha" type="matrix" values="0 0 0 0 0 0 0 0 0 0 0 0 0 0 0 0 0 0 127 0" result="hardAlpha"/>
<feOffset dy="4.07856"/>
<feGaussianBlur stdDeviation="16.824"/>
<feComposite in2="hardAlpha" operator="out"/>
<feColorMatrix type="matrix" values="0 0 0 0 0 0 0 0 0 0 0 0 0 0 0 0 0 0 0.17 0"/>
<feBlend mode="normal" in2="BackgroundImageFix" result="effect1_dropShadow_3146_3409"/>
<feBlend mode="normal" in="SourceGraphic" in2="effect1_dropShadow_3146_3409" result="shape"/>
<feTurbulence type="fractalNoise" baseFrequency="0.12736871838569641 0.12736871838569641" numOctaves="3" seed="5311" />
<feDisplacementMap in="shape" scale="11.623885154724121" xChannelSelector="R" yChannelSelector="G" result="displacedImage" width="100%" height="100%" />
<feMerge result="effect2_texture_3146_3409">
<feMergeNode in="displacedImage"/>
</feMerge>
</filter>
<linearGradient id="paint0_linear_3146_3409" x1="157.687" y1="84.5784" x2="184.183" y2="239.055" gradientUnits="userSpaceOnUse">
<stop stop-color="#558139"/>
<stop offset="1" stop-color="#A1D596"/>
</linearGradient>
<linearGradient id="paint1_linear_3146_3409" x1="376.911" y1="99.8714" x2="403.407" y2="254.347" gradientUnits="userSpaceOnUse">
<stop stop-color="#558139"/>
<stop offset="1" stop-color="#A1D596"/>
</linearGradient>
<linearGradient id="paint2_linear_3146_3409" x1="523.74" y1="62.1432" x2="550.236" y2="216.62" gradientUnits="userSpaceOnUse">
<stop stop-color="#558139"/>
<stop offset="1" stop-color="#A1D596"/>
</linearGradient>
<linearGradient id="paint3_linear_3146_3409" x1="194.167" y1="-12.3193" x2="228.029" y2="185.1" gradientUnits="userSpaceOnUse">
<stop stop-color="#558139"/>
<stop offset="1" stop-color="#A1D596"/>
</linearGradient>
<linearGradient id="paint4_linear_3146_3409" x1="711.032" y1="94.8226" x2="687.835" y2="249.847" gradientUnits="userSpaceOnUse">
<stop stop-color="#558139"/>
<stop offset="1" stop-color="#A1D596"/>
</linearGradient>
</defs>
</svg>
