<svg width="1569" height="1163" viewBox="0 0 1569 1163" fill="none" xmlns="http://www.w3.org/2000/svg">
<g filter="url(#filter0_f_1732_298)">
<mask id="path-1-inside-1_1732_298" fill="white">
<path d="M481.781 31.3589C424.406 31.3589 374.667 59.1228 350.173 99.6948C295.418 108.271 253.484 156.546 253.483 214.815C253.483 240.089 261.375 263.483 274.778 282.573C270.101 285.725 265.983 289.642 262.602 294.144C257.187 291.865 251.189 290.596 244.876 290.596C232.726 290.596 221.74 295.292 213.842 302.862C191.062 293.321 153.144 294.104 114.243 306.83C58.8172 324.961 22.387 360.473 32.874 386.147C41.0716 406.215 75.5074 414.333 116.624 408.262C109.613 421.211 105.678 435.759 105.678 451.135C105.678 505.226 154.361 549.075 214.414 549.075C237.431 549.075 258.778 542.633 276.354 531.642C283.527 568.765 321.664 597.098 367.636 597.098C391.743 597.098 413.696 589.306 430.159 576.542C447.814 614.08 500.707 641.332 563.214 641.333C636.111 641.333 695.931 604.267 702.033 557.048C708.037 560.541 714.566 563.358 721.45 565.432C713.908 584.563 709.871 604.754 709.871 625.623C709.871 704.041 766.869 772.887 852.705 811.917C890.517 848.737 945.048 871.852 1005.68 871.852C1050.1 871.852 1091.26 859.437 1124.96 838.314C1124.92 840.899 1124.91 843.491 1124.91 846.089C1124.91 857.753 1125.21 868.507 1125.8 878.42C1124.96 886.761 1124.53 895.238 1124.53 903.826C1124.53 1029.59 1217.08 1131.55 1331.24 1131.55C1445.41 1131.55 1537.96 1029.59 1537.96 903.826C1537.96 897.489 1537.72 891.214 1537.26 885.008C1537.74 873.318 1537.95 860.386 1537.95 846.089C1537.95 765.05 1520.59 690.659 1491.63 632.372C1513.76 624.243 1520.39 605.154 1520.39 562.941C1520.39 466.628 1433.2 388.551 1325.65 388.551C1306.41 388.551 1287.81 391.052 1270.26 395.708C1265.72 395.94 1261.22 396.319 1256.77 396.837C1218.73 352.005 1172.49 334.739 1124.95 329.638C1096.48 329.638 1078.28 335.463 1066.93 347.783C1047.58 342.723 1027 339.999 1005.68 339.999C1000.23 339.999 994.837 340.176 989.499 340.525C980.628 334.744 969.41 331.291 957.211 331.291C953.792 331.291 950.451 331.565 947.216 332.083C936.142 287.132 888.975 253.358 832.467 253.358C831.404 253.358 830.344 253.37 829.288 253.394C809.789 221.594 770.471 199.862 725.143 199.862C702.88 199.862 682.068 205.103 664.341 214.206C656.112 199.744 641.925 189.424 625.321 186.951C628.108 177.32 629.587 167.251 629.587 156.89C629.587 87.5611 563.412 31.3589 481.781 31.3589Z"/>
</mask>
<path d="M481.781 31.3589C424.406 31.3589 374.667 59.1228 350.173 99.6948C295.418 108.271 253.484 156.546 253.483 214.815C253.483 240.089 261.375 263.483 274.778 282.573C270.101 285.725 265.983 289.642 262.602 294.144C257.187 291.865 251.189 290.596 244.876 290.596C232.726 290.596 221.74 295.292 213.842 302.862C191.062 293.321 153.144 294.104 114.243 306.83C58.8172 324.961 22.387 360.473 32.874 386.147C41.0716 406.215 75.5074 414.333 116.624 408.262C109.613 421.211 105.678 435.759 105.678 451.135C105.678 505.226 154.361 549.075 214.414 549.075C237.431 549.075 258.778 542.633 276.354 531.642C283.527 568.765 321.664 597.098 367.636 597.098C391.743 597.098 413.696 589.306 430.159 576.542C447.814 614.08 500.707 641.332 563.214 641.333C636.111 641.333 695.931 604.267 702.033 557.048C708.037 560.541 714.566 563.358 721.45 565.432C713.908 584.563 709.871 604.754 709.871 625.623C709.871 704.041 766.869 772.887 852.705 811.917C890.517 848.737 945.048 871.852 1005.68 871.852C1050.1 871.852 1091.26 859.437 1124.96 838.314C1124.92 840.899 1124.91 843.491 1124.91 846.089C1124.91 857.753 1125.21 868.507 1125.8 878.42C1124.96 886.761 1124.53 895.238 1124.53 903.826C1124.53 1029.59 1217.08 1131.55 1331.24 1131.55C1445.41 1131.55 1537.96 1029.59 1537.96 903.826C1537.96 897.489 1537.72 891.214 1537.26 885.008C1537.74 873.318 1537.95 860.386 1537.95 846.089C1537.95 765.05 1520.59 690.659 1491.63 632.372C1513.76 624.243 1520.39 605.154 1520.39 562.941C1520.39 466.628 1433.2 388.551 1325.65 388.551C1306.41 388.551 1287.81 391.052 1270.26 395.708C1265.72 395.94 1261.22 396.319 1256.77 396.837C1218.73 352.005 1172.49 334.739 1124.95 329.638C1096.48 329.638 1078.28 335.463 1066.93 347.783C1047.58 342.723 1027 339.999 1005.68 339.999C1000.23 339.999 994.837 340.176 989.499 340.525C980.628 334.744 969.41 331.291 957.211 331.291C953.792 331.291 950.451 331.565 947.216 332.083C936.142 287.132 888.975 253.358 832.467 253.358C831.404 253.358 830.344 253.37 829.288 253.394C809.789 221.594 770.471 199.862 725.143 199.862C702.88 199.862 682.068 205.103 664.341 214.206C656.112 199.744 641.925 189.424 625.321 186.951C628.108 177.32 629.587 167.251 629.587 156.89C629.587 87.5611 563.412 31.3589 481.781 31.3589Z" fill="url(#paint0_linear_1732_298)"/>
<path d="M481.781 31.3589L481.781 29.3196L481.781 29.3196L481.781 31.3589ZM350.173 99.6948L351.919 100.749L351.427 101.562L350.488 101.71L350.173 99.6948ZM253.483 214.815L251.444 214.815L251.444 214.815L253.483 214.815ZM274.778 282.573L276.447 281.401L277.642 283.102L275.918 284.264L274.778 282.573ZM262.602 294.144L264.232 295.369L263.277 296.641L261.81 296.024L262.602 294.144ZM244.876 290.596L244.876 288.557L244.876 288.557L244.876 290.596ZM213.842 302.862L215.253 304.334L214.287 305.259L213.054 304.743L213.842 302.862ZM114.243 306.83L113.609 304.891L113.609 304.891L114.243 306.83ZM32.874 386.147L30.9862 386.918L30.9862 386.918L32.874 386.147ZM116.624 408.262L116.326 406.245L120.358 405.65L118.417 409.233L116.624 408.262ZM105.678 451.135L103.638 451.135V451.135H105.678ZM276.354 531.642L275.272 529.913L277.792 528.337L278.356 531.255L276.354 531.642ZM367.636 597.098L367.636 599.137L367.636 599.137L367.636 597.098ZM430.159 576.542L428.91 574.93L430.921 573.37L432.005 575.674L430.159 576.542ZM563.214 641.333L563.214 643.372L563.214 643.372L563.214 641.333ZM702.033 557.048L700.011 556.787L700.404 553.741L703.059 555.286L702.033 557.048ZM721.45 565.432L722.039 563.48L724.16 564.119L723.347 566.18L721.45 565.432ZM709.871 625.623L707.832 625.623L707.832 625.623L709.871 625.623ZM852.705 811.917L853.549 810.061L853.873 810.208L854.128 810.456L852.705 811.917ZM1005.68 871.852L1005.68 873.891L1005.68 873.891L1005.68 871.852ZM1124.96 838.314L1123.88 836.586L1127.05 834.597L1127 838.342L1124.96 838.314ZM1124.91 846.089L1122.87 846.089L1122.87 846.089L1124.91 846.089ZM1125.8 878.42L1127.84 878.299L1127.85 878.462L1127.83 878.625L1125.8 878.42ZM1124.53 903.826L1122.49 903.826L1122.49 903.826L1124.53 903.826ZM1331.24 1131.55L1331.24 1133.59H1331.24V1131.55ZM1537.96 903.826L1539.99 903.826V903.826H1537.96ZM1537.26 885.008L1535.23 885.159L1535.22 885.042L1535.22 884.925L1537.26 885.008ZM1537.95 846.089L1539.99 846.089V846.089H1537.95ZM1491.63 632.372L1489.81 633.279L1488.8 631.242L1490.93 630.457L1491.63 632.372ZM1520.39 562.941L1522.43 562.941V562.941H1520.39ZM1325.65 388.551L1325.65 386.512L1325.65 386.512L1325.65 388.551ZM1270.26 395.708L1270.78 397.68L1270.57 397.734L1270.36 397.745L1270.26 395.708ZM1256.77 396.837L1257.01 398.863L1255.93 398.989L1255.22 398.157L1256.77 396.837ZM1124.95 329.638L1124.95 327.599L1125.06 327.599L1125.16 327.611L1124.95 329.638ZM1066.93 347.783L1068.43 349.164L1067.6 350.066L1066.42 349.756L1066.93 347.783ZM1005.68 339.999L1005.68 337.959H1005.68V339.999ZM989.499 340.525L989.632 342.56L988.954 342.604L988.386 342.233L989.499 340.525ZM957.211 331.291L957.211 329.251L957.211 329.251L957.211 331.291ZM947.216 332.083L947.538 334.096L945.685 334.393L945.236 332.57L947.216 332.083ZM832.467 253.358L832.467 251.319H832.467V253.358ZM829.288 253.394L829.334 255.433L828.162 255.459L827.55 254.46L829.288 253.394ZM725.143 199.862L725.143 197.823H725.143V199.862ZM664.341 214.206L665.272 216.02L663.534 216.912L662.568 215.214L664.341 214.206ZM625.321 186.951L625.021 188.968L622.714 188.624L623.362 186.384L625.321 186.951ZM629.587 156.89L631.626 156.89V156.89H629.587ZM481.781 31.3589V33.3982C425.036 33.3982 376.001 60.8576 351.919 100.749L350.173 99.6948L348.427 98.6409C373.332 57.3881 423.777 29.3196 481.781 29.3196V31.3589ZM350.173 99.6948L350.488 101.71C296.741 110.128 255.523 157.535 255.523 214.815L253.483 214.815L251.444 214.815C251.444 155.556 294.095 106.414 349.857 97.6801L350.173 99.6948ZM253.483 214.815H255.523C255.523 239.659 263.279 262.645 276.447 281.401L274.778 282.573L273.109 283.745C259.471 264.321 251.444 240.52 251.444 214.815H253.483ZM274.778 282.573L275.918 284.264C271.43 287.289 267.477 291.048 264.232 295.369L262.602 294.144L260.971 292.919C264.489 288.237 268.773 284.162 273.639 280.882L274.778 282.573ZM262.602 294.144L261.81 296.024C256.643 293.848 250.914 292.636 244.876 292.635L244.876 290.596L244.876 288.557C251.463 288.557 257.73 289.881 263.393 292.265L262.602 294.144ZM244.876 290.596V292.635C233.257 292.635 222.775 297.125 215.253 304.334L213.842 302.862L212.431 301.39C220.705 293.459 232.196 288.557 244.876 288.557V290.596ZM213.842 302.862L213.054 304.743C190.906 295.467 153.539 296.12 114.877 308.768L114.243 306.83L113.609 304.891C152.748 292.088 191.219 291.176 214.63 300.981L213.842 302.862ZM114.243 306.83L114.877 308.768C87.3834 317.762 64.7149 331.034 50.2647 345.12C35.7004 359.317 30.0115 373.746 34.7619 385.376L32.874 386.147L30.9862 386.918C25.2495 372.874 32.5322 356.71 47.4178 342.199C62.4174 327.578 85.677 314.029 113.609 304.891L114.243 306.83ZM32.874 386.147L34.7619 385.376C38.5041 394.537 48.4037 401.32 62.9098 405.031C77.3513 408.725 95.9543 409.252 116.326 406.245L116.624 408.262L116.922 410.28C96.1771 413.342 77.004 412.846 61.899 408.982C46.8586 405.135 35.4414 397.825 30.9862 386.918L32.874 386.147ZM116.624 408.262L118.417 409.233C111.561 421.898 107.717 436.113 107.717 451.135H105.678H103.638C103.638 435.405 107.666 420.525 114.831 407.291L116.624 408.262ZM105.678 451.135L107.717 451.135C107.717 503.904 155.281 547.035 214.414 547.035V549.075V551.114C153.44 551.114 103.639 506.547 103.638 451.135L105.678 451.135ZM214.414 549.075V547.035C237.05 547.035 258.021 540.701 275.272 529.913L276.354 531.642L277.435 533.371C259.534 544.565 237.813 551.114 214.414 551.114V549.075ZM276.354 531.642L278.356 531.255C285.304 567.21 322.411 595.059 367.636 595.059L367.636 597.098L367.636 599.137C320.917 599.137 281.751 570.321 274.351 532.029L276.354 531.642ZM367.636 597.098V595.059C391.308 595.059 412.817 587.407 428.91 574.93L430.159 576.542L431.409 578.153C414.574 591.205 392.178 599.137 367.636 599.137V597.098ZM430.159 576.542L432.005 575.674C449.19 612.214 501.128 639.293 563.214 639.293L563.214 641.333L563.214 643.372C500.286 643.372 446.438 615.945 428.314 577.409L430.159 576.542ZM563.214 641.333V639.293C599.334 639.293 632.136 630.107 656.609 615.157C681.102 600.194 697.064 579.592 700.011 556.787L702.033 557.048L704.056 557.31C700.901 581.724 683.901 603.264 658.735 618.638C633.547 634.025 599.991 643.372 563.214 643.372V641.333ZM702.033 557.048L703.059 555.286C708.919 558.695 715.301 561.449 722.039 563.48L721.45 565.432L720.862 567.385C713.831 565.266 707.155 562.387 701.008 558.811L702.033 557.048ZM721.45 565.432L723.347 566.18C715.895 585.084 711.91 605.021 711.91 625.623L709.871 625.623L707.832 625.623C707.832 604.487 711.921 584.043 719.553 564.684L721.45 565.432ZM709.871 625.623H711.91C711.91 702.964 768.15 771.23 853.549 810.061L852.705 811.917L851.861 813.774C765.589 774.545 707.832 705.117 707.832 625.623H709.871ZM852.705 811.917L854.128 810.456C891.548 846.895 945.564 869.813 1005.68 869.813L1005.68 871.852L1005.68 873.891C944.533 873.891 889.486 850.58 851.282 813.379L852.705 811.917ZM1005.68 871.852V869.813C1049.72 869.813 1090.5 857.504 1123.88 836.586L1124.96 838.314L1126.04 840.042C1092.02 861.37 1050.49 873.891 1005.68 873.891V871.852ZM1124.96 838.314L1127 838.342C1126.96 840.918 1126.94 843.501 1126.94 846.089L1124.91 846.089L1122.87 846.089C1122.87 843.481 1122.89 840.879 1122.92 838.286L1124.96 838.314ZM1124.91 846.089H1126.94C1126.94 857.718 1127.25 868.431 1127.84 878.299L1125.8 878.42L1123.76 878.542C1123.17 868.583 1122.87 857.787 1122.87 846.089H1124.91ZM1125.8 878.42L1127.83 878.625C1127 886.898 1126.57 895.306 1126.57 903.826L1124.53 903.826L1122.49 903.826C1122.49 895.169 1122.92 886.624 1123.77 878.216L1125.8 878.42ZM1124.53 903.826H1126.57C1126.57 1028.66 1218.38 1129.51 1331.24 1129.51V1131.55V1133.59C1215.77 1133.59 1122.49 1030.53 1122.49 903.826H1124.53ZM1331.24 1131.55L1331.24 1129.51C1444.1 1129.51 1535.92 1028.66 1535.92 903.826H1537.96H1539.99C1539.99 1030.53 1446.71 1133.59 1331.24 1133.59L1331.24 1131.55ZM1537.96 903.826L1535.92 903.826C1535.92 897.54 1535.68 891.314 1535.23 885.159L1537.26 885.008L1539.29 884.857C1539.76 891.113 1539.99 897.439 1539.99 903.826L1537.96 903.826ZM1537.26 885.008L1535.22 884.925C1535.7 873.27 1535.91 860.367 1535.91 846.089H1537.95H1539.99C1539.99 860.406 1539.78 873.366 1539.3 885.092L1537.26 885.008ZM1537.95 846.089L1535.91 846.089C1535.91 765.327 1518.61 691.253 1489.81 633.279L1491.63 632.372L1493.46 631.464C1522.57 690.065 1539.99 764.772 1539.99 846.089L1537.95 846.089ZM1491.63 632.372L1490.93 630.457C1501.47 626.587 1508.22 620.195 1512.42 609.681C1516.69 599 1518.35 584.008 1518.35 562.941H1520.39H1522.43C1522.43 584.087 1520.78 599.746 1516.2 611.195C1511.56 622.811 1503.93 630.027 1492.34 634.286L1491.63 632.372ZM1520.39 562.941L1518.35 562.941C1518.35 467.96 1432.29 390.591 1325.65 390.591L1325.65 388.551L1325.65 386.512C1434.11 386.512 1522.43 465.296 1522.43 562.941L1520.39 562.941ZM1325.65 388.551V390.591C1306.58 390.591 1288.17 393.068 1270.78 397.68L1270.26 395.708L1269.73 393.737C1287.46 389.036 1306.23 386.512 1325.65 386.512V388.551ZM1270.26 395.708L1270.36 397.745C1265.87 397.975 1261.42 398.349 1257.01 398.863L1256.77 396.837L1256.54 394.812C1261.03 394.288 1265.57 393.906 1270.15 393.672L1270.26 395.708ZM1256.77 396.837L1255.22 398.157C1217.59 353.816 1171.89 336.726 1124.73 331.666L1124.95 329.638L1125.16 327.611C1173.09 332.753 1219.86 350.194 1258.33 395.518L1256.77 396.837ZM1124.95 329.638L1124.95 331.677C1096.69 331.678 1079.2 337.471 1068.43 349.164L1066.93 347.783L1065.43 346.401C1077.35 333.454 1096.27 327.599 1124.95 327.599L1124.95 329.638ZM1066.93 347.783L1066.42 349.756C1047.23 344.74 1026.83 342.038 1005.68 342.038V339.999V337.959C1027.18 337.959 1047.92 340.706 1067.45 345.81L1066.93 347.783ZM1005.68 339.999L1005.68 342.038C1000.28 342.038 994.926 342.214 989.632 342.56L989.499 340.525L989.366 338.49C994.748 338.138 1000.19 337.959 1005.68 337.959L1005.68 339.999ZM989.499 340.525L988.386 342.233C979.858 336.676 969.029 333.33 957.211 333.33L957.211 331.291L957.211 329.251C969.791 329.251 981.399 332.812 990.612 338.816L989.499 340.525ZM957.211 331.291V333.33C953.901 333.33 950.667 333.595 947.538 334.096L947.216 332.083L946.894 330.069C950.234 329.534 953.683 329.251 957.211 329.251V331.291ZM947.216 332.083L945.236 332.57C934.432 288.716 888.242 255.397 832.467 255.397V253.358V251.319C889.708 251.319 937.852 285.548 949.196 331.595L947.216 332.083ZM832.467 253.358L832.467 255.397C831.42 255.397 830.375 255.409 829.334 255.433L829.288 253.394L829.242 251.355C830.313 251.331 831.388 251.319 832.467 251.319L832.467 253.358ZM829.288 253.394L827.55 254.46C808.464 223.335 769.848 201.901 725.143 201.901V199.862V197.823C771.093 197.823 811.113 219.852 831.027 252.328L829.288 253.394ZM725.143 199.862L725.143 201.901C703.2 201.901 682.707 207.068 665.272 216.02L664.341 214.206L663.409 212.391C681.429 203.139 702.561 197.823 725.143 197.823L725.143 199.862ZM664.341 214.206L662.568 215.214C654.628 201.259 640.963 191.343 625.021 188.968L625.321 186.951L625.622 184.934C642.887 187.506 657.596 198.229 666.113 213.197L664.341 214.206ZM625.321 186.951L623.362 186.384C626.097 176.933 627.548 167.056 627.548 156.89H629.587H631.626C631.626 167.447 630.119 177.706 627.28 187.518L625.321 186.951ZM629.587 156.89L627.548 156.89C627.548 88.987 562.611 33.3982 481.781 33.3982L481.781 31.3589L481.781 29.3196C564.213 29.3196 631.626 86.1353 631.626 156.89L629.587 156.89Z" fill="#FF5959" mask="url(#path-1-inside-1_1732_298)"/>
</g>
<defs>
<filter id="filter0_f_1732_298" x="0.485529" y="0.769709" width="1568.06" height="1161.37" filterUnits="userSpaceOnUse" color-interpolation-filters="sRGB">
<feFlood flood-opacity="0" result="BackgroundImageFix"/>
<feBlend mode="normal" in="SourceGraphic" in2="BackgroundImageFix" result="shape"/>
<feGaussianBlur stdDeviation="15.2946" result="effect1_foregroundBlur_1732_298"/>
</filter>
<linearGradient id="paint0_linear_1732_298" x1="784.515" y1="31.3589" x2="784.515" y2="1131.55" gradientUnits="userSpaceOnUse">
<stop stop-color="#A7D7FD"/>
<stop offset="1" stop-color="#E1F2FF" stop-opacity="0.09"/>
</linearGradient>
</defs>
</svg>
