<svg width="1587" height="1341" viewBox="0 0 1587 1341" fill="none" xmlns="http://www.w3.org/2000/svg">
<ellipse cx="207.592" cy="579.324" rx="112.501" ry="109.558" fill="#EEFFFD"/>
<ellipse cx="366.117" cy="655.191" rx="95.6985" ry="87.4111" fill="#EEFFFD"/>
<ellipse cx="568.472" cy="688.884" rx="144.156" ry="103.197" fill="#EEFFFD"/>
<ellipse cx="91.4673" cy="83.4932" rx="91.4673" ry="83.4932" transform="matrix(0.944628 -0.328143 0.347881 0.937539 650.283 579.746)" fill="#EEFFFD"/>
<ellipse cx="110.136" cy="55.5902" rx="110.136" ry="55.5902" transform="matrix(0.942766 -0.333454 0.353426 0.935463 0.123535 454.627)" fill="#EEFFFD"/>
<ellipse cx="239.109" cy="445.686" rx="45.0489" ry="45.9438" fill="#EEFFFD"/>
<ellipse cx="299.154" cy="437.486" rx="52.1106" ry="56.3107" fill="#EEFFFD"/>
<ellipse cx="366.12" cy="314.974" rx="118.101" ry="130.292" fill="#EEFFFD"/>
<ellipse cx="409.428" cy="201.942" rx="219.486" ry="201.546" fill="#EEFFFD"/>
<ellipse cx="624.724" cy="346.781" rx="56.2503" ry="63.6146" fill="#EEFFFD"/>
<ellipse cx="736.004" cy="408.98" rx="121.267" ry="110.736" fill="#EEFFFD"/>
<ellipse cx="832.465" cy="529.838" rx="121.267" ry="110.736" fill="#EEFFFD"/>
<ellipse cx="986.172" cy="455.954" rx="53.8152" ry="47.8287" fill="#EEFFFD"/>
<ellipse cx="1027.32" cy="498.016" rx="42.8573" ry="35.577" fill="#EEFFFD"/>
<path d="M1271.28 716.687C1313.49 763.36 1219.5 801.742 1155.62 801.742C1091.73 801.742 1039.95 763.661 1039.95 716.687C1039.95 669.712 1053.99 648.831 1117.87 648.831C1174.37 653.308 1229.08 670.013 1271.28 716.687Z" fill="#EEFFFD"/>
<ellipse cx="483.974" cy="543.987" rx="306.576" ry="98.7204" fill="#EEFFFD"/>
<ellipse cx="506.13" cy="477.547" rx="219.644" ry="130.763" fill="#EEFFFD"/>
<ellipse cx="1043.54" cy="784.008" rx="271.995" ry="211.43" fill="#EEFFFD"/>
<path d="M1180.32 581.348C1180.32 643.966 1111.8 627.347 1031.78 627.347C951.762 627.347 890.547 643.966 890.547 581.348C890.547 518.73 955.415 467.968 1035.43 467.968C1115.45 467.968 1180.32 518.73 1180.32 581.348Z" fill="#EEFFFD"/>
<mask id="mask0_1732_208" style="mask-type:alpha" maskUnits="userSpaceOnUse" x="815" y="640" width="429" height="410">
<ellipse cx="1029.41" cy="845.173" rx="213.87" ry="204.778" fill="#EEFFFD"/>
</mask>
<g mask="url(#mask0_1732_208)">
<path d="M1246.28 650.711C1246.28 758.449 1208.4 731.544 1016.81 731.544C898.693 731.544 818.535 758.449 818.535 650.711C818.535 542.972 914.288 455.633 1032.41 455.633C1150.52 455.633 1246.28 542.972 1246.28 650.711Z" fill="#EEFFFD"/>
</g>
<mask id="mask1_1732_208" style="mask-type:alpha" maskUnits="userSpaceOnUse" x="1020" y="625" width="378" height="384">
<ellipse cx="1209.06" cy="816.69" rx="188.271" ry="191.351" fill="#EEFFFD"/>
</mask>
<g mask="url(#mask1_1732_208)">
<path d="M1390.91 800.349C1390.91 901.023 1357.57 875.882 1188.91 875.882C1084.93 875.882 1014.37 901.023 1014.37 800.349C1014.37 699.675 1098.66 618.062 1202.64 618.062C1306.62 618.062 1390.91 699.675 1390.91 800.349Z" fill="#EEFFFD"/>
</g>
<mask id="mask2_1732_208" style="mask-type:alpha" maskUnits="userSpaceOnUse" x="1158" y="830" width="429" height="511">
<ellipse cx="1372.59" cy="1085.72" rx="213.87" ry="254.74" fill="#EEFFFD"/>
</mask>
<g mask="url(#mask2_1732_208)">
<path d="M1589.45 1021.76C1589.45 1230.97 1551.61 1178.73 1360.2 1178.73C1242.19 1178.73 1162.1 1230.97 1162.1 1021.76C1162.1 812.556 1257.77 642.96 1375.78 642.96C1493.79 642.96 1589.45 812.556 1589.45 1021.76Z" fill="#EEFFFD"/>
</g>
</svg>
