<svg width="1454" height="1196" viewBox="0 0 1454 1196" fill="none" xmlns="http://www.w3.org/2000/svg">
<ellipse cx="89.3852" cy="87.0474" rx="89.3852" ry="87.0474" transform="matrix(-1 0 0 1 1266.66 286.353)" fill="#EBFFFD"/>
<ellipse cx="76.0355" cy="69.4507" rx="76.0355" ry="69.4507" transform="matrix(-1 0 0 1 1127.36 364.23)" fill="#EBFFFD"/>
<ellipse cx="128.475" cy="153.456" rx="128.475" ry="153.456" transform="matrix(-1 0 0 1 1008.43 378.659)" fill="#EBFFFD"/>
<ellipse cx="72.6736" cy="66.3379" rx="72.6736" ry="66.3379" transform="matrix(-0.944628 -0.328142 -0.347882 0.937538 828.598 373.735)" fill="#EBFFFD"/>
<ellipse cx="87.5064" cy="44.1681" rx="87.5064" ry="44.1681" transform="matrix(-0.942766 -0.333454 -0.353426 0.935462 1342.11 274.323)" fill="#EBFFFD"/>
<ellipse cx="35.7928" cy="36.5038" rx="35.7928" ry="36.5038" transform="matrix(-1 0 0 1 1188.02 230.717)" fill="#EBFFFD"/>
<ellipse cx="41.4035" cy="44.7405" rx="41.4035" ry="44.7405" transform="matrix(-1 0 0 1 1145.93 215.964)" fill="#EBFFFD"/>
<ellipse cx="93.8351" cy="103.521" rx="93.8351" ry="103.521" transform="matrix(-1 0 0 1 1145.15 59.8413)" fill="#EBFFFD"/>
<ellipse cx="121.502" cy="111.57" rx="121.502" ry="111.57" transform="matrix(-1 0 0 1 1078.99 0.310059)" fill="#EBFFFD"/>
<ellipse cx="44.6926" cy="50.5437" rx="44.6926" ry="50.5437" transform="matrix(-1 0 0 1 890.539 138.091)" fill="#EBFFFD"/>
<ellipse cx="96.3503" cy="87.9834" rx="96.3503" ry="87.9834" transform="matrix(-1 0 0 1 856.845 150.072)" fill="#EBFFFD"/>
<ellipse cx="96.3503" cy="87.9834" rx="96.3503" ry="87.9834" transform="matrix(-1 0 0 1 771.676 197.62)" fill="#EBFFFD"/>
<ellipse cx="42.7579" cy="38.0014" rx="42.7579" ry="38.0014" transform="matrix(-1 0 0 1 613.026 266.884)" fill="#EBFFFD"/>
<ellipse cx="34.0515" cy="28.267" rx="34.0515" ry="28.267" transform="matrix(-1 0 0 1 546.823 286.353)" fill="#EBFFFD"/>
<path d="M314.401 344.148C280.951 398.301 355.443 442.834 406.072 442.834C456.7 442.834 497.742 398.651 497.742 344.148C497.742 289.644 486.613 265.417 435.985 265.417C391.211 270.611 347.851 289.994 314.401 344.148Z" fill="#EBFFFD"/>
<ellipse cx="243.584" cy="78.4363" rx="243.584" ry="78.4363" transform="matrix(-1 0 0 1 1204.32 266.884)" fill="#EBFFFD"/>
<ellipse cx="174.514" cy="103.895" rx="174.514" ry="103.895" transform="matrix(-1 0 0 1 1114.59 188.636)" fill="#EBFFFD"/>
<ellipse cx="251.851" cy="195.771" rx="251.851" ry="195.771" transform="matrix(-1 0 0 1 782.224 332.713)" fill="#EBFFFD"/>
<path d="M458.21 358.799C458.21 376.892 512.652 372.09 576.229 372.09C639.807 372.09 688.444 376.892 688.444 358.799C688.444 340.707 636.905 326.04 573.327 326.04C509.749 326.04 458.21 340.707 458.21 358.799Z" fill="#EBFFFD"/>
<mask id="mask0_3146_3413" style="mask-type:alpha" maskUnits="userSpaceOnUse" x="363" y="421" width="341" height="327">
<ellipse cx="169.927" cy="162.702" rx="169.927" ry="162.702" transform="matrix(-1 0 0 1 703.415 421.924)" fill="#EBFFFD"/>
</mask>
<g mask="url(#mask0_3146_3413)">
<path d="M363.561 429.622C363.561 515.223 393.653 493.846 545.879 493.846C639.727 493.846 703.415 515.223 703.415 429.622C703.415 344.02 627.336 274.626 533.488 274.626C439.64 274.626 363.561 344.02 363.561 429.622Z" fill="#EBFFFD"/>
</g>
<mask id="mask1_3146_3413" style="mask-type:alpha" maskUnits="userSpaceOnUse" x="201" y="381" width="321" height="327">
<ellipse cx="160.084" cy="162.702" rx="160.084" ry="162.702" transform="matrix(-1 0 0 1 521.195 381.656)" fill="#EBFFFD"/>
</mask>
<g mask="url(#mask1_3146_3413)">
<path d="M164.32 530.533C164.32 616.135 192.669 594.758 336.077 594.758C424.489 594.758 484.488 616.135 484.488 530.533C484.488 444.932 412.816 375.538 324.404 375.538C235.992 375.538 164.32 444.932 164.32 530.533Z" fill="#EBFFFD"/>
</g>
<mask id="mask2_3146_3413" style="mask-type:alpha" maskUnits="userSpaceOnUse" x="97" y="573" width="340" height="406">
<ellipse cx="169.927" cy="202.398" rx="169.927" ry="202.398" transform="matrix(-1 0 0 1 436.879 573.347)" fill="#EBFFFD"/>
</mask>
<g mask="url(#mask2_3146_3413)">
<path d="M97.0264 724.432C97.0264 890.653 127.09 849.143 279.175 849.143C372.937 849.143 436.566 890.653 436.566 724.432C436.566 558.21 360.558 423.461 266.796 423.461C173.035 423.461 97.0264 558.21 97.0264 724.432Z" fill="#EBFFFD"/>
</g>
<mask id="mask3_3146_3413" style="mask-type:alpha" maskUnits="userSpaceOnUse" x="0" y="649" width="340" height="406">
<ellipse cx="169.927" cy="202.398" rx="169.927" ry="202.398" transform="matrix(-1 0 0 1 339.865 649.882)" fill="#EBFFFD"/>
</mask>
<g mask="url(#mask3_3146_3413)">
<path d="M0.0126877 800.966C0.0126877 967.187 30.0761 925.677 182.162 925.677C275.923 925.677 339.553 967.187 339.553 800.966C339.553 634.744 263.544 499.995 169.783 499.995C76.0213 499.995 0.0126877 634.744 0.0126877 800.966Z" fill="#EBFFFD"/>
</g>
<g filter="url(#filter0_f_3146_3413)">
<mask id="path-28-inside-1_3146_3413" fill="white">
<path d="M1044.58 96.2183C1092.27 96.2184 1133.61 123.108 1153.97 162.401C1199.48 170.706 1234.34 217.46 1234.34 273.894C1234.34 298.371 1227.78 321.026 1216.64 339.514C1220.53 342.567 1223.95 346.361 1226.76 350.721C1231.26 348.515 1236.25 347.287 1241.49 347.287C1251.59 347.287 1260.72 351.834 1267.29 359.167C1286.22 349.925 1317.74 350.683 1350.07 363.008C1396.14 380.569 1426.42 414.961 1417.71 439.827C1410.89 459.263 1382.27 467.125 1348.09 461.245C1353.92 473.786 1357.19 487.875 1357.19 502.767C1357.19 555.153 1316.72 597.621 1266.81 597.621C1247.68 597.621 1229.94 591.383 1215.33 580.741C1209.37 616.692 1177.67 644.129 1139.46 644.129C1119.42 644.129 1101.17 636.582 1087.49 624.217C1072.81 660.575 1028.85 686.971 976.892 686.971C917.109 686.971 867.907 652.024 861.733 607.167C859.186 608.718 856.538 610.106 853.807 611.324C860.55 630.484 864.171 650.767 864.171 671.757C864.171 749.379 814.681 817.317 740.693 854.639C709.368 888.865 664.982 910.226 615.759 910.226C579.285 910.226 545.467 898.497 517.65 878.498C517.674 880.752 517.689 883.012 517.689 885.277C517.689 896.572 517.439 906.988 516.946 916.588C517.645 924.666 518.006 932.876 518.006 941.193C518.006 1063 441.08 1161.74 346.188 1161.74C274.037 1161.74 212.275 1104.66 186.814 1023.75C156.567 1002.17 133.315 969.808 121.598 931.643C88.1405 927.979 79.1338 912.323 79.1338 860.036C79.1338 779.231 133.517 711.681 206.177 695.059C237.301 611.682 288.342 557.316 346.029 557.316C360.373 557.316 374.305 560.678 387.622 567.01C392.654 559.545 398.208 552.359 404.241 545.488C384.167 526.094 374.605 499.746 391.145 470.89C424.967 411.88 468.81 390.76 514.082 385.1C538.161 385.1 553.402 390.941 562.794 403.309C579.477 398.001 597.277 395.132 615.759 395.132C619.332 395.132 622.879 395.241 626.397 395.453C633.731 389.967 642.959 386.698 652.985 386.698C655.497 386.698 657.958 386.905 660.353 387.298C668.611 344.029 708.36 311.221 756.152 311.221C757.036 311.221 757.918 311.233 758.796 311.255C775.004 280.458 807.684 259.412 845.359 259.412C862.881 259.412 879.322 263.964 893.528 271.932C900.456 258.646 911.923 249.223 925.271 246.908C922.954 237.58 921.726 227.829 921.726 217.794C921.726 150.65 976.729 96.2183 1044.58 96.2183Z"/>
</mask>
<path d="M1044.58 96.2183C1092.27 96.2184 1133.61 123.108 1153.97 162.401C1199.48 170.706 1234.34 217.46 1234.34 273.894C1234.34 298.371 1227.78 321.026 1216.64 339.514C1220.53 342.567 1223.95 346.361 1226.76 350.721C1231.26 348.515 1236.25 347.287 1241.49 347.287C1251.59 347.287 1260.72 351.834 1267.29 359.167C1286.22 349.925 1317.74 350.683 1350.07 363.008C1396.14 380.569 1426.42 414.961 1417.71 439.827C1410.89 459.263 1382.27 467.125 1348.09 461.245C1353.92 473.786 1357.19 487.875 1357.19 502.767C1357.19 555.153 1316.72 597.621 1266.81 597.621C1247.68 597.621 1229.94 591.383 1215.33 580.741C1209.37 616.692 1177.67 644.129 1139.46 644.129C1119.42 644.129 1101.17 636.582 1087.49 624.217C1072.81 660.575 1028.85 686.971 976.892 686.971C917.109 686.971 867.907 652.024 861.733 607.167C859.186 608.718 856.538 610.106 853.807 611.324C860.55 630.484 864.171 650.767 864.171 671.757C864.171 749.379 814.681 817.317 740.693 854.639C709.368 888.865 664.982 910.226 615.759 910.226C579.285 910.226 545.467 898.497 517.65 878.498C517.674 880.752 517.689 883.012 517.689 885.277C517.689 896.572 517.439 906.988 516.946 916.588C517.645 924.666 518.006 932.876 518.006 941.193C518.006 1063 441.08 1161.74 346.188 1161.74C274.037 1161.74 212.275 1104.66 186.814 1023.75C156.567 1002.17 133.315 969.808 121.598 931.643C88.1405 927.979 79.1338 912.323 79.1338 860.036C79.1338 779.231 133.517 711.681 206.177 695.059C237.301 611.682 288.342 557.316 346.029 557.316C360.373 557.316 374.305 560.678 387.622 567.01C392.654 559.545 398.208 552.359 404.241 545.488C384.167 526.094 374.605 499.746 391.145 470.89C424.967 411.88 468.81 390.76 514.082 385.1C538.161 385.1 553.402 390.941 562.794 403.309C579.477 398.001 597.277 395.132 615.759 395.132C619.332 395.132 622.879 395.241 626.397 395.453C633.731 389.967 642.959 386.698 652.985 386.698C655.497 386.698 657.958 386.905 660.353 387.298C668.611 344.029 708.36 311.221 756.152 311.221C757.036 311.221 757.918 311.233 758.796 311.255C775.004 280.458 807.684 259.412 845.359 259.412C862.881 259.412 879.322 263.964 893.528 271.932C900.456 258.646 911.923 249.223 925.271 246.908C922.954 237.58 921.726 227.829 921.726 217.794C921.726 150.65 976.729 96.2183 1044.58 96.2183Z" fill="url(#paint0_linear_3146_3413)"/>
<path d="M1044.58 96.2183L1044.58 94.179H1044.58V96.2183ZM1153.97 162.401L1152.16 163.339L1152.62 164.227L1153.6 164.407L1153.97 162.401ZM1234.34 273.894L1236.38 273.894V273.894H1234.34ZM1216.64 339.514L1214.89 338.462L1213.96 340.005L1215.38 341.118L1216.64 339.514ZM1226.76 350.721L1225.05 351.826L1226.03 353.351L1227.66 352.552L1226.76 350.721ZM1241.49 347.287L1241.49 345.247H1241.49V347.287ZM1267.29 359.167L1265.77 360.527L1266.8 361.675L1268.18 360.999L1267.29 359.167ZM1350.07 363.008L1350.8 361.103L1350.8 361.103L1350.07 363.008ZM1417.71 439.827L1419.63 440.501L1419.63 440.501L1417.71 439.827ZM1348.09 461.245L1348.44 459.235L1344.6 458.575L1346.24 462.104L1348.09 461.245ZM1357.19 502.767L1359.23 502.767V502.767H1357.19ZM1266.81 597.621L1266.81 599.66H1266.81V597.621ZM1215.33 580.741L1216.53 579.092L1213.86 577.146L1213.32 580.407L1215.33 580.741ZM1139.46 644.129L1139.46 646.169L1139.46 646.169L1139.46 644.129ZM1087.49 624.217L1088.85 622.704L1086.69 620.747L1085.59 623.454L1087.49 624.217ZM976.892 686.971L976.892 689.01L976.892 689.01L976.892 686.971ZM861.733 607.167L863.754 606.888L863.329 603.806L860.672 605.425L861.733 607.167ZM853.807 611.324L852.976 609.461L851.259 610.227L851.883 612.001L853.807 611.324ZM864.171 671.757L866.21 671.757V671.757H864.171ZM740.693 854.639L739.775 852.818L739.441 852.987L739.189 853.262L740.693 854.639ZM615.759 910.226L615.759 912.265H615.759L615.759 910.226ZM517.65 878.498L518.841 876.842L515.568 874.489L515.611 878.519L517.65 878.498ZM517.689 885.277L519.729 885.277V885.277H517.689ZM516.946 916.588L514.91 916.484L514.902 916.624L514.915 916.764L516.946 916.588ZM518.006 941.193L520.045 941.193V941.193H518.006ZM346.188 1161.74L346.188 1163.78L346.188 1163.78L346.188 1161.74ZM186.814 1023.75L188.76 1023.14L188.555 1022.49L187.999 1022.09L186.814 1023.75ZM121.598 931.643L123.547 931.045L123.153 929.762L121.82 929.616L121.598 931.643ZM79.1338 860.036L77.0945 860.036V860.036H79.1338ZM206.177 695.059L206.632 697.047L207.703 696.802L208.087 695.772L206.177 695.059ZM346.029 557.316L346.029 555.277L346.029 555.277L346.029 557.316ZM387.622 567.01L386.746 568.852L388.332 569.606L389.313 568.15L387.622 567.01ZM404.241 545.488L405.774 546.833L407.057 545.372L405.658 544.021L404.241 545.488ZM391.145 470.89L389.375 469.876L389.375 469.876L391.145 470.89ZM514.082 385.1L514.082 383.061L513.955 383.061L513.829 383.077L514.082 385.1ZM562.794 403.309L561.17 404.542L562.04 405.689L563.412 405.252L562.794 403.309ZM615.759 395.132L615.759 393.093L615.759 393.093L615.759 395.132ZM626.397 395.453L626.275 397.488L627.021 397.533L627.619 397.086L626.397 395.453ZM652.985 386.698L652.985 384.658H652.985V386.698ZM660.353 387.298L660.022 389.311L661.983 389.633L662.356 387.681L660.353 387.298ZM756.152 311.221L756.152 309.182L756.152 309.182L756.152 311.221ZM758.796 311.255L758.744 313.294L760.011 313.326L760.601 312.205L758.796 311.255ZM845.359 259.412L845.359 257.372H845.359V259.412ZM893.528 271.932L892.531 273.711L894.365 274.739L895.337 272.875L893.528 271.932ZM925.271 246.908L925.619 248.917L927.778 248.542L927.25 246.416L925.271 246.908ZM921.726 217.794L919.686 217.794L919.686 217.794L921.726 217.794ZM1044.58 96.2183L1044.58 98.2575C1091.49 98.2577 1132.14 124.703 1152.16 163.339L1153.97 162.401L1155.78 161.463C1135.08 121.512 1093.05 94.1791 1044.58 94.179L1044.58 96.2183ZM1153.97 162.401L1153.6 164.407C1197.93 172.495 1232.3 218.203 1232.3 273.894H1234.34H1236.38C1236.38 216.717 1201.04 168.917 1154.34 160.395L1153.97 162.401ZM1234.34 273.894L1232.3 273.894C1232.3 298.009 1225.84 320.299 1214.89 338.462L1216.64 339.514L1218.39 340.567C1229.72 321.754 1236.38 298.734 1236.38 273.894L1234.34 273.894ZM1216.64 339.514L1215.38 341.118C1219.08 344.024 1222.35 347.646 1225.05 351.826L1226.76 350.721L1228.47 349.616C1225.55 345.076 1221.97 341.111 1217.9 337.91L1216.64 339.514ZM1226.76 350.721L1227.66 352.552C1231.89 350.477 1236.57 349.326 1241.49 349.326V347.287V345.247C1235.92 345.247 1230.63 346.552 1225.86 348.89L1226.76 350.721ZM1241.49 347.287L1241.49 349.326C1250.95 349.326 1259.55 353.583 1265.77 360.527L1267.29 359.167L1268.81 357.806C1261.89 350.086 1252.23 345.247 1241.49 345.247L1241.49 347.287ZM1267.29 359.167L1268.18 360.999C1286.4 352.105 1317.28 352.691 1349.35 364.914L1350.07 363.008L1350.8 361.103C1318.2 348.675 1286.04 347.746 1266.39 357.334L1267.29 359.167ZM1350.07 363.008L1349.35 364.914C1372.13 373.598 1390.92 386.416 1402.9 400.026C1414.95 413.713 1419.78 427.756 1415.78 439.152L1417.71 439.827L1419.63 440.501C1424.35 427.031 1418.39 411.446 1405.97 397.331C1393.47 383.138 1374.09 369.979 1350.8 361.103L1350.07 363.008ZM1417.71 439.827L1415.78 439.152C1412.67 448.038 1404.49 454.525 1392.58 458.075C1380.68 461.622 1365.31 462.138 1348.44 459.235L1348.09 461.245L1347.74 463.254C1365.05 466.232 1381.08 465.757 1393.74 461.984C1406.39 458.214 1415.93 451.052 1419.63 440.501L1417.71 439.827ZM1348.09 461.245L1346.24 462.104C1351.94 474.379 1355.15 488.176 1355.15 502.767H1357.19H1359.23C1359.23 487.575 1355.89 473.192 1349.94 460.385L1348.09 461.245ZM1357.19 502.767L1355.15 502.767C1355.15 554.121 1315.51 595.581 1266.81 595.581V597.621V599.66C1317.94 599.66 1359.23 556.186 1359.23 502.767L1357.19 502.767ZM1266.81 597.621L1266.81 595.581C1248.13 595.581 1230.81 589.494 1216.53 579.092L1215.33 580.741L1214.13 582.389C1229.07 593.273 1247.23 599.66 1266.81 599.66L1266.81 597.621ZM1215.33 580.741L1213.32 580.407C1207.52 615.367 1176.68 642.09 1139.46 642.09L1139.46 644.129L1139.46 646.169C1178.66 646.169 1211.21 618.017 1217.34 581.074L1215.33 580.741ZM1139.46 644.129V642.09C1119.94 642.09 1102.17 634.74 1088.85 622.704L1087.49 624.217L1086.12 625.73C1100.17 638.423 1118.9 646.169 1139.46 646.169V644.129ZM1087.49 624.217L1085.59 623.454C1071.31 658.837 1028.26 684.932 976.892 684.932L976.892 686.971L976.892 689.01C1029.44 689.01 1074.31 662.312 1089.38 624.98L1087.49 624.217ZM976.892 686.971V684.932C917.716 684.932 869.738 650.377 863.754 606.888L861.733 607.167L859.713 607.445C866.075 653.672 916.501 689.01 976.892 689.01V686.971ZM861.733 607.167L860.672 605.425C858.2 606.931 855.629 608.279 852.976 609.461L853.807 611.324L854.637 613.186C857.447 611.934 860.172 610.506 862.794 608.908L861.733 607.167ZM853.807 611.324L851.883 612.001C858.552 630.95 862.132 651.004 862.132 671.757H864.171H866.21C866.21 650.53 862.548 630.019 855.73 610.647L853.807 611.324ZM864.171 671.757L862.132 671.757C862.131 748.451 813.23 815.765 739.775 852.818L740.693 854.639L741.612 856.46C816.133 818.869 866.21 750.308 866.21 671.757L864.171 671.757ZM740.693 854.639L739.189 853.262C708.226 887.092 664.376 908.187 615.759 908.187L615.759 910.226L615.759 912.265C665.589 912.265 710.51 890.637 742.198 856.016L740.693 854.639ZM615.759 910.226V908.187C579.731 908.187 546.326 896.603 518.841 876.842L517.65 878.498L516.46 880.153C544.608 900.391 578.839 912.265 615.759 912.265V910.226ZM517.65 878.498L515.611 878.519C515.635 880.768 515.65 883.021 515.65 885.277H517.689H519.729C519.729 883.003 519.714 880.735 519.69 878.476L517.65 878.498ZM517.689 885.277L515.65 885.277C515.65 896.543 515.4 906.923 514.91 916.484L516.946 916.588L518.983 916.693C519.477 907.053 519.729 896.602 519.729 885.277L517.689 885.277ZM516.946 916.588L514.915 916.764C515.608 924.784 515.967 932.935 515.967 941.193H518.006H520.045C520.045 932.817 519.682 924.549 518.978 916.413L516.946 916.588ZM518.006 941.193L515.967 941.193C515.967 1062.38 439.509 1159.7 346.187 1159.7L346.188 1161.74L346.188 1163.78C442.651 1163.78 520.045 1063.62 520.045 941.193L518.006 941.193ZM346.188 1161.74V1159.7C275.211 1159.7 214.049 1103.5 188.76 1023.14L186.814 1023.75L184.869 1024.36C210.5 1105.81 272.862 1163.78 346.188 1163.78V1161.74ZM186.814 1023.75L187.999 1022.09C158.131 1000.78 135.138 968.799 123.547 931.045L121.598 931.643L119.648 932.242C131.491 970.817 155.003 1003.56 185.63 1025.41L186.814 1023.75ZM121.598 931.643L121.82 929.616C105.376 927.815 95.5366 923.143 89.5758 913.037C83.4556 902.661 81.1731 886.201 81.1731 860.036H79.1338H77.0945C77.0945 886.158 79.3153 903.669 86.0628 915.109C92.9696 926.819 104.362 931.807 121.376 933.67L121.598 931.643ZM79.1338 860.036L81.1731 860.036C81.1731 780.146 134.934 713.448 206.632 697.047L206.177 695.059L205.722 693.071C132.1 709.913 77.0945 778.316 77.0945 860.036L79.1338 860.036ZM206.177 695.059L208.087 695.772C223.58 654.27 243.987 620.11 267.588 596.359C291.181 572.615 317.871 559.355 346.029 559.355L346.029 557.316L346.029 555.277C316.5 555.277 288.826 569.2 264.695 593.484C240.573 617.759 219.898 652.471 204.266 694.346L206.177 695.059ZM346.029 557.316V559.355C360.045 559.355 373.679 562.639 386.746 568.852L387.622 567.01L388.498 565.169C374.93 558.717 360.7 555.277 346.029 555.277V557.316ZM387.622 567.01L389.313 568.15C394.296 560.759 399.796 553.642 405.774 546.833L404.241 545.488L402.709 544.142C396.62 551.077 391.013 558.332 385.931 565.87L387.622 567.01ZM404.241 545.488L405.658 544.021C395.825 534.521 388.675 523.422 385.952 511.291C383.239 499.204 384.88 485.921 392.914 471.904L391.145 470.89L389.375 469.876C380.87 484.715 379.021 499.035 381.973 512.184C384.915 525.289 392.583 537.06 402.824 546.954L404.241 545.488ZM391.145 470.89L392.914 471.904C426.392 413.495 469.646 392.711 514.335 387.124L514.082 385.1L513.829 383.077C467.974 388.809 423.542 410.265 389.375 469.876L391.145 470.89ZM514.082 385.1L514.082 387.139C537.86 387.139 552.33 392.901 561.17 404.542L562.794 403.309L564.418 402.076C554.475 388.981 538.461 383.061 514.082 383.061L514.082 385.1ZM562.794 403.309L563.412 405.252C579.897 400.007 597.489 397.172 615.759 397.172L615.759 395.132L615.759 393.093C597.065 393.093 579.056 395.994 562.176 401.366L562.794 403.309ZM615.759 395.132V397.172C619.29 397.172 622.797 397.279 626.275 397.488L626.397 395.453L626.52 393.417C622.961 393.203 619.373 393.093 615.759 393.093V395.132ZM626.397 395.453L627.619 397.086C634.606 391.859 643.408 388.737 652.985 388.737V386.698V384.658C642.511 384.658 632.856 388.075 625.176 393.82L626.397 395.453ZM652.985 386.698L652.985 388.737C655.385 388.737 657.735 388.935 660.022 389.311L660.353 387.298L660.683 385.286C658.181 384.875 655.609 384.659 652.985 384.658L652.985 386.698ZM660.353 387.298L662.356 387.681C670.421 345.422 709.288 313.261 756.152 313.26L756.152 311.221L756.152 309.182C707.433 309.182 666.801 342.636 658.349 386.916L660.353 387.298ZM756.152 311.221V313.26C757.018 313.26 757.882 313.272 758.744 313.294L758.796 311.255L758.848 309.217C757.953 309.194 757.054 309.182 756.152 309.182V311.221ZM758.796 311.255L760.601 312.205C776.464 282.062 808.458 261.451 845.359 261.451V259.412V257.372C806.909 257.372 773.544 278.854 756.991 310.306L758.796 311.255ZM845.359 259.412L845.359 261.451C862.524 261.451 878.622 265.91 892.531 273.711L893.528 271.932L894.526 270.154C880.022 262.019 863.238 257.372 845.359 257.372L845.359 259.412ZM893.528 271.932L895.337 272.875C902.031 260.035 913.018 251.103 925.619 248.917L925.271 246.908L924.922 244.898C910.828 247.344 898.88 257.258 891.72 270.989L893.528 271.932ZM925.271 246.908L927.25 246.416C924.973 237.248 923.765 227.662 923.765 217.794L921.726 217.794L919.686 217.794C919.686 227.996 920.935 237.912 923.291 247.399L925.271 246.908ZM921.726 217.794H923.765C923.765 151.796 977.836 98.2575 1044.58 98.2575V96.2183V94.179C975.623 94.179 919.686 149.504 919.686 217.794H921.726Z" fill="#FF5959" mask="url(#path-28-inside-1_3146_3413)"/>
</g>
<defs>
<filter id="filter0_f_3146_3413" x="44.9759" y="62.0603" width="1408.38" height="1133.84" filterUnits="userSpaceOnUse" color-interpolation-filters="sRGB">
<feFlood flood-opacity="0" result="BackgroundImageFix"/>
<feBlend mode="normal" in="SourceGraphic" in2="BackgroundImageFix" result="shape"/>
<feGaussianBlur stdDeviation="17.079" result="effect1_foregroundBlur_3146_3413"/>
</filter>
<linearGradient id="paint0_linear_3146_3413" x1="797.652" y1="96.2183" x2="797.652" y2="1161.74" gradientUnits="userSpaceOnUse">
<stop stop-color="#A7D7FD"/>
<stop offset="1" stop-color="#E1F2FF" stop-opacity="0.09"/>
</linearGradient>
</defs>
</svg>
