<svg width="349" height="230" viewBox="0 0 349 230" fill="none" xmlns="http://www.w3.org/2000/svg">
<path d="M344.63 150.722L337.391 120.861L310.244 68.8301L272.825 30.1464L222.218 8.20307L176.986 3L126.828 8.20307L74.4307 32.8611L41.2905 64.7582L14.196 108.645L5.91097 159.318L3 207.277V229.586H345.987V204.336L344.63 150.722Z" fill="url(#paint0_linear_2135_3558)"/>
<path d="M117.424 177.868L77.3417 171.082L52.4865 198.454L18.0027 192.573L3 207.277L5.91097 159.318L14.196 108.645L41.2905 64.7582L74.4307 32.8611L126.828 8.20307L176.986 3L222.218 8.20307L272.825 30.1464L310.244 68.8301L337.391 120.861L344.63 150.722L345.987 204.336L326.08 192.573L298.029 209.313L262.512 195.966L228.353 215.647L194.228 201.395L164.223 221.076L126.828 212.028L117.424 177.868Z" fill="url(#paint1_linear_2135_3558)"/>
<path d="M117.424 177.868L150.564 154.794M117.424 177.868L77.3417 171.082M117.424 177.868L126.828 212.028M150.564 154.794L146.533 122.671M150.564 154.794L189.302 169.498M146.533 122.671L102.869 112.491M146.533 122.671L179.941 101.406M102.869 112.491L68.3849 137.375M102.869 112.491L97.0467 86.4753M68.3849 137.375L77.3417 171.082M68.3849 137.375L33.2293 132.624M77.3417 171.082L52.4865 198.454M97.0467 86.4753L60.7716 83.9869M97.0467 86.4753L132.426 64.7582M60.7716 83.9869L55.8453 63.4008M60.7716 83.9869L28.9748 107.514M55.8453 63.4008L80.7005 42.3623M55.8453 63.4008L41.2905 64.7582M80.7005 42.3623L120.335 40.5526M80.7005 42.3623L74.4307 32.8611M120.335 40.5526L132.426 64.7582M120.335 40.5526L147.653 24.2647M132.426 64.7582L173.834 73.807M33.2293 132.624L28.9748 107.514M33.2293 132.624L5.91097 159.318M28.9748 107.514L14.196 108.645M5.91097 159.318L18.0027 192.573M5.91097 159.318L3 207.277L18.0027 192.573M5.91097 159.318L14.196 108.645M18.0027 192.573L52.4865 198.454M52.4865 198.454L59.8759 221.076M41.2905 64.7582L14.196 108.645M41.2905 64.7582L74.4307 32.8611M126.828 212.028L117.424 221.076M126.828 212.028L164.223 221.076L194.228 201.395M194.228 201.395L189.302 169.498M194.228 201.395L228.353 215.647M189.302 169.498L219.982 149.138M147.653 24.2647L140.263 10.4653M147.653 24.2647L191.093 32.8611M140.263 10.4653L126.828 8.20307M140.263 10.4653L176.986 3M126.828 8.20307L74.4307 32.8611M126.828 8.20307L176.986 3M173.834 73.807L201.842 54.352M173.834 73.807L179.941 101.406M201.842 54.352L191.093 32.8611M201.842 54.352L240.804 64.7582M191.093 32.8611L222.218 24.2647M222.218 24.2647L214.605 10.4653M222.218 24.2647L263.868 36.4806M214.605 10.4653L176.986 3M214.605 10.4653L222.218 8.20307M176.986 3L222.218 8.20307M179.941 101.406L215.458 113.848M215.458 113.848L247.581 95.2979M215.458 113.848L219.982 149.138M247.581 95.2979L240.804 64.7582M247.581 95.2979L282.677 110.681M240.804 64.7582L272.825 56.1618M272.825 56.1618L263.868 36.4806M272.825 56.1618L302.1 72.6759M263.868 36.4806L272.825 30.1464M302.1 72.6759L307.982 100.727M302.1 72.6759L310.244 68.8301M307.982 100.727L282.677 110.681M307.982 100.727L337.391 120.861M282.677 110.681L289.658 143.03M222.218 8.20307L272.825 30.1464M272.825 30.1464L310.244 68.8301M219.982 149.138L257.535 162.712M257.535 162.712L289.658 143.03M257.535 162.712L262.512 195.966M289.658 143.03L321.782 159.544M321.782 159.544L344.63 150.722M321.782 159.544L326.08 192.573M344.63 150.722L337.391 120.861M344.63 150.722L345.987 204.336L326.08 192.573M337.391 120.861L310.244 68.8301M326.08 192.573L298.028 209.313M298.028 209.313L262.512 195.966M298.028 209.313L299.838 221.303M262.512 195.966L228.353 215.647M228.353 215.647L229.484 222.66" stroke="url(#paint2_linear_2135_3558)" stroke-width="4.6"/>
<defs>
<linearGradient id="paint0_linear_2135_3558" x1="177.34" y1="-45.838" x2="174.494" y2="229.586" gradientUnits="userSpaceOnUse">
<stop offset="0.0843209" stop-color="#B2F2FF"/>
<stop offset="0.984036" stop-color="#E4CD93" stop-opacity="0"/>
</linearGradient>
<linearGradient id="paint1_linear_2135_3558" x1="177.34" y1="-44.3453" x2="174.665" y2="222.662" gradientUnits="userSpaceOnUse">
<stop offset="0.0843209" stop-color="#B2F2FF"/>
<stop offset="0.984036" stop-color="#E4CD93" stop-opacity="0"/>
</linearGradient>
<linearGradient id="paint2_linear_2135_3558" x1="57.5" y1="38.043" x2="317" y2="244.043" gradientUnits="userSpaceOnUse">
<stop stop-color="#FFF5DC"/>
<stop offset="0.509113" stop-color="#DCEBF5"/>
</linearGradient>
</defs>
</svg>
