<svg width="1476" height="433" viewBox="0 0 1476 433" fill="none" xmlns="http://www.w3.org/2000/svg">
  <g filter="url(#filter0_i_1732_137)">
    <path d="M1476 278.957C1476 363.055 517.542 433 128.177 433C-261.188 433 -345.421 227.899 -345.421 143.801C-345.421 59.702 -702.004 -53.0296 359.587 27.8559C933.651 54.6211 1476 194.858 1476 278.957Z" fill="url(#paint0_linear_1732_137)"/>
  </g>
  <path d="M857 76L971.5 95C971.5 95 911.5 114.5 853 164C830.093 183.383 757.5 277.5 757.5 277.5L561 264C561 264 689.747 161.305 736.724 132.906C789.5 101 857 76 857 76Z" fill="url(#paint1_linear_1732_137)"/>
  <defs>
    <filter id="filter0_i_1732_137" x="-403" y="0" width="1879" height="469.3" filterUnits="userSpaceOnUse" color-interpolation-filters="sRGB">
      <feFlood flood-opacity="0" result="BackgroundImageFix"/>
      <feBlend mode="normal" in="SourceGraphic" in2="BackgroundImageFix" result="shape"/>
      <feColorMatrix in="SourceAlpha" type="matrix" values="0 0 0 0 0 0 0 0 0 0 0 0 0 0 0 0 0 0 127 0" result="hardAlpha"/>
      <feOffset dy="67"/>
      <feGaussianBlur stdDeviation="18.15"/>
      <feComposite in2="hardAlpha" operator="arithmetic" k2="-1" k3="1"/>
      <feColorMatrix type="matrix" values="0 0 0 0 0.988366 0 0 0 0 1 0 0 0 0 0.825496 0 0 0 0.76 0"/>
      <feBlend mode="normal" in2="shape" result="effect1_innerShadow_1732_137"/>
    </filter>
    <linearGradient id="paint0_linear_1732_137" x1="673.147" y1="-251.804" x2="312.618" y2="712.107" gradientUnits="userSpaceOnUse">
      <stop offset="0.170286" stop-color="#7CAB4E"/>
      <stop offset="0.354443" stop-color="#A5D177"/>
      <stop offset="0.621055" stop-color="#88BB62"/>
    </linearGradient>
    <linearGradient id="paint1_linear_1732_137" x1="851.263" y1="96.1915" x2="821.43" y2="242.197" gradientUnits="userSpaceOnUse">
      <stop offset="0.0918342" stop-color="#FFC87B"/>
      <stop offset="0.2041" stop-color="#CE9F5D"/>
      <stop offset="1" stop-color="#BFA177"/>
    </linearGradient>
  </defs>
</svg>

