<svg width="467" height="406" viewBox="0 0 467 406" fill="none" xmlns="http://www.w3.org/2000/svg">
<g filter="url(#filter0_d_2042_4064)">
<path d="M349.327 63.3223L115.933 44.9337L111.69 50.5917L343.672 68.9801L349.327 63.3223Z" fill="#394B5E"/>
<path d="M454.003 193.457L343.671 68.9805L253.143 193.457V327.835L454.003 296.716V193.457Z" fill="url(#paint0_linear_2042_4064)"/>
<path d="M254.142 194.118L27.8203 169.409V295.858L254.142 327.834V194.118Z" fill="url(#paint1_linear_2042_4064)"/>
<path d="M344.67 68.9804L112.691 50.5918L13.6751 169.41L253.166 194.872L344.67 68.9804Z" fill="#4A6672"/>
<path d="M344.67 68.9804L112.691 50.5918L13.6751 169.41L253.166 194.872L344.67 68.9804Z" fill="url(#paint2_linear_2042_4064)" fill-opacity="0.5"/>
<g filter="url(#filter1_d_2042_4064)">
<mask id="mask0_2042_4064" style="mask-type:alpha" maskUnits="userSpaceOnUse" x="47" y="66" width="261" height="104">
<rect width="193.731" height="106.704" transform="matrix(0.994997 0.0999071 -0.625703 0.780061 114.717 66.4697)" fill="#D9D9D9"/>
</mask>
<g mask="url(#mask0_2042_4064)">
<g filter="url(#filter2_d_2042_4064)">
<rect width="193.731" height="106.704" transform="matrix(0.994997 0.0999071 -0.625703 0.780061 114.717 66.4697)" fill="url(#paint3_linear_2042_4064)"/>
<rect width="193.731" height="106.704" transform="matrix(0.994997 0.0999071 -0.625703 0.780061 114.717 66.4697)" fill="url(#paint4_linear_2042_4064)" fill-opacity="0.2"/>
<rect x="0.191498" y="0.45631" width="192.694" height="105.667" transform="matrix(0.994997 0.0999071 -0.625703 0.780061 115.003 66.551)" stroke="url(#paint5_linear_2042_4064)" stroke-width="1.03711"/>
</g>
<path d="M162.237 85.8082C163.668 85.4384 164.962 85.5683 165.631 86.149L175.918 95.0816C176.587 95.6624 176.529 96.6057 175.767 97.5563L164.039 112.178C163.276 113.129 161.925 113.942 160.493 114.312L138.477 120.001C137.046 120.371 135.752 120.241 135.084 119.66L124.796 110.727C124.127 110.147 124.185 109.203 124.947 108.253L136.676 93.6312C137.438 92.6806 138.79 91.8671 140.221 91.4973L162.237 85.8082Z" fill="#1955DF" fill-opacity="0.26"/>
<path d="M126.693 108.016C128.124 107.646 129.418 107.776 130.087 108.357L140.374 117.29C141.043 117.87 140.986 118.814 140.223 119.764L128.495 134.386C127.732 135.337 126.381 136.15 124.949 136.52L102.933 142.209C101.502 142.579 100.208 142.449 99.5396 141.868L89.252 132.936C88.5831 132.355 88.6408 131.411 89.4033 130.461L101.132 115.839C101.894 114.889 103.246 114.075 104.677 113.705L126.693 108.016Z" fill="#274FAA" fill-opacity="0.38"/>
<path d="M129.671 54.816C131.103 54.4462 132.396 54.5761 133.065 55.1568L143.353 64.0894C144.022 64.6702 143.964 65.6135 143.202 66.5641L131.473 81.1858C130.711 82.1364 129.359 82.9498 127.928 83.3197L105.912 89.0087C104.481 89.3786 103.187 89.2487 102.518 88.6679L92.2305 79.7353C91.5616 79.1546 91.6193 78.2112 92.3818 77.2606L104.11 62.639C104.873 61.6884 106.224 60.8749 107.655 60.5051L129.671 54.816Z" fill="#1955DF" fill-opacity="0.26"/>
<path d="M234.693 91.941C236.124 91.5712 237.418 91.7011 238.087 92.2818L248.374 101.214C249.043 101.795 248.986 102.739 248.223 103.689L236.495 118.311C235.732 119.261 234.381 120.075 232.949 120.445L210.933 126.134C209.502 126.504 208.208 126.374 207.54 125.793L197.252 116.86C196.583 116.28 196.641 115.336 197.403 114.386L209.132 99.764C209.894 98.8134 211.246 97.9999 212.677 97.6301L234.693 91.941Z" fill="#0C48D2" fill-opacity="0.38"/>
<path d="M158.8 137.915C160.232 137.545 161.525 137.675 162.194 138.255L172.482 147.188C173.151 147.769 173.093 148.712 172.33 149.663L160.602 164.284C159.84 165.235 158.488 166.048 157.057 166.418L135.041 172.107C133.61 172.477 132.316 172.347 131.647 171.767L121.359 162.834C120.691 162.253 120.748 161.31 121.511 160.359L133.239 145.738C134.002 144.787 135.353 143.974 136.784 143.604L158.8 137.915Z" fill="#79EFFF" fill-opacity="0.24"/>
<path d="M311.373 72.8102C312.804 72.4403 314.098 72.5702 314.766 73.151L325.054 82.0836C325.723 82.6643 325.665 83.6077 324.903 84.5583L313.174 99.1799C312.412 100.131 311.06 100.944 309.629 101.314L287.613 107.003C286.182 107.373 284.888 107.243 284.219 106.662L273.932 97.7294C273.263 97.1487 273.321 96.2054 274.083 95.2548L285.811 80.6331C286.574 79.6825 287.925 78.8691 289.357 78.4992L311.373 72.8102Z" fill="#1955DF" fill-opacity="0.26"/>
<path d="M231.774 118.668C233.205 118.298 234.499 118.428 235.168 119.008L245.455 127.941C246.124 128.522 246.067 129.465 245.304 130.416L233.576 145.037C232.813 145.988 231.462 146.801 230.03 147.171L208.015 152.86C206.583 153.23 205.289 153.1 204.621 152.519L194.333 143.587C193.664 143.006 193.722 142.063 194.484 141.112L206.213 126.491C206.975 125.54 208.327 124.726 209.758 124.357L231.774 118.668Z" fill="#274FAA" fill-opacity="0.38"/>
<path d="M195.451 115.02C196.882 114.65 198.176 114.78 198.845 115.361L209.132 124.294C209.801 124.874 209.743 125.818 208.981 126.768L197.252 141.39C196.49 142.34 195.139 143.154 193.707 143.524L171.691 149.213C170.26 149.583 168.966 149.453 168.297 148.872L158.01 139.939C157.341 139.359 157.399 138.415 158.161 137.465L169.889 122.843C170.652 121.892 172.003 121.079 173.435 120.709L195.451 115.02Z" fill="#5F74EE" fill-opacity="0.38"/>
<g filter="url(#filter3_d_2042_4064)">
<path d="M129.666 55.4192C131.097 55.0496 132.391 55.1793 133.06 55.7599L142.99 64.3816L163.962 58.9632C165.393 58.5935 166.687 58.7235 167.356 59.304L177.623 68.2189L199.598 62.5414C201.029 62.1717 202.323 62.3016 202.992 62.8822L213.279 71.8147C213.348 71.8744 213.407 71.9389 213.461 72.0058C213.605 71.959 213.751 71.9155 213.897 71.8776L235.914 66.1887C237.345 65.8191 238.639 65.9489 239.308 66.5295L249.595 75.462C249.625 75.4881 249.651 75.5161 249.678 75.5436C249.743 75.5251 249.808 75.5066 249.873 75.4899L271.889 69.8009C273.32 69.4313 274.614 69.5611 275.283 70.1417L285.551 79.0575L307.523 73.3806C308.954 73.0108 310.248 73.1407 310.917 73.7214L321.204 82.6539C321.873 83.2346 321.816 84.1782 321.053 85.1287L309.605 99.4006C309.637 99.4242 309.668 99.448 309.697 99.4733L319.984 108.406C320.653 108.986 320.596 109.93 319.833 110.881L308.105 125.502L307.955 125.679C307.173 126.553 305.901 127.289 304.559 127.636L282.544 133.325L282.346 133.372C282.303 133.432 282.258 133.493 282.21 133.553L270.481 148.175L270.331 148.352L270.329 148.354C270.362 148.379 270.395 148.404 270.426 148.431L280.713 157.364C281.382 157.944 281.325 158.888 280.562 159.838L268.834 174.46L268.684 174.637C267.902 175.511 266.63 176.247 265.288 176.594L243.273 182.283L243.005 182.347C241.77 182.616 240.662 182.505 240.011 182.046L239.879 181.942L229.611 173.026L207.638 178.705L207.37 178.769C206.134 179.038 205.027 178.927 204.375 178.468L204.243 178.364L193.955 169.432C193.887 169.372 193.826 169.308 193.773 169.241C193.629 169.288 193.484 169.332 193.338 169.37L171.323 175.059L171.056 175.122C169.82 175.391 168.713 175.28 168.061 174.822L167.929 174.718L157.641 165.785C157.611 165.759 157.583 165.732 157.556 165.704C157.492 165.723 157.427 165.741 157.362 165.758L135.347 171.447L135.08 171.511C133.844 171.78 132.737 171.669 132.085 171.21L131.953 171.106L121.913 162.389L100.712 167.868L100.445 167.932C99.2091 168.201 98.1017 168.09 97.4499 167.631L97.318 167.527L87.0299 158.595C86.9613 158.535 86.9026 158.471 86.8492 158.404C86.705 158.451 86.5593 158.495 86.4129 158.533L64.3976 164.222L64.1302 164.286C62.8947 164.555 61.7873 164.443 61.1355 163.985L61.0035 163.881L50.8416 155.058L29.1001 160.677L28.8327 160.741C27.5972 161.01 26.4899 160.898 25.838 160.44L25.706 160.336L15.418 151.403C14.7912 150.859 14.8032 149.996 15.4352 149.107L15.5698 148.929L27.2981 134.307C28.0606 133.357 29.4118 132.543 30.843 132.173L52.6215 126.545C52.6522 126.497 52.6845 126.448 52.7189 126.4L52.8535 126.222L64.5818 111.6C64.6685 111.492 64.7627 111.385 64.8639 111.281L54.6885 102.446C54.0617 101.902 54.0737 101.039 54.7058 100.15L54.8404 99.9716L66.5687 85.35C67.3312 84.3995 68.6824 83.5858 70.1136 83.216L92.1299 77.527C92.3405 77.4726 92.5479 77.4297 92.751 77.3967L104.105 63.2421C104.867 62.2918 106.219 61.4779 107.65 61.1081L129.666 55.4192ZM138.246 145.08C138.174 145.194 138.094 145.309 138.002 145.424L126.273 160.045L126.123 160.222C126.023 160.334 125.914 160.443 125.799 160.55L135.498 168.972L157.514 163.283L169.243 148.662L158.955 139.729L138.246 145.08ZM172.915 149.03L161.187 163.651L171.474 172.584L193.49 166.895L205.219 152.273L194.93 143.341L172.915 149.03ZM209.23 152.676L197.501 167.298L207.788 176.23L229.721 170.562L229.743 170.535L241.471 155.913C241.478 155.904 241.487 155.895 241.494 155.885L231.245 146.987L209.23 152.676ZM244.948 156.232C244.94 156.241 244.935 156.251 244.927 156.26L233.199 170.882L233.175 170.909L243.424 179.808L265.44 174.119L277.168 159.498L266.88 150.565L244.948 156.232ZM66.5236 138.055C66.4816 138.114 66.437 138.173 66.3896 138.232L54.6613 152.854L54.5112 153.031L54.5102 153.03L64.5484 161.747L86.5647 156.058L98.293 141.436L88.005 132.504L66.5236 138.055ZM102.304 141.839L90.5758 156.461L100.863 165.393L121.572 160.041C121.606 159.987 121.643 159.932 121.682 159.877L121.817 159.699L133.545 145.077C133.632 144.969 133.727 144.863 133.828 144.758L124.007 136.231L102.304 141.839ZM30.6921 134.648L18.9639 149.269L29.251 158.202L50.7329 152.65L50.8673 152.474L62.5956 137.852C62.6434 137.793 62.694 137.733 62.7463 137.675L52.7075 128.959L30.6921 134.648ZM174.902 122.779L163.173 137.4L173.46 146.333L195.477 140.644L207.205 126.022L196.917 117.09L174.902 122.779ZM210.877 126.391L199.149 141.012L209.436 149.945L231.369 144.277L231.39 144.25L243.118 129.628C243.126 129.619 243.134 129.609 243.142 129.6L232.892 120.702L210.877 126.391ZM246.595 129.947C246.588 129.956 246.582 129.966 246.574 129.975L234.846 144.597L234.822 144.624L245.071 153.523L267.087 147.834L278.816 133.213L268.528 124.28L246.595 129.947ZM104.346 115.332L104.079 115.396C103.958 115.422 103.839 115.444 103.72 115.463C103.704 115.483 103.69 115.505 103.673 115.525L91.945 130.147L91.7949 130.324L91.7933 130.324L101.83 139.04L123.846 133.351L135.575 118.729L125.396 109.892L104.346 115.332ZM67.9758 111.941L56.2475 126.563L66.5346 135.495L88.0141 129.944L88.149 129.767L99.8773 115.145C99.9253 115.085 99.976 115.026 100.029 114.967L89.9912 106.252L67.9758 111.941ZM138.927 119.167L127.286 133.679C127.51 133.766 127.706 133.878 127.865 134.016L137.797 142.641L159.502 137.032L171.23 122.411L160.942 113.478L138.927 119.167ZM234.17 94.6923L212.344 100.332L200.797 114.728L211.084 123.661L233.1 117.972L244.647 103.576L234.448 94.7202C234.417 94.6939 234.389 94.6662 234.362 94.6384C234.298 94.6568 234.234 94.6757 234.17 94.6923ZM141.731 92.7604C141.7 92.8026 141.669 92.8451 141.636 92.8874L129.907 107.509L129.757 107.686C129.7 107.75 129.639 107.813 129.576 107.876L139.473 116.469L160.951 110.919L160.952 110.918L161.087 110.74L172.537 96.4652L172.444 96.3933L162.175 87.4774L141.731 92.7604ZM198.29 90.9168C198.146 90.9635 198 91.0073 197.854 91.0451L176.576 96.5432L164.883 111.121L164.733 111.298L164.731 111.299L174.768 120.013L196.784 114.324L208.455 99.7745L198.472 91.108C198.403 91.0481 198.343 90.9839 198.29 90.9168ZM248.317 103.945L236.771 118.34L247.058 127.272L268.993 121.604L269.014 121.577L280.462 107.304L280.37 107.232L270.1 98.3157L248.317 103.945ZM306.294 101.73C306.124 101.787 305.952 101.839 305.779 101.884L284.036 107.503L272.468 121.924L272.445 121.95L282.695 130.85L304.711 125.161L316.439 110.54L306.294 101.73ZM69.9627 85.6908L58.2345 100.312L68.5215 109.245L90.5378 103.556L102.209 89.006L92.2245 80.3384C92.1099 80.2389 92.0163 80.1289 91.9442 80.0099L69.9627 85.6908ZM105.907 89.6119L105.639 89.6756L94.2098 103.925L104.387 112.761L125.439 107.322C125.544 107.295 125.648 107.271 125.751 107.249L125.792 107.196L137.145 93.0415C137.074 93.0035 137.004 92.9635 136.94 92.9189L136.808 92.8151L126.877 84.1924L105.907 89.6119ZM213.746 74.3525L202.076 88.9017L212.057 97.5689C212.126 97.6285 212.186 97.6924 212.24 97.7592C212.384 97.7125 212.529 97.6696 212.676 97.6318L234.503 91.9913L246.05 77.596L235.762 68.6634L213.746 74.3525ZM249.722 77.9647L238.175 92.36L248.373 101.216C248.403 101.242 248.429 101.27 248.456 101.297C248.521 101.278 248.585 101.26 248.65 101.243L270.395 95.624L281.962 81.2036C281.97 81.1937 281.978 81.1838 281.986 81.174L271.737 72.2757L249.722 77.9647ZM285.439 81.5222C285.432 81.5311 285.426 81.5402 285.419 81.5491L273.97 95.8233C274.001 95.8466 274.031 95.87 274.06 95.8949L284.328 104.811L306.114 99.181L317.659 84.7879L307.371 75.8553L285.439 81.5222ZM107.499 63.5829L95.8285 78.1321L105.811 86.8003C105.841 86.8264 105.868 86.8544 105.895 86.882C105.959 86.8634 106.024 86.845 106.089 86.8282L126.576 81.5339L126.672 81.4077L138.4 66.7862C138.578 66.565 138.788 66.3515 139.023 66.149L129.514 57.8939L107.499 63.5829ZM177.512 70.6837C177.505 70.6929 177.499 70.7022 177.492 70.7113L166.139 84.8652C166.263 84.9311 166.376 85.0066 166.475 85.0924L176.634 93.9133L198.187 88.3441L209.734 73.9487L199.446 65.0161L177.512 70.6837ZM143.525 66.6792C143.435 66.8405 143.327 67.0038 143.196 67.1673L131.627 81.5901L141.646 90.2898L162.344 84.9418L174.036 70.3644C174.044 70.3552 174.052 70.3462 174.059 70.3371L163.81 61.4379L143.525 66.6792Z" fill="url(#paint6_linear_2042_4064)"/>
<path d="M129.666 55.4192C131.097 55.0496 132.391 55.1793 133.06 55.7599L142.99 64.3816L163.962 58.9632C165.393 58.5935 166.687 58.7235 167.356 59.304L177.623 68.2189L199.598 62.5414C201.029 62.1717 202.323 62.3016 202.992 62.8822L213.279 71.8147C213.348 71.8744 213.407 71.9389 213.461 72.0058C213.605 71.959 213.751 71.9155 213.897 71.8776L235.914 66.1887C237.345 65.8191 238.639 65.9489 239.308 66.5295L249.595 75.462C249.625 75.4881 249.651 75.5161 249.678 75.5436C249.743 75.5251 249.808 75.5066 249.873 75.4899L271.889 69.8009C273.32 69.4313 274.614 69.5611 275.283 70.1417L285.551 79.0575L307.523 73.3806C308.954 73.0108 310.248 73.1407 310.917 73.7214L321.204 82.6539C321.873 83.2346 321.816 84.1782 321.053 85.1287L309.605 99.4006C309.637 99.4242 309.668 99.448 309.697 99.4733L319.984 108.406C320.653 108.986 320.596 109.93 319.833 110.881L308.105 125.502L307.955 125.679C307.173 126.553 305.901 127.289 304.559 127.636L282.544 133.325L282.346 133.372C282.303 133.432 282.258 133.493 282.21 133.553L270.481 148.175L270.331 148.352L270.329 148.354C270.362 148.379 270.395 148.404 270.426 148.431L280.713 157.364C281.382 157.944 281.325 158.888 280.562 159.838L268.834 174.46L268.684 174.637C267.902 175.511 266.63 176.247 265.288 176.594L243.273 182.283L243.005 182.347C241.77 182.616 240.662 182.505 240.011 182.046L239.879 181.942L229.611 173.026L207.638 178.705L207.37 178.769C206.134 179.038 205.027 178.927 204.375 178.468L204.243 178.364L193.955 169.432C193.887 169.372 193.826 169.308 193.773 169.241C193.629 169.288 193.484 169.332 193.338 169.37L171.323 175.059L171.056 175.122C169.82 175.391 168.713 175.28 168.061 174.822L167.929 174.718L157.641 165.785C157.611 165.759 157.583 165.732 157.556 165.704C157.492 165.723 157.427 165.741 157.362 165.758L135.347 171.447L135.08 171.511C133.844 171.78 132.737 171.669 132.085 171.21L131.953 171.106L121.913 162.389L100.712 167.868L100.445 167.932C99.2091 168.201 98.1017 168.09 97.4499 167.631L97.318 167.527L87.0299 158.595C86.9613 158.535 86.9026 158.471 86.8492 158.404C86.705 158.451 86.5593 158.495 86.4129 158.533L64.3976 164.222L64.1302 164.286C62.8947 164.555 61.7873 164.443 61.1355 163.985L61.0035 163.881L50.8416 155.058L29.1001 160.677L28.8327 160.741C27.5972 161.01 26.4899 160.898 25.838 160.44L25.706 160.336L15.418 151.403C14.7912 150.859 14.8032 149.996 15.4352 149.107L15.5698 148.929L27.2981 134.307C28.0606 133.357 29.4118 132.543 30.843 132.173L52.6215 126.545C52.6522 126.497 52.6845 126.448 52.7189 126.4L52.8535 126.222L64.5818 111.6C64.6685 111.492 64.7627 111.385 64.8639 111.281L54.6885 102.446C54.0617 101.902 54.0737 101.039 54.7058 100.15L54.8404 99.9716L66.5687 85.35C67.3312 84.3995 68.6824 83.5858 70.1136 83.216L92.1299 77.527C92.3405 77.4726 92.5479 77.4297 92.751 77.3967L104.105 63.2421C104.867 62.2918 106.219 61.4779 107.65 61.1081L129.666 55.4192ZM138.246 145.08C138.174 145.194 138.094 145.309 138.002 145.424L126.273 160.045L126.123 160.222C126.023 160.334 125.914 160.443 125.799 160.55L135.498 168.972L157.514 163.283L169.243 148.662L158.955 139.729L138.246 145.08ZM172.915 149.03L161.187 163.651L171.474 172.584L193.49 166.895L205.219 152.273L194.93 143.341L172.915 149.03ZM209.23 152.676L197.501 167.298L207.788 176.23L229.721 170.562L229.743 170.535L241.471 155.913C241.478 155.904 241.487 155.895 241.494 155.885L231.245 146.987L209.23 152.676ZM244.948 156.232C244.94 156.241 244.935 156.251 244.927 156.26L233.199 170.882L233.175 170.909L243.424 179.808L265.44 174.119L277.168 159.498L266.88 150.565L244.948 156.232ZM66.5236 138.055C66.4816 138.114 66.437 138.173 66.3896 138.232L54.6613 152.854L54.5112 153.031L54.5102 153.03L64.5484 161.747L86.5647 156.058L98.293 141.436L88.005 132.504L66.5236 138.055ZM102.304 141.839L90.5758 156.461L100.863 165.393L121.572 160.041C121.606 159.987 121.643 159.932 121.682 159.877L121.817 159.699L133.545 145.077C133.632 144.969 133.727 144.863 133.828 144.758L124.007 136.231L102.304 141.839ZM30.6921 134.648L18.9639 149.269L29.251 158.202L50.7329 152.65L50.8673 152.474L62.5956 137.852C62.6434 137.793 62.694 137.733 62.7463 137.675L52.7075 128.959L30.6921 134.648ZM174.902 122.779L163.173 137.4L173.46 146.333L195.477 140.644L207.205 126.022L196.917 117.09L174.902 122.779ZM210.877 126.391L199.149 141.012L209.436 149.945L231.369 144.277L231.39 144.25L243.118 129.628C243.126 129.619 243.134 129.609 243.142 129.6L232.892 120.702L210.877 126.391ZM246.595 129.947C246.588 129.956 246.582 129.966 246.574 129.975L234.846 144.597L234.822 144.624L245.071 153.523L267.087 147.834L278.816 133.213L268.528 124.28L246.595 129.947ZM104.346 115.332L104.079 115.396C103.958 115.422 103.839 115.444 103.72 115.463C103.704 115.483 103.69 115.505 103.673 115.525L91.945 130.147L91.7949 130.324L91.7933 130.324L101.83 139.04L123.846 133.351L135.575 118.729L125.396 109.892L104.346 115.332ZM67.9758 111.941L56.2475 126.563L66.5346 135.495L88.0141 129.944L88.149 129.767L99.8773 115.145C99.9253 115.085 99.976 115.026 100.029 114.967L89.9912 106.252L67.9758 111.941ZM138.927 119.167L127.286 133.679C127.51 133.766 127.706 133.878 127.865 134.016L137.797 142.641L159.502 137.032L171.23 122.411L160.942 113.478L138.927 119.167ZM234.17 94.6923L212.344 100.332L200.797 114.728L211.084 123.661L233.1 117.972L244.647 103.576L234.448 94.7202C234.417 94.6939 234.389 94.6662 234.362 94.6384C234.298 94.6568 234.234 94.6757 234.17 94.6923ZM141.731 92.7604C141.7 92.8026 141.669 92.8451 141.636 92.8874L129.907 107.509L129.757 107.686C129.7 107.75 129.639 107.813 129.576 107.876L139.473 116.469L160.951 110.919L160.952 110.918L161.087 110.74L172.537 96.4652L172.444 96.3933L162.175 87.4774L141.731 92.7604ZM198.29 90.9168C198.146 90.9635 198 91.0073 197.854 91.0451L176.576 96.5432L164.883 111.121L164.733 111.298L164.731 111.299L174.768 120.013L196.784 114.324L208.455 99.7745L198.472 91.108C198.403 91.0481 198.343 90.9839 198.29 90.9168ZM248.317 103.945L236.771 118.34L247.058 127.272L268.993 121.604L269.014 121.577L280.462 107.304L280.37 107.232L270.1 98.3157L248.317 103.945ZM306.294 101.73C306.124 101.787 305.952 101.839 305.779 101.884L284.036 107.503L272.468 121.924L272.445 121.95L282.695 130.85L304.711 125.161L316.439 110.54L306.294 101.73ZM69.9627 85.6908L58.2345 100.312L68.5215 109.245L90.5378 103.556L102.209 89.006L92.2245 80.3384C92.1099 80.2389 92.0163 80.1289 91.9442 80.0099L69.9627 85.6908ZM105.907 89.6119L105.639 89.6756L94.2098 103.925L104.387 112.761L125.439 107.322C125.544 107.295 125.648 107.271 125.751 107.249L125.792 107.196L137.145 93.0415C137.074 93.0035 137.004 92.9635 136.94 92.9189L136.808 92.8151L126.877 84.1924L105.907 89.6119ZM213.746 74.3525L202.076 88.9017L212.057 97.5689C212.126 97.6285 212.186 97.6924 212.24 97.7592C212.384 97.7125 212.529 97.6696 212.676 97.6318L234.503 91.9913L246.05 77.596L235.762 68.6634L213.746 74.3525ZM249.722 77.9647L238.175 92.36L248.373 101.216C248.403 101.242 248.429 101.27 248.456 101.297C248.521 101.278 248.585 101.26 248.65 101.243L270.395 95.624L281.962 81.2036C281.97 81.1937 281.978 81.1838 281.986 81.174L271.737 72.2757L249.722 77.9647ZM285.439 81.5222C285.432 81.5311 285.426 81.5402 285.419 81.5491L273.97 95.8233C274.001 95.8466 274.031 95.87 274.06 95.8949L284.328 104.811L306.114 99.181L317.659 84.7879L307.371 75.8553L285.439 81.5222ZM107.499 63.5829L95.8285 78.1321L105.811 86.8003C105.841 86.8264 105.868 86.8544 105.895 86.882C105.959 86.8634 106.024 86.845 106.089 86.8282L126.576 81.5339L126.672 81.4077L138.4 66.7862C138.578 66.565 138.788 66.3515 139.023 66.149L129.514 57.8939L107.499 63.5829ZM177.512 70.6837C177.505 70.6929 177.499 70.7022 177.492 70.7113L166.139 84.8652C166.263 84.9311 166.376 85.0066 166.475 85.0924L176.634 93.9133L198.187 88.3441L209.734 73.9487L199.446 65.0161L177.512 70.6837ZM143.525 66.6792C143.435 66.8405 143.327 67.0038 143.196 67.1673L131.627 81.5901L141.646 90.2898L162.344 84.9418L174.036 70.3644C174.044 70.3552 174.052 70.3462 174.059 70.3371L163.81 61.4379L143.525 66.6792Z" fill="#274FAA" fill-opacity="0.38"/>
</g>
</g>
</g>
<g filter="url(#filter4_d_2042_4064)">
<path d="M95.7168 220.331L64.5976 216.088V245.793L95.7168 250.036V220.331Z" fill="#5985A4"/>
<path d="M61.7939 248.24L64.2188 248.571L95.3379 252.814L98.5205 253.248V217.884L96.0957 217.553L64.9766 213.31L61.7939 212.876V248.24Z" stroke="#493B32" stroke-width="5.60802"/>
</g>
<g filter="url(#filter5_d_2042_4064)">
<path d="M182.416 231.648L151.297 227.404V257.109L182.416 261.352V231.648Z" fill="#6190B0"/>
<path d="M148.493 259.557L150.918 259.888L182.037 264.131L185.22 264.564V229.2L182.795 228.869L151.676 224.626L148.493 224.192V259.557Z" stroke="#493B32" stroke-width="5.60802"/>
</g>
<g filter="url(#filter6_i_2042_4064)">
<path d="M369.012 142.585H337.893V169.605H369.012V142.585Z" fill="#5985A4"/>
</g>
<path d="M335.089 139.781V172.409H371.815V139.781H335.089Z" stroke="#493B32" stroke-width="5.60802"/>
<g filter="url(#filter7_d_2042_4064)">
<path d="M205.048 32.2012H185.245V85.9525L205.048 61.9058V32.2012Z" fill="url(#paint7_linear_2042_4064)"/>
</g>
<g filter="url(#filter8_d_2042_4064)">
<path d="M185.244 31.9883H168.27V94.2266L185.244 85.8421V31.9883Z" fill="#FFDFB9"/>
</g>
<rect width="36.7772" height="2.82902" transform="matrix(-1 0 0 1 205.048 29.375)" fill="#665A40"/>
<rect width="16.9741" height="2.82902" transform="matrix(-1 0 0 1 185.245 29.375)" fill="#3F3F23"/>
<rect width="14.1451" height="25.4611" transform="matrix(-1 0 0 1 193.731 3.91406)" fill="url(#paint8_linear_2042_4064)"/>
<g filter="url(#filter9_i_2042_4064)">
<path d="M454.441 182.142L349.321 63.3218L343.663 68.9798L454.441 194.872L454.441 182.142Z" fill="#394B5E"/>
</g>
<path d="M254.58 193.456L27.8168 170.891V187.798L254.58 210.431V193.456Z" fill="#493B32"/>
</g>
<g filter="url(#filter10_g_2042_4064)">
<path d="M402.551 285.99C400.989 271.892 397.219 258.403 377.574 266.683C376.741 267.326 375.946 267.954 375.189 268.566C371.345 266.494 365.283 266.293 355.58 269.415C342.637 276.446 337.942 280.617 339.461 288.731C335.971 288.549 331.498 289.232 325.745 291.082C313.591 297.685 308.71 301.765 309.418 308.957C307.283 308.903 304.58 309.34 301.148 310.431C296.718 312.799 293.832 314.638 292.281 316.632C289.192 312.772 282.97 311.115 269.893 315.029C254.22 322.751 250.95 326.488 256.163 337.483C259.055 348.115 266.678 349.286 272.904 349.446C277.497 348.8 281.711 347.289 285.233 345.198C285.238 345.212 285.244 345.227 285.25 345.241C288.372 357.776 296.269 359.303 302.709 359.613C309.425 358.67 315.335 355.67 319.523 351.553C323.098 354.767 327.507 355.396 331.388 355.584C339.716 354.414 346.803 350.083 350.905 344.381C354.276 346.871 358.227 347.404 361.744 347.573C366.6 346.891 371.034 345.133 374.701 342.656C378.538 348.24 384.122 349.142 388.905 349.372C402.716 347.431 413.12 336.803 412.143 325.632C411.998 323.978 411.847 322.275 411.618 320.598C413.96 323.23 417.082 323.689 419.794 323.81C422.733 323.397 425.427 322.367 427.678 320.919C431.882 324.678 439.226 324.142 444.324 319.624C449.556 314.986 455.862 309.397 446.299 303.82C444.099 303.194 442.286 302.778 440.709 302.648C443.346 298.316 445.091 293.819 438.093 292.377C432.621 292.712 430.271 293.578 428.058 297.836C426.133 297.394 423.583 297.484 420.186 298.327C420.35 297.432 420.399 296.519 420.318 295.601C419.995 291.903 419.634 287.796 416.936 285.578C417.703 281.83 417.014 278.693 411.022 278.862C405.858 280.372 403.734 281.695 402.628 285.948C402.602 285.962 402.577 285.976 402.551 285.99Z" fill="url(#paint9_linear_2042_4064)"/>
</g>
<g filter="url(#filter11_dg_2042_4064)">
<path d="M284.688 301.965C284.313 286.6 281.37 271.555 258.217 277.479C257.206 278.043 256.242 278.595 255.32 279.137C251.157 276.334 244.288 275.203 232.947 277.089C217.535 282.683 211.784 286.451 212.704 295.389C208.756 294.667 203.604 294.726 196.881 295.844C182.41 301.096 176.455 304.739 176.544 312.563C174.123 312.184 171.008 312.245 166.998 312.898C161.727 314.772 158.264 316.31 156.303 318.216C153.175 313.608 146.268 310.892 131.016 313.12C112.433 319.043 108.344 322.56 113.176 335.146C115.406 346.992 123.954 349.398 131.016 350.509C136.3 350.509 141.241 349.522 145.451 347.81C145.457 347.825 145.461 347.842 145.467 347.857C147.769 361.781 156.593 364.61 163.883 365.915C171.611 365.915 178.628 363.587 183.797 359.801C187.541 363.787 192.489 365.129 196.881 365.915C206.463 365.915 214.949 362.337 220.179 356.836C223.762 360.015 228.2 361.184 232.18 361.896C237.767 361.896 242.982 360.677 247.396 358.572C251.203 365.145 257.462 366.955 262.876 367.925C278.767 367.925 291.649 358.087 291.649 345.951C291.649 344.156 291.648 342.307 291.555 340.474C293.955 343.649 297.456 344.613 300.525 345.151C303.908 345.151 307.072 344.452 309.774 343.237C314.18 347.904 322.58 348.437 328.823 344.357C335.232 340.17 342.955 335.123 332.641 327.695C330.205 326.693 328.187 325.974 326.408 325.595C329.836 321.345 332.261 316.782 324.452 314.18C318.199 313.713 315.442 314.289 312.502 318.524C310.359 317.76 307.451 317.471 303.506 317.863C303.781 316.928 303.928 315.956 303.928 314.958C303.928 310.94 303.927 306.478 301.079 303.69C302.323 299.783 301.852 296.313 295.025 295.591C289.005 296.432 286.459 297.532 284.778 301.932C284.748 301.943 284.718 301.954 284.688 301.965Z" fill="url(#paint10_linear_2042_4064)"/>
</g>
<g filter="url(#filter12_dg_2042_4064)">
<path d="M81.0719 166.689C80.3041 162.261 77.374 159.013 68.4259 160.067C63.6203 161.783 60.6498 163.231 59.0734 165.417C58.8917 165.428 58.7072 165.44 58.5207 165.453C57.1962 165.803 56.002 166.141 54.9303 166.479C55.0274 161.932 53.3985 157.541 40.6483 158.113C35.5151 159.16 32.3549 160.081 30.726 161.573C29.031 159.418 25.3812 158.007 17.8079 158.347C7.52779 160.442 5.15998 162.035 7.158 168.715C7.51969 172.236 9.13653 174.286 11.153 175.571C11.2449 176.36 11.443 177.244 11.7412 178.241C12.3751 184.411 16.8593 186.072 20.6053 186.995C24.6324 187.371 28.3819 186.697 31.2297 185.301C33.0189 187.219 35.5425 188.045 37.8 188.601C42.795 189.067 47.3637 187.921 50.3127 185.781C52.0515 187.34 54.3164 188.067 56.3627 188.571L56.3647 188.57C56.5526 188.587 56.7399 188.601 56.9266 188.614C59.6319 188.802 62.1964 188.519 64.4282 187.864C66.1446 190.909 69.3317 192.004 72.1144 192.689C80.3963 193.463 87.5103 189.809 88.0036 184.529C88.0765 183.747 88.1507 182.942 88.1767 182.14C89.2985 183.638 91.0847 184.228 92.6625 184.612C94.1073 184.747 95.4947 184.67 96.7508 184.42C98.9205 186.508 103.123 187.072 106.443 185.644C109.953 184.134 114.182 182.314 109.108 178.58C107.878 178.024 106.856 177.613 105.943 177.361C107.903 175.679 109.355 173.811 105.39 172.299C102.316 171.817 100.844 171.898 99.2463 173.359C98.2439 173.072 96.9609 172.901 95.3222 172.884C95.5043 172.49 95.6214 172.075 95.662 171.64C95.8253 169.892 96.0068 167.949 94.6352 166.598C95.4419 164.959 95.3371 163.426 91.8091 162.78C88.6359 162.853 87.264 163.208 86.2092 165.042C83.7553 165.547 82.0905 166.02 81.0719 166.689Z" fill="url(#paint11_linear_2042_4064)"/>
</g>
<g filter="url(#filter13_dg_2042_4064)">
<path d="M229.687 184.215C228.92 179.785 225.991 176.535 217.041 177.59C212.235 179.306 209.266 180.754 207.689 182.94C207.508 182.951 207.324 182.962 207.137 182.976C205.813 183.325 204.618 183.663 203.546 184.002C203.643 179.454 202.014 175.063 189.264 175.635C184.131 176.682 180.97 177.603 179.341 179.095C177.645 176.941 173.995 175.53 166.424 175.87C156.143 177.965 153.776 179.559 155.774 186.238C156.135 189.758 157.752 191.809 159.768 193.094C159.859 193.883 160.058 194.768 160.357 195.766C160.991 201.936 165.474 203.596 169.22 204.519C173.248 204.895 176.998 204.222 179.846 202.826C181.635 204.743 184.159 205.568 186.417 206.124C191.412 206.59 195.98 205.444 198.929 203.304C200.668 204.863 202.933 205.588 204.978 206.092L204.978 206.093C205.18 206.112 205.381 206.126 205.581 206.138C208.272 206.322 210.822 206.038 213.043 205.386C214.759 208.432 217.946 209.526 220.729 210.211C229.011 210.985 236.125 207.331 236.618 202.051C236.691 201.269 236.766 200.464 236.792 199.661C237.913 201.16 239.699 201.751 241.277 202.135C243.04 202.299 244.717 202.147 246.175 201.751C248.281 203.997 252.637 204.64 256.058 203.168C259.568 201.658 263.797 199.838 258.723 196.104C257.494 195.549 256.471 195.137 255.559 194.886C257.519 193.203 258.97 191.336 255.005 189.824C251.765 189.316 250.305 189.433 248.601 191.133C247.514 190.696 246.011 190.429 243.938 190.408C244.12 190.014 244.237 189.598 244.278 189.164C244.441 187.416 244.622 185.473 243.251 184.122C244.058 182.483 243.952 180.95 240.424 180.304C237.251 180.377 235.88 180.732 234.825 182.566C232.37 183.071 230.706 183.546 229.687 184.215Z" fill="url(#paint12_linear_2042_4064)"/>
</g>
<g filter="url(#filter14_dg_2042_4064)">
<path d="M146.35 173.826C145.582 169.397 142.653 166.148 133.704 167.203C128.899 168.918 125.93 170.366 124.353 172.552C124.171 172.563 123.986 172.573 123.8 172.587C122.475 172.937 121.281 173.274 120.209 173.613C120.306 169.066 118.676 164.676 105.927 165.248C101.351 166.181 98.344 167.015 96.5908 168.241C94.7423 166.355 91.0948 165.169 84.086 165.483C73.8057 167.579 71.438 169.172 73.4361 175.851C73.7977 179.372 75.4138 181.423 77.4301 182.708C77.522 183.497 77.7201 184.381 78.0183 185.377C78.6522 191.548 83.1355 193.209 86.8814 194.131C90.5923 194.478 94.0678 193.932 96.8192 192.753C98.5827 194.448 100.949 195.213 103.079 195.737C108.074 196.204 112.643 195.057 115.592 192.917C117.331 194.475 119.595 195.201 121.641 195.705C121.692 195.71 121.743 195.712 121.794 195.717C121.908 195.726 122.022 195.735 122.135 195.743C124.866 195.941 127.455 195.659 129.706 194.998C131.422 198.044 134.61 199.138 137.392 199.824C145.674 200.597 152.788 196.943 153.281 191.663C153.354 190.882 153.429 190.077 153.454 189.274C154.576 190.773 156.362 191.364 157.94 191.747C159.703 191.912 161.381 191.761 162.839 191.364C164.946 193.608 169.3 194.249 172.719 192.778C176.229 191.268 180.459 189.449 175.385 185.715C174.156 185.16 173.133 184.748 172.22 184.497C174.18 182.814 175.631 180.948 171.666 179.435C168.425 178.928 166.965 179.045 165.261 180.746C164.175 180.309 162.672 180.041 160.6 180.02C160.782 179.626 160.899 179.211 160.94 178.777C161.103 177.028 161.284 175.086 159.912 173.734C160.72 172.095 160.616 170.561 157.087 169.914C153.912 169.987 152.541 170.343 151.486 172.179C149.032 172.684 147.368 173.158 146.35 173.826Z" fill="url(#paint13_linear_2042_4064)"/>
</g>
<g filter="url(#filter15_dg_2042_4064)">
<path d="M258.306 189.976C257.913 185.58 256.009 182.424 249.858 183.741C246.522 185.594 244.45 187.127 243.308 189.354C243.183 189.371 243.057 189.387 242.929 189.406C242.014 189.794 241.188 190.166 240.445 190.536C240.646 185.997 239.662 181.667 230.93 182.614C227.389 183.81 225.202 184.822 224.045 186.359C222.95 184.26 220.497 182.96 215.31 183.523C208.221 185.917 206.555 187.575 207.723 194.177C207.867 197.678 208.911 199.676 210.252 200.898C210.292 201.682 210.401 202.557 210.575 203.542C210.826 209.676 213.842 211.199 216.375 212.008C219.117 212.264 221.699 211.483 223.687 210.007C224.853 211.867 226.554 212.616 228.081 213.104C231.482 213.421 234.638 212.143 236.717 209.921C237.86 211.425 239.386 212.082 240.77 212.524C240.805 212.528 240.84 212.528 240.875 212.531C240.953 212.538 241.03 212.543 241.107 212.547C242.968 212.664 244.746 212.307 246.305 211.581C247.388 214.567 249.533 215.563 251.415 216.165C257.053 216.691 262.024 212.838 262.517 207.557C262.59 206.775 262.666 205.97 262.707 205.168C263.43 206.631 264.633 207.166 265.7 207.502C266.901 207.614 268.052 207.415 269.06 206.976C270.433 209.153 273.391 209.664 275.773 208.096C278.217 206.486 281.162 204.546 277.804 200.973C276.98 200.455 276.292 200.075 275.676 199.851C277.065 198.115 278.113 196.211 275.447 194.82C273.247 194.409 272.248 194.57 271.032 196.316C270.303 195.912 269.283 195.689 267.867 195.729C268.003 195.331 268.094 194.913 268.135 194.479C268.298 192.73 268.478 190.789 267.58 189.482C268.18 187.823 268.156 186.297 265.763 185.756C263.591 185.923 262.645 186.318 261.869 188.18C260.175 188.757 259.022 189.278 258.306 189.976Z" fill="url(#paint14_linear_2042_4064)"/>
</g>
<defs>
<filter id="filter0_d_2042_4064" x="1.84699" y="0.24336" width="464.421" height="347.577" filterUnits="userSpaceOnUse" color-interpolation-filters="sRGB">
<feFlood flood-opacity="0" result="BackgroundImageFix"/>
<feColorMatrix in="SourceAlpha" type="matrix" values="0 0 0 0 0 0 0 0 0 0 0 0 0 0 0 0 0 0 127 0" result="hardAlpha"/>
<feOffset dy="8.15711"/>
<feGaussianBlur stdDeviation="5.91391"/>
<feComposite in2="hardAlpha" operator="out"/>
<feColorMatrix type="matrix" values="0 0 0 0 0 0 0 0 0 0 0 0 0 0 0 0 0 0 0.18 0"/>
<feBlend mode="normal" in2="BackgroundImageFix" result="effect1_dropShadow_2042_4064"/>
<feBlend mode="normal" in="SourceGraphic" in2="effect1_dropShadow_2042_4064" result="shape"/>
</filter>
<filter id="filter1_d_2042_4064" x="46.2928" y="66.4697" width="262.845" height="105.909" filterUnits="userSpaceOnUse" color-interpolation-filters="sRGB">
<feFlood flood-opacity="0" result="BackgroundImageFix"/>
<feColorMatrix in="SourceAlpha" type="matrix" values="0 0 0 0 0 0 0 0 0 0 0 0 0 0 0 0 0 0 127 0" result="hardAlpha"/>
<feOffset dy="1.65937"/>
<feGaussianBlur stdDeviation="0.829685"/>
<feComposite in2="hardAlpha" operator="out"/>
<feColorMatrix type="matrix" values="0 0 0 0 0 0 0 0 0 0 0 0 0 0 0 0 0 0 0.25 0"/>
<feBlend mode="normal" in2="BackgroundImageFix" result="effect1_dropShadow_2042_4064"/>
<feBlend mode="normal" in="SourceGraphic" in2="effect1_dropShadow_2042_4064" result="shape"/>
</filter>
<filter id="filter2_d_2042_4064" x="46.2928" y="66.4697" width="262.845" height="105.909" filterUnits="userSpaceOnUse" color-interpolation-filters="sRGB">
<feFlood flood-opacity="0" result="BackgroundImageFix"/>
<feColorMatrix in="SourceAlpha" type="matrix" values="0 0 0 0 0 0 0 0 0 0 0 0 0 0 0 0 0 0 127 0" result="hardAlpha"/>
<feOffset dy="1.65937"/>
<feGaussianBlur stdDeviation="0.829685"/>
<feComposite in2="hardAlpha" operator="out"/>
<feColorMatrix type="matrix" values="0 0 0 0 0 0 0 0 0 0 0 0 0 0 0 0 0 0 0.25 0"/>
<feBlend mode="normal" in2="BackgroundImageFix" result="effect1_dropShadow_2042_4064"/>
<feBlend mode="normal" in="SourceGraphic" in2="effect1_dropShadow_2042_4064" result="shape"/>
</filter>
<filter id="filter3_d_2042_4064" x="14.5393" y="55.2114" width="310.033" height="130.599" filterUnits="userSpaceOnUse" color-interpolation-filters="sRGB">
<feFlood flood-opacity="0" result="BackgroundImageFix"/>
<feColorMatrix in="SourceAlpha" type="matrix" values="0 0 0 0 0 0 0 0 0 0 0 0 0 0 0 0 0 0 127 0" result="hardAlpha"/>
<feOffset dx="1.24453" dy="1.65937"/>
<feGaussianBlur stdDeviation="0.829685"/>
<feComposite in2="hardAlpha" operator="out"/>
<feColorMatrix type="matrix" values="0 0 0 0 0 0 0 0 0 0 0 0 0 0 0 0 0 0 0.25 0"/>
<feBlend mode="normal" in2="BackgroundImageFix" result="effect1_dropShadow_2042_4064"/>
<feBlend mode="normal" in="SourceGraphic" in2="effect1_dropShadow_2042_4064" result="shape"/>
</filter>
<filter id="filter4_d_2042_4064" x="54.9107" y="209.663" width="50.493" height="54.955" filterUnits="userSpaceOnUse" color-interpolation-filters="sRGB">
<feFlood flood-opacity="0" result="BackgroundImageFix"/>
<feColorMatrix in="SourceAlpha" type="matrix" values="0 0 0 0 0 0 0 0 0 0 0 0 0 0 0 0 0 0 127 0" result="hardAlpha"/>
<feOffset dy="4.07856"/>
<feGaussianBlur stdDeviation="2.03928"/>
<feComposite in2="hardAlpha" operator="out"/>
<feColorMatrix type="matrix" values="0 0 0 0 0 0 0 0 0 0 0 0 0 0 0 0 0 0 0.25 0"/>
<feBlend mode="normal" in2="BackgroundImageFix" result="effect1_dropShadow_2042_4064"/>
<feBlend mode="normal" in="SourceGraphic" in2="effect1_dropShadow_2042_4064" result="shape"/>
</filter>
<filter id="filter5_d_2042_4064" x="141.61" y="220.979" width="50.493" height="54.955" filterUnits="userSpaceOnUse" color-interpolation-filters="sRGB">
<feFlood flood-opacity="0" result="BackgroundImageFix"/>
<feColorMatrix in="SourceAlpha" type="matrix" values="0 0 0 0 0 0 0 0 0 0 0 0 0 0 0 0 0 0 127 0" result="hardAlpha"/>
<feOffset dy="4.07856"/>
<feGaussianBlur stdDeviation="2.03928"/>
<feComposite in2="hardAlpha" operator="out"/>
<feColorMatrix type="matrix" values="0 0 0 0 0 0 0 0 0 0 0 0 0 0 0 0 0 0 0.25 0"/>
<feBlend mode="normal" in2="BackgroundImageFix" result="effect1_dropShadow_2042_4064"/>
<feBlend mode="normal" in="SourceGraphic" in2="effect1_dropShadow_2042_4064" result="shape"/>
</filter>
<filter id="filter6_i_2042_4064" x="331.672" y="136.977" width="42.9477" height="38.8481" filterUnits="userSpaceOnUse" color-interpolation-filters="sRGB">
<feFlood flood-opacity="0" result="BackgroundImageFix"/>
<feBlend mode="normal" in="SourceGraphic" in2="BackgroundImageFix" result="shape"/>
<feColorMatrix in="SourceAlpha" type="matrix" values="0 0 0 0 0 0 0 0 0 0 0 0 0 0 0 0 0 0 127 0" result="hardAlpha"/>
<feOffset dx="-8.15711" dy="10.1964"/>
<feGaussianBlur stdDeviation="0.305892"/>
<feComposite in2="hardAlpha" operator="arithmetic" k2="-1" k3="1"/>
<feColorMatrix type="matrix" values="0 0 0 0 0 0 0 0 0 0 0 0 0 0 0 0 0 0 0.25 0"/>
<feBlend mode="normal" in2="shape" result="effect1_innerShadow_2042_4064"/>
</filter>
<filter id="filter7_d_2042_4064" x="173.723" y="28.8364" width="32.6502" height="66.5989" filterUnits="userSpaceOnUse" color-interpolation-filters="sRGB">
<feFlood flood-opacity="0" result="BackgroundImageFix"/>
<feColorMatrix in="SourceAlpha" type="matrix" values="0 0 0 0 0 0 0 0 0 0 0 0 0 0 0 0 0 0 127 0" result="hardAlpha"/>
<feOffset dx="-5.0982" dy="3.05892"/>
<feGaussianBlur stdDeviation="3.21186"/>
<feComposite in2="hardAlpha" operator="out"/>
<feColorMatrix type="matrix" values="0 0 0 0 0 0 0 0 0 0 0 0 0 0 0 0 0 0 0.1 0"/>
<feBlend mode="normal" in2="BackgroundImageFix" result="effect1_dropShadow_2042_4064"/>
<feBlend mode="normal" in="SourceGraphic" in2="effect1_dropShadow_2042_4064" result="shape"/>
</filter>
<filter id="filter8_d_2042_4064" x="156.749" y="28.6235" width="29.8211" height="75.0857" filterUnits="userSpaceOnUse" color-interpolation-filters="sRGB">
<feFlood flood-opacity="0" result="BackgroundImageFix"/>
<feColorMatrix in="SourceAlpha" type="matrix" values="0 0 0 0 0 0 0 0 0 0 0 0 0 0 0 0 0 0 127 0" result="hardAlpha"/>
<feOffset dx="-5.0982" dy="3.05892"/>
<feGaussianBlur stdDeviation="3.21186"/>
<feComposite in2="hardAlpha" operator="out"/>
<feColorMatrix type="matrix" values="0 0 0 0 0 0 0 0 0 0 0 0 0 0 0 0 0 0 0.1 0"/>
<feBlend mode="normal" in2="BackgroundImageFix" result="effect1_dropShadow_2042_4064"/>
<feBlend mode="normal" in="SourceGraphic" in2="effect1_dropShadow_2042_4064" result="shape"/>
</filter>
<filter id="filter9_i_2042_4064" x="343.663" y="63.3218" width="110.777" height="131.55" filterUnits="userSpaceOnUse" color-interpolation-filters="sRGB">
<feFlood flood-opacity="0" result="BackgroundImageFix"/>
<feBlend mode="normal" in="SourceGraphic" in2="BackgroundImageFix" result="shape"/>
<feColorMatrix in="SourceAlpha" type="matrix" values="0 0 0 0 0 0 0 0 0 0 0 0 0 0 0 0 0 0 127 0" result="hardAlpha"/>
<feOffset dy="-2.03928"/>
<feComposite in2="hardAlpha" operator="arithmetic" k2="-1" k3="1"/>
<feColorMatrix type="matrix" values="0 0 0 0 0.258824 0 0 0 0 0.207843 0 0 0 0 0.0352941 0 0 0 0.57 0"/>
<feBlend mode="normal" in2="shape" result="effect1_innerShadow_2042_4064"/>
</filter>
<filter id="filter10_g_2042_4064" x="248.051" y="258.338" width="209.016" height="107.087" filterUnits="userSpaceOnUse" color-interpolation-filters="sRGB">
<feFlood flood-opacity="0" result="BackgroundImageFix"/>
<feBlend mode="normal" in="SourceGraphic" in2="BackgroundImageFix" result="shape"/>
<feTurbulence type="fractalNoise" baseFrequency="0.12736871838569641 0.12736871838569641" numOctaves="3" seed="5311" />
<feDisplacementMap in="shape" scale="11.623885154724121" xChannelSelector="R" yChannelSelector="G" result="displacedImage" width="100%" height="100%" />
<feMerge result="effect1_texture_2042_4064">
<feMergeNode in="displacedImage"/>
</feMerge>
</filter>
<filter id="filter11_dg_2042_4064" x="77.6634" y="246.589" width="293.657" height="159.063" filterUnits="userSpaceOnUse" color-interpolation-filters="sRGB">
<feFlood flood-opacity="0" result="BackgroundImageFix"/>
<feColorMatrix in="SourceAlpha" type="matrix" values="0 0 0 0 0 0 0 0 0 0 0 0 0 0 0 0 0 0 127 0" result="hardAlpha"/>
<feOffset dy="4.07856"/>
<feGaussianBlur stdDeviation="16.824"/>
<feComposite in2="hardAlpha" operator="out"/>
<feColorMatrix type="matrix" values="0 0 0 0 0 0 0 0 0 0 0 0 0 0 0 0 0 0 0.17 0"/>
<feBlend mode="normal" in2="BackgroundImageFix" result="effect1_dropShadow_2042_4064"/>
<feBlend mode="normal" in="SourceGraphic" in2="effect1_dropShadow_2042_4064" result="shape"/>
<feTurbulence type="fractalNoise" baseFrequency="0.12736871838569641 0.12736871838569641" numOctaves="3" seed="5311" />
<feDisplacementMap in="shape" scale="11.623885154724121" xChannelSelector="R" yChannelSelector="G" result="displacedImage" width="100%" height="100%" />
<feMerge result="effect2_texture_2042_4064">
<feMergeNode in="displacedImage"/>
</feMerge>
</filter>
<filter id="filter12_dg_2042_4064" x="0.493895" y="152.251" width="116.974" height="51.1457" filterUnits="userSpaceOnUse" color-interpolation-filters="sRGB">
<feFlood flood-opacity="0" result="BackgroundImageFix"/>
<feColorMatrix in="SourceAlpha" type="matrix" values="0 0 0 0 0 0 0 0 0 0 0 0 0 0 0 0 0 0 127 0" result="hardAlpha"/>
<feOffset dy="4.58838"/>
<feGaussianBlur stdDeviation="3.00794"/>
<feComposite in2="hardAlpha" operator="out"/>
<feColorMatrix type="matrix" values="0 0 0 0 0 0 0 0 0 0 0 0 0 0 0 0 0 0 0.17 0"/>
<feBlend mode="normal" in2="BackgroundImageFix" result="effect1_dropShadow_2042_4064"/>
<feBlend mode="normal" in="SourceGraphic" in2="effect1_dropShadow_2042_4064" result="shape"/>
<feTurbulence type="fractalNoise" baseFrequency="0.12736871838569641 0.12736871838569641" numOctaves="3" seed="5311" />
<feDisplacementMap in="shape" scale="11.623885154724121" xChannelSelector="R" yChannelSelector="G" result="displacedImage" width="100%" height="100%" />
<feMerge result="effect2_texture_2042_4064">
<feMergeNode in="displacedImage"/>
</feMerge>
</filter>
<filter id="filter13_dg_2042_4064" x="149.109" y="169.773" width="117.974" height="51.1457" filterUnits="userSpaceOnUse" color-interpolation-filters="sRGB">
<feFlood flood-opacity="0" result="BackgroundImageFix"/>
<feColorMatrix in="SourceAlpha" type="matrix" values="0 0 0 0 0 0 0 0 0 0 0 0 0 0 0 0 0 0 127 0" result="hardAlpha"/>
<feOffset dy="4.58838"/>
<feGaussianBlur stdDeviation="3.00794"/>
<feComposite in2="hardAlpha" operator="out"/>
<feColorMatrix type="matrix" values="0 0 0 0 0 0 0 0 0 0 0 0 0 0 0 0 0 0 0.17 0"/>
<feBlend mode="normal" in2="BackgroundImageFix" result="effect1_dropShadow_2042_4064"/>
<feBlend mode="normal" in="SourceGraphic" in2="effect1_dropShadow_2042_4064" result="shape"/>
<feTurbulence type="fractalNoise" baseFrequency="0.12736871838569641 0.12736871838569641" numOctaves="3" seed="5311" />
<feDisplacementMap in="shape" scale="11.623885154724121" xChannelSelector="R" yChannelSelector="G" result="displacedImage" width="100%" height="100%" />
<feMerge result="effect2_texture_2042_4064">
<feMergeNode in="displacedImage"/>
</feMerge>
</filter>
<filter id="filter14_dg_2042_4064" x="66.7722" y="159.385" width="116.973" height="51.1457" filterUnits="userSpaceOnUse" color-interpolation-filters="sRGB">
<feFlood flood-opacity="0" result="BackgroundImageFix"/>
<feColorMatrix in="SourceAlpha" type="matrix" values="0 0 0 0 0 0 0 0 0 0 0 0 0 0 0 0 0 0 127 0" result="hardAlpha"/>
<feOffset dy="4.58838"/>
<feGaussianBlur stdDeviation="3.00794"/>
<feComposite in2="hardAlpha" operator="out"/>
<feColorMatrix type="matrix" values="0 0 0 0 0 0 0 0 0 0 0 0 0 0 0 0 0 0 0.17 0"/>
<feBlend mode="normal" in2="BackgroundImageFix" result="effect1_dropShadow_2042_4064"/>
<feBlend mode="normal" in="SourceGraphic" in2="effect1_dropShadow_2042_4064" result="shape"/>
<feTurbulence type="fractalNoise" baseFrequency="0.12736871838569641 0.12736871838569641" numOctaves="3" seed="5311" />
<feDisplacementMap in="shape" scale="11.623885154724121" xChannelSelector="R" yChannelSelector="G" result="displacedImage" width="100%" height="100%" />
<feMerge result="effect2_texture_2042_4064">
<feMergeNode in="displacedImage"/>
</feMerge>
</filter>
<filter id="filter15_dg_2042_4064" x="201.366" y="176.671" width="83.9644" height="50.1462" filterUnits="userSpaceOnUse" color-interpolation-filters="sRGB">
<feFlood flood-opacity="0" result="BackgroundImageFix"/>
<feColorMatrix in="SourceAlpha" type="matrix" values="0 0 0 0 0 0 0 0 0 0 0 0 0 0 0 0 0 0 127 0" result="hardAlpha"/>
<feOffset dy="4.58838"/>
<feGaussianBlur stdDeviation="3.00794"/>
<feComposite in2="hardAlpha" operator="out"/>
<feColorMatrix type="matrix" values="0 0 0 0 0 0 0 0 0 0 0 0 0 0 0 0 0 0 0.17 0"/>
<feBlend mode="normal" in2="BackgroundImageFix" result="effect1_dropShadow_2042_4064"/>
<feBlend mode="normal" in="SourceGraphic" in2="effect1_dropShadow_2042_4064" result="shape"/>
<feTurbulence type="fractalNoise" baseFrequency="0.12736871838569641 0.12736871838569641" numOctaves="3" seed="5311" />
<feDisplacementMap in="shape" scale="11.623885154724121" xChannelSelector="R" yChannelSelector="G" result="displacedImage" width="100%" height="100%" />
<feMerge result="effect2_texture_2042_4064">
<feMergeNode in="displacedImage"/>
</feMerge>
</filter>
<linearGradient id="paint0_linear_2042_4064" x1="474.261" y1="161.447" x2="217.312" y2="186.938" gradientUnits="userSpaceOnUse">
<stop stop-color="#8A8B7E"/>
<stop offset="0.708108" stop-color="#929B94"/>
</linearGradient>
<linearGradient id="paint1_linear_2042_4064" x1="140.981" y1="169.409" x2="140.981" y2="327.834" gradientUnits="userSpaceOnUse">
<stop stop-color="#D7C19E"/>
<stop offset="1" stop-color="#97A29D"/>
</linearGradient>
<linearGradient id="paint2_linear_2042_4064" x1="122.267" y1="44.6662" x2="191.603" y2="200.671" gradientUnits="userSpaceOnUse">
<stop stop-color="#FFCF8F" stop-opacity="0.99"/>
<stop offset="1" stop-opacity="0.21"/>
</linearGradient>
<linearGradient id="paint3_linear_2042_4064" x1="-39.41" y1="-65.7525" x2="208.043" y2="144.78" gradientUnits="userSpaceOnUse">
<stop offset="0.307472" stop-color="#97D5F2"/>
<stop offset="0.713892" stop-color="#6489AF"/>
<stop offset="0.746634" stop-color="#6082A9"/>
</linearGradient>
<linearGradient id="paint4_linear_2042_4064" x1="-5.8078" y1="-36.0913" x2="214.266" y2="163.448" gradientUnits="userSpaceOnUse">
<stop offset="0.233858"/>
<stop offset="0.274162" stop-opacity="0"/>
<stop offset="0.437285" stop-opacity="0.25"/>
<stop offset="0.486224" stop-opacity="0.83"/>
<stop offset="0.639372" stop-color="#FFBBBB" stop-opacity="0.05"/>
</linearGradient>
<linearGradient id="paint5_linear_2042_4064" x1="-22.7029" y1="-48.0545" x2="188.434" y2="119.19" gradientUnits="userSpaceOnUse">
<stop stop-color="#ECF7FD" stop-opacity="0.71"/>
<stop offset="1" stop-color="#FFDDDD" stop-opacity="0.22"/>
</linearGradient>
<linearGradient id="paint6_linear_2042_4064" x1="95.7239" y1="49.001" x2="204.399" y2="226.78" gradientUnits="userSpaceOnUse">
<stop stop-color="#3465B0"/>
<stop offset="0.288462" stop-color="#B7D3FE"/>
<stop offset="0.533654" stop-color="#5992D4"/>
<stop offset="0.831731" stop-color="#A7E5DE"/>
</linearGradient>
<linearGradient id="paint7_linear_2042_4064" x1="184.948" y1="42.1476" x2="223.694" y2="116.071" gradientUnits="userSpaceOnUse">
<stop stop-color="#7897A7"/>
<stop offset="1" stop-color="#97BBCE"/>
</linearGradient>
<linearGradient id="paint8_linear_2042_4064" x1="25.3635" y1="17.8437" x2="-3.18637" y2="22.4321" gradientUnits="userSpaceOnUse">
<stop stop-color="#9F9670"/>
<stop offset="1" stop-color="#1A1913"/>
</linearGradient>
<linearGradient id="paint9_linear_2042_4064" x1="364.706" y1="258.211" x2="362.998" y2="354.193" gradientUnits="userSpaceOnUse">
<stop offset="0.171397" stop-color="#3D674B"/>
<stop offset="1" stop-color="#70A772"/>
</linearGradient>
<linearGradient id="paint10_linear_2042_4064" x1="244.433" y1="266.446" x2="229.136" y2="368.62" gradientUnits="userSpaceOnUse">
<stop offset="0.171397" stop-color="#3D674B"/>
<stop offset="1" stop-color="#70A772"/>
</linearGradient>
<linearGradient id="paint11_linear_2042_4064" x1="66.0865" y1="147.587" x2="45.8612" y2="221.245" gradientUnits="userSpaceOnUse">
<stop stop-color="#70A772"/>
<stop offset="0.521241" stop-color="#3D674B"/>
</linearGradient>
<linearGradient id="paint12_linear_2042_4064" x1="215.241" y1="165.161" x2="195.129" y2="238.87" gradientUnits="userSpaceOnUse">
<stop stop-color="#70A772"/>
<stop offset="0.521241" stop-color="#3D674B"/>
</linearGradient>
<linearGradient id="paint13_linear_2042_4064" x1="132.356" y1="154.815" x2="112.131" y2="228.471" gradientUnits="userSpaceOnUse">
<stop stop-color="#70A772"/>
<stop offset="0.521241" stop-color="#3D674B"/>
</linearGradient>
<linearGradient id="paint14_linear_2042_4064" x1="248.996" y1="171.398" x2="223.606" y2="242.104" gradientUnits="userSpaceOnUse">
<stop stop-color="#70A772"/>
<stop offset="0.521241" stop-color="#3D674B"/>
</linearGradient>
</defs>
</svg>
