<svg width="200" height="318" viewBox="0 0 200 318" fill="none" xmlns="http://www.w3.org/2000/svg">
  <g filter="url(#filter0_i_1732_137)">
    <path d="M-46.7493 89.5451C-124.634 134.984 -67.4194 204.064 -25.9701 158.157C21.8662 105.176 58.1207 152.068 71.7975 130.98C85.4744 109.892 75.1502 58.7329 18.6161 59.1123C0.358047 52.1813 -33.0725 68.4568 -46.7493 89.5451Z" fill="url(#paint0_linear_1732_137)"/>
  </g>
  <path d="M2.74749 103.173C6.88642 111.596 9.81191 113.076 14.4015 114.859C16.3099 121.513 16.9312 124.515 15.6616 132.094C15.1485 127.58 13.3399 125.684 10.509 122.295C8.51363 120.546 6.49113 118.697 3.73059 115.029C1.5385 110.268 0.98524 107.986 0.918241 104.524L-1.13466 105.962C-0.163383 108.403 -0.38208 109.887 -0.881224 112.621C-3.2045 111.242 -4.37531 110.241 -6.12942 107.922L-7.15526 110.644C-0.694077 115.341 2.5369 118.666 6.42336 123.897C11.5995 129.575 12.8065 128.152 13.334 136.178C4.05779 121.872 -1.31842 124.191 -8.32537 113.002L-9.413 114.907C-8.22565 119.166 -6.8284 121.259 -2.82536 124.358C-8.61391 123.771 -11.6682 122.277 -17.0827 119.393L-15.7912 122.686C-9.25694 126.252 -5.26151 127.45 2.12245 128.96L7.46603 136.576L-1.98663 131.84L-2.45667 134.404C-2.40811 133.591 -2.41914 132.739 -2.50836 131.839C-3.55737 131.613 -5.12765 132.095 -6.81491 132.881C-8.02633 141.811 -11.9633 149.418 -12.0351 134.928C-13.1857 135.676 -14.1171 135.547 -14.7589 135.997C-16.1177 144.551 -10.1139 149.175 -13.0762 150.971C-14.0374 152.107 -18.3067 141.998 -19.089 142.985C-20.5943 144.887 -20.81 145.27 -21.6097 145.24C-18.5739 147.638 -20.4251 150.264 -20.902 151.719C-25.4782 155.536 -35.6665 158.144 -38.8215 158.115C-43.1969 161.82 -45.5125 168.789 -46.1666 169.438C-43.6854 168.165 -32.7739 164.186 -26.2748 162.059C-24.4357 160.071 -22.6684 157.9 -21.3065 157.366C-17.7582 156.396 -18.9259 158.746 -13.6592 158.166C12.1458 180.554 0.917863 186.647 -1.55472 194.38C-1.55472 233.5 -7.90151 231.624 -1.55525 266.5L31.0004 266.5C28.6199 257.381 26.5835 244.834 23.8206 231.956C25.1834 226.084 27.1581 223.366 31.0617 222.114C37.6399 200.529 42.1724 190.846 55.6322 172.578C62.2274 166.131 66.5564 163.268 75.7729 159.823C79.9245 156.331 82.4725 154.722 85.7211 149.798L92.411 141.474L87.8854 142.616C83.4611 148.296 80.8943 151.466 75.1518 156.895C70.4712 159.521 67.5678 160.315 62.2263 161.332C63.5074 156.892 63.8114 154.71 68.6377 147.631C72.9353 145.93 75.3241 144.924 78.7434 141.343L74.5724 139.39C73.1137 142.017 72.2219 143.472 69.4559 143.718C69.5445 142.101 69.7012 141.174 70.892 139.357L68.1199 138.967C63.9364 149.489 60.5752 157.124 53.7203 166.358C54.2563 161.714 54.9249 158.074 62.1705 139.821L58.3339 140.061C58.2292 145.798 54.7904 148.107 54.5634 153.151C53.9067 151.566 53.7104 150.587 53.8204 148.588C54.046 145.078 54.7349 143.247 56.2308 140.043L53.4583 139.944C55.5054 137.941 57.776 135.22 60.4455 131.42L59.4898 130.318C54.5082 133.964 52.8527 136.344 50.0041 135.515C56.777 130.748 59.4269 125.486 60.333 117.108L57.6206 117.54C55.5436 124.266 52.9159 128.252 44.0058 134.913C46.5242 128.648 48.1895 124.887 53.3429 117.318L49.2563 118.921C43.8823 125.25 41.1119 128.871 39.1078 135.779C38.949 128.03 37.3726 122.872 34.9057 115.05L31.2139 115.654L35.5571 132.739L35.656 139.666L30.9044 148.918C27.5241 152.988 27.2149 157.542 24.4911 158.611C21.6972 162.646 19.3434 169.756 14.0239 175.443C14.702 162.069 16.8277 153.727 20.0375 135.237C21.6118 125.473 21.2005 120.591 17.5798 113.612C22.525 109.925 24.8052 107.647 27.8396 103.044L25.7694 101.107C22.8406 106.839 20.7889 108.104 15.5233 111.041C14.6226 106.324 14.4891 104.885 17.1312 101.118L15.5691 100.468C13.3576 102.18 14.0183 106.45 11.807 108.91C12.0565 106.197 11.7511 102.776 10.6794 100.697L8.64901 100.859C9.97274 102.688 11.1151 105.996 8.75965 107.15C6.7168 107.952 5.45243 104.818 3.89253 102.091L2.74749 103.173ZM52.6091 140.745C51.0395 148.439 51.0865 151.704 51.5648 156.862C50.8375 162.811 49.7261 165.802 47.3989 170.953C41.223 180.956 37.6195 186.664 33.5837 195.159L20.6283 217.551C20.564 217.645 20.5019 217.739 20.4394 217.832C18.4941 210.648 16.1929 203.72 13.3361 197.609C14.5448 194.409 15.2215 191.47 15.4526 188.724L23.0171 177.556L37.0808 147.973C43.1923 145.635 47.1537 145.706 52.6091 140.745ZM-2.80191 136.883C3.46953 139.217 8.18814 141.41 10.3955 140.705C11.5073 141.755 11.8647 142.254 12.0814 143C10.0341 152.083 8.63398 157.233 5.93042 165.204C2.37025 160.899 -1.8404 156.464 -6.09762 151.4C-7.89719 146.401 -4.04696 142.659 -2.80191 136.883Z" fill="url(#paint1_linear_1732_137)"/>
  <g filter="url(#filter1_i_1732_137)">
    <path d="M-73.9985 159.244C-69.3218 171.167 -56.0794 177.126 -44.4209 172.553C-39.8921 142.699 -5.17878 150.405 -2.95187 131.377C-7.62858 119.453 -43.6081 111.858 -60.4503 125.008C-72.1089 129.581 -78.6752 147.32 -73.9985 159.244Z" fill="url(#paint2_linear_1732_137)"/>
  </g>
  <g filter="url(#filter2_i_1732_137)">
    <path d="M66.3557 120.447C58.1731 125.686 47.8845 138.511 51.2974 142.819C70.8008 142.596 85.2211 156.258 93.4036 151.019C101.586 145.78 104.101 129.884 94.6272 125.33C91.2143 121.022 74.5383 115.208 66.3557 120.447Z" fill="url(#paint3_linear_1732_137)"/>
  </g>
  <g filter="url(#filter3_i_1732_137)">
    <path d="M41.0059 97.2087C28.3297 105.325 22.6824 117.747 28.3922 124.955C59.4045 125.616 66.1537 144.561 78.8298 136.445C91.506 128.329 94.4719 102.529 79.1041 94.6019C73.3942 87.394 53.6821 89.0928 41.0059 97.2087Z" fill="url(#paint4_linear_1732_137)"/>
  </g>
  <g filter="url(#filter4_i_1732_137)">
    <path d="M-29.9423 108.264C-36.624 121.82 -33.82 126.534 -21.5727 129.603C12.2195 113.766 28.285 127.55 43.9502 121.406C50.6318 107.85 31.872 84.4934 8.66402 85.9222C-3.58326 82.8532 -23.2607 94.7088 -29.9423 108.264Z" fill="url(#paint5_linear_1732_137)"/>
  </g>
  <g filter="url(#filter5_i_1732_137)">
    <path d="M113.215 167.267C161.551 195.269 118.625 253.284 92.8101 225.15C63.0167 192.681 45.8527 226.052 37.3094 213.151C28.7661 200.249 37.7338 147.986 72.6816 148.456C83.9384 144.312 104.672 154.366 113.215 167.267Z" fill="url(#paint6_linear_1732_137)"/>
  </g>
  <path d="M91.9488 194.761C92.6632 195.221 93.2384 195.146 93.637 195.423C94.513 200.639 90.8216 203.429 92.6602 204.535C93.259 205.231 95.8554 199.092 96.3431 199.697C97.2817 200.862 97.4167 201.096 97.9109 201.081C96.0447 202.529 97.1994 204.135 97.5005 205.024C100.345 207.368 106.655 209 108.605 208.995C111.325 211.27 112.785 215.523 113.192 215.922C111.653 215.136 104.892 212.667 100.865 211.344C99.7202 210.126 98.6187 208.796 97.7746 208.465C95.5772 207.86 96.3089 209.295 93.0509 208.92C79.2493 220.693 82.7377 225.066 84.9032 229.115C88.02 228.024 91.3018 226.702 96.1649 224.901C100.557 223.33 102.846 223.064 106.355 223.998C107.676 221.519 108.552 220.323 110.445 218.589L111.502 219.31C109.078 221.101 108.652 222.105 107.703 224.654C109.954 224.615 110.63 224.543 112.167 223.055L112.588 223.672C111.968 224.787 109.942 224.889 108.976 226.072C110.211 225.717 111.817 225.537 112.862 225.813L112.945 226.707C111.997 226.299 110.379 226.106 110.028 227.232C109.816 228.19 111.362 228.452 112.744 228.88L112.333 229.475C108.117 228.448 107.206 227.315 106.025 225.488C102.8 225.267 101.363 225.271 97.9574 226.511C100.084 226.323 101.102 226.933 102.889 227.852C103.852 228.557 104.864 229.266 106.775 230.128C109.146 230.645 110.244 230.677 111.851 230.391L111.344 231.412C110.141 231.213 109.472 231.442 108.246 231.907C109.064 232.789 109.618 233.205 110.826 233.754L109.647 234.447C106.974 232.074 105.185 230.977 102.465 229.769C99.4378 228.042 100.002 227.389 96.2497 227.891C103.585 230.609 102.93 233.151 108.648 235.169L107.851 235.813C105.79 235.686 104.713 235.271 102.969 233.819C103.69 236.274 104.618 237.461 106.372 239.545L104.749 239.285C102.593 236.778 101.729 235.156 100.458 232.093L96.5211 230.47L99.4447 234.137L97.2019 234.99C95.6254 232.464 94.229 230.604 94.3841 229.577C93.8121 229.191 93.554 229.081 93.1926 229.055C89.7815 230.502 87.6309 231.495 84.9526 232.909C77.0195 253.658 80.683 253.222 77.0205 273.8L56.3098 269.651C59.0777 258.942 60.385 246.321 66.3287 233.65C64.8721 229.908 65.5743 226.682 67.49 223.723L59.3281 207.039C52.79 206.887 49.55 208.849 41.567 201.747L42.2704 200.823C46.0585 202.026 47.3332 203.175 49.46 201.995C44.3119 200.481 42.2513 197.712 41.4577 192.548L43.4998 192.207C45.1498 196.045 47.1761 198.002 53.9542 200.243C51.9791 196.8 50.6781 194.769 46.7078 191.091L49.796 191.187C53.9154 194.021 56.0441 195.711 57.6419 199.683C57.6562 194.68 58.7695 191.015 60.5151 185.439L63.2947 184.985L60.2656 196.925L60.2854 201.389L63.9769 206.238C66.569 208.076 66.8631 210.926 68.9216 210.99C70.4523 212.378 71.8373 214.813 73.9739 216.98C78.7718 213.025 84.562 209.216 88.3488 204.768C89.7274 200.931 85.5367 198.278 86.047 192.838C86.6945 192.705 87.6669 193.006 88.7132 193.491C89.4997 198.936 91.9656 203.585 91.9488 194.761Z" fill="url(#paint7_linear_1732_137)"/>
  <g filter="url(#filter6_i_1732_137)">
    <path d="M130.353 209.831C127.512 217.073 119.352 220.646 112.126 217.811C109.2 199.611 87.7752 204.157 86.3183 192.559C89.1588 185.317 111.367 180.843 121.834 188.923C129.06 191.757 133.193 202.589 130.353 209.831Z" fill="url(#paint8_linear_1732_137)"/>
  </g>
  <g filter="url(#filter7_i_1732_137)">
    <path d="M59.624 179.183C67.494 184.179 71.0373 191.768 67.5382 196.134C48.371 196.406 44.279 207.916 36.409 202.919C28.5391 197.923 26.5968 182.197 36.0629 177.434C39.5619 173.068 51.7541 174.186 59.624 179.183Z" fill="url(#paint9_linear_1732_137)"/>
  </g>
  <g filter="url(#filter8_i_1732_137)">
    <path d="M110.81 243.15C102.093 244.668 95.0442 239.094 95.3095 234.65C109.721 223.835 102.803 221.735 108.81 216.65C117.526 215.132 128.258 222.366 123.678 230.356C123.412 234.8 119.526 241.633 110.81 243.15Z" fill="url(#paint10_linear_1732_137)"/>
  </g>
  <g filter="url(#filter9_i_1732_137)">
    <path d="M197.001 306.341C195.512 305.417 193.334 305.008 191.944 304.03C190.167 302.779 190.343 301.216 189.35 299.827C187.94 297.852 185.803 297.549 182.805 296.855C179.857 296.172 177.435 294.661 174.59 293.77C171.044 292.659 166.658 292.411 164.141 290.479C162.811 289.458 162.347 288.189 162.026 286.986C161.706 285.782 161.457 284.539 160.428 283.417C156.097 278.689 144.183 284.055 140.847 279.406C138.59 276.26 133.616 275.123 128.977 274.351C124.34 273.58 114.14 263.262 104.864 261.719C95.5881 260.175 84.6416 263.894 81.2637 262.716C77.8847 261.537 70.9153 253.297 67.6976 248.76C64.4806 244.222 58.871 244.52 55.292 244.54C51.714 244.559 51.1646 238.312 41.6521 235.805C32.1395 233.298 23.1621 239.501 19.0981 240.055C15.0336 240.61 10.5956 238.64 8.4634 239.516C6.33159 240.393 5.58384 244.886 2.34165 245.271C-0.89929 245.655 -8.91577 243.705 -11.373 241.756C-13.8289 239.808 -16.6721 237.797 -19.0531 240.171C-21.4341 242.545 -27.7807 244.876 -29.8006 242.692C-30.1206 242.346 -30.7982 241.907 -31.7102 241.418L-42 303.242C53.2808 318.756 106.211 320.743 199.922 314.576C199.609 313.695 199.41 312.812 199.34 311.939C199.186 310.024 199.413 307.839 197.001 306.341Z" fill="url(#paint11_linear_1732_137)"/>
  </g>
  <defs>
    <filter id="filter0_i_1732_137" x="-88.1246" y="54.745" width="165.335" height="118.527" filterUnits="userSpaceOnUse" color-interpolation-filters="sRGB">
      <feFlood flood-opacity="0" result="BackgroundImageFix"/>
      <feBlend mode="normal" in="SourceGraphic" in2="BackgroundImageFix" result="shape"/>
      <feColorMatrix in="SourceAlpha" type="matrix" values="0 0 0 0 0 0 0 0 0 0 0 0 0 0 0 0 0 0 127 0" result="hardAlpha"/>
      <feOffset dx="-6.66601" dy="-62.0141"/>
      <feGaussianBlur stdDeviation="1.3736"/>
      <feComposite in2="hardAlpha" operator="arithmetic" k2="-1" k3="1"/>
      <feColorMatrix type="matrix" values="0 0 0 0 0.033221 0 0 0 0 0.577712 0 0 0 0 0.468814 0 0 0 0.25 0"/>
      <feBlend mode="normal" in2="shape" result="effect1_innerShadow_1732_137"/>
    </filter>
    <filter id="filter1_i_1732_137" x="-75.5181" y="116.484" width="74.1824" height="57.6082" filterUnits="userSpaceOnUse" color-interpolation-filters="sRGB">
      <feFlood flood-opacity="0" result="BackgroundImageFix"/>
      <feBlend mode="normal" in="SourceGraphic" in2="BackgroundImageFix" result="shape"/>
      <feColorMatrix in="SourceAlpha" type="matrix" values="0 0 0 0 0 0 0 0 0 0 0 0 0 0 0 0 0 0 127 0" result="hardAlpha"/>
      <feOffset dx="11.918" dy="-13.938"/>
      <feGaussianBlur stdDeviation="0.808001"/>
      <feComposite in2="hardAlpha" operator="arithmetic" k2="-1" k3="1"/>
      <feColorMatrix type="matrix" values="0 0 0 0 0 0 0 0 0 0.310904 0 0 0 0 0.339168 0 0 0 0.25 0"/>
      <feBlend mode="normal" in2="shape" result="effect1_innerShadow_1732_137"/>
    </filter>
    <filter id="filter2_i_1732_137" x="49.0095" y="116.754" width="51.7005" height="35.4622" filterUnits="userSpaceOnUse" color-interpolation-filters="sRGB">
      <feFlood flood-opacity="0" result="BackgroundImageFix"/>
      <feBlend mode="normal" in="SourceGraphic" in2="BackgroundImageFix" result="shape"/>
      <feColorMatrix in="SourceAlpha" type="matrix" values="0 0 0 0 0 0 0 0 0 0 0 0 0 0 0 0 0 0 127 0" result="hardAlpha"/>
      <feOffset dx="-11.918" dy="-5.65601"/>
      <feGaussianBlur stdDeviation="0.808001"/>
      <feComposite in2="hardAlpha" operator="arithmetic" k2="-1" k3="1"/>
      <feColorMatrix type="matrix" values="0 0 0 0 0 0 0 0 0 0.295407 0 0 0 0 0.361722 0 0 0 0.25 0"/>
      <feBlend mode="normal" in2="shape" result="effect1_innerShadow_1732_137"/>
    </filter>
    <filter id="filter3_i_1732_137" x="23.2158" y="87.0972" width="66.3027" height="51.3652" filterUnits="userSpaceOnUse" color-interpolation-filters="sRGB">
      <feFlood flood-opacity="0" result="BackgroundImageFix"/>
      <feBlend mode="normal" in="SourceGraphic" in2="BackgroundImageFix" result="shape"/>
      <feColorMatrix in="SourceAlpha" type="matrix" values="0 0 0 0 0 0 0 0 0 0 0 0 0 0 0 0 0 0 127 0" result="hardAlpha"/>
      <feOffset dx="-11.514" dy="-14.544"/>
      <feGaussianBlur stdDeviation="1.4746"/>
      <feComposite in2="hardAlpha" operator="arithmetic" k2="-1" k3="1"/>
      <feColorMatrix type="matrix" values="0 0 0 0 0 0 0 0 0 0.349947 0 0 0 0 0.256628 0 0 0 0.25 0"/>
      <feBlend mode="normal" in2="shape" result="effect1_innerShadow_1732_137"/>
    </filter>
    <filter id="filter4_i_1732_137" x="-33.4741" y="83.8176" width="78.7925" height="45.7849" filterUnits="userSpaceOnUse" color-interpolation-filters="sRGB">
      <feFlood flood-opacity="0" result="BackgroundImageFix"/>
      <feBlend mode="normal" in="SourceGraphic" in2="BackgroundImageFix" result="shape"/>
      <feColorMatrix in="SourceAlpha" type="matrix" values="0 0 0 0 0 0 0 0 0 0 0 0 0 0 0 0 0 0 127 0" result="hardAlpha"/>
      <feOffset dy="-24.442"/>
      <feGaussianBlur stdDeviation="0.808001"/>
      <feComposite in2="hardAlpha" operator="arithmetic" k2="-1" k3="1"/>
      <feColorMatrix type="matrix" values="0 0 0 0 0.0261306 0 0 0 0 0.405801 0 0 0 0 0.440317 0 0 0 0.25 0"/>
      <feBlend mode="normal" in2="shape" result="effect1_innerShadow_1732_137"/>
    </filter>
    <filter id="filter5_i_1732_137" x="32.5937" y="145.808" width="102.554" height="86.8477" filterUnits="userSpaceOnUse" color-interpolation-filters="sRGB">
      <feFlood flood-opacity="0" result="BackgroundImageFix"/>
      <feBlend mode="normal" in="SourceGraphic" in2="BackgroundImageFix" result="shape"/>
      <feColorMatrix in="SourceAlpha" type="matrix" values="0 0 0 0 0 0 0 0 0 0 0 0 0 0 0 0 0 0 127 0" result="hardAlpha"/>
      <feOffset dx="-4.13159" dy="-38.4363"/>
      <feGaussianBlur stdDeviation="0.851358"/>
      <feComposite in2="hardAlpha" operator="arithmetic" k2="-1" k3="1"/>
      <feColorMatrix type="matrix" values="0 0 0 0 0.033221 0 0 0 0 0.577712 0 0 0 0 0.468814 0 0 0 0.25 0"/>
      <feBlend mode="normal" in2="shape" result="effect1_innerShadow_1732_137"/>
    </filter>
    <filter id="filter6_i_1732_137" x="86.3184" y="183.611" width="45.9396" height="35.1725" filterUnits="userSpaceOnUse" color-interpolation-filters="sRGB">
      <feFlood flood-opacity="0" result="BackgroundImageFix"/>
      <feBlend mode="normal" in="SourceGraphic" in2="BackgroundImageFix" result="shape"/>
      <feColorMatrix in="SourceAlpha" type="matrix" values="0 0 0 0 0 0 0 0 0 0 0 0 0 0 0 0 0 0 127 0" result="hardAlpha"/>
      <feOffset dx="7.38678" dy="-8.63878"/>
      <feGaussianBlur stdDeviation="0.500799"/>
      <feComposite in2="hardAlpha" operator="arithmetic" k2="-1" k3="1"/>
      <feColorMatrix type="matrix" values="0 0 0 0 0 0 0 0 0 0.310904 0 0 0 0 0.339168 0 0 0 0.25 0"/>
      <feBlend mode="normal" in2="shape" result="effect1_innerShadow_1732_137"/>
    </filter>
    <filter id="filter7_i_1732_137" x="27.8791" y="172.888" width="41.0081" height="31.2869" filterUnits="userSpaceOnUse" color-interpolation-filters="sRGB">
      <feFlood flood-opacity="0" result="BackgroundImageFix"/>
      <feBlend mode="normal" in="SourceGraphic" in2="BackgroundImageFix" result="shape"/>
      <feColorMatrix in="SourceAlpha" type="matrix" values="0 0 0 0 0 0 0 0 0 0 0 0 0 0 0 0 0 0 127 0" result="hardAlpha"/>
      <feOffset dx="-7.13638" dy="-9.01437"/>
      <feGaussianBlur stdDeviation="0.913957"/>
      <feComposite in2="hardAlpha" operator="arithmetic" k2="-1" k3="1"/>
      <feColorMatrix type="matrix" values="0 0 0 0 0 0 0 0 0 0.349947 0 0 0 0 0.256628 0 0 0 0.25 0"/>
      <feBlend mode="normal" in2="shape" result="effect1_innerShadow_1732_137"/>
    </filter>
    <filter id="filter8_i_1732_137" x="95.3022" y="215.446" width="29.4697" height="27.9596" filterUnits="userSpaceOnUse" color-interpolation-filters="sRGB">
      <feFlood flood-opacity="0" result="BackgroundImageFix"/>
      <feBlend mode="normal" in="SourceGraphic" in2="BackgroundImageFix" result="shape"/>
      <feColorMatrix in="SourceAlpha" type="matrix" values="0 0 0 0 0 0 0 0 0 0 0 0 0 0 0 0 0 0 127 0" result="hardAlpha"/>
      <feOffset dy="-15.1492"/>
      <feGaussianBlur stdDeviation="0.500799"/>
      <feComposite in2="hardAlpha" operator="arithmetic" k2="-1" k3="1"/>
      <feColorMatrix type="matrix" values="0 0 0 0 0.0261306 0 0 0 0 0.405801 0 0 0 0 0.440317 0 0 0 0.25 0"/>
      <feBlend mode="normal" in2="shape" result="effect1_innerShadow_1732_137"/>
    </filter>
    <filter id="filter9_i_1732_137" x="-42" y="235.21" width="245.536" height="86.2315" filterUnits="userSpaceOnUse" color-interpolation-filters="sRGB">
      <feFlood flood-opacity="0" result="BackgroundImageFix"/>
      <feBlend mode="normal" in="SourceGraphic" in2="BackgroundImageFix" result="shape"/>
      <feColorMatrix in="SourceAlpha" type="matrix" values="0 0 0 0 0 0 0 0 0 0 0 0 0 0 0 0 0 0 127 0" result="hardAlpha"/>
      <feOffset dx="28.011" dy="10.3912"/>
      <feGaussianBlur stdDeviation="1.80716"/>
      <feComposite in2="hardAlpha" operator="arithmetic" k2="-1" k3="1"/>
      <feColorMatrix type="matrix" values="0 0 0 0 1 0 0 0 0 0.992506 0 0 0 0 0.550387 0 0 0 0.25 0"/>
      <feBlend mode="normal" in2="shape" result="effect1_innerShadow_1732_137"/>
    </filter>
    <linearGradient id="paint0_linear_1732_137" x1="-14.0554" y1="32.2905" x2="17.5462" y2="142.501" gradientUnits="userSpaceOnUse">
      <stop offset="0.202239" stop-color="#F7F6A7"/>
      <stop offset="0.791956" stop-color="#3C784D"/>
    </linearGradient>
    <linearGradient id="paint1_linear_1732_137" x1="-4.95213" y1="49.0725" x2="53.1176" y2="273.902" gradientUnits="userSpaceOnUse">
      <stop stop-color="#3D5A44"/>
      <stop offset="0.358286" stop-color="#4B5C42"/>
      <stop offset="0.64294" stop-color="#8E6635" stop-opacity="0.74"/>
      <stop offset="0.970732" stop-color="#8E6635" stop-opacity="0"/>
    </linearGradient>
    <linearGradient id="paint2_linear_1732_137" x1="-72.6373" y1="125.988" x2="-37.7152" y2="172.189" gradientUnits="userSpaceOnUse">
      <stop stop-color="#9CBF7C"/>
      <stop offset="0.741107" stop-color="#326F40"/>
    </linearGradient>
    <linearGradient id="paint3_linear_1732_137" x1="51.0406" y1="5.27944" x2="99.2142" y2="148.514" gradientUnits="userSpaceOnUse">
      <stop stop-color="#9FC480"/>
      <stop offset="0.950658" stop-color="#527A4A"/>
    </linearGradient>
    <linearGradient id="paint4_linear_1732_137" x1="52.3596" y1="76.7495" x2="75.0559" y2="142.865" gradientUnits="userSpaceOnUse">
      <stop stop-color="#A1C682"/>
      <stop offset="1" stop-color="#266741"/>
    </linearGradient>
    <linearGradient id="paint5_linear_1732_137" x1="-13.5359" y1="77.6851" x2="5.88017" y2="131.527" gradientUnits="userSpaceOnUse">
      <stop offset="0.252677" stop-color="#A3C984"/>
      <stop offset="1" stop-color="#3D653A"/>
    </linearGradient>
    <linearGradient id="paint6_linear_1732_137" x1="92.7652" y1="132.259" x2="73.4414" y2="199.174" gradientUnits="userSpaceOnUse">
      <stop offset="0.202239" stop-color="#F7F6A7"/>
      <stop offset="0.791956" stop-color="#3C784D"/>
    </linearGradient>
    <linearGradient id="paint7_linear_1732_137" x1="94.5574" y1="144.745" x2="61.9494" y2="280.888" gradientUnits="userSpaceOnUse">
      <stop stop-color="#3D5A44"/>
      <stop offset="0.358286" stop-color="#4B5C42"/>
      <stop offset="0.64294" stop-color="#8E6635" stop-opacity="0.74"/>
      <stop offset="0.970732" stop-color="#8E6635" stop-opacity="0"/>
    </linearGradient>
    <linearGradient id="paint8_linear_1732_137" x1="129.371" y1="189.571" x2="108.276" y2="217.784" gradientUnits="userSpaceOnUse">
      <stop stop-color="#9CBF7C"/>
      <stop offset="0.741107" stop-color="#326F40"/>
    </linearGradient>
    <linearGradient id="paint9_linear_1732_137" x1="52.5194" y1="166.674" x2="38.699" y2="206.821" gradientUnits="userSpaceOnUse">
      <stop stop-color="#A1C682"/>
      <stop offset="1" stop-color="#266741"/>
    </linearGradient>
    <linearGradient id="paint10_linear_1732_137" x1="124.702" y1="238.571" x2="107.713" y2="219.542" gradientUnits="userSpaceOnUse">
      <stop offset="0.252677" stop-color="#A3C984"/>
      <stop offset="1" stop-color="#3D653A"/>
    </linearGradient>
    <linearGradient id="paint11_linear_1732_137" x1="95.7731" y1="180.868" x2="93.1405" y2="339.933" gradientUnits="userSpaceOnUse">
      <stop offset="0.336379" stop-color="#427F1E"/>
      <stop offset="0.877253" stop-color="#92C16B"/>
    </linearGradient>
  </defs>
</svg>
