<svg width="1061" height="1259" viewBox="0 0 1061 1259" fill="none" xmlns="http://www.w3.org/2000/svg">
  <g filter="url(#filter0_f_1732_298)">
    <mask id="path-1-inside-1_1732_298" fill="white">
      <path d="M60.5357 32.6369C3.56939 25.8033 -49.1232 47.4454 -78.275 84.8113C-133.661 86.8045 -181.046 129.742 -187.987 187.596C-190.997 212.69 -185.947 236.856 -174.913 257.407C-179.933 259.98 -184.489 263.379 -188.383 267.446C-193.487 264.538 -199.292 262.564 -205.56 261.812C-217.623 260.365 -229.09 263.719 -237.834 270.294C-259.314 258.108 -297.057 254.369 -337.196 262.37C-394.387 273.772 -434.787 304.692 -427.432 331.433C-421.683 352.334 -388.46 364.495 -346.913 363.365C-355.416 375.387 -361.056 389.363 -362.888 404.63C-369.33 458.335 -326.216 507.67 -266.591 514.823C-243.737 517.564 -221.775 513.711 -203.016 504.892C-200.315 542.605 -165.824 575.278 -120.179 580.754C-96.2434 583.625 -73.5192 578.502 -55.6525 567.789C-42.5949 607.164 6.67558 640.523 68.7381 647.968C141.116 656.65 204.926 626.974 216.608 580.817C222.153 585 228.3 588.574 234.888 591.454C225.121 609.551 218.708 629.117 216.222 649.837C205.724 737.353 268.167 821.438 367.268 868.786C399.979 900.89 445.059 923.363 496.594 929.545C533.973 934.029 570.08 929.382 602.121 917.542C602.095 917.75 602.069 917.959 602.044 918.168C600.654 929.752 599.671 940.47 599.079 950.386C597.252 958.564 595.813 966.925 594.791 975.448C579.811 1100.32 659.559 1212.57 772.911 1226.17C886.264 1239.77 990.298 1149.56 1005.28 1024.69C1006.03 1018.4 1006.55 1012.14 1006.83 1005.92C1008.69 994.372 1010.45 981.559 1012.15 967.364C1021.8 886.901 1013.43 810.972 991.617 749.651C1014.56 744.216 1023.41 726.05 1028.44 684.138C1039.91 588.511 962.64 500.605 855.854 487.795C836.745 485.503 817.986 485.772 799.998 488.304C795.467 487.994 790.96 487.834 786.482 487.819C754.044 438.774 710.196 416.125 663.597 405.397C635.331 402.006 616.565 405.621 603.834 416.504C585.218 409.175 565.116 404.018 543.941 401.478C538.536 400.829 533.158 400.364 527.817 400.075C519.698 393.278 508.971 388.512 496.858 387.059C493.463 386.652 490.113 386.526 486.84 386.654C481.198 340.705 438.389 301.554 382.284 294.824C381.229 294.697 380.175 294.583 379.124 294.481C363.55 260.585 327.101 234.324 282.095 228.925C259.991 226.273 238.702 228.999 220.017 235.926C213.569 220.587 200.713 208.652 184.522 204.218C188.437 194.987 191.104 185.167 192.338 174.879C200.595 106.043 141.586 42.3596 60.5357 32.6369Z"/>
    </mask>
    <path d="M60.5357 32.6369C3.56939 25.8033 -49.1232 47.4454 -78.275 84.8113C-133.661 86.8045 -181.046 129.742 -187.987 187.596C-190.997 212.69 -185.947 236.856 -174.913 257.407C-179.933 259.98 -184.489 263.379 -188.383 267.446C-193.487 264.538 -199.292 262.564 -205.56 261.812C-217.623 260.365 -229.09 263.719 -237.834 270.294C-259.314 258.108 -297.057 254.369 -337.196 262.37C-394.387 273.772 -434.787 304.692 -427.432 331.433C-421.683 352.334 -388.46 364.495 -346.913 363.365C-355.416 375.387 -361.056 389.363 -362.888 404.63C-369.33 458.335 -326.216 507.67 -266.591 514.823C-243.737 517.564 -221.775 513.711 -203.016 504.892C-200.315 542.605 -165.824 575.278 -120.179 580.754C-96.2434 583.625 -73.5192 578.502 -55.6525 567.789C-42.5949 607.164 6.67558 640.523 68.7381 647.968C141.116 656.65 204.926 626.974 216.608 580.817C222.153 585 228.3 588.574 234.888 591.454C225.121 609.551 218.708 629.117 216.222 649.837C205.724 737.353 268.167 821.438 367.268 868.786C399.979 900.89 445.059 923.363 496.594 929.545C533.973 934.029 570.08 929.382 602.121 917.542C602.095 917.75 602.069 917.959 602.044 918.168C600.654 929.752 599.671 940.47 599.079 950.386C597.252 958.564 595.813 966.925 594.791 975.448C579.811 1100.32 659.559 1212.57 772.911 1226.17C886.264 1239.77 990.298 1149.56 1005.28 1024.69C1006.03 1018.4 1006.55 1012.14 1006.83 1005.92C1008.69 994.372 1010.45 981.559 1012.15 967.364C1021.8 886.901 1013.43 810.972 991.617 749.651C1014.56 744.216 1023.41 726.05 1028.44 684.138C1039.91 588.511 962.64 500.605 855.854 487.795C836.745 485.503 817.986 485.772 799.998 488.304C795.467 487.994 790.96 487.834 786.482 487.819C754.044 438.774 710.196 416.125 663.597 405.397C635.331 402.006 616.565 405.621 603.834 416.504C585.218 409.175 565.116 404.018 543.941 401.478C538.536 400.829 533.158 400.364 527.817 400.075C519.698 393.278 508.971 388.512 496.858 387.059C493.463 386.652 490.113 386.526 486.84 386.654C481.198 340.705 438.389 301.554 382.284 294.824C381.229 294.697 380.175 294.583 379.124 294.481C363.55 260.585 327.101 234.324 282.095 228.925C259.991 226.273 238.702 228.999 220.017 235.926C213.569 220.587 200.713 208.652 184.522 204.218C188.437 194.987 191.104 185.167 192.338 174.879C200.595 106.043 141.586 42.3596 60.5357 32.6369Z" fill="url(#paint0_linear_1732_298)"/>
    <path d="M60.5357 32.6369L60.7786 30.6122L60.5357 32.6369ZM-78.275 84.8113L-76.6671 86.0657L-77.2518 86.815L-78.2016 86.8492L-78.275 84.8113ZM-187.987 187.596L-190.011 187.353L-187.987 187.596ZM-174.913 257.407L-173.117 256.442L-172.133 258.273L-173.983 259.221L-174.913 257.407ZM-188.383 267.446L-186.91 268.856L-188.01 270.006L-189.392 269.218L-188.383 267.446ZM-205.56 261.812L-205.317 259.788L-205.56 261.812ZM-237.834 270.294L-236.608 271.924L-237.677 272.728L-238.84 272.068L-237.834 270.294ZM-337.196 262.37L-337.594 260.37L-337.196 262.37ZM-427.432 331.433L-429.398 331.974L-427.432 331.433ZM-346.913 363.365L-346.969 361.327L-342.895 361.216L-345.248 364.543L-346.913 363.365ZM-362.888 404.63L-364.913 404.387L-362.888 404.63ZM-266.591 514.823L-266.833 516.848L-266.591 514.823ZM-203.016 504.892L-203.883 503.046L-201.194 501.782L-200.982 504.746L-203.016 504.892ZM-120.179 580.754L-120.422 582.779L-120.179 580.754ZM-55.6525 567.789L-56.7011 566.04L-54.5181 564.731L-53.7169 567.147L-55.6525 567.789ZM68.7381 647.968L68.4952 649.992L68.7381 647.968ZM216.608 580.817L214.631 580.317L215.384 577.34L217.836 579.189L216.608 580.817ZM234.888 591.454L235.705 589.586L237.735 590.473L236.683 592.423L234.888 591.454ZM216.222 649.837L214.198 649.594L216.222 649.837ZM367.268 868.786L368.147 866.946L368.453 867.093L368.696 867.331L367.268 868.786ZM496.594 929.545L496.351 931.57L496.594 929.545ZM602.121 917.542L601.414 915.629L604.547 914.471L604.145 917.787L602.121 917.542ZM602.044 918.168L600.019 917.925L602.044 918.168ZM599.079 950.386L601.114 950.508L601.105 950.671L601.069 950.83L599.079 950.386ZM594.791 975.448L592.766 975.205L594.791 975.448ZM772.911 1226.17L772.668 1228.2L772.911 1226.17ZM1005.28 1024.69L1007.3 1024.93L1005.28 1024.69ZM1006.83 1005.92L1004.79 1005.83L1004.8 1005.71L1004.81 1005.6L1006.83 1005.92ZM1012.15 967.364L1014.18 967.607L1012.15 967.364ZM991.617 749.651L989.696 750.334L988.934 748.191L991.147 747.666L991.617 749.651ZM1028.44 684.138L1030.46 684.381L1028.44 684.138ZM855.854 487.795L856.097 485.77L855.854 487.795ZM799.998 488.304L800.282 490.324L800.071 490.353L799.859 490.339L799.998 488.304ZM786.482 487.819L786.475 489.858L785.384 489.855L784.781 488.944L786.482 487.819ZM663.597 405.397L663.84 403.372L663.948 403.385L664.055 403.41L663.597 405.397ZM603.834 416.504L605.159 418.054L604.228 418.85L603.087 418.401L603.834 416.504ZM543.941 401.478L544.184 399.453L543.941 401.478ZM527.817 400.075L527.707 402.111L527.029 402.074L526.508 401.638L527.817 400.075ZM496.858 387.059L497.101 385.035L496.858 387.059ZM486.84 386.654L486.92 388.692L485.044 388.766L484.816 386.903L486.84 386.654ZM382.284 294.824L382.527 292.799L382.284 294.824ZM379.124 294.481L378.926 296.511L377.76 296.398L377.27 295.333L379.124 294.481ZM282.095 228.925L282.338 226.9L282.095 228.925ZM220.017 235.926L220.726 237.838L218.894 238.517L218.137 236.716L220.017 235.926ZM184.522 204.218L183.984 206.185L181.734 205.569L182.645 203.422L184.522 204.218ZM192.338 174.879L194.363 175.122L194.363 175.122L192.338 174.879ZM60.5357 32.6369L60.2928 34.6617C3.95165 27.9031 -48.0045 49.3268 -76.6671 86.0657L-78.275 84.8113L-79.8829 83.5569C-50.242 45.564 3.18724 23.7036 60.7786 30.6122L60.5357 32.6369ZM-78.275 84.8113L-78.2016 86.8492C-132.569 88.8058 -179.139 130.967 -185.962 187.839L-187.987 187.596L-190.011 187.353C-182.953 128.516 -134.753 84.8032 -78.3483 82.7733L-78.275 84.8113ZM-187.987 187.596L-185.962 187.839C-188.921 212.506 -183.958 236.252 -173.117 256.442L-174.913 257.407L-176.71 258.371C-187.937 237.461 -193.073 212.875 -190.011 187.353L-187.987 187.596ZM-174.913 257.407L-173.983 259.221C-178.8 261.691 -183.172 264.953 -186.91 268.856L-188.383 267.446L-189.856 266.036C-185.805 261.805 -181.066 258.269 -175.844 255.592L-174.913 257.407ZM-188.383 267.446L-189.392 269.218C-194.263 266.443 -199.808 264.556 -205.802 263.837L-205.56 261.812L-205.317 259.788C-198.776 260.572 -192.712 262.633 -187.373 265.674L-188.383 267.446ZM-205.56 261.812L-205.802 263.837C-217.339 262.453 -228.281 265.662 -236.608 271.924L-237.834 270.294L-239.059 268.665C-229.899 261.776 -217.906 258.277 -205.317 259.788L-205.56 261.812ZM-237.834 270.294L-238.84 272.068C-259.725 260.22 -296.904 256.418 -336.797 264.37L-337.196 262.37L-337.594 260.37C-297.209 252.319 -258.904 255.997 -236.827 268.521L-237.834 270.294ZM-337.196 262.37L-336.797 264.37C-365.167 270.026 -389.254 280.504 -405.279 292.769C-421.431 305.13 -428.797 318.779 -425.466 330.892L-427.432 331.433L-429.398 331.974C-433.422 317.346 -424.266 302.164 -407.758 289.53C-391.124 276.799 -366.416 266.116 -337.594 260.37L-337.196 262.37ZM-427.432 331.433L-425.466 330.892C-422.841 340.434 -413.82 348.347 -399.86 353.759C-385.961 359.147 -367.554 361.887 -346.969 361.327L-346.913 363.365L-346.858 365.404C-367.82 365.974 -386.797 363.198 -401.334 357.562C-415.809 351.951 -426.274 343.333 -429.398 331.974L-427.432 331.433ZM-346.913 363.365L-345.248 364.543C-353.564 376.301 -359.074 389.958 -360.863 404.872L-362.888 404.63L-364.913 404.387C-363.039 388.768 -357.268 374.474 -348.578 362.188L-346.913 363.365ZM-362.888 404.63L-360.863 404.872C-367.148 457.266 -325.06 505.755 -266.348 512.798L-266.591 514.823L-266.833 516.848C-327.373 509.585 -371.512 459.404 -364.913 404.387L-362.888 404.63ZM-266.591 514.823L-266.348 512.798C-243.873 515.494 -222.296 511.702 -203.883 503.046L-203.016 504.892L-202.148 506.737C-221.254 515.719 -243.601 519.635 -266.833 516.848L-266.591 514.823ZM-203.016 504.892L-200.982 504.746C-198.366 541.272 -164.839 573.343 -119.936 578.729L-120.179 580.754L-120.422 582.779C-166.808 577.214 -202.264 543.938 -205.05 505.037L-203.016 504.892ZM-120.179 580.754L-119.936 578.729C-96.4326 581.549 -74.1653 576.512 -56.7011 566.04L-55.6525 567.789L-54.6038 569.538C-72.8732 580.493 -96.0542 585.702 -120.422 582.779L-120.179 580.754ZM-55.6525 567.789L-53.7169 567.147C-41.0063 605.475 7.33648 638.548 68.981 645.943L68.7381 647.968L68.4952 649.992C6.01454 642.497 -44.1836 608.852 -57.5881 568.431L-55.6525 567.789ZM68.7381 647.968L68.981 645.943C104.844 650.245 138.507 645.031 164.586 633.102C190.687 621.163 208.989 602.608 214.631 580.317L216.608 580.817L218.585 581.318C212.545 605.183 193.101 624.544 166.282 636.811C139.441 649.089 105.01 654.373 68.4952 649.992L68.7381 647.968ZM216.608 580.817L217.836 579.189C223.249 583.273 229.257 586.767 235.705 589.586L234.888 591.454L234.071 593.323C227.343 590.382 221.057 586.728 215.38 582.445L216.608 580.817ZM234.888 591.454L236.683 592.423C227.031 610.304 220.701 629.625 218.247 650.08L216.222 649.837L214.198 649.594C216.715 628.609 223.21 608.798 233.094 590.486L234.888 591.454ZM216.222 649.837L218.247 650.08C207.894 736.389 269.475 819.803 368.147 866.946L367.268 868.786L366.389 870.626C266.859 823.073 203.555 738.318 214.198 649.594L216.222 649.837ZM367.268 868.786L368.696 867.331C401.081 899.114 445.742 921.391 496.837 927.52L496.594 929.545L496.351 931.57C444.376 925.335 398.877 902.666 365.839 870.242L367.268 868.786ZM496.594 929.545L496.837 927.52C533.896 931.966 569.677 927.357 601.414 915.629L602.121 917.542L602.828 919.455C570.483 931.407 534.051 936.092 496.351 931.57L496.594 929.545ZM602.121 917.542L604.145 917.787C604.115 918.04 604.096 918.178 604.068 918.411L602.044 918.168L600.019 917.925C600.041 917.741 600.076 917.46 600.096 917.297L602.121 917.542ZM602.044 918.168L604.068 918.411C602.683 929.961 601.704 940.637 601.114 950.508L599.079 950.386L597.043 950.264C597.639 940.302 598.625 929.544 600.019 917.925L602.044 918.168ZM599.079 950.386L601.069 950.83C599.257 958.942 597.83 967.236 596.815 975.691L594.791 975.448L592.766 975.205C593.797 966.614 595.247 958.186 597.089 949.941L599.079 950.386ZM594.791 975.448L596.815 975.691C581.948 1099.63 661.1 1210.7 773.154 1224.15L772.911 1226.17L772.668 1228.2C658.018 1214.44 577.675 1101.01 592.766 975.205L594.791 975.448ZM772.911 1226.17L773.154 1224.15C885.208 1237.59 988.384 1148.39 1003.25 1024.45L1005.28 1024.69L1007.3 1024.93C992.211 1150.73 887.319 1241.95 772.668 1228.2L772.911 1226.17ZM1005.28 1024.69L1003.25 1024.45C1004 1018.21 1004.51 1012 1004.79 1005.83L1006.83 1005.92L1008.86 1006.01C1008.58 1012.28 1008.06 1018.59 1007.3 1024.93L1005.28 1024.69ZM1006.83 1005.92L1004.81 1005.6C1006.68 994.081 1008.43 981.297 1010.13 967.121L1012.15 967.364L1014.18 967.607C1012.47 981.821 1010.71 994.662 1008.84 1006.25L1006.83 1005.92ZM1012.15 967.364L1010.13 967.121C1019.74 886.934 1011.39 811.325 989.696 750.334L991.617 749.651L993.539 748.967C1015.46 810.619 1023.86 886.869 1014.18 967.607L1012.15 967.364ZM991.617 749.651L991.147 747.666C1002.07 745.079 1009.53 739.535 1014.95 729.596C1020.47 719.499 1023.9 704.812 1026.41 683.895L1028.44 684.138L1030.46 684.381C1027.94 705.376 1024.44 720.728 1018.53 731.55C1012.54 742.531 1004.11 748.788 992.087 751.635L991.617 749.651ZM1028.44 684.138L1026.41 683.895C1037.72 589.59 961.495 502.522 855.611 489.82L855.854 487.795L856.097 485.77C963.785 498.689 1042.09 587.431 1030.46 684.381L1028.44 684.138ZM855.854 487.795L855.611 489.82C836.678 487.549 818.096 487.816 800.282 490.324L799.998 488.304L799.714 486.285C817.876 483.728 836.812 483.457 856.097 485.77L855.854 487.795ZM799.998 488.304L799.859 490.339C795.372 490.032 790.909 489.873 786.475 489.858L786.482 487.819L786.489 485.78C791.011 485.795 795.562 485.957 800.137 486.27L799.998 488.304ZM786.482 487.819L784.781 488.944C752.698 440.437 709.361 418.025 663.14 407.384L663.597 405.397L664.055 403.41C711.03 414.224 755.389 437.111 788.183 486.694L786.482 487.819ZM663.597 405.397L663.354 407.422C635.295 404.056 617.242 407.725 605.159 418.054L603.834 416.504L602.509 414.953C615.887 403.518 635.367 399.957 663.84 403.372L663.597 405.397ZM603.834 416.504L603.087 418.401C584.633 411.136 564.701 406.022 543.698 403.503L543.941 401.478L544.184 399.453C565.532 402.014 585.803 407.213 604.581 414.606L603.834 416.504ZM543.941 401.478L543.698 403.503C538.337 402.86 533.004 402.398 527.707 402.111L527.817 400.075L527.928 398.038C533.313 398.331 538.734 398.799 544.184 399.453L543.941 401.478ZM527.817 400.075L526.508 401.638C518.703 395.105 508.35 390.492 496.615 389.084L496.858 387.059L497.101 385.035C509.592 386.533 520.693 391.451 529.126 398.511L527.817 400.075ZM496.858 387.059L496.615 389.084C493.329 388.69 490.086 388.568 486.92 388.692L486.84 386.654L486.76 384.617C490.14 384.484 493.598 384.614 497.101 385.035L496.858 387.059ZM486.84 386.654L484.816 386.903C479.312 342.074 437.419 303.492 382.041 296.849L382.284 294.824L382.527 292.799C439.36 299.617 483.085 339.336 488.864 386.406L486.84 386.654ZM382.284 294.824L382.041 296.849C381.001 296.724 379.963 296.612 378.926 296.511L379.124 294.481L379.321 292.452C380.387 292.555 381.456 292.671 382.527 292.799L382.284 294.824ZM379.124 294.481L377.27 295.333C362.028 262.156 326.24 236.274 281.853 230.95L282.095 228.925L282.338 226.9C327.962 232.373 365.073 259.014 380.977 293.63L379.124 294.481ZM282.095 228.925L281.853 230.95C260.066 228.336 239.103 231.026 220.726 237.838L220.017 235.926L219.308 234.013C238.301 226.973 259.917 224.211 282.338 226.9L282.095 228.925ZM220.017 235.926L218.137 236.716C211.915 221.915 199.53 210.442 183.984 206.185L184.522 204.218L185.061 202.252C201.896 206.861 215.223 219.26 221.897 235.135L220.017 235.926ZM184.522 204.218L182.645 203.422C186.486 194.365 189.102 184.73 190.313 174.636L192.338 174.879L194.363 175.122C193.105 185.604 190.387 195.61 186.4 205.015L184.522 204.218ZM192.338 174.879L190.313 174.636C198.401 107.216 140.547 44.2889 60.2928 34.6617L60.5357 32.6369L60.7786 30.6122C142.624 40.4302 202.79 104.871 194.363 175.122L192.338 174.879Z" fill="#FF5959" mask="url(#path-1-inside-1_1732_298)"/>
  </g>
  <defs>
    <filter id="filter0_f_1732_298" x="-458.886" y="0.794611" width="1519.04" height="1257.32" filterUnits="userSpaceOnUse" color-interpolation-filters="sRGB">
      <feFlood flood-opacity="0" result="BackgroundImageFix"/>
      <feBlend mode="normal" in="SourceGraphic" in2="BackgroundImageFix" result="shape"/>
      <feGaussianBlur stdDeviation="15.2946" result="effect1_foregroundBlur_1732_298"/>
    </filter>
    <linearGradient id="paint0_linear_1732_298" x1="361.115" y1="68.694" x2="230.078" y2="1161.05" gradientUnits="userSpaceOnUse">
      <stop stop-color="#A7D7FD"/>
      <stop offset="1" stop-color="#E1F2FF" stop-opacity="0.09"/>
    </linearGradient>
  </defs>
</svg>
