<svg width="179" height="192" viewBox="0 0 179 192" fill="none" xmlns="http://www.w3.org/2000/svg">
<g filter="url(#filter0_dg_3146_3415)">
<path d="M92.5272 105.617C90.835 105.038 88.044 104.802 83.4384 105.192C77.1707 106.351 74.8353 107.131 75.2128 108.984C73.6076 108.834 71.5127 108.844 68.7782 109.076C62.8958 110.164 60.4769 110.918 60.5136 112.538C59.5295 112.459 58.2627 112.472 56.6327 112.607C54.4882 112.996 53.0798 113.314 52.2831 113.709C51.0115 112.755 48.2057 112.191 42.0087 112.652C34.4561 113.879 32.7943 114.607 34.7577 117.213C35.664 119.665 39.1386 120.164 42.0087 120.393C44.1565 120.393 46.1645 120.189 47.8759 119.834C47.8783 119.838 47.8802 119.842 47.8827 119.846C48.8184 122.728 52.4055 123.314 55.3681 123.584C58.5085 123.584 61.359 123.1 63.4599 122.316C64.9816 123.142 66.9929 123.421 68.7782 123.584C72.6733 123.584 76.1226 122.841 78.2479 121.702C79.7046 122.36 81.508 122.604 83.1259 122.752C85.3972 122.752 87.5171 122.498 89.3114 122.062C90.8584 123.423 93.402 123.799 95.6024 124C102.061 124 107.297 121.963 107.297 119.45C107.297 119.078 107.296 118.695 107.258 118.315C108.233 118.972 109.656 119.173 110.903 119.284C112.276 119.284 113.561 119.137 114.658 118.886C116.448 119.854 119.865 119.965 122.404 119.12C125.009 118.253 128.147 117.209 123.955 115.671C122.964 115.463 122.143 115.316 121.419 115.237C122.814 114.357 123.806 113.411 120.629 112.872C118.088 112.775 116.968 112.896 115.773 113.772C114.902 113.614 113.719 113.553 112.114 113.635C112.226 113.441 112.287 113.24 112.287 113.033C112.287 112.201 112.286 111.278 111.128 110.701C111.634 109.892 111.444 109.173 108.668 109.023C106.221 109.198 105.188 109.426 104.505 110.337C104.492 110.339 104.479 110.341 104.467 110.344C104.315 107.162 103.119 104.047 93.7079 105.273C93.2961 105.39 92.9026 105.505 92.5272 105.617Z" fill="url(#paint0_linear_3146_3415)"/>
</g>
<path d="M68.8174 118.737H91.2385C91.2385 118.737 91.2385 129.763 91.2385 132.521C91.2385 135.279 84.3216 137.812 79.6882 137.76C75.3127 137.711 68.8174 136.106 68.8174 132.521C68.8174 128.936 68.8174 118.737 68.8174 118.737Z" fill="url(#paint1_linear_3146_3415)"/>
<g filter="url(#filter1_f_3146_3415)">
<ellipse cx="80.0279" cy="118.397" rx="11.2105" ry="5.77513" fill="#959FB9"/>
</g>
<ellipse cx="80.0279" cy="117.038" rx="11.2105" ry="5.77513" fill="url(#paint2_linear_3146_3415)"/>
<g filter="url(#filter2_d_3146_3415)">
<path d="M68.8174 118.737H91.2385C91.2385 118.737 91.2385 129.763 91.2385 132.521C91.2385 135.279 84.3216 137.812 79.6882 137.76C75.3127 137.711 68.8174 136.106 68.8174 132.521C68.8174 128.936 68.8174 118.737 68.8174 118.737Z" fill="url(#paint3_linear_3146_3415)"/>
</g>
<g filter="url(#filter3_f_3146_3415)">
<ellipse cx="80.0279" cy="118.397" rx="11.2105" ry="5.77513" fill="#959FB9"/>
</g>
<ellipse cx="80.0279" cy="117.038" rx="11.2105" ry="5.77513" fill="url(#paint4_linear_3146_3415)"/>
<g filter="url(#filter4_i_3146_3415)">
<path d="M75.9515 87.4834H84.1046L85.1238 116.699C85.1238 116.699 82.7458 117.589 79.3486 117.378C75.9515 117.167 74.2529 116.019 74.2529 116.019L75.9515 87.4834Z" fill="#5B6366"/>
</g>
<g filter="url(#filter5_i_3146_3415)">
<path d="M75.9515 87.4834H84.1046L85.1238 116.699C85.1238 116.699 82.7458 117.589 79.3486 117.378C75.9515 117.167 74.2529 116.019 74.2529 116.019L75.9515 87.4834Z" fill="#5B6366"/>
</g>
<g filter="url(#filter6_i_3146_3415)">
<path d="M90.7619 54.4148C98.5752 58.7559 98.3206 76.8614 89.0633 87.7067C79.806 98.5521 65.3728 105.033 57.8096 98.5776C50.2464 92.1219 51.9495 75.4518 61.2068 64.6065C70.4641 53.7611 81.5896 49.3187 90.7619 54.4148Z" fill="#E4F3FA"/>
</g>
<g filter="url(#filter7_i_3146_3415)">
<path d="M90.7619 54.4148C98.5752 58.7559 98.3206 76.8614 89.0633 87.7067C79.806 98.5521 65.3728 105.033 57.8096 98.5776C50.2464 92.1219 51.9495 75.4518 61.2068 64.6065C70.4641 53.7611 81.5896 49.3187 90.7619 54.4148Z" fill="#E4F3FA"/>
</g>
<g filter="url(#filter8_i_3146_3415)">
<mask id="mask0_3146_3415" style="mask-type:alpha" maskUnits="userSpaceOnUse" x="55" y="55" width="34" height="40">
<path d="M84.4915 57.0724C90.2203 60.1523 89.9368 74.463 82.4532 83.2304C76.4749 90.2342 64.7189 98.2917 59.0132 93.4215C54.2107 89.3222 54.2107 76.6457 62.751 66.245C68.0821 59.9997 77.499 53.3133 84.4915 57.0724Z" fill="#EBF7FF"/>
</mask>
<g mask="url(#mask0_3146_3415)">
<g filter="url(#filter9_d_3146_3415)">
<mask id="mask1_3146_3415" style="mask-type:alpha" maskUnits="userSpaceOnUse" x="30" y="54" width="105" height="43">
<rect width="83.1611" height="45.8036" transform="matrix(0.999848 -0.0174524 -0.453991 0.891007 50.8848 55.6431)" fill="#D9D9D9"/>
</mask>
<g mask="url(#mask1_3146_3415)">
<g filter="url(#filter10_d_3146_3415)">
<rect width="83.1611" height="45.8036" transform="matrix(0.999848 -0.0174524 -0.453991 0.891007 50.8848 55.6431)" fill="url(#paint5_linear_3146_3415)"/>
<rect x="0.178834" y="0.286194" width="82.5058" height="45.1483" transform="matrix(0.999848 -0.0174524 -0.453991 0.891007 51.0147 55.6774)" stroke="url(#paint6_linear_3146_3415)" stroke-width="0.655241"/>
</g>
<path d="M72.6656 61.9452C73.5071 61.5905 74.3284 61.5762 74.8203 61.9076L79.4513 65.0272C79.9432 65.3586 80.0309 65.9853 79.6814 66.6713L76.3907 73.1297C76.0411 73.8157 75.3075 74.4568 74.466 74.8114L66.5443 78.1501C65.7029 78.5048 64.8815 78.5191 64.3896 78.1878L59.7586 75.0681C59.2667 74.7367 59.179 74.11 59.5285 73.424L62.8193 66.9656C63.1688 66.2796 63.9025 65.6386 64.7439 65.2839L72.6656 61.9452Z" fill="#60ECFF" fill-opacity="0.26"/>
<path d="M59.2047 73.8172C60.0461 73.4626 60.8675 73.4483 61.3594 73.7796L65.9904 76.8993C66.4823 77.2306 66.57 77.8574 66.2205 78.5434L62.9297 85.0018C62.5802 85.6878 61.8465 86.3288 61.0051 86.6835L53.0834 90.0222C52.2419 90.3769 51.4206 90.3912 50.9287 90.0598L46.2977 86.9402C45.8058 86.6088 45.7181 85.9821 46.0676 85.2961L49.3583 78.8377C49.7079 78.1517 50.4415 77.5106 51.283 77.156L59.2047 73.8172Z" fill="#60ECFF" fill-opacity="0.38"/>
<path d="M55.7281 49.8177C56.5696 49.4631 57.3909 49.4487 57.8828 49.7801L62.5138 52.8998C63.0057 53.2311 63.0934 53.8578 62.7439 54.5439L59.4532 61.0022C59.1036 61.6883 58.37 62.3293 57.5285 62.684L49.6068 66.0227C48.7654 66.3773 47.944 66.3917 47.4521 66.0603L42.8211 62.9407C42.3292 62.6093 42.2415 61.9826 42.591 61.2966L45.8818 54.8382C46.2313 54.1522 46.965 53.5111 47.8064 53.1565L55.7281 49.8177Z" fill="#60ECFF" fill-opacity="0.26"/>
<path d="M103.818 60.8871C104.659 60.5324 105.481 60.5181 105.973 60.8494L110.604 63.9691C111.096 64.3005 111.183 64.9272 110.834 65.6132L107.543 72.0716C107.193 72.7576 106.46 73.3987 105.618 73.7533L97.6967 77.092C96.8552 77.4467 96.0339 77.461 95.542 77.1297L90.9109 74.01C90.419 73.6786 90.3313 73.0519 90.6809 72.3659L93.9716 65.9075C94.3211 65.2215 95.0548 64.5805 95.8962 64.2258L103.818 60.8871Z" fill="#60ECFF" fill-opacity="0.38"/>
<path d="M75.8512 85.4774C76.6926 85.1228 77.514 85.1084 78.0059 85.4398L82.6369 88.5594C83.1288 88.8908 83.2165 89.5175 82.8669 90.2035L79.5762 96.6619C79.2267 97.3479 78.493 97.989 77.6516 98.3436L69.7299 101.682C68.8884 102.037 68.0671 102.051 67.5752 101.72L62.9441 98.6003C62.4522 98.269 62.3645 97.6423 62.7141 96.9562L66.0048 90.4979C66.3543 89.8118 67.088 89.1708 67.9294 88.8161L75.8512 85.4774Z" fill="#79EFFF" fill-opacity="0.24"/>
<path d="M89.2965 73.2914C90.1379 72.9367 90.9593 72.9224 91.4512 73.2537L96.0822 76.3734C96.5741 76.7048 96.6618 77.3315 96.3123 78.0175L93.0215 84.4759C92.672 85.1619 91.9383 85.8029 91.0969 86.1576L83.1752 89.4963C82.3337 89.851 81.5124 89.8653 81.0205 89.5339L76.3895 86.4143C75.8976 86.0829 75.8099 85.4562 76.1594 84.7702L79.4501 78.3118C79.7996 77.6258 80.5333 76.9847 81.3748 76.6301L89.2965 73.2914Z" fill="#5AD0FF" fill-opacity="0.38"/>
<g filter="url(#filter11_d_3146_3415)">
<path d="M102.04 49.2799C102.881 48.9254 103.703 48.911 104.195 49.2423L108.826 52.3618C108.936 52.4357 109.024 52.5254 109.093 52.6262C109.267 52.5213 109.449 52.4276 109.636 52.3485L117.558 49.0099C118.399 48.6553 119.221 48.6411 119.713 48.9723L124.344 52.0918C124.432 52.1509 124.507 52.2191 124.569 52.2957C124.711 52.2155 124.858 52.1435 125.008 52.0802L132.929 48.7416C133.771 48.387 134.593 48.3726 135.084 48.704L139.715 51.8235C140.207 52.1548 140.295 52.7817 139.945 53.4675L136.654 59.9264L136.584 60.0544C136.565 60.0868 136.544 60.119 136.523 60.1512C136.648 60.19 136.762 60.2427 136.861 60.31L141.492 63.4295C141.984 63.7608 142.072 64.3876 141.722 65.0735L138.431 71.5324L138.361 71.6604C137.989 72.2972 137.296 72.8816 136.507 73.214L128.585 76.5526L128.428 76.6148C128.291 76.6659 128.155 76.7064 128.021 76.7392C127.987 76.8913 127.93 77.0496 127.848 77.2114L124.557 83.6703L124.487 83.7983C124.419 83.9155 124.338 84.0307 124.249 84.1431C124.39 84.1827 124.519 84.2394 124.63 84.3141L129.261 87.4336C129.753 87.7649 129.84 88.3918 129.491 89.0776L126.2 95.5365L126.13 95.6645C125.758 96.3014 125.064 96.8857 124.275 97.2181L116.354 100.557L116.196 100.619C115.411 100.911 114.66 100.905 114.199 100.594L109.568 97.4748C109.48 97.4156 109.405 97.3469 109.343 97.2701C109.201 97.3502 109.055 97.4231 108.905 97.4864L100.983 100.825L100.825 100.887C100.04 101.18 99.2892 101.173 98.828 100.863L94.1969 97.7431C94.0645 97.6539 93.9632 97.5422 93.8901 97.4148C93.6847 97.547 93.4665 97.6644 93.24 97.7598L85.3184 101.098L85.1609 101.161C84.3756 101.453 83.6245 101.447 83.1634 101.136L78.5323 98.0166C78.4227 97.9427 78.334 97.8536 78.265 97.753C78.0912 97.8579 77.9095 97.9517 77.7219 98.0307L69.8002 101.369L69.6427 101.432C68.8574 101.724 68.1064 101.718 67.6453 101.407L63.0142 98.2874C62.9263 98.2282 62.8513 98.1595 62.7895 98.0827C62.6475 98.163 62.5006 98.2356 62.3502 98.299L54.4286 101.638L54.271 101.7C53.4856 101.992 52.7348 101.986 52.2736 101.675L47.6425 98.5557C47.5102 98.4666 47.4083 98.3555 47.3352 98.2282C47.1299 98.3603 46.9118 98.4771 46.6856 98.5725L38.7639 101.911L38.6064 101.973C37.8211 102.266 37.0701 102.259 36.609 101.949L31.9779 98.8292C31.9103 98.7836 31.852 98.7314 31.7998 98.6753C31.6893 98.7341 31.5766 98.7896 31.4614 98.8382L23.5397 102.177L23.3822 102.239C22.5969 102.532 21.8459 102.525 21.3848 102.214L16.7536 99.0949C16.2926 98.7843 16.1872 98.2139 16.4636 97.5787L16.5239 97.4509L19.8149 90.992C20.1645 90.3061 20.8979 89.665 21.7391 89.3104L29.6608 85.9718C29.7982 85.9139 29.935 85.8655 30.07 85.8258C30.0947 85.7024 30.1351 85.5748 30.1918 85.4442L30.2521 85.3164L33.5431 78.8575C33.6324 78.6824 33.7463 78.5098 33.8809 78.3445C33.7845 78.3088 33.6947 78.2644 33.6145 78.2103L28.9834 75.0908C28.5225 74.7802 28.4169 74.2097 28.6933 73.5747L28.7536 73.4468L32.0446 66.9879C32.3943 66.3022 33.1277 65.6608 33.9688 65.3063L41.8905 61.9677C42.1162 61.8726 42.3404 61.8029 42.5573 61.7569C42.5655 61.7364 42.5729 61.7158 42.5819 61.6952L42.6422 61.5674L45.9332 55.1085C46.2828 54.4227 47.0163 53.7815 47.8574 53.4268L55.7791 50.0883C56.6204 49.7337 57.4421 49.7195 57.934 50.0506L62.5651 53.1701C62.6324 53.2154 62.6921 53.2665 62.7441 53.3222C62.8542 53.2638 62.9669 53.2095 63.0817 53.1611L71.0033 49.8225C71.8446 49.468 72.6663 49.4537 73.1583 49.7849L77.7894 52.9044C77.8774 52.9637 77.9531 53.0323 78.0151 53.1091C78.157 53.0288 78.3039 52.9562 78.4543 52.8928L86.376 49.5542C87.2174 49.1996 88.039 49.1853 88.5309 49.5166L93.162 52.6361C93.2939 52.7248 93.3962 52.8352 93.4693 52.9618C93.6743 52.83 93.8925 52.7137 94.1184 52.6185L102.04 49.2799ZM21.9698 90.9544L18.6788 97.4133L23.31 100.533L31.2316 97.1942L34.5226 90.7353L29.8915 87.6158L21.9698 90.9544ZM37.1941 90.6886L33.9031 97.1476L38.5342 100.267L46.4559 96.9284L49.7469 90.4695L45.1157 87.35L37.1941 90.6886ZM52.8587 90.4152L49.5677 96.8741L54.1988 99.9936L62.1205 96.655L65.4115 90.1961L60.7803 87.0766L52.8587 90.4152ZM68.2304 90.1469L64.9394 96.6058L69.5705 99.7253L77.4921 96.3867L80.7831 89.9278L76.152 86.8083L68.2304 90.1469ZM83.7485 89.876L80.4575 96.3349L85.0886 99.4544L93.0103 96.1158L96.3013 89.6569L91.6702 86.5374L83.7485 89.876ZM99.4131 89.6026L96.1221 96.0615L100.753 99.181L108.675 95.8424L111.966 89.3835L107.335 86.264L99.4131 89.6026ZM114.784 89.3343L111.493 95.7932L116.124 98.9127L124.046 95.5741L127.337 89.1152L122.705 85.9957L114.784 89.3343ZM35.6981 78.8199L32.4071 85.2788L37.0382 88.3983L44.9598 85.0597L48.2508 78.6008L43.6197 75.4813L35.6981 78.8199ZM50.9223 78.5541L47.6313 85.0131L52.2624 88.1325L60.1841 84.7939L63.4751 78.335L58.844 75.2155L50.9223 78.5541ZM82.2515 78.0073L78.9605 84.4662L83.5916 87.5857L91.5133 84.2471L94.8043 77.7882L90.1732 74.6687L82.2515 78.0073ZM97.7697 77.7364L94.4787 84.1953L99.1098 87.3148L107.031 83.9762L110.322 77.5173L105.691 74.3978L97.7697 77.7364ZM113.141 77.4681L109.85 83.927L114.481 87.0465L122.403 83.7079L125.694 77.249L121.063 74.1295L113.141 77.4681ZM66.7338 78.2773L63.4428 84.7362L68.0739 87.8557L75.9956 84.5171L79.2866 78.0582L74.6555 74.9387L66.7338 78.2773ZM34.1996 66.9503L30.9086 73.4092L35.5397 76.5287L43.4613 73.1901L46.7523 66.7312L42.1212 63.6117L34.1996 66.9503ZM49.7187 66.6794L46.4277 73.1383L51.0588 76.2578L58.9805 72.9192L62.2715 66.4603L57.6403 63.3408L49.7187 66.6794ZM65.2358 66.4085L61.9449 72.8675L66.576 75.9869L74.4976 72.6484L77.7886 66.1894L73.1575 63.07L65.2358 66.4085ZM80.4611 66.1428L77.1701 72.6017L81.8012 75.7212L89.7228 72.3826L93.0138 65.9237L88.3827 62.8042L80.4611 66.1428ZM96.1257 65.8694L92.8347 72.3283L97.4658 75.4478L105.387 72.1092L108.678 65.6503L104.047 62.5308L96.1257 65.8694ZM111.645 65.5985L108.354 72.0574L112.985 75.1769L120.907 71.8383L124.198 65.3794L119.566 62.2599L111.645 65.5985ZM127.015 65.3302L123.725 71.7891L128.356 74.9086L136.277 71.57L139.568 65.1111L134.937 61.9916L127.015 65.3302ZM48.0881 55.0708L44.7972 61.5298L49.4283 64.6492L57.3499 61.3107L60.6409 54.8517L56.0098 51.7323L48.0881 55.0708ZM63.3124 54.8051L60.0214 61.264L64.6525 64.3835L72.5742 61.0449L75.8652 54.586L71.234 51.4665L63.3124 54.8051ZM78.685 54.5368L75.3941 60.9957L80.0252 64.1152L87.9468 60.7766L91.2378 54.3177L86.6067 51.1982L78.685 54.5368ZM109.867 53.9925L106.576 60.4514L111.207 63.5709L119.129 60.2323L122.42 53.7734L117.788 50.6539L109.867 53.9925ZM125.238 53.7242L121.948 60.1831L126.579 63.3026L134.5 59.964L137.791 53.5051L133.16 50.3856L125.238 53.7242ZM94.3491 54.2625L91.0581 60.7214L95.6892 63.8409L103.611 60.5023L106.902 54.0434L102.271 50.9239L94.3491 54.2625Z" fill="url(#paint7_linear_3146_3415)" fill-opacity="0.5" shape-rendering="crispEdges"/>
</g>
</g>
</g>
</g>
</g>
<g filter="url(#filter12_i_3146_3415)">
<mask id="mask2_3146_3415" style="mask-type:alpha" maskUnits="userSpaceOnUse" x="55" y="55" width="34" height="40">
<path d="M84.4915 57.0724C90.2203 60.1523 89.9368 74.463 82.4532 83.2304C76.4749 90.2342 64.7189 98.2917 59.0132 93.4215C54.2107 89.3222 54.2107 76.6457 62.751 66.245C68.0821 59.9997 77.499 53.3133 84.4915 57.0724Z" fill="#EBF7FF"/>
</mask>
<g mask="url(#mask2_3146_3415)">
<g filter="url(#filter13_d_3146_3415)">
<mask id="mask3_3146_3415" style="mask-type:alpha" maskUnits="userSpaceOnUse" x="30" y="54" width="105" height="43">
<rect width="83.1611" height="45.8036" transform="matrix(0.999848 -0.0174524 -0.453991 0.891007 50.8848 55.6431)" fill="#D9D9D9"/>
</mask>
<g mask="url(#mask3_3146_3415)">
<g filter="url(#filter14_d_3146_3415)">
<rect width="83.1611" height="45.8036" transform="matrix(0.999848 -0.0174524 -0.453991 0.891007 50.8848 55.6431)" fill="url(#paint8_linear_3146_3415)"/>
<rect x="0.178834" y="0.286194" width="82.5058" height="45.1483" transform="matrix(0.999848 -0.0174524 -0.453991 0.891007 51.0147 55.6774)" stroke="url(#paint9_linear_3146_3415)" stroke-width="0.655241"/>
</g>
<path d="M72.6656 61.9452C73.5071 61.5905 74.3284 61.5762 74.8203 61.9076L79.4513 65.0272C79.9432 65.3586 80.0309 65.9853 79.6814 66.6713L76.3907 73.1297C76.0411 73.8157 75.3075 74.4568 74.466 74.8114L66.5443 78.1501C65.7029 78.5048 64.8815 78.5191 64.3896 78.1878L59.7586 75.0681C59.2667 74.7367 59.179 74.11 59.5285 73.424L62.8193 66.9656C63.1688 66.2796 63.9025 65.6386 64.7439 65.2839L72.6656 61.9452Z" fill="#60ECFF" fill-opacity="0.26"/>
<path d="M59.2047 73.8172C60.0461 73.4626 60.8675 73.4483 61.3594 73.7796L65.9904 76.8993C66.4823 77.2306 66.57 77.8574 66.2205 78.5434L62.9297 85.0018C62.5802 85.6878 61.8465 86.3288 61.0051 86.6835L53.0834 90.0222C52.2419 90.3769 51.4206 90.3912 50.9287 90.0598L46.2977 86.9402C45.8058 86.6088 45.7181 85.9821 46.0676 85.2961L49.3583 78.8377C49.7079 78.1517 50.4415 77.5106 51.283 77.156L59.2047 73.8172Z" fill="#60ECFF" fill-opacity="0.38"/>
<path d="M55.7281 49.8177C56.5696 49.4631 57.3909 49.4487 57.8828 49.7801L62.5138 52.8998C63.0057 53.2311 63.0934 53.8578 62.7439 54.5439L59.4532 61.0022C59.1036 61.6883 58.37 62.3293 57.5285 62.684L49.6068 66.0227C48.7654 66.3773 47.944 66.3917 47.4521 66.0603L42.8211 62.9407C42.3292 62.6093 42.2415 61.9826 42.591 61.2966L45.8818 54.8382C46.2313 54.1522 46.965 53.5111 47.8064 53.1565L55.7281 49.8177Z" fill="#60ECFF" fill-opacity="0.26"/>
<path d="M103.818 60.8871C104.659 60.5324 105.481 60.5181 105.973 60.8494L110.604 63.9691C111.096 64.3005 111.183 64.9272 110.834 65.6132L107.543 72.0716C107.193 72.7576 106.46 73.3987 105.618 73.7533L97.6967 77.092C96.8552 77.4467 96.0339 77.461 95.542 77.1297L90.9109 74.01C90.419 73.6786 90.3313 73.0519 90.6809 72.3659L93.9716 65.9075C94.3211 65.2215 95.0548 64.5805 95.8962 64.2258L103.818 60.8871Z" fill="#60ECFF" fill-opacity="0.38"/>
<path d="M75.8512 85.4774C76.6926 85.1228 77.514 85.1084 78.0059 85.4398L82.6369 88.5594C83.1288 88.8908 83.2165 89.5175 82.8669 90.2035L79.5762 96.6619C79.2267 97.3479 78.493 97.989 77.6516 98.3436L69.7299 101.682C68.8884 102.037 68.0671 102.051 67.5752 101.72L62.9441 98.6003C62.4522 98.269 62.3645 97.6423 62.7141 96.9562L66.0048 90.4979C66.3543 89.8118 67.088 89.1708 67.9294 88.8161L75.8512 85.4774Z" fill="#79EFFF" fill-opacity="0.24"/>
<path d="M89.2965 73.2914C90.1379 72.9367 90.9593 72.9224 91.4512 73.2537L96.0822 76.3734C96.5741 76.7048 96.6618 77.3315 96.3123 78.0175L93.0215 84.4759C92.672 85.1619 91.9383 85.8029 91.0969 86.1576L83.1752 89.4963C82.3337 89.851 81.5124 89.8653 81.0205 89.5339L76.3895 86.4143C75.8976 86.0829 75.8099 85.4562 76.1594 84.7702L79.4501 78.3118C79.7996 77.6258 80.5333 76.9847 81.3748 76.6301L89.2965 73.2914Z" fill="#5AD0FF" fill-opacity="0.38"/>
<g filter="url(#filter15_d_3146_3415)">
<path d="M132.929 48.7412C133.77 48.3866 134.592 48.3724 135.084 48.7036L139.715 51.8231C140.207 52.1544 140.294 52.7812 139.945 53.4671L136.654 59.926L136.584 60.054C136.565 60.0864 136.544 60.1187 136.524 60.1508C136.648 60.1896 136.762 60.2424 136.862 60.3096L141.493 63.4291C141.985 63.7603 142.072 64.3874 141.723 65.0731L138.432 71.532L138.362 71.66C137.99 72.2967 137.296 72.8811 136.507 73.2136L128.586 76.5522L128.428 76.6145C128.291 76.6656 128.155 76.7069 128.021 76.7397C127.987 76.8916 127.93 77.0495 127.848 77.211L124.557 83.6699L124.487 83.7979C124.418 83.9153 124.338 84.0311 124.249 84.1436C124.39 84.1832 124.519 84.2398 124.63 84.3146L129.261 87.4341C129.753 87.7654 129.84 88.3922 129.491 89.0781L126.2 95.537L126.13 95.665C125.758 96.3019 125.064 96.8862 124.275 97.2186L116.354 100.557L116.196 100.619C115.411 100.912 114.66 100.905 114.199 100.595L109.568 97.4753C109.48 97.4162 109.406 97.3472 109.344 97.2705C109.202 97.3509 109.055 97.4235 108.905 97.4869L100.983 100.825L100.825 100.888C100.04 101.18 99.2892 101.174 98.828 100.863L94.1969 97.7436C94.0645 97.6544 93.9632 97.5427 93.8901 97.4152C93.6847 97.5475 93.4665 97.6649 93.24 97.7603L85.3184 101.099L85.1609 101.161C84.3756 101.454 83.6245 101.447 83.1634 101.137L78.5323 98.0171C78.4226 97.9431 78.3345 97.8534 78.2654 97.7526C78.0915 97.8576 77.9096 97.9521 77.7219 98.0312L69.8002 101.37L69.6427 101.432C68.8574 101.725 68.1064 101.718 67.6453 101.407L63.0142 98.2879C62.9263 98.2287 62.8514 98.1599 62.7895 98.0831C62.6475 98.1635 62.5006 98.2361 62.3502 98.2995L54.4286 101.638L54.271 101.7C53.4856 101.993 52.7348 101.986 52.2736 101.676L47.6425 98.5562C47.5102 98.4671 47.4083 98.356 47.3352 98.2287C47.13 98.3608 46.9118 98.4776 46.6856 98.5729L38.7639 101.912L38.6064 101.974C37.8211 102.266 37.0701 102.26 36.609 101.949L31.9779 98.8297C31.9103 98.7841 31.852 98.7319 31.7998 98.6758C31.6892 98.7346 31.5758 98.79 31.4604 98.8387L23.5387 102.177L23.3812 102.24C22.596 102.532 21.8449 102.525 21.3838 102.215L16.7527 99.0954C16.2918 98.7848 16.1862 98.2143 16.4626 97.5792L16.5229 97.4514L19.8139 90.9925C20.1634 90.3067 20.897 89.6655 21.7381 89.3109L29.6598 85.9723C29.7974 85.9143 29.9348 85.8661 30.07 85.8263C30.0948 85.7028 30.1354 85.5746 30.1923 85.4438L30.2526 85.316L33.5436 78.8571C33.6329 78.6819 33.7465 78.5095 33.8814 78.3441C33.7849 78.3085 33.6947 78.2649 33.6145 78.2108L28.9834 75.0913C28.5223 74.7807 28.417 74.2103 28.6933 73.5751L28.7536 73.4473L32.0446 66.9884C32.3942 66.3025 33.1276 65.6614 33.9688 65.3068L41.8905 61.9682C42.1163 61.873 42.3408 61.8025 42.5577 61.7565C42.5658 61.7362 42.5731 61.7161 42.5819 61.6957L42.6422 61.5679L45.9332 55.1089C46.2827 54.4232 47.0163 53.782 47.8574 53.4273L55.7791 50.0888C56.6205 49.7341 57.4421 49.7198 57.934 50.0511L62.5651 53.1706C62.6322 53.2158 62.6917 53.2663 62.7436 53.3219C62.8537 53.2633 62.9668 53.21 63.0817 53.1616L71.0033 49.823C71.8448 49.4684 72.6664 49.454 73.1583 49.7854L77.7894 52.9049C77.8773 52.9641 77.9522 53.0328 78.0141 53.1096C78.1563 53.0291 78.3036 52.9568 78.4543 52.8933L86.376 49.5547C87.2174 49.2001 88.039 49.1857 88.5309 49.5171L93.162 52.6365C93.2939 52.7253 93.3962 52.8356 93.4693 52.9623C93.6743 52.8304 93.8925 52.7142 94.1184 52.619L102.04 49.2804C102.881 48.9259 103.703 48.9115 104.195 49.2428L108.826 52.3623C108.936 52.4363 109.025 52.5257 109.094 52.6266C109.268 52.5218 109.45 52.428 109.637 52.349L117.559 49.0104C118.4 48.6558 119.222 48.6414 119.714 48.9728L124.345 52.0922C124.432 52.1511 124.507 52.2192 124.568 52.2953C124.71 52.2151 124.857 52.1431 125.007 52.0798L132.929 48.7412ZM21.9689 90.9549L18.6779 97.4138L23.309 100.533L31.2306 97.1947L34.5216 90.7358L29.8905 87.6163L21.9689 90.9549ZM37.1941 90.6891L33.9031 97.148L38.5342 100.268L46.4559 96.9289L49.7469 90.47L45.1157 87.3505L37.1941 90.6891ZM52.8587 90.4157L49.5677 96.8746L54.1988 99.9941L62.1205 96.6555L65.4115 90.1966L60.7803 87.0771L52.8587 90.4157ZM68.2304 90.1474L64.9394 96.6063L69.5705 99.7258L77.4921 96.3872L80.7831 89.9283L76.152 86.8088L68.2304 90.1474ZM83.7485 89.8765L80.4575 96.3354L85.0886 99.4549L93.0103 96.1163L96.3013 89.6574L91.6702 86.5379L83.7485 89.8765ZM99.4131 89.6031L96.1221 96.062L100.753 99.1815L108.675 95.8429L111.966 89.384L107.335 86.2645L99.4131 89.6031ZM114.784 89.3348L111.493 95.7937L116.124 98.9132L124.046 95.5746L127.337 89.1157L122.705 85.9962L114.784 89.3348ZM97.7687 77.7369L94.4777 84.1958L99.1088 87.3153L107.03 83.9767L110.321 77.5178L105.69 74.3983L97.7687 77.7369ZM35.6985 78.8195L32.4075 85.2784L37.0386 88.3979L44.9603 85.0593L48.2513 78.6004L43.6202 75.4809L35.6985 78.8195ZM50.9227 78.5537L47.6318 85.0127L52.2629 88.1321L60.1845 84.7936L63.4755 78.3346L58.8444 75.2152L50.9227 78.5537ZM66.7328 78.2778L63.4418 84.7367L68.073 87.8562L75.9946 84.5176L79.2856 78.0587L74.6545 74.9392L66.7328 78.2778ZM82.252 78.0069L78.961 84.4658L83.5921 87.5853L91.5137 84.2467L94.8047 77.7878L90.1736 74.6683L82.252 78.0069ZM113.141 77.4677L109.85 83.9267L114.481 87.0461L122.403 83.7075L125.694 77.2486L121.062 74.1291L113.141 77.4677ZM34.1996 66.9508L30.9086 73.4097L35.5397 76.5292L43.4613 73.1906L46.7523 66.7317L42.1212 63.6122L34.1996 66.9508ZM49.7187 66.6799L46.4277 73.1388L51.0588 76.2583L58.9805 72.9197L62.2715 66.4608L57.6403 63.3413L49.7187 66.6799ZM65.2358 66.409L61.9449 72.868L66.576 75.9874L74.4976 72.6489L77.7886 66.1899L73.1575 63.0704L65.2358 66.409ZM111.644 65.599L108.353 72.0579L112.984 75.1774L120.906 71.8388L124.197 65.3799L119.565 62.2604L111.644 65.599ZM80.4615 66.1424L77.1705 72.6013L81.8016 75.7208L89.7233 72.3822L93.0143 65.9233L88.3832 62.8038L80.4615 66.1424ZM96.1261 65.869L92.8351 72.3279L97.4662 75.4474L105.388 72.1088L108.679 65.6499L104.048 62.5304L96.1261 65.869ZM127.016 65.3298L123.725 71.7887L128.356 74.9082L136.278 71.5696L139.569 65.1107L134.938 61.9912L127.016 65.3298ZM48.0881 55.0713L44.7972 61.5303L49.4283 64.6497L57.3499 61.3111L60.6409 54.8522L56.0098 51.7327L48.0881 55.0713ZM63.3124 54.8056L60.0214 61.2645L64.6525 64.384L72.5742 61.0454L75.8652 54.5865L71.234 51.467L63.3124 54.8056ZM78.685 54.5373L75.3941 60.9962L80.0252 64.1157L87.9468 60.7771L91.2378 54.3181L86.6067 51.1987L78.685 54.5373ZM109.868 53.993L106.577 60.4519L111.208 63.5714L119.13 60.2328L122.421 53.7738L117.789 50.6544L109.868 53.993ZM94.3491 54.263L91.0581 60.7219L95.6892 63.8414L103.611 60.5028L106.902 54.0439L102.271 50.9244L94.3491 54.263ZM125.238 53.7238L121.947 60.1827L126.578 63.3022L134.5 59.9636L137.791 53.5047L133.16 50.3852L125.238 53.7238Z" fill="url(#paint10_linear_3146_3415)" fill-opacity="0.5" shape-rendering="crispEdges"/>
</g>
</g>
</g>
</g>
</g>
<path d="M108.061 95.5404C108.061 94.0497 107.656 91.4915 108.93 89.5776C110.298 87.522 112.116 85.9999 114.723 86C117.33 86.0001 125.151 86.0003 126.889 86C128.627 85.9997 130.849 87.4465 132.103 89.5776C133.241 91.5111 132.972 93.7516 132.972 95.5404C132.972 97.3292 132.972 125.95 132.972 128.335C132.972 130.72 125.835 134 120.517 134C115.199 134 108.061 130.72 108.061 128.335C108.061 125.95 108.061 97.0311 108.061 95.5404Z" fill="url(#paint11_linear_3146_3415)"/>
<path d="M121.077 91.1573C124.755 91.1575 126.764 87.5436 128.068 89.6703C129.251 91.5998 128.971 93.8355 128.971 95.6206C128.971 97.4057 128.971 125.967 128.971 128.347C128.971 130.727 124.152 134 120.475 134C116.799 134 117.399 91.1571 121.077 91.1573Z" fill="url(#paint12_linear_3146_3415)"/>
<g filter="url(#filter16_d_3146_3415)">
<path d="M114 65H128C128 65 128 87.2022 128 88.3708C128 89.5393 123.92 91 121 91C118.08 91 114 89.5393 114 88.3708C114 87.2022 114 65 114 65Z" fill="url(#paint13_linear_3146_3415)"/>
</g>
<path d="M90 39H151C151 39 151 40.8989 151 51.0758C151 61.2527 137.971 66 120.796 66C103.621 66 90 59.7692 90 51.0758C90 42.3824 90 39 90 39Z" fill="url(#paint14_linear_3146_3415)"/>
<path d="M151 37.6038C151 47.1072 138.078 53 122.869 53C107.66 53 90 47.1072 90 37.6038C90 28.1003 105.883 21 121.092 21C136.302 21 151 28.1003 151 37.6038Z" fill="url(#paint15_linear_3146_3415)"/>
<g filter="url(#filter17_di_3146_3415)">
<path d="M147 36.4906C147 44.2121 135.985 49 123.019 49C110.054 49 95 44.2121 95 36.4906C95 28.769 108.54 23 121.505 23C134.47 23 147 28.769 147 36.4906Z" fill="url(#paint16_linear_3146_3415)"/>
</g>
<line x1="114.486" y1="28.0522" x2="114.486" y2="36.1254" stroke="url(#paint17_linear_3146_3415)" stroke-width="5" stroke-linecap="round"/>
<path d="M111.696 29.7114L106.045 31.5477V26.7938" stroke="url(#paint18_linear_3146_3415)" stroke-width="5" stroke-linecap="round"/>
<g filter="url(#filter18_i_3146_3415)">
<circle cx="112.878" cy="13.9645" r="13.9645" fill="url(#paint19_linear_3146_3415)"/>
</g>
<g filter="url(#filter19_i_3146_3415)">
<circle cx="101.885" cy="21.3925" r="7.13079" fill="url(#paint20_linear_3146_3415)"/>
</g>
<line x1="2.5" y1="-2.5" x2="6.75175" y2="-2.5" transform="matrix(0 1 1 0 132.19 34.4653)" stroke="url(#paint21_linear_3146_3415)" stroke-width="5" stroke-linecap="round"/>
<g filter="url(#filter20_i_3146_3415)">
<circle cx="9.88255" cy="9.88255" r="9.88255" transform="matrix(-1 0 0 1 137.693 17.2329)" fill="url(#paint22_linear_3146_3415)"/>
</g>
<g filter="url(#filter21_i_3146_3415)">
<circle cx="5.04641" cy="5.04641" r="5.04641" transform="matrix(-1 0 0 1 140.638 27.3252)" fill="url(#paint23_linear_3146_3415)"/>
</g>
<g filter="url(#filter22_dg_3146_3415)">
<path d="M125.531 118.21C123.839 117.071 121.046 116.612 116.436 117.378C110.173 119.65 107.838 121.181 108.212 124.812C106.607 124.518 104.511 124.543 101.777 124.997C95.8954 127.131 93.4762 128.61 93.5126 131.789C92.5287 131.635 91.2625 131.66 89.6328 131.925C87.4906 132.686 86.0833 133.311 85.2861 134.085C84.0151 132.213 81.2073 131.11 75.0078 132.015C67.4553 134.421 65.7941 135.849 67.7578 140.962C68.664 145.774 72.1378 146.751 75.0078 147.202C77.1558 147.202 79.1644 146.802 80.8759 146.106C80.8782 146.112 80.8795 146.119 80.8818 146.126C81.8173 151.782 85.4045 152.932 88.3671 153.462C91.5084 153.462 94.3589 152.514 96.4599 150.976C97.9817 152.596 99.9918 153.143 101.777 153.462C105.673 153.462 109.122 152.005 111.247 149.77C112.704 151.062 114.507 151.539 116.125 151.828C118.397 151.828 120.516 151.332 122.31 150.477C123.857 153.147 126.4 153.884 128.601 154.278C135.059 154.278 140.296 150.281 140.296 145.352C140.296 144.622 140.295 143.871 140.257 143.126C141.232 144.416 142.655 144.808 143.902 145.027C145.277 145.027 146.563 144.742 147.662 144.248C149.452 146.145 152.866 146.362 155.404 144.704C158.009 143.003 161.147 140.953 156.955 137.936C155.965 137.528 155.144 137.236 154.421 137.082C155.814 135.356 156.801 133.503 153.627 132.445C151.085 132.256 149.967 132.491 148.772 134.212C147.901 133.901 146.719 133.782 145.113 133.942C145.225 133.562 145.286 133.167 145.286 132.762C145.286 131.129 145.284 129.317 144.126 128.185C144.632 126.597 144.442 125.187 141.667 124.894C139.219 125.236 138.187 125.684 137.504 127.472C137.491 127.476 137.478 127.481 137.466 127.486C137.314 121.243 136.118 115.13 126.707 117.536C126.297 117.765 125.905 117.99 125.531 118.21Z" fill="url(#paint24_linear_3146_3415)"/>
</g>
<defs>
<filter id="filter0_dg_3146_3415" x="0.35191" y="75.4305" width="159.296" height="86.2962" filterUnits="userSpaceOnUse" color-interpolation-filters="sRGB">
<feFlood flood-opacity="0" result="BackgroundImageFix"/>
<feColorMatrix in="SourceAlpha" type="matrix" values="0 0 0 0 0 0 0 0 0 0 0 0 0 0 0 0 0 0 127 0" result="hardAlpha"/>
<feOffset dy="4.07856"/>
<feGaussianBlur stdDeviation="16.824"/>
<feComposite in2="hardAlpha" operator="out"/>
<feColorMatrix type="matrix" values="0 0 0 0 0 0 0 0 0 0 0 0 0 0 0 0 0 0 0.17 0"/>
<feBlend mode="normal" in2="BackgroundImageFix" result="effect1_dropShadow_3146_3415"/>
<feBlend mode="normal" in="SourceGraphic" in2="effect1_dropShadow_3146_3415" result="shape"/>
<feTurbulence type="fractalNoise" baseFrequency="0.12736871838569641 0.12736871838569641" numOctaves="3" seed="5311" />
<feDisplacementMap in="shape" scale="11.623885154724121" xChannelSelector="R" yChannelSelector="G" result="displacedImage" width="100%" height="100%" />
<feMerge result="effect2_texture_3146_3415">
<feMergeNode in="displacedImage"/>
</feMerge>
</filter>
<filter id="filter1_f_3146_3415" x="68.0174" y="111.822" width="24.0209" height="13.1503" filterUnits="userSpaceOnUse" color-interpolation-filters="sRGB">
<feFlood flood-opacity="0" result="BackgroundImageFix"/>
<feBlend mode="normal" in="SourceGraphic" in2="BackgroundImageFix" result="shape"/>
<feGaussianBlur stdDeviation="0.4" result="effect1_foregroundBlur_3146_3415"/>
</filter>
<filter id="filter2_d_3146_3415" x="56.3174" y="108.237" width="49.4209" height="46.0239" filterUnits="userSpaceOnUse" color-interpolation-filters="sRGB">
<feFlood flood-opacity="0" result="BackgroundImageFix"/>
<feColorMatrix in="SourceAlpha" type="matrix" values="0 0 0 0 0 0 0 0 0 0 0 0 0 0 0 0 0 0 127 0" result="hardAlpha"/>
<feOffset dx="1" dy="3"/>
<feGaussianBlur stdDeviation="6.75"/>
<feComposite in2="hardAlpha" operator="out"/>
<feColorMatrix type="matrix" values="0 0 0 0 0.288084 0 0 0 0 0.526828 0 0 0 0 0.462084 0 0 0 1 0"/>
<feBlend mode="normal" in2="BackgroundImageFix" result="effect1_dropShadow_3146_3415"/>
<feBlend mode="normal" in="SourceGraphic" in2="effect1_dropShadow_3146_3415" result="shape"/>
</filter>
<filter id="filter3_f_3146_3415" x="68.0174" y="111.822" width="24.0209" height="13.1503" filterUnits="userSpaceOnUse" color-interpolation-filters="sRGB">
<feFlood flood-opacity="0" result="BackgroundImageFix"/>
<feBlend mode="normal" in="SourceGraphic" in2="BackgroundImageFix" result="shape"/>
<feGaussianBlur stdDeviation="0.4" result="effect1_foregroundBlur_3146_3415"/>
</filter>
<filter id="filter4_i_3146_3415" x="74.2529" y="87.4834" width="12.8711" height="32.5272" filterUnits="userSpaceOnUse" color-interpolation-filters="sRGB">
<feFlood flood-opacity="0" result="BackgroundImageFix"/>
<feBlend mode="normal" in="SourceGraphic" in2="BackgroundImageFix" result="shape"/>
<feColorMatrix in="SourceAlpha" type="matrix" values="0 0 0 0 0 0 0 0 0 0 0 0 0 0 0 0 0 0 127 0" result="hardAlpha"/>
<feOffset dx="2" dy="18"/>
<feGaussianBlur stdDeviation="1.3"/>
<feComposite in2="hardAlpha" operator="arithmetic" k2="-1" k3="1"/>
<feColorMatrix type="matrix" values="0 0 0 0 0.243858 0 0 0 0 0.24968 0 0 0 0 0.287525 0 0 0 1 0"/>
<feBlend mode="normal" in2="shape" result="effect1_innerShadow_3146_3415"/>
</filter>
<filter id="filter5_i_3146_3415" x="74.2529" y="87.4834" width="12.8711" height="32.5272" filterUnits="userSpaceOnUse" color-interpolation-filters="sRGB">
<feFlood flood-opacity="0" result="BackgroundImageFix"/>
<feBlend mode="normal" in="SourceGraphic" in2="BackgroundImageFix" result="shape"/>
<feColorMatrix in="SourceAlpha" type="matrix" values="0 0 0 0 0 0 0 0 0 0 0 0 0 0 0 0 0 0 127 0" result="hardAlpha"/>
<feOffset dx="2" dy="18"/>
<feGaussianBlur stdDeviation="1.3"/>
<feComposite in2="hardAlpha" operator="arithmetic" k2="-1" k3="1"/>
<feColorMatrix type="matrix" values="0 0 0 0 0.243858 0 0 0 0 0.24968 0 0 0 0 0.287525 0 0 0 1 0"/>
<feBlend mode="normal" in2="shape" result="effect1_innerShadow_3146_3415"/>
</filter>
<filter id="filter6_i_3146_3415" x="48.9566" y="49.3086" width="47.3783" height="51.8384" filterUnits="userSpaceOnUse" color-interpolation-filters="sRGB">
<feFlood flood-opacity="0" result="BackgroundImageFix"/>
<feBlend mode="normal" in="SourceGraphic" in2="BackgroundImageFix" result="shape"/>
<feColorMatrix in="SourceAlpha" type="matrix" values="0 0 0 0 0 0 0 0 0 0 0 0 0 0 0 0 0 0 127 0" result="hardAlpha"/>
<feOffset dx="-6" dy="-3"/>
<feGaussianBlur stdDeviation="2.05"/>
<feComposite in2="hardAlpha" operator="arithmetic" k2="-1" k3="1"/>
<feColorMatrix type="matrix" values="0 0 0 0 0.760784 0 0 0 0 0.784314 0 0 0 0 0.831373 0 0 0 1 0"/>
<feBlend mode="normal" in2="shape" result="effect1_innerShadow_3146_3415"/>
</filter>
<filter id="filter7_i_3146_3415" x="48.9566" y="49.3086" width="47.3783" height="51.8384" filterUnits="userSpaceOnUse" color-interpolation-filters="sRGB">
<feFlood flood-opacity="0" result="BackgroundImageFix"/>
<feBlend mode="normal" in="SourceGraphic" in2="BackgroundImageFix" result="shape"/>
<feColorMatrix in="SourceAlpha" type="matrix" values="0 0 0 0 0 0 0 0 0 0 0 0 0 0 0 0 0 0 127 0" result="hardAlpha"/>
<feOffset dx="-6" dy="-3"/>
<feGaussianBlur stdDeviation="2.05"/>
<feComposite in2="hardAlpha" operator="arithmetic" k2="-1" k3="1"/>
<feColorMatrix type="matrix" values="0 0 0 0 0.760784 0 0 0 0 0.784314 0 0 0 0 0.831373 0 0 0 1 0"/>
<feBlend mode="normal" in2="shape" result="effect1_innerShadow_3146_3415"/>
</filter>
<filter id="filter8_i_3146_3415" x="55.7793" y="55.9834" width="32.6865" height="42.9258" filterUnits="userSpaceOnUse" color-interpolation-filters="sRGB">
<feFlood flood-opacity="0" result="BackgroundImageFix"/>
<feBlend mode="normal" in="SourceGraphic" in2="BackgroundImageFix" result="shape"/>
<feColorMatrix in="SourceAlpha" type="matrix" values="0 0 0 0 0 0 0 0 0 0 0 0 0 0 0 0 0 0 127 0" result="hardAlpha"/>
<feOffset dy="4"/>
<feGaussianBlur stdDeviation="2.1"/>
<feComposite in2="hardAlpha" operator="arithmetic" k2="-1" k3="1"/>
<feColorMatrix type="matrix" values="0 0 0 0 0.37738 0 0 0 0 0.570677 0 0 0 0 0.70961 0 0 0 1 0"/>
<feBlend mode="normal" in2="shape" result="effect1_innerShadow_3146_3415"/>
</filter>
<filter id="filter9_d_3146_3415" x="29.0424" y="54.1919" width="106.039" height="44.359" filterUnits="userSpaceOnUse" color-interpolation-filters="sRGB">
<feFlood flood-opacity="0" result="BackgroundImageFix"/>
<feColorMatrix in="SourceAlpha" type="matrix" values="0 0 0 0 0 0 0 0 0 0 0 0 0 0 0 0 0 0 127 0" result="hardAlpha"/>
<feOffset dy="1.04838"/>
<feGaussianBlur stdDeviation="0.524192"/>
<feComposite in2="hardAlpha" operator="out"/>
<feColorMatrix type="matrix" values="0 0 0 0 0 0 0 0 0 0 0 0 0 0 0 0 0 0 0.25 0"/>
<feBlend mode="normal" in2="BackgroundImageFix" result="effect1_dropShadow_3146_3415"/>
<feBlend mode="normal" in="SourceGraphic" in2="effect1_dropShadow_3146_3415" result="shape"/>
</filter>
<filter id="filter10_d_3146_3415" x="29.0424" y="54.1919" width="106.039" height="44.359" filterUnits="userSpaceOnUse" color-interpolation-filters="sRGB">
<feFlood flood-opacity="0" result="BackgroundImageFix"/>
<feColorMatrix in="SourceAlpha" type="matrix" values="0 0 0 0 0 0 0 0 0 0 0 0 0 0 0 0 0 0 127 0" result="hardAlpha"/>
<feOffset dy="1.04838"/>
<feGaussianBlur stdDeviation="0.524192"/>
<feComposite in2="hardAlpha" operator="out"/>
<feColorMatrix type="matrix" values="0 0 0 0 0 0 0 0 0 0 0 0 0 0 0 0 0 0 0.25 0"/>
<feBlend mode="normal" in2="BackgroundImageFix" result="effect1_dropShadow_3146_3415"/>
<feBlend mode="normal" in="SourceGraphic" in2="effect1_dropShadow_3146_3415" result="shape"/>
</filter>
<filter id="filter11_d_3146_3415" x="16.0504" y="48.4653" width="127.718" height="56.0846" filterUnits="userSpaceOnUse" color-interpolation-filters="sRGB">
<feFlood flood-opacity="0" result="BackgroundImageFix"/>
<feColorMatrix in="SourceAlpha" type="matrix" values="0 0 0 0 0 0 0 0 0 0 0 0 0 0 0 0 0 0 127 0" result="hardAlpha"/>
<feOffset dx="0.786289" dy="1.04838"/>
<feGaussianBlur stdDeviation="0.524192"/>
<feComposite in2="hardAlpha" operator="out"/>
<feColorMatrix type="matrix" values="0 0 0 0 0 0 0 0 0 0 0 0 0 0 0 0 0 0 0.25 0"/>
<feBlend mode="normal" in2="BackgroundImageFix" result="effect1_dropShadow_3146_3415"/>
<feBlend mode="normal" in="SourceGraphic" in2="effect1_dropShadow_3146_3415" result="shape"/>
</filter>
<filter id="filter12_i_3146_3415" x="55.7793" y="55.9834" width="32.6865" height="42.9258" filterUnits="userSpaceOnUse" color-interpolation-filters="sRGB">
<feFlood flood-opacity="0" result="BackgroundImageFix"/>
<feBlend mode="normal" in="SourceGraphic" in2="BackgroundImageFix" result="shape"/>
<feColorMatrix in="SourceAlpha" type="matrix" values="0 0 0 0 0 0 0 0 0 0 0 0 0 0 0 0 0 0 127 0" result="hardAlpha"/>
<feOffset dy="4"/>
<feGaussianBlur stdDeviation="2.1"/>
<feComposite in2="hardAlpha" operator="arithmetic" k2="-1" k3="1"/>
<feColorMatrix type="matrix" values="0 0 0 0 0.37738 0 0 0 0 0.570677 0 0 0 0 0.70961 0 0 0 1 0"/>
<feBlend mode="normal" in2="shape" result="effect1_innerShadow_3146_3415"/>
</filter>
<filter id="filter13_d_3146_3415" x="29.0424" y="54.1919" width="106.039" height="44.359" filterUnits="userSpaceOnUse" color-interpolation-filters="sRGB">
<feFlood flood-opacity="0" result="BackgroundImageFix"/>
<feColorMatrix in="SourceAlpha" type="matrix" values="0 0 0 0 0 0 0 0 0 0 0 0 0 0 0 0 0 0 127 0" result="hardAlpha"/>
<feOffset dy="1.04838"/>
<feGaussianBlur stdDeviation="0.524192"/>
<feComposite in2="hardAlpha" operator="out"/>
<feColorMatrix type="matrix" values="0 0 0 0 0 0 0 0 0 0 0 0 0 0 0 0 0 0 0.25 0"/>
<feBlend mode="normal" in2="BackgroundImageFix" result="effect1_dropShadow_3146_3415"/>
<feBlend mode="normal" in="SourceGraphic" in2="effect1_dropShadow_3146_3415" result="shape"/>
</filter>
<filter id="filter14_d_3146_3415" x="29.0424" y="54.1919" width="106.039" height="44.359" filterUnits="userSpaceOnUse" color-interpolation-filters="sRGB">
<feFlood flood-opacity="0" result="BackgroundImageFix"/>
<feColorMatrix in="SourceAlpha" type="matrix" values="0 0 0 0 0 0 0 0 0 0 0 0 0 0 0 0 0 0 127 0" result="hardAlpha"/>
<feOffset dy="1.04838"/>
<feGaussianBlur stdDeviation="0.524192"/>
<feComposite in2="hardAlpha" operator="out"/>
<feColorMatrix type="matrix" values="0 0 0 0 0 0 0 0 0 0 0 0 0 0 0 0 0 0 0.25 0"/>
<feBlend mode="normal" in2="BackgroundImageFix" result="effect1_dropShadow_3146_3415"/>
<feBlend mode="normal" in="SourceGraphic" in2="effect1_dropShadow_3146_3415" result="shape"/>
</filter>
<filter id="filter15_d_3146_3415" x="16.0494" y="48.4648" width="127.72" height="56.0855" filterUnits="userSpaceOnUse" color-interpolation-filters="sRGB">
<feFlood flood-opacity="0" result="BackgroundImageFix"/>
<feColorMatrix in="SourceAlpha" type="matrix" values="0 0 0 0 0 0 0 0 0 0 0 0 0 0 0 0 0 0 127 0" result="hardAlpha"/>
<feOffset dx="0.786289" dy="1.04838"/>
<feGaussianBlur stdDeviation="0.524192"/>
<feComposite in2="hardAlpha" operator="out"/>
<feColorMatrix type="matrix" values="0 0 0 0 0 0 0 0 0 0 0 0 0 0 0 0 0 0 0.25 0"/>
<feBlend mode="normal" in2="BackgroundImageFix" result="effect1_dropShadow_3146_3415"/>
<feBlend mode="normal" in="SourceGraphic" in2="effect1_dropShadow_3146_3415" result="shape"/>
</filter>
<filter id="filter16_d_3146_3415" x="114" y="65" width="14" height="27" filterUnits="userSpaceOnUse" color-interpolation-filters="sRGB">
<feFlood flood-opacity="0" result="BackgroundImageFix"/>
<feColorMatrix in="SourceAlpha" type="matrix" values="0 0 0 0 0 0 0 0 0 0 0 0 0 0 0 0 0 0 127 0" result="hardAlpha"/>
<feOffset dy="1"/>
<feComposite in2="hardAlpha" operator="out"/>
<feColorMatrix type="matrix" values="0 0 0 0 0.662745 0 0 0 0 0.709804 0 0 0 0 0.776471 0 0 0 1 0"/>
<feBlend mode="normal" in2="BackgroundImageFix" result="effect1_dropShadow_3146_3415"/>
<feBlend mode="normal" in="SourceGraphic" in2="effect1_dropShadow_3146_3415" result="shape"/>
</filter>
<filter id="filter17_di_3146_3415" x="87.9" y="16.9" width="66.2" height="40.2" filterUnits="userSpaceOnUse" color-interpolation-filters="sRGB">
<feFlood flood-opacity="0" result="BackgroundImageFix"/>
<feColorMatrix in="SourceAlpha" type="matrix" values="0 0 0 0 0 0 0 0 0 0 0 0 0 0 0 0 0 0 127 0" result="hardAlpha"/>
<feOffset dy="1"/>
<feGaussianBlur stdDeviation="3.55"/>
<feComposite in2="hardAlpha" operator="out"/>
<feColorMatrix type="matrix" values="0 0 0 0 0.273736 0 0 0 0 0.273736 0 0 0 0 0.273736 0 0 0 0.23 0"/>
<feBlend mode="normal" in2="BackgroundImageFix" result="effect1_dropShadow_3146_3415"/>
<feBlend mode="normal" in="SourceGraphic" in2="effect1_dropShadow_3146_3415" result="shape"/>
<feColorMatrix in="SourceAlpha" type="matrix" values="0 0 0 0 0 0 0 0 0 0 0 0 0 0 0 0 0 0 127 0" result="hardAlpha"/>
<feOffset dy="-2"/>
<feGaussianBlur stdDeviation="2.9"/>
<feComposite in2="hardAlpha" operator="arithmetic" k2="-1" k3="1"/>
<feColorMatrix type="matrix" values="0 0 0 0 0.337255 0 0 0 0 0.635294 0 0 0 0 0.172549 0 0 0 1 0"/>
<feBlend mode="normal" in2="shape" result="effect2_innerShadow_3146_3415"/>
</filter>
<filter id="filter18_i_3146_3415" x="93.9131" y="-7" width="32.9287" height="34.9287" filterUnits="userSpaceOnUse" color-interpolation-filters="sRGB">
<feFlood flood-opacity="0" result="BackgroundImageFix"/>
<feBlend mode="normal" in="SourceGraphic" in2="BackgroundImageFix" result="shape"/>
<feColorMatrix in="SourceAlpha" type="matrix" values="0 0 0 0 0 0 0 0 0 0 0 0 0 0 0 0 0 0 127 0" result="hardAlpha"/>
<feOffset dx="-5" dy="-7"/>
<feGaussianBlur stdDeviation="5.35"/>
<feComposite in2="hardAlpha" operator="arithmetic" k2="-1" k3="1"/>
<feColorMatrix type="matrix" values="0 0 0 0 0.176471 0 0 0 0 0.494118 0 0 0 0 0.105882 0 0 0 1 0"/>
<feBlend mode="normal" in2="shape" result="effect1_innerShadow_3146_3415"/>
</filter>
<filter id="filter19_i_3146_3415" x="92.7539" y="12.2617" width="16.2617" height="16.2617" filterUnits="userSpaceOnUse" color-interpolation-filters="sRGB">
<feFlood flood-opacity="0" result="BackgroundImageFix"/>
<feBlend mode="normal" in="SourceGraphic" in2="BackgroundImageFix" result="shape"/>
<feColorMatrix in="SourceAlpha" type="matrix" values="0 0 0 0 0 0 0 0 0 0 0 0 0 0 0 0 0 0 127 0" result="hardAlpha"/>
<feOffset dx="-2" dy="-2"/>
<feGaussianBlur stdDeviation="3.1"/>
<feComposite in2="hardAlpha" operator="arithmetic" k2="-1" k3="1"/>
<feColorMatrix type="matrix" values="0 0 0 0 0.176471 0 0 0 0 0.494118 0 0 0 0 0.105882 0 0 0 1 0"/>
<feBlend mode="normal" in2="shape" result="effect1_innerShadow_3146_3415"/>
</filter>
<filter id="filter20_i_3146_3415" x="112.929" y="10.2329" width="24.7646" height="26.7651" filterUnits="userSpaceOnUse" color-interpolation-filters="sRGB">
<feFlood flood-opacity="0" result="BackgroundImageFix"/>
<feBlend mode="normal" in="SourceGraphic" in2="BackgroundImageFix" result="shape"/>
<feColorMatrix in="SourceAlpha" type="matrix" values="0 0 0 0 0 0 0 0 0 0 0 0 0 0 0 0 0 0 127 0" result="hardAlpha"/>
<feOffset dx="-5" dy="-7"/>
<feGaussianBlur stdDeviation="5.35"/>
<feComposite in2="hardAlpha" operator="arithmetic" k2="-1" k3="1"/>
<feColorMatrix type="matrix" values="0 0 0 0 0.176471 0 0 0 0 0.494118 0 0 0 0 0.105882 0 0 0 1 0"/>
<feBlend mode="normal" in2="shape" result="effect1_innerShadow_3146_3415"/>
</filter>
<filter id="filter21_i_3146_3415" x="128.545" y="25.3252" width="12.0928" height="12.0928" filterUnits="userSpaceOnUse" color-interpolation-filters="sRGB">
<feFlood flood-opacity="0" result="BackgroundImageFix"/>
<feBlend mode="normal" in="SourceGraphic" in2="BackgroundImageFix" result="shape"/>
<feColorMatrix in="SourceAlpha" type="matrix" values="0 0 0 0 0 0 0 0 0 0 0 0 0 0 0 0 0 0 127 0" result="hardAlpha"/>
<feOffset dx="-2" dy="-2"/>
<feGaussianBlur stdDeviation="3.1"/>
<feComposite in2="hardAlpha" operator="arithmetic" k2="-1" k3="1"/>
<feColorMatrix type="matrix" values="0 0 0 0 0.176471 0 0 0 0 0.494118 0 0 0 0 0.105882 0 0 0 1 0"/>
<feBlend mode="normal" in2="shape" result="effect1_innerShadow_3146_3415"/>
</filter>
<filter id="filter22_dg_3146_3415" x="33.3519" y="87.4305" width="159.296" height="104.574" filterUnits="userSpaceOnUse" color-interpolation-filters="sRGB">
<feFlood flood-opacity="0" result="BackgroundImageFix"/>
<feColorMatrix in="SourceAlpha" type="matrix" values="0 0 0 0 0 0 0 0 0 0 0 0 0 0 0 0 0 0 127 0" result="hardAlpha"/>
<feOffset dy="4.07856"/>
<feGaussianBlur stdDeviation="16.824"/>
<feComposite in2="hardAlpha" operator="out"/>
<feColorMatrix type="matrix" values="0 0 0 0 0 0 0 0 0 0 0 0 0 0 0 0 0 0 0.17 0"/>
<feBlend mode="normal" in2="BackgroundImageFix" result="effect1_dropShadow_3146_3415"/>
<feBlend mode="normal" in="SourceGraphic" in2="effect1_dropShadow_3146_3415" result="shape"/>
<feTurbulence type="fractalNoise" baseFrequency="0.12736871838569641 0.12736871838569641" numOctaves="3" seed="5311" />
<feDisplacementMap in="shape" scale="11.623885154724121" xChannelSelector="R" yChannelSelector="G" result="displacedImage" width="100%" height="100%" />
<feMerge result="effect2_texture_3146_3415">
<feMergeNode in="displacedImage"/>
</feMerge>
</filter>
<linearGradient id="paint0_linear_3146_3415" x1="88.1049" y1="102.989" x2="86.4648" y2="124.493" gradientUnits="userSpaceOnUse">
<stop stop-color="#82B5A6"/>
<stop offset="1" stop-color="#3A5D4B"/>
</linearGradient>
<linearGradient id="paint1_linear_3146_3415" x1="91.2385" y1="126.732" x2="68.8174" y2="126.732" gradientUnits="userSpaceOnUse">
<stop stop-color="#AEB9D7"/>
<stop offset="1" stop-color="#E7EBF5"/>
</linearGradient>
<linearGradient id="paint2_linear_3146_3415" x1="84.1045" y1="112.962" x2="71.5351" y2="120.096" gradientUnits="userSpaceOnUse">
<stop stop-color="#BDC6DF"/>
<stop offset="1" stop-color="#E5E9F4"/>
</linearGradient>
<linearGradient id="paint3_linear_3146_3415" x1="91.2385" y1="126.732" x2="68.8174" y2="126.732" gradientUnits="userSpaceOnUse">
<stop stop-color="#AEB9D7"/>
<stop offset="1" stop-color="#E7EBF5"/>
</linearGradient>
<linearGradient id="paint4_linear_3146_3415" x1="84.1045" y1="112.962" x2="71.5351" y2="120.096" gradientUnits="userSpaceOnUse">
<stop stop-color="#BDC6DF"/>
<stop offset="1" stop-color="#E5E9F4"/>
</linearGradient>
<linearGradient id="paint5_linear_3146_3415" x1="-16.9171" y1="-28.2249" x2="89.3047" y2="62.1482" gradientUnits="userSpaceOnUse">
<stop offset="0.307472" stop-color="#AFECED"/>
<stop offset="0.713892" stop-color="#007DFF"/>
<stop offset="0.746634" stop-color="#5D6F84"/>
</linearGradient>
<linearGradient id="paint6_linear_3146_3415" x1="-9.74544" y1="-20.6278" x2="80.8871" y2="51.1636" gradientUnits="userSpaceOnUse">
<stop stop-color="#ECF7FD" stop-opacity="0.71"/>
<stop offset="1" stop-color="#FFDDDD" stop-opacity="0.22"/>
</linearGradient>
<linearGradient id="paint7_linear_3146_3415" x1="41.2555" y1="48.9105" x2="105.075" y2="121.162" gradientUnits="userSpaceOnUse">
<stop stop-color="#21D4DB"/>
<stop offset="0.283654" stop-color="#B7D3FE"/>
<stop offset="0.5625" stop-color="#FFC481"/>
<stop offset="0.831731" stop-color="#FF9B9C"/>
</linearGradient>
<linearGradient id="paint8_linear_3146_3415" x1="-16.9171" y1="-28.2249" x2="89.3047" y2="62.1482" gradientUnits="userSpaceOnUse">
<stop offset="0.307472" stop-color="#AFECED"/>
<stop offset="0.713892" stop-color="#007DFF"/>
<stop offset="0.746634" stop-color="#5D6F84"/>
</linearGradient>
<linearGradient id="paint9_linear_3146_3415" x1="-9.74544" y1="-20.6278" x2="80.8871" y2="51.1636" gradientUnits="userSpaceOnUse">
<stop stop-color="#ECF7FD" stop-opacity="0.71"/>
<stop offset="1" stop-color="#FFDDDD" stop-opacity="0.22"/>
</linearGradient>
<linearGradient id="paint10_linear_3146_3415" x1="41.2555" y1="48.911" x2="105.075" y2="121.162" gradientUnits="userSpaceOnUse">
<stop stop-color="#21D4DB"/>
<stop offset="0.283654" stop-color="#B7D3FE"/>
<stop offset="0.5625" stop-color="#FFC481"/>
<stop offset="0.831731" stop-color="#FF9B9C"/>
</linearGradient>
<linearGradient id="paint11_linear_3146_3415" x1="133" y1="110" x2="108" y2="110" gradientUnits="userSpaceOnUse">
<stop stop-color="#A6B3C5"/>
<stop offset="1" stop-color="#ECF0F7"/>
</linearGradient>
<linearGradient id="paint12_linear_3146_3415" x1="128.999" y1="110.05" x2="120.175" y2="110.811" gradientUnits="userSpaceOnUse">
<stop stop-color="#B7C4D7"/>
<stop offset="1" stop-color="#D6DEEA" stop-opacity="0.28"/>
</linearGradient>
<linearGradient id="paint13_linear_3146_3415" x1="128" y1="78" x2="114" y2="78" gradientUnits="userSpaceOnUse">
<stop stop-color="#BEC6D8"/>
<stop offset="1" stop-color="#FCF9FF"/>
</linearGradient>
<linearGradient id="paint14_linear_3146_3415" x1="151" y1="52.5" x2="90" y2="52.5" gradientUnits="userSpaceOnUse">
<stop stop-color="#A7ABCE"/>
<stop offset="1" stop-color="#EDF2F8"/>
</linearGradient>
<linearGradient id="paint15_linear_3146_3415" x1="132.937" y1="21" x2="120.079" y2="52.83" gradientUnits="userSpaceOnUse">
<stop stop-color="#A9BEBF"/>
<stop offset="1" stop-color="#E5E7E6"/>
</linearGradient>
<linearGradient id="paint16_linear_3146_3415" x1="121" y1="23" x2="134.333" y2="64.4889" gradientUnits="userSpaceOnUse">
<stop stop-color="#BAE286"/>
<stop offset="1" stop-color="#61AC00"/>
</linearGradient>
<linearGradient id="paint17_linear_3146_3415" x1="115.986" y1="32.0888" x2="107.486" y2="32.0888" gradientUnits="userSpaceOnUse">
<stop stop-color="#605A3A"/>
<stop offset="1" stop-color="#C6BA78"/>
</linearGradient>
<linearGradient id="paint18_linear_3146_3415" x1="109.313" y1="30.8999" x2="106.136" y2="25.6929" gradientUnits="userSpaceOnUse">
<stop stop-color="#605A3A"/>
<stop offset="1" stop-color="#C6BA78"/>
</linearGradient>
<linearGradient id="paint19_linear_3146_3415" x1="112.878" y1="0" x2="112.878" y2="27.9289" gradientUnits="userSpaceOnUse">
<stop stop-color="#B4F55A"/>
<stop offset="1" stop-color="#6DB72C"/>
</linearGradient>
<linearGradient id="paint20_linear_3146_3415" x1="99.5078" y1="16.0444" x2="109.015" y2="26.4435" gradientUnits="userSpaceOnUse">
<stop stop-color="#B0F258"/>
<stop offset="1" stop-color="#85CC3C"/>
</linearGradient>
<linearGradient id="paint21_linear_3146_3415" x1="4.62587" y1="-4" x2="4.62587" y2="4.5" gradientUnits="userSpaceOnUse">
<stop stop-color="#605A3A"/>
<stop offset="1" stop-color="#C6BA78"/>
</linearGradient>
<linearGradient id="paint22_linear_3146_3415" x1="9.88255" y1="0" x2="9.88255" y2="19.7651" gradientUnits="userSpaceOnUse">
<stop stop-color="#B4F55A"/>
<stop offset="1" stop-color="#6DB72C"/>
</linearGradient>
<linearGradient id="paint23_linear_3146_3415" x1="3.36427" y1="1.2616" x2="10.0928" y2="8.62095" gradientUnits="userSpaceOnUse">
<stop stop-color="#B0F258"/>
<stop offset="1" stop-color="#85CC3C"/>
</linearGradient>
<linearGradient id="paint24_linear_3146_3415" x1="121.105" y1="113.055" x2="114.894" y2="154.561" gradientUnits="userSpaceOnUse">
<stop stop-color="#7CB6A4"/>
<stop offset="1" stop-color="#3A5D4B"/>
</linearGradient>
</defs>
</svg>
