<svg width="876" height="1135" viewBox="0 0 876 1135" fill="none" xmlns="http://www.w3.org/2000/svg">
  <g filter="url(#filter0_f_1732_269)">
    <mask id="path-1-inside-1_1732_269" fill="white">
      <path d="M999.661 34.6377C1047.35 34.6378 1088.69 61.5272 1109.05 100.82C1154.56 109.125 1189.42 155.88 1189.42 212.313C1189.42 236.791 1182.86 259.446 1171.72 277.934C1175.61 280.987 1179.03 284.781 1181.84 289.141C1186.34 286.934 1191.33 285.706 1196.57 285.706C1206.67 285.706 1215.8 290.254 1222.37 297.586C1241.3 288.345 1272.82 289.103 1305.15 301.428C1351.22 318.988 1381.5 353.381 1372.79 378.246C1365.97 397.683 1337.35 405.545 1303.17 399.664C1309 412.205 1312.27 426.295 1312.27 441.187C1312.27 493.573 1271.81 536.04 1221.89 536.04C1202.76 536.04 1185.02 529.803 1170.41 519.16C1164.45 555.112 1132.75 582.549 1094.54 582.549C1074.5 582.549 1056.25 575.001 1042.57 562.637C1027.89 598.994 983.929 625.391 931.973 625.391C875.236 625.391 828.03 593.915 818.089 552.363C815.595 553.18 813.049 553.863 810.461 554.404C816.194 572.182 819.252 590.88 819.252 610.177C819.252 687.799 769.762 755.736 695.774 793.059C664.449 827.284 620.063 848.646 570.84 848.646C534.366 848.646 500.548 836.916 472.731 816.917C472.755 819.171 472.771 821.431 472.771 823.696C472.771 834.992 472.52 845.407 472.027 855.008C472.726 863.086 473.087 871.295 473.087 879.612C473.087 1001.42 396.161 1100.16 301.269 1100.16C229.118 1100.16 167.356 1043.07 141.896 962.171C111.648 940.586 88.3957 908.227 76.6787 870.062C43.2215 866.398 34.2148 850.743 34.2148 798.455C34.2149 717.651 88.5982 650.1 161.258 633.479C192.382 550.102 243.423 495.735 301.11 495.735C315.454 495.735 329.386 499.098 342.703 505.43C347.735 497.965 353.289 490.779 359.322 483.907C339.248 464.513 329.686 438.166 346.226 409.31C380.048 350.3 423.891 329.179 469.163 323.52C493.242 323.52 508.483 329.361 517.875 341.729C534.558 336.42 552.358 333.552 570.84 333.552C574.413 333.552 577.96 333.661 581.479 333.872C588.812 328.387 598.041 325.117 608.066 325.117C610.578 325.117 613.039 325.324 615.434 325.718C623.692 282.448 663.442 249.641 711.233 249.641C712.117 249.641 712.999 249.652 713.877 249.675C730.085 218.877 762.765 197.831 800.44 197.831C817.962 197.831 834.403 202.384 848.609 210.352C855.537 197.066 867.004 187.643 880.352 185.327C878.035 175.999 876.807 166.249 876.807 156.214C876.807 89.0694 931.81 34.6377 999.661 34.6377ZM739.336 431.291C735.612 432.359 731.793 433.219 727.896 433.859C729.014 436.329 730.073 438.83 731.072 441.361C733.521 437.712 736.293 434.348 739.336 431.291Z"/>
    </mask>
    <path d="M999.661 34.6377C1047.35 34.6378 1088.69 61.5272 1109.05 100.82C1154.56 109.125 1189.42 155.88 1189.42 212.313C1189.42 236.791 1182.86 259.446 1171.72 277.934C1175.61 280.987 1179.03 284.781 1181.84 289.141C1186.34 286.934 1191.33 285.706 1196.57 285.706C1206.67 285.706 1215.8 290.254 1222.37 297.586C1241.3 288.345 1272.82 289.103 1305.15 301.428C1351.22 318.988 1381.5 353.381 1372.79 378.246C1365.97 397.683 1337.35 405.545 1303.17 399.664C1309 412.205 1312.27 426.295 1312.27 441.187C1312.27 493.573 1271.81 536.04 1221.89 536.04C1202.76 536.04 1185.02 529.803 1170.41 519.16C1164.45 555.112 1132.75 582.549 1094.54 582.549C1074.5 582.549 1056.25 575.001 1042.57 562.637C1027.89 598.994 983.929 625.391 931.973 625.391C875.236 625.391 828.03 593.915 818.089 552.363C815.595 553.18 813.049 553.863 810.461 554.404C816.194 572.182 819.252 590.88 819.252 610.177C819.252 687.799 769.762 755.736 695.774 793.059C664.449 827.284 620.063 848.646 570.84 848.646C534.366 848.646 500.548 836.916 472.731 816.917C472.755 819.171 472.771 821.431 472.771 823.696C472.771 834.992 472.52 845.407 472.027 855.008C472.726 863.086 473.087 871.295 473.087 879.612C473.087 1001.42 396.161 1100.16 301.269 1100.16C229.118 1100.16 167.356 1043.07 141.896 962.171C111.648 940.586 88.3957 908.227 76.6787 870.062C43.2215 866.398 34.2148 850.743 34.2148 798.455C34.2149 717.651 88.5982 650.1 161.258 633.479C192.382 550.102 243.423 495.735 301.11 495.735C315.454 495.735 329.386 499.098 342.703 505.43C347.735 497.965 353.289 490.779 359.322 483.907C339.248 464.513 329.686 438.166 346.226 409.31C380.048 350.3 423.891 329.179 469.163 323.52C493.242 323.52 508.483 329.361 517.875 341.729C534.558 336.42 552.358 333.552 570.84 333.552C574.413 333.552 577.96 333.661 581.479 333.872C588.812 328.387 598.041 325.117 608.066 325.117C610.578 325.117 613.039 325.324 615.434 325.718C623.692 282.448 663.442 249.641 711.233 249.641C712.117 249.641 712.999 249.652 713.877 249.675C730.085 218.877 762.765 197.831 800.44 197.831C817.962 197.831 834.403 202.384 848.609 210.352C855.537 197.066 867.004 187.643 880.352 185.327C878.035 175.999 876.807 166.249 876.807 156.214C876.807 89.0694 931.81 34.6377 999.661 34.6377ZM739.336 431.291C735.612 432.359 731.793 433.219 727.896 433.859C729.014 436.329 730.073 438.83 731.072 441.361C733.521 437.712 736.293 434.348 739.336 431.291Z" fill="url(#paint0_linear_1732_269)"/>
    <path d="M999.661 34.6377V32.5984V34.6377ZM1109.05 100.82L1107.24 101.758L1107.7 102.647L1108.68 102.826L1109.05 100.82ZM1189.42 212.313H1191.46H1189.42ZM1171.72 277.934L1169.97 276.881L1169.04 278.425L1170.46 279.537L1171.72 277.934ZM1181.84 289.141L1180.13 290.246L1181.11 291.77L1182.74 290.972L1181.84 289.141ZM1196.57 285.706V283.667V285.706ZM1222.37 297.586L1220.85 298.946L1221.88 300.095L1223.26 299.419L1222.37 297.586ZM1305.15 301.428L1305.88 299.522L1305.15 301.428ZM1372.79 378.246L1374.71 378.921L1372.79 378.246ZM1303.17 399.664L1303.52 397.654L1299.68 396.994L1301.32 400.523L1303.17 399.664ZM1312.27 441.187H1314.31H1312.27ZM1221.89 536.04V538.079V536.04ZM1170.41 519.16L1171.61 517.512L1168.94 515.566L1168.4 518.826L1170.41 519.16ZM1094.54 582.549V584.588V582.549ZM1042.57 562.637L1043.93 561.124L1041.77 559.167L1040.68 561.874L1042.57 562.637ZM931.973 625.391V627.43V625.391ZM818.089 552.363L820.072 551.889L819.557 549.736L817.454 550.425L818.089 552.363ZM810.461 554.404L810.043 552.408L807.824 552.872L808.52 555.03L810.461 554.404ZM819.252 610.177H821.291H819.252ZM695.774 793.059L694.856 791.238L694.522 791.406L694.27 791.682L695.774 793.059ZM570.84 848.646V850.685V848.646ZM472.731 816.917L473.922 815.261L470.65 812.909L470.692 816.939L472.731 816.917ZM472.771 823.696H474.81H472.771ZM472.027 855.008L469.991 854.903L469.984 855.044L469.996 855.184L472.027 855.008ZM473.087 879.612H475.126H473.087ZM301.269 1100.16V1102.2V1100.16ZM141.896 962.171L143.841 961.559L143.636 960.908L143.08 960.511L141.896 962.171ZM76.6787 870.062L78.6282 869.464L78.2344 868.181L76.9007 868.035L76.6787 870.062ZM34.2148 798.455H32.1756H34.2148ZM161.258 633.479L161.713 635.466L162.784 635.221L163.168 634.192L161.258 633.479ZM301.11 495.735V493.696V495.735ZM342.703 505.43L341.827 507.271L343.413 508.025L344.394 506.57L342.703 505.43ZM359.322 483.907L360.855 485.253L362.138 483.792L360.739 482.441L359.322 483.907ZM346.226 409.31L344.456 408.296L346.226 409.31ZM469.163 323.52V321.48H469.036L468.91 321.496L469.163 323.52ZM517.875 341.729L516.251 342.962L517.122 344.108L518.493 343.672L517.875 341.729ZM570.84 333.552V331.512V333.552ZM581.479 333.872L581.356 335.908L582.102 335.952L582.7 335.505L581.479 333.872ZM608.066 325.117V323.078V325.117ZM615.434 325.718L615.103 327.73L617.064 328.053L617.437 326.1L615.434 325.718ZM711.233 249.641V247.601V249.641ZM713.877 249.675L713.825 251.713L715.092 251.746L715.682 250.625L713.877 249.675ZM800.44 197.831V195.792V197.831ZM848.609 210.352L847.612 212.13L849.446 213.159L850.418 211.294L848.609 210.352ZM880.352 185.327L880.7 187.336L882.859 186.962L882.331 184.836L880.352 185.327ZM876.807 156.214H874.767V156.214L876.807 156.214ZM739.336 431.291L740.781 432.73L746.319 427.167L738.774 429.331L739.336 431.291ZM727.896 433.859L727.565 431.847L724.941 432.278L726.038 434.7L727.896 433.859ZM731.072 441.361L729.175 442.11L730.602 445.723L732.766 442.498L731.072 441.361ZM999.661 34.6377V36.677C1046.57 36.6771 1087.22 63.1225 1107.24 101.758L1109.05 100.82L1110.86 99.8822C1090.16 59.9318 1048.13 32.5986 999.661 32.5984V34.6377ZM1109.05 100.82L1108.68 102.826C1153.01 110.914 1187.38 156.623 1187.38 212.313H1189.42H1191.46C1191.46 155.137 1156.12 107.336 1109.42 98.8142L1109.05 100.82ZM1189.42 212.313H1187.38C1187.38 236.428 1180.92 258.718 1169.97 276.881L1171.72 277.934L1173.47 278.986C1184.8 260.173 1191.46 237.153 1191.46 212.313H1189.42ZM1171.72 277.934L1170.46 279.537C1174.16 282.443 1177.43 286.066 1180.13 290.246L1181.84 289.141L1183.56 288.036C1180.63 283.496 1177.05 279.53 1172.98 276.33L1171.72 277.934ZM1181.84 289.141L1182.74 290.972C1186.97 288.897 1191.65 287.745 1196.57 287.745V285.706V283.667C1191 283.667 1185.71 284.971 1180.94 287.31L1181.84 289.141ZM1196.57 285.706V287.745C1206.03 287.745 1214.63 292.002 1220.85 298.946L1222.37 297.586L1223.89 296.226C1216.97 288.505 1207.31 283.667 1196.57 283.667V285.706ZM1222.37 297.586L1223.26 299.419C1241.48 290.525 1272.36 291.111 1304.43 303.333L1305.15 301.428L1305.88 299.522C1273.28 287.095 1241.12 286.165 1221.47 295.753L1222.37 297.586ZM1305.15 301.428L1304.43 303.333C1327.21 312.018 1346 324.835 1357.98 338.445C1370.04 352.132 1374.86 366.176 1370.86 377.571L1372.79 378.246L1374.71 378.921C1379.43 365.451 1373.47 349.865 1361.05 335.75C1348.55 321.557 1329.17 308.398 1305.88 299.522L1305.15 301.428ZM1372.79 378.246L1370.86 377.571C1367.75 386.457 1359.57 392.945 1347.66 396.495C1335.76 400.041 1320.39 400.557 1303.52 397.654L1303.17 399.664L1302.83 401.674C1320.13 404.651 1336.16 404.176 1348.82 400.403C1361.47 396.633 1371.01 389.472 1374.71 378.921L1372.79 378.246ZM1303.17 399.664L1301.32 400.523C1307.03 412.799 1310.23 426.595 1310.23 441.187H1312.27H1314.31C1314.31 425.994 1310.97 411.612 1305.02 398.805L1303.17 399.664ZM1312.27 441.187H1310.23C1310.23 492.54 1270.59 534.001 1221.89 534.001V536.04V538.079C1273.02 538.079 1314.31 494.605 1314.31 441.187H1312.27ZM1221.89 536.04V534.001C1203.21 534.001 1185.89 527.913 1171.61 517.512L1170.41 519.16L1169.21 520.808C1184.15 531.692 1202.31 538.079 1221.89 538.079V536.04ZM1170.41 519.16L1168.4 518.826C1162.6 553.787 1131.76 580.51 1094.54 580.51V582.549V584.588C1133.74 584.588 1166.29 556.436 1172.42 519.494L1170.41 519.16ZM1094.54 582.549V580.51C1075.02 580.51 1057.26 573.16 1043.93 561.124L1042.57 562.637L1041.2 564.15C1055.25 576.842 1073.98 584.588 1094.54 584.588V582.549ZM1042.57 562.637L1040.68 561.874C1026.4 597.257 983.341 623.351 931.973 623.351V625.391V627.43C984.518 627.43 1029.39 600.731 1044.46 563.4L1042.57 562.637ZM931.973 625.391V623.351C875.841 623.351 829.723 592.23 820.072 551.889L818.089 552.363L816.106 552.838C826.336 595.6 874.631 627.43 931.973 627.43V625.391ZM818.089 552.363L817.454 550.425C815.031 551.219 812.558 551.882 810.043 552.408L810.461 554.404L810.878 556.4C813.541 555.843 816.159 555.141 818.724 554.301L818.089 552.363ZM810.461 554.404L808.52 555.03C814.189 572.611 817.213 591.098 817.213 610.177H819.252H821.291C821.291 590.663 818.198 571.754 812.402 553.778L810.461 554.404ZM819.252 610.177H817.213C817.213 686.87 768.311 754.185 694.856 791.238L695.774 793.059L696.693 794.879C771.214 757.288 821.291 688.727 821.291 610.177H819.252ZM695.774 793.059L694.27 791.682C663.307 825.511 619.457 846.606 570.84 846.606V848.646V850.685C620.67 850.685 665.591 829.057 697.279 794.435L695.774 793.059ZM570.84 848.646V846.606C534.812 846.606 501.407 835.022 473.922 815.261L472.731 816.917L471.541 818.573C499.689 838.81 533.921 850.685 570.84 850.685V848.646ZM472.731 816.917L470.692 816.939C470.716 819.188 470.731 821.44 470.731 823.696H472.771H474.81C474.81 821.422 474.795 819.155 474.771 816.895L472.731 816.917ZM472.771 823.696H470.731C470.731 834.962 470.481 845.342 469.991 854.903L472.027 855.008L474.064 855.112C474.558 845.472 474.81 835.022 474.81 823.696H472.771ZM472.027 855.008L469.996 855.184C470.689 863.203 471.048 871.354 471.048 879.612H473.087H475.126C475.126 871.236 474.763 862.968 474.059 854.832L472.027 855.008ZM473.087 879.612H471.048C471.048 1000.79 394.59 1098.12 301.269 1098.12V1100.16V1102.2C397.732 1102.2 475.126 1002.04 475.126 879.612H473.087ZM301.269 1100.16V1098.12C230.292 1098.12 169.13 1041.92 143.841 961.559L141.896 962.171L139.95 962.783C165.581 1044.23 227.943 1102.2 301.269 1102.2V1100.16ZM141.896 962.171L143.08 960.511C113.212 939.197 90.2192 907.219 78.6282 869.464L76.6787 870.062L74.7292 870.661C86.5722 909.236 110.084 941.975 140.711 963.831L141.896 962.171ZM76.6787 870.062L76.9007 868.035C60.4569 866.234 50.6176 861.562 44.6568 851.457C38.5367 841.08 36.2541 824.621 36.2541 798.455H34.2148H32.1756C32.1756 824.577 34.3963 842.089 41.1438 853.529C48.0507 865.238 59.4434 870.226 76.4567 872.09L76.6787 870.062ZM34.2148 798.455H36.2541C36.2541 718.565 90.015 651.868 161.713 635.466L161.258 633.479L160.803 631.491C87.1814 648.332 32.1756 716.736 32.1756 798.455H34.2148ZM161.258 633.479L163.168 634.192C178.661 592.689 199.068 558.53 222.669 534.778C246.262 511.035 272.952 497.775 301.11 497.775V495.735V493.696C271.581 493.696 243.907 507.619 219.776 531.903C195.654 556.179 174.979 590.891 159.347 632.765L161.258 633.479ZM301.11 495.735V497.775C315.126 497.775 328.76 501.058 341.827 507.271L342.703 505.43L343.579 503.588C330.011 497.137 315.781 493.696 301.11 493.696V495.735ZM342.703 505.43L344.394 506.57C349.377 499.178 354.877 492.061 360.855 485.253L359.322 483.907L357.79 482.562C351.701 489.497 346.094 496.751 341.012 504.29L342.703 505.43ZM359.322 483.907L360.739 482.441C350.906 472.941 343.756 461.841 341.034 449.71C338.32 437.623 339.961 424.341 347.995 410.324L346.226 409.31L344.456 408.296C335.951 423.135 334.102 437.454 337.054 450.603C339.996 463.709 347.664 475.48 357.905 485.374L359.322 483.907ZM346.226 409.31L347.995 410.324C381.473 351.915 424.727 331.13 469.416 325.543L469.163 323.52L468.91 321.496C423.055 327.229 378.623 348.685 344.456 408.296L346.226 409.31ZM469.163 323.52V325.559C492.942 325.559 507.411 331.321 516.251 342.962L517.875 341.729L519.499 340.495C509.556 327.401 493.543 321.48 469.163 321.48V323.52ZM517.875 341.729L518.493 343.672C534.979 338.426 552.57 335.591 570.84 335.591V333.552V331.512C552.146 331.512 534.138 334.414 517.257 339.785L517.875 341.729ZM570.84 333.552V335.591C574.371 335.591 577.878 335.699 581.356 335.908L581.479 333.872L581.601 331.836C578.042 331.623 574.454 331.512 570.84 331.512V333.552ZM581.479 333.872L582.7 335.505C589.687 330.279 598.489 327.156 608.066 327.156V325.117V323.078C597.592 323.078 587.937 326.495 580.257 332.239L581.479 333.872ZM608.066 325.117V327.156C610.466 327.156 612.817 327.354 615.103 327.73L615.434 325.718L615.765 323.706C613.262 323.294 610.69 323.078 608.066 323.078V325.117ZM615.434 325.718L617.437 326.1C625.502 283.841 664.369 251.68 711.233 251.68V249.641V247.601C662.514 247.602 621.882 281.055 613.43 325.335L615.434 325.718ZM711.233 249.641V251.68C712.099 251.68 712.963 251.692 713.825 251.713L713.877 249.675L713.929 247.636C713.034 247.613 712.136 247.601 711.233 247.601V249.641ZM713.877 249.675L715.682 250.625C731.545 220.482 763.539 199.87 800.44 199.87V197.831V195.792C761.99 195.792 728.625 217.273 712.072 248.725L713.877 249.675ZM800.44 197.831V199.87C817.605 199.87 833.703 204.329 847.612 212.13L848.609 210.352L849.607 208.573C835.103 200.438 818.319 195.792 800.44 195.792V197.831ZM848.609 210.352L850.418 211.294C857.112 198.454 868.099 189.522 880.7 187.336L880.352 185.327L880.003 183.318C865.909 185.763 853.961 195.677 846.801 209.409L848.609 210.352ZM880.352 185.327L882.331 184.836C880.054 175.667 878.846 166.082 878.846 156.214L876.807 156.214L874.767 156.214C874.767 166.416 876.016 176.332 878.372 185.819L880.352 185.327ZM876.807 156.214H878.846C878.846 90.2157 932.917 36.677 999.661 36.677V34.6377V32.5984C930.704 32.5984 874.767 87.9231 874.767 156.214H876.807ZM739.336 431.291L738.774 429.331C735.126 430.377 731.385 431.22 727.565 431.847L727.896 433.859L728.226 435.872C732.202 435.218 736.097 434.341 739.898 433.251L739.336 431.291ZM727.896 433.859L726.038 434.7C727.142 437.14 728.189 439.611 729.175 442.11L731.072 441.361L732.969 440.612C731.958 438.05 730.885 435.519 729.753 433.018L727.896 433.859ZM731.072 441.361L732.766 442.498C735.141 438.958 737.829 435.695 740.781 432.73L739.336 431.291L737.891 429.852C734.756 433.001 731.901 436.466 729.379 440.225L731.072 441.361Z" fill="#FF5959" mask="url(#path-1-inside-1_1732_269)"/>
  </g>
  <defs>
    <filter id="filter0_f_1732_269" x="0.0569305" y="0.479782" width="1408.38" height="1133.84" filterUnits="userSpaceOnUse" color-interpolation-filters="sRGB">
      <feFlood flood-opacity="0" result="BackgroundImageFix"/>
      <feBlend mode="normal" in="SourceGraphic" in2="BackgroundImageFix" result="shape"/>
      <feGaussianBlur stdDeviation="17.079" result="effect1_foregroundBlur_1732_269"/>
    </filter>
    <linearGradient id="paint0_linear_1732_269" x1="752.733" y1="34.6377" x2="752.733" y2="1100.16" gradientUnits="userSpaceOnUse">
      <stop stop-color="#A7D7FD"/>
      <stop offset="1" stop-color="#E1F2FF" stop-opacity="0.09"/>
    </linearGradient>
  </defs>
</svg>
