<svg width="940" height="1062" viewBox="0 0 940 1062" fill="none" xmlns="http://www.w3.org/2000/svg">
  <ellipse cx="128.475" cy="153.456" rx="128.475" ry="153.456" transform="matrix(-0.999987 0.00510563 0.00510562 0.999987 1026.73 380.048)" fill="#EBFFFD"/>
  <ellipse cx="72.6736" cy="66.3379" rx="72.6736" ry="66.3379" transform="matrix(-0.946291 -0.323315 -0.34309 0.939302 830.877 376.043)" fill="#EBFFFD"/>
  <ellipse cx="121.502" cy="111.57" rx="121.502" ry="111.57" transform="matrix(-0.999987 0.00510563 0.00510562 0.999987 1079.36 1.34473)" fill="#EBFFFD"/>
  <ellipse cx="44.6926" cy="50.5437" rx="44.6926" ry="50.5437" transform="matrix(-0.999987 0.00510563 0.00510562 0.999987 891.615 140.086)" fill="#EBFFFD"/>
  <ellipse cx="96.3503" cy="87.9834" rx="96.3503" ry="87.9834" transform="matrix(-0.999987 0.00510563 0.00510562 0.999987 857.982 152.238)" fill="#EBFFFD"/>
  <ellipse cx="96.3503" cy="87.9834" rx="96.3503" ry="87.9834" transform="matrix(-0.999987 0.00510563 0.00510562 0.999987 773.056 200.221)" fill="#EBFFFD"/>
  <ellipse cx="42.7579" cy="38.0014" rx="42.7579" ry="38.0014" transform="matrix(-0.999987 0.00510563 0.00510562 0.999987 614.763 270.294)" fill="#EBFFFD"/>
  <ellipse cx="34.0515" cy="28.267" rx="34.0515" ry="28.267" transform="matrix(-0.999987 0.00510563 0.00510562 0.999987 564.659 290.1)" fill="#EBFFFD"/>
  <path d="M316.536 349.081C283.363 403.405 358.082 447.557 408.709 447.298C459.337 447.04 500.153 402.647 499.875 348.145C499.596 293.643 488.344 269.472 437.716 269.731C392.97 275.153 349.709 294.757 316.536 349.081Z" fill="#EBFFFD"/>
  <ellipse cx="243.584" cy="78.4363" rx="243.584" ry="78.4363" transform="matrix(-0.999987 0.00510563 0.00510562 0.999987 1206.05 267.275)" fill="#EBFFFD"/>
  <ellipse cx="174.514" cy="103.895" rx="174.514" ry="103.895" transform="matrix(-0.999987 0.00510563 0.00510562 0.999987 1115.92 189.487)" fill="#EBFFFD"/>
  <ellipse cx="251.851" cy="195.771" rx="251.851" ry="195.771" transform="matrix(-0.999987 0.00510563 0.00510562 0.999987 784.294 335.258)" fill="#EBFFFD"/>
  <path d="M460.417 362.999C460.509 381.091 514.926 376.012 578.503 375.687C642.08 375.363 690.741 379.916 690.649 361.823C690.556 343.731 638.942 329.327 575.366 329.652C511.789 329.976 460.325 344.906 460.417 362.999Z" fill="#EBFFFD"/>
  <mask id="mask0_1732_237" style="mask-type:alpha" maskUnits="userSpaceOnUse" x="366" y="425" width="341" height="327">
    <ellipse cx="169.927" cy="162.702" rx="169.927" ry="162.702" transform="matrix(-0.999987 0.00510563 0.00510562 0.999987 705.941 424.871)" fill="#EBFFFD"/>
  </mask>
  <g mask="url(#mask0_1732_237)">
    <path d="M366.132 434.303C366.569 519.904 396.55 498.373 548.774 497.596C642.621 497.117 706.418 518.168 705.981 432.568C705.544 346.968 629.112 277.963 535.265 278.442C441.418 278.921 365.695 348.703 366.132 434.303Z" fill="#EBFFFD"/>
  </g>
  <mask id="mask1_1732_237" style="mask-type:alpha" maskUnits="userSpaceOnUse" x="204" y="386" width="321" height="326">
    <ellipse cx="160.084" cy="162.702" rx="160.084" ry="162.702" transform="matrix(-0.999987 0.00510563 0.00510562 0.999987 523.519 385.533)" fill="#EBFFFD"/>
  </mask>
  <g mask="url(#mask1_1732_237)">
    <path d="M167.408 536.23C167.845 621.831 196.084 600.309 339.49 599.577C427.901 599.126 488.009 620.196 487.572 534.596C487.135 448.995 415.109 379.968 326.698 380.42C238.288 380.871 166.971 450.63 167.408 536.23Z" fill="#EBFFFD"/>
  </g>
  <mask id="mask2_1732_237" style="mask-type:alpha" maskUnits="userSpaceOnUse" x="101" y="578" width="341" height="406">
    <ellipse cx="169.927" cy="202.398" rx="169.927" ry="202.398" transform="matrix(-0.999987 0.00510563 0.00510562 0.999987 440.182 577.651)" fill="#EBFFFD"/>
  </mask>
  <g mask="url(#mask2_1732_237)">
    <path d="M101.105 730.469C101.953 896.688 131.804 855.025 283.888 854.249C377.648 853.77 441.489 894.955 440.64 728.736C439.791 562.516 363.096 428.157 269.336 428.636C175.576 429.115 100.256 564.25 101.105 730.469Z" fill="#EBFFFD"/>
  </g>
  <mask id="mask3_1732_237" style="mask-type:alpha" maskUnits="userSpaceOnUse" x="4" y="655" width="341" height="406">
    <ellipse cx="169.927" cy="202.398" rx="169.927" ry="202.398" transform="matrix(-0.999987 0.00510563 0.00510562 0.999987 343.561 654.681)" fill="#EBFFFD"/>
  </mask>
  <g mask="url(#mask3_1732_237)">
    <path d="M4.48346 807.498C5.33212 973.717 35.1832 932.054 187.267 931.278C281.027 930.799 344.868 971.984 344.019 805.764C343.17 639.545 266.475 505.186 172.715 505.665C78.9544 506.143 3.63479 641.279 4.48346 807.498Z" fill="#EBFFFD"/>
  </g>
</svg>
