<svg width="432" height="294" viewBox="0 0 432 294" fill="none" xmlns="http://www.w3.org/2000/svg">
<path d="M78.0243 32.2689C78.0243 33.1308 77.8729 33.9236 77.5703 34.6474C77.2742 35.3711 76.863 35.9962 76.3366 36.5225C75.8103 37.0423 75.1852 37.4502 74.4615 37.7463C73.7377 38.0424 72.9515 38.1904 72.1027 38.1904H65.1745C64.9903 38.1904 64.8192 38.1575 64.6613 38.0917C64.5034 38.0259 64.3652 37.9371 64.2468 37.8253C64.135 37.7068 64.0461 37.5687 63.9803 37.4108C63.9145 37.2529 63.8816 37.0818 63.8816 36.8976V25.3308C63.8816 25.1532 63.9145 24.9854 63.9803 24.8275C64.0461 24.6696 64.135 24.5314 64.2468 24.413C64.3652 24.2945 64.5034 24.2024 64.6613 24.1366C64.8192 24.0708 64.9903 24.0379 65.1745 24.0379H72.1027C72.9515 24.0379 73.7377 24.186 74.4615 24.4821C75.1852 24.7781 75.8103 25.1894 76.3366 25.7157C76.863 26.2355 77.2742 26.8605 77.5703 27.5909C77.8729 28.3146 78.0243 29.1042 78.0243 29.9595V32.2689ZM75.4583 29.9595C75.4583 29.4594 75.376 29.0022 75.2115 28.5877C75.0536 28.1732 74.8266 27.8212 74.5306 27.5317C74.2345 27.2356 73.8792 27.0086 73.4647 26.8507C73.0567 26.6862 72.6028 26.6039 72.1027 26.6039H66.4477V35.6244H72.1027C72.6028 35.6244 73.0567 35.5455 73.4647 35.3876C73.8792 35.2231 74.2345 34.9961 74.5306 34.7066C74.8266 34.4105 75.0536 34.0585 75.2115 33.6506C75.376 33.2361 75.4583 32.7755 75.4583 32.2689V29.9595ZM83.1267 29.8213H92.1373V24.0379H94.7033V38.1904H92.1373V32.4071H83.1267V38.1904H80.5607V24.0379H83.1267V29.8213ZM104.178 29.091L108.5 24.0379H112.004L105.915 31.1339L111.965 38.1904H108.481L104.178 33.1769L99.8945 38.1904H96.4008L102.441 31.1339L96.381 24.0379H99.855L104.178 29.091Z" fill="#F7F7F7"/>
<path d="M42.3816 26.6927L41.9454 26.1171L41.9454 26.1171L42.3816 26.6927ZM41.0569 27.9289L41.6416 28.3657L41.0569 27.9289ZM44.0065 25.7154L43.3562 26.0389L44.0065 25.7154ZM43.9347 25.8943L44.1969 26.5591L43.9347 25.8943ZM37.7851 20.8744L38.52 20.8492L37.7851 20.8744ZM37.9596 20.7528L37.7075 21.4151C39.7242 22.1469 40.9849 23.0463 41.8087 23.8712C42.6347 24.6984 43.0482 25.4753 43.3562 26.0389L44.0065 25.7154L44.6568 25.3919C44.3445 24.8201 43.8488 23.8828 42.8635 22.8962C41.8761 21.9073 40.4235 20.8931 38.2117 20.0904L37.9596 20.7528ZM43.9347 25.8943L43.6726 25.2294C43.0702 25.4433 42.4889 25.7386 41.9454 26.1171L42.3816 26.6927L42.8178 27.2682C43.2534 26.9648 43.7175 26.7293 44.1969 26.5591L43.9347 25.8943ZM42.3816 26.6927L41.9454 26.1171C41.3738 26.5153 40.8821 26.9803 40.4721 27.4921L41.0569 27.9289L41.6416 28.3657C41.9686 27.9576 42.3608 27.5865 42.8178 27.2682L42.3816 26.6927ZM40.8561 27.9406L41.3776 27.4471C40.9146 26.994 40.2687 26.3793 39.6991 25.3685C39.1312 24.3607 38.6235 22.9274 38.52 20.8492L37.7851 20.8744L37.0501 20.8995C37.1636 23.1786 37.7266 24.8234 38.4075 26.0319C39.0868 27.2374 39.8679 27.9772 40.3347 28.434L40.8561 27.9406ZM41.0569 27.9289L40.4721 27.4921C40.6848 27.2266 41.11 27.1852 41.3776 27.4471L40.8561 27.9406L40.3347 28.434C40.7165 28.8077 41.3307 28.7539 41.6416 28.3657L41.0569 27.9289ZM44.0065 25.7154L43.3562 26.0389C43.1802 25.7169 43.348 25.3447 43.6726 25.2294L43.9347 25.8943L44.1969 26.5591C44.6714 26.3906 44.9078 25.8513 44.6568 25.3919L44.0065 25.7154ZM37.9596 20.7528L38.2117 20.0904C37.6307 19.8796 37.0205 20.3051 37.0501 20.8995L37.7851 20.8744L38.52 20.8492C38.5408 21.2662 38.1152 21.5631 37.7075 21.4151L37.9596 20.7528Z" fill="#FAFAFA"/>
<path d="M40.1171 29.6659L39.4276 29.4512L39.4276 29.4512L40.1171 29.6659ZM39.802 31.4148L39.0749 31.4096L39.802 31.4148ZM40.8275 27.9676L40.5014 28.6147L40.8275 27.9676ZM40.8756 28.1575L41.4741 28.553L40.8756 28.1575ZM32.8139 27.558L32.2491 28.0209L32.8139 27.558ZM32.883 27.3539L33.0562 28.0466C35.146 27.5006 36.7267 27.5192 37.9081 27.7258C39.0926 27.933 39.9077 28.333 40.5014 28.6147L40.8275 27.9676L41.1536 27.3205C40.5549 27.0365 39.5856 26.5581 38.19 26.314C36.7911 26.0694 34.9959 26.064 32.7099 26.6612L32.883 27.3539ZM40.8756 28.1575L40.2771 27.762C39.923 28.274 39.6349 28.8396 39.4276 29.4512L40.1171 29.6659L40.8065 29.8807C40.9699 29.3988 41.1963 28.9547 41.4741 28.553L40.8756 28.1575ZM40.1171 29.6659L39.4276 29.4512C39.2076 30.1003 39.0929 30.759 39.0749 31.4096L39.802 31.4148L40.5292 31.4199C40.5433 30.9096 40.6332 30.3923 40.8065 29.8807L40.1171 29.6659ZM39.6466 31.5437L39.779 30.8363C39.128 30.7304 38.2223 30.5996 37.1316 30.101C36.0441 29.604 34.7448 28.7266 33.3786 27.0952L32.8139 27.558L32.2491 28.0209C33.7434 29.8054 35.2095 30.815 36.4979 31.4038C37.7829 31.9912 38.8634 32.1452 39.5142 32.2511L39.6466 31.5437ZM39.802 31.4148L39.0749 31.4096C39.0844 31.0648 39.4045 30.7754 39.779 30.8363L39.6466 31.5437L39.5142 32.2511C40.0486 32.338 40.5152 31.9249 40.5292 31.4199L39.802 31.4148ZM40.8275 27.9676L40.5014 28.6147C40.1646 28.4549 40.0802 28.0467 40.2771 27.762L40.8756 28.1575L41.4741 28.553C41.7622 28.1362 41.634 27.5484 41.1536 27.3205L40.8275 27.9676ZM32.883 27.3539L32.7099 26.6612C32.1004 26.8204 31.8539 27.549 32.2491 28.0209L32.8139 27.558L33.3786 27.0952C33.6558 27.4262 33.4839 27.9348 33.0562 28.0466L32.883 27.3539Z" fill="#FAFAFA"/>
<path d="M40.0536 33.3342L39.3641 33.549L39.3641 33.549L40.0536 33.3342ZM40.8701 34.9238L41.4616 34.5184L40.8701 34.9238ZM39.7428 31.6822L39.0161 31.6989L39.7428 31.6822ZM32.7848 35.5377L33.3496 36.0006L32.7848 35.5377ZM32.7848 35.5377L33.3496 36.0006C34.7055 34.3813 35.9956 33.5051 37.078 33.0061C38.1631 32.5057 39.0678 32.3696 39.7206 32.2629L39.5876 31.5556L39.4546 30.8483C38.7958 30.956 37.7185 31.1157 36.4399 31.7052C35.1585 32.296 33.7031 33.3037 32.22 35.0749L32.7848 35.5377ZM39.7428 31.6822L39.0161 31.6989C39.0432 32.3136 39.1562 32.9354 39.3641 33.549L40.0536 33.3342L40.743 33.1194C40.5795 32.6369 40.4908 32.1486 40.4696 31.6655L39.7428 31.6822ZM40.0536 33.3342L39.3641 33.549C39.584 34.1977 39.8953 34.7939 40.2786 35.3292L40.8701 34.9238L41.4616 34.5184C41.1604 34.0977 40.916 33.6296 40.743 33.1194L40.0536 33.3342ZM40.8234 35.1156L40.4967 34.4688C39.905 34.7501 39.092 35.1546 37.9042 35.3658C36.72 35.5765 35.1315 35.5989 33.0271 35.0492L32.854 35.7419L32.6809 36.4346C34.9828 37.0359 36.7873 37.0265 38.1903 36.777C39.5897 36.528 40.5583 36.0438 41.15 35.7625L40.8234 35.1156ZM40.8701 34.9238L40.2786 35.3292C40.0749 35.0448 40.1566 34.6305 40.4967 34.4688L40.8234 35.1156L41.15 35.7625C41.6354 35.5317 41.7598 34.9349 41.4616 34.5184L40.8701 34.9238ZM39.5876 31.5556L39.7206 32.2629C39.3499 32.3235 39.0311 32.0404 39.0161 31.6989L39.7428 31.6822L40.4696 31.6655C40.4476 31.1657 39.9833 30.7619 39.4546 30.8483L39.5876 31.5556ZM32.7848 35.5377L32.22 35.0749C31.8245 35.5472 32.0719 36.2755 32.6809 36.4346L32.854 35.7419L33.0271 35.0492C33.4544 35.1608 33.6271 35.6691 33.3496 36.0006L32.7848 35.5377Z" fill="#FAFAFA"/>
<path d="M42.2834 36.3155L41.8472 36.891L41.8472 36.891L42.2834 36.3155ZM43.9224 37.1427L44.1747 36.4744L43.9224 37.1427ZM40.818 35.1426L41.3401 35.6354L40.818 35.1426ZM41.0177 35.1526L41.5956 34.7074L41.0177 35.1526ZM37.7474 42.2057L38.4824 42.2308C38.5858 40.1542 39.0936 38.7221 39.6614 37.7149C40.2311 36.7045 40.8768 36.09 41.3401 35.6354L40.818 35.1426L40.2958 34.6499C39.8303 35.1067 39.0492 35.8465 38.37 37.0512C37.689 38.259 37.1259 39.9027 37.0125 42.1805L37.7474 42.2057ZM41.0177 35.1526L40.4397 35.5977C40.8364 36.0776 41.3063 36.5142 41.8472 36.891L42.2834 36.3155L42.7196 35.7399C42.2866 35.4383 41.9117 35.0898 41.5956 34.7074L41.0177 35.1526ZM42.2834 36.3155L41.8472 36.891C42.4198 37.2898 43.0344 37.5951 43.6701 37.8109L43.9224 37.1427L44.1747 36.4744C43.6679 36.3024 43.1775 36.0589 42.7196 35.7399L42.2834 36.3155ZM43.9961 37.3225L43.3457 36.999C43.0393 37.5601 42.6329 38.3408 41.8058 39.1772C40.9814 40.0109 39.7128 40.9236 37.6699 41.6649L37.922 42.3272L38.1741 42.9896C40.4144 42.1766 41.8768 41.1472 42.8657 40.1472C43.8518 39.15 44.3409 38.2055 44.6464 37.6459L43.9961 37.3225ZM43.9224 37.1427L43.6701 37.8109C43.3404 37.699 43.1684 37.3236 43.3457 36.999L43.9961 37.3225L44.6464 37.6459C44.8996 37.1824 44.6569 36.6381 44.1747 36.4744L43.9224 37.1427ZM40.818 35.1426L41.3401 35.6354C41.0757 35.8949 40.6549 35.8581 40.4397 35.5977L41.0177 35.1526L41.5956 34.7074C41.2812 34.327 40.6733 34.2794 40.2958 34.6499L40.818 35.1426ZM37.7474 42.2057L37.0125 42.1805C36.9829 42.7754 37.5936 43.2002 38.1741 42.9896L37.922 42.3272L37.6699 41.6649C38.0772 41.5171 38.5032 41.8134 38.4824 42.2308L37.7474 42.2057Z" fill="#FAFAFA"/>
<path d="M46.0527 25.5435V24.8213H46.0527L46.0527 25.5435ZM44.2161 25.7986L44.4138 26.4932L44.2161 25.7986ZM44.05 25.6937L43.3363 25.8038L44.05 25.6937ZM47.9653 25.6675L48.6791 25.777L47.9653 25.6675ZM47.8011 25.773L47.6133 26.4703L47.8011 25.773ZM46.1123 18.2473L45.5164 18.6553L46.1123 18.2473ZM46.1123 18.2473L45.5164 18.6553C46.6977 20.3806 47.1656 21.8144 47.3265 22.9408C47.488 24.0703 47.348 24.9283 47.2515 25.558L47.9653 25.6675L48.6791 25.777C48.7774 25.1361 48.9504 24.0943 48.7563 22.7364C48.5618 21.3754 48.0057 19.7344 46.7081 17.8393L46.1123 18.2473ZM47.8011 25.773L47.9889 25.0756C47.3718 24.9094 46.7222 24.8213 46.0527 24.8213V25.5435V26.2656C46.5951 26.2656 47.1184 26.337 47.6133 26.4703L47.8011 25.773ZM46.0527 25.5435L46.0527 24.8213C45.3467 24.8213 44.6639 24.9203 44.0184 25.104L44.2161 25.7986L44.4138 26.4932C44.9325 26.3456 45.4823 26.2656 46.0527 26.2656L46.0527 25.5435ZM44.05 25.6937L44.7637 25.5836C44.6668 24.9559 44.5228 24.0981 44.6819 22.9645C44.8406 21.8342 45.3079 20.3924 46.4973 18.6553L45.9014 18.2473L45.3055 17.8394C43.9993 19.7471 43.4435 21.3974 43.2517 22.7636C43.0603 24.1265 43.2384 25.1694 43.3363 25.8038L44.05 25.6937ZM44.2161 25.7986L44.0184 25.104C44.3472 25.0105 44.7074 25.2189 44.7637 25.5836L44.05 25.6937L43.3363 25.8038C43.4166 26.3243 43.9333 26.6299 44.4138 26.4932L44.2161 25.7986ZM47.9653 25.6675L47.2515 25.558C47.3069 25.1964 47.6617 24.9875 47.9889 25.0756L47.8011 25.773L47.6133 26.4703C48.0913 26.599 48.6 26.2929 48.6791 25.777L47.9653 25.6675ZM46.1123 18.2473L46.7081 17.8393C46.3709 17.3468 45.6425 17.3472 45.3055 17.8394L45.9014 18.2473L46.4973 18.6553C46.2609 19.0006 45.753 19.0009 45.5164 18.6553L46.1123 18.2473Z" fill="#FAFAFA"/>
<path d="M49.7249 26.6865L50.161 26.1109L50.161 26.1109L49.7249 26.6865ZM48.0854 25.8591L47.8331 26.5274L48.0854 25.8591ZM51.1956 27.8656L51.7174 28.3586L51.1956 27.8656ZM54.0704 20.7005L53.8183 20.0382L54.0704 20.7005ZM54.2449 20.8221L53.51 20.7969C53.4073 22.8587 52.9063 24.2852 52.3437 25.2911C51.7797 26.2997 51.1378 26.9177 50.6737 27.3726L51.1956 27.8656L51.7174 28.3586C52.1896 27.8958 52.9648 27.1535 53.6375 25.9505C54.3118 24.7449 54.8673 23.1085 54.9799 20.8472L54.2449 20.8221ZM50.9961 27.8554L51.5746 27.4109C51.1765 26.9282 50.7044 26.4894 50.161 26.1109L49.7249 26.6865L49.2887 27.2621C49.7239 27.5652 50.1006 27.9155 50.4176 28.2999L50.9961 27.8554ZM49.7249 26.6865L50.161 26.1109C49.5883 25.712 48.9736 25.4066 48.3376 25.1908L48.0854 25.8591L47.8331 26.5274C48.3401 26.6995 48.8306 26.943 49.2887 27.2621L49.7249 26.6865ZM48.0117 25.6797L48.6624 26.0026C48.9688 25.4403 49.3799 24.6619 50.2066 23.8312C51.0311 23.0029 52.2955 22.0985 54.3225 21.3629L54.0704 20.7005L53.8183 20.0382C51.5954 20.8449 50.1385 21.8648 49.1501 22.8579C48.164 23.8486 47.6706 24.7886 47.361 25.3568L48.0117 25.6797ZM48.0854 25.8591L48.3376 25.1908C48.6667 25.3025 48.8396 25.6774 48.6624 26.0026L48.0117 25.6797L47.361 25.3568C47.1082 25.8207 47.3519 26.3641 47.8331 26.5274L48.0854 25.8591ZM51.1956 27.8656L50.6737 27.3726C50.9389 27.1126 51.36 27.1506 51.5746 27.4109L50.9961 27.8554L50.4176 28.2999C50.7313 28.6804 51.3392 28.7294 51.7174 28.3586L51.1956 27.8656ZM54.2449 20.8221L54.9799 20.8472C55.0095 20.2524 54.3988 19.8275 53.8183 20.0382L54.0704 20.7005L54.3225 21.3629C53.9152 21.5107 53.4892 21.2143 53.51 20.7969L54.2449 20.8221Z" fill="#FAFAFA"/>
<path d="M51.9147 29.5995L52.6042 29.3847L52.6042 29.3847L51.9147 29.5995ZM52.2291 31.3464L52.9562 31.3411L52.2291 31.3464ZM52.3846 31.4753L52.517 32.1827L52.3846 31.4753ZM51.1551 28.0904L50.5567 28.4861L51.1551 28.0904ZM59.1534 27.2859L58.9803 27.9786L59.1534 27.2859ZM59.2226 27.4901L58.6578 27.0273L59.2226 27.4901ZM59.1534 27.2859L58.9803 27.9786C56.8875 27.4319 55.305 27.451 54.1228 27.6581C52.9374 27.8657 52.1225 28.2663 51.5291 28.5477L51.2031 27.9005L50.8772 27.2533C51.4746 26.97 52.4439 26.4909 53.8405 26.2463C55.2402 26.0011 57.0374 25.9952 59.3266 26.5932L59.1534 27.2859ZM51.1551 28.0904L51.7534 27.6947C52.1076 28.2066 52.3967 28.7723 52.6042 29.3847L51.9147 29.5995L51.2252 29.8142C51.062 29.3326 50.835 28.8883 50.5567 28.4861L51.1551 28.0904ZM51.9147 29.5995L52.6042 29.3847C52.8241 30.0335 52.9381 30.6916 52.9562 31.3411L52.2291 31.3464L51.5019 31.3517C51.4878 30.8416 51.3983 30.3249 51.2252 29.8142L51.9147 29.5995ZM52.3846 31.4753L52.2521 30.768C52.9031 30.662 53.8089 30.5323 54.9007 30.0343C55.9891 29.5378 57.29 28.6606 58.6578 27.0273L59.2226 27.4901L59.7874 27.9529C58.2911 29.7397 56.8231 30.7493 55.5335 31.3376C54.2472 31.9242 53.1661 32.0771 52.517 32.1827L52.3846 31.4753ZM52.2291 31.3464L52.9562 31.3411C52.9466 30.9961 52.6264 30.7071 52.2521 30.768L52.3846 31.4753L52.517 32.1827C51.9829 32.2696 51.516 31.8569 51.5019 31.3517L52.2291 31.3464ZM51.2031 27.9005L51.5291 28.5477C51.8659 28.388 51.9506 27.9796 51.7534 27.6947L51.1551 28.0904L50.5567 28.4861C50.2682 28.0692 50.3967 27.4812 50.8772 27.2533L51.2031 27.9005ZM59.1534 27.2859L59.3266 26.5932C59.9361 26.7525 60.1825 27.4811 59.7874 27.9529L59.2226 27.4901L58.6578 27.0273C58.3806 27.3583 58.5525 27.8669 58.9803 27.9786L59.1534 27.2859Z" fill="#FAFAFA"/>
<path d="M51.9242 33.2935L52.6137 33.5082L52.6137 33.5083L51.9242 33.2935ZM51.1098 34.8797L51.7016 35.2848L51.1098 34.8797ZM52.3909 31.5131L52.2579 32.2204L52.3909 31.5131ZM52.2356 31.6398L52.9623 31.6564L52.2356 31.6398ZM59.1986 35.4957L58.6338 35.9586L59.1986 35.4957ZM59.1294 35.6999L58.9563 35.0072L59.1294 35.6999ZM59.1986 35.4957L58.6338 35.9586C57.2763 34.3373 55.9846 33.4611 54.9015 32.9624C53.8153 32.4624 52.9105 32.3271 52.2579 32.2204L52.3909 31.5131L52.524 30.8059C53.1813 30.9134 54.2591 31.0721 55.5387 31.6612C56.8213 32.2517 58.2785 33.2596 59.7634 35.0329L59.1986 35.4957ZM52.2356 31.6398L52.9623 31.6564C52.9354 32.2722 52.8217 32.8945 52.6137 33.5082L51.9242 33.2935L51.2347 33.0788C51.3986 32.5952 51.4877 32.1064 51.5089 31.6233L52.2356 31.6398ZM51.9242 33.2935L52.6137 33.5083C52.3943 34.1556 52.0835 34.7507 51.7016 35.2848L51.1098 34.8797L50.518 34.4747C50.8184 34.0546 51.0624 33.5874 51.2348 33.0787L51.9242 33.2935ZM51.1566 35.0715L51.4831 34.4246C52.0749 34.7059 52.8874 35.111 54.0756 35.323C55.2602 35.5344 56.8497 35.5575 58.9563 35.0072L59.1294 35.6999L59.3025 36.3926C56.9981 36.9945 55.1923 36.9844 53.7888 36.734C52.3889 36.4842 51.4205 35.9991 50.83 35.7184L51.1566 35.0715ZM51.1098 34.8797L51.7016 35.2848C51.9051 35.0002 51.8231 34.5862 51.4831 34.4246L51.1566 35.0715L50.83 35.7184C50.3449 35.4878 50.22 34.8913 50.518 34.4747L51.1098 34.8797ZM52.3909 31.5131L52.2579 32.2204C52.6286 32.281 52.9474 31.998 52.9623 31.6564L52.2356 31.6398L51.5089 31.6233C51.5308 31.1233 51.9952 30.7194 52.524 30.8059L52.3909 31.5131ZM59.1986 35.4957L59.7634 35.0329C60.1589 35.5052 59.9115 36.2335 59.3025 36.3926L59.1294 35.6999L58.9563 35.0072C58.529 35.1188 58.3563 35.6271 58.6338 35.9586L59.1986 35.4957Z" fill="#FAFAFA"/>
<path d="M49.6761 36.2821L50.1123 36.8576L50.1123 36.8576L49.6761 36.2821ZM48.0334 37.1108L48.2853 37.7792L48.0334 37.1108ZM51.1396 35.1116L51.6618 34.6189L51.1396 35.1116ZM50.94 35.1215L50.3622 34.6761L50.94 35.1215ZM54.0323 42.2951L53.7802 42.9574L54.0323 42.2951ZM54.2068 42.1735L53.4719 42.1987C53.3686 40.1236 52.8618 38.6919 52.2947 37.6845C51.7259 36.6741 51.0807 36.0589 50.6175 35.6043L51.1396 35.1116L51.6618 34.6189C52.1282 35.0766 52.9083 35.8169 53.5866 37.0216C54.2665 38.2294 54.8285 39.8725 54.9418 42.1484L54.2068 42.1735ZM50.94 35.1215L51.5178 35.5669C51.1215 36.0459 50.6521 36.4815 50.1123 36.8576L49.6761 36.2821L49.2399 35.7065C49.6721 35.4054 50.0466 35.0576 50.3622 34.6761L50.94 35.1215ZM49.6761 36.2821L50.1123 36.8576C49.5386 37.2572 48.9226 37.5632 48.2853 37.7792L48.0334 37.1108L47.7814 36.4424C48.2893 36.2703 48.7809 36.0263 49.2399 35.7065L49.6761 36.2821ZM47.9596 37.2906L48.61 36.9672C48.9165 37.5285 49.3229 38.3093 50.1499 39.1457C50.9741 39.9792 52.2423 40.8917 54.2843 41.6327L54.0323 42.2951L53.7802 42.9574C51.5406 42.1447 50.0786 41.1155 49.0899 40.1155C48.104 39.1184 47.6149 38.1738 47.3092 37.614L47.9596 37.2906ZM48.0334 37.1108L48.2853 37.7792C48.6151 37.6674 48.7873 37.292 48.61 36.9672L47.9596 37.2906L47.3092 37.614C47.056 37.1503 47.2991 36.6058 47.7814 36.4424L48.0334 37.1108ZM51.1396 35.1116L50.6175 35.6043C50.8819 35.8639 51.3026 35.827 51.5178 35.5669L50.94 35.1215L50.3622 34.6761C50.6767 34.296 51.2843 34.2485 51.6618 34.6189L51.1396 35.1116ZM54.2068 42.1735L54.9418 42.1484C54.9714 42.7433 54.3607 43.1681 53.7802 42.9574L54.0323 42.2951L54.2843 41.6327C53.8771 41.485 53.4511 41.7812 53.4719 42.1987L54.2068 42.1735Z" fill="#FAFAFA"/>
<path d="M46.0811 44.7798L46.6752 45.1903L46.6769 45.1877L46.0811 44.7798ZM45.8701 44.7798L45.2742 45.1878L45.2762 45.1906L45.8701 44.7798ZM45.918 37.4575V38.1797H45.918L45.918 37.4575ZM47.759 37.2007L47.5607 36.5063L47.759 37.2007ZM44.0203 37.3363L44.7341 37.4454L44.0203 37.3363ZM44.1843 37.2306L44.3707 36.533L44.1843 37.2306ZM46.0811 44.7798L45.4869 44.3693C45.724 44.0261 46.2275 44.0271 46.464 44.3689L45.8701 44.7798L45.2762 45.1906C45.6134 45.6781 46.3375 45.6791 46.6752 45.1903L46.0811 44.7798ZM45.8701 44.7798L46.466 44.3718C45.2776 42.636 44.8111 41.1951 44.6528 40.0654C44.494 38.932 44.638 38.0745 44.7341 37.4454L44.0203 37.3363L43.3064 37.2273C43.2096 37.8609 43.0316 38.9038 43.2225 40.2658C43.4139 41.6315 43.9688 43.281 45.2742 45.1877L45.8701 44.7798ZM44.1843 37.2306L43.9979 37.9283C44.6094 38.0917 45.2534 38.1797 45.918 38.1797V37.4575V36.7354C45.3813 36.7354 44.8625 36.6644 44.3707 36.533L44.1843 37.2306ZM45.918 37.4575L45.918 38.1797C46.626 38.1797 47.3105 38.0797 47.9572 37.8951L47.759 37.2007L47.5607 36.5063C47.0407 36.6547 46.4896 36.7353 45.9179 36.7354L45.918 37.4575ZM47.9254 37.3059L47.2116 37.4155C47.308 38.0429 47.4577 38.8996 47.3025 40.0378C47.1478 41.1719 46.683 42.6221 45.4852 44.3718L46.0811 44.7798L46.6769 45.1877C47.9929 43.2656 48.5464 41.6049 48.7335 40.233C48.9201 38.8653 48.7351 37.821 48.6392 37.1963L47.9254 37.3059ZM47.759 37.2007L47.9572 37.8951C47.6277 37.9892 47.2676 37.7799 47.2116 37.4155L47.9254 37.3059L48.6392 37.1963C48.5592 36.6756 48.0422 36.3688 47.5607 36.5063L47.759 37.2007ZM44.0203 37.3363L44.7341 37.4454C44.679 37.8062 44.3254 38.0158 43.9979 37.9283L44.1843 37.2306L44.3707 36.533C43.8924 36.4052 43.3851 36.7122 43.3064 37.2273L44.0203 37.3363Z" fill="#FAFAFA"/>
<g clip-path="url(#clip0_3174_3440)">
<path d="M357.112 38.1506C357.112 37.7787 357.899 37.6177 358.424 37.6177H405.44C405.965 37.6177 406.073 37.7801 406.073 38.1506V88.6327C406.073 89.0046 405.852 89.4477 405.386 89.6187L382.889 97.9042C382.422 98.0752 381.699 98.0766 381.231 97.9085L358.119 89.6144C357.651 89.4449 357.11 89.0032 357.11 88.6327V38.1506H357.112Z" fill="#F7F7F7"/>
<path opacity="0.42" d="M404.388 55.6679V49.8745H358.873L404.388 55.6679Z" fill="#E0E0E0"/>
<path d="M407.397 47.3799C407.397 47.3799 384.788 54.9059 356.261 47.3799V32.7354C382.576 39.633 407.397 32.7354 407.397 32.7354V47.3799Z" fill="white"/>
<path d="M407.399 32.7365V47.381C407.399 47.381 397.349 50.7251 382.199 50.7251C374.623 50.7251 365.773 49.8887 356.263 47.381V32.7365C365.034 35.0362 373.641 35.8027 381.216 35.8027C396.367 35.8027 407.398 32.7365 407.398 32.7365M409.604 29.8198L406.813 30.5949C406.694 30.6277 395.851 33.5814 381.217 33.5814C372.608 33.5814 364.399 32.574 356.819 30.5878L354.059 29.864V49.0937L355.704 49.5282C364.3 51.7952 373.213 52.945 382.199 52.945C397.527 52.945 407.667 49.6294 408.091 49.4883L409.604 48.9854V29.8213V29.8198Z" fill="#F7F7F7"/>
<path d="M364.71 38.4591C364.863 38.4876 365.003 38.546 365.129 38.6315C365.255 38.717 365.359 38.8182 365.44 38.935C365.522 39.0518 365.582 39.1829 365.618 39.3311C365.655 39.4793 365.661 39.6289 365.634 39.7814C365.374 41.2632 365.113 42.745 364.853 44.2269C364.826 44.3793 364.768 44.519 364.68 44.6444C364.591 44.7697 364.485 44.8738 364.362 44.9564C364.237 45.039 364.097 45.0946 363.94 45.1245C363.783 45.1544 363.622 45.1544 363.458 45.1231C362.249 44.8923 361.043 44.6401 359.841 44.3651C359.678 44.328 359.529 44.2639 359.398 44.1727C359.265 44.0815 359.156 43.9733 359.072 43.8464C358.987 43.7196 358.931 43.5828 358.902 43.4318C358.874 43.2822 358.878 43.1326 358.914 42.9816C359.263 41.5183 359.611 40.0549 359.961 38.5916C359.996 38.4406 360.06 38.3052 360.149 38.1841C360.238 38.063 360.346 37.9661 360.47 37.892C360.595 37.8194 360.732 37.7681 360.882 37.741C361.032 37.7125 361.183 37.7168 361.335 37.751C362.457 38.0074 363.582 38.244 364.711 38.4591H364.71ZM363.823 39.9637C363.061 39.8141 362.301 39.6546 361.543 39.485C361.294 40.6206 361.045 41.7562 360.796 42.8904C361.581 43.0656 362.369 43.2309 363.158 43.3862C363.38 42.2449 363.6 41.1036 363.823 39.9637Z" fill="#122F4C"/>
<path d="M372.428 39.6524C372.459 39.6909 372.473 39.7365 372.468 39.7878C372.424 40.2124 372.38 40.6356 372.336 41.0602C372.33 41.1115 372.308 41.1528 372.268 41.1841C372.229 41.2155 372.182 41.2283 372.13 41.2226C371.033 41.1058 369.939 40.969 368.847 40.8137C368.814 40.8094 368.796 40.8194 368.793 40.845C368.743 41.1941 368.695 41.5418 368.646 41.8909C368.641 41.9236 368.655 41.9407 368.688 41.9464C369.526 42.0661 370.365 42.173 371.205 42.2713C371.258 42.277 371.299 42.2998 371.329 42.3397C371.358 42.3796 371.37 42.4238 371.364 42.4751C371.319 42.8769 371.273 43.2772 371.23 43.679C371.224 43.7303 371.203 43.7717 371.164 43.803C371.126 43.8344 371.081 43.8472 371.027 43.8415C370.174 43.7432 369.321 43.6335 368.469 43.5123C368.435 43.5081 368.416 43.5209 368.412 43.5537C368.31 44.2732 368.21 44.9928 368.108 45.7123C368.091 45.8334 368.017 45.8847 367.887 45.8662C367.413 45.7978 366.94 45.7251 366.466 45.6496C366.336 45.6282 366.281 45.5584 366.299 45.4359C366.635 43.3243 366.972 41.2141 367.307 39.1025C367.327 38.9813 367.396 38.93 367.518 38.95C369.108 39.2036 370.703 39.4159 372.302 39.5869C372.353 39.5926 372.396 39.6154 372.427 39.6539L372.428 39.6524Z" fill="#122F4C"/>
<path d="M378.571 40.1006C378.605 40.1376 378.622 40.1818 378.619 40.2331C378.602 40.6591 378.586 41.0852 378.569 41.5112C378.568 41.5625 378.548 41.6052 378.51 41.6394C378.472 41.6736 378.428 41.6893 378.376 41.6879C377.276 41.6423 376.176 41.5782 375.077 41.4955C375.044 41.4927 375.027 41.5041 375.025 41.5297C374.998 41.8802 374.972 42.2322 374.945 42.5827C374.943 42.6154 374.958 42.6325 374.992 42.6354C375.834 42.6995 376.677 42.7522 377.522 42.7936C377.576 42.7964 377.617 42.8163 377.65 42.8534C377.681 42.8904 377.696 42.9346 377.693 42.9859C377.675 43.3891 377.655 43.7924 377.637 44.1956C377.634 44.2469 377.616 44.2896 377.58 44.3238C377.545 44.358 377.5 44.3737 377.446 44.3709C376.588 44.3281 375.732 44.2754 374.876 44.2098C374.842 44.207 374.824 44.2227 374.822 44.254C374.767 44.9793 374.713 45.7031 374.658 46.4283C374.65 46.5509 374.579 46.6064 374.447 46.5965C373.97 46.5594 373.495 46.5181 373.018 46.4739C372.886 46.4611 372.827 46.3941 372.838 46.2716C373.036 44.1429 373.236 42.0142 373.434 39.8854C373.445 39.7629 373.512 39.7073 373.635 39.7187C375.235 39.8669 376.839 39.9738 378.442 40.0393C378.493 40.0408 378.537 40.0607 378.571 40.0977V40.1006Z" fill="#122F4C"/>
<path d="M381.233 46.71C381.233 46.8326 381.165 46.8938 381.034 46.8924C380.557 46.8867 380.079 46.8768 379.602 46.8639C379.47 46.8611 379.406 46.797 379.409 46.6744C379.47 44.5372 379.531 42.3999 379.59 40.2626C379.593 40.1401 379.657 40.0803 379.78 40.0831C380.226 40.0945 380.672 40.1045 381.117 40.1088C381.24 40.1102 381.301 40.1729 381.3 40.2954C381.277 42.4327 381.256 44.5714 381.233 46.7086V46.71Z" fill="#122F4C"/>
<path d="M384.59 41.7854C384.555 41.8182 384.538 41.8609 384.539 41.9122C384.563 42.958 384.587 44.0039 384.611 45.0511C384.611 45.1024 384.632 45.1437 384.671 45.1751C384.709 45.2064 384.755 45.2221 384.809 45.2207C385.902 45.1922 386.994 45.1466 388.085 45.0825C388.14 45.0796 388.187 45.0939 388.227 45.1281C388.266 45.1608 388.288 45.2036 388.29 45.2549C388.316 45.6809 388.341 46.1055 388.367 46.5315C388.37 46.5828 388.353 46.6284 388.317 46.6655C388.282 46.7039 388.235 46.7239 388.18 46.7267C387.458 46.7695 386.735 46.8037 386.012 46.8308C385.418 46.8521 384.822 46.8692 384.228 46.8806C384.165 46.8806 384.103 46.8835 384.041 46.8835C383.875 46.8863 383.717 46.8593 383.568 46.8037C383.418 46.7481 383.288 46.6683 383.178 46.5657C383.066 46.4632 382.98 46.3435 382.917 46.2038C382.855 46.0656 382.822 45.9189 382.822 45.7636C382.822 45.7051 382.822 45.6467 382.822 45.5897C382.822 45.3546 382.82 45.1181 382.818 44.883C382.814 44.1307 382.81 43.3784 382.807 42.6261C382.807 42.4166 382.804 42.2057 382.804 41.9963C382.804 41.7469 382.801 41.499 382.8 41.2497C382.8 41.0943 382.828 40.9476 382.885 40.808C382.943 40.6683 383.022 40.5486 383.125 40.4475C383.229 40.3463 383.349 40.2651 383.488 40.201C383.626 40.1383 383.772 40.1055 383.928 40.1027C383.986 40.1027 384.044 40.1012 384.102 40.0998C385.333 40.0756 386.563 40.0286 387.791 39.9559C387.843 39.953 387.887 39.9687 387.925 40.0015C387.963 40.0343 387.983 40.077 387.986 40.1283C388.012 40.5543 388.037 40.9789 388.063 41.405C388.065 41.4563 388.05 41.5019 388.016 41.5389C387.982 41.5759 387.938 41.5973 387.886 41.6002C386.833 41.6614 385.779 41.707 384.723 41.7327C384.671 41.7327 384.627 41.7512 384.591 41.784L384.59 41.7854Z" fill="#122F4C"/>
<path d="M391.834 46.2639C391.845 46.3864 391.786 46.4534 391.654 46.4662C391.178 46.5104 390.702 46.5517 390.226 46.5901C390.094 46.6001 390.025 46.5446 390.015 46.422C389.853 44.2905 389.691 42.1589 389.528 40.0273C389.519 39.9048 389.575 39.8392 389.698 39.8293C390.143 39.7936 390.587 39.7552 391.031 39.7139C391.153 39.7025 391.221 39.758 391.232 39.8791C391.433 42.0079 391.633 44.1366 391.834 46.2653V46.2639Z" fill="#122F4C"/>
<path d="M397.248 38.9183C397.403 38.8941 397.553 38.8998 397.7 38.9383C397.847 38.9767 397.978 39.0352 398.095 39.1178C398.211 39.199 398.311 39.303 398.396 39.4298C398.481 39.5567 398.536 39.6949 398.563 39.8488C398.871 41.6441 399.178 43.4394 399.487 45.2332C399.495 45.2845 399.484 45.3301 399.453 45.3714C399.422 45.4128 399.378 45.4384 399.323 45.4484C398.847 45.5296 398.37 45.608 397.895 45.6835C397.84 45.692 397.79 45.6821 397.748 45.6521C397.704 45.6236 397.678 45.5823 397.671 45.531C397.584 44.9597 397.496 44.3883 397.41 43.8169C397.401 43.7656 397.378 43.7257 397.339 43.6958C397.299 43.6659 397.254 43.6545 397.2 43.6631C396.535 43.7656 395.869 43.8597 395.202 43.948C395.148 43.9551 395.104 43.9794 395.072 44.0193C395.039 44.0592 395.027 44.1048 395.032 44.156C395.106 44.7288 395.179 45.303 395.253 45.8758C395.269 45.9969 395.211 46.0668 395.08 46.0839C394.606 46.1451 394.131 46.2021 393.655 46.2563C393.524 46.2705 393.453 46.2178 393.439 46.0953C393.239 44.2843 393.04 42.4747 392.84 40.6638C392.823 40.5099 392.836 40.3603 392.88 40.2164C392.922 40.0725 392.99 39.9442 393.082 39.8331C393.174 39.7219 393.286 39.6279 393.416 39.5495C393.548 39.4726 393.689 39.4241 393.844 39.4042C394.98 39.2631 396.115 39.1007 397.248 38.9183ZM397.159 42.1983C397.073 41.6369 396.988 41.0741 396.902 40.5127C396.137 40.631 395.372 40.7407 394.605 40.8404C394.677 41.4047 394.749 41.9675 394.823 42.5317C395.603 42.4306 396.382 42.3194 397.159 42.1983Z" fill="#122F4C"/>
<path d="M405.361 42.5251C405.415 42.5123 405.461 42.5194 405.504 42.5451C405.545 42.5722 405.572 42.6106 405.584 42.6605C405.684 43.0751 405.783 43.4898 405.882 43.9044C405.893 43.9543 405.887 44.0013 405.862 44.044C405.836 44.0868 405.797 44.1153 405.742 44.1281C404.277 44.4786 402.808 44.7963 401.334 45.0813C401.203 45.107 401.127 45.0585 401.104 44.9374C400.709 42.8372 400.313 40.7355 399.918 38.6353C399.896 38.5142 399.945 38.443 400.066 38.4202C400.506 38.3347 400.944 38.2478 401.383 38.1566C401.503 38.1309 401.577 38.1794 401.601 38.2991C401.924 39.8578 402.246 41.4166 402.569 42.9754C402.579 43.0267 402.606 43.0637 402.65 43.0865C402.693 43.1108 402.742 43.1164 402.795 43.105C403.653 42.9241 404.508 42.7303 405.362 42.5251H405.361Z" fill="#122F4C"/>
<path d="M409.631 29.8134L406.814 28.4071L406.783 0H356.548L356.602 28.6336L354.017 29.9245L356.602 31.7327V31.7726H356.66L356.818 31.8837L356.83 31.7726H357.702C357.702 31.7726 381.818 39.0635 406.449 31.8837H406.817V31.7783C406.817 31.7783 406.828 31.7754 406.832 31.774L409.633 29.8148L409.631 29.8134Z" fill="#F7F7F7"/>
<path d="M366.445 79.996C366.582 80.0544 366.7 80.1342 366.799 80.2368C366.898 80.3394 366.977 80.4576 367.038 80.593C367.099 80.7269 367.128 80.8722 367.128 81.0261V82.8343C367.128 82.9881 367.099 83.1335 367.038 83.2717C366.977 83.4099 366.898 83.5296 366.799 83.6322C366.7 83.7348 366.582 83.8145 366.445 83.873C366.308 83.9314 366.163 83.9599 366.011 83.9599H362.2C362.078 83.9599 362.019 83.8986 362.019 83.7775V82.6134C362.019 82.5621 362.036 82.5194 362.071 82.4837C362.106 82.4481 362.149 82.431 362.2 82.431H365.447C365.498 82.431 365.541 82.4153 365.576 82.3826C365.611 82.3512 365.628 82.3085 365.628 82.2572V81.4593C365.628 81.408 365.611 81.3652 365.576 81.3296C365.541 81.294 365.498 81.2769 365.447 81.2769H363.136C362.984 81.2769 362.839 81.2484 362.702 81.19C362.565 81.1316 362.446 81.0518 362.344 80.9492C362.242 80.8466 362.163 80.7283 362.105 80.593C362.047 80.4576 362.019 80.3137 362.019 80.1598V78.3517C362.019 78.1978 362.047 78.0525 362.105 77.9143C362.161 77.7761 362.242 77.6578 362.344 77.5581C362.446 77.4583 362.565 77.3785 362.702 77.3173C362.839 77.256 362.984 77.2261 363.136 77.2261H366.736C366.857 77.2261 366.918 77.2873 366.918 77.4085V78.5911C366.918 78.6424 366.901 78.6837 366.865 78.7165C366.83 78.7492 366.787 78.7649 366.736 78.7649H363.69C363.639 78.7649 363.598 78.782 363.565 78.8176C363.533 78.8532 363.517 78.896 363.517 78.9473V79.7267C363.517 79.778 363.533 79.8207 363.565 79.8563C363.596 79.892 363.639 79.9091 363.69 79.9091H366.011C366.163 79.9091 366.308 79.9375 366.445 79.996Z" fill="#122F4C"/>
<path d="M373.637 77.2774C373.673 77.313 373.69 77.3557 373.69 77.407V78.6181C373.69 78.6694 373.673 78.7108 373.637 78.7435C373.602 78.7763 373.559 78.792 373.508 78.792H370.309C370.276 78.792 370.261 78.8077 370.261 78.8404V79.8891C370.261 79.9148 370.276 79.9276 370.309 79.9276H373.04C373.091 79.9276 373.132 79.9447 373.165 79.9803C373.196 80.0159 373.213 80.0587 373.213 80.11V81.0717C373.213 81.123 373.197 81.1672 373.165 81.2014C373.132 81.237 373.091 81.2541 373.04 81.2541H370.309C370.276 81.2541 370.261 81.2698 370.261 81.3025V82.3413C370.261 82.374 370.276 82.3897 370.309 82.3897H373.508C373.559 82.3897 373.602 82.4068 373.637 82.4424C373.673 82.478 373.69 82.5208 373.69 82.5721V83.7746C373.69 83.8259 373.673 83.8687 373.637 83.9043C373.602 83.9399 373.559 83.957 373.508 83.957H368.762C368.64 83.957 368.581 83.8958 368.581 83.7746V77.4084C368.581 77.3572 368.598 77.3144 368.633 77.2788C368.669 77.2432 368.711 77.2261 368.762 77.2261H373.508C373.559 77.2261 373.602 77.2432 373.637 77.2788V77.2774Z" fill="#122F4C"/>
<path d="M379.702 77.2261C379.855 77.2261 379.999 77.256 380.136 77.3173C380.274 77.3785 380.391 77.4583 380.49 77.5581C380.589 77.6578 380.668 77.7761 380.729 77.9143C380.79 78.0525 380.82 78.1978 380.82 78.3517V83.7747C380.82 83.8259 380.803 83.8687 380.767 83.9043C380.732 83.9399 380.69 83.957 380.639 83.957H379.311C379.26 83.957 379.218 83.9399 379.182 83.9043C379.147 83.8687 379.13 83.8259 379.13 83.7747V82.0534C379.13 82.0021 379.115 81.9594 379.082 81.9238C379.049 81.8882 379.008 81.8711 378.957 81.8711H377.067C377.016 81.8711 376.974 81.8882 376.938 81.9238C376.903 81.9594 376.886 82.0021 376.886 82.0534V83.7747C376.886 83.8972 376.825 83.957 376.705 83.957H375.387C375.267 83.957 375.206 83.8958 375.206 83.7747V78.3517C375.206 78.1978 375.234 78.0525 375.292 77.9143C375.35 77.7761 375.43 77.6578 375.532 77.5581C375.633 77.4583 375.752 77.3785 375.89 77.3173C376.027 77.256 376.171 77.2261 376.324 77.2261H379.705H379.702ZM379.129 80.4277V78.735H376.884V80.4277H379.129Z" fill="#122F4C"/>
<path d="M386.722 79.996C386.86 80.0544 386.977 80.1342 387.076 80.2368C387.175 80.3394 387.254 80.4576 387.315 80.593C387.376 80.7269 387.406 80.8722 387.406 81.0261V82.8343C387.406 82.9881 387.376 83.1335 387.315 83.2717C387.254 83.4099 387.175 83.5296 387.076 83.6322C386.977 83.7348 386.86 83.8145 386.722 83.873C386.585 83.9314 386.441 83.9599 386.288 83.9599H382.477C382.355 83.9599 382.296 83.8986 382.296 83.7775V82.6134C382.296 82.5621 382.313 82.5194 382.348 82.4837C382.384 82.4481 382.426 82.431 382.477 82.431H385.725C385.776 82.431 385.818 82.4153 385.853 82.3826C385.889 82.3512 385.906 82.3085 385.906 82.2572V81.4593C385.906 81.408 385.889 81.3652 385.853 81.3296C385.818 81.294 385.776 81.2769 385.725 81.2769H383.414C383.261 81.2769 383.117 81.2484 382.979 81.19C382.842 81.1316 382.723 81.0518 382.621 80.9492C382.519 80.8466 382.44 80.7283 382.382 80.593C382.324 80.4576 382.296 80.3137 382.296 80.1598V78.3517C382.296 78.1978 382.324 78.0525 382.382 77.9143C382.439 77.7761 382.519 77.6578 382.621 77.5581C382.723 77.4583 382.842 77.3785 382.979 77.3173C383.117 77.256 383.261 77.2261 383.414 77.2261H387.014C387.136 77.2261 387.195 77.2873 387.195 77.4085V78.5911C387.195 78.6424 387.178 78.6837 387.143 78.7165C387.107 78.7492 387.065 78.7649 387.014 78.7649H383.967C383.916 78.7649 383.875 78.782 383.843 78.8176C383.811 78.8532 383.794 78.896 383.794 78.9473V79.7267C383.794 79.778 383.81 79.8207 383.843 79.8563C383.874 79.892 383.916 79.9091 383.967 79.9091H386.288C386.441 79.9091 386.585 79.9375 386.722 79.996Z" fill="#122F4C"/>
<path d="M393.336 77.2261C393.489 77.2261 393.634 77.256 393.771 77.3173C393.908 77.3785 394.026 77.4583 394.125 77.5581C394.224 77.6578 394.303 77.7761 394.364 77.9143C394.425 78.0525 394.454 78.1978 394.454 78.3517V82.8328C394.454 82.9867 394.425 83.132 394.364 83.2703C394.303 83.4085 394.224 83.5282 394.125 83.6307C394.026 83.7333 393.908 83.8131 393.771 83.8715C393.634 83.93 393.489 83.9585 393.336 83.9585H389.956C389.803 83.9585 389.659 83.93 389.521 83.8715C389.384 83.8131 389.265 83.7333 389.163 83.6307C389.061 83.5282 388.982 83.4085 388.924 83.2703C388.868 83.132 388.838 82.9867 388.838 82.8328V78.3517C388.838 78.1978 388.866 78.0525 388.924 77.9143C388.982 77.7761 389.061 77.6578 389.163 77.5581C389.265 77.4583 389.384 77.3785 389.521 77.3173C389.659 77.256 389.803 77.2261 389.956 77.2261H393.336ZM392.763 78.8604H390.519V82.3227H392.763V78.8604Z" fill="#122F4C"/>
<path d="M401.523 77.2802C401.558 77.3158 401.575 77.3586 401.575 77.4099V83.7761C401.575 83.8274 401.558 83.8701 401.523 83.9057C401.487 83.9414 401.445 83.9585 401.394 83.9585H400.018C399.968 83.9585 399.917 83.9442 399.866 83.9157C399.815 83.8872 399.776 83.8502 399.751 83.8046L397.64 79.8806V83.7747C397.64 83.8972 397.579 83.957 397.459 83.957H396.141C396.019 83.957 395.96 83.8958 395.96 83.7747V77.4085C395.96 77.2873 396.021 77.2261 396.141 77.2261H397.497C397.548 77.2261 397.599 77.2403 397.65 77.2688C397.701 77.2973 397.739 77.3344 397.764 77.38L399.884 81.3125V77.4085C399.884 77.3572 399.901 77.3144 399.936 77.2788C399.972 77.2432 400.014 77.2261 400.065 77.2261H401.393C401.443 77.2261 401.486 77.2432 401.521 77.2788L401.523 77.2802Z" fill="#122F4C"/>
<path d="M365.444 22.4372C365.484 22.4543 365.518 22.4785 365.546 22.507C365.575 22.5355 365.597 22.5697 365.616 22.6096C365.634 22.6495 365.641 22.6909 365.641 22.735V24.2952C365.641 24.3095 365.635 24.3223 365.625 24.3323C365.616 24.3422 365.603 24.3479 365.589 24.3479H365.207C365.192 24.3479 365.18 24.3422 365.171 24.3323C365.163 24.3223 365.157 24.3095 365.157 24.2952V22.8818H364.85V24.2952C364.85 24.3095 364.846 24.3223 364.836 24.3323C364.826 24.3422 364.815 24.3479 364.8 24.3479H364.454C364.44 24.3479 364.427 24.3422 364.417 24.3323C364.407 24.3223 364.401 24.3095 364.401 24.2952V22.8818H364.094V24.2952C364.094 24.3308 364.077 24.3479 364.042 24.3479H363.663C363.627 24.3479 363.61 24.3308 363.61 24.2952V22.4629C363.61 22.4273 363.627 22.4102 363.663 22.4102H365.32C365.364 22.4102 365.406 22.4187 365.444 22.4358V22.4372Z" fill="#242425"/>
<path d="M367.373 22.4121C367.417 22.4121 367.459 22.4207 367.499 22.4378C367.539 22.4549 367.572 22.4791 367.601 22.5076C367.629 22.5361 367.652 22.5703 367.67 22.6102C367.689 22.6501 367.696 22.6914 367.696 22.7355V24.2957C367.696 24.31 367.69 24.3228 367.68 24.3328C367.67 24.3428 367.657 24.3485 367.643 24.3485H367.261C367.247 24.3485 367.234 24.3428 367.224 24.3328C367.214 24.3228 367.209 24.31 367.209 24.2957V23.7999C367.209 23.7857 367.205 23.7728 367.195 23.7629C367.185 23.7529 367.173 23.7472 367.159 23.7472H366.614C366.6 23.7472 366.588 23.7529 366.578 23.7629C366.568 23.7728 366.562 23.7857 366.562 23.7999V24.2957C366.562 24.3314 366.545 24.3485 366.51 24.3485H366.13C366.097 24.3485 366.078 24.3314 366.078 24.2957V22.7355C366.078 22.6914 366.087 22.6486 366.102 22.6102C366.119 22.5703 366.142 22.5361 366.172 22.5076C366.201 22.4791 366.235 22.4563 366.275 22.4378C366.314 22.4207 366.355 22.4121 366.399 22.4121H367.373ZM367.209 23.334V22.8467H366.564V23.334H367.209Z" fill="#242425"/>
<path d="M369.421 22.4273C369.431 22.4372 369.437 22.4501 369.437 22.4643V24.0245C369.437 24.0687 369.428 24.1114 369.411 24.1499C369.394 24.1898 369.37 24.224 369.342 24.2539C369.313 24.2838 369.279 24.3066 369.24 24.3237C369.2 24.3408 369.159 24.3479 369.115 24.3479H368.287C368.244 24.3479 368.201 24.3394 368.163 24.3237C368.123 24.3066 368.089 24.2838 368.06 24.2539C368.03 24.224 368.007 24.1898 367.99 24.1499C367.973 24.11 367.965 24.0687 367.965 24.0245V23.4318C367.965 23.3961 367.982 23.379 368.017 23.379H368.396C368.43 23.379 368.449 23.3961 368.449 23.4318V23.8279C368.449 23.8421 368.453 23.8549 368.464 23.8635C368.474 23.872 368.487 23.8777 368.501 23.8777H368.9C368.914 23.8777 368.927 23.8735 368.937 23.8635C368.947 23.8535 368.953 23.8421 368.953 23.8279V22.4629C368.953 22.4486 368.957 22.4358 368.967 22.4258C368.977 22.4159 368.988 22.4102 369.002 22.4102H369.384C369.398 22.4102 369.411 22.4159 369.421 22.4258V22.4273Z" fill="#242425"/>
<path d="M371.158 22.4121C371.201 22.4121 371.244 22.4207 371.282 22.4378C371.322 22.4549 371.356 22.4791 371.384 22.5076C371.412 22.5361 371.435 22.5703 371.453 22.6102C371.472 22.6501 371.479 22.6914 371.479 22.7355V24.025C371.479 24.0692 371.47 24.1119 371.453 24.1504C371.436 24.1889 371.414 24.2245 371.384 24.2544C371.356 24.2844 371.322 24.3071 371.282 24.3242C371.242 24.3413 371.201 24.3485 371.158 24.3485H370.184C370.14 24.3485 370.098 24.3399 370.059 24.3242C370.02 24.3071 369.986 24.2844 369.956 24.2544C369.926 24.2245 369.904 24.1903 369.887 24.1504C369.87 24.1105 369.861 24.0692 369.861 24.025V22.7355C369.861 22.6914 369.87 22.6486 369.887 22.6102C369.904 22.5717 369.926 22.5361 369.956 22.5076C369.986 22.4791 370.02 22.4563 370.059 22.4378C370.099 22.4207 370.14 22.4121 370.184 22.4121H371.158ZM370.992 22.8823H370.347V23.8783H370.992V22.8823Z" fill="#242425"/>
<path d="M373.586 24.3038C373.593 24.3166 373.595 24.328 373.589 24.3351C373.583 24.3437 373.573 24.3479 373.559 24.3479H373.122C373.108 24.3479 373.092 24.3437 373.078 24.3351C373.064 24.3266 373.053 24.3166 373.046 24.3038L372.754 23.778C372.75 23.7709 372.744 23.7666 372.734 23.7666H372.407C372.399 23.7666 372.393 23.7709 372.393 23.7809V24.2952C372.393 24.3308 372.376 24.3479 372.341 24.3479H371.962C371.926 24.3479 371.909 24.3308 371.909 24.2952V22.4629C371.909 22.4273 371.926 22.4102 371.962 22.4102H373.204C373.248 22.4102 373.29 22.4187 373.329 22.4358C373.368 22.4529 373.402 22.4771 373.43 22.5056C373.459 22.5341 373.481 22.5683 373.5 22.6082C373.517 22.6481 373.525 22.6894 373.525 22.7336V23.4617C373.525 23.5315 373.504 23.5956 373.463 23.6512C373.422 23.7082 373.37 23.7452 373.304 23.7666L373.296 23.7695C373.283 23.7737 373.28 23.778 373.287 23.7866L373.29 23.7923L373.585 24.3038H373.586ZM373.038 22.8618H372.376V23.332H373.038V22.8618Z" fill="#242425"/>
<path d="M376.18 23.8777C376.194 23.8777 376.207 23.8834 376.215 23.8934C376.224 23.9034 376.23 23.9162 376.23 23.9305V24.2952C376.23 24.3095 376.225 24.3223 376.215 24.3323C376.206 24.3422 376.194 24.3479 376.18 24.3479H374.993C374.957 24.3479 374.94 24.3308 374.94 24.2952V22.4629C374.94 22.4273 374.957 22.4102 374.993 22.4102H375.372C375.407 22.4102 375.424 22.4273 375.424 22.4629V23.8279C375.424 23.8421 375.429 23.8549 375.44 23.8635C375.451 23.872 375.463 23.8777 375.477 23.8777H376.18Z" fill="#242425"/>
<path d="M377.956 22.4303C377.966 22.4403 377.971 22.4531 377.971 22.4674V22.8164C377.971 22.8307 377.966 22.8435 377.956 22.8521C377.946 22.8606 377.933 22.8663 377.919 22.8663H376.998C376.989 22.8663 376.984 22.8706 376.984 22.8806V23.1826C376.984 23.1897 376.988 23.194 376.998 23.194H377.784C377.799 23.194 377.811 23.1997 377.82 23.2097C377.828 23.2197 377.834 23.2325 377.834 23.2467V23.5232C377.834 23.5374 377.83 23.5502 377.82 23.5602C377.81 23.5702 377.799 23.5759 377.784 23.5759H376.998C376.989 23.5759 376.984 23.5802 376.984 23.5901V23.8893C376.984 23.8979 376.988 23.9036 376.998 23.9036H377.919C377.933 23.9036 377.946 23.9093 377.956 23.9193C377.966 23.9292 377.971 23.9421 377.971 23.9563V24.3025C377.971 24.3168 377.966 24.3296 377.956 24.3396C377.946 24.3496 377.933 24.3553 377.919 24.3553H376.553C376.518 24.3553 376.501 24.3382 376.501 24.3025V22.4702C376.501 22.456 376.507 22.4431 376.517 22.4332C376.526 22.4232 376.539 22.4175 376.553 22.4175H377.919C377.933 22.4175 377.946 22.4232 377.956 22.4332V22.4303Z" fill="#242425"/>
<path d="M379.692 22.4121C379.736 22.4121 379.779 22.4207 379.818 22.4378C379.858 22.4549 379.892 22.4791 379.92 22.5076C379.948 22.5361 379.971 22.5703 379.989 22.6102C380.008 22.6501 380.015 22.6914 380.015 22.7355V24.2957C380.015 24.31 380.009 24.3228 379.999 24.3328C379.989 24.3428 379.977 24.3485 379.963 24.3485H379.58C379.566 24.3485 379.554 24.3428 379.544 24.3328C379.534 24.3228 379.528 24.31 379.528 24.2957V23.7999C379.528 23.7857 379.524 23.7728 379.514 23.7629C379.504 23.7529 379.493 23.7472 379.479 23.7472H378.934C378.92 23.7472 378.907 23.7529 378.897 23.7629C378.887 23.7728 378.881 23.7857 378.881 23.7999V24.2957C378.881 24.3314 378.864 24.3485 378.829 24.3485H378.45C378.416 24.3485 378.397 24.3314 378.397 24.2957V22.7355C378.397 22.6914 378.406 22.6486 378.422 22.6102C378.439 22.5703 378.461 22.5361 378.491 22.5076C378.521 22.4791 378.555 22.4563 378.594 22.4378C378.634 22.4207 378.675 22.4121 378.719 22.4121H379.692ZM379.528 23.334V22.8467H378.883V23.334H379.528Z" fill="#242425"/>
<path d="M382.052 23.3069C382.062 23.3169 382.068 23.3297 382.068 23.344V24.025C382.068 24.0692 382.059 24.1119 382.042 24.1504C382.025 24.1889 382.003 24.2245 381.973 24.2544C381.945 24.2844 381.911 24.3071 381.871 24.3242C381.831 24.3413 381.79 24.3485 381.746 24.3485H380.773C380.729 24.3485 380.687 24.3399 380.648 24.3242C380.609 24.3071 380.575 24.2844 380.545 24.2544C380.515 24.2245 380.493 24.1903 380.476 24.1504C380.459 24.1105 380.45 24.0692 380.45 24.025V22.7355C380.45 22.6914 380.459 22.6486 380.476 22.6102C380.493 22.5717 380.515 22.5361 380.545 22.5076C380.575 22.4791 380.609 22.4563 380.648 22.4378C380.688 22.4207 380.729 22.4121 380.773 22.4121H381.908C381.922 22.4121 381.935 22.4178 381.945 22.4278C381.954 22.4378 381.96 22.4506 381.96 22.4648V22.8296C381.96 22.8438 381.954 22.8567 381.945 22.8666C381.935 22.8766 381.922 22.8823 381.908 22.8823H380.987C380.972 22.8823 380.96 22.8866 380.95 22.8966C380.94 22.9065 380.934 22.9179 380.934 22.9322V23.8284C380.934 23.8426 380.94 23.8555 380.95 23.864C380.96 23.8726 380.972 23.8783 380.987 23.8783H381.531C381.545 23.8783 381.558 23.874 381.567 23.864C381.575 23.854 381.581 23.8426 381.581 23.8284V23.344C381.581 23.3297 381.585 23.3169 381.596 23.3069C381.608 23.2969 381.619 23.2912 381.633 23.2912H382.015C382.029 23.2912 382.042 23.2969 382.052 23.3069Z" fill="#242425"/>
<path d="M384.075 22.4278C384.084 22.4378 384.09 22.4506 384.09 22.4648V24.025C384.09 24.0692 384.082 24.1119 384.065 24.1504C384.048 24.1889 384.025 24.2245 383.995 24.2544C383.967 24.2844 383.933 24.3071 383.893 24.3242C383.854 24.3413 383.813 24.3485 383.767 24.3485H382.794C382.75 24.3485 382.708 24.3399 382.669 24.3242C382.63 24.3071 382.596 24.2844 382.566 24.2544C382.536 24.2245 382.514 24.1903 382.497 24.1504C382.48 24.1105 382.473 24.0692 382.473 24.025V22.4648C382.473 22.4292 382.49 22.4121 382.525 22.4121H382.904C382.938 22.4121 382.957 22.4292 382.957 22.4648V23.8298C382.957 23.8441 382.962 23.8569 382.972 23.8654C382.982 23.874 382.995 23.8797 383.009 23.8797H383.554C383.568 23.8797 383.581 23.8754 383.589 23.8654C383.598 23.8555 383.603 23.8441 383.603 23.8298V22.4648C383.603 22.4506 383.609 22.4378 383.619 22.4278C383.629 22.4178 383.642 22.4121 383.656 22.4121H384.038C384.052 22.4121 384.065 22.4178 384.075 22.4278Z" fill="#242425"/>
<path d="M385.99 22.4303C386 22.4403 386.005 22.4531 386.005 22.4674V22.8164C386.005 22.8307 386 22.8435 385.99 22.8521C385.98 22.8606 385.967 22.8663 385.953 22.8663H385.032C385.023 22.8663 385.018 22.8706 385.018 22.8806V23.1826C385.018 23.1897 385.022 23.194 385.032 23.194H385.819C385.833 23.194 385.846 23.1997 385.854 23.2097C385.863 23.2197 385.868 23.2325 385.868 23.2467V23.5232C385.868 23.5374 385.864 23.5502 385.854 23.5602C385.844 23.5702 385.833 23.5759 385.819 23.5759H385.032C385.023 23.5759 385.018 23.5802 385.018 23.5901V23.8893C385.018 23.8979 385.022 23.9036 385.032 23.9036H385.953C385.967 23.9036 385.98 23.9093 385.99 23.9193C386 23.9292 386.005 23.9421 386.005 23.9563V24.3025C386.005 24.3168 386 24.3296 385.99 24.3396C385.98 24.3496 385.967 24.3553 385.953 24.3553H384.588C384.552 24.3553 384.535 24.3382 384.535 24.3025V22.4702C384.535 22.456 384.541 22.4431 384.551 22.4332C384.561 22.4232 384.573 22.4175 384.588 22.4175H385.953C385.967 22.4175 385.98 22.4232 385.99 22.4332V22.4303Z" fill="#242425"/>
<path d="M388.93 22.4121C388.944 22.4121 388.957 22.4178 388.967 22.4278C388.977 22.4378 388.983 22.4506 388.983 22.4648V24.2972C388.983 24.3114 388.978 24.3242 388.967 24.3342C388.956 24.3442 388.944 24.3499 388.93 24.3499H388.548C388.534 24.3499 388.521 24.3442 388.511 24.3342C388.502 24.3242 388.496 24.3114 388.496 24.2972V23.6574C388.496 23.6432 388.492 23.6303 388.482 23.6218C388.472 23.6132 388.461 23.6076 388.446 23.6076H387.902C387.887 23.6076 387.875 23.6118 387.865 23.6218C387.855 23.6318 387.849 23.6432 387.849 23.6574V24.2972C387.849 24.3328 387.832 24.3499 387.797 24.3499H387.418C387.382 24.3499 387.365 24.3328 387.365 24.2972V22.4648C387.365 22.4292 387.382 22.4121 387.418 22.4121H387.797C387.832 22.4121 387.849 22.4292 387.849 22.4648V23.0846C387.849 23.1203 387.866 23.1374 387.902 23.1374H388.446C388.461 23.1374 388.473 23.1317 388.482 23.1217C388.49 23.1117 388.496 23.0989 388.496 23.0846V22.4648C388.496 22.4506 388.502 22.4378 388.511 22.4278C388.521 22.4178 388.534 22.4121 388.548 22.4121H388.93Z" fill="#242425"/>
<path d="M390.718 22.4121C390.762 22.4121 390.804 22.4207 390.844 22.4378C390.883 22.4549 390.917 22.4791 390.945 22.5076C390.974 22.5361 390.996 22.5703 391.015 22.6102C391.033 22.6501 391.04 22.6914 391.04 22.7355V24.2957C391.04 24.31 391.035 24.3228 391.025 24.3328C391.015 24.3428 391.002 24.3485 390.988 24.3485H390.606C390.592 24.3485 390.579 24.3428 390.569 24.3328C390.559 24.3228 390.554 24.31 390.554 24.2957V23.7999C390.554 23.7857 390.549 23.7728 390.539 23.7629C390.529 23.7529 390.518 23.7472 390.504 23.7472H389.959C389.945 23.7472 389.932 23.7529 389.922 23.7629C389.912 23.7728 389.907 23.7857 389.907 23.7999V24.2957C389.907 24.3314 389.89 24.3485 389.854 24.3485H389.475C389.441 24.3485 389.423 24.3314 389.423 24.2957V22.7355C389.423 22.6914 389.431 22.6486 389.447 22.6102C389.464 22.5703 389.487 22.5361 389.516 22.5076C389.546 22.4791 389.58 22.4563 389.62 22.4378C389.659 22.4207 389.7 22.4121 389.744 22.4121H390.718ZM390.552 23.334V22.8467H389.907V23.334H390.552Z" fill="#242425"/>
<path d="M391.964 22.8966C391.954 22.9051 391.949 22.9179 391.949 22.9322V23.8284C391.949 23.8426 391.953 23.8555 391.964 23.864C391.976 23.8726 391.987 23.8783 392.001 23.8783H392.884C392.898 23.8783 392.911 23.884 392.921 23.8939C392.931 23.9039 392.937 23.9167 392.937 23.931V24.2957C392.937 24.31 392.932 24.3228 392.921 24.3328C392.91 24.3428 392.898 24.3485 392.884 24.3485H391.787C391.744 24.3485 391.701 24.3399 391.663 24.3242C391.623 24.3071 391.589 24.2844 391.56 24.2544C391.53 24.2245 391.507 24.1903 391.49 24.1504C391.473 24.1105 391.465 24.0692 391.465 24.025V22.7355C391.465 22.6914 391.473 22.6486 391.49 22.6102C391.507 22.5703 391.53 22.5361 391.56 22.5076C391.589 22.4791 391.623 22.4563 391.663 22.4378C391.703 22.4207 391.744 22.4121 391.787 22.4121H392.884C392.898 22.4121 392.911 22.4178 392.921 22.4278C392.931 22.4378 392.937 22.4506 392.937 22.4648V22.8296C392.937 22.8438 392.932 22.8567 392.921 22.8666C392.91 22.8766 392.898 22.8823 392.884 22.8823H392.001C391.987 22.8823 391.974 22.8866 391.964 22.8966Z" fill="#242425"/>
<path d="M394.47 23.2285C394.47 23.2285 394.463 23.2399 394.467 23.2485L395.111 24.3057C395.118 24.3185 395.119 24.3299 395.114 24.3371C395.108 24.3456 395.098 24.3499 395.084 24.3499H394.628C394.614 24.3499 394.599 24.3456 394.585 24.3371C394.57 24.3285 394.559 24.3185 394.552 24.3057L394.137 23.5506C394.132 23.542 394.127 23.5406 394.123 23.5477L393.895 23.7999C393.887 23.8099 393.878 23.8227 393.873 23.8398C393.866 23.8569 393.863 23.874 393.863 23.8882V24.2972C393.863 24.3328 393.846 24.3499 393.811 24.3499H393.431C393.396 24.3499 393.379 24.3328 393.379 24.2972V22.4648C393.379 22.4292 393.396 22.4121 393.431 22.4121H393.811C393.846 22.4121 393.863 22.4292 393.863 22.4648V23.287L394.572 22.4506C394.58 22.4392 394.593 22.4306 394.61 22.4235C394.627 22.4164 394.643 22.4121 394.657 22.4121H395.112C395.127 22.4121 395.135 22.4164 395.138 22.4235C395.141 22.4306 395.138 22.4406 395.128 22.4506L394.471 23.2285H394.47Z" fill="#242425"/>
<path d="M395.946 24.2972C395.946 24.3328 395.929 24.3499 395.894 24.3499H395.514C395.479 24.3499 395.462 24.3328 395.462 24.2972V22.4648C395.462 22.4292 395.479 22.4121 395.514 22.4121H395.894C395.929 22.4121 395.946 22.4292 395.946 22.4648V24.2972Z" fill="#242425"/>
<path d="M397.796 22.4372C397.835 22.4543 397.869 22.4785 397.898 22.507C397.926 22.5355 397.949 22.5697 397.967 22.6096C397.984 22.6495 397.992 22.6909 397.992 22.735V24.2952C397.992 24.3095 397.988 24.3223 397.977 24.3323C397.966 24.3422 397.954 24.3479 397.94 24.3479H397.558C397.544 24.3479 397.531 24.3422 397.523 24.3323C397.514 24.3223 397.508 24.3095 397.508 24.2952V22.9302C397.508 22.916 397.503 22.9032 397.493 22.8946C397.483 22.8861 397.47 22.8804 397.456 22.8804H396.911C396.897 22.8804 396.884 22.8846 396.875 22.8946C396.865 22.9046 396.859 22.916 396.859 22.9302V24.2952C396.859 24.3308 396.842 24.3479 396.807 24.3479H396.427C396.392 24.3479 396.375 24.3308 396.375 24.2952V22.4629C396.375 22.4273 396.392 22.4102 396.427 22.4102H397.67C397.714 22.4102 397.756 22.4187 397.794 22.4358L397.796 22.4372Z" fill="#242425"/>
<path d="M400.024 23.3069C400.034 23.3169 400.039 23.3297 400.039 23.344V24.025C400.039 24.0692 400.031 24.1119 400.014 24.1504C399.997 24.1889 399.974 24.2245 399.945 24.2544C399.916 24.2844 399.882 24.3071 399.843 24.3242C399.803 24.3413 399.762 24.3485 399.718 24.3485H398.745C398.701 24.3485 398.658 24.3399 398.62 24.3242C398.58 24.3071 398.546 24.2844 398.517 24.2544C398.487 24.2245 398.464 24.1903 398.447 24.1504C398.43 24.1105 398.422 24.0692 398.422 24.025V22.7355C398.422 22.6914 398.43 22.6486 398.447 22.6102C398.464 22.5717 398.487 22.5361 398.517 22.5076C398.546 22.4791 398.58 22.4563 398.62 22.4378C398.66 22.4207 398.701 22.4121 398.745 22.4121H399.879C399.894 22.4121 399.906 22.4178 399.916 22.4278C399.926 22.4378 399.932 22.4506 399.932 22.4648V22.8296C399.932 22.8438 399.926 22.8567 399.916 22.8666C399.906 22.8766 399.894 22.8823 399.879 22.8823H398.958C398.944 22.8823 398.931 22.8866 398.921 22.8966C398.911 22.9065 398.906 22.9179 398.906 22.9322V23.8284C398.906 23.8426 398.911 23.8555 398.921 23.864C398.931 23.8726 398.944 23.8783 398.958 23.8783H399.503C399.517 23.8783 399.53 23.874 399.538 23.864C399.547 23.854 399.553 23.8426 399.553 23.8284V23.344C399.553 23.3297 399.557 23.3169 399.568 23.3069C399.579 23.2969 399.591 23.2912 399.605 23.2912H399.987C400.001 23.2912 400.014 23.2969 400.024 23.3069Z" fill="#242425"/>
<path d="M375.207 9.07979C375.456 9.19093 375.67 9.33626 375.85 9.51579C376.029 9.69675 376.174 9.9119 376.284 10.1612C376.394 10.412 376.45 10.6756 376.45 10.9549V21.1183C376.45 21.2109 376.417 21.2907 376.353 21.3534C376.29 21.4161 376.212 21.4488 376.118 21.4488H373.704C373.611 21.4488 373.536 21.4175 373.478 21.3534C373.42 21.2893 373.391 21.2109 373.391 21.1183V11.8796H371.446V21.1183C371.446 21.2109 371.416 21.2907 371.359 21.3534C371.301 21.4175 371.226 21.4488 371.133 21.4488H368.944C368.85 21.4488 368.773 21.4175 368.709 21.3534C368.645 21.2893 368.613 21.2109 368.613 21.1183V11.8796H366.667V21.1183C366.667 21.3391 366.557 21.4503 366.337 21.4503H363.94C363.719 21.4503 363.61 21.3391 363.61 21.1183V9.24507C363.61 9.02422 363.721 8.91309 363.94 8.91309H374.415C374.692 8.91309 374.955 8.96865 375.204 9.07837L375.207 9.07979Z" fill="#E73427"/>
<path d="M375.203 9.07979C375.452 9.19093 375.666 9.33626 375.845 9.51579C376.025 9.69675 376.169 9.9119 376.28 10.1612C376.39 10.412 376.445 10.6756 376.445 10.9549V11.8611L373.389 11.8796H366.667L363.61 11.8611V9.24507C363.61 9.02422 363.721 8.91309 363.94 8.91309H374.415C374.692 8.91309 374.955 8.96865 375.204 9.07837L375.203 9.07979Z" fill="#E73427"/>
<path d="M386.977 18.4068C387.074 18.4068 387.155 18.4396 387.216 18.5051C387.277 18.5707 387.308 18.6519 387.308 18.7473V21.1112C387.308 21.2066 387.277 21.2878 387.216 21.3534C387.155 21.4189 387.074 21.4517 386.977 21.4517H378.707C378.473 21.4517 378.357 21.3377 378.357 21.1112V9.25362C378.357 9.02707 378.473 8.91309 378.707 8.91309H381.246C381.479 8.91309 381.595 9.02707 381.595 9.25362V18.0848C381.595 18.1803 381.629 18.2586 381.697 18.317C381.765 18.3769 381.847 18.4068 381.946 18.4068H386.977Z" fill="#1D539F"/>
<path d="M381.573 21.4517H378.71C378.478 21.4517 378.362 21.3377 378.362 21.1112V9.25362C378.362 9.02707 378.478 8.91309 378.71 8.91309H381.243C381.476 8.91309 381.592 9.02707 381.592 9.25362V18.0848C381.592 18.1803 381.573 21.4517 381.573 21.4517Z" fill="#1D539F"/>
<path d="M399.686 8.91451C399.786 8.91451 399.869 8.94728 399.937 9.01283C400.005 9.07837 400.039 9.15958 400.039 9.25505V21.1468C400.039 21.2422 400.005 21.3235 399.937 21.389C399.869 21.4546 399.786 21.4873 399.686 21.4873H397.114C397.015 21.4873 396.931 21.4546 396.863 21.389C396.795 21.3235 396.761 21.2422 396.761 21.1468V16.9976C396.761 16.9022 396.73 16.8238 396.669 16.764C396.607 16.7041 396.528 16.6742 396.429 16.6742H392.82C392.721 16.6742 392.638 16.7041 392.57 16.764C392.502 16.8238 392.468 16.9022 392.468 16.9976V21.1468C392.468 21.3748 392.351 21.4887 392.117 21.4887H389.563C389.328 21.4887 389.212 21.3748 389.212 21.1468V9.25505C389.212 9.02707 389.329 8.91309 389.563 8.91309H392.117C392.351 8.91309 392.468 9.02707 392.468 9.25505V13.2788C392.468 13.5068 392.586 13.6208 392.819 13.6208H396.427C396.527 13.6208 396.606 13.588 396.668 13.5225C396.73 13.4569 396.76 13.3757 396.76 13.2802V9.25647C396.76 9.16101 396.794 9.07979 396.862 9.01425C396.93 8.94871 397.013 8.91594 397.112 8.91594H399.685L399.686 8.91451Z" fill="#F8B92A"/>
<path d="M392.479 16.9976V21.1468C392.479 21.3748 392.361 21.4887 392.128 21.4887H389.574C389.339 21.4887 389.223 21.3748 389.223 21.1468V9.25505C389.223 9.02707 389.34 8.91309 389.574 8.91309H392.128C392.361 8.91309 392.479 9.02707 392.479 9.25505V16.9976Z" fill="#F8B92A"/>
<path d="M399.687 8.91309C399.786 8.91309 399.869 8.94586 399.937 9.0114C400.005 9.07694 400.039 9.15816 400.039 9.25362V21.1454C400.039 21.2408 400.005 21.322 399.937 21.3876C399.869 21.4531 399.786 21.4859 399.687 21.4859H397.114C397.015 21.4859 396.932 21.4531 396.864 21.3876C396.796 21.322 396.762 21.2408 396.762 21.1454V9.25362C396.762 9.15816 396.796 9.07694 396.864 9.0114C396.932 8.94586 397.015 8.91309 397.114 8.91309H399.687Z" fill="#F8B92A"/>
<path d="M365.035 69.5737V71.0199C365.068 71.1823 365.164 71.2635 365.326 71.2635H370.745C370.832 71.2635 370.901 71.2934 370.955 71.3533C371.009 71.4131 371.035 71.4858 371.035 71.5727V73.5376C371.035 73.6245 371.009 73.6972 370.955 73.757C370.901 73.8168 370.832 73.8468 370.745 73.8468H362.808C362.604 73.8468 362.501 73.7442 362.501 73.5376V68.8926C362.501 68.6333 362.549 68.3896 362.647 68.1616C362.744 67.9337 362.877 67.7342 363.05 67.5604C363.223 67.3865 363.424 67.2512 363.656 67.1543C363.886 67.0574 364.131 67.0075 364.39 67.0075H368.214C368.3 67.0075 368.372 66.9776 368.432 66.9178C368.491 66.8579 368.521 66.7852 368.521 66.6983V65.3832C368.521 65.2963 368.491 65.2236 368.432 65.1638C368.372 65.1039 368.3 65.074 368.214 65.074H363.148C363.061 65.074 362.992 65.0469 362.938 64.9928C362.884 64.9387 362.858 64.8688 362.858 64.7819V62.7843C362.858 62.6974 362.884 62.6247 362.938 62.5649C362.992 62.505 363.061 62.4751 363.148 62.4751H369.165C369.422 62.4751 369.664 62.5264 369.891 62.629C370.117 62.7316 370.315 62.8669 370.488 63.0351C370.659 63.2032 370.795 63.4027 370.891 63.6363C370.987 63.87 371.037 64.1151 371.037 64.3758V64.8304C371.047 64.8418 371.052 64.8574 371.052 64.8788V69.0208C371.052 69.1077 371.023 69.1776 370.963 69.2317C370.904 69.2858 370.832 69.3129 370.745 69.3129H365.326C365.174 69.3129 365.078 69.3998 365.035 69.5722V69.5737Z" fill="#122F4C"/>
<path d="M379.238 62.4771C379.496 62.4771 379.74 62.5283 379.972 62.6309C380.203 62.7335 380.403 62.8689 380.57 63.037C380.737 63.2051 380.871 63.4046 380.973 63.6383C381.075 63.872 381.126 64.117 381.126 64.3778V71.9465C381.126 72.2059 381.075 72.4524 380.973 72.686C380.871 72.9197 380.737 73.122 380.57 73.2945C380.403 73.4683 380.205 73.6036 379.972 73.7005C379.74 73.7974 379.497 73.8473 379.238 73.8473H374.383C374.125 73.8473 373.88 73.7988 373.648 73.7005C373.416 73.6036 373.215 73.4683 373.044 73.2945C372.872 73.122 372.737 72.9183 372.641 72.686C372.545 72.4538 372.495 72.2073 372.495 71.9465V64.3778C372.495 64.1185 372.543 63.872 372.641 63.6383C372.737 63.406 372.872 63.2051 373.044 63.037C373.215 62.8689 373.418 62.7335 373.648 62.6309C373.879 62.5283 374.124 62.4771 374.383 62.4771H379.238ZM378.383 65.2384H375.238V71.0859H378.383V65.2384Z" fill="#122F4C"/>
<path d="M385.126 69.5732V71.0194C385.159 71.1818 385.255 71.263 385.416 71.263H390.836C390.922 71.263 390.992 71.293 391.046 71.3528C391.099 71.4126 391.126 71.4853 391.126 71.5722V73.5371C391.126 73.624 391.099 73.6967 391.046 73.7565C390.992 73.8164 390.922 73.8463 390.836 73.8463H382.899C382.695 73.8463 382.592 73.7437 382.592 73.5371V68.8921C382.592 68.6328 382.64 68.3891 382.738 68.1612C382.834 67.9332 382.968 67.7337 383.141 67.5599C383.313 67.386 383.514 67.2507 383.745 67.1538C383.976 67.0569 384.221 67.007 384.48 67.007H388.303C388.389 67.007 388.462 66.9771 388.521 66.9173C388.58 66.8574 388.61 66.7848 388.61 66.6978V65.3827C388.61 65.2958 388.58 65.2231 388.521 65.1633C388.462 65.1034 388.389 65.0735 388.303 65.0735H383.237C383.151 65.0735 383.081 65.0465 383.028 64.9923C382.974 64.9382 382.947 64.8683 382.947 64.7814V62.7838C382.947 62.6969 382.974 62.6242 383.028 62.5644C383.081 62.5045 383.151 62.4746 383.237 62.4746H389.254C389.512 62.4746 389.754 62.5259 389.98 62.6285C390.206 62.7311 390.405 62.8664 390.577 63.0346C390.75 63.2027 390.884 63.4022 390.98 63.6359C391.077 63.8695 391.126 64.1146 391.126 64.3753V64.8299C391.136 64.8413 391.142 64.8569 391.142 64.8783V69.0203C391.142 69.1073 391.112 69.1771 391.053 69.2312C390.993 69.2854 390.921 69.3124 390.835 69.3124H385.415C385.263 69.3124 385.167 69.3993 385.125 69.5717L385.126 69.5732Z" fill="#122F4C"/>
<path d="M392.586 71.9523V62.772C392.586 62.5654 392.69 62.4614 392.895 62.4614H395.121C395.326 62.4614 395.429 62.5654 395.429 62.7735V65.4579C395.429 65.5434 395.459 65.6132 395.52 65.6702C395.581 65.7257 395.653 65.7542 395.736 65.7542H399.343C399.601 65.7542 399.846 65.8055 400.078 65.9095C400.31 66.0121 400.509 66.1475 400.678 66.3142C400.846 66.4809 400.981 66.6818 401.08 66.9169C401.18 67.152 401.23 67.3999 401.23 67.6578V71.958C401.23 72.2173 401.18 72.4638 401.08 72.7003C400.979 72.9354 400.845 73.1392 400.678 73.3116C400.509 73.484 400.31 73.6179 400.078 73.7163C399.846 73.8146 399.601 73.863 399.343 73.863H394.473C394.215 73.863 393.97 73.8146 393.738 73.7163C393.506 73.6179 393.305 73.4826 393.134 73.3102C392.963 73.1378 392.828 72.9354 392.731 72.7018C392.633 72.4681 392.585 72.2202 392.585 71.9551L392.586 71.9523ZM395.333 71.2684H398.483V68.4073H395.333V71.2684Z" fill="#122F4C"/>
</g>
<rect x="218.627" y="19.7817" width="81.715" height="27.1421" rx="13.571" fill="white" fill-opacity="0.3"/>
<rect x="218.627" y="19.7817" width="81.715" height="27.1421" rx="13.571" stroke="white" stroke-width="0.866237"/>
<circle cx="232.006" cy="33.1584" r="8.42175" fill="#F9E384" stroke="#F4F3B6" stroke-width="0.962485"/>
<path d="M256.381 39.2661H248.273C248.146 39.2661 248.027 39.2433 247.918 39.1978C247.809 39.1522 247.713 39.0907 247.631 39.0132C247.553 38.9312 247.492 38.8354 247.446 38.7261C247.401 38.6167 247.378 38.4982 247.378 38.3706V29.4634H249.155V37.4888H256.381V39.2661ZM259.478 39.2661H257.7V29.4634H259.478V39.2661ZM271.229 38.3706C271.229 38.4982 271.206 38.6167 271.16 38.7261C271.115 38.8354 271.051 38.9312 270.969 39.0132C270.891 39.0907 270.798 39.1522 270.688 39.1978C270.579 39.2433 270.461 39.2661 270.333 39.2661H263.921C263.757 39.2661 263.579 39.2479 263.388 39.2114C263.201 39.1704 263.014 39.1089 262.827 39.0269C262.645 38.9448 262.469 38.84 262.301 38.7124C262.132 38.5802 261.982 38.423 261.85 38.2407C261.722 38.0539 261.619 37.8397 261.542 37.5981C261.465 37.3521 261.426 37.0763 261.426 36.771V31.9585C261.426 31.7944 261.444 31.619 261.48 31.4321C261.521 31.2407 261.583 31.0539 261.665 30.8716C261.747 30.6847 261.854 30.507 261.986 30.3384C262.118 30.1698 262.276 30.0216 262.458 29.894C262.645 29.7619 262.859 29.6571 263.101 29.5796C263.342 29.5021 263.616 29.4634 263.921 29.4634H271.146V31.2407H263.921C263.688 31.2407 263.511 31.3022 263.388 31.4253C263.265 31.5483 263.203 31.7306 263.203 31.9722V36.771C263.203 36.9989 263.265 37.1766 263.388 37.3042C263.515 37.4272 263.693 37.4888 263.921 37.4888H269.451V35.2603H264.721V33.4692H270.333C270.461 33.4692 270.579 33.4943 270.688 33.5444C270.798 33.59 270.891 33.6538 270.969 33.7358C271.051 33.8179 271.115 33.9136 271.16 34.0229C271.206 34.1278 271.229 34.2417 271.229 34.3647V38.3706ZM274.872 33.4692H281.113V29.4634H282.891V39.2661H281.113V35.2603H274.872V39.2661H273.095V29.4634H274.872V33.4692ZM293.835 31.2407H289.918V39.2661H288.141V31.2407H284.217V29.4634H293.835V31.2407Z" fill="#238CBA"/>
<rect x="313.627" y="18.7685" width="27.1421" height="27.1421" rx="13.571" fill="white" fill-opacity="0.3"/>
<rect x="313.627" y="18.7685" width="27.1421" height="27.1421" rx="13.571" stroke="white" stroke-width="0.866237"/>
<line x1="321.894" y1="27.535" x2="332.505" y2="27.535" stroke="#238CBA" stroke-width="1.51591" stroke-linecap="round"/>
<line x1="321.894" y1="31.578" x2="332.505" y2="31.578" stroke="#238CBA" stroke-width="1.51591" stroke-linecap="round"/>
<line x1="321.894" y1="35.6229" x2="332.505" y2="35.6229" stroke="#238CBA" stroke-width="1.51591" stroke-linecap="round"/>
<g filter="url(#filter0_d_3174_3440)">
<path d="M100.8 144.677C100.8 146.616 100.46 148.4 99.7786 150.028C99.1125 151.657 98.1872 153.063 97.0029 154.247C95.8186 155.417 94.4122 156.335 92.7838 157.001C91.1554 157.667 89.3863 158 87.4766 158H71.8882C71.4737 158 71.0888 157.926 70.7335 157.778C70.3782 157.63 70.0673 157.43 69.8008 157.178C69.5492 156.912 69.3493 156.601 69.2013 156.246C69.0532 155.89 68.9792 155.506 68.9792 155.091V129.066C68.9792 128.666 69.0532 128.289 69.2013 127.933C69.3493 127.578 69.5492 127.267 69.8008 127.001C70.0673 126.734 70.3782 126.527 70.7335 126.379C71.0888 126.231 71.4737 126.157 71.8882 126.157H87.4766C89.3863 126.157 91.1554 126.49 92.7838 127.156C94.4122 127.822 95.8186 128.748 97.0029 129.932C98.1872 131.101 99.1125 132.508 99.7786 134.151C100.46 135.779 100.8 137.556 100.8 139.48V144.677ZM95.0266 139.48C95.0266 138.355 94.8415 137.326 94.4714 136.394C94.1162 135.461 93.6054 134.669 92.9392 134.018C92.2731 133.352 91.4737 132.841 90.541 132.486C89.6232 132.115 88.6017 131.93 87.4766 131.93H74.7527V152.226H87.4766C88.6017 152.226 89.6232 152.049 90.541 151.694C91.4737 151.323 92.2731 150.813 92.9392 150.161C93.6054 149.495 94.1162 148.703 94.4714 147.785C94.8415 146.853 95.0266 145.816 95.0266 144.677V139.48ZM137.662 155.091C137.662 155.506 137.588 155.89 137.44 156.246C137.292 156.601 137.084 156.912 136.818 157.178C136.551 157.43 136.241 157.63 135.885 157.778C135.53 157.926 135.152 158 134.753 158H121.74C120.511 158 119.268 157.867 118.01 157.6C116.751 157.334 115.53 156.927 114.346 156.379C113.176 155.816 112.073 155.106 111.037 154.247C110.001 153.389 109.09 152.375 108.306 151.205C107.536 150.021 106.929 148.674 106.485 147.164C106.041 145.639 105.819 143.944 105.819 142.078V126.157H111.592V142.078C111.592 143.707 111.814 145.084 112.258 146.209C112.717 147.334 113.295 148.274 113.99 149.029C114.686 149.784 115.449 150.376 116.278 150.805C117.107 151.235 117.891 151.553 118.631 151.76C119.386 151.967 120.045 152.101 120.608 152.16C121.185 152.204 121.563 152.226 121.74 152.226H131.888V126.157H137.662V155.091ZM176.211 136.86C176.211 138.178 176.048 139.355 175.722 140.391C175.397 141.427 174.953 142.345 174.39 143.144C173.842 143.929 173.206 144.603 172.48 145.165C171.755 145.728 170.993 146.194 170.193 146.564C169.409 146.919 168.609 147.178 167.795 147.341C166.996 147.504 166.241 147.585 165.53 147.585L177.588 158H168.661L156.625 147.585H152.473V141.812H165.53C166.255 141.753 166.914 141.605 167.506 141.368C168.113 141.116 168.631 140.783 169.061 140.369C169.505 139.954 169.845 139.458 170.082 138.881C170.319 138.289 170.437 137.615 170.437 136.86V133.218C170.437 132.893 170.393 132.648 170.304 132.486C170.23 132.308 170.127 132.182 169.993 132.108C169.875 132.019 169.742 131.967 169.594 131.953C169.46 131.938 169.335 131.93 169.216 131.93H150.164V158H144.39V129.066C144.39 128.666 144.464 128.289 144.612 127.933C144.76 127.578 144.96 127.267 145.212 127.001C145.478 126.734 145.789 126.527 146.144 126.379C146.5 126.231 146.885 126.157 147.299 126.157H169.216C170.504 126.157 171.592 126.394 172.48 126.867C173.369 127.326 174.087 127.911 174.634 128.622C175.197 129.318 175.597 130.073 175.833 130.887C176.085 131.701 176.211 132.463 176.211 133.174V136.86ZM187.825 139.169H208.098V126.157H213.872V158H208.098V144.987H187.825V158H182.051V126.157H187.825V139.169ZM251.888 158H246.115V150.184H225.819V158H220.045V142.078C220.045 139.754 220.445 137.615 221.244 135.661C222.044 133.707 223.154 132.027 224.575 130.62C225.996 129.214 227.677 128.118 229.616 127.334C231.555 126.549 233.672 126.157 235.967 126.157H248.979C249.379 126.157 249.756 126.231 250.112 126.379C250.467 126.527 250.778 126.734 251.044 127.001C251.311 127.267 251.518 127.578 251.666 127.933C251.814 128.289 251.888 128.666 251.888 129.066V158ZM225.819 144.41H246.115V131.93H235.967C235.789 131.93 235.412 131.96 234.834 132.019C234.272 132.064 233.613 132.189 232.858 132.397C232.118 132.604 231.333 132.922 230.504 133.352C229.675 133.781 228.913 134.373 228.217 135.128C227.521 135.883 226.944 136.83 226.485 137.97C226.041 139.095 225.819 140.465 225.819 142.078V144.41ZM287.129 158H266.3C265.767 158 265.19 157.941 264.568 157.822C263.961 157.689 263.354 157.489 262.747 157.223C262.155 156.956 261.585 156.616 261.037 156.201C260.489 155.772 260.001 155.261 259.571 154.669C259.157 154.062 258.824 153.366 258.572 152.582C258.321 151.782 258.195 150.887 258.195 149.895V134.262C258.195 133.729 258.254 133.159 258.372 132.552C258.506 131.93 258.705 131.323 258.972 130.731C259.238 130.124 259.586 129.547 260.016 128.999C260.445 128.452 260.956 127.97 261.548 127.556C262.155 127.127 262.85 126.786 263.635 126.534C264.42 126.283 265.308 126.157 266.3 126.157H287.129V131.93H266.3C265.545 131.93 264.967 132.13 264.568 132.53C264.168 132.93 263.968 133.522 263.968 134.306V149.895C263.968 150.635 264.168 151.212 264.568 151.627C264.982 152.027 265.56 152.226 266.3 152.226H287.129V158ZM325.967 158H317.773L304.782 144.987H300.719V139.169H304.782L317.773 126.157H325.967L309.601 142.078L325.967 158ZM298.409 158H292.636V126.157H298.409V158ZM358.432 137.526L368.158 126.157H376.041L362.34 142.123L375.952 158H368.113L358.432 146.719L348.794 158H340.933L354.523 142.123L340.889 126.157H348.705L358.432 137.526Z" fill="#FFF6F6"/>
</g>
<rect x="110.927" y="244.568" width="216.271" height="48.5093" rx="24.2546" fill="#6DB7D2"/>
<path d="M158.341 275.911C157.597 275.911 156.878 275.822 156.182 275.644C155.487 275.466 154.856 275.191 154.29 274.819C153.724 274.447 153.272 273.97 152.932 273.388C152.593 272.79 152.415 272.078 152.399 271.254H154.436C154.436 271.302 154.452 271.432 154.484 271.642C154.517 271.852 154.598 272.095 154.727 272.37C154.873 272.644 155.083 272.911 155.358 273.17C155.649 273.429 156.045 273.647 156.546 273.825C157.064 273.986 157.71 274.067 158.486 274.067C159.085 274.067 159.586 274.003 159.99 273.873C160.395 273.744 160.718 273.574 160.96 273.364C161.203 273.154 161.373 272.935 161.47 272.709C161.583 272.483 161.64 272.281 161.64 272.103C161.64 271.601 161.478 271.197 161.154 270.89C160.847 270.583 160.427 270.34 159.893 270.162C159.36 269.968 158.769 269.799 158.123 269.653C157.492 269.491 156.861 269.322 156.231 269.144C155.6 268.95 155.018 268.699 154.484 268.392C153.967 268.085 153.563 267.688 153.272 267.203C152.981 266.702 152.851 266.063 152.884 265.287C152.932 264.543 153.191 263.905 153.66 263.371C154.129 262.837 154.767 262.433 155.576 262.158C156.401 261.867 157.338 261.722 158.389 261.722C159.343 261.722 160.217 261.892 161.009 262.231C161.817 262.571 162.464 263.08 162.949 263.759C163.451 264.422 163.693 265.271 163.677 266.306H161.712C161.729 265.74 161.615 265.287 161.373 264.948C161.13 264.592 160.815 264.317 160.427 264.123C160.055 263.929 159.667 263.8 159.263 263.735C158.858 263.654 158.495 263.614 158.171 263.614C157.266 263.614 156.514 263.783 155.915 264.123C155.333 264.446 155.034 264.907 155.018 265.505C155.002 266.023 155.156 266.435 155.479 266.742C155.802 267.05 156.231 267.292 156.764 267.47C157.298 267.648 157.888 267.81 158.535 267.955C159.182 268.101 159.82 268.262 160.451 268.44C161.082 268.618 161.656 268.861 162.173 269.168C162.707 269.459 163.119 269.855 163.41 270.356C163.717 270.858 163.855 271.504 163.823 272.297C163.79 273.057 163.531 273.704 163.046 274.237C162.561 274.771 161.914 275.183 161.106 275.474C160.298 275.765 159.376 275.911 158.341 275.911ZM168.117 275.183V262.401H170.105V275.183H168.117ZM166.249 275.62V273.873H171.949V275.62H166.249ZM166.249 263.711V261.964H171.949V263.711H166.249ZM180.616 275.911C179.29 275.911 178.134 275.636 177.148 275.086C176.178 274.536 175.426 273.736 174.892 272.685C174.358 271.634 174.1 270.356 174.116 268.853C174.148 267.333 174.447 266.039 175.013 264.972C175.579 263.905 176.372 263.096 177.39 262.546C178.425 261.997 179.614 261.722 180.956 261.722C182.751 261.722 184.165 262.126 185.2 262.934C186.235 263.727 186.906 264.891 187.213 266.427L185.273 266.694C185.111 265.95 184.82 265.352 184.4 264.899C183.979 264.446 183.47 264.123 182.872 263.929C182.29 263.719 181.651 263.614 180.956 263.614C179.323 263.614 178.102 264.083 177.293 265.02C176.485 265.942 176.081 267.179 176.081 268.731C176.081 270.397 176.517 271.69 177.39 272.612C178.28 273.518 179.525 273.97 181.126 273.97C181.853 273.97 182.524 273.849 183.139 273.606C183.753 273.348 184.271 272.968 184.691 272.467C185.111 271.949 185.378 271.31 185.491 270.55H182.12V269.022H187.48V275.62H186.098L185.637 272.927H185.588C185.475 273.235 185.289 273.566 185.031 273.922C184.788 274.261 184.465 274.585 184.06 274.892C183.656 275.183 183.163 275.426 182.581 275.62C182.015 275.814 181.36 275.911 180.616 275.911ZM199.443 261.964H201.505V275.62H197.697L191.948 262.862H191.9V275.62H189.838V261.964H193.403L199.394 274.722H199.443V261.964ZM215.506 275.959C213.631 275.959 212.192 275.426 211.189 274.358C210.203 273.275 209.71 271.755 209.71 269.799V261.964H211.82V269.774C211.82 270.567 211.917 271.238 212.111 271.787C212.321 272.321 212.596 272.758 212.935 273.097C213.275 273.421 213.663 273.663 214.1 273.825C214.552 273.97 215.021 274.043 215.506 274.043C216.234 274.043 216.873 273.914 217.423 273.655C217.989 273.38 218.425 272.927 218.732 272.297C219.056 271.666 219.217 270.825 219.217 269.774V261.964H221.328V269.799C221.328 271.787 220.834 273.315 219.848 274.383C218.878 275.434 217.431 275.959 215.506 275.959ZM226.104 275.62H224.091V261.964H226.104V275.62ZM225.813 261.964H229.427C230.947 261.964 232.111 262.336 232.92 263.08C233.744 263.824 234.157 264.94 234.157 266.427C234.157 267.769 233.736 268.812 232.896 269.556C232.055 270.3 230.899 270.672 229.427 270.672H225.813V269.144H229.185C230.155 269.144 230.915 268.917 231.465 268.465C232.03 268.012 232.313 267.325 232.313 266.403C232.313 265.449 232.039 264.754 231.489 264.317C230.939 263.864 230.171 263.638 229.185 263.638H225.813V261.964ZM251.079 261.964H253.14V275.62H249.332L243.584 262.862H243.536V275.62H241.474V261.964H245.039L251.03 274.722H251.079V261.964ZM261.745 275.959C259.562 275.959 257.896 275.32 256.748 274.043C255.6 272.749 255.026 271.011 255.026 268.828C255.026 267.389 255.269 266.144 255.754 265.093C256.255 264.026 256.999 263.201 257.985 262.619C258.988 262.021 260.241 261.722 261.745 261.722C263.928 261.722 265.585 262.369 266.717 263.662C267.865 264.94 268.439 266.662 268.439 268.828C268.439 270.235 268.18 271.48 267.663 272.564C267.162 273.631 266.418 274.463 265.431 275.062C264.445 275.66 263.216 275.959 261.745 275.959ZM261.72 274.019C262.772 274.019 263.645 273.801 264.34 273.364C265.051 272.911 265.577 272.297 265.917 271.521C266.272 270.728 266.45 269.831 266.45 268.828C266.45 267.81 266.28 266.912 265.941 266.136C265.601 265.344 265.076 264.729 264.364 264.293C263.669 263.84 262.788 263.614 261.72 263.614C260.168 263.614 258.988 264.083 258.179 265.02C257.387 265.958 256.991 267.228 256.991 268.828C256.991 269.815 257.161 270.704 257.5 271.496C257.84 272.272 258.357 272.887 259.052 273.34C259.764 273.792 260.653 274.019 261.72 274.019ZM278.175 261.964H280.309L279.242 264.584L276.404 275.62H273.13L269.54 261.964H271.699L274.779 274.722L278.175 261.964ZM286.785 261.964H288.944L285.281 275.62H282.031L279.242 264.584L278.151 261.964H280.309L283.656 274.722L286.785 261.964Z" fill="#DFF5FF"/>
<path d="M126.064 201.757V203H119.637V201.757H122.274V188.447C122.052 189.013 121.759 189.468 121.395 189.812C121.031 190.155 120.657 190.418 120.273 190.6C119.889 190.762 119.536 190.873 119.212 190.933C118.909 190.974 118.707 190.994 118.606 190.994V189.599C118.727 189.599 118.98 189.549 119.364 189.448C119.748 189.347 120.172 189.165 120.637 188.902C121.102 188.639 121.496 188.275 121.82 187.811C122.163 187.325 122.345 186.699 122.365 185.931H123.578V201.757H126.064ZM133.239 203.303C132.41 203.303 131.703 203.192 131.116 202.97C130.53 202.727 130.045 202.424 129.661 202.06C129.277 201.696 128.974 201.322 128.752 200.938C128.529 200.554 128.368 200.201 128.266 199.877C128.186 199.554 128.145 199.311 128.145 199.15H129.51C129.51 199.17 129.53 199.342 129.57 199.665C129.631 199.968 129.772 200.322 129.995 200.726C130.237 201.13 130.611 201.484 131.116 201.787C131.622 202.07 132.329 202.212 133.239 202.212C133.906 202.212 134.512 202.141 135.058 201.999C135.604 201.838 136.038 201.595 136.361 201.272C136.685 200.928 136.847 200.484 136.847 199.938C136.847 199.291 136.634 198.796 136.21 198.452C135.806 198.088 135.28 197.826 134.633 197.664C133.987 197.482 133.309 197.32 132.602 197.179C131.895 197.017 131.217 196.815 130.571 196.573C129.944 196.33 129.429 195.976 129.024 195.511C128.64 195.047 128.448 194.41 128.448 193.601C128.469 192.631 128.923 191.853 129.813 191.267C130.702 190.66 131.844 190.357 133.239 190.357C133.764 190.357 134.32 190.418 134.906 190.539C135.492 190.66 136.028 190.873 136.513 191.176C137.018 191.479 137.423 191.893 137.726 192.419C138.049 192.944 138.181 193.632 138.12 194.481H136.786C136.806 193.854 136.695 193.349 136.452 192.965C136.23 192.581 135.917 192.288 135.513 192.085C135.129 191.863 134.724 191.722 134.3 191.661C133.875 191.6 133.491 191.57 133.148 191.57C132.198 191.57 131.389 191.742 130.722 192.085C130.075 192.429 129.752 192.955 129.752 193.662C129.752 194.248 129.954 194.703 130.358 195.026C130.763 195.35 131.288 195.602 131.935 195.784C132.582 195.946 133.259 196.098 133.966 196.239C134.674 196.381 135.351 196.583 135.998 196.845C136.644 197.108 137.17 197.482 137.574 197.967C137.978 198.452 138.181 199.129 138.181 199.998C138.181 200.787 137.958 201.423 137.514 201.909C137.089 202.394 136.503 202.747 135.755 202.97C135.007 203.192 134.168 203.303 133.239 203.303ZM142.986 203C142.359 203 141.945 202.818 141.743 202.454C141.561 202.09 141.47 201.656 141.47 201.151V191.57H142.804V201.818H145.684V203H142.986ZM139.438 191.813V190.691C139.984 190.691 140.398 190.671 140.681 190.63C140.964 190.59 141.166 190.479 141.288 190.297C141.409 190.095 141.48 189.781 141.5 189.357C141.54 188.912 141.561 188.296 141.561 187.507H142.804V190.691H145.684V191.813H139.438ZM148.343 196.785V195.633H155.074V196.785H148.343ZM157.875 203V201.848C157.895 201.828 158.097 201.686 158.481 201.423C158.865 201.14 159.371 200.767 159.997 200.302C160.644 199.817 161.331 199.271 162.059 198.664C162.807 198.038 163.544 197.381 164.272 196.694C165.02 196.007 165.687 195.319 166.273 194.632C166.859 193.945 167.314 193.288 167.637 192.661C168.143 191.61 168.294 190.66 168.092 189.812C167.89 188.963 167.415 188.286 166.667 187.78C165.94 187.275 165 187.022 163.848 187.022C162.615 187.042 161.604 187.416 160.816 188.144C160.028 188.851 159.633 189.892 159.633 191.267L158.36 191.176C158.36 190.064 158.592 189.114 159.057 188.326C159.542 187.538 160.209 186.931 161.058 186.507C161.907 186.082 162.888 185.87 163.999 185.87C165.091 185.87 166.041 186.062 166.849 186.446C167.678 186.83 168.315 187.356 168.759 188.023C169.224 188.69 169.477 189.448 169.517 190.297C169.558 191.146 169.345 192.045 168.88 192.995C168.537 193.662 168.011 194.39 167.304 195.178C166.596 195.946 165.818 196.704 164.969 197.452C164.12 198.2 163.292 198.887 162.483 199.513C161.695 200.14 161.018 200.655 160.452 201.06C159.886 201.464 159.542 201.696 159.421 201.757H169.881V203H157.875ZM172.414 203V190.691H173.566L173.808 193.965H173.869C173.909 193.824 174.01 193.581 174.172 193.238C174.334 192.894 174.587 192.53 174.93 192.146C175.274 191.742 175.729 191.398 176.294 191.115C176.86 190.832 177.568 190.691 178.417 190.691C179.266 190.691 179.963 190.812 180.509 191.055C181.075 191.297 181.529 191.631 181.873 192.055C182.237 192.459 182.51 192.934 182.692 193.48C182.874 194.006 182.995 194.561 183.055 195.148C183.116 195.734 183.146 196.32 183.146 196.906V203H181.782V196.906C181.782 195.895 181.671 195.026 181.449 194.299C181.226 193.551 180.852 192.975 180.327 192.571C179.801 192.166 179.074 191.964 178.144 191.964C177.153 191.964 176.335 192.207 175.688 192.692C175.062 193.177 174.587 193.814 174.263 194.602C173.96 195.39 173.808 196.249 173.808 197.179V203H172.414ZM191.379 203.303C190.207 203.303 189.206 203.02 188.378 202.454C187.569 201.888 186.953 201.13 186.528 200.18C186.104 199.23 185.892 198.169 185.892 196.997C185.892 195.804 186.104 194.733 186.528 193.783C186.973 192.833 187.6 192.085 188.408 191.54C189.237 190.974 190.237 190.691 191.41 190.691C192.238 190.691 192.946 190.832 193.532 191.115C194.118 191.398 194.583 191.742 194.926 192.146C195.27 192.55 195.523 192.934 195.684 193.298C195.866 193.642 195.988 193.884 196.048 194.026H196.109V185.931H197.534V203H196.382L196.139 200.029H196.079C196.018 200.13 195.887 200.362 195.684 200.726C195.503 201.07 195.23 201.444 194.866 201.848C194.502 202.252 194.027 202.596 193.441 202.879C192.875 203.162 192.188 203.303 191.379 203.303ZM191.561 201.999C192.39 201.999 193.138 201.807 193.805 201.423C194.492 201.039 195.038 200.473 195.442 199.726C195.846 198.958 196.048 198.048 196.048 196.997C196.048 195.946 195.856 195.057 195.472 194.329C195.108 193.581 194.603 193.015 193.956 192.631C193.309 192.227 192.582 192.025 191.773 192.025C190.763 192.025 189.924 192.267 189.257 192.752C188.59 193.217 188.085 193.834 187.741 194.602C187.418 195.35 187.256 196.148 187.256 196.997C187.256 197.826 187.397 198.634 187.68 199.422C187.984 200.191 188.448 200.817 189.075 201.302C189.722 201.767 190.551 201.999 191.561 201.999ZM220.474 185.931H221.838V203H219.291L209.468 186.567H209.407V203H208.043V185.931H210.438L220.413 202.363H220.474V185.931ZM230.246 203.303C228.973 203.303 227.902 203.04 227.033 202.515C226.184 201.969 225.547 201.221 225.123 200.271C224.698 199.321 224.486 198.24 224.486 197.027C224.486 195.794 224.698 194.703 225.123 193.753C225.547 192.783 226.184 192.035 227.033 191.509C227.902 190.964 228.973 190.691 230.246 190.691C232.106 190.691 233.521 191.277 234.491 192.449C235.481 193.601 235.976 195.127 235.976 197.027C235.976 198.2 235.774 199.271 235.37 200.241C234.966 201.191 234.339 201.939 233.49 202.485C232.641 203.03 231.56 203.303 230.246 203.303ZM230.246 202.06C231.378 202.06 232.257 201.807 232.884 201.302C233.511 200.797 233.945 200.16 234.188 199.392C234.45 198.604 234.582 197.805 234.582 196.997C234.582 196.168 234.45 195.37 234.188 194.602C233.945 193.814 233.511 193.167 232.884 192.661C232.257 192.156 231.378 191.904 230.246 191.904C229.135 191.904 228.255 192.156 227.609 192.661C226.962 193.167 226.507 193.814 226.244 194.602C226.002 195.37 225.88 196.168 225.88 196.997C225.88 197.805 226.002 198.604 226.244 199.392C226.507 200.16 226.962 200.797 227.609 201.302C228.255 201.807 229.135 202.06 230.246 202.06ZM247.352 190.691H248.746V191.085L243.895 203H241.894L237.044 191.115V190.691H238.408L242.895 201.878H242.956L247.352 190.691ZM255.858 203.303C254.545 203.303 253.453 202.99 252.584 202.363C251.735 201.737 251.098 200.938 250.674 199.968C250.25 198.978 250.047 197.957 250.068 196.906C250.068 195.815 250.29 194.794 250.735 193.844C251.179 192.894 251.826 192.136 252.675 191.57C253.544 190.984 254.595 190.691 255.828 190.691C256.859 190.691 257.768 190.923 258.557 191.388C259.365 191.833 260.012 192.469 260.497 193.298C260.982 194.107 261.255 195.077 261.316 196.209C261.336 196.31 261.346 196.431 261.346 196.573C261.346 196.714 261.346 196.845 261.346 196.967H251.402C251.402 198.523 251.786 199.766 252.554 200.696C253.342 201.626 254.444 202.09 255.858 202.09C256.889 202.09 257.779 201.818 258.526 201.272C259.294 200.726 259.769 199.988 259.951 199.059H261.316C261.174 199.887 260.851 200.625 260.346 201.272C259.84 201.898 259.204 202.394 258.435 202.757C257.667 203.121 256.808 203.303 255.858 203.303ZM251.493 196.057H259.921C259.901 195.673 259.81 195.249 259.648 194.784C259.507 194.299 259.274 193.834 258.951 193.389C258.627 192.944 258.203 192.581 257.678 192.298C257.172 192.015 256.556 191.873 255.828 191.873C255.161 191.873 254.575 191.994 254.07 192.237C253.564 192.459 253.13 192.763 252.766 193.147C252.422 193.531 252.139 193.975 251.917 194.481C251.715 194.966 251.573 195.491 251.493 196.057ZM263.872 203V190.691H265.085L265.236 193.965H265.297C265.337 193.783 265.428 193.52 265.57 193.177C265.731 192.813 265.964 192.449 266.267 192.085C266.59 191.701 266.995 191.378 267.48 191.115C267.985 190.832 268.622 190.691 269.39 190.691C270.178 190.691 270.825 190.852 271.33 191.176C271.836 191.499 272.22 191.914 272.482 192.419C272.765 192.904 272.967 193.419 273.089 193.965H273.149C273.21 193.783 273.321 193.52 273.483 193.177C273.665 192.813 273.917 192.439 274.241 192.055C274.584 191.671 275.019 191.348 275.544 191.085C276.07 190.822 276.717 190.691 277.485 190.691C278.273 190.691 278.92 190.852 279.425 191.176C279.951 191.499 280.355 191.914 280.638 192.419C280.941 192.904 281.153 193.43 281.275 193.995C281.416 194.561 281.497 195.107 281.517 195.633C281.558 196.158 281.578 196.583 281.578 196.906V203H280.213V196.906C280.213 196.542 280.193 196.087 280.153 195.542C280.133 194.996 280.021 194.45 279.819 193.905C279.637 193.359 279.334 192.904 278.91 192.54C278.485 192.156 277.889 191.964 277.121 191.964C276.272 191.964 275.575 192.207 275.029 192.692C274.483 193.177 274.069 193.814 273.786 194.602C273.523 195.39 273.392 196.249 273.392 197.179V203H272.058V196.906C272.058 196.542 272.038 196.087 271.997 195.542C271.957 194.996 271.846 194.45 271.664 193.905C271.482 193.359 271.179 192.904 270.754 192.54C270.33 192.156 269.733 191.964 268.965 191.964C268.116 191.964 267.409 192.207 266.843 192.692C266.297 193.177 265.893 193.814 265.63 194.602C265.368 195.39 265.236 196.249 265.236 197.179V203H263.872ZM290.492 203.303C289.683 203.303 288.996 203.162 288.43 202.879C287.864 202.596 287.389 202.252 287.005 201.848C286.641 201.444 286.358 201.07 286.156 200.726C285.974 200.362 285.863 200.13 285.823 200.029H285.762L285.52 203H284.337V185.931H285.793V194.026H285.853C285.894 193.884 285.995 193.642 286.156 193.298C286.338 192.934 286.601 192.55 286.945 192.146C287.308 191.742 287.773 191.398 288.339 191.115C288.925 190.832 289.643 190.691 290.492 190.691C291.664 190.691 292.655 190.974 293.463 191.54C294.292 192.085 294.918 192.843 295.343 193.814C295.787 194.764 296.01 195.825 296.01 196.997C296.01 198.189 295.787 199.261 295.343 200.211C294.918 201.161 294.292 201.919 293.463 202.485C292.655 203.03 291.664 203.303 290.492 203.303ZM290.31 201.999C291.321 201.999 292.139 201.767 292.766 201.302C293.413 200.817 293.877 200.191 294.16 199.422C294.464 198.634 294.615 197.826 294.615 196.997C294.615 196.148 294.453 195.35 294.13 194.602C293.807 193.834 293.311 193.217 292.644 192.752C291.977 192.267 291.139 192.025 290.128 192.025C289.32 192.025 288.592 192.227 287.945 192.631C287.298 193.015 286.783 193.581 286.399 194.329C286.015 195.057 285.823 195.946 285.823 196.997C285.823 198.048 286.025 198.958 286.429 199.726C286.833 200.473 287.369 201.039 288.036 201.423C288.723 201.807 289.481 201.999 290.31 201.999ZM303.675 203.303C302.361 203.303 301.27 202.99 300.4 202.363C299.552 201.737 298.915 200.938 298.49 199.968C298.066 198.978 297.864 197.957 297.884 196.906C297.884 195.815 298.106 194.794 298.551 193.844C298.996 192.894 299.643 192.136 300.491 191.57C301.361 190.984 302.412 190.691 303.645 190.691C304.675 190.691 305.585 190.923 306.373 191.388C307.182 191.833 307.828 192.469 308.314 193.298C308.799 194.107 309.072 195.077 309.132 196.209C309.152 196.31 309.162 196.431 309.162 196.573C309.162 196.714 309.162 196.845 309.162 196.967H299.218C299.218 198.523 299.602 199.766 300.37 200.696C301.158 201.626 302.26 202.09 303.675 202.09C304.706 202.09 305.595 201.818 306.343 201.272C307.111 200.726 307.586 199.988 307.768 199.059H309.132C308.991 199.887 308.667 200.625 308.162 201.272C307.657 201.898 307.02 202.394 306.252 202.757C305.484 203.121 304.625 203.303 303.675 203.303ZM299.309 196.057H307.738C307.717 195.673 307.626 195.249 307.465 194.784C307.323 194.299 307.091 193.834 306.767 193.389C306.444 192.944 306.019 192.581 305.494 192.298C304.989 192.015 304.372 191.873 303.645 191.873C302.978 191.873 302.391 191.994 301.886 192.237C301.381 192.459 300.946 192.763 300.582 193.147C300.239 193.531 299.956 193.975 299.733 194.481C299.531 194.966 299.39 195.491 299.309 196.057ZM312.082 203V190.691H313.265L313.477 194.238L313.447 196.876V203H312.082ZM313.447 197.058L313.356 194.39C313.396 193.905 313.518 193.44 313.72 192.995C313.942 192.55 314.245 192.156 314.629 191.813C315.033 191.469 315.508 191.196 316.054 190.994C316.62 190.792 317.277 190.691 318.025 190.691H318.692V192.237H318.025C316.994 192.237 316.165 192.368 315.539 192.631C314.932 192.874 314.478 193.217 314.174 193.662C313.871 194.086 313.669 194.592 313.568 195.178C313.487 195.764 313.447 196.391 313.447 197.058Z" fill="#33AAFF"/>
<defs>
<filter id="filter0_d_3174_3440" x="64.9371" y="126.157" width="315.146" height="39.9281" filterUnits="userSpaceOnUse" color-interpolation-filters="sRGB">
<feFlood flood-opacity="0" result="BackgroundImageFix"/>
<feColorMatrix in="SourceAlpha" type="matrix" values="0 0 0 0 0 0 0 0 0 0 0 0 0 0 0 0 0 0 127 0" result="hardAlpha"/>
<feOffset dy="4.04244"/>
<feGaussianBlur stdDeviation="2.02122"/>
<feComposite in2="hardAlpha" operator="out"/>
<feColorMatrix type="matrix" values="0 0 0 0 0 0 0 0 0 0 0 0 0 0 0 0 0 0 0.25 0"/>
<feBlend mode="normal" in2="BackgroundImageFix" result="effect1_dropShadow_3174_3440"/>
<feBlend mode="normal" in="SourceGraphic" in2="effect1_dropShadow_3174_3440" result="shape"/>
</filter>
<clipPath id="clip0_3174_3440">
<rect width="55.5835" height="98.0292" fill="white" transform="translate(354)"/>
</clipPath>
</defs>
</svg>
