<svg width="1440" height="400" viewBox="0 0 1440 400" fill="none" xmlns="http://www.w3.org/2000/svg">
<rect x="663.343" y="0.945606" width="775.741" height="51.7977" rx="25.8988" fill="white" fill-opacity="0.3"/>
<rect x="663.343" y="0.945606" width="775.741" height="51.7977" rx="25.8988" stroke="white" stroke-width="1.83535"/>
<path d="M717.388 32.0991H715.058V28.9446H706.867V32.0991H704.537V25.6736C704.537 24.7356 704.699 23.8723 705.021 23.0837C705.344 22.2951 705.792 21.617 706.366 21.0494C706.939 20.4818 707.617 20.0397 708.4 19.7231C709.183 19.4064 710.037 19.2481 710.963 19.2481H716.214C716.376 19.2481 716.528 19.278 716.671 19.3377C716.815 19.3974 716.94 19.4811 717.048 19.5886C717.155 19.6962 717.239 19.8216 717.299 19.965C717.359 20.1084 717.388 20.2608 717.388 20.4221V32.0991ZM706.867 26.6146H715.058V21.5781H710.963C710.891 21.5781 710.739 21.5901 710.506 21.614C710.279 21.6319 710.013 21.6827 709.708 21.7663C709.41 21.85 709.093 21.9784 708.758 22.1517C708.424 22.3249 708.116 22.5639 707.835 22.8686C707.554 23.1733 707.321 23.5557 707.136 24.0157C706.957 24.4698 706.867 25.0224 706.867 25.6736V26.6146ZM732.928 29.2762C732.928 29.563 732.877 29.8707 732.776 30.1992C732.68 30.5278 732.519 30.8325 732.292 31.1133C732.071 31.3941 731.781 31.6301 731.422 31.8213C731.064 32.0065 730.625 32.0991 730.105 32.0991H721.26C721.093 32.0991 720.937 32.0692 720.794 32.0095C720.65 31.9498 720.525 31.8691 720.417 31.7675C720.316 31.66 720.235 31.5345 720.176 31.3911C720.116 31.2478 720.086 31.0924 720.086 30.9251V20.4221C720.086 20.2608 720.116 20.1084 720.176 19.965C720.235 19.8216 720.316 19.6962 720.417 19.5886C720.525 19.4811 720.65 19.3974 720.794 19.3377C720.937 19.278 721.093 19.2481 721.26 19.2481H729.057C729.343 19.2481 729.651 19.2989 729.98 19.4004C730.308 19.502 730.613 19.6663 730.894 19.8933C731.18 20.1144 731.416 20.4041 731.602 20.7626C731.793 21.1211 731.888 21.5602 731.888 22.08V22.5191C731.888 22.9313 731.82 23.3764 731.682 23.8544C731.545 24.3264 731.324 24.7744 731.019 25.1986C731.282 25.3599 731.527 25.5541 731.754 25.7811C731.987 26.0082 732.19 26.271 732.363 26.5698C732.537 26.8685 732.674 27.206 732.776 27.5824C732.877 27.9588 732.928 28.3741 732.928 28.8281V29.2762ZM730.598 28.8281C730.598 28.5234 730.55 28.2516 730.455 28.0126C730.359 27.7676 730.225 27.5585 730.051 27.3853C729.878 27.212 729.669 27.0806 729.424 26.991C729.179 26.8954 728.904 26.8476 728.599 26.8476H723.348V24.4996H727.551C727.856 24.4996 728.13 24.4548 728.375 24.3652C728.62 24.2696 728.829 24.1352 729.003 23.9619C729.176 23.7887 729.307 23.5825 729.397 23.3436C729.493 23.0986 729.54 22.8238 729.54 22.5191V22.08C729.54 21.7454 729.379 21.5781 729.057 21.5781H722.416V29.7691H730.105C730.147 29.7691 730.198 29.7661 730.257 29.7601C730.317 29.7542 730.371 29.7362 730.419 29.7064C730.466 29.6765 730.508 29.6257 730.544 29.554C730.58 29.4823 730.598 29.3837 730.598 29.2583V28.8281ZM748.45 26.9014C748.45 27.684 748.315 28.4039 748.046 29.0611C747.777 29.7183 747.404 30.2859 746.926 30.7638C746.448 31.2418 745.881 31.6152 745.223 31.884C744.572 32.1469 743.861 32.2784 743.091 32.2784H739.936C739.165 32.2784 738.451 32.1469 737.794 31.884C737.137 31.6152 736.569 31.2418 736.091 30.7638C735.613 30.2859 735.237 29.7183 734.962 29.0611C734.693 28.4039 734.559 27.684 734.559 26.9014V24.4459C734.559 23.6692 734.693 22.9522 734.962 22.2951C735.237 21.6319 735.613 21.0643 736.091 20.5923C736.569 20.1144 737.137 19.741 737.794 19.4721C738.451 19.2033 739.165 19.0688 739.936 19.0688H743.091C743.861 19.0688 744.572 19.2033 745.223 19.4721C745.881 19.741 746.448 20.1144 746.926 20.5923C747.404 21.0643 747.777 21.6319 748.046 22.2951C748.315 22.9522 748.45 23.6692 748.45 24.4459V26.9014ZM746.12 24.4459C746.12 23.9858 746.045 23.5706 745.896 23.2002C745.752 22.8238 745.546 22.5042 745.277 22.2413C745.014 21.9724 744.695 21.7663 744.318 21.6229C743.948 21.4736 743.539 21.3989 743.091 21.3989H739.936C739.482 21.3989 739.067 21.4736 738.69 21.6229C738.32 21.7663 738 21.9724 737.731 22.2413C737.463 22.5042 737.253 22.8238 737.104 23.2002C736.961 23.5706 736.889 23.9858 736.889 24.4459V26.9014C736.889 27.3614 736.961 27.7796 737.104 28.156C737.253 28.5264 737.463 28.846 737.731 29.1149C738 29.3778 738.32 29.5839 738.69 29.7332C739.067 29.8766 739.482 29.9483 739.936 29.9483H743.073C743.527 29.9483 743.939 29.8766 744.309 29.7332C744.686 29.5839 745.008 29.3778 745.277 29.1149C745.546 28.846 745.752 28.5264 745.896 28.156C746.045 27.7796 746.12 27.3614 746.12 26.9014V24.4459ZM763.344 30.9251C763.344 31.0924 763.314 31.2478 763.254 31.3911C763.195 31.5345 763.111 31.66 763.003 31.7675C762.896 31.8691 762.77 31.9498 762.627 32.0095C762.484 32.0692 762.331 32.0991 762.17 32.0991H756.918C756.422 32.0991 755.921 32.0454 755.413 31.9378C754.905 31.8303 754.412 31.666 753.934 31.4449C753.462 31.2179 753.017 30.9311 752.599 30.5846C752.181 30.2381 751.813 29.8288 751.497 29.3568C751.186 28.8789 750.941 28.3352 750.762 27.7258C750.582 27.1105 750.493 26.4264 750.493 25.6736V19.2481H752.823V25.6736C752.823 26.3308 752.912 26.8864 753.092 27.3405C753.277 27.7945 753.51 28.1739 753.791 28.4786C754.072 28.7833 754.379 29.0223 754.714 29.1955C755.048 29.3688 755.365 29.4972 755.664 29.5809C755.968 29.6645 756.234 29.7183 756.461 29.7422C756.694 29.7601 756.847 29.7691 756.918 29.7691H761.014V19.2481H763.344V30.9251ZM777.674 21.5781H772.539V32.0991H770.209V21.5781H765.065V19.2481H777.674V21.5781Z" fill="#238CBA"/>
<path d="M834.443 28.3173C834.443 28.7773 834.383 29.1926 834.263 29.563C834.15 29.9274 833.997 30.25 833.806 30.5308C833.615 30.8116 833.391 31.0506 833.134 31.2478C832.877 31.4449 832.611 31.6062 832.337 31.7317C832.062 31.8572 831.781 31.9498 831.494 32.0095C831.213 32.0692 830.947 32.0991 830.697 32.0991H821.708V29.7691H830.697C831.145 29.7691 831.491 29.6376 831.736 29.3748C831.987 29.1119 832.112 28.7594 832.112 28.3173C832.112 28.1022 832.08 27.9051 832.014 27.7258C831.948 27.5466 831.853 27.3913 831.727 27.2598C831.608 27.1284 831.458 27.0268 831.279 26.9551C831.106 26.8834 830.912 26.8476 830.697 26.8476H825.337C824.961 26.8476 824.555 26.7819 824.119 26.6504C823.683 26.513 823.276 26.2949 822.9 25.9962C822.529 25.6975 822.219 25.3062 821.968 24.8222C821.723 24.3383 821.6 23.7468 821.6 23.0478C821.6 22.3488 821.723 21.7603 821.968 21.2824C822.219 20.7985 822.529 20.4071 822.9 20.1084C823.276 19.8037 823.683 19.5856 824.119 19.4542C824.555 19.3168 824.961 19.2481 825.337 19.2481H833.269V21.5781H825.337C824.895 21.5781 824.549 21.7125 824.298 21.9814C824.053 22.2502 823.93 22.6057 823.93 23.0478C823.93 23.4959 824.053 23.8514 824.298 24.1143C824.549 24.3712 824.895 24.4996 825.337 24.4996H830.697H830.714C830.965 24.5056 831.231 24.5414 831.512 24.6072C831.793 24.6669 832.071 24.7625 832.345 24.8939C832.626 25.0254 832.892 25.1927 833.143 25.3958C833.394 25.5929 833.615 25.8319 833.806 26.1127C834.003 26.3935 834.159 26.7161 834.272 27.0806C834.386 27.445 834.443 27.8573 834.443 28.3173ZM849.184 24.6251C849.184 25.1568 849.119 25.6318 848.987 26.05C848.856 26.4682 848.677 26.8386 848.45 27.1612C848.229 27.4779 847.972 27.7497 847.679 27.9768C847.386 28.2038 847.078 28.389 846.756 28.5324C846.439 28.6758 846.117 28.7803 845.788 28.846C845.465 28.9118 845.161 28.9446 844.874 28.9446H839.604V26.6146H844.874C845.173 26.5907 845.441 26.5309 845.68 26.4353C845.925 26.3338 846.135 26.1994 846.308 26.0321C846.481 25.8648 846.615 25.6646 846.711 25.4316C846.807 25.1927 846.854 24.9238 846.854 24.6251V23.5676C846.825 23.2749 846.762 23.006 846.666 22.7611C846.571 22.5161 846.439 22.307 846.272 22.1337C846.111 21.9605 845.913 21.8261 845.68 21.7305C845.447 21.6289 845.179 21.5781 844.874 21.5781H839.622C839.312 21.5781 839.076 21.6588 838.914 21.8201C838.753 21.9814 838.672 22.2144 838.672 22.5191V32.0991H836.342V22.5191C836.342 21.9216 836.45 21.4138 836.665 20.9956C836.886 20.5774 837.158 20.2398 837.481 19.9829C837.809 19.726 838.165 19.5408 838.547 19.4273C838.929 19.3078 839.282 19.2481 839.604 19.2481H844.874C845.4 19.2481 845.872 19.3168 846.29 19.4542C846.708 19.5856 847.075 19.7649 847.392 19.9919C847.715 20.213 847.987 20.4699 848.208 20.7626C848.435 21.0554 848.62 21.363 848.763 21.6857C848.913 22.0023 849.02 22.3249 849.086 22.6535C849.152 22.9761 849.184 23.2808 849.184 23.5676V24.6251ZM864.67 26.9014C864.67 27.684 864.536 28.4039 864.267 29.0611C863.998 29.7183 863.625 30.2859 863.147 30.7638C862.669 31.2418 862.101 31.6152 861.444 31.884C860.793 32.1469 860.082 32.2784 859.311 32.2784H856.157C855.386 32.2784 854.672 32.1469 854.015 31.884C853.358 31.6152 852.79 31.2418 852.312 30.7638C851.834 30.2859 851.458 29.7183 851.183 29.0611C850.914 28.4039 850.78 27.684 850.78 26.9014V24.4459C850.78 23.6692 850.914 22.9522 851.183 22.2951C851.458 21.6319 851.834 21.0643 852.312 20.5923C852.79 20.1144 853.358 19.741 854.015 19.4721C854.672 19.2033 855.386 19.0688 856.157 19.0688H859.311C860.082 19.0688 860.793 19.2033 861.444 19.4721C862.101 19.741 862.669 20.1144 863.147 20.5923C863.625 21.0643 863.998 21.6319 864.267 22.2951C864.536 22.9522 864.67 23.6692 864.67 24.4459V26.9014ZM862.34 24.4459C862.34 23.9858 862.266 23.5706 862.116 23.2002C861.973 22.8238 861.767 22.5042 861.498 22.2413C861.235 21.9724 860.915 21.7663 860.539 21.6229C860.168 21.4736 859.759 21.3989 859.311 21.3989H856.157C855.703 21.3989 855.287 21.4736 854.911 21.6229C854.541 21.7663 854.221 21.9724 853.952 22.2413C853.683 22.5042 853.474 22.8238 853.325 23.2002C853.181 23.5706 853.11 23.9858 853.11 24.4459V26.9014C853.11 27.3614 853.181 27.7796 853.325 28.156C853.474 28.5264 853.683 28.846 853.952 29.1149C854.221 29.3778 854.541 29.5839 854.911 29.7332C855.287 29.8766 855.703 29.9483 856.157 29.9483H859.293C859.747 29.9483 860.16 29.8766 860.53 29.7332C860.906 29.5839 861.229 29.3778 861.498 29.1149C861.767 28.846 861.973 28.5264 862.116 28.156C862.266 27.7796 862.34 27.3614 862.34 26.9014V24.4459ZM879.815 31.1044C879.815 31.2717 879.783 31.427 879.717 31.5704C879.657 31.7138 879.573 31.8392 879.466 31.9468C879.364 32.0483 879.242 32.129 879.099 32.1887C878.955 32.2485 878.803 32.2784 878.641 32.2784C878.498 32.2784 878.352 32.2515 878.202 32.1977C878.059 32.1439 877.931 32.0573 877.817 31.9378L869.303 23.0478V32.0991H866.973V20.2428C866.973 20.0038 867.039 19.7888 867.171 19.5976C867.308 19.4004 867.481 19.2541 867.69 19.1585C867.911 19.0688 868.138 19.0479 868.371 19.0957C868.604 19.1376 868.805 19.2451 868.972 19.4184L877.485 28.2994V19.2481H879.815V31.1044ZM894.88 28.3173C894.88 28.7773 894.82 29.1926 894.701 29.563C894.587 29.9274 894.435 30.25 894.244 30.5308C894.053 30.8116 893.829 31.0506 893.572 31.2478C893.315 31.4449 893.049 31.6062 892.774 31.7317C892.499 31.8572 892.218 31.9498 891.932 32.0095C891.651 32.0692 891.385 32.0991 891.134 32.0991H882.146V29.7691H891.134C891.582 29.7691 891.929 29.6376 892.174 29.3748C892.425 29.1119 892.55 28.7594 892.55 28.3173C892.55 28.1022 892.517 27.9051 892.451 27.7258C892.386 27.5466 892.29 27.3913 892.165 27.2598C892.045 27.1284 891.896 27.0268 891.717 26.9551C891.543 26.8834 891.349 26.8476 891.134 26.8476H885.775C885.399 26.8476 884.992 26.7819 884.556 26.6504C884.12 26.513 883.714 26.2949 883.337 25.9962C882.967 25.6975 882.656 25.3062 882.405 24.8222C882.16 24.3383 882.038 23.7468 882.038 23.0478C882.038 22.3488 882.16 21.7603 882.405 21.2824C882.656 20.7985 882.967 20.4071 883.337 20.1084C883.714 19.8037 884.12 19.5856 884.556 19.4542C884.992 19.3168 885.399 19.2481 885.775 19.2481H893.706V21.5781H885.775C885.333 21.5781 884.986 21.7125 884.735 21.9814C884.49 22.2502 884.368 22.6057 884.368 23.0478C884.368 23.4959 884.49 23.8514 884.735 24.1143C884.986 24.3712 885.333 24.4996 885.775 24.4996H891.134H891.152C891.403 24.5056 891.669 24.5414 891.95 24.6072C892.23 24.6669 892.508 24.7625 892.783 24.8939C893.064 25.0254 893.33 25.1927 893.581 25.3958C893.832 25.5929 894.053 25.8319 894.244 26.1127C894.441 26.3935 894.596 26.7161 894.71 27.0806C894.823 27.445 894.88 27.8573 894.88 28.3173ZM910.303 26.9014C910.303 27.684 910.169 28.4039 909.9 29.0611C909.631 29.7183 909.258 30.2859 908.78 30.7638C908.302 31.2418 907.734 31.6152 907.077 31.884C906.426 32.1469 905.715 32.2784 904.944 32.2784H901.789C901.019 32.2784 900.305 32.1469 899.648 31.884C898.99 31.6152 898.423 31.2418 897.945 30.7638C897.467 30.2859 897.091 29.7183 896.816 29.0611C896.547 28.4039 896.412 27.684 896.412 26.9014V24.4459C896.412 23.6692 896.547 22.9522 896.816 22.2951C897.091 21.6319 897.467 21.0643 897.945 20.5923C898.423 20.1144 898.99 19.741 899.648 19.4721C900.305 19.2033 901.019 19.0688 901.789 19.0688H904.944C905.715 19.0688 906.426 19.2033 907.077 19.4721C907.734 19.741 908.302 20.1144 908.78 20.5923C909.258 21.0643 909.631 21.6319 909.9 22.2951C910.169 22.9522 910.303 23.6692 910.303 24.4459V26.9014ZM907.973 24.4459C907.973 23.9858 907.898 23.5706 907.749 23.2002C907.606 22.8238 907.399 22.5042 907.131 22.2413C906.868 21.9724 906.548 21.7663 906.172 21.6229C905.801 21.4736 905.392 21.3989 904.944 21.3989H901.789C901.335 21.3989 900.92 21.4736 900.544 21.6229C900.173 21.7663 899.854 21.9724 899.585 22.2413C899.316 22.5042 899.107 22.8238 898.958 23.2002C898.814 23.5706 898.743 23.9858 898.743 24.4459V26.9014C898.743 27.3614 898.814 27.7796 898.958 28.156C899.107 28.5264 899.316 28.846 899.585 29.1149C899.854 29.3778 900.173 29.5839 900.544 29.7332C900.92 29.8766 901.335 29.9483 901.789 29.9483H904.926C905.38 29.9483 905.792 29.8766 906.163 29.7332C906.539 29.5839 906.862 29.3778 907.131 29.1149C907.399 28.846 907.606 28.5264 907.749 28.156C907.898 27.7796 907.973 27.3614 907.973 26.9014V24.4459ZM925.448 23.5676C925.448 24.0993 925.383 24.5743 925.251 24.9925C925.12 25.4107 924.94 25.7811 924.713 26.1038C924.492 26.4204 924.235 26.6922 923.943 26.9193C923.65 27.1463 923.342 27.3345 923.02 27.4839C922.703 27.6272 922.38 27.7318 922.052 27.7975C921.729 27.8632 921.425 27.8961 921.138 27.8961L926.004 32.0991H922.401L917.544 27.8961H915.868V25.5661H921.138C921.43 25.5422 921.696 25.4824 921.935 25.3868C922.18 25.2853 922.389 25.1508 922.563 24.9836C922.742 24.8163 922.879 24.6161 922.975 24.3831C923.07 24.1441 923.118 23.8723 923.118 23.5676V22.0979C923.118 21.9665 923.1 21.8679 923.064 21.8022C923.035 21.7305 922.993 21.6797 922.939 21.6498C922.891 21.614 922.837 21.5931 922.778 21.5871C922.724 21.5811 922.673 21.5781 922.625 21.5781H914.936V32.0991H912.606V20.4221C912.606 20.2608 912.636 20.1084 912.696 19.965C912.756 19.8216 912.836 19.6962 912.938 19.5886C913.045 19.4811 913.171 19.3974 913.314 19.3377C913.458 19.278 913.613 19.2481 913.78 19.2481H922.625C923.145 19.2481 923.584 19.3437 923.943 19.5349C924.301 19.7201 924.591 19.9561 924.812 20.2428C925.039 20.5236 925.2 20.8283 925.296 21.1569C925.398 21.4855 925.448 21.7932 925.448 22.08V23.5676ZM940.136 28.3173C940.136 28.7773 940.077 29.1926 939.957 29.563C939.844 29.9274 939.691 30.25 939.5 30.5308C939.309 30.8116 939.085 31.0506 938.828 31.2478C938.571 31.4449 938.305 31.6062 938.03 31.7317C937.756 31.8572 937.475 31.9498 937.188 32.0095C936.907 32.0692 936.641 32.0991 936.391 32.0991H927.402V29.7691H936.391C936.839 29.7691 937.185 29.6376 937.43 29.3748C937.681 29.1119 937.806 28.7594 937.806 28.3173C937.806 28.1022 937.774 27.9051 937.708 27.7258C937.642 27.5466 937.547 27.3913 937.421 27.2598C937.302 27.1284 937.152 27.0268 936.973 26.9551C936.8 26.8834 936.606 26.8476 936.391 26.8476H931.031C930.655 26.8476 930.249 26.7819 929.813 26.6504C929.376 26.513 928.97 26.2949 928.594 25.9962C928.223 25.6975 927.913 25.3062 927.662 24.8222C927.417 24.3383 927.294 23.7468 927.294 23.0478C927.294 22.3488 927.417 21.7603 927.662 21.2824C927.913 20.7985 928.223 20.4071 928.594 20.1084C928.97 19.8037 929.376 19.5856 929.813 19.4542C930.249 19.3168 930.655 19.2481 931.031 19.2481H938.963V21.5781H931.031C930.589 21.5781 930.243 21.7125 929.992 21.9814C929.747 22.2502 929.624 22.6057 929.624 23.0478C929.624 23.4959 929.747 23.8514 929.992 24.1143C930.243 24.3712 930.589 24.4996 931.031 24.4996H936.391H936.408C936.659 24.5056 936.925 24.5414 937.206 24.6072C937.487 24.6669 937.765 24.7625 938.039 24.8939C938.32 25.0254 938.586 25.1927 938.837 25.3958C939.088 25.5929 939.309 25.8319 939.5 26.1127C939.697 26.3935 939.853 26.7161 939.966 27.0806C940.08 27.445 940.136 27.8573 940.136 28.3173Z" fill="#238CBA"/>
<path d="M993.747 26.8476H986.381V24.4996H993.747V26.8476ZM994.787 21.5781H985.449V32.0991H983.119V20.4221C983.119 20.2608 983.148 20.1084 983.208 19.965C983.268 19.8216 983.349 19.6962 983.45 19.5886C983.558 19.4811 983.683 19.3974 983.827 19.3377C983.97 19.278 984.125 19.2481 984.293 19.2481H994.787V21.5781ZM1009.1 32.0991H1006.77V28.9446H998.577V32.0991H996.247V25.6736C996.247 24.7356 996.409 23.8723 996.731 23.0837C997.054 22.2951 997.502 21.617 998.076 21.0494C998.649 20.4818 999.327 20.0397 1000.11 19.7231C1000.89 19.4064 1001.75 19.2481 1002.67 19.2481H1007.92C1008.09 19.2481 1008.24 19.278 1008.38 19.3377C1008.52 19.3974 1008.65 19.4811 1008.76 19.5886C1008.87 19.6962 1008.95 19.8216 1009.01 19.965C1009.07 20.1084 1009.1 20.2608 1009.1 20.4221V32.0991ZM998.577 26.6146H1006.77V21.5781H1002.67C1002.6 21.5781 1002.45 21.5901 1002.22 21.614C1001.99 21.6319 1001.72 21.6827 1001.42 21.7663C1001.12 21.85 1000.8 21.9784 1000.47 22.1517C1000.13 22.3249 999.826 22.5639 999.545 22.8686C999.265 23.1733 999.032 23.5557 998.846 24.0157C998.667 24.4698 998.577 25.0224 998.577 25.6736V26.6146ZM1025.3 26.9014C1025.3 27.4988 1025.22 28.0634 1025.06 28.5951C1024.9 29.1209 1024.68 29.5988 1024.39 30.029C1024.1 30.4591 1023.75 30.8355 1023.34 31.1581C1022.93 31.4808 1022.48 31.7347 1021.98 31.9199L1024.7 34.0797H1021.32L1019.08 32.2784H1016.79C1016.02 32.2784 1015.3 32.1469 1014.65 31.884C1013.99 31.6152 1013.42 31.2418 1012.94 30.7638C1012.47 30.2859 1012.09 29.7183 1011.81 29.0611C1011.55 28.4039 1011.41 27.684 1011.41 26.9014V24.4459C1011.41 23.6692 1011.55 22.9522 1011.81 22.2951C1012.09 21.6319 1012.47 21.0643 1012.94 20.5923C1013.42 20.1144 1013.99 19.741 1014.65 19.4721C1015.3 19.2033 1016.02 19.0688 1016.79 19.0688H1019.94C1020.71 19.0688 1021.42 19.2033 1022.07 19.4721C1022.73 19.741 1023.3 20.1144 1023.78 20.5923C1024.26 21.0643 1024.63 21.6319 1024.9 22.2951C1025.17 22.9522 1025.3 23.6692 1025.3 24.4459V26.9014ZM1022.97 24.4459C1022.97 23.9858 1022.9 23.5706 1022.75 23.2002C1022.6 22.8238 1022.4 22.5042 1022.13 22.2413C1021.87 21.9724 1021.55 21.7663 1021.17 21.6229C1020.8 21.4736 1020.39 21.3989 1019.94 21.3989H1016.79C1016.33 21.3989 1015.92 21.4736 1015.54 21.6229C1015.17 21.7663 1014.85 21.9724 1014.58 22.2413C1014.31 22.5042 1014.11 22.8238 1013.96 23.2002C1013.81 23.5706 1013.74 23.9858 1013.74 24.4459V26.9014C1013.74 27.3614 1013.81 27.7796 1013.96 28.156C1014.11 28.5264 1014.31 28.846 1014.58 29.1149C1014.85 29.3778 1015.17 29.5839 1015.54 29.7332C1015.92 29.8766 1016.33 29.9483 1016.79 29.9483H1019.92C1020.38 29.9483 1020.79 29.8766 1021.16 29.7332C1021.54 29.5839 1021.86 29.3778 1022.13 29.1149C1022.4 28.846 1022.6 28.5264 1022.75 28.156C1022.9 27.7796 1022.97 27.3614 1022.97 26.9014V24.4459ZM1036.71 28.8281C1036.71 29.2284 1036.66 29.5899 1036.56 29.9125C1036.46 30.2291 1036.32 30.5099 1036.15 30.7549C1035.99 30.9938 1035.79 31.2 1035.57 31.3732C1035.35 31.5405 1035.12 31.6779 1034.87 31.7855C1034.63 31.893 1034.39 31.9737 1034.14 32.0274C1033.89 32.0752 1033.66 32.0991 1033.44 32.0991H1027.13V29.7691H1033.42C1033.74 29.7691 1033.98 29.6884 1034.14 29.5271C1034.3 29.3658 1034.38 29.1328 1034.38 28.8281C1034.35 28.2068 1034.04 27.8961 1033.44 27.8961H1029.83C1029.31 27.8961 1028.88 27.8065 1028.52 27.6272C1028.16 27.448 1027.87 27.224 1027.64 26.9551C1027.42 26.6863 1027.26 26.3965 1027.16 26.0858C1027.06 25.7752 1027.01 25.4854 1027.01 25.2166C1027.01 24.6968 1027.11 24.2606 1027.29 23.9082C1027.48 23.5497 1027.71 23.2599 1027.99 23.0389C1028.27 22.8178 1028.58 22.6595 1028.9 22.5639C1029.23 22.4623 1029.54 22.4116 1029.83 22.4116H1035.55V24.7416H1029.84C1029.73 24.7416 1029.63 24.7565 1029.56 24.7864C1029.49 24.8103 1029.44 24.8461 1029.41 24.8939C1029.38 24.9358 1029.36 24.9836 1029.35 25.0373C1029.35 25.0851 1029.34 25.1329 1029.34 25.1807C1029.35 25.2763 1029.37 25.351 1029.4 25.4048C1029.43 25.4585 1029.46 25.4974 1029.5 25.5213C1029.55 25.5452 1029.6 25.5601 1029.66 25.5661C1029.72 25.5661 1029.77 25.5661 1029.83 25.5661H1033.44C1034.04 25.5661 1034.54 25.6736 1034.96 25.8887C1035.38 26.1038 1035.72 26.3756 1035.97 26.7042C1036.23 27.0268 1036.42 27.3793 1036.53 27.7617C1036.65 28.144 1036.71 28.4995 1036.71 28.8281Z" fill="#238CBA"/>
<path d="M1093.37 28.3173C1093.37 28.7773 1093.31 29.1926 1093.19 29.563C1093.08 29.9274 1092.92 30.25 1092.73 30.5308C1092.54 30.8116 1092.32 31.0506 1092.06 31.2478C1091.8 31.4449 1091.54 31.6062 1091.26 31.7317C1090.99 31.8572 1090.71 31.9498 1090.42 32.0095C1090.14 32.0692 1089.87 32.0991 1089.62 32.0991H1080.63V29.7691H1089.62C1090.07 29.7691 1090.42 29.6376 1090.66 29.3748C1090.91 29.1119 1091.04 28.7594 1091.04 28.3173C1091.04 28.1022 1091.01 27.9051 1090.94 27.7258C1090.87 27.5466 1090.78 27.3913 1090.65 27.2598C1090.53 27.1284 1090.38 27.0268 1090.2 26.9551C1090.03 26.8834 1089.84 26.8476 1089.62 26.8476H1084.26C1083.89 26.8476 1083.48 26.7819 1083.04 26.6504C1082.61 26.513 1082.2 26.2949 1081.83 25.9962C1081.46 25.6975 1081.14 25.3062 1080.89 24.8222C1080.65 24.3383 1080.53 23.7468 1080.53 23.0478C1080.53 22.3488 1080.65 21.7603 1080.89 21.2824C1081.14 20.7985 1081.46 20.4071 1081.83 20.1084C1082.2 19.8037 1082.61 19.5856 1083.04 19.4542C1083.48 19.3168 1083.89 19.2481 1084.26 19.2481H1092.19V21.5781H1084.26C1083.82 21.5781 1083.47 21.7125 1083.22 21.9814C1082.98 22.2502 1082.86 22.6057 1082.86 23.0478C1082.86 23.4959 1082.98 23.8514 1083.22 24.1143C1083.47 24.3712 1083.82 24.4996 1084.26 24.4996H1089.62H1089.64C1089.89 24.5056 1090.16 24.5414 1090.44 24.6072C1090.72 24.6669 1091 24.7625 1091.27 24.8939C1091.55 25.0254 1091.82 25.1927 1092.07 25.3958C1092.32 25.5929 1092.54 25.8319 1092.73 26.1127C1092.93 26.3935 1093.08 26.7161 1093.2 27.0806C1093.31 27.445 1093.37 27.8573 1093.37 28.3173ZM1106.81 32.0991H1098.4C1098.19 32.0991 1097.96 32.0752 1097.71 32.0274C1097.46 31.9737 1097.22 31.893 1096.97 31.7855C1096.73 31.6779 1096.5 31.5405 1096.28 31.3732C1096.06 31.2 1095.86 30.9938 1095.69 30.7549C1095.52 30.5099 1095.39 30.2291 1095.29 29.9125C1095.18 29.5899 1095.13 29.2284 1095.13 28.8281V22.5191C1095.13 22.304 1095.16 22.074 1095.21 21.829C1095.26 21.5781 1095.34 21.3332 1095.45 21.0942C1095.55 20.8492 1095.7 20.6162 1095.87 20.3952C1096.04 20.1741 1096.25 19.98 1096.49 19.8127C1096.73 19.6394 1097.01 19.502 1097.33 19.4004C1097.65 19.2989 1098 19.2481 1098.4 19.2481H1106.81V21.5781H1098.4C1098.1 21.5781 1097.87 21.6588 1097.71 21.8201C1097.54 21.9814 1097.46 22.2204 1097.46 22.537V28.8281C1097.46 29.1268 1097.54 29.3598 1097.71 29.5271C1097.87 29.6884 1098.11 29.7691 1098.4 29.7691H1106.81V32.0991ZM1111.36 24.4996H1119.55V19.2481H1121.88V32.0991H1119.55V26.8476H1111.36V32.0991H1109.03V19.2481H1111.36V24.4996ZM1135.17 26.8476H1127.82V24.4996H1135.17V26.8476ZM1136.22 32.0991H1127.82C1127.49 32.0991 1127.14 32.0424 1126.76 31.9288C1126.38 31.8153 1126.02 31.6301 1125.69 31.3732C1125.37 31.1103 1125.1 30.7728 1124.88 30.3606C1124.66 29.9423 1124.55 29.4315 1124.55 28.8281V20.4221C1124.55 20.2608 1124.58 20.1084 1124.64 19.965C1124.7 19.8216 1124.78 19.6962 1124.89 19.5886C1124.99 19.4811 1125.12 19.3974 1125.26 19.3377C1125.41 19.278 1125.56 19.2481 1125.73 19.2481H1136.22V21.5781H1126.88V28.8281C1126.88 29.1328 1126.97 29.3658 1127.13 29.5271C1127.29 29.6884 1127.52 29.7691 1127.83 29.7691H1136.22V32.0991ZM1151.31 26.7221C1151.31 27.5048 1151.17 28.2247 1150.89 28.8819C1150.62 29.5391 1150.25 30.1066 1149.77 30.5846C1149.3 31.0566 1148.73 31.427 1148.07 31.6958C1147.41 31.9647 1146.7 32.0991 1145.93 32.0991H1139.64C1139.47 32.0991 1139.31 32.0692 1139.17 32.0095C1139.03 31.9498 1138.9 31.8691 1138.79 31.7675C1138.69 31.66 1138.61 31.5345 1138.55 31.3911C1138.49 31.2478 1138.46 31.0924 1138.46 30.9251V20.4221C1138.46 20.2608 1138.49 20.1084 1138.55 19.965C1138.61 19.8216 1138.69 19.6962 1138.79 19.5886C1138.9 19.4811 1139.03 19.3974 1139.17 19.3377C1139.31 19.278 1139.47 19.2481 1139.64 19.2481H1145.93C1146.7 19.2481 1147.41 19.3825 1148.07 19.6514C1148.73 19.9202 1149.3 20.2936 1149.77 20.7716C1150.25 21.2435 1150.62 21.8111 1150.89 22.4743C1151.17 23.1315 1151.31 23.8484 1151.31 24.6251V26.7221ZM1148.98 24.6251C1148.98 24.171 1148.9 23.7558 1148.75 23.3794C1148.61 23.003 1148.4 22.6834 1148.13 22.4205C1147.86 22.1517 1147.54 21.9455 1147.17 21.8022C1146.79 21.6528 1146.38 21.5781 1145.93 21.5781H1140.79V29.7691H1145.93C1146.38 29.7691 1146.79 29.6974 1147.17 29.554C1147.54 29.4046 1147.86 29.1985 1148.13 28.9357C1148.4 28.6668 1148.61 28.3472 1148.75 27.9768C1148.9 27.6004 1148.98 27.1821 1148.98 26.7221V24.6251ZM1166.18 30.9251C1166.18 31.0924 1166.15 31.2478 1166.09 31.3911C1166.03 31.5345 1165.95 31.66 1165.84 31.7675C1165.73 31.8691 1165.61 31.9498 1165.46 32.0095C1165.32 32.0692 1165.17 32.0991 1165.01 32.0991H1159.76C1159.26 32.0991 1158.76 32.0454 1158.25 31.9378C1157.74 31.8303 1157.25 31.666 1156.77 31.4449C1156.3 31.2179 1155.85 30.9311 1155.44 30.5846C1155.02 30.2381 1154.65 29.8288 1154.33 29.3568C1154.02 28.8789 1153.78 28.3352 1153.6 27.7258C1153.42 27.1105 1153.33 26.4264 1153.33 25.6736V19.2481H1155.66V25.6736C1155.66 26.3308 1155.75 26.8864 1155.93 27.3405C1156.11 27.7945 1156.35 28.1739 1156.63 28.4786C1156.91 28.7833 1157.22 29.0223 1157.55 29.1955C1157.89 29.3688 1158.2 29.4972 1158.5 29.5809C1158.81 29.6645 1159.07 29.7183 1159.3 29.7422C1159.53 29.7601 1159.68 29.7691 1159.76 29.7691H1163.85V19.2481H1166.18V30.9251ZM1180.7 32.0991H1170.07C1169.9 32.0991 1169.75 32.0692 1169.61 32.0095C1169.46 31.9498 1169.34 31.8691 1169.23 31.7675C1169.13 31.66 1169.05 31.5345 1168.99 31.3911C1168.93 31.2478 1168.9 31.0924 1168.9 30.9251V19.2481H1171.23V29.7691H1180.7V32.0991ZM1192.92 26.8476H1185.57V24.4996H1192.92V26.8476ZM1193.97 32.0991H1185.57C1185.24 32.0991 1184.89 32.0424 1184.51 31.9288C1184.13 31.8153 1183.77 31.6301 1183.44 31.3732C1183.12 31.1103 1182.85 30.7728 1182.63 30.3606C1182.41 29.9423 1182.3 29.4315 1182.3 28.8281V20.4221C1182.3 20.2608 1182.33 20.1084 1182.39 19.965C1182.45 19.8216 1182.53 19.6962 1182.64 19.5886C1182.74 19.4811 1182.87 19.3974 1183.01 19.3377C1183.16 19.278 1183.31 19.2481 1183.48 19.2481H1193.97V21.5781H1184.63V28.8281C1184.63 29.1328 1184.71 29.3658 1184.88 29.5271C1185.04 29.6884 1185.27 29.7691 1185.58 29.7691H1193.97V32.0991Z" fill="#238CBA"/>
<path d="M1242.93 24.6251C1242.93 25.1568 1242.86 25.6318 1242.73 26.05C1242.6 26.4682 1242.42 26.8386 1242.19 27.1612C1241.97 27.4779 1241.72 27.7497 1241.42 27.9768C1241.13 28.2038 1240.82 28.389 1240.5 28.5324C1240.18 28.6758 1239.86 28.7803 1239.53 28.846C1239.21 28.9118 1238.9 28.9446 1238.62 28.9446H1233.35V26.6146H1238.62C1238.92 26.5907 1239.19 26.5309 1239.42 26.4353C1239.67 26.3338 1239.88 26.1994 1240.05 26.0321C1240.23 25.8648 1240.36 25.6646 1240.46 25.4316C1240.55 25.1927 1240.6 24.9238 1240.6 24.6251V23.5676C1240.57 23.2749 1240.51 23.006 1240.41 22.7611C1240.31 22.5161 1240.18 22.307 1240.02 22.1337C1239.85 21.9605 1239.66 21.8261 1239.42 21.7305C1239.19 21.6289 1238.92 21.5781 1238.62 21.5781H1233.37C1233.06 21.5781 1232.82 21.6588 1232.66 21.8201C1232.5 21.9814 1232.42 22.2144 1232.42 22.5191V32.0991H1230.09V22.5191C1230.09 21.9216 1230.19 21.4138 1230.41 20.9956C1230.63 20.5774 1230.9 20.2398 1231.22 19.9829C1231.55 19.726 1231.91 19.5408 1232.29 19.4273C1232.67 19.3078 1233.03 19.2481 1233.35 19.2481H1238.62C1239.14 19.2481 1239.62 19.3168 1240.03 19.4542C1240.45 19.5856 1240.82 19.7649 1241.14 19.9919C1241.46 20.213 1241.73 20.4699 1241.95 20.7626C1242.18 21.0554 1242.36 21.363 1242.51 21.6857C1242.66 22.0023 1242.76 22.3249 1242.83 22.6535C1242.9 22.9761 1242.93 23.2808 1242.93 23.5676V24.6251ZM1257.54 32.0991H1255.21V28.9446H1247.02V32.0991H1244.69V25.6736C1244.69 24.7356 1244.85 23.8723 1245.17 23.0837C1245.49 22.2951 1245.94 21.617 1246.51 21.0494C1247.09 20.4818 1247.77 20.0397 1248.55 19.7231C1249.33 19.4064 1250.18 19.2481 1251.11 19.2481H1256.36C1256.52 19.2481 1256.68 19.278 1256.82 19.3377C1256.96 19.3974 1257.09 19.4811 1257.2 19.5886C1257.3 19.6962 1257.39 19.8216 1257.45 19.965C1257.51 20.1084 1257.54 20.2608 1257.54 20.4221V32.0991ZM1247.02 26.6146H1255.21V21.5781H1251.11C1251.04 21.5781 1250.89 21.5901 1250.65 21.614C1250.43 21.6319 1250.16 21.6827 1249.86 21.7663C1249.56 21.85 1249.24 21.9784 1248.91 22.1517C1248.57 22.3249 1248.26 22.5639 1247.98 22.8686C1247.7 23.1733 1247.47 23.5557 1247.28 24.0157C1247.1 24.4698 1247.02 25.0224 1247.02 25.6736V26.6146ZM1272.6 28.3173C1272.6 28.7773 1272.54 29.1926 1272.42 29.563C1272.31 29.9274 1272.16 30.25 1271.96 30.5308C1271.77 30.8116 1271.55 31.0506 1271.29 31.2478C1271.04 31.4449 1270.77 31.6062 1270.49 31.7317C1270.22 31.8572 1269.94 31.9498 1269.65 32.0095C1269.37 32.0692 1269.11 32.0991 1268.85 32.0991H1259.87V29.7691H1268.85C1269.3 29.7691 1269.65 29.6376 1269.89 29.3748C1270.15 29.1119 1270.27 28.7594 1270.27 28.3173C1270.27 28.1022 1270.24 27.9051 1270.17 27.7258C1270.11 27.5466 1270.01 27.3913 1269.89 27.2598C1269.77 27.1284 1269.62 27.0268 1269.44 26.9551C1269.26 26.8834 1269.07 26.8476 1268.85 26.8476H1263.5C1263.12 26.8476 1262.71 26.7819 1262.28 26.6504C1261.84 26.513 1261.43 26.2949 1261.06 25.9962C1260.69 25.6975 1260.38 25.3062 1260.13 24.8222C1259.88 24.3383 1259.76 23.7468 1259.76 23.0478C1259.76 22.3488 1259.88 21.7603 1260.13 21.2824C1260.38 20.7985 1260.69 20.4071 1261.06 20.1084C1261.43 19.8037 1261.84 19.5856 1262.28 19.4542C1262.71 19.3168 1263.12 19.2481 1263.5 19.2481H1271.43V21.5781H1263.5C1263.05 21.5781 1262.71 21.7125 1262.46 21.9814C1262.21 22.2502 1262.09 22.6057 1262.09 23.0478C1262.09 23.4959 1262.21 23.8514 1262.46 24.1143C1262.71 24.3712 1263.05 24.4996 1263.5 24.4996H1268.85H1268.87C1269.12 24.5056 1269.39 24.5414 1269.67 24.6072C1269.95 24.6669 1270.23 24.7625 1270.5 24.8939C1270.78 25.0254 1271.05 25.1927 1271.3 25.3958C1271.55 25.5929 1271.77 25.8319 1271.96 26.1127C1272.16 26.3935 1272.32 26.7161 1272.43 27.0806C1272.54 27.445 1272.6 27.8573 1272.6 28.3173ZM1286.01 21.5781H1280.87V32.0991H1278.54V21.5781H1273.4V19.2481H1286.01V21.5781ZM1306.31 24.6251C1306.31 25.1568 1306.24 25.6318 1306.11 26.05C1305.98 26.4682 1305.8 26.8386 1305.57 27.1612C1305.35 27.4779 1305.09 27.7497 1304.8 27.9768C1304.51 28.2038 1304.2 28.389 1303.88 28.5324C1303.56 28.6758 1303.24 28.7803 1302.91 28.846C1302.59 28.9118 1302.28 28.9446 1302 28.9446H1296.73V26.6146H1302C1302.29 26.5907 1302.56 26.5309 1302.8 26.4353C1303.05 26.3338 1303.26 26.1994 1303.43 26.0321C1303.6 25.8648 1303.74 25.6646 1303.83 25.4316C1303.93 25.1927 1303.98 24.9238 1303.98 24.6251V23.5676C1303.95 23.2749 1303.88 23.006 1303.79 22.7611C1303.69 22.5161 1303.56 22.307 1303.39 22.1337C1303.23 21.9605 1303.03 21.8261 1302.8 21.7305C1302.57 21.6289 1302.3 21.5781 1302 21.5781H1296.74C1296.43 21.5781 1296.2 21.6588 1296.04 21.8201C1295.87 21.9814 1295.79 22.2144 1295.79 22.5191V32.0991H1293.46V22.5191C1293.46 21.9216 1293.57 21.4138 1293.79 20.9956C1294.01 20.5774 1294.28 20.2398 1294.6 19.9829C1294.93 19.726 1295.29 19.5408 1295.67 19.4273C1296.05 19.3078 1296.4 19.2481 1296.73 19.2481H1302C1302.52 19.2481 1302.99 19.3168 1303.41 19.4542C1303.83 19.5856 1304.2 19.7649 1304.51 19.9919C1304.84 20.213 1305.11 20.4699 1305.33 20.7626C1305.56 21.0554 1305.74 21.363 1305.88 21.6857C1306.03 22.0023 1306.14 22.3249 1306.21 22.6535C1306.27 22.9761 1306.31 23.2808 1306.31 23.5676V24.6251ZM1321.15 23.5676C1321.15 24.0993 1321.08 24.5743 1320.95 24.9925C1320.82 25.4107 1320.64 25.7811 1320.41 26.1038C1320.19 26.4204 1319.93 26.6922 1319.64 26.9193C1319.35 27.1463 1319.04 27.3345 1318.72 27.4839C1318.4 27.6272 1318.08 27.7318 1317.75 27.7975C1317.43 27.8632 1317.12 27.8961 1316.84 27.8961L1321.7 32.0991H1318.1L1313.24 27.8961H1311.57V25.5661H1316.84C1317.13 25.5422 1317.39 25.4824 1317.63 25.3868C1317.88 25.2853 1318.09 25.1508 1318.26 24.9836C1318.44 24.8163 1318.58 24.6161 1318.67 24.3831C1318.77 24.1441 1318.82 23.8723 1318.82 23.5676V22.0979C1318.82 21.9665 1318.8 21.8679 1318.76 21.8022C1318.73 21.7305 1318.69 21.6797 1318.64 21.6498C1318.59 21.614 1318.54 21.5931 1318.48 21.5871C1318.42 21.5811 1318.37 21.5781 1318.32 21.5781H1310.63V32.0991H1308.3V20.4221C1308.3 20.2608 1308.33 20.1084 1308.39 19.965C1308.45 19.8216 1308.53 19.6962 1308.64 19.5886C1308.74 19.4811 1308.87 19.3974 1309.01 19.3377C1309.16 19.278 1309.31 19.2481 1309.48 19.2481H1318.32C1318.84 19.2481 1319.28 19.3437 1319.64 19.5349C1320 19.7201 1320.29 19.9561 1320.51 20.2428C1320.74 20.5236 1320.9 20.8283 1320.99 21.1569C1321.1 21.4855 1321.15 21.7932 1321.15 22.08V23.5676ZM1336.97 26.9014C1336.97 27.684 1336.84 28.4039 1336.57 29.0611C1336.3 29.7183 1335.93 30.2859 1335.45 30.7638C1334.97 31.2418 1334.4 31.6152 1333.75 31.884C1333.1 32.1469 1332.38 32.2784 1331.61 32.2784H1328.46C1327.69 32.2784 1326.97 32.1469 1326.32 31.884C1325.66 31.6152 1325.09 31.2418 1324.61 30.7638C1324.14 30.2859 1323.76 29.7183 1323.49 29.0611C1323.22 28.4039 1323.08 27.684 1323.08 26.9014V24.4459C1323.08 23.6692 1323.22 22.9522 1323.49 22.2951C1323.76 21.6319 1324.14 21.0643 1324.61 20.5923C1325.09 20.1144 1325.66 19.741 1326.32 19.4721C1326.97 19.2033 1327.69 19.0688 1328.46 19.0688H1331.61C1332.38 19.0688 1333.1 19.2033 1333.75 19.4721C1334.4 19.741 1334.97 20.1144 1335.45 20.5923C1335.93 21.0643 1336.3 21.6319 1336.57 22.2951C1336.84 22.9522 1336.97 23.6692 1336.97 24.4459V26.9014ZM1334.64 24.4459C1334.64 23.9858 1334.57 23.5706 1334.42 23.2002C1334.28 22.8238 1334.07 22.5042 1333.8 22.2413C1333.54 21.9724 1333.22 21.7663 1332.84 21.6229C1332.47 21.4736 1332.06 21.3989 1331.61 21.3989H1328.46C1328 21.3989 1327.59 21.4736 1327.21 21.6229C1326.84 21.7663 1326.52 21.9724 1326.25 22.2413C1325.99 22.5042 1325.78 22.8238 1325.63 23.2002C1325.48 23.5706 1325.41 23.9858 1325.41 24.4459V26.9014C1325.41 27.3614 1325.48 27.7796 1325.63 28.156C1325.78 28.5264 1325.99 28.846 1326.25 29.1149C1326.52 29.3778 1326.84 29.5839 1327.21 29.7332C1327.59 29.8766 1328 29.9483 1328.46 29.9483H1331.6C1332.05 29.9483 1332.46 29.8766 1332.83 29.7332C1333.21 29.5839 1333.53 29.3778 1333.8 29.1149C1334.07 28.846 1334.28 28.5264 1334.42 28.156C1334.57 27.7796 1334.64 27.3614 1334.64 26.9014V24.4459ZM1349.89 28.8281C1349.89 29.2941 1349.81 29.7273 1349.64 30.1276C1349.48 30.5278 1349.26 30.8744 1348.96 31.1671C1348.68 31.4599 1348.33 31.6899 1347.93 31.8572C1347.53 32.0185 1347.1 32.0991 1346.62 32.0991H1338.08V29.7691H1346.62C1346.91 29.7691 1347.14 29.6884 1347.3 29.5271C1347.46 29.3598 1347.54 29.1268 1347.54 28.8281V19.2481H1349.89V28.8281ZM1363.12 26.8476H1355.77V24.4996H1363.12V26.8476ZM1364.17 32.0991H1355.77C1355.44 32.0991 1355.09 32.0424 1354.71 31.9288C1354.33 31.8153 1353.97 31.6301 1353.64 31.3732C1353.32 31.1103 1353.05 30.7728 1352.83 30.3606C1352.61 29.9423 1352.5 29.4315 1352.5 28.8281V20.4221C1352.5 20.2608 1352.53 20.1084 1352.59 19.965C1352.65 19.8216 1352.73 19.6962 1352.83 19.5886C1352.94 19.4811 1353.07 19.3974 1353.21 19.3377C1353.35 19.278 1353.51 19.2481 1353.68 19.2481H1364.17V21.5781H1354.83V28.8281C1354.83 29.1328 1354.91 29.3658 1355.08 29.5271C1355.24 29.6884 1355.47 29.7691 1355.78 29.7691H1364.17V32.0991ZM1377.85 32.0991H1369.44C1369.23 32.0991 1368.99 32.0752 1368.74 32.0274C1368.5 31.9737 1368.25 31.893 1368.01 31.7855C1367.77 31.6779 1367.54 31.5405 1367.32 31.3732C1367.1 31.2 1366.9 30.9938 1366.73 30.7549C1366.56 30.5099 1366.42 30.2291 1366.32 29.9125C1366.22 29.5899 1366.17 29.2284 1366.17 28.8281V22.5191C1366.17 22.304 1366.19 22.074 1366.24 21.829C1366.3 21.5781 1366.38 21.3332 1366.48 21.0942C1366.59 20.8492 1366.73 20.6162 1366.9 20.3952C1367.08 20.1741 1367.28 19.98 1367.52 19.8127C1367.77 19.6394 1368.05 19.502 1368.37 19.4004C1368.68 19.2989 1369.04 19.2481 1369.44 19.2481H1377.85V21.5781H1369.44C1369.14 21.5781 1368.9 21.6588 1368.74 21.8201C1368.58 21.9814 1368.5 22.2204 1368.5 22.537V28.8281C1368.5 29.1268 1368.58 29.3598 1368.74 29.5271C1368.91 29.6884 1369.14 29.7691 1369.44 29.7691H1377.85V32.0991ZM1391.67 21.5781H1386.53V32.0991H1384.2V21.5781H1379.06V19.2481H1391.67V21.5781ZM1405.74 28.3173C1405.74 28.7773 1405.68 29.1926 1405.56 29.563C1405.44 29.9274 1405.29 30.25 1405.1 30.5308C1404.91 30.8116 1404.68 31.0506 1404.43 31.2478C1404.17 31.4449 1403.9 31.6062 1403.63 31.7317C1403.35 31.8572 1403.07 31.9498 1402.79 32.0095C1402.51 32.0692 1402.24 32.0991 1401.99 32.0991H1393V29.7691H1401.99C1402.44 29.7691 1402.78 29.6376 1403.03 29.3748C1403.28 29.1119 1403.41 28.7594 1403.41 28.3173C1403.41 28.1022 1403.37 27.9051 1403.31 27.7258C1403.24 27.5466 1403.15 27.3913 1403.02 27.2598C1402.9 27.1284 1402.75 27.0268 1402.57 26.9551C1402.4 26.8834 1402.2 26.8476 1401.99 26.8476H1396.63C1396.25 26.8476 1395.85 26.7819 1395.41 26.6504C1394.98 26.513 1394.57 26.2949 1394.19 25.9962C1393.82 25.6975 1393.51 25.3062 1393.26 24.8222C1393.02 24.3383 1392.89 23.7468 1392.89 23.0478C1392.89 22.3488 1393.02 21.7603 1393.26 21.2824C1393.51 20.7985 1393.82 20.4071 1394.19 20.1084C1394.57 19.8037 1394.98 19.5856 1395.41 19.4542C1395.85 19.3168 1396.25 19.2481 1396.63 19.2481H1404.56V21.5781H1396.63C1396.19 21.5781 1395.84 21.7125 1395.59 21.9814C1395.35 22.2502 1395.22 22.6057 1395.22 23.0478C1395.22 23.4959 1395.35 23.8514 1395.59 24.1143C1395.84 24.3712 1396.19 24.4996 1396.63 24.4996H1401.99H1402.01C1402.26 24.5056 1402.52 24.5414 1402.8 24.6072C1403.09 24.6669 1403.36 24.7625 1403.64 24.8939C1403.92 25.0254 1404.19 25.1927 1404.44 25.3958C1404.69 25.5929 1404.91 25.8319 1405.1 26.1127C1405.3 26.3935 1405.45 26.7161 1405.57 27.0806C1405.68 27.445 1405.74 27.8573 1405.74 28.3173Z" fill="#238CBA"/>
<rect x="504.281" y="0.945606" width="130.31" height="51.7977" rx="25.8988" fill="white" fill-opacity="0.3"/>
<rect x="504.281" y="0.945606" width="130.31" height="51.7977" rx="25.8988" stroke="white" stroke-width="1.83535"/>
<circle cx="531.198" cy="26.8438" r="17.8437" fill="#F9E384" stroke="#F4F3B6" stroke-width="2.03928"/>
<path d="M572.394 32.0991H561.765C561.598 32.0991 561.443 32.0692 561.299 32.0095C561.156 31.9498 561.031 31.8691 560.923 31.7675C560.822 31.66 560.741 31.5345 560.681 31.3911C560.621 31.2478 560.591 31.0924 560.591 30.9251V19.2481H562.922V29.7691H572.394V32.0991ZM576.454 32.0991H574.124V19.2481H576.454V32.0991ZM591.859 30.9251C591.859 31.0924 591.829 31.2478 591.769 31.3911C591.709 31.5345 591.626 31.66 591.518 31.7675C591.417 31.8691 591.294 31.9498 591.151 32.0095C591.007 32.0692 590.852 32.0991 590.685 32.0991H582.279C582.064 32.0991 581.831 32.0752 581.58 32.0274C581.335 31.9737 581.09 31.893 580.845 31.7855C580.606 31.6779 580.376 31.5405 580.155 31.3732C579.934 31.2 579.737 30.9938 579.563 30.7549C579.396 30.5099 579.262 30.2291 579.16 29.9125C579.059 29.5899 579.008 29.2284 579.008 28.8281V22.5191C579.008 22.304 579.032 22.074 579.079 21.829C579.133 21.5781 579.214 21.3332 579.321 21.0942C579.429 20.8492 579.569 20.6162 579.743 20.3952C579.916 20.1741 580.122 19.98 580.361 19.8127C580.606 19.6394 580.887 19.502 581.203 19.4004C581.52 19.2989 581.878 19.2481 582.279 19.2481H591.751V21.5781H582.279C581.974 21.5781 581.741 21.6588 581.58 21.8201C581.418 21.9814 581.338 22.2204 581.338 22.537V28.8281C581.338 29.1268 581.418 29.3598 581.58 29.5271C581.747 29.6884 581.98 29.7691 582.279 29.7691H589.529V26.8476H583.327V24.4996H590.685C590.852 24.4996 591.007 24.5325 591.151 24.5982C591.294 24.6579 591.417 24.7416 591.518 24.8491C591.626 24.9567 591.709 25.0821 591.769 25.2255C591.829 25.3629 591.859 25.5123 591.859 25.6736V30.9251ZM596.635 24.4996H604.817V19.2481H607.147V32.0991H604.817V26.8476H596.635V32.0991H594.305V19.2481H596.635V24.4996ZM621.495 21.5781H616.36V32.0991H614.03V21.5781H608.886V19.2481H621.495V21.5781Z" fill="#238CBA"/>
<rect x="677.517" y="339.364" width="324.245" height="60.1587" rx="30.0794" fill="#6DB7D2"/>
<path d="M745.455 378.805C744.329 378.805 743.24 378.67 742.188 378.401C741.136 378.132 740.181 377.716 739.325 377.153C738.468 376.59 737.783 375.868 737.269 374.987C736.755 374.082 736.486 373.005 736.462 371.757H739.545C739.545 371.83 739.569 372.026 739.618 372.344C739.667 372.662 739.79 373.03 739.985 373.446C740.206 373.862 740.524 374.265 740.94 374.657C741.38 375.048 741.98 375.379 742.738 375.648C743.522 375.893 744.5 376.015 745.675 376.015C746.58 376.015 747.339 375.917 747.951 375.721C748.563 375.526 749.052 375.269 749.419 374.951C749.786 374.632 750.043 374.302 750.19 373.959C750.361 373.617 750.447 373.311 750.447 373.042C750.447 372.283 750.202 371.671 749.713 371.206C749.248 370.741 748.612 370.374 747.804 370.105C746.996 369.812 746.103 369.555 745.124 369.334C744.17 369.09 743.216 368.833 742.261 368.563C741.307 368.27 740.426 367.891 739.618 367.426C738.835 366.961 738.224 366.361 737.783 365.627C737.343 364.868 737.147 363.902 737.196 362.727C737.269 361.601 737.661 360.635 738.37 359.827C739.08 359.02 740.047 358.408 741.27 357.992C742.518 357.551 743.938 357.331 745.528 357.331C746.972 357.331 748.293 357.588 749.493 358.102C750.716 358.616 751.695 359.387 752.429 360.415C753.188 361.418 753.555 362.703 753.53 364.269H750.557C750.582 363.412 750.41 362.727 750.043 362.213C749.676 361.675 749.199 361.259 748.612 360.965C748.049 360.671 747.461 360.476 746.85 360.378C746.238 360.255 745.687 360.194 745.198 360.194C743.827 360.194 742.69 360.451 741.784 360.965C740.903 361.455 740.45 362.152 740.426 363.057C740.401 363.841 740.634 364.465 741.123 364.929C741.613 365.394 742.261 365.762 743.069 366.031C743.876 366.3 744.77 366.545 745.748 366.765C746.727 366.985 747.694 367.23 748.648 367.499C749.603 367.768 750.471 368.135 751.254 368.6C752.062 369.041 752.686 369.64 753.127 370.399C753.592 371.157 753.8 372.136 753.751 373.335C753.702 374.486 753.31 375.464 752.576 376.272C751.842 377.08 750.863 377.704 749.639 378.144C748.416 378.584 747.021 378.805 745.455 378.805ZM760.249 377.704V358.359H763.259V377.704H760.249ZM757.423 378.364V375.721H766.049V378.364H757.423ZM757.423 360.341V357.698H766.049V360.341H757.423ZM779.166 378.805C777.16 378.805 775.41 378.389 773.917 377.557C772.449 376.725 771.311 375.513 770.503 373.923C769.696 372.332 769.304 370.399 769.329 368.123C769.378 365.823 769.83 363.865 770.687 362.25C771.543 360.635 772.742 359.411 774.284 358.579C775.85 357.747 777.649 357.331 779.68 357.331C782.396 357.331 784.538 357.943 786.104 359.166C787.67 360.366 788.686 362.128 789.15 364.452L786.214 364.856C785.969 363.73 785.529 362.825 784.892 362.14C784.256 361.455 783.485 360.965 782.58 360.671C781.699 360.353 780.732 360.194 779.68 360.194C777.208 360.194 775.361 360.904 774.137 362.323C772.914 363.718 772.302 365.59 772.302 367.939C772.302 370.46 772.963 372.418 774.284 373.813C775.63 375.183 777.514 375.868 779.937 375.868C781.038 375.868 782.054 375.685 782.984 375.318C783.914 374.926 784.697 374.351 785.333 373.592C785.969 372.809 786.373 371.843 786.544 370.692H781.442V368.38H789.554V378.364H787.462L786.765 374.29H786.691C786.52 374.755 786.238 375.256 785.847 375.795C785.48 376.309 784.99 376.798 784.379 377.263C783.767 377.704 783.02 378.071 782.139 378.364C781.283 378.658 780.292 378.805 779.166 378.805ZM807.659 357.698H810.779V378.364H805.016L796.316 359.056H796.243V378.364H793.123V357.698H798.519L807.585 377.006H807.659V357.698ZM831.969 378.878C829.131 378.878 826.953 378.071 825.435 376.455C823.943 374.816 823.196 372.516 823.196 369.555V357.698H826.39V369.518C826.39 370.717 826.537 371.733 826.83 372.565C827.148 373.372 827.564 374.033 828.078 374.547C828.592 375.036 829.179 375.403 829.84 375.648C830.525 375.868 831.235 375.978 831.969 375.978C833.07 375.978 834.037 375.783 834.869 375.391C835.726 374.975 836.386 374.29 836.851 373.335C837.341 372.381 837.585 371.109 837.585 369.518V357.698H840.779V369.555C840.779 372.565 840.033 374.877 838.54 376.492C837.071 378.083 834.881 378.878 831.969 378.878ZM848.008 378.364H844.961V357.698H848.008V378.364ZM847.567 357.698H853.037C855.337 357.698 857.099 358.261 858.323 359.387C859.571 360.512 860.195 362.201 860.195 364.452C860.195 366.483 859.558 368.062 858.286 369.188C857.013 370.313 855.264 370.876 853.037 370.876H847.567V368.563H852.67C854.138 368.563 855.288 368.221 856.12 367.536C856.977 366.85 857.405 365.81 857.405 364.416C857.405 362.972 856.989 361.92 856.157 361.259C855.325 360.574 854.162 360.231 852.67 360.231H847.567V357.698ZM885.804 357.698H888.924V378.364H883.161L874.462 359.056H874.388V378.364H871.268V357.698H876.664L885.731 377.006H885.804V357.698ZM901.946 378.878C898.643 378.878 896.122 377.912 894.385 375.978C892.647 374.021 891.778 371.39 891.778 368.086C891.778 365.908 892.145 364.024 892.88 362.433C893.638 360.818 894.764 359.57 896.257 358.689C897.774 357.784 899.67 357.331 901.946 357.331C905.25 357.331 907.758 358.31 909.471 360.268C911.209 362.201 912.077 364.807 912.077 368.086C912.077 370.215 911.686 372.1 910.903 373.739C910.144 375.354 909.018 376.615 907.526 377.52C906.033 378.425 904.173 378.878 901.946 378.878ZM901.91 375.942C903.5 375.942 904.822 375.611 905.874 374.951C906.951 374.265 907.746 373.335 908.26 372.161C908.798 370.962 909.067 369.604 909.067 368.086C909.067 366.545 908.81 365.186 908.297 364.012C907.783 362.813 906.987 361.883 905.911 361.222C904.858 360.537 903.525 360.194 901.91 360.194C899.56 360.194 897.774 360.904 896.55 362.323C895.351 363.743 894.752 365.664 894.752 368.086C894.752 369.579 895.009 370.925 895.523 372.124C896.036 373.299 896.819 374.229 897.872 374.914C898.948 375.599 900.294 375.942 901.91 375.942ZM926.812 357.698H930.042L928.427 361.663L924.132 378.364H919.176L913.744 357.698H917.011L921.673 377.006L926.812 357.698ZM939.842 357.698H943.109L937.567 378.364H932.648L928.427 361.663L926.775 357.698H930.042L935.107 377.006L939.842 357.698Z" fill="#DFF5FF"/>
<path d="M102.891 37.0783C102.891 39.0222 102.549 40.8104 101.867 42.4427C101.199 44.075 100.272 45.4847 99.0845 46.6719C97.8973 47.8441 96.4876 48.7642 94.8553 49.4319C93.223 50.0997 91.4497 50.4336 89.5354 50.4336H73.9097C73.4942 50.4336 73.1084 50.3594 72.7523 50.211C72.3961 50.0626 72.0845 49.8623 71.8174 49.61C71.5651 49.3429 71.3648 49.0313 71.2164 48.6751C71.068 48.319 70.9938 47.9332 70.9938 47.5177V21.4303C70.9938 21.0297 71.068 20.6513 71.2164 20.2951C71.3648 19.939 71.5651 19.6274 71.8174 19.3603C72.0845 19.0932 72.3961 18.8854 72.7523 18.737C73.1084 18.5886 73.4942 18.5144 73.9097 18.5144H89.5354C91.4497 18.5144 93.223 18.8483 94.8553 19.5161C96.4876 20.1838 97.8973 21.1113 99.0845 22.2984C100.272 23.4707 101.199 24.8805 101.867 26.5276C102.549 28.1599 102.891 29.9406 102.891 31.8697V37.0783ZM97.1034 31.8697C97.1034 30.7419 96.9179 29.7106 96.547 28.7757C96.1908 27.8409 95.6789 27.047 95.0111 26.3941C94.3433 25.7263 93.542 25.2143 92.6071 24.8582C91.6871 24.4872 90.6632 24.3017 89.5354 24.3017H76.7811V44.6463H89.5354C90.6632 44.6463 91.6871 44.4682 92.6071 44.1121C93.542 43.7411 94.3433 43.2292 95.0111 42.5762C95.6789 41.9085 96.1908 41.1146 96.547 40.1945C96.9179 39.2597 97.1034 38.2209 97.1034 37.0783V31.8697ZM114.399 31.5581H134.721V18.5144H140.508V50.4336H134.721V37.3899H114.399V50.4336H108.611V18.5144H114.399V31.5581ZM161.877 29.9109L171.626 18.5144H179.528L165.794 34.5185L179.439 50.4336H171.581L161.877 39.1261L152.216 50.4336H144.337L157.959 34.5185L144.292 18.5144H152.127L161.877 29.9109Z" fill="#F7F7F7"/>
<path d="M22.7266 23.8333L21.6888 22.464L21.6888 22.464L22.7266 23.8333ZM19.8766 26.4818L21.2647 27.5252L19.8766 26.4818ZM19.3989 26.5095L20.6388 25.3348L19.3989 26.5095ZM26.2375 21.6864L24.69 22.4558L26.2375 21.6864ZM26.0666 22.112L26.6937 23.6926L26.0666 22.112ZM13.1838 10.9768L12.5822 12.552L13.1838 10.9768ZM12.7693 11.2656L11.0207 11.3274L12.7693 11.2656ZM13.1838 10.9768L12.5822 12.552C16.8988 14.1237 19.5984 16.048 21.3627 17.8093C23.1318 19.5755 24.0241 21.236 24.69 22.4558L26.2375 21.6864L27.785 20.917C27.103 19.6679 26.0158 17.6293 23.8687 15.4857C21.7167 13.3373 18.5634 11.1413 13.7854 9.40154L13.1838 10.9768ZM26.0666 22.112L25.4395 20.5313C24.1313 20.9987 22.8691 21.6419 21.6888 22.464L22.7266 23.8333L23.7644 25.2027C24.6904 24.5578 25.676 24.0563 26.6937 23.6926L26.0666 22.112ZM22.7266 23.8333L21.6888 22.464C20.4517 23.3257 19.3821 24.3303 18.4886 25.4384L19.8766 26.4818L21.2647 27.5252C21.9597 26.6632 22.794 25.8786 23.7644 25.2027L22.7266 23.8333ZM19.3989 26.5095L20.6388 25.3348C19.6351 24.3536 18.2564 23.033 17.0416 20.8716C15.8305 18.7168 14.7445 15.6508 14.5178 11.2038L12.7693 11.2656L11.0207 11.3274C11.2717 16.2501 12.4885 19.8167 13.9668 22.4468C15.4414 25.0704 17.1387 26.6869 18.159 27.6843L19.3989 26.5095ZM19.8766 26.4818L18.4886 25.4384C18.9919 24.8142 19.9998 24.7101 20.6388 25.3348L19.3989 26.5095L18.159 27.6843C19.0699 28.5746 20.5268 28.4404 21.2647 27.5252L19.8766 26.4818ZM26.2375 21.6864L24.69 22.4558C24.2697 21.686 24.6746 20.8046 25.4395 20.5313L26.0666 22.112L26.6937 23.6926C27.8149 23.292 28.3837 22.0136 27.785 20.917L26.2375 21.6864ZM13.1838 10.9768L13.7854 9.40154C12.4021 8.89789 10.9485 9.91146 11.0207 11.3274L12.7693 11.2656L14.5178 11.2038C14.5685 12.1975 13.5534 12.9056 12.5822 12.552L13.1838 10.9768Z" fill="#FAFAFA"/>
<path d="M17.82 30.2957L16.1796 29.7846L16.1796 29.7847L17.82 30.2957ZM17.1388 34.0378L15.4089 34.019L17.1388 34.0378ZM19.3318 26.6L20.1082 25.0606L19.3318 26.6ZM19.4461 27.052L18.0197 26.1144L19.4461 27.052ZM2.179 25.2669L2.58903 26.9155C7.07091 25.7501 10.4576 25.7915 12.9858 26.2326C15.5212 26.675 17.2696 27.5288 18.5553 28.1393L19.3318 26.6L20.1082 25.0606C18.8051 24.4418 16.6917 23.403 13.6552 22.8732C10.6116 22.3421 6.71631 22.3317 1.76897 23.6183L2.179 25.2669ZM19.4461 27.052L18.0197 26.1144C17.2536 27.2282 16.6295 28.4572 16.1796 29.7846L17.82 30.2957L19.4605 30.8067C19.8068 29.7849 20.2857 28.8426 20.8725 27.9896L19.4461 27.052ZM17.82 30.2957L16.1796 29.7847C15.704 31.188 15.4532 32.612 15.4089 34.019L17.1388 34.0378L18.8686 34.0565C18.9025 32.9788 19.0945 31.8867 19.4605 30.8067L17.82 30.2957ZM16.7687 34.3444L17.0826 32.6612C15.6709 32.4325 13.7308 32.1485 11.3975 31.0814C9.07164 30.0178 6.28839 28.1409 3.35718 24.649L2.01472 25.7518L0.67226 26.8546C3.9081 30.7093 7.08712 32.8995 9.88911 34.1809C12.6836 35.4589 15.037 35.7979 16.4548 36.0276L16.7687 34.3444ZM17.1388 34.0378L15.4089 34.019C15.4345 33.2061 16.1898 32.5165 17.0826 32.6612L16.7687 34.3444L16.4548 36.0276C17.7276 36.2337 18.831 35.2502 18.8686 34.0565L17.1388 34.0378ZM19.3318 26.6L18.5553 28.1393C17.7511 27.7574 17.5571 26.7869 18.0197 26.1144L19.4461 27.052L20.8725 27.9896C21.5515 27.0025 21.254 25.6047 20.1082 25.0606L19.3318 26.6ZM2.179 25.2669L1.76897 23.6183C0.316689 23.9959 -0.270419 25.7316 0.67226 26.8546L2.01472 25.7518L3.35718 24.649C4.01881 25.4372 3.60868 26.6504 2.58903 26.9155L2.179 25.2669Z" fill="#FAFAFA"/>
<path d="M17.681 38.2304L16.0405 38.7414L16.0405 38.7414L17.681 38.2304ZM19.4238 41.6408L18.0128 42.6004L19.4238 41.6408ZM16.6387 34.3874L16.9543 36.0704L16.6387 34.3874ZM1.94328 42.9741L0.600779 41.8714L1.94328 42.9741ZM2.10768 43.459L2.51767 41.8103L2.10768 43.459ZM1.94328 42.9741L3.28578 44.0768C6.19722 40.6083 8.96277 38.7335 11.2788 37.6659C13.6014 36.5952 15.5396 36.3009 16.9543 36.0704L16.6387 34.3874L16.3231 32.7045C14.8896 32.9381 12.5427 33.2884 9.76105 34.5707C6.97274 35.856 3.81467 38.0425 0.600779 41.8714L1.94328 42.9741ZM17.0083 34.6887L15.2795 34.7337C15.3423 36.0664 15.5903 37.413 16.0405 38.7414L17.681 38.2304L19.3214 37.7194C18.9752 36.6978 18.7853 35.6652 18.7371 34.6437L17.0083 34.6887ZM17.681 38.2304L16.0405 38.7414C16.5161 40.1446 17.1863 41.4375 18.0128 42.6004L19.4238 41.6408L20.8347 40.6812C20.2015 39.7903 19.6873 38.7991 19.3214 37.7194L17.681 38.2304ZM19.3124 42.0974L18.5344 40.5587C17.2521 41.1692 15.5082 42.0325 12.9662 42.4839C10.4323 42.9339 7.02977 42.9836 2.51767 41.8103L2.10768 43.459L1.69769 45.1076C6.67865 46.4028 10.5933 46.3836 13.6459 45.8415C16.6903 45.3009 18.8023 44.2493 20.0904 43.636L19.3124 42.0974ZM19.4238 41.6408L18.0128 42.6004C17.5351 41.9283 17.7234 40.9448 18.5344 40.5587L19.3124 42.0974L20.0904 43.636C21.2465 43.0856 21.5362 41.6681 20.8347 40.6812L19.4238 41.6408ZM16.6387 34.3874L16.9543 36.0704C16.0695 36.2145 15.3174 35.5387 15.2795 34.7337L17.0083 34.6887L18.7371 34.6437C18.6815 33.4623 17.5837 32.4991 16.3231 32.7045L16.6387 34.3874ZM1.94328 42.9741L0.600779 41.8714C-0.342608 42.9953 0.246588 44.7303 1.69769 45.1076L2.10768 43.459L2.51767 41.8103C3.53614 42.0752 3.94814 43.2877 3.28578 44.0768L1.94328 42.9741Z" fill="#FAFAFA"/>
<path d="M22.4787 44.7102L21.4409 46.0796L21.441 46.0796L22.4787 44.7102ZM25.9945 46.4929L26.5997 44.9045L25.9945 46.4929ZM26.1698 46.9208L27.7178 47.6892L26.1698 46.9208ZM19.2783 42.1897L18.0364 41.0169L19.2783 42.1897ZM19.7535 42.2135L21.1262 41.1513L19.7535 42.2135ZM12.6538 57.4345L10.9052 57.3727L12.6538 57.4345ZM13.0684 57.7232L13.67 59.2984L13.0684 57.7232ZM12.6538 57.4345L14.4023 57.4962C14.6288 53.0505 15.7143 49.9849 16.9248 47.8297C18.1391 45.6679 19.5168 44.3465 20.5202 43.3625L19.2783 42.1897L18.0364 41.0169C17.0188 42.0148 15.3229 43.6322 13.8495 46.2554C12.3723 48.8854 11.156 52.4512 10.9052 57.3727L12.6538 57.4345ZM19.7535 42.2135L18.3809 43.2757C19.2453 44.3163 20.2675 45.2623 21.4409 46.0796L22.4787 44.7102L23.5165 43.3408C22.5966 42.7001 21.7989 41.9612 21.1262 41.1513L19.7535 42.2135ZM22.4787 44.7102L21.441 46.0796C22.6808 46.9432 24.0109 47.6089 25.3894 48.0812L25.9945 46.4929L26.5997 44.9045C25.5273 44.5371 24.4888 44.0181 23.5165 43.3408L22.4787 44.7102ZM26.1698 46.9208L24.6218 46.1524C23.9584 47.3694 23.0826 49.0387 21.3133 50.8247C19.55 52.6044 16.8365 54.5569 12.4668 56.148L13.0684 57.7232L13.67 59.2984C18.5075 57.537 21.6796 55.3081 23.8328 53.1347C25.9798 50.9676 27.0513 48.912 27.7178 47.6892L26.1698 46.9208ZM25.9945 46.4929L25.3894 48.0812C24.6127 47.8151 24.1995 46.927 24.6218 46.1524L26.1698 46.9208L27.7178 47.6892C28.3203 46.5841 27.7384 45.2947 26.5997 44.9045L25.9945 46.4929ZM19.2783 42.1897L20.5202 43.3625C19.8882 43.9823 18.8898 43.8883 18.3809 43.2757L19.7535 42.2135L21.1262 41.1513C20.3804 40.2535 18.9375 40.1333 18.0364 41.0169L19.2783 42.1897ZM12.6538 57.4345L10.9052 57.3727C10.833 58.7897 12.2878 59.8017 13.67 59.2984L13.0684 57.7232L12.4668 56.148C13.4369 55.7948 14.453 56.5014 14.4023 57.4962L12.6538 57.4345Z" fill="#FAFAFA"/>
<path d="M30.6709 21.3477L30.6709 19.6295L30.6709 19.6295L30.6709 21.3477ZM26.7326 21.8875L26.2677 20.2334L26.7326 21.8875ZM26.3376 21.6378L28.0355 21.3749L26.3376 21.6378ZM34.8275 21.5895L33.1292 21.3288L34.8275 21.5895ZM34.4366 21.8404L33.9923 23.5002L34.4366 21.8404ZM30.8276 5.56195L29.4088 6.5311L30.8276 5.56195ZM30.3267 5.562L28.9079 4.59288L30.3267 5.562ZM30.8276 5.56195L29.4088 6.5311C31.9378 10.2334 32.9392 13.3053 33.2856 15.7137C33.6329 18.129 33.3383 19.9668 33.1292 21.3288L34.8275 21.5895L36.5259 21.8502C36.7402 20.4539 37.1122 18.1816 36.687 15.2246C36.2607 12.2606 35.0505 8.6979 32.2464 4.5928L30.8276 5.56195ZM34.4366 21.8404L34.8809 20.1806C33.5394 19.8215 32.1272 19.6295 30.6709 19.6295V21.3477V23.0659C31.8242 23.0659 32.9377 23.2178 33.9923 23.5002L34.4366 21.8404ZM30.6709 21.3477L30.6709 19.6295C29.1447 19.6295 27.6667 19.8402 26.2677 20.2334L26.7326 21.8875L27.1976 23.5416C28.2968 23.2326 29.462 23.0659 30.6709 23.0659L30.6709 21.3477ZM26.3376 21.6378L28.0355 21.3749C27.8251 20.0155 27.5213 18.1787 27.8628 15.7561C28.2032 13.3412 29.2019 10.255 31.7455 6.53112L30.3267 5.562L28.9079 4.59288C26.0875 8.72201 24.8793 12.3024 24.46 15.2764C24.0418 18.2428 24.4254 20.5174 24.6396 21.9007L26.3376 21.6378ZM26.7326 21.8875L26.2677 20.2334C27.044 20.0152 27.9009 20.5052 28.0355 21.3749L26.3376 21.6378L24.6396 21.9007C24.8316 23.1407 26.0605 23.8613 27.1976 23.5416L26.7326 21.8875ZM34.8275 21.5895L33.1292 21.3288C33.2619 20.4649 34.1079 19.9737 34.8809 20.1806L34.4366 21.8404L33.9923 23.5002C35.1242 23.8032 36.3369 23.0814 36.5259 21.8502L34.8275 21.5895ZM30.8276 5.56195L32.2464 4.5928C31.4444 3.41875 29.7093 3.41961 28.9079 4.59288L30.3267 5.562L31.7455 6.53112C31.183 7.35458 29.9718 7.35534 29.4088 6.5311L30.8276 5.56195Z" fill="#FAFAFA"/>
<path d="M38.6081 23.8302L39.6459 22.4608L39.6459 22.4608L38.6081 23.8302ZM35.1011 22.0519L35.7071 20.4639L35.1011 22.0519ZM34.926 21.625L33.3775 20.8575L34.926 21.625ZM41.8225 26.37L40.5811 25.1968L41.8225 26.37ZM41.3476 26.3456L39.973 27.4055L41.3476 26.3456ZM48.4143 11.1582L50.1628 11.2199L48.4143 11.1582ZM47.9997 10.8695L47.3981 9.29427L47.9997 10.8695ZM48.4143 11.1582L46.6657 11.0965C46.4404 15.5184 45.3653 18.5746 44.1629 20.7274C42.9572 22.8861 41.5854 24.2126 40.5811 25.1968L41.8225 26.37L43.064 27.5433C44.0921 26.5358 45.7788 24.9147 47.2422 22.2946C48.7089 19.6687 49.9134 16.1148 50.1628 11.2199L48.4143 11.1582ZM41.3476 26.3456L42.7221 25.2858C41.8548 24.2377 40.8275 23.2838 39.6459 22.4608L38.6081 23.8302L37.5704 25.1996C38.4955 25.844 39.2971 26.5888 39.973 27.4055L41.3476 26.3456ZM38.6081 23.8302L39.6459 22.4608C38.4084 21.5989 37.0812 20.9355 35.7071 20.4639L35.1011 22.0519L34.495 23.64C35.5654 24.0073 36.6013 24.5246 37.5704 25.1996L38.6081 23.8302ZM34.926 21.625L36.4746 22.3925C37.1377 21.1741 38.0217 19.509 39.7904 17.7334C41.5538 15.9633 44.2598 14.0256 48.6013 12.4447L47.9997 10.8695L47.3981 9.29427C42.5921 11.0443 39.4299 13.256 37.2776 15.4166C35.1307 17.5719 34.0516 19.619 33.3775 20.8575L34.926 21.625ZM35.1011 22.0519L35.7071 20.4639C36.4821 20.7299 36.8967 21.6169 36.4746 22.3925L34.926 21.625L33.3775 20.8575C32.7758 21.9629 33.3589 23.25 34.495 23.64L35.1011 22.0519ZM41.8225 26.37L40.5811 25.1968C41.2148 24.5758 42.2145 24.6723 42.7221 25.2858L41.3476 26.3456L39.973 27.4055C40.717 28.3046 42.1612 28.4279 43.064 27.5433L41.8225 26.37ZM48.4143 11.1582L50.1628 11.2199C50.235 9.80308 48.7803 8.79092 47.3981 9.29427L47.9997 10.8695L48.6013 12.4447C47.6311 12.798 46.615 12.0912 46.6657 11.0965L48.4143 11.1582Z" fill="#FAFAFA"/>
<path d="M43.3974 30.1522L45.0379 29.6411L45.0379 29.6412L43.3974 30.1522ZM44.079 33.8952L45.8089 33.8765L44.079 33.8952ZM41.886 26.4574L41.1095 24.9181L41.886 26.4574ZM41.7717 26.9094L40.3452 27.847L41.7717 26.9094ZM59.0385 25.1234L59.4485 23.4748L59.0385 25.1234ZM59.2027 25.6083L60.5452 26.7111L59.2027 25.6083ZM59.0385 25.1234L58.6285 26.772C54.1467 25.6067 50.7601 25.6483 48.232 26.0896C45.6966 26.5322 43.9483 27.3861 42.6625 27.9968L41.886 26.4574L41.1095 24.9181C42.4125 24.2992 44.5258 23.2603 47.5623 22.7302C50.6059 22.199 54.5012 22.1883 59.4485 23.4748L59.0385 25.1234ZM41.7717 26.9094L43.1981 25.9719C43.9639 27.0852 44.588 28.3139 45.0379 29.6411L43.3974 30.1522L41.757 30.6632C41.4108 29.6419 40.9319 28.6999 40.3452 27.847L41.7717 26.9094ZM43.3974 30.1522L45.0379 29.6412C45.5135 31.0445 45.7646 32.469 45.8089 33.8765L44.079 33.8952L42.3492 33.9138C42.3153 32.8361 42.1231 31.7436 41.757 30.6632L43.3974 30.1522ZM44.4491 34.2018L44.1351 32.5186C45.5467 32.2899 47.4867 32.0058 49.82 30.9385C52.1458 29.8747 54.929 27.9976 57.8603 24.5056L59.2027 25.6083L60.5452 26.7111C57.3094 30.5659 54.1305 32.7563 51.3286 34.0379C48.5342 35.3161 46.1809 35.6553 44.7631 35.885L44.4491 34.2018ZM44.079 33.8952L45.8089 33.8765C45.7833 33.0636 45.028 32.3739 44.1351 32.5186L44.4491 34.2018L44.7631 35.885C43.4902 36.0912 42.3867 35.1076 42.3492 33.9138L44.079 33.8952ZM41.886 26.4574L42.6625 27.9968C43.4666 27.6149 43.6607 26.6444 43.1981 25.9719L41.7717 26.9094L40.3452 27.847C39.6662 26.8598 39.9638 25.4621 41.1095 24.9181L41.886 26.4574ZM59.0385 25.1234L59.4485 23.4748C60.9008 23.8524 61.4879 25.5881 60.5452 26.7111L59.2027 25.6083L57.8603 24.5056C57.1987 25.2937 57.6088 26.5069 58.6285 26.772L59.0385 25.1234Z" fill="#FAFAFA"/>
<path d="M43.4123 38.1579L45.0527 38.669L45.0527 38.669L43.4123 38.1579ZM41.6683 41.569L43.0791 42.5288L41.6683 41.569ZM41.7796 42.0256L41.0017 43.5642L41.7796 42.0256ZM44.4545 34.3149L44.1389 35.9979L44.4545 34.3149ZM44.0849 34.6162L42.3561 34.5712L44.0849 34.6162ZM58.9834 43.3869L59.3933 45.0355L58.9834 43.3869ZM59.1478 42.902L57.8053 44.0047C54.8942 40.5367 52.1292 38.6618 49.8136 37.594C47.4914 36.5231 45.5535 36.2284 44.1389 35.9979L44.4545 34.3149L44.7701 32.632C46.204 32.8657 48.5506 33.2164 51.3318 34.499C54.1196 35.7845 57.2769 37.9711 60.4902 41.7993L59.1478 42.902ZM44.0849 34.6162L45.8137 34.6613C45.7509 35.9939 45.5029 37.3406 45.0527 38.669L43.4123 38.1579L41.7718 37.6469C42.118 36.6255 42.3079 35.5927 42.3561 34.5712L44.0849 34.6162ZM43.4123 38.1579L45.0527 38.669C44.5768 40.073 43.9058 41.366 43.0791 42.5288L41.6683 41.569L40.2575 40.6091C40.8912 39.7178 41.4059 38.7265 41.7718 37.6469L43.4123 38.1579ZM41.7796 42.0256L42.5576 40.4869C43.8398 41.0974 45.5837 41.9606 48.1255 42.4118C50.6593 42.8617 54.0616 42.9113 58.5734 41.7382L58.9834 43.3869L59.3933 45.0355C54.4127 46.3305 50.4983 46.3114 47.446 45.7695C44.4017 45.229 42.2898 44.1775 41.0017 43.5642L41.7796 42.0256ZM41.6683 41.569L43.0791 42.5288C43.557 41.8567 43.3686 40.873 42.5576 40.4869L41.7796 42.0256L41.0017 43.5642C39.8455 43.0138 39.5557 41.5961 40.2575 40.6091L41.6683 41.569ZM44.4545 34.3149L44.1389 35.9979C45.0237 36.1421 45.7757 35.4662 45.8137 34.6613L44.0849 34.6162L42.3561 34.5712C42.4118 33.3898 43.5095 32.4266 44.7701 32.632L44.4545 34.3149ZM59.1478 42.902L60.4902 41.7993C61.4336 42.9232 60.8444 44.6582 59.3933 45.0355L58.9834 43.3869L58.5734 41.7382C57.5549 42.003 57.1429 43.2156 57.8053 44.0047L59.1478 42.902Z" fill="#FAFAFA"/>
<path d="M38.516 44.6358L39.5538 46.0052L39.5538 46.0052L38.516 44.6358ZM35.0002 46.4185L35.6054 48.0068L35.6054 48.0068L35.0002 46.4185ZM34.8249 46.8463L36.3729 46.0779L34.8249 46.8463ZM41.7164 42.1153L42.9583 40.9424L41.7164 42.1153ZM41.2412 42.1391L42.6138 43.2013L41.2412 42.1391ZM48.3404 57.3593L46.5918 57.421L48.3404 57.3593ZM47.9257 57.648L47.3241 59.2232L47.9257 57.648ZM48.3404 57.3593L46.5918 57.421C46.3653 52.9758 45.2801 49.9104 44.0697 47.7554C42.8556 45.5936 41.4779 44.2721 40.4745 43.2881L41.7164 42.1153L42.9583 40.9424C43.9761 41.9405 45.6718 43.558 47.1451 46.1811C48.6221 48.811 49.8382 52.3766 50.0889 57.2975L48.3404 57.3593ZM41.2412 42.1391L42.6138 43.2013C41.7495 44.2419 40.7271 45.1879 39.5538 46.0052L38.516 44.6358L37.4782 43.2664C38.3982 42.6256 39.1958 41.8868 39.8686 41.0769L41.2412 42.1391ZM38.516 44.6358L39.5538 46.0052C38.314 46.8687 36.9837 47.5345 35.6054 48.0068L35.0002 46.4185L34.395 44.8301C35.4674 44.4627 36.506 43.9436 37.4782 43.2664L38.516 44.6358ZM34.8249 46.8463L36.3729 46.0779C37.0364 47.295 37.9122 48.9643 39.6816 50.7501C41.4448 52.5297 44.1582 54.4819 48.5273 56.0728L47.9257 57.648L47.3241 59.2232C42.4873 57.462 39.3153 55.2334 37.1621 53.0602C35.0151 50.8933 33.9436 48.8378 33.2768 47.6147L34.8249 46.8463ZM35.0002 46.4185L35.6054 48.0068C36.382 47.7407 36.7952 46.8526 36.3729 46.0779L34.8249 46.8463L33.2768 47.6147C32.6745 46.5096 33.2564 45.2203 34.395 44.8301L35.0002 46.4185ZM41.7164 42.1153L40.4745 43.2881C41.1066 43.9079 42.105 43.8139 42.6138 43.2013L41.2412 42.1391L39.8686 41.0769C40.6143 40.1791 42.0572 40.0589 42.9583 40.9424L41.7164 42.1153ZM48.3404 57.3593L50.0889 57.2975C50.1611 58.7145 48.7063 59.7265 47.3241 59.2232L47.9257 57.648L48.5273 56.0728C47.5572 55.7196 46.5411 56.4262 46.5918 57.421L48.3404 57.3593Z" fill="#FAFAFA"/>
<path d="M30.7593 63.0088L32.1781 63.9779L32.1781 63.9778L30.7593 63.0088ZM30.2563 63.0088L28.8375 63.9779L28.8388 63.9798L30.2563 63.0088ZM30.3979 47.1719L30.3979 48.8901H30.3979V47.1719ZM34.3439 46.6306L33.8782 44.9767L34.3439 46.6306ZM34.7397 46.881L33.0416 47.1429L34.7397 46.881ZM26.2631 46.9379L24.5647 46.6779L26.2631 46.9379ZM26.654 46.6864L26.2126 48.3469L26.654 46.6864ZM30.7593 63.0088L29.3404 62.0397C29.9049 61.2133 31.1127 61.2185 31.6739 62.0378L30.2563 63.0088L28.8388 63.9798C29.6392 65.1482 31.3749 65.1539 32.1781 63.9779L30.7593 63.0088ZM30.2563 63.0088L31.6752 62.0397C29.1332 58.318 28.1345 55.2331 27.7932 52.8185C27.4508 50.3962 27.7531 48.5594 27.9615 47.198L26.2631 46.9379L24.5647 46.6779C24.3531 48.0602 23.9716 50.3345 24.3906 53.2995C24.8108 56.2723 26.0188 59.8509 28.8375 63.9779L30.2563 63.0088ZM26.654 46.6864L26.2126 48.3469C27.5477 48.7018 28.9517 48.8901 30.3979 48.8901L30.3979 47.1719L30.398 45.4537C29.2506 45.4537 28.1434 45.3045 27.0954 45.0259L26.654 46.6864ZM30.3979 47.1719V48.8901C31.9267 48.8901 33.4077 48.6792 34.8097 48.2844L34.3439 46.6306L33.8782 44.9767C32.7774 45.2867 31.6098 45.4537 30.3979 45.4537V47.1719ZM34.7397 46.881L33.0416 47.1429C33.2511 48.5018 33.5644 50.337 33.2291 52.7681C32.8949 55.1904 31.8998 58.2923 29.3404 62.0397L30.7593 63.0088L32.1781 63.9778C35.0164 59.8221 36.2215 56.2225 36.6332 53.2377C37.0437 50.2619 36.6484 47.9848 36.4378 46.6191L34.7397 46.881ZM34.3439 46.6306L34.8097 48.2844C34.0317 48.5035 33.1755 48.0115 33.0416 47.1429L34.7397 46.881L36.4378 46.6191C36.2466 45.3793 35.0177 44.6558 33.8782 44.9767L34.3439 46.6306ZM26.2631 46.9379L27.9615 47.198C27.8295 48.06 26.986 48.5525 26.2126 48.3469L26.654 46.6864L27.0954 45.0259C25.9628 44.7248 24.753 45.4485 24.5647 46.6779L26.2631 46.9379Z" fill="#FAFAFA"/>
<g filter="url(#filter0_d_3146_3426)">
<path d="M587.04 172.15C587.04 176.324 586.307 180.164 584.842 183.669C583.408 187.174 581.416 190.201 578.867 192.75C576.318 195.267 573.291 197.242 569.786 198.676C566.281 200.11 562.473 200.827 558.363 200.827H524.81C523.918 200.827 523.09 200.668 522.325 200.349C521.56 200.031 520.891 199.6 520.317 199.059C519.776 198.485 519.346 197.816 519.027 197.051C518.708 196.287 518.549 195.458 518.549 194.566V138.55C518.549 137.689 518.708 136.877 519.027 136.112C519.346 135.347 519.776 134.678 520.317 134.105C520.891 133.531 521.56 133.085 522.325 132.766C523.09 132.448 523.918 132.288 524.81 132.288H558.363C562.473 132.288 566.281 133.005 569.786 134.439C573.291 135.873 576.318 137.864 578.867 140.414C581.416 142.931 583.408 145.958 584.842 149.495C586.307 153 587.04 156.823 587.04 160.966V172.15ZM574.613 160.966C574.613 158.544 574.215 156.329 573.418 154.322C572.654 152.315 571.554 150.61 570.12 149.208C568.687 147.774 566.966 146.675 564.959 145.91C562.983 145.113 560.784 144.715 558.363 144.715H530.976V188.4H558.363C560.784 188.4 562.983 188.018 564.959 187.253C566.966 186.457 568.687 185.357 570.12 183.955C571.554 182.521 572.654 180.817 573.418 178.841C574.215 176.834 574.613 174.603 574.613 172.15V160.966ZM666.381 194.566C666.381 195.458 666.221 196.287 665.903 197.051C665.584 197.816 665.138 198.485 664.565 199.059C663.991 199.6 663.322 200.031 662.557 200.349C661.792 200.668 660.98 200.827 660.12 200.827H632.111C629.467 200.827 626.79 200.54 624.082 199.967C621.373 199.393 618.745 198.517 616.195 197.338C613.678 196.127 611.304 194.598 609.074 192.75C606.843 190.902 604.884 188.719 603.195 186.202C601.538 183.653 600.232 180.753 599.276 177.503C598.32 174.221 597.842 170.573 597.842 166.558V132.288H610.269V166.558C610.269 170.063 610.747 173.026 611.703 175.448C612.69 177.869 613.933 179.893 615.431 181.518C616.928 183.143 618.569 184.417 620.354 185.341C622.138 186.265 623.827 186.95 625.42 187.397C627.045 187.843 628.463 188.129 629.674 188.257C630.916 188.353 631.729 188.4 632.111 188.4H653.954V132.288H666.381V194.566ZM749.354 155.326C749.354 158.162 749.003 160.695 748.302 162.925C747.601 165.156 746.645 167.131 745.435 168.852C744.256 170.541 742.886 171.99 741.324 173.201C739.763 174.412 738.122 175.416 736.401 176.212C734.713 176.977 732.992 177.535 731.239 177.885C729.519 178.236 727.894 178.411 726.364 178.411L752.317 200.827H733.103L707.198 178.411H698.26V165.984H726.364C727.926 165.857 729.343 165.538 730.618 165.028C731.924 164.487 733.04 163.77 733.964 162.877C734.92 161.985 735.652 160.918 736.162 159.675C736.672 158.401 736.927 156.951 736.927 155.326V147.487C736.927 146.786 736.831 146.261 736.64 145.91C736.481 145.528 736.258 145.257 735.971 145.097C735.716 144.906 735.429 144.795 735.111 144.763C734.824 144.731 734.553 144.715 734.298 144.715H693.29V200.827H680.863V138.55C680.863 137.689 681.022 136.877 681.341 136.112C681.659 135.347 682.09 134.678 682.631 134.105C683.205 133.531 683.874 133.085 684.639 132.766C685.403 132.448 686.232 132.288 687.124 132.288H734.298C737.07 132.288 739.412 132.798 741.324 133.818C743.236 134.806 744.781 136.064 745.96 137.594C747.171 139.091 748.032 140.716 748.541 142.469C749.083 144.221 749.354 145.862 749.354 147.392V155.326ZM774.351 160.296H817.988V132.288H830.415V200.827H817.988V172.819H774.351V200.827H761.924V132.288H774.351V160.296ZM912.241 200.827H899.814V184.003H856.129V200.827H843.702V166.558C843.702 161.555 844.563 156.951 846.283 152.745C848.004 148.539 850.394 144.922 853.453 141.895C856.512 138.868 860.128 136.51 864.302 134.821C868.476 133.133 873.033 132.288 877.972 132.288H905.98C906.84 132.288 907.653 132.448 908.418 132.766C909.182 133.085 909.851 133.531 910.425 134.105C910.999 134.678 911.445 135.347 911.763 136.112C912.082 136.877 912.241 137.689 912.241 138.55V200.827ZM856.129 171.576H899.814V144.715H877.972C877.589 144.715 876.777 144.779 875.534 144.906C874.323 145.002 872.905 145.273 871.28 145.719C869.687 146.165 867.998 146.85 866.214 147.774C864.43 148.698 862.789 149.973 861.291 151.598C859.794 153.223 858.551 155.262 857.563 157.716C856.607 160.137 856.129 163.085 856.129 166.558V171.576ZM988.093 200.827H943.261C942.113 200.827 940.871 200.7 939.533 200.445C938.226 200.158 936.92 199.728 935.613 199.154C934.339 198.581 933.112 197.848 931.933 196.956C930.754 196.032 929.703 194.932 928.779 193.658C927.886 192.351 927.169 190.854 926.628 189.165C926.086 187.444 925.815 185.517 925.815 183.382V149.734C925.815 148.587 925.943 147.36 926.198 146.053C926.484 144.715 926.914 143.409 927.488 142.134C928.062 140.828 928.81 139.585 929.734 138.406C930.658 137.227 931.758 136.192 933.032 135.299C934.339 134.375 935.836 133.642 937.525 133.101C939.214 132.559 941.126 132.288 943.261 132.288H988.093V144.715H943.261C941.636 144.715 940.393 145.145 939.533 146.006C938.672 146.866 938.242 148.14 938.242 149.829V183.382C938.242 184.975 938.672 186.218 939.533 187.11C940.425 187.97 941.667 188.4 943.261 188.4H988.093V200.827ZM1071.69 200.827H1054.05L1026.09 172.819H1017.34V160.296H1026.09L1054.05 132.288H1071.69L1036.46 166.558L1071.69 200.827ZM1012.37 200.827H999.946V132.288H1012.37V200.827ZM1141.56 156.76L1162.5 132.288H1179.47L1149.98 166.653L1179.28 200.827H1162.4L1141.56 176.547L1120.82 200.827H1103.9L1133.15 166.653L1103.81 132.288H1120.63L1141.56 156.76Z" fill="#FFF6F6"/>
</g>
<path d="M640.171 287.41V290.086H626.337V287.41H632.014V258.763C631.536 259.981 630.905 260.96 630.122 261.699C629.339 262.439 628.534 263.004 627.707 263.396C626.881 263.744 626.119 263.983 625.423 264.114C624.771 264.201 624.336 264.244 624.118 264.244V261.242C624.379 261.242 624.923 261.134 625.749 260.916C626.576 260.699 627.49 260.307 628.49 259.741C629.491 259.176 630.339 258.393 631.035 257.392C631.775 256.348 632.166 254.999 632.21 253.346H634.82V287.41H640.171ZM655.614 290.739C653.83 290.739 652.307 290.499 651.046 290.021C649.784 289.499 648.74 288.846 647.913 288.063C647.087 287.28 646.434 286.475 645.956 285.648C645.477 284.822 645.129 284.061 644.912 283.364C644.738 282.668 644.651 282.146 644.651 281.798H647.587C647.587 281.842 647.631 282.212 647.718 282.908C647.848 283.56 648.153 284.322 648.631 285.192C649.153 286.062 649.958 286.823 651.046 287.476C652.133 288.085 653.656 288.389 655.614 288.389C657.049 288.389 658.354 288.237 659.529 287.932C660.704 287.584 661.639 287.062 662.335 286.366C663.031 285.627 663.379 284.67 663.379 283.495C663.379 282.103 662.922 281.037 662.009 280.297C661.139 279.514 660.008 278.949 658.615 278.601C657.223 278.209 655.766 277.861 654.243 277.557C652.721 277.209 651.263 276.774 649.871 276.251C648.522 275.729 647.413 274.968 646.543 273.967C645.716 272.967 645.303 271.596 645.303 269.856C645.347 267.768 646.325 266.093 648.24 264.832C650.154 263.526 652.612 262.874 655.614 262.874C656.745 262.874 657.941 263.004 659.203 263.265C660.464 263.526 661.617 263.983 662.661 264.636C663.749 265.288 664.619 266.18 665.272 267.311C665.968 268.442 666.251 269.922 666.12 271.749H663.249C663.292 270.4 663.053 269.312 662.531 268.486C662.052 267.659 661.378 267.028 660.508 266.593C659.681 266.115 658.811 265.81 657.898 265.68C656.984 265.549 656.157 265.484 655.418 265.484C653.373 265.484 651.633 265.854 650.197 266.593C648.805 267.333 648.109 268.464 648.109 269.987C648.109 271.248 648.544 272.227 649.414 272.923C650.284 273.619 651.415 274.163 652.808 274.555C654.2 274.903 655.657 275.229 657.18 275.534C658.703 275.838 660.16 276.273 661.552 276.839C662.944 277.404 664.075 278.209 664.945 279.253C665.816 280.297 666.251 281.755 666.251 283.626C666.251 285.322 665.772 286.693 664.815 287.737C663.901 288.781 662.64 289.542 661.03 290.021C659.42 290.499 657.615 290.739 655.614 290.739ZM676.593 290.086C675.244 290.086 674.352 289.694 673.917 288.911C673.526 288.128 673.33 287.193 673.33 286.105V265.484H676.201V287.541H682.401V290.086H676.593ZM668.958 266.006V263.592C670.132 263.592 671.024 263.548 671.633 263.461C672.242 263.374 672.677 263.135 672.938 262.743C673.199 262.308 673.352 261.634 673.395 260.72C673.482 259.763 673.526 258.436 673.526 256.74H676.201V263.592H682.401V266.006H668.958ZM688.125 276.708V274.229H702.612V276.708H688.125ZM708.641 290.086V287.606C708.684 287.563 709.119 287.258 709.946 286.693C710.772 286.084 711.86 285.279 713.209 284.278C714.601 283.234 716.08 282.059 717.646 280.754C719.256 279.406 720.844 277.992 722.41 276.513C724.019 275.033 725.455 273.554 726.717 272.075C727.978 270.596 728.957 269.182 729.653 267.833C730.741 265.571 731.067 263.526 730.632 261.699C730.197 259.872 729.175 258.415 727.565 257.327C725.999 256.239 723.976 255.696 721.496 255.696C718.842 255.739 716.667 256.544 714.97 258.11C713.274 259.633 712.425 261.873 712.425 264.832L709.685 264.636C709.685 262.243 710.185 260.198 711.186 258.502C712.23 256.805 713.665 255.5 715.492 254.586C717.32 253.673 719.43 253.216 721.822 253.216C724.172 253.216 726.216 253.629 727.957 254.456C729.74 255.282 731.111 256.413 732.068 257.849C733.068 259.285 733.612 260.916 733.699 262.743C733.786 264.57 733.329 266.506 732.329 268.551C731.589 269.987 730.458 271.553 728.935 273.25C727.413 274.903 725.738 276.534 723.911 278.144C722.083 279.754 720.3 281.233 718.56 282.581C716.863 283.93 715.405 285.039 714.187 285.909C712.969 286.78 712.23 287.28 711.969 287.41H734.482V290.086H708.641ZM739.934 290.086V263.592H742.414L742.936 270.639H743.066C743.153 270.335 743.371 269.813 743.719 269.073C744.067 268.334 744.61 267.551 745.35 266.724C746.09 265.854 747.069 265.114 748.287 264.505C749.505 263.896 751.027 263.592 752.855 263.592C754.682 263.592 756.183 263.853 757.357 264.375C758.575 264.897 759.554 265.615 760.294 266.528C761.077 267.398 761.664 268.421 762.056 269.595C762.447 270.726 762.708 271.923 762.839 273.184C762.969 274.446 763.035 275.708 763.035 276.969V290.086H760.098V276.969C760.098 274.794 759.859 272.923 759.38 271.357C758.902 269.748 758.097 268.508 756.966 267.638C755.835 266.767 754.269 266.332 752.267 266.332C750.136 266.332 748.374 266.854 746.981 267.899C745.633 268.943 744.61 270.313 743.914 272.01C743.262 273.706 742.936 275.555 742.936 277.557V290.086H739.934ZM780.755 290.739C778.232 290.739 776.078 290.129 774.295 288.911C772.554 287.693 771.227 286.062 770.314 284.017C769.4 281.972 768.943 279.688 768.943 277.165C768.943 274.598 769.4 272.293 770.314 270.248C771.271 268.203 772.62 266.593 774.36 265.419C776.143 264.201 778.297 263.592 780.82 263.592C782.604 263.592 784.127 263.896 785.388 264.505C786.65 265.114 787.65 265.854 788.39 266.724C789.13 267.594 789.673 268.421 790.021 269.204C790.413 269.943 790.674 270.465 790.805 270.77H790.935V253.346H794.002V290.086H791.522L791 283.691H790.87C790.739 283.908 790.457 284.409 790.021 285.192C789.63 285.931 789.043 286.736 788.26 287.606C787.476 288.476 786.454 289.216 785.192 289.825C783.974 290.434 782.495 290.739 780.755 290.739ZM781.147 287.932C782.93 287.932 784.54 287.519 785.976 286.693C787.455 285.866 788.629 284.648 789.499 283.038C790.37 281.385 790.805 279.427 790.805 277.165C790.805 274.903 790.391 272.989 789.565 271.422C788.782 269.813 787.694 268.595 786.302 267.768C784.91 266.898 783.344 266.463 781.603 266.463C779.428 266.463 777.623 266.985 776.187 268.029C774.751 269.03 773.664 270.357 772.924 272.01C772.228 273.619 771.88 275.338 771.88 277.165C771.88 278.949 772.185 280.689 772.794 282.386C773.446 284.039 774.447 285.387 775.795 286.432C777.188 287.432 778.971 287.932 781.147 287.932ZM843.378 253.346H846.314V290.086H840.833L819.689 254.717H819.559V290.086H816.622V253.346H821.778L843.247 288.716H843.378V253.346ZM864.412 290.739C861.671 290.739 859.366 290.173 857.495 289.042C855.668 287.867 854.297 286.258 853.384 284.213C852.47 282.168 852.013 279.841 852.013 277.23C852.013 274.577 852.47 272.227 853.384 270.183C854.297 268.094 855.668 266.485 857.495 265.354C859.366 264.179 861.671 263.592 864.412 263.592C868.415 263.592 871.46 264.853 873.548 267.377C875.68 269.856 876.746 273.141 876.746 277.23C876.746 279.754 876.311 282.059 875.441 284.148C874.571 286.192 873.222 287.802 871.395 288.977C869.568 290.151 867.24 290.739 864.412 290.739ZM864.412 288.063C866.849 288.063 868.741 287.519 870.09 286.432C871.438 285.344 872.374 283.974 872.896 282.32C873.461 280.624 873.744 278.905 873.744 277.165C873.744 275.381 873.461 273.663 872.896 272.01C872.374 270.313 871.438 268.921 870.09 267.833C868.741 266.746 866.849 266.202 864.412 266.202C862.02 266.202 860.127 266.746 858.735 267.833C857.343 268.921 856.364 270.313 855.798 272.01C855.276 273.663 855.015 275.381 855.015 277.165C855.015 278.905 855.276 280.624 855.798 282.32C856.364 283.974 857.343 285.344 858.735 286.432C860.127 287.519 862.02 288.063 864.412 288.063ZM901.23 263.592H904.232V264.44L893.791 290.086H889.484L879.043 264.505V263.592H881.979L891.637 287.671H891.768L901.23 263.592ZM919.54 290.739C916.712 290.739 914.363 290.064 912.492 288.716C910.665 287.367 909.294 285.648 908.381 283.56C907.467 281.429 907.032 279.232 907.076 276.969C907.076 274.62 907.554 272.423 908.511 270.378C909.468 268.334 910.86 266.702 912.688 265.484C914.558 264.222 916.821 263.592 919.474 263.592C921.693 263.592 923.651 264.092 925.347 265.093C927.088 266.05 928.48 267.42 929.524 269.204C930.568 270.944 931.155 273.032 931.286 275.468C931.329 275.686 931.351 275.947 931.351 276.251C931.351 276.556 931.351 276.839 931.351 277.1H909.947C909.947 280.45 910.773 283.125 912.427 285.126C914.123 287.128 916.494 288.128 919.54 288.128C921.758 288.128 923.673 287.541 925.282 286.366C926.935 285.192 927.958 283.604 928.349 281.603H931.286C930.981 283.386 930.285 284.974 929.198 286.366C928.11 287.715 926.74 288.781 925.086 289.564C923.433 290.347 921.584 290.739 919.54 290.739ZM910.143 275.142H928.284C928.241 274.316 928.045 273.402 927.697 272.401C927.392 271.357 926.892 270.357 926.196 269.4C925.5 268.442 924.586 267.659 923.455 267.05C922.367 266.441 921.041 266.137 919.474 266.137C918.039 266.137 916.777 266.398 915.689 266.92C914.602 267.398 913.666 268.051 912.883 268.877C912.144 269.704 911.535 270.661 911.056 271.749C910.621 272.793 910.317 273.924 910.143 275.142ZM936.788 290.086V263.592H939.398L939.724 270.639H939.855C939.942 270.248 940.138 269.682 940.442 268.943C940.79 268.16 941.291 267.377 941.943 266.593C942.639 265.767 943.509 265.071 944.553 264.505C945.641 263.896 947.011 263.592 948.665 263.592C950.361 263.592 951.753 263.94 952.841 264.636C953.929 265.332 954.755 266.224 955.321 267.311C955.93 268.355 956.365 269.465 956.626 270.639H956.756C956.887 270.248 957.126 269.682 957.474 268.943C957.866 268.16 958.41 267.355 959.106 266.528C959.845 265.702 960.781 265.006 961.912 264.44C963.043 263.874 964.435 263.592 966.088 263.592C967.785 263.592 969.177 263.94 970.265 264.636C971.396 265.332 972.266 266.224 972.875 267.311C973.527 268.355 973.984 269.487 974.245 270.705C974.55 271.923 974.724 273.097 974.767 274.229C974.854 275.36 974.898 276.273 974.898 276.969V290.086H971.961V276.969C971.961 276.186 971.918 275.207 971.831 274.033C971.787 272.858 971.548 271.683 971.113 270.509C970.721 269.334 970.069 268.355 969.155 267.572C968.242 266.746 966.958 266.332 965.305 266.332C963.478 266.332 961.977 266.854 960.802 267.899C959.628 268.943 958.736 270.313 958.127 272.01C957.561 273.706 957.278 275.555 957.278 277.557V290.086H954.407V276.969C954.407 276.186 954.364 275.207 954.277 274.033C954.19 272.858 953.95 271.683 953.559 270.509C953.167 269.334 952.515 268.355 951.601 267.572C950.688 266.746 949.404 266.332 947.751 266.332C945.924 266.332 944.401 266.854 943.183 267.899C942.008 268.943 941.138 270.313 940.573 272.01C940.007 273.706 939.724 275.555 939.724 277.557V290.086H936.788ZM994.084 290.739C992.344 290.739 990.865 290.434 989.647 289.825C988.429 289.216 987.406 288.476 986.58 287.606C985.797 286.736 985.188 285.931 984.753 285.192C984.361 284.409 984.122 283.908 984.035 283.691H983.904L983.382 290.086H980.837V253.346H983.97V270.77H984.1C984.187 270.465 984.405 269.943 984.753 269.204C985.144 268.421 985.71 267.594 986.449 266.724C987.232 265.854 988.233 265.114 989.451 264.505C990.713 263.896 992.257 263.592 994.084 263.592C996.608 263.592 998.739 264.201 1000.48 265.419C1002.26 266.593 1003.61 268.225 1004.53 270.313C1005.48 272.358 1005.96 274.642 1005.96 277.165C1005.96 279.732 1005.48 282.038 1004.53 284.082C1003.61 286.127 1002.26 287.758 1000.48 288.977C998.739 290.151 996.608 290.739 994.084 290.739ZM993.693 287.932C995.868 287.932 997.63 287.432 998.979 286.432C1000.37 285.387 1001.37 284.039 1001.98 282.386C1002.63 280.689 1002.96 278.949 1002.96 277.165C1002.96 275.338 1002.61 273.619 1001.92 272.01C1001.22 270.357 1000.15 269.03 998.718 268.029C997.282 266.985 995.477 266.463 993.301 266.463C991.561 266.463 989.995 266.898 988.603 267.768C987.211 268.595 986.101 269.813 985.275 271.422C984.448 272.989 984.035 274.903 984.035 277.165C984.035 279.427 984.47 281.385 985.34 283.038C986.21 284.648 987.363 285.866 988.799 286.693C990.278 287.519 991.909 287.932 993.693 287.932ZM1022.46 290.739C1019.63 290.739 1017.28 290.064 1015.41 288.716C1013.58 287.367 1012.21 285.648 1011.3 283.56C1010.39 281.429 1009.95 279.232 1010 276.969C1010 274.62 1010.47 272.423 1011.43 270.378C1012.39 268.334 1013.78 266.702 1015.61 265.484C1017.48 264.222 1019.74 263.592 1022.39 263.592C1024.61 263.592 1026.57 264.092 1028.27 265.093C1030.01 266.05 1031.4 267.42 1032.44 269.204C1033.49 270.944 1034.08 273.032 1034.21 275.468C1034.25 275.686 1034.27 275.947 1034.27 276.251C1034.27 276.556 1034.27 276.839 1034.27 277.1H1012.87C1012.87 280.45 1013.69 283.125 1015.35 285.126C1017.04 287.128 1019.41 288.128 1022.46 288.128C1024.68 288.128 1026.59 287.541 1028.2 286.366C1029.86 285.192 1030.88 283.604 1031.27 281.603H1034.21C1033.9 283.386 1033.21 284.974 1032.12 286.366C1031.03 287.715 1029.66 288.781 1028.01 289.564C1026.35 290.347 1024.5 290.739 1022.46 290.739ZM1013.06 275.142H1031.2C1031.16 274.316 1030.96 273.402 1030.62 272.401C1030.31 271.357 1029.81 270.357 1029.12 269.4C1028.42 268.442 1027.51 267.659 1026.37 267.05C1025.29 266.441 1023.96 266.137 1022.39 266.137C1020.96 266.137 1019.7 266.398 1018.61 266.92C1017.52 267.398 1016.59 268.051 1015.8 268.877C1015.06 269.704 1014.45 270.661 1013.98 271.749C1013.54 272.793 1013.24 273.924 1013.06 275.142ZM1040.56 290.086V263.592H1043.1L1043.56 271.227L1043.49 276.904V290.086H1040.56ZM1043.49 277.296L1043.3 271.553C1043.38 270.509 1043.64 269.508 1044.08 268.551C1044.56 267.594 1045.21 266.746 1046.04 266.006C1046.91 265.267 1047.93 264.679 1049.1 264.244C1050.32 263.809 1051.74 263.592 1053.35 263.592H1054.78V266.92H1053.35C1051.13 266.92 1049.34 267.203 1048 267.768C1046.69 268.29 1045.71 269.03 1045.06 269.987C1044.41 270.9 1043.97 271.988 1043.75 273.25C1043.58 274.511 1043.49 275.86 1043.49 277.296Z" fill="#33AAFF"/>
<defs>
<filter id="filter0_d_3146_3426" x="514.47" y="132.288" width="669.075" height="76.6962" filterUnits="userSpaceOnUse" color-interpolation-filters="sRGB">
<feFlood flood-opacity="0" result="BackgroundImageFix"/>
<feColorMatrix in="SourceAlpha" type="matrix" values="0 0 0 0 0 0 0 0 0 0 0 0 0 0 0 0 0 0 127 0" result="hardAlpha"/>
<feOffset dy="4.07856"/>
<feGaussianBlur stdDeviation="2.03928"/>
<feComposite in2="hardAlpha" operator="out"/>
<feColorMatrix type="matrix" values="0 0 0 0 0 0 0 0 0 0 0 0 0 0 0 0 0 0 0.25 0"/>
<feBlend mode="normal" in2="BackgroundImageFix" result="effect1_dropShadow_3146_3426"/>
<feBlend mode="normal" in="SourceGraphic" in2="effect1_dropShadow_3146_3426" result="shape"/>
</filter>
</defs>
</svg>
