<svg width="410" height="513" viewBox="0 0 410 513" fill="none" xmlns="http://www.w3.org/2000/svg">
<g filter="url(#filter0_i_3146_3414)">
<path d="M2.42928 190.836L2.17296 188.496C2.17296 188.496 63.3285 234.792 65.6643 237.918C68 241.045 72.6461 249.432 72.6461 249.432L69.4717 253.219L2.42928 190.836Z" fill="#ECECEC"/>
</g>
<path d="M73.3184 251.422L82.9698 247.053V257.429L73.3184 261.388V251.422Z" fill="#909090"/>
<path d="M79.9121 247.099L108.229 257.975V268.624L79.9121 257.429V247.099Z" fill="#E0E0E0"/>
<path d="M82.9698 257.383L111.401 268.692L100.634 272.673L73.3184 261.388L82.9698 257.383Z" fill="#9EA8A7"/>
<g filter="url(#filter1_i_3146_3414)">
<path d="M88.1133 262.619C91.2141 262.619 93.7031 263.644 93.7031 264.963C93.7031 265.031 93.6945 265.097 93.6826 265.163L97.1338 511.718L79.708 512.329L82.8213 265.213C82.8013 265.131 82.791 265.048 82.791 264.963C82.791 263.643 85.0124 262.619 88.1133 262.619Z" fill="#E0E0E0"/>
</g>
<g filter="url(#filter2_i_3146_3414)">
<path d="M78.1302 249.329L162.785 159.522L162.785 163.344L126.023 210.421C126.023 210.421 104.847 238.316 100.415 242.344C95.9825 246.371 89.4841 244.799 84.367 249.329C82.7094 250.797 80.5201 253.493 80.5201 253.493L78.1302 249.329Z" fill="#ECECEC"/>
</g>
<g filter="url(#filter3_i_3146_3414)">
<path d="M73.3163 260.228H77.3358L75.0876 381.092L73.3845 378.433C73.3845 378.433 67.7755 277.667 67.7754 273.913C67.7753 270.16 73.3163 260.228 73.3163 260.228Z" fill="#ECECEC"/>
</g>
<path d="M81.744 253.628C81.744 258.026 80.0042 260.955 75.7801 260.955C71.5561 260.955 69.0195 258.026 69.0195 253.628C69.0195 249.23 71.5561 247.03 75.7801 247.03C80.0042 247.03 81.744 249.23 81.744 253.628Z" fill="#353F3B"/>
<g filter="url(#filter4_i_3146_3414)">
<path d="M76.6413 253.198C76.6413 255.896 75.1969 257.36 72.5865 257.36C69.9762 257.36 68.4922 255.306 68.4922 252.609C68.4922 249.911 70.3988 249.169 73.0091 249.169C75.6195 249.169 76.6413 250.5 76.6413 253.198Z" fill="#BABABA"/>
</g>
<g filter="url(#filter5_i_3146_3414)">
<path d="M118.289 41.5169L117.953 38.448C117.953 38.448 198.145 99.1542 201.207 103.254C204.27 107.353 210.363 118.352 210.363 118.352L206.2 123.317L118.289 41.5169Z" fill="#ECECEC"/>
</g>
<path d="M208.186 120.959L220.841 115.231V128.836L208.186 134.027V120.959Z" fill="#909090"/>
<path d="M220.842 115.292L257.973 129.553V143.516L220.842 128.837V115.292Z" fill="#E0E0E0"/>
<path d="M220.841 128.774L258.122 143.603L244.003 148.824L208.186 134.025L220.841 128.774Z" fill="#9EA8A7"/>
<g filter="url(#filter6_i_3146_3414)">
<path d="M231.596 135.641C235.662 135.641 238.925 136.984 238.926 138.714C238.926 138.801 238.916 138.886 238.901 138.969L243.426 462.276L220.575 463.078L224.657 139.045C224.631 138.938 224.617 138.827 224.617 138.714C224.618 136.984 227.53 135.641 231.596 135.641Z" fill="#E0E0E0"/>
</g>
<g filter="url(#filter7_i_3146_3414)">
<path d="M214.492 118.217L325.497 0.456626L325.497 5.46894L277.292 67.1982C277.292 67.1982 249.525 103.776 243.713 109.057C237.901 114.338 229.38 112.277 222.67 118.217C220.496 120.141 217.626 123.676 217.626 123.676L214.492 118.217Z" fill="#ECECEC"/>
</g>
<g filter="url(#filter8_i_3146_3414)">
<path d="M208.181 132.507H213.451L210.503 290.992L208.27 287.506C208.27 287.506 200.915 155.375 200.915 150.453C200.915 145.531 208.181 132.507 208.181 132.507Z" fill="#ECECEC"/>
</g>
<path d="M219.23 123.852C219.23 129.62 216.949 133.459 211.41 133.459C205.871 133.459 202.545 129.62 202.545 123.852C202.545 118.085 205.871 115.2 211.41 115.2C216.949 115.2 219.23 118.085 219.23 123.852Z" fill="#353F3B"/>
<g filter="url(#filter9_i_3146_3414)">
<path d="M212.541 123.29C212.541 126.827 210.647 128.748 207.224 128.748C203.801 128.748 201.855 126.055 201.855 122.517C201.855 118.98 204.355 118.007 207.778 118.007C211.201 118.007 212.541 119.753 212.541 123.29Z" fill="#BABABA"/>
</g>
<g filter="url(#filter10_i_3146_3414)">
<path d="M290.406 165.573L290.223 163.902C290.223 163.902 333.904 196.969 335.573 199.202C337.241 201.435 340.56 207.426 340.56 207.426L338.292 210.131L290.406 165.573Z" fill="#ECECEC"/>
</g>
<path d="M337.978 208.847L344.871 205.727V213.138L337.978 215.966V208.847Z" fill="#909090"/>
<path d="M344.874 205.76L365.1 213.529V221.134L344.874 213.138V205.76Z" fill="#E0E0E0"/>
<path d="M344.871 213.105L365.178 221.183L357.488 224.027L337.978 215.966L344.871 213.105Z" fill="#9EA8A7"/>
<g filter="url(#filter11_i_3146_3414)">
<path d="M350.732 216.844C352.947 216.844 354.725 217.576 354.725 218.518C354.725 218.563 354.719 218.608 354.712 218.652L357.177 394.764L344.729 395.201L346.953 218.698C346.939 218.639 346.931 218.579 346.931 218.518C346.931 217.576 348.518 216.844 350.732 216.844Z" fill="#E0E0E0"/>
</g>
<g filter="url(#filter12_i_3146_3414)">
<path d="M341.415 207.352L401.881 143.207L401.881 145.937L375.623 179.562C375.623 179.562 360.498 199.486 357.332 202.363C354.166 205.239 349.525 204.116 345.87 207.352C344.686 208.4 343.122 210.326 343.122 210.326L341.415 207.352Z" fill="#ECECEC"/>
</g>
<g filter="url(#filter13_i_3146_3414)">
<path d="M337.98 215.136H340.851L339.245 301.465L338.029 299.566C338.029 299.566 334.023 227.593 334.022 224.911C334.022 222.23 337.98 215.136 337.98 215.136Z" fill="#ECECEC"/>
</g>
<path d="M343.995 210.423C343.995 213.564 342.752 215.656 339.735 215.656C336.718 215.656 334.906 213.564 334.906 210.423C334.906 207.281 336.718 205.71 339.735 205.71C342.752 205.71 343.995 207.281 343.995 210.423Z" fill="#353F3B"/>
<g filter="url(#filter14_i_3146_3414)">
<path d="M340.352 210.116C340.352 212.043 339.32 213.089 337.456 213.089C335.591 213.089 334.531 211.622 334.531 209.695C334.531 207.769 335.893 207.238 337.758 207.238C339.622 207.238 340.352 208.189 340.352 210.116Z" fill="#BABABA"/>
</g>
<defs>
<filter id="filter0_i_3146_3414" x="2.17285" y="187.273" width="70.4736" height="65.9463" filterUnits="userSpaceOnUse" color-interpolation-filters="sRGB">
<feFlood flood-opacity="0" result="BackgroundImageFix"/>
<feBlend mode="normal" in="SourceGraphic" in2="BackgroundImageFix" result="shape"/>
<feColorMatrix in="SourceAlpha" type="matrix" values="0 0 0 0 0 0 0 0 0 0 0 0 0 0 0 0 0 0 127 0" result="hardAlpha"/>
<feOffset dy="-5.80748"/>
<feGaussianBlur stdDeviation="0.611314"/>
<feComposite in2="hardAlpha" operator="arithmetic" k2="-1" k3="1"/>
<feColorMatrix type="matrix" values="0 0 0 0 0 0 0 0 0 0 0 0 0 0 0 0 0 0 0.25 0"/>
<feBlend mode="normal" in2="shape" result="effect1_innerShadow_3146_3414"/>
</filter>
<filter id="filter1_i_3146_3414" x="78.4854" y="262.619" width="18.6484" height="250.933" filterUnits="userSpaceOnUse" color-interpolation-filters="sRGB">
<feFlood flood-opacity="0" result="BackgroundImageFix"/>
<feBlend mode="normal" in="SourceGraphic" in2="BackgroundImageFix" result="shape"/>
<feColorMatrix in="SourceAlpha" type="matrix" values="0 0 0 0 0 0 0 0 0 0 0 0 0 0 0 0 0 0 127 0" result="hardAlpha"/>
<feOffset dx="-7.49919" dy="19.8012"/>
<feGaussianBlur stdDeviation="0.611314"/>
<feComposite in2="hardAlpha" operator="arithmetic" k2="-1" k3="1"/>
<feColorMatrix type="matrix" values="0 0 0 0 0 0 0 0 0 0 0 0 0 0 0 0 0 0 0.2 0"/>
<feBlend mode="normal" in2="shape" result="effect1_innerShadow_3146_3414"/>
</filter>
<filter id="filter2_i_3146_3414" x="78.1299" y="159.522" width="84.6553" height="95.1933" filterUnits="userSpaceOnUse" color-interpolation-filters="sRGB">
<feFlood flood-opacity="0" result="BackgroundImageFix"/>
<feBlend mode="normal" in="SourceGraphic" in2="BackgroundImageFix" result="shape"/>
<feColorMatrix in="SourceAlpha" type="matrix" values="0 0 0 0 0 0 0 0 0 0 0 0 0 0 0 0 0 0 127 0" result="hardAlpha"/>
<feOffset dy="2.1396"/>
<feGaussianBlur stdDeviation="0.611314"/>
<feComposite in2="hardAlpha" operator="arithmetic" k2="-1" k3="1"/>
<feColorMatrix type="matrix" values="0 0 0 0 0 0 0 0 0 0 0 0 0 0 0 0 0 0 0.25 0"/>
<feBlend mode="normal" in2="shape" result="effect1_innerShadow_3146_3414"/>
</filter>
<filter id="filter3_i_3146_3414" x="66.5528" y="260.228" width="10.7832" height="122.087" filterUnits="userSpaceOnUse" color-interpolation-filters="sRGB">
<feFlood flood-opacity="0" result="BackgroundImageFix"/>
<feBlend mode="normal" in="SourceGraphic" in2="BackgroundImageFix" result="shape"/>
<feColorMatrix in="SourceAlpha" type="matrix" values="0 0 0 0 0 0 0 0 0 0 0 0 0 0 0 0 0 0 127 0" result="hardAlpha"/>
<feOffset dx="-8.25274" dy="24.4526"/>
<feGaussianBlur stdDeviation="0.611314"/>
<feComposite in2="hardAlpha" operator="arithmetic" k2="-1" k3="1"/>
<feColorMatrix type="matrix" values="0 0 0 0 0 0 0 0 0 0 0 0 0 0 0 0 0 0 0.25 0"/>
<feBlend mode="normal" in2="shape" result="effect1_innerShadow_3146_3414"/>
</filter>
<filter id="filter4_i_3146_3414" x="68.4922" y="249.169" width="8.14941" height="8.19092" filterUnits="userSpaceOnUse" color-interpolation-filters="sRGB">
<feFlood flood-opacity="0" result="BackgroundImageFix"/>
<feBlend mode="normal" in="SourceGraphic" in2="BackgroundImageFix" result="shape"/>
<feColorMatrix in="SourceAlpha" type="matrix" values="0 0 0 0 0 0 0 0 0 0 0 0 0 0 0 0 0 0 127 0" result="hardAlpha"/>
<feOffset dx="-6.4188" dy="7.64142"/>
<feComposite in2="hardAlpha" operator="arithmetic" k2="-1" k3="1"/>
<feColorMatrix type="matrix" values="0 0 0 0 0 0 0 0 0 0 0 0 0 0 0 0 0 0 0.25 0"/>
<feBlend mode="normal" in2="shape" result="effect1_innerShadow_3146_3414"/>
</filter>
<filter id="filter5_i_3146_3414" x="117.953" y="36.8446" width="92.4092" height="86.4728" filterUnits="userSpaceOnUse" color-interpolation-filters="sRGB">
<feFlood flood-opacity="0" result="BackgroundImageFix"/>
<feBlend mode="normal" in="SourceGraphic" in2="BackgroundImageFix" result="shape"/>
<feColorMatrix in="SourceAlpha" type="matrix" values="0 0 0 0 0 0 0 0 0 0 0 0 0 0 0 0 0 0 127 0" result="hardAlpha"/>
<feOffset dy="-7.61515"/>
<feGaussianBlur stdDeviation="0.801594"/>
<feComposite in2="hardAlpha" operator="arithmetic" k2="-1" k3="1"/>
<feColorMatrix type="matrix" values="0 0 0 0 0 0 0 0 0 0 0 0 0 0 0 0 0 0 0.25 0"/>
<feBlend mode="normal" in2="shape" result="effect1_innerShadow_3146_3414"/>
</filter>
<filter id="filter6_i_3146_3414" x="218.972" y="135.641" width="24.4538" height="329.04" filterUnits="userSpaceOnUse" color-interpolation-filters="sRGB">
<feFlood flood-opacity="0" result="BackgroundImageFix"/>
<feBlend mode="normal" in="SourceGraphic" in2="BackgroundImageFix" result="shape"/>
<feColorMatrix in="SourceAlpha" type="matrix" values="0 0 0 0 0 0 0 0 0 0 0 0 0 0 0 0 0 0 127 0" result="hardAlpha"/>
<feOffset dx="-9.83343" dy="25.9647"/>
<feGaussianBlur stdDeviation="0.801594"/>
<feComposite in2="hardAlpha" operator="arithmetic" k2="-1" k3="1"/>
<feColorMatrix type="matrix" values="0 0 0 0 0 0 0 0 0 0 0 0 0 0 0 0 0 0 0.2 0"/>
<feBlend mode="normal" in2="shape" result="effect1_innerShadow_3146_3414"/>
</filter>
<filter id="filter7_i_3146_3414" x="214.492" y="0.456543" width="111.005" height="124.823" filterUnits="userSpaceOnUse" color-interpolation-filters="sRGB">
<feFlood flood-opacity="0" result="BackgroundImageFix"/>
<feBlend mode="normal" in="SourceGraphic" in2="BackgroundImageFix" result="shape"/>
<feColorMatrix in="SourceAlpha" type="matrix" values="0 0 0 0 0 0 0 0 0 0 0 0 0 0 0 0 0 0 127 0" result="hardAlpha"/>
<feOffset dy="2.80558"/>
<feGaussianBlur stdDeviation="0.801594"/>
<feComposite in2="hardAlpha" operator="arithmetic" k2="-1" k3="1"/>
<feColorMatrix type="matrix" values="0 0 0 0 0 0 0 0 0 0 0 0 0 0 0 0 0 0 0.25 0"/>
<feBlend mode="normal" in2="shape" result="effect1_innerShadow_3146_3414"/>
</filter>
<filter id="filter8_i_3146_3414" x="199.312" y="132.507" width="14.1393" height="160.088" filterUnits="userSpaceOnUse" color-interpolation-filters="sRGB">
<feFlood flood-opacity="0" result="BackgroundImageFix"/>
<feBlend mode="normal" in="SourceGraphic" in2="BackgroundImageFix" result="shape"/>
<feColorMatrix in="SourceAlpha" type="matrix" values="0 0 0 0 0 0 0 0 0 0 0 0 0 0 0 0 0 0 127 0" result="hardAlpha"/>
<feOffset dx="-10.8215" dy="32.0638"/>
<feGaussianBlur stdDeviation="0.801594"/>
<feComposite in2="hardAlpha" operator="arithmetic" k2="-1" k3="1"/>
<feColorMatrix type="matrix" values="0 0 0 0 0 0 0 0 0 0 0 0 0 0 0 0 0 0 0.25 0"/>
<feBlend mode="normal" in2="shape" result="effect1_innerShadow_3146_3414"/>
</filter>
<filter id="filter9_i_3146_3414" x="201.855" y="118.007" width="10.6855" height="10.7407" filterUnits="userSpaceOnUse" color-interpolation-filters="sRGB">
<feFlood flood-opacity="0" result="BackgroundImageFix"/>
<feBlend mode="normal" in="SourceGraphic" in2="BackgroundImageFix" result="shape"/>
<feColorMatrix in="SourceAlpha" type="matrix" values="0 0 0 0 0 0 0 0 0 0 0 0 0 0 0 0 0 0 127 0" result="hardAlpha"/>
<feOffset dx="-8.41674" dy="10.0199"/>
<feComposite in2="hardAlpha" operator="arithmetic" k2="-1" k3="1"/>
<feColorMatrix type="matrix" values="0 0 0 0 0 0 0 0 0 0 0 0 0 0 0 0 0 0 0.25 0"/>
<feBlend mode="normal" in2="shape" result="effect1_innerShadow_3146_3414"/>
</filter>
<filter id="filter10_i_3146_3414" x="290.223" y="163.029" width="50.3369" height="47.1023" filterUnits="userSpaceOnUse" color-interpolation-filters="sRGB">
<feFlood flood-opacity="0" result="BackgroundImageFix"/>
<feBlend mode="normal" in="SourceGraphic" in2="BackgroundImageFix" result="shape"/>
<feColorMatrix in="SourceAlpha" type="matrix" values="0 0 0 0 0 0 0 0 0 0 0 0 0 0 0 0 0 0 127 0" result="hardAlpha"/>
<feOffset dy="-4.14806"/>
<feGaussianBlur stdDeviation="0.436638"/>
<feComposite in2="hardAlpha" operator="arithmetic" k2="-1" k3="1"/>
<feColorMatrix type="matrix" values="0 0 0 0 0 0 0 0 0 0 0 0 0 0 0 0 0 0 0.25 0"/>
<feBlend mode="normal" in2="shape" result="effect1_innerShadow_3146_3414"/>
</filter>
<filter id="filter11_i_3146_3414" x="343.856" y="216.844" width="13.3205" height="179.23" filterUnits="userSpaceOnUse" color-interpolation-filters="sRGB">
<feFlood flood-opacity="0" result="BackgroundImageFix"/>
<feBlend mode="normal" in="SourceGraphic" in2="BackgroundImageFix" result="shape"/>
<feColorMatrix in="SourceAlpha" type="matrix" values="0 0 0 0 0 0 0 0 0 0 0 0 0 0 0 0 0 0 127 0" result="hardAlpha"/>
<feOffset dx="-5.35638" dy="14.1433"/>
<feGaussianBlur stdDeviation="0.436638"/>
<feComposite in2="hardAlpha" operator="arithmetic" k2="-1" k3="1"/>
<feColorMatrix type="matrix" values="0 0 0 0 0 0 0 0 0 0 0 0 0 0 0 0 0 0 0.2 0"/>
<feBlend mode="normal" in2="shape" result="effect1_innerShadow_3146_3414"/>
</filter>
<filter id="filter12_i_3146_3414" x="341.415" y="143.207" width="60.4658" height="67.9919" filterUnits="userSpaceOnUse" color-interpolation-filters="sRGB">
<feFlood flood-opacity="0" result="BackgroundImageFix"/>
<feBlend mode="normal" in="SourceGraphic" in2="BackgroundImageFix" result="shape"/>
<feColorMatrix in="SourceAlpha" type="matrix" values="0 0 0 0 0 0 0 0 0 0 0 0 0 0 0 0 0 0 127 0" result="hardAlpha"/>
<feOffset dy="1.52823"/>
<feGaussianBlur stdDeviation="0.436638"/>
<feComposite in2="hardAlpha" operator="arithmetic" k2="-1" k3="1"/>
<feColorMatrix type="matrix" values="0 0 0 0 0 0 0 0 0 0 0 0 0 0 0 0 0 0 0.25 0"/>
<feBlend mode="normal" in2="shape" result="effect1_innerShadow_3146_3414"/>
</filter>
<filter id="filter13_i_3146_3414" x="333.149" y="215.136" width="7.70238" height="87.2019" filterUnits="userSpaceOnUse" color-interpolation-filters="sRGB">
<feFlood flood-opacity="0" result="BackgroundImageFix"/>
<feBlend mode="normal" in="SourceGraphic" in2="BackgroundImageFix" result="shape"/>
<feColorMatrix in="SourceAlpha" type="matrix" values="0 0 0 0 0 0 0 0 0 0 0 0 0 0 0 0 0 0 127 0" result="hardAlpha"/>
<feOffset dx="-5.89461" dy="17.4655"/>
<feGaussianBlur stdDeviation="0.436638"/>
<feComposite in2="hardAlpha" operator="arithmetic" k2="-1" k3="1"/>
<feColorMatrix type="matrix" values="0 0 0 0 0 0 0 0 0 0 0 0 0 0 0 0 0 0 0.25 0"/>
<feBlend mode="normal" in2="shape" result="effect1_innerShadow_3146_3414"/>
</filter>
<filter id="filter14_i_3146_3414" x="334.531" y="207.238" width="5.82031" height="5.85059" filterUnits="userSpaceOnUse" color-interpolation-filters="sRGB">
<feFlood flood-opacity="0" result="BackgroundImageFix"/>
<feBlend mode="normal" in="SourceGraphic" in2="BackgroundImageFix" result="shape"/>
<feColorMatrix in="SourceAlpha" type="matrix" values="0 0 0 0 0 0 0 0 0 0 0 0 0 0 0 0 0 0 127 0" result="hardAlpha"/>
<feOffset dx="-4.5847" dy="5.45797"/>
<feComposite in2="hardAlpha" operator="arithmetic" k2="-1" k3="1"/>
<feColorMatrix type="matrix" values="0 0 0 0 0 0 0 0 0 0 0 0 0 0 0 0 0 0 0.25 0"/>
<feBlend mode="normal" in2="shape" result="effect1_innerShadow_3146_3414"/>
</filter>
</defs>
</svg>
