<svg width="173" height="354" viewBox="0 0 173 354" fill="none" xmlns="http://www.w3.org/2000/svg">
  <g filter="url(#filter0_i_1732_910)">
    <path d="M2.05331 32.8936L1.79699 30.5531C1.79699 30.5531 62.9525 76.8494 65.2883 79.9758C67.6241 83.1021 72.2702 91.49 72.2702 91.49L69.0958 95.2768L2.05331 32.8936Z" fill="#ECECEC"/>
  </g>
  <path d="M72.8145 92.4438L82.4659 88.0752V98.4506L72.8145 102.41V92.4438Z" fill="#909090"/>
  <path d="M79.4082 88.1206L107.725 98.9966V109.645L79.4082 98.4505V88.1206Z" fill="#E0E0E0"/>
  <path d="M82.4659 98.4053L110.897 109.714L100.13 113.695L72.8145 102.41L82.4659 98.4053Z" fill="#9EA8A7"/>
  <g filter="url(#filter1_i_1732_910)">
    <path d="M87.6094 103.641C90.7102 103.641 93.1992 104.665 93.1992 105.984C93.1992 106.052 93.1906 106.119 93.1787 106.185L96.6299 352.739L79.2041 353.351L82.3174 106.234C82.2974 106.153 82.2871 106.07 82.2871 105.984C82.2871 104.665 84.5085 103.641 87.6094 103.641Z" fill="#E0E0E0"/>
  </g>
  <g filter="url(#filter2_i_1732_910)">
    <path d="M77.6263 90.3512L162.281 0.543891L162.281 4.36641L125.519 51.4428C125.519 51.4428 104.343 79.3383 99.9109 83.3656C95.4786 87.3929 88.9802 85.821 83.8631 90.3512C82.2055 91.8187 80.0162 94.5147 80.0162 94.5147L77.6263 90.3512Z" fill="#ECECEC"/>
  </g>
  <g filter="url(#filter3_i_1732_910)">
    <path d="M72.8124 101.249H76.8319L74.5837 222.114L72.8806 219.455C72.8806 219.455 67.2716 118.689 67.2715 114.935C67.2714 111.181 72.8124 101.249 72.8124 101.249Z" fill="#ECECEC"/>
  </g>
  <path d="M81.2401 94.6497C81.2401 99.0479 79.5002 101.976 75.2762 101.976C71.0521 101.976 68.5156 99.0479 68.5156 94.6497C68.5156 90.2515 71.0521 88.0513 75.2762 88.0513C79.5002 88.0513 81.2401 90.2515 81.2401 94.6497Z" fill="#353F3B"/>
  <g filter="url(#filter4_i_1732_910)">
    <path d="M76.1374 94.2195C76.1374 96.917 74.693 98.3816 72.0826 98.3816C69.4722 98.3816 67.9883 96.3278 67.9883 93.6303C67.9883 90.9328 69.8949 90.1904 72.5052 90.1904C75.1156 90.1904 76.1374 91.522 76.1374 94.2195Z" fill="#BABABA"/>
  </g>
  <defs>
    <filter id="filter0_i_1732_910" x="1.79688" y="29.3306" width="70.4736" height="65.9463" filterUnits="userSpaceOnUse" color-interpolation-filters="sRGB">
      <feFlood flood-opacity="0" result="BackgroundImageFix"/>
      <feBlend mode="normal" in="SourceGraphic" in2="BackgroundImageFix" result="shape"/>
      <feColorMatrix in="SourceAlpha" type="matrix" values="0 0 0 0 0 0 0 0 0 0 0 0 0 0 0 0 0 0 127 0" result="hardAlpha"/>
      <feOffset dy="-5.80748"/>
      <feGaussianBlur stdDeviation="0.611314"/>
      <feComposite in2="hardAlpha" operator="arithmetic" k2="-1" k3="1"/>
      <feColorMatrix type="matrix" values="0 0 0 0 0 0 0 0 0 0 0 0 0 0 0 0 0 0 0.25 0"/>
      <feBlend mode="normal" in2="shape" result="effect1_innerShadow_1732_910"/>
    </filter>
    <filter id="filter1_i_1732_910" x="77.9815" y="103.641" width="18.6484" height="250.933" filterUnits="userSpaceOnUse" color-interpolation-filters="sRGB">
      <feFlood flood-opacity="0" result="BackgroundImageFix"/>
      <feBlend mode="normal" in="SourceGraphic" in2="BackgroundImageFix" result="shape"/>
      <feColorMatrix in="SourceAlpha" type="matrix" values="0 0 0 0 0 0 0 0 0 0 0 0 0 0 0 0 0 0 127 0" result="hardAlpha"/>
      <feOffset dx="-7.49919" dy="19.8012"/>
      <feGaussianBlur stdDeviation="0.611314"/>
      <feComposite in2="hardAlpha" operator="arithmetic" k2="-1" k3="1"/>
      <feColorMatrix type="matrix" values="0 0 0 0 0 0 0 0 0 0 0 0 0 0 0 0 0 0 0.2 0"/>
      <feBlend mode="normal" in2="shape" result="effect1_innerShadow_1732_910"/>
    </filter>
    <filter id="filter2_i_1732_910" x="77.626" y="0.543945" width="84.6553" height="95.1933" filterUnits="userSpaceOnUse" color-interpolation-filters="sRGB">
      <feFlood flood-opacity="0" result="BackgroundImageFix"/>
      <feBlend mode="normal" in="SourceGraphic" in2="BackgroundImageFix" result="shape"/>
      <feColorMatrix in="SourceAlpha" type="matrix" values="0 0 0 0 0 0 0 0 0 0 0 0 0 0 0 0 0 0 127 0" result="hardAlpha"/>
      <feOffset dy="2.1396"/>
      <feGaussianBlur stdDeviation="0.611314"/>
      <feComposite in2="hardAlpha" operator="arithmetic" k2="-1" k3="1"/>
      <feColorMatrix type="matrix" values="0 0 0 0 0 0 0 0 0 0 0 0 0 0 0 0 0 0 0.25 0"/>
      <feBlend mode="normal" in2="shape" result="effect1_innerShadow_1732_910"/>
    </filter>
    <filter id="filter3_i_1732_910" x="66.0489" y="101.249" width="10.7832" height="122.087" filterUnits="userSpaceOnUse" color-interpolation-filters="sRGB">
      <feFlood flood-opacity="0" result="BackgroundImageFix"/>
      <feBlend mode="normal" in="SourceGraphic" in2="BackgroundImageFix" result="shape"/>
      <feColorMatrix in="SourceAlpha" type="matrix" values="0 0 0 0 0 0 0 0 0 0 0 0 0 0 0 0 0 0 127 0" result="hardAlpha"/>
      <feOffset dx="-8.25274" dy="24.4526"/>
      <feGaussianBlur stdDeviation="0.611314"/>
      <feComposite in2="hardAlpha" operator="arithmetic" k2="-1" k3="1"/>
      <feColorMatrix type="matrix" values="0 0 0 0 0 0 0 0 0 0 0 0 0 0 0 0 0 0 0.25 0"/>
      <feBlend mode="normal" in2="shape" result="effect1_innerShadow_1732_910"/>
    </filter>
    <filter id="filter4_i_1732_910" x="67.9883" y="90.1904" width="8.14941" height="8.19092" filterUnits="userSpaceOnUse" color-interpolation-filters="sRGB">
      <feFlood flood-opacity="0" result="BackgroundImageFix"/>
      <feBlend mode="normal" in="SourceGraphic" in2="BackgroundImageFix" result="shape"/>
      <feColorMatrix in="SourceAlpha" type="matrix" values="0 0 0 0 0 0 0 0 0 0 0 0 0 0 0 0 0 0 127 0" result="hardAlpha"/>
      <feOffset dx="-6.4188" dy="7.64142"/>
      <feComposite in2="hardAlpha" operator="arithmetic" k2="-1" k3="1"/>
      <feColorMatrix type="matrix" values="0 0 0 0 0 0 0 0 0 0 0 0 0 0 0 0 0 0 0.25 0"/>
      <feBlend mode="normal" in2="shape" result="effect1_innerShadow_1732_910"/>
    </filter>
  </defs>
</svg>
