<svg width="408" height="1078" viewBox="0 0 408 1078" fill="none" xmlns="http://www.w3.org/2000/svg">
  <g filter="url(#filter0_d_1732_137)">
    <path d="M135.441 795.942C129.093 810.705 122.196 821.34 113.611 838.756C104.91 856.155 104.259 859.304 93.3651 878.621C82.3286 898.07 71.3762 917.452 65.8384 925.802C60.2622 934.197 60.7809 935.471 52.9818 947.375C45.1753 959.215 40.6774 966.366 34.1022 976.929C27.75 987.329 6.27823 1019.02 -2.07015 1029.8C-10.4775 1040.85 -19.0891 1053.89 -24.631 1061.67C-26.3539 1064.09 -27.6955 1066.02 -28.7102 1067.51C-29.1399 1068.14 -29.2956 1068.47 -29.24 1068.51C-29.24 1068.51 -29.2399 1068.51 -29.2399 1068.51C-29.1706 1068.56 -28.7745 1068.17 -28.1789 1067.39C-25.2878 1063.6 -20.951 1057.99 -15.8241 1051.51C-6.35491 1039.5 -5.62725 1037.46 6.56354 1020.75C18.9218 1003.66 26.5323 993.684 39.7568 972.984C52.9177 952.084 57.4315 948.35 74.7234 918.071C91.6595 887.659 94.9262 885.394 111.515 854.867C128.035 824.383 145.35 784.027 153.242 764.712C161.33 745.422 171.569 719.207 180.381 690.896C189.28 662.642 199.298 627.345 205.559 595.218C212.117 563.128 218.362 517.318 220.398 496.07C222.525 474.821 222.951 469.655 224.994 449.205C226.141 437.473 227.251 421.241 227.67 407.494C227.881 400.544 227.483 402.105 226.897 409.065C226.033 419.223 225.565 427.502 224.779 432.732C223.201 443.1 222.555 447.507 221.777 460.696C220.971 473.855 219.273 479.996 218.537 487.609C217.67 495.288 218.758 495.272 212.693 533.953C206.314 572.567 201.484 593.456 198.199 607.892C194.931 622.322 187.931 652.454 180.646 675.467C173.802 698.587 157.14 744.841 149.025 762.846C141.137 780.882 141.629 781.28 135.441 795.942Z" fill="url(#paint0_linear_1732_137)"/>
  </g>
  <path d="M388.885 156.877C382.45 156.877 232.803 156.877 232.803 156.877V238.136C232.803 238.136 284.267 241.056 317.28 241.355C349.647 241.647 391.299 239.745 400.149 239.745C408.999 239.745 407.412 215.297 405.781 199.518C403.938 181.701 395.32 156.877 388.885 156.877Z" fill="url(#paint1_linear_1732_137)"/>
  <path d="M343.833 88.4902C339.81 88.4902 223.151 94.1221 223.151 94.1221V169.75C223.151 169.75 289.849 176.689 332.569 174.577C352.741 173.58 377.624 171.359 384.06 169.75C390.497 168.141 390.497 141.59 380.038 119.063C369.579 96.5357 347.856 88.4902 343.833 88.4902Z" fill="url(#paint2_linear_1732_137)"/>
  <path d="M402.564 239.746C398.542 239.746 207.059 239.746 207.059 239.746V302.501C207.059 302.501 259.053 301.434 292.341 302.501C326.328 303.59 359.12 304.915 373.601 308.133C388.083 311.351 391.301 329.856 391.301 329.856C391.301 329.856 399.378 317.142 402.564 308.133C407.321 294.685 407.625 286.19 407.392 271.928C407.184 259.221 406.587 239.746 402.564 239.746Z" fill="url(#paint3_linear_1732_137)"/>
  <path d="M390.495 330.66C389.171 321.761 387.276 316.983 380.037 310.546C372.798 304.109 277.86 301.696 277.86 301.696L175.68 296.869L145.107 407.897C145.107 407.897 230.389 431.229 284.294 417.551C338.199 403.874 349.194 395.024 359.922 386.979C370.649 378.933 374.372 373.761 380.84 363.647C388.071 352.339 392.47 343.937 390.495 330.66Z" fill="url(#paint4_linear_1732_137)"/>
  <g filter="url(#filter1_i_1732_137)">
    <path d="M52.6395 4.86289C40.5713 1.64416 19.9576 -3.67373 5.97569 8.08108C-0.42804 13.4648 -6.09254 19.3448 -6.09254 25.7812C-6.09254 32.2175 18.0439 111.858 18.0439 111.858C18.0439 111.858 59.4616 92.7348 88.0397 82.0895C123.494 68.8828 182.172 58.7678 182.172 58.7678C182.172 58.7678 144.159 41.6406 118.613 30.6084C93.2224 19.644 64.7077 8.08161 52.6395 4.86289Z" fill="url(#paint5_linear_1732_137)"/>
  </g>
  <path d="M245.732 240.535C245.732 251.199 270.672 256.626 291.591 255.821C303.143 255.821 310.9 245.567 310.9 234.903C310.9 224.239 307.166 210.767 295.613 210.767C269.063 211.571 245.732 221.226 245.732 240.535Z" fill="url(#paint6_linear_1732_137)"/>
  <path d="M306.074 193.869C302.856 209.96 284.866 229.269 296.419 229.269C315.728 229.269 343.083 218.992 343.083 204.328C343.083 189.665 336.647 177.778 323.774 177.778C310.097 177.778 308.523 181.622 306.074 193.869Z" fill="url(#paint7_linear_1732_137)"/>
  <path d="M251.363 170.537C277.058 197.209 286.083 233.778 298.033 230.07C289.988 201.107 301.68 177.777 294.005 152.835C287.567 131.915 275.231 124.464 263.282 128.172C244.933 131.918 234.43 152.959 251.363 170.537Z" fill="url(#paint8_linear_1732_137)"/>
  <g filter="url(#filter2_i_1732_137)">
    <path d="M265.04 246.973C240.099 260.38 239.296 275.849 247.341 286.396C252.461 293.108 268.258 288.014 283.54 257.443C290.786 244.925 301.918 245.737 296.798 239.025C291.678 232.312 291.163 232.932 265.04 246.973Z" fill="url(#paint9_linear_1732_137)"/>
  </g>
  <g filter="url(#filter3_i_1732_137)">
    <path d="M296.415 286.394C304.3 325.817 305.267 339.494 311.704 339.494C315.703 339.494 324.118 311.335 318.943 299.267C309.288 276.739 307.655 248.58 303.656 248.58C297.22 249.385 292.392 266.28 296.415 286.394Z" fill="url(#paint10_linear_1732_137)"/>
  </g>
  <g filter="url(#filter4_d_1732_137)">
    <ellipse cx="12.8728" cy="18.5046" rx="12.8728" ry="18.5046" transform="matrix(-0.999786 -0.0206748 -0.0206748 0.999786 312.578 215.369)" fill="url(#paint11_linear_1732_137)"/>
  </g>
  <g filter="url(#filter5_di_1732_137)">
    <path d="M300.934 233.644C300.76 242.084 303.031 248.977 310.271 249.126C315.602 249.237 321.673 242.517 321.848 234.076C322.023 225.635 316.234 218.67 310.903 218.56C301.25 218.36 301.109 225.203 300.934 233.644Z" fill="url(#paint12_linear_1732_137)"/>
  </g>
  <path d="M351.071 104.584C351.071 104.584 349.458 77.2302 315.669 65.966C281.88 54.7018 244.105 54.0509 198.205 57.116C124.817 62.0165 47.7491 96.5393 17.986 111.825C-11.7772 127.111 -37.5228 143.203 -42.35 152.052C-47.1773 160.902 -47.7248 165.007 -47.9871 172.166C-48.2083 178.206 -45.5734 187.453 -45.5734 187.453C-45.5734 187.453 49.4235 150.478 108.156 140.823C166.888 131.169 283.487 147.225 283.487 147.225C283.487 147.225 306.819 115.044 310.037 109.412C313.255 103.78 314.07 115.848 334.179 112.629C354.287 109.411 351.071 104.584 351.071 104.584Z" fill="url(#paint13_linear_1732_137)"/>
  <path d="M284.295 150.509C284.295 145.681 273.033 140.853 267.399 140.05C261.766 139.246 160.319 129.911 93.6168 142.463C40.2056 152.514 -35.914 182.622 -42.352 185.841C-48.7899 189.06 -46.3777 208.419 -43.9611 222.046C-41.4539 236.182 -34.3049 254.227 -28.6746 256.641C-25.9977 257.789 115.338 246.251 115.338 246.251C115.338 246.251 269.695 233.799 272.227 233.377C277.054 232.573 277.955 210.482 280.272 195.563C282.983 178.108 284.295 155.336 284.295 150.509Z" fill="url(#paint14_linear_1732_137)"/>
  <path d="M271.648 232.504C264.181 233.309 -21.2065 255.836 -26.8395 255.836C-32.4726 255.836 -26.2484 279.705 -19.5986 292.845C-11.9745 307.911 3.73453 323.418 10.9743 323.418C18.214 323.418 275.67 316.177 280.498 316.982C285.326 317.786 284.453 294.953 283.716 280.777C282.707 261.372 279.115 231.7 271.648 232.504Z" fill="url(#paint15_linear_1732_137)"/>
  <path d="M282.687 316.18L10.749 323.421C10.749 323.421 29.0244 353.653 46.1491 367.671C61.3813 380.139 72.1626 384.398 90.3993 391.807C135.179 410 165.482 413.462 213.495 407.898C248.179 403.879 291.538 390.281 299.582 380.544C305.467 373.419 307.629 370.084 310.847 364.453C314.065 358.821 305.892 345.436 299.582 336.293C293.755 327.85 282.687 316.18 282.687 316.18Z" fill="url(#paint16_linear_1732_137)"/>
  <g filter="url(#filter6_i_1732_137)">
    <path d="M159.497 352.379C160.839 344.334 153.064 342.724 137.774 338.702C122.484 334.68 80.6473 329.049 68.5827 334.679C56.5181 340.31 14.6816 402.26 11.4597 407.089C8.23787 411.917 9.85426 419.155 17.0916 421.57C24.3289 423.986 74.8792 414.458 106.396 396.629C129.891 383.339 158.155 360.425 159.497 352.379Z" fill="url(#paint17_linear_1732_137)"/>
  </g>
  <defs>
    <filter id="filter0_d_1732_137" x="-29.251" y="402.998" width="256.979" height="674.693" filterUnits="userSpaceOnUse" color-interpolation-filters="sRGB">
      <feFlood flood-opacity="0" result="BackgroundImageFix"/>
      <feColorMatrix in="SourceAlpha" type="matrix" values="0 0 0 0 0 0 0 0 0 0 0 0 0 0 0 0 0 0 127 0" result="hardAlpha"/>
      <feOffset dy="9.17675"/>
      <feComposite in2="hardAlpha" operator="out"/>
      <feColorMatrix type="matrix" values="0 0 0 0 0.592157 0 0 0 0 0.686275 0 0 0 0 0.737255 0 0 0 1 0"/>
      <feBlend mode="normal" in2="BackgroundImageFix" result="effect1_dropShadow_1732_137"/>
      <feBlend mode="normal" in="SourceGraphic" in2="effect1_dropShadow_1732_137" result="shape"/>
    </filter>
    <filter id="filter1_i_1732_137" x="-7.60289" y="0.830078" width="189.775" height="114.048" filterUnits="userSpaceOnUse" color-interpolation-filters="sRGB">
      <feFlood flood-opacity="0" result="BackgroundImageFix"/>
      <feBlend mode="normal" in="SourceGraphic" in2="BackgroundImageFix" result="shape"/>
      <feColorMatrix in="SourceAlpha" type="matrix" values="0 0 0 0 0 0 0 0 0 0 0 0 0 0 0 0 0 0 127 0" result="hardAlpha"/>
      <feOffset dx="-1.51012" dy="3.02023"/>
      <feGaussianBlur stdDeviation="2.18967"/>
      <feComposite in2="hardAlpha" operator="arithmetic" k2="-1" k3="1"/>
      <feColorMatrix type="matrix" values="0 0 0 0 0.976471 0 0 0 0 0.980392 0 0 0 0 0.968627 0 0 0 1 0"/>
      <feBlend mode="normal" in2="shape" result="effect1_innerShadow_1732_137"/>
    </filter>
    <filter id="filter2_i_1732_137" x="242.046" y="234.878" width="56.0549" height="55.6351" filterUnits="userSpaceOnUse" color-interpolation-filters="sRGB">
      <feFlood flood-opacity="0" result="BackgroundImageFix"/>
      <feBlend mode="normal" in="SourceGraphic" in2="BackgroundImageFix" result="shape"/>
      <feColorMatrix in="SourceAlpha" type="matrix" values="0 0 0 0 0 0 0 0 0 0 0 0 0 0 0 0 0 0 127 0" result="hardAlpha"/>
      <feOffset dx="-0.755058" dy="1.51012"/>
      <feGaussianBlur stdDeviation="0.792811"/>
      <feComposite in2="hardAlpha" operator="arithmetic" k2="-1" k3="1"/>
      <feColorMatrix type="matrix" values="0 0 0 0 0.796078 0 0 0 0 0.701961 0 0 0 0 0.568627 0 0 0 1 0"/>
      <feBlend mode="normal" in2="shape" result="effect1_innerShadow_1732_137"/>
    </filter>
    <filter id="filter3_i_1732_137" x="293.736" y="248.58" width="26.8409" height="92.1222" filterUnits="userSpaceOnUse" color-interpolation-filters="sRGB">
      <feFlood flood-opacity="0" result="BackgroundImageFix"/>
      <feBlend mode="normal" in="SourceGraphic" in2="BackgroundImageFix" result="shape"/>
      <feColorMatrix in="SourceAlpha" type="matrix" values="0 0 0 0 0 0 0 0 0 0 0 0 0 0 0 0 0 0 127 0" result="hardAlpha"/>
      <feOffset dx="-3.02023" dy="6.04047"/>
      <feGaussianBlur stdDeviation="0.604047"/>
      <feComposite in2="hardAlpha" operator="arithmetic" k2="-1" k3="1"/>
      <feColorMatrix type="matrix" values="0 0 0 0 0.835294 0 0 0 0 0.690196 0 0 0 0 0.529412 0 0 0 1 0"/>
      <feBlend mode="normal" in2="shape" result="effect1_innerShadow_1732_137"/>
    </filter>
    <filter id="filter4_d_1732_137" x="282.146" y="208.532" width="38.8895" height="50.1439" filterUnits="userSpaceOnUse" color-interpolation-filters="sRGB">
      <feFlood flood-opacity="0" result="BackgroundImageFix"/>
      <feColorMatrix in="SourceAlpha" type="matrix" values="0 0 0 0 0 0 0 0 0 0 0 0 0 0 0 0 0 0 127 0" result="hardAlpha"/>
      <feOffset dx="2.26517"/>
      <feGaussianBlur stdDeviation="3.2845"/>
      <feComposite in2="hardAlpha" operator="out"/>
      <feColorMatrix type="matrix" values="0 0 0 0 0 0 0 0 0 0 0 0 0 0 0 0 0 0 0.25 0"/>
      <feBlend mode="normal" in2="BackgroundImageFix" result="effect1_dropShadow_1732_137"/>
      <feBlend mode="normal" in="SourceGraphic" in2="effect1_dropShadow_1732_137" result="shape"/>
    </filter>
    <filter id="filter5_di_1732_137" x="299.943" y="217.574" width="24.325" height="32.4599" filterUnits="userSpaceOnUse" color-interpolation-filters="sRGB">
      <feFlood flood-opacity="0" result="BackgroundImageFix"/>
      <feColorMatrix in="SourceAlpha" type="matrix" values="0 0 0 0 0 0 0 0 0 0 0 0 0 0 0 0 0 0 127 0" result="hardAlpha"/>
      <feOffset dx="1.51012"/>
      <feGaussianBlur stdDeviation="0.453035"/>
      <feComposite in2="hardAlpha" operator="out"/>
      <feColorMatrix type="matrix" values="0 0 0 0 0 0 0 0 0 0 0 0 0 0 0 0 0 0 0.25 0"/>
      <feBlend mode="normal" in2="BackgroundImageFix" result="effect1_dropShadow_1732_137"/>
      <feBlend mode="normal" in="SourceGraphic" in2="effect1_dropShadow_1732_137" result="shape"/>
      <feColorMatrix in="SourceAlpha" type="matrix" values="0 0 0 0 0 0 0 0 0 0 0 0 0 0 0 0 0 0 127 0" result="hardAlpha"/>
      <feOffset dx="-1.51012" dy="-2.26517"/>
      <feGaussianBlur stdDeviation="0.490788"/>
      <feComposite in2="hardAlpha" operator="arithmetic" k2="-1" k3="1"/>
      <feColorMatrix type="matrix" values="0 0 0 0 0.811765 0 0 0 0 0.694118 0 0 0 0 0.537255 0 0 0 1 0"/>
      <feBlend mode="normal" in2="shape" result="effect2_innerShadow_1732_137"/>
    </filter>
    <filter id="filter6_i_1732_137" x="9.87842" y="330.04" width="149.767" height="91.9009" filterUnits="userSpaceOnUse" color-interpolation-filters="sRGB">
      <feFlood flood-opacity="0" result="BackgroundImageFix"/>
      <feBlend mode="normal" in="SourceGraphic" in2="BackgroundImageFix" result="shape"/>
      <feColorMatrix in="SourceAlpha" type="matrix" values="0 0 0 0 0 0 0 0 0 0 0 0 0 0 0 0 0 0 127 0" result="hardAlpha"/>
      <feOffset dy="-2.26517"/>
      <feGaussianBlur stdDeviation="2.45394"/>
      <feComposite in2="hardAlpha" operator="arithmetic" k2="-1" k3="1"/>
      <feColorMatrix type="matrix" values="0 0 0 0 0.721569 0 0 0 0 0.74902 0 0 0 0 0.623529 0 0 0 0.69 0"/>
      <feBlend mode="normal" in2="shape" result="effect1_innerShadow_1732_137"/>
    </filter>
    <linearGradient id="paint0_linear_1732_137" x1="213.027" y1="407.318" x2="-95.789" y2="1129.53" gradientUnits="userSpaceOnUse">
      <stop offset="0.363292" stop-color="#C8CBBB"/>
      <stop offset="0.686218" stop-color="#FFFEF9"/>
    </linearGradient>
    <linearGradient id="paint1_linear_1732_137" x1="355.15" y1="198.748" x2="249.754" y2="205.989" gradientUnits="userSpaceOnUse">
      <stop stop-color="#D9DAC9"/>
      <stop offset="1" stop-color="#C0BDB5"/>
    </linearGradient>
    <linearGradient id="paint2_linear_1732_137" x1="305.813" y1="88.4902" x2="261.824" y2="200.357" gradientUnits="userSpaceOnUse">
      <stop stop-color="#F3F0E8"/>
      <stop offset="1" stop-color="#CAC7BD"/>
    </linearGradient>
    <linearGradient id="paint3_linear_1732_137" x1="381.702" y1="277.594" x2="222.401" y2="329.086" gradientUnits="userSpaceOnUse">
      <stop stop-color="#D7D8C4"/>
      <stop offset="1" stop-color="#9A9C94"/>
    </linearGradient>
    <linearGradient id="paint4_linear_1732_137" x1="345.497" y1="401.494" x2="267.455" y2="313.798" gradientUnits="userSpaceOnUse">
      <stop stop-color="#E0E0CB"/>
      <stop offset="1" stop-color="#AAB0A1"/>
    </linearGradient>
    <linearGradient id="paint5_linear_1732_137" x1="41.3758" y1="-26.5246" x2="67.9259" y2="82.0895" gradientUnits="userSpaceOnUse">
      <stop stop-color="#BAB9AF"/>
      <stop offset="1" stop-color="#EDE7D0"/>
    </linearGradient>
    <linearGradient id="paint6_linear_1732_137" x1="282.741" y1="219.666" x2="270.673" y2="238.171" gradientUnits="userSpaceOnUse">
      <stop stop-color="#B19672"/>
      <stop offset="1" stop-color="#6B5B45"/>
    </linearGradient>
    <linearGradient id="paint7_linear_1732_137" x1="320.556" y1="168.978" x2="343.083" y2="238.169" gradientUnits="userSpaceOnUse">
      <stop stop-color="#877155"/>
      <stop offset="0.556502" stop-color="#D6B183"/>
    </linearGradient>
    <linearGradient id="paint8_linear_1732_137" x1="260.213" y1="114.268" x2="294.004" y2="231.732" gradientUnits="userSpaceOnUse">
      <stop stop-color="#8B7354"/>
      <stop offset="0.826065" stop-color="#D4B083"/>
    </linearGradient>
    <linearGradient id="paint9_linear_1732_137" x1="289.178" y1="239.781" x2="244.928" y2="284.032" gradientUnits="userSpaceOnUse">
      <stop stop-color="#FFEBCD"/>
      <stop offset="1" stop-color="#CEB48E"/>
    </linearGradient>
    <linearGradient id="paint10_linear_1732_137" x1="307.761" y1="248.58" x2="307.761" y2="339.494" gradientUnits="userSpaceOnUse">
      <stop stop-color="#FFECCC"/>
      <stop offset="1" stop-color="#D5B288"/>
    </linearGradient>
    <linearGradient id="paint11_linear_1732_137" x1="12.8728" y1="8.09499" x2="29.7683" y2="20.9678" gradientUnits="userSpaceOnUse">
      <stop stop-color="#E2BB88"/>
      <stop offset="1" stop-color="#6B5A42"/>
    </linearGradient>
    <linearGradient id="paint12_linear_1732_137" x1="311.707" y1="218.577" x2="301.246" y2="254.266" gradientUnits="userSpaceOnUse">
      <stop stop-color="#FCECCD"/>
      <stop offset="1" stop-color="#C4B69D"/>
    </linearGradient>
    <linearGradient id="paint13_linear_1732_137" x1="151.601" y1="75.6547" x2="174.129" y2="176.223" gradientUnits="userSpaceOnUse">
      <stop stop-color="#FCFBF9"/>
      <stop offset="1" stop-color="#EEEADE"/>
    </linearGradient>
    <linearGradient id="paint14_linear_1732_137" x1="118.906" y1="135.959" x2="119.417" y2="228.517" gradientUnits="userSpaceOnUse">
      <stop stop-color="#FDF9F2"/>
      <stop offset="1" stop-color="#E3E3CE"/>
    </linearGradient>
    <linearGradient id="paint15_linear_1732_137" x1="118.613" y1="268.743" x2="127.463" y2="342.762" gradientUnits="userSpaceOnUse">
      <stop stop-color="#F0F1EA"/>
      <stop offset="1" stop-color="#D1CEB2"/>
    </linearGradient>
    <linearGradient id="paint16_linear_1732_137" x1="178.151" y1="336.328" x2="186.197" y2="429.656" gradientUnits="userSpaceOnUse">
      <stop stop-color="#E0E0CC"/>
      <stop offset="1" stop-color="#BEC6B6"/>
    </linearGradient>
    <linearGradient id="paint17_linear_1732_137" x1="84.0179" y1="356.441" x2="61.4905" y2="391.841" gradientUnits="userSpaceOnUse">
      <stop stop-color="#CED4B9"/>
      <stop offset="1" stop-color="#FBFBF5"/>
    </linearGradient>
  </defs>
</svg>
