<svg width="679" height="902" viewBox="0 0 679 902" fill="none" xmlns="http://www.w3.org/2000/svg">
  <path d="M10.5701 285.525C13.9359 285.525 92.2017 285.525 92.2017 285.525V328.024C92.2017 328.024 65.2857 329.551 48.0197 329.707C31.0917 329.861 9.30779 328.866 4.6792 328.866C0.0506003 328.866 0.880223 316.079 1.73373 307.827C2.69747 298.509 7.20439 285.525 10.5701 285.525Z" fill="url(#paint0_linear_1732_137)"/>
  <path d="M34.1333 249.758C36.2375 249.758 97.2506 252.703 97.2506 252.703V292.257C97.2506 292.257 62.367 295.886 40.0243 294.781C29.4742 294.26 16.4606 293.098 13.0943 292.257C9.72797 291.415 9.72808 277.529 15.1982 265.748C20.6683 253.966 32.0292 249.758 34.1333 249.758Z" fill="url(#paint1_linear_1732_137)"/>
  <path d="M3.41606 328.864C5.51967 328.864 105.666 328.864 105.666 328.864V361.685C105.666 361.685 78.4727 361.127 61.0631 361.685C43.2879 362.255 26.1377 362.948 18.5639 364.631C10.9901 366.314 9.307 375.992 9.307 375.992C9.307 375.992 5.08255 369.342 3.41606 364.631C0.92852 357.598 0.76949 353.155 0.891371 345.696C0.99996 339.05 1.31245 328.864 3.41606 328.864Z" fill="url(#paint2_linear_1732_137)"/>
  <path d="M9.7279 376.414C10.4203 371.76 11.411 369.261 15.1972 365.894C18.9833 362.527 68.6364 361.265 68.6364 361.265L122.077 358.741L138.066 416.809C138.066 416.809 93.4634 429.012 65.271 421.858C37.0787 414.705 31.328 410.077 25.7176 405.869C20.1072 401.661 18.1599 398.956 14.7773 393.666C10.9954 387.752 8.69497 383.358 9.7279 376.414Z" fill="url(#paint3_linear_1732_137)"/>
  <g filter="url(#filter0_i_1732_137)">
    <path d="M186.427 206.019C192.739 204.336 203.52 201.555 210.833 207.702C214.182 210.518 217.145 213.593 217.145 216.96C217.145 220.326 204.521 261.978 204.521 261.978C204.521 261.978 182.86 251.977 167.913 246.409C149.37 239.502 118.682 234.212 118.682 234.212C118.682 234.212 138.562 225.254 151.923 219.484C165.202 213.75 180.116 207.703 186.427 206.019Z" fill="url(#paint4_linear_1732_137)"/>
  </g>
  <path d="M85.4388 329.28C85.4388 334.857 72.3949 337.695 61.4546 337.275C55.4124 337.275 51.3555 331.912 51.3555 326.334C51.3555 320.757 53.3085 313.711 59.3507 313.711C73.2364 314.132 85.4388 319.181 85.4388 329.28Z" fill="url(#paint5_linear_1732_137)"/>
  <path d="M53.8813 304.873C55.5645 313.288 64.9729 323.387 58.9307 323.387C48.832 323.387 34.5254 318.012 34.5254 310.343C34.5254 302.674 37.8916 296.457 44.6241 296.457C51.7774 296.457 52.6002 298.467 53.8813 304.873Z" fill="url(#paint6_linear_1732_137)"/>
  <path d="M82.4937 292.668C69.0551 306.618 64.3349 325.744 58.0851 323.804C62.2929 308.656 56.1779 296.455 60.1917 283.41C63.5592 272.469 70.0105 268.572 76.2603 270.511C85.8566 272.47 91.35 283.475 82.4937 292.668Z" fill="url(#paint7_linear_1732_137)"/>
  <g filter="url(#filter1_i_1732_137)">
    <path d="M75.3421 332.644C88.3864 339.656 88.8063 347.746 84.5987 353.262C81.9208 356.773 73.6591 354.108 65.6665 338.12C61.8771 331.573 56.0548 331.998 58.7326 328.487C61.4105 324.976 61.6799 325.3 75.3421 332.644Z" fill="url(#paint8_linear_1732_137)"/>
  </g>
  <g filter="url(#filter2_i_1732_137)">
    <path d="M58.9327 353.262C54.8091 373.88 54.3031 381.034 50.9368 381.034C48.8453 381.034 44.4441 366.306 47.1506 359.995C52.2 348.213 53.0541 333.485 55.1457 333.485C58.5117 333.906 61.0366 342.743 58.9327 353.262Z" fill="url(#paint9_linear_1732_137)"/>
  </g>
  <g filter="url(#filter3_d_1732_137)">
    <ellipse cx="57.4106" cy="325.654" rx="6.7325" ry="9.67797" transform="rotate(-1.18466 57.4106 325.654)" fill="url(#paint10_linear_1732_137)"/>
  </g>
  <g filter="url(#filter4_di_1732_137)">
    <path d="M56.5681 325.672C56.6594 330.087 55.4713 333.691 51.6851 333.77C48.897 333.827 45.7214 330.313 45.6301 325.898C45.5388 321.484 48.5664 317.841 51.3545 317.783C56.4028 317.679 56.4768 321.258 56.5681 325.672Z" fill="url(#paint11_linear_1732_137)"/>
  </g>
  <path d="M30.3488 258.175C30.3488 258.175 31.1923 243.869 48.8641 237.978C66.5358 232.087 86.2921 231.746 110.298 233.349C148.68 235.912 188.987 253.968 204.553 261.962C220.119 269.957 233.584 278.373 236.109 283.001C238.634 287.629 238.92 289.776 239.057 293.521C239.173 296.68 237.795 301.516 237.795 301.516C237.795 301.516 188.111 282.178 157.394 277.128C126.677 272.079 65.6953 280.477 65.6953 280.477C65.6953 280.477 53.4927 263.645 51.8095 260.7C50.1264 257.754 49.7002 264.066 39.1834 262.383C28.6666 260.7 30.3488 258.175 30.3488 258.175Z" fill="url(#paint12_linear_1732_137)"/>
  <path d="M65.2705 282.192C65.2705 279.667 71.1606 277.142 74.1069 276.721C77.0532 276.301 130.11 271.419 164.996 277.984C192.93 283.24 232.741 298.987 236.108 300.67C239.475 302.354 238.213 312.479 236.949 319.606C235.638 326.999 231.899 336.437 228.955 337.699C227.554 338.3 153.635 332.265 153.635 332.265C153.635 332.265 72.9066 325.753 71.5822 325.532C69.0575 325.111 68.5862 313.558 67.3744 305.755C65.9566 296.626 65.2705 284.716 65.2705 282.192Z" fill="url(#paint13_linear_1732_137)"/>
  <path d="M71.8849 325.078C75.79 325.498 225.049 337.28 227.995 337.28C230.941 337.28 227.686 349.764 224.208 356.636C220.22 364.516 212.004 372.626 208.218 372.626C204.432 372.626 69.7812 368.839 67.2563 369.26C64.7314 369.681 65.1877 357.738 65.5731 350.325C66.1008 340.175 67.9797 324.657 71.8849 325.078Z" fill="url(#paint14_linear_1732_137)"/>
  <path d="M66.1137 368.839L208.338 372.626C208.338 372.626 198.78 388.438 189.823 395.769C181.857 402.29 176.218 404.517 166.68 408.392C143.26 417.907 127.412 419.718 102.301 416.808C84.1614 414.706 61.4845 407.594 57.2773 402.501C54.1992 398.775 53.0688 397.031 51.3857 394.086C49.7026 391.14 53.9773 384.14 57.2773 379.358C60.3246 374.943 66.1137 368.839 66.1137 368.839Z" fill="url(#paint15_linear_1732_137)"/>
  <g filter="url(#filter5_i_1732_137)">
    <path d="M130.543 387.773C129.841 383.566 133.907 382.724 141.904 380.62C149.901 378.516 171.781 375.571 178.091 378.516C184.401 381.461 206.281 413.861 207.966 416.387C209.651 418.912 208.806 422.698 205.021 423.961C201.236 425.224 174.798 420.241 158.314 410.916C146.026 403.966 131.244 391.981 130.543 387.773Z" fill="url(#paint16_linear_1732_137)"/>
  </g>
  <path d="M103.099 296.816L102.734 296.388L102.734 296.388L103.099 296.816ZM101.924 297.9L101.479 297.545L101.924 297.9ZM101.45 297.868L101.147 298.163L101.45 297.868ZM104.549 296.169L104.816 296.641L104.549 296.169ZM97.2086 289.646L97.3127 289.217L97.2086 289.646ZM96.8503 289.878L96.3492 289.841L96.8503 289.878ZM97.2086 289.646L97.1044 290.075C99.3873 291.133 100.944 292.271 102.037 293.296C103.13 294.322 103.778 295.253 104.236 295.933L104.646 295.764L105.056 295.596C104.579 294.887 103.858 293.849 102.642 292.707C101.424 291.565 99.7305 290.337 97.3127 289.217L97.2086 289.646ZM104.549 296.169L104.282 295.696C103.729 295.851 103.208 296.08 102.734 296.388L103.099 296.816L103.464 297.245C103.88 296.976 104.334 296.776 104.816 296.641L104.549 296.169ZM103.099 296.816L102.734 296.388C102.235 296.711 101.817 297.102 101.479 297.545L101.924 297.9L102.37 298.255C102.664 297.869 103.029 297.527 103.464 297.245L103.099 296.816ZM101.45 297.868L101.752 297.573C101.138 296.997 100.299 296.19 99.4821 294.98C98.6662 293.77 97.859 292.137 97.3515 289.914L96.8503 289.878L96.3492 289.841C96.8868 292.195 97.7531 293.969 98.6625 295.317C99.5713 296.664 100.509 297.563 101.147 298.163L101.45 297.868ZM101.924 297.9L101.479 297.545C101.525 297.485 101.647 297.474 101.752 297.573L101.45 297.868L101.147 298.163C101.566 298.556 102.131 298.569 102.37 298.255L101.924 297.9ZM104.646 295.764L104.236 295.933C104.158 295.816 104.203 295.718 104.282 295.696L104.549 296.169L104.816 296.641C105.222 296.527 105.366 296.055 105.056 295.596L104.646 295.764ZM97.2086 289.646L97.3127 289.217C96.7314 288.947 96.2207 289.279 96.3492 289.841L96.8503 289.878L97.3515 289.914C97.3842 290.058 97.2527 290.143 97.1044 290.075L97.2086 289.646Z" fill="url(#paint17_linear_1732_137)"/>
  <path d="M101.092 299.869L100.594 299.666L100.594 299.666L101.092 299.869ZM101.04 301.6L101.542 301.677L101.04 301.6ZM101.397 297.952L101.247 298.368L101.397 297.952ZM101.59 298.416L102.052 298.724L101.59 298.416ZM92.6843 296.26L92.8763 296.748L92.6843 296.26ZM92.6843 296.26L92.8763 296.748C97.1539 296.178 99.8232 297.589 101.247 298.368L101.397 297.952L101.548 297.537C99.9988 296.69 97.0677 295.162 92.4923 295.772L92.6843 296.26ZM101.59 298.416L101.128 298.107C100.879 298.575 100.697 299.096 100.594 299.666L101.092 299.869L101.591 300.072C101.68 299.578 101.838 299.128 102.052 298.724L101.59 298.416ZM101.092 299.869L100.594 299.666C100.484 300.271 100.469 300.895 100.538 301.523L101.04 301.6L101.542 301.677C101.483 301.134 101.496 300.595 101.591 300.072L101.092 299.869ZM100.717 301.859L100.727 301.386C99.9648 301.179 98.903 300.879 97.5919 300.168C96.2818 299.457 94.702 298.325 92.9331 296.436L92.6024 296.711L92.2716 296.987C94.1421 298.984 95.8449 300.215 97.2949 301.001C98.744 301.787 99.9199 302.117 100.707 302.331L100.717 301.859ZM101.04 301.6L100.538 301.523C100.528 301.436 100.597 301.351 100.727 301.386L100.717 301.859L100.707 302.331C101.225 302.472 101.593 302.137 101.542 301.677L101.04 301.6ZM101.397 297.952L101.247 298.368C101.123 298.3 101.091 298.175 101.128 298.107L101.59 298.416L102.052 298.724C102.243 298.365 102.037 297.805 101.548 297.537L101.397 297.952ZM92.6843 296.26L92.4923 295.772C91.9375 295.846 91.8186 296.503 92.2716 296.987L92.6024 296.711L92.9331 296.436C93.0486 296.559 93.0179 296.729 92.8763 296.748L92.6843 296.26Z" fill="url(#paint18_linear_1732_137)"/>
  <path d="M101.707 303.982L101.257 304.072L101.257 304.072L101.707 303.982ZM102.791 305.706L103.162 305.49L102.791 305.706ZM102.752 306.147L103.05 306.615L102.752 306.147ZM100.664 301.929L100.492 301.435L100.664 301.929ZM101.087 302.27L100.592 302.237L101.087 302.27ZM94.0023 305.324L94.44 305.691L94.0023 305.324ZM94.0023 305.324L94.44 305.691C96.8061 302.652 99.4239 302.486 100.836 302.423L100.664 301.929L100.492 301.435C98.9555 301.504 96.0953 301.708 93.5645 304.958L94.0023 305.324ZM101.087 302.27L100.592 302.237C100.735 302.838 100.955 303.454 101.257 304.072L101.707 303.982L102.156 303.891C101.895 303.356 101.705 302.824 101.581 302.304L101.087 302.27ZM101.707 303.982L101.257 304.072C101.577 304.728 101.97 305.348 102.42 305.922L102.791 305.706L103.162 305.49C102.773 304.994 102.433 304.458 102.156 303.891L101.707 303.982ZM102.752 306.147L102.453 305.678C101.832 305.918 100.959 306.24 99.6622 306.304C98.366 306.368 96.6249 306.175 94.2748 305.352L94.2412 305.814L94.2075 306.275C96.6925 307.145 98.5754 307.362 100.01 307.291C101.444 307.22 102.409 306.862 103.05 306.615L102.752 306.147ZM102.791 305.706L102.42 305.922C102.358 305.843 102.347 305.719 102.453 305.678L102.752 306.147L103.05 306.615C103.472 306.452 103.491 305.911 103.162 305.49L102.791 305.706ZM100.664 301.929L100.836 302.423C100.714 302.428 100.613 302.324 100.592 302.237L101.087 302.27L101.581 302.304C101.471 301.842 100.978 301.413 100.492 301.435L100.664 301.929ZM94.0023 305.324L93.5645 304.958C93.2576 305.352 93.6056 306.064 94.2075 306.275L94.2412 305.814L94.2748 305.352C94.4282 305.406 94.5184 305.59 94.44 305.691L94.0023 305.324Z" fill="url(#paint19_linear_1732_137)"/>
  <path d="M104.778 307.644L104.543 308.001L104.543 308.001L104.778 307.644ZM106.599 308.71L106.489 309.14L106.599 308.71ZM106.844 309.157L107.328 309.431L106.844 309.157ZM102.787 306.24L103.202 306.619L102.787 306.24ZM103.266 306.317L102.929 306.584L103.266 306.317ZM100.721 313.443L101.23 313.526C101.001 311.335 101.285 309.831 101.723 308.77C102.161 307.708 102.76 307.07 103.202 306.619L102.787 306.24L102.372 305.861C101.913 306.33 101.243 307.039 100.756 308.221C100.268 309.403 99.9698 311.04 100.212 313.36L100.721 313.443ZM103.266 306.317L102.929 306.584C103.41 307.093 103.949 307.57 104.543 308.001L104.778 307.644L105.012 307.286C104.493 306.909 104.023 306.493 103.604 306.049L103.266 306.317ZM104.778 307.644L104.543 308.001C105.174 308.459 105.828 308.838 106.489 309.14L106.599 308.71L106.71 308.28C106.133 308.017 105.563 307.686 105.012 307.286L104.778 307.644ZM106.844 309.157L106.359 308.884C106.117 309.479 105.768 310.298 104.981 311.111C104.195 311.923 102.957 312.744 100.918 313.3L101.173 313.771L101.427 314.243C103.586 313.654 104.937 312.772 105.814 311.866C106.69 310.961 107.077 310.046 107.328 309.431L106.844 309.157ZM106.599 308.71L106.489 309.14C106.399 309.099 106.318 308.986 106.359 308.884L106.844 309.157L107.328 309.431C107.493 309.024 107.178 308.494 106.71 308.28L106.599 308.71ZM102.787 306.24L103.202 306.619C103.127 306.695 102.998 306.657 102.929 306.584L103.266 306.317L103.604 306.049C103.246 305.672 102.67 305.555 102.372 305.861L102.787 306.24ZM100.721 313.443L100.212 313.36C100.27 313.915 100.914 314.383 101.427 314.243L101.173 313.771L100.918 313.3C101.049 313.264 101.215 313.385 101.23 313.526L100.721 313.443Z" fill="url(#paint20_linear_1732_137)"/>
  <path d="M107.039 296.017L106.956 295.524L106.956 295.524L107.039 296.017ZM109.23 296.24L109.733 296.373L109.23 296.24ZM108.882 296.446L108.844 296.911L108.882 296.446ZM105.894 288.009L105.527 288.234L105.894 288.009ZM105.405 287.951L104.946 287.629L105.405 287.951ZM105.894 288.009L105.527 288.234C107.08 290.235 107.87 291.864 108.277 293.151C108.684 294.438 108.717 295.408 108.727 296.108L109.23 296.24L109.733 296.373C109.723 295.642 109.689 294.556 109.233 293.117C108.777 291.676 107.909 289.906 106.262 287.785L105.894 288.009ZM108.882 296.446L108.92 295.981C108.279 295.758 107.621 295.602 106.956 295.524L107.039 296.017L107.121 296.51C107.705 296.579 108.283 296.716 108.844 296.911L108.882 296.446ZM107.039 296.017L106.956 295.524C106.258 295.441 105.594 295.449 104.976 295.537L105.18 296.03L105.383 296.522C105.925 296.444 106.507 296.437 107.121 296.51L107.039 296.017ZM104.744 295.732L105.222 295.715C104.993 294.991 104.693 293.99 104.676 292.745C104.659 291.501 104.924 289.989 105.864 288.274L105.405 287.951L104.946 287.629C103.95 289.447 103.65 291.087 103.67 292.48C103.689 293.873 104.027 294.995 104.266 295.749L104.744 295.732ZM105.18 296.03L104.976 295.537C105.06 295.526 105.182 295.59 105.222 295.715L104.744 295.732L104.266 295.749C104.423 296.246 104.955 296.583 105.383 296.522L105.18 296.03ZM109.23 296.24L108.727 296.108C108.725 295.988 108.83 295.95 108.92 295.981L108.882 296.446L108.844 296.911C109.308 297.072 109.74 296.848 109.733 296.373L109.23 296.24ZM105.894 288.009L106.262 287.785C105.871 287.281 105.181 287.199 104.946 287.629L105.405 287.951L105.864 288.274C105.804 288.383 105.627 288.362 105.527 288.234L105.894 288.009Z" fill="url(#paint21_linear_1732_137)"/>
  <path d="M111.404 297.799L111.638 297.441L111.638 297.441L111.404 297.799ZM109.586 296.734L109.697 296.304L109.586 296.734ZM113.405 299.213L112.99 298.835L113.405 299.213ZM115.005 291.698L114.75 291.226L115.005 291.698ZM115.456 292.026L114.948 291.943C115.175 294.121 114.895 295.621 114.461 296.681C114.027 297.742 113.433 298.381 112.99 298.835L113.405 299.213L113.82 299.592C114.282 299.12 114.947 298.409 115.429 297.228C115.912 296.047 116.206 294.416 115.965 292.109L115.456 292.026ZM112.926 299.136L113.263 298.869C112.78 298.356 112.237 297.876 111.638 297.441L111.404 297.799L111.17 298.156C111.693 298.536 112.167 298.956 112.588 299.403L112.926 299.136ZM111.404 297.799L111.638 297.441C111.009 296.984 110.357 296.606 109.697 296.304L109.586 296.734L109.476 297.164C110.051 297.427 110.62 297.757 111.17 298.156L111.404 297.799ZM109.343 296.288L109.827 296.561C110.07 295.965 110.424 295.15 111.211 294.342C111.998 293.535 113.234 292.722 115.259 292.169L115.005 291.698L114.75 291.226C112.605 291.811 111.258 292.685 110.381 293.585C109.504 294.484 109.112 295.394 108.859 296.014L109.343 296.288ZM109.586 296.734L109.697 296.304C109.787 296.345 109.869 296.459 109.827 296.561L109.343 296.288L108.859 296.014C108.693 296.421 109.008 296.95 109.476 297.164L109.586 296.734ZM113.405 299.213L112.99 298.835C113.066 298.757 113.195 298.796 113.263 298.869L112.926 299.136L112.588 299.403C112.944 299.78 113.521 299.899 113.82 299.592L113.405 299.213ZM115.456 292.026L115.965 292.109C115.907 291.554 115.263 291.086 114.75 291.226L115.005 291.698L115.259 292.169C115.128 292.205 114.962 292.084 114.948 291.943L115.456 292.026Z" fill="url(#paint22_linear_1732_137)"/>
  <path d="M114.455 301.378L114.904 301.287L114.904 301.287L114.455 301.378ZM115.098 303.192L115.595 303.234L115.098 303.192ZM115.522 303.539L115.693 304.033L115.522 303.539ZM113.486 299.31L113.784 299.779L113.486 299.31ZM113.443 299.746L113.819 299.537L113.443 299.746ZM121.975 299.654L122.008 299.193L121.975 299.654ZM122.213 300.143L122.651 300.509L122.213 300.143ZM121.975 299.654L121.941 300.115C117.297 298.488 115 299.313 113.784 299.779L113.486 299.31L113.188 298.842C114.511 298.335 117.04 297.453 122.008 299.193L121.975 299.654ZM113.443 299.746L113.819 299.537C114.237 300.083 114.602 300.67 114.904 301.287L114.455 301.378L114.005 301.469C113.744 300.933 113.427 300.427 113.067 299.955L113.443 299.746ZM114.455 301.378L114.904 301.287C115.224 301.944 115.453 302.596 115.595 303.234L115.098 303.192L114.602 303.151C114.479 302.6 114.282 302.036 114.005 301.469L114.455 301.378ZM115.522 303.539L115.351 303.046C116.074 303.014 117.076 302.958 118.198 302.535C119.32 302.112 120.578 301.315 121.776 299.777L122.213 300.143L122.651 300.509C121.385 302.136 120.032 303.005 118.791 303.473C117.551 303.941 116.44 304.001 115.693 304.033L115.522 303.539ZM115.098 303.192L115.595 303.234C115.575 303.145 115.474 303.04 115.351 303.046L115.522 303.539L115.693 304.033C115.203 304.055 114.706 303.617 114.602 303.151L115.098 303.192ZM113.486 299.31L113.784 299.779C113.889 299.738 113.88 299.616 113.819 299.537L113.443 299.746L113.067 299.955C112.747 299.535 112.77 299.002 113.188 298.842L113.486 299.31ZM121.975 299.654L122.008 299.193C122.611 299.404 122.958 300.116 122.651 300.509L122.213 300.143L121.776 299.777C121.698 299.877 121.787 300.061 121.941 300.115L121.975 299.654Z" fill="url(#paint23_linear_1732_137)"/>
  <path d="M115.156 305.535L115.655 305.738L115.655 305.738L115.156 305.535ZM114.616 307.069L114.157 306.755L114.616 307.069ZM115.543 303.652L115.554 303.18L115.543 303.652ZM115.22 303.905L114.717 303.821L115.22 303.905ZM123.546 309.244L123.738 309.732L123.546 309.244ZM123.628 308.793L123.297 309.068C119.803 305.336 117.023 304.531 115.532 304.124L115.543 303.652L115.554 303.18C117.176 303.623 120.221 304.526 123.959 308.517L123.628 308.793ZM115.22 303.905L115.723 303.99C115.779 304.581 115.758 305.168 115.655 305.738L115.156 305.535L114.658 305.333C114.748 304.839 114.765 304.332 114.717 303.821L115.22 303.905ZM115.156 305.535L115.655 305.738C115.545 306.343 115.348 306.893 115.075 307.383L114.616 307.069L114.157 306.755C114.392 306.332 114.563 305.856 114.658 305.333L115.156 305.535ZM114.807 307.536L114.958 307.122C115.686 307.521 116.703 308.066 118.074 308.445C119.444 308.825 121.19 309.044 123.354 308.756L123.546 309.244L123.738 309.732C121.45 310.037 119.565 309.809 118.049 309.389C116.533 308.969 115.407 308.364 114.656 307.951L114.807 307.536ZM114.616 307.069L115.075 307.383C115.113 307.315 115.082 307.19 114.958 307.122L114.807 307.536L114.656 307.951C114.162 307.681 113.958 307.113 114.157 306.755L114.616 307.069ZM115.543 303.652L115.532 304.124C115.662 304.159 115.731 304.075 115.723 303.99L115.22 303.905L114.717 303.821C114.674 303.367 115.041 303.04 115.554 303.18L115.543 303.652ZM123.628 308.793L123.959 308.517C124.412 309.001 124.292 309.658 123.738 309.732L123.546 309.244L123.354 308.756C123.213 308.775 123.182 308.944 123.297 309.068L123.628 308.793Z" fill="url(#paint24_linear_1732_137)"/>
  <path d="M113.156 308.598L113.522 309.027L113.522 309.027L113.156 308.598ZM111.624 309.267L111.885 309.741L111.624 309.267ZM114.751 307.617L115.054 307.323L114.751 307.617ZM114.278 307.582L113.837 307.222L114.278 307.582ZM118.992 315.842L118.888 316.271L118.992 315.842ZM119.35 315.61L118.849 315.573C118.342 313.35 117.534 311.716 116.718 310.507C115.901 309.296 115.062 308.488 114.448 307.911L114.751 307.617L115.054 307.323C115.691 307.922 116.629 308.822 117.538 310.169C118.447 311.517 119.314 313.292 119.852 315.646L119.35 315.61ZM114.278 307.582L114.72 307.941C114.393 308.355 113.993 308.721 113.522 309.027L113.156 308.598L112.791 308.17C113.203 307.902 113.551 307.583 113.837 307.222L114.278 307.582ZM113.156 308.598L113.522 309.027C113.022 309.351 112.471 309.587 111.885 309.741L111.624 309.267L111.363 308.793C111.873 308.659 112.354 308.453 112.791 308.17L113.156 308.598ZM111.522 309.674L111.933 309.507C112.388 310.183 113.03 311.12 114.125 312.155C115.22 313.19 116.787 314.342 119.096 315.413L118.992 315.842L118.888 316.271C116.442 315.137 114.737 313.894 113.516 312.741C112.297 311.588 111.582 310.542 111.112 309.841L111.522 309.674ZM111.624 309.267L111.885 309.741C111.965 309.72 112.011 309.622 111.933 309.507L111.522 309.674L111.112 309.841C110.801 309.379 110.948 308.902 111.363 308.793L111.624 309.267ZM114.751 307.617L114.448 307.911C114.552 308.009 114.673 308.001 114.72 307.941L114.278 307.582L113.837 307.222C114.079 306.916 114.639 306.933 115.054 307.323L114.751 307.617ZM119.35 315.61L119.852 315.646C119.98 316.209 119.469 316.54 118.888 316.271L118.992 315.842L119.096 315.413C118.948 315.344 118.816 315.429 118.849 315.573L119.35 315.61Z" fill="url(#paint25_linear_1732_137)"/>
  <path d="M110.779 317.507L111.238 317.829L111.238 317.829L110.779 317.507ZM110.288 317.448L109.92 317.673L109.92 317.673L110.288 317.448ZM109.132 309.414L109.214 309.907L109.214 309.907L109.132 309.414ZM110.995 309.399L110.791 308.907L110.995 309.399ZM106.95 309.195L106.447 309.062L106.95 309.195ZM107.298 308.988L107.335 308.523L107.298 308.988ZM110.779 317.507L110.321 317.184C110.381 317.075 110.556 317.095 110.655 317.224L110.288 317.448L109.92 317.673C110.311 318.177 111.003 318.258 111.238 317.829L110.779 317.507ZM110.288 317.448L110.655 317.224C109.094 315.212 108.304 313.576 107.898 312.286C107.492 310.995 107.463 310.026 107.453 309.327L106.95 309.195L106.447 309.062C106.457 309.789 106.488 310.875 106.942 312.318C107.396 313.763 108.265 315.541 109.92 317.673L110.288 317.448ZM107.298 308.988L107.261 309.454C107.899 309.674 108.554 309.829 109.214 309.907L109.132 309.414L109.05 308.921C108.469 308.852 107.894 308.716 107.335 308.523L107.298 308.988ZM109.132 309.414L109.214 309.907C109.915 309.99 110.58 309.981 111.199 309.892L110.995 309.399L110.791 308.907C110.249 308.986 109.665 308.994 109.05 308.921L109.132 309.414ZM111.432 309.698L110.954 309.715C111.183 310.437 111.487 311.439 111.508 312.689C111.529 313.938 111.266 315.458 110.321 317.184L110.779 317.507L111.238 317.829C112.241 315.999 112.538 314.35 112.514 312.951C112.491 311.553 112.148 310.43 111.911 309.68L111.432 309.698ZM110.995 309.399L111.199 309.892C111.115 309.904 110.993 309.839 110.954 309.715L111.432 309.698L111.911 309.68C111.753 309.184 111.221 308.845 110.791 308.907L110.995 309.399ZM106.95 309.195L107.453 309.327C107.455 309.446 107.351 309.485 107.261 309.454L107.298 308.988L107.335 308.523C106.872 308.363 106.44 308.587 106.447 309.062L106.95 309.195Z" fill="url(#paint26_linear_1732_137)"/>
  <g filter="url(#filter6_d_1732_137)">
    <path d="M151.771 381.323C274.133 681.335 443.387 815.689 752.848 892.162" stroke="url(#paint27_linear_1732_137)" stroke-width="3.05892"/>
  </g>
  <g filter="url(#filter7_d_1732_137)">
    <path d="M460.302 625.178C470.558 637.55 480.178 645.805 493.329 660.089C506.588 674.324 508.102 677.161 524.006 692.617C540.084 708.16 556.062 723.662 563.732 730.109C571.451 736.589 571.313 737.957 582.155 747.175C592.987 756.329 599.32 761.92 608.61 770.198C617.64 778.381 647.185 802.723 658.236 810.706C669.421 818.933 681.365 829.017 688.875 834.908C691.211 836.743 693.043 838.216 694.438 839.363C695.029 839.848 695.27 840.117 695.229 840.173C695.229 840.173 695.229 840.173 695.229 840.173C695.177 840.242 694.687 839.98 693.895 839.399C690.051 836.578 684.307 832.418 677.56 827.651C665.085 818.802 663.81 817.048 647.399 804.461C630.719 791.557 620.602 784.134 602.072 768.009C583.546 751.675 578.162 749.366 553.026 725.2C528.193 700.806 524.42 699.555 499.889 674.953C475.435 650.373 447.432 616.546 434.408 600.244C421.204 584.022 403.98 561.763 387.535 537.091C371.022 512.499 351.447 481.465 336.372 452.413C321.022 423.48 302.099 381.295 294.147 361.486C286.108 341.702 284.241 336.867 276.509 317.824C272.096 306.894 266.45 291.635 262.166 278.566C260.002 271.958 260.825 273.344 263.352 279.855C267.048 289.355 269.834 297.165 272.064 301.961C276.506 311.462 278.369 315.507 282.839 327.94C287.326 340.337 290.689 345.748 293.544 352.844C296.544 359.966 295.496 360.258 312.233 395.653C329.253 430.896 339.784 449.572 347.011 462.493C354.219 475.414 369.44 502.344 382.926 522.365C396.017 542.612 425.059 582.282 437.927 597.264C450.585 612.34 450.226 612.86 460.302 625.178Z" fill="url(#paint28_linear_1732_137)"/>
  </g>
  <g filter="url(#filter8_d_1732_137)">
    <path d="M107.444 129C112.56 129 231.534 129 231.534 129V193.604C231.534 193.604 190.618 195.925 164.372 196.162C138.639 196.395 105.525 194.883 98.4889 194.883C91.4529 194.883 92.714 175.446 94.0114 162.901C95.4764 148.736 102.328 129 107.444 129Z" fill="url(#paint29_linear_1732_137)"/>
    <path d="M141.873 70.6953C145.072 70.6953 237.819 75.1728 237.819 75.1728V135.299C237.819 135.299 184.792 140.815 150.828 139.137C134.791 138.344 115.008 136.578 109.891 135.299C104.774 134.02 104.774 112.912 113.089 95.0016C121.404 77.0917 138.674 70.6953 141.873 70.6953Z" fill="url(#paint30_linear_1732_137)"/>
    <path d="M96.882 192C100.08 192 252.314 192 252.314 192V241.892C252.314 241.892 210.977 241.044 184.513 241.892C157.492 242.758 131.422 243.811 119.909 246.369C108.396 248.928 105.837 263.64 105.837 263.64C105.837 263.64 99.4153 253.532 96.882 246.369C93.1007 235.678 92.8589 228.924 93.0442 217.586C93.2093 207.483 93.6843 192 96.882 192Z" fill="url(#paint31_linear_1732_137)"/>
    <path d="M104.776 263.226C105.828 256.151 107.334 252.352 113.09 247.235C118.845 242.117 194.324 240.199 194.324 240.199L275.559 236.361L299.866 324.632C299.866 324.632 232.064 343.181 189.208 332.307C146.352 321.433 137.61 314.397 129.082 308.001C120.553 301.605 117.593 297.493 112.451 289.451C106.702 280.461 103.205 273.781 104.776 263.226Z" fill="url(#paint32_linear_1732_137)"/>
    <g filter="url(#filter9_i_1732_137)">
      <path d="M357.378 4.2062C366.973 1.64722 383.362 -2.58066 394.478 6.76476C399.569 11.0449 404.072 15.7197 404.072 20.8368C404.072 25.9539 384.883 89.2703 384.883 89.2703C384.883 89.2703 351.955 74.0669 329.234 65.6036C301.047 55.1039 254.396 47.0622 254.396 47.0622C254.396 47.0622 284.617 33.4455 304.928 24.6747C325.114 15.9576 347.784 6.76518 357.378 4.2062Z" fill="url(#paint33_linear_1732_137)"/>
    </g>
    <path d="M203.865 191.575C203.865 200.053 184.036 204.368 167.406 203.728C158.221 203.728 152.054 195.576 152.054 187.097C152.054 178.619 155.023 167.908 164.207 167.908C185.315 168.548 203.865 176.224 203.865 191.575Z" fill="url(#paint34_linear_1732_137)"/>
    <path d="M155.892 154.474C158.451 167.267 172.753 182.619 163.568 182.619C148.216 182.619 126.469 174.447 126.469 162.79C126.469 151.132 131.586 141.682 141.82 141.682C152.694 141.682 153.945 144.737 155.892 154.474Z" fill="url(#paint35_linear_1732_137)"/>
    <path d="M199.389 135.926C178.96 157.131 171.785 186.205 162.285 183.257C168.681 160.23 159.386 141.682 165.487 121.853C170.606 105.22 180.413 99.2968 189.913 102.245C204.501 105.223 212.851 121.951 199.389 135.926Z" fill="url(#paint36_linear_1732_137)"/>
    <g filter="url(#filter10_i_1732_137)">
      <path d="M188.515 196.693C208.343 207.352 208.982 219.65 202.586 228.035C198.515 233.372 185.956 229.322 173.807 205.017C168.046 195.064 159.195 195.71 163.266 190.374C167.337 185.037 167.746 185.529 188.515 196.693Z" fill="url(#paint37_linear_1732_137)"/>
    </g>
    <g filter="url(#filter11_i_1732_137)">
      <path d="M163.569 228.033C157.3 259.375 156.531 270.249 151.414 270.249C148.235 270.249 141.544 247.862 145.659 238.267C153.334 220.357 154.633 197.97 157.812 197.97C162.929 198.609 166.767 212.042 163.569 228.033Z" fill="url(#paint38_linear_1732_137)"/>
    </g>
    <g filter="url(#filter12_d_1732_137)">
      <ellipse cx="161.258" cy="186.063" rx="10.2342" ry="14.7117" transform="rotate(-1.18466 161.258 186.063)" fill="url(#paint39_linear_1732_137)"/>
    </g>
    <g filter="url(#filter13_di_1732_137)">
      <path d="M159.978 186.094C160.117 192.804 158.311 198.284 152.555 198.403C148.317 198.491 143.49 193.148 143.351 186.438C143.212 179.727 147.814 174.19 152.053 174.102C159.727 173.943 159.839 179.383 159.978 186.094Z" fill="url(#paint40_linear_1732_137)"/>
    </g>
    <path d="M120.119 83.4876C120.119 83.4876 121.401 61.7406 148.264 52.7852C175.128 43.8299 205.16 43.3124 241.652 45.7492C299.997 49.6453 361.268 77.0919 384.931 89.2447C408.594 101.397 429.062 114.191 432.9 121.226C436.738 128.262 437.173 131.525 437.382 137.218C437.557 142.019 435.463 149.371 435.463 149.371C435.463 149.371 359.937 119.975 313.244 112.299C266.55 104.623 173.85 117.389 173.85 117.389C173.85 117.389 155.3 91.8032 152.742 87.3258C150.183 82.8483 149.535 92.4425 133.549 89.884C117.562 87.3254 120.119 83.4876 120.119 83.4876Z" fill="url(#paint41_linear_1732_137)"/>
    <path d="M173.207 120C173.207 116.162 182.161 112.324 186.639 111.685C191.118 111.046 271.771 103.624 324.802 113.604C367.265 121.594 427.782 145.531 432.901 148.09C438.019 150.649 436.101 166.041 434.18 176.874C432.187 188.113 426.503 202.459 422.027 204.379C419.899 205.291 307.533 196.118 307.533 196.118C307.533 196.118 184.815 186.218 182.802 185.883C178.964 185.243 178.247 167.681 176.405 155.82C174.25 141.942 173.207 123.838 173.207 120Z" fill="url(#paint42_linear_1732_137)"/>
    <path d="M183.262 185.19C189.198 185.83 416.09 203.74 420.568 203.74C425.046 203.74 420.098 222.717 414.811 233.163C408.75 245.141 396.261 257.47 390.505 257.47C384.749 257.47 180.064 251.713 176.226 252.353C172.387 252.992 173.081 234.839 173.667 223.569C174.469 208.141 177.325 184.551 183.262 185.19Z" fill="url(#paint43_linear_1732_137)"/>
    <path d="M174.488 251.716L390.686 257.473C390.686 257.473 376.156 281.509 362.542 292.653C350.432 302.565 341.86 305.952 327.362 311.842C291.76 326.305 267.668 329.058 229.497 324.635C201.922 321.439 167.451 310.629 161.055 302.887C156.376 297.223 154.658 294.572 152.099 290.094C149.541 285.617 156.039 274.975 161.055 267.707C165.688 260.994 174.488 251.716 174.488 251.716Z" fill="url(#paint44_linear_1732_137)"/>
    <g filter="url(#filter14_i_1732_137)">
      <path d="M272.425 280.494C271.358 274.098 277.539 272.818 289.695 269.62C301.851 266.422 335.113 261.946 344.704 266.422C354.296 270.898 387.557 320.151 390.119 323.99C392.68 327.829 391.395 333.583 385.641 335.503C379.887 337.423 339.698 329.848 314.641 315.674C295.962 305.108 273.492 286.89 272.425 280.494Z" fill="url(#paint45_linear_1732_137)"/>
    </g>
  </g>
  <path d="M306.49 157.868C305.377 159.132 304.057 160.174 302.53 160.983C300.943 161.818 299.175 162.392 297.227 162.765C295.406 163.137 293.659 163.233 291.813 163.042C291.813 163.042 287.918 162.655 283.85 162.256C279.684 161.85 275.562 161.448 275.562 161.448C275.17 161.4 274.771 161.309 274.424 161.139C274.069 160.99 273.781 160.793 273.521 160.567C273.269 160.32 273.087 160.047 272.941 159.735C272.819 159.436 272.786 159.09 272.788 158.768C272.788 158.768 272.843 157.43 272.898 155.415C272.922 153.409 272.882 150.733 272.616 148.041C272.058 145.329 271.423 142.601 270.897 140.556C270.327 138.509 269.919 137.149 269.919 137.149C269.846 136.821 269.827 136.497 269.868 136.219C269.929 135.932 270.071 135.682 270.232 135.485C270.446 135.282 270.712 135.144 271.031 135.063C271.345 134.96 271.722 134.976 272.143 135.005C272.143 135.005 276.22 135.394 280.398 135.811C284.455 136.209 288.363 136.608 288.363 136.608C290.231 136.801 292.021 137.248 294.058 137.973C297.314 139.143 302.118 141.265 304.716 143.89C306.092 145.359 307.22 147.704 307.935 149.325C308.425 152.858 308.638 155.317 306.49 157.868ZM300.564 146.074C299.737 145.236 298.781 144.524 297.74 143.89C296.678 143.254 295.537 142.726 294.285 142.306C293.044 141.886 291.754 141.63 290.579 141.496C290.579 141.496 287.294 141.183 283.931 140.854C280.48 140.508 276.967 140.18 276.967 140.18C276.967 140.18 277.327 141.235 277.837 142.841C278.325 144.436 278.853 146.553 279.276 148.684C279.502 150.79 279.522 152.872 279.472 154.44C279.344 155.991 279.242 157.034 279.242 157.034C279.242 157.034 282.754 157.363 286.205 157.709C289.568 158.037 292.846 158.371 292.846 158.371C293.985 158.481 295.254 158.466 296.397 158.265C297.572 158.067 298.639 157.725 299.567 157.311C300.483 156.824 301.278 156.245 301.906 155.561C302.553 154.857 302.53 154.456 302.53 151.397C302.084 148.746 302.731 148.316 300.564 146.074ZM317.835 150.132C323.706 150.655 326.87 150.743 332.756 151.397C331.826 147.531 331.331 144.682 328.96 140.799L334.493 141.414C340.114 151.397 340.114 159.735 336.615 167.756L331.331 167.168C332.247 163.042 332.756 160.198 332.756 156.495C327.007 155.864 324.079 155.565 318.33 154.941C317.59 158.705 317.896 162.273 316.442 165.672L309.845 164.885C313.24 155.915 312.554 148.553 306.692 138.441L313.383 139.162C315.884 142.793 316.234 146.177 317.835 150.132ZM357.738 152.417C360.797 149.358 362.836 146.809 365.725 143.89L373.032 144.682C368.954 150.132 366.678 153.195 363.855 156.495C367.424 161.594 372.522 167.202 376.091 172.3L366.405 171.28C364.685 168.017 360.287 162.613 357.738 159.554C353.659 163.615 351.11 165.386 347.165 168.962L339.95 168.114C344.992 163.633 348.561 160.983 352.735 155.837C350.6 151.397 347.541 148.338 340.114 141.496L347.219 142.325C351.62 145.279 354.169 148.848 357.738 152.417Z" fill="url(#paint46_linear_1732_137)"/>
  <path d="M227.624 138.698L226.893 137.84L226.893 137.84L227.624 138.698ZM225.485 140.727L224.584 140.031L225.485 140.727ZM230.429 137.129L231.25 136.793L230.429 137.129ZM230.329 137.529L229.813 136.579L230.329 137.529ZM217.219 126.273L217.417 125.411L217.219 126.273ZM216.856 126.509L215.851 126.426L216.856 126.509ZM217.219 126.273L217.021 127.136C221.161 129.015 223.926 131.05 225.831 132.862C227.739 134.676 228.828 136.304 229.608 137.465L230.429 137.129L231.25 136.793C230.453 135.609 229.217 133.753 227.055 131.697C224.89 129.639 221.839 127.418 217.417 125.411L217.219 126.273ZM230.329 137.529L229.813 136.579C228.767 136.846 227.783 137.263 226.893 137.84L227.624 138.698L228.355 139.555C229.116 139.061 229.955 138.705 230.845 138.479L230.329 137.529ZM227.624 138.698L226.893 137.84C225.96 138.445 225.191 139.187 224.584 140.031L225.485 140.727L226.386 141.423C226.903 140.704 227.558 140.071 228.355 139.555L227.624 138.698ZM225.015 140.698L225.618 140.108C224.571 139.126 223.09 137.753 221.638 135.634C220.188 133.518 218.738 130.613 217.86 126.592L216.856 126.509L215.851 126.426C216.788 130.72 218.362 133.92 220.01 136.325C221.655 138.727 223.346 140.29 224.411 141.288L225.015 140.698ZM225.485 140.727L224.584 140.031C224.776 139.764 225.254 139.767 225.618 140.108L225.015 140.698L224.411 141.288C225.089 141.923 226.008 141.948 226.386 141.423L225.485 140.727ZM230.429 137.129L229.608 137.465C229.339 137.065 229.47 136.667 229.813 136.579L230.329 137.529L230.845 138.479C231.521 138.307 231.75 137.536 231.25 136.793L230.429 137.129ZM217.219 126.273L217.417 125.411C216.478 124.984 215.654 125.519 215.851 126.426L216.856 126.509L217.86 126.592C217.967 127.079 217.526 127.365 217.021 127.136L217.219 126.273Z" fill="url(#paint47_linear_1732_137)"/>
  <path d="M224.189 143.924L223.192 143.519L223.192 143.519L224.189 143.924ZM224.129 147.145L225.131 147.277L224.129 147.145ZM224.961 140.78L224.659 141.61L224.961 140.78ZM225.149 141.239L224.233 140.606L225.149 141.239ZM209.484 137.789L209.877 138.764L209.484 137.789ZM209.4 138.247L208.731 138.789L209.4 138.247ZM209.484 137.789L209.877 138.764C213.757 138.202 216.855 138.598 219.257 139.277C221.662 139.956 223.414 140.929 224.659 141.61L224.961 140.78L225.262 139.949C224 139.258 222.022 138.156 219.319 137.393C216.613 136.629 213.226 136.216 209.09 136.814L209.484 137.789ZM225.149 141.239L224.233 140.606C223.743 141.47 223.387 142.444 223.192 143.519L224.189 143.924L225.186 144.33C225.351 143.422 225.651 142.601 226.064 141.873L225.149 141.239ZM224.189 143.924L223.192 143.519C222.985 144.655 222.971 145.831 223.127 147.013L224.129 147.145L225.131 147.277C224.999 146.281 225.011 145.29 225.186 144.33L224.189 143.924ZM223.812 147.404L223.832 146.459C222.532 146.106 220.691 145.626 218.377 144.392C216.068 143.16 213.246 141.15 210.07 137.705L209.4 138.247L208.731 138.789C212.118 142.463 215.197 144.677 217.8 146.067C220.399 147.454 222.482 147.993 223.792 148.349L223.812 147.404ZM224.129 147.145L223.127 147.013C223.077 146.629 223.382 146.337 223.832 146.459L223.812 147.404L223.792 148.349C224.629 148.576 225.232 148.034 225.131 147.277L224.129 147.145ZM224.961 140.78L224.659 141.61C224.233 141.377 224.067 140.899 224.233 140.606L225.149 141.239L226.064 141.873C226.393 141.294 226.054 140.382 225.262 139.949L224.961 140.78ZM209.484 137.789L209.09 136.814C208.199 136.943 208.007 138.004 208.731 138.789L209.4 138.247L210.07 137.705C210.459 138.127 210.356 138.694 209.877 138.764L209.484 137.789Z" fill="url(#paint48_linear_1732_137)"/>
  <path d="M225.242 150.965L224.343 151.147L224.343 151.147L225.242 150.965ZM227.282 154.151L228.008 153.7L227.282 154.151ZM227.246 154.589L227.843 155.525L227.246 154.589ZM224.122 147.781L223.127 147.691L224.122 147.781ZM211.88 153.486L212.76 154.211L211.88 153.486ZM212.122 153.982L212.045 154.901L212.122 153.982ZM211.88 153.486L212.76 154.211C214.878 151.412 217.115 150.004 219.088 149.276C221.064 148.546 222.812 148.483 224.048 148.428L223.704 147.44L223.361 146.452C222.109 146.508 220.132 146.576 217.912 147.396C215.689 148.217 213.257 149.776 210.999 152.76L211.88 153.486ZM224.122 147.781L223.127 147.691C223.372 148.822 223.774 149.982 224.343 151.147L225.242 150.965L226.141 150.784C225.661 149.8 225.322 148.822 225.116 147.87L224.122 147.781ZM225.242 150.965L224.343 151.147C224.944 152.378 225.693 153.537 226.556 154.603L227.282 154.151L228.008 153.7C227.281 152.802 226.65 151.825 226.141 150.784L225.242 150.965ZM227.246 154.589L226.649 153.652C225.59 154.06 224.104 154.659 221.828 154.792C219.556 154.924 216.455 154.594 212.2 153.063L212.122 153.982L212.045 154.901C216.581 156.533 219.979 156.916 222.54 156.766C225.097 156.616 226.776 155.937 227.843 155.525L227.246 154.589ZM227.282 154.151L226.556 154.603C226.276 154.257 226.283 153.793 226.649 153.652L227.246 154.589L227.843 155.525C228.525 155.262 228.561 154.383 228.008 153.7L227.282 154.151ZM223.704 147.44L224.048 148.428C223.625 148.446 223.21 148.075 223.127 147.691L224.122 147.781L225.116 147.87C224.952 147.113 224.147 146.417 223.361 146.452L223.704 147.44ZM211.88 153.486L210.999 152.76C210.513 153.402 211.075 154.552 212.045 154.901L212.122 153.982L212.2 153.063C212.721 153.251 213.022 153.866 212.76 154.211L211.88 153.486Z" fill="url(#paint49_linear_1732_137)"/>
  <path d="M230.499 157.236L230.031 157.951L230.031 157.951L230.499 157.236ZM227.239 154.677L228.069 155.436L227.239 154.677ZM227.716 154.757L228.405 154.238L227.716 154.757ZM223.586 167.468L224.602 167.624C224.147 163.654 224.666 160.983 225.454 159.132C226.242 157.278 227.315 156.206 228.069 155.436L227.239 154.677L226.409 153.919C225.644 154.7 224.418 155.919 223.525 158.02C222.63 160.124 222.082 163.072 222.569 167.311L223.586 167.468ZM227.716 154.757L227.026 155.275C227.911 156.24 228.916 157.142 230.031 157.951L230.499 157.236L230.968 156.521C230.015 155.829 229.158 155.06 228.405 154.238L227.716 154.757ZM230.499 157.236L230.031 157.951C231.21 158.808 232.437 159.505 233.676 160.046L233.876 159.177L234.076 158.308C233.021 157.847 231.975 157.253 230.968 156.521L230.499 157.236ZM234.12 159.62L233.152 159.073C232.739 160.087 232.177 161.529 230.812 162.973C229.45 164.415 227.257 165.888 223.544 166.856L224.044 167.801L224.544 168.746C228.509 167.712 230.939 166.113 232.488 164.473C234.034 162.836 234.672 161.188 235.089 160.167L234.12 159.62ZM233.876 159.177L233.676 160.046C233.284 159.875 233.008 159.426 233.152 159.073L234.12 159.62L235.089 160.167C235.357 159.509 234.848 158.644 234.076 158.308L233.876 159.177ZM227.239 154.677L228.069 155.436C227.809 155.701 227.318 155.593 227.026 155.275L227.716 154.757L228.405 154.238C227.83 153.611 226.893 153.425 226.409 153.919L227.239 154.677ZM223.586 167.468L222.569 167.311C222.672 168.207 223.712 168.962 224.544 168.746L224.044 167.801L223.544 166.856C223.991 166.739 224.547 167.142 224.602 167.624L223.586 167.468Z" fill="url(#paint50_linear_1732_137)"/>
  <path d="M234.369 137.33L234.205 136.344L234.205 136.344L234.369 137.33ZM230.956 137.388L230.531 136.406L230.956 137.388ZM230.522 137.095L229.566 137.13L230.522 137.095ZM238.126 137.952L237.119 137.686L238.126 137.952ZM237.779 138.154L237.874 137.23L237.779 138.154ZM232.197 123.346L232.925 122.888L232.197 123.346ZM231.701 123.287L230.787 122.635L231.701 123.287ZM232.197 123.346L231.469 123.804C234.309 127.406 235.7 130.306 236.395 132.563C237.09 134.824 237.105 136.491 237.119 137.686L238.126 137.952L239.132 138.218C239.117 136.998 239.105 135.088 238.313 132.513C237.52 129.933 235.962 126.738 232.925 122.888L232.197 123.346ZM237.779 138.154L237.874 137.23C236.678 136.794 235.447 136.491 234.205 136.344L234.369 137.33L234.534 138.316C235.603 138.443 236.66 138.703 237.684 139.077L237.779 138.154ZM234.369 137.33L234.205 136.344C232.902 136.189 231.67 136.218 230.531 136.406L230.956 137.388L231.381 138.37C232.356 138.208 233.413 138.184 234.534 138.316L234.369 137.33ZM230.522 137.095L231.478 137.06C231.087 135.824 230.525 134.093 230.472 131.901C230.42 129.714 230.875 127.019 232.614 123.94L231.701 123.287L230.787 122.635C228.928 125.927 228.4 128.89 228.46 131.391C228.52 133.888 229.168 135.874 229.566 137.13L230.522 137.095ZM230.956 137.388L230.531 136.406C230.885 136.348 231.342 136.628 231.478 137.06L230.522 137.095L229.566 137.13C229.821 137.933 230.685 138.485 231.381 138.37L230.956 137.388ZM238.126 137.952L237.119 137.686C237.114 137.272 237.488 137.09 237.874 137.23L237.779 138.154L237.684 139.077C238.441 139.354 239.142 138.987 239.132 138.218L238.126 137.952ZM232.197 123.346L232.925 122.888C232.288 122.079 231.175 121.948 230.787 122.635L231.701 123.287L232.614 123.94C232.406 124.309 231.812 124.239 231.469 123.804L232.197 123.346Z" fill="url(#paint51_linear_1732_137)"/>
  <path d="M241.844 140.379L242.313 139.664L242.313 139.664L241.844 140.379ZM238.476 138.442L238.677 137.573L238.476 138.442ZM238.232 138L237.263 137.454L238.232 138ZM245.12 142.956L244.291 142.198L245.12 142.956ZM244.644 142.876L245.335 142.359L244.644 142.876ZM248.748 130.191L247.731 130.035C248.184 133.983 247.673 136.646 246.894 138.496C246.113 140.349 245.047 141.426 244.291 142.198L245.12 142.956L245.95 143.715C246.722 142.927 247.939 141.703 248.824 139.604C249.71 137.502 250.249 134.563 249.765 130.347L248.748 130.191ZM244.644 142.876L245.335 142.359C244.446 141.387 243.435 140.479 242.313 139.664L241.844 140.379L241.375 141.094C242.335 141.792 243.197 142.566 243.954 143.393L244.644 142.876ZM241.844 140.379L242.313 139.664C241.136 138.81 239.913 138.114 238.677 137.573L238.476 138.442L238.275 139.311C239.328 139.771 240.371 140.365 241.375 141.094L241.844 140.379ZM238.232 138L239.2 138.546C239.614 137.53 240.184 136.093 241.55 134.658C242.913 133.225 245.101 131.764 248.789 130.803L248.29 129.858L247.79 128.913C243.851 129.94 241.427 131.525 239.877 133.154C238.329 134.781 237.683 136.421 237.263 137.454L238.232 138ZM238.476 138.442L238.677 137.573C239.067 137.744 239.344 138.193 239.2 138.546L238.232 138L237.263 137.454C236.995 138.111 237.505 138.975 238.275 139.311L238.476 138.442ZM245.12 142.956L244.291 142.198C244.551 141.931 245.044 142.041 245.335 142.359L244.644 142.876L243.954 143.393C244.527 144.021 245.466 144.209 245.95 143.715L245.12 142.956ZM248.748 130.191L249.765 130.347C249.662 129.451 248.621 128.696 247.79 128.913L248.29 129.858L248.789 130.803C248.342 130.92 247.787 130.517 247.731 130.035L248.748 130.191Z" fill="url(#paint52_linear_1732_137)"/>
  <path d="M247.067 146.508L247.966 146.327L247.966 146.327L247.067 146.508ZM248.226 149.872L249.223 149.977L248.226 149.872ZM245.196 143.05L244.599 142.113L245.196 143.05ZM245.156 143.482L244.419 143.92L245.156 143.482ZM260.278 143.676L260.356 142.757L260.278 143.676ZM260.278 143.676L260.201 144.595C255.974 143.074 252.886 142.738 250.618 142.864C248.347 142.989 246.855 143.578 245.792 143.986L245.196 143.05L244.599 142.113C245.677 141.699 247.36 141.03 249.912 140.889C252.467 140.748 255.85 141.136 260.356 142.757L260.278 143.676ZM245.156 143.482L245.893 143.045C246.698 144.063 247.398 145.162 247.966 146.327L247.067 146.508L246.168 146.689C245.687 145.704 245.096 144.777 244.419 143.92L245.156 143.482ZM247.067 146.508L247.966 146.327C248.568 147.558 248.984 148.785 249.223 149.977L248.226 149.872L247.228 149.768C247.027 148.764 246.676 147.73 246.168 146.689L247.067 146.508ZM248.644 150.218L248.302 149.23C249.534 149.177 251.286 149.123 253.273 148.398C255.256 147.673 257.508 146.265 259.64 143.447L260.521 144.173L261.402 144.899C259.129 147.902 256.679 149.463 254.444 150.279C252.212 151.094 250.228 151.152 248.987 151.206L248.644 150.218ZM248.226 149.872L249.223 149.977C249.146 149.59 248.728 149.212 248.302 149.23L248.644 150.218L248.987 151.206C248.193 151.24 247.382 150.531 247.228 149.768L248.226 149.872ZM245.196 143.05L245.792 143.986C246.156 143.847 246.166 143.389 245.893 143.045L245.156 143.482L244.419 143.92C243.881 143.239 243.923 142.372 244.599 142.113L245.196 143.05ZM260.278 143.676L260.356 142.757C261.327 143.106 261.888 144.256 261.402 144.899L260.521 144.173L259.64 143.447C259.379 143.792 259.678 144.407 260.201 144.595L260.278 143.676Z" fill="url(#paint53_linear_1732_137)"/>
  <path d="M248.268 153.628L249.266 154.033L249.266 154.033L248.268 153.628ZM247.23 156.45L248.138 157.095L247.23 156.45ZM248.668 150.332L248.647 151.276L248.668 150.332ZM263.026 159.477L263.695 158.934L263.026 159.477ZM262.942 159.935L263.336 160.909L262.942 159.935ZM263.026 159.477L262.356 160.019C259.201 156.597 256.396 154.592 254.096 153.357C251.792 152.12 249.952 151.632 248.647 151.276L248.668 150.332L248.689 149.387C250.011 149.747 252.091 150.296 254.679 151.685C257.271 153.076 260.332 155.286 263.695 158.934L263.026 159.477ZM248.35 150.585L249.354 150.733C249.485 151.85 249.461 152.959 249.266 154.033L248.268 153.628L247.271 153.222C247.436 152.314 247.456 151.379 247.346 150.438L248.35 150.585ZM248.268 153.628L249.266 154.033C249.059 155.17 248.674 156.194 248.138 157.095L247.23 156.45L246.321 155.805C246.772 155.046 247.097 154.182 247.271 153.222L248.268 153.628ZM247.416 156.914L247.719 156.084C248.959 156.764 250.709 157.745 253.122 158.433C255.53 159.12 258.643 159.525 262.549 158.96L262.942 159.935L263.336 160.909C259.173 161.512 255.768 161.089 253.053 160.315C250.342 159.542 248.363 158.429 247.113 157.744L247.416 156.914ZM247.23 156.45L248.138 157.095C248.312 156.803 248.147 156.319 247.719 156.084L247.416 156.914L247.113 157.744C246.315 157.306 245.978 156.382 246.321 155.805L247.23 156.45ZM248.668 150.332L248.647 151.276C249.093 151.398 249.398 151.111 249.354 150.733L248.35 150.585L247.346 150.438C247.259 149.691 247.86 149.161 248.689 149.387L248.668 150.332ZM263.026 159.477L263.695 158.934C264.42 159.72 264.226 160.781 263.336 160.909L262.942 159.935L262.549 158.96C262.07 159.029 261.967 159.596 262.356 160.019L263.026 159.477Z" fill="url(#paint54_linear_1732_137)"/>
  <path d="M244.846 158.87L245.577 159.727L245.577 159.727L244.846 158.87ZM241.993 160.072L242.497 161.025L241.993 160.072ZM247.366 156.994L246.76 157.583L247.366 156.994ZM246.897 156.961L246.004 156.256L246.897 156.961ZM255.519 171.181L254.514 171.098L255.519 171.181ZM255.519 171.181L254.514 171.098C253.637 167.079 252.188 164.175 250.739 162.059C249.288 159.94 247.808 158.566 246.76 157.583L247.366 156.994L247.971 156.406C249.033 157.403 250.723 158.968 252.368 161.368C254.014 163.773 255.587 166.972 256.523 171.264L255.519 171.181ZM246.897 156.961L247.791 157.667C247.199 158.457 246.461 159.153 245.577 159.727L244.846 158.87L244.115 158.012C244.871 157.523 245.5 156.929 246.004 156.256L246.897 156.961ZM244.846 158.87L245.577 159.727C244.641 160.333 243.602 160.762 242.497 161.025L241.993 160.072L241.489 159.119C242.431 158.895 243.316 158.53 244.115 158.012L244.846 158.87ZM241.889 160.474L242.711 160.139C243.486 161.293 244.561 162.929 246.472 164.761C248.38 166.59 251.163 168.651 255.354 170.554L255.155 171.417L254.957 172.279C250.481 170.247 247.409 167.996 245.239 165.917C243.074 163.841 241.85 161.973 241.068 160.809L241.889 160.474ZM241.993 160.072L242.497 161.025C242.847 160.941 242.98 160.541 242.711 160.139L241.889 160.474L241.068 160.809C240.565 160.06 240.801 159.283 241.489 159.119L241.993 160.072ZM247.366 156.994L246.76 157.583C247.121 157.921 247.595 157.928 247.791 157.667L246.897 156.961L246.004 156.256C246.388 155.742 247.3 155.775 247.971 156.406L247.366 156.994ZM255.519 171.181L256.523 171.264C256.721 172.171 255.896 172.705 254.957 172.279L255.155 171.417L255.354 170.554C254.849 170.325 254.408 170.61 254.514 171.098L255.519 171.181Z" fill="url(#paint55_linear_1732_137)"/>
  <path d="M240.645 174.354L241.558 175.006L241.558 175.006L240.645 174.354ZM240.146 174.295L239.418 174.753L239.418 174.753L240.146 174.295ZM237.955 160.266L238.119 161.252L238.119 161.252L237.955 160.266ZM241.375 160.206L240.95 159.224L241.375 160.206ZM241.81 160.5L242.766 160.466L241.81 160.5ZM234.565 159.448L234.659 158.524L234.565 159.448ZM240.645 174.354L239.731 173.701C239.94 173.332 240.532 173.402 240.875 173.837L240.146 174.295L239.418 174.753C240.055 175.561 241.17 175.693 241.558 175.006L240.645 174.354ZM240.146 174.295L240.875 173.837C238.02 170.216 236.629 167.303 235.939 165.041C235.247 162.775 235.24 161.109 235.225 159.917L234.219 159.651L233.212 159.385C233.227 160.595 233.231 162.505 234.019 165.087C234.808 167.673 236.366 170.882 239.418 174.753L240.146 174.295ZM234.565 159.448L234.472 160.372C235.66 160.805 236.884 161.106 238.119 161.252L237.955 160.266L237.79 159.279C236.727 159.153 235.677 158.895 234.659 158.524L234.565 159.448ZM237.955 160.266L238.119 161.252C239.425 161.407 240.659 161.378 241.8 161.188L241.375 160.206L240.95 159.224C239.972 159.387 238.913 159.412 237.79 159.279L237.955 160.266ZM241.81 160.5L240.853 160.535C241.243 161.767 241.813 163.499 241.872 165.698C241.931 167.893 241.481 170.603 239.731 173.701L240.645 174.354L241.558 175.006C243.429 171.693 243.952 168.714 243.885 166.203C243.817 163.698 243.16 161.709 242.766 160.466L241.81 160.5ZM241.375 160.206L241.8 161.188C241.445 161.247 240.99 160.965 240.853 160.535L241.81 160.5L242.766 160.466C242.512 159.663 241.648 159.108 240.95 159.224L241.375 160.206ZM234.219 159.651L235.225 159.917C235.23 160.329 234.858 160.513 234.472 160.372L234.565 159.448L234.659 158.524C233.9 158.248 233.202 158.618 233.212 159.385L234.219 159.651Z" fill="url(#paint56_linear_1732_137)"/>
  <defs>
    <filter id="filter0_i_1732_137" x="116.642" y="203.91" width="100.502" height="62.1459" filterUnits="userSpaceOnUse" color-interpolation-filters="sRGB">
      <feFlood flood-opacity="0" result="BackgroundImageFix"/>
      <feBlend mode="normal" in="SourceGraphic" in2="BackgroundImageFix" result="shape"/>
      <feColorMatrix in="SourceAlpha" type="matrix" values="0 0 0 0 0 0 0 0 0 0 0 0 0 0 0 0 0 0 127 0" result="hardAlpha"/>
      <feOffset dx="-2.03928" dy="4.07856"/>
      <feGaussianBlur stdDeviation="2.95695"/>
      <feComposite in2="hardAlpha" operator="arithmetic" k2="-1" k3="1"/>
      <feColorMatrix type="matrix" values="0 0 0 0 0.976471 0 0 0 0 0.980392 0 0 0 0 0.968627 0 0 0 1 0"/>
      <feBlend mode="normal" in2="shape" result="effect1_innerShadow_1732_137"/>
    </filter>
    <filter id="filter1_i_1732_137" x="57.0311" y="326.318" width="29.9425" height="30.3469" filterUnits="userSpaceOnUse" color-interpolation-filters="sRGB">
      <feFlood flood-opacity="0" result="BackgroundImageFix"/>
      <feBlend mode="normal" in="SourceGraphic" in2="BackgroundImageFix" result="shape"/>
      <feColorMatrix in="SourceAlpha" type="matrix" values="0 0 0 0 0 0 0 0 0 0 0 0 0 0 0 0 0 0 127 0" result="hardAlpha"/>
      <feOffset dx="-1.01964" dy="2.03928"/>
      <feGaussianBlur stdDeviation="1.07062"/>
      <feComposite in2="hardAlpha" operator="arithmetic" k2="-1" k3="1"/>
      <feColorMatrix type="matrix" values="0 0 0 0 0.796078 0 0 0 0 0.701961 0 0 0 0 0.568627 0 0 0 1 0"/>
      <feBlend mode="normal" in2="shape" result="effect1_innerShadow_1732_137"/>
    </filter>
    <filter id="filter2_i_1732_137" x="44.6645" y="333.485" width="15.0377" height="49.1793" filterUnits="userSpaceOnUse" color-interpolation-filters="sRGB">
      <feFlood flood-opacity="0" result="BackgroundImageFix"/>
      <feBlend mode="normal" in="SourceGraphic" in2="BackgroundImageFix" result="shape"/>
      <feColorMatrix in="SourceAlpha" type="matrix" values="0 0 0 0 0 0 0 0 0 0 0 0 0 0 0 0 0 0 127 0" result="hardAlpha"/>
      <feOffset dx="-4.07856" dy="8.15711"/>
      <feGaussianBlur stdDeviation="0.815711"/>
      <feComposite in2="hardAlpha" operator="arithmetic" k2="-1" k3="1"/>
      <feColorMatrix type="matrix" values="0 0 0 0 0.835294 0 0 0 0 0.690196 0 0 0 0 0.529412 0 0 0 1 0"/>
      <feBlend mode="normal" in2="shape" result="effect1_innerShadow_1732_137"/>
    </filter>
    <filter id="filter3_d_1732_137" x="44.8648" y="307.106" width="31.2095" height="37.0962" filterUnits="userSpaceOnUse" color-interpolation-filters="sRGB">
      <feFlood flood-opacity="0" result="BackgroundImageFix"/>
      <feColorMatrix in="SourceAlpha" type="matrix" values="0 0 0 0 0 0 0 0 0 0 0 0 0 0 0 0 0 0 127 0" result="hardAlpha"/>
      <feOffset dx="3.05892"/>
      <feGaussianBlur stdDeviation="4.43543"/>
      <feComposite in2="hardAlpha" operator="out"/>
      <feColorMatrix type="matrix" values="0 0 0 0 0 0 0 0 0 0 0 0 0 0 0 0 0 0 0.25 0"/>
      <feBlend mode="normal" in2="BackgroundImageFix" result="effect1_dropShadow_1732_137"/>
      <feBlend mode="normal" in="SourceGraphic" in2="effect1_dropShadow_1732_137" result="shape"/>
    </filter>
    <filter id="filter4_di_1732_137" x="44.3024" y="316.456" width="15.5337" height="18.5384" filterUnits="userSpaceOnUse" color-interpolation-filters="sRGB">
      <feFlood flood-opacity="0" result="BackgroundImageFix"/>
      <feColorMatrix in="SourceAlpha" type="matrix" values="0 0 0 0 0 0 0 0 0 0 0 0 0 0 0 0 0 0 127 0" result="hardAlpha"/>
      <feOffset dx="2.03928"/>
      <feGaussianBlur stdDeviation="0.611784"/>
      <feComposite in2="hardAlpha" operator="out"/>
      <feColorMatrix type="matrix" values="0 0 0 0 0 0 0 0 0 0 0 0 0 0 0 0 0 0 0.25 0"/>
      <feBlend mode="normal" in2="BackgroundImageFix" result="effect1_dropShadow_1732_137"/>
      <feBlend mode="normal" in="SourceGraphic" in2="effect1_dropShadow_1732_137" result="shape"/>
      <feColorMatrix in="SourceAlpha" type="matrix" values="0 0 0 0 0 0 0 0 0 0 0 0 0 0 0 0 0 0 127 0" result="hardAlpha"/>
      <feOffset dx="-2.03928" dy="-3.05892"/>
      <feGaussianBlur stdDeviation="0.662766"/>
      <feComposite in2="hardAlpha" operator="arithmetic" k2="-1" k3="1"/>
      <feColorMatrix type="matrix" values="0 0 0 0 0.811765 0 0 0 0 0.694118 0 0 0 0 0.537255 0 0 0 1 0"/>
      <feBlend mode="normal" in2="shape" result="effect2_innerShadow_1732_137"/>
    </filter>
    <filter id="filter5_i_1732_137" x="130.465" y="374.215" width="78.3291" height="49.9388" filterUnits="userSpaceOnUse" color-interpolation-filters="sRGB">
      <feFlood flood-opacity="0" result="BackgroundImageFix"/>
      <feBlend mode="normal" in="SourceGraphic" in2="BackgroundImageFix" result="shape"/>
      <feColorMatrix in="SourceAlpha" type="matrix" values="0 0 0 0 0 0 0 0 0 0 0 0 0 0 0 0 0 0 127 0" result="hardAlpha"/>
      <feOffset dy="-3.05892"/>
      <feGaussianBlur stdDeviation="3.31383"/>
      <feComposite in2="hardAlpha" operator="arithmetic" k2="-1" k3="1"/>
      <feColorMatrix type="matrix" values="0 0 0 0 0.721569 0 0 0 0 0.74902 0 0 0 0 0.623529 0 0 0 0.69 0"/>
      <feBlend mode="normal" in2="shape" result="effect1_innerShadow_1732_137"/>
    </filter>
    <filter id="filter6_d_1732_137" x="146.276" y="380.746" width="611.017" height="521.058" filterUnits="userSpaceOnUse" color-interpolation-filters="sRGB">
      <feFlood flood-opacity="0" result="BackgroundImageFix"/>
      <feColorMatrix in="SourceAlpha" type="matrix" values="0 0 0 0 0 0 0 0 0 0 0 0 0 0 0 0 0 0 127 0" result="hardAlpha"/>
      <feOffset dy="4.07856"/>
      <feGaussianBlur stdDeviation="2.03928"/>
      <feComposite in2="hardAlpha" operator="out"/>
      <feColorMatrix type="matrix" values="0 0 0 0 0 0 0 0 0 0 0 0 0 0 0 0 0 0 0.25 0"/>
      <feBlend mode="normal" in2="BackgroundImageFix" result="effect1_dropShadow_1732_137"/>
      <feBlend mode="normal" in="SourceGraphic" in2="effect1_dropShadow_1732_137" result="shape"/>
    </filter>
    <filter id="filter7_d_1732_137" x="260.615" y="274.239" width="434.924" height="570.329" filterUnits="userSpaceOnUse" color-interpolation-filters="sRGB">
      <feFlood flood-opacity="0" result="BackgroundImageFix"/>
      <feColorMatrix in="SourceAlpha" type="matrix" values="0 0 0 0 0 0 0 0 0 0 0 0 0 0 0 0 0 0 127 0" result="hardAlpha"/>
      <feOffset dy="4.07856"/>
      <feGaussianBlur stdDeviation="0.152946"/>
      <feComposite in2="hardAlpha" operator="out"/>
      <feColorMatrix type="matrix" values="0 0 0 0 0 0 0 0 0 0 0 0 0 0 0 0 0 0 0.25 0"/>
      <feBlend mode="normal" in2="BackgroundImageFix" result="effect1_dropShadow_1732_137"/>
      <feBlend mode="normal" in="SourceGraphic" in2="effect1_dropShadow_1732_137" result="shape"/>
    </filter>
    <filter id="filter8_d_1732_137" x="66.8972" y="0.898033" width="396.597" height="387.002" filterUnits="userSpaceOnUse" color-interpolation-filters="sRGB">
      <feFlood flood-opacity="0" result="BackgroundImageFix"/>
      <feColorMatrix in="SourceAlpha" type="matrix" values="0 0 0 0 0 0 0 0 0 0 0 0 0 0 0 0 0 0 127 0" result="hardAlpha"/>
      <feOffset dy="26.0008"/>
      <feGaussianBlur stdDeviation="13.0514"/>
      <feComposite in2="hardAlpha" operator="out"/>
      <feColorMatrix type="matrix" values="0 0 0 0 0.151022 0 0 0 0 0.343736 0 0 0 0 0.481389 0 0 0 0.25 0"/>
      <feBlend mode="normal" in2="BackgroundImageFix" result="effect1_dropShadow_1732_137"/>
      <feBlend mode="normal" in="SourceGraphic" in2="effect1_dropShadow_1732_137" result="shape"/>
    </filter>
    <filter id="filter9_i_1732_137" x="252.357" y="1" width="151.715" height="92.3491" filterUnits="userSpaceOnUse" color-interpolation-filters="sRGB">
      <feFlood flood-opacity="0" result="BackgroundImageFix"/>
      <feBlend mode="normal" in="SourceGraphic" in2="BackgroundImageFix" result="shape"/>
      <feColorMatrix in="SourceAlpha" type="matrix" values="0 0 0 0 0 0 0 0 0 0 0 0 0 0 0 0 0 0 127 0" result="hardAlpha"/>
      <feOffset dx="-2.03928" dy="4.07856"/>
      <feGaussianBlur stdDeviation="2.95695"/>
      <feComposite in2="hardAlpha" operator="arithmetic" k2="-1" k3="1"/>
      <feColorMatrix type="matrix" values="0 0 0 0 0.976471 0 0 0 0 0.980392 0 0 0 0 0.968627 0 0 0 1 0"/>
      <feBlend mode="normal" in2="shape" result="effect1_innerShadow_1732_137"/>
    </filter>
    <filter id="filter10_i_1732_137" x="161.211" y="187.077" width="44.9845" height="45.0696" filterUnits="userSpaceOnUse" color-interpolation-filters="sRGB">
      <feFlood flood-opacity="0" result="BackgroundImageFix"/>
      <feBlend mode="normal" in="SourceGraphic" in2="BackgroundImageFix" result="shape"/>
      <feColorMatrix in="SourceAlpha" type="matrix" values="0 0 0 0 0 0 0 0 0 0 0 0 0 0 0 0 0 0 127 0" result="hardAlpha"/>
      <feOffset dx="-1.01964" dy="2.03928"/>
      <feGaussianBlur stdDeviation="1.07062"/>
      <feComposite in2="hardAlpha" operator="arithmetic" k2="-1" k3="1"/>
      <feColorMatrix type="matrix" values="0 0 0 0 0.796078 0 0 0 0 0.701961 0 0 0 0 0.568627 0 0 0 1 0"/>
      <feBlend mode="normal" in2="shape" result="effect1_innerShadow_1732_137"/>
    </filter>
    <filter id="filter11_i_1732_137" x="142.728" y="197.97" width="22.0103" height="73.9107" filterUnits="userSpaceOnUse" color-interpolation-filters="sRGB">
      <feFlood flood-opacity="0" result="BackgroundImageFix"/>
      <feBlend mode="normal" in="SourceGraphic" in2="BackgroundImageFix" result="shape"/>
      <feColorMatrix in="SourceAlpha" type="matrix" values="0 0 0 0 0 0 0 0 0 0 0 0 0 0 0 0 0 0 127 0" result="hardAlpha"/>
      <feOffset dx="-4.07856" dy="8.15711"/>
      <feGaussianBlur stdDeviation="0.815711"/>
      <feComposite in2="hardAlpha" operator="arithmetic" k2="-1" k3="1"/>
      <feColorMatrix type="matrix" values="0 0 0 0 0.835294 0 0 0 0 0.690196 0 0 0 0 0.529412 0 0 0 1 0"/>
      <feBlend mode="normal" in2="shape" result="effect1_innerShadow_1732_137"/>
    </filter>
    <filter id="filter12_d_1732_137" x="145.21" y="162.483" width="38.2144" height="47.1616" filterUnits="userSpaceOnUse" color-interpolation-filters="sRGB">
      <feFlood flood-opacity="0" result="BackgroundImageFix"/>
      <feColorMatrix in="SourceAlpha" type="matrix" values="0 0 0 0 0 0 0 0 0 0 0 0 0 0 0 0 0 0 127 0" result="hardAlpha"/>
      <feOffset dx="3.05892"/>
      <feGaussianBlur stdDeviation="4.43543"/>
      <feComposite in2="hardAlpha" operator="out"/>
      <feColorMatrix type="matrix" values="0 0 0 0 0 0 0 0 0 0 0 0 0 0 0 0 0 0 0.25 0"/>
      <feBlend mode="normal" in2="BackgroundImageFix" result="effect1_dropShadow_1732_137"/>
      <feBlend mode="normal" in="SourceGraphic" in2="effect1_dropShadow_1732_137" result="shape"/>
    </filter>
    <filter id="filter13_di_1732_137" x="142.022" y="172.773" width="21.2261" height="26.8548" filterUnits="userSpaceOnUse" color-interpolation-filters="sRGB">
      <feFlood flood-opacity="0" result="BackgroundImageFix"/>
      <feColorMatrix in="SourceAlpha" type="matrix" values="0 0 0 0 0 0 0 0 0 0 0 0 0 0 0 0 0 0 127 0" result="hardAlpha"/>
      <feOffset dx="2.03928"/>
      <feGaussianBlur stdDeviation="0.611784"/>
      <feComposite in2="hardAlpha" operator="out"/>
      <feColorMatrix type="matrix" values="0 0 0 0 0 0 0 0 0 0 0 0 0 0 0 0 0 0 0.25 0"/>
      <feBlend mode="normal" in2="BackgroundImageFix" result="effect1_dropShadow_1732_137"/>
      <feBlend mode="normal" in="SourceGraphic" in2="effect1_dropShadow_1732_137" result="shape"/>
      <feColorMatrix in="SourceAlpha" type="matrix" values="0 0 0 0 0 0 0 0 0 0 0 0 0 0 0 0 0 0 127 0" result="hardAlpha"/>
      <feOffset dx="-2.03928" dy="-3.05892"/>
      <feGaussianBlur stdDeviation="0.662766"/>
      <feComposite in2="hardAlpha" operator="arithmetic" k2="-1" k3="1"/>
      <feColorMatrix type="matrix" values="0 0 0 0 0.811765 0 0 0 0 0.694118 0 0 0 0 0.537255 0 0 0 1 0"/>
      <feBlend mode="normal" in2="shape" result="effect2_innerShadow_1732_137"/>
    </filter>
    <filter id="filter14_i_1732_137" x="272.307" y="261.475" width="119.069" height="74.3216" filterUnits="userSpaceOnUse" color-interpolation-filters="sRGB">
      <feFlood flood-opacity="0" result="BackgroundImageFix"/>
      <feBlend mode="normal" in="SourceGraphic" in2="BackgroundImageFix" result="shape"/>
      <feColorMatrix in="SourceAlpha" type="matrix" values="0 0 0 0 0 0 0 0 0 0 0 0 0 0 0 0 0 0 127 0" result="hardAlpha"/>
      <feOffset dy="-3.05892"/>
      <feGaussianBlur stdDeviation="3.31383"/>
      <feComposite in2="hardAlpha" operator="arithmetic" k2="-1" k3="1"/>
      <feColorMatrix type="matrix" values="0 0 0 0 0.721569 0 0 0 0 0.74902 0 0 0 0 0.623529 0 0 0 0.69 0"/>
      <feBlend mode="normal" in2="shape" result="effect1_innerShadow_1732_137"/>
    </filter>
    <linearGradient id="paint0_linear_1732_137" x1="28.2137" y1="307.424" x2="83.3361" y2="311.211" gradientUnits="userSpaceOnUse">
      <stop stop-color="#D9DAC9"/>
      <stop offset="1" stop-color="#C0BDB5"/>
    </linearGradient>
    <linearGradient id="paint1_linear_1732_137" x1="54.0179" y1="249.758" x2="77.0245" y2="308.265" gradientUnits="userSpaceOnUse">
      <stop stop-color="#F3F0E8"/>
      <stop offset="1" stop-color="#CAC7BD"/>
    </linearGradient>
    <linearGradient id="paint2_linear_1732_137" x1="14.3273" y1="348.659" x2="97.642" y2="375.589" gradientUnits="userSpaceOnUse">
      <stop stop-color="#D7D8C4"/>
      <stop offset="1" stop-color="#9A9C94"/>
    </linearGradient>
    <linearGradient id="paint3_linear_1732_137" x1="33.262" y1="413.46" x2="74.0778" y2="367.595" gradientUnits="userSpaceOnUse">
      <stop stop-color="#E0E0CB"/>
      <stop offset="1" stop-color="#AAB0A1"/>
    </linearGradient>
    <linearGradient id="paint4_linear_1732_137" x1="192.318" y1="189.604" x2="178.433" y2="246.409" gradientUnits="userSpaceOnUse">
      <stop stop-color="#BAB9AF"/>
      <stop offset="1" stop-color="#EDE7D0"/>
    </linearGradient>
    <linearGradient id="paint5_linear_1732_137" x1="66.0828" y1="318.365" x2="72.3945" y2="328.043" gradientUnits="userSpaceOnUse">
      <stop stop-color="#B19672"/>
      <stop offset="1" stop-color="#6B5B45"/>
    </linearGradient>
    <linearGradient id="paint6_linear_1732_137" x1="46.3073" y1="291.854" x2="34.5254" y2="328.042" gradientUnits="userSpaceOnUse">
      <stop stop-color="#877155"/>
      <stop offset="0.556502" stop-color="#D6B183"/>
    </linearGradient>
    <linearGradient id="paint7_linear_1732_137" x1="77.8651" y1="263.239" x2="60.1923" y2="324.673" gradientUnits="userSpaceOnUse">
      <stop stop-color="#8B7354"/>
      <stop offset="0.826065" stop-color="#D4B083"/>
    </linearGradient>
    <linearGradient id="paint8_linear_1732_137" x1="62.7179" y1="328.883" x2="85.8609" y2="352.026" gradientUnits="userSpaceOnUse">
      <stop stop-color="#FFEBCD"/>
      <stop offset="1" stop-color="#CEB48E"/>
    </linearGradient>
    <linearGradient id="paint9_linear_1732_137" x1="52.999" y1="333.485" x2="52.999" y2="381.034" gradientUnits="userSpaceOnUse">
      <stop stop-color="#FFECCC"/>
      <stop offset="1" stop-color="#D5B288"/>
    </linearGradient>
    <linearGradient id="paint10_linear_1732_137" x1="57.4106" y1="320.21" x2="66.2471" y2="326.942" gradientUnits="userSpaceOnUse">
      <stop stop-color="#E2BB88"/>
      <stop offset="1" stop-color="#6B5A42"/>
    </linearGradient>
    <linearGradient id="paint11_linear_1732_137" x1="50.9338" y1="317.792" x2="56.4052" y2="336.458" gradientUnits="userSpaceOnUse">
      <stop stop-color="#FCECCD"/>
      <stop offset="1" stop-color="#C4B69D"/>
    </linearGradient>
    <linearGradient id="paint12_linear_1732_137" x1="134.672" y1="243.045" x2="122.89" y2="295.643" gradientUnits="userSpaceOnUse">
      <stop stop-color="#FCFBF9"/>
      <stop offset="1" stop-color="#EEEADE"/>
    </linearGradient>
    <linearGradient id="paint13_linear_1732_137" x1="151.77" y1="274.582" x2="151.502" y2="322.99" gradientUnits="userSpaceOnUse">
      <stop stop-color="#FDF9F2"/>
      <stop offset="1" stop-color="#E3E3CE"/>
    </linearGradient>
    <linearGradient id="paint14_linear_1732_137" x1="151.923" y1="344.031" x2="147.294" y2="382.743" gradientUnits="userSpaceOnUse">
      <stop stop-color="#F0F1EA"/>
      <stop offset="1" stop-color="#D1CEB2"/>
    </linearGradient>
    <linearGradient id="paint15_linear_1732_137" x1="120.786" y1="379.376" x2="116.578" y2="428.187" gradientUnits="userSpaceOnUse">
      <stop stop-color="#E0E0CC"/>
      <stop offset="1" stop-color="#BEC6B6"/>
    </linearGradient>
    <linearGradient id="paint16_linear_1732_137" x1="170.018" y1="389.898" x2="181.8" y2="408.412" gradientUnits="userSpaceOnUse">
      <stop stop-color="#CED4B9"/>
      <stop offset="1" stop-color="#FBFBF5"/>
    </linearGradient>
    <linearGradient id="paint17_linear_1732_137" x1="96.9301" y1="289.645" x2="102.182" y2="297.747" gradientUnits="userSpaceOnUse">
      <stop stop-color="#6EC5CB"/>
      <stop offset="1" stop-color="#9AE591"/>
    </linearGradient>
    <linearGradient id="paint18_linear_1732_137" x1="92.5019" y1="296.428" x2="101.688" y2="298.098" gradientUnits="userSpaceOnUse">
      <stop stop-color="#6EC5CB"/>
      <stop offset="1" stop-color="#9AE591"/>
    </linearGradient>
    <linearGradient id="paint19_linear_1732_137" x1="93.9941" y1="305.594" x2="101.063" y2="302.143" gradientUnits="userSpaceOnUse">
      <stop stop-color="#6EC5CB"/>
      <stop offset="1" stop-color="#9AE591"/>
    </linearGradient>
    <linearGradient id="paint20_linear_1732_137" x1="100.883" y1="313.704" x2="105.237" y2="307.709" gradientUnits="userSpaceOnUse">
      <stop stop-color="#6EC5CB"/>
      <stop offset="1" stop-color="#9AE591"/>
    </linearGradient>
    <linearGradient id="paint21_linear_1732_137" x1="105.627" y1="287.849" x2="104.665" y2="295.979" gradientUnits="userSpaceOnUse">
      <stop stop-color="#6EC5CB"/>
      <stop offset="1" stop-color="#9AE591"/>
    </linearGradient>
    <linearGradient id="paint22_linear_1732_137" x1="115.294" y1="291.765" x2="110.955" y2="297.739" gradientUnits="userSpaceOnUse">
      <stop stop-color="#6EC5CB"/>
      <stop offset="1" stop-color="#9AE591"/>
    </linearGradient>
    <linearGradient id="paint23_linear_1732_137" x1="122.221" y1="299.873" x2="115.151" y2="303.325" gradientUnits="userSpaceOnUse">
      <stop stop-color="#6EC5CB"/>
      <stop offset="1" stop-color="#9AE591"/>
    </linearGradient>
    <linearGradient id="paint24_linear_1732_137" x1="123.728" y1="309.076" x2="114.541" y2="307.406" gradientUnits="userSpaceOnUse">
      <stop stop-color="#6EC5CB"/>
      <stop offset="1" stop-color="#9AE591"/>
    </linearGradient>
    <linearGradient id="paint25_linear_1732_137" x1="119.27" y1="315.841" x2="114" y2="307.713" gradientUnits="userSpaceOnUse">
      <stop stop-color="#6EC5CB"/>
      <stop offset="1" stop-color="#9AE591"/>
    </linearGradient>
    <linearGradient id="paint26_linear_1732_137" x1="110.556" y1="317.607" x2="111.521" y2="309.452" gradientUnits="userSpaceOnUse">
      <stop stop-color="#6EC5CB"/>
      <stop offset="1" stop-color="#9AE591"/>
    </linearGradient>
    <linearGradient id="paint27_linear_1732_137" x1="50.3164" y1="319.125" x2="789.045" y2="992.597" gradientUnits="userSpaceOnUse">
      <stop offset="0.20677" stop-color="#EFEDDE"/>
      <stop offset="1" stop-color="#89887F"/>
    </linearGradient>
    <linearGradient id="paint28_linear_1732_137" x1="276.165" y1="274.263" x2="776.298" y2="879.928" gradientUnits="userSpaceOnUse">
      <stop offset="0.313782" stop-color="#EFEDDE"/>
      <stop offset="0.636708" stop-color="#C8CBBB"/>
    </linearGradient>
    <linearGradient id="paint29_linear_1732_137" x1="134.264" y1="162.289" x2="218.057" y2="168.046" gradientUnits="userSpaceOnUse">
      <stop stop-color="#D9DAC9"/>
      <stop offset="1" stop-color="#C0BDB5"/>
    </linearGradient>
    <linearGradient id="paint30_linear_1732_137" x1="172.1" y1="70.6953" x2="207.073" y2="159.633" gradientUnits="userSpaceOnUse">
      <stop stop-color="#F3F0E8"/>
      <stop offset="1" stop-color="#CAC7BD"/>
    </linearGradient>
    <linearGradient id="paint31_linear_1732_137" x1="113.468" y1="222.091" x2="240.117" y2="263.027" gradientUnits="userSpaceOnUse">
      <stop stop-color="#D7D8C4"/>
      <stop offset="1" stop-color="#9A9C94"/>
    </linearGradient>
    <linearGradient id="paint32_linear_1732_137" x1="140.55" y1="319.541" x2="202.595" y2="249.821" gradientUnits="userSpaceOnUse">
      <stop stop-color="#E0E0CB"/>
      <stop offset="1" stop-color="#AAB0A1"/>
    </linearGradient>
    <linearGradient id="paint33_linear_1732_137" x1="366.333" y1="-20.7477" x2="345.225" y2="65.6036" gradientUnits="userSpaceOnUse">
      <stop stop-color="#BAB9AF"/>
      <stop offset="1" stop-color="#EDE7D0"/>
    </linearGradient>
    <linearGradient id="paint34_linear_1732_137" x1="174.441" y1="174.984" x2="184.036" y2="189.695" gradientUnits="userSpaceOnUse">
      <stop stop-color="#B19672"/>
      <stop offset="1" stop-color="#6B5B45"/>
    </linearGradient>
    <linearGradient id="paint35_linear_1732_137" x1="144.379" y1="134.685" x2="126.469" y2="189.694" gradientUnits="userSpaceOnUse">
      <stop stop-color="#877155"/>
      <stop offset="0.556502" stop-color="#D6B183"/>
    </linearGradient>
    <linearGradient id="paint36_linear_1732_137" x1="192.353" y1="91.1905" x2="165.488" y2="184.578" gradientUnits="userSpaceOnUse">
      <stop stop-color="#8B7354"/>
      <stop offset="0.826065" stop-color="#D4B083"/>
    </linearGradient>
    <linearGradient id="paint37_linear_1732_137" x1="169.324" y1="190.975" x2="204.504" y2="226.156" gradientUnits="userSpaceOnUse">
      <stop stop-color="#FFEBCD"/>
      <stop offset="1" stop-color="#CEB48E"/>
    </linearGradient>
    <linearGradient id="paint38_linear_1732_137" x1="154.549" y1="197.97" x2="154.549" y2="270.249" gradientUnits="userSpaceOnUse">
      <stop stop-color="#FFECCC"/>
      <stop offset="1" stop-color="#D5B288"/>
    </linearGradient>
    <linearGradient id="paint39_linear_1732_137" x1="161.258" y1="177.787" x2="174.69" y2="188.022" gradientUnits="userSpaceOnUse">
      <stop stop-color="#E2BB88"/>
      <stop offset="1" stop-color="#6B5A42"/>
    </linearGradient>
    <linearGradient id="paint40_linear_1732_137" x1="151.413" y1="174.115" x2="159.73" y2="202.489" gradientUnits="userSpaceOnUse">
      <stop stop-color="#FCECCD"/>
      <stop offset="1" stop-color="#C4B69D"/>
    </linearGradient>
    <linearGradient id="paint41_linear_1732_137" x1="278.703" y1="60.4881" x2="260.793" y2="140.443" gradientUnits="userSpaceOnUse">
      <stop stop-color="#FCFBF9"/>
      <stop offset="1" stop-color="#EEEADE"/>
    </linearGradient>
    <linearGradient id="paint42_linear_1732_137" x1="304.696" y1="108.433" x2="304.289" y2="182.019" gradientUnits="userSpaceOnUse">
      <stop stop-color="#FDF9F2"/>
      <stop offset="1" stop-color="#E3E3CE"/>
    </linearGradient>
    <linearGradient id="paint43_linear_1732_137" x1="304.929" y1="214.001" x2="297.893" y2="272.848" gradientUnits="userSpaceOnUse">
      <stop stop-color="#F0F1EA"/>
      <stop offset="1" stop-color="#D1CEB2"/>
    </linearGradient>
    <linearGradient id="paint44_linear_1732_137" x1="257.596" y1="267.734" x2="251.2" y2="341.932" gradientUnits="userSpaceOnUse">
      <stop stop-color="#E0E0CC"/>
      <stop offset="1" stop-color="#BEC6B6"/>
    </linearGradient>
    <linearGradient id="paint45_linear_1732_137" x1="332.433" y1="283.723" x2="350.343" y2="311.868" gradientUnits="userSpaceOnUse">
      <stop stop-color="#CED4B9"/>
      <stop offset="1" stop-color="#FBFBF5"/>
    </linearGradient>
    <linearGradient id="paint46_linear_1732_137" x1="271.464" y1="150.712" x2="366.477" y2="135.663" gradientUnits="userSpaceOnUse">
      <stop stop-color="#6DD37E"/>
      <stop offset="1" stop-color="#87B6D3"/>
    </linearGradient>
    <linearGradient id="paint47_linear_1732_137" x1="216.939" y1="126.276" x2="226.072" y2="140.363" gradientUnits="userSpaceOnUse">
      <stop stop-color="#6EC5CB"/>
      <stop offset="1" stop-color="#9AE591"/>
    </linearGradient>
    <linearGradient id="paint48_linear_1732_137" x1="209.302" y1="137.961" x2="225.285" y2="140.866" gradientUnits="userSpaceOnUse">
      <stop stop-color="#6EC5CB"/>
      <stop offset="1" stop-color="#9AE591"/>
    </linearGradient>
    <linearGradient id="paint49_linear_1732_137" x1="211.875" y1="153.759" x2="224.172" y2="147.754" gradientUnits="userSpaceOnUse">
      <stop stop-color="#6EC5CB"/>
      <stop offset="1" stop-color="#9AE591"/>
    </linearGradient>
    <linearGradient id="paint50_linear_1732_137" x1="223.751" y1="167.731" x2="231.322" y2="157.308" gradientUnits="userSpaceOnUse">
      <stop stop-color="#6EC5CB"/>
      <stop offset="1" stop-color="#9AE591"/>
    </linearGradient>
    <linearGradient id="paint51_linear_1732_137" x1="231.927" y1="123.187" x2="230.255" y2="137.318" gradientUnits="userSpaceOnUse">
      <stop stop-color="#6EC5CB"/>
      <stop offset="1" stop-color="#9AE591"/>
    </linearGradient>
    <linearGradient id="paint52_linear_1732_137" x1="248.582" y1="129.929" x2="241.037" y2="140.316" gradientUnits="userSpaceOnUse">
      <stop stop-color="#6EC5CB"/>
      <stop offset="1" stop-color="#9AE591"/>
    </linearGradient>
    <linearGradient id="paint53_linear_1732_137" x1="260.526" y1="143.899" x2="248.227" y2="149.904" gradientUnits="userSpaceOnUse">
      <stop stop-color="#6EC5CB"/>
      <stop offset="1" stop-color="#9AE591"/>
    </linearGradient>
    <linearGradient id="paint54_linear_1732_137" x1="263.124" y1="159.762" x2="247.141" y2="156.857" gradientUnits="userSpaceOnUse">
      <stop stop-color="#6EC5CB"/>
      <stop offset="1" stop-color="#9AE591"/>
    </linearGradient>
    <linearGradient id="paint55_linear_1732_137" x1="255.436" y1="171.415" x2="246.273" y2="157.281" gradientUnits="userSpaceOnUse">
      <stop stop-color="#6EC5CB"/>
      <stop offset="1" stop-color="#9AE591"/>
    </linearGradient>
    <linearGradient id="paint56_linear_1732_137" x1="240.418" y1="174.454" x2="242.095" y2="160.28" gradientUnits="userSpaceOnUse">
      <stop stop-color="#6EC5CB"/>
      <stop offset="1" stop-color="#9AE591"/>
    </linearGradient>
  </defs>
</svg>

