<svg width="63" height="62" viewBox="0 0 63 62" fill="none" xmlns="http://www.w3.org/2000/svg">
<g clip-path="url(#clip0_1747_910)">
<path d="M26.1692 46.3978H28.815V33.5169H33.9673V46.3978H36.613C36.9531 43.3012 38.5323 40.7457 41.0956 37.9557C41.3867 37.6414 43.2389 35.7221 43.4579 35.4491C45.2774 33.1759 46.4179 30.4351 46.748 27.5422C47.0781 24.6493 46.5844 21.722 45.3237 19.0974C44.063 16.4728 42.0867 14.2577 39.6223 12.7071C37.1579 11.1565 34.3056 10.3335 31.3939 10.3329C28.4823 10.3322 25.6296 11.154 23.1646 12.7036C20.6995 14.2531 18.7222 16.4674 17.4604 19.0915C16.1986 21.7155 15.7037 24.6426 16.0325 27.5357C16.3614 30.4287 17.5007 33.17 19.3192 35.4439C19.5408 35.7196 21.3982 37.6414 21.6841 37.9531C24.25 40.7457 25.8292 43.3012 26.1692 46.3978ZM26.2388 51.5501V54.1263H36.5435V51.5501H26.2388ZM15.3004 38.6693C12.8741 35.6379 11.3536 31.9827 10.9138 28.1249C10.4741 24.2671 11.1332 20.3635 12.815 16.8639C14.4969 13.3643 17.1332 10.4109 20.4201 8.3441C23.7071 6.27727 27.5111 5.18102 31.3939 5.18164C35.2767 5.18226 39.0804 6.27973 42.3667 8.34761C45.653 10.4155 48.2883 13.3697 49.9691 16.8699C51.6498 20.37 52.3076 24.2738 51.8667 28.1315C51.4257 31.9892 49.904 35.6438 47.4767 38.6744C45.8795 40.6632 41.6958 43.8216 41.6958 47.6859V54.1263C41.6958 55.4928 41.153 56.8033 40.1867 57.7695C39.2205 58.7358 37.91 59.2786 36.5435 59.2786H26.2388C24.8723 59.2786 23.5618 58.7358 22.5955 57.7695C21.6293 56.8033 21.0865 55.4928 21.0865 54.1263V47.6859C21.0865 43.8216 16.9002 40.6632 15.3004 38.6693Z" fill="#F7F7F7"/>
</g>
<defs>
<clipPath id="clip0_1747_910">
<rect width="61.8281" height="61.8281" fill="white" transform="translate(0.476562 0.0214844)"/>
</clipPath>
</defs>
</svg>
