<svg width="63" height="63" viewBox="0 0 63 63" fill="none" xmlns="http://www.w3.org/2000/svg">
<path d="M13.1978 43.9622C13.1041 42.9866 13.3245 42.5863 14.1604 42.0307C24.2793 35.3051 40.6798 35.3128 48.518 42.0532C49.1323 42.5815 49.2944 42.9609 49.2315 43.7511C48.924 47.61 47.8812 52.0673 44.6455 54.5957C39.5089 58.6093 22.8871 58.5978 17.7653 54.5957C14.5647 52.0948 13.5632 47.7658 13.1978 43.9622Z" stroke="#F7F7F7" stroke-width="5.64002" stroke-linejoin="round"/>
<path d="M23.5074 47.2988H23.4844M38.9414 47.2988H38.9183" stroke="#F7F7F7" stroke-width="5.64002" stroke-linecap="round" stroke-linejoin="round"/>
<path d="M13.1807 47.2929C8.02832 44.7168 5.45215 37.6354 5.45215 31.8359C5.45215 17.6081 16.9861 6.07422 31.2139 6.07422C45.4416 6.07422 56.9756 17.6081 56.9756 31.8359C56.9756 37.6354 54.3994 44.7168 49.247 47.2929" stroke="#F7F7F7" stroke-width="5.64002"/>
<circle cx="31.2129" cy="18.9629" r="7.72851" stroke="#F7F7F7" stroke-width="5.64002"/>
<path d="M8.98054 18.9668C12.3268 19.7763 14.0219 23.8613 12.7666 28.0908C11.6375 31.8954 8.50566 34.521 5.45215 34.4211" stroke="#F7F7F7" stroke-width="5.64002"/>
<path d="M53.452 18.9668C50.1034 19.7763 48.4072 23.8613 49.6633 28.0908C50.7926 31.8932 53.9236 34.518 56.9775 34.4212" stroke="#F7F7F7" stroke-width="5.64002"/>
</svg>
