<svg width="66" height="60" viewBox="0 0 66 60" fill="none" xmlns="http://www.w3.org/2000/svg">
<path d="M50.4911 36.0763C47.6923 37.5707 44.4958 38.4179 41.1013 38.4179C30.0758 38.4179 21.1377 29.4799 21.1377 18.4543C21.1377 15.0598 21.9849 11.8633 23.4794 9.06445C13.555 11.3904 6.16504 20.2979 6.16504 30.9315C6.16504 43.3353 16.2203 53.3906 28.6241 53.3906C39.2577 53.3906 48.1652 46.0006 50.4911 36.0763Z" stroke="#F7F7F7" stroke-width="5.64002" stroke-linecap="round" stroke-linejoin="round"/>
<path d="M47.2061 13.8472C54.3691 13.8472 54.5798 12.9977 54.5798 3.44141C54.5798 12.9977 54.5798 13.8472 61.9535 13.8472C54.5798 13.8472 54.5798 14.6966 54.5798 24.253C54.5798 14.6966 54.3691 13.8472 47.2061 13.8472Z" fill="#F7F7F7" stroke="#F7F7F7" stroke-width="6.15439" stroke-linejoin="round"/>
</svg>
