<svg width="63" height="63" viewBox="0 0 63 63" fill="none" xmlns="http://www.w3.org/2000/svg">
<path fill-rule="evenodd" clip-rule="evenodd" d="M20.2461 9.70535C21.053 7.85427 21.4564 6.92873 22.2585 6.4087C23.0605 5.88867 24.0847 5.88867 26.1329 5.88867H36.9003C38.9485 5.88867 39.9726 5.88867 40.7747 6.4087C41.5768 6.92873 41.9802 7.85427 42.787 9.70535L47.9884 21.6387C49.2714 24.5821 49.9129 26.0538 49.3373 27.3141C48.7617 28.5745 47.2168 29.0808 44.127 30.0935L31.5166 34.2265L18.9062 30.0935C15.8164 29.0808 14.2715 28.5745 13.6959 27.3141C13.1203 26.0538 13.7618 24.5821 15.0447 21.6387L20.2461 9.70535Z" stroke="#F7F7F7" stroke-width="5.64002" stroke-linecap="round" stroke-linejoin="round"/>
<path d="M31.5195 34.2265L22.5029 7.17676M40.5361 30.3623L31.5195 5.88867" stroke="#F7F7F7" stroke-width="5.64002" stroke-linecap="round" stroke-linejoin="round"/>
<path d="M33.5194 35.8949L35.5595 40.0088C35.8377 40.5815 36.5796 41.1308 37.2055 41.236L40.9032 41.8554C43.2678 42.2528 43.8242 43.9825 42.1203 45.6888L39.2456 48.5873C38.7588 49.0782 38.4921 50.0248 38.6428 50.7027L39.4658 54.2907C40.115 57.1307 38.6197 58.2293 36.1275 56.745L32.6616 54.6764C32.0357 54.3024 31.0041 54.3024 30.3665 54.6764L26.9007 56.745C24.4201 58.2293 22.9132 57.119 23.5623 54.2907L24.3853 50.7027C24.536 50.0248 24.2694 49.0782 23.7826 48.5873L20.9079 45.6888C19.2155 43.9825 19.7603 42.2528 22.125 41.8554L25.8227 41.236C26.437 41.1308 27.1789 40.5815 27.4571 40.0088L29.4972 35.8949C30.6099 33.6626 32.4182 33.6626 33.5194 35.8949Z" stroke="#F7F7F7" stroke-width="5.64002" stroke-linecap="round" stroke-linejoin="round"/>
</svg>
