<svg width="63" height="64" viewBox="0 0 63 64" fill="none" xmlns="http://www.w3.org/2000/svg">
<path d="M52.1782 29.7218V27.1089C52.1782 17.2547 52.1782 12.3277 48.9825 9.26637C45.7868 6.20508 40.6434 6.20508 30.3565 6.20508L27.6288 6.20508C17.342 6.20508 12.1986 6.20508 9.00284 9.26637C5.80713 12.3277 5.80713 17.2547 5.80713 27.1089L5.80713 37.5608C5.80713 47.4149 5.80713 52.342 9.00284 55.4033C12.1986 58.4646 17.342 58.4646 27.6288 58.4646H28.9927" stroke="#F7F7F7" stroke-width="5.64003" stroke-linecap="round"/>
<path d="M18.6865 19.2617H39.2959" stroke="#F7F7F7" stroke-width="5.64003" stroke-linecap="round"/>
<path d="M18.6865 32.3301H39.2959" stroke="#F7F7F7" stroke-width="5.64003" stroke-linecap="round"/>
<path d="M40.1936 58.0873L39.5959 55.3314H39.5959L40.1936 58.0873ZM37.0934 54.9428L39.8527 55.5245L37.0934 54.9428ZM39.3511 48.3044L37.343 46.3245H37.343L39.3511 48.3044ZM46.7386 55.7974L44.7304 53.8175L46.7386 55.7974ZM56.8062 41.4207L59.257 40.0256L56.8062 41.4207ZM55.2601 47.1541L57.2683 49.1339L55.2601 47.1541ZM56.8062 45.3944L59.257 46.7895L56.8062 45.3944ZM53.5253 38.0929L54.9503 35.6595V35.6595L53.5253 38.0929ZM47.8727 39.6611L49.8808 41.6409L47.8727 39.6611ZM49.6075 38.0929L48.1825 35.6595V35.6595L49.6075 38.0929ZM55.2601 47.1541L53.252 45.1742L44.7304 53.8175L46.7386 55.7974L48.7467 57.7772L57.2683 49.1339L55.2601 47.1541ZM39.3511 48.3044L41.3593 50.2842L49.8808 41.6409L47.8727 39.6611L45.8645 37.6812L37.343 46.3245L39.3511 48.3044ZM40.1936 58.0873L39.5959 55.3314C39.1403 55.4302 38.7924 55.5054 38.4968 55.5612C38.197 55.6177 38.034 55.6378 37.9497 55.6432C37.8601 55.649 37.9773 55.6292 38.1959 55.6863C38.3149 55.7175 38.4609 55.7705 38.6169 55.8584C38.7747 55.9473 38.9152 56.0564 39.0335 56.1764L37.0254 58.1563L35.0172 60.1362C36.1189 61.2535 37.4877 61.3248 38.3128 61.2715C39.0816 61.2219 39.9954 61.0159 40.7913 60.8433L40.1936 58.0873ZM37.0934 54.9428L34.334 54.3611C34.163 55.1723 33.9623 56.0892 33.9141 56.8581C33.863 57.6722 33.927 59.0303 35.0172 60.1362L37.0254 58.1563L39.0335 56.1764C39.2932 56.4398 39.4398 56.746 39.5038 56.998C39.5562 57.2041 39.5369 57.3092 39.5431 57.2111C39.5489 57.1186 39.5696 56.9479 39.6256 56.6423C39.6809 56.3406 39.7554 55.9862 39.8527 55.5245L37.0934 54.9428ZM55.2601 39.6611L53.252 41.6409C53.6993 42.0946 53.9683 42.3684 54.1623 42.584C54.3459 42.788 54.3687 42.8392 54.3554 42.8157L56.8062 41.4207L59.257 40.0256C58.7701 39.1703 58.0007 38.424 57.2683 37.6812L55.2601 39.6611ZM55.2601 47.1541L57.2683 49.1339C58.0007 48.3911 58.7701 47.6449 59.257 46.7895L56.8062 45.3944L54.3554 43.9994C54.3687 43.9759 54.3459 44.0271 54.1623 44.2311C53.9683 44.4467 53.6993 44.7205 53.252 45.1742L55.2601 47.1541ZM56.8062 41.4207L54.3554 42.8157C54.5629 43.1803 54.5629 43.6348 54.3554 43.9994L56.8062 45.3944L59.257 46.7895C60.4491 44.6951 60.4491 42.12 59.257 40.0256L56.8062 41.4207ZM55.2601 39.6611L57.2683 37.6812C56.538 36.9405 55.7997 36.1569 54.9503 35.6595L53.5253 38.0929L52.1003 40.5264C52.0725 40.5101 52.1209 40.5312 52.3224 40.7178C52.5347 40.9144 52.8046 41.1872 53.252 41.6409L55.2601 39.6611ZM47.8727 39.6611L49.8808 41.6409C50.3282 41.1872 50.5981 40.9144 50.8104 40.7178C51.0119 40.5312 51.0603 40.5101 51.0325 40.5264L49.6075 38.0929L48.1825 35.6595C47.3331 36.1569 46.5948 36.9405 45.8645 37.6812L47.8727 39.6611ZM53.5253 38.0929L54.9503 35.6595C52.858 34.4342 50.2748 34.4342 48.1825 35.6595L49.6075 38.0929L51.0325 40.5264C51.3646 40.3319 51.7682 40.3319 52.1003 40.5264L53.5253 38.0929ZM46.7386 55.7974L44.7304 53.8175C44.3846 54.1682 43.8723 54.4422 42.9731 54.6751C42.5211 54.7921 42.0294 54.885 41.4491 54.9867C40.9024 55.0825 40.2357 55.1926 39.5959 55.3314L40.1936 58.0873L40.7913 60.8433C41.2881 60.7356 41.7949 60.6521 42.4226 60.5421C43.0165 60.438 43.6997 60.313 44.387 60.135C45.7665 59.7778 47.39 59.1533 48.7467 57.7772L46.7386 55.7974ZM37.0934 54.9428L39.8527 55.5245C39.9889 54.8784 40.097 54.2053 40.1918 53.6493C40.2921 53.0603 40.3843 52.5578 40.5008 52.0949C40.7337 51.1695 41.0097 50.6388 41.3593 50.2842L39.3511 48.3044L37.343 46.3245C35.9901 47.6967 35.3802 49.3324 35.0314 50.7182C34.857 51.4108 34.7344 52.1001 34.6318 52.7022C34.5236 53.3372 34.4408 53.8544 34.334 54.3611L37.0934 54.9428Z" fill="#F7F7F7"/>
</svg>
