<svg width="63" height="67" viewBox="0 0 63 67" fill="none" xmlns="http://www.w3.org/2000/svg">
<path d="M35.6288 0.605469C36.8768 0.605469 37.9557 1.47635 38.2189 2.6963L42.662 23.2857C43.0182 24.9362 41.7604 26.4944 40.0718 26.4944H22.4505C20.762 26.4944 19.5042 24.9362 19.8604 23.2857L24.3035 2.6963C24.5667 1.47635 25.6456 0.605469 26.8936 0.605469H35.6288Z" fill="#F7F7F7"/>
<rect x="16.9531" y="28.0312" width="28.6149" height="4.08773" rx="2.04386" fill="#F7F7F7"/>
<path d="M18.9374 35.0137C20.1854 35.0137 21.2642 35.8846 21.5275 37.1045L25.9706 57.6939C26.3268 59.3444 25.069 60.9026 23.3804 60.9026H5.75914C4.07061 60.9026 2.81281 59.3444 3.16899 57.6939L7.61207 37.1045C7.87533 35.8846 8.95418 35.0137 10.2022 35.0137H18.9374Z" fill="#F7F7F7"/>
<rect x="0.263672" y="62.4336" width="28.6149" height="4.08773" rx="2.04386" fill="#F7F7F7"/>
<path d="M52.1512 35.0137C53.3993 35.0137 54.4781 35.8846 54.7414 37.1045L59.1845 57.6939C59.5406 59.3444 58.2828 60.9026 56.5943 60.9026H38.973C37.2845 60.9026 36.0267 59.3444 36.3829 57.6939L40.8259 37.1045C41.0892 35.8846 42.1681 35.0137 43.4161 35.0137H52.1512Z" fill="#F7F7F7"/>
<rect x="33.4766" y="62.4336" width="28.6149" height="4.08773" rx="2.04386" fill="#F7F7F7"/>
</svg>
