<svg width="63" height="63" viewBox="0 0 63 63" fill="none" xmlns="http://www.w3.org/2000/svg">
<path d="M28.7881 34.2207H41.6689M21.0596 34.2207H21.0827M33.9404 44.5254H21.0596M41.6689 44.5254H41.6458" stroke="#F7F7F7" stroke-width="5.64002" stroke-linecap="round" stroke-linejoin="round"/>
<path d="M46.8213 5.87695V11.0293M15.9072 5.87695V11.0293" stroke="#F7F7F7" stroke-width="5.64002" stroke-linecap="round" stroke-linejoin="round"/>
<path d="M6.89062 32.2751C6.89062 21.0499 6.89062 15.4373 10.1163 11.9501C13.342 8.46289 18.5336 8.46289 28.9169 8.46289H33.8116C44.1949 8.46289 49.3865 8.46289 52.6122 11.9501C55.8379 15.4373 55.8379 21.0499 55.8379 32.2751V33.598C55.8379 44.8231 55.8379 50.4357 52.6122 53.9229C49.3865 57.4101 44.1949 57.4101 33.8116 57.4101H28.9169C18.5336 57.4101 13.342 57.4101 10.1163 53.9229C6.89062 50.4357 6.89062 44.8231 6.89062 33.598V32.2751Z" stroke="#F7F7F7" stroke-width="5.64002" stroke-linecap="round" stroke-linejoin="round"/>
<path d="M8.18066 21.3418H54.5517" stroke="#F7F7F7" stroke-width="5.64002" stroke-linecap="round" stroke-linejoin="round"/>
</svg>
