<svg width="63" height="62" viewBox="0 0 63 62" fill="none" xmlns="http://www.w3.org/2000/svg">
<path d="M29.4562 16.0078V21.0464C29.4562 24.5887 29.4562 26.3599 29.9386 28.0602C30.4209 29.7606 31.3663 31.3218 33.2571 34.4443L35.8193 38.6756C40.6374 46.6326 43.0465 50.6111 41.0701 53.5604L41.0395 53.6055C39.0343 56.5396 33.9327 56.5396 23.7295 56.5396C13.5262 56.5396 8.42463 56.5396 6.41942 53.6055L6.38887 53.5604C4.41243 50.6111 6.82152 46.6326 11.6397 38.6756L14.2019 34.4443C16.0926 31.3218 17.038 29.7606 17.5204 28.0602C18.0028 26.3599 18.0028 24.5887 18.0028 21.0464V16.0078" stroke="#F7F7F7" stroke-width="5.64002"/>
<path d="M15.999 16.0078L31.456 16.0078" stroke="#F7F7F7" stroke-width="5.64002" stroke-linecap="round" stroke-linejoin="round"/>
<path d="M14.7129 34.4484C16.4303 32.9759 20.4693 34.0374 23.7335 35.4211C28.0271 37.2413 31.8874 35.7696 32.7461 34.4484" stroke="#F7F7F7" stroke-width="5.64002" stroke-linecap="round"/>
<path d="M30.1689 18.5353C30.1689 23.6018 36.2549 29.2056 40.4035 28.6683C40.4035 32.8655 44.1678 36.268 48.8111 36.268C53.4545 36.268 57.2187 32.8655 57.2187 28.6683C57.2187 24.4711 54.6426 21.0685 49.4902 21.0685C49.4902 16.0021 45.626 10.9356 40.1643 10.9356C40.1643 7.02649 37.8975 5.86914 35.3213 5.86914C32.7451 5.86914 31.457 8.40238 31.457 8.40238C31.457 8.40238 23.7285 8.40238 23.7285 16.0021" stroke="#F7F7F7" stroke-width="5.64002" stroke-linecap="round" stroke-linejoin="round"/>
</svg>
