<svg width="63" height="64" viewBox="0 0 63 64" fill="none" xmlns="http://www.w3.org/2000/svg">
<path d="M7.01367 21.5568C7.01367 14.1661 7.01367 10.4708 9.2773 8.17487C11.5409 5.87891 15.1842 5.87891 22.4707 5.87891H40.5039C47.7904 5.87891 51.4337 5.87891 53.6973 8.17487C55.9609 10.4708 55.9609 14.1661 55.9609 21.5568V29.3957C55.9609 36.7863 55.9609 40.4816 53.6973 42.7776C51.4337 45.0735 47.7904 45.0735 40.5039 45.0735H22.4707C15.1842 45.0735 11.5409 45.0735 9.2773 42.7776C7.01367 40.4816 7.01367 36.7863 7.01367 29.3957V21.5568Z" stroke="#F7F7F7" stroke-width="5.64003"/>
<path d="M21.1826 26.0632L22.977 23.6736C25.2406 20.6592 29.2437 20.8994 31.2448 24.1698C33.1784 27.3299 37.0073 27.6809 39.3194 24.9098L41.792 21.9464" stroke="#F7F7F7" stroke-width="5.64003" stroke-linecap="round" stroke-linejoin="round"/>
<path d="M28.6692 58.1391C28.6692 59.6965 29.9318 60.9591 31.4893 60.9591C33.0467 60.9591 34.3093 59.6965 34.3093 58.1391L31.4893 58.1391L28.6692 58.1391ZM31.4893 45.0742L28.6692 45.0742L28.6692 58.1391L31.4893 58.1391L34.3093 58.1391L34.3093 45.0742L31.4893 45.0742Z" fill="#F7F7F7"/>
<path d="M18.6064 58.1319L31.4875 50.293L44.3682 58.1319" stroke="#F7F7F7" stroke-width="5.64003" stroke-linecap="round" stroke-linejoin="round"/>
</svg>
