<svg width="62" height="63" viewBox="0 0 62 63" fill="none" xmlns="http://www.w3.org/2000/svg">
<g clip-path="url(#clip0_1747_925)">
<path d="M15.5791 6.08008C22.509 6.08008 28.5218 9.98813 31.5436 15.7175C34.5758 11.4462 39.5632 8.65625 45.2051 8.65625H54.2216V15.0967C54.2216 24.3451 46.725 31.8418 37.4765 31.8418H33.6123V34.4179H46.4931V52.4511C46.4931 55.2978 44.1875 57.6035 41.3408 57.6035H20.7314C17.8848 57.6035 15.5791 55.2978 15.5791 52.4511V34.4179H28.4599V29.2656H23.3076C13.3481 29.2656 5.27441 21.1919 5.27441 11.2324V6.08008H15.5791ZM41.3408 39.5703H20.7314V52.4511H41.3408V39.5703ZM49.0693 13.8086H45.2051C38.8033 13.8086 33.6123 18.9996 33.6123 25.4014V26.6894H37.4765C43.8783 26.6894 49.0693 21.4985 49.0693 15.0967V13.8086ZM15.5791 11.2324H10.4268C10.4268 18.3452 16.1948 24.1133 23.3076 24.1133H28.4599C28.4599 17.0005 22.6919 11.2324 15.5791 11.2324Z" fill="#F7F7F7"/>
</g>
<defs>
<clipPath id="clip0_1747_925">
<rect width="61.8281" height="61.8281" fill="white" transform="translate(0.12207 0.927734)"/>
</clipPath>
</defs>
</svg>
