<svg width="63" height="63" viewBox="0 0 63 63" fill="none" xmlns="http://www.w3.org/2000/svg">
<path d="M33.6301 16.065C33.9155 15.2585 34.0708 14.3905 34.0708 13.4863C34.0708 9.21799 30.6106 5.75781 26.3422 5.75781C22.0739 5.75781 18.6137 9.21799 18.6137 13.4863C18.6137 14.3905 18.769 15.2585 19.0544 16.065C13.1684 16.0865 10.0273 16.2954 7.99651 18.3261C5.96595 20.3567 5.75688 23.4974 5.73535 29.3822C6.54043 29.098 7.40668 28.9433 8.30905 28.9433C12.5774 28.9433 16.0376 32.4035 16.0376 36.6719C16.0376 40.9402 12.5774 44.4004 8.30905 44.4004C7.40668 44.4004 6.54043 44.2457 5.73535 43.9615C5.75688 49.8463 5.96595 52.987 7.99651 55.0176C10.0271 57.0482 13.1678 57.2572 19.0526 57.2788C18.7684 56.4737 18.6137 55.6074 18.6137 54.7051C18.6137 50.4367 22.0739 46.9765 26.3422 46.9765C30.6106 46.9765 34.0708 50.4367 34.0708 54.7051C34.0708 55.6074 33.9161 56.4737 33.6319 57.2788C39.5167 57.2572 42.6574 57.0482 44.688 55.0176C46.7187 52.9868 46.9277 49.8457 46.9491 43.9597C47.7556 44.2451 48.6236 44.4004 49.5278 44.4004C53.7961 44.4004 57.2563 40.9402 57.2563 36.6719C57.2563 32.4035 53.7961 28.9433 49.5278 28.9433C48.6236 28.9433 47.7556 29.0986 46.9491 29.384C46.9277 23.498 46.7187 20.3569 44.688 18.3261C42.6572 16.2954 39.5161 16.0865 33.6301 16.065Z" stroke="#F7F7F7" stroke-width="5.64077" stroke-linejoin="round"/>
</svg>
