<svg width="63" height="63" viewBox="0 0 63 63" fill="none" xmlns="http://www.w3.org/2000/svg">
<path d="M26.6998 49.408L48.4921 34.7501C52.2154 32.2456 54.0771 30.9934 54.4153 28.7133C54.7534 26.4333 53.5308 24.901 51.0855 21.8366C45.4737 14.8038 37.8493 9.56093 29.1273 7.05679C25.8089 6.10405 24.1497 5.62769 22.371 6.63737C20.5923 7.64705 20.0119 9.6181 18.8512 13.5602L11.723 37.7693C8.38816 49.095 6.72076 54.7578 9.51042 56.9257C12.3001 59.0936 17.1 55.8651 26.6998 49.408Z" stroke="#F7F7F7" stroke-width="5.64002"/>
<path d="M19.6919 13.8066C19.6919 13.8066 21.0777 14.1112 23.2989 14.7894C30.337 16.9384 36.6151 21.1044 41.5893 26.6876" stroke="#F7F7F7" stroke-width="5.64002" stroke-linecap="round"/>
<path d="M20.979 46.6097H23.799C23.799 44.0637 25.656 42.3864 27.4881 42.3864V39.5664V36.7464C22.1305 36.7464 18.159 41.3759 18.159 46.6097H20.979ZM27.4881 39.5664V42.3864C29.0974 42.3864 30.6955 43.6478 31.0909 45.6975L33.8599 45.1635L36.6288 44.6294C35.7913 40.2868 32.1523 36.7464 27.4881 36.7464V39.5664ZM23.845 52.4473L25.5109 50.1719C24.5222 49.448 23.799 48.1589 23.799 46.6097H20.979H18.159C18.159 49.9192 19.7092 52.9143 22.1791 54.7226L23.845 52.4473Z" fill="#F7F7F7"/>
<path d="M20.981 27.8367H18.1609C18.1609 30.1341 16.4947 31.5999 14.909 31.5999V34.4199V37.2399C20.0302 37.2399 23.801 32.811 23.801 27.8367H20.981ZM16.6833 21.5391L15.7977 24.2164C17.0471 24.6296 18.1609 25.9957 18.1609 27.8367H20.981H23.801C23.801 23.7446 21.2952 20.0942 17.5688 18.8617L16.6833 21.5391ZM14.909 34.4199V31.5999C14.6196 31.5999 14.3425 31.5566 14.0795 31.4759L13.2524 34.1719L12.4254 36.8679C13.2156 37.1103 14.0498 37.2399 14.909 37.2399V34.4199Z" fill="#F7F7F7"/>
<path d="M33.8789 29.2598L33.8558 29.2598" stroke="#F7F7F7" stroke-width="5.64002" stroke-linecap="round" stroke-linejoin="round"/>
</svg>
