<svg width="63" height="63" viewBox="0 0 63 63" fill="none" xmlns="http://www.w3.org/2000/svg">
<g clip-path="url(#clip0_1734_2085)">
<path d="M48.5494 42.1476C46.7753 42.1434 45.018 42.4907 43.3789 43.1695C41.7397 43.8482 40.2513 44.8449 38.9995 46.1021C35.3621 49.7603 31.035 52.6607 26.269 54.6351C21.5029 56.6096 16.3924 57.6189 11.2336 57.6047H8.27096C7.69932 57.6055 7.14029 57.4367 6.66467 57.1196C6.18905 56.8025 5.81824 56.3513 5.5992 55.8233C5.38016 55.2953 5.32275 54.7142 5.43424 54.1535C5.54573 53.5929 5.8211 53.0779 6.22548 52.6739L8.01077 50.8886C12.9643 50.6332 17.6465 48.5474 21.1492 45.0355L32.2938 33.9039C33.3812 34.1962 34.4973 34.3689 35.6222 34.4191C35.8437 34.4191 36.0678 34.4191 36.2945 34.4191C40.3962 34.4159 44.3295 32.7874 47.233 29.8902L49.8091 27.314C51.3217 25.7986 52.5036 23.986 53.28 21.9906C54.0564 19.9952 54.4106 17.8605 54.32 15.7213C54.234 13.5727 53.6967 11.4662 52.7428 9.539C51.789 7.61178 50.44 5.90699 48.7838 4.53554C45.6895 2.08476 41.795 0.871052 37.8562 1.13002C33.9174 1.38899 30.2154 3.10215 27.4686 5.93698L25.8379 7.57027C23.867 9.53406 22.4314 11.9695 21.6675 14.6448C20.9036 17.3201 20.837 20.1463 21.4738 22.8547L10.2211 34.1074C6.70742 37.6089 4.62122 42.2918 4.36807 47.2459L2.58278 49.0312C1.45805 50.1558 0.692145 51.5887 0.381942 53.1487C0.0717386 54.7086 0.23118 56.3256 0.840096 57.7949C1.44901 59.2642 2.48004 60.52 3.80276 61.4032C5.12548 62.2865 6.68045 62.7576 8.27096 62.757H11.2336C17.069 62.7729 22.8497 61.6312 28.241 59.3981C33.6322 57.165 38.5271 53.8848 42.6422 49.7473C43.8105 48.5792 45.2988 47.7837 46.9191 47.4613C48.5394 47.139 50.2188 47.3042 51.7452 47.9361C53.2716 48.5681 54.5764 49.6384 55.4946 51.0118C56.4128 52.3851 56.9032 53.9999 56.9039 55.6519V60.1808C56.9039 60.8641 57.1753 61.5193 57.6584 62.0025C58.1416 62.4856 58.7968 62.757 59.4801 62.757C60.1633 62.757 60.8186 62.4856 61.3017 62.0025C61.7848 61.5193 62.0562 60.8641 62.0562 60.1808V55.6519C62.0515 52.0714 60.6268 48.6389 58.0948 46.1073C55.5627 43.5757 52.1299 42.1517 48.5494 42.1476ZM29.4857 11.2027L31.1164 9.56938C33.2324 7.44316 36.103 6.23939 39.1026 6.22036C41.4248 6.19772 43.68 6.99813 45.4683 8.47966C46.5747 9.39329 47.4765 10.5295 48.1152 11.8143C48.7538 13.0992 49.1151 14.5041 49.1754 15.9377C49.2349 17.3636 48.9985 18.7865 48.4811 20.1166C47.9637 21.4467 47.1764 22.6553 46.169 23.6662L43.5928 26.2424C42.5807 27.2546 41.3687 28.0448 40.0343 28.5626C38.6998 29.0805 37.2721 29.3147 35.8421 29.2502C34.4121 29.1857 33.0112 28.824 31.7288 28.1882C30.4463 27.5523 29.3104 26.6563 28.3934 25.5571C26.7654 23.4544 25.9753 20.8225 26.1761 18.1708C26.3769 15.5191 27.5544 13.0362 29.4806 11.2027H29.4857ZM13.8638 37.7501L23.746 27.8653C23.9805 28.2002 24.1685 28.5609 24.4339 28.8778C25.289 29.8879 26.2679 30.7863 27.3475 31.5518L17.5065 41.3928C15.3885 43.5175 12.6789 44.954 9.73165 45.5147C10.2971 42.5699 11.7372 39.864 13.8638 37.7501Z" fill="#F7F7F7"/>
</g>
<defs>
<clipPath id="clip0_1734_2085">
<rect width="61.8281" height="61.8281" fill="white" transform="translate(0.228516 0.927734)"/>
</clipPath>
</defs>
</svg>
