<svg width="456" height="422" viewBox="0 0 456 422" fill="none" xmlns="http://www.w3.org/2000/svg">
<path d="M436.885 156.047C430.45 156.047 280.803 156.047 280.803 156.047V237.306C280.803 237.306 332.267 240.226 365.28 240.525C397.647 240.817 439.299 238.915 448.149 238.915C456.999 238.915 455.412 214.467 453.781 198.688C451.938 180.871 443.32 156.047 436.885 156.047Z" fill="url(#paint0_linear_1942_921)"/>
<path d="M391.833 87.6602C387.81 87.6602 271.151 93.292 271.151 93.292V168.92C271.151 168.92 337.849 175.858 380.569 173.747C400.741 172.75 425.624 170.529 432.06 168.92C438.497 167.31 438.497 140.76 428.038 118.233C417.579 95.7056 395.856 87.6602 391.833 87.6602Z" fill="url(#paint1_linear_1942_921)"/>
<path d="M450.564 238.916C446.542 238.916 255.059 238.916 255.059 238.916V301.671C255.059 301.671 307.054 300.604 340.341 301.671C374.328 302.76 407.12 304.084 421.601 307.303C436.083 310.521 439.301 329.025 439.301 329.025C439.301 329.025 447.378 316.312 450.564 307.303C455.321 293.855 455.625 285.36 455.392 271.098C455.184 258.391 454.587 238.916 450.564 238.916Z" fill="url(#paint2_linear_1942_921)"/>
<path d="M438.495 329.83C437.171 320.931 435.276 316.153 428.037 309.716C420.798 303.278 325.86 300.866 325.86 300.866L223.68 296.039L193.107 407.067C193.107 407.067 278.389 430.399 332.294 416.721C386.199 403.044 397.194 394.194 407.922 386.149C418.649 378.103 422.372 372.931 428.84 362.817C436.071 351.508 440.47 343.106 438.495 329.83Z" fill="url(#paint3_linear_1942_921)"/>
<g filter="url(#filter0_i_1942_921)">
<path d="M100.64 4.03281C88.5713 0.814081 67.9576 -4.50381 53.9757 7.251C47.572 12.6347 41.9075 18.5147 41.9075 24.9511C41.9075 31.3875 66.0439 111.028 66.0439 111.028C66.0439 111.028 107.462 91.9047 136.04 81.2594C171.494 68.0527 230.172 57.9377 230.172 57.9377C230.172 57.9377 192.159 40.8105 166.613 29.7784C141.222 18.814 112.708 7.25153 100.64 4.03281Z" fill="url(#paint4_linear_1942_921)"/>
</g>
<path d="M293.732 239.705C293.732 250.369 318.672 255.796 339.591 254.991C351.143 254.991 358.9 244.737 358.9 234.073C358.9 223.409 355.166 209.937 343.613 209.937C317.063 210.741 293.732 220.396 293.732 239.705Z" fill="url(#paint5_linear_1942_921)"/>
<path d="M354.074 193.039C350.856 209.13 332.866 228.439 344.419 228.439C363.728 228.439 391.083 218.162 391.083 203.498C391.083 188.835 384.647 176.948 371.774 176.948C358.097 176.948 356.523 180.792 354.074 193.039Z" fill="url(#paint6_linear_1942_921)"/>
<path d="M299.363 169.707C325.058 196.379 334.083 232.948 346.033 229.24C337.988 200.277 349.68 176.947 342.005 152.005C335.567 131.085 323.231 123.634 311.282 127.342C292.933 131.088 282.43 152.129 299.363 169.707Z" fill="url(#paint7_linear_1942_921)"/>
<g filter="url(#filter1_i_1942_921)">
<path d="M313.04 246.143C288.099 259.55 287.296 275.018 295.341 285.566C300.461 292.278 316.258 287.184 331.54 256.613C338.786 244.095 349.918 244.907 344.798 238.195C339.678 231.482 339.163 232.101 313.04 246.143Z" fill="url(#paint8_linear_1942_921)"/>
</g>
<g filter="url(#filter2_i_1942_921)">
<path d="M344.415 285.564C352.3 324.987 353.267 338.664 359.704 338.664C363.703 338.664 372.118 310.505 366.943 298.437C357.288 275.909 355.655 247.75 351.656 247.75C345.22 248.555 340.392 265.45 344.415 285.564Z" fill="url(#paint9_linear_1942_921)"/>
</g>
<g filter="url(#filter3_d_1942_921)">
<ellipse cx="12.8728" cy="18.5046" rx="12.8728" ry="18.5046" transform="matrix(-0.999786 -0.0206748 -0.0206748 0.999786 360.578 214.539)" fill="url(#paint10_linear_1942_921)"/>
</g>
<g filter="url(#filter4_di_1942_921)">
<path d="M348.934 232.814C348.76 241.254 351.031 248.147 358.271 248.296C363.602 248.407 369.673 241.687 369.848 233.246C370.023 224.805 364.234 217.84 358.903 217.73C349.25 217.53 349.109 224.373 348.934 232.814Z" fill="url(#paint11_linear_1942_921)"/>
</g>
<path d="M399.071 103.754C399.071 103.754 397.458 76.4001 363.669 65.1359C329.88 53.8718 292.105 53.2208 246.205 56.2859C172.817 61.1865 95.7491 95.7093 65.986 110.995C36.2228 126.281 10.4772 142.373 5.64995 151.222C0.822657 160.072 0.275193 164.176 0.0129518 171.336C-0.208255 177.376 2.4266 186.623 2.4266 186.623C2.4266 186.623 97.4235 149.648 156.156 139.993C214.888 130.339 331.487 146.395 331.487 146.395C331.487 146.395 354.819 114.213 358.037 108.582C361.255 102.95 362.07 115.018 382.179 111.799C402.287 108.581 399.071 103.754 399.071 103.754Z" fill="url(#paint12_linear_1942_921)"/>
<path d="M332.295 149.679C332.295 144.851 321.033 140.023 315.399 139.219C309.766 138.416 208.319 129.081 141.617 141.633C88.2056 151.684 12.086 181.792 5.64804 185.011C-0.789902 188.23 1.62232 207.589 4.03894 221.216C6.54604 235.352 13.6951 253.397 19.3254 255.811C22.0023 256.959 163.338 245.42 163.338 245.42C163.338 245.42 317.695 232.969 320.227 232.547C325.054 231.743 325.955 209.652 328.272 194.733C330.983 177.278 332.295 154.506 332.295 149.679Z" fill="url(#paint13_linear_1942_921)"/>
<path d="M319.648 231.674C312.181 232.479 26.7935 255.006 21.1605 255.006C15.5274 255.006 21.7516 278.875 28.4014 292.015C36.0255 307.081 51.7345 322.588 58.9743 322.588C66.214 322.588 323.67 315.347 328.498 316.152C333.326 316.956 332.453 294.123 331.716 279.947C330.707 260.541 327.115 230.87 319.648 231.674Z" fill="url(#paint14_linear_1942_921)"/>
<path d="M330.687 315.35L58.749 322.591C58.749 322.591 77.0243 352.823 94.1492 366.841C109.381 379.309 120.163 383.568 138.399 390.977C183.179 409.169 213.482 412.632 261.495 407.068C296.179 403.049 339.538 389.451 347.582 379.714C353.467 372.589 355.629 369.254 358.847 363.623C362.065 357.991 353.892 344.606 347.582 335.463C341.755 327.02 330.687 315.35 330.687 315.35Z" fill="url(#paint15_linear_1942_921)"/>
<g filter="url(#filter5_i_1942_921)">
<path d="M207.497 351.549C208.839 343.504 201.064 341.894 185.774 337.872C170.484 333.849 128.647 328.219 116.583 333.849C104.518 339.48 62.6816 401.43 59.4597 406.258C56.2379 411.087 57.8543 418.325 65.0916 420.74C72.3289 423.155 122.879 413.628 154.396 395.799C177.891 382.509 206.155 359.595 207.497 351.549Z" fill="url(#paint16_linear_1942_921)"/>
</g>
<defs>
<filter id="filter0_i_1942_921" x="40.3971" y="0" width="189.775" height="114.048" filterUnits="userSpaceOnUse" color-interpolation-filters="sRGB">
<feFlood flood-opacity="0" result="BackgroundImageFix"/>
<feBlend mode="normal" in="SourceGraphic" in2="BackgroundImageFix" result="shape"/>
<feColorMatrix in="SourceAlpha" type="matrix" values="0 0 0 0 0 0 0 0 0 0 0 0 0 0 0 0 0 0 127 0" result="hardAlpha"/>
<feOffset dx="-1.51012" dy="3.02023"/>
<feGaussianBlur stdDeviation="2.18967"/>
<feComposite in2="hardAlpha" operator="arithmetic" k2="-1" k3="1"/>
<feColorMatrix type="matrix" values="0 0 0 0 0.976471 0 0 0 0 0.980392 0 0 0 0 0.968627 0 0 0 1 0"/>
<feBlend mode="normal" in2="shape" result="effect1_innerShadow_1942_921"/>
</filter>
<filter id="filter1_i_1942_921" x="290.046" y="234.048" width="56.0558" height="55.6351" filterUnits="userSpaceOnUse" color-interpolation-filters="sRGB">
<feFlood flood-opacity="0" result="BackgroundImageFix"/>
<feBlend mode="normal" in="SourceGraphic" in2="BackgroundImageFix" result="shape"/>
<feColorMatrix in="SourceAlpha" type="matrix" values="0 0 0 0 0 0 0 0 0 0 0 0 0 0 0 0 0 0 127 0" result="hardAlpha"/>
<feOffset dx="-0.755058" dy="1.51012"/>
<feGaussianBlur stdDeviation="0.792811"/>
<feComposite in2="hardAlpha" operator="arithmetic" k2="-1" k3="1"/>
<feColorMatrix type="matrix" values="0 0 0 0 0.796078 0 0 0 0 0.701961 0 0 0 0 0.568627 0 0 0 1 0"/>
<feBlend mode="normal" in2="shape" result="effect1_innerShadow_1942_921"/>
</filter>
<filter id="filter2_i_1942_921" x="341.736" y="247.75" width="26.8409" height="92.1222" filterUnits="userSpaceOnUse" color-interpolation-filters="sRGB">
<feFlood flood-opacity="0" result="BackgroundImageFix"/>
<feBlend mode="normal" in="SourceGraphic" in2="BackgroundImageFix" result="shape"/>
<feColorMatrix in="SourceAlpha" type="matrix" values="0 0 0 0 0 0 0 0 0 0 0 0 0 0 0 0 0 0 127 0" result="hardAlpha"/>
<feOffset dx="-3.02023" dy="6.04047"/>
<feGaussianBlur stdDeviation="0.604047"/>
<feComposite in2="hardAlpha" operator="arithmetic" k2="-1" k3="1"/>
<feColorMatrix type="matrix" values="0 0 0 0 0.835294 0 0 0 0 0.690196 0 0 0 0 0.529412 0 0 0 1 0"/>
<feBlend mode="normal" in2="shape" result="effect1_innerShadow_1942_921"/>
</filter>
<filter id="filter3_d_1942_921" x="330.145" y="207.701" width="38.89" height="50.1439" filterUnits="userSpaceOnUse" color-interpolation-filters="sRGB">
<feFlood flood-opacity="0" result="BackgroundImageFix"/>
<feColorMatrix in="SourceAlpha" type="matrix" values="0 0 0 0 0 0 0 0 0 0 0 0 0 0 0 0 0 0 127 0" result="hardAlpha"/>
<feOffset dx="2.26517"/>
<feGaussianBlur stdDeviation="3.2845"/>
<feComposite in2="hardAlpha" operator="out"/>
<feColorMatrix type="matrix" values="0 0 0 0 0 0 0 0 0 0 0 0 0 0 0 0 0 0 0.25 0"/>
<feBlend mode="normal" in2="BackgroundImageFix" result="effect1_dropShadow_1942_921"/>
<feBlend mode="normal" in="SourceGraphic" in2="effect1_dropShadow_1942_921" result="shape"/>
</filter>
<filter id="filter4_di_1942_921" x="347.943" y="216.744" width="24.3245" height="32.4599" filterUnits="userSpaceOnUse" color-interpolation-filters="sRGB">
<feFlood flood-opacity="0" result="BackgroundImageFix"/>
<feColorMatrix in="SourceAlpha" type="matrix" values="0 0 0 0 0 0 0 0 0 0 0 0 0 0 0 0 0 0 127 0" result="hardAlpha"/>
<feOffset dx="1.51012"/>
<feGaussianBlur stdDeviation="0.453035"/>
<feComposite in2="hardAlpha" operator="out"/>
<feColorMatrix type="matrix" values="0 0 0 0 0 0 0 0 0 0 0 0 0 0 0 0 0 0 0.25 0"/>
<feBlend mode="normal" in2="BackgroundImageFix" result="effect1_dropShadow_1942_921"/>
<feBlend mode="normal" in="SourceGraphic" in2="effect1_dropShadow_1942_921" result="shape"/>
<feColorMatrix in="SourceAlpha" type="matrix" values="0 0 0 0 0 0 0 0 0 0 0 0 0 0 0 0 0 0 127 0" result="hardAlpha"/>
<feOffset dx="-1.51012" dy="-2.26517"/>
<feGaussianBlur stdDeviation="0.490788"/>
<feComposite in2="hardAlpha" operator="arithmetic" k2="-1" k3="1"/>
<feColorMatrix type="matrix" values="0 0 0 0 0.811765 0 0 0 0 0.694118 0 0 0 0 0.537255 0 0 0 1 0"/>
<feBlend mode="normal" in2="shape" result="effect2_innerShadow_1942_921"/>
</filter>
<filter id="filter5_i_1942_921" x="57.8784" y="329.209" width="149.767" height="91.9009" filterUnits="userSpaceOnUse" color-interpolation-filters="sRGB">
<feFlood flood-opacity="0" result="BackgroundImageFix"/>
<feBlend mode="normal" in="SourceGraphic" in2="BackgroundImageFix" result="shape"/>
<feColorMatrix in="SourceAlpha" type="matrix" values="0 0 0 0 0 0 0 0 0 0 0 0 0 0 0 0 0 0 127 0" result="hardAlpha"/>
<feOffset dy="-2.26517"/>
<feGaussianBlur stdDeviation="2.45394"/>
<feComposite in2="hardAlpha" operator="arithmetic" k2="-1" k3="1"/>
<feColorMatrix type="matrix" values="0 0 0 0 0.721569 0 0 0 0 0.74902 0 0 0 0 0.623529 0 0 0 0.69 0"/>
<feBlend mode="normal" in2="shape" result="effect1_innerShadow_1942_921"/>
</filter>
<linearGradient id="paint0_linear_1942_921" x1="403.15" y1="197.918" x2="297.754" y2="205.159" gradientUnits="userSpaceOnUse">
<stop stop-color="#D9DAC9"/>
<stop offset="1" stop-color="#C0BDB5"/>
</linearGradient>
<linearGradient id="paint1_linear_1942_921" x1="353.813" y1="87.6602" x2="309.824" y2="199.527" gradientUnits="userSpaceOnUse">
<stop stop-color="#F3F0E8"/>
<stop offset="1" stop-color="#CAC7BD"/>
</linearGradient>
<linearGradient id="paint2_linear_1942_921" x1="429.702" y1="276.764" x2="270.401" y2="328.256" gradientUnits="userSpaceOnUse">
<stop stop-color="#D7D8C4"/>
<stop offset="1" stop-color="#9A9C94"/>
</linearGradient>
<linearGradient id="paint3_linear_1942_921" x1="393.497" y1="400.664" x2="315.455" y2="312.968" gradientUnits="userSpaceOnUse">
<stop stop-color="#E0E0CB"/>
<stop offset="1" stop-color="#AAB0A1"/>
</linearGradient>
<linearGradient id="paint4_linear_1942_921" x1="89.3758" y1="-27.3547" x2="115.926" y2="81.2594" gradientUnits="userSpaceOnUse">
<stop stop-color="#BAB9AF"/>
<stop offset="1" stop-color="#EDE7D0"/>
</linearGradient>
<linearGradient id="paint5_linear_1942_921" x1="330.741" y1="218.836" x2="318.673" y2="237.341" gradientUnits="userSpaceOnUse">
<stop stop-color="#B19672"/>
<stop offset="1" stop-color="#6B5B45"/>
</linearGradient>
<linearGradient id="paint6_linear_1942_921" x1="368.556" y1="168.148" x2="391.083" y2="237.339" gradientUnits="userSpaceOnUse">
<stop stop-color="#877155"/>
<stop offset="0.556502" stop-color="#D6B183"/>
</linearGradient>
<linearGradient id="paint7_linear_1942_921" x1="308.213" y1="113.438" x2="342.004" y2="230.902" gradientUnits="userSpaceOnUse">
<stop stop-color="#8B7354"/>
<stop offset="0.826065" stop-color="#D4B083"/>
</linearGradient>
<linearGradient id="paint8_linear_1942_921" x1="337.178" y1="238.951" x2="292.928" y2="283.202" gradientUnits="userSpaceOnUse">
<stop stop-color="#FFEBCD"/>
<stop offset="1" stop-color="#CEB48E"/>
</linearGradient>
<linearGradient id="paint9_linear_1942_921" x1="355.761" y1="247.75" x2="355.761" y2="338.664" gradientUnits="userSpaceOnUse">
<stop stop-color="#FFECCC"/>
<stop offset="1" stop-color="#D5B288"/>
</linearGradient>
<linearGradient id="paint10_linear_1942_921" x1="12.8728" y1="8.09499" x2="29.7683" y2="20.9678" gradientUnits="userSpaceOnUse">
<stop stop-color="#E2BB88"/>
<stop offset="1" stop-color="#6B5A42"/>
</linearGradient>
<linearGradient id="paint11_linear_1942_921" x1="359.707" y1="217.747" x2="349.246" y2="253.436" gradientUnits="userSpaceOnUse">
<stop stop-color="#FCECCD"/>
<stop offset="1" stop-color="#C4B69D"/>
</linearGradient>
<linearGradient id="paint12_linear_1942_921" x1="199.601" y1="74.8247" x2="222.129" y2="175.393" gradientUnits="userSpaceOnUse">
<stop stop-color="#FCFBF9"/>
<stop offset="1" stop-color="#EEEADE"/>
</linearGradient>
<linearGradient id="paint13_linear_1942_921" x1="166.906" y1="135.129" x2="167.417" y2="227.687" gradientUnits="userSpaceOnUse">
<stop stop-color="#FDF9F2"/>
<stop offset="1" stop-color="#E3E3CE"/>
</linearGradient>
<linearGradient id="paint14_linear_1942_921" x1="166.613" y1="267.913" x2="175.463" y2="341.932" gradientUnits="userSpaceOnUse">
<stop stop-color="#F0F1EA"/>
<stop offset="1" stop-color="#D1CEB2"/>
</linearGradient>
<linearGradient id="paint15_linear_1942_921" x1="226.151" y1="335.498" x2="234.197" y2="428.826" gradientUnits="userSpaceOnUse">
<stop stop-color="#E0E0CC"/>
<stop offset="1" stop-color="#BEC6B6"/>
</linearGradient>
<linearGradient id="paint16_linear_1942_921" x1="132.018" y1="355.611" x2="109.491" y2="391.011" gradientUnits="userSpaceOnUse">
<stop stop-color="#CED4B9"/>
<stop offset="1" stop-color="#FBFBF5"/>
</linearGradient>
</defs>
</svg>
