<svg width="1864" height="2163" viewBox="0 0 1864 2163" fill="none" xmlns="http://www.w3.org/2000/svg">
    <g class="connectors" stroke="white" stroke-width="15">
        <path d="M91.1831 1881.96L530.083 1647.88L889.562 1179.72L1370.26 795.161L1466.4 281.023L1579.26 118.001M651.302 832.783L893.742 1200.62L1315.92 1572.64L1763.18 2028.26"/>
    </g>
    <g class="stars" fill="white" stroke="white" stroke-width="15" stroke-linejoin="round">
        <path d="M494.222 815C637.778 815 642 798.28 642 610.18C642 798.28 642 815 789.778 815C642 815 642 831.72 642 1019.82C642 831.72 637.778 815 494.222 815Z"/>
        <path d="M726.626 731.4C654.848 802.46 629.515 802.46 557.737 731.4C629.515 802.46 629.515 827.54 557.737 898.6C629.515 827.54 654.848 827.54 726.626 898.6C654.848 827.54 654.848 802.46 726.626 731.4Z"/>
        <path d="M1279.5 794.5C1364.5 794.5 1367 784.54 1367 672.49C1367 784.54 1367 794.5 1454.5 794.5C1367 794.5 1367 804.46 1367 916.51C1367 804.46 1364.5 794.5 1279.5 794.5Z"/>
        <path d="M809.5 1185.5C894.5 1185.5 897 1175.54 897 1063.49C897 1175.54 897 1185.5 984.5 1185.5C897 1185.5 897 1195.46 897 1307.51C897 1195.46 894.5 1185.5 809.5 1185.5Z"/>
        <path d="M1215.5 1559.5C1300.5 1559.5 1303 1549.54 1303 1437.49C1303 1549.54 1303 1559.5 1390.5 1559.5C1303 1559.5 1303 1569.46 1303 1681.51C1303 1569.46 1300.5 1559.5 1215.5 1559.5Z"/>
        <path d="M443.5 1653.5C528.5 1653.5 531 1643.54 531 1531.49C531 1643.54 531 1653.5 618.5 1653.5C531 1653.5 531 1663.46 531 1775.51C531 1663.46 528.5 1653.5 443.5 1653.5Z"/>
        <path d="M7.5 1886.5C92.5 1886.5 95 1876.54 95 1764.49C95 1876.54 95.0003 1886.5 182.5 1886.5C95.0003 1886.5 95 1896.46 95 2008.51C95 1896.46 92.5 1886.5 7.5 1886.5Z"/>
        <path d="M1681.5 2032.5C1766.5 2032.5 1769 2022.54 1769 1910.49C1769 2022.54 1769 2032.5 1856.5 2032.5C1769 2032.5 1769 2042.46 1769 2154.51C1769 2042.46 1766.5 2032.5 1681.5 2032.5Z"/>
        <path d="M1372.5 286.5C1457.5 286.5 1460 276.54 1460 164.49C1460 276.54 1460 286.5 1547.5 286.5C1460 286.5 1460 296.46 1460 408.51C1460 296.46 1457.5 286.5 1372.5 286.5Z"/>
        <path d="M1495.5 130.5C1580.5 130.5 1583 120.54 1583 8.48999C1583 120.54 1583 130.5 1670.5 130.5C1583 130.5 1583 140.46 1583 252.51C1583 140.46 1580.5 130.5 1495.5 130.5Z"/>
    </g>
</svg>
