<svg xmlns:xlink="http://www.w3.org/1999/xlink" width="4185" height="4614" viewBox="0 0 4185 4614" fill="none" xmlns="http://www.w3.org/2000/svg">
    <path d="M2017.88 0.0390625L4015.37 1153.29V3459.79L2017.88 4613.04L20.3953 3459.79V1153.29L2017.88 0.0390625Z" fill="white"/>
    <g filter="url(#filter0_d_24_83)">
        <path d="M2017.88 232.039L3814.45 1269.29V3343.79L2017.88 4381.04L221.313 3343.79V1269.29L2017.88 232.039Z" fill="url(#paint0_linear_24_83)"/>
    </g>
    <g style="mix-blend-mode:screen" filter="url(#filter1_d_24_83)">
        <path d="M2017.88 232.039L3814.45 1269.29V3343.79L2017.88 4381.04L221.313 3343.79V1269.29L2017.88 232.039Z" fill="url(#pattern0)" shape-rendering="crispEdges"/>
    </g>
    <g filter="url(#filter2_f_24_83)">
        <path d="M1350.94 1318.29H1190.63C1186.53 1318.29 1182.09 1317.83 1177.3 1316.92C1172.63 1315.89 1167.96 1314.35 1163.29 1312.3C1158.73 1310.25 1154.35 1307.63 1150.13 1304.44C1145.91 1301.14 1142.16 1297.21 1138.85 1292.65C1135.66 1287.98 1133.1 1282.62 1131.16 1276.59C1129.22 1270.43 1128.26 1263.54 1128.26 1255.91V1135.59C1128.26 1131.49 1128.71 1127.11 1129.62 1122.44C1130.65 1117.65 1132.19 1112.98 1134.24 1108.42C1136.29 1103.75 1138.97 1099.31 1142.27 1095.09C1145.57 1090.88 1149.5 1087.17 1154.06 1083.98C1158.73 1080.68 1164.09 1078.06 1170.13 1076.12C1176.16 1074.19 1183 1073.22 1190.63 1073.22H1350.94V1117.65H1190.63C1184.82 1117.65 1180.38 1119.19 1177.3 1122.26C1174.23 1125.34 1172.69 1129.9 1172.69 1135.94V1255.91C1172.69 1261.6 1174.23 1266.05 1177.3 1269.24C1180.49 1272.31 1184.94 1273.85 1190.63 1273.85H1350.94V1318.29ZM1626.42 1155.25C1626.42 1165.39 1625.11 1174.45 1622.49 1182.42C1619.99 1190.4 1616.63 1197.46 1612.41 1203.61C1608.2 1209.65 1603.24 1214.83 1597.54 1219.16C1591.96 1223.49 1586.15 1227.08 1580.11 1229.93C1574.07 1232.67 1567.92 1234.66 1561.65 1235.91C1555.5 1237.17 1549.69 1237.79 1544.22 1237.79H1526.28V1318.29H1481.5V1237.79H1463.73C1458.26 1237.79 1452.39 1237.17 1446.13 1235.91C1439.97 1234.66 1433.82 1232.67 1427.67 1229.93C1421.63 1227.08 1415.82 1223.49 1410.24 1219.16C1404.66 1214.83 1399.7 1209.65 1395.37 1203.61C1391.15 1197.46 1387.74 1190.4 1385.12 1182.42C1382.61 1174.33 1381.36 1165.27 1381.36 1155.25V1073.22H1425.79V1155.25C1425.79 1161.06 1426.7 1166.3 1428.52 1170.97C1430.35 1175.53 1432.91 1179.46 1436.21 1182.76C1439.52 1186.07 1443.51 1188.63 1448.18 1190.45C1452.96 1192.16 1458.26 1193.02 1464.07 1193.02H1544.22C1548.44 1192.33 1552.77 1191.48 1557.21 1190.45C1561.65 1189.31 1565.7 1187.43 1569.34 1184.81C1572.99 1182.19 1576.01 1178.55 1578.4 1173.88C1580.79 1169.2 1581.99 1163 1581.99 1155.25V1073.22H1626.42V1155.25ZM1908.24 1295.9C1908.24 1299.09 1907.67 1302.05 1906.53 1304.78C1905.39 1307.52 1903.79 1309.91 1901.74 1311.96C1899.8 1313.9 1897.47 1315.44 1894.73 1316.58C1892 1317.72 1889.04 1318.29 1885.85 1318.29H1725.55C1721.44 1318.29 1717 1317.83 1712.22 1316.92C1707.54 1315.89 1702.87 1314.35 1698.2 1312.3C1693.64 1310.25 1689.26 1307.63 1685.04 1304.44C1680.83 1301.14 1677.07 1297.21 1673.76 1292.65C1670.57 1287.98 1668.01 1282.62 1666.07 1276.59C1664.14 1270.43 1663.17 1263.54 1663.17 1255.91V1135.59C1663.17 1131.49 1663.62 1127.11 1664.53 1122.44C1665.56 1117.65 1667.1 1112.98 1669.15 1108.42C1671.2 1103.75 1673.88 1099.31 1677.18 1095.09C1680.49 1090.88 1684.42 1087.17 1688.97 1083.98C1693.64 1080.68 1699 1078.06 1705.04 1076.12C1711.08 1074.19 1717.91 1073.22 1725.55 1073.22H1906.19V1117.65H1725.55C1719.73 1117.65 1715.29 1119.19 1712.22 1122.26C1709.14 1125.34 1707.6 1129.9 1707.6 1135.94V1255.91C1707.6 1261.6 1709.14 1266.05 1712.22 1269.24C1715.41 1272.31 1719.85 1273.85 1725.55 1273.85H1863.8V1218.14H1745.54V1173.36H1885.85C1889.04 1173.36 1892 1173.99 1894.73 1175.24C1897.47 1176.38 1899.8 1177.98 1901.74 1180.03C1903.79 1182.08 1905.39 1184.47 1906.53 1187.21C1907.67 1189.83 1908.24 1192.67 1908.24 1195.75V1295.9ZM2199.45 1299.32C2199.45 1302.51 2198.82 1305.47 2197.57 1308.2C2196.43 1310.94 2194.83 1313.33 2192.78 1315.38C2190.84 1317.32 2188.51 1318.85 2185.77 1319.99C2183.04 1321.13 2180.14 1321.7 2177.06 1321.7C2174.32 1321.7 2171.53 1321.19 2168.69 1320.17C2165.95 1319.14 2163.5 1317.49 2161.34 1315.21L1998.98 1145.68V1318.29H1954.55V1092.19C1954.55 1087.63 1955.8 1083.53 1958.31 1079.88C1960.93 1076.12 1964.23 1073.33 1968.22 1071.51C1972.44 1069.8 1976.77 1069.4 1981.21 1070.31C1985.65 1071.11 1989.47 1073.16 1992.66 1076.46L2155.01 1245.82V1073.22H2199.45V1299.32ZM2491.34 1295.9C2491.34 1299.09 2490.77 1302.05 2489.63 1304.78C2488.49 1307.52 2486.9 1309.91 2484.85 1311.96C2482.8 1313.9 2480.4 1315.44 2477.67 1316.58C2474.94 1317.72 2472.03 1318.29 2468.95 1318.29H2368.81C2359.35 1318.29 2349.78 1317.26 2340.1 1315.21C2330.41 1313.16 2321.01 1310.03 2311.9 1305.81C2302.9 1301.48 2294.41 1296.01 2286.43 1289.4C2278.46 1282.8 2271.45 1274.99 2265.41 1265.99C2259.49 1256.88 2254.82 1246.51 2251.4 1234.89C2247.98 1223.15 2246.27 1210.11 2246.27 1195.75V1073.22H2290.71V1195.75C2290.71 1208.28 2292.42 1218.88 2295.83 1227.54C2299.37 1236.2 2303.81 1243.43 2309.16 1249.24C2314.52 1255.05 2320.39 1259.61 2326.77 1262.91C2333.15 1266.22 2339.18 1268.67 2344.88 1270.26C2350.69 1271.86 2355.76 1272.88 2360.09 1273.34C2364.53 1273.68 2367.44 1273.85 2368.81 1273.85H2446.91V1073.22H2491.34V1295.9ZM2778.62 1246.17C2778.62 1254.94 2777.48 1262.86 2775.2 1269.92C2773.04 1276.87 2770.13 1283.02 2766.49 1288.38C2762.84 1293.73 2758.57 1298.29 2753.67 1302.05C2748.77 1305.81 2743.7 1308.89 2738.46 1311.28C2733.22 1313.67 2727.86 1315.44 2722.4 1316.58C2717.04 1317.72 2711.97 1318.29 2707.19 1318.29H2535.77V1273.85H2707.19C2715.73 1273.85 2722.34 1271.35 2727.01 1266.33C2731.8 1261.32 2734.19 1254.6 2734.19 1246.17C2734.19 1242.06 2733.56 1238.3 2732.31 1234.89C2731.05 1231.47 2729.23 1228.51 2726.84 1226C2724.56 1223.49 2721.71 1221.56 2718.29 1220.19C2714.99 1218.82 2711.29 1218.14 2707.19 1218.14H2604.99C2597.81 1218.14 2590.06 1216.89 2581.75 1214.38C2573.43 1211.76 2565.68 1207.6 2558.5 1201.9C2551.44 1196.21 2545.52 1188.74 2540.73 1179.52C2536.06 1170.29 2533.72 1159.01 2533.72 1145.68C2533.72 1132.35 2536.06 1121.13 2540.73 1112.01C2545.52 1102.78 2551.44 1095.32 2558.5 1089.62C2565.68 1083.81 2573.43 1079.65 2581.75 1077.15C2590.06 1074.53 2597.81 1073.22 2604.99 1073.22H2756.23V1117.65H2604.99C2596.56 1117.65 2589.95 1120.21 2585.16 1125.34C2580.49 1130.47 2578.16 1137.25 2578.16 1145.68C2578.16 1154.22 2580.49 1161 2585.16 1166.01C2589.95 1170.91 2596.56 1173.36 2604.99 1173.36H2707.19H2707.53C2712.31 1173.48 2717.38 1174.16 2722.74 1175.41C2728.09 1176.55 2733.39 1178.38 2738.63 1180.88C2743.99 1183.39 2749.06 1186.58 2753.84 1190.45C2758.63 1194.21 2762.84 1198.77 2766.49 1204.12C2770.25 1209.48 2773.21 1215.63 2775.37 1222.58C2777.54 1229.53 2778.62 1237.39 2778.62 1246.17Z" fill="white"/>
    </g>
    <g filter="url(#filter3_d_24_83)">
        <path d="M1350.94 1318.29H1190.63C1186.53 1318.29 1182.09 1317.83 1177.3 1316.92C1172.63 1315.89 1167.96 1314.35 1163.29 1312.3C1158.73 1310.25 1154.35 1307.63 1150.13 1304.44C1145.91 1301.14 1142.16 1297.21 1138.85 1292.65C1135.66 1287.98 1133.1 1282.62 1131.16 1276.59C1129.22 1270.43 1128.26 1263.54 1128.26 1255.91V1135.59C1128.26 1131.49 1128.71 1127.11 1129.62 1122.44C1130.65 1117.65 1132.19 1112.98 1134.24 1108.42C1136.29 1103.75 1138.97 1099.31 1142.27 1095.09C1145.57 1090.88 1149.5 1087.17 1154.06 1083.98C1158.73 1080.68 1164.09 1078.06 1170.13 1076.12C1176.16 1074.19 1183 1073.22 1190.63 1073.22H1350.94V1117.65H1190.63C1184.82 1117.65 1180.38 1119.19 1177.3 1122.26C1174.23 1125.34 1172.69 1129.9 1172.69 1135.94V1255.91C1172.69 1261.6 1174.23 1266.05 1177.3 1269.24C1180.49 1272.31 1184.94 1273.85 1190.63 1273.85H1350.94V1318.29ZM1626.42 1155.25C1626.42 1165.39 1625.11 1174.45 1622.49 1182.42C1619.99 1190.4 1616.63 1197.46 1612.41 1203.61C1608.2 1209.65 1603.24 1214.83 1597.54 1219.16C1591.96 1223.49 1586.15 1227.08 1580.11 1229.93C1574.07 1232.67 1567.92 1234.66 1561.65 1235.91C1555.5 1237.17 1549.69 1237.79 1544.22 1237.79H1526.28V1318.29H1481.5V1237.79H1463.73C1458.26 1237.79 1452.39 1237.17 1446.13 1235.91C1439.97 1234.66 1433.82 1232.67 1427.67 1229.93C1421.63 1227.08 1415.82 1223.49 1410.24 1219.16C1404.66 1214.83 1399.7 1209.65 1395.37 1203.61C1391.15 1197.46 1387.74 1190.4 1385.12 1182.42C1382.61 1174.33 1381.36 1165.27 1381.36 1155.25V1073.22H1425.79V1155.25C1425.79 1161.06 1426.7 1166.3 1428.52 1170.97C1430.35 1175.53 1432.91 1179.46 1436.21 1182.76C1439.52 1186.07 1443.51 1188.63 1448.18 1190.45C1452.96 1192.16 1458.26 1193.02 1464.07 1193.02H1544.22C1548.44 1192.33 1552.77 1191.48 1557.21 1190.45C1561.65 1189.31 1565.7 1187.43 1569.34 1184.81C1572.99 1182.19 1576.01 1178.55 1578.4 1173.88C1580.79 1169.2 1581.99 1163 1581.99 1155.25V1073.22H1626.42V1155.25ZM1908.24 1295.9C1908.24 1299.09 1907.67 1302.05 1906.53 1304.78C1905.39 1307.52 1903.79 1309.91 1901.74 1311.96C1899.8 1313.9 1897.47 1315.44 1894.73 1316.58C1892 1317.72 1889.04 1318.29 1885.85 1318.29H1725.55C1721.44 1318.29 1717 1317.83 1712.22 1316.92C1707.54 1315.89 1702.87 1314.35 1698.2 1312.3C1693.64 1310.25 1689.26 1307.63 1685.04 1304.44C1680.83 1301.14 1677.07 1297.21 1673.76 1292.65C1670.57 1287.98 1668.01 1282.62 1666.07 1276.59C1664.14 1270.43 1663.17 1263.54 1663.17 1255.91V1135.59C1663.17 1131.49 1663.62 1127.11 1664.53 1122.44C1665.56 1117.65 1667.1 1112.98 1669.15 1108.42C1671.2 1103.75 1673.88 1099.31 1677.18 1095.09C1680.49 1090.88 1684.42 1087.17 1688.97 1083.98C1693.64 1080.68 1699 1078.06 1705.04 1076.12C1711.08 1074.19 1717.91 1073.22 1725.55 1073.22H1906.19V1117.65H1725.55C1719.73 1117.65 1715.29 1119.19 1712.22 1122.26C1709.14 1125.34 1707.6 1129.9 1707.6 1135.94V1255.91C1707.6 1261.6 1709.14 1266.05 1712.22 1269.24C1715.41 1272.31 1719.85 1273.85 1725.55 1273.85H1863.8V1218.14H1745.54V1173.36H1885.85C1889.04 1173.36 1892 1173.99 1894.73 1175.24C1897.47 1176.38 1899.8 1177.98 1901.74 1180.03C1903.79 1182.08 1905.39 1184.47 1906.53 1187.21C1907.67 1189.83 1908.24 1192.67 1908.24 1195.75V1295.9ZM2199.45 1299.32C2199.45 1302.51 2198.82 1305.47 2197.57 1308.2C2196.43 1310.94 2194.83 1313.33 2192.78 1315.38C2190.84 1317.32 2188.51 1318.85 2185.77 1319.99C2183.04 1321.13 2180.14 1321.7 2177.06 1321.7C2174.32 1321.7 2171.53 1321.19 2168.69 1320.17C2165.95 1319.14 2163.5 1317.49 2161.34 1315.21L1998.98 1145.68V1318.29H1954.55V1092.19C1954.55 1087.63 1955.8 1083.53 1958.31 1079.88C1960.93 1076.12 1964.23 1073.33 1968.22 1071.51C1972.44 1069.8 1976.77 1069.4 1981.21 1070.31C1985.65 1071.11 1989.47 1073.16 1992.66 1076.46L2155.01 1245.82V1073.22H2199.45V1299.32ZM2491.34 1295.9C2491.34 1299.09 2490.77 1302.05 2489.63 1304.78C2488.49 1307.52 2486.9 1309.91 2484.85 1311.96C2482.8 1313.9 2480.4 1315.44 2477.67 1316.58C2474.94 1317.72 2472.03 1318.29 2468.95 1318.29H2368.81C2359.35 1318.29 2349.78 1317.26 2340.1 1315.21C2330.41 1313.16 2321.01 1310.03 2311.9 1305.81C2302.9 1301.48 2294.41 1296.01 2286.43 1289.4C2278.46 1282.8 2271.45 1274.99 2265.41 1265.99C2259.49 1256.88 2254.82 1246.51 2251.4 1234.89C2247.98 1223.15 2246.27 1210.11 2246.27 1195.75V1073.22H2290.71V1195.75C2290.71 1208.28 2292.42 1218.88 2295.83 1227.54C2299.37 1236.2 2303.81 1243.43 2309.16 1249.24C2314.52 1255.05 2320.39 1259.61 2326.77 1262.91C2333.15 1266.22 2339.18 1268.67 2344.88 1270.26C2350.69 1271.86 2355.76 1272.88 2360.09 1273.34C2364.53 1273.68 2367.44 1273.85 2368.81 1273.85H2446.91V1073.22H2491.34V1295.9ZM2778.62 1246.17C2778.62 1254.94 2777.48 1262.86 2775.2 1269.92C2773.04 1276.87 2770.13 1283.02 2766.49 1288.38C2762.84 1293.73 2758.57 1298.29 2753.67 1302.05C2748.77 1305.81 2743.7 1308.89 2738.46 1311.28C2733.22 1313.67 2727.86 1315.44 2722.4 1316.58C2717.04 1317.72 2711.97 1318.29 2707.19 1318.29H2535.77V1273.85H2707.19C2715.73 1273.85 2722.34 1271.35 2727.01 1266.33C2731.8 1261.32 2734.19 1254.6 2734.19 1246.17C2734.19 1242.06 2733.56 1238.3 2732.31 1234.89C2731.05 1231.47 2729.23 1228.51 2726.84 1226C2724.56 1223.49 2721.71 1221.56 2718.29 1220.19C2714.99 1218.82 2711.29 1218.14 2707.19 1218.14H2604.99C2597.81 1218.14 2590.06 1216.89 2581.75 1214.38C2573.43 1211.76 2565.68 1207.6 2558.5 1201.9C2551.44 1196.21 2545.52 1188.74 2540.73 1179.52C2536.06 1170.29 2533.72 1159.01 2533.72 1145.68C2533.72 1132.35 2536.06 1121.13 2540.73 1112.01C2545.52 1102.78 2551.44 1095.32 2558.5 1089.62C2565.68 1083.81 2573.43 1079.65 2581.75 1077.15C2590.06 1074.53 2597.81 1073.22 2604.99 1073.22H2756.23V1117.65H2604.99C2596.56 1117.65 2589.95 1120.21 2585.16 1125.34C2580.49 1130.47 2578.16 1137.25 2578.16 1145.68C2578.16 1154.22 2580.49 1161 2585.16 1166.01C2589.95 1170.91 2596.56 1173.36 2604.99 1173.36H2707.19H2707.53C2712.31 1173.48 2717.38 1174.16 2722.74 1175.41C2728.09 1176.55 2733.39 1178.38 2738.63 1180.88C2743.99 1183.39 2749.06 1186.58 2753.84 1190.45C2758.63 1194.21 2762.84 1198.77 2766.49 1204.12C2770.25 1209.48 2773.21 1215.63 2775.37 1222.58C2777.54 1229.53 2778.62 1237.39 2778.62 1246.17Z" fill="white"/>
    </g>
    <use filter="url(#filter4_f_24_83)" href="#constellation" xlink:href="#constellation"/>
    <use href="#constellation" xlink:href="#constellation"/>
    <defs>
        <filter id="filter0_d_24_83" x="217.313" y="232.039" width="3601.14" height="4157" filterUnits="userSpaceOnUse" color-interpolation-filters="sRGB">
            <feFlood flood-opacity="0" result="BackgroundImageFix"/>
            <feColorMatrix in="SourceAlpha" type="matrix" values="0 0 0 0 0 0 0 0 0 0 0 0 0 0 0 0 0 0 127 0" result="hardAlpha"/>
            <feOffset dy="4"/>
            <feGaussianBlur stdDeviation="2"/>
            <feComposite in2="hardAlpha" operator="out"/>
            <feColorMatrix type="matrix" values="0 0 0 0 0 0 0 0 0 0 0 0 0 0 0 0 0 0 0.25 0"/>
            <feBlend mode="normal" in2="BackgroundImageFix" result="effect1_dropShadow_24_83"/>
            <feBlend mode="normal" in="SourceGraphic" in2="effect1_dropShadow_24_83" result="shape"/>
        </filter>
        <filter id="filter1_d_24_83" x="217.313" y="232.039" width="3601.14" height="4157" filterUnits="userSpaceOnUse" color-interpolation-filters="sRGB">
            <feFlood flood-opacity="0" result="BackgroundImageFix"/>
            <feColorMatrix in="SourceAlpha" type="matrix" values="0 0 0 0 0 0 0 0 0 0 0 0 0 0 0 0 0 0 127 0" result="hardAlpha"/>
            <feOffset dy="4"/>
            <feGaussianBlur stdDeviation="2"/>
            <feComposite in2="hardAlpha" operator="out"/>
            <feColorMatrix type="matrix" values="0 0 0 0 0 0 0 0 0 0 0 0 0 0 0 0 0 0 0.25 0"/>
            <feBlend mode="normal" in2="BackgroundImageFix" result="effect1_dropShadow_24_83"/>
            <feBlend mode="normal" in="SourceGraphic" in2="effect1_dropShadow_24_83" result="shape"/>
        </filter>
        <pattern id="pattern0" patternContentUnits="objectBoundingBox" width="1" height="1">
            <use xlink:href="#image0_24_83" transform="translate(0 -0.334259) scale(0.000925926)"/>
        </pattern>
        <filter id="filter2_f_24_83" x="1048.26" y="988.944" width="1810.37" height="412.759" filterUnits="userSpaceOnUse" color-interpolation-filters="sRGB">
            <feFlood flood-opacity="0" result="BackgroundImageFix"/>
            <feBlend mode="normal" in="SourceGraphic" in2="BackgroundImageFix" result="shape"/>
            <feGaussianBlur stdDeviation="40" result="effect1_foregroundBlur_24_83"/>
        </filter>
        <filter id="filter3_d_24_83" x="1124.26" y="1068.94" width="1658.37" height="276.759" filterUnits="userSpaceOnUse" color-interpolation-filters="sRGB">
            <feFlood flood-opacity="0" result="BackgroundImageFix"/>
            <feColorMatrix in="SourceAlpha" type="matrix" values="0 0 0 0 0 0 0 0 0 0 0 0 0 0 0 0 0 0 127 0" result="hardAlpha"/>
            <feOffset dy="20"/>
            <feGaussianBlur stdDeviation="2"/>
            <feComposite in2="hardAlpha" operator="out"/>
            <feColorMatrix type="matrix" values="0 0 0 0 0 0 0 0 0 0 0 0 0 0 0 0 0 0 0.25 0"/>
            <feBlend mode="normal" in2="BackgroundImageFix" result="effect1_dropShadow_24_83"/>
            <feBlend mode="normal" in="SourceGraphic" in2="effect1_dropShadow_24_83" result="shape"/>
        </filter>
        <filter id="filter4_f_24_83" x="919.698" y="1429.45" width="2024" height="2321.02" filterUnits="userSpaceOnUse" color-interpolation-filters="sRGB">
            <feFlood flood-opacity="0" result="BackgroundImageFix"/>
            <feBlend mode="normal" in="SourceGraphic" in2="BackgroundImageFix" result="shape"/>
            <feGaussianBlur stdDeviation="40" result="effect1_foregroundBlur_24_83"/>
        </filter>
        <linearGradient id="paint0_linear_24_83" x1="2017.88" y1="232.039" x2="2017.88" y2="4381.04" gradientUnits="userSpaceOnUse">
            <stop stop-color="#2E2B5F"/>
            <stop offset="1" stop-color="#DBF1F8"/>
        </linearGradient>
        <image id="image0_24_83" width="1080" height="1802" href="../stars-overlay.jpg" xlink:href="../stars-overlay.jpg"/>
        <image id="constellation" href="./constellation.svg" xlink:href="./constellation.svg" x="1000" y="1508"/>
    </defs>
</svg>
