<svg width="204" height="195" viewBox="0 0 204 195" fill="none" xmlns="http://www.w3.org/2000/svg">
<g clip-path="url(#clip0_1175_2)">
<rect width="1280" height="6311" transform="translate(-1050 -5710)" fill="url(#paint0_linear_1175_2)"/>
<rect x="-1051" y="-4862" width="1280" height="5253" fill="#050E2D"/>
<mask id="mask0_1175_2" style="mask-type:alpha" maskUnits="userSpaceOnUse" x="8" y="-103" width="188" height="188">
<rect x="101.935" y="-103" width="132.844" height="132.844" transform="rotate(45 101.935 -103)" fill="#D9D9D9"/>
</mask>
    <g mask="url(#mask0_1175_2)">
        <rect x="105.699" y="87.355" width="7.93896" height="193.404"
              transform="rotate(-180 105.699 87.355)" fill="#141B2F"/>
        <rect x="90.1079" y="87.355" width="7.93896" height="193.404"
              transform="rotate(-180 90.1079 87.355)" fill="#141B2F"/>
        <rect x="74.5181" y="87.355" width="7.93896" height="193.404"
              transform="rotate(-180 74.5181 87.355)" fill="#141B2F"/>
        <rect x="58.9233" y="87.355" width="7.93896" height="193.404"
              transform="rotate(-180 58.9233 87.355)" fill="#141B2F"/>
        <rect x="43.3345" y="87.355" width="7.93896" height="193.404"
              transform="rotate(-180 43.3345 87.355)" fill="#141B2F"/>
        <rect x="27.7417" y="87.355" width="7.93896" height="193.404"
              transform="rotate(-180 27.7417 87.355)" fill="#141B2F"/>
        <rect x="12.1509" y="87.355" width="7.93896" height="193.404"
              transform="rotate(-180 12.1509 87.355)" fill="#141B2F"/>
        <rect x="121.287" y="87.355" width="7.93896" height="193.404"
              transform="rotate(-180 121.287 87.355)" fill="#141B2F"/>
        <rect x="136.88" y="87.355" width="7.93896" height="193.404"
              transform="rotate(-180 136.88 87.355)" fill="#141B2F"/>
        <rect x="152.469" y="87.355" width="7.93896" height="193.404"
              transform="rotate(-180 152.469 87.355)" fill="#141B2F"/>
        <rect x="168.06" y="87.355" width="7.93896" height="193.404"
              transform="rotate(-180 168.06 87.355)" fill="#141B2F"/>
        <rect x="183.652" y="87.355" width="7.93896" height="193.404"
              transform="rotate(-180 183.652 87.355)" fill="#141B2F"/>
        <rect x="199.243" y="87.355" width="7.93896" height="193.404"
              transform="rotate(-180 199.243 87.355)" fill="#141B2F"/>
    </g>
<mask id="mask1_1175_2" style="mask-type:alpha" maskUnits="userSpaceOnUse" x="8" y="101" width="188" height="188">
<rect x="101.935" y="101" width="132.844" height="132.844" transform="rotate(45 101.935 101)" fill="#D9D9D9"/>
</mask>
    <g mask="url(#mask1_1175_2)">
        <rect x="105.699" y="291.355" width="7.93896" height="193.404"
              transform="rotate(-180 105.699 291.355)" fill="#141B2F"/>
        <rect x="90.1079" y="291.355" width="7.93896" height="193.404"
              transform="rotate(-180 90.1079 291.355)" fill="#141B2F"/>
        <rect x="74.5181" y="291.355" width="7.93896" height="193.404"
              transform="rotate(-180 74.5181 291.355)" fill="#141B2F"/>
        <rect x="58.9233" y="291.355" width="7.93896" height="193.404"
              transform="rotate(-180 58.9233 291.355)" fill="#141B2F"/>
        <rect x="43.3345" y="291.355" width="7.93896" height="193.404"
              transform="rotate(-180 43.3345 291.355)" fill="#141B2F"/>
        <rect x="27.7417" y="291.355" width="7.93896" height="193.404"
              transform="rotate(-180 27.7417 291.355)" fill="#141B2F"/>
        <rect x="12.1509" y="291.355" width="7.93896" height="193.404"
              transform="rotate(-180 12.1509 291.355)" fill="#141B2F"/>
        <rect x="121.287" y="291.355" width="7.93896" height="193.404"
              transform="rotate(-180 121.287 291.355)" fill="#141B2F"/>
        <rect x="136.88" y="291.355" width="7.93896" height="193.404"
              transform="rotate(-180 136.88 291.355)" fill="#141B2F"/>
        <rect x="152.469" y="291.355" width="7.93896" height="193.404"
              transform="rotate(-180 152.469 291.355)" fill="#141B2F"/>
        <rect x="168.06" y="291.355" width="7.93896" height="193.404"
              transform="rotate(-180 168.06 291.355)" fill="#141B2F"/>
        <rect x="183.652" y="291.355" width="7.93896" height="193.404"
              transform="rotate(-180 183.652 291.355)" fill="#141B2F"/>
        <rect x="199.243" y="291.355" width="7.93896" height="193.404"
              transform="rotate(-180 199.243 291.355)" fill="#141B2F"/>
    </g>
<mask id="mask2_1175_2" style="mask-type:alpha" maskUnits="userSpaceOnUse" x="-94" y="0" width="188" height="188">
<rect x="-0.0649414" width="132.844" height="132.844" transform="rotate(45 -0.0649414 0)" fill="#D9D9D9"/>
</mask>
    <g mask="url(#mask2_1175_2)">
        <rect x="3.69873" y="190.355" width="7.93896" height="193.404"
              transform="rotate(-180 3.69873 190.355)" fill="#141B2F"/>
        <rect x="19.2866" y="190.355" width="7.93896" height="193.404"
              transform="rotate(-180 19.2866 190.355)" fill="#141B2F"/>
        <rect x="34.8804" y="190.355" width="7.93896" height="193.404"
              transform="rotate(-180 34.8804 190.355)" fill="#141B2F"/>
        <rect x="50.4692" y="190.355" width="7.93896" height="193.404"
              transform="rotate(-180 50.4692 190.355)" fill="#141B2F"/>
        <rect x="66.0601" y="190.355" width="7.93896" height="193.404"
              transform="rotate(-180 66.0601 190.355)" fill="#141B2F"/>
        <rect x="81.6519" y="190.355" width="7.93896" height="193.404"
              transform="rotate(-180 81.6519 190.355)" fill="#141B2F"/>
        <rect x="97.2427" y="190.355" width="7.93896" height="193.404"
              transform="rotate(-180 97.2427 190.355)" fill="#141B2F"/>
    </g>
<mask id="mask3_1175_2" style="mask-type:alpha" maskUnits="userSpaceOnUse" x="110" y="0" width="188" height="188">
<rect x="203.935" width="132.844" height="132.844" transform="rotate(45 203.935 0)" fill="#D9D9D9"/>
</mask>
    <g mask="url(#mask3_1175_2)">
        <rect x="207.699" y="190.355" width="7.93896" height="193.404"
              transform="rotate(-180 207.699 190.355)" fill="#141B2F"/>
        <rect x="192.108" y="190.355" width="7.93896" height="193.404"
              transform="rotate(-180 192.108 190.355)" fill="#141B2F"/>
        <rect x="176.518" y="190.355" width="7.93896" height="193.404"
              transform="rotate(-180 176.518 190.355)" fill="#141B2F"/>
        <rect x="160.923" y="190.355" width="7.93896" height="193.404"
              transform="rotate(-180 160.923 190.355)" fill="#141B2F"/>
        <rect x="145.334" y="190.355" width="7.93896" height="193.404"
              transform="rotate(-180 145.334 190.355)" fill="#141B2F"/>
        <rect x="129.742" y="190.355" width="7.93896" height="193.404"
              transform="rotate(-180 129.742 190.355)" fill="#141B2F"/>
        <rect x="114.151" y="190.355" width="7.93896" height="193.404"
              transform="rotate(-180 114.151 190.355)" fill="#141B2F"/>
    </g>
</g>
<defs>
<linearGradient id="paint0_linear_1175_2" x1="640" y1="0" x2="640" y2="6311" gradientUnits="userSpaceOnUse">
    <stop offset="0.000156571" stop-color="#050E2D"/>
</linearGradient>
<clipPath id="clip0_1175_2">
<rect width="1280" height="6311" fill="white" transform="translate(-1050 -5710)"/>
</clipPath>
</defs>
</svg>
