<svg width="7235" height="7183" viewBox="0 0 7235 7183" fill="none" xmlns="http://www.w3.org/2000/svg">
    <path
        d="M1910.78 557.93C1910.78 592.044 1904.79 623.424 1892.81 652.07C1881.09 680.716 1864.81 705.456 1843.98 726.289C1823.15 746.862 1798.41 763.008 1769.76 774.727C1741.11 786.445 1709.99 792.305 1676.4 792.305H1402.18C1394.89 792.305 1388.12 791.003 1381.87 788.398C1375.62 785.794 1370.15 782.279 1365.46 777.852C1361.04 773.164 1357.52 767.695 1354.92 761.445C1352.31 755.195 1351.01 748.424 1351.01 741.133V283.32C1351.01 276.289 1352.31 269.648 1354.92 263.398C1357.52 257.148 1361.04 251.68 1365.46 246.992C1370.15 242.305 1375.62 238.659 1381.87 236.055C1388.12 233.451 1394.89 232.148 1402.18 232.148H1676.4C1709.99 232.148 1741.11 238.008 1769.76 249.727C1798.41 261.445 1823.15 277.721 1843.98 298.555C1864.81 319.128 1881.09 343.867 1892.81 372.773C1904.79 401.419 1910.78 432.669 1910.78 466.523V557.93ZM1809.21 466.523C1809.21 446.732 1805.96 428.633 1799.45 412.227C1793.2 395.82 1784.21 381.888 1772.49 370.43C1760.78 358.711 1746.71 349.727 1730.31 343.477C1714.16 336.966 1696.19 333.711 1676.4 333.711H1452.57V690.742H1676.4C1696.19 690.742 1714.16 687.617 1730.31 681.367C1746.71 674.857 1760.78 665.872 1772.49 654.414C1784.21 642.695 1793.2 628.763 1799.45 612.617C1805.96 596.211 1809.21 577.982 1809.21 557.93V466.523ZM2559.21 741.133C2559.21 748.424 2557.91 755.195 2555.31 761.445C2552.7 767.695 2549.06 773.164 2544.37 777.852C2539.68 782.279 2534.21 785.794 2527.96 788.398C2521.71 791.003 2515.07 792.305 2508.04 792.305H2279.13C2257.52 792.305 2235.65 789.961 2213.51 785.273C2191.37 780.586 2169.89 773.424 2149.06 763.789C2128.48 753.893 2109.08 741.393 2090.85 726.289C2072.62 711.185 2056.61 693.346 2042.81 672.773C2029.26 651.94 2018.59 628.242 2010.78 601.68C2002.96 574.857 1999.06 545.039 1999.06 512.227V232.148H2100.62V512.227C2100.62 540.872 2104.53 565.091 2112.34 584.883C2120.41 604.674 2130.57 621.211 2142.81 634.492C2155.05 647.773 2168.46 658.19 2183.04 665.742C2197.62 673.294 2211.43 678.893 2224.45 682.539C2237.73 686.185 2249.32 688.529 2259.21 689.57C2269.37 690.352 2276.01 690.742 2279.13 690.742H2457.65V232.148H2559.21V741.133ZM3237.34 420.43C3237.34 443.607 3234.47 464.31 3228.74 482.539C3223.01 500.768 3215.2 516.914 3205.31 530.977C3195.67 544.779 3184.47 556.628 3171.71 566.523C3158.95 576.419 3145.54 584.622 3131.48 591.133C3117.68 597.383 3103.61 601.94 3089.29 604.805C3075.23 607.669 3061.95 609.102 3049.45 609.102L3261.56 792.305H3104.53L2892.81 609.102H2819.76V507.539H3049.45C3062.21 506.497 3073.8 503.893 3084.21 499.727C3094.89 495.299 3104 489.44 3111.56 482.148C3119.37 474.857 3125.36 466.133 3129.53 455.977C3133.69 445.56 3135.78 433.711 3135.78 420.43V356.367C3135.78 350.638 3134.99 346.341 3133.43 343.477C3132.13 340.352 3130.31 338.138 3127.96 336.836C3125.88 335.273 3123.54 334.362 3120.93 334.102C3118.59 333.841 3116.37 333.711 3114.29 333.711H2779.13V792.305H2677.57V283.32C2677.57 276.289 2678.87 269.648 2681.48 263.398C2684.08 257.148 2687.6 251.68 2692.03 246.992C2696.71 242.305 2702.18 238.659 2708.43 236.055C2714.68 233.451 2721.45 232.148 2728.74 232.148H3114.29C3136.95 232.148 3156.09 236.315 3171.71 244.648C3187.34 252.721 3199.97 263.008 3209.6 275.508C3219.5 287.747 3226.53 301.029 3230.7 315.352C3235.12 329.674 3237.34 343.086 3237.34 355.586V420.43ZM3441.63 461.055H3798.28V232.148H3899.84V792.305H3798.28V563.398H3441.63V792.305H3340.07V232.148H3441.63V461.055ZM4568.59 792.305H4467.03V654.805H4109.99V792.305H4008.43V512.227C4008.43 471.341 4015.46 433.711 4029.53 399.336C4043.59 364.961 4063.12 335.404 4088.12 310.664C4113.12 285.924 4142.68 266.654 4176.79 252.852C4210.91 239.049 4248.15 232.148 4288.51 232.148H4517.42C4524.45 232.148 4531.09 233.451 4537.34 236.055C4543.59 238.659 4549.06 242.305 4553.74 246.992C4558.43 251.68 4562.08 257.148 4564.68 263.398C4567.29 269.648 4568.59 276.289 4568.59 283.32V792.305ZM4109.99 553.242H4467.03V333.711H4288.51C4285.38 333.711 4278.74 334.232 4268.59 335.273C4258.69 336.055 4247.1 338.268 4233.82 341.914C4220.8 345.56 4207 351.159 4192.42 358.711C4177.83 366.263 4164.42 376.68 4152.18 389.961C4139.94 403.242 4129.79 419.909 4121.71 439.961C4113.9 459.753 4109.99 483.841 4109.99 512.227V553.242ZM5188.51 792.305H4822.1C4812.73 792.305 4802.57 791.263 4791.63 789.18C4780.96 786.836 4770.28 783.32 4759.6 778.633C4749.19 773.945 4739.16 767.956 4729.53 760.664C4719.89 753.112 4711.3 744.128 4703.74 733.711C4696.45 723.034 4690.59 710.794 4686.17 696.992C4681.74 682.93 4679.53 667.174 4679.53 649.727V374.727C4679.53 365.352 4680.57 355.326 4682.65 344.648C4684.99 333.711 4688.51 323.034 4693.2 312.617C4697.88 301.94 4704 291.784 4711.56 282.148C4719.11 272.513 4728.09 264.049 4738.51 256.758C4749.19 249.206 4761.43 243.216 4775.23 238.789C4789.03 234.362 4804.66 232.148 4822.1 232.148H5188.51V333.711H4822.1C4808.82 333.711 4798.67 337.227 4791.63 344.258C4784.6 351.289 4781.09 361.706 4781.09 375.508V649.727C4781.09 662.747 4784.6 672.904 4791.63 680.195C4798.93 687.227 4809.08 690.742 4822.1 690.742H5188.51V792.305ZM5871.71 792.305H5727.57L5499.06 563.398H5427.57V461.055H5499.06L5727.57 232.148H5871.71L5583.82 512.227L5871.71 792.305ZM5386.95 792.305H5285.38V232.148H5386.95V792.305Z"
        fill="url(#paint0_linear_27_477)"/>
    <path fill-rule="evenodd" clip-rule="evenodd"
          d="M6216.9 2264.69C6220.69 2465.55 6219.41 2657.6 6211.48 2848.38C6291.59 2896.88 6378.61 2960.24 6482.09 3048.41C6522.61 3082.95 6596.45 3161.38 6605.67 3176.52C6625.3 3208.77 6640.47 3232.92 6653.01 3252.9L6653.02 3252.91L6653.02 3252.91C6687.39 3307.65 6702.04 3330.98 6734.73 3403.39C6843.58 3644.49 6870.22 3779.09 6870.22 4024C6868.33 4040.44 6866.56 4056.75 6864.8 4072.95L6864.8 4072.95C6845.27 4252.45 6827.15 4419.01 6680.09 4623.31C6660.69 4650.27 6643.72 4674.17 6628.49 4695.63L6628.47 4695.67L6628.47 4695.67C6517.9 4851.47 6498.67 4878.57 6298.55 5013.6C6035.89 5190.83 5951.41 5211.97 5779.24 5255.05L5779.1 5255.08L5779.03 5255.1C5754.44 5261.25 5728.05 5267.86 5699.1 5275.43C5664.9 5284.37 5624.85 5292.01 5580.63 5297.8C5568 5321.12 5554.2 5343.76 5539.3 5365.65C5773.43 5361.98 5965.72 5330.58 6146.14 5248.35C6338.87 5160.5 6442.02 5107.49 6611.39 4950.97C6780.76 4794.45 6972.65 4576.09 7020.3 4462.12C7030.07 4438.77 7040.49 4417.69 7051.54 4395.34L7051.57 4395.29L7051.62 4395.18L7051.67 4395.07L7051.7 4395.02C7094.56 4308.37 7146.98 4202.38 7208.05 3870.7C7284.95 3453.02 7172.6 3234.93 7172.6 3234.93C7172.6 3234.93 7173.84 3182.85 7001.74 2918.46C6846.64 2706.54 6709.15 2532.27 6473.37 2406.21C6383.97 2346.58 6301.67 2300.06 6216.9 2264.69Z"
          fill="url(#paint1_linear_27_477)"/>
    <path fill-rule="evenodd" clip-rule="evenodd"
          d="M1395.77 5502.19C1586.1 5563.15 1780.22 5566.36 1848.4 5566.31C1942.41 5702.89 2041.4 5833.34 2142.56 5956.65C1969.01 6009.3 1813.98 6020.54 1596.64 6020.54C1222.05 6020.54 1022.27 5957.95 762.542 5784.71C526.766 5658.65 389.277 5484.39 234.173 5272.46C62.0725 5008.08 63.3126 4955.99 63.3126 4955.99C63.3126 4955.99 -49.0344 4737.9 27.8644 4320.22C88.9296 3988.54 141.354 3882.55 184.215 3795.9C195.327 3773.43 205.797 3752.27 215.608 3728.8C263.259 3614.83 455.153 3396.48 624.523 3239.96C777.357 3098.71 876.271 3041.76 1035.75 2967.43C1041.09 3011.76 1045.52 3057.56 1049.27 3104.49C1015.7 3125.36 978.74 3149.4 937.359 3177.33C737.247 3312.35 718.014 3339.46 607.445 3495.26L607.434 3495.27C592.2 3516.74 575.233 3540.65 555.82 3567.62C408.764 3771.92 390.643 3938.48 371.115 4117.97C369.353 4134.17 367.579 4150.48 365.697 4166.93C365.697 4411.83 392.337 4546.44 501.18 4787.53C545.799 4886.36 572.751 4936.86 578.267 4941.81C578.667 4942.17 583.681 4949.82 590.87 4960.79L590.88 4960.81C608.315 4987.41 638.526 5033.52 646.728 5042.44L641.995 5037.29C677.075 5075.47 751.351 5156.31 781.758 5182.22C1020.83 5385.95 1150.11 5425.94 1326.16 5480.39C1348.51 5487.31 1371.6 5494.45 1395.77 5502.19Z"
          fill="url(#paint2_linear_27_477)"/>
    <g filter="url(#filter0_d_27_477)">
        <path fill-rule="evenodd" clip-rule="evenodd"
              d="M6143.32 1034.79L6191.08 1662.99C6202.73 1878.26 6211.12 2078.65 6214.77 2270.89C6053.27 2204.16 5882.8 2177.51 5637.14 2177.51C5262.55 2177.51 5073.04 2210.59 4654.79 2429.64C4236.54 2648.7 3824.14 3194.45 3715.28 3398.48C3715.28 3398.48 3602.02 3578.28 3472.91 3794.82C3457.96 3815.88 3442.84 3842.36 3431 3863.09L3430.98 3863.12L3430.98 3863.12C3423.08 3876.95 3416.65 3888.22 3412.71 3893.6C3382.74 3934.51 3351.61 3978.69 3319.59 4024.14L3319.59 4024.14L3319.5 4024.26C3303.5 4046.97 3287.27 4070 3270.85 4093.1C3264.22 4109.81 3255.01 4127.09 3243.05 4144.96C2996.47 4513.24 2506.95 5200.29 1977.6 5366.85C2241.21 5335.7 2471.55 5225.3 2471.55 5225.3C2471.55 5225.3 2618.62 5156.18 2817.59 5020.74C2937.5 4945.65 3262.45 4670.88 3346.99 4533.12C3431.52 4395.35 3179.46 4864.25 2985.56 5050.01C2930.77 5102.33 2906.48 5127.02 2884.82 5149.04L2884.81 5149.06C2861.52 5172.74 2841.25 5193.35 2789.32 5241.92C2670.72 5340.92 2484.28 5428.5 2312.02 5494.01C2139.75 5559.52 1906.23 5567.19 1867.98 5567.19C1866.1 5567.19 1863.78 5567.2 1861.05 5567.22H1861.03H1861.03H1861.01H1860.98H1860.95H1860.9H1860.85H1860.79H1860.71H1860.61H1860.49C1857.05 5567.23 1852.97 5567.25 1848.29 5567.26C1513.31 5085.32 1241.66 4526.34 1160.73 3935.33C1018.58 3070.2 992.568 2572.78 1035.95 1662.99L1081.52 1033.06L3648.66 1020.3L6143.32 1034.79ZM2142.45 5953.79C2756.4 6694.9 3450.31 7175.87 3594.8 7174.26C3847.94 7171.44 5665.22 5904.97 6061.46 4065.93C6148.39 3622.12 6193.01 3238.18 6209.36 2848.89C6119.2 2794.85 6037.81 2759.45 5951.6 2728.65V3191.26C6008.66 3202.85 6051.6 3253.29 6051.6 3313.76C6051.6 3382.8 5995.64 3438.76 5926.6 3438.76C5857.57 3438.76 5801.6 3382.8 5801.6 3313.76C5801.6 3253.29 5844.55 3202.85 5901.6 3191.26V2711.42C5880.87 2704.5 5859.73 2697.69 5838.01 2690.8C5633.96 2626.08 5425.54 2627.09 5372.64 2627.34L5372.6 2627.35C5369.88 2627.36 5367.57 2627.37 5365.7 2627.37C5327.45 2627.37 5093.92 2635.05 4921.66 2700.56C4749.4 2766.06 4562.96 2853.64 4444.36 2952.64C4392.43 3001.22 4372.16 3021.83 4348.86 3045.51L4348.86 3045.51C4327.2 3067.54 4302.92 3092.23 4248.11 3144.55C4054.22 3330.31 3802.15 3799.21 3886.69 3661.44C3971.23 3523.68 4296.18 3248.91 4416.09 3173.83C4615.05 3038.38 4762.13 2969.27 4762.13 2969.27C4762.13 2969.27 5074.33 2819.62 5387.75 2819.62C5409.19 2819.62 5429.09 2819.59 5447.69 2819.56C5623.88 2819.26 5682.46 2819.16 5806.27 2849.78C5716.34 2836.4 5642.86 2841.37 5536.79 2848.54L5529.8 2849.01C5451.84 2854.27 5385.89 2866.57 5328.02 2882.64C5328.44 2884.47 5328.67 2886.37 5328.67 2888.32V4008.31L5495.84 4132.14C5518.3 4110.55 5548.82 4097.28 5582.44 4097.28C5651.48 4097.28 5707.44 4153.25 5707.44 4222.28C5707.44 4291.32 5651.48 4347.28 5582.44 4347.28C5513.41 4347.28 5457.44 4291.32 5457.44 4222.28C5457.44 4204.9 5460.99 4188.34 5467.4 4173.3L5288.79 4040.99L5278.67 4033.5V4020.91V2897.81C5223.52 2916.39 5175.73 2937.95 5130.96 2958.9V4292.13L5453.17 4480.09C5475.96 4449.64 5512.32 4429.94 5553.28 4429.94C5622.32 4429.94 5678.28 4485.91 5678.28 4554.94C5678.28 4623.98 5622.32 4679.94 5553.28 4679.94C5484.25 4679.94 5428.28 4623.98 5428.28 4554.94C5428.28 4544.8 5429.49 4534.94 5431.77 4525.49L5093.36 4328.09L5080.96 4320.85V4306.49V2982.33C5073.92 2985.59 5066.93 2988.8 5059.94 2991.93C4996.1 3020.62 4946.91 3046.68 4903.96 3072.37V5410.26C4961.02 5421.85 5003.96 5472.29 5003.96 5532.76C5003.96 5601.8 4948 5657.76 4878.96 5657.76C4809.92 5657.76 4753.96 5601.8 4753.96 5532.76C4753.96 5472.29 4796.9 5421.85 4853.96 5410.26V3103.77C4826.78 3121.61 4800.94 3139.71 4773.65 3158.83L4773.65 3158.83L4773.64 3158.84C4757.3 3170.29 4740.44 3182.1 4722.45 3194.45C4684.22 3228.11 4652.11 3255.87 4624.24 3279.96L4624.24 3279.96C4528.82 3362.44 4483.22 3401.85 4412.43 3487.88C4417.49 3492.46 4420.67 3499.07 4420.67 3506.43V4646.56C4420.67 4647.4 4420.63 4648.22 4420.55 4649.04C4477.66 4660.57 4520.67 4711.04 4520.67 4771.56C4520.67 4840.6 4464.7 4896.56 4395.67 4896.56C4326.63 4896.56 4270.67 4840.6 4270.67 4771.56C4270.67 4711.04 4313.67 4660.57 4370.79 4649.04C4370.71 4648.22 4370.67 4647.4 4370.67 4646.56V3540.22C4327.65 3595.53 4274.04 3667.96 4199.22 3770.25C4155 3830.7 4106.31 3901.04 4055.83 3973.97L4055.82 3973.98L4055.81 3973.99L4055.81 3974L4055.78 3974.03L4055.77 3974.05L4055.76 3974.06C3978.52 4085.65 3897.07 4203.31 3820.97 4300.96C3739.73 4409.08 3658.06 4529.94 3574.17 4654.07L3574.04 4654.27L3573.84 4654.56C3552.52 4686.12 3531.05 4717.9 3509.4 4749.72C3503.74 4760.32 3497.16 4771.99 3489.74 4784.64L4307.85 5503.44L4316.35 5510.91V5522.23V6432.73C4316.35 6446.53 4305.16 6457.73 4291.35 6457.73C4277.54 6457.73 4266.35 6446.53 4266.35 6432.73V5533.54L3463.33 4828C3303.73 5082 2905.12 5594.05 2578.89 5764.92C2403.3 5856.88 2268.02 5916.07 2142.45 5953.79ZM5521.47 4182.24C5519.85 4184.42 5517.95 4186.27 5515.84 4187.76C5510.48 4198.09 5507.44 4209.83 5507.44 4222.28C5507.44 4263.7 5541.02 4297.28 5582.44 4297.28C5623.86 4297.28 5657.44 4263.7 5657.44 4222.28C5657.44 4180.86 5623.86 4147.28 5582.44 4147.28C5559.76 4147.28 5539.43 4157.35 5525.68 4173.26C5524.91 4176.41 5523.52 4179.47 5521.47 4182.24ZM3365.91 1526.81C3392.12 1526.81 3413.36 1505.57 3413.36 1479.36C3413.36 1453.15 3392.12 1431.91 3365.91 1431.91C3339.71 1431.91 3318.46 1453.15 3318.46 1479.36C3318.46 1505.57 3339.71 1526.81 3365.91 1526.81ZM2621.94 1539.15C2624.21 1545.73 2627.42 1550.63 2631.86 1554.2C2633.57 1555.52 2635.45 1556.65 2637.53 1557.63H2660.48C2663.24 1557.63 2665.48 1559.87 2665.48 1562.63C2665.48 1565.39 2663.24 1567.63 2660.48 1567.63H2636.9C2631.84 1570.22 2627.97 1573.92 2625.05 1579.07C2623.87 1581.44 2622.84 1584.12 2621.94 1587.13V1621.12C2621.94 1623.88 2619.7 1626.12 2616.94 1626.12C2614.18 1626.12 2611.94 1623.88 2611.94 1621.12V1584.32C2610.57 1580.6 2608.92 1577.46 2606.92 1574.82C2604.17 1571.84 2600.76 1569.48 2596.58 1567.63H2572.97C2570.21 1567.63 2567.97 1565.39 2567.97 1562.63C2567.97 1559.87 2570.21 1557.63 2572.97 1557.63H2596.94C2601.32 1555.6 2604.84 1552.89 2607.64 1549.36C2609.32 1546.96 2610.74 1544.19 2611.94 1540.98V1504.57C2611.94 1501.81 2614.18 1499.57 2616.94 1499.57C2619.7 1499.57 2621.94 1501.81 2621.94 1504.57V1539.15ZM3865.21 2433.53C3867.74 2440.99 3871.31 2446.55 3876.22 2450.62C3878.51 2452.44 3881.09 2453.96 3883.99 2455.22H3908.48C3911.24 2455.22 3913.48 2457.46 3913.48 2460.22C3913.48 2462.98 3911.24 2465.22 3908.48 2465.22H3883.58C3877.06 2468.21 3872.19 2472.71 3868.62 2479.21C3867.33 2481.87 3866.19 2484.87 3865.21 2488.23V2527.09C3865.21 2529.85 3862.97 2532.09 3860.21 2532.09C3857.45 2532.09 3855.21 2529.85 3855.21 2527.09V2489.14C3853.48 2483.12 3851.23 2478.24 3848.35 2474.33C3844.84 2470.43 3840.4 2467.45 3834.8 2465.22H3810.35C3807.59 2465.22 3805.35 2462.98 3805.35 2460.22C3805.35 2457.46 3807.59 2455.22 3810.35 2455.22H3835.76C3841.33 2452.82 3845.72 2449.51 3849.16 2445.05C3851.66 2441.39 3853.65 2436.94 3855.21 2431.58V2391.36C3855.21 2388.6 3857.45 2386.36 3860.21 2386.36C3862.97 2386.36 3865.21 2388.6 3865.21 2391.36V2433.53ZM1607.91 2820.81H1635.16C1646.32 2823.93 1654.61 2828.79 1660.67 2835.93C1664.94 2842.08 1668.12 2849.99 1670.42 2860.05V2914.98C1670.42 2917.74 1672.66 2919.98 1675.42 2919.98C1678.19 2919.98 1680.42 2917.74 1680.42 2914.98V2861.23C1682.01 2853.92 1683.97 2847.72 1686.37 2842.49C1692.15 2831.35 1700.62 2824.57 1712.68 2820.81H1740.13C1742.89 2820.81 1745.13 2818.57 1745.13 2815.81C1745.13 2813.05 1742.89 2810.81 1740.13 2810.81H1707.09C1702.91 2809.02 1699.23 2806.8 1696.01 2804.09C1688.65 2797.63 1683.66 2788.36 1680.42 2775.41V2726.49C1680.42 2723.73 1678.19 2721.49 1675.42 2721.49C1672.66 2721.49 1670.42 2723.73 1670.42 2726.49V2774.34C1668.31 2783.43 1665.46 2790.76 1661.7 2796.61C1657.09 2802.95 1651.11 2807.56 1643.45 2810.81H1607.91C1605.14 2810.81 1602.91 2813.05 1602.91 2815.81C1602.91 2818.57 1605.14 2820.81 1607.91 2820.81ZM2421.71 3133.57C2423.01 3136.41 2424.63 3138.69 2426.64 3140.5C2426.91 3140.74 2427.2 3140.97 2427.49 3141.19H2446.26C2449.02 3141.19 2451.26 3143.43 2451.26 3146.19C2451.26 3148.95 2449.02 3151.19 2446.26 3151.19H2428.42C2425.85 3152.99 2423.81 3155.4 2422.22 3158.55C2422.05 3158.95 2421.88 3159.35 2421.71 3159.77V3188.5V3189.56C2421.71 3192.32 2419.47 3194.56 2416.71 3194.56C2413.95 3194.56 2411.71 3192.32 2411.71 3189.56V3188.5V3157.54C2411.32 3156.81 2410.91 3156.12 2410.47 3155.47C2409.08 3153.78 2407.43 3152.37 2405.49 3151.19H2387.8C2385.04 3151.19 2382.8 3148.95 2382.8 3146.19C2382.8 3143.43 2385.04 3141.19 2387.8 3141.19H2406.87C2408.43 3140.01 2409.78 3138.62 2410.94 3136.98C2411.2 3136.55 2411.46 3136.11 2411.71 3135.65V3103.89C2411.71 3101.13 2413.95 3098.89 2416.71 3098.89C2419.47 3098.89 2421.71 3101.13 2421.71 3103.89V3133.57ZM2026.13 1911.68V1692.25C2026.13 1686.73 2030.61 1682.25 2036.13 1682.25C2041.65 1682.25 2046.13 1686.73 2046.13 1692.25V1904.85C2054.32 1964.68 2068.46 2009.65 2090.88 2042.94C2095.23 2040.61 2099.64 2038.02 2104.12 2035.18L2160.9 1975.19C2164.7 1971.18 2171.03 1971.01 2175.04 1974.81C2179.05 1978.6 2179.22 1984.93 2175.43 1988.94L2118.73 2048.84C2115.31 2054.72 2112.3 2060.49 2109.68 2066.18C2113.23 2069.83 2116.94 2073.29 2120.8 2076.56C2147.45 2098.11 2181.71 2111.8 2225.31 2119.71H2325.47C2330.99 2119.71 2335.47 2124.19 2335.47 2129.71C2335.47 2135.23 2330.99 2139.71 2325.47 2139.71H2196.97C2163.53 2148.56 2136.54 2162.44 2114.94 2182.86C2116.44 2185.73 2118.03 2188.62 2119.71 2191.55L2178.97 2254.15C2182.76 2258.16 2182.59 2264.49 2178.58 2268.28C2174.57 2272.08 2168.24 2271.91 2164.44 2267.9L2112.6 2213.14C2107.26 2209.45 2102.02 2206.11 2096.87 2203.12C2091.36 2210.43 2086.31 2218.37 2081.67 2226.98C2065.03 2261.93 2053.57 2307.9 2046.13 2367.66V2529.64C2046.13 2535.16 2041.65 2539.64 2036.13 2539.64C2030.61 2539.64 2026.13 2535.16 2026.13 2529.64V2344.72C2016.89 2282.23 2001.75 2236.25 1978.51 2203.1C1973.9 2205.76 1969.19 2208.68 1964.39 2211.88L1911.35 2267.9C1907.56 2271.91 1901.23 2272.09 1897.22 2268.29C1893.21 2264.49 1893.03 2258.16 1896.83 2254.15L1952.89 2194.93C1955.13 2191.14 1957.22 2187.4 1959.15 2183.71C1934.87 2163.47 1903.76 2149.21 1864.28 2139.71H1744.8C1739.28 2139.71 1734.8 2135.23 1734.8 2129.71C1734.8 2124.19 1739.28 2119.71 1744.8 2119.71H1847.32C1897.51 2110.62 1935.42 2094.13 1963.63 2067.26C1959.45 2058.29 1954.33 2049.07 1948.25 2039.53L1900.36 1988.94C1896.56 1984.93 1896.74 1978.6 1900.75 1974.81C1904.76 1971.01 1911.09 1971.18 1914.88 1975.19L1976.63 2040.42C1978.92 2041.73 1981.19 2042.97 1983.45 2044.13C2003.97 2011.97 2017.61 1968.77 2026.13 1911.68ZM3136.79 2362.73C3136.79 2386.21 3117.77 2405.23 3094.29 2405.23C3070.82 2405.23 3051.79 2386.21 3051.79 2362.73C3051.79 2339.26 3070.82 2320.23 3094.29 2320.23C3117.77 2320.23 3136.79 2339.26 3136.79 2362.73ZM1963.82 3417.69C1974.87 3417.69 1983.82 3408.73 1983.82 3397.69C1983.82 3386.64 1974.87 3377.69 1963.82 3377.69C1952.78 3377.69 1943.82 3386.64 1943.82 3397.69C1943.82 3408.73 1952.78 3417.69 1963.82 3417.69ZM1746.24 1690.6C1746.24 1701.65 1737.29 1710.6 1726.24 1710.6C1715.2 1710.6 1706.24 1701.65 1706.24 1690.6C1706.24 1679.56 1715.2 1670.6 1726.24 1670.6C1737.29 1670.6 1746.24 1679.56 1746.24 1690.6ZM4589.16 1683.8C4600.21 1683.8 4609.16 1674.84 4609.16 1663.8C4609.16 1652.75 4600.21 1643.8 4589.16 1643.8C4578.11 1643.8 4569.16 1652.75 4569.16 1663.8C4569.16 1674.84 4578.11 1683.8 4589.16 1683.8ZM2720.13 3928.02C2720.13 3939.07 2711.18 3948.02 2700.13 3948.02C2689.09 3948.02 2680.13 3939.07 2680.13 3928.02C2680.13 3916.98 2689.09 3908.02 2700.13 3908.02C2711.18 3908.02 2720.13 3916.98 2720.13 3928.02ZM2519.5 2688.51C2538.83 2688.51 2554.5 2672.84 2554.5 2653.51C2554.5 2634.18 2538.83 2618.51 2519.5 2618.51C2500.17 2618.51 2484.5 2634.18 2484.5 2653.51C2484.5 2672.84 2500.17 2688.51 2519.5 2688.51ZM1884.12 4599.84C1884.12 4619.17 1868.45 4634.84 1849.12 4634.84C1829.79 4634.84 1814.12 4619.17 1814.12 4599.84C1814.12 4580.51 1829.79 4564.84 1849.12 4564.84C1868.45 4564.84 1884.12 4580.51 1884.12 4599.84ZM4099.63 5808.38C4099.63 5849.8 4066.06 5883.38 4024.63 5883.38C3983.21 5883.38 3949.63 5849.8 3949.63 5808.38C3949.63 5766.96 3983.21 5733.38 4024.63 5733.38C4066.06 5733.38 4099.63 5766.96 4099.63 5808.38ZM4149.63 5808.38C4149.63 5864.53 4112.61 5912.03 4061.65 5927.81L4061.65 6656.34C4061.65 6670.14 4050.46 6681.34 4036.65 6681.34C4022.84 6681.34 4011.65 6670.14 4011.65 6656.34L4011.65 5932.71C3948.71 5926.22 3899.63 5873.03 3899.63 5808.38C3899.63 5739.35 3955.6 5683.38 4024.63 5683.38C4093.67 5683.38 4149.63 5739.35 4149.63 5808.38ZM5926.6 3388.76C5968.03 3388.76 6001.6 3355.19 6001.6 3313.76C6001.6 3272.34 5968.03 3238.76 5926.6 3238.76C5885.18 3238.76 5851.6 3272.34 5851.6 3313.76C5851.6 3355.19 5885.18 3388.76 5926.6 3388.76ZM5553.28 4629.94C5594.7 4629.94 5628.28 4596.36 5628.28 4554.94C5628.28 4513.52 5594.7 4479.94 5553.28 4479.94C5511.86 4479.94 5478.28 4513.52 5478.28 4554.94C5478.28 4596.36 5511.86 4629.94 5553.28 4629.94ZM4774.18 4174.69C4774.18 4216.11 4740.61 4249.69 4699.18 4249.69C4657.76 4249.69 4624.18 4216.11 4624.18 4174.69C4624.18 4133.26 4657.76 4099.69 4699.18 4099.69C4740.61 4099.69 4774.18 4133.26 4774.18 4174.69ZM4724.06 4297.21C4781.18 4285.67 4824.18 4235.2 4824.18 4174.69C4824.18 4105.65 4768.22 4049.69 4699.18 4049.69C4630.15 4049.69 4574.18 4105.65 4574.18 4174.69C4574.18 4235.2 4617.19 4285.67 4674.31 4297.21C4674.23 4298.02 4674.18 4298.85 4674.18 4299.69V5193.53L4401.53 5349.91L4136.19 5099.95C4168.43 5077.34 4189.51 5039.9 4189.51 4997.53C4189.51 4928.5 4133.55 4872.53 4064.51 4872.53C3995.48 4872.53 3939.51 4928.5 3939.51 4997.53C3939.51 5066.57 3995.48 5122.53 4064.51 5122.53C4071.63 5122.53 4078.61 5121.94 4085.4 5120.8L4380.74 5399.01L4394.24 5411.73L4410.32 5402.5L4711.62 5229.7L4724.18 5222.5V5208.01V4299.69C4724.18 4298.85 4724.14 4298.02 4724.06 4297.21ZM4090.64 5067.86C4119.18 5057.25 4139.51 5029.77 4139.51 4997.53C4139.51 4956.11 4105.93 4922.53 4064.51 4922.53C4023.09 4922.53 3989.51 4956.11 3989.51 4997.53C3989.51 5038.95 4023.09 5072.53 4064.51 5072.53C4069.85 5072.53 4075.05 5071.98 4080.07 5070.92C4083.36 5069.1 4086.98 5068.08 4090.64 5067.86ZM4470.67 4771.56C4470.67 4812.98 4437.09 4846.56 4395.67 4846.56C4354.25 4846.56 4320.67 4812.98 4320.67 4771.56C4320.67 4730.14 4354.25 4696.56 4395.67 4696.56C4437.09 4696.56 4470.67 4730.14 4470.67 4771.56ZM2774.96 6022.26C2816.38 6022.26 2849.96 5988.69 2849.96 5947.26C2849.96 5905.84 2816.38 5872.26 2774.96 5872.26C2733.54 5872.26 2699.96 5905.84 2699.96 5947.26C2699.96 5988.69 2733.54 6022.26 2774.96 6022.26ZM2856.25 6042.23C2883.01 6019.3 2899.96 5985.26 2899.96 5947.26C2899.96 5878.23 2844 5822.26 2774.96 5822.26C2705.93 5822.26 2649.96 5878.23 2649.96 5947.26C2649.96 6016.3 2705.93 6072.26 2774.96 6072.26C2787.49 6072.26 2799.58 6070.42 2810.99 6066.99L3103.86 6381.3V6583.81C3103.86 6597.62 3115.06 6608.81 3128.86 6608.81C3142.67 6608.81 3153.86 6597.62 3153.86 6583.81V6371.46V6361.61L3147.15 6354.41L2856.25 6042.23ZM3474.8 5719.76C3474.8 5761.19 3441.22 5794.76 3399.8 5794.76C3358.38 5794.76 3324.8 5761.19 3324.8 5719.76C3324.8 5678.34 3358.38 5644.76 3399.8 5644.76C3441.22 5644.76 3474.8 5678.34 3474.8 5719.76ZM3524.8 5719.76C3524.8 5780.24 3481.85 5830.68 3424.8 5842.26V6733.47C3424.8 6747.28 3413.6 6758.47 3399.8 6758.47C3385.99 6758.47 3374.8 6747.28 3374.8 6733.47V5842.26C3317.74 5830.68 3274.8 5780.24 3274.8 5719.76C3274.8 5650.73 3330.76 5594.76 3399.8 5594.76C3468.83 5594.76 3524.8 5650.73 3524.8 5719.76ZM3647.87 5350.59C3673.25 5338.57 3690.81 5312.72 3690.81 5282.76C3690.81 5241.34 3657.23 5207.76 3615.81 5207.76C3574.39 5207.76 3540.81 5241.34 3540.81 5282.76C3540.81 5314.37 3560.36 5341.41 3588.03 5352.45C3590.95 5351.25 3594.15 5350.59 3597.51 5350.59H3634.12H3647.87ZM3659.12 5400.06C3706.81 5382.44 3740.81 5336.58 3740.81 5282.76C3740.81 5213.73 3684.85 5157.76 3615.81 5157.76C3546.78 5157.76 3490.81 5213.73 3490.81 5282.76C3490.81 5349.55 3543.2 5404.11 3609.12 5407.59V6829.42C3609.12 6843.23 3620.31 6854.42 3634.12 6854.42C3647.93 6854.42 3659.12 6843.23 3659.12 6829.42V5400.06ZM4953.96 5532.76C4953.96 5574.19 4920.38 5607.76 4878.96 5607.76C4837.54 5607.76 4803.96 5574.19 4803.96 5532.76C4803.96 5491.34 4837.54 5457.76 4878.96 5457.76C4920.38 5457.76 4953.96 5491.34 4953.96 5532.76Z"
              fill="url(#paint3_linear_27_477)"/>
    </g>
    <defs>
        <filter id="filter0_d_27_477" x="1012.85" y="1020.3" width="5205.92" height="6161.96"
                filterUnits="userSpaceOnUse" color-interpolation-filters="sRGB">
            <feFlood flood-opacity="0" result="BackgroundImageFix"/>
            <feColorMatrix in="SourceAlpha" type="matrix" values="0 0 0 0 0 0 0 0 0 0 0 0 0 0 0 0 0 0 127 0"
                           result="hardAlpha"/>
            <feOffset dy="4"/>
            <feGaussianBlur stdDeviation="2"/>
            <feComposite in2="hardAlpha" operator="out"/>
            <feColorMatrix type="matrix" values="0 0 0 0 0 0 0 0 0 0 0 0 0 0 0 0 0 0 0.25 0"/>
            <feBlend mode="normal" in2="BackgroundImageFix" result="effect1_dropShadow_27_477"/>
            <feBlend mode="normal" in="SourceGraphic" in2="effect1_dropShadow_27_477" result="shape"/>
        </filter>
        <linearGradient id="paint0_linear_27_477" x1="3985.45" y1="0.304687" x2="3985.45" y2="1020.3"
                        gradientUnits="userSpaceOnUse">
            <stop stop-color="#2C2A5D"/>
            <stop offset="1" stop-color="#8E6EA8"/>
        </linearGradient>
        <linearGradient id="paint1_linear_27_477" x1="3361.43" y1="2932.73" x2="3618.96" y2="6047.78"
                        gradientUnits="userSpaceOnUse">
            <stop stop-color="#322E62" stop-opacity="0"/>
            <stop offset="0.394358" stop-color="#886AA3"/>
            <stop offset="1" stop-color="#322E62"/>
        </linearGradient>
        <linearGradient id="paint2_linear_27_477" x1="645.209" y1="3190.2" x2="2599" y2="4971.6"
                        gradientUnits="userSpaceOnUse">
            <stop stop-color="#322E62"/>
            <stop offset="0.373877" stop-color="#886AA3"/>
            <stop offset="0.966744" stop-color="#322E62" stop-opacity="0"/>
        </linearGradient>
        <linearGradient id="paint3_linear_27_477" x1="3617.47" y1="1020.3" x2="3617.47" y2="7218.31"
                        gradientUnits="userSpaceOnUse">
            <stop stop-color="#28275A"/>
            <stop offset="1" stop-color="#8E6EA8"/>
        </linearGradient>
    </defs>
</svg>
