<svg width="2676" height="2170" viewBox="0 0 2676 2170" fill="none" xmlns="http://www.w3.org/2000/svg">
<path d="M2308.65 0.015625C2360.46 0.015625 2402.65 34.736 2404.35 78.1074C2501.64 105.24 2571.44 179.283 2571.44 266.373C2571.44 376.456 2459.91 465.696 2322.33 465.696C2310.65 465.696 2299.16 465.053 2287.91 463.809C2367.13 527.298 2421.19 513.947 2412.27 584.841C2543.18 624.964 2479.5 687.237 2330.45 689.921C2343.9 704.119 2356.02 718.065 2366.47 731.405C2468.42 861.621 2849.38 1316.07 2582.45 1460.52C2315.51 1604.97 1501.75 1384.74 1399.8 1254.52C1395.32 1248.8 1391.69 1242.4 1388.85 1235.38C1366.34 1255.99 1324.19 1269.87 1275.9 1269.87C1209.03 1269.87 1153.93 1243.26 1146.45 1209C1105.83 1204.47 1060.98 1195.97 1024.51 1185.15C1020.64 1270.21 974.617 1342.59 909.733 1375.84C978.362 1459.3 1019.33 1564.76 1019.33 1679.42C1019.33 1949.91 791.35 2169.18 510.118 2169.18C228.886 2169.18 0.902344 1949.91 0.902344 1679.42C0.902387 1507.67 92.8221 1356.57 231.926 1269.14C210.658 1253.04 209.761 1215.35 230.965 1181.1C244.495 1159.24 263.991 1143.68 283.116 1137.42C281.545 1135.01 281.001 1132.65 281.661 1130.43C284.576 1120.66 312.781 1112.11 350.872 1128.33C360.368 1099.5 393.162 1078.25 432.159 1078.25C478.584 1078.25 516.219 1108.37 516.219 1145.53C516.219 1155.94 513.263 1165.8 507.99 1174.59C510.678 1176.48 512.611 1179.14 513.333 1182.19C524.143 1178.22 539.486 1178.08 554.825 1182.66C563.841 1185.36 571.609 1189.31 577.558 1193.89C583.38 1193.47 589.464 1193.24 595.724 1193.24C610.292 1193.24 623.906 1194.46 635.486 1196.57C634.797 1188.99 634.443 1181.29 634.443 1173.5C634.443 1157.46 635.942 1141.82 638.787 1126.74C630.751 1120.47 625.899 1112.35 625.898 1103.46C625.898 1092.38 633.448 1082.47 645.313 1075.88C629.712 1061.34 620.004 1040.91 620.004 1018.29C620.004 974.144 656.984 938.353 702.602 938.352C707.194 938.352 711.699 938.715 716.088 939.413C715.515 932.11 718.634 925.818 724.903 923.355C725.439 923.145 725.987 922.969 726.544 922.822C727.371 911.91 732.017 903.079 740.723 897.898C752.073 891.144 768.262 891.821 785.506 898.388C797.908 883.035 814.698 873.61 833.183 873.61C863.198 873.61 888.744 898.464 898.292 933.192C906.92 922.484 920.984 915.512 936.869 915.512C963.113 915.512 984.389 934.539 984.389 958.01C984.389 969.511 979.277 979.943 970.978 987.595C974.359 988.897 977.815 990.749 981.071 993.103C991.873 1000.91 996.398 1011.29 991.18 1016.28C990.872 1016.57 990.536 1016.84 990.176 1017.08C998.37 1021.7 1005.3 1028.39 1010.31 1036.45C1014.06 1035.77 1017.95 1035.36 1021.95 1035.25C1031.91 1021.67 1051.01 1012.49 1072.93 1012.49C1102.18 1012.49 1126.39 1028.83 1130.6 1050.16C1135.66 1052.74 1139.13 1055.91 1140.62 1059.76C1179.27 1029.84 1231.53 1017.45 1258.11 1043C1263.14 1038.15 1268.59 1033.48 1274.44 1029.04C1278.13 1026.24 1281.9 1023.6 1285.72 1021.12C1280.32 1008.76 1276.36 995.446 1274.11 981.395C1260.86 898.48 1312.35 821.319 1389.13 809.051C1409.19 805.845 1428.35 806.829 1445.96 811.51C1441.79 782.479 1452.19 754.528 1476.46 738.236C1483.73 733.362 1495.34 731.898 1509.65 733.016C1504.5 698.743 1511.37 658.752 1531.72 619.558C1576.38 533.544 1669.05 483.942 1738.71 508.768C1747.6 511.934 1755.43 516.124 1762.24 521.199C1762.25 510.787 1762.49 500.728 1763.8 491.517C1755.26 451.255 1772.18 402.957 1813.14 364.193C1871.89 308.595 1959.17 292.419 2014.57 324.943C2014.77 324.557 2014.98 324.169 2015.2 323.782C2029.84 297.707 2048.3 299.23 2076.68 299.714C2074.4 288.872 2073.21 277.734 2073.21 266.373C2073.21 187.613 2130.3 119.522 2213.18 87.1494C2212.99 85.0616 2212.89 82.9516 2212.89 80.8223C2212.89 36.194 2255.76 0.0156633 2308.65 0.015625Z" fill="url(#paint0_linear_1909_2496)"/>
<defs>
<linearGradient id="paint0_linear_1909_2496" x1="2852.33" y1="1635.54" x2="1980.71" y2="-190.788" gradientUnits="userSpaceOnUse">
<stop stop-color="#A0DFFF" stop-opacity="0"/>
<stop offset="0.884578" stop-color="white"/>
</linearGradient>
</defs>
</svg>
