<svg width="286" height="44" viewBox="0 0 286 44" fill="none" xmlns="http://www.w3.org/2000/svg">
<g clip-path="url(#clip0_1862_2362)">
<path d="M42.8028 22.0142C42.8028 33.9151 33.2208 43.5632 21.4005 43.5632C9.58025 43.5632 -0.000976562 33.918 -0.000976562 22.0142C-0.000976562 10.1103 9.58098 0.465835 21.4005 0.465835C33.2201 0.465835 42.8028 10.1132 42.8028 22.0142ZM66.2813 22.0142C66.2813 33.2174 61.49 42.2987 55.5802 42.2987C49.6704 42.2987 44.8791 33.2145 44.8791 22.0142C44.8791 10.8138 49.6704 1.72962 55.5802 1.72962C61.49 1.72962 66.2813 10.8138 66.2813 22.0142ZM75.8843 22.0142C75.8843 32.0518 74.199 40.1883 72.1206 40.1883C70.0421 40.1883 68.3568 32.0489 68.3568 22.0142C68.3568 11.9794 70.0421 3.84005 72.1213 3.84005C74.2005 3.84005 75.8843 11.9773 75.8843 22.0142ZM134.951 2.33426L135.01 2.32118V1.85971H122.839L111.538 28.4217L100.236 1.85971H87.1203V2.32118L87.1792 2.33426C89.4008 2.83571 90.5287 3.58351 90.5287 6.28041V37.8533C90.5287 40.5502 89.3964 41.298 87.1748 41.7994L87.116 41.8125V42.2754H96.0148V41.8139L95.9559 41.8009C93.7343 41.2994 92.6064 40.5516 92.6064 37.8547V8.11178L107.124 42.2754H107.948L122.889 7.15903V38.6345C122.698 40.7645 121.58 41.4222 119.569 41.8764L119.509 41.8903V42.3481H135.01V41.8903L134.951 41.8764C132.937 41.4222 131.793 40.7645 131.602 38.6345L131.592 6.28041H131.602C131.602 3.58351 132.73 2.83571 134.951 2.33426ZM142.031 23.2496C142.285 17.5767 144.322 13.4823 147.741 13.4118C148.795 13.4293 149.68 13.7752 150.367 14.4409C151.828 15.8587 152.515 18.8216 152.408 23.2496H142.031ZM141.878 24.8484H160.046V24.7721C159.995 20.4342 158.738 17.06 156.315 14.7432C154.221 12.7411 151.12 11.6393 147.863 11.6393H147.79C146.1 11.6393 144.026 12.0492 142.551 12.7919C140.872 13.5695 139.39 14.7323 138.158 16.2584C136.174 18.717 134.972 22.0396 134.68 25.7735C134.67 25.8854 134.662 25.9974 134.654 26.1093C134.646 26.2212 134.641 26.3215 134.636 26.4283C134.61 26.9533 134.602 27.479 134.61 28.0046C134.807 36.4616 139.375 43.2202 147.489 43.2202C154.611 43.2202 158.759 38.0139 159.793 31.0256L159.27 30.8418C157.453 34.5975 154.19 36.8736 150.477 36.596C145.407 36.2167 141.523 31.0765 141.876 24.8499M180.588 36.309C179.992 37.7225 178.749 38.5001 177.082 38.5001C175.416 38.5001 173.893 37.3562 172.811 35.2777C171.648 33.0467 171.036 29.8926 171.036 26.1565C171.036 18.3805 173.455 13.3508 177.198 13.3508C178.766 13.3508 180 14.1284 180.588 15.4852V36.309ZM192.64 41.8525C190.419 41.327 189.291 40.5444 189.291 37.7101V0L175.793 3.97667V4.46358L175.876 4.45704C177.738 4.30661 179.001 4.56387 179.734 5.24119C180.308 5.7717 180.588 6.58564 180.588 7.73097V12.9009C179.258 12.0514 177.675 11.6379 175.754 11.6379C171.859 11.6379 168.298 13.2781 165.731 16.257C163.054 19.3616 161.639 23.6042 161.639 28.5249C161.638 37.3133 165.965 43.2202 172.404 43.2202C176.17 43.2202 179.201 41.1563 180.588 37.6752V42.3481H192.699V41.8641L192.64 41.8525ZM204.216 5.12854C204.216 2.38441 202.147 0.314675 199.403 0.314675C196.671 0.314675 194.533 2.42946 194.533 5.12854C194.533 7.82762 196.673 9.94241 199.403 9.94241C202.147 9.94241 204.216 7.87268 204.216 5.12854ZM207.402 41.8525C205.181 41.327 204.053 40.5444 204.053 37.7101H204.043V11.7273L191.932 15.2047V15.6771L192.004 15.6836C194.625 15.9169 195.342 16.8195 195.342 19.8819V42.3481H207.464V41.8641L207.402 41.8525ZM238.437 41.8525C236.216 41.327 235.088 40.5444 235.088 37.7101V11.7273L223.556 15.0899V15.5637L223.624 15.5709C225.767 15.7962 226.386 16.7504 226.386 19.8267V36.2508C225.672 37.6643 224.332 38.5037 222.708 38.5604C220.075 38.5604 218.625 36.7821 218.625 33.5532V11.728L206.514 15.2054V15.6771L206.586 15.6836C209.207 15.9161 209.925 16.8187 209.925 19.8819V33.7821C209.919 34.7525 210.003 35.7213 210.177 36.676L210.395 37.6243C211.42 41.2987 214.107 43.2202 218.316 43.2202C221.882 43.2202 225.007 41.0131 226.383 37.5597V42.3561H238.495V41.8721L238.437 41.8525ZM285.488 42.3481V41.8634L285.429 41.8496C283.019 41.2936 282.08 40.2457 282.08 38.112V20.4379C282.08 14.9271 278.985 11.6379 273.8 11.6379C270.021 11.6379 266.834 13.8217 265.608 17.2235C264.633 13.6189 261.829 11.6379 257.682 11.6379C254.04 11.6379 251.185 13.5601 249.961 16.8071V11.7294L237.849 15.0644V15.5397L237.921 15.5462C240.511 15.7759 241.259 16.7047 241.259 19.6886V42.3481H252.56V41.8641L252.5 41.8496C250.577 41.3975 249.957 40.5734 249.957 38.4586V18.2003C250.466 17.0121 251.491 15.6044 253.518 15.6044C256.035 15.6044 257.311 17.3485 257.311 20.7845V42.3481H268.615V41.8641L268.555 41.8496C266.632 41.3975 266.012 40.5734 266.012 38.4586V20.4357C266.017 19.7618 265.963 19.0887 265.852 18.4241C266.391 17.1327 267.475 15.6044 269.585 15.6044C272.138 15.6044 273.379 17.2984 273.379 20.7845V42.3481H285.488Z" fill="#006793"/>
</g>
<defs>
<clipPath id="clip0_1862_2362">
<rect width="285.499" height="43.6863" fill="white"/>
</clipPath>
</defs>
</svg>
