<?xml version="1.0" standalone="no"?>
<!DOCTYPE svg PUBLIC "-//W3C//DTD SVG 20010904//EN"
 "http://www.w3.org/TR/2001/REC-SVG-20010904/DTD/svg10.dtd">
<svg version="1.0" xmlns="http://www.w3.org/2000/svg"
 width="1025.000000pt" height="1025.000000pt" viewBox="0 0 1025.000000 1025.000000"
 preserveAspectRatio="xMidYMid meet">
<metadata>
Created by potrace 1.11, written by Peter Selinger 2001-2013
</metadata>
<g transform="translate(0.000000,1025.000000) scale(0.100000,-0.100000)"
fill="#000000" stroke="none">
<path d="M5407 10066 c-41 -18 -86 -63 -93 -93 -4 -14 0 -48 8 -74 l16 -48
-62 -58 c-33 -32 -119 -112 -189 -179 l-128 -122 203 -183 203 -183 6 -370 c3
-204 7 -545 8 -758 l1 -388 46 0 47 0 -7 768 c-4 422 -10 774 -12 782 -3 8
-84 86 -180 173 -96 87 -174 162 -174 165 0 4 65 72 144 151 l144 144 45 -12
c135 -34 211 15 224 143 4 42 1 57 -19 86 -13 19 -39 43 -58 52 -41 21 -131
23 -173 4z m150 -69 c48 -45 50 -85 4 -130 -26 -27 -39 -32 -77 -32 -39 0 -50
5 -75 33 -40 44 -40 93 0 133 43 42 98 41 148 -4z"/>
<path d="M6766 9390 c-119 -143 -155 -179 -180 -184 -87 -18 -166 -119 -166
-213 0 -44 5 -58 30 -87 84 -95 203 -85 258 24 25 50 30 137 11 201 l-12 37
103 121 c56 67 106 119 111 116 4 -3 55 -75 113 -160 l106 -154 0 -919 c0
-506 -3 -947 -7 -981 l-6 -63 -131 6 -131 7 -167 -183 c-91 -101 -196 -219
-232 -262 l-66 -80 0 -498 0 -498 55 0 55 0 0 488 0 487 208 225 209 225 184
-3 184 -3 30 -37 c81 -99 85 -102 172 -102 67 0 84 4 116 25 54 37 69 75 75
185 l4 96 -36 32 c-36 31 -39 32 -129 32 -54 0 -102 -6 -117 -13 -14 -7 -43
-38 -64 -70 -35 -50 -44 -57 -73 -57 l-33 0 0 995 0 996 -156 219 c-85 121
-158 221 -162 223 -4 3 -74 -76 -156 -173z m-122 -301 c25 -28 28 -37 23 -78
-6 -55 -42 -91 -91 -91 -64 0 -113 85 -86 150 27 65 103 74 154 19z m923
-1906 c54 -35 71 -133 29 -172 -37 -34 -105 -52 -142 -36 -74 31 -97 116 -47
175 14 18 36 36 47 40 35 14 85 11 113 -7z"/>
<path d="M3503 9239 c-72 -17 -103 -64 -103 -160 0 -54 15 -88 62 -136 l41
-42 -6 -248 -7 -248 -145 -219 -145 -220 0 -178 0 -178 49 0 49 0 4 168 3 167
116 170 c183 269 169 231 169 437 0 96 3 216 6 266 l7 91 53 33 c61 36 63 41
71 124 8 89 -7 125 -66 158 -51 27 -86 31 -158 15z m108 -69 c68 -35 76 -111
18 -170 -23 -23 -40 -30 -69 -30 -73 0 -124 95 -89 163 32 62 70 72 140 37z"/>
<path d="M2140 9152 c-50 -25 -110 -108 -110 -153 0 -59 29 -127 66 -157 l34
-27 0 -243 0 -243 -25 -33 -25 -33 -119 -6 -120 -6 -307 -195 c-168 -108 -312
-196 -320 -196 -7 0 -32 7 -54 16 -51 21 -131 14 -168 -13 -38 -28 -72 -81
-72 -112 0 -41 41 -113 79 -138 26 -17 48 -23 93 -23 101 0 165 52 176 141 8
62 -25 36 349 273 l262 166 60 0 c34 0 61 -3 61 -6 0 -3 -40 -57 -90 -121
l-90 -115 0 -159 0 -159 51 0 51 0 -7 133 -7 132 156 210 155 210 1 263 0 262
54 24 c47 21 56 30 71 70 59 155 -70 306 -205 238z m86 -67 c24 -10 39 -25 50
-51 28 -66 -7 -129 -79 -141 -32 -5 -41 -1 -72 30 -41 41 -45 74 -14 123 34
55 57 63 115 39z m-1076 -1270 c35 -18 55 -71 41 -108 -25 -66 -121 -76 -173
-17 -37 40 -35 65 6 106 38 38 77 44 126 19z"/>
<path d="M1612 5123 l3 -2228 1270 -3 1270 -2 392 392 393 393 0 1450 0 1449
-387 388 -388 388 -1277 0 -1278 0 2 -2227z m2600 1500 l248 -248 0 -1250 0
-1250 -252 -252 -253 -253 -932 0 -933 0 0 1750 0 1750 937 0 938 0 247 -247z"/>
<path d="M5450 5120 l0 -2230 240 0 240 0 0 995 0 995 1110 0 1110 0 0 -995 0
-995 240 0 240 0 0 2230 0 2230 -240 0 -240 0 0 -995 0 -995 -1110 0 -1110 0
0 995 0 995 -240 0 -240 0 0 -2230z"/>
<path d="M9374 7153 c-29 -5 -53 -33 -69 -80 l-13 -38 -154 -6 c-84 -4 -174
-7 -200 -8 l-48 -1 0 -50 0 -50 198 0 198 0 29 -30 c36 -37 91 -53 153 -44 64
10 108 40 133 94 35 74 12 178 -44 199 -26 10 -153 19 -183 14z m150 -95 c24
-26 27 -37 22 -67 -7 -49 -55 -91 -102 -91 -44 0 -94 45 -94 85 0 64 63 121
120 108 14 -3 38 -19 54 -35z"/>
<path d="M443 4624 c-87 -97 -159 -180 -161 -184 -3 -8 211 -196 316 -278 24
-19 42 -42 42 -53 0 -11 5 -39 11 -62 9 -36 18 -47 59 -70 48 -27 50 -27 110
-14 99 23 147 83 136 169 -9 69 -23 93 -62 112 -44 20 -98 20 -163 -1 -64 -20
-68 -18 -197 85 -153 124 -152 95 -9 252 l123 135 349 5 348 5 3 38 3 37 -375
0 -375 0 -158 -176z m406 -439 c81 -41 49 -149 -47 -162 -34 -5 -45 -1 -66 20
-37 37 -36 89 3 128 33 32 67 37 110 14z"/>
<path d="M7348 4198 l-3 -423 -26 -3 c-14 -2 -41 -18 -58 -36 -62 -63 -60
-159 4 -223 31 -31 38 -33 98 -33 57 0 70 4 98 27 81 68 90 184 20 247 -21 19
-21 25 -21 443 l0 423 -55 0 -55 0 -2 -422z m107 -509 c31 -60 11 -119 -51
-145 -89 -37 -152 69 -87 146 14 18 36 35 47 40 31 11 75 -8 91 -41z"/>
<path d="M5003 3368 l-43 -44 0 -1300 0 -1301 160 -152 c146 -140 160 -156
160 -187 0 -64 53 -141 113 -163 38 -15 116 -14 147 2 40 20 70 74 70 126 0
68 -26 111 -87 144 -51 27 -55 28 -113 16 l-60 -12 -148 140 -147 140 -5 1317
-5 1317 -42 -43z m518 -2957 c32 -33 36 -58 14 -100 -20 -41 -66 -57 -115 -42
-47 14 -70 43 -70 89 0 80 110 114 171 53z"/>
<path d="M2229 2582 l41 -48 0 -221 0 -220 -102 -63 c-97 -59 -105 -62 -133
-50 -102 42 -151 35 -205 -27 -26 -29 -30 -41 -30 -94 0 -108 33 -139 150
-139 51 0 73 4 86 17 19 20 53 90 54 113 0 8 63 56 140 105 l140 90 0 261 0
260 -33 32 c-29 28 -39 32 -91 32 l-57 0 40 -48z m-234 -654 c39 -35 44 -86
10 -126 -57 -68 -165 -43 -165 39 0 32 28 77 58 93 38 21 67 19 97 -6z"/>
</g>
</svg>
