<svg width="30" height="56" viewBox="0 0 30 56" fill="none" xmlns="http://www.w3.org/2000/svg">
  <path d="M23.9351 38.7764C20.7158 40.6228 17.1899 42.777 15.5036 43.8541C15.197 40.7767 15.0437 37.2377 15.8102 33.2371C18.1097 33.5449 23.0153 34.0065 25.1614 33.0833C27.9208 31.8523 29.1472 25.0821 26.8477 26.1592C25.0081 27.0824 18.8762 30.6214 16.1168 32.1601C16.1168 31.8523 16.2701 31.6984 16.2701 31.3907C16.8833 28.6211 17.4965 26.1592 17.9564 24.005C19.6427 24.4666 22.2488 24.7743 24.7015 23.5434C28.534 21.697 29.9137 18.3119 28.6873 16.4654C28.0741 15.3883 21.7889 19.6967 18.4163 22.1586C19.3361 18.9273 19.9493 16.7732 20.5625 15.2345C23.9351 13.0803 28.0741 9.54133 28.6873 4.61752C29.4538 -0.767886 26.0812 0.155328 21.7889 4.92526C18.5696 8.61812 18.7229 13.2342 19.0295 15.2345C18.263 16.927 17.1899 19.5428 16.1168 22.3124C15.6569 19.3889 14.4306 12.7726 13.5108 11.2339C12.2844 9.07972 10.1382 13.0803 10.7514 17.6964C11.058 21.2354 14.2773 22.9279 15.8102 23.5434C15.0437 25.8514 14.2773 28.1595 13.6641 30.3136C11.8245 27.2362 7.68542 20.6199 6.30574 18.7735C4.61946 16.4654 3.23977 16.0038 2.93318 20.466C2.62658 24.9282 4.31286 30.0059 8.60521 30.6214C10.7514 30.9291 12.2844 31.2368 13.2042 31.5446C12.8976 32.7755 12.7443 34.0065 12.591 35.2374C12.4377 37.2377 12.2844 39.3919 12.2844 41.5461C9.6783 38.9303 3.39307 32.7755 2.01338 31.8523C0.173804 30.6214 -0.28609 35.3913 2.93318 39.6996C5.38595 42.9309 10.1382 43.0847 12.2844 42.9309C12.4377 48.3163 13.3575 53.394 15.6569 56.0097L19.0295 55.0865C19.0295 55.0865 16.73 51.2398 15.6569 45.085C21.0224 46.6237 23.9351 45.8544 26.5411 41.8538C29.4538 37.3916 28.3807 36.1606 23.9351 38.7764Z" fill="#00AA66"/>
</svg>
