<svg width="42" height="47" viewBox="0 0 42 47" fill="none" xmlns="http://www.w3.org/2000/svg">
  <path d="M41.9393 18.0708C41.1653 12.9105 41.4233 9.94332 40.6492 8.91127C40.3912 8.52424 39.8752 8.26623 39.3592 8.52424C38.4561 8.65325 36.908 9.16928 34.7149 10.2013C30.8447 11.3624 25.9424 13.6845 24.6524 17.8128C22.9753 22.07 25.8134 25.4242 29.9416 25.2952C27.1035 28.3914 24.6524 32.0036 22.9753 36.0028C22.5882 28.6494 20.3951 21.812 16.3959 15.6196C21.8142 15.1036 23.4913 7.62119 19.105 4.78303C17.4279 3.49296 14.7188 3.49296 12.6547 2.97693C10.0745 2.71892 7.88141 0.912816 5.55928 0.26778C5.30127 0.00976564 4.91424 0.138773 4.52722 0.00976562C4.01119 0.26778 3.88219 1.04182 3.88219 1.68686C3.23715 5.81509 0.915019 9.5563 2.07608 13.8135C3.36616 19.1028 11.2356 20.9089 14.0738 16.1357C18.847 23.1021 21.1692 31.6165 20.6531 40.131C19.234 37.4219 17.2989 34.9707 15.1058 32.9066C19.234 30.9715 17.4279 24.5211 13.6867 23.1021C9.55851 21.554 5.68829 24.2631 1.68906 24.0051C1.30204 24.0051 0.915019 24.1341 0.786012 24.3921C0.527997 24.7792 0.527997 25.1662 0.657005 25.5532C2.3341 29.1654 0.657005 33.5517 2.3341 37.2929C5.55928 44.2593 13.0417 40.7761 13.1707 34.3257C16.2669 37.1639 19.4921 40.9051 19.8791 45.0333C19.7501 45.6783 20.3951 46.3234 21.0401 46.3234C21.8142 46.1944 22.5882 45.5493 22.4592 44.6463C23.4913 38.1959 26.5875 32.1326 30.8447 27.2303C30.7157 31.2295 34.3279 35.4868 38.1981 32.7776C42.1973 28.9074 41.9393 23.6181 41.9393 18.0708Z" fill="#00AA66"/>
</svg>
