<svg width="40" height="40" viewBox="0 0 40 40" fill="none" xmlns="http://www.w3.org/2000/svg">
  <path d="M23.2129 18.5585C22.9614 18.5585 22.7099 18.5585 22.4583 18.8095C22.7099 18.5585 22.9614 18.0564 22.9614 17.8054C22.9614 17.5544 22.7099 17.3034 22.4583 17.3034C26.4824 14.7932 37.2971 7.0116 30.0035 2.74428C21.4523 -1.52304 22.2068 10.2748 21.2008 16.8013C20.6978 16.0483 19.6918 17.0523 19.6918 17.8054C19.6918 17.5544 19.4403 17.3034 19.4403 17.3034C20.4463 13.2871 23.2129 -1.27202 14.6617 1.23817C5.60752 4.25039 14.4102 12.032 18.4343 17.3034C18.1828 17.5544 18.1828 18.3074 18.4343 18.5585C18.1828 18.3074 17.6798 18.0564 17.4283 18.0564H17.1767C14.6617 14.0401 6.86505 3.24632 2.58946 10.5259C-1.68612 19.3115 10.8891 18.3074 17.1767 19.3115L17.4283 19.5625C17.1767 19.5625 16.6737 19.5625 16.4222 19.5625C15.9192 20.0646 16.1707 20.3156 16.4222 20.8176C11.8951 19.8136 -1.43462 17.5544 0.828926 25.838C3.84699 34.6237 11.3921 26.5911 16.4222 22.3237C16.6737 22.8258 17.4283 22.8258 17.9313 22.5748C17.6798 22.8258 17.4283 23.3278 17.4283 23.5788C13.1527 26.34 3.09247 33.8706 10.3861 37.8869C12.6497 38.891 14.1587 38.891 15.4162 38.3889C16.0708 38.2481 16.8457 36.694 16.8457 36.694C17.1767 35.7961 17.6206 34.6138 17.6206 34.3628C17.6206 34.2659 18.1441 33.2387 18.3956 30.4775C18.4056 30.3673 19.1705 27.3692 19.1705 27.3692C19.1705 27.3692 19.6918 25.336 19.6918 24.8339V24.5829C20.1948 24.5829 20.6978 24.0809 20.4463 23.3278C20.4463 23.3278 20.4463 23.3278 20.4463 23.5788C19.4403 28.0972 16.9252 41.9032 25.4764 39.393C34.2791 36.3808 26.2309 28.8502 21.9553 23.8299C21.9553 23.5788 21.9553 23.0768 21.7038 22.8258C21.9553 23.0768 22.4583 23.3278 22.7099 23.3278C22.9614 23.3278 22.9614 23.0768 23.2129 23.0768C26.2309 27.5951 33.2731 37.1338 37.2971 29.8543C41.3212 21.5707 30.5065 21.8217 23.7159 21.3197C23.9674 20.8176 23.2129 20.0646 22.7099 20.0646C22.9614 20.0646 23.2129 19.8136 23.4644 19.5625C28.243 20.5666 41.3212 22.8258 39.0577 14.5422C36.2911 5.50549 28.4945 14.5422 23.2129 18.5585Z" fill="#00AA66"/>
</svg>
