<svg width="40" height="39" viewBox="0 0 40 39" fill="none" xmlns="http://www.w3.org/2000/svg">
  <path d="M20.501 5.50488C22.992 2.16555 27.1437 0.286845 31.5029 0.704102H31.9189L32.126 1.12109C33.7867 5.08669 33.372 9.6791 30.8809 13.0186C30.6733 13.2273 30.4654 13.4358 30.2578 13.6445H30.4658C30.6735 13.6448 31.0884 13.8535 31.2959 13.8535C35.24 15.1059 38.1466 18.4452 39.1846 22.8281V23.2451L38.7695 23.4541C36.486 25.5413 33.5791 26.585 30.6729 26.585C29.4273 26.5849 27.4366 26.0572 27.1436 25.959C26.6757 25.8022 26.147 25.572 25.9395 25.3633V27.9658C25.9393 28.618 25.2888 35.1213 20.0859 38.373C16.9721 36.0772 13.6504 30.7588 13.6504 27.002V26.167H13.4434V25.959C13.2358 25.959 12.8199 26.167 12.6123 26.167C11.5745 26.5843 10.3293 26.7939 9.08398 26.7939C6.17773 26.7939 3.2708 25.7502 0.987305 23.6631L0.572266 23.4541V23.0371C1.61022 18.8628 4.5167 15.5225 8.46094 14.0615C8.66856 14.0614 9.08346 13.8536 9.29102 13.8535H9.49902C9.29143 13.6448 9.08357 13.4353 8.87598 13.2266C6.38505 9.88713 5.97017 5.29558 7.63086 1.33008L7.83789 0.913086H8.25293C12.6123 0.495656 16.7648 2.37347 19.2559 5.71289C19.4634 5.9216 19.4633 6.13113 19.6709 6.33984C19.8785 5.92248 20.0859 5.71356 20.501 5.50488ZM20.0859 11.0566C16.4936 11.0566 13.5811 13.9692 13.5811 17.5615C13.5813 21.1537 16.4937 24.0654 20.0859 24.0654C23.678 24.0653 26.5896 21.1536 26.5898 17.5615C26.5898 13.9693 23.6782 11.0568 20.0859 11.0566Z" fill="#00AA66"/>
</svg>
