<svg xmlns="http://www.w3.org/2000/svg" viewBox="0 0 173.91 48.69"><defs><style>.cls-1{fill:#007fc8;}</style></defs><title>StarLeaf logo</title><g id="Layer_2" data-name="Layer 2"><g id="Layer_1-2" data-name="Layer 1"><path class="cls-1" d="M14.31,10.51A1.42,1.42,0,0,1,12.93,12c-1.42,0-1.9-1.74-5.11-1.74a3.83,3.83,0,0,0-4.13,3.82C3.69,20,16,17.17,16,26.24c0,4.46-3.14,8.51-8.8,8.51C3.8,34.75,0,33.39,0,31.5c0-.91.44-1.7,1.35-1.7,1.1,0,2.63,2.08,5.92,2.08A5.2,5.2,0,0,0,12.6,26.4C12.6,20,.26,23.11.26,14.29A7.39,7.39,0,0,1,7.92,7.37C11.14,7.37,14.31,8.77,14.31,10.51Z"/><path class="cls-1" d="M19,10.06a1.62,1.62,0,1,1,3.21,0v4.35h1.31c1.06,0,1.61.53,1.61,1.44s-.55,1.44-1.61,1.44H22.17V33A1.61,1.61,0,1,1,19,33V17.28H17.64c-1.06,0-1.61-.53-1.61-1.44s.55-1.44,1.61-1.44H19Z"/><path class="cls-1" d="M42.12,33.13a1.51,1.51,0,0,1-1.5,1.63,1.5,1.5,0,0,1-1.5-1.63v-1.4H39a6.24,6.24,0,0,1-5.29,3c-5.48,0-8.54-5-8.54-10.29s3.07-10.29,8.54-10.29A6.7,6.7,0,0,1,39,16.87h.07V15.81a1.5,1.5,0,0,1,1.5-1.63,1.52,1.52,0,0,1,1.5,1.63Zm-8.36-1.25c3.94,0,5.33-4,5.33-7.41s-1.39-7.41-5.33-7.41-5.33,4-5.33,7.41S29.81,31.88,33.75,31.88Z"/><path class="cls-1" d="M45,16a1.62,1.62,0,1,1,3.21,0v1.7h.07c.73-1.55,2.52-3.48,4.38-3.48a1.66,1.66,0,0,1,1.79,1.7c0,.95-.66,1.55-2,1.82-1.9.34-4.24,1.82-4.24,5.71V33A1.61,1.61,0,1,1,45,33Z"/><path class="cls-1" d="M59.73,31.43H66.6a1.55,1.55,0,1,1,0,3.1H58.24a1.61,1.61,0,0,1-1.72-1.82V9.15a1.61,1.61,0,1,1,3.21,0Z"/><path class="cls-1" d="M71.51,25.75c0,3.44,2.12,6.13,5.73,6.13,4.27,0,5.37-2.72,6.57-2.72.58,0,1.17.53,1.17,1.47,0,1.63-4,4.12-7.77,4.12-6.21,0-8.91-5-8.91-10.29S71.59,14.18,77,14.18s8.36,5,8.36,9.79c0,1.17-.4,1.78-1.79,1.78Zm10.66-2.5c0-2.87-1.61-6.2-5.15-6.2-4-.15-5.4,3.14-5.51,6.2Z"/><path class="cls-1" d="M104.61,33.13a1.52,1.52,0,0,1-1.5,1.63,1.49,1.49,0,0,1-1.5-1.63v-1.4h-.07a6.24,6.24,0,0,1-5.29,3c-5.48,0-8.54-5-8.54-10.29s3.07-10.29,8.54-10.29a6.7,6.7,0,0,1,5.29,2.69h.07V15.81a1.5,1.5,0,0,1,1.5-1.63,1.52,1.52,0,0,1,1.5,1.63Zm-8.36-1.25c3.94,0,5.33-4,5.33-7.41s-1.39-7.41-5.33-7.41-5.33,4-5.33,7.41S92.31,31.88,96.25,31.88Z"/><path class="cls-1" d="M112.84,33a1.61,1.61,0,1,1-3.21,0V17.28h-1.32c-1.06,0-1.61-.53-1.61-1.44s.55-1.44,1.61-1.44h1.32V9.68a4,4,0,0,1,4.27-4.35h1c.84,0,1.83.53,1.83,1.44S116.16,8.2,115,8.2h-.8c-1,0-1.31.49-1.31,1.32v4.88h2c1.06,0,1.61.53,1.61,1.44s-.55,1.44-1.61,1.44h-2Z"/><path class="cls-1" d="M173.69,47.58c-2.15-1.85-11.11-9.49-11.23-9.59-.63-.54-1.55-1.25.14-4.34,0,0,4.05-5.8,4.53-8.59,0,0,1.18-4.67-.49-8.41a7.19,7.19,0,0,0-6.21,5.24c.43-3.91.63-12.57-3.78-18,0,0-2.22,1.79-4.14,6.74,0,0,0-5.52-5.91-9.55a17,17,0,0,0-1,4.77s-1-3.18-2.93-4.36a4.62,4.62,0,0,0-1.17,3.13s-2.85-3-9.31-4.57c0,0-.9,7.35,1.66,11.29a4.18,4.18,0,0,0-2.06-.12,4.87,4.87,0,0,0,2.69,3.75,14,14,0,0,0-4.62,1.27s2.59,5.15,6.71,5.5c0,0-6,.33-9.14,1.93,0,0,4.34,9.77,19.78,9.28,0,0-8.31,3.5-11.86,8.19,0,0,13.87,2.39,21.19-2a3.91,3.91,0,0,1,.9-.4c1-.3,2.89-.92,4.22.1l11.21,9.72a.64.64,0,0,0,.83-1Z"/></g></g></svg>