<svg width="1213" height="290" viewBox="0 0 1213 290" fill="none" xmlns="http://www.w3.org/2000/svg">
<path d="M166.379 77.8504C162.869 77.8504 159.944 77.241 157.604 76.0223C155.313 74.8036 153.558 73.2681 152.34 71.4157C151.121 69.5145 150.341 67.6134 150 65.7122L158.774 64.396C158.823 64.786 158.994 65.3222 159.286 66.0047C159.579 66.6872 160.017 67.3696 160.602 68.0521C161.236 68.7346 162.04 69.3195 163.015 69.807C163.99 70.2457 165.185 70.4651 166.598 70.4651C168.207 70.4651 169.547 70.1482 170.62 69.5145C171.692 68.8321 172.521 67.979 173.106 66.9553C173.74 65.8828 174.105 64.786 174.203 63.6648C174.349 62.3486 174.154 61.1056 173.618 59.9356C173.082 58.7169 172.253 57.7176 171.132 56.9377C170.011 56.109 168.548 55.6946 166.745 55.6946C165.575 55.6946 164.575 55.8652 163.747 56.2064C162.918 56.5477 162.26 56.962 161.772 57.4495C161.285 57.937 160.919 58.3757 160.675 58.7657C160.432 59.1557 160.31 59.375 160.31 59.4238L151.097 57.9614L153.363 35.9518H180.93V43.4833H159.505L158.116 55.6215C158.116 55.6215 158.311 55.329 158.701 54.744C159.14 54.1591 159.798 53.501 160.675 52.7697C161.553 51.9898 162.698 51.3073 164.112 50.7223C165.575 50.1374 167.329 49.8449 169.377 49.8449C172.594 49.8449 175.227 50.5274 177.274 51.8923C179.37 53.2572 180.881 54.9878 181.807 57.0839C182.734 59.18 183.099 61.4224 182.904 63.8111C182.758 66.1022 181.978 68.3446 180.564 70.5382C179.2 72.6831 177.323 74.438 174.934 75.803C172.545 77.1679 169.694 77.8504 166.379 77.8504ZM206.393 78.1428C200.202 78.1428 195.595 76.2173 192.573 72.3663C189.551 68.4665 188.039 63.2261 188.039 56.6452C188.039 52.3066 188.673 48.5531 189.941 45.3845C191.208 42.1672 193.207 39.681 195.936 37.9261C198.666 36.1225 202.152 35.2206 206.393 35.2206C210.585 35.2206 214.022 36.0981 216.703 37.853C219.433 39.6079 221.456 42.094 222.772 45.3114C224.088 48.5287 224.746 52.3066 224.746 56.6452C224.746 60.8862 224.088 64.6398 222.772 67.9059C221.456 71.1232 219.433 73.6337 216.703 75.4374C214.022 77.241 210.585 78.1428 206.393 78.1428ZM206.32 70.8307C209.83 70.8307 212.413 69.6608 214.071 67.3209C215.728 64.9323 216.557 61.3737 216.557 56.6452C216.557 53.4766 216.191 50.8686 215.46 48.8212C214.777 46.7251 213.681 45.1651 212.169 44.1414C210.658 43.069 208.708 42.5328 206.32 42.5328C202.907 42.5328 200.372 43.654 198.715 45.8963C197.058 48.1387 196.229 51.7217 196.229 56.6452C196.229 59.765 196.57 62.3974 197.253 64.5423C197.984 66.6384 199.081 68.2227 200.543 69.2952C202.054 70.3189 203.98 70.8307 206.32 70.8307ZM247.309 78.1428C241.118 78.1428 236.512 76.2173 233.489 72.3663C230.467 68.4665 228.956 63.2261 228.956 56.6452C228.956 52.3066 229.59 48.5531 230.857 45.3845C232.124 42.1672 234.123 39.681 236.853 37.9261C239.583 36.1225 243.068 35.2206 247.309 35.2206C251.502 35.2206 254.938 36.0981 257.619 37.853C260.349 39.6079 262.372 42.094 263.688 45.3114C265.005 48.5287 265.663 52.3066 265.663 56.6452C265.663 60.8862 265.005 64.6398 263.688 67.9059C262.372 71.1232 260.349 73.6337 257.619 75.4374C254.938 77.241 251.502 78.1428 247.309 78.1428ZM247.236 70.8307C250.746 70.8307 253.33 69.6608 254.987 67.3209C256.644 64.9323 257.473 61.3737 257.473 56.6452C257.473 53.4766 257.108 50.8686 256.376 48.8212C255.694 46.7251 254.597 45.1651 253.086 44.1414C251.575 43.069 249.625 42.5328 247.236 42.5328C243.824 42.5328 241.289 43.654 239.632 45.8963C237.974 48.1387 237.145 51.7217 237.145 56.6452C237.145 59.765 237.487 62.3974 238.169 64.5423C238.9 66.6384 239.997 68.2227 241.46 69.2952C242.971 70.3189 244.896 70.8307 247.236 70.8307ZM279.671 71.3426V49.918H285.74V71.3426H279.671ZM271.92 63.7379V57.6689H293.417V63.7379H271.92ZM119.806 156.119H117.115V123.185H119.806V156.119ZM139.987 123.185H142.62V156.119H139.987V123.185ZM141.157 140.208H118.695V137.927H141.157V140.208ZM147.95 156.119L160.059 123.185H164.447L176.672 156.119H173.865L162.282 124.414L150.641 156.119H147.95ZM153.859 145.297L154.385 142.957H170.179L170.647 145.297H153.859ZM195.175 156.704C192.172 156.704 189.462 156.061 187.044 154.774C184.665 153.487 182.773 151.595 181.37 149.099C180.005 146.565 179.322 143.425 179.322 139.681C179.322 135.899 180.005 132.74 181.37 130.205C182.734 127.67 184.626 125.779 187.044 124.531C189.501 123.244 192.289 122.6 195.409 122.6C197.983 122.6 200.264 123.068 202.253 124.004C204.242 124.94 205.899 126.305 207.225 128.099C208.59 129.854 209.507 132.018 209.975 134.592H207.225C206.835 132.525 206.075 130.79 204.944 129.386C203.852 127.943 202.487 126.871 200.849 126.169C199.25 125.428 197.437 125.057 195.409 125.057C191.275 125.057 187.999 126.305 185.581 128.801C183.202 131.297 182.013 134.885 182.013 139.564C182.013 144.4 183.183 148.066 185.523 150.562C187.902 153.019 191.119 154.247 195.175 154.247C197.398 154.247 199.367 153.877 201.083 153.136C202.799 152.395 204.183 151.322 205.236 149.918C206.328 148.515 207.05 146.799 207.401 144.771H210.267C209.799 147.306 208.902 149.47 207.576 151.264C206.25 153.019 204.534 154.364 202.428 155.3C200.362 156.236 197.944 156.704 195.175 156.704ZM219.028 144.771V141.495L238.04 123.185H241.55V123.77L219.028 144.771ZM216.63 156.178V123.185H219.379V156.178H216.63ZM239.093 156.119L224.527 138.512L226.457 136.64L242.252 155.534V156.119H239.093ZM247.402 156.119V123.185H268.812V125.642H250.093V138.278H265.068V140.617H250.093V153.838H269.338V156.119H247.402ZM275.175 156.119V123.185H285.412C288.18 123.185 290.52 123.458 292.431 124.004C294.342 124.55 295.785 125.486 296.76 126.812C297.774 128.138 298.281 130.01 298.281 132.428C298.281 133.91 298.008 135.294 297.462 136.581C296.916 137.868 296.058 138.921 294.888 139.74C293.757 140.52 292.275 140.91 290.442 140.91C291.963 140.91 293.153 141.202 294.011 141.787C294.869 142.333 295.473 143.055 295.824 143.952C296.214 144.849 296.448 145.824 296.526 146.877C296.643 147.93 296.701 148.963 296.701 149.977C296.701 150.991 296.76 151.888 296.877 152.668C296.994 153.448 297.267 153.994 297.696 154.306C298.125 154.618 298.807 154.618 299.743 154.306V156.236C299.548 156.392 299.158 156.529 298.573 156.646C298.027 156.763 297.423 156.724 296.76 156.529C296.097 156.334 295.531 155.885 295.064 155.183C294.596 154.481 294.362 153.409 294.362 151.966C294.362 149.704 294.264 147.891 294.069 146.526C293.913 145.161 293.543 144.127 292.958 143.425C292.412 142.723 291.534 142.236 290.325 141.963C289.116 141.69 287.498 141.553 285.47 141.553C283.481 141.553 280.946 141.573 277.865 141.612V156.119H275.175ZM277.865 139.447H286.464C288.609 139.447 290.364 139.252 291.729 138.863C293.133 138.434 294.167 137.732 294.83 136.757C295.531 135.743 295.882 134.339 295.882 132.545C295.882 130.478 295.454 128.957 294.596 127.982C293.738 126.968 292.509 126.305 290.91 125.993C289.311 125.681 287.361 125.525 285.061 125.525H277.865V139.447ZM317.323 156.88C315.608 156.88 313.95 156.665 312.351 156.236C310.752 155.846 309.29 155.222 307.964 154.364C306.638 153.467 305.585 152.356 304.805 151.03C304.025 149.665 303.616 148.027 303.577 146.116H306.268C306.268 146.233 306.307 146.584 306.385 147.169C306.463 147.754 306.657 148.456 306.969 149.275C307.32 150.094 307.886 150.893 308.666 151.673C309.485 152.453 310.596 153.116 312 153.662C313.443 154.169 315.276 154.423 317.499 154.423C319.527 154.423 321.145 154.189 322.354 153.721C323.602 153.214 324.538 152.609 325.162 151.907C325.786 151.166 326.196 150.464 326.39 149.801C326.624 149.138 326.741 148.632 326.741 148.281C326.78 146.799 326.41 145.609 325.63 144.712C324.85 143.776 323.797 143.035 322.471 142.489C321.145 141.904 319.702 141.417 318.142 141.027C316.582 140.637 315.003 140.227 313.404 139.798C311.844 139.33 310.401 138.765 309.075 138.102C307.749 137.4 306.696 136.484 305.917 135.353C305.176 134.183 304.844 132.681 304.922 130.848C305 129.133 305.585 127.67 306.677 126.461C307.808 125.213 309.29 124.258 311.123 123.595C312.995 122.932 315.042 122.6 317.265 122.6C319.488 122.6 321.496 123.01 323.29 123.829C325.123 124.609 326.566 125.779 327.619 127.339C328.711 128.86 329.218 130.79 329.14 133.13H326.507C326.585 131.492 326.293 130.146 325.63 129.094C324.967 128.041 324.129 127.222 323.115 126.637C322.101 126.052 321.048 125.662 319.956 125.467C318.864 125.233 317.889 125.116 317.031 125.116C314.34 125.116 312.117 125.681 310.362 126.812C308.646 127.904 307.749 129.308 307.671 131.024C307.632 132.506 308.003 133.695 308.783 134.592C309.563 135.489 310.616 136.211 311.942 136.757C313.268 137.264 314.711 137.712 316.271 138.102C317.869 138.492 319.449 138.902 321.009 139.33C322.569 139.759 323.992 140.325 325.279 141.027C326.605 141.729 327.638 142.684 328.379 143.893C329.159 145.063 329.53 146.584 329.491 148.456C329.413 150.25 328.828 151.771 327.736 153.019C326.644 154.267 325.201 155.222 323.407 155.885C321.613 156.548 319.585 156.88 317.323 156.88Z" fill="#238CBA"/>
<path d="M604.082 69.5876V77.1191H582.95V69.5876H589.824V45.8963C589.482 47.7488 588.873 49.1868 587.996 50.2105C587.167 51.1855 586.241 51.8679 585.217 52.2579C584.242 52.6479 583.34 52.8916 582.512 52.9891C581.732 53.0379 581.22 53.0622 580.976 53.0622V43.3371C581.268 43.4346 581.902 43.4833 582.877 43.4833C583.901 43.4346 584.973 43.1909 586.094 42.7521C587.264 42.3134 588.288 41.5578 589.166 40.4854C590.092 39.4129 590.604 37.9017 590.701 35.9518H598.598V69.5876H604.082ZM626.632 77.8504C623.122 77.8504 620.198 77.241 617.858 76.0223C615.567 74.8036 613.812 73.2681 612.593 71.4157C611.374 69.5145 610.594 67.6134 610.253 65.7122L619.028 64.396C619.076 64.786 619.247 65.3222 619.539 66.0047C619.832 66.6872 620.271 67.3696 620.856 68.0521C621.489 68.7346 622.294 69.3195 623.269 69.807C624.244 70.2457 625.438 70.4651 626.852 70.4651C628.46 70.4651 629.801 70.1482 630.873 69.5145C631.946 68.8321 632.774 67.979 633.359 66.9553C633.993 65.8828 634.359 64.786 634.456 63.6648C634.602 62.3486 634.407 61.1056 633.871 59.9356C633.335 58.7169 632.506 57.7176 631.385 56.9377C630.264 56.109 628.801 55.6946 626.998 55.6946C625.828 55.6946 624.829 55.8652 624 56.2064C623.171 56.5477 622.513 56.962 622.026 57.4495C621.538 57.937 621.173 58.3757 620.929 58.7657C620.685 59.1557 620.563 59.375 620.563 59.4238L611.35 57.9614L613.617 35.9518H641.183V43.4833H619.759L618.37 55.6215C618.37 55.6215 618.565 55.329 618.954 54.744C619.393 54.1591 620.051 53.501 620.929 52.7697C621.806 51.9898 622.952 51.3073 624.365 50.7223C625.828 50.1374 627.583 49.8449 629.63 49.8449C632.848 49.8449 635.48 50.5274 637.527 51.8923C639.623 53.2572 641.135 54.9878 642.061 57.0839C642.987 59.18 643.353 61.4224 643.158 63.8111C643.011 66.1022 642.231 68.3446 640.818 70.5382C639.453 72.6831 637.576 74.438 635.187 75.803C632.799 77.1679 629.947 77.8504 626.632 77.8504ZM509.313 156.88C507.597 156.88 505.94 156.665 504.341 156.236C502.742 155.846 501.279 155.222 499.954 154.364C498.628 153.467 497.575 152.356 496.795 151.03C496.015 149.665 495.605 148.027 495.566 146.116H498.257C498.257 146.233 498.296 146.584 498.374 147.169C498.452 147.754 498.647 148.456 498.959 149.275C499.31 150.094 499.876 150.893 500.656 151.673C501.474 152.453 502.586 153.116 503.99 153.662C505.433 154.169 507.266 154.423 509.489 154.423C511.516 154.423 513.135 154.189 514.344 153.721C515.592 153.214 516.528 152.609 517.152 151.907C517.776 151.166 518.185 150.464 518.38 149.801C518.614 149.138 518.731 148.632 518.731 148.281C518.77 146.799 518.4 145.609 517.62 144.712C516.84 143.776 515.787 143.035 514.461 142.489C513.135 141.904 511.692 141.417 510.132 141.027C508.572 140.637 506.993 140.227 505.394 139.798C503.834 139.33 502.391 138.765 501.065 138.102C499.739 137.4 498.686 136.484 497.906 135.353C497.165 134.183 496.834 132.681 496.912 130.848C496.99 129.133 497.575 127.67 498.667 126.461C499.798 125.213 501.279 124.258 503.112 123.595C504.984 122.932 507.032 122.6 509.255 122.6C511.477 122.6 513.486 123.01 515.28 123.829C517.113 124.609 518.556 125.779 519.609 127.339C520.7 128.86 521.207 130.79 521.129 133.13H518.497C518.575 131.492 518.283 130.146 517.62 129.094C516.957 128.041 516.118 127.222 515.104 126.637C514.09 126.052 513.037 125.662 511.945 125.467C510.853 125.233 509.879 125.116 509.021 125.116C506.33 125.116 504.107 125.681 502.352 126.812C500.636 127.904 499.739 129.308 499.661 131.024C499.622 132.506 499.993 133.695 500.772 134.592C501.552 135.489 502.605 136.211 503.931 136.757C505.257 137.264 506.7 137.712 508.26 138.102C509.859 138.492 511.438 138.902 512.998 139.33C514.558 139.759 515.982 140.325 517.269 141.027C518.595 141.729 519.628 142.684 520.369 143.893C521.149 145.063 521.519 146.584 521.48 148.456C521.402 150.25 520.817 151.771 519.726 153.019C518.634 154.267 517.191 155.222 515.397 155.885C513.603 156.548 511.575 156.88 509.313 156.88ZM530.181 156.119H527.549V123.185H530.181V156.119ZM529.713 123.185H539.716C543.304 123.185 546.015 124.043 547.848 125.759C549.68 127.436 550.597 129.99 550.597 133.422C550.597 136.62 549.641 139.097 547.731 140.851C545.859 142.567 543.187 143.425 539.716 143.425H529.655V141.144H539.482C542.29 141.144 544.435 140.5 545.917 139.213C547.399 137.927 548.14 135.977 548.14 133.364C548.14 130.712 547.419 128.743 545.976 127.456C544.533 126.169 542.368 125.525 539.482 125.525H529.713V123.185ZM569.104 156.938C563.956 156.938 560.037 155.398 557.346 152.317C554.655 149.197 553.31 145.005 553.31 139.74C553.31 136.269 553.895 133.266 555.065 130.731C556.235 128.158 557.989 126.169 560.329 124.765C562.669 123.322 565.594 122.6 569.104 122.6C574.252 122.6 578.151 124.16 580.803 127.28C583.494 130.361 584.84 134.514 584.84 139.74C584.84 143.133 584.235 146.136 583.026 148.749C581.856 151.322 580.101 153.331 577.761 154.774C575.461 156.217 572.575 156.938 569.104 156.938ZM569.104 154.423C572.029 154.423 574.447 153.818 576.358 152.609C578.307 151.361 579.77 149.645 580.745 147.462C581.759 145.239 582.266 142.665 582.266 139.74C582.266 136.776 581.778 134.202 580.803 132.018C579.867 129.834 578.405 128.138 576.416 126.929C574.466 125.72 572.029 125.116 569.104 125.116C564.775 125.116 561.499 126.403 559.276 128.977C557.053 131.55 555.942 135.138 555.942 139.74C555.942 142.626 556.41 145.18 557.346 147.403C558.282 149.587 559.725 151.303 561.675 152.551C563.664 153.799 566.14 154.423 569.104 154.423ZM614.298 123.185H616.93V156.119H612.016L593.063 124.414H592.946V156.119H590.314V123.185H594.935L614.181 154.891H614.298V123.185ZM635.961 156.88C634.246 156.88 632.588 156.665 630.989 156.236C629.39 155.846 627.928 155.222 626.602 154.364C625.276 153.467 624.223 152.356 623.443 151.03C622.663 149.665 622.254 148.027 622.215 146.116H624.905C624.905 146.233 624.944 146.584 625.022 147.169C625.1 147.754 625.295 148.456 625.607 149.275C625.958 150.094 626.524 150.893 627.304 151.673C628.123 152.453 629.234 153.116 630.638 153.662C632.081 154.169 633.914 154.423 636.137 154.423C638.165 154.423 639.783 154.189 640.992 153.721C642.24 153.214 643.176 152.609 643.8 151.907C644.424 151.166 644.833 150.464 645.028 149.801C645.262 149.138 645.379 148.632 645.379 148.281C645.418 146.799 645.048 145.609 644.268 144.712C643.488 143.776 642.435 143.035 641.109 142.489C639.783 141.904 638.34 141.417 636.78 141.027C635.22 140.637 633.641 140.227 632.042 139.798C630.482 139.33 629.039 138.765 627.713 138.102C626.387 137.4 625.334 136.484 624.555 135.353C623.814 134.183 623.482 132.681 623.56 130.848C623.638 129.133 624.223 127.67 625.315 126.461C626.446 125.213 627.928 124.258 629.761 123.595C631.633 122.932 633.68 122.6 635.903 122.6C638.126 122.6 640.134 123.01 641.928 123.829C643.761 124.609 645.204 125.779 646.257 127.339C647.349 128.86 647.856 130.79 647.778 133.13H645.145C645.223 131.492 644.931 130.146 644.268 129.094C643.605 128.041 642.767 127.222 641.753 126.637C640.739 126.052 639.686 125.662 638.594 125.467C637.502 125.233 636.527 125.116 635.669 125.116C632.978 125.116 630.755 125.681 629 126.812C627.284 127.904 626.387 129.308 626.309 131.024C626.27 132.506 626.641 133.695 627.421 134.592C628.201 135.489 629.254 136.211 630.58 136.757C631.906 137.264 633.349 137.712 634.908 138.102C636.507 138.492 638.087 138.902 639.647 139.33C641.207 139.759 642.63 140.325 643.917 141.027C645.243 141.729 646.276 142.684 647.017 143.893C647.797 145.063 648.168 146.584 648.129 148.456C648.051 150.25 647.466 151.771 646.374 153.019C645.282 154.267 643.839 155.222 642.045 155.885C640.251 156.548 638.223 156.88 635.961 156.88ZM667.418 156.938C662.27 156.938 658.351 155.398 655.66 152.317C652.969 149.197 651.624 145.005 651.624 139.74C651.624 136.269 652.209 133.266 653.378 130.731C654.548 128.158 656.303 126.169 658.643 124.765C660.983 123.322 663.908 122.6 667.418 122.6C672.565 122.6 676.465 124.16 679.117 127.28C681.808 130.361 683.153 134.514 683.153 139.74C683.153 143.133 682.549 146.136 681.34 148.749C680.17 151.322 678.415 153.331 676.075 154.774C673.774 156.217 670.889 156.938 667.418 156.938ZM667.418 154.423C670.343 154.423 672.76 153.818 674.671 152.609C676.621 151.361 678.084 149.645 679.059 147.462C680.073 145.239 680.58 142.665 680.58 139.74C680.58 136.776 680.092 134.202 679.117 132.018C678.181 129.834 676.719 128.138 674.73 126.929C672.78 125.72 670.343 125.116 667.418 125.116C663.089 125.116 659.813 126.403 657.59 128.977C655.367 131.55 654.256 135.138 654.256 139.74C654.256 142.626 654.724 145.18 655.66 147.403C656.596 149.587 658.039 151.303 659.989 152.551C661.978 153.799 664.454 154.423 667.418 154.423ZM689.213 156.119V123.185H699.45C702.219 123.185 704.559 123.458 706.47 124.004C708.38 124.55 709.823 125.486 710.798 126.812C711.812 128.138 712.319 130.01 712.319 132.428C712.319 133.91 712.046 135.294 711.5 136.581C710.954 137.868 710.096 138.921 708.926 139.74C707.795 140.52 706.314 140.91 704.481 140.91C706.002 140.91 707.191 141.202 708.049 141.787C708.907 142.333 709.511 143.055 709.862 143.952C710.252 144.849 710.486 145.824 710.564 146.877C710.681 147.93 710.74 148.963 710.74 149.977C710.74 150.991 710.798 151.888 710.915 152.668C711.032 153.448 711.305 153.994 711.734 154.306C712.163 154.618 712.846 154.618 713.782 154.306V156.236C713.587 156.392 713.197 156.529 712.612 156.646C712.066 156.763 711.461 156.724 710.798 156.529C710.135 156.334 709.57 155.885 709.102 155.183C708.634 154.481 708.4 153.409 708.4 151.966C708.4 149.704 708.302 147.891 708.107 146.526C707.951 145.161 707.581 144.127 706.996 143.425C706.45 142.723 705.573 142.236 704.364 141.963C703.155 141.69 701.536 141.553 699.508 141.553C697.52 141.553 694.985 141.573 691.904 141.612V156.119H689.213ZM691.904 139.447H700.503C702.648 139.447 704.403 139.252 705.768 138.863C707.172 138.434 708.205 137.732 708.868 136.757C709.57 135.743 709.921 134.339 709.921 132.545C709.921 130.478 709.492 128.957 708.634 127.982C707.776 126.968 706.548 126.305 704.949 125.993C703.35 125.681 701.4 125.525 699.099 125.525H691.904V139.447ZM731.362 156.88C729.646 156.88 727.989 156.665 726.39 156.236C724.791 155.846 723.328 155.222 722.002 154.364C720.676 153.467 719.623 152.356 718.843 151.03C718.064 149.665 717.654 148.027 717.615 146.116H720.306C720.306 146.233 720.345 146.584 720.423 147.169C720.501 147.754 720.696 148.456 721.008 149.275C721.359 150.094 721.924 150.893 722.704 151.673C723.523 152.453 724.635 153.116 726.039 153.662C727.482 154.169 729.314 154.423 731.537 154.423C733.565 154.423 735.184 154.189 736.393 153.721C737.641 153.214 738.576 152.609 739.2 151.907C739.824 151.166 740.234 150.464 740.429 149.801C740.663 149.138 740.78 148.632 740.78 148.281C740.819 146.799 740.448 145.609 739.668 144.712C738.888 143.776 737.836 143.035 736.51 142.489C735.184 141.904 733.741 141.417 732.181 141.027C730.621 140.637 729.041 140.227 727.443 139.798C725.883 139.33 724.44 138.765 723.114 138.102C721.788 137.4 720.735 136.484 719.955 135.353C719.214 134.183 718.882 132.681 718.96 130.848C719.038 129.133 719.623 127.67 720.715 126.461C721.846 125.213 723.328 124.258 725.161 123.595C727.033 122.932 729.08 122.6 731.303 122.6C733.526 122.6 735.535 123.01 737.329 123.829C739.161 124.609 740.604 125.779 741.657 127.339C742.749 128.86 743.256 130.79 743.178 133.13H740.546C740.624 131.492 740.331 130.146 739.668 129.094C739.005 128.041 738.167 127.222 737.153 126.637C736.139 126.052 735.086 125.662 733.994 125.467C732.902 125.233 731.927 125.116 731.069 125.116C728.378 125.116 726.156 125.681 724.401 126.812C722.685 127.904 721.788 129.308 721.71 131.024C721.671 132.506 722.041 133.695 722.821 134.592C723.601 135.489 724.654 136.211 725.98 136.757C727.306 137.264 728.749 137.712 730.309 138.102C731.908 138.492 733.487 138.902 735.047 139.33C736.607 139.759 738.031 140.325 739.317 141.027C740.643 141.729 741.677 142.684 742.418 143.893C743.198 145.063 743.568 146.584 743.529 148.456C743.451 150.25 742.866 151.771 741.774 153.019C740.682 154.267 739.239 155.222 737.446 155.885C735.652 156.548 733.624 156.88 731.362 156.88Z" fill="#238CBA"/>
<path d="M951.587 69.5876V77.1191H930.455V69.5876H937.328V45.8963C936.987 47.7488 936.378 49.1868 935.5 50.2105C934.672 51.1855 933.746 51.8679 932.722 52.2579C931.747 52.6479 930.845 52.8916 930.016 52.9891C929.236 53.0379 928.725 53.0622 928.481 53.0622V43.3371C928.773 43.4346 929.407 43.4833 930.382 43.4833C931.406 43.4346 932.478 43.1909 933.599 42.7521C934.769 42.3134 935.793 41.5578 936.67 40.4854C937.597 39.4129 938.108 37.9017 938.206 35.9518H946.103V69.5876H951.587ZM975.234 78.1428C969.043 78.1428 964.436 76.2173 961.414 72.3663C958.392 68.4665 956.88 63.2261 956.88 56.6452C956.88 52.3066 957.514 48.5531 958.782 45.3845C960.049 42.1672 962.048 39.681 964.778 37.9261C967.507 36.1225 970.993 35.2206 975.234 35.2206C979.426 35.2206 982.863 36.0981 985.544 37.853C988.274 39.6079 990.297 42.094 991.613 45.3114C992.929 48.5287 993.587 52.3066 993.587 56.6452C993.587 60.8862 992.929 64.6398 991.613 67.9059C990.297 71.1232 988.274 73.6337 985.544 75.4374C982.863 77.241 979.426 78.1428 975.234 78.1428ZM975.161 70.8307C978.671 70.8307 981.254 69.6608 982.912 67.3209C984.569 64.9323 985.398 61.3737 985.398 56.6452C985.398 53.4766 985.032 50.8686 984.301 48.8212C983.618 46.7251 982.522 45.1651 981.01 44.1414C979.499 43.069 977.549 42.5328 975.161 42.5328C971.748 42.5328 969.214 43.654 967.556 45.8963C965.899 48.1387 965.07 51.7217 965.07 56.6452C965.07 59.765 965.411 62.3974 966.094 64.5423C966.825 66.6384 967.922 68.2227 969.384 69.2952C970.895 70.3189 972.821 70.8307 975.161 70.8307ZM1016.15 78.1428C1009.96 78.1428 1005.35 76.2173 1002.33 72.3663C999.308 68.4665 997.797 63.2261 997.797 56.6452C997.797 52.3066 998.431 48.5531 999.698 45.3845C1000.97 42.1672 1002.96 39.681 1005.69 37.9261C1008.42 36.1225 1011.91 35.2206 1016.15 35.2206C1020.34 35.2206 1023.78 36.0981 1026.46 37.853C1029.19 39.6079 1031.21 42.094 1032.53 45.3114C1033.85 48.5287 1034.5 52.3066 1034.5 56.6452C1034.5 60.8862 1033.85 64.6398 1032.53 67.9059C1031.21 71.1232 1029.19 73.6337 1026.46 75.4374C1023.78 77.241 1020.34 78.1428 1016.15 78.1428ZM1016.08 70.8307C1019.59 70.8307 1022.17 69.6608 1023.83 67.3209C1025.49 64.9323 1026.31 61.3737 1026.31 56.6452C1026.31 53.4766 1025.95 50.8686 1025.22 48.8212C1024.53 46.7251 1023.44 45.1651 1021.93 44.1414C1020.42 43.069 1018.47 42.5328 1016.08 42.5328C1012.66 42.5328 1010.13 43.654 1008.47 45.8963C1006.82 48.1387 1005.99 51.7217 1005.99 56.6452C1005.99 59.765 1006.33 62.3974 1007.01 64.5423C1007.74 66.6384 1008.84 68.2227 1010.3 69.2952C1011.81 70.3189 1013.74 70.8307 1016.08 70.8307ZM1048.51 71.3426V49.918H1054.58V71.3426H1048.51ZM1040.76 63.7379V57.6689H1062.26V63.7379H1040.76ZM892.161 156.119H889.528V123.185H892.161V156.119ZM891.693 123.185H901.696C905.283 123.185 907.994 124.043 909.827 125.759C911.66 127.436 912.576 129.99 912.576 133.422C912.576 136.62 911.621 139.097 909.71 140.851C907.838 142.567 905.166 143.425 901.696 143.425H891.634V141.144H901.462C904.269 141.144 906.414 140.5 907.896 139.213C909.378 137.927 910.119 135.977 910.119 133.364C910.119 130.712 909.398 128.743 907.955 127.456C906.512 126.169 904.347 125.525 901.462 125.525H891.693V123.185ZM917.917 156.119V123.185H928.154C930.923 123.185 933.263 123.458 935.174 124.004C937.085 124.55 938.527 125.486 939.502 126.812C940.516 128.138 941.023 130.01 941.023 132.428C941.023 133.91 940.75 135.294 940.204 136.581C939.658 137.868 938.8 138.921 937.631 139.74C936.5 140.52 935.018 140.91 933.185 140.91C934.706 140.91 935.895 141.202 936.753 141.787C937.611 142.333 938.216 143.055 938.566 143.952C938.956 144.849 939.19 145.824 939.268 146.877C939.385 147.93 939.444 148.963 939.444 149.977C939.444 150.991 939.502 151.888 939.619 152.668C939.736 153.448 940.009 153.994 940.438 154.306C940.867 154.618 941.55 154.618 942.486 154.306V156.236C942.291 156.392 941.901 156.529 941.316 156.646C940.77 156.763 940.165 156.724 939.502 156.529C938.839 156.334 938.274 155.885 937.806 155.183C937.338 154.481 937.104 153.409 937.104 151.966C937.104 149.704 937.007 147.891 936.812 146.526C936.656 145.161 936.285 144.127 935.7 143.425C935.154 142.723 934.277 142.236 933.068 141.963C931.859 141.69 930.24 141.553 928.213 141.553C926.224 141.553 923.689 141.573 920.608 141.612V156.119H917.917ZM920.608 139.447H929.207C931.352 139.447 933.107 139.252 934.472 138.863C935.876 138.434 936.909 137.732 937.572 136.757C938.274 135.743 938.625 134.339 938.625 132.545C938.625 130.478 938.196 128.957 937.338 127.982C936.48 126.968 935.252 126.305 933.653 125.993C932.054 125.681 930.104 125.525 927.803 125.525H920.608V139.447ZM961.645 156.938C956.498 156.938 952.578 155.398 949.887 152.317C947.197 149.197 945.851 145.005 945.851 139.74C945.851 136.269 946.436 133.266 947.606 130.731C948.776 128.158 950.531 126.169 952.871 124.765C955.211 123.322 958.136 122.6 961.645 122.6C966.793 122.6 970.693 124.16 973.345 127.28C976.036 130.361 977.381 134.514 977.381 139.74C977.381 143.133 976.777 146.136 975.568 148.749C974.398 151.322 972.643 153.331 970.303 154.774C968.002 156.217 965.116 156.938 961.645 156.938ZM961.645 154.423C964.57 154.423 966.988 153.818 968.899 152.609C970.849 151.361 972.311 149.645 973.286 147.462C974.3 145.239 974.807 142.665 974.807 139.74C974.807 136.776 974.32 134.202 973.345 132.018C972.409 129.834 970.946 128.138 968.958 126.929C967.008 125.72 964.57 125.116 961.645 125.116C957.317 125.116 954.041 126.403 951.818 128.977C949.595 131.55 948.484 135.138 948.484 139.74C948.484 142.626 948.952 145.18 949.887 147.403C950.823 149.587 952.266 151.303 954.216 152.551C956.205 153.799 958.682 154.423 961.645 154.423ZM991.104 156.704C990.324 156.704 989.427 156.568 988.413 156.295C987.399 156.061 986.404 155.651 985.429 155.066C984.494 154.481 983.714 153.623 983.09 152.492C982.466 151.361 982.154 149.918 982.154 148.164H984.611C984.611 149.06 984.786 149.996 985.137 150.971C985.488 151.907 986.131 152.707 987.067 153.37C988.042 154.033 989.388 154.364 991.104 154.364C993.249 154.364 994.828 153.799 995.842 152.668C996.895 151.537 997.421 149.665 997.421 147.052V124.238H1000.05V146.818C1000.05 148.378 999.878 149.782 999.527 151.03C999.176 152.239 998.63 153.272 997.889 154.13C997.187 154.988 996.271 155.632 995.14 156.061C994.048 156.49 992.703 156.704 991.104 156.704ZM991.045 125.467V123.244H1000.05V125.467H991.045ZM1007.2 156.119V123.185H1028.61V125.642H1009.89V138.278H1024.86V140.617H1009.89V153.838H1029.13V156.119H1007.2ZM1048.6 156.704C1045.6 156.704 1042.88 156.061 1040.47 154.774C1038.09 153.487 1036.2 151.595 1034.79 149.099C1033.43 146.565 1032.75 143.425 1032.75 139.681C1032.75 135.899 1033.43 132.74 1034.79 130.205C1036.16 127.67 1038.05 125.779 1040.47 124.531C1042.92 123.244 1045.71 122.6 1048.83 122.6C1051.41 122.6 1053.69 123.068 1055.68 124.004C1057.67 124.94 1059.32 126.305 1060.65 128.099C1062.01 129.854 1062.93 132.018 1063.4 134.592H1060.65C1060.26 132.525 1059.5 130.79 1058.37 129.386C1057.28 127.943 1055.91 126.871 1054.27 126.169C1052.67 125.428 1050.86 125.057 1048.83 125.057C1044.7 125.057 1041.42 126.305 1039 128.801C1036.63 131.297 1035.44 134.885 1035.44 139.564C1035.44 144.4 1036.61 148.066 1038.95 150.562C1041.32 153.019 1044.54 154.247 1048.6 154.247C1050.82 154.247 1052.79 153.877 1054.51 153.136C1056.22 152.395 1057.61 151.322 1058.66 149.918C1059.75 148.515 1060.47 146.799 1060.82 144.771H1063.69C1063.22 147.306 1062.33 149.47 1061 151.264C1059.67 153.019 1057.96 154.364 1055.85 155.3C1053.78 156.236 1051.37 156.704 1048.6 156.704ZM1080.06 124.238V156.119H1077.42V124.238H1080.06ZM1066.43 125.584V123.185H1091V125.584H1066.43ZM1107.28 156.88C1105.56 156.88 1103.91 156.665 1102.31 156.236C1100.71 155.846 1099.25 155.222 1097.92 154.364C1096.59 153.467 1095.54 152.356 1094.76 151.03C1093.98 149.665 1093.57 148.027 1093.53 146.116H1096.22C1096.22 146.233 1096.26 146.584 1096.34 147.169C1096.42 147.754 1096.61 148.456 1096.93 149.275C1097.28 150.094 1097.84 150.893 1098.62 151.673C1099.44 152.453 1100.55 153.116 1101.96 153.662C1103.4 154.169 1105.23 154.423 1107.46 154.423C1109.48 154.423 1111.1 154.189 1112.31 153.721C1113.56 153.214 1114.49 152.609 1115.12 151.907C1115.74 151.166 1116.15 150.464 1116.35 149.801C1116.58 149.138 1116.7 148.632 1116.7 148.281C1116.74 146.799 1116.37 145.609 1115.59 144.712C1114.81 143.776 1113.75 143.035 1112.43 142.489C1111.1 141.904 1109.66 141.417 1108.1 141.027C1106.54 140.637 1104.96 140.227 1103.36 139.798C1101.8 139.33 1100.36 138.765 1099.03 138.102C1097.71 137.4 1096.65 136.484 1095.87 135.353C1095.13 134.183 1094.8 132.681 1094.88 130.848C1094.96 129.133 1095.54 127.67 1096.63 126.461C1097.76 125.213 1099.25 124.258 1101.08 123.595C1102.95 122.932 1105 122.6 1107.22 122.6C1109.44 122.6 1111.45 123.01 1113.25 123.829C1115.08 124.609 1116.52 125.779 1117.58 127.339C1118.67 128.86 1119.17 130.79 1119.1 133.13H1116.46C1116.54 131.492 1116.25 130.146 1115.59 129.094C1114.92 128.041 1114.08 127.222 1113.07 126.637C1112.06 126.052 1111 125.662 1109.91 125.467C1108.82 125.233 1107.85 125.116 1106.99 125.116C1104.3 125.116 1102.07 125.681 1100.32 126.812C1098.6 127.904 1097.71 129.308 1097.63 131.024C1097.59 132.506 1097.96 133.695 1098.74 134.592C1099.52 135.489 1100.57 136.211 1101.9 136.757C1103.22 137.264 1104.67 137.712 1106.23 138.102C1107.83 138.492 1109.41 138.902 1110.97 139.33C1112.52 139.759 1113.95 140.325 1115.24 141.027C1116.56 141.729 1117.59 142.684 1118.34 143.893C1119.12 145.063 1119.49 146.584 1119.45 148.456C1119.37 150.25 1118.78 151.771 1117.69 153.019C1116.6 154.267 1115.16 155.222 1113.36 155.885C1111.57 156.548 1109.54 156.88 1107.28 156.88Z" fill="#238CBA"/>
</svg>
