<svg width="464" height="424" viewBox="0 0 464 424" fill="none" xmlns="http://www.w3.org/2000/svg">
<path d="M10.6287 284.708C13.9945 284.708 92.2603 284.708 92.2603 284.708V327.207C92.2603 327.207 65.3443 328.734 48.0783 328.89C31.1503 329.043 9.36639 328.049 4.73779 328.049C0.109194 328.049 0.938817 315.262 1.79232 307.009C2.75606 297.691 7.26298 284.708 10.6287 284.708Z" fill="url(#paint0_linear_3223_3454)"/>
<path d="M34.19 248.94C36.2941 248.94 97.3072 251.886 97.3072 251.886V291.439C97.3072 291.439 62.4236 295.068 40.0809 293.964C29.5309 293.443 16.5172 292.281 13.1509 291.439C9.78461 290.598 9.78472 276.712 15.2548 264.93C20.7249 253.148 32.0858 248.94 34.19 248.94Z" fill="url(#paint1_linear_3223_3454)"/>
<path d="M3.47368 328.047C5.57728 328.047 105.724 328.047 105.724 328.047V360.868C105.724 360.868 78.5303 360.31 61.1207 360.868C43.3455 361.437 26.1953 362.13 18.6215 363.813C11.0477 365.496 9.36462 375.174 9.36462 375.174C9.36462 375.174 5.14016 368.525 3.47368 363.813C0.986137 356.78 0.827108 352.337 0.948988 344.878C1.05758 338.232 1.37007 328.047 3.47368 328.047Z" fill="url(#paint2_linear_3223_3454)"/>
<path d="M9.7865 375.597C10.4789 370.942 11.4696 368.443 15.2558 365.077C19.0419 361.71 68.695 360.448 68.695 360.448L122.135 357.924L138.125 415.992C138.125 415.992 93.522 428.194 65.3296 421.041C37.1373 413.888 31.3866 409.259 25.7762 405.051C20.1658 400.844 18.2185 398.139 14.8359 392.849C11.054 386.934 8.75357 382.54 9.7865 375.597Z" fill="url(#paint3_linear_3223_3454)"/>
<g filter="url(#filter0_i_3223_3454)">
<path d="M186.485 205.202C192.797 203.519 203.578 200.737 210.89 206.885C214.24 209.701 217.202 212.776 217.202 216.142C217.202 219.509 204.579 261.161 204.579 261.161C204.579 261.161 182.917 251.159 167.971 245.592C149.428 238.685 118.739 233.394 118.739 233.394C118.739 233.394 138.62 224.437 151.981 218.667C165.26 212.933 180.173 206.885 186.485 205.202Z" fill="url(#paint4_linear_3223_3454)"/>
</g>
<path d="M85.4964 328.462C85.4964 334.04 72.4525 336.878 61.5122 336.457C55.47 336.457 51.4131 331.094 51.4131 325.517C51.4131 319.94 53.3661 312.894 59.4083 312.894C73.2941 313.314 85.4964 318.364 85.4964 328.462Z" fill="url(#paint5_linear_3223_3454)"/>
<path d="M53.9399 304.055C55.6231 312.471 65.0315 322.57 58.9893 322.57C48.8906 322.57 34.584 317.194 34.584 309.525C34.584 301.857 37.9502 295.64 44.6827 295.64C51.836 295.64 52.6588 297.65 53.9399 304.055Z" fill="url(#paint6_linear_3223_3454)"/>
<path d="M82.5514 291.851C69.1127 305.801 64.3925 324.926 58.1427 322.987C62.3505 307.839 56.2355 295.637 60.2493 282.593C63.6168 271.651 70.0681 267.755 76.3179 269.694C85.9143 271.653 91.4076 282.658 82.5514 291.851Z" fill="url(#paint7_linear_3223_3454)"/>
<g filter="url(#filter1_i_3223_3454)">
<path d="M75.3997 331.827C88.444 338.839 88.864 346.929 84.6563 352.445C81.9785 355.955 73.7167 353.291 65.7241 337.302C61.9347 330.755 56.1124 331.18 58.7902 327.67C61.4681 324.159 61.7375 324.483 75.3997 331.827Z" fill="url(#paint8_linear_3223_3454)"/>
</g>
<g filter="url(#filter2_i_3223_3454)">
<path d="M58.9903 352.445C54.8667 373.063 54.3607 380.216 50.9944 380.216C48.9029 380.216 44.5017 365.489 47.2083 359.177C52.2576 347.395 53.1118 332.668 55.2033 332.668C58.5694 333.089 61.0942 341.925 58.9903 352.445Z" fill="url(#paint9_linear_3223_3454)"/>
</g>
<g filter="url(#filter3_d_3223_3454)">
<ellipse cx="57.4683" cy="324.837" rx="6.7325" ry="9.67797" transform="rotate(-1.18466 57.4683 324.837)" fill="url(#paint10_linear_3223_3454)"/>
</g>
<g filter="url(#filter4_di_3223_3454)">
<path d="M56.6257 324.855C56.717 329.269 55.5289 332.874 51.7427 332.952C48.9546 333.01 45.779 329.496 45.6878 325.081C45.5965 320.667 48.624 317.024 51.4121 316.966C56.4604 316.862 56.5344 320.44 56.6257 324.855Z" fill="url(#paint11_linear_3223_3454)"/>
</g>
<path d="M30.4064 257.358C30.4064 257.358 31.25 243.051 48.9217 237.16C66.5934 231.269 86.3497 230.929 110.356 232.532C148.738 235.095 189.045 253.15 204.611 261.145C220.177 269.139 233.642 277.555 236.167 282.184C238.691 286.812 238.978 288.959 239.115 292.703C239.231 295.862 237.853 300.698 237.853 300.698C237.853 300.698 188.169 281.36 157.452 276.311C126.735 271.261 65.753 279.659 65.753 279.659C65.753 279.659 53.5503 262.828 51.8672 259.883C50.184 256.937 49.7578 263.249 39.241 261.565C28.7242 259.882 30.4064 257.358 30.4064 257.358Z" fill="url(#paint12_linear_3223_3454)"/>
<path d="M65.3281 281.374C65.3281 278.849 71.2182 276.324 74.1645 275.904C77.1108 275.484 130.168 270.602 165.053 277.166C192.988 282.423 232.798 298.17 236.165 299.853C239.532 301.537 238.271 311.662 237.007 318.788C235.696 326.182 231.957 335.619 229.012 336.882C227.612 337.482 153.693 331.447 153.693 331.447C153.693 331.447 72.9642 324.935 71.6398 324.715C69.1152 324.294 68.6438 312.741 67.432 304.938C66.0142 295.809 65.3281 283.899 65.3281 281.374Z" fill="url(#paint13_linear_3223_3454)"/>
<path d="M71.9425 324.26C75.8477 324.681 225.106 336.463 228.052 336.463C230.998 336.463 227.743 348.947 224.265 355.819C220.278 363.698 212.062 371.809 208.276 371.809C204.489 371.809 69.8388 368.022 67.3139 368.442C64.789 368.863 65.2453 356.921 65.6308 349.507C66.1584 339.358 68.0373 323.84 71.9425 324.26Z" fill="url(#paint14_linear_3223_3454)"/>
<path d="M66.1713 368.021L208.395 371.809C208.395 371.809 198.837 387.62 189.881 394.951C181.915 401.472 176.276 403.7 166.738 407.575C143.318 417.09 127.469 418.9 102.358 415.991C84.219 413.889 61.5421 406.777 57.3349 401.684C54.2568 397.958 53.1264 396.214 51.4433 393.268C49.7602 390.323 54.035 383.323 57.3349 378.541C60.3822 374.125 66.1713 368.021 66.1713 368.021Z" fill="url(#paint15_linear_3223_3454)"/>
<g filter="url(#filter5_i_3223_3454)">
<path d="M130.599 386.956C129.898 382.748 133.964 381.906 141.96 379.803C149.957 377.699 171.838 374.754 178.148 377.699C184.457 380.644 206.338 413.044 208.023 415.569C209.708 418.095 208.863 421.88 205.078 423.143C201.292 424.406 174.854 419.423 158.371 410.099C146.083 403.148 131.301 391.164 130.599 386.956Z" fill="url(#paint16_linear_3223_3454)"/>
</g>
<g filter="url(#filter6_d_3223_3454)">
<path d="M90.1118 124.247C95.2282 124.247 214.202 124.247 214.202 124.247V188.851C214.202 188.851 173.286 191.172 147.04 191.409C121.307 191.642 88.1929 190.13 81.1569 190.13C74.1208 190.13 75.382 170.693 76.6794 158.148C78.1444 143.983 84.9955 124.247 90.1118 124.247Z" fill="url(#paint17_linear_3223_3454)"/>
<path d="M125.931 69.8779C129.129 69.8779 221.877 74.3554 221.877 74.3554V134.482C221.877 134.482 168.849 139.998 134.886 138.319C118.848 137.527 99.0658 135.761 93.9486 134.482C88.8314 133.202 88.8316 112.094 97.1468 94.1842C105.462 76.2743 122.732 69.8779 125.931 69.8779Z" fill="url(#paint18_linear_3223_3454)"/>
<path d="M79.2375 190.13C82.4352 190.13 234.67 190.13 234.67 190.13V240.022C234.67 240.022 193.333 239.174 166.868 240.022C139.848 240.887 113.777 241.941 102.264 244.499C90.751 247.058 88.1924 261.77 88.1924 261.77C88.1924 261.77 81.7708 251.662 79.2375 244.499C75.4561 233.808 75.2144 227.054 75.3997 215.715C75.5647 205.613 76.0398 190.13 79.2375 190.13Z" fill="url(#paint19_linear_3223_3454)"/>
<path d="M88.8332 262.409C89.8857 255.334 91.3917 251.535 97.1471 246.417C102.903 241.299 178.381 239.381 178.381 239.381L259.617 235.544L283.923 323.814C283.923 323.814 216.121 342.364 173.266 331.49C130.41 320.616 121.668 313.58 113.139 307.184C104.611 300.787 101.651 296.675 96.5088 288.634C90.7599 279.644 87.263 272.964 88.8332 262.409Z" fill="url(#paint20_linear_3223_3454)"/>
<g filter="url(#filter7_i_3223_3454)">
<path d="M357.436 3.38882C367.031 0.829835 383.419 -3.39804 394.535 5.94737C399.626 10.2276 404.13 14.9023 404.13 20.0194C404.13 25.1366 384.941 88.4529 384.941 88.4529C384.941 88.4529 352.012 73.2495 329.292 64.7862C301.105 54.2865 254.454 46.2448 254.454 46.2448C254.454 46.2448 284.675 32.6281 304.986 23.8573C325.172 15.1403 347.841 5.9478 357.436 3.38882Z" fill="url(#paint21_linear_3223_3454)"/>
</g>
<path d="M203.922 190.757C203.922 199.236 184.094 203.55 167.463 202.911C158.278 202.911 152.111 194.758 152.111 186.28C152.111 177.802 155.08 167.091 164.265 167.091C185.373 167.73 203.922 175.406 203.922 190.757Z" fill="url(#paint22_linear_3223_3454)"/>
<path d="M155.949 153.657C158.507 166.45 172.809 181.801 163.624 181.801C148.273 181.801 126.525 173.63 126.525 161.972C126.525 150.315 131.643 140.864 141.877 140.864C152.751 140.864 154.001 143.92 155.949 153.657Z" fill="url(#paint23_linear_3223_3454)"/>
<path d="M199.446 135.109C179.018 156.314 171.843 185.387 162.342 182.439C168.739 159.412 159.443 140.865 165.545 121.035C170.664 104.403 180.47 98.4794 189.971 101.427C204.558 104.405 212.909 121.134 199.446 135.109Z" fill="url(#paint24_linear_3223_3454)"/>
<g filter="url(#filter8_i_3223_3454)">
<path d="M188.572 195.876C208.401 206.535 209.039 218.832 202.643 227.218C198.573 232.554 186.014 228.504 173.864 204.199C168.104 194.247 159.253 194.893 163.324 189.556C167.394 184.22 167.804 184.712 188.572 195.876Z" fill="url(#paint25_linear_3223_3454)"/>
</g>
<g filter="url(#filter9_i_3223_3454)">
<path d="M163.626 227.215C157.358 258.558 156.589 269.432 151.472 269.432C148.292 269.432 141.602 247.044 145.716 237.45C153.392 219.54 154.69 197.152 157.87 197.152C162.987 197.792 166.825 211.224 163.626 227.215Z" fill="url(#paint26_linear_3223_3454)"/>
</g>
<g filter="url(#filter10_d_3223_3454)">
<ellipse cx="161.316" cy="185.246" rx="10.2342" ry="14.7117" transform="rotate(-1.18466 161.316 185.246)" fill="url(#paint27_linear_3223_3454)"/>
</g>
<g filter="url(#filter11_di_3223_3454)">
<path d="M160.036 185.276C160.174 191.987 158.368 197.467 152.613 197.586C148.375 197.673 143.547 192.331 143.408 185.62C143.27 178.91 147.872 173.372 152.11 173.285C159.784 173.126 159.897 178.566 160.036 185.276Z" fill="url(#paint28_linear_3223_3454)"/>
</g>
<path d="M120.177 82.6702C120.177 82.6702 121.459 60.9232 148.322 51.9678C175.185 43.0125 205.217 42.495 241.709 44.9318C300.055 48.8279 361.326 76.2745 384.989 88.4273C408.651 100.58 429.12 113.373 432.958 120.409C436.795 127.445 437.231 130.708 437.439 136.4C437.615 141.202 435.52 148.553 435.52 148.553C435.52 148.553 359.995 119.157 313.301 111.481C266.608 103.806 173.908 116.571 173.908 116.571C173.908 116.571 155.358 90.9859 152.8 86.5084C150.241 82.0309 149.593 91.6251 133.606 89.0666C117.619 86.508 120.177 82.6702 120.177 82.6702Z" fill="url(#paint29_linear_3223_3454)"/>
<path d="M173.265 119.183C173.265 115.345 182.218 111.506 186.697 110.867C191.176 110.228 271.829 102.807 324.859 112.786C367.323 120.777 427.84 144.714 432.958 147.273C438.077 149.832 436.159 165.223 434.238 176.057C432.244 187.296 426.561 201.642 422.084 203.561C419.956 204.474 307.59 195.3 307.59 195.3C307.59 195.3 184.872 185.401 182.859 185.066C179.021 184.426 178.305 166.863 176.463 155.002C174.308 141.125 173.265 123.02 173.265 119.183Z" fill="url(#paint30_linear_3223_3454)"/>
<path d="M183.319 184.373C189.256 185.013 416.147 202.923 420.626 202.923C425.104 202.923 420.156 221.899 414.869 232.346C408.807 244.324 396.318 256.652 390.563 256.652C384.807 256.652 180.121 250.896 176.283 251.535C172.445 252.175 173.139 234.021 173.725 222.751C174.527 207.323 177.383 183.733 183.319 184.373Z" fill="url(#paint31_linear_3223_3454)"/>
<path d="M174.545 250.898L390.743 256.655C390.743 256.655 376.214 280.691 362.599 291.835C350.489 301.748 341.918 305.134 327.419 311.025C291.818 325.488 267.726 328.241 229.554 323.817C201.98 320.622 167.508 309.811 161.113 302.07C156.434 296.406 154.716 293.754 152.157 289.277C149.598 284.799 156.097 274.158 161.113 266.889C165.745 260.177 174.545 250.898 174.545 250.898Z" fill="url(#paint32_linear_3223_3454)"/>
<g filter="url(#filter12_i_3223_3454)">
<path d="M272.483 279.677C271.416 273.28 277.597 272.001 289.753 268.803C301.909 265.605 335.17 261.128 344.762 265.605C354.354 270.081 387.615 319.333 390.176 323.172C392.738 327.011 391.453 332.766 385.699 334.686C379.945 336.606 339.756 329.031 314.699 314.857C296.02 304.291 273.549 286.073 272.483 279.677Z" fill="url(#paint33_linear_3223_3454)"/>
</g>
</g>
<g filter="url(#filter13_d_3223_3454)">
<path d="M226.737 138.119L226.133 137.489L226.133 137.489L226.737 138.119ZM224.703 140.383L225.444 140.86L224.703 140.383ZM229.435 136.5L230.083 136.158L229.435 136.5ZM229.393 136.691L228.969 135.964L229.393 136.691ZM216.242 127.436L217.048 127.423L216.242 127.436ZM216.409 127.306L216.276 128.021C220.413 129.432 223.168 131.158 225.06 132.747C226.957 134.34 228.023 135.822 228.787 136.841L229.435 136.5L230.083 136.158C229.323 135.146 228.13 133.482 226.022 131.712C223.909 129.938 220.913 128.082 216.542 126.591L216.409 127.306ZM229.393 136.691L228.969 135.964C227.945 136.32 226.988 136.827 226.133 137.489L226.737 138.119L227.341 138.749C228.09 138.169 228.925 137.727 229.818 137.417L229.393 136.691ZM226.737 138.119L226.133 137.489C225.237 138.183 224.513 139.001 223.961 139.907L224.703 140.383L225.444 140.86C225.927 140.07 226.558 139.355 227.341 138.749L226.737 138.119ZM224.485 140.394L224.956 139.868C223.951 139.042 222.47 137.883 220.986 135.96C219.505 134.042 217.998 131.331 217.048 127.423L216.242 127.436L215.435 127.449C216.439 131.578 218.054 134.525 219.707 136.666C221.357 138.803 223.021 140.104 224.014 140.919L224.485 140.394ZM224.703 140.383L223.961 139.907C224.137 139.618 224.602 139.577 224.956 139.868L224.485 140.394L224.014 140.919C224.518 141.333 225.187 141.28 225.444 140.86L224.703 140.383ZM229.435 136.5L228.787 136.841C228.521 136.486 228.631 136.082 228.969 135.964L229.393 136.691L229.818 137.417C230.31 137.246 230.462 136.663 230.083 136.158L229.435 136.5ZM216.409 127.306L216.542 126.591C215.859 126.358 215.279 126.807 215.435 127.449L216.242 127.436L217.048 127.423C217.157 127.872 216.755 128.184 216.276 128.021L216.409 127.306Z" fill="url(#paint34_linear_3223_3454)" fill-opacity="0.69" style="mix-blend-mode:darken"/>
<path d="M223.655 143.412L222.848 143.169L222.848 143.169L223.655 143.412ZM223.716 146.64L222.914 146.631L223.716 146.64ZM223.573 146.777L223.57 146.013L223.573 146.777ZM224.462 140.43L224.682 139.734L224.462 140.43ZM224.554 140.636L225.296 141.079L224.554 140.636ZM209.469 139.112L209.811 139.864L209.469 139.112ZM209.469 139.112L209.811 139.864C213.607 138.873 216.647 138.952 218.999 139.384C221.356 139.817 223.058 140.609 224.242 141.127L224.462 140.43L224.682 139.734C223.512 139.223 221.617 138.338 219.016 137.861C216.41 137.382 213.131 137.315 209.126 138.36L209.469 139.112ZM224.554 140.636L223.813 140.192C223.34 141.087 223.009 142.084 222.848 143.169L223.655 143.412L224.461 143.654C224.601 142.715 224.888 141.853 225.296 141.079L224.554 140.636ZM223.655 143.412L222.848 143.169C222.677 144.315 222.708 145.48 222.914 146.631L223.716 146.64L224.518 146.649C224.34 145.654 224.314 144.647 224.461 143.654L223.655 143.412ZM223.573 146.777L223.57 146.013C222.346 145.805 220.565 145.559 218.277 144.599C215.994 143.642 213.174 141.959 209.963 138.844L209.436 139.333L208.909 139.823C212.297 143.111 215.334 144.943 217.864 146.004C220.388 147.062 222.375 147.336 223.576 147.541L223.573 146.777ZM223.716 146.64L222.914 146.631C222.846 146.254 223.14 145.94 223.57 146.013L223.573 146.777L223.576 147.541C224.188 147.645 224.617 147.2 224.518 146.649L223.716 146.64ZM224.462 140.43L224.242 141.127C223.832 140.947 223.652 140.498 223.813 140.192L224.554 140.636L225.296 141.079C225.532 140.633 225.266 139.989 224.682 139.734L224.462 140.43ZM209.469 139.112L209.126 138.36C208.492 138.526 208.376 139.307 208.909 139.823L209.436 139.333L209.963 138.844C210.336 139.205 210.256 139.748 209.811 139.864L209.469 139.112Z" fill="url(#paint35_linear_3223_3454)" fill-opacity="0.69" style="mix-blend-mode:darken"/>
<path d="M224.834 149.981L224.119 150.203L224.119 150.204L224.834 149.981ZM226.967 152.937L226.406 153.373L226.967 152.937ZM226.957 153.143L226.46 152.437L226.957 153.143ZM223.458 146.766L223.159 145.999L223.458 146.766ZM223.655 146.906L224.455 146.906L223.655 146.906ZM212.363 154.083L212.316 154.829L212.363 154.083ZM212.242 153.859L212.966 154.366C214.947 151.344 217.099 149.731 219.004 148.827C220.914 147.921 222.603 147.711 223.757 147.534L223.458 146.766L223.159 145.999C222.019 146.174 220.136 146.406 218.029 147.405C215.918 148.407 213.609 150.163 211.518 153.352L212.242 153.859ZM223.655 146.906L222.855 146.905C223.109 147.999 223.527 149.108 224.119 150.203L224.834 149.981L225.549 149.759C225.036 148.809 224.674 147.851 224.455 146.906L223.655 146.906ZM224.834 149.981L224.119 150.204C224.743 151.359 225.519 152.421 226.406 153.373L226.967 152.937L227.527 152.501C226.76 151.678 226.09 150.76 225.549 149.759L224.834 149.981ZM226.957 153.143L226.46 152.437C225.479 152.923 224.088 153.682 221.884 154.061C219.687 154.44 216.648 154.443 212.41 153.336L212.363 154.083L212.316 154.829C216.788 155.997 220.073 156.012 222.509 155.592C224.94 155.174 226.491 154.326 227.454 153.849L226.957 153.143ZM226.967 152.937L226.406 153.373C226.115 153.061 226.115 152.608 226.46 152.437L226.957 153.143L227.454 153.849C227.944 153.607 227.952 152.957 227.527 152.501L226.967 152.937ZM223.458 146.766L223.757 147.534C223.357 147.595 222.941 147.278 222.855 146.905L223.655 146.906L224.455 146.906C224.329 146.362 223.728 145.911 223.159 145.999L223.458 146.766ZM212.242 153.859L211.518 153.352C211.187 153.857 211.614 154.646 212.316 154.829L212.363 154.083L212.41 153.336C212.902 153.465 213.198 154.012 212.966 154.366L212.242 153.859Z" fill="url(#paint36_linear_3223_3454)" fill-opacity="0.69" style="mix-blend-mode:darken"/>
<path d="M229.938 155.397L229.58 156.014L229.58 156.014L229.938 155.397ZM233.336 156.957L233.465 156.235L233.336 156.957ZM233.456 157.151L232.67 156.79L233.456 157.151ZM226.906 153.182L227.589 153.722L226.906 153.182ZM227.127 153.197L226.579 153.664L227.127 153.197ZM223.75 165.985L224.566 166.02L223.75 165.985ZM223.97 166.12L223.554 165.398L223.97 166.12ZM223.75 165.985L224.566 166.02C223.975 162.119 224.417 159.434 225.146 157.546C225.877 155.653 226.905 154.527 227.589 153.722L226.906 153.182L226.224 152.642C225.55 153.436 224.393 154.699 223.581 156.803C222.768 158.91 222.31 161.828 222.934 165.95L223.75 165.985ZM227.127 153.197L226.579 153.664C227.46 154.535 228.464 155.328 229.58 156.014L229.938 155.397L230.297 154.78C229.32 154.181 228.444 153.488 227.676 152.729L227.127 153.197ZM229.938 155.397L229.58 156.014C230.758 156.737 231.98 157.29 233.208 157.679L233.336 156.957L233.465 156.235C232.393 155.895 231.326 155.413 230.297 154.78L229.938 155.397ZM233.456 157.151L232.67 156.79C232.306 157.785 231.839 159.255 230.566 160.823C229.297 162.388 227.202 164.074 223.554 165.398L223.97 166.12L224.387 166.842C228.242 165.443 230.53 163.631 231.948 161.884C233.362 160.141 233.886 158.487 234.242 157.513L233.456 157.151ZM233.336 156.957L233.208 157.679C232.816 157.555 232.541 157.141 232.67 156.79L233.456 157.151L234.242 157.513C234.425 157.012 234.036 156.416 233.465 156.235L233.336 156.957ZM226.906 153.182L227.589 153.722C227.35 154.003 226.871 153.953 226.579 153.664L227.127 153.197L227.676 152.729C227.249 152.307 226.563 152.242 226.224 152.642L226.906 153.182ZM223.75 165.985L222.934 165.95C223.031 166.591 223.792 167.058 224.387 166.842L223.97 166.12L223.554 165.398C223.97 165.247 224.498 165.571 224.566 166.02L223.75 165.985Z" fill="url(#paint37_linear_3223_3454)" fill-opacity="0.69" style="mix-blend-mode:darken"/>
<path d="M233.032 136.152L232.878 135.37L232.878 135.37L233.032 136.152ZM229.676 136.59L229.304 135.836L229.676 136.59ZM229.471 136.475L230.236 136.368L229.471 136.475ZM236.586 136.529L235.774 136.402L236.586 136.529ZM236.427 136.64L236.493 135.89L236.427 136.64ZM230.467 122.95L229.9 123.385L230.467 122.95ZM230.467 122.95L229.9 123.385C232.819 126.653 234.252 129.371 234.974 131.514C235.699 133.662 235.726 135.273 235.774 136.402L236.586 136.529L237.397 136.657C237.349 135.536 237.32 133.72 236.511 131.321C235.701 128.918 234.123 125.97 231.035 122.514L230.467 122.95ZM236.427 136.64L236.493 135.89C235.314 135.567 234.099 135.387 232.878 135.37L233.032 136.152L233.186 136.934C234.262 136.949 235.328 137.108 236.361 137.39L236.427 136.64ZM233.032 136.152L232.878 135.37C231.6 135.353 230.401 135.517 229.304 135.836L229.676 136.59L230.048 137.343C231.01 137.064 232.062 136.919 233.186 136.934L233.032 136.152ZM229.471 136.475L230.236 136.368C229.839 135.239 229.22 133.621 229.092 131.474C228.964 129.333 229.324 126.626 230.976 123.4L230.233 122.946L229.49 122.493C227.742 125.905 227.327 128.841 227.471 131.243C227.614 133.64 228.314 135.467 228.707 136.582L229.471 136.475ZM229.676 136.59L229.304 135.836C229.648 135.736 230.095 135.968 230.236 136.368L229.471 136.475L228.707 136.582C228.907 137.15 229.547 137.489 230.048 137.343L229.676 136.59ZM236.586 136.529L235.774 136.402C235.758 136.006 236.111 135.785 236.493 135.89L236.427 136.64L236.361 137.39C236.918 137.542 237.421 137.22 237.397 136.657L236.586 136.529ZM230.467 122.95L231.035 122.514C230.558 121.98 229.758 121.969 229.49 122.493L230.233 122.946L230.976 123.4C230.789 123.767 230.234 123.76 229.9 123.385L230.467 122.95Z" fill="url(#paint38_linear_3223_3454)" fill-opacity="0.69" style="mix-blend-mode:darken"/>
<path d="M240.138 138.298L240.496 137.682L240.496 137.682L240.138 138.298ZM236.749 136.742L236.62 137.464L236.749 136.742ZM236.63 136.548L237.416 136.909L236.63 136.548ZM243.186 140.531L242.504 139.99L243.186 140.531ZM242.965 140.516L242.415 140.982L242.965 140.516ZM246.319 127.756L245.503 127.721L246.319 127.756ZM246.099 127.621L246.516 128.343L246.099 127.621ZM246.319 127.756L245.503 127.721C246.091 131.6 245.657 134.276 244.935 136.162C244.212 138.052 243.19 139.183 242.504 139.99L243.186 140.531L243.868 141.071C244.55 140.27 245.698 139.003 246.502 136.902C247.307 134.797 247.756 131.89 247.135 127.791L246.319 127.756ZM242.965 140.516L243.514 140.049C242.629 139.172 241.62 138.372 240.496 137.682L240.138 138.298L239.779 138.915C240.762 139.518 241.643 140.217 242.415 140.982L242.965 140.516ZM240.138 138.298L240.496 137.682C239.321 136.96 238.102 136.409 236.878 136.02L236.749 136.742L236.62 137.464C237.689 137.804 238.753 138.284 239.779 138.915L240.138 138.298ZM236.63 136.548L237.416 136.909C237.78 135.909 238.256 134.444 239.53 132.885C240.802 131.33 242.893 129.657 246.516 128.343L246.099 127.621L245.683 126.899C241.854 128.288 239.571 130.085 238.152 131.821C236.735 133.554 236.202 135.2 235.843 136.188L236.63 136.548ZM236.749 136.742L236.878 136.02C237.269 136.144 237.544 136.557 237.416 136.909L236.63 136.548L235.843 136.188C235.661 136.689 236.051 137.284 236.62 137.464L236.749 136.742ZM243.186 140.531L242.504 139.99C242.743 139.709 243.223 139.76 243.514 140.049L242.965 140.516L242.415 140.982C242.841 141.404 243.528 141.471 243.868 141.071L243.186 140.531ZM246.319 127.756L247.135 127.791C247.038 127.15 246.277 126.683 245.683 126.899L246.099 127.621L246.516 128.343C246.099 128.494 245.571 128.17 245.503 127.721L246.319 127.756Z" fill="url(#paint39_linear_3223_3454)" fill-opacity="0.69" style="mix-blend-mode:darken"/>
<path d="M245.213 143.588L245.928 143.366L245.928 143.366L245.213 143.588ZM246.428 146.83L247.23 146.843L246.428 146.83ZM243.22 140.567L243.716 141.273L243.22 140.567ZM243.208 140.771L243.778 140.345L243.208 140.771ZM257.892 139.874L257.168 139.367L257.892 139.874ZM257.771 139.65L257.724 140.397C253.517 139.298 250.492 139.294 248.298 139.664C246.1 140.035 244.703 140.785 243.716 141.273L243.22 140.567L242.723 139.861C243.697 139.379 245.253 138.542 247.678 138.132C250.108 137.722 253.379 137.744 257.818 138.904L257.771 139.65ZM243.208 140.771L243.778 140.345C244.608 141.258 245.336 142.27 245.928 143.366L245.213 143.588L244.498 143.81C243.986 142.862 243.356 141.987 242.638 141.197L243.208 140.771ZM245.213 143.588L245.928 143.366C246.553 144.522 246.982 145.692 247.23 146.843L246.428 146.83L245.625 146.818C245.41 145.822 245.038 144.811 244.498 143.81L245.213 143.588ZM246.625 146.972L246.326 146.204C247.474 146.028 249.167 145.829 251.088 144.926C253.004 144.026 255.172 142.411 257.168 139.367L257.892 139.874L258.616 140.381C256.51 143.593 254.182 145.352 252.059 146.35C249.94 147.345 248.051 147.567 246.924 147.74L246.625 146.972ZM246.428 146.83L247.23 146.843C247.149 146.465 246.729 146.142 246.326 146.204L246.625 146.972L246.924 147.74C246.35 147.828 245.744 147.369 245.625 146.818L246.428 146.83ZM243.22 140.567L243.716 141.273C244.058 141.104 244.061 140.657 243.778 140.345L243.208 140.771L242.638 141.197C242.225 140.742 242.237 140.101 242.723 139.861L243.22 140.567ZM257.771 139.65L257.818 138.904C258.521 139.087 258.947 139.876 258.616 140.381L257.892 139.874L257.168 139.367C256.936 139.72 257.232 140.268 257.724 140.397L257.771 139.65Z" fill="url(#paint40_linear_3223_3454)" fill-opacity="0.69" style="mix-blend-mode:darken"/>
<path d="M246.531 150.213L247.338 150.456L247.338 150.456L246.531 150.213ZM245.555 153.13L246.291 153.584L245.555 153.13ZM245.646 153.337L245.867 152.641L245.646 153.337ZM246.643 147.022L246.646 147.785L246.643 147.022ZM246.5 147.156L245.696 147.134L246.5 147.156ZM260.691 154.68L261.033 155.432L260.691 154.68ZM260.724 154.458L260.196 154.948C257.009 151.856 254.208 150.175 251.935 149.215C249.657 148.252 247.876 147.995 246.646 147.785L246.643 147.022L246.64 146.258C247.856 146.465 249.84 146.75 252.354 147.812C254.872 148.877 257.888 150.706 261.251 153.968L260.724 154.458ZM246.5 147.156L247.305 147.178C247.481 148.269 247.499 149.372 247.338 150.456L246.531 150.213L245.724 149.971C245.864 149.031 245.848 148.077 245.696 147.134L246.5 147.156ZM246.531 150.213L247.338 150.456C247.167 151.602 246.807 152.65 246.291 153.584L245.555 153.13L244.819 152.676C245.265 151.868 245.576 150.963 245.724 149.97L246.531 150.213ZM245.646 153.337L245.867 152.641C247.045 153.156 248.744 153.957 251.109 154.399C253.468 154.839 256.525 154.925 260.348 153.928L260.691 154.68L261.033 155.432C256.999 156.484 253.701 156.409 251.086 155.921C248.477 155.434 246.582 154.539 245.426 154.033L245.646 153.337ZM245.555 153.13L246.291 153.584C246.46 153.278 246.28 152.822 245.867 152.641L245.646 153.337L245.426 154.033C244.837 153.776 244.572 153.122 244.819 152.676L245.555 153.13ZM246.643 147.022L246.646 147.785C247.072 147.858 247.365 147.55 247.305 147.178L246.5 147.156L245.696 147.134C245.608 146.591 246.034 146.155 246.64 146.258L246.643 147.022ZM260.724 154.458L261.251 153.968C261.784 154.485 261.667 155.266 261.033 155.432L260.691 154.68L260.348 153.928C259.904 154.044 259.823 154.586 260.196 154.948L260.724 154.458Z" fill="url(#paint41_linear_3223_3454)" fill-opacity="0.69" style="mix-blend-mode:darken"/>
<path d="M243.455 155.522L244.059 156.152L244.059 156.152L243.455 155.522ZM240.655 156.998L241.07 157.728L240.655 156.998ZM245.627 153.377L246.099 152.853L245.627 153.377ZM245.41 153.386L246.146 153.871L245.41 153.386ZM253.863 166.333L254.669 166.32L253.863 166.333ZM253.863 166.333L253.056 166.346C252.107 162.441 250.602 159.731 249.122 157.813C247.639 155.89 246.16 154.73 245.154 153.902L245.627 153.377L246.099 152.853C247.091 153.67 248.754 154.972 250.401 157.108C252.053 159.249 253.667 162.194 254.669 166.32L253.863 166.333ZM245.41 153.386L246.146 153.871C245.605 154.722 244.91 155.493 244.059 156.152L243.455 155.522L242.85 154.892C243.594 154.316 244.201 153.643 244.674 152.901L245.41 153.386ZM243.455 155.522L244.059 156.152C243.161 156.847 242.151 157.37 241.07 157.728L240.655 156.998L240.24 156.269C241.183 155.957 242.065 155.5 242.85 154.892L243.455 155.522ZM240.611 157.19L241.259 156.848C242.018 157.859 243.069 159.349 244.97 160.96C246.865 162.567 249.638 164.319 253.828 165.748L253.695 166.463L253.562 167.178C249.134 165.667 246.117 163.783 244.001 161.989C241.89 160.199 240.708 158.522 239.964 157.533L240.611 157.19ZM240.655 156.998L241.07 157.728C241.414 157.614 241.527 157.205 241.259 156.848L240.611 157.19L239.964 157.533C239.582 157.024 239.737 156.435 240.24 156.269L240.655 156.998ZM245.627 153.377L245.154 153.902C245.505 154.191 245.967 154.154 246.146 153.871L245.41 153.386L244.674 152.901C244.936 152.489 245.6 152.442 246.099 152.853L245.627 153.377ZM253.863 166.333L254.669 166.32C254.825 166.962 254.245 167.411 253.562 167.178L253.695 166.463L253.828 165.748C253.35 165.585 252.947 165.896 253.056 166.346L253.863 166.333Z" fill="url(#paint42_linear_3223_3454)" fill-opacity="0.69" style="mix-blend-mode:darken"/>
<path d="M239.843 170.776L240.586 171.23L240.586 171.23L239.843 170.776ZM239.608 170.773L239.04 171.209L239.04 171.209L239.608 170.773ZM237.019 157.529L237.174 158.311L237.174 158.311L237.019 157.529ZM240.383 157.088L240.756 157.841L240.383 157.088ZM240.588 157.203L241.353 157.097L240.588 157.203ZM233.487 157.157L232.676 157.03L233.487 157.157ZM233.645 157.046L233.71 156.296L233.645 157.046ZM239.843 170.776L239.1 170.323C239.288 169.956 239.842 169.964 240.175 170.337L239.608 170.773L239.04 171.209C239.517 171.743 240.318 171.754 240.586 171.23L239.843 170.776ZM239.608 170.773L240.176 170.337C237.241 167.052 235.808 164.323 235.088 162.174C234.367 160.02 234.347 158.41 234.298 157.284L233.487 157.157L232.676 157.03C232.724 158.14 232.745 159.958 233.55 162.362C234.357 164.773 235.935 167.734 239.04 171.209L239.608 170.773ZM233.645 157.046L233.58 157.797C234.752 158.115 235.959 158.294 237.174 158.311L237.019 157.529L236.865 156.747C235.797 156.732 234.737 156.575 233.71 156.296L233.645 157.046ZM237.019 157.529L237.174 158.311C238.455 158.328 239.656 158.162 240.756 157.841L240.383 157.088L240.01 156.335C239.046 156.616 237.992 156.762 236.865 156.747L237.019 157.529ZM240.588 157.203L239.823 157.309C240.217 158.434 240.845 160.051 240.981 162.206C241.117 164.354 240.763 167.075 239.1 170.323L239.843 170.776L240.586 171.23C242.346 167.795 242.754 164.842 242.602 162.431C242.45 160.027 241.739 158.198 241.353 157.097L240.588 157.203ZM240.383 157.088L240.756 157.841C240.41 157.942 239.963 157.708 239.823 157.309L240.588 157.203L241.353 157.097C241.154 156.529 240.513 156.188 240.01 156.335L240.383 157.088ZM233.487 157.157L234.298 157.284C234.315 157.679 233.963 157.901 233.58 157.797L233.645 157.046L233.71 156.296C233.152 156.144 232.651 156.468 232.676 157.03L233.487 157.157Z" fill="url(#paint43_linear_3223_3454)" fill-opacity="0.69" style="mix-blend-mode:darken"/>
</g>
<path d="M306.548 157.051C305.435 158.315 304.115 159.357 302.588 160.165C301.001 161.001 299.233 161.574 297.284 161.948C295.464 162.32 293.717 162.416 291.871 162.224C291.871 162.224 287.975 161.838 283.907 161.439C279.742 161.033 275.62 160.63 275.62 160.63C275.227 160.582 274.829 160.492 274.481 160.322C274.127 160.172 273.839 159.975 273.579 159.749C273.326 159.503 273.144 159.23 272.999 158.918C272.877 158.618 272.843 158.273 272.846 157.95C272.846 157.95 272.901 156.612 272.955 154.598C272.979 152.592 272.94 149.916 272.674 147.224C272.116 144.511 271.481 141.783 270.954 139.739C270.384 137.691 269.977 136.331 269.977 136.331C269.904 136.004 269.884 135.68 269.926 135.402C269.987 135.115 270.129 134.865 270.29 134.668C270.503 134.464 270.77 134.327 271.088 134.245C271.403 134.142 271.779 134.158 272.2 134.188C272.2 134.188 276.278 134.577 280.456 134.994C284.513 135.392 288.421 135.79 288.421 135.79C290.288 135.983 292.079 136.431 294.116 137.156C297.372 138.326 302.176 140.448 304.774 143.072C306.15 144.541 307.277 146.887 307.993 148.508C308.483 152.041 308.696 154.499 306.548 157.051ZM300.622 145.256C299.795 144.418 298.838 143.707 297.798 143.072C296.736 142.436 295.595 141.909 294.343 141.489C293.102 141.069 291.812 140.812 290.637 140.678C290.637 140.678 287.351 140.365 283.988 140.036C280.537 139.691 277.025 139.362 277.025 139.362C277.025 139.362 277.384 140.417 277.895 142.024C278.383 143.618 278.91 145.735 279.333 147.866C279.56 149.973 279.58 152.055 279.529 153.622C279.401 155.174 279.299 156.217 279.299 156.217C279.299 156.217 282.812 156.546 286.263 156.891C289.626 157.22 292.904 157.553 292.904 157.553C294.043 157.664 295.311 157.649 296.454 157.448C297.63 157.249 298.697 156.908 299.625 156.494C300.541 156.007 301.335 155.428 301.964 154.744C302.611 154.04 302.588 153.639 302.588 150.58C302.142 147.929 302.788 147.498 300.622 145.256ZM317.893 149.314C323.763 149.838 326.928 149.926 332.814 150.58C331.883 146.714 331.389 143.865 329.017 139.981L334.551 140.597C340.171 150.58 340.171 158.918 336.672 166.938L331.389 166.351C332.304 162.224 332.814 159.381 332.814 155.678C327.065 155.047 324.137 154.748 318.388 154.124C317.648 157.888 317.954 161.456 316.5 164.855L309.902 164.068C313.297 155.097 312.612 147.736 306.75 137.623L313.441 138.344C315.942 141.975 316.292 145.36 317.893 149.314ZM357.795 151.599C360.854 148.541 362.893 145.991 365.783 143.072L373.09 143.865C369.011 149.314 366.736 152.378 363.913 155.678C367.482 160.776 372.58 166.384 376.149 171.482L366.462 170.463C364.742 167.2 360.344 161.796 357.795 158.737C353.717 162.798 351.168 164.568 347.223 168.144L340.008 167.297C345.05 162.815 348.619 160.165 352.793 155.019C350.658 150.58 347.599 147.521 340.171 140.678L347.277 141.508C351.677 144.462 354.227 148.031 357.795 151.599Z" fill="url(#paint44_linear_3223_3454)"/>
<defs>
<filter id="filter0_i_3223_3454" x="116.7" y="203.093" width="100.502" height="62.1459" filterUnits="userSpaceOnUse" color-interpolation-filters="sRGB">
<feFlood flood-opacity="0" result="BackgroundImageFix"/>
<feBlend mode="normal" in="SourceGraphic" in2="BackgroundImageFix" result="shape"/>
<feColorMatrix in="SourceAlpha" type="matrix" values="0 0 0 0 0 0 0 0 0 0 0 0 0 0 0 0 0 0 127 0" result="hardAlpha"/>
<feOffset dx="-2.03928" dy="4.07856"/>
<feGaussianBlur stdDeviation="2.95695"/>
<feComposite in2="hardAlpha" operator="arithmetic" k2="-1" k3="1"/>
<feColorMatrix type="matrix" values="0 0 0 0 0.976471 0 0 0 0 0.980392 0 0 0 0 0.968627 0 0 0 1 0"/>
<feBlend mode="normal" in2="shape" result="effect1_innerShadow_3223_3454"/>
</filter>
<filter id="filter1_i_3223_3454" x="57.0888" y="325.501" width="29.9425" height="30.3469" filterUnits="userSpaceOnUse" color-interpolation-filters="sRGB">
<feFlood flood-opacity="0" result="BackgroundImageFix"/>
<feBlend mode="normal" in="SourceGraphic" in2="BackgroundImageFix" result="shape"/>
<feColorMatrix in="SourceAlpha" type="matrix" values="0 0 0 0 0 0 0 0 0 0 0 0 0 0 0 0 0 0 127 0" result="hardAlpha"/>
<feOffset dx="-1.01964" dy="2.03928"/>
<feGaussianBlur stdDeviation="1.07062"/>
<feComposite in2="hardAlpha" operator="arithmetic" k2="-1" k3="1"/>
<feColorMatrix type="matrix" values="0 0 0 0 0.796078 0 0 0 0 0.701961 0 0 0 0 0.568627 0 0 0 1 0"/>
<feBlend mode="normal" in2="shape" result="effect1_innerShadow_3223_3454"/>
</filter>
<filter id="filter2_i_3223_3454" x="44.7221" y="332.668" width="15.0377" height="49.1793" filterUnits="userSpaceOnUse" color-interpolation-filters="sRGB">
<feFlood flood-opacity="0" result="BackgroundImageFix"/>
<feBlend mode="normal" in="SourceGraphic" in2="BackgroundImageFix" result="shape"/>
<feColorMatrix in="SourceAlpha" type="matrix" values="0 0 0 0 0 0 0 0 0 0 0 0 0 0 0 0 0 0 127 0" result="hardAlpha"/>
<feOffset dx="-4.07856" dy="8.15711"/>
<feGaussianBlur stdDeviation="0.815711"/>
<feComposite in2="hardAlpha" operator="arithmetic" k2="-1" k3="1"/>
<feColorMatrix type="matrix" values="0 0 0 0 0.835294 0 0 0 0 0.690196 0 0 0 0 0.529412 0 0 0 1 0"/>
<feBlend mode="normal" in2="shape" result="effect1_innerShadow_3223_3454"/>
</filter>
<filter id="filter3_d_3223_3454" x="44.9224" y="306.288" width="31.2095" height="37.0962" filterUnits="userSpaceOnUse" color-interpolation-filters="sRGB">
<feFlood flood-opacity="0" result="BackgroundImageFix"/>
<feColorMatrix in="SourceAlpha" type="matrix" values="0 0 0 0 0 0 0 0 0 0 0 0 0 0 0 0 0 0 127 0" result="hardAlpha"/>
<feOffset dx="3.05892"/>
<feGaussianBlur stdDeviation="4.43543"/>
<feComposite in2="hardAlpha" operator="out"/>
<feColorMatrix type="matrix" values="0 0 0 0 0 0 0 0 0 0 0 0 0 0 0 0 0 0 0.25 0"/>
<feBlend mode="normal" in2="BackgroundImageFix" result="effect1_dropShadow_3223_3454"/>
<feBlend mode="normal" in="SourceGraphic" in2="effect1_dropShadow_3223_3454" result="shape"/>
</filter>
<filter id="filter4_di_3223_3454" x="44.36" y="315.638" width="15.5337" height="18.5384" filterUnits="userSpaceOnUse" color-interpolation-filters="sRGB">
<feFlood flood-opacity="0" result="BackgroundImageFix"/>
<feColorMatrix in="SourceAlpha" type="matrix" values="0 0 0 0 0 0 0 0 0 0 0 0 0 0 0 0 0 0 127 0" result="hardAlpha"/>
<feOffset dx="2.03928"/>
<feGaussianBlur stdDeviation="0.611784"/>
<feComposite in2="hardAlpha" operator="out"/>
<feColorMatrix type="matrix" values="0 0 0 0 0 0 0 0 0 0 0 0 0 0 0 0 0 0 0.25 0"/>
<feBlend mode="normal" in2="BackgroundImageFix" result="effect1_dropShadow_3223_3454"/>
<feBlend mode="normal" in="SourceGraphic" in2="effect1_dropShadow_3223_3454" result="shape"/>
<feColorMatrix in="SourceAlpha" type="matrix" values="0 0 0 0 0 0 0 0 0 0 0 0 0 0 0 0 0 0 127 0" result="hardAlpha"/>
<feOffset dx="-2.03928" dy="-3.05892"/>
<feGaussianBlur stdDeviation="0.662766"/>
<feComposite in2="hardAlpha" operator="arithmetic" k2="-1" k3="1"/>
<feColorMatrix type="matrix" values="0 0 0 0 0.811765 0 0 0 0 0.694118 0 0 0 0 0.537255 0 0 0 1 0"/>
<feBlend mode="normal" in2="shape" result="effect2_innerShadow_3223_3454"/>
</filter>
<filter id="filter5_i_3223_3454" x="130.521" y="373.398" width="78.3291" height="49.9388" filterUnits="userSpaceOnUse" color-interpolation-filters="sRGB">
<feFlood flood-opacity="0" result="BackgroundImageFix"/>
<feBlend mode="normal" in="SourceGraphic" in2="BackgroundImageFix" result="shape"/>
<feColorMatrix in="SourceAlpha" type="matrix" values="0 0 0 0 0 0 0 0 0 0 0 0 0 0 0 0 0 0 127 0" result="hardAlpha"/>
<feOffset dy="-3.05892"/>
<feGaussianBlur stdDeviation="3.31383"/>
<feComposite in2="hardAlpha" operator="arithmetic" k2="-1" k3="1"/>
<feColorMatrix type="matrix" values="0 0 0 0 0.721569 0 0 0 0 0.74902 0 0 0 0 0.623529 0 0 0 0.69 0"/>
<feBlend mode="normal" in2="shape" result="effect1_innerShadow_3223_3454"/>
</filter>
<filter id="filter6_d_3223_3454" x="49.2527" y="0.0806503" width="414.299" height="387.002" filterUnits="userSpaceOnUse" color-interpolation-filters="sRGB">
<feFlood flood-opacity="0" result="BackgroundImageFix"/>
<feColorMatrix in="SourceAlpha" type="matrix" values="0 0 0 0 0 0 0 0 0 0 0 0 0 0 0 0 0 0 127 0" result="hardAlpha"/>
<feOffset dy="26.0008"/>
<feGaussianBlur stdDeviation="13.0514"/>
<feComposite in2="hardAlpha" operator="out"/>
<feColorMatrix type="matrix" values="0 0 0 0 0.151022 0 0 0 0 0.343736 0 0 0 0 0.481389 0 0 0 0.25 0"/>
<feBlend mode="normal" in2="BackgroundImageFix" result="effect1_dropShadow_3223_3454"/>
<feBlend mode="normal" in="SourceGraphic" in2="effect1_dropShadow_3223_3454" result="shape"/>
</filter>
<filter id="filter7_i_3223_3454" x="252.415" y="0.182617" width="151.715" height="92.3491" filterUnits="userSpaceOnUse" color-interpolation-filters="sRGB">
<feFlood flood-opacity="0" result="BackgroundImageFix"/>
<feBlend mode="normal" in="SourceGraphic" in2="BackgroundImageFix" result="shape"/>
<feColorMatrix in="SourceAlpha" type="matrix" values="0 0 0 0 0 0 0 0 0 0 0 0 0 0 0 0 0 0 127 0" result="hardAlpha"/>
<feOffset dx="-2.03928" dy="4.07856"/>
<feGaussianBlur stdDeviation="2.95695"/>
<feComposite in2="hardAlpha" operator="arithmetic" k2="-1" k3="1"/>
<feColorMatrix type="matrix" values="0 0 0 0 0.976471 0 0 0 0 0.980392 0 0 0 0 0.968627 0 0 0 1 0"/>
<feBlend mode="normal" in2="shape" result="effect1_innerShadow_3223_3454"/>
</filter>
<filter id="filter8_i_3223_3454" x="161.268" y="186.26" width="44.9845" height="45.0696" filterUnits="userSpaceOnUse" color-interpolation-filters="sRGB">
<feFlood flood-opacity="0" result="BackgroundImageFix"/>
<feBlend mode="normal" in="SourceGraphic" in2="BackgroundImageFix" result="shape"/>
<feColorMatrix in="SourceAlpha" type="matrix" values="0 0 0 0 0 0 0 0 0 0 0 0 0 0 0 0 0 0 127 0" result="hardAlpha"/>
<feOffset dx="-1.01964" dy="2.03928"/>
<feGaussianBlur stdDeviation="1.07062"/>
<feComposite in2="hardAlpha" operator="arithmetic" k2="-1" k3="1"/>
<feColorMatrix type="matrix" values="0 0 0 0 0.796078 0 0 0 0 0.701961 0 0 0 0 0.568627 0 0 0 1 0"/>
<feBlend mode="normal" in2="shape" result="effect1_innerShadow_3223_3454"/>
</filter>
<filter id="filter9_i_3223_3454" x="142.786" y="197.152" width="22.0103" height="73.9107" filterUnits="userSpaceOnUse" color-interpolation-filters="sRGB">
<feFlood flood-opacity="0" result="BackgroundImageFix"/>
<feBlend mode="normal" in="SourceGraphic" in2="BackgroundImageFix" result="shape"/>
<feColorMatrix in="SourceAlpha" type="matrix" values="0 0 0 0 0 0 0 0 0 0 0 0 0 0 0 0 0 0 127 0" result="hardAlpha"/>
<feOffset dx="-4.07856" dy="8.15711"/>
<feGaussianBlur stdDeviation="0.815711"/>
<feComposite in2="hardAlpha" operator="arithmetic" k2="-1" k3="1"/>
<feColorMatrix type="matrix" values="0 0 0 0 0.835294 0 0 0 0 0.690196 0 0 0 0 0.529412 0 0 0 1 0"/>
<feBlend mode="normal" in2="shape" result="effect1_innerShadow_3223_3454"/>
</filter>
<filter id="filter10_d_3223_3454" x="145.267" y="161.665" width="38.2144" height="47.1616" filterUnits="userSpaceOnUse" color-interpolation-filters="sRGB">
<feFlood flood-opacity="0" result="BackgroundImageFix"/>
<feColorMatrix in="SourceAlpha" type="matrix" values="0 0 0 0 0 0 0 0 0 0 0 0 0 0 0 0 0 0 127 0" result="hardAlpha"/>
<feOffset dx="3.05892"/>
<feGaussianBlur stdDeviation="4.43543"/>
<feComposite in2="hardAlpha" operator="out"/>
<feColorMatrix type="matrix" values="0 0 0 0 0 0 0 0 0 0 0 0 0 0 0 0 0 0 0.25 0"/>
<feBlend mode="normal" in2="BackgroundImageFix" result="effect1_dropShadow_3223_3454"/>
<feBlend mode="normal" in="SourceGraphic" in2="effect1_dropShadow_3223_3454" result="shape"/>
</filter>
<filter id="filter11_di_3223_3454" x="142.08" y="171.956" width="21.2261" height="26.8548" filterUnits="userSpaceOnUse" color-interpolation-filters="sRGB">
<feFlood flood-opacity="0" result="BackgroundImageFix"/>
<feColorMatrix in="SourceAlpha" type="matrix" values="0 0 0 0 0 0 0 0 0 0 0 0 0 0 0 0 0 0 127 0" result="hardAlpha"/>
<feOffset dx="2.03928"/>
<feGaussianBlur stdDeviation="0.611784"/>
<feComposite in2="hardAlpha" operator="out"/>
<feColorMatrix type="matrix" values="0 0 0 0 0 0 0 0 0 0 0 0 0 0 0 0 0 0 0.25 0"/>
<feBlend mode="normal" in2="BackgroundImageFix" result="effect1_dropShadow_3223_3454"/>
<feBlend mode="normal" in="SourceGraphic" in2="effect1_dropShadow_3223_3454" result="shape"/>
<feColorMatrix in="SourceAlpha" type="matrix" values="0 0 0 0 0 0 0 0 0 0 0 0 0 0 0 0 0 0 127 0" result="hardAlpha"/>
<feOffset dx="-2.03928" dy="-3.05892"/>
<feGaussianBlur stdDeviation="0.662766"/>
<feComposite in2="hardAlpha" operator="arithmetic" k2="-1" k3="1"/>
<feColorMatrix type="matrix" values="0 0 0 0 0.811765 0 0 0 0 0.694118 0 0 0 0 0.537255 0 0 0 1 0"/>
<feBlend mode="normal" in2="shape" result="effect2_innerShadow_3223_3454"/>
</filter>
<filter id="filter12_i_3223_3454" x="272.364" y="260.658" width="119.069" height="74.3216" filterUnits="userSpaceOnUse" color-interpolation-filters="sRGB">
<feFlood flood-opacity="0" result="BackgroundImageFix"/>
<feBlend mode="normal" in="SourceGraphic" in2="BackgroundImageFix" result="shape"/>
<feColorMatrix in="SourceAlpha" type="matrix" values="0 0 0 0 0 0 0 0 0 0 0 0 0 0 0 0 0 0 127 0" result="hardAlpha"/>
<feOffset dy="-3.05892"/>
<feGaussianBlur stdDeviation="3.31383"/>
<feComposite in2="hardAlpha" operator="arithmetic" k2="-1" k3="1"/>
<feColorMatrix type="matrix" values="0 0 0 0 0.721569 0 0 0 0 0.74902 0 0 0 0 0.623529 0 0 0 0.69 0"/>
<feBlend mode="normal" in2="shape" result="effect1_innerShadow_3223_3454"/>
</filter>
<filter id="filter13_d_3223_3454" x="205.92" y="121.495" width="56.2804" height="52.7726" filterUnits="userSpaceOnUse" color-interpolation-filters="sRGB">
<feFlood flood-opacity="0" result="BackgroundImageFix"/>
<feColorMatrix in="SourceAlpha" type="matrix" values="0 0 0 0 0 0 0 0 0 0 0 0 0 0 0 0 0 0 127 0" result="hardAlpha"/>
<feOffset dx="-1.01964" dy="1.01964"/>
<feGaussianBlur stdDeviation="0.815711"/>
<feComposite in2="hardAlpha" operator="out"/>
<feColorMatrix type="matrix" values="0 0 0 0 0.864806 0 0 0 0 0.864806 0 0 0 0 0.788118 0 0 0 1 0"/>
<feBlend mode="normal" in2="BackgroundImageFix" result="effect1_dropShadow_3223_3454"/>
<feBlend mode="normal" in="SourceGraphic" in2="effect1_dropShadow_3223_3454" result="shape"/>
</filter>
<linearGradient id="paint0_linear_3223_3454" x1="28.2723" y1="306.607" x2="83.3947" y2="310.394" gradientUnits="userSpaceOnUse">
<stop stop-color="#D9DAC9"/>
<stop offset="1" stop-color="#C0BDB5"/>
</linearGradient>
<linearGradient id="paint1_linear_3223_3454" x1="54.0745" y1="248.94" x2="77.0812" y2="307.447" gradientUnits="userSpaceOnUse">
<stop stop-color="#F3F0E8"/>
<stop offset="1" stop-color="#CAC7BD"/>
</linearGradient>
<linearGradient id="paint2_linear_3223_3454" x1="14.3849" y1="347.842" x2="97.6997" y2="374.772" gradientUnits="userSpaceOnUse">
<stop stop-color="#D7D8C4"/>
<stop offset="1" stop-color="#9A9C94"/>
</linearGradient>
<linearGradient id="paint3_linear_3223_3454" x1="33.3206" y1="412.643" x2="74.1364" y2="366.778" gradientUnits="userSpaceOnUse">
<stop stop-color="#E0E0CB"/>
<stop offset="1" stop-color="#AAB0A1"/>
</linearGradient>
<linearGradient id="paint4_linear_3223_3454" x1="192.376" y1="188.786" x2="178.49" y2="245.592" gradientUnits="userSpaceOnUse">
<stop stop-color="#BAB9AF"/>
<stop offset="1" stop-color="#EDE7D0"/>
</linearGradient>
<linearGradient id="paint5_linear_3223_3454" x1="66.1404" y1="317.548" x2="72.4522" y2="327.226" gradientUnits="userSpaceOnUse">
<stop stop-color="#B19672"/>
<stop offset="1" stop-color="#6B5B45"/>
</linearGradient>
<linearGradient id="paint6_linear_3223_3454" x1="46.3659" y1="291.037" x2="34.584" y2="327.224" gradientUnits="userSpaceOnUse">
<stop stop-color="#877155"/>
<stop offset="0.556502" stop-color="#D6B183"/>
</linearGradient>
<linearGradient id="paint7_linear_3223_3454" x1="77.9228" y1="262.422" x2="60.2499" y2="323.856" gradientUnits="userSpaceOnUse">
<stop stop-color="#8B7354"/>
<stop offset="0.826065" stop-color="#D4B083"/>
</linearGradient>
<linearGradient id="paint8_linear_3223_3454" x1="62.7755" y1="328.065" x2="85.9185" y2="351.208" gradientUnits="userSpaceOnUse">
<stop stop-color="#FFEBCD"/>
<stop offset="1" stop-color="#CEB48E"/>
</linearGradient>
<linearGradient id="paint9_linear_3223_3454" x1="53.0566" y1="332.668" x2="53.0566" y2="380.216" gradientUnits="userSpaceOnUse">
<stop stop-color="#FFECCC"/>
<stop offset="1" stop-color="#D5B288"/>
</linearGradient>
<linearGradient id="paint10_linear_3223_3454" x1="57.4683" y1="319.392" x2="66.3047" y2="326.125" gradientUnits="userSpaceOnUse">
<stop stop-color="#E2BB88"/>
<stop offset="1" stop-color="#6B5A42"/>
</linearGradient>
<linearGradient id="paint11_linear_3223_3454" x1="50.9915" y1="316.975" x2="56.4628" y2="335.64" gradientUnits="userSpaceOnUse">
<stop stop-color="#FCECCD"/>
<stop offset="1" stop-color="#C4B69D"/>
</linearGradient>
<linearGradient id="paint12_linear_3223_3454" x1="134.73" y1="242.228" x2="122.948" y2="294.825" gradientUnits="userSpaceOnUse">
<stop stop-color="#FCFBF9"/>
<stop offset="1" stop-color="#EEEADE"/>
</linearGradient>
<linearGradient id="paint13_linear_3223_3454" x1="151.827" y1="273.765" x2="151.56" y2="322.173" gradientUnits="userSpaceOnUse">
<stop stop-color="#FDF9F2"/>
<stop offset="1" stop-color="#E3E3CE"/>
</linearGradient>
<linearGradient id="paint14_linear_3223_3454" x1="151.98" y1="343.213" x2="147.352" y2="381.925" gradientUnits="userSpaceOnUse">
<stop stop-color="#F0F1EA"/>
<stop offset="1" stop-color="#D1CEB2"/>
</linearGradient>
<linearGradient id="paint15_linear_3223_3454" x1="120.844" y1="378.559" x2="116.636" y2="427.37" gradientUnits="userSpaceOnUse">
<stop stop-color="#E0E0CC"/>
<stop offset="1" stop-color="#BEC6B6"/>
</linearGradient>
<linearGradient id="paint16_linear_3223_3454" x1="170.075" y1="389.08" x2="181.857" y2="407.595" gradientUnits="userSpaceOnUse">
<stop stop-color="#CED4B9"/>
<stop offset="1" stop-color="#FBFBF5"/>
</linearGradient>
<linearGradient id="paint17_linear_3223_3454" x1="116.932" y1="157.536" x2="200.725" y2="163.293" gradientUnits="userSpaceOnUse">
<stop stop-color="#D9DAC9"/>
<stop offset="1" stop-color="#C0BDB5"/>
</linearGradient>
<linearGradient id="paint18_linear_3223_3454" x1="156.158" y1="69.8779" x2="191.13" y2="158.815" gradientUnits="userSpaceOnUse">
<stop stop-color="#F3F0E8"/>
<stop offset="1" stop-color="#CAC7BD"/>
</linearGradient>
<linearGradient id="paint19_linear_3223_3454" x1="95.8239" y1="220.22" x2="222.473" y2="261.157" gradientUnits="userSpaceOnUse">
<stop stop-color="#D7D8C4"/>
<stop offset="1" stop-color="#9A9C94"/>
</linearGradient>
<linearGradient id="paint20_linear_3223_3454" x1="124.608" y1="318.724" x2="186.653" y2="249.003" gradientUnits="userSpaceOnUse">
<stop stop-color="#E0E0CB"/>
<stop offset="1" stop-color="#AAB0A1"/>
</linearGradient>
<linearGradient id="paint21_linear_3223_3454" x1="366.391" y1="-21.5651" x2="345.283" y2="64.7862" gradientUnits="userSpaceOnUse">
<stop stop-color="#BAB9AF"/>
<stop offset="1" stop-color="#EDE7D0"/>
</linearGradient>
<linearGradient id="paint22_linear_3223_3454" x1="174.499" y1="174.166" x2="184.093" y2="188.878" gradientUnits="userSpaceOnUse">
<stop stop-color="#B19672"/>
<stop offset="1" stop-color="#6B5B45"/>
</linearGradient>
<linearGradient id="paint23_linear_3223_3454" x1="144.435" y1="133.868" x2="126.525" y2="188.877" gradientUnits="userSpaceOnUse">
<stop stop-color="#877155"/>
<stop offset="0.556502" stop-color="#D6B183"/>
</linearGradient>
<linearGradient id="paint24_linear_3223_3454" x1="192.41" y1="90.3731" x2="165.546" y2="183.761" gradientUnits="userSpaceOnUse">
<stop stop-color="#8B7354"/>
<stop offset="0.826065" stop-color="#D4B083"/>
</linearGradient>
<linearGradient id="paint25_linear_3223_3454" x1="169.382" y1="190.158" x2="204.562" y2="225.338" gradientUnits="userSpaceOnUse">
<stop stop-color="#FFEBCD"/>
<stop offset="1" stop-color="#CEB48E"/>
</linearGradient>
<linearGradient id="paint26_linear_3223_3454" x1="154.606" y1="197.152" x2="154.606" y2="269.432" gradientUnits="userSpaceOnUse">
<stop stop-color="#FFECCC"/>
<stop offset="1" stop-color="#D5B288"/>
</linearGradient>
<linearGradient id="paint27_linear_3223_3454" x1="161.316" y1="176.97" x2="174.748" y2="187.204" gradientUnits="userSpaceOnUse">
<stop stop-color="#E2BB88"/>
<stop offset="1" stop-color="#6B5A42"/>
</linearGradient>
<linearGradient id="paint28_linear_3223_3454" x1="151.471" y1="173.298" x2="159.788" y2="201.672" gradientUnits="userSpaceOnUse">
<stop stop-color="#FCECCD"/>
<stop offset="1" stop-color="#C4B69D"/>
</linearGradient>
<linearGradient id="paint29_linear_3223_3454" x1="278.761" y1="59.6707" x2="260.851" y2="139.626" gradientUnits="userSpaceOnUse">
<stop stop-color="#FCFBF9"/>
<stop offset="1" stop-color="#EEEADE"/>
</linearGradient>
<linearGradient id="paint30_linear_3223_3454" x1="304.754" y1="107.615" x2="304.347" y2="181.201" gradientUnits="userSpaceOnUse">
<stop stop-color="#FDF9F2"/>
<stop offset="1" stop-color="#E3E3CE"/>
</linearGradient>
<linearGradient id="paint31_linear_3223_3454" x1="304.987" y1="213.184" x2="297.951" y2="272.031" gradientUnits="userSpaceOnUse">
<stop stop-color="#F0F1EA"/>
<stop offset="1" stop-color="#D1CEB2"/>
</linearGradient>
<linearGradient id="paint32_linear_3223_3454" x1="257.654" y1="266.917" x2="251.257" y2="341.115" gradientUnits="userSpaceOnUse">
<stop stop-color="#E0E0CC"/>
<stop offset="1" stop-color="#BEC6B6"/>
</linearGradient>
<linearGradient id="paint33_linear_3223_3454" x1="332.49" y1="282.906" x2="350.4" y2="311.05" gradientUnits="userSpaceOnUse">
<stop stop-color="#CED4B9"/>
<stop offset="1" stop-color="#FBFBF5"/>
</linearGradient>
<linearGradient id="paint34_linear_3223_3454" x1="216.279" y1="127.321" x2="225.763" y2="139.571" gradientUnits="userSpaceOnUse">
<stop stop-color="#31AFB8"/>
<stop offset="1" stop-color="#71DD63"/>
</linearGradient>
<linearGradient id="paint35_linear_3223_3454" x1="209.387" y1="139.203" x2="224.496" y2="141.452" gradientUnits="userSpaceOnUse">
<stop stop-color="#31AFB8"/>
<stop offset="1" stop-color="#71DD63"/>
</linearGradient>
<linearGradient id="paint36_linear_3223_3454" x1="212.245" y1="153.989" x2="224.086" y2="147.593" gradientUnits="userSpaceOnUse">
<stop stop-color="#31AFB8"/>
<stop offset="1" stop-color="#71DD63"/>
</linearGradient>
<linearGradient id="paint37_linear_3223_3454" x1="223.833" y1="166.101" x2="230.516" y2="155.219" gradientUnits="userSpaceOnUse">
<stop stop-color="#31AFB8"/>
<stop offset="1" stop-color="#71DD63"/>
</linearGradient>
<linearGradient id="paint38_linear_3223_3454" x1="230.339" y1="122.888" x2="230.152" y2="136.601" gradientUnits="userSpaceOnUse">
<stop stop-color="#31AFB8"/>
<stop offset="1" stop-color="#71DD63"/>
</linearGradient>
<linearGradient id="paint39_linear_3223_3454" x1="246.237" y1="127.64" x2="239.576" y2="138.485" gradientUnits="userSpaceOnUse">
<stop stop-color="#31AFB8"/>
<stop offset="1" stop-color="#71DD63"/>
</linearGradient>
<linearGradient id="paint40_linear_3223_3454" x1="257.89" y1="139.744" x2="246.048" y2="146.141" gradientUnits="userSpaceOnUse">
<stop stop-color="#31AFB8"/>
<stop offset="1" stop-color="#71DD63"/>
</linearGradient>
<linearGradient id="paint41_linear_3223_3454" x1="260.773" y1="154.588" x2="245.665" y2="152.34" gradientUnits="userSpaceOnUse">
<stop stop-color="#31AFB8"/>
<stop offset="1" stop-color="#71DD63"/>
</linearGradient>
<linearGradient id="paint42_linear_3223_3454" x1="253.826" y1="166.448" x2="244.311" y2="154.159" gradientUnits="userSpaceOnUse">
<stop stop-color="#31AFB8"/>
<stop offset="1" stop-color="#71DD63"/>
</linearGradient>
<linearGradient id="paint43_linear_3223_3454" x1="239.736" y1="170.834" x2="239.923" y2="157.076" gradientUnits="userSpaceOnUse">
<stop stop-color="#31AFB8"/>
<stop offset="1" stop-color="#71DD63"/>
</linearGradient>
<linearGradient id="paint44_linear_3223_3454" x1="271.521" y1="149.895" x2="366.534" y2="134.846" gradientUnits="userSpaceOnUse">
<stop stop-color="#6DD37E"/>
<stop offset="1" stop-color="#87B6D3"/>
</linearGradient>
</defs>
</svg>
