<svg width="3994" height="4614" viewBox="0 0 3994 4614" fill="none" xmlns="http://www.w3.org/2000/svg" xmlns:xlink="http://www.w3.org/1999/xlink">
    <path d="M1997.5 0.585938L3994.99 1153.84V3460.34L1997.5 4613.59L0.0124512 3460.34V1153.84L1997.5 0.585938Z" fill="white"/>
    <g filter="url(#filter0_d_24_107)">
        <path d="M1997.5 232.586L3794.07 1269.84V3344.34L1997.5 4381.59L200.93 3344.34V1269.84L1997.5 232.586Z" fill="url(#paint0_linear_24_107)"/>
    </g>
    <g style="mix-blend-mode:screen" filter="url(#filter1_d_24_107)">
        <path d="M1997.5 232.586L3794.07 1269.84V3344.34L1997.5 4381.59L200.93 3344.34V1269.84L1997.5 232.586Z" fill="url(#pattern0)" shape-rendering="crispEdges"/>
    </g>
    <g filter="url(#filter2_f_24_107)">
        <path d="M1563.95 1072.45C1563.95 1089.51 1561.02 1105.2 1555.16 1119.52C1549.3 1133.84 1541.16 1146.21 1530.74 1156.63C1520.33 1167.05 1507.96 1175.18 1493.63 1181.04C1479.44 1186.77 1463.95 1189.64 1447.15 1189.64H1378.4C1361.6 1189.64 1346.04 1186.77 1331.72 1181.04C1317.4 1175.18 1305.03 1167.05 1294.61 1156.63C1284.19 1146.21 1275.99 1133.84 1270 1119.52C1264.14 1105.2 1261.21 1089.51 1261.21 1072.45V1018.93C1261.21 1002.01 1264.14 986.382 1270 972.059C1275.99 957.605 1284.19 945.236 1294.61 934.949C1305.03 924.533 1317.4 916.395 1331.72 910.535C1346.04 904.676 1361.6 901.746 1378.4 901.746H1447.15C1463.95 901.746 1479.44 904.676 1493.63 910.535C1507.96 916.395 1520.33 924.533 1530.74 934.949C1541.16 945.236 1549.3 957.605 1555.16 972.059C1561.02 986.382 1563.95 1002.01 1563.95 1018.93V1072.45ZM1513.17 1018.93C1513.17 1008.91 1511.54 999.858 1508.28 991.785C1505.16 983.582 1500.67 976.616 1494.81 970.887C1489.08 965.027 1482.11 960.535 1473.91 957.41C1465.84 954.155 1456.92 952.527 1447.15 952.527H1378.4C1368.5 952.527 1359.46 954.155 1351.25 957.41C1343.18 960.535 1336.21 965.027 1330.35 970.887C1324.49 976.616 1319.94 983.582 1316.68 991.785C1313.56 999.858 1311.99 1008.91 1311.99 1018.93V1072.45C1311.99 1082.48 1313.56 1091.59 1316.68 1099.79C1319.94 1107.87 1324.49 1114.83 1330.35 1120.69C1336.21 1126.42 1343.18 1130.91 1351.25 1134.17C1359.46 1137.29 1368.5 1138.86 1378.4 1138.86H1446.76C1456.66 1138.86 1465.64 1137.29 1473.71 1134.17C1481.92 1130.91 1488.95 1126.42 1494.81 1120.69C1500.67 1114.83 1505.16 1107.87 1508.28 1099.79C1511.54 1091.59 1513.17 1082.48 1513.17 1072.45V1018.93ZM1894.03 999.793C1894.03 1011.38 1892.59 1021.73 1889.73 1030.85C1886.86 1039.96 1882.96 1048.04 1878.01 1055.07C1873.19 1061.97 1867.59 1067.89 1861.21 1072.84C1854.83 1077.79 1848.13 1081.89 1841.1 1085.14C1834.19 1088.27 1827.16 1090.55 1820 1091.98C1812.97 1093.41 1806.33 1094.13 1800.08 1094.13L1906.13 1185.73H1827.62L1721.76 1094.13H1685.24V1043.35H1800.08C1806.46 1042.83 1812.25 1041.52 1817.46 1039.44C1822.8 1037.23 1827.36 1034.3 1831.13 1030.65C1835.04 1027.01 1838.04 1022.64 1840.12 1017.57C1842.2 1012.36 1843.24 1006.43 1843.24 999.793V967.762C1843.24 964.897 1842.85 962.749 1842.07 961.316C1841.42 959.754 1840.51 958.647 1839.34 957.996C1838.3 957.215 1837.12 956.759 1835.82 956.629C1834.65 956.499 1833.54 956.434 1832.5 956.434H1664.92V1185.73H1614.14V931.238C1614.14 927.723 1614.79 924.402 1616.1 921.277C1617.4 918.152 1619.16 915.418 1621.37 913.074C1623.71 910.73 1626.45 908.908 1629.57 907.605C1632.7 906.303 1636.08 905.652 1639.73 905.652H1832.5C1843.83 905.652 1853.4 907.736 1861.21 911.902C1869.03 915.939 1875.34 921.082 1880.16 927.332C1885.11 933.452 1888.62 940.092 1890.71 947.254C1892.92 954.415 1894.03 961.121 1894.03 967.371V999.793ZM1996.17 1185.73H1945.39V905.652H1996.17V1185.73ZM2349.49 1072.45C2349.49 1089.51 2346.56 1105.2 2340.71 1119.52C2334.85 1133.84 2326.71 1146.21 2316.29 1156.63C2305.87 1167.05 2293.5 1175.18 2279.18 1181.04C2264.99 1186.77 2249.49 1189.64 2232.7 1189.64H2163.95C2147.15 1189.64 2131.59 1186.77 2117.27 1181.04C2102.94 1175.18 2090.57 1167.05 2080.16 1156.63C2069.74 1146.21 2061.54 1133.84 2055.55 1119.52C2049.69 1105.2 2046.76 1089.51 2046.76 1072.45V1018.93C2046.76 1002.01 2049.69 986.382 2055.55 972.059C2061.54 957.605 2069.74 945.236 2080.16 934.949C2090.57 924.533 2102.94 916.395 2117.27 910.535C2131.59 904.676 2147.15 901.746 2163.95 901.746H2232.7C2249.49 901.746 2264.99 904.676 2279.18 910.535C2293.5 916.395 2305.87 924.533 2316.29 934.949C2326.71 945.236 2334.85 957.605 2340.71 972.059C2346.56 986.382 2349.49 1002.01 2349.49 1018.93V1072.45ZM2298.71 1018.93C2298.71 1008.91 2297.09 999.858 2293.83 991.785C2290.71 983.582 2286.21 976.616 2280.35 970.887C2274.62 965.027 2267.66 960.535 2259.46 957.41C2251.38 954.155 2242.46 952.527 2232.7 952.527H2163.95C2154.05 952.527 2145 954.155 2136.8 957.41C2128.73 960.535 2121.76 965.027 2115.9 970.887C2110.04 976.616 2105.48 983.582 2102.23 991.785C2099.1 999.858 2097.54 1008.91 2097.54 1018.93V1072.45C2097.54 1082.48 2099.1 1091.59 2102.23 1099.79C2105.48 1107.87 2110.04 1114.83 2115.9 1120.69C2121.76 1126.42 2128.73 1130.91 2136.8 1134.17C2145 1137.29 2154.05 1138.86 2163.95 1138.86H2232.31C2242.2 1138.86 2251.19 1137.29 2259.26 1134.17C2267.46 1130.91 2274.49 1126.42 2280.35 1120.69C2286.21 1114.83 2290.71 1107.87 2293.83 1099.79C2297.09 1091.59 2298.71 1082.48 2298.71 1072.45V1018.93ZM2679.57 1164.05C2679.57 1167.7 2678.86 1171.08 2677.42 1174.21C2676.12 1177.33 2674.3 1180.07 2671.96 1182.41C2669.74 1184.62 2667.07 1186.38 2663.95 1187.68C2660.82 1188.99 2657.5 1189.64 2653.99 1189.64C2650.86 1189.64 2647.67 1189.05 2644.42 1187.88C2641.29 1186.71 2638.49 1184.82 2636.02 1182.21L2450.47 988.465V1185.73H2399.69V927.332C2399.69 922.124 2401.12 917.436 2403.99 913.27C2406.98 908.973 2410.76 905.783 2415.31 903.699C2420.13 901.746 2425.08 901.29 2430.16 902.332C2435.24 903.243 2439.6 905.587 2443.24 909.363L2628.79 1102.92V905.652H2679.57V1164.05Z" fill="white"/>
    </g>
    <g filter="url(#filter3_d_24_107)">
        <path d="M1563.95 1072.45C1563.95 1089.51 1561.02 1105.2 1555.16 1119.52C1549.3 1133.84 1541.16 1146.21 1530.74 1156.63C1520.33 1167.05 1507.96 1175.18 1493.63 1181.04C1479.44 1186.77 1463.95 1189.64 1447.15 1189.64H1378.4C1361.6 1189.64 1346.04 1186.77 1331.72 1181.04C1317.4 1175.18 1305.03 1167.05 1294.61 1156.63C1284.19 1146.21 1275.99 1133.84 1270 1119.52C1264.14 1105.2 1261.21 1089.51 1261.21 1072.45V1018.93C1261.21 1002.01 1264.14 986.382 1270 972.059C1275.99 957.605 1284.19 945.236 1294.61 934.949C1305.03 924.533 1317.4 916.395 1331.72 910.535C1346.04 904.676 1361.6 901.746 1378.4 901.746H1447.15C1463.95 901.746 1479.44 904.676 1493.63 910.535C1507.96 916.395 1520.33 924.533 1530.74 934.949C1541.16 945.236 1549.3 957.605 1555.16 972.059C1561.02 986.382 1563.95 1002.01 1563.95 1018.93V1072.45ZM1513.17 1018.93C1513.17 1008.91 1511.54 999.858 1508.28 991.785C1505.16 983.582 1500.67 976.616 1494.81 970.887C1489.08 965.027 1482.11 960.535 1473.91 957.41C1465.84 954.155 1456.92 952.527 1447.15 952.527H1378.4C1368.5 952.527 1359.46 954.155 1351.25 957.41C1343.18 960.535 1336.21 965.027 1330.35 970.887C1324.49 976.616 1319.94 983.582 1316.68 991.785C1313.56 999.858 1311.99 1008.91 1311.99 1018.93V1072.45C1311.99 1082.48 1313.56 1091.59 1316.68 1099.79C1319.94 1107.87 1324.49 1114.83 1330.35 1120.69C1336.21 1126.42 1343.18 1130.91 1351.25 1134.17C1359.46 1137.29 1368.5 1138.86 1378.4 1138.86H1446.76C1456.66 1138.86 1465.64 1137.29 1473.71 1134.17C1481.92 1130.91 1488.95 1126.42 1494.81 1120.69C1500.67 1114.83 1505.16 1107.87 1508.28 1099.79C1511.54 1091.59 1513.17 1082.48 1513.17 1072.45V1018.93ZM1894.03 999.793C1894.03 1011.38 1892.59 1021.73 1889.73 1030.85C1886.86 1039.96 1882.96 1048.04 1878.01 1055.07C1873.19 1061.97 1867.59 1067.89 1861.21 1072.84C1854.83 1077.79 1848.13 1081.89 1841.1 1085.14C1834.19 1088.27 1827.16 1090.55 1820 1091.98C1812.97 1093.41 1806.33 1094.13 1800.08 1094.13L1906.13 1185.73H1827.62L1721.76 1094.13H1685.24V1043.35H1800.08C1806.46 1042.83 1812.25 1041.52 1817.46 1039.44C1822.8 1037.23 1827.36 1034.3 1831.13 1030.65C1835.04 1027.01 1838.04 1022.64 1840.12 1017.57C1842.2 1012.36 1843.24 1006.43 1843.24 999.793V967.762C1843.24 964.897 1842.85 962.749 1842.07 961.316C1841.42 959.754 1840.51 958.647 1839.34 957.996C1838.3 957.215 1837.12 956.759 1835.82 956.629C1834.65 956.499 1833.54 956.434 1832.5 956.434H1664.92V1185.73H1614.14V931.238C1614.14 927.723 1614.79 924.402 1616.1 921.277C1617.4 918.152 1619.16 915.418 1621.37 913.074C1623.71 910.73 1626.45 908.908 1629.57 907.605C1632.7 906.303 1636.08 905.652 1639.73 905.652H1832.5C1843.83 905.652 1853.4 907.736 1861.21 911.902C1869.03 915.939 1875.34 921.082 1880.16 927.332C1885.11 933.452 1888.62 940.092 1890.71 947.254C1892.92 954.415 1894.03 961.121 1894.03 967.371V999.793ZM1996.17 1185.73H1945.39V905.652H1996.17V1185.73ZM2349.49 1072.45C2349.49 1089.51 2346.56 1105.2 2340.71 1119.52C2334.85 1133.84 2326.71 1146.21 2316.29 1156.63C2305.87 1167.05 2293.5 1175.18 2279.18 1181.04C2264.99 1186.77 2249.49 1189.64 2232.7 1189.64H2163.95C2147.15 1189.64 2131.59 1186.77 2117.27 1181.04C2102.94 1175.18 2090.57 1167.05 2080.16 1156.63C2069.74 1146.21 2061.54 1133.84 2055.55 1119.52C2049.69 1105.2 2046.76 1089.51 2046.76 1072.45V1018.93C2046.76 1002.01 2049.69 986.382 2055.55 972.059C2061.54 957.605 2069.74 945.236 2080.16 934.949C2090.57 924.533 2102.94 916.395 2117.27 910.535C2131.59 904.676 2147.15 901.746 2163.95 901.746H2232.7C2249.49 901.746 2264.99 904.676 2279.18 910.535C2293.5 916.395 2305.87 924.533 2316.29 934.949C2326.71 945.236 2334.85 957.605 2340.71 972.059C2346.56 986.382 2349.49 1002.01 2349.49 1018.93V1072.45ZM2298.71 1018.93C2298.71 1008.91 2297.09 999.858 2293.83 991.785C2290.71 983.582 2286.21 976.616 2280.35 970.887C2274.62 965.027 2267.66 960.535 2259.46 957.41C2251.38 954.155 2242.46 952.527 2232.7 952.527H2163.95C2154.05 952.527 2145 954.155 2136.8 957.41C2128.73 960.535 2121.76 965.027 2115.9 970.887C2110.04 976.616 2105.48 983.582 2102.23 991.785C2099.1 999.858 2097.54 1008.91 2097.54 1018.93V1072.45C2097.54 1082.48 2099.1 1091.59 2102.23 1099.79C2105.48 1107.87 2110.04 1114.83 2115.9 1120.69C2121.76 1126.42 2128.73 1130.91 2136.8 1134.17C2145 1137.29 2154.05 1138.86 2163.95 1138.86H2232.31C2242.2 1138.86 2251.19 1137.29 2259.26 1134.17C2267.46 1130.91 2274.49 1126.42 2280.35 1120.69C2286.21 1114.83 2290.71 1107.87 2293.83 1099.79C2297.09 1091.59 2298.71 1082.48 2298.71 1072.45V1018.93ZM2679.57 1164.05C2679.57 1167.7 2678.86 1171.08 2677.42 1174.21C2676.12 1177.33 2674.3 1180.07 2671.96 1182.41C2669.74 1184.62 2667.07 1186.38 2663.95 1187.68C2660.82 1188.99 2657.5 1189.64 2653.99 1189.64C2650.86 1189.64 2647.67 1189.05 2644.42 1187.88C2641.29 1186.71 2638.49 1184.82 2636.02 1182.21L2450.47 988.465V1185.73H2399.69V927.332C2399.69 922.124 2401.12 917.436 2403.99 913.27C2406.98 908.973 2410.76 905.783 2415.31 903.699C2420.13 901.746 2425.08 901.29 2430.16 902.332C2435.24 903.243 2439.6 905.587 2443.24 909.363L2628.79 1102.92V905.652H2679.57V1164.05Z" fill="white"/>
    </g>
    <use filter="url(#filter4_f_24_107)" href="#constellation" xlink:href="#constellation"/>
    <use href="#constellation" xlink:href="#constellation"/>
    <defs>
        <filter id="filter0_d_24_107" x="196.93" y="232.586" width="3601.14" height="4157" filterUnits="userSpaceOnUse" color-interpolation-filters="sRGB">
            <feFlood flood-opacity="0" result="BackgroundImageFix"/>
            <feColorMatrix in="SourceAlpha" type="matrix" values="0 0 0 0 0 0 0 0 0 0 0 0 0 0 0 0 0 0 127 0" result="hardAlpha"/>
            <feOffset dy="4"/>
            <feGaussianBlur stdDeviation="2"/>
            <feComposite in2="hardAlpha" operator="out"/>
            <feColorMatrix type="matrix" values="0 0 0 0 0 0 0 0 0 0 0 0 0 0 0 0 0 0 0.25 0"/>
            <feBlend mode="normal" in2="BackgroundImageFix" result="effect1_dropShadow_24_107"/>
            <feBlend mode="normal" in="SourceGraphic" in2="effect1_dropShadow_24_107" result="shape"/>
        </filter>
        <filter id="filter1_d_24_107" x="196.93" y="232.586" width="3601.14" height="4157" filterUnits="userSpaceOnUse" color-interpolation-filters="sRGB">
            <feFlood flood-opacity="0" result="BackgroundImageFix"/>
            <feColorMatrix in="SourceAlpha" type="matrix" values="0 0 0 0 0 0 0 0 0 0 0 0 0 0 0 0 0 0 127 0" result="hardAlpha"/>
            <feOffset dy="4"/>
            <feGaussianBlur stdDeviation="2"/>
            <feComposite in2="hardAlpha" operator="out"/>
            <feColorMatrix type="matrix" values="0 0 0 0 0 0 0 0 0 0 0 0 0 0 0 0 0 0 0.25 0"/>
            <feBlend mode="normal" in2="BackgroundImageFix" result="effect1_dropShadow_24_107"/>
            <feBlend mode="normal" in="SourceGraphic" in2="effect1_dropShadow_24_107" result="shape"/>
        </filter>
        <pattern id="pattern0" patternContentUnits="objectBoundingBox" width="1" height="1">
            <use xlink:href="#image0_24_107" transform="translate(0 -0.334259) scale(0.000925926)"/>
        </pattern>
        <filter id="filter2_f_24_107" x="1181.21" y="820.77" width="1578.36" height="448.867" filterUnits="userSpaceOnUse" color-interpolation-filters="sRGB">
            <feFlood flood-opacity="0" result="BackgroundImageFix"/>
            <feBlend mode="normal" in="SourceGraphic" in2="BackgroundImageFix" result="shape"/>
            <feGaussianBlur stdDeviation="40" result="effect1_foregroundBlur_24_107"/>
        </filter>
        <filter id="filter3_d_24_107" x="1257.21" y="900.77" width="1426.36" height="312.867" filterUnits="userSpaceOnUse" color-interpolation-filters="sRGB">
            <feFlood flood-opacity="0" result="BackgroundImageFix"/>
            <feColorMatrix in="SourceAlpha" type="matrix" values="0 0 0 0 0 0 0 0 0 0 0 0 0 0 0 0 0 0 127 0" result="hardAlpha"/>
            <feOffset dy="20"/>
            <feGaussianBlur stdDeviation="2"/>
            <feComposite in2="hardAlpha" operator="out"/>
            <feColorMatrix type="matrix" values="0 0 0 0 0 0 0 0 0 0 0 0 0 0 0 0 0 0 0.25 0"/>
            <feBlend mode="normal" in2="BackgroundImageFix" result="effect1_dropShadow_24_107"/>
            <feBlend mode="normal" in="SourceGraphic" in2="effect1_dropShadow_24_107" result="shape"/>
        </filter>
        <filter id="filter4_f_24_107" x="1099.89" y="1305.47" width="2106.81" height="2532.89" filterUnits="userSpaceOnUse" color-interpolation-filters="sRGB">
            <feFlood flood-opacity="0" result="BackgroundImageFix"/>
            <feBlend mode="normal" in="SourceGraphic" in2="BackgroundImageFix" result="shape"/>
            <feGaussianBlur stdDeviation="40" result="effect1_foregroundBlur_24_107"/>
        </filter>
        <linearGradient id="paint0_linear_24_107" x1="1997.5" y1="232.586" x2="1997.5" y2="4381.59" gradientUnits="userSpaceOnUse">
            <stop stop-color="#2E2B5F"/>
            <stop offset="1" stop-color="#DC331B"/>
        </linearGradient>
        <image id="image0_24_107" width="1080" height="1802" href="../stars-overlay.jpg" xlink:href="../stars-overlay.jpg"/>
        <image id="constellation" preserveAspectRatio="none" width="1946.3" height="2371.8" x="1168.6" y="1390.3" href="./constellation.svg" xlink:href="./constellation.svg"/>
    </defs>
</svg>
