<svg width="542" height="314" viewBox="0 0 542 314" fill="none" xmlns="http://www.w3.org/2000/svg">
<g filter="url(#filter0_i_5_113)">
<path d="M315.544 47.7324C380.431 66.6525 352.321 143.105 313.642 113.879C269.003 80.1483 251.786 131.344 237.889 116.461C223.993 101.579 221.68 53.662 262.557 38.6453C274.412 27.5755 301.647 32.85 315.544 47.7324Z" fill="url(#paint0_linear_5_113)"/>
</g>
<path d="M282.418 73.1898C281.038 81.7417 279.209 83.8412 276.237 86.6602C276.188 89.5537 276.19 91.7139 276.423 93.8011C276.44 93.3425 276.456 92.8747 276.475 92.3965L279.255 91.9262L279.282 95.442C279.606 94.4352 280.012 93.3818 280.466 92.1599C281.572 90.0762 282.68 87.8963 283.972 83.9119C284.646 79.1186 284.609 76.9561 283.997 73.8845L285.753 74.5956C285.517 77.0114 285.958 78.2606 286.84 80.5359C288.254 78.6891 288.908 77.4886 289.732 74.9669L290.992 77.0893C287.225 82.9855 285.528 86.7955 283.721 92.4637C281.069 98.8757 279.926 97.9479 281.077 105.168C285.042 90.035 289.365 90.6207 292.287 78.8511L293.435 80.2352C293.391 84.3134 292.782 86.5386 290.484 90.3584C294.55 88.269 296.469 86.122 299.826 82.1087L299.523 85.3631C295.487 90.2823 292.832 92.423 287.791 95.7594L285.388 103.928L291.307 97.184L292.143 99.3385C291.951 98.6288 291.793 97.8669 291.684 97.0407C292.398 96.5568 293.623 96.5565 294.991 96.7913C297.57 104.337 301.863 109.975 299.15 97.1793C300.123 97.5264 300.77 97.1591 301.319 97.3808C303.933 104.556 300.482 110.264 302.963 111.043C303.874 111.783 305.026 101.709 305.779 102.368C307.229 103.636 307.457 103.916 308.028 103.672C306.295 106.611 308.132 108.424 308.754 109.578C312.786 111.701 320.637 111.234 322.909 110.351C326.774 112.43 329.775 117.947 330.371 118.343C328.337 117.893 319.703 117.347 314.606 117.236C312.899 115.983 311.209 114.548 310.124 114.447C307.378 114.555 308.669 116.311 304.756 117.229C300.734 124.726 298.567 130.304 297.603 134.586C299.442 136.849 301.584 139.127 304.247 140.77L305.975 153.517L298.266 145.602C299.615 148.353 301.702 150.13 302.933 152.452C299.474 189.52 303.806 186.094 305.882 218.572L292.141 217.29C292.121 209.355 291.583 200.675 291.345 191.503C289.404 187.417 287.525 185.808 284.684 185.766C275.816 168.519 270.697 161.21 257.496 148.756C251.505 144.861 247.834 143.511 240.525 142.976C236.862 141.024 234.715 140.297 231.431 136.838L225.013 131.315L228.498 131.091C232.775 134.899 235.233 136.999 240.414 140.226C244.293 141.271 246.54 141.182 250.589 140.629C248.817 137.061 248.181 135.22 243.347 130.288C239.92 129.955 238.004 129.716 234.853 127.487L237.491 124.632C239.045 126.552 239.966 127.594 242.01 127.06C241.637 125.658 241.347 124.883 240.14 123.604L242.067 122.507C247.095 130.649 250.978 136.47 257.688 142.752C256.415 138.801 255.238 135.773 246.525 121.645L249.339 120.815C250.509 125.846 253.432 126.948 254.559 131.334C254.73 129.758 254.686 128.842 254.224 127.108C253.392 124.075 252.544 122.647 250.853 120.227L253.322 119.181C256.163 126.02 256.769 128.95 257.431 133.791C259.091 138.841 260.465 141.175 263.128 145.085C269.495 152.23 273.185 156.286 277.719 162.681L291.282 178.835C291.414 172.48 291.84 165.957 292.802 159.342C288.955 152.873 288.018 146.988 288.722 141.025L288.503 141.65C286.89 135.232 285.286 130.353 283.3 124.997L281.189 122.02C274.313 121.45 271.468 123.969 261.166 113.768L261.646 112.535C265.937 114.398 267.586 116.047 269.484 114.543C263.686 112.178 260.768 108.258 258.515 101.116L260.555 100.76C263.338 106.127 265.996 108.929 273.698 112.383C270.685 107.542 268.765 104.678 263.601 99.4025L266.856 99.7073C271.943 103.829 274.634 106.269 277.399 111.816C277.137 110.494 276.931 109.242 276.771 108.029C276.539 107.42 276.301 106.797 276.059 106.16C273.059 97.977 272.424 93.561 273.705 86.4239C269.432 84.5153 267.352 83.1247 264.283 79.8903L265.407 77.6187C268.615 81.8782 270.338 82.4374 274.699 83.5977C274.448 79.1933 274.27 77.8879 271.644 75.2838L272.648 74.2868C274.571 75.1957 274.909 79.1411 276.975 80.7098C276.277 78.3854 275.844 75.2844 276.221 73.1598L277.716 72.7511C277.11 74.7237 276.918 77.9514 278.839 78.3297C280.466 78.4812 280.78 75.3747 281.385 72.5462L282.418 73.1898ZM292.857 101.41C288.777 105.171 285.79 108.386 284.062 108.364C283.46 109.592 283.297 110.128 283.283 110.844C286.298 117.841 288.239 121.937 291.338 127.62C291.626 127.811 291.927 127.933 292.252 127.973C293.949 123.439 296.017 118.631 298.009 113.316C298.353 108.418 294.858 106.165 292.857 101.41Z" fill="url(#paint1_linear_5_113)"/>
<g filter="url(#filter1_i_5_113)">
<path d="M348.515 101.795C347.416 113.579 338.995 122.429 329.707 121.563C320.741 96.4671 297.157 112.689 291.917 96.5133C293.017 84.7291 317.536 68.2611 332.202 75.284C341.49 76.1507 349.615 90.0107 348.515 101.795Z" fill="url(#paint2_linear_5_113)"/>
</g>
<g filter="url(#filter2_i_5_113)">
<path d="M239.805 105.695C246.711 108.093 256.585 116.609 254.944 121.335C240.825 126.434 233.024 142.397 226.119 139.999C219.213 137.601 214.364 124.267 220.332 117.678C221.973 112.952 232.9 103.297 239.805 105.695Z" fill="url(#paint3_linear_5_113)"/>
</g>
<g filter="url(#filter3_i_5_113)">
<path d="M253.668 78.3196C264.366 82.0343 270.813 91.4553 268.068 99.3619C245.81 108.366 244.555 126.905 233.857 123.19C223.159 119.475 216.094 97.5299 225.672 86.3661C228.418 78.4595 242.97 74.6049 253.668 78.3196Z" fill="url(#paint4_linear_5_113)"/>
</g>
<g filter="url(#filter4_i_5_113)">
<path d="M321.986 68.8038C329.396 78.9431 328.272 83.8613 320.018 89.8933C292.605 85.1043 283.641 101.622 271.161 100.457C263.751 90.318 272.833 64.627 289.857 59.5851C298.111 53.5531 314.576 58.6644 321.986 68.8038Z" fill="url(#paint5_linear_5_113)"/>
</g>
<g filter="url(#filter5_i_5_113)">
<path d="M212.245 157.468C183.153 174.323 208.989 209.241 224.527 192.307C242.459 172.765 252.789 192.85 257.931 185.085C263.074 177.32 257.676 145.864 236.642 146.146C229.866 143.652 217.387 149.703 212.245 157.468Z" fill="url(#paint6_linear_5_113)"/>
</g>
<path d="M224.029 174.415C223.502 177.554 225.723 179.233 224.617 179.899C224.257 180.318 222.694 176.624 222.4 176.988C221.836 177.688 221.754 177.83 221.457 177.821C222.58 178.692 221.885 179.659 221.704 180.194C219.991 181.605 216.193 182.587 215.02 182.584C213.383 183.953 212.504 186.513 212.259 186.753C213.185 186.28 217.255 184.793 219.678 183.997C220.367 183.264 221.031 182.464 221.539 182.264C222.862 181.9 222.421 182.764 224.382 182.538C232.685 189.62 230.591 192.254 229.288 194.689C227.412 194.033 225.435 193.241 222.508 192.157C219.864 191.211 218.486 191.052 216.375 191.614C215.58 190.122 215.052 189.402 213.913 188.359L213.277 188.792C214.735 189.87 214.992 190.475 215.563 192.009C214.209 191.985 213.801 191.942 212.876 191.047L212.622 191.418C212.995 192.088 214.215 192.15 214.796 192.861C214.053 192.648 213.087 192.54 212.458 192.705L212.408 193.244C212.979 192.999 213.953 192.883 214.164 193.56C214.292 194.137 213.361 194.295 212.529 194.552L212.776 194.91C215.314 194.292 215.863 193.61 216.573 192.511C218.514 192.377 219.379 192.381 221.429 193.127C220.148 193.014 219.536 193.381 218.46 193.933C217.881 194.358 217.271 194.785 216.122 195.304C214.695 195.615 214.034 195.634 213.067 195.462L213.371 196.077C214.096 195.957 214.499 196.094 215.236 196.374C214.744 196.904 214.411 197.156 213.684 197.486L214.393 197.903C216.002 196.475 217.078 195.814 218.716 195.087C220.538 194.048 220.198 193.656 222.456 193.958C218.042 195.593 218.436 197.123 214.994 198.337L215.474 198.725C216.714 198.649 217.362 198.399 218.412 197.524C217.978 199.002 217.42 199.717 216.364 200.971L217.341 200.814C218.639 199.306 219.158 198.329 219.923 196.487L222.294 195.51L220.534 197.716L221.884 198.229C222.832 196.709 223.672 195.59 223.579 194.972C223.923 194.74 224.079 194.674 224.297 194.658C226.35 195.529 227.645 196.126 229.257 196.978C234.031 209.465 231.826 209.203 234.03 221.588L246.496 219.091C244.83 212.646 244.043 205.05 240.465 197.424C241.342 195.171 240.92 193.229 239.767 191.447L244.679 181.406C248.614 181.314 250.564 182.496 255.369 178.222L254.946 177.665C252.666 178.389 251.898 179.08 250.618 178.37C253.717 177.459 254.957 175.793 255.434 172.685L254.206 172.479C253.213 174.789 251.993 175.967 247.914 177.316C249.103 175.244 249.885 174.021 252.275 171.807L250.416 171.866C247.937 173.572 246.656 174.588 245.694 176.979C245.685 173.968 245.015 171.762 243.965 168.406L242.291 168.133L244.115 175.32L244.103 178.006L241.88 180.924C240.32 182.031 240.143 183.746 238.905 183.785C237.983 184.62 237.148 186.084 235.862 187.388C232.974 185.008 229.491 182.716 227.212 180.039C226.382 177.73 228.904 176.133 228.597 172.859C228.207 172.779 227.622 172.96 226.993 173.252C226.52 176.529 225.035 179.327 225.046 174.016C224.616 174.293 224.269 174.248 224.029 174.415Z" fill="url(#paint7_linear_5_113)"/>
<g filter="url(#filter6_i_5_113)">
<path d="M201.93 183.087C203.639 187.445 208.551 189.596 212.9 187.89C214.661 176.935 227.557 179.672 228.433 172.691C226.724 168.332 213.357 165.639 207.057 170.503C202.708 172.208 200.22 178.728 201.93 183.087Z" fill="url(#paint8_linear_5_113)"/>
</g>
<g filter="url(#filter7_i_5_113)">
<path d="M259.501 164.64C254.764 167.648 252.631 172.216 254.737 174.843C266.274 175.007 268.737 181.934 273.473 178.927C278.21 175.92 279.379 166.455 273.682 163.588C271.576 160.96 264.237 161.633 259.501 164.64Z" fill="url(#paint9_linear_5_113)"/>
</g>
<g filter="url(#filter8_i_5_113)">
<path d="M213.693 203.141C218.939 204.055 223.182 200.7 223.022 198.025C214.348 191.516 218.512 190.251 214.897 187.191C209.65 186.278 203.191 190.631 205.948 195.44C206.108 198.115 208.447 202.228 213.693 203.141Z" fill="url(#paint10_linear_5_113)"/>
</g>
<g filter="url(#filter9_i_5_113)">
<path d="M365.217 115.267C413.553 143.27 370.627 201.285 344.812 173.151C315.018 140.682 297.854 174.053 289.311 161.151C280.768 148.25 289.735 95.987 324.683 96.4567C335.94 92.3125 356.673 102.366 365.217 115.267Z" fill="url(#paint11_linear_5_113)"/>
</g>
<path d="M343.95 142.761C344.665 143.221 345.24 143.147 345.638 143.423C346.514 148.639 342.823 151.429 344.662 152.536C345.26 153.232 347.857 147.093 348.345 147.698C349.283 148.862 349.418 149.096 349.912 149.082C348.046 150.529 349.201 152.136 349.502 153.024C352.347 155.368 358.657 157 360.607 156.996C363.326 159.271 364.787 163.523 365.194 163.923C363.654 163.136 356.893 160.667 352.867 159.345C351.722 158.126 350.62 156.797 349.776 156.465C347.579 155.86 348.31 157.296 345.052 156.92C331.251 168.694 334.739 173.067 336.905 177.115C340.021 176.024 343.303 174.702 348.166 172.901C352.559 171.33 354.848 171.064 358.356 171.998C359.677 169.519 360.554 168.324 362.446 166.59L363.503 167.311C361.08 169.102 360.654 170.106 359.704 172.655C361.956 172.616 362.631 172.543 364.168 171.055L364.59 171.673C363.97 172.787 361.944 172.89 360.978 174.072C362.213 173.717 363.819 173.538 364.863 173.813L364.947 174.707C363.998 174.3 362.38 174.106 362.029 175.233C361.817 176.191 363.364 176.453 364.746 176.88L364.334 177.475C360.118 176.448 359.207 175.315 358.026 173.488C354.801 173.267 353.365 173.272 349.959 174.512C352.086 174.323 353.103 174.934 354.89 175.852C355.853 176.558 356.866 177.266 358.776 178.129C361.148 178.645 362.246 178.678 363.852 178.392L363.346 179.412C362.142 179.213 361.473 179.443 360.248 179.908C361.066 180.789 361.619 181.206 362.828 181.755L361.649 182.447C358.975 180.075 357.187 178.977 354.466 177.769C351.439 176.043 352.003 175.39 348.251 175.892C355.586 178.61 354.931 181.151 360.649 183.169L359.853 183.814C357.791 183.687 356.714 183.272 354.971 181.819C355.691 184.274 356.619 185.462 358.373 187.546L356.751 187.286C354.594 184.779 353.731 183.156 352.46 180.093L348.523 178.471L351.446 182.137L349.203 182.99C347.627 180.464 346.23 178.604 346.386 177.578C345.814 177.192 345.555 177.082 345.194 177.056C341.783 178.503 339.632 179.495 336.954 180.91C329.021 201.659 332.685 201.222 329.022 221.801L308.311 217.651C311.079 206.943 312.387 194.321 318.33 181.651C316.874 177.908 317.576 174.682 319.491 171.723L311.33 155.039C304.792 154.887 301.551 156.85 293.568 149.748L294.272 148.824C298.06 150.027 299.335 151.175 301.461 149.996C296.313 148.482 294.253 145.712 293.459 140.548L295.501 140.207C297.151 144.046 299.178 146.002 305.956 148.243C303.981 144.801 302.68 142.77 298.709 139.091L301.797 139.188C305.917 142.021 308.046 143.711 309.643 147.683C309.658 142.68 310.771 139.015 312.517 133.439L315.296 132.985L312.267 144.925L312.287 149.389L315.978 154.238C318.571 156.077 318.865 158.926 320.923 158.991C322.454 160.379 323.839 162.814 325.975 164.981C330.773 161.025 336.563 157.217 340.35 152.768C341.729 148.931 337.538 146.279 338.048 140.838C338.696 140.705 339.668 141.006 340.715 141.492C341.501 146.936 343.967 151.585 343.95 142.761Z" fill="url(#paint12_linear_5_113)"/>
<g filter="url(#filter10_i_5_113)">
<path d="M382.353 157.831C379.513 165.073 371.352 168.646 364.126 165.811C361.201 147.611 339.776 152.157 338.319 140.559C341.159 133.317 363.368 128.843 373.834 136.923C381.06 139.757 385.194 150.589 382.353 157.831Z" fill="url(#paint13_linear_5_113)"/>
</g>
<g filter="url(#filter11_i_5_113)">
<path d="M311.625 127.183C319.495 132.179 323.038 139.769 319.539 144.135C300.372 144.406 296.28 155.916 288.41 150.92C280.54 145.923 278.598 130.198 288.064 125.435C291.563 121.069 303.755 122.187 311.625 127.183Z" fill="url(#paint14_linear_5_113)"/>
</g>
<g filter="url(#filter12_i_5_113)">
<path d="M362.81 191.151C354.094 192.669 347.045 187.095 347.31 182.651C361.721 171.836 354.803 169.735 360.81 164.651C369.527 163.133 380.258 170.366 375.678 178.356C375.413 182.8 371.527 189.633 362.81 191.151Z" fill="url(#paint15_linear_5_113)"/>
</g>
<path d="M232.205 200.119L191.149 193.168L165.69 221.206L130.367 215.181L115 230.243L117.982 181.118L126.468 129.213L154.221 84.2595L188.167 51.587L241.839 26.3296L293.216 21L339.548 26.3296L391.384 48.8064L429.714 88.4305L457.52 141.726L464.935 172.313L466.325 227.231L445.934 215.181L417.201 232.329L380.821 218.657L345.831 238.817L310.877 224.218L280.142 244.378L241.839 235.109L232.205 200.119Z" fill="url(#paint16_radial_5_113)" fill-opacity="0.83"/>
<path d="M232.205 200.119L266.151 176.484M232.205 200.119L191.149 193.168M232.205 200.119L241.839 235.109M266.151 176.484L262.023 143.58M266.151 176.484L305.831 191.546M262.023 143.58L217.297 133.152M262.023 143.58L296.243 121.798M217.297 133.152L181.974 158.642M217.297 133.152L211.333 106.505M181.974 158.642L191.149 193.168M181.974 158.642L145.964 153.775M191.149 193.168L165.69 221.206M211.333 106.505L174.176 103.956M211.333 106.505L247.573 84.2595M174.176 103.956L169.13 82.8692M174.176 103.956L141.606 128.055M169.13 82.8692L194.589 61.3193M169.13 82.8692L154.221 84.2595M194.589 61.3193L235.187 59.4655M194.589 61.3193L188.167 51.587M235.187 59.4655L247.573 84.2595M235.187 59.4655L263.169 42.7817M247.573 84.2595L289.987 93.5283M145.964 153.775L141.606 128.055M145.964 153.775L117.982 181.118M141.606 128.055L126.468 129.213M117.982 181.118L130.367 215.181M117.982 181.118L115 230.243L130.367 215.181M117.982 181.118L126.468 129.213M130.367 215.181L165.69 221.206M165.69 221.206L173.259 244.378M154.221 84.2595L126.468 129.213M154.221 84.2595L188.167 51.587M241.839 235.109L232.205 244.378M241.839 235.109L280.142 244.378L310.877 224.218M310.877 224.218L305.831 191.546M310.877 224.218L345.831 238.817M305.831 191.546L337.257 170.691M263.169 42.7817L255.6 28.6468M263.169 42.7817L307.666 51.587M255.6 28.6468L241.839 26.3296M255.6 28.6468L293.216 21M241.839 26.3296L188.167 51.587M241.839 26.3296L293.216 21M289.987 93.5283L318.676 73.6004M289.987 93.5283L296.243 121.798M318.676 73.6004L307.666 51.587M318.676 73.6004L358.585 84.2595M307.666 51.587L339.548 42.7817M339.548 42.7817L331.749 28.6468M339.548 42.7817L382.21 55.2945M331.749 28.6468L293.216 21M331.749 28.6468L339.548 26.3296M293.216 21L339.548 26.3296M296.243 121.798L332.623 134.543M332.623 134.543L365.527 115.542M332.623 134.543L337.257 170.691M365.527 115.542L358.585 84.2595M365.527 115.542L401.476 131.299M358.585 84.2595L391.384 75.4542M391.384 75.4542L382.21 55.2945M391.384 75.4542L421.372 92.3697M382.21 55.2945L391.384 48.8064M421.372 92.3697L427.396 121.103M421.372 92.3697L429.714 88.4305M427.396 121.103L401.476 131.299M427.396 121.103L457.52 141.726M401.476 131.299L408.627 164.435M339.548 26.3296L391.384 48.8064M391.384 48.8064L429.714 88.4305M337.257 170.691L375.723 184.594M375.723 184.594L408.627 164.435M375.723 184.594L380.821 218.657M408.627 164.435L441.531 181.35M441.531 181.35L464.935 172.313M441.531 181.35L445.934 215.181M464.935 172.313L457.52 141.726M464.935 172.313L466.325 227.231L445.934 215.181M457.52 141.726L429.714 88.4305M445.934 215.181L417.201 232.329M417.201 232.329L380.821 218.657M417.201 232.329L419.055 244.61M380.821 218.657L345.831 238.817M345.831 238.817L346.99 246" stroke="url(#paint17_linear_5_113)" stroke-width="4.71183"/>
<path d="M174.5 106.5L144 129L147.5 151L177.5 155L211 130L205.5 108.5L174.5 106.5Z" fill="url(#paint18_linear_5_113)"/>
<path d="M230.205 197.119L264.151 173.484M230.205 197.119L189.149 190.168M230.205 197.119L239.839 232.109M264.151 173.484L260.023 140.58M264.151 173.484L303.831 188.546M260.023 140.58L215.297 130.152M260.023 140.58L294.243 118.798M215.297 130.152L179.974 155.642M215.297 130.152L209.333 103.505M179.974 155.642L189.149 190.168M179.974 155.642L143.964 150.775M189.149 190.168L163.69 218.206M209.333 103.505L172.176 100.956M209.333 103.505L245.573 81.2595M172.176 100.956L167.13 79.8692M172.176 100.956L139.606 125.055M167.13 79.8692L192.589 58.3193M167.13 79.8692L152.221 81.2595M192.589 58.3193L233.187 56.4655M192.589 58.3193L186.167 48.587M233.187 56.4655L245.573 81.2595M233.187 56.4655L261.169 39.7817M245.573 81.2595L287.987 90.5283M143.964 150.775L139.606 125.055M143.964 150.775L115.982 178.118M139.606 125.055L124.468 126.213M115.982 178.118L128.367 212.181M115.982 178.118L113 227.243L128.367 212.181M115.982 178.118L124.468 126.213M128.367 212.181L163.69 218.206M163.69 218.206L171.259 241.378M152.221 81.2595L124.468 126.213M152.221 81.2595L186.167 48.587M239.839 232.109L230.205 241.378M239.839 232.109L278.142 241.378L308.877 221.218M308.877 221.218L303.831 188.546M308.877 221.218L343.831 235.817M303.831 188.546L335.257 167.691M261.169 39.7817L253.6 25.6468M261.169 39.7817L305.666 48.587M253.6 25.6468L239.839 23.3296M253.6 25.6468L291.216 18M239.839 23.3296L186.167 48.587M239.839 23.3296L291.216 18M287.987 90.5283L316.676 70.6004M287.987 90.5283L294.243 118.798M316.676 70.6004L305.666 48.587M316.676 70.6004L356.585 81.2595M305.666 48.587L337.548 39.7817M337.548 39.7817L329.749 25.6468M337.548 39.7817L380.21 52.2945M329.749 25.6468L291.216 18M329.749 25.6468L337.548 23.3296M291.216 18L337.548 23.3296M294.243 118.798L330.623 131.543M330.623 131.543L363.527 112.542M330.623 131.543L335.257 167.691M363.527 112.542L356.585 81.2595M363.527 112.542L399.476 128.299M356.585 81.2595L389.384 72.4542M389.384 72.4542L380.21 52.2945M389.384 72.4542L419.372 89.3697M380.21 52.2945L389.384 45.8064M419.372 89.3697L425.396 118.103M419.372 89.3697L427.714 85.4305M425.396 118.103L399.476 128.299M425.396 118.103L455.52 138.726M399.476 128.299L406.627 161.435M337.548 23.3296L389.384 45.8064M389.384 45.8064L427.714 85.4305M335.257 167.691L373.723 181.594M373.723 181.594L406.627 161.435M373.723 181.594L378.821 215.657M406.627 161.435L439.531 178.35M439.531 178.35L462.935 169.313M439.531 178.35L443.934 212.181M462.935 169.313L455.52 138.726M462.935 169.313L464.325 224.231L443.934 212.181M455.52 138.726L427.714 85.4305M443.934 212.181L415.201 229.329M415.201 229.329L378.821 215.657M415.201 229.329L417.055 241.61M378.821 215.657L343.831 235.817M343.831 235.817L344.99 243" stroke="url(#paint19_linear_5_113)" stroke-width="4.71183"/>
<g filter="url(#filter13_dg_5_113)">
<path d="M193.527 239.617C191.835 239.038 189.044 238.802 184.438 239.192C178.171 240.351 175.835 241.131 176.213 242.984C174.608 242.835 172.513 242.844 169.778 243.076C163.896 244.164 161.477 244.918 161.514 246.538C160.53 246.459 159.263 246.472 157.633 246.607C155.488 246.996 154.08 247.314 153.283 247.709C152.012 246.755 149.206 246.191 143.009 246.652C135.456 247.879 133.794 248.607 135.758 251.213C136.664 253.666 140.139 254.164 143.009 254.394C145.157 254.394 147.165 254.189 148.876 253.834C148.878 253.838 148.88 253.842 148.883 253.846C149.818 256.728 153.406 257.314 156.368 257.584C159.509 257.584 162.359 257.1 164.46 256.316C165.982 257.142 167.993 257.421 169.778 257.584C173.673 257.584 177.123 256.841 179.248 255.702C180.705 256.361 182.508 256.604 184.126 256.752C186.397 256.752 188.517 256.498 190.312 256.062C191.858 257.423 194.402 257.799 196.603 258C203.061 258 208.297 255.963 208.297 253.45C208.297 253.078 208.296 252.695 208.258 252.315C209.233 252.973 210.656 253.173 211.903 253.284C213.276 253.284 214.561 253.137 215.658 252.886C217.448 253.854 220.865 253.965 223.404 253.12C226.009 252.253 229.147 251.209 224.955 249.671C223.964 249.463 223.143 249.316 222.419 249.237C223.814 248.357 224.806 247.411 221.629 246.872C219.088 246.775 217.968 246.896 216.773 247.772C215.902 247.614 214.719 247.554 213.114 247.635C213.226 247.441 213.287 247.24 213.287 247.033C213.287 246.201 213.286 245.278 212.128 244.701C212.635 243.892 212.444 243.173 209.668 243.023C207.222 243.198 206.188 243.426 205.505 244.337C205.492 244.339 205.479 244.341 205.467 244.344C205.315 241.162 204.119 238.047 194.708 239.273C194.296 239.391 193.903 239.505 193.527 239.617Z" fill="url(#paint20_linear_5_113)"/>
</g>
<g filter="url(#filter14_dg_5_113)">
<path d="M133.53 234.209C131.838 233.071 129.046 232.612 124.437 233.378C116.641 236.206 114.925 237.886 116.952 243.895C117.115 244.881 117.362 245.73 117.669 246.462C117.419 247.4 117.477 248.495 117.805 249.848C116.166 251.365 115.626 253.11 115.951 255.723C115.708 256.967 115.965 258.489 116.641 260.493C117.137 263.493 118.379 265.224 119.878 266.268C121.44 268.447 123.754 269.099 125.777 269.461C127.95 269.461 129.983 269.008 131.726 268.22C133.182 269.512 134.984 269.988 136.602 270.278C143.06 270.278 148.296 266.281 148.296 261.351C148.296 260.622 148.296 259.871 148.258 259.126C149.233 260.416 150.655 260.807 151.902 261.026C153.277 261.026 154.564 260.741 155.662 260.248C157.452 262.144 160.866 262.361 163.404 260.704C166.009 259.003 169.147 256.952 164.955 253.935C163.965 253.528 163.144 253.235 162.421 253.082C163.814 251.355 164.802 249.502 161.628 248.445C159.086 248.255 157.967 248.491 156.772 250.212C155.901 249.901 154.719 249.782 153.113 249.942C153.225 249.562 153.286 249.167 153.286 248.761C153.286 247.129 153.285 245.317 152.127 244.185C152.633 242.597 152.443 241.187 149.667 240.893C147.22 241.235 146.187 241.683 145.504 243.471C145.491 243.476 145.478 243.48 145.466 243.485C145.314 237.243 144.118 231.129 134.707 233.536C134.296 233.765 133.905 233.99 133.53 234.209ZM93.2861 250.084C92.0152 248.212 89.2075 247.109 83.0078 248.014C75.4551 250.42 73.7932 251.849 75.7568 256.961C76.6632 261.773 80.1378 262.751 83.0078 263.202C85.1558 263.202 87.1645 262.802 88.876 262.106C88.8782 262.113 88.8796 262.12 88.8818 262.126C89.8175 267.782 93.4046 268.931 96.3672 269.461C102.826 269.461 108.062 265.464 108.062 260.535C108.062 257.354 108.061 253.754 104.921 252.121C104.802 249.461 103.935 246.898 97.6318 247.924C95.4901 248.685 94.0834 249.311 93.2861 250.084Z" fill="url(#paint21_linear_5_113)"/>
</g>
<g filter="url(#filter15_dg_5_113)">
<path d="M233.531 240.21C231.839 239.071 229.047 238.613 224.438 239.379C216.642 242.207 214.926 243.886 216.953 249.896C217.116 250.882 217.363 251.73 217.67 252.463C217.42 253.4 217.478 254.496 217.806 255.849C216.167 257.365 215.627 259.11 215.952 261.724C215.709 262.968 215.966 264.489 216.642 266.493C217.138 269.493 218.38 271.224 219.879 272.269C221.441 274.448 223.754 275.1 225.778 275.462C227.951 275.462 229.984 275.008 231.727 274.221C233.183 275.512 234.985 275.989 236.603 276.278C243.061 276.278 248.297 272.281 248.297 267.352C248.297 266.623 248.297 265.871 248.259 265.127C249.234 266.416 250.656 266.808 251.903 267.026C253.278 267.026 254.565 266.742 255.663 266.248C257.453 268.145 260.867 268.362 263.405 266.704C266.01 265.003 269.148 262.953 264.956 259.936C263.966 259.528 263.145 259.236 262.422 259.082C263.815 257.355 264.803 255.503 261.629 254.445C259.087 254.256 257.968 254.491 256.773 256.213C255.902 255.902 254.72 255.783 253.114 255.942C253.226 255.562 253.287 255.167 253.287 254.762C253.287 253.13 253.286 251.318 252.128 250.186C252.634 248.598 252.444 247.187 249.668 246.894C247.221 247.235 246.188 247.684 245.505 249.472C245.492 249.476 245.479 249.481 245.467 249.485C245.315 243.243 244.119 237.13 234.708 239.536C234.297 239.765 233.906 239.99 233.531 240.21ZM193.287 256.085C192.016 254.213 189.208 253.11 183.009 254.015C175.456 256.421 173.794 257.849 175.758 262.962C176.664 267.774 180.139 268.751 183.009 269.202C185.157 269.202 187.165 268.802 188.877 268.106C188.879 268.113 188.881 268.12 188.883 268.127C189.818 273.783 193.406 274.932 196.368 275.462C202.827 275.462 208.062 271.465 208.062 266.535C208.062 263.355 208.062 259.754 204.922 258.121C204.803 255.461 203.936 252.899 197.633 253.925C195.491 254.686 194.084 255.311 193.287 256.085Z" fill="url(#paint22_linear_5_113)"/>
</g>
<g filter="url(#filter16_dg_5_113)">
<path d="M297.565 237.012C295.793 236.766 293.008 237.07 288.56 238.335C282.631 240.672 280.488 241.883 281.213 243.63C279.609 243.79 277.554 244.201 274.914 244.951C269.349 247.145 267.119 248.348 267.465 249.931C266.484 250.042 265.243 250.297 263.67 250.742C259.622 252.319 258.393 253.066 259.234 254.304C254.984 256.224 254.375 257.395 256.467 259.521C257.937 262.171 261.569 262.059 264.528 261.758C266.752 261.324 268.779 260.672 270.455 259.903C271.19 259.634 271.874 259.345 272.494 259.042C274.094 259.472 276.001 259.363 277.69 259.191C281.514 258.446 284.758 257.057 286.626 255.532C288.18 255.899 289.995 255.793 291.61 255.628C291.611 255.628 291.612 255.629 291.614 255.629L291.614 255.628L291.615 255.628C293.844 255.194 295.875 254.539 297.553 253.768C299.332 254.808 301.9 254.69 304.098 254.466C310.438 253.23 315.188 250.228 314.707 247.762C314.636 247.397 314.561 247.022 314.452 246.657C315.535 247.115 316.97 247.039 318.215 246.91C319.563 246.647 320.796 246.255 321.825 245.799C323.767 246.406 327.142 245.863 329.472 244.548C331.863 243.198 334.743 241.572 330.334 240.865C329.321 240.85 328.487 240.863 327.762 240.924C328.963 239.793 329.754 238.675 326.533 238.754C324.021 239.146 322.945 239.478 321.94 240.567C321.055 240.578 319.882 240.745 318.322 241.132C318.395 240.921 318.416 240.712 318.377 240.51C318.218 239.693 318.04 238.786 316.793 238.441C317.135 237.55 316.811 236.881 314.058 237.265C311.69 237.905 310.719 238.327 310.222 239.351C310.21 239.356 310.199 239.362 310.186 239.366C309.429 236.273 307.659 233.443 298.656 236.448C298.275 236.641 297.912 236.83 297.565 237.012Z" fill="url(#paint23_linear_5_113)"/>
</g>
<g filter="url(#filter17_dg_5_113)">
<path d="M263.18 235.497C261.585 234.707 258.961 234.498 254.601 235.356C247.56 237.859 246.061 239.172 248.206 243.386C248.684 245.096 249.566 246.189 250.632 246.898C248.721 247.873 248.66 248.921 249.989 250.672C251.109 253.489 254.726 253.843 257.7 253.921C259.288 253.818 260.795 253.596 262.16 253.283C267.63 252.56 271.69 250.429 271.545 248.186C271.545 248.181 271.545 248.176 271.544 248.171C271.923 248.203 272.302 248.219 272.665 248.228C274.035 248.14 275.307 247.909 276.386 247.587C278.234 248.438 281.651 248.33 284.13 247.323C286.673 246.289 289.739 245.044 285.456 243.78C284.454 243.636 283.625 243.542 282.897 243.51C284.233 242.542 285.161 241.535 281.956 241.202C279.415 241.27 278.305 241.462 277.17 242.413C276.29 242.311 275.106 242.328 273.509 242.512C273.608 242.312 273.656 242.107 273.642 241.901C273.589 241.071 273.528 240.149 272.335 239.648C272.7 238.97 272.618 238.381 271.116 238.194C270.688 236.507 269.208 235.068 263.18 235.497ZM241.932 244.544C241.77 242.036 241.574 239.014 229.968 240.758C224.168 242.222 221.803 243.131 221.945 244.746C220.958 244.731 219.695 244.825 218.077 245.065C215.963 245.59 214.578 246 213.808 246.446C212.478 245.576 209.641 245.194 203.486 246.054C196.028 247.765 194.416 248.599 196.544 251.073C197.607 253.462 201.106 253.735 203.985 253.779C206.129 253.64 208.12 253.306 209.805 252.842C209.807 252.845 209.809 252.849 209.812 252.852C210.931 255.669 214.548 256.023 217.522 256.101C220.656 255.899 223.47 255.232 225.516 254.314C227.087 255.04 229.112 255.189 230.904 255.236C237.349 254.82 242.442 252.449 242.28 249.942C242.204 248.768 242.122 247.481 240.865 246.624C241.591 245.97 241.979 245.263 241.932 244.544Z" fill="url(#paint24_linear_5_113)"/>
</g>
<g filter="url(#filter18_dg_5_113)">
<path d="M92.5303 221.209C90.8383 220.071 88.0461 219.612 83.4375 220.378C77.174 222.651 74.8383 224.181 75.2119 227.811C73.6068 227.517 71.5116 227.542 68.7773 227.997C62.8949 230.13 60.4759 231.61 60.5127 234.79C59.5286 234.635 58.2619 234.659 56.6318 234.924C54.4902 235.685 53.0834 236.311 52.2861 237.084C51.0152 235.212 48.2073 234.109 42.0078 235.014C34.4552 237.42 32.7933 238.849 34.7568 243.961C35.6632 248.773 39.1378 249.752 42.0078 250.203C44.1563 250.203 46.1652 249.801 47.877 249.105C47.8793 249.112 47.8805 249.119 47.8828 249.126C48.8184 254.783 52.4046 255.931 55.3672 256.461C58.5081 256.461 61.358 255.514 63.459 253.976C64.9808 255.596 66.9917 256.142 68.7773 256.461C72.673 256.461 76.1218 255.006 78.2471 252.77C79.7039 254.063 81.5067 254.539 83.125 254.829C85.3967 254.829 87.516 254.332 89.3105 253.476C90.8574 256.147 93.4006 256.884 95.6016 257.278C102.06 257.278 107.296 253.281 107.296 248.351C107.296 244.836 107.295 240.809 103.058 239.491C103.966 237.636 104.488 235.486 104.488 233.193C104.488 226.203 104.488 217.78 93.707 220.537C93.2966 220.766 92.9046 220.99 92.5303 221.209ZM124.668 227.894C122.22 228.236 121.186 228.683 120.503 230.471C116.555 231.913 115.347 232.921 115.965 235.591C115.572 236.143 115.437 236.78 115.525 237.587C115.388 237.806 115.246 238.044 115.102 238.304C113.432 240.694 113.984 241.763 114.582 242.481C114.889 242.681 115.229 242.822 115.591 242.909C113.718 244.777 114.057 246.1 114.522 247.096C116.271 249.133 119.799 249.405 122.403 247.704C122.875 247.395 123.365 247.076 123.825 246.741C124.741 247.551 125.88 247.847 126.902 248.026C130.939 248.026 134.212 245.581 134.212 242.564C134.212 239.724 134.212 236.336 128.113 236.942C128.225 236.562 128.286 236.167 128.286 235.761C128.286 234.129 128.285 232.317 127.127 231.185C127.633 229.597 127.443 228.188 124.668 227.894Z" fill="url(#paint25_linear_5_113)"/>
</g>
<g filter="url(#filter19_dg_5_113)">
<path d="M450.554 224.707C452.279 224.234 455.08 224.173 459.654 224.851C465.837 226.399 468.119 227.323 467.626 229.149C469.237 229.1 471.327 229.239 474.042 229.641C479.845 231.094 482.211 231.999 482.073 233.614C483.06 233.597 484.324 233.687 485.942 233.924C488.058 234.446 489.444 234.852 490.214 235.296C491.543 234.424 494.379 234.036 500.536 234.884C507.997 236.579 509.61 237.41 507.488 239.888C506.43 242.279 502.931 242.56 500.052 242.61C497.908 242.475 495.916 242.146 494.229 241.685C494.227 241.688 494.225 241.692 494.223 241.695C493.109 244.514 489.493 244.875 486.52 244.959C483.385 244.763 480.571 244.102 478.523 243.189C476.952 243.918 474.928 244.071 473.136 244.122C469.248 243.879 465.852 242.922 463.802 241.652C462.307 242.218 460.492 242.349 458.868 242.395C456.601 242.253 454.501 241.867 452.738 241.32C451.109 242.582 448.547 242.799 446.338 242.862C439.892 242.458 434.794 240.098 434.951 237.59C434.974 237.219 434.998 236.837 435.059 236.46C434.045 237.055 432.613 237.166 431.361 237.199C429.991 237.114 428.719 236.885 427.639 236.566C425.793 237.421 422.374 237.32 419.892 236.317C417.347 235.289 414.28 234.051 418.56 232.778C419.563 232.632 420.392 232.536 421.119 232.504C419.781 231.537 418.851 230.532 422.055 230.192C424.597 230.255 425.707 230.444 426.844 231.393C427.724 231.289 428.908 231.304 430.506 231.485C430.406 231.285 430.358 231.08 430.371 230.874C430.423 230.044 430.481 229.122 431.673 228.618C431.219 227.779 431.454 227.074 434.233 227.098C436.664 227.425 437.681 227.718 438.306 228.669C438.318 228.672 438.331 228.675 438.343 228.678C438.693 225.512 440.081 222.477 449.397 224.289C449.801 224.431 450.187 224.571 450.554 224.707Z" fill="url(#paint26_linear_5_113)"/>
</g>
<defs>
<filter id="filter0_i_5_113" x="226.321" y="30.2588" width="127.896" height="90.2026" filterUnits="userSpaceOnUse" color-interpolation-filters="sRGB">
<feFlood flood-opacity="0" result="BackgroundImageFix"/>
<feBlend mode="normal" in="SourceGraphic" in2="BackgroundImageFix" result="shape"/>
<feColorMatrix in="SourceAlpha" type="matrix" values="0 0 0 0 0 0 0 0 0 0 0 0 0 0 0 0 0 0 127 0" result="hardAlpha"/>
<feOffset dx="-5.9931" dy="-55.754"/>
<feGaussianBlur stdDeviation="1.23494"/>
<feComposite in2="hardAlpha" operator="arithmetic" k2="-1" k3="1"/>
<feColorMatrix type="matrix" values="0 0 0 0 0.033221 0 0 0 0 0.577712 0 0 0 0 0.468814 0 0 0 0.25 0"/>
<feBlend mode="normal" in2="shape" result="effect1_innerShadow_5_113"/>
</filter>
<filter id="filter1_i_5_113" x="291.917" y="72.1468" width="58.1507" height="49.4746" filterUnits="userSpaceOnUse" color-interpolation-filters="sRGB">
<feFlood flood-opacity="0" result="BackgroundImageFix"/>
<feBlend mode="normal" in="SourceGraphic" in2="BackgroundImageFix" result="shape"/>
<feColorMatrix in="SourceAlpha" type="matrix" values="0 0 0 0 0 0 0 0 0 0 0 0 0 0 0 0 0 0 127 0" result="hardAlpha"/>
<feOffset dx="10.7149" dy="-12.531"/>
<feGaussianBlur stdDeviation="0.726437"/>
<feComposite in2="hardAlpha" operator="arithmetic" k2="-1" k3="1"/>
<feColorMatrix type="matrix" values="0 0 0 0 0 0 0 0 0 0.310904 0 0 0 0 0.339168 0 0 0 0.25 0"/>
<feBlend mode="normal" in2="shape" result="effect1_innerShadow_5_113"/>
</filter>
<filter id="filter2_i_5_113" x="216.185" y="103.866" width="38.9401" height="36.3769" filterUnits="userSpaceOnUse" color-interpolation-filters="sRGB">
<feFlood flood-opacity="0" result="BackgroundImageFix"/>
<feBlend mode="normal" in="SourceGraphic" in2="BackgroundImageFix" result="shape"/>
<feColorMatrix in="SourceAlpha" type="matrix" values="0 0 0 0 0 0 0 0 0 0 0 0 0 0 0 0 0 0 127 0" result="hardAlpha"/>
<feOffset dx="-10.7149" dy="-5.08506"/>
<feGaussianBlur stdDeviation="0.726437"/>
<feComposite in2="hardAlpha" operator="arithmetic" k2="-1" k3="1"/>
<feColorMatrix type="matrix" values="0 0 0 0 0 0 0 0 0 0.295407 0 0 0 0 0.361722 0 0 0 0.25 0"/>
<feBlend mode="normal" in2="shape" result="effect1_innerShadow_5_113"/>
</filter>
<filter id="filter3_i_5_113" x="218.508" y="74.2439" width="50.1925" height="49.4314" filterUnits="userSpaceOnUse" color-interpolation-filters="sRGB">
<feFlood flood-opacity="0" result="BackgroundImageFix"/>
<feBlend mode="normal" in="SourceGraphic" in2="BackgroundImageFix" result="shape"/>
<feColorMatrix in="SourceAlpha" type="matrix" values="0 0 0 0 0 0 0 0 0 0 0 0 0 0 0 0 0 0 127 0" result="hardAlpha"/>
<feOffset dx="-10.3517" dy="-13.0759"/>
<feGaussianBlur stdDeviation="1.32575"/>
<feComposite in2="hardAlpha" operator="arithmetic" k2="-1" k3="1"/>
<feColorMatrix type="matrix" values="0 0 0 0 0 0 0 0 0 0.349947 0 0 0 0 0.256628 0 0 0 0.25 0"/>
<feBlend mode="normal" in2="shape" result="effect1_innerShadow_5_113"/>
</filter>
<filter id="filter4_i_5_113" x="268.558" y="55.5461" width="58.3751" height="44.9701" filterUnits="userSpaceOnUse" color-interpolation-filters="sRGB">
<feFlood flood-opacity="0" result="BackgroundImageFix"/>
<feBlend mode="normal" in="SourceGraphic" in2="BackgroundImageFix" result="shape"/>
<feColorMatrix in="SourceAlpha" type="matrix" values="0 0 0 0 0 0 0 0 0 0 0 0 0 0 0 0 0 0 127 0" result="hardAlpha"/>
<feOffset dy="-21.9747"/>
<feGaussianBlur stdDeviation="0.726437"/>
<feComposite in2="hardAlpha" operator="arithmetic" k2="-1" k3="1"/>
<feColorMatrix type="matrix" values="0 0 0 0 0.0261306 0 0 0 0 0.405801 0 0 0 0 0.440317 0 0 0 0.25 0"/>
<feBlend mode="normal" in2="shape" result="effect1_innerShadow_5_113"/>
</filter>
<filter id="filter5_i_5_113" x="197.342" y="143.874" width="62.403" height="52.9502" filterUnits="userSpaceOnUse" color-interpolation-filters="sRGB">
<feFlood flood-opacity="0" result="BackgroundImageFix"/>
<feBlend mode="normal" in="SourceGraphic" in2="BackgroundImageFix" result="shape"/>
<feColorMatrix in="SourceAlpha" type="matrix" values="0 0 0 0 0 0 0 0 0 0 0 0 0 0 0 0 0 0 127 0" result="hardAlpha"/>
<feOffset dx="-4.13159" dy="-38.4363"/>
<feGaussianBlur stdDeviation="0.851358"/>
<feComposite in2="hardAlpha" operator="arithmetic" k2="-1" k3="1"/>
<feColorMatrix type="matrix" values="0 0 0 0 0.033221 0 0 0 0 0.577712 0 0 0 0 0.468814 0 0 0 0.25 0"/>
<feBlend mode="normal" in2="shape" result="effect1_innerShadow_5_113"/>
</filter>
<filter id="filter6_i_5_113" x="201.386" y="166.907" width="28.0492" height="21.5685" filterUnits="userSpaceOnUse" color-interpolation-filters="sRGB">
<feFlood flood-opacity="0" result="BackgroundImageFix"/>
<feBlend mode="normal" in="SourceGraphic" in2="BackgroundImageFix" result="shape"/>
<feColorMatrix in="SourceAlpha" type="matrix" values="0 0 0 0 0 0 0 0 0 0 0 0 0 0 0 0 0 0 127 0" result="hardAlpha"/>
<feOffset dx="7.38678" dy="-8.63878"/>
<feGaussianBlur stdDeviation="0.500799"/>
<feComposite in2="hardAlpha" operator="arithmetic" k2="-1" k3="1"/>
<feColorMatrix type="matrix" values="0 0 0 0 0 0 0 0 0 0.310904 0 0 0 0 0.339168 0 0 0 0.25 0"/>
<feBlend mode="normal" in2="shape" result="effect1_innerShadow_5_113"/>
</filter>
<filter id="filter7_i_5_113" x="252.098" y="160.124" width="25.4098" height="19.5586" filterUnits="userSpaceOnUse" color-interpolation-filters="sRGB">
<feFlood flood-opacity="0" result="BackgroundImageFix"/>
<feBlend mode="normal" in="SourceGraphic" in2="BackgroundImageFix" result="shape"/>
<feColorMatrix in="SourceAlpha" type="matrix" values="0 0 0 0 0 0 0 0 0 0 0 0 0 0 0 0 0 0 127 0" result="hardAlpha"/>
<feOffset dx="-7.13638" dy="-9.01437"/>
<feGaussianBlur stdDeviation="0.913957"/>
<feComposite in2="hardAlpha" operator="arithmetic" k2="-1" k3="1"/>
<feColorMatrix type="matrix" values="0 0 0 0 0 0 0 0 0 0.349947 0 0 0 0 0.256628 0 0 0 0.25 0"/>
<feBlend mode="normal" in2="shape" result="effect1_innerShadow_5_113"/>
</filter>
<filter id="filter8_i_5_113" x="205.289" y="186.067" width="17.7374" height="17.2272" filterUnits="userSpaceOnUse" color-interpolation-filters="sRGB">
<feFlood flood-opacity="0" result="BackgroundImageFix"/>
<feBlend mode="normal" in="SourceGraphic" in2="BackgroundImageFix" result="shape"/>
<feColorMatrix in="SourceAlpha" type="matrix" values="0 0 0 0 0 0 0 0 0 0 0 0 0 0 0 0 0 0 127 0" result="hardAlpha"/>
<feOffset dy="-15.1492"/>
<feGaussianBlur stdDeviation="0.500799"/>
<feComposite in2="hardAlpha" operator="arithmetic" k2="-1" k3="1"/>
<feColorMatrix type="matrix" values="0 0 0 0 0.0261306 0 0 0 0 0.405801 0 0 0 0 0.440317 0 0 0 0.25 0"/>
<feBlend mode="normal" in2="shape" result="effect1_innerShadow_5_113"/>
</filter>
<filter id="filter9_i_5_113" x="284.595" y="93.808" width="102.554" height="86.848" filterUnits="userSpaceOnUse" color-interpolation-filters="sRGB">
<feFlood flood-opacity="0" result="BackgroundImageFix"/>
<feBlend mode="normal" in="SourceGraphic" in2="BackgroundImageFix" result="shape"/>
<feColorMatrix in="SourceAlpha" type="matrix" values="0 0 0 0 0 0 0 0 0 0 0 0 0 0 0 0 0 0 127 0" result="hardAlpha"/>
<feOffset dx="-4.13159" dy="-38.4363"/>
<feGaussianBlur stdDeviation="0.851358"/>
<feComposite in2="hardAlpha" operator="arithmetic" k2="-1" k3="1"/>
<feColorMatrix type="matrix" values="0 0 0 0 0.033221 0 0 0 0 0.577712 0 0 0 0 0.468814 0 0 0 0.25 0"/>
<feBlend mode="normal" in2="shape" result="effect1_innerShadow_5_113"/>
</filter>
<filter id="filter10_i_5_113" x="338.319" y="131.611" width="45.94" height="35.1726" filterUnits="userSpaceOnUse" color-interpolation-filters="sRGB">
<feFlood flood-opacity="0" result="BackgroundImageFix"/>
<feBlend mode="normal" in="SourceGraphic" in2="BackgroundImageFix" result="shape"/>
<feColorMatrix in="SourceAlpha" type="matrix" values="0 0 0 0 0 0 0 0 0 0 0 0 0 0 0 0 0 0 127 0" result="hardAlpha"/>
<feOffset dx="7.38678" dy="-8.63878"/>
<feGaussianBlur stdDeviation="0.500799"/>
<feComposite in2="hardAlpha" operator="arithmetic" k2="-1" k3="1"/>
<feColorMatrix type="matrix" values="0 0 0 0 0 0 0 0 0 0.310904 0 0 0 0 0.339168 0 0 0 0.25 0"/>
<feBlend mode="normal" in2="shape" result="effect1_innerShadow_5_113"/>
</filter>
<filter id="filter11_i_5_113" x="279.88" y="120.889" width="41.0082" height="31.2867" filterUnits="userSpaceOnUse" color-interpolation-filters="sRGB">
<feFlood flood-opacity="0" result="BackgroundImageFix"/>
<feBlend mode="normal" in="SourceGraphic" in2="BackgroundImageFix" result="shape"/>
<feColorMatrix in="SourceAlpha" type="matrix" values="0 0 0 0 0 0 0 0 0 0 0 0 0 0 0 0 0 0 127 0" result="hardAlpha"/>
<feOffset dx="-7.13638" dy="-9.01437"/>
<feGaussianBlur stdDeviation="0.913957"/>
<feComposite in2="hardAlpha" operator="arithmetic" k2="-1" k3="1"/>
<feColorMatrix type="matrix" values="0 0 0 0 0 0 0 0 0 0.349947 0 0 0 0 0.256628 0 0 0 0.25 0"/>
<feBlend mode="normal" in2="shape" result="effect1_innerShadow_5_113"/>
</filter>
<filter id="filter12_i_5_113" x="347.303" y="163.446" width="29.47" height="27.9597" filterUnits="userSpaceOnUse" color-interpolation-filters="sRGB">
<feFlood flood-opacity="0" result="BackgroundImageFix"/>
<feBlend mode="normal" in="SourceGraphic" in2="BackgroundImageFix" result="shape"/>
<feColorMatrix in="SourceAlpha" type="matrix" values="0 0 0 0 0 0 0 0 0 0 0 0 0 0 0 0 0 0 127 0" result="hardAlpha"/>
<feOffset dy="-15.1492"/>
<feGaussianBlur stdDeviation="0.500799"/>
<feComposite in2="hardAlpha" operator="arithmetic" k2="-1" k3="1"/>
<feColorMatrix type="matrix" values="0 0 0 0 0.0261306 0 0 0 0 0.405801 0 0 0 0 0.440317 0 0 0 0.25 0"/>
<feBlend mode="normal" in2="shape" result="effect1_innerShadow_5_113"/>
</filter>
<filter id="filter13_dg_5_113" x="101.352" y="209.431" width="159.296" height="86.2961" filterUnits="userSpaceOnUse" color-interpolation-filters="sRGB">
<feFlood flood-opacity="0" result="BackgroundImageFix"/>
<feColorMatrix in="SourceAlpha" type="matrix" values="0 0 0 0 0 0 0 0 0 0 0 0 0 0 0 0 0 0 127 0" result="hardAlpha"/>
<feOffset dy="4.07856"/>
<feGaussianBlur stdDeviation="16.824"/>
<feComposite in2="hardAlpha" operator="out"/>
<feColorMatrix type="matrix" values="0 0 0 0 0 0 0 0 0 0 0 0 0 0 0 0 0 0 0.17 0"/>
<feBlend mode="normal" in2="BackgroundImageFix" result="effect1_dropShadow_5_113"/>
<feBlend mode="normal" in="SourceGraphic" in2="effect1_dropShadow_5_113" result="shape"/>
<feTurbulence type="fractalNoise" baseFrequency="0.12736871838569641 0.12736871838569641" numOctaves="3" seed="5311" />
<feDisplacementMap in="shape" scale="11.623885154724121" xChannelSelector="R" yChannelSelector="G" result="displacedImage" width="100%" height="100%" />
<feMerge result="effect2_texture_5_113">
<feMergeNode in="displacedImage"/>
</feMerge>
</filter>
<filter id="filter14_dg_5_113" x="41.3512" y="203.43" width="159.297" height="104.575" filterUnits="userSpaceOnUse" color-interpolation-filters="sRGB">
<feFlood flood-opacity="0" result="BackgroundImageFix"/>
<feColorMatrix in="SourceAlpha" type="matrix" values="0 0 0 0 0 0 0 0 0 0 0 0 0 0 0 0 0 0 127 0" result="hardAlpha"/>
<feOffset dy="4.07856"/>
<feGaussianBlur stdDeviation="16.824"/>
<feComposite in2="hardAlpha" operator="out"/>
<feColorMatrix type="matrix" values="0 0 0 0 0 0 0 0 0 0 0 0 0 0 0 0 0 0 0.17 0"/>
<feBlend mode="normal" in2="BackgroundImageFix" result="effect1_dropShadow_5_113"/>
<feBlend mode="normal" in="SourceGraphic" in2="effect1_dropShadow_5_113" result="shape"/>
<feTurbulence type="fractalNoise" baseFrequency="0.12736871838569641 0.12736871838569641" numOctaves="3" seed="5311" />
<feDisplacementMap in="shape" scale="11.623885154724121" xChannelSelector="R" yChannelSelector="G" result="displacedImage" width="100%" height="100%" />
<feMerge result="effect2_texture_5_113">
<feMergeNode in="displacedImage"/>
</feMerge>
</filter>
<filter id="filter15_dg_5_113" x="141.352" y="209.43" width="159.297" height="104.575" filterUnits="userSpaceOnUse" color-interpolation-filters="sRGB">
<feFlood flood-opacity="0" result="BackgroundImageFix"/>
<feColorMatrix in="SourceAlpha" type="matrix" values="0 0 0 0 0 0 0 0 0 0 0 0 0 0 0 0 0 0 127 0" result="hardAlpha"/>
<feOffset dy="4.07856"/>
<feGaussianBlur stdDeviation="16.824"/>
<feComposite in2="hardAlpha" operator="out"/>
<feColorMatrix type="matrix" values="0 0 0 0 0 0 0 0 0 0 0 0 0 0 0 0 0 0 0.17 0"/>
<feBlend mode="normal" in2="BackgroundImageFix" result="effect1_dropShadow_5_113"/>
<feBlend mode="normal" in="SourceGraphic" in2="effect1_dropShadow_5_113" result="shape"/>
<feTurbulence type="fractalNoise" baseFrequency="0.12736871838569641 0.12736871838569641" numOctaves="3" seed="5311" />
<feDisplacementMap in="shape" scale="11.623885154724121" xChannelSelector="R" yChannelSelector="G" result="displacedImage" width="100%" height="100%" />
<feMerge result="effect2_texture_5_113">
<feMergeNode in="displacedImage"/>
</feMerge>
</filter>
<filter id="filter16_dg_5_113" x="221.653" y="205.599" width="144.624" height="94.0378" filterUnits="userSpaceOnUse" color-interpolation-filters="sRGB">
<feFlood flood-opacity="0" result="BackgroundImageFix"/>
<feColorMatrix in="SourceAlpha" type="matrix" values="0 0 0 0 0 0 0 0 0 0 0 0 0 0 0 0 0 0 127 0" result="hardAlpha"/>
<feOffset dy="4.07856"/>
<feGaussianBlur stdDeviation="16.824"/>
<feComposite in2="hardAlpha" operator="out"/>
<feColorMatrix type="matrix" values="0 0 0 0 0 0 0 0 0 0 0 0 0 0 0 0 0 0 0.17 0"/>
<feBlend mode="normal" in2="BackgroundImageFix" result="effect1_dropShadow_5_113"/>
<feBlend mode="normal" in="SourceGraphic" in2="effect1_dropShadow_5_113" result="shape"/>
<feTurbulence type="fractalNoise" baseFrequency="0.12736871838569641 0.12736871838569641" numOctaves="3" seed="5311" />
<feDisplacementMap in="shape" scale="11.623885154724121" xChannelSelector="R" yChannelSelector="G" result="displacedImage" width="100%" height="100%" />
<feMerge result="effect2_texture_5_113">
<feMergeNode in="displacedImage"/>
</feMerge>
</filter>
<filter id="filter17_dg_5_113" x="162.031" y="205.232" width="159.208" height="88.5954" filterUnits="userSpaceOnUse" color-interpolation-filters="sRGB">
<feFlood flood-opacity="0" result="BackgroundImageFix"/>
<feColorMatrix in="SourceAlpha" type="matrix" values="0 0 0 0 0 0 0 0 0 0 0 0 0 0 0 0 0 0 127 0" result="hardAlpha"/>
<feOffset dy="4.07856"/>
<feGaussianBlur stdDeviation="16.824"/>
<feComposite in2="hardAlpha" operator="out"/>
<feColorMatrix type="matrix" values="0 0 0 0 0 0 0 0 0 0 0 0 0 0 0 0 0 0 0.17 0"/>
<feBlend mode="normal" in2="BackgroundImageFix" result="effect1_dropShadow_5_113"/>
<feBlend mode="normal" in="SourceGraphic" in2="effect1_dropShadow_5_113" result="shape"/>
<feTurbulence type="fractalNoise" baseFrequency="0.12736871838569641 0.12736871838569641" numOctaves="3" seed="5311" />
<feDisplacementMap in="shape" scale="11.623885154724121" xChannelSelector="R" yChannelSelector="G" result="displacedImage" width="100%" height="100%" />
<feMerge result="effect2_texture_5_113">
<feMergeNode in="displacedImage"/>
</feMerge>
</filter>
<filter id="filter18_dg_5_113" x="0.351299" y="190.431" width="167.509" height="104.574" filterUnits="userSpaceOnUse" color-interpolation-filters="sRGB">
<feFlood flood-opacity="0" result="BackgroundImageFix"/>
<feColorMatrix in="SourceAlpha" type="matrix" values="0 0 0 0 0 0 0 0 0 0 0 0 0 0 0 0 0 0 127 0" result="hardAlpha"/>
<feOffset dy="4.07856"/>
<feGaussianBlur stdDeviation="16.824"/>
<feComposite in2="hardAlpha" operator="out"/>
<feColorMatrix type="matrix" values="0 0 0 0 0 0 0 0 0 0 0 0 0 0 0 0 0 0 0.17 0"/>
<feBlend mode="normal" in2="BackgroundImageFix" result="effect1_dropShadow_5_113"/>
<feBlend mode="normal" in="SourceGraphic" in2="effect1_dropShadow_5_113" result="shape"/>
<feTurbulence type="fractalNoise" baseFrequency="0.12736871838569641 0.12736871838569641" numOctaves="3" seed="5311" />
<feDisplacementMap in="shape" scale="11.623885154724121" xChannelSelector="R" yChannelSelector="G" result="displacedImage" width="100%" height="100%" />
<feMerge result="effect2_texture_5_113">
<feMergeNode in="displacedImage"/>
</feMerge>
</filter>
<filter id="filter19_dg_5_113" x="382.779" y="194.175" width="159.218" height="88.5106" filterUnits="userSpaceOnUse" color-interpolation-filters="sRGB">
<feFlood flood-opacity="0" result="BackgroundImageFix"/>
<feColorMatrix in="SourceAlpha" type="matrix" values="0 0 0 0 0 0 0 0 0 0 0 0 0 0 0 0 0 0 127 0" result="hardAlpha"/>
<feOffset dy="4.07856"/>
<feGaussianBlur stdDeviation="16.824"/>
<feComposite in2="hardAlpha" operator="out"/>
<feColorMatrix type="matrix" values="0 0 0 0 0 0 0 0 0 0 0 0 0 0 0 0 0 0 0.17 0"/>
<feBlend mode="normal" in2="BackgroundImageFix" result="effect1_dropShadow_5_113"/>
<feBlend mode="normal" in="SourceGraphic" in2="effect1_dropShadow_5_113" result="shape"/>
<feTurbulence type="fractalNoise" baseFrequency="0.12736871838569641 0.12736871838569641" numOctaves="3" seed="5311" />
<feDisplacementMap in="shape" scale="11.623885154724121" xChannelSelector="R" yChannelSelector="G" result="displacedImage" width="100%" height="100%" />
<feMerge result="effect2_texture_5_113">
<feMergeNode in="displacedImage"/>
</feMerge>
</filter>
<linearGradient id="paint0_linear_5_113" x1="281.018" y1="6.12149" x2="283.561" y2="111.785" gradientUnits="userSpaceOnUse">
<stop offset="0.202239" stop-color="#F7F6A7"/>
<stop offset="0.791956" stop-color="#3C784D"/>
</linearGradient>
<linearGradient id="paint1_linear_5_113" x1="282.561" y1="72.6559" x2="269.263" y2="215.155" gradientUnits="userSpaceOnUse">
<stop stop-color="#3D5A44"/>
<stop offset="0.701923" stop-color="#8E6635"/>
<stop offset="0.975962" stop-color="#8E6635" stop-opacity="0.06"/>
</linearGradient>
<linearGradient id="paint2_linear_5_113" x1="341.185" y1="72.8393" x2="319.401" y2="120.601" gradientUnits="userSpaceOnUse">
<stop stop-color="#9CBF7C"/>
<stop offset="0.741107" stop-color="#326F40"/>
</linearGradient>
<linearGradient id="paint3_linear_5_113" x1="228.877" y1="-0.021199" x2="224.434" y2="139.464" gradientUnits="userSpaceOnUse">
<stop stop-color="#9FC480"/>
<stop offset="0.950658" stop-color="#527A4A"/>
</linearGradient>
<linearGradient id="paint4_linear_5_113" x1="241.568" y1="63.3611" x2="239.013" y2="127.874" gradientUnits="userSpaceOnUse">
<stop stop-color="#A1C682"/>
<stop offset="1" stop-color="#266741"/>
</linearGradient>
<linearGradient id="paint5_linear_5_113" x1="304.308" y1="46.2932" x2="301.205" y2="99.0816" gradientUnits="userSpaceOnUse">
<stop offset="0.252677" stop-color="#A3C984"/>
<stop offset="1" stop-color="#3D653A"/>
</linearGradient>
<linearGradient id="paint6_linear_5_113" x1="224.554" y1="136.397" x2="236.184" y2="176.672" gradientUnits="userSpaceOnUse">
<stop offset="0.202239" stop-color="#F7F6A7"/>
<stop offset="0.791956" stop-color="#3C784D"/>
</linearGradient>
<linearGradient id="paint7_linear_5_113" x1="223.475" y1="143.913" x2="243.101" y2="225.854" gradientUnits="userSpaceOnUse">
<stop stop-color="#3D5A44"/>
<stop offset="0.358286" stop-color="#4B5C42"/>
<stop offset="0.64294" stop-color="#8E6635" stop-opacity="0.74"/>
<stop offset="0.970732" stop-color="#8E6635" stop-opacity="0"/>
</linearGradient>
<linearGradient id="paint8_linear_5_113" x1="202.521" y1="170.893" x2="215.217" y2="187.874" gradientUnits="userSpaceOnUse">
<stop stop-color="#9CBF7C"/>
<stop offset="0.741107" stop-color="#326F40"/>
</linearGradient>
<linearGradient id="paint9_linear_5_113" x1="263.777" y1="157.112" x2="272.095" y2="181.275" gradientUnits="userSpaceOnUse">
<stop stop-color="#A1C682"/>
<stop offset="1" stop-color="#266741"/>
</linearGradient>
<linearGradient id="paint10_linear_5_113" x1="205.332" y1="200.385" x2="215.557" y2="188.932" gradientUnits="userSpaceOnUse">
<stop offset="0.252677" stop-color="#A3C984"/>
<stop offset="1" stop-color="#3D653A"/>
</linearGradient>
<linearGradient id="paint11_linear_5_113" x1="344.767" y1="80.2591" x2="325.443" y2="147.174" gradientUnits="userSpaceOnUse">
<stop offset="0.202239" stop-color="#F7F6A7"/>
<stop offset="0.791956" stop-color="#3C784D"/>
</linearGradient>
<linearGradient id="paint12_linear_5_113" x1="346.559" y1="92.7452" x2="313.951" y2="228.889" gradientUnits="userSpaceOnUse">
<stop stop-color="#3D5A44"/>
<stop offset="0.358286" stop-color="#4B5C42"/>
<stop offset="0.64294" stop-color="#8E6635" stop-opacity="0.74"/>
<stop offset="0.970732" stop-color="#8E6635" stop-opacity="0"/>
</linearGradient>
<linearGradient id="paint13_linear_5_113" x1="381.372" y1="137.571" x2="360.277" y2="165.784" gradientUnits="userSpaceOnUse">
<stop stop-color="#9CBF7C"/>
<stop offset="0.741107" stop-color="#326F40"/>
</linearGradient>
<linearGradient id="paint14_linear_5_113" x1="304.52" y1="114.675" x2="290.7" y2="154.821" gradientUnits="userSpaceOnUse">
<stop stop-color="#A1C682"/>
<stop offset="1" stop-color="#266741"/>
</linearGradient>
<linearGradient id="paint15_linear_5_113" x1="376.702" y1="186.571" x2="359.714" y2="167.543" gradientUnits="userSpaceOnUse">
<stop offset="0.252677" stop-color="#A3C984"/>
<stop offset="1" stop-color="#3D653A"/>
</linearGradient>
<radialGradient id="paint16_radial_5_113" cx="0" cy="0" r="1" gradientUnits="userSpaceOnUse" gradientTransform="translate(185 -30) rotate(44.4093) scale(342.965 254.381)">
<stop offset="0.25548" stop-color="#FFDA7E" stop-opacity="0"/>
<stop offset="0.57059" stop-color="#E7FBFF" stop-opacity="0.73"/>
<stop offset="1" stop-color="#50E2FF" stop-opacity="0"/>
</radialGradient>
<linearGradient id="paint17_linear_5_113" x1="188.75" y1="-17.4116" x2="489.5" y2="382.5" gradientUnits="userSpaceOnUse">
<stop offset="0.163396" stop-color="#8ED4FF"/>
<stop offset="0.473368" stop-color="#8CD3FF"/>
<stop offset="0.656463" stop-color="#DCEBF5"/>
<stop offset="0.791088" stop-color="white" stop-opacity="0.1"/>
</linearGradient>
<linearGradient id="paint18_linear_5_113" x1="157" y1="90" x2="206" y2="194" gradientUnits="userSpaceOnUse">
<stop offset="0.287171" stop-color="#44CCD3" stop-opacity="0.08"/>
<stop offset="0.346813" stop-color="#C2F3FF" stop-opacity="0.59"/>
</linearGradient>
<linearGradient id="paint19_linear_5_113" x1="186.75" y1="-20.4116" x2="288.157" y2="302.758" gradientUnits="userSpaceOnUse">
<stop offset="0.223717" stop-color="white"/>
<stop offset="0.446358" stop-color="#DCEBF5"/>
<stop offset="0.791088" stop-color="white" stop-opacity="0.1"/>
</linearGradient>
<linearGradient id="paint20_linear_5_113" x1="181" y1="239" x2="181" y2="258" gradientUnits="userSpaceOnUse">
<stop stop-color="#B0D87D"/>
<stop offset="1" stop-color="#8BAE5D"/>
</linearGradient>
<linearGradient id="paint21_linear_5_113" x1="121" y1="233" x2="121" y2="270.278" gradientUnits="userSpaceOnUse">
<stop stop-color="#B0D87D"/>
<stop offset="1" stop-color="#8BAE5D"/>
</linearGradient>
<linearGradient id="paint22_linear_5_113" x1="221.001" y1="239" x2="221.001" y2="276.278" gradientUnits="userSpaceOnUse">
<stop stop-color="#B0D87D"/>
<stop offset="1" stop-color="#8BAE5D"/>
</linearGradient>
<linearGradient id="paint23_linear_5_113" x1="291.578" y1="237.549" x2="295.215" y2="256.198" gradientUnits="userSpaceOnUse">
<stop stop-color="#B0D87D"/>
<stop offset="1" stop-color="#8BAE5D"/>
</linearGradient>
<linearGradient id="paint24_linear_5_113" x1="240.904" y1="235.967" x2="242.13" y2="254.927" gradientUnits="userSpaceOnUse">
<stop stop-color="#B0D87D"/>
<stop offset="1" stop-color="#8BAE5D"/>
</linearGradient>
<linearGradient id="paint25_linear_5_113" x1="84.1056" y1="220" x2="84.1056" y2="257.278" gradientUnits="userSpaceOnUse">
<stop stop-color="#B0D87D"/>
<stop offset="1" stop-color="#8BAE5D"/>
</linearGradient>
<linearGradient id="paint26_linear_5_113" x1="463.096" y1="224.872" x2="461.909" y2="243.836" gradientUnits="userSpaceOnUse">
<stop stop-color="#B0D87D"/>
<stop offset="1" stop-color="#8BAE5D"/>
</linearGradient>
</defs>
</svg>
