<svg width="322" height="203" viewBox="0 0 322 203" fill="none" xmlns="http://www.w3.org/2000/svg">
<g filter="url(#filter0_i_5_112)">
<path d="M152.224 34.7021C188.224 41.2499 177.376 83.9925 154.91 70.425C128.983 54.7668 122.584 83.2985 114.267 76.0646C105.949 68.8306 102.016 43.1598 123.184 32.7812C128.946 26.1558 143.907 27.4681 152.224 34.7021Z" fill="url(#paint0_linear_5_112)"/>
</g>
<path d="M151.817 50.2668C151.553 54.9486 150.687 56.1818 149.245 57.8662C149.52 61.0157 149.732 62.5464 151.01 65.2929C151.096 65.3164 151.167 65.3073 151.246 65.2748C151.008 63.5706 151.361 62.4129 151.83 60.5905C152.309 59.4065 152.782 58.1707 153.255 55.9529C153.349 53.3342 153.209 52.1717 152.707 50.5522L153.692 50.8365C153.701 52.1505 154.008 52.7987 154.611 53.9743C155.268 52.9006 155.553 52.2173 155.855 50.8133L156.653 51.8858C154.955 55.2718 154.254 57.4181 153.599 60.5715C152.531 64.1729 151.864 63.7374 152.889 67.561C154.175 59.1899 156.535 59.2623 157.448 52.7611L158.144 53.4421C158.349 55.6407 158.146 56.8732 157.123 59.0589C159.195 57.7058 160.109 56.442 161.691 54.0925L161.71 55.862C159.813 58.7371 158.504 60.039 155.977 62.1183L155.14 66.651L157.95 62.6879L159.054 64.8393C157.48 66.6232 156.253 68.1878 155.345 68.8188C157.177 68.7646 158.993 68.3706 159.703 68.0063C161.901 68.9089 163.827 71.7108 164.17 71.8902C163.05 71.7623 158.369 71.9532 155.619 72.1794C155.481 72.0987 155.344 72.0151 155.207 71.9328C157.025 75.1229 158.318 77.1562 160.498 80.2602L158.933 86.7872C156.851 81.0854 155.034 77.7605 151.9 71.6402C151.657 71.974 151.342 72.3707 150.315 72.7276C144.088 87.9359 149.208 88.6676 151.309 91.7952C151.526 111.949 153.666 109.861 156.606 127.232L149.135 127.313C148.679 123.045 147.905 118.405 147.263 113.483C145.987 111.385 144.885 110.619 143.351 110.757C137.609 101.967 134.443 98.3188 126.636 92.3534C123.192 90.5924 121.139 90.0721 117.173 90.1942C115.092 89.3483 113.895 89.0772 111.932 87.3988L108.167 84.7838L110.03 84.4689C112.547 86.279 113.989 87.2714 116.959 88.7189C119.107 89.0639 120.312 88.8899 122.461 88.3648C121.307 86.5436 120.861 85.5879 117.981 83.2037C116.118 83.2164 115.073 83.1951 113.251 82.1714L114.51 80.4869C115.455 81.4338 116.01 81.9425 117.08 81.5404C116.801 80.8061 116.601 80.4047 115.88 79.7837L116.856 79.0856C120.02 83.188 122.437 86.1037 126.403 89.1096C125.495 87.054 124.692 85.4893 119.208 78.3709L120.676 77.7662C121.588 80.4096 123.225 80.8392 124.078 83.1381C124.081 82.2795 124.005 81.7883 123.66 80.8808C123.041 79.2943 122.505 78.5731 121.459 77.3652L122.481 76.8004C121.412 76.2533 120.148 75.4157 118.572 74.1499L118.762 73.4593C121.177 74.2216 122.158 75.0166 123.096 74.1003C119.841 73.1521 118.05 71.2049 116.436 67.486L117.515 67.1794C119.314 69.9132 120.902 71.2731 125.243 72.7012C123.349 70.2638 122.155 68.8292 119.079 66.2788L120.848 66.2598C123.818 68.1941 125.404 69.3569 127.204 72.1889C126.084 68.563 125.887 65.8745 125.618 61.7834L127.088 61.374L128.067 70.115L129.085 73.3484L132.267 76.7558C134.149 78.0135 134.958 80.0689 136.138 80.0562C137.875 81.4724 139.945 84.546 143.025 86.1427C143.161 81.6218 144.945 76.8272 146.462 70.9994C146.349 67.6435 143.174 66.9043 142.144 62.5902C142.501 62.2897 143.161 62.2208 143.91 62.2704C145.722 66.1891 148.351 68.9841 146.172 62.2461C146.715 62.3784 147.043 62.1447 147.351 62.2335C149.161 65.9501 147.623 69.217 149.003 69.4974C149.279 69.6766 149.427 68.2813 149.567 66.9433C148.041 63.5608 147.613 61.332 147.868 57.881C145.46 57.0929 144.262 56.4609 142.428 54.8914L142.906 53.6059C144.872 55.7196 145.831 55.9234 148.245 56.3036C147.863 53.9465 147.693 53.2535 146.134 51.9989L146.618 51.4058C147.704 51.7873 148.107 53.8923 149.308 54.6212C148.801 53.4088 148.395 51.7637 148.478 50.5986L149.261 50.2943C149.045 51.3903 149.122 53.1384 150.178 53.2348C151.062 53.2253 151.057 51.5353 151.225 49.9782L151.817 50.2668ZM122.916 77.0116C124.675 80.2915 125.154 81.8159 125.761 84.2998C126.938 86.9253 127.809 88.1059 129.462 90.0621C133.291 93.5519 135.505 95.5283 138.305 98.7176L146.515 106.654C146.23 103.225 146.094 99.6893 146.24 96.0735C145.302 94.8135 144.601 93.5758 144.097 92.3444L139.572 88.5735L129.818 77.4697C127.179 77.5253 125.71 78.2976 122.916 77.0116ZM151.26 65.3733C151.224 65.4604 151.194 65.5455 151.168 65.6282C151.242 65.7815 151.318 65.9389 151.398 66.1003C151.34 65.8458 151.295 65.6044 151.26 65.3733Z" fill="url(#paint1_linear_5_112)"/>
<g filter="url(#filter1_i_5_112)">
<path d="M173.011 61.9629C173.08 68.3698 169.043 73.6076 163.993 73.6618C157.757 60.6521 145.968 70.7093 142.24 62.2937C142.171 55.8868 154.45 45.6444 162.741 48.6032C167.79 48.549 172.942 55.5561 173.011 61.9629Z" fill="url(#paint2_linear_5_112)"/>
</g>
<g filter="url(#filter2_i_5_112)">
<path d="M114.695 70.1599C118.548 71.0637 124.342 75.0953 123.724 77.732C116.407 81.2693 113.103 90.3022 109.25 89.3984C105.397 88.4947 102.038 81.5867 104.882 77.7044C105.501 75.0677 110.842 69.2562 114.695 70.1599Z" fill="url(#paint3_linear_5_112)"/>
</g>
<g filter="url(#filter3_i_5_112)">
<path d="M120.624 54.6424C126.593 56.0425 130.593 60.7536 129.558 65.1649C118.079 71.2614 118.442 81.314 112.474 79.9139C106.505 78.5138 101.47 67.0937 106.001 60.5453C107.036 56.134 114.655 53.2423 120.624 54.6424Z" fill="url(#paint4_linear_5_112)"/>
</g>
<g filter="url(#filter4_i_5_112)">
<path d="M148.798 46.5275C153.357 51.5714 153.027 54.2826 148.921 57.9935C133.892 56.9525 129.992 66.3492 123.207 66.4221C118.649 61.3782 122.098 47.0356 130.981 43.3659C135.087 39.655 144.239 41.4837 148.798 46.5275Z" fill="url(#paint5_linear_5_112)"/>
</g>
<g filter="url(#filter5_i_5_112)">
<path d="M102.76 99.5836C88.0404 110.291 103.91 127.643 111.327 117.654C119.886 106.125 126.575 116.361 128.909 111.891C131.242 107.422 126.571 90.7869 115.261 92.119C111.473 91.156 105.093 95.1141 102.76 99.5836Z" fill="url(#paint6_linear_5_112)"/>
</g>
<path d="M110.055 108.047C109.947 109.767 111.238 110.547 110.68 110.967C110.508 111.211 109.461 109.313 109.323 109.523C109.058 109.932 109.022 110.013 108.861 110.025C109.515 110.431 109.195 110.991 109.127 111.289C108.284 112.145 106.295 112.887 105.663 112.951C104.858 113.781 104.528 115.208 104.41 115.351C104.882 115.044 106.99 114.015 108.25 113.451C108.58 113.017 108.892 112.549 109.155 112.413C109.847 112.143 109.658 112.633 110.701 112.401C115.568 115.748 114.591 117.284 114.025 118.668C112.978 118.42 111.869 118.104 110.232 117.685C108.755 117.324 108.004 117.315 106.899 117.736C106.387 116.977 106.062 116.62 105.39 116.122L105.072 116.391C105.918 116.89 106.09 117.201 106.484 117.995C105.753 118.058 105.531 118.057 104.983 117.627L104.868 117.842C105.106 118.182 105.766 118.147 106.118 118.497C105.706 118.424 105.18 118.42 104.851 118.544L104.854 118.837C105.148 118.673 105.666 118.555 105.818 118.908C105.919 119.212 105.426 119.349 104.993 119.534L105.146 119.713C106.477 119.238 106.734 118.84 107.055 118.208C108.093 118.028 108.559 117.98 109.705 118.267C109.01 118.278 108.7 118.511 108.152 118.869C107.864 119.13 107.559 119.393 106.969 119.737C106.218 119.985 105.864 120.033 105.334 119.994L105.531 120.308C105.915 120.203 106.14 120.255 106.552 120.364C106.317 120.677 106.152 120.831 105.779 121.049L106.185 121.234C106.971 120.375 107.514 119.959 108.354 119.476C109.277 118.814 109.072 118.621 110.305 118.657C108.02 119.786 108.317 120.587 106.532 121.435L106.812 121.616C107.476 121.506 107.811 121.334 108.327 120.805C108.176 121.625 107.916 122.041 107.418 122.775L107.935 122.636C108.549 121.751 108.774 121.196 109.083 120.161L110.304 119.502L109.48 120.788L110.235 120.989C110.661 120.118 111.051 119.468 110.966 119.141C111.139 118.996 111.219 118.952 111.335 118.931C112.488 119.284 113.218 119.533 114.132 119.901C117.405 126.36 116.204 126.34 118.086 132.887L124.658 130.842C123.4 127.466 122.55 123.419 120.196 119.514C120.541 118.252 120.205 117.232 119.485 116.338L121.567 110.654C123.681 110.384 124.797 110.91 127.145 108.339L126.885 108.063C125.698 108.581 125.324 108.996 124.595 108.685C126.212 108.021 126.787 107.054 126.87 105.354L126.196 105.312C125.791 106.612 125.201 107.315 123.08 108.27C123.604 107.087 123.956 106.385 125.119 105.059L124.121 105.194C122.881 106.252 122.249 106.871 121.865 108.212C121.691 106.592 121.207 105.441 120.453 103.693L119.537 103.64L120.922 107.407L121.066 108.855L120.033 110.55C119.255 111.234 119.256 112.167 118.591 112.257C118.142 112.759 117.774 113.594 117.155 114.369C115.467 113.249 113.462 112.21 112.085 110.897C111.508 109.7 112.777 108.698 112.428 106.953C112.214 106.931 111.909 107.062 111.586 107.254C111.515 109.045 110.872 110.636 110.58 107.775C110.364 107.948 110.175 107.944 110.055 108.047Z" fill="url(#paint7_linear_5_112)"/>
<g filter="url(#filter6_i_5_112)">
<path d="M98.643 113.956C99.8081 116.207 102.573 117.089 104.82 115.927C105.153 109.93 112.25 110.68 112.331 106.872C111.166 104.621 103.817 103.92 100.698 106.892C98.452 108.055 97.478 111.705 98.643 113.956Z" fill="url(#paint8_linear_5_112)"/>
</g>
<g filter="url(#filter7_i_5_112)">
<path d="M136.529 101.637C134.147 103.521 133.255 106.101 134.536 107.398C140.757 106.838 142.472 110.43 144.854 108.545C147.236 106.66 147.334 101.499 144.106 100.274C142.824 98.9777 138.911 99.7516 136.529 101.637Z" fill="url(#paint9_linear_5_112)"/>
</g>
<g filter="url(#filter8_i_5_112)">
<path d="M106.101 124.095C108.977 124.292 111.073 122.248 110.837 120.817C105.801 117.798 107.973 116.884 105.854 115.439C102.978 115.241 99.7443 117.948 101.498 120.383C101.734 121.814 103.225 123.897 106.101 124.095Z" fill="url(#paint10_linear_5_112)"/>
</g>
<g filter="url(#filter9_i_5_112)">
<path d="M198.762 68.2797C226.359 80.6464 206.5 114.292 191.022 100.592C173.158 84.7797 165.788 103.711 160.464 97.2434C155.141 90.7759 157.038 62.1321 175.882 60.4248C181.71 57.562 193.438 61.8123 198.762 68.2797Z" fill="url(#paint11_linear_5_112)"/>
</g>
<path d="M173.797 84.5386C174.561 87.298 172.731 89.0072 173.783 89.4997C174.144 89.8407 175.197 86.3909 175.494 86.6883C176.064 87.2625 176.151 87.3813 176.416 87.3456C175.492 88.2297 176.205 89.0306 176.416 89.492C178.08 90.5944 181.568 91.1184 182.618 91.0066C184.21 92.0789 185.235 94.2882 185.477 94.4799C184.604 94.143 180.825 93.1923 178.583 92.7058C177.898 92.1139 177.229 91.4597 176.756 91.3288C175.54 91.1263 176.014 91.8583 174.239 91.8389C167.472 98.948 169.588 101.109 170.981 103.167C172.599 102.404 174.293 101.512 176.811 100.269C179.088 99.1767 180.306 98.9048 182.247 99.2108C182.82 97.8022 183.224 97.109 184.146 96.0693L184.756 96.3983C183.552 97.4985 183.378 98.0632 183.01 99.4889C184.22 99.3416 184.58 99.2646 185.324 98.3773L185.586 98.6869C185.315 99.3214 184.229 99.4902 183.775 100.181C184.42 99.9204 185.275 99.7332 185.853 99.8228L185.948 100.3C185.415 100.134 184.532 100.121 184.406 100.747C184.346 101.274 185.193 101.329 185.962 101.482L185.773 101.825C183.446 101.509 182.892 100.949 182.154 100.032C180.405 100.094 179.632 100.177 177.868 101.035C179.002 100.815 179.584 101.087 180.598 101.481C181.156 101.807 181.741 102.131 182.817 102.489C184.123 102.634 184.717 102.589 185.566 102.345L185.35 102.923C184.691 102.883 184.343 103.045 183.71 103.364C184.2 103.792 184.521 103.986 185.203 104.214L184.607 104.653C183.034 103.525 182.009 103.035 180.477 102.537C178.75 101.777 179.017 101.394 177.025 101.874C181.127 102.926 180.917 104.331 184.109 105.097L183.716 105.489C182.599 105.536 181.996 105.374 180.975 104.689C181.501 105.971 182.068 106.558 183.13 107.581L182.24 107.533C180.939 106.304 180.383 105.479 179.527 103.901L177.316 103.248L179.096 105.058L177.936 105.643C176.946 104.371 176.089 103.448 176.115 102.887C175.785 102.711 175.64 102.667 175.444 102.673C173.689 103.644 172.586 104.298 171.223 105.21C168.116 116.827 170.064 116.387 169.246 127.673L157.862 126.6C158.752 120.679 158.748 113.81 161.237 106.654C160.243 104.721 160.44 102.944 161.305 101.243L155.975 92.718C152.446 93.0028 150.811 94.2415 146.114 90.8656L146.44 90.3286C148.548 90.7638 149.299 91.3104 150.378 90.556C147.521 90.0296 146.256 88.6536 145.539 85.9177L146.62 85.6199C147.723 87.594 148.924 88.534 152.7 89.3605C151.443 87.6176 150.628 86.5961 148.284 84.8382L149.953 84.7175C152.33 86.0122 153.571 86.8027 154.654 88.8517C154.381 86.1572 154.775 84.1214 155.402 81.0213L156.872 80.6207L155.911 87.2197L156.173 89.6225L158.433 92.0263C159.931 92.8711 160.25 94.3889 161.362 94.3082C162.264 94.9697 163.148 96.2011 164.42 97.248C166.781 94.8493 169.685 92.4742 171.474 89.867C172.001 87.7237 169.596 86.5308 169.565 83.5732C169.906 83.4652 170.447 83.5721 171.037 83.7749C171.766 86.6622 173.355 89.0273 172.851 84.2769C173.261 84.4847 173.567 84.4123 173.797 84.5386Z" fill="url(#paint12_linear_5_112)"/>
<g filter="url(#filter10_i_5_112)">
<path d="M194.376 90.2368C193.252 94.2955 189.059 96.6772 185.009 95.5564C182.413 85.9203 171.132 89.5702 169.697 83.4067C170.82 79.348 182.527 75.6932 188.616 79.4568C192.666 80.5776 195.499 86.178 194.376 90.2368Z" fill="url(#paint13_linear_5_112)"/>
</g>
<g filter="url(#filter11_i_5_112)">
<path d="M154.574 77.7022C159.092 79.9511 161.425 83.8389 159.786 86.3859C149.481 87.6073 147.923 94.0341 143.405 91.7853C138.887 89.5364 136.959 81.1781 141.789 78.0824C143.428 75.5353 150.056 75.4534 154.574 77.7022Z" fill="url(#paint14_linear_5_112)"/>
</g>
<g filter="url(#filter12_i_5_112)">
<path d="M185.721 109.274C181.113 110.58 177.005 107.975 176.899 105.567C184.052 98.9353 180.209 98.1922 183.158 95.1175C187.766 93.8113 193.951 97.1043 191.933 101.663C192.039 104.071 190.33 107.968 185.721 109.274Z" fill="url(#paint15_linear_5_112)"/>
</g>
<path d="M115.898 121.429L93.4012 119.989L81.2653 136.514L61.9083 135.252L54.4786 144.223L53.3287 117.605L54.9868 89.181L67.4088 63.4191L83.8543 43.9226L111.337 27.3123L138.702 21.5608L163.948 21.8317L193.12 31.0267L215.981 50.2123L233.943 77.3494L239.651 93.403L243.48 122.895L231.824 117.551L217.315 128.396L196.959 123.075L179.25 135.892L159.61 129.993L144.192 142.571L123.047 139.729L115.898 121.429Z" fill="url(#paint16_radial_5_112)" fill-opacity="0.83"/>
<path d="M115.898 121.429L132.85 106.799M115.898 121.429L93.4012 119.989M115.898 121.429L123.047 139.729M132.85 106.799L128.781 89.3132M132.85 106.799L155.061 112.683M128.781 89.3132L104.114 86.2074M128.781 89.3132L145.986 75.6655M104.114 86.2074L86.5246 101.913M104.114 86.2074L99.4083 72.1934M86.5246 101.913L93.4012 119.989M86.5246 101.913L66.862 101.313M93.4012 119.989L81.2653 136.514M99.4083 72.1934L79.2582 72.9052M99.4083 72.1934L117.674 58.1829M79.2582 72.9052L75.3584 61.8342M79.2582 72.9052L63.0728 87.708M75.3584 61.8342L87.8582 48.8027M75.3584 61.8342L67.4088 63.4191M87.8582 48.8027L109.614 45.5274M87.8582 48.8027L83.8543 43.9226M109.614 45.5274L117.674 58.1829M109.614 45.5274L123.745 34.9744M117.674 58.1829L141.031 60.7946M66.862 101.313L63.0728 87.708M66.862 101.313L53.3287 117.605M63.0728 87.708L54.9868 89.181M53.3287 117.605L61.9083 135.252M53.3287 117.605L54.4786 144.223L61.9083 135.252M53.3287 117.605L54.9868 89.181M61.9083 135.252L81.2653 136.514M81.2653 136.514L86.6406 148.567M67.4088 63.4191L54.9868 89.181M67.4088 63.4191L83.8543 43.9226M123.047 139.729L118.38 145.26M123.047 139.729L144.192 142.571L159.61 129.993M159.61 129.993L155.061 112.683M159.61 129.993L179.25 135.892M155.061 112.683L170.812 99.6912M123.745 34.9744L118.877 27.7881M123.745 34.9744L148.198 37.2198M118.877 27.7881L111.337 27.3123M118.877 27.7881L138.702 21.5608M111.337 27.3123L83.8543 43.9226M111.337 27.3123L138.702 21.5608M141.031 60.7946L155.361 48.4553M141.031 60.7946L145.986 75.6655M155.361 48.4553L148.198 37.2198M155.361 48.4553L177.448 51.9561M148.198 37.2198L164.871 30.6903M164.871 30.6903L159.879 23.5168M164.871 30.6903L188.544 35.0349M159.879 23.5168L138.702 21.5608M159.879 23.5168L163.948 21.8317M138.702 21.5608L163.948 21.8317M145.986 75.6655L166.289 80.4872M166.289 80.4872L182.941 68.4105M166.289 80.4872L170.812 99.6912M182.941 68.4105L177.448 51.9561M182.941 68.4105L203.181 74.8784M177.448 51.9561L194.615 45.3752M194.615 45.3752L188.544 35.0349M194.615 45.3752L211.71 52.8013M188.544 35.0349L193.12 31.0267M211.71 52.8013L216.566 67.9347M211.71 52.8013L215.981 50.2123M216.566 67.9347L203.181 74.8784M216.566 67.9347L233.943 77.3494M203.181 74.8784L208.89 92.3192M163.948 21.8317L193.12 31.0267M193.12 31.0267L215.981 50.2123M170.812 99.6912L192.304 105.02M192.304 105.02L208.89 92.3192M192.304 105.02L196.959 123.075M208.89 92.3192L227.556 99.5817M227.556 99.5817L239.651 93.403M227.556 99.5817L231.824 117.551M239.651 93.403L233.943 77.3494M239.651 93.403L243.48 122.895L231.824 117.551M233.943 77.3494L215.981 50.2123M231.824 117.551L217.315 128.396M217.315 128.396L196.959 123.075M217.315 128.396L219.002 134.904M196.959 123.075L179.25 135.892M179.25 135.892L180.277 139.695" stroke="url(#paint17_linear_5_112)" stroke-width="2.5508"/>
<path d="M79.5757 74.257L64.4151 88.0828L67.5337 99.7324L83.9115 100.203L100.547 84.8632L96.3798 73.5951L79.5757 74.257Z" fill="url(#paint18_linear_5_112)"/>
<path d="M113.036 120.094L129.989 105.464M113.036 120.094L90.5398 118.654M113.036 120.094L120.186 138.394M129.989 105.464L125.92 87.978M129.989 105.464L152.199 111.348M125.92 87.978L101.253 84.8722M125.92 87.978L143.124 74.3303M101.253 84.8722L83.6631 100.578M101.253 84.8722L96.5468 70.8582M83.6631 100.578L90.5398 118.654M83.6631 100.578L64.0006 99.9777M90.5398 118.654L78.4039 135.179M96.5468 70.8582L76.3967 71.57M96.5468 70.8582L114.812 56.8477M76.3967 71.57L72.497 60.499M76.3967 71.57L60.2114 86.3728M72.497 60.499L84.9968 47.4675M72.497 60.499L64.5474 62.0839M84.9968 47.4675L106.752 44.1922M84.9968 47.4675L80.9929 42.5874M106.752 44.1922L114.812 56.8477M106.752 44.1922L120.884 33.6392M114.812 56.8477L138.17 59.4594M64.0006 99.9777L60.2114 86.3728M64.0006 99.9777L50.4672 116.27M60.2114 86.3728L52.1253 87.8458M50.4672 116.27L59.0469 133.916M50.4672 116.27L51.6172 142.888L59.0469 133.916M50.4672 116.27L52.1253 87.8458M59.0469 133.916L78.4039 135.179M78.4039 135.179L83.7792 147.231M64.5474 62.0839L52.1253 87.8458M64.5474 62.0839L80.9929 42.5874M120.186 138.394L115.519 143.925M120.186 138.394L141.33 141.236L156.749 128.657M156.749 128.657L152.199 111.348M156.749 128.657L176.388 134.557M152.199 111.348L167.951 98.356M120.884 33.6392L116.015 26.4529M120.884 33.6392L145.337 35.8846M116.015 26.4529L108.475 25.9771M116.015 26.4529L135.84 20.2256M108.475 25.9771L80.9929 42.5874M108.475 25.9771L135.84 20.2256M138.17 59.4594L152.499 47.1201M138.17 59.4594L143.124 74.3303M152.499 47.1201L145.337 35.8846M152.499 47.1201L174.586 50.6209M145.337 35.8846L162.009 29.3551M162.009 29.3551L157.018 22.1816M162.009 29.3551L185.682 33.6997M157.018 22.1816L135.84 20.2256M157.018 22.1816L161.087 20.4965M135.84 20.2256L161.087 20.4965M143.124 74.3303L163.428 79.152M163.428 79.152L180.079 67.0753M163.428 79.152L167.951 98.356M180.079 67.0753L174.586 50.6209M180.079 67.0753L200.32 73.5432M174.586 50.6209L191.753 44.04M191.753 44.04L185.682 33.6997M191.753 44.04L208.849 51.466M185.682 33.6997L190.258 29.6915M208.849 51.466L213.704 66.5995M208.849 51.466L213.119 48.8771M213.704 66.5995L200.32 73.5432M213.704 66.5995L231.081 76.0142M200.32 73.5432L206.029 90.984M161.087 20.4965L190.258 29.6915M190.258 29.6915L213.119 48.8771M167.951 98.356L189.442 103.685M189.442 103.685L206.029 90.984M189.442 103.685L194.098 121.74M206.029 90.984L224.695 98.2465M224.695 98.2465L236.789 92.0678M224.695 98.2465L228.963 116.216M236.789 92.0678L231.081 76.0142M236.789 92.0678L240.618 121.56L228.963 116.216M231.081 76.0142L213.119 48.8771M228.963 116.216L214.453 127.06M214.453 127.06L194.098 121.74M214.453 127.06L216.14 133.569M194.098 121.74L176.388 134.557M176.388 134.557L177.415 138.36" stroke="url(#paint19_linear_5_112)" stroke-width="2.5508"/>
<g filter="url(#filter13_dg_5_112)">
<path d="M244.717 121.909C243.338 121.053 241.06 120.708 237.302 121.284C232.195 122.991 230.292 124.141 230.597 126.868C229.288 126.648 227.58 126.665 225.352 127.007C220.557 128.61 218.585 129.721 218.614 132.108C217.812 131.993 216.779 132.012 215.45 132.211C213.702 132.783 212.554 133.253 211.904 133.835C210.868 132.429 208.582 131.599 203.528 132.278C197.371 134.086 196.017 135.158 197.617 138.998C198.356 142.612 201.189 143.347 203.528 143.686C205.28 143.686 206.918 143.384 208.313 142.861C208.315 142.867 208.316 142.873 208.318 142.878C209.081 147.126 212.005 147.99 214.42 148.388C216.98 148.388 219.304 147.676 221.017 146.521C222.257 147.737 223.896 148.147 225.352 148.387C228.527 148.387 231.339 147.293 233.071 145.614C234.259 146.585 235.729 146.943 237.048 147.16C238.9 147.16 240.627 146.787 242.09 146.145C243.351 148.151 245.425 148.704 247.219 149C252.484 149 256.752 145.998 256.752 142.295C256.752 139.655 256.752 136.63 253.298 135.64C254.038 134.247 254.464 132.632 254.464 130.91C254.464 125.66 254.464 119.333 245.675 121.403C245.34 121.575 245.022 121.744 244.717 121.909ZM273.871 126.93C271.875 127.187 271.032 127.522 270.476 128.866C267.258 129.949 266.273 130.705 266.776 132.71C266.242 133.401 266.291 134.272 266.793 135.614C267.27 138.214 269.097 138.742 270.606 138.985C271.058 138.985 271.499 138.949 271.922 138.884C272.455 141.307 274.223 141.814 275.692 142.051C276.813 142.051 277.861 141.837 278.757 141.467C280.216 142.891 282.999 143.054 285.068 141.81C287.192 140.532 289.75 138.992 286.333 136.726C285.525 136.419 284.856 136.202 284.266 136.087C285.403 134.789 286.211 133.395 283.621 132.601C281.549 132.458 280.637 132.635 279.663 133.928C278.953 133.694 277.989 133.606 276.68 133.726C276.771 133.44 276.82 133.143 276.82 132.839C276.82 131.613 276.819 130.252 275.875 129.401C276.288 128.209 276.133 127.15 273.871 126.93Z" fill="url(#paint20_linear_5_112)"/>
</g>
<g filter="url(#filter14_dg_5_112)">
<path d="M81.7168 132.909C80.3376 132.053 78.0603 131.708 74.3018 132.284C69.1953 133.991 67.2915 135.141 67.5967 137.868C66.2882 137.648 64.5804 137.665 62.3516 138.007C57.5565 139.61 55.5847 140.721 55.6143 143.108C54.812 142.993 53.7791 143.012 52.4502 143.211C50.7019 143.783 49.5537 144.253 48.9043 144.835C47.8683 143.429 45.5823 142.599 40.5283 143.278C34.3713 145.086 33.0165 146.158 34.6172 149.998C35.356 153.612 38.1886 154.347 40.5283 154.686C42.2801 154.686 43.9179 154.384 45.3135 153.861C45.3154 153.867 45.3164 153.873 45.3184 153.878C46.0812 158.126 49.0048 158.99 51.4199 159.388C53.9803 159.388 56.3039 158.676 58.0166 157.521C59.2571 158.737 60.8962 159.147 62.3516 159.387C65.5273 159.387 68.3388 158.293 70.0713 156.614C71.2588 157.585 72.7287 157.943 74.0479 158.16C75.8995 158.16 77.6271 157.787 79.0898 157.145C80.3508 159.151 82.4245 159.704 84.2188 160C89.4838 160 93.752 156.998 93.752 153.295C93.752 150.655 93.7517 147.63 90.2979 146.64C91.0382 145.247 91.4638 143.632 91.4639 141.91C91.4639 136.66 91.4636 130.333 82.6748 132.403C82.3405 132.575 82.0217 132.744 81.7168 132.909ZM110.871 137.93C108.875 138.187 108.032 138.522 107.476 139.866C104.258 140.949 103.273 141.705 103.776 143.71C103.242 144.401 103.291 145.272 103.793 146.614C104.27 149.214 106.097 149.742 107.606 149.985C108.058 149.985 108.499 149.949 108.922 149.884C109.455 152.307 111.223 152.814 112.692 153.051C113.813 153.051 114.861 152.837 115.757 152.467C117.216 153.891 119.999 154.054 122.068 152.81C124.192 151.532 126.75 149.992 123.333 147.726C122.525 147.419 121.856 147.202 121.266 147.087C122.403 145.789 123.211 144.395 120.621 143.601C118.549 143.458 117.637 143.635 116.663 144.928C115.953 144.694 114.989 144.606 113.68 144.726C113.771 144.44 113.82 144.143 113.82 143.839C113.82 142.613 113.819 141.252 112.875 140.401C113.288 139.209 113.133 138.15 110.871 137.93Z" fill="url(#paint21_linear_5_112)"/>
</g>
<g filter="url(#filter15_dg_5_112)">
<path d="M139.531 129.21C137.839 128.071 135.047 127.613 130.438 128.379C122.642 131.207 120.926 132.886 122.953 138.896C123.116 139.882 123.363 140.73 123.67 141.463C123.42 142.4 123.478 143.496 123.806 144.849C122.167 146.365 121.627 148.11 121.952 150.724C121.709 151.968 121.966 153.489 122.642 155.493C123.138 158.493 124.38 160.224 125.879 161.269C127.441 163.448 129.754 164.1 131.778 164.462C133.951 164.462 135.984 164.008 137.727 163.221C139.183 164.512 140.985 164.989 142.603 165.278C149.061 165.278 154.297 161.281 154.297 156.352C154.297 155.623 154.297 154.871 154.259 154.127C155.234 155.416 156.656 155.808 157.903 156.026C159.278 156.026 160.565 155.742 161.663 155.248C163.453 157.145 166.867 157.362 169.405 155.704C172.01 154.003 175.148 151.953 170.956 148.936C169.966 148.528 169.145 148.236 168.422 148.082C169.815 146.355 170.803 144.503 167.629 143.445C165.087 143.256 163.968 143.491 162.773 145.213C161.902 144.902 160.72 144.783 159.114 144.942C159.226 144.562 159.287 144.167 159.287 143.762C159.287 142.13 159.286 140.318 158.128 139.186C158.634 137.598 158.444 136.187 155.668 135.894C153.221 136.235 152.188 136.684 151.505 138.472C151.492 138.476 151.479 138.481 151.467 138.485C151.315 132.243 150.119 126.13 140.708 128.536C140.297 128.765 139.906 128.99 139.531 129.21ZM99.2871 145.085C98.0162 143.213 95.2085 142.11 89.0088 143.015C81.4561 145.421 79.7942 146.849 81.7578 151.962C82.6641 156.774 86.1387 157.751 89.0088 158.202C91.1568 158.202 93.1655 157.802 94.877 157.106C94.8792 157.113 94.8806 157.12 94.8828 157.127C95.8185 162.783 99.4056 163.932 102.368 164.462C108.827 164.462 114.062 160.465 114.062 155.535C114.062 152.355 114.062 148.754 110.922 147.121C110.803 144.461 109.936 141.899 103.633 142.925C101.491 143.686 100.084 144.311 99.2871 145.085Z" fill="url(#paint22_linear_5_112)"/>
</g>
<g filter="url(#filter16_dg_5_112)">
<path d="M178.684 138.699C178.794 135.306 179.664 131.984 186.519 133.292C186.818 133.416 187.105 133.539 187.378 133.659C188.61 133.04 190.643 132.789 193.998 133.206C199.676 134.743 200.924 135.655 199.448 138.921C199.329 139.457 199.15 139.918 198.927 140.316C199.109 140.826 199.067 141.421 198.828 142.157C200.021 142.981 200.415 143.929 200.178 145.349C200.355 146.025 200.168 146.853 199.676 147.942C199.314 149.573 198.409 150.513 197.317 151.081C196.18 152.265 194.495 152.619 193.021 152.816C191.44 152.816 189.959 152.569 188.689 152.141C187.629 152.843 186.317 153.102 185.139 153.259C180.435 153.259 176.622 151.087 176.622 148.408C176.622 148.011 176.622 147.602 176.649 147.197C175.939 147.898 174.904 148.112 173.995 148.231C172.994 148.231 172.057 148.076 171.257 147.808C169.953 148.839 167.467 148.957 165.619 148.056C163.722 147.132 161.436 146.017 164.489 144.378C165.211 144.156 165.81 143.999 166.337 143.916C165.321 142.977 164.6 141.969 166.913 141.394C168.764 141.291 169.578 141.419 170.448 142.354C171.083 142.185 171.944 142.12 173.113 142.207C173.032 142 172.988 141.786 172.988 141.566C172.988 140.679 172.989 139.694 173.832 139.079C173.463 138.216 173.602 137.449 175.623 137.29C177.406 137.475 178.158 137.719 178.655 138.691C178.665 138.694 178.674 138.696 178.684 138.699ZM216.686 142.286C217.611 141.269 219.654 140.668 224.168 141.16C229.668 142.467 230.878 143.243 229.448 146.022C228.788 148.637 226.258 149.169 224.168 149.414C222.604 149.414 221.141 149.195 219.895 148.817C219.893 148.821 219.891 148.826 219.89 148.83C219.208 151.903 216.597 152.528 214.439 152.816C209.736 152.816 205.923 150.644 205.923 147.964C205.923 146.236 205.924 144.282 208.21 143.394C208.296 141.948 208.925 140.553 213.519 141.111C215.08 141.525 216.105 141.865 216.686 142.286Z" fill="url(#paint23_linear_5_112)"/>
</g>
<defs>
<filter id="filter0_i_5_112" x="106.251" y="27.137" width="69.3466" height="50.126" filterUnits="userSpaceOnUse" color-interpolation-filters="sRGB">
<feFlood flood-opacity="0" result="BackgroundImageFix"/>
<feBlend mode="normal" in="SourceGraphic" in2="BackgroundImageFix" result="shape"/>
<feColorMatrix in="SourceAlpha" type="matrix" values="0 0 0 0 0 0 0 0 0 0 0 0 0 0 0 0 0 0 127 0" result="hardAlpha"/>
<feOffset dx="-3.24443" dy="-30.183"/>
<feGaussianBlur stdDeviation="0.66855"/>
<feComposite in2="hardAlpha" operator="arithmetic" k2="-1" k3="1"/>
<feColorMatrix type="matrix" values="0 0 0 0 0.033221 0 0 0 0 0.577712 0 0 0 0 0.468814 0 0 0 0.25 0"/>
<feBlend mode="normal" in2="shape" result="effect1_innerShadow_5_112"/>
</filter>
<filter id="filter1_i_5_112" x="142.24" y="47.2923" width="31.5589" height="26.3695" filterUnits="userSpaceOnUse" color-interpolation-filters="sRGB">
<feFlood flood-opacity="0" result="BackgroundImageFix"/>
<feBlend mode="normal" in="SourceGraphic" in2="BackgroundImageFix" result="shape"/>
<feColorMatrix in="SourceAlpha" type="matrix" values="0 0 0 0 0 0 0 0 0 0 0 0 0 0 0 0 0 0 127 0" result="hardAlpha"/>
<feOffset dx="5.80065" dy="-6.78381"/>
<feGaussianBlur stdDeviation="0.393265"/>
<feComposite in2="hardAlpha" operator="arithmetic" k2="-1" k3="1"/>
<feColorMatrix type="matrix" values="0 0 0 0 0 0 0 0 0 0.310904 0 0 0 0 0.339168 0 0 0 0.25 0"/>
<feBlend mode="normal" in2="shape" result="effect1_innerShadow_5_112"/>
</filter>
<filter id="filter2_i_5_112" x="103.035" y="69.2789" width="20.735" height="20.1827" filterUnits="userSpaceOnUse" color-interpolation-filters="sRGB">
<feFlood flood-opacity="0" result="BackgroundImageFix"/>
<feBlend mode="normal" in="SourceGraphic" in2="BackgroundImageFix" result="shape"/>
<feColorMatrix in="SourceAlpha" type="matrix" values="0 0 0 0 0 0 0 0 0 0 0 0 0 0 0 0 0 0 127 0" result="hardAlpha"/>
<feOffset dx="-5.80065" dy="-2.75285"/>
<feGaussianBlur stdDeviation="0.393265"/>
<feComposite in2="hardAlpha" operator="arithmetic" k2="-1" k3="1"/>
<feColorMatrix type="matrix" values="0 0 0 0 0 0 0 0 0 0.295407 0 0 0 0 0.361722 0 0 0 0.25 0"/>
<feBlend mode="normal" in2="shape" result="effect1_innerShadow_5_112"/>
</filter>
<filter id="filter3_i_5_112" x="102.818" y="52.8513" width="26.9033" height="27.1947" filterUnits="userSpaceOnUse" color-interpolation-filters="sRGB">
<feFlood flood-opacity="0" result="BackgroundImageFix"/>
<feBlend mode="normal" in="SourceGraphic" in2="BackgroundImageFix" result="shape"/>
<feColorMatrix in="SourceAlpha" type="matrix" values="0 0 0 0 0 0 0 0 0 0 0 0 0 0 0 0 0 0 127 0" result="hardAlpha"/>
<feOffset dx="-5.60402" dy="-7.07876"/>
<feGaussianBlur stdDeviation="0.717708"/>
<feComposite in2="hardAlpha" operator="arithmetic" k2="-1" k3="1"/>
<feColorMatrix type="matrix" values="0 0 0 0 0 0 0 0 0 0.349947 0 0 0 0 0.256628 0 0 0 0.25 0"/>
<feBlend mode="normal" in2="shape" result="effect1_innerShadow_5_112"/>
</filter>
<filter id="filter4_i_5_112" x="121.197" y="40.6169" width="30.9124" height="25.8053" filterUnits="userSpaceOnUse" color-interpolation-filters="sRGB">
<feFlood flood-opacity="0" result="BackgroundImageFix"/>
<feBlend mode="normal" in="SourceGraphic" in2="BackgroundImageFix" result="shape"/>
<feColorMatrix in="SourceAlpha" type="matrix" values="0 0 0 0 0 0 0 0 0 0 0 0 0 0 0 0 0 0 127 0" result="hardAlpha"/>
<feOffset dy="-11.8963"/>
<feGaussianBlur stdDeviation="0.393265"/>
<feComposite in2="hardAlpha" operator="arithmetic" k2="-1" k3="1"/>
<feColorMatrix type="matrix" values="0 0 0 0 0.0261306 0 0 0 0 0.405801 0 0 0 0 0.440317 0 0 0 0.25 0"/>
<feBlend mode="normal" in2="shape" result="effect1_innerShadow_5_112"/>
</filter>
<filter id="filter5_i_5_112" x="95.795" y="91.0514" width="33.6982" height="29.5929" filterUnits="userSpaceOnUse" color-interpolation-filters="sRGB">
<feFlood flood-opacity="0" result="BackgroundImageFix"/>
<feBlend mode="normal" in="SourceGraphic" in2="BackgroundImageFix" result="shape"/>
<feColorMatrix in="SourceAlpha" type="matrix" values="0 0 0 0 0 0 0 0 0 0 0 0 0 0 0 0 0 0 127 0" result="hardAlpha"/>
<feOffset dx="-2.23668" dy="-20.8079"/>
<feGaussianBlur stdDeviation="0.460892"/>
<feComposite in2="hardAlpha" operator="arithmetic" k2="-1" k3="1"/>
<feColorMatrix type="matrix" values="0 0 0 0 0.033221 0 0 0 0 0.577712 0 0 0 0 0.468814 0 0 0 0.25 0"/>
<feBlend mode="normal" in2="shape" result="effect1_innerShadow_5_112"/>
</filter>
<filter id="filter6_i_5_112" x="98.1479" y="104.373" width="14.7251" height="12.0663" filterUnits="userSpaceOnUse" color-interpolation-filters="sRGB">
<feFlood flood-opacity="0" result="BackgroundImageFix"/>
<feBlend mode="normal" in="SourceGraphic" in2="BackgroundImageFix" result="shape"/>
<feColorMatrix in="SourceAlpha" type="matrix" values="0 0 0 0 0 0 0 0 0 0 0 0 0 0 0 0 0 0 127 0" result="hardAlpha"/>
<feOffset dx="3.99891" dy="-4.67669"/>
<feGaussianBlur stdDeviation="0.271113"/>
<feComposite in2="hardAlpha" operator="arithmetic" k2="-1" k3="1"/>
<feColorMatrix type="matrix" values="0 0 0 0 0 0 0 0 0 0.310904 0 0 0 0 0.339168 0 0 0 0.25 0"/>
<feBlend mode="normal" in2="shape" result="effect1_innerShadow_5_112"/>
</filter>
<filter id="filter7_i_5_112" x="132.961" y="98.6426" width="13.6293" height="10.4549" filterUnits="userSpaceOnUse" color-interpolation-filters="sRGB">
<feFlood flood-opacity="0" result="BackgroundImageFix"/>
<feBlend mode="normal" in="SourceGraphic" in2="BackgroundImageFix" result="shape"/>
<feColorMatrix in="SourceAlpha" type="matrix" values="0 0 0 0 0 0 0 0 0 0 0 0 0 0 0 0 0 0 127 0" result="hardAlpha"/>
<feOffset dx="-3.86336" dy="-4.88003"/>
<feGaussianBlur stdDeviation="0.494781"/>
<feComposite in2="hardAlpha" operator="arithmetic" k2="-1" k3="1"/>
<feColorMatrix type="matrix" values="0 0 0 0 0 0 0 0 0 0.349947 0 0 0 0 0.256628 0 0 0 0.25 0"/>
<feBlend mode="normal" in2="shape" result="effect1_innerShadow_5_112"/>
</filter>
<filter id="filter8_i_5_112" x="101.002" y="114.887" width="9.85352" height="9.22155" filterUnits="userSpaceOnUse" color-interpolation-filters="sRGB">
<feFlood flood-opacity="0" result="BackgroundImageFix"/>
<feBlend mode="normal" in="SourceGraphic" in2="BackgroundImageFix" result="shape"/>
<feColorMatrix in="SourceAlpha" type="matrix" values="0 0 0 0 0 0 0 0 0 0 0 0 0 0 0 0 0 0 127 0" result="hardAlpha"/>
<feOffset dy="-8.20116"/>
<feGaussianBlur stdDeviation="0.271113"/>
<feComposite in2="hardAlpha" operator="arithmetic" k2="-1" k3="1"/>
<feColorMatrix type="matrix" values="0 0 0 0 0.0261306 0 0 0 0 0.405801 0 0 0 0 0.440317 0 0 0 0.25 0"/>
<feBlend mode="normal" in2="shape" result="effect1_innerShadow_5_112"/>
</filter>
<filter id="filter9_i_5_112" x="156.962" y="58.5941" width="55.5724" height="45.2206" filterUnits="userSpaceOnUse" color-interpolation-filters="sRGB">
<feFlood flood-opacity="0" result="BackgroundImageFix"/>
<feBlend mode="normal" in="SourceGraphic" in2="BackgroundImageFix" result="shape"/>
<feColorMatrix in="SourceAlpha" type="matrix" values="0 0 0 0 0 0 0 0 0 0 0 0 0 0 0 0 0 0 127 0" result="hardAlpha"/>
<feOffset dx="-2.23668" dy="-20.8079"/>
<feGaussianBlur stdDeviation="0.460892"/>
<feComposite in2="hardAlpha" operator="arithmetic" k2="-1" k3="1"/>
<feColorMatrix type="matrix" values="0 0 0 0 0.033221 0 0 0 0 0.577712 0 0 0 0 0.468814 0 0 0 0.25 0"/>
<feBlend mode="normal" in2="shape" result="effect1_innerShadow_5_112"/>
</filter>
<filter id="filter10_i_5_112" x="169.697" y="77.3405" width="25.469" height="18.4929" filterUnits="userSpaceOnUse" color-interpolation-filters="sRGB">
<feFlood flood-opacity="0" result="BackgroundImageFix"/>
<feBlend mode="normal" in="SourceGraphic" in2="BackgroundImageFix" result="shape"/>
<feColorMatrix in="SourceAlpha" type="matrix" values="0 0 0 0 0 0 0 0 0 0 0 0 0 0 0 0 0 0 127 0" result="hardAlpha"/>
<feOffset dx="3.99891" dy="-4.67669"/>
<feGaussianBlur stdDeviation="0.271113"/>
<feComposite in2="hardAlpha" operator="arithmetic" k2="-1" k3="1"/>
<feColorMatrix type="matrix" values="0 0 0 0 0 0 0 0 0 0.310904 0 0 0 0 0.339168 0 0 0 0.25 0"/>
<feBlend mode="normal" in2="shape" result="effect1_innerShadow_5_112"/>
</filter>
<filter id="filter11_i_5_112" x="137.98" y="75.1001" width="22.3304" height="17.1586" filterUnits="userSpaceOnUse" color-interpolation-filters="sRGB">
<feFlood flood-opacity="0" result="BackgroundImageFix"/>
<feBlend mode="normal" in="SourceGraphic" in2="BackgroundImageFix" result="shape"/>
<feColorMatrix in="SourceAlpha" type="matrix" values="0 0 0 0 0 0 0 0 0 0 0 0 0 0 0 0 0 0 127 0" result="hardAlpha"/>
<feOffset dx="-3.86336" dy="-4.88003"/>
<feGaussianBlur stdDeviation="0.494781"/>
<feComposite in2="hardAlpha" operator="arithmetic" k2="-1" k3="1"/>
<feColorMatrix type="matrix" values="0 0 0 0 0 0 0 0 0 0.349947 0 0 0 0 0.256628 0 0 0 0.25 0"/>
<feBlend mode="normal" in2="shape" result="effect1_innerShadow_5_112"/>
</filter>
<filter id="filter12_i_5_112" x="176.899" y="94.2867" width="15.4268" height="15.3369" filterUnits="userSpaceOnUse" color-interpolation-filters="sRGB">
<feFlood flood-opacity="0" result="BackgroundImageFix"/>
<feBlend mode="normal" in="SourceGraphic" in2="BackgroundImageFix" result="shape"/>
<feColorMatrix in="SourceAlpha" type="matrix" values="0 0 0 0 0 0 0 0 0 0 0 0 0 0 0 0 0 0 127 0" result="hardAlpha"/>
<feOffset dy="-8.20116"/>
<feGaussianBlur stdDeviation="0.271113"/>
<feComposite in2="hardAlpha" operator="arithmetic" k2="-1" k3="1"/>
<feColorMatrix type="matrix" values="0 0 0 0 0.0261306 0 0 0 0 0.405801 0 0 0 0 0.440317 0 0 0 0.25 0"/>
<feBlend mode="normal" in2="shape" result="effect1_innerShadow_5_112"/>
</filter>
<filter id="filter13_dg_5_112" x="163.352" y="91.4306" width="158.297" height="95.2961" filterUnits="userSpaceOnUse" color-interpolation-filters="sRGB">
<feFlood flood-opacity="0" result="BackgroundImageFix"/>
<feColorMatrix in="SourceAlpha" type="matrix" values="0 0 0 0 0 0 0 0 0 0 0 0 0 0 0 0 0 0 127 0" result="hardAlpha"/>
<feOffset dy="4.07856"/>
<feGaussianBlur stdDeviation="16.824"/>
<feComposite in2="hardAlpha" operator="out"/>
<feColorMatrix type="matrix" values="0 0 0 0 0 0 0 0 0 0 0 0 0 0 0 0 0 0 0.17 0"/>
<feBlend mode="normal" in2="BackgroundImageFix" result="effect1_dropShadow_5_112"/>
<feBlend mode="normal" in="SourceGraphic" in2="effect1_dropShadow_5_112" result="shape"/>
<feTurbulence type="fractalNoise" baseFrequency="0.12736871838569641 0.12736871838569641" numOctaves="3" seed="5311" />
<feDisplacementMap in="shape" scale="11.623885154724121" xChannelSelector="R" yChannelSelector="G" result="displacedImage" width="100%" height="100%" />
<feMerge result="effect2_texture_5_112">
<feMergeNode in="displacedImage"/>
</feMerge>
</filter>
<filter id="filter14_dg_5_112" x="0.351543" y="102.431" width="158.297" height="95.2961" filterUnits="userSpaceOnUse" color-interpolation-filters="sRGB">
<feFlood flood-opacity="0" result="BackgroundImageFix"/>
<feColorMatrix in="SourceAlpha" type="matrix" values="0 0 0 0 0 0 0 0 0 0 0 0 0 0 0 0 0 0 127 0" result="hardAlpha"/>
<feOffset dy="4.07856"/>
<feGaussianBlur stdDeviation="16.824"/>
<feComposite in2="hardAlpha" operator="out"/>
<feColorMatrix type="matrix" values="0 0 0 0 0 0 0 0 0 0 0 0 0 0 0 0 0 0 0.17 0"/>
<feBlend mode="normal" in2="BackgroundImageFix" result="effect1_dropShadow_5_112"/>
<feBlend mode="normal" in="SourceGraphic" in2="effect1_dropShadow_5_112" result="shape"/>
<feTurbulence type="fractalNoise" baseFrequency="0.12736871838569641 0.12736871838569641" numOctaves="3" seed="5311" />
<feDisplacementMap in="shape" scale="11.623885154724121" xChannelSelector="R" yChannelSelector="G" result="displacedImage" width="100%" height="100%" />
<feMerge result="effect2_texture_5_112">
<feMergeNode in="displacedImage"/>
</feMerge>
</filter>
<filter id="filter15_dg_5_112" x="47.3522" y="98.4303" width="159.297" height="104.575" filterUnits="userSpaceOnUse" color-interpolation-filters="sRGB">
<feFlood flood-opacity="0" result="BackgroundImageFix"/>
<feColorMatrix in="SourceAlpha" type="matrix" values="0 0 0 0 0 0 0 0 0 0 0 0 0 0 0 0 0 0 127 0" result="hardAlpha"/>
<feOffset dy="4.07856"/>
<feGaussianBlur stdDeviation="16.824"/>
<feComposite in2="hardAlpha" operator="out"/>
<feColorMatrix type="matrix" values="0 0 0 0 0 0 0 0 0 0 0 0 0 0 0 0 0 0 0.17 0"/>
<feBlend mode="normal" in2="BackgroundImageFix" result="effect1_dropShadow_5_112"/>
<feBlend mode="normal" in="SourceGraphic" in2="effect1_dropShadow_5_112" result="shape"/>
<feTurbulence type="fractalNoise" baseFrequency="0.12736871838569641 0.12736871838569641" numOctaves="3" seed="5311" />
<feDisplacementMap in="shape" scale="11.623885154724121" xChannelSelector="R" yChannelSelector="G" result="displacedImage" width="100%" height="100%" />
<feMerge result="effect2_texture_5_112">
<feMergeNode in="displacedImage"/>
</feMerge>
</filter>
<filter id="filter16_dg_5_112" x="129.352" y="103.431" width="134.296" height="87.5555" filterUnits="userSpaceOnUse" color-interpolation-filters="sRGB">
<feFlood flood-opacity="0" result="BackgroundImageFix"/>
<feColorMatrix in="SourceAlpha" type="matrix" values="0 0 0 0 0 0 0 0 0 0 0 0 0 0 0 0 0 0 127 0" result="hardAlpha"/>
<feOffset dy="4.07856"/>
<feGaussianBlur stdDeviation="16.824"/>
<feComposite in2="hardAlpha" operator="out"/>
<feColorMatrix type="matrix" values="0 0 0 0 0 0 0 0 0 0 0 0 0 0 0 0 0 0 0.17 0"/>
<feBlend mode="normal" in2="BackgroundImageFix" result="effect1_dropShadow_5_112"/>
<feBlend mode="normal" in="SourceGraphic" in2="effect1_dropShadow_5_112" result="shape"/>
<feTurbulence type="fractalNoise" baseFrequency="0.12736871838569641 0.12736871838569641" numOctaves="3" seed="5311" />
<feDisplacementMap in="shape" scale="11.623885154724121" xChannelSelector="R" yChannelSelector="G" result="displacedImage" width="100%" height="100%" />
<feMerge result="effect2_texture_5_112">
<feMergeNode in="displacedImage"/>
</feMerge>
</filter>
<linearGradient id="paint0_linear_5_112" x1="131.3" y1="14.2334" x2="138.596" y2="70.9849" gradientUnits="userSpaceOnUse">
<stop offset="0.202239" stop-color="#F7F6A7"/>
<stop offset="0.791956" stop-color="#3C784D"/>
</linearGradient>
<linearGradient id="paint1_linear_5_112" x1="135.865" y1="50.1433" x2="136.696" y2="127.446" gradientUnits="userSpaceOnUse">
<stop stop-color="#3D5A44"/>
<stop offset="0.701923" stop-color="#8E6635"/>
<stop offset="0.975962" stop-color="#8E6635" stop-opacity="0.06"/>
</linearGradient>
<linearGradient id="paint2_linear_5_112" x1="167.44" y1="46.783" x2="158.389" y2="73.7221" gradientUnits="userSpaceOnUse">
<stop stop-color="#9CBF7C"/>
<stop offset="0.741107" stop-color="#326F40"/>
</linearGradient>
<linearGradient id="paint3_linear_5_112" x1="102.881" y1="13.8502" x2="108.312" y2="89.2046" gradientUnits="userSpaceOnUse">
<stop stop-color="#9FC480"/>
<stop offset="0.950658" stop-color="#527A4A"/>
</linearGradient>
<linearGradient id="paint4_linear_5_112" x1="113.27" y1="47.2667" x2="115.513" y2="82.1469" gradientUnits="userSpaceOnUse">
<stop stop-color="#A1C682"/>
<stop offset="1" stop-color="#266741"/>
</linearGradient>
<linearGradient id="paint5_linear_5_112" x1="138.017" y1="35.3984" x2="139.307" y2="63.9961" gradientUnits="userSpaceOnUse">
<stop offset="0.252677" stop-color="#A3C984"/>
<stop offset="1" stop-color="#3D653A"/>
</linearGradient>
<linearGradient id="paint6_linear_5_112" x1="108.205" y1="87.5477" x2="116.727" y2="108.581" gradientUnits="userSpaceOnUse">
<stop offset="0.202239" stop-color="#F7F6A7"/>
<stop offset="0.791956" stop-color="#3C784D"/>
</linearGradient>
<linearGradient id="paint7_linear_5_112" x1="108.047" y1="91.6539" x2="123.211" y2="134.674" gradientUnits="userSpaceOnUse">
<stop stop-color="#3D5A44"/>
<stop offset="0.358286" stop-color="#4B5C42"/>
<stop offset="0.64294" stop-color="#8E6635" stop-opacity="0.74"/>
<stop offset="0.970732" stop-color="#8E6635" stop-opacity="0"/>
</linearGradient>
<linearGradient id="paint8_linear_5_112" x1="98.2773" y1="107.357" x2="106.066" y2="115.788" gradientUnits="userSpaceOnUse">
<stop stop-color="#9CBF7C"/>
<stop offset="0.741107" stop-color="#326F40"/>
</linearGradient>
<linearGradient id="paint9_linear_5_112" x1="138.409" y1="97.343" x2="144.243" y2="109.887" gradientUnits="userSpaceOnUse">
<stop stop-color="#A1C682"/>
<stop offset="1" stop-color="#266741"/>
</linearGradient>
<linearGradient id="paint10_linear_5_112" x1="101.444" y1="123.08" x2="106.307" y2="116.339" gradientUnits="userSpaceOnUse">
<stop offset="0.252677" stop-color="#A3C984"/>
<stop offset="1" stop-color="#3D653A"/>
</linearGradient>
<linearGradient id="paint11_linear_5_112" x1="185.787" y1="50.5767" x2="179.136" y2="87.6908" gradientUnits="userSpaceOnUse">
<stop offset="0.202239" stop-color="#F7F6A7"/>
<stop offset="0.791956" stop-color="#3C784D"/>
</linearGradient>
<linearGradient id="paint12_linear_5_112" x1="171.449" y1="57.1996" x2="161.528" y2="132.335" gradientUnits="userSpaceOnUse">
<stop stop-color="#3D5A44"/>
<stop offset="0.358286" stop-color="#4B5C42"/>
<stop offset="0.64294" stop-color="#8E6635" stop-opacity="0.74"/>
<stop offset="0.970732" stop-color="#8E6635" stop-opacity="0"/>
</linearGradient>
<linearGradient id="paint13_linear_5_112" x1="192.711" y1="79.3832" x2="182.935" y2="95.7574" gradientUnits="userSpaceOnUse">
<stop stop-color="#9CBF7C"/>
<stop offset="0.741107" stop-color="#326F40"/>
</linearGradient>
<linearGradient id="paint14_linear_5_112" x1="150.047" y1="71.3657" x2="144.857" y2="93.7577" gradientUnits="userSpaceOnUse">
<stop stop-color="#A1C682"/>
<stop offset="1" stop-color="#266741"/>
</linearGradient>
<linearGradient id="paint15_linear_5_112" x1="192.945" y1="106.029" x2="182.73" y2="96.7363" gradientUnits="userSpaceOnUse">
<stop offset="0.252677" stop-color="#A3C984"/>
<stop offset="1" stop-color="#3D653A"/>
</linearGradient>
<radialGradient id="paint16_radial_5_112" cx="0" cy="0" r="1" gradientUnits="userSpaceOnUse" gradientTransform="translate(77.5726 0.169941) rotate(38.4622) scale(185.668 137.712)">
<stop offset="0.25548" stop-color="#FFDA7E" stop-opacity="0"/>
<stop offset="0.57059" stop-color="#E7FBFF" stop-opacity="0.73"/>
<stop offset="1" stop-color="#50E2FF" stop-opacity="0"/>
</radialGradient>
<linearGradient id="paint17_linear_5_112" x1="80.2981" y1="6.73776" x2="264.667" y2="205.2" gradientUnits="userSpaceOnUse">
<stop offset="0.163396" stop-color="#8ED4FF"/>
<stop offset="0.473368" stop-color="#8CD3FF"/>
<stop offset="0.656463" stop-color="#DCEBF5"/>
<stop offset="0.791088" stop-color="white" stop-opacity="0.1"/>
</linearGradient>
<linearGradient id="paint18_linear_5_112" x1="69.2274" y1="66.3542" x2="101.445" y2="119.604" gradientUnits="userSpaceOnUse">
<stop offset="0.287171" stop-color="#44CCD3" stop-opacity="0.08"/>
<stop offset="0.346813" stop-color="#C2F3FF" stop-opacity="0.59"/>
</linearGradient>
<linearGradient id="paint19_linear_5_112" x1="77.4366" y1="5.40255" x2="150.166" y2="173.725" gradientUnits="userSpaceOnUse">
<stop offset="0.223717" stop-color="white"/>
<stop offset="0.446358" stop-color="#DCEBF5"/>
<stop offset="0.791088" stop-color="white" stop-opacity="0.1"/>
</linearGradient>
<linearGradient id="paint20_linear_5_112" x1="242.5" y1="121" x2="242.5" y2="149" gradientUnits="userSpaceOnUse">
<stop stop-color="#B0D87D"/>
<stop offset="1" stop-color="#8BAE5D"/>
</linearGradient>
<linearGradient id="paint21_linear_5_112" x1="79.4998" y1="132" x2="79.4998" y2="160" gradientUnits="userSpaceOnUse">
<stop stop-color="#B0D87D"/>
<stop offset="1" stop-color="#8BAE5D"/>
</linearGradient>
<linearGradient id="paint22_linear_5_112" x1="127.001" y1="128" x2="127.001" y2="165.278" gradientUnits="userSpaceOnUse">
<stop stop-color="#B0D87D"/>
<stop offset="1" stop-color="#8BAE5D"/>
</linearGradient>
<linearGradient id="paint23_linear_5_112" x1="196.5" y1="133" x2="196.5" y2="153.259" gradientUnits="userSpaceOnUse">
<stop stop-color="#B0D87D"/>
<stop offset="1" stop-color="#8BAE5D"/>
</linearGradient>
</defs>
</svg>
