<svg width="416" height="115" viewBox="0 0 416 115" fill="none" xmlns="http://www.w3.org/2000/svg">
<path d="M40.8379 0.482422C18.3926 0.482422 0.197365 17.2669 0.197266 37.9717V91.2461L25.6396 114.716H56.2607L81.4785 91.4541V37.9717C81.4784 17.267 63.283 0.48253 40.8379 0.482422ZM40.8389 4.9707C60.9437 4.9707 77.3592 20.5852 77.3594 39.9893V88.3936L76.8799 88.8525L55.1836 109.617L54.7324 110.049H27.1387L26.6875 109.617L4.79785 88.667L4.72754 88.5986L4.40723 88.2949V88.293L4.31836 88.208V39.9893C4.31852 20.5852 20.7342 4.97084 40.8389 4.9707ZM74.25 66.4766C71.7344 68.1502 69.3996 69.6912 67.2168 71.0977C65.7956 73.7287 63.7931 76.3505 60.9492 78.335H60.9482C59.2981 79.486 57.4571 80.0778 55.8037 80.4688C54.971 80.6656 54.131 80.8224 53.3555 80.9648C52.5598 81.111 51.8356 81.2418 51.127 81.3945C48.6294 81.9328 47.098 82.6121 46.1367 84.1006L45.4531 85.1582V106.938H46.7988V98.3184C46.7988 97.2192 47.4287 96.3521 47.9971 95.7539C48.5872 95.1328 49.3485 94.5592 50.0293 94.0605C50.7522 93.531 51.395 93.0781 51.9248 92.6191C52.4783 92.1397 52.6962 91.8263 52.7549 91.6602C52.7798 91.5895 52.7984 91.4719 52.8066 91.3174C51.246 90.7697 50.109 89.3217 50.0215 87.5957L50.0166 87.3809L50.0215 87.166C50.1333 84.9616 51.9562 83.209 54.1885 83.209L54.4033 83.2139C56.6077 83.3257 58.3604 85.1487 58.3604 87.3809C58.3603 89.1868 57.2129 90.7241 55.6074 91.3047C55.5962 91.7122 55.5434 92.1685 55.3945 92.5908C55.0795 93.4842 54.3759 94.1989 53.7578 94.7344C53.1158 95.2906 52.3363 95.8403 51.6836 96.3184C50.9889 96.8272 50.4212 97.267 50.0264 97.6826C49.6097 98.1212 49.5977 98.3146 49.5977 98.3184V106.938H52.2949V100.721C52.295 98.886 53.3723 97.4652 54.5713 96.3838C55.7747 95.2985 57.3465 94.3369 58.7695 93.4658C60.2536 92.5574 61.5867 91.7409 62.5635 90.875C63.5487 90.0016 63.9062 89.3076 63.9062 88.7002V85.752C62.2887 85.2352 61.0994 83.7608 61.0098 81.9941L61.0049 81.7793L61.0098 81.5645C61.1216 79.36 62.9445 77.6074 65.1768 77.6074L65.3916 77.6123C67.596 77.7241 69.3486 79.5471 69.3486 81.7793C69.3486 83.5434 68.2533 85.05 66.7061 85.6602V88.7002C66.706 90.5152 65.6116 91.9133 64.4199 92.9697C63.2196 94.0337 61.6491 94.9851 60.2305 95.8535C58.751 96.7592 57.4199 97.5839 56.4463 98.4619C55.4683 99.3439 55.0938 100.066 55.0938 100.721V105.397L74.25 87.0635V66.4766ZM38.8672 82.4502L38.8926 82.4814V106.938H42.5156V74.1475L42.2861 74.4844L42.1465 74.6592C41.4769 75.396 40.3235 75.4074 39.6318 74.7148C39.5166 74.6526 39.4049 74.5801 39.2998 74.4961L39.2783 74.4795L39.2588 74.4619L39.1807 74.3936L39.1562 74.3721L39.1328 74.3496C39.043 74.2619 38.9554 74.1723 38.8672 74.085V82.4502ZM7.42871 86.8789L26.583 105.212V100.721C26.5829 100.066 26.2084 99.3439 25.2305 98.4619C24.2568 97.5839 22.9257 96.7591 21.4463 95.8535C20.0277 94.9852 18.4571 94.0337 17.2568 92.9697C16.0652 91.9133 14.9708 90.5152 14.9707 88.7002V85.8887C13.4603 85.3158 12.368 83.893 12.2822 82.2031L12.2773 81.9883L12.2822 81.7734C12.394 79.5692 14.2172 77.8167 16.4492 77.8164L16.6641 77.8213C18.8685 77.9331 20.6211 79.7561 20.6211 81.9883C20.6211 83.8307 19.4271 85.3927 17.7705 85.9453V88.7002C17.7706 89.3076 18.1282 90.0017 19.1133 90.875C20.09 91.7409 21.4232 92.5574 22.9072 93.4658C24.3303 94.3369 25.9021 95.2985 27.1055 96.3838C28.3045 97.4652 29.3818 98.886 29.3818 100.721V106.938H31.6631V98.3184C31.6631 98.3323 31.6595 98.1437 31.2227 97.6992C30.8123 97.2817 30.2227 96.841 29.5039 96.332C28.8276 95.8532 28.023 95.3049 27.3604 94.75C26.725 94.2179 25.9967 93.5031 25.6689 92.6045C25.5052 92.1554 25.4529 91.6687 25.4453 91.2422C23.987 90.6453 22.9412 89.2481 22.8574 87.5957L22.8525 87.3809L22.8574 87.166C22.9692 84.9616 24.7922 83.209 27.0244 83.209L27.2393 83.2139C29.4437 83.3257 31.1963 85.1487 31.1963 87.3809C31.1963 89.2574 29.9574 90.8437 28.2529 91.3682C28.2627 91.4925 28.2775 91.5871 28.2988 91.6455C28.3575 91.8064 28.5813 92.1204 29.1582 92.6035C29.7078 93.0638 30.3752 93.5181 31.1221 94.0469C31.8262 94.5454 32.6112 95.1181 33.2197 95.7373C33.8018 96.3296 34.4619 97.2015 34.4619 98.3184V106.938H36.3008V85.0879L35.4883 84.1035C34.3194 82.6861 32.6822 82.0156 30.333 81.4629C29.6316 81.2979 28.9245 81.1558 28.1426 80.9932C27.3833 80.8352 26.5656 80.661 25.7529 80.4482L25.1387 80.2793C23.6911 79.8612 22.155 79.2635 20.7373 78.2744H20.7363C17.9118 76.3033 15.9124 73.7086 14.4844 71.0996C12.2966 69.6777 9.95344 68.1208 7.42871 66.4248V86.8789ZM54.1885 85.9541C53.4008 85.9541 52.7617 86.5932 52.7617 87.3809L52.7695 87.5264C52.8424 88.2457 53.4499 88.8066 54.1885 88.8066C54.927 88.8066 55.5345 88.2457 55.6074 87.5264L55.6143 87.3809L55.6074 87.2354C55.5394 86.5638 55.0055 86.03 54.334 85.9619L54.1885 85.9541ZM27.0244 85.9541C26.2367 85.9541 25.5977 86.5932 25.5977 87.3809L25.6055 87.5264C25.6784 88.2457 26.2859 88.8066 27.0244 88.8066C27.763 88.8066 28.3705 88.2457 28.4434 87.5264L28.4502 87.3809L28.4434 87.2354C28.3753 86.5638 27.8414 86.03 27.1699 85.9619L27.0244 85.9541ZM16.4492 80.5615C15.6618 80.5618 15.0225 81.2008 15.0225 81.9883L15.0303 82.1338C15.1032 82.853 15.7109 83.4138 16.4492 83.4141C17.1877 83.414 17.7952 82.8531 17.8682 82.1338L17.875 81.9883L17.8682 81.8428C17.8001 81.1713 17.2662 80.6374 16.5947 80.5693L16.4492 80.5615ZM65.1768 80.3525C64.3891 80.3525 63.75 80.9916 63.75 81.7793L63.7578 81.9248C63.8307 82.6441 64.4382 83.2051 65.1768 83.2051C65.9153 83.2051 66.5228 82.6441 66.5957 81.9248L66.6025 81.7793L66.5957 81.6338C66.5277 80.9623 65.9938 80.4284 65.3223 80.3604L65.1768 80.3525ZM15.5781 63.958C16.6363 67.5324 18.6082 72.0133 22.4482 74.9062L22.873 75.2139C23.8382 75.8872 24.9495 76.3385 26.1689 76.6914L26.6982 76.8369C27.4112 77.0236 28.1476 77.1818 28.9023 77.3389C29.6497 77.4944 30.4259 77.6507 31.1885 77.8301C31.5905 77.9247 31.9957 78.0278 32.4004 78.1426C29.9252 75.8161 27.3575 73.8116 23.4365 71.9248C22.7407 71.5895 22.4477 70.7538 22.7822 70.0576C23.1174 69.3612 23.9539 69.0684 24.6504 69.4033C29.3163 71.6486 32.2512 74.0913 35.0615 76.8115V76.1494C34.8992 75.8781 34.7328 75.6063 34.5615 75.3369C32.5403 72.1568 29.939 69.1428 27.6309 67.5322C27.2867 67.2921 26.9316 67.0702 26.5693 66.8633C24.9987 67.6803 23.2085 68.4571 21.1621 69.1621H21.1611C19.7186 69.6571 18.201 68.5438 18.2812 66.9932V66.9922L18.3184 66.3848C18.3672 65.6841 18.4366 65.0091 18.5215 64.3584C17.9037 64.2655 17.3175 64.1877 16.7754 64.1182C16.3556 64.0643 15.9517 64.0107 15.5781 63.958ZM64.8594 64.2129C64.3284 64.2799 63.7534 64.3542 63.1475 64.4443C63.2316 65.0935 63.3002 65.7666 63.3486 66.4648L63.3848 67.0703C63.4658 68.6207 61.9488 69.7377 60.5039 69.2402C58.4558 68.5346 56.6649 67.7563 55.0938 66.9385C54.7374 67.1422 54.3879 67.3598 54.0498 67.5957C51.7545 69.1976 49.1703 72.1988 47.1641 75.3682C46.9108 75.7683 46.6688 76.1739 46.4355 76.5781V77.248C49.2992 74.5178 52.2823 72.0682 57.0352 69.8174C57.7337 69.4866 58.5685 69.7849 58.8994 70.4834C59.23 71.1819 58.9318 72.0159 58.2334 72.3467C54.6708 74.0339 52.2085 75.8167 49.9297 77.8369C50.0666 77.8054 50.2034 77.7755 50.3398 77.7461C51.118 77.5784 51.9108 77.4365 52.6816 77.2949C53.457 77.1525 54.2131 77.0088 54.9443 76.8359C56.4124 76.4888 57.7255 76.0325 58.8125 75.2744C62.9106 72.4149 64.9701 67.7518 66.0537 64.0566C65.6806 64.1083 65.2772 64.1601 64.8594 64.2129ZM47.7422 60.625C47.7129 61.0273 47.67 61.4434 47.6133 61.8721C47.294 64.2844 46.5114 67.0657 44.9004 70.1924V72.0264C46.9233 69.0938 49.4335 66.2657 51.9131 64.5352C51.9496 64.5097 51.9878 64.4861 52.0244 64.4609C50.6775 63.5069 49.5555 62.53 48.6123 61.5664C48.3026 61.25 48.0132 60.9353 47.7422 60.625ZM33.9766 60.5801C33.7132 60.8806 33.4335 61.1859 33.1338 61.4922C32.1818 62.4651 31.0466 63.4512 29.6826 64.4141C29.7105 64.4333 29.7387 64.4522 29.7666 64.4717C32.1207 66.1143 34.5077 68.7409 36.4824 71.5098V69.5137C35.0826 66.6281 34.3856 64.049 34.0957 61.7939C34.0421 61.3771 34.0042 60.972 33.9766 60.5801ZM37.4238 56.4473C37.2506 57.7734 37.1328 59.3952 37.3867 61.3711C37.7051 63.8477 38.62 66.9364 40.8594 70.6094C43.0792 66.9686 43.9989 63.9027 44.3252 61.4375C44.5873 59.4568 44.4741 57.8268 44.3037 56.4941C43.4365 56.6511 42.5472 56.7487 41.6416 56.7803L40.9854 56.792C39.7668 56.7919 38.5755 56.6718 37.4238 56.4473ZM74.25 52.3936C68.2842 53.9782 63.6572 53.9305 60.0996 53.2695C59.7299 53.2008 59.3727 53.1234 59.0273 53.043C59.2341 53.36 59.44 53.6918 59.6416 54.04C60.6889 55.8492 61.631 58.0656 62.2754 60.8037C63.0526 60.6831 63.77 60.5884 64.3926 60.5098C65.214 60.4061 65.7645 60.3362 66.1416 60.2705L66.4648 60.2051L66.6475 60.167C67.5617 60.0052 68.5148 60.2801 69.2012 60.9287V60.9297C69.9412 61.63 70.2774 62.684 70.0186 63.709V63.71C69.7877 64.6222 69.4888 65.6635 69.1016 66.7764C70.5312 65.8367 72.0272 64.8475 73.5938 63.8037L74.25 63.3662V52.3936ZM7.42871 63.3037L8.04199 63.7168C9.61694 64.7767 11.1202 65.7816 12.5566 66.7344C12.1579 65.6026 11.8485 64.5439 11.6113 63.6172V63.6162C11.3492 62.5902 11.6837 61.5325 12.4248 60.8301V60.8291L12.5664 60.7041C13.2887 60.1035 14.259 59.8834 15.168 60.1055H15.1689C15.5359 60.1953 16.1545 60.2764 17.25 60.417C17.8984 60.5002 18.652 60.5992 19.4688 60.7285C20.1134 57.9913 21.0544 55.7755 22.1016 53.9668C22.3104 53.606 22.524 53.2629 22.7383 52.9355C22.3524 53.0277 21.951 53.115 21.5342 53.1924C17.9855 53.8512 13.3726 53.8987 7.42871 52.3262V63.3037ZM53.585 51.5654C52.9866 52.1678 52.3357 52.7358 51.6318 53.2607L51.1064 53.6377C50.1295 54.3128 49.1024 54.879 48.043 55.3398C48.7245 56.5149 49.6361 57.9038 51.0723 59.3711C52.8426 61.1797 55.4499 63.1381 59.4365 64.8428C59.364 64.2958 59.2786 63.7714 59.1816 63.2686L58.8291 61.4404L58.9512 61.416C58.377 58.9967 57.555 57.0921 56.6787 55.5781C55.6588 53.8162 54.5512 52.5522 53.585 51.5654ZM28.1582 51.4922C27.1921 52.4788 26.0845 53.7421 25.0645 55.5039C24.1869 57.0197 23.3643 58.9279 22.79 61.3516L22.8398 61.3623L22.4873 63.1855C22.3898 63.691 22.3046 64.2182 22.2314 64.7676C23.4517 64.2617 24.5395 63.7322 25.5117 63.1943C27.7709 61.9142 29.4288 60.5682 30.6729 59.2969C32.1092 57.829 33.0207 56.4398 33.7021 55.2646C32.6418 54.8036 31.6135 54.2382 30.6357 53.5625L30.1104 53.1855C29.407 52.6611 28.7562 52.094 28.1582 51.4922ZM40.6729 27.3018C39.2172 27.3018 37.8143 27.5047 36.4941 27.8818C36.4267 27.9011 36.3585 27.915 36.29 27.9258C34.9839 28.3572 33.7191 28.9745 32.5391 29.79L32.1074 30.0986C31.12 30.8353 30.261 31.6721 29.5342 32.5801C29.489 32.6364 29.4395 32.6886 29.3877 32.7383C28.7394 33.6445 28.1963 34.6393 27.7832 35.7139L27.6113 36.1914C27.1485 37.5465 26.9222 38.9185 26.9092 40.2695C26.9086 40.3295 26.9044 40.3891 26.8975 40.4482C26.8979 40.4586 26.8991 40.4691 26.8994 40.4795C26.9283 41.6033 27.1053 42.7408 27.4434 43.8691L27.5986 44.3516C28.056 45.6903 28.711 46.9128 29.5215 48.0029C29.5717 48.0513 29.6201 48.1025 29.6641 48.1572C30.4914 49.1863 31.4878 50.122 32.6494 50.9248C33.8292 51.7401 35.0938 52.3567 36.3994 52.7881C36.4729 52.7999 36.546 52.8162 36.6182 52.8379C37.9933 53.2505 39.4602 53.4736 40.9854 53.4736C42.4321 53.4736 43.827 53.2724 45.1406 52.8994C45.2204 52.8768 45.3017 52.8614 45.3828 52.8506C46.6738 52.4199 47.9243 51.8078 49.0918 51.001C50.1651 50.2592 51.0965 49.4025 51.8848 48.4648C51.9377 48.3439 52.0039 48.2274 52.085 48.1191C52.9092 47.0188 53.5744 45.7823 54.0371 44.4277L54.1924 43.9453C54.4791 42.9884 54.6491 42.0252 54.7119 41.0693C54.628 40.8676 54.5783 40.6519 54.5762 40.4307C54.5631 39.0804 54.3369 37.7087 53.874 36.3535C53.448 35.1065 52.851 33.9602 52.1172 32.9287C52.0491 32.8664 51.9839 32.8008 51.9268 32.7275C51.0747 31.6341 50.0346 30.6412 48.8115 29.7959L48.3701 29.502C47.3543 28.8528 46.281 28.3443 45.1777 27.9697C45.1274 27.9596 45.077 27.9494 45.0273 27.9346C43.6555 27.5242 42.1931 27.3018 40.6729 27.3018ZM57.9287 42.3955C57.787 43.4011 57.549 44.409 57.208 45.4072C56.8403 46.4836 56.3678 47.5012 55.8086 48.4541C57.0934 49.0277 58.7056 49.6487 60.7959 50.0371C63.3644 50.5143 66.6991 50.643 70.9863 49.792C68.0703 46.7343 65.3173 44.9773 62.959 43.9238C61.0246 43.0598 59.3289 42.6545 57.9287 42.3955ZM23.707 42.3174C22.3069 42.5763 20.6112 42.9817 18.6768 43.8457C16.3184 44.8991 13.5646 46.6552 10.6484 49.7129C14.935 50.5637 18.2696 50.4368 20.8379 49.96C22.9283 49.5718 24.5403 48.9505 25.8252 48.377C25.2663 47.4242 24.7952 46.4068 24.4277 45.3311C24.0865 44.3319 23.8487 43.3237 23.707 42.3174ZM73.5205 33.3379C70.243 36.8147 67.0643 38.8701 64.2432 40.1182C63.943 40.251 63.6461 40.3715 63.3555 40.4863C63.6978 40.6201 64.0476 40.7649 64.4033 40.9238C67.3912 42.2585 70.7746 44.5008 74.25 48.375V39.9893C74.25 37.7098 73.9978 35.4848 73.5205 33.3379ZM8.15234 33.3711C7.67978 35.5078 7.42873 37.7215 7.42871 39.9893V48.2471C10.8889 44.4029 14.257 42.1747 17.2324 40.8457C17.5986 40.6821 17.9586 40.5335 18.3105 40.3965C17.9619 40.262 17.6049 40.1175 17.2422 39.957C14.4745 38.7325 11.3641 36.7293 8.15234 33.3711ZM70.9023 31.2168C66.6535 30.3734 63.3402 30.4909 60.7812 30.957C58.6818 31.3395 57.0595 31.9608 55.7666 32.5342C56.1713 33.2477 56.5268 33.9962 56.8271 34.7773L57.0439 35.374C57.4114 36.4499 57.6592 37.5365 57.7959 38.6201C59.1898 38.3659 60.8783 37.9676 62.8096 37.1133C65.1825 36.0635 67.9596 34.3022 70.9023 31.2168ZM20.7041 30.7959C18.145 30.3295 14.8312 30.2112 10.582 31.0547C13.525 34.1406 16.3026 35.9011 18.6758 36.9512C20.6072 37.8057 22.2955 38.2047 23.6895 38.459C23.8259 37.375 24.0727 36.2875 24.4404 35.2109C24.7813 34.2131 25.2113 33.265 25.7178 32.3721C24.425 31.7987 22.8032 31.1785 20.7041 30.7959ZM59.418 16.084C55.4312 17.773 52.8124 19.7186 51.0273 21.5195C49.5807 22.9791 48.6537 24.3677 47.9629 25.5459C48.9512 25.9901 49.9101 26.5268 50.8252 27.1592C51.7994 27.8324 52.6802 28.585 53.4668 29.3984C54.4301 28.4153 55.5314 27.1549 56.5469 25.4023C57.8074 23.2268 58.9577 20.2435 59.418 16.084ZM22.1016 15.958C22.5586 20.0875 23.6947 23.0582 24.9443 25.2295C25.9572 26.9892 27.0606 28.2562 28.0254 29.2451C28.7755 28.4877 29.6088 27.7851 30.5244 27.1523C31.4972 26.4801 32.5206 25.9168 33.5752 25.457C32.8901 24.2819 31.9715 22.8957 30.5332 21.4355C28.7475 19.6227 26.1189 17.6601 22.1016 15.958ZM62.8359 15.9707C62.3626 20.7497 61.0483 24.2854 59.5088 26.9424C59.2981 27.3059 59.0834 27.6519 58.8672 27.9814C59.2608 27.8885 59.67 27.8012 60.0957 27.7236C63.1629 27.1649 67.0189 27.0634 71.834 28.0625C69.8572 23.3828 66.7527 19.2473 62.8359 15.9707ZM18.7119 16.084C14.9192 19.2907 11.8982 23.3056 9.94043 27.8418C14.6208 26.906 18.3832 27.0138 21.3887 27.5615C21.8192 27.64 22.2332 27.7281 22.6309 27.8223C22.411 27.4857 22.1926 27.1317 21.9785 26.7598C20.4786 24.1538 19.2013 20.7087 18.7119 16.084ZM40.7783 10.2188C38.5715 13.8383 37.6512 16.8893 37.3203 19.3467C37.0543 21.3226 37.1609 22.9525 37.3291 24.2861C38.2037 24.1267 39.1002 24.0271 40.0137 23.9951L40.6729 23.9834C41.8865 23.9834 43.0726 24.1024 44.2197 24.3252C44.3907 22.9971 44.5021 21.374 44.2432 19.4023C43.9191 16.9353 43.0015 13.8654 40.7783 10.2188ZM43.4199 8.17383C46.0068 12.3235 47.1351 15.9389 47.5332 18.9697C47.5929 19.4246 47.635 19.8649 47.6641 20.29C47.9488 19.9665 48.2539 19.6387 48.5811 19.3086C50.7718 17.0983 53.9101 14.8239 58.5488 12.9268C54.1049 10.2675 48.9559 8.57695 43.4199 8.17383ZM38.1338 8.18359C32.6695 8.60096 27.5855 10.2725 23.1885 12.8916C27.7421 14.7848 30.8292 17.0405 32.9873 19.2314C33.3127 19.5618 33.6154 19.8903 33.8984 20.2139C33.9289 19.792 33.9715 19.3552 34.0322 18.9043C34.4383 15.8887 35.5691 12.2998 38.1338 8.18359Z" fill="#006793"/>
<path d="M146.81 60.6213C146.81 62.5104 146.478 64.248 145.815 65.8343C145.166 67.4205 144.265 68.7904 143.111 69.9441C141.957 71.0833 140.587 71.9773 139.001 72.6262C137.415 73.2752 135.692 73.5996 133.832 73.5996H118.647C118.243 73.5996 117.868 73.5275 117.522 73.3833C117.176 73.2391 116.873 73.0444 116.614 72.7993C116.369 72.5397 116.174 72.2369 116.03 71.8908C115.885 71.5447 115.813 71.1698 115.813 70.766V45.4151C115.813 45.0258 115.885 44.6581 116.03 44.312C116.174 43.9659 116.369 43.6631 116.614 43.4035C116.873 43.1439 117.176 42.942 117.522 42.7978C117.868 42.6536 118.243 42.5815 118.647 42.5815H133.832C135.692 42.5815 137.415 42.906 139.001 43.5549C140.587 44.2038 141.957 45.1051 143.111 46.2587C144.265 47.3979 145.166 48.7678 145.815 50.3685C146.478 51.9547 146.81 53.6852 146.81 55.5598V60.6213ZM141.186 55.5598C141.186 54.4639 141.006 53.4617 140.645 52.5532C140.299 51.6447 139.802 50.8732 139.153 50.2387C138.504 49.5898 137.725 49.0923 136.817 48.7462C135.923 48.3857 134.928 48.2055 133.832 48.2055H121.437V67.9757H133.832C134.928 67.9757 135.923 67.8026 136.817 67.4566C137.725 67.0961 138.504 66.5986 139.153 65.9641C139.802 65.3151 140.299 64.5437 140.645 63.6496C141.006 62.7411 141.186 61.7317 141.186 60.6213V55.5598ZM182.716 70.766C182.716 71.1698 182.644 71.5447 182.5 71.8908C182.356 72.2369 182.154 72.5397 181.894 72.7993C181.635 73.0444 181.332 73.2391 180.986 73.3833C180.64 73.5275 180.272 73.5996 179.883 73.5996H167.207C166.01 73.5996 164.799 73.4698 163.573 73.2103C162.348 72.9507 161.158 72.5541 160.004 72.0206C158.865 71.4726 157.791 70.7804 156.781 69.9441C155.772 69.1077 154.885 68.1199 154.121 66.9807C153.371 65.8271 152.78 64.5148 152.347 63.0439C151.915 61.5587 151.698 59.9075 151.698 58.0906V42.5815H157.322V58.0906C157.322 59.6768 157.539 61.0179 157.971 62.1138C158.418 63.2098 158.981 64.1255 159.658 64.8609C160.336 65.5963 161.079 66.1732 161.886 66.5913C162.694 67.0095 163.458 67.3196 164.179 67.5215C164.915 67.7233 165.556 67.8531 166.104 67.9108C166.667 67.9541 167.034 67.9757 167.207 67.9757H177.092V42.5815H182.716V70.766ZM220.267 53.0074C220.267 54.2908 220.108 55.4372 219.791 56.4467C219.474 57.4561 219.041 58.3501 218.493 59.1288C217.96 59.8931 217.34 60.5492 216.633 61.0972C215.926 61.6452 215.184 62.0994 214.405 62.4599C213.641 62.806 212.862 63.0584 212.069 63.217C211.29 63.3756 210.555 63.4549 209.863 63.4549L221.608 73.5996H212.913L201.189 63.4549H197.144V57.831H209.863C210.569 57.7733 211.211 57.6291 211.788 57.3984C212.379 57.1533 212.884 56.8288 213.302 56.425C213.734 56.0213 214.066 55.5382 214.297 54.9758C214.528 54.399 214.643 53.7428 214.643 53.0074V49.46C214.643 49.1428 214.6 48.9048 214.513 48.7462C214.441 48.5732 214.34 48.4506 214.21 48.3785C214.095 48.292 213.965 48.2415 213.821 48.2271C213.691 48.2127 213.569 48.2055 213.453 48.2055H194.894V73.5996H189.27V45.4151C189.27 45.0258 189.343 44.6581 189.487 44.312C189.631 43.9659 189.826 43.6631 190.071 43.4035C190.33 43.1439 190.633 42.942 190.979 42.7978C191.325 42.6536 191.7 42.5815 192.104 42.5815H213.453C214.708 42.5815 215.768 42.8123 216.633 43.2737C217.498 43.7207 218.198 44.2903 218.731 44.9825C219.279 45.6603 219.668 46.3957 219.899 47.1888C220.144 47.9819 220.267 48.7246 220.267 49.4168V53.0074ZM231.58 55.257H251.328V42.5815H256.952V73.5996H251.328V60.9242H231.58V73.5996H225.956V42.5815H231.58V55.257ZM293.983 73.5996H288.36V65.9857H268.589V73.5996H262.965V58.0906C262.965 55.8266 263.355 53.7428 264.133 51.8394C264.912 49.9359 265.994 48.2992 267.378 46.9293C268.762 45.5593 270.399 44.4922 272.288 43.7279C274.177 42.9637 276.239 42.5815 278.474 42.5815H291.15C291.539 42.5815 291.907 42.6536 292.253 42.7978C292.599 42.942 292.902 43.1439 293.162 43.4035C293.421 43.6631 293.623 43.9659 293.767 44.312C293.911 44.6581 293.983 45.0258 293.983 45.4151V73.5996ZM268.589 60.3618H288.36V48.2055H278.474C278.301 48.2055 277.934 48.2343 277.371 48.292C276.823 48.3352 276.182 48.4578 275.446 48.6597C274.725 48.8616 273.961 49.1716 273.153 49.5898C272.346 50.008 271.603 50.5848 270.925 51.3202C270.248 52.0557 269.685 52.9786 269.238 54.0889C268.806 55.1849 268.589 56.5188 268.589 58.0906V60.3618ZM328.311 73.5996H308.022C307.503 73.5996 306.94 73.5419 306.334 73.4266C305.743 73.2968 305.152 73.1021 304.561 72.8425C303.984 72.583 303.429 72.2513 302.895 71.8475C302.362 71.4294 301.886 70.9319 301.468 70.355C301.064 69.7638 300.739 69.0861 300.494 68.3218C300.249 67.5431 300.127 66.6707 300.127 65.7045V50.4766C300.127 49.9575 300.184 49.4023 300.3 48.8111C300.429 48.2055 300.624 47.6142 300.884 47.0374C301.143 46.4462 301.482 45.8838 301.9 45.3502C302.318 44.8167 302.816 44.348 303.393 43.9443C303.984 43.5261 304.662 43.1944 305.426 42.9492C306.19 42.7041 307.055 42.5815 308.022 42.5815H328.311V48.2055H308.022C307.286 48.2055 306.724 48.4001 306.334 48.7895C305.945 49.1788 305.75 49.7556 305.75 50.5199V65.7045C305.75 66.4255 305.945 66.9879 306.334 67.3917C306.738 67.781 307.301 67.9757 308.022 67.9757H328.311V73.5996ZM366.143 73.5996H358.161L345.507 60.9242H341.549V55.257H345.507L358.161 42.5815H366.143L350.201 58.0906L366.143 73.5996ZM339.299 73.5996H333.675V42.5815H339.299V73.5996ZM397.766 53.6563L407.241 42.5815H414.919L401.573 58.1338L414.833 73.5996H407.197L397.766 62.6113L388.379 73.5996H380.722L393.959 58.1338L380.678 42.5815H388.292L397.766 53.6563Z" fill="#066E9B"/>
</svg>
