<svg version="1.1" viewBox="0 0 482 589" xmlns="http://www.w3.org/2000/svg" xmlns:xlink="http://www.w3.org/1999/xlink">
  <path d="m8.5725 344.77c3.2814-2.301 7.7669-2.459 10.87-5 3.964-3.249 4.1339-8.664 6.5773-12.825 3.4747-5.922 7.8431-5.74 14.063-6.405 6.1145-.656 11.455-4.421 17.435-5.843 7.4505-1.772 16.296-.131 21.965-5.28 2.9972-2.718 4.345-6.771 5.385-10.682 1.0401-3.913 1.9512-8 4.38-11.236 10.222-13.631 32.237 11.367 40.446-2.557 5.555-9.423 15.868-10.473 25.389-10.473 9.519 0 33.324-29.318 52.365-29.318 19.042 0 39.671 18.849 46.81 16.754 7.141-2.098 23.802-26.181 31.738-39.792 7.934-13.613 19.04-9.425 26.182-7.331 7.141 2.093 10.315-18.846 30.15-21.99 19.834-3.141 35.704 23.039 43.638 27.227 7.934 4.187 17.454 0 21.421 4.187 3.967 4.19 3.967 19.895 10.315 23.039 6.346 3.142 23.007 1.046 28.563-4.19 5.554-5.235 11.902-10.468 15.868-1.046 3.967 9.423 15.869 20.945 20.63 14.66.754-.996 2.254-2.104 4.238-3.252v335.58l-487-217.87c.91702-2.82 1.6085-5.712 2.0391-8.642.94339-6.426 1.2158-13.985 6.5334-17.715z" fill="url(#di)"/>
  <path d="m191.49 298.9 22.104-12.273-.351-.587-21.626 12.009c1.86-12.051 4.269-24.625 7.394-37.382l26.003-13.011-.322-.597-25.463 12.737c2.126-8.59 4.571-17.262 7.389-25.897l.018.039 15.12-8.223-.344-.589-14.447 7.857-.024-.049c2.727-8.274 5.788-16.517 9.24-24.63l13.026-7.313-.351-.582-12.23 6.863c3.606-8.387 7.617-16.633 12.09-24.633l-.617-.323c-4.43 7.923-8.404 16.089-11.984 24.386l-1.709-8.645-.688.123 1.906 9.643c-3.395 7.969-6.411 16.061-9.108 24.18l-5.013-10.964-.64.272 5.328 11.657c-2.97 9.044-5.538 18.118-7.752 27.105l-8.039-14.488-.618.32 8.413 15.158c-2.961 12.163-5.28 24.159-7.086 35.684l-7.05-19.83-.661.22 7.489 21.07c-1.518 9.879-2.668 19.4-3.522 28.369-3.328-4.23-15.266-22.842-5.761-62.988l10.772-1.978-10.01-7.077s-.112-13.498 11.861-38.436l12.177-1.309-6.211-5.624s14.789-23.608 36.38-38.633c0 0 5.198 34.385 2.794 48.042l-11.886 2.797 11.681 5.846s-1.997 28.633-4.561 39.864l-14.248 5.374 12.37 4.498s-9.237 33.96-44.545 50.579l-.184-.201c.849-8.979 1.986-18.52 3.496-28.43z" fill="url(#cu)"/>
  <path d="m210.5 229.76c1.115-1.115 12.992-11.26 19.523-12.83 8.271-1.987 9.036-1.818 15.601-5.661 7.602-7.634 19.991-3.178 24.005 1.757 6.681 1.312 12.829 7.355 23.892 20.759-16.734-2.669-55.224 2.231-70.192 8.247-9.317 3.745-19.552 2.804-25.101 5.578 6.694-7.251 10.649-16.227 12.272-17.85z" fill="url(#ae)"/>
  <path d="m299.1 239.36 11.821 4.318c3.05 4.464 7.215 8.447 10.43 15.835 1.391 4.572 1.449 7.55.695 13.316-3.934-12.071-5.91-22.673-22.946-33.469z" fill="url(#ai)"/>
  <path d="m263.96 230.88c1.844.378 4.549-5.113 11.156-3.905 8.367 1.53 2.481-10.299 10.041-11.156 10.041-3.905 16.177 4.462 17.85 10.599 5.578 3.904 5.907 4.577 10.599 21.312-20.274-11.405-51.32-13.388-73.075-10.599 11.714-2.789 21.181-6.712 23.429-6.251z" fill="url(#ad)"/>
  <path d="m267.51 281.46c1.593-1.593 18.551-16.079 27.876-18.319 11.81-2.838 12.902-2.597 22.277-8.084 10.854-10.901 28.544-4.537 34.275 2.508 9.54 1.874 18.318 10.502 34.115 29.642-23.894-3.811-78.853 3.186-100.22 11.775-13.304 5.347-27.917 4.003-35.841 7.965 9.558-10.354 15.206-23.17 17.523-25.487z" fill="url(#ck)"/>
  <path d="m343.84 283.06c2.634.54 6.495-7.3 15.93-5.575 11.947 2.184 3.543-14.706 14.337-15.93 14.337-5.576 23.098 6.371 25.487 15.133 7.965 5.575 8.434 6.536 15.134 30.431-28.949-16.284-73.277-19.116-104.34-15.133 16.726-3.983 30.242-9.585 33.452-8.926z" fill="url(#bz)"/>
  <path d="m447.04 338.76c-45.003 26.709-38.381 90.198-58.071 87.212 35.06-70.827-14.672-94.249-1.374-123.37 3.47-7.598 10.591-7.974 14.829-16.911 5.354-15.953 11.399-16.904 18.094-22.007 9.32-7.105 20.384-2.385 34.959-13.06-.514 6.003-1.491 18.936 3.995 23.759 5.325 7.195.931 8.923 1.333 17.766 8.62 18.072-5.663 21.861-8.607 31.426-3.389 11.012 2.674 5.85-5.158 15.184z" fill="url(#bo)"/>
  <path d="m447.04 338.76c-45.003 26.709-38.381 90.198-58.071 87.212 35.06-70.827-14.672-94.249-1.374-123.37 3.47-7.598 10.591-7.974 14.829-16.911 5.354-15.953 11.399-16.904 18.094-22.007 9.32-7.105 20.384-2.385 34.959-13.06-.514 6.003-1.491 18.936 3.995 23.759 5.325 7.195.931 8.923 1.333 17.766 8.62 18.072-5.663 21.861-8.607 31.426-3.389 11.012 2.674 5.85-5.158 15.184z" fill="url(#bd)" fill-opacity=".2"/>
  <path d="m176.53 342.09-24.572-5.183.145-.668 24.041 5.074c-5.524-10.99-11.725-22.318-18.659-33.613l-28.457-4.725.11-.668 27.873 4.622c-4.689-7.597-9.699-15.169-15.05-22.607l-.004.043-16.757-3.379.138-.668 16.01 3.227.004-.054c-5.149-7.112-10.603-14.102-16.389-20.843l-14.505-3.128.149-.664 13.616 2.936c-6.009-6.961-12.359-13.667-19.062-20.003l.478-.491c6.64 6.272 12.925 12.911 18.885 19.794l-1.112-8.787.687-.088 1.236 9.808c5.684 6.618 11.048 13.47 16.123 20.449l1.261-11.996.687.07-1.339 12.757c5.62 7.773 10.875 15.702 15.769 23.656l2.996-16.272.676.12-3.13 17.028c6.59 10.774 12.525 21.575 17.837 32.076l.389-21.09.691.009-.415 22.413c4.523 9.011 8.584 17.792 12.2 26.127 1.795-5.035 7.146-26.426-14.36-62.055l-10.715 1.315 7.163-9.759s-4.125-12.965-23.177-33.292l-11.831 2.367 4.062-7.233s-21.272-18.219-46.223-26.183c0 0 5.9102 34.486 12.447 46.853l12.023-.862-9.115 9.081s10.853 26.837 16.781 36.83l15.043.911-10.188 7.986s19.31 29.787 57.629 35.201l.107-.245c-3.609-8.353-7.671-17.155-12.196-26.197z" fill="url(#au)"/>
  <path d="m183.95 233.43-1.689-9.434c49.697 5.708 63.95 66.444 88.977 149.59l-11.136 1.993c-13.297-51.613-32.545-132.7-76.152-142.15z" fill="url(#aj)"/>
  <path d="m167.67 207.36c3.434 5.604 6.702 11.578.33 13.464-2.092 1.282-6.571-2.222-10.005-7.826-1.245-2.031-.705-2.534-2.431-12.466 6.991.498 8.254 2.489 12.106 6.828z" fill="url(#y)"/>
  <path d="m156.45 210.5c6.359 1.662 12.854 3.705 9.566 9.481-.62 2.373-6.278 2.95-12.636 1.288-2.305-.602-2.264-1.339-10.391-7.305 5.386-4.484 7.677-3.924 13.461-3.464z" fill="url(#n)"/>
  <path d="m149.85 224.42c8.968-4.55 18.401-8.959 18.956-2.043 1.109 2.187-5.261 7.649-14.229 12.199-3.252 1.649-3.779 1.106-18.248 4.278 2.985-7.907 6.186-9.572 13.521-14.434z" fill="url(#dk)"/>
  <path d="m147.41 238.34c8.688-8.674 17.916-17.414 20.175-10.599 1.733 1.736-3.905 10.175-12.593 18.849-3.149 3.145-3.854 2.827-18.868 12.564 1.362-9.416 4.453-12.554 11.286-20.814z" fill="url(#cv)"/>
  <path d="m154.34 256.3c11.871-3.129 25.72-12.115 24.246-5.088.625 2.372-8.285 14.884-20.157 18.013-4.303 1.135-7.03 9.885-24.905 10.752 5.913-7.454 10.756-19.973 20.816-23.677z" fill="url(#ct)"/>
  <path d="m152.04 241.74c8.722-1.794 18.63-10.076 17.878-2.153.586 2.848-5.452 15.985-14.174 17.779-3.161.651-4.764 10.379-18.087 8.621 4.049-7.732 7.046-21.506 14.383-24.247z" fill="url(#cs)"/>
  <path d="m156.78 265.48c11.871-3.129 25.794-15.403 24.32-8.376.625 2.372-12.122 6.534-19.624 19.644-2.774 4.848-5.963 13.383-13.936 20.071 5.912-7.454-3.464-19.157 9.24-31.339z" fill="url(#cr)"/>
  <path d="m193.76 193.42c-.217 11.332 2.494 16.856-4.909 13.745-2.85-.054-6.575-11.18-6.358-22.512.078-4.108-.936-9.141 7.142-18.524 4.186 11.009 3.131 17.419 4.125 27.291z" fill="url(#cq)"/>
  <path d="m184.4 196.72c-.692 6.942.446 19.999-6.796 17.44-2.837-.282-4.364-10.013-3.672-16.955.251-2.517-.934-12.553 7.507-17.611 3.706 7.129 2.386 10.974 2.961 17.126z" fill="url(#cp)"/>
  <path d="m209.92 185.81c-5.284 8.907-9.905 28.118-17.982 20.449-2.452-1.454 2.629-14.89 7.913-23.797 1.915-3.229 7.519-16.939 18.757-20.404-1.314 10.83-5.112 15.407-8.688 23.752z" fill="url(#co)"/>
  <path d="m226.14 197.76c-11.202 10.038-14.194 19.972-21.955 18.15-2.328-1.645 8.403-18.377 16.762-24.49 12.062-8.821 17.576-3.329 29.055-5.887-4.989 13.231-18.144 8.73-23.862 12.227z" fill="url(#cn)"/>
  <path d="m225.81 216.05c-12.049 2.966-16.984 6.374-23.077 10.062-2.079-1.95 11.177-12.875 20.298-17.779 13.161-7.076 17.787-3.258 28.097-1.108-1.748 9.977-19.143 8.752-25.318 8.825z" fill="url(#cm)"/>
  <path d="m222.66 223.3c-11.461 1.853-17.548 9.645-23.973 12.441-1.27-1.772 14.305-15.49 23.746-19.151 13.622-5.283 16.596-1.783 25.055.615-4.408 8.379-19.371 6.375-24.828 6.095z" fill="url(#cl)"/>
  <path d="m226.14 238.5c-9.48.433-21.304 2.131-26.424 3.991-2.635-7.539 17.915-7.871 25.487-10.193 10.925-3.351 13.827.201 21.242 3.347-2.796 7.224-15.662 3.718-20.305 2.855z" fill="url(#cj)"/>
  <path d="m202.75 236.09c-9.48.434-13.886 4.505-19.006 6.365-1.269-1.772 17.472-10.799 25.044-13.121 10.926-3.352 10.014-2.928 17.428.218.057 6.978-18.822 7.402-23.466 6.538z" fill="url(#ci)"/>
  <path d="m194.67 255.28c.745-11.59-9.825-21.47-13.444-25.719 1.398-2.458 16.919 11.704 21.829 18.258 7.085 9.458 6.345 8.758 5.585 18.585-7.151 4.447-13.309-5.666-13.97-11.124z" fill="url(#ch)"/>
  <path d="m206.95 257.23c-3.491-11.078-16.915-16.474-21.824-19.13.416-2.797 20.003 4.805 26.949 9.144 10.022 6.262 9.079 5.877 11.918 15.314-5.062 6.729-14.457-.478-17.043-5.328z" fill="url(#cg)"/>
  <path d="m185.36 261.94c7.627-8.76 5.223-23.027 4.926-28.6 2.603-1.106 6.342 19.57 6.267 27.76-.11 11.816-.273 10.811-6.842 18.159-8.382-.806-7.138-12.581-4.351-17.319z" fill="url(#cf)"/>
  <path d="m169.5 265.81c9.022-3.698 12.594-15.307 14.472-19.599 2.369.151-.082 14.857-3.225 20.972-4.535 8.824-8.977 3.352-16.138 15.413-5.985-3.763 1.015-14.281 4.891-16.786z" fill="url(#ce)"/>
  <path d="m173.96 270.42c7.77-5.892 12.899-21.619 13.61-26.251 2.328-.462 2.051 13.656.585 20.374-2.115 9.692-10.787 9.86-14.609 23.356-6.75-2.099-2.688-14.063.414-17.479z" fill="url(#cd)"/>
  <path d="m207.62 248.52c-9.165-7.135-19.811-1.757-25.359-1.155-1.247-2.538 19.192-7.407 27.374-7.78 11.805-.539 10.81-.32 18.507 5.835-.345 8.414-15.638 5.623-20.522 3.1z" fill="url(#cc)"/>
  <path d="m216.89 212.18c-9.676 5.904-13.177 15.059-18.179 19.923-1.548-1.094 7.692-17.985 15.148-24.736 10.76-9.741 14.175-5.733 23.492-9.818-5.963 12.542-15.573 12.847-20.461 14.631z" fill="url(#cb)"/>
  <path d="m221.04 185.61c-5.977 8.457-16.641 21.78-18.178 21.514-2.328-1.646 2.431-17.197 8.409-25.655 2.166-3.065 8.846-16.285 20.325-18.842-2.174 10.69-6.326 14.95-10.556 22.983z" fill="url(#ca)"/>
  <path d="m222.35 194.16c-7.53 7.109-20.616 18.063-22.071 17.498-1.957-2.073 5.782-16.378 13.312-23.487 2.73-2.578 11.89-14.217 23.647-14.456-4.243 10.051-9.154 13.406-14.888 20.445z" fill="url(#by)"/>
  <path d="m174.32 199.06c4.034 6.581 6.966 15.893-.018 17.801-2.265 1.388-4.151-6.193-8.184-12.775-1.462-2.386-3.215-1.202-3.202-14.43 7.767.857 7.371 2.822 11.404 9.404z" fill="url(#bx)"/>
  <path d="m167.14 254.68c-10.169-6.424-8.764-25.269-.031-39.094s28.784-21.289 38.953-14.865c7.793 11.282 4.573 20.931-1.384 36.389-8.733 13.824-27.369 23.993-37.538 17.57z" fill="url(#bw)"/>
  <path d="m167.14 254.68c-10.169-6.424-8.764-25.269-.031-39.094s28.784-21.289 38.953-14.865c7.793 11.282 4.573 20.931-1.384 36.389-8.733 13.824-27.369 23.993-37.538 17.57z" fill="url(#bv)" fill-opacity=".5"/>
  <path d="m441.57 255.44c.869-.994 3.839-.492 8.511-.931 4.791-.451 6.847 7.531 11.674 5.433 7.865-.518 7.022-9.658 4.767-15.314 1.179-5.272 1.016-5.946-5.059-21.417-21.824 7.384-14.237 24.902-28.298 30.677 8.247-2.053 7.346 2.764 8.405 1.552z" fill="url(#ay)"/>
  <path d="m446.04 251.89-11.888 2.013c-3.65 3.675-8.267 6.704-12.581 13.106-2.106 4.065-2.678 6.861-2.971 12.424 5.806-10.688 9.511-20.333 27.44-27.543z" fill="url(#ax)"/>
  <path d="m396.29 191.62 2.135-11.562c34.639 24.328 23.394 99.968 12.069 205.48l-8.934-1.649c8.682-64.701 23.532-165.76-5.27-192.27z" fill="url(#aw)"/>
  <path d="m380.29 215.48c-5.644-3.907-.58-20.123 8.466-33.191 9.047-13.068 24.546-22.458 30.19-18.551 2.944 8.395 1.218 13.389-8.859 31.11-9.046 13.068-24.153 24.539-29.797 20.632z" fill="url(#bu)"/>
  <path d="m420.7 181.35c-7.426-1.543-21.432-2.742-20.477 2.431-.379 1.822 4.315 5.515 11.74 7.058 2.692.559 17.457.911 23.763 2.075-1.326-4.592-10.667-10.659-15.026-11.564z" fill="url(#bt)"/>
  <path d="m395.21 212.01c-4.68-2.219-12.675-7.605-9.655-10.806.686-1.446 4.966-1.948 9.645.271 1.697.805 7.811 14.677 11.715 16.664-5.256-.97-8.957-4.826-11.705-6.129z" fill="url(#bs)"/>
  <path d="m388.51 220.72c-4.68-2.22-9.564-7.196-6.544-10.398.686-1.445 4.966-1.947 9.645.272 1.697.805 2.356 21.777 8.857 24.833-9.945.882-9.211-13.404-11.958-14.707z" fill="url(#br)"/>
  <path d="m368.98 177.77c12.42 4.748 24.659 12.09 18.923 17.34-.948 2.481-11.786.644-24.206-4.104-4.502-1.722-9.837-1.09-17.121-15.628 10.495-.774 11.216-.706 22.404 2.392z" fill="url(#bq)"/>
  <path d="m379.62 163.97c11.589 10.071 21.545 23.355 12.1 28.09-2.449 2.818-13.828-3.063-25.417-13.135-4.201-3.651-10.648-4.608-10.982-25.338 12.425 2.473 13.211 2.796 24.299 10.383z" fill="url(#bp)"/>
  <path d="m357.1 216.32c15.331-2.268 25.251-.211 22.046 5.871.311 2.097-2.941 3.558-18.272 5.826-5.558.823-11.857 5.061-26.97-1.56 10.462-5.155 9.999-7.296 23.196-10.137z" fill="url(#bn)"/>
  <path d="m358.21 205.87c14.367 5.81 21.547 13.426 15.177 18.349-.996 2.463-4.632 2.302-19-3.509-5.208-2.106-13.096-.876-21.942-16.295 11.97.018 12.864-2.575 25.765 1.455z" fill="url(#bm)"/>
  <path d="m385.68 175.52c5.541 5.088 8.852 12.785 2.361 16.939-1.926 2.097-4.271 1.996-9.812-3.092-2.008-1.845-6.432-9.129-3.473-22.385 7.164 2.409 7.672 5.55 10.924 8.538z" fill="url(#bl)"/>
  <path d="m394.58 156.92c5.541 5.089 8.851 12.786 2.36 16.94-1.925 2.097-4.27 1.996-9.811-3.093-2.009-1.845-6.433-9.129-3.473-22.385 7.164 2.41 7.671 5.551 10.924 8.538z" fill="url(#bk)"/>
  <path d="m389.56 160.43c6.177 9.313 10.18 20.284 3.62 21.122-1.888 1.253-4.365-.305-10.542-9.618-2.239-3.376-10.63-12.118-8.4-25.695 10.22 3.517 11.695 8.723 15.322 14.191z" fill="url(#bj)"/>
  <path d="m398.7 146.16c6.178 9.313 5.135 33.384-1.425 34.222-1.888 1.252.681-13.404-5.496-22.717-2.24-3.376-10.631-12.118-8.4-25.695 10.22 3.516 11.695 8.723 15.321 14.19z" fill="url(#bi)"/>
  <path d="m405.36 140.09c3.111 10.734 1.206 38.17-5.304 37.008-2.176.631-1.629-17.365-4.74-28.099-1.128-3.891-6.521-14.742-.334-27.031 8.701 6.411 8.552 11.82 10.378 18.122z" fill="url(#bh)"/>
  <path d="m412.2 140.75c-2.029 10.989-5.415 37.001-11.925 35.84-2.176.63 6.708-21.209 3.597-31.943-1.128-3.891-3.998-15.959 2.189-28.248 8.702 6.411 7.109 19.095 6.139 24.351z" fill="url(#bg)"/>
  <path d="m422.73 157.37c-3.951 8.447-8.216 16.665-13.849 14.733-2.08.167 8.394-14.651 9.415-24.907.325-3.27-.51-13.339 7.434-22.179 3.467 9.091-1.111 28.314-3 32.353z" fill="url(#bf)"/>
  <path d="m415.63 160.07c-4.175 8.924-8.681 17.607-14.633 15.566-2.198.176 7.432-15.31 8.511-26.146.344-3.455.898-14.264 9.292-23.604 3.663 9.606-1.174 29.916-3.17 34.184z" fill="url(#be)"/>
  <path d="m419.96 165.39c-4.19 4.384-8.526 8.561-11.596 6.2-1.316-.33 8.218-7.283 10.979-13.39.88-1.948 2.458-8.326 9.191-12.122.247 6.323-6.57 17.216-8.574 19.312z" fill="url(#b)"/>
  <path d="m419.96 165.39c-4.19 4.384-8.526 8.561-11.596 6.2-1.316-.33 8.218-7.283 10.979-13.39.88-1.948 2.458-8.326 9.191-12.122.247 6.323-6.57 17.216-8.574 19.312z" fill="url(#b)"/>
  <path d="m425.24 164.35c-7.727 4.196-8.526 8.561-11.596 6.2-1.316-.33 4.647-9.887 10.734-12.693 10.102-4.657 10.898-3.09 14.693-2.39-3.694 5.296-11.283 7.499-13.831 8.883z" fill="url(#bc)"/>
  <path d="m355.92 247.58c-2.815 8.33-.434 12.075-4.291 12.43-1.189.652-3.312-10.41-.755-16.606 4.244-10.283 5.893-9.675 9.153-11.741.89 6.396-3.179 13.17-4.107 15.917z" fill="url(#bb)"/>
  <path d="m363 244.54c-2.815 8.33-3.377 13.157-7.233 13.511-1.19.653-.37-11.491 2.187-17.687 4.244-10.283 5.892-9.675 9.152-11.741.89 6.396-3.178 13.17-4.106 15.917z" fill="url(#ba)"/>
  <path d="m372.94 239.02c2.775-8.343.377-12.077 4.232-12.449 1.186-.659 3.361 10.394.834 16.601-4.196 10.303-5.847 9.703-9.097 11.784-.92-6.391 3.115-13.184 4.031-15.936z" fill="url(#az)"/>
  <path d="m364.39 186.23c13.021 2.693 26.28 7.974 21.461 14.077-.538 2.601-11.529 2.528-24.55-.165-4.721-.976-10.373-2.81-19.896-15.99 10.234-2.449 11.444.816 22.985 2.078z" fill="url(#av)"/>
  <path d="m354.58 226.99c15.331-2.268 27.813-7.653 24.608-1.571.311 2.098-5.504 11-20.835 13.269-5.557.822-11.857 5.06-26.97-1.56 10.462-5.155 10-7.296 23.197-10.138z" fill="url(#at)"/>
  <path d="m366.44 234.68c7.629-7.342 11.904-15.843 13.379-10.309 1.328 1.38 2.837 9.899-4.792 17.241-2.766 2.662-4.091 8.036-16.46 8.959 3.232-7.583 1.792-8.937 7.873-15.891z" fill="url(#as)"/>
  <path d="m362.37 206.86c12.151-6.054 21.751-5.468 21.978 2.962 1.303 2.616-1.324 7.467-13.474 13.521-4.405 2.194-7.235 6.589-23.581 1.242 6.512-8.739 5.056-11.379 15.077-17.725z" fill="url(#ar)"/>
  <path d="m364.67 196.09c15.231 1.669 24.238 5.8 19.706 10.305-.207 1.889-5.497 3.383-20.728 1.714-5.521-.606-10.751.569-23.636-8.742 11.261-1.983 11.333-3.945 24.658-3.277z" fill="url(#aq)"/>
  <path d="m408.32 188.5c-6.446-3.995-14.177-6.15-15.053-.964-.98 1.581-1.432 2.737 5.014 6.732 2.337 1.448 5.878.542 15.728.185-4.861-5.374-1.905-3.607-5.689-5.953z" fill="url(#ap)"/>
  <path d="m401.2 196.47c-6.447-3.995-14.177-6.15-15.053-.964-.98 1.581-1.432 2.737 5.014 6.732 2.337 1.448 5.878.542 15.728.185-4.861-5.374-1.905-3.607-5.689-5.953z" fill="url(#ao)"/>
  <path d="m413.21 177.76c-7.426-1.543-15.427-.918-14.472 4.254-.379 1.823-.696 1.869 6.729 3.412 2.692.559 5.997-.311 15.128-4.025-6.408-3.382-3.026-2.735-7.385-3.641z" fill="url(#an)"/>
  <path d="m428.45 166.25c-5.335-1.108-11.042-.864-10.263 2.407-.237 1.138-.463 1.162 4.872 2.27 1.934.402 4.281-.083 10.737-2.249-4.643-2.246-2.214-1.777-5.346-2.428z" fill="url(#am)"/>
  <path d="m418.95 172.22c-5.359-.989-15.618 1.919-14.839 5.19-.237 1.139 3.599.541 8.934 1.649 1.934.402 16.059 1.334 21.839 2.402-2.28-5.313-7.284-7.644-15.934-9.241z" fill="url(#al)"/>
  <path d="m186.04 376.82 25.203.171.005-.681-24.657-.179c7.83-9.648 16.401-19.485 25.677-29.129l28.906 1.462.037-.682-28.31-1.434c6.267-6.485 12.844-12.882 19.725-19.064l-.006.043 17.146.279.013-.689-16.385-.261.007-.061c6.612-5.908 13.492-11.622 20.638-17.026l14.894.036.004-.69-13.982-.034c7.419-5.569 15.112-10.819 23.074-15.623l-.361-.59c-7.882 4.758-15.501 9.955-22.852 15.46l3.023-8.428-.652-.232-3.372 9.401c-7.024 5.308-13.787 10.912-20.296 16.701l1.412-12.095-.689-.082-1.5 12.87c-7.219 6.454-14.108 13.143-20.656 19.936l.656-16.694-.691-.025-.685 17.465c-8.828 9.205-17.023 18.581-24.535 27.798l4.267-20.888-.677-.14-4.538 22.199c-6.411 7.917-12.325 15.694-17.702 23.139-.645-5.354-1.174-27.598 27.734-58.11l10.207 3.602-4.864-11.164s6.899-11.9 30.03-27.848l11.061 4.878-2.384-8.005s24.845-13.388 51.032-15.877c0 0-13.39 32.742-22.515 43.528l-11.581-3.433 6.925 10.919s-16.544 24.128-24.549 32.712l-14.932-2.34 8.217 10.069s-25.476 25.217-64.186 22.312l-.051-.261c5.377-7.464 11.291-15.269 17.715-23.215z" fill="#2B4734"/>
  <path d="m284 170 18.966 6.694c4.894 6.919 11.576 13.093 16.734 24.544 2.233 7.086 2.325 11.703 1.116 20.64-6.313-18.71-9.483-35.143-36.816-51.878z" fill="url(#ah)"/>
  <path d="m308.76 100.6 10.04 1.116c9.19 99.556 21.123 178.82 12.198 279.79l-10.5-3c5.578-66.38-2.255-171.36-11.738-277.9z" fill="url(#ak)"/>
  <path d="m209.56 140.07c4.12.458 11.157 6.694 15.619 4.462 10.041-6.693 67.496-2.789 80.884 12.83 3.905 1.674 6.136 12.273-2.231 21.756-45.275-13.789-76.868-21.292-123.84-30.123 20.081-6.694 24.544-9.483 29.564-8.925z" fill="url(#ag)"/>
  <path d="m376.43 122.91c-1.771-1.024-3.347-9.487-5.579-13.949-2.789-8.925-13.493-30.356-32.049-28.359-2.514-.8502-13.646 3.4576-21.399 11.776 16.048 22.847 37.483 31.706 63.489 37.221-1.673-4.457-.87-4.613-4.462-6.69z" fill="url(#af)"/>
  <path d="m336.28 95.699c-13.801-1.1647-21.571 7.2274-29.421 8.9004-1.401-2.747 18.077-15.987 29.583-17.853 16.602-2.6928 19.926 2.8786 29.869 8.7219-5.804 9.6995-23.535 2.3244-30.031.2311z" fill="url(#ac)"/>
  <path d="m338.31 82.903c-13.951-1.4593-21.64 7.0918-29.533 8.6808-1.465-2.8706 17.953-16.23 29.533-17.952 16.707-2.4853 20.299-1.3116 30.441 4.9235-5.68 9.9415-23.846 6.6354-30.441 4.348z" fill="url(#ab)"/>
  <path d="m270.22 51.308c4.558 10.783 8.925 22.09 1.048 22.09-2.554 1.0794-8.319-6.7871-12.877-17.57-1.652-3.909-1.001-4.468-3.628-21.479 8.763 4.1815 10.437 8.0344 15.457 16.96z" fill="url(#aa)"/>
  <path d="m266.6 62c6.071 10.01 12.03 20.565 4.236 21.706-2.371 1.4379-9.214-5.5108-15.286-15.52-2.2-3.6285-1.637-4.276-6.7-20.727 9.277 2.8683 11.49 6.4383 17.75 14.542z" fill="url(#z)"/>
  <path d="m254 68.228c9.97 6.1356 20.09 12.808 13.675 17.38-1.453 2.3614-10.714-.6983-20.684-6.8339-3.614-2.2242-3.408-3.0576-15.421-15.385 9.563-1.6814 13.162.4848 22.43 4.8388z" fill="url(#x)"/>
  <path d="m240.81 78.545c11.704.2502 23.808.8881 20.587 8.077-.059 2.772-9.595 4.8164-21.299 4.5661-4.243-.0907-4.487-.9138-21.085-5.4723 7.399-6.2873 11.599-6.2389 21.797-7.1708z" fill="url(#w)"/>
  <path d="m242.59 85.326c13.875.2966 28.226.9825 24.436 8.1593-.059 2.772-11.355 4.7787-25.23 4.4821-5.03-.1075-5.322-.9317-25.016-5.5563 8.746-6.2586 13.726-6.1936 25.81-7.0851z" fill="url(#v)"/>
  <path d="m239.24 93.134c13.875.2966 28.225.9825 24.435 8.159-.059 2.772-11.355 4.779-25.23 4.482-5.03-.107-5.322-.931-25.015-5.556 8.746-6.2585 13.725-6.1935 25.81-7.085z" fill="url(#u)"/>
  <path d="m235.71 101.05c13.798-1.4939 28.117-2.6628 25.283 4.942.299 2.757-10.644 6.202-24.442 7.696-5.002.542-5.398-.238-25.523-2.287 7.867-7.333 12.813-7.91 24.682-10.351z" fill="url(#t)"/>
  <path d="m242.55 107.53c14.15-2.528 28.861-4.772 26.43 3.034.488 2.729-8.826 9.37-22.977 11.898-5.13.917-6.798 1.43-27.713.898 7.646-7.913 12.163-12.5 24.26-15.83z" fill="url(#s)"/>
  <path d="m250.07 110.91c13.798-1.494 30.794-9.199 27.961-1.594.298 2.757-11.774 15.238-25.572 16.732-5.001.541-9.527 9.861-29.652 7.812 7.867-7.333 15.394-20.509 27.263-22.95z" fill="url(#r)"/>
  <path d="m251.26 121.59c13.798-1.494 31.432-12.861 28.598-5.256.299 2.756-14.652 5.256-25.251 18.644-3.919 4.95-8.925 13.951-18.965 20.081 7.867-7.333-.638-21.997 15.618-33.469z" fill="url(#q)"/>
  <path d="m291.71 47.342c-2.491 11.439-.583 17.638-8.171 12.847-3.149-.6856-5.068-12.787-2.578-24.226.903-4.1467.778-9.4731 11.597-17.198 2.453 12.085.011 18.35-.848 28.577z" fill="url(#p)"/>
  <path d="m303.97 38.019c-2.491 11.439-4.407 33.14-11.995 28.349-3.149-.6856-2.491-16.91 0-28.349.903-4.1467 2.024-20.852 12.843-28.577 2.453 12.085.011 18.35-.848 28.577z" fill="url(#o)"/>
  <path d="m324.38 44.694c-2.888 11.345-5.559 32.966-12.976 27.914-3.123-.7949-1.899-16.987.988-28.332 1.047-4.1127 2.75-20.769 13.831-28.112 2.031 12.164-.628 18.339-1.843 28.53z" fill="url(#m)"/>
  <path d="m340.53 40.517c-7.41 9.0637-15.818 29.756-23.552 19.821-2.495-2.0396 5.453-16.199 12.862-25.263 2.686-3.2857 11.265-17.664 24.411-19.639-3.297 11.883-8.316 16.358-13.721 25.082z" fill="url(#l)"/>
  <path d="m340.22 57.598c-14.216 9.3286-19.237 19.927-27.604 16.58-2.324-2.2322 12.495-19.122 22.87-24.544 14.971-7.8229 20.207-.7539 33.469-1.6744-7.809 13.946-21.754 6.6947-28.735 9.6379z" fill="url(#k)"/>
  <path d="m341.91 76.021c-13.969 1.2817-20.06 4.2578-27.493 7.3515-1.995-2.5309 14.666-12.504 25.69-16.446 15.905-5.687 20.43-.6385 31.592 3.5051-3.639 10.856-22.875 6.5505-29.789 5.5893z" fill="url(#j)"/>
  <path d="m330.68 88.897c-10.669-1.1159-16.549 5.4234-22.585 6.6386-1.12-2.1952 13.729-12.412 22.585-13.729 12.776-1.9007 15.421 2.5595 23.177 7.3277-4.344 7.6026-18.134 1.5118-23.177-.2375z" fill="url(#i)"/>
  <path d="m338.49 101.17c-10.668-1.116-24.172-1.2148-30.208 0-1.673-8.8713 21.353-5.7734 30.208-7.0907 12.777-1.9006 15.421 2.5595 23.178 7.3277-4.344 7.603-18.134 1.512-23.178-.237z" fill="url(#h)"/>
  <path d="m307.6 96.491c-10.669-1.1153-16.281 2.6902-22.318 3.9057-1.12-2.1951 21.352-9.1208 30.208-10.439 12.778-1.9015 11.686-1.5815 19.443 3.1862-1.115 7.8095-22.289 5.0957-27.333 3.3468z" fill="url(#g)"/>
  <path d="m295.32 116.57c2.789-12.83-7.358-25.657-10.685-31.018 1.977-2.5117 16.935 15.938 21.317 24.094 6.322 11.767 5.613 10.86 3.105 21.715-8.744 3.763-13.92-8.58-13.737-14.791z" fill="url(#f)"/>
  <path d="m308.73 120.83c-2.032-12.972-16.126-21.27-21.164-25.067.937-3.0561 21.547 8.7482 28.578 14.771 10.145 8.691 9.157 8.101 10.736 19.129-6.794 6.667-16.078-2.975-18.15-8.833z" fill="url(#e)"/>
  <path d="m281.78 125.08c10.004-8.504 9.725-24.857 10.335-31.136 3.095-.7961 3.785 22.945 2.318 32.086-2.118 13.189-2.131 12.038-10.713 19.142-9.233-2.316-5.855-15.267-1.94-20.092z" fill="url(#dj)"/>
  <path d="m267.36 122.06c10.709-2.61 16.661-14.983 19.484-19.464 2.623.569-2.6 16.593-7.145 22.898-6.558 9.096-10.599 2.231-20.64 14.502-6.054-5.216 3.545-15.791 8.301-17.936z" fill="url(#df)"/>
  <path d="m271.77 128c9.679-5.274 18.067-21.987 19.644-27.044 2.681-.123-.013 15.61-2.786 22.871-4 10.477-13.721 9.2-20.272 23.64-7.191-3.486-.63-16.172 3.414-19.467z" fill="url(#de)"/>
  <path d="m310.94 111.21c-9.039-9.522-21.846-5.309-28.15-5.573-.965-3.047 22.703-5.038 31.911-4.074 13.286 1.391 12.137 1.467 19.701 9.647-1.806 9.346-18.429 3.645-23.462 0z" fill="url(#dd)"/>
  <path d="m332.59 70.198c-11.812 4.966-17.271 14.608-23.683 19.2-1.545-1.4842 11.633-18.803 21.108-25.09 13.67-9.0713 16.811-4.0154 27.915-7.008-8.783 13.012-19.576 11.73-25.34 12.899z" fill="url(#dc)"/>
  <path d="m336.56 43.16c-8.109 8.4438-22.277 21.536-23.951 20.978-2.324-2.2321 5.621-18.811 13.73-27.255 2.939-3.061 12.637-16.709 25.899-17.63-4.234 11.582-9.594 15.642-15.678 23.907z" fill="url(#db)"/>
  <path d="m314.99 38.911c-2.287 11.481-7.177 30.142-8.887 30.573-3.161-.6294-5.393-18.878-3.106-30.36.829-4.1621 1.652-20.885 12.331-28.801 2.669 12.04.339 18.347-.338 28.587z" fill="url(#da)"/>
  <path d="m278.8 46.414c4.558 10.783 7.876 24.975-.001 24.975-2.554 1.0794-4.69-10.283-9.247-21.066-1.652-3.909-3.628-2.9203-3.628-21.479 8.763 4.1814 8.319 6.7871 12.876 17.57z" fill="url(#cz)"/>
  <path d="m264.66 111.26c-10.281-8.896-5.529-29.724 6.566-43.702s35.767-18.936 46.048-10.039c6.806 13.926 1.579 24.167-7.69 40.44-12.095 13.978-34.642 22.198-44.924 13.301z" fill="url(#cy)"/>
  <path d="m264.66 111.26c-10.281-8.896-5.529-29.724 6.566-43.702s35.767-18.936 46.048-10.039c6.806 13.926 1.579 24.167-7.69 40.44-12.095 13.978-34.642 22.198-44.924 13.301z" fill="url(#cx)" fill-opacity=".5"/>
  <path d="m409.49.76172.02735.021484-.0332-.015625.49609.33398.00976.0097656.58594.45898.14258.12109.53711.49414.17187.16602.61133.6543.11133.125.76172.96484.01367.017578.69922 1.0664.17383.30078.51953.9707.19531.40039c.168.36093.32938.7391.48438 1.1387l.14843.36328c.196.54135.38383 1.1048.54883 1.7148l.01758.064453c.157.5671.29202 1.1774.41602 1.8047l.10156.60547c.083.4812.15284.9844.21484 1.5l.07813.76562c.049.5327.07951 1.0864.10351 1.6621l.0293.75195c.013.8335.00794 1.7004-.03906 2.6113 0 0-.56971 13.888 10.488 26.021l.08203.12305c.355.5542 1.9656 3.0218 4.0606 5.9004l.0039.003906c.287.3996.58563.80313.89063 1.207l.04883.064453c.293.391.59053.78283.89453 1.1738l.0957.12891.88086 1.1152.14844.18555.85742 1.0488.19336.22266.8164.94922.2461.27148.76758.83789.28515.29297.71289.71289.3125.29102.65235.58008.06836.064453.00976.099609c.086 1.0999.20271 2.242.34571 3.4062l.07226.57227c.304 2.3889.7168 4.8928 1.2168 7.4707l.11133.59375c.247 1.2374.50315 2.4927.78515 3.7559l.04883.23047c-.641-.3738-1.8942-1.1516-3.3262-2.2773l-.11914-.097656-1.0527-.88086-.03711-.029297-1.0078-.94531-.16797-.16406-.99023-1.0566-.18555-.21484c-.334-.3867-.6597-.78603-.9707-1.207 0 0-8.546-15.042-22.625-16.189 0 0-6.2086-2.2855-10.475-1.5078 0 0-3.6813-.54201-10.656-3.2832 0 0 14.598 23.093 29.354 23.828 0 0 10.391.60657 15.104 4.293 0 0 5.5749 5.0514 7.7539 3.2168l-.04688-1.0684c.193.825.39456 1.645.60156 2.4785l.01954.082032c.206.8293.42171 1.6707.63671 2.5l.08008.30859c.227.8722.4525 1.7321.6875 2.5957l.04297.1543c.201.7475.40724 1.4911.61524 2.2344l.22851.79883c.159.5628.31952 1.1212.47852 1.6797l.22461.7793c.206.7046.41309 1.4051.62109 2.1055l.3457 1.1426.31836 1.0527c.131.4253.25963.84922.39063 1.2617l.21679.69726c.277.8981.55604 1.7784.83204 2.6504l.15234.47657c.157.49.3147.97603.4707 1.457l.13477.41601c.52 1.598 1.0295 3.132 1.5195 4.584l.01758.05664c1.718 5.083 3.1972 9.1592 4.0762 11.531l.25977.69726.0332.08985c.192.516.33764.89758.43164 1.1426l.0625.16406.06836.18945c.803 1.641 1.604 3.496 2.416 5.498l-.01562-.00391-.95117-.23242-.14063-.03906-.95898-.29102-.13086-.04687-.99024-.35743-.07226-.02539c-2.85-1.104-5.6208-2.6975-7.3438-3.7715l-.04297-.02734-.55078-.34766-.0625-.0332-.42774-.28516-.06836-.04688-.30273-.19726-.07031-.05078-.15625-.10938-.08203-.05078c-3.604-3.433-.35465-3.565-5.8066-12.957-.335-.568-.74318-1.126-1.2012-1.668-7.183-8.2488-28.984-12.158-28.984-12.158-14.072-1.1558-27.611-9.7617-27.611-9.7617 5.968 10.96 44.99 33.49 44.99 33.49 5.938-.404 9.7598 3.377 9.7598 3.377.378.219.78122.43811 1.1992.66211l.2168.12109c.38.193.7795.39956 1.1875.60156l.36914.17969c.389.193.78545.38217 1.1894.57617l.49219.22657 1.0664.48632.72071.31836.75976.33008 1.1406.49024.55078.23242c.551.227 1.1023.45873 1.6543.67773l.11523.04883c5.337 2.165 10.467 3.957 12.055 4.502 3.497 9.457 6.9649 21.508 9.9609 33.061-11.111 4.361-17.189-6.7012-17.189-6.7012-11.592-18.351-31.146-19.863-31.146-19.863-6.497.27-13.855-.82032-13.855-.82032-9.543-3.038-11.957 7.4785-11.957 7.4785 10.884-9.173 19.508 2.9668 19.508 2.9668 7.211 10.66 22.928 17.422 22.928 17.422 2.86-2.26 5.9395-.39648 5.9395-.39648 3.909 4.67 11.9 2.9902 11.9 2.9902l.97461.375.34179.10156.72461.19922.4043.09375.75195.1543.40235.07422.89843.125.2793.03711c.408.043.81752.08328 1.2285.11328l.1875.01172 1.0488.06054.3457.00782.90625.02734.32422.00391.97265-.00391h.19336c2.093-.039 3.9141-.18887 4.9531-.29687 4.741 18.741 8.0801 35.08 8.0801 35.08.096.434.20078.894.30078 1.375l.1289.60157.18946.88086.16601.79101.11524.5625c.744 3.553 1.6238 7.9579 2.5938 12.963l-.07813-.20312c-4.793-.79-5.7701 2.1876-10.662-7.0664-.319-.602-.63984-1.194-.96484-1.791-4.845-8.722-11.275-17.578-11.275-17.578-12.651-12.477-32.518-6.2168-32.518-6.2168-.598.077-1.1743.12039-1.7363.15039l-.55078.00391-1.1035-.01172-.55468-.03515-1.0781-.11133-.41211-.06055c-.47-.077-.92242-.1762-1.3574-.2832l-.28711-.08594-.98437-.30469-.40039-.15234-.78711-.32617-.36524-.16211-.82031-.42969-.20117-.10352-.88086-.55078-.33399-.23437-.45507-.33594-.36133-.2832-.3086-.25782-.37109-.32226-.03125-.03125c-.512-.477-.91675-.91058-1.2188-1.2676v.00977l-.00781-.00977.17578.46875c2.717 7.308 12.48 10.689 12.48 10.689 12.797 2.905 9.4872-3.0879 20.826 16.371 11.34 19.442 28.305 16.893 28.305 16.893.752-.241 2.987-.87557 5.125-1.4766 1.578-.443 3.0987-.86479 3.9277-1.0918 1.061 5.533 2.2162 11.643 3.4062 18.016l.09375.51172.20117 1.0742c1.932 10.376 3.9463 21.378 5.8223 31.707l-.02344-.01367c-.989-.74-2.0819-1.6222-3.1719-2.6582l-.03125-.03126c-.539-.52099-1.0814-1.0664-1.6074-1.6504l-.04101-.05078c-.526-.587-1.0404-1.2131-1.5254-1.8691 0 0-10.443-18.375-27.648-19.785 0 0-7.5865-2.7888-12.812-1.8418 0 0-4.5024-.67254-13.023-4.0195 0 0 17.848 28.238 35.879 29.127 0 0 12.7.73996 18.469 5.252l.05859.04883.03516.03516.14258.125.08594.07422.27734.23047.13477.11132.28124.23243.20313.1582.26367.20703.25391.19727.37695.27929.40625.29688.30469.21289.34766.23047.2871.18359.375.24219.25586.15039.72657.4082.26562.13086.42188.20703.24609.09766.99609.36133c.366 2.024.72432 4.0026 1.0703 5.9355l-.09766.74219.13672-.54687c.253 1.419.50305 2.8022.74805 4.1602 1.424 7.91 2.6368 14.707 3.5078 19.584.081.452.15842.87697.23242 1.293-.25-.158-.75278-.48474-1.4258-.92774l-.58399-.38672-.22656-.15039-1.0254-.68359-.05078-.03906c-2.851-1.915-6.9299-4.7383-10.213-7.3633-.461-.37399-.90703-.73479-1.332-1.0918l-.04492-.03906c-.411-.344-.80388-.68549-1.1719-1.0215l-.0625-.05273-.99414-.94922-.05469-.05469-.80468-.86914-.03125-.04297-.58594-.78125s-2.6565-9.0404-8.3125-10.148c0 0-13.744-5.1166-28.959-3.0156 0 0-17.019-1.8231-16.637 7.8789 0 0 .60941-8.3215 18.4-3.1875 0 0 11.202 5.1907 17.264 11.223 0 0 13.165 8.6915 27.109 8.6055l.08203.04297.08789.04687.17774.08985.25976.14453.33399.17773.33008.18555.24609.12891.44531.24414.10938.06445c.332.19.69884.39895 1.0898.62695l.23633.13868.64062.37695.20313.12695c.434.262.88938.53703 1.3594.83203l.19141.1211.72656.46289.32813.21093c.515.334 1.0394.68288 1.5684 1.0469l.06836.05273.6875.47657.45117.32812.65625.47656.05859.04297c.388 2.179.60352 3.3984.60352 3.3984l3.6621.23633.02344.02148c.457.459.89334.91882 1.2773 1.3828l-.99805-1.3828 1.5684.09961.02344.00391c.295.683.47041 1.03.56641 1.168l.00781.01758.05078.04492.00781.00586.02344-.00782.00586-.00586-.19141-.95703-.00586-.01757-.02734-.10157-.01563-.04687-.00976-.04102-.00977-.03906-.40039-.01953c-.194-.449-.43404-1.0229-.74804-1.7949l-.15625-.46094-.03711-.12891c-.193-.666-.45149-1.7183-.77149-3.1113 2.056-4.223 4.6331-10.087 5.2891-11.588.376-.237.90683-.58479 1.6738-1.0918 4.347-2.917 16.137-11.807 16.137-11.807 11.161-5.899 17.559-16.996 17.559-16.996 4.273-9.448 15.834-5.1992 15.834-5.1992-3.248-3.867-14.721-1.5723-14.721-1.5723-4.345.859-17.17 4.6406-17.17 4.6406-13.616 3.939-19.307 22.672-19.307 22.672l-.06054.74609-.02344.20508-.13086.79297-.04687.22265-.15235.67969-.07422.31641-.22461.83008-.13672.47461-.14257.47656-.35352 1.0859-.05664.17578c-1.415 4.173-3.5406 8.8729-4.6836 11.297-1.379-6.454-3.3689-16.511-5.5879-28.037-.149-.788-.30213-1.574-.45313-2.375l.12891-.27343c.552-1.179 1.1384-2.3286 1.7324-3.4356l.04492-.08985c1.727-3.209 3.4916-6.0143 4.5996-7.6973l.00977-.00977c.391-.597.69567-1.0472.88867-1.3262l.06836-.09961.10937-.16211.05469-.07422c14.9-7.703 24.027-24.311 24.027-24.311 3.051-9.83 12.059-21.615 12.059-21.615 16.066-15.403 21.424-6.875 21.424-6.875-5.075-10.548-22.184.9043-22.184.9043-17.407 6.242-29.166 19.375-29.166 19.375-5.401 4.34-3.127 15.465-3.127 15.465l-.06836.58399-.03515.18555-.0918.47265-.05664.23438-.12695.49023-.06836.25-.16016.54883-.08008.24219-.20312.61328-.07617.22265-.25391.70508-.06445.17774-.32227.84179-.0293.06641c-2.892 7.306-8.6779 17.724-9.9219 19.938-2.994-15.696-6.2482-33.126-8.9102-47.492 1.417-.4 5.5018-1.6511 9.9258-3.9551l.03516-.01562 1.0234-.55078.13867-.07617.92773-.53321.19727-.11718.875-.53711.22656-.14063.84961-.56836.22461-.14844.86719-.62304.1875-.13477.96679-.75586.05079-.03906c.683-.559 1.3427-1.1379 1.9707-1.7559l.14258-.14648.74414-.77344.25195-.28516.58399-.67773.27929-.35547.49805-.6582.2793-.40039.43554-.66211.26172-.42774.37891-.68359.23437-.45508.32617-.70508.20118-.47266.27734-.76171.16016-.4668.23437-.86914.10742-.4043c.092-.434.17047-.87136.23047-1.3184 0 0 2.8659-18.843 14.047-26.783 0 0 2.3499-.05226 2.7109-9.2812 0 0-2.5514 7.2835-6.6074 8.3965 0 0-10.986.70292-18.785 11.754 0 0-3.9048 11.91-2.4688 20.971 0 0-3.2842 10.472-13.408 13.162-2.996-16.177-5.1445-27.955-5.1445-27.955-.017-.416-.04412-.85759-.07812-1.3086l-.02149-.30273c-.076-.941-.18131-1.9496-.32031-3.0156l-.01172-.07617c-.371-2.827-.95241-6.0382-1.6914-9.4922l.0664.15039c1.888-3.063 11.064-23.965 11.064-23.965 3.303-10.604 6.6484-9.8438 6.6484-9.8438 9.835.49 17.045-5.4473 17.045-5.4473 4.486-4.219 8.7988-6.4414 8.7988-6.4414 9.66-1.306 15.801-8.9316 15.801-8.9316 7.247-7.377 4.9609-17.789 4.9609-17.789-.029 5.225-7.791 14.82-7.791 14.82-4.81 8.219-20.137 3.5781-20.137 3.5781-15.783-3.863-24.33 1.4648-24.33 1.4648-12.126 5.689-8.9727 17.465-8.9727 17.465.861 5.139.70313 10.932.70313 10.932-.005.387-.03227.79375-.07227 1.2188l-.03906.33594-.13672 1.0137-.06055.35742c-.069.386-.14447.78555-.23047 1.1856l-.04492.21484c-.222.997-.49678 2.0334-.80078 3.0684l-.04101.12891c-.141.477-.28646.95268-.43946 1.4297l-.05859.18555c-.163.494-.32609.98775-.49609 1.4688l-.00782.02539c-.352 1.018-.7134 2.0029-1.0664 2.9219l-.07422.19726-.42578 1.0781-.10352.25781-.39062.97266-.06836.16797-.41602.99023-.04492.10351-.23828.5586c-1.339-5.53-2.9514-11.449-4.6484-17.301l-.0293-.09961c-.41-1.418-.82618-2.8275-1.2422-4.2285l-.08008-.26562c-.391-1.306-.78288-2.5988-1.1719-3.8828l-.22656-.74024c-2.674-8.756-.4668-23.451-.4668-23.451 9.33-13.886 9.2871-32.813 9.2871-32.813-2.085-10.08.10352-24.709.10352-24.709 6.621-21.199 15.443-16.287 15.443-16.287-9.558-6.8228-19 11.406-19 11.406-12.246 13.809-16.176 30.961-16.176 30.961-2.64 6.3844 4.7422 15.043 4.7422 15.043l.22071.54102.05859.17578.14844.46094.06055.22265.13281.49805.05664.24023.125.5625.04687.24219.12305.65625.03516.19922.13086.80273.01757.11524c1.121 7.558 1.1206 20.019 1.1016 23.043-.807-2.496-1.5714-4.8217-2.2734-6.9277l-.00391-.01172-.29687-.89257-.29688-.88672-.11914-.35157c-1.911-5.701-3.1797-9.293-3.1797-9.293-.292-.528-.58496-1.084-.87696-1.668l-.23633-.47657c-.213-.442-.42957-.88161-.64257-1.3496l-.27344-.60938c-.202-.447-.40156-.89723-.60156-1.3652l-.28321-.6836c-.196-.473-.39184-.94926-.58984-1.4473l-.27149-.70118c-.2-.511-.3997-1.0286-.5957-1.5566l-.25976-.69921c-.203-.55-.40347-1.1087-.60547-1.6797l-.24024-.67578c-.206-.601-.41504-1.215-.62304-1.834l-.20313-.60156c-.221-.67-.44016-1.3444-.66016-2.0234l-.1582-.49414c-.238-.747-.47403-1.5037-.70703-2.2637l-.09766-.31836c-.21149-.69317-.40516-1.4191-.61328-2.1211l.00586-.058598.09766-.8418.01758-.18555.10156-1.0098.00976-.12305c.037-.3867.07247-.78281.10547-1.1953l.00196-.025391c.379-4.5801.66818-10.467.74218-12.031l.18555-.24805c.252-.3394.57114-.77731.99414-1.3789 3.021-4.2492 10.857-16.744 10.857-16.744 8.309-9.4609 10.336-22.092 10.336-22.092.609-10.337 12.928-10.445 12.928-10.445-4.409-2.4662-14.318 3.7285-14.318 3.7285-3.76 2.3502-14.389 10.416-14.389 10.416-11.304 8.4814-9.9336 28.004-9.9336 28.004 1.4068 4.0286.81421 14.114.50586 18.18-.76529-2.778-1.4992-5.5697-2.1934-8.3105l-.04492-.17969c-.21-.8292-.41424-1.6504-.61524-2.4668l-.09961-.39844c-.181-.7347-.3582-1.4656-.5332-2.1875l-.12891-.54102c-.16299-.6703-.3216-1.3275-.4746-1.9805l-.1543-.64844c-.142-.6058-.28192-1.2074-.41992-1.8047l-.16407-.70898c-.126-.5456-.24714-1.079-.36914-1.6074l-.18554-.80859c-.111-.4898-.21632-.96139-.32032-1.4297l-.18945-.8418c-.087-.3909-.17091-.76955-.2539-1.1562l-.23047-1.0352-.125-.58008c-1.074-4.9324-1.8218-8.6494-2.1348-10.23l-.13476-.9668-.00977-.064453-.2207-.83008-.0918-.33008-.24219-.63086-.25195-.64844c-.193-.4382-.42055-.90278-.68555-1.3926 0 0-.47716-.95829-1.1602-2.4922-.2066-.47806-.43445-1.0035-.58594-1.3066-1.005-2.3029-2.2618-5.3968-3.2578-8.5547l-.00391-.021484c-.492-1.5554-.91584-3.1235-1.2148-4.623l-.01954-.089843c-.144-.7304-.25798-1.4387-.33398-2.1133l-.01172-.10742c-.072-.6875-.10961-1.3442-.09961-1.9629 0 0 3.0068-11.945-17.449-25.801l-.04297-.03125c-.66499-.44684-1.3592-.89808-2.0742-1.3535l-.17188-.10742c-.676-.42963-1.3854-.85943-2.1094-1.2891l-.31641-.1875c-.691-.40817-1.4086-.81647-2.1426-1.2246l-.31055-.17773z" fill="url(#cw)"/>
  <defs>
    <linearGradient id="a" gradientUnits="userSpaceOnUse">
      <stop stop-color="#FFD734" offset="0"/>
      <stop stop-color="#CD9920" offset=".61538"/>
    </linearGradient>
    <linearGradient id="di" x1="235.45" x2="486.96" y1="109.7" y2="436.7" gradientUnits="userSpaceOnUse">
      <stop stop-color="#427F1E" offset=".33638"/>
      <stop stop-color="#16241B" offset="1"/>
    </linearGradient>
    <linearGradient id="ck" x1="417.12" x2="300.83" y1="314.28" y2="246.58" gradientUnits="userSpaceOnUse">
      <stop stop-color="#01450C" offset=".21286"/>
      <stop stop-color="#A6F33D" offset="1"/>
    </linearGradient>
    <linearGradient id="bz" x1="409.95" x2="393.22" y1="316.68" y2="251.36" gradientUnits="userSpaceOnUse">
      <stop stop-color="#7BB32E" offset="0"/>
      <stop stop-color="#016111" offset="1"/>
    </linearGradient>
    <linearGradient id="bo" x1="451.66" x2="376.87" y1="249.48" y2="417.61" gradientUnits="userSpaceOnUse">
      <stop stop-color="#94E75D" offset="0"/>
      <stop stop-color="#6BB03C" offset=".61538"/>
    </linearGradient>
    <linearGradient id="bd" x1="534.45" x2="418.35" y1="358.62" y2="313.56" gradientUnits="userSpaceOnUse">
      <stop stop-opacity="0" offset=".90909"/>
      <stop offset=".95437"/>
    </linearGradient>
    <linearGradient id="au" x1="142.5" x2="142.5" y1="232.53" y2="368.53" gradientUnits="userSpaceOnUse">
      <stop stop-color="#7CB139" offset="0"/>
      <stop stop-color="#0D450D" offset="1"/>
    </linearGradient>
    <linearGradient id="aj" x1="226.52" x2="262.3" y1="175.35" y2="375.19" gradientUnits="userSpaceOnUse">
      <stop stop-color="#163D25" offset="0"/>
      <stop stop-color="#3D8B51" offset="1"/>
    </linearGradient>
    <linearGradient id="y" x1="156.55" x2="169.13" y1="199.92" y2="220.45" gradientUnits="userSpaceOnUse" xlink:href="#a"/>
    <linearGradient id="n" x1="143.28" x2="166.57" y1="212.84" y2="218.93" gradientUnits="userSpaceOnUse" xlink:href="#a"/>
    <linearGradient id="dk" x1="135.8" x2="168.65" y1="237.82" y2="221.16" gradientUnits="userSpaceOnUse" xlink:href="#a"/>
    <linearGradient id="cv" x1="135.31" x2="167.13" y1="258.34" y2="226.56" gradientUnits="userSpaceOnUse" xlink:href="#a"/>
    <linearGradient id="ct" x1="133.83" x2="177.31" y1="267.5" y2="256.04" gradientUnits="userSpaceOnUse" xlink:href="#a"/>
    <linearGradient id="cs" x1="137.26" x2="169.2" y1="251.55" y2="244.98" gradientUnits="userSpaceOnUse" xlink:href="#a"/>
    <linearGradient id="cr" x1="136.35" x2="179.83" y1="273.4" y2="261.93" gradientUnits="userSpaceOnUse" xlink:href="#a"/>
    <linearGradient id="cq" x1="188.8" x2="188" y1="166.12" y2="207.95" gradientUnits="userSpaceOnUse" xlink:href="#a"/>
    <linearGradient id="cp" x1="180.95" x2="177.48" y1="179.55" y2="214.33" gradientUnits="userSpaceOnUse" xlink:href="#a"/>
    <linearGradient id="co" x1="218.19" x2="191.72" y1="161.81" y2="206.43" gradientUnits="userSpaceOnUse" xlink:href="#a"/>
    <linearGradient id="cn" x1="236.3" x2="206.36" y1="174.5" y2="216.86" gradientUnits="userSpaceOnUse" xlink:href="#a"/>
    <linearGradient id="cm" x1="239.08" x2="203.58" y1="194.4" y2="232.25" gradientUnits="userSpaceOnUse" xlink:href="#a"/>
    <linearGradient id="cl" x1="240.56" x2="198.43" y1="205.65" y2="235.83" gradientUnits="userSpaceOnUse" xlink:href="#a"/>
    <linearGradient id="cj" x1="239.31" x2="207.06" y1="224.23" y2="247.34" gradientUnits="userSpaceOnUse" xlink:href="#a"/>
    <linearGradient id="ci" x1="219.35" x2="187.1" y1="219.55" y2="242.66" gradientUnits="userSpaceOnUse" xlink:href="#a"/>
    <linearGradient id="ch" x1="216.62" x2="182.13" y1="252.85" y2="233.24" gradientUnits="userSpaceOnUse" xlink:href="#a"/>
    <linearGradient id="cg" x1="226.55" x2="187.31" y1="247.04" y2="241.2" gradientUnits="userSpaceOnUse" xlink:href="#a"/>
    <linearGradient id="cf" x1="204.28" x2="188.77" y1="273.34" y2="236.82" gradientUnits="userSpaceOnUse" xlink:href="#a"/>
    <linearGradient id="ce" x1="179.41" x2="181.53" y1="281.49" y2="248.25" gradientUnits="userSpaceOnUse" xlink:href="#a"/>
    <linearGradient id="cd" x1="187.56" x2="181.07" y1="283.03" y2="250.36" gradientUnits="userSpaceOnUse" xlink:href="#a"/>
    <linearGradient id="cc" x1="221.43" x2="185.82" y1="231.2" y2="248.69" gradientUnits="userSpaceOnUse" xlink:href="#a"/>
    <linearGradient id="cb" x1="228.45" x2="198.51" y1="189.91" y2="232.28" gradientUnits="userSpaceOnUse" xlink:href="#a"/>
    <linearGradient id="ca" x1="231.2" x2="201.25" y1="162.35" y2="204.72" gradientUnits="userSpaceOnUse" xlink:href="#a"/>
    <linearGradient id="by" x1="236.9" x2="199.18" y1="173.36" y2="208.98" gradientUnits="userSpaceOnUse" xlink:href="#a"/>
    <linearGradient id="bx" x1="162.57" x2="177.94" y1="189.87" y2="214.96" gradientUnits="userSpaceOnUse" xlink:href="#a"/>
    <linearGradient id="bw" x1="169.8" x2="217.03" y1="218.23" y2="253.22" gradientUnits="userSpaceOnUse">
      <stop stop-color="#9A8568" offset="0"/>
      <stop stop-color="#745735" offset=".39288"/>
    </linearGradient>
    <radialGradient id="bv" cx="0" cy="0" r="1" gradientTransform="translate(183.12 224.14) rotate(127.4) scale(31.104 16.215)" gradientUnits="userSpaceOnUse">
      <stop stop-color="#5C6E44" offset=".15182"/>
      <stop stop-color="#060805" offset=".33936"/>
      <stop offset=".50548"/>
      <stop stop-opacity="0" offset=".85621"/>
    </radialGradient>
    <linearGradient id="bu" x1="390.04" x2="416.81" y1="184.12" y2="204.43" gradientUnits="userSpaceOnUse">
      <stop stop-color="#476600" offset="0"/>
      <stop stop-color="#0F2318" offset=".70178"/>
    </linearGradient>
    <linearGradient id="bq" x1="343.37" x2="388.86" y1="176.74" y2="194.13" xlink:href="#a"/>
    <linearGradient id="bp" x1="350.91" x2="393.35" y1="154.25" y2="191.14" xlink:href="#a"/>
    <linearGradient id="bn" x1="323.47" x2="379.62" y1="229.41" y2="221.1" xlink:href="#a"/>
    <linearGradient id="bm" x1="321.82" x2="374.44" y1="202.01" y2="223.29" xlink:href="#a"/>
    <linearGradient id="bl" x1="368.88" x2="389.17" y1="173.05" y2="191.68" xlink:href="#a"/>
    <linearGradient id="bk" x1="377.78" x2="398.07" y1="154.44" y2="173.08" xlink:href="#a"/>
    <linearGradient id="bj" x1="371.69" x2="394.32" y1="147.24" y2="181.34" xlink:href="#a"/>
    <linearGradient id="bi" x1="380.84" x2="403.46" y1="132.97" y2="167.08" xlink:href="#a"/>
    <linearGradient id="bh" x1="392.26" x2="403.65" y1="122.15" y2="161.47" xlink:href="#a"/>
    <linearGradient id="bg" x1="403.33" x2="414.73" y1="116.59" y2="155.9" xlink:href="#a"/>
    <linearGradient id="bf" x1="423.23" x2="425.88" y1="124.74" y2="157.84" xlink:href="#a"/>
    <linearGradient id="be" x1="416.16" x2="418.95" y1="125.6" y2="160.57" xlink:href="#a"/>
    <linearGradient id="bc" x1="433.34" x2="428.09" y1="143.48" y2="164.42" xlink:href="#a"/>
    <linearGradient id="bb" x1="347.68" x2="358.06" y1="226.76" y2="245.69" xlink:href="#a"/>
    <linearGradient id="ba" x1="354.76" x2="365.15" y1="223.72" y2="242.65" xlink:href="#a"/>
    <linearGradient id="az" x1="381.29" x2="370.81" y1="259.8" y2="240.92" xlink:href="#a"/>
    <linearGradient id="ay" x1="456.01" x2="465.81" y1="218.96" y2="262.51" gradientUnits="userSpaceOnUse">
      <stop stop-color="#7BB32E" offset="0"/>
      <stop stop-color="#003809" offset=".78714"/>
    </linearGradient>
    <linearGradient id="ax" x1="435" x2="418.56" y1="249.85" y2="276" gradientUnits="userSpaceOnUse">
      <stop stop-color="#0E3215" offset="0"/>
      <stop stop-color="#8AB968" offset="1"/>
    </linearGradient>
    <linearGradient id="aw" x1="448.54" x2="403.33" y1="139.3" y2="384.22" gradientUnits="userSpaceOnUse">
      <stop stop-color="#163D25" offset="0"/>
      <stop stop-color="#3D8B51" offset="1"/>
    </linearGradient>
    <linearGradient id="av" x1="338.95" x2="386.64" y1="189.32" y2="199.19" xlink:href="#a"/>
    <linearGradient id="at" x1="320.95" x2="377.1" y1="240.08" y2="231.77" xlink:href="#a"/>
    <linearGradient id="as" x1="354.15" x2="382.09" y1="256.58" y2="229.68" xlink:href="#a"/>
    <linearGradient id="ar" x1="339.72" x2="384.23" y1="230.51" y2="208.34" xlink:href="#a"/>
    <linearGradient id="aq" x1="329.31" x2="385.09" y1="199.46" y2="205.57" xlink:href="#a"/>
    <linearGradient id="dh" gradientUnits="userSpaceOnUse">
      <stop stop-color="#2E7A3A" offset=".38462"/>
      <stop stop-color="#71B987" offset="1"/>
    </linearGradient>
    <linearGradient id="bt" x1="436.4" x2="409.21" y1="187.25" y2="181.6" xlink:href="#dh"/>
    <linearGradient id="bs" x1="406.39" x2="389.25" y1="214.86" y2="206.73" xlink:href="#dh"/>
    <linearGradient id="br" x1="402.8" x2="385.66" y1="223.98" y2="215.85" xlink:href="#dh"/>
    <linearGradient id="ap" x1="417.08" x2="393.47" y1="201.26" y2="186.63" xlink:href="#dh"/>
    <linearGradient id="ao" x1="409.96" x2="386.35" y1="209.24" y2="194.61" xlink:href="#dh"/>
    <linearGradient id="an" x1="428.91" x2="401.71" y1="183.66" y2="178.01" xlink:href="#dh"/>
    <linearGradient id="am" x1="439.78" x2="420.24" y1="170.26" y2="166.2" xlink:href="#dh"/>
    <linearGradient id="al" x1="430.28" x2="410.74" y1="176.22" y2="172.16" xlink:href="#dh"/>
    <linearGradient id="ak" x1="320.12" x2="320.12" y1="100.6" y2="360.54" gradientUnits="userSpaceOnUse">
      <stop stop-color="#163D25" offset="0"/>
      <stop stop-color="#3D8B51" offset="1"/>
    </linearGradient>
    <linearGradient id="ai" x1="310.82" x2="322.74" y1="239.36" y2="269.31" gradientUnits="userSpaceOnUse">
      <stop stop-color="#0E3215" offset="0"/>
      <stop stop-color="#8AB968" offset="1"/>
    </linearGradient>
    <linearGradient id="ah" x1="302.79" x2="320.82" y1="170" y2="216.86" gradientUnits="userSpaceOnUse">
      <stop stop-color="#276A63" offset="0"/>
      <stop stop-color="#8AB968" offset="1"/>
    </linearGradient>
    <linearGradient id="ag" x1="180" x2="309.55" y1="159.56" y2="159.56" gradientUnits="userSpaceOnUse">
      <stop stop-color="#7BB32E" offset="0"/>
      <stop stop-color="#1D6829" offset="1"/>
    </linearGradient>
    <linearGradient id="af" x1="363.45" x2="335.86" y1="136" y2="80.191" gradientUnits="userSpaceOnUse">
      <stop stop-color="#7BB32E" offset="0"/>
      <stop stop-color="#1D6829" offset="1"/>
    </linearGradient>
    <linearGradient id="ad" x1="310.26" x2="298.54" y1="254.42" y2="208.68" gradientUnits="userSpaceOnUse">
      <stop stop-color="#7BB32E" offset="0"/>
      <stop stop-color="#016111" offset="1"/>
    </linearGradient>
    <linearGradient id="ae" x1="315.28" x2="233.84" y1="252.75" y2="205.33" gradientUnits="userSpaceOnUse">
      <stop stop-color="#01450C" offset=".21286"/>
      <stop stop-color="#A6F33D" offset="1"/>
    </linearGradient>
    <linearGradient id="ac" x1="358.79" x2="306.55" y1="77.982" y2="104.64" xlink:href="#a"/>
    <linearGradient id="ab" x1="360.71" x2="308.47" y1="64.963" y2="91.618" xlink:href="#a"/>
    <linearGradient id="aa" x1="255.97" x2="272.66" y1="33.839" y2="73.333" xlink:href="#a"/>
    <linearGradient id="z" x1="249.97" x2="272.21" y1="46.78" y2="83.44" xlink:href="#a"/>
    <linearGradient id="x" x1="232.26" x2="268.78" y1="62.276" y2="84.747" xlink:href="#a"/>
    <linearGradient id="w" x1="219.04" x2="261.9" y1="84.409" y2="85.325" xlink:href="#a"/>
    <linearGradient id="v" x1="216.8" x2="267.62" y1="91.104" y2="92.19" xlink:href="#a"/>
    <linearGradient id="u" x1="213.46" x2="264.28" y1="98.912" y2="99.998" xlink:href="#a"/>
    <linearGradient id="t" x1="210.88" x2="261.42" y1="110.1" y2="104.63" xlink:href="#a"/>
    <linearGradient id="s" x1="217.52" x2="269.35" y1="118.43" y2="109.17" xlink:href="#a"/>
    <linearGradient id="r" x1="225.26" x2="275.8" y1="119.96" y2="114.49" xlink:href="#a"/>
    <linearGradient id="q" x1="227.08" x2="277.62" y1="126.98" y2="121.51" xlink:href="#a"/>
    <linearGradient id="p" x1="291.63" x2="282.44" y1="18.564" y2="60.793" xlink:href="#a"/>
    <linearGradient id="o" x1="304.28" x2="291.8" y1="9.325" y2="66.632" xlink:href="#a"/>
    <linearGradient id="m" x1="325.69" x2="311.22" y1="16.028" y2="72.866" xlink:href="#a"/>
    <linearGradient id="l" x1="353.82" x2="316.7" y1="15.087" y2="60.495" xlink:href="#a"/>
    <linearGradient id="k" x1="355.5" x2="314.88" y1="33.309" y2="75.612" xlink:href="#a"/>
    <linearGradient id="j" x1="360.39" x2="314.33" y1="54.067" y2="90.373" xlink:href="#a"/>
    <linearGradient id="i" x1="347.81" x2="307.86" y1="75.177" y2="95.561" xlink:href="#a"/>
    <linearGradient id="h" x1="355.62" x2="315.66" y1="87.45" y2="107.83" xlink:href="#a"/>
    <linearGradient id="g" x1="328.95" x2="288.99" y1="80.807" y2="101.19" xlink:href="#a"/>
    <linearGradient id="f" x1="320.28" x2="285.03" y1="117.56" y2="89.823" xlink:href="#a"/>
    <linearGradient id="e" x1="332.36" x2="289.47" y1="112.75" y2="99.602" xlink:href="#a"/>
    <linearGradient id="dj" x1="301.01" x2="289.84" y1="141.02" y2="97.579" xlink:href="#a"/>
    <linearGradient id="df" x1="275.79" x2="283.77" y1="141.26" y2="104.47" xlink:href="#a"/>
    <linearGradient id="de" x1="284.85" x2="283.11" y1="144.39" y2="106.77" xlink:href="#a"/>
    <linearGradient id="dd" x1="329.3" x2="286.54" y1="94.178" y2="107.72" xlink:href="#a"/>
    <linearGradient id="dc" x1="349.27" x2="308.65" y1="47.256" y2="89.559" xlink:href="#a"/>
    <linearGradient id="db" x1="351.85" x2="311.22" y1="18.872" y2="61.174" xlink:href="#a"/>
    <linearGradient id="da" x1="314.79" x2="303.34" y1="10.216" y2="67.737" xlink:href="#a"/>
    <linearGradient id="cz" x1="265.52" x2="282.89" y1="29.014" y2="70.114" xlink:href="#a"/>
    <linearGradient id="b" x1="427.05" x2="421.8" y1="145.39" y2="166.34" xlink:href="#a"/>
    <linearGradient id="cy" x1="273.79" x2="320.67" y1="70.968" y2="118.04" gradientUnits="userSpaceOnUse">
      <stop stop-color="#9A8568" offset="0"/>
      <stop stop-color="#745735" offset=".39288"/>
      <stop stop-color="#745735" offset=".70178"/>
    </linearGradient>
    <radialGradient id="cx" cx="0" cy="0" r="1" gradientTransform="translate(287.68 79.82) rotate(135.99) scale(35.16 18.33)" gradientUnits="userSpaceOnUse">
      <stop stop-color="#5C6E44" offset=".15182"/>
      <stop stop-color="#060805" offset=".33936"/>
      <stop offset=".50548"/>
      <stop stop-opacity="0" offset=".85621"/>
    </radialGradient>
    <linearGradient id="cw" x1="472.52" x2="472.52" y1="323.08" y2=".76254" gradientUnits="userSpaceOnUse">
      <stop stop-color="#2B4734" offset="0"/>
      <stop stop-color="#69AD7F" offset="1"/>
    </linearGradient>
    <linearGradient id="cu" x1="209" x2="209" y1="170.53" y2="327.53" gradientUnits="userSpaceOnUse">
      <stop stop-color="#7CB139" offset="0"/>
      <stop stop-color="#0D450D" offset="1"/>
    </linearGradient>
  </defs>
</svg>
