<svg width="209" height="343" viewBox="0 0 209 343" fill="none" xmlns="http://www.w3.org/2000/svg">
<g filter="url(#filter0_i_9_114)">
<path d="M-46.7496 89.545C-124.634 134.984 -67.4196 204.064 -25.9704 158.157C21.8659 105.176 58.1204 152.068 71.7972 130.98C85.4741 109.892 75.1499 58.7327 18.6158 59.1122C0.357765 52.1811 -33.0727 68.4567 -46.7496 89.545Z" fill="url(#paint0_linear_9_114)"/>
</g>
<path d="M2.74729 103.172C6.88623 111.595 9.81171 113.075 14.4013 114.859C16.3097 121.513 16.931 124.515 15.6614 132.093C15.1483 127.58 13.3397 125.683 10.5088 122.294C8.51344 120.546 6.49093 118.697 3.73039 115.029C1.5383 110.268 0.985041 107.986 0.918042 104.523L-1.13486 105.962C-0.163582 108.403 -0.382279 109.887 -0.881422 112.621C-3.2047 111.242 -4.37551 110.241 -6.12962 107.921L-7.15546 110.644C-0.694275 115.341 2.5367 118.666 6.42316 123.897C11.5993 129.574 12.8063 128.151 13.3338 136.178C4.05759 121.872 -1.31862 124.191 -8.32556 113.002L-9.4132 114.906C-8.22585 119.166 -6.82859 121.259 -2.82556 124.358C-8.61411 123.771 -11.6684 122.277 -17.0829 119.393L-15.7914 122.686C-9.25714 126.252 -5.26171 127.45 2.12225 128.96L7.46583 136.576L-1.98683 131.84L-2.45687 134.404C-2.40831 133.591 -2.41933 132.738 -2.50855 131.839C-3.55757 131.613 -5.12785 132.095 -6.81511 132.881C-8.02652 141.811 -11.9635 149.418 -12.0353 134.928C-13.1859 135.676 -14.1173 135.547 -14.7591 135.996C-16.1179 144.551 -10.1141 149.175 -13.0764 150.971C-14.0376 152.106 -18.3069 141.998 -19.0892 142.985C-20.5945 144.887 -20.8102 145.27 -21.6099 145.24C-18.5741 147.638 -20.4253 150.264 -20.9022 151.719C-25.4783 155.536 -35.6667 158.144 -38.8217 158.115C-43.1971 161.82 -45.5127 168.788 -46.1668 169.438C-43.6856 168.165 -32.7741 164.186 -26.275 162.059C-24.4359 160.071 -22.6686 157.9 -21.3066 157.366C-17.7584 156.396 -18.9261 158.745 -13.6594 158.166C12.1456 180.554 0.917665 186.647 -1.55491 194.38C-1.55492 233.5 -7.90171 231.624 -1.55545 266.5L31.0002 266.5C28.6197 257.381 26.5833 244.834 23.8204 231.956C25.1832 226.084 27.1579 223.366 31.0615 222.114C37.6397 200.529 42.1722 190.846 55.632 172.578C62.2272 166.131 66.5562 163.268 75.7727 159.823C79.9243 156.331 82.4723 154.721 85.7209 149.798L92.4108 141.474L87.8852 142.616C83.4609 148.295 80.8941 151.466 75.1516 156.895C70.471 159.521 67.5676 160.315 62.2261 161.332C63.5072 156.892 63.8112 154.71 68.6375 147.631C72.9351 145.93 75.3239 144.924 78.7432 141.342L74.5722 139.39C73.1135 142.017 72.2217 143.472 69.4557 143.718C69.5443 142.101 69.701 141.173 70.8918 139.356L68.1197 138.967C63.9362 149.489 60.575 157.124 53.7201 166.358C54.2561 161.714 54.9247 158.074 62.1703 139.821L58.3337 140.061C58.229 145.798 54.7902 148.107 54.5632 153.151C53.9065 151.566 53.7102 150.587 53.8202 148.588C54.0458 145.078 54.7347 143.247 56.2306 140.042L53.4581 139.944C55.5052 137.941 57.7758 135.22 60.4453 131.42L59.4896 130.318C54.508 133.964 52.8525 136.344 50.0039 135.515C56.7768 130.748 59.4267 125.486 60.3328 117.108L57.6204 117.54C55.5434 124.265 52.9157 128.252 44.0056 134.913C46.524 128.648 48.1893 124.887 53.3427 117.318L49.2561 118.921C43.8821 125.25 41.1117 128.871 39.1076 135.779C38.9488 128.03 37.3724 122.872 34.9055 115.05L31.2137 115.653L35.5569 132.738L35.6558 139.666L30.9042 148.918C27.5239 152.987 27.2147 157.542 24.4909 158.611C21.697 162.646 19.3432 169.756 14.0237 175.443C14.7018 162.069 16.8276 153.726 20.0373 135.237C21.6116 125.473 21.2003 120.591 17.5796 113.612C22.5248 109.925 24.805 107.647 27.8394 103.044L25.7692 101.107C22.8404 106.839 20.7887 108.104 15.5232 111.041C14.6224 106.324 14.4889 104.885 17.131 101.118L15.5689 100.468C13.3574 102.18 14.0181 106.45 11.8068 108.91C12.0563 106.197 11.7509 102.776 10.6792 100.697L8.64881 100.859C9.97254 102.688 11.1149 105.995 8.75945 107.15C6.7166 107.951 5.45223 104.818 3.89233 102.091L2.74729 103.172ZM52.6089 140.744C51.0393 148.439 51.0863 151.703 51.5646 156.862C50.8373 162.811 49.7259 165.801 47.3987 170.953C41.2228 180.956 37.6193 186.664 33.5835 195.159L20.6281 217.551C20.5638 217.645 20.5017 217.739 20.4392 217.832C18.4939 210.647 16.1927 203.719 13.3359 197.609C14.5446 194.409 15.2213 191.469 15.4524 188.724L23.0169 177.556L37.0806 147.973C43.1921 145.635 47.1535 145.705 52.6089 140.744ZM-2.80211 136.883C3.46934 139.217 8.18795 141.41 10.3953 140.705C11.5071 141.755 11.8645 142.254 12.0812 143C10.0339 152.083 8.63378 157.232 5.93022 165.204C2.37006 160.899 -1.8406 156.464 -6.09781 151.4C-7.89739 146.401 -4.04716 142.659 -2.80211 136.883Z" fill="url(#paint1_linear_9_114)"/>
<g filter="url(#filter1_i_9_114)">
<path d="M-73.9989 159.244C-69.3222 171.167 -56.0798 177.126 -44.4213 172.553C-39.8925 142.699 -5.1792 150.405 -2.95229 131.377C-7.629 119.454 -43.6086 111.858 -60.4508 125.008C-72.1093 129.581 -78.6756 147.32 -73.9989 159.244Z" fill="url(#paint2_linear_9_114)"/>
</g>
<g filter="url(#filter2_i_9_114)">
<path d="M66.3553 120.447C58.1728 125.686 47.8842 138.511 51.2971 142.819C70.8005 142.596 85.2207 156.258 93.4033 151.019C101.586 145.78 104.101 129.884 94.6268 125.33C91.2139 121.022 74.5379 115.208 66.3553 120.447Z" fill="url(#paint3_linear_9_114)"/>
</g>
<g filter="url(#filter3_i_9_114)">
<path d="M41.0055 97.2086C28.3294 105.324 22.682 117.747 28.3919 124.955C59.4041 125.616 66.1533 144.561 78.8295 136.445C91.5056 128.329 94.4715 102.529 79.1037 94.6018C73.3939 87.3938 53.6817 89.0927 41.0055 97.2086Z" fill="url(#paint4_linear_9_114)"/>
</g>
<g filter="url(#filter4_i_9_114)">
<path d="M-29.9427 108.264C-36.6243 121.82 -33.8203 126.534 -21.5731 129.603C12.2192 113.766 28.2846 127.55 43.9498 121.406C50.6315 107.85 31.8716 84.4932 8.66366 85.9221C-3.58362 82.8531 -23.261 94.7086 -29.9427 108.264Z" fill="url(#paint5_linear_9_114)"/>
</g>
<g filter="url(#filter5_i_9_114)">
<path d="M113.215 167.267C161.551 195.27 118.625 253.284 92.8099 225.15C63.0165 192.681 45.8525 226.052 37.3092 213.151C28.7659 200.249 37.7336 147.987 72.6814 148.456C83.9382 144.312 104.672 154.366 113.215 167.267Z" fill="url(#paint6_linear_9_114)"/>
</g>
<path d="M91.9486 194.761C92.663 195.221 93.2382 195.146 93.6368 195.423C94.5128 200.639 90.8214 203.429 92.66 204.535C93.2588 205.231 95.8552 199.092 96.3429 199.697C97.2815 200.862 97.4165 201.096 97.9107 201.081C96.0445 202.529 97.1992 204.135 97.5003 205.024C100.345 207.368 106.655 209 108.605 208.995C111.325 211.27 112.785 215.523 113.192 215.922C111.653 215.136 104.891 212.667 100.865 211.344C99.72 210.126 98.6185 208.796 97.7744 208.465C95.577 207.86 96.3087 209.295 93.0507 208.92C79.2491 220.693 82.7375 225.066 84.903 229.115C88.0198 228.024 91.3016 226.702 96.1647 224.901C100.557 223.33 102.846 223.064 106.354 223.998C107.675 221.519 108.552 220.323 110.445 218.589L111.501 219.31C109.078 221.101 108.652 222.105 107.703 224.654C109.954 224.615 110.63 224.543 112.166 223.055L112.588 223.672C111.968 224.787 109.942 224.889 108.976 226.072C110.211 225.717 111.817 225.537 112.862 225.813L112.945 226.707C111.997 226.299 110.378 226.106 110.027 227.232C109.816 228.19 111.362 228.452 112.744 228.88L112.333 229.475C108.117 228.448 107.206 227.315 106.025 225.488C102.799 225.267 101.363 225.271 97.9572 226.511C100.084 226.323 101.102 226.933 102.888 227.852C103.852 228.557 104.864 229.266 106.775 230.128C109.146 230.645 110.244 230.677 111.85 230.391L111.344 231.412C110.14 231.213 109.471 231.442 108.246 231.907C109.064 232.789 109.617 233.205 110.826 233.754L109.647 234.447C106.974 232.074 105.185 230.977 102.465 229.769C99.4376 228.042 100.002 227.389 96.2495 227.891C103.584 230.609 102.93 233.151 108.647 235.169L107.851 235.813C105.79 235.686 104.713 235.271 102.969 233.819C103.69 236.274 104.618 237.461 106.372 239.545L104.749 239.285C102.593 236.778 101.729 235.156 100.458 232.093L96.5209 230.47L99.4445 234.137L97.2017 234.99C95.6252 232.464 94.2288 230.604 94.3839 229.577C93.8119 229.191 93.5538 229.081 93.1924 229.055C89.7813 230.502 87.6307 231.495 84.9524 232.909C77.0193 253.658 80.6828 253.222 77.0203 273.8L56.3096 269.651C59.0775 258.942 60.3848 246.321 66.3285 233.65C64.8719 229.908 65.5741 226.682 67.4898 223.723L59.3279 207.039C52.7898 206.887 49.5498 208.849 41.5668 201.747L42.2702 200.823C46.0583 202.026 47.333 203.175 49.4598 201.995C44.3117 200.481 42.2511 197.712 41.4575 192.548L43.4996 192.207C45.1496 196.045 47.1759 198.002 53.954 200.243C51.9789 196.8 50.6779 194.769 46.7076 191.091L49.7958 191.187C53.9152 194.021 56.0439 195.711 57.6417 199.683C57.656 194.68 58.7693 191.015 60.5149 185.439L63.2945 184.985L60.2654 196.925L60.2852 201.389L63.9767 206.238C66.5688 208.076 66.8629 210.926 68.9214 210.99C70.4521 212.378 71.8371 214.813 73.9737 216.98C78.7716 213.025 84.5618 209.216 88.3486 204.768C89.7272 200.931 85.5365 198.278 86.0468 192.838C86.6943 192.705 87.6667 193.006 88.713 193.491C89.4995 198.936 91.9654 203.585 91.9486 194.761Z" fill="url(#paint7_linear_9_114)"/>
<g filter="url(#filter6_i_9_114)">
<path d="M130.353 209.83C127.512 217.072 119.352 220.646 112.126 217.811C109.2 199.61 87.7751 204.157 86.3182 192.559C89.1588 185.317 111.367 180.842 121.834 188.923C129.06 191.757 133.193 202.588 130.353 209.83Z" fill="url(#paint8_linear_9_114)"/>
</g>
<g filter="url(#filter7_i_9_114)">
<path d="M59.624 179.182C67.494 184.179 71.0373 191.768 67.5382 196.134C48.3709 196.406 44.279 207.915 36.409 202.919C28.539 197.923 26.5968 182.197 36.0628 177.434C39.5619 173.068 51.754 174.186 59.624 179.182Z" fill="url(#paint9_linear_9_114)"/>
</g>
<g filter="url(#filter8_i_9_114)">
<path d="M110.809 243.151C102.093 244.668 95.0439 239.094 95.3093 234.65C109.72 223.836 102.802 221.735 108.809 216.65C117.526 215.132 128.258 222.366 123.677 230.356C123.412 234.8 119.526 241.633 110.809 243.151Z" fill="url(#paint10_linear_9_114)"/>
</g>
<g filter="url(#filter9_i_9_114)">
<path d="M197 306.341C195.512 305.417 193.334 305.008 191.944 304.03C190.167 302.779 190.342 301.216 189.35 299.827C187.939 297.852 185.803 297.549 182.804 296.855C179.857 296.172 177.435 294.661 174.589 293.77C171.044 292.659 166.657 292.411 164.141 290.479C162.81 289.458 162.347 288.189 162.026 286.986C161.706 285.782 161.457 284.539 160.428 283.417C156.097 278.689 144.183 284.055 140.847 279.406C138.589 276.26 133.616 275.123 128.977 274.351C124.34 273.58 114.14 263.262 104.864 261.719C95.5879 260.175 84.6414 263.894 81.2635 262.716C77.8845 261.537 70.9151 253.297 67.6974 248.76C64.4804 244.222 58.8708 244.52 55.2918 244.54C51.7138 244.559 51.1644 238.312 41.6519 235.805C32.1393 233.298 23.1619 239.501 19.0979 240.055C15.0334 240.61 10.5954 238.64 8.4632 239.516C6.33139 240.393 5.58364 244.886 2.34145 245.271C-0.899489 245.655 -8.91597 243.705 -11.3732 241.756C-13.8291 239.808 -16.6723 237.797 -19.0533 240.171C-21.4343 242.545 -27.7809 244.876 -29.8008 242.692C-30.1208 242.346 -30.7984 241.907 -31.7104 241.418L-42.0002 303.242C53.2806 318.756 106.21 320.743 199.922 314.576C199.609 313.695 199.41 312.812 199.34 311.939C199.186 310.024 199.413 307.839 197 306.341Z" fill="url(#paint11_linear_9_114)"/>
</g>
<defs>
<filter id="filter0_i_9_114" x="-88.1247" y="54.745" width="165.334" height="118.527" filterUnits="userSpaceOnUse" color-interpolation-filters="sRGB">
<feFlood flood-opacity="0" result="BackgroundImageFix"/>
<feBlend mode="normal" in="SourceGraphic" in2="BackgroundImageFix" result="shape"/>
<feColorMatrix in="SourceAlpha" type="matrix" values="0 0 0 0 0 0 0 0 0 0 0 0 0 0 0 0 0 0 127 0" result="hardAlpha"/>
<feOffset dx="-6.66601" dy="-62.0141"/>
<feGaussianBlur stdDeviation="1.3736"/>
<feComposite in2="hardAlpha" operator="arithmetic" k2="-1" k3="1"/>
<feColorMatrix type="matrix" values="0 0 0 0 0.033221 0 0 0 0 0.577712 0 0 0 0 0.468814 0 0 0 0.25 0"/>
<feBlend mode="normal" in2="shape" result="effect1_innerShadow_9_114"/>
</filter>
<filter id="filter1_i_9_114" x="-75.5186" y="116.484" width="74.1823" height="57.6084" filterUnits="userSpaceOnUse" color-interpolation-filters="sRGB">
<feFlood flood-opacity="0" result="BackgroundImageFix"/>
<feBlend mode="normal" in="SourceGraphic" in2="BackgroundImageFix" result="shape"/>
<feColorMatrix in="SourceAlpha" type="matrix" values="0 0 0 0 0 0 0 0 0 0 0 0 0 0 0 0 0 0 127 0" result="hardAlpha"/>
<feOffset dx="11.918" dy="-13.938"/>
<feGaussianBlur stdDeviation="0.808001"/>
<feComposite in2="hardAlpha" operator="arithmetic" k2="-1" k3="1"/>
<feColorMatrix type="matrix" values="0 0 0 0 0 0 0 0 0 0.310904 0 0 0 0 0.339168 0 0 0 0.25 0"/>
<feBlend mode="normal" in2="shape" result="effect1_innerShadow_9_114"/>
</filter>
<filter id="filter2_i_9_114" x="49.0091" y="116.754" width="51.7004" height="35.4623" filterUnits="userSpaceOnUse" color-interpolation-filters="sRGB">
<feFlood flood-opacity="0" result="BackgroundImageFix"/>
<feBlend mode="normal" in="SourceGraphic" in2="BackgroundImageFix" result="shape"/>
<feColorMatrix in="SourceAlpha" type="matrix" values="0 0 0 0 0 0 0 0 0 0 0 0 0 0 0 0 0 0 127 0" result="hardAlpha"/>
<feOffset dx="-11.918" dy="-5.65601"/>
<feGaussianBlur stdDeviation="0.808001"/>
<feComposite in2="hardAlpha" operator="arithmetic" k2="-1" k3="1"/>
<feColorMatrix type="matrix" values="0 0 0 0 0 0 0 0 0 0.295407 0 0 0 0 0.361722 0 0 0 0.25 0"/>
<feBlend mode="normal" in2="shape" result="effect1_innerShadow_9_114"/>
</filter>
<filter id="filter3_i_9_114" x="23.2155" y="87.097" width="66.3025" height="51.3654" filterUnits="userSpaceOnUse" color-interpolation-filters="sRGB">
<feFlood flood-opacity="0" result="BackgroundImageFix"/>
<feBlend mode="normal" in="SourceGraphic" in2="BackgroundImageFix" result="shape"/>
<feColorMatrix in="SourceAlpha" type="matrix" values="0 0 0 0 0 0 0 0 0 0 0 0 0 0 0 0 0 0 127 0" result="hardAlpha"/>
<feOffset dx="-11.514" dy="-14.544"/>
<feGaussianBlur stdDeviation="1.4746"/>
<feComposite in2="hardAlpha" operator="arithmetic" k2="-1" k3="1"/>
<feColorMatrix type="matrix" values="0 0 0 0 0 0 0 0 0 0.349947 0 0 0 0 0.256628 0 0 0 0.25 0"/>
<feBlend mode="normal" in2="shape" result="effect1_innerShadow_9_114"/>
</filter>
<filter id="filter4_i_9_114" x="-33.4744" y="83.8173" width="78.7923" height="45.7853" filterUnits="userSpaceOnUse" color-interpolation-filters="sRGB">
<feFlood flood-opacity="0" result="BackgroundImageFix"/>
<feBlend mode="normal" in="SourceGraphic" in2="BackgroundImageFix" result="shape"/>
<feColorMatrix in="SourceAlpha" type="matrix" values="0 0 0 0 0 0 0 0 0 0 0 0 0 0 0 0 0 0 127 0" result="hardAlpha"/>
<feOffset dy="-24.442"/>
<feGaussianBlur stdDeviation="0.808001"/>
<feComposite in2="hardAlpha" operator="arithmetic" k2="-1" k3="1"/>
<feColorMatrix type="matrix" values="0 0 0 0 0.0261306 0 0 0 0 0.405801 0 0 0 0 0.440317 0 0 0 0.25 0"/>
<feBlend mode="normal" in2="shape" result="effect1_innerShadow_9_114"/>
</filter>
<filter id="filter5_i_9_114" x="32.5936" y="145.808" width="102.553" height="86.848" filterUnits="userSpaceOnUse" color-interpolation-filters="sRGB">
<feFlood flood-opacity="0" result="BackgroundImageFix"/>
<feBlend mode="normal" in="SourceGraphic" in2="BackgroundImageFix" result="shape"/>
<feColorMatrix in="SourceAlpha" type="matrix" values="0 0 0 0 0 0 0 0 0 0 0 0 0 0 0 0 0 0 127 0" result="hardAlpha"/>
<feOffset dx="-4.13159" dy="-38.4363"/>
<feGaussianBlur stdDeviation="0.851358"/>
<feComposite in2="hardAlpha" operator="arithmetic" k2="-1" k3="1"/>
<feColorMatrix type="matrix" values="0 0 0 0 0.033221 0 0 0 0 0.577712 0 0 0 0 0.468814 0 0 0 0.25 0"/>
<feBlend mode="normal" in2="shape" result="effect1_innerShadow_9_114"/>
</filter>
<filter id="filter6_i_9_114" x="86.3182" y="183.611" width="45.9399" height="35.1726" filterUnits="userSpaceOnUse" color-interpolation-filters="sRGB">
<feFlood flood-opacity="0" result="BackgroundImageFix"/>
<feBlend mode="normal" in="SourceGraphic" in2="BackgroundImageFix" result="shape"/>
<feColorMatrix in="SourceAlpha" type="matrix" values="0 0 0 0 0 0 0 0 0 0 0 0 0 0 0 0 0 0 127 0" result="hardAlpha"/>
<feOffset dx="7.38678" dy="-8.63878"/>
<feGaussianBlur stdDeviation="0.500799"/>
<feComposite in2="hardAlpha" operator="arithmetic" k2="-1" k3="1"/>
<feColorMatrix type="matrix" values="0 0 0 0 0 0 0 0 0 0.310904 0 0 0 0 0.339168 0 0 0 0.25 0"/>
<feBlend mode="normal" in2="shape" result="effect1_innerShadow_9_114"/>
</filter>
<filter id="filter7_i_9_114" x="27.8789" y="172.888" width="41.0082" height="31.2867" filterUnits="userSpaceOnUse" color-interpolation-filters="sRGB">
<feFlood flood-opacity="0" result="BackgroundImageFix"/>
<feBlend mode="normal" in="SourceGraphic" in2="BackgroundImageFix" result="shape"/>
<feColorMatrix in="SourceAlpha" type="matrix" values="0 0 0 0 0 0 0 0 0 0 0 0 0 0 0 0 0 0 127 0" result="hardAlpha"/>
<feOffset dx="-7.13638" dy="-9.01437"/>
<feGaussianBlur stdDeviation="0.913957"/>
<feComposite in2="hardAlpha" operator="arithmetic" k2="-1" k3="1"/>
<feColorMatrix type="matrix" values="0 0 0 0 0 0 0 0 0 0.349947 0 0 0 0 0.256628 0 0 0 0.25 0"/>
<feBlend mode="normal" in2="shape" result="effect1_innerShadow_9_114"/>
</filter>
<filter id="filter8_i_9_114" x="95.302" y="215.446" width="29.4699" height="27.9597" filterUnits="userSpaceOnUse" color-interpolation-filters="sRGB">
<feFlood flood-opacity="0" result="BackgroundImageFix"/>
<feBlend mode="normal" in="SourceGraphic" in2="BackgroundImageFix" result="shape"/>
<feColorMatrix in="SourceAlpha" type="matrix" values="0 0 0 0 0 0 0 0 0 0 0 0 0 0 0 0 0 0 127 0" result="hardAlpha"/>
<feOffset dy="-15.1492"/>
<feGaussianBlur stdDeviation="0.500799"/>
<feComposite in2="hardAlpha" operator="arithmetic" k2="-1" k3="1"/>
<feColorMatrix type="matrix" values="0 0 0 0 0.0261306 0 0 0 0 0.405801 0 0 0 0 0.440317 0 0 0 0.25 0"/>
<feBlend mode="normal" in2="shape" result="effect1_innerShadow_9_114"/>
</filter>
<filter id="filter9_i_9_114" x="-42.0002" y="235.21" width="245.536" height="86.2313" filterUnits="userSpaceOnUse" color-interpolation-filters="sRGB">
<feFlood flood-opacity="0" result="BackgroundImageFix"/>
<feBlend mode="normal" in="SourceGraphic" in2="BackgroundImageFix" result="shape"/>
<feColorMatrix in="SourceAlpha" type="matrix" values="0 0 0 0 0 0 0 0 0 0 0 0 0 0 0 0 0 0 127 0" result="hardAlpha"/>
<feOffset dx="28.011" dy="10.3912"/>
<feGaussianBlur stdDeviation="1.80716"/>
<feComposite in2="hardAlpha" operator="arithmetic" k2="-1" k3="1"/>
<feColorMatrix type="matrix" values="0 0 0 0 1 0 0 0 0 0.992506 0 0 0 0 0.550387 0 0 0 0.25 0"/>
<feBlend mode="normal" in2="shape" result="effect1_innerShadow_9_114"/>
</filter>
<linearGradient id="paint0_linear_9_114" x1="-14.0557" y1="32.2904" x2="17.546" y2="142.5" gradientUnits="userSpaceOnUse">
<stop offset="0.202239" stop-color="#F7F6A7"/>
<stop offset="0.791956" stop-color="#3C784D"/>
</linearGradient>
<linearGradient id="paint1_linear_9_114" x1="-4.95233" y1="49.0724" x2="53.1174" y2="273.902" gradientUnits="userSpaceOnUse">
<stop stop-color="#3D5A44"/>
<stop offset="0.358286" stop-color="#4B5C42"/>
<stop offset="0.64294" stop-color="#8E6635" stop-opacity="0.74"/>
<stop offset="0.970732" stop-color="#8E6635" stop-opacity="0"/>
</linearGradient>
<linearGradient id="paint2_linear_9_114" x1="-72.6378" y1="125.988" x2="-37.7157" y2="172.189" gradientUnits="userSpaceOnUse">
<stop stop-color="#9CBF7C"/>
<stop offset="0.741107" stop-color="#326F40"/>
</linearGradient>
<linearGradient id="paint3_linear_9_114" x1="51.0402" y1="5.2795" x2="99.2139" y2="148.515" gradientUnits="userSpaceOnUse">
<stop stop-color="#9FC480"/>
<stop offset="0.950658" stop-color="#527A4A"/>
</linearGradient>
<linearGradient id="paint4_linear_9_114" x1="52.3592" y1="76.7493" x2="75.0556" y2="142.865" gradientUnits="userSpaceOnUse">
<stop stop-color="#A1C682"/>
<stop offset="1" stop-color="#266741"/>
</linearGradient>
<linearGradient id="paint5_linear_9_114" x1="-13.5363" y1="77.685" x2="5.87982" y2="131.526" gradientUnits="userSpaceOnUse">
<stop offset="0.252677" stop-color="#A3C984"/>
<stop offset="1" stop-color="#3D653A"/>
</linearGradient>
<linearGradient id="paint6_linear_9_114" x1="92.7649" y1="132.259" x2="73.4412" y2="199.174" gradientUnits="userSpaceOnUse">
<stop offset="0.202239" stop-color="#F7F6A7"/>
<stop offset="0.791956" stop-color="#3C784D"/>
</linearGradient>
<linearGradient id="paint7_linear_9_114" x1="94.5572" y1="144.745" x2="61.9492" y2="280.888" gradientUnits="userSpaceOnUse">
<stop stop-color="#3D5A44"/>
<stop offset="0.358286" stop-color="#4B5C42"/>
<stop offset="0.64294" stop-color="#8E6635" stop-opacity="0.74"/>
<stop offset="0.970732" stop-color="#8E6635" stop-opacity="0"/>
</linearGradient>
<linearGradient id="paint8_linear_9_114" x1="129.371" y1="189.571" x2="108.276" y2="217.784" gradientUnits="userSpaceOnUse">
<stop stop-color="#9CBF7C"/>
<stop offset="0.741107" stop-color="#326F40"/>
</linearGradient>
<linearGradient id="paint9_linear_9_114" x1="52.5194" y1="166.674" x2="38.6989" y2="206.821" gradientUnits="userSpaceOnUse">
<stop stop-color="#A1C682"/>
<stop offset="1" stop-color="#266741"/>
</linearGradient>
<linearGradient id="paint10_linear_9_114" x1="124.702" y1="238.571" x2="107.713" y2="219.542" gradientUnits="userSpaceOnUse">
<stop offset="0.252677" stop-color="#A3C984"/>
<stop offset="1" stop-color="#3D653A"/>
</linearGradient>
<linearGradient id="paint11_linear_9_114" x1="95.7729" y1="180.868" x2="93.1403" y2="339.933" gradientUnits="userSpaceOnUse">
<stop offset="0.336379" stop-color="#427F1E"/>
<stop offset="0.877253" stop-color="#92C16B"/>
</linearGradient>
</defs>
</svg>
