<svg xmlns="http://www.w3.org/2000/svg" viewBox="0 0 400 1000">
  <defs>
    <linearGradient id="a" x1="0" x2="0" y1="-7.5905" y2="63.153" gradientUnits="userSpaceOnUse">
      <stop offset=".08224" stop-color="#e2f8fc"/>
      <stop offset=".22017" stop-color="#52aec1"/>
      <stop offset=".5" stop-color="#88daea"/>
      <stop offset="1" stop-color="#f7f7f7" stop-opacity=".13"/>
    </linearGradient>
    <linearGradient id="b" x1="0" x2="0" y1="63.221" y2="973.84" gradientUnits="userSpaceOnUse">
      <stop offset=".07926" stop-color="#335a69"/>
      <stop offset=".27638" stop-color="#4c869c"/>
      <stop offset=".38297" stop-color="#65b1cf"/>
      <stop offset=".51488" stop-color="#89c3db" stop-opacity=".27"/>
      <stop offset=".57244" stop-color="#93cae1" stop-opacity=".228"/>
      <stop offset=".66597" stop-color="#bde6f8" stop-opacity=".06"/>
      <stop offset="1" stop-color="#e5f7ff" stop-opacity="0"/>
    </linearGradient>
  </defs>
  <path fill="url(#a)" d="M0 0h400v63.154H0z"/>
  <path fill="url(#b)"
        d="M400 1000h-41.945l-.00005-690.41c0-81.416-66.001-147.42-147.42-147.42h-17.629c-81.415 0-147.42 66.001-147.42 147.42l.00004 690.41H-.007L-.00705 63.21l400-.05764z"/>
  <path fill="#e6f5fd"
        d="M0 125.12h4.7331s.4927-10.376 3.4876-14.595c2.4943-3.514 4.4503-4.92 6.5951-4.92h37.036c2.1448 0 4.1008 1.406 6.5951 4.92 2.9949 4.2192 3.4876 14.595 3.4876 14.595h9.4659s.4927-10.376 3.4876-14.595c2.4943-3.514 4.4503-4.92 6.5951-4.92h37.034c2.1448 0 4.1008 1.406 6.5951 4.92 2.9949 4.2192 3.4876 14.595 3.4876 14.595h9.466s.4927-10.376 3.4876-14.595c2.4943-3.514 4.4503-4.92 6.5951-4.92h37.036c2.1448 0 4.1008 1.406 6.5951 4.92 2.9949 4.2192 3.4876 14.595 3.4876 14.595h9.4659s.4927-10.376 3.4876-14.595c2.4943-3.514 4.4503-4.92 6.5951-4.92h37.034c2.1448 0 4.1008 1.406 6.5951 4.92 2.9949 4.2192 3.4876 14.595 3.4876 14.595h9.466s.4927-10.376 3.4876-14.595c2.4943-3.514 4.4503-4.92 6.5951-4.92h37.036c2.1448 0 4.1008 1.406 6.5951 4.92 2.9949 4.2192 3.4876 14.595 3.4876 14.595h9.466s.4927-10.376 3.4876-14.595c2.4943-3.514 4.4503-4.92 6.5951-4.92h37.034c2.1448 0 4.1008 1.406 6.5952 4.92 2.9949 4.2192 3.4875 14.595 3.4875 14.595h4.734V97.928h-400z"/>
</svg>
