<svg width="224" height="463" viewBox="0 0 224 463" fill="none" xmlns="http://www.w3.org/2000/svg">
<g filter="url(#filter0_i_1732_923)">
<path d="M3.1612 41.0604L2.82509 37.9914C2.82509 37.9914 83.0167 98.6977 86.0795 102.797C89.1423 106.897 95.2346 117.895 95.2346 117.895L91.0721 122.861L3.1612 41.0604Z" fill="#ECECEC"/>
</g>
<path d="M93.0576 120.503L105.713 114.774V128.379L93.0576 133.571V120.503Z" fill="#909090"/>
<path d="M105.714 114.835L142.845 129.097V143.06L105.714 128.381V114.835Z" fill="#E0E0E0"/>
<path d="M105.713 128.318L142.994 143.146L128.876 148.367L93.0576 133.569L105.713 128.318Z" fill="#9EA8A7"/>
<g filter="url(#filter1_i_1732_923)">
<path d="M116.468 135.185C120.534 135.185 123.797 136.528 123.798 138.258C123.798 138.344 123.788 138.429 123.773 138.513L128.298 461.819L105.447 462.621L109.529 138.589C109.503 138.481 109.489 138.371 109.489 138.258C109.49 136.528 112.402 135.185 116.468 135.185Z" fill="#E0E0E0"/>
</g>
<g filter="url(#filter2_i_1732_923)">
<path d="M99.3639 117.76L210.369 8.27706e-05L210.369 5.0124L162.164 66.7416C162.164 66.7416 134.397 103.32 128.585 108.601C122.773 113.881 114.252 111.82 107.542 117.76C105.368 119.685 102.498 123.22 102.498 123.22L99.3639 117.76Z" fill="#ECECEC"/>
</g>
<g filter="url(#filter3_i_1732_923)">
<path d="M93.0528 132.051H98.3234L95.3754 290.536L93.1421 287.049C93.1421 287.049 85.7872 154.918 85.7871 149.996C85.787 145.074 93.0528 132.051 93.0528 132.051Z" fill="#ECECEC"/>
</g>
<path d="M104.102 123.396C104.102 129.163 101.821 133.003 96.2819 133.003C90.7431 133.003 87.417 129.163 87.417 123.396C87.417 117.629 90.7431 114.744 96.2819 114.744C101.821 114.744 104.102 117.629 104.102 123.396Z" fill="#353F3B"/>
<g filter="url(#filter4_i_1732_923)">
<path d="M97.4132 122.833C97.4132 126.371 95.5192 128.291 92.0963 128.291C88.6734 128.291 86.7275 125.598 86.7275 122.061C86.7275 118.524 89.2276 117.55 92.6505 117.55C96.0733 117.55 97.4132 119.296 97.4132 122.833Z" fill="#BABABA"/>
</g>
<defs>
<filter id="filter0_i_1732_923" x="2.8252" y="36.388" width="92.4092" height="86.4728" filterUnits="userSpaceOnUse" color-interpolation-filters="sRGB">
<feFlood flood-opacity="0" result="BackgroundImageFix"/>
<feBlend mode="normal" in="SourceGraphic" in2="BackgroundImageFix" result="shape"/>
<feColorMatrix in="SourceAlpha" type="matrix" values="0 0 0 0 0 0 0 0 0 0 0 0 0 0 0 0 0 0 127 0" result="hardAlpha"/>
<feOffset dy="-7.61515"/>
<feGaussianBlur stdDeviation="0.801594"/>
<feComposite in2="hardAlpha" operator="arithmetic" k2="-1" k3="1"/>
<feColorMatrix type="matrix" values="0 0 0 0 0 0 0 0 0 0 0 0 0 0 0 0 0 0 0.25 0"/>
<feBlend mode="normal" in2="shape" result="effect1_innerShadow_1732_923"/>
</filter>
<filter id="filter1_i_1732_923" x="103.844" y="135.185" width="24.4538" height="329.04" filterUnits="userSpaceOnUse" color-interpolation-filters="sRGB">
<feFlood flood-opacity="0" result="BackgroundImageFix"/>
<feBlend mode="normal" in="SourceGraphic" in2="BackgroundImageFix" result="shape"/>
<feColorMatrix in="SourceAlpha" type="matrix" values="0 0 0 0 0 0 0 0 0 0 0 0 0 0 0 0 0 0 127 0" result="hardAlpha"/>
<feOffset dx="-9.83343" dy="25.9647"/>
<feGaussianBlur stdDeviation="0.801594"/>
<feComposite in2="hardAlpha" operator="arithmetic" k2="-1" k3="1"/>
<feColorMatrix type="matrix" values="0 0 0 0 0 0 0 0 0 0 0 0 0 0 0 0 0 0 0.2 0"/>
<feBlend mode="normal" in2="shape" result="effect1_innerShadow_1732_923"/>
</filter>
<filter id="filter2_i_1732_923" x="99.3643" y="0" width="111.005" height="124.823" filterUnits="userSpaceOnUse" color-interpolation-filters="sRGB">
<feFlood flood-opacity="0" result="BackgroundImageFix"/>
<feBlend mode="normal" in="SourceGraphic" in2="BackgroundImageFix" result="shape"/>
<feColorMatrix in="SourceAlpha" type="matrix" values="0 0 0 0 0 0 0 0 0 0 0 0 0 0 0 0 0 0 127 0" result="hardAlpha"/>
<feOffset dy="2.80558"/>
<feGaussianBlur stdDeviation="0.801594"/>
<feComposite in2="hardAlpha" operator="arithmetic" k2="-1" k3="1"/>
<feColorMatrix type="matrix" values="0 0 0 0 0 0 0 0 0 0 0 0 0 0 0 0 0 0 0.25 0"/>
<feBlend mode="normal" in2="shape" result="effect1_innerShadow_1732_923"/>
</filter>
<filter id="filter3_i_1732_923" x="84.1839" y="132.051" width="14.1393" height="160.089" filterUnits="userSpaceOnUse" color-interpolation-filters="sRGB">
<feFlood flood-opacity="0" result="BackgroundImageFix"/>
<feBlend mode="normal" in="SourceGraphic" in2="BackgroundImageFix" result="shape"/>
<feColorMatrix in="SourceAlpha" type="matrix" values="0 0 0 0 0 0 0 0 0 0 0 0 0 0 0 0 0 0 127 0" result="hardAlpha"/>
<feOffset dx="-10.8215" dy="32.0638"/>
<feGaussianBlur stdDeviation="0.801594"/>
<feComposite in2="hardAlpha" operator="arithmetic" k2="-1" k3="1"/>
<feColorMatrix type="matrix" values="0 0 0 0 0 0 0 0 0 0 0 0 0 0 0 0 0 0 0.25 0"/>
<feBlend mode="normal" in2="shape" result="effect1_innerShadow_1732_923"/>
</filter>
<filter id="filter4_i_1732_923" x="86.7275" y="117.55" width="10.6855" height="10.7407" filterUnits="userSpaceOnUse" color-interpolation-filters="sRGB">
<feFlood flood-opacity="0" result="BackgroundImageFix"/>
<feBlend mode="normal" in="SourceGraphic" in2="BackgroundImageFix" result="shape"/>
<feColorMatrix in="SourceAlpha" type="matrix" values="0 0 0 0 0 0 0 0 0 0 0 0 0 0 0 0 0 0 127 0" result="hardAlpha"/>
<feOffset dx="-8.41674" dy="10.0199"/>
<feComposite in2="hardAlpha" operator="arithmetic" k2="-1" k3="1"/>
<feColorMatrix type="matrix" values="0 0 0 0 0 0 0 0 0 0 0 0 0 0 0 0 0 0 0.25 0"/>
<feBlend mode="normal" in2="shape" result="effect1_innerShadow_1732_923"/>
</filter>
</defs>
</svg>
