<svg width="122" height="253" viewBox="0 0 122 253" fill="none" xmlns="http://www.w3.org/2000/svg">
<g filter="url(#filter0_i_1732_936)">
<path d="M2.27814 23.1169L2.09505 21.4452C2.09505 21.4452 45.7765 54.5125 47.4449 56.7455C49.1132 58.9786 52.4318 64.9696 52.4318 64.9696L50.1644 67.6744L2.27814 23.1169Z" fill="#ECECEC"/>
</g>
<path d="M49.8496 66.3908L56.7433 63.2705V70.6812L49.8496 73.509V66.3908Z" fill="#909090"/>
<path d="M56.7461 63.3037L76.9719 71.072V78.6777L56.7461 70.6819V63.3037Z" fill="#E0E0E0"/>
<path d="M56.7433 70.6489L77.0505 78.726L69.3601 81.57L49.8496 73.5092L56.7433 70.6489Z" fill="#9EA8A7"/>
<g filter="url(#filter1_i_1732_936)">
<path d="M62.6045 74.3877C64.8193 74.3877 66.5967 75.1191 66.5967 76.0615C66.5967 76.1069 66.5914 76.1514 66.584 76.1953L69.0488 252.308L56.6016 252.744L58.8252 76.2412C58.8108 76.1826 58.8027 76.1228 58.8027 76.0615C58.8027 75.1191 60.3896 74.3877 62.6045 74.3877Z" fill="#E0E0E0"/>
</g>
<g filter="url(#filter2_i_1732_936)">
<path d="M53.2869 64.8955L113.753 0.750347L113.753 3.4806L87.4952 37.1051C87.4952 37.1051 72.3699 57.0295 69.2041 59.9061C66.0382 62.7826 61.3966 61.6598 57.7416 64.8955C56.5577 65.9437 54.9939 67.8693 54.9939 67.8693L53.2869 64.8955Z" fill="#ECECEC"/>
</g>
<g filter="url(#filter3_i_1732_936)">
<path d="M49.8522 72.6797H52.7232L51.1174 159.008L49.9009 157.109C49.9009 157.109 45.8946 85.136 45.8945 82.4548C45.8945 79.7737 49.8522 72.6797 49.8522 72.6797Z" fill="#ECECEC"/>
</g>
<path d="M55.8669 67.9664C55.8669 71.1078 54.6243 73.1994 51.6072 73.1994C48.5901 73.1994 46.7783 71.1078 46.7783 67.9664C46.7783 64.825 48.5901 63.2534 51.6072 63.2534C54.6243 63.2534 55.8669 64.825 55.8669 67.9664Z" fill="#353F3B"/>
<g filter="url(#filter4_i_1732_936)">
<path d="M52.2239 67.6595C52.2239 69.5862 51.1923 70.6323 49.3278 70.6323C47.4633 70.6323 46.4033 69.1654 46.4033 67.2387C46.4033 65.312 47.7651 64.7817 49.6296 64.7817C51.4941 64.7817 52.2239 65.7328 52.2239 67.6595Z" fill="#BABABA"/>
</g>
<defs>
<filter id="filter0_i_1732_936" x="2.09473" y="20.572" width="50.3369" height="47.1023" filterUnits="userSpaceOnUse" color-interpolation-filters="sRGB">
<feFlood flood-opacity="0" result="BackgroundImageFix"/>
<feBlend mode="normal" in="SourceGraphic" in2="BackgroundImageFix" result="shape"/>
<feColorMatrix in="SourceAlpha" type="matrix" values="0 0 0 0 0 0 0 0 0 0 0 0 0 0 0 0 0 0 127 0" result="hardAlpha"/>
<feOffset dy="-4.14806"/>
<feGaussianBlur stdDeviation="0.436638"/>
<feComposite in2="hardAlpha" operator="arithmetic" k2="-1" k3="1"/>
<feColorMatrix type="matrix" values="0 0 0 0 0 0 0 0 0 0 0 0 0 0 0 0 0 0 0.25 0"/>
<feBlend mode="normal" in2="shape" result="effect1_innerShadow_1732_936"/>
</filter>
<filter id="filter1_i_1732_936" x="55.7283" y="74.3877" width="13.3205" height="179.23" filterUnits="userSpaceOnUse" color-interpolation-filters="sRGB">
<feFlood flood-opacity="0" result="BackgroundImageFix"/>
<feBlend mode="normal" in="SourceGraphic" in2="BackgroundImageFix" result="shape"/>
<feColorMatrix in="SourceAlpha" type="matrix" values="0 0 0 0 0 0 0 0 0 0 0 0 0 0 0 0 0 0 127 0" result="hardAlpha"/>
<feOffset dx="-5.35638" dy="14.1433"/>
<feGaussianBlur stdDeviation="0.436638"/>
<feComposite in2="hardAlpha" operator="arithmetic" k2="-1" k3="1"/>
<feColorMatrix type="matrix" values="0 0 0 0 0 0 0 0 0 0 0 0 0 0 0 0 0 0 0.2 0"/>
<feBlend mode="normal" in2="shape" result="effect1_innerShadow_1732_936"/>
</filter>
<filter id="filter2_i_1732_936" x="53.2871" y="0.750488" width="60.4658" height="67.9919" filterUnits="userSpaceOnUse" color-interpolation-filters="sRGB">
<feFlood flood-opacity="0" result="BackgroundImageFix"/>
<feBlend mode="normal" in="SourceGraphic" in2="BackgroundImageFix" result="shape"/>
<feColorMatrix in="SourceAlpha" type="matrix" values="0 0 0 0 0 0 0 0 0 0 0 0 0 0 0 0 0 0 127 0" result="hardAlpha"/>
<feOffset dy="1.52823"/>
<feGaussianBlur stdDeviation="0.436638"/>
<feComposite in2="hardAlpha" operator="arithmetic" k2="-1" k3="1"/>
<feColorMatrix type="matrix" values="0 0 0 0 0 0 0 0 0 0 0 0 0 0 0 0 0 0 0.25 0"/>
<feBlend mode="normal" in2="shape" result="effect1_innerShadow_1732_936"/>
</filter>
<filter id="filter3_i_1732_936" x="45.0213" y="72.6797" width="7.70238" height="87.2019" filterUnits="userSpaceOnUse" color-interpolation-filters="sRGB">
<feFlood flood-opacity="0" result="BackgroundImageFix"/>
<feBlend mode="normal" in="SourceGraphic" in2="BackgroundImageFix" result="shape"/>
<feColorMatrix in="SourceAlpha" type="matrix" values="0 0 0 0 0 0 0 0 0 0 0 0 0 0 0 0 0 0 127 0" result="hardAlpha"/>
<feOffset dx="-5.89461" dy="17.4655"/>
<feGaussianBlur stdDeviation="0.436638"/>
<feComposite in2="hardAlpha" operator="arithmetic" k2="-1" k3="1"/>
<feColorMatrix type="matrix" values="0 0 0 0 0 0 0 0 0 0 0 0 0 0 0 0 0 0 0.25 0"/>
<feBlend mode="normal" in2="shape" result="effect1_innerShadow_1732_936"/>
</filter>
<filter id="filter4_i_1732_936" x="46.4033" y="64.7817" width="5.82031" height="5.85059" filterUnits="userSpaceOnUse" color-interpolation-filters="sRGB">
<feFlood flood-opacity="0" result="BackgroundImageFix"/>
<feBlend mode="normal" in="SourceGraphic" in2="BackgroundImageFix" result="shape"/>
<feColorMatrix in="SourceAlpha" type="matrix" values="0 0 0 0 0 0 0 0 0 0 0 0 0 0 0 0 0 0 127 0" result="hardAlpha"/>
<feOffset dx="-4.5847" dy="5.45797"/>
<feComposite in2="hardAlpha" operator="arithmetic" k2="-1" k3="1"/>
<feColorMatrix type="matrix" values="0 0 0 0 0 0 0 0 0 0 0 0 0 0 0 0 0 0 0.25 0"/>
<feBlend mode="normal" in2="shape" result="effect1_innerShadow_1732_936"/>
</filter>
</defs>
</svg>
