<svg viewBox="0 0 224 463" xmlns="http://www.w3.org/2000/svg">
  <path d="m93.058 120.5 12.655-5.729v13.605l-12.655 5.192z" fill="#909090"/>
  <path d="m105.71 128.32 37.281 14.828-14.118 5.221-35.818-14.798z" fill="#9ea8a7"/>
  <path d="m105.71 114.84v13.545l37.131 14.68v-13.963l-37.131-14.262zm10.754 20.35c-4.066 0-6.9795 1.3423-6.9805 3.0723 0 .113.01502.22403.04102.33203l-4.082 324.03 22.852-.80273-4.5254-323.3c.015-.084.02539-.16986.02539-.25586-.001-1.73-3.2641-3.0723-7.3301-3.0723z" fill="#e0e0e0"/>
  <path d="m210.37 0-111.01 117.76 3.1348 5.4609s2.8709-3.5359 5.0449-5.4609c6.71-5.94 15.231-3.8782 21.043-9.1582 5.812-5.281 33.578-41.859 33.578-41.859l48.205-61.73v-5.0117zm-207.54 37.992.33789 3.0684 87.91 81.801 4.1621-4.9668s-6.0915-10.998-9.1543-15.098c-3.0628-4.0993-83.256-64.805-83.256-64.805zm90.229 94.059s-7.2657 13.023-7.2656 17.945c1e-4 4.922 7.3555 137.05 7.3555 137.05l2.2324 3.4863 2.9492-158.48h-5.2715z" fill="#ececec"/>
  <path d="m104.1 123.4c0 5.767-2.281 9.607-7.8201 9.607-5.5388 0-8.8649-3.84-8.8649-9.607s3.3261-8.652 8.8649-8.652c5.5391 0 7.8201 2.885 7.8201 8.652z" fill="#353F3B"/>
  <path d="m97.413 122.83c0 3.538-1.894 5.458-5.3169 5.458s-5.3688-2.693-5.3688-6.23 2.5001-4.511 5.923-4.511c3.4228 0 4.7627 1.746 4.7627 5.283z" fill="#bababa"/>
</svg>
