<svg width="175" height="47" viewBox="0 0 175 47" fill="none" xmlns="http://www.w3.org/2000/svg">
<path d="M0 41V6H157L174.5 23.5L157 41H0Z" fill="#FF0040"/>
<path d="M12.1 27.7V18.3L14.4 16H21.36L23.62 18.26V20.4H20.9V19.26L19.96 18.32H15.84L14.82 19.34V26.66L15.84 27.68H20L20.98 26.7V24.52H17.98V22.2H23.62V27.7L21.32 30H14.4L12.1 27.7ZM25.6156 27.7V18.3L27.9156 16H35.1156L37.4156 18.3V27.7L35.1156 30H27.9156L25.6156 27.7ZM33.6756 27.68L34.6956 26.66V19.34L33.6756 18.32H29.3556L28.3356 19.34V26.66L29.3556 27.68H33.6756ZM39.8195 16H42.5395V27.7H49.5395V30H39.8195V16ZM51.0305 16H59.9905L62.3905 18.4V27.6L59.9905 30H51.0305V16ZM58.6505 27.68L59.6705 26.66V19.34L58.6505 18.32H53.7505V27.68H58.6505Z" fill="#141B2F"/>
<path d="M141 3L162 23.5L141 44" stroke="#111111" stroke-width="6"/>
</svg>
