<svg width="175" height="47" viewBox="0 0 175 47" fill="none" xmlns="http://www.w3.org/2000/svg">
<path d="M0 41V6H157L174.5 23.5L157 41H0Z" fill="#FF0040"/>
<path d="M12.3 16H21.08L23.22 18.16V23.06L21.06 25.24H15.02V30H12.3V16ZM19.84 22.96L20.54 22.26V18.98L19.84 18.28H15.02V22.96H19.84ZM27.6458 16H30.1258L35.2458 30H32.4858L31.3458 26.9H26.4258L25.2858 30H22.5258L27.6458 16ZM30.7458 24.66L28.8858 19.34H28.8458L27.0458 24.66H30.7458ZM47.6555 25.36V30H44.9355V25.98L43.7355 24.64H39.3755V30H36.6555V16H45.4355L47.5755 18.16V22.4L46.2155 23.78L47.6555 25.36ZM39.3755 22.4H44.1955L44.8955 21.7V18.98L44.1955 18.28H39.3755V22.4ZM53.0386 18.3H48.8586V16H59.9386V18.3H55.7586V30H53.0386V18.3ZM61.5383 16H63.9783L70.2183 25.5H70.2583V16H72.8783V30H70.4383L64.1983 20.52H64.1583V30H61.5383V16ZM75.4836 16H85.6036V18.3H78.2036V21.84H85.0236V24.1H78.2036V27.7H85.6036V30H75.4836V16ZM98.6125 25.36V30H95.8925V25.98L94.6925 24.64H90.3325V30H87.6125V16H96.3925L98.5325 18.16V22.4L97.1725 23.78L98.6125 25.36ZM90.3325 22.4H95.1525L95.8525 21.7V18.98L95.1525 18.28H90.3325V22.4ZM100.809 27.84V25.84H103.489V27.02L104.149 27.68H108.289L108.969 27V24.68L108.309 24.02H103.009L100.849 21.86V18.16L103.009 16H109.329L111.489 18.16V20.18H108.809V18.98L108.149 18.32H104.189L103.529 18.98V21.04L104.189 21.7H109.489L111.649 23.86V27.8L109.449 30H102.969L100.809 27.84Z" fill="#141B2F"/>
<path d="M141 3L162 23.5L141 44" stroke="#111111" stroke-width="6"/>
</svg>
