<svg width="175" height="47" viewBox="0 0 175 47" fill="none" xmlns="http://www.w3.org/2000/svg">
<path d="M0 41V6H157L174.5 23.5L157 41H0Z" fill="#FF0040"/>
<path d="M12.3 16H21.08L23.22 18.16V23.06L21.06 25.24H15.02V30H12.3V16ZM19.84 22.96L20.54 22.26V18.98L19.84 18.28H15.02V22.96H19.84ZM25.2297 16H27.9497V27.7H34.9497V30H25.2297V16ZM40.3606 16H42.8406L47.9606 30H45.2006L44.0606 26.9H39.1406L38.0006 30H35.2406L40.3606 16ZM43.4606 24.66L41.6006 19.34H41.5606L39.7606 24.66H43.4606ZM50.7534 18.3H46.5734V16H57.6534V18.3H53.4734V30H50.7534V18.3ZM59.3531 16H62.0731V30H59.3531V16ZM64.7805 16H67.2205L73.4605 25.5H73.5005V16H76.1205V30H73.6805L67.4405 20.52H67.4005V30H64.7805V16ZM78.7258 27.6V16H81.4458V26.66L82.4658 27.68H86.3858L87.4058 26.66V16H90.1258V27.6L87.7258 30H81.1258L78.7258 27.6ZM92.7297 16H95.2497L99.4097 25.04H99.4497L103.63 16H106.15V30H103.53V21.48H103.49L100.27 28.04H98.5897L95.3897 21.48H95.3497V30H92.7297V16Z" fill="#141B2F"/>
<path d="M141 3L162 23.5L141 44" stroke="#111111" stroke-width="6"/>
</svg>
