<svg width="175" height="47" viewBox="0 0 175 47" fill="none" xmlns="http://www.w3.org/2000/svg">
<path d="M0 41V6H157L174.5 23.5L157 41H0Z" fill="#FF0040"/>
<path d="M12 27.84V25.84H14.68V27.02L15.34 27.68H19.48L20.16 27V24.68L19.5 24.02H14.2L12.04 21.86V18.16L14.2 16H20.52L22.68 18.16V20.18H20V18.98L19.34 18.32H15.38L14.72 18.98V21.04L15.38 21.7H20.68L22.84 23.86V27.8L20.64 30H14.16L12 27.84ZM25.1344 16H27.8544V30H25.1344V16ZM30.5617 16H33.2817V27.7H40.2817V30H30.5617V16ZM38.6805 16H41.4805L44.9605 26.76H45.0005L48.4805 16H51.2805L46.3005 30H43.6605L38.6805 16ZM52.7883 16H62.9083V18.3H55.5083V21.84H62.3283V24.1H55.5083V27.7H62.9083V30H52.7883V16ZM75.9172 25.36V30H73.1972V25.98L71.9972 24.64H67.6372V30H64.9172V16H73.6972L75.8372 18.16V22.4L74.4772 23.78L75.9172 25.36ZM67.6372 22.4H72.4572L73.1572 21.7V18.98L72.4572 18.28H67.6372V22.4Z" fill="#141B2F"/>
<path d="M141 3L162 23.5L141 44" stroke="#111111" stroke-width="6"/>
</svg>
