<svg width="82" height="150" viewBox="0 0 82 150" fill="none" xmlns="http://www.w3.org/2000/svg">
<circle cx="66.3565" cy="12.0021" r="3.60937" fill="#FFE68B"/>
<circle cx="27.9347" cy="63.4447" r="2.56186" fill="#FFE68B"/>
<circle cx="78.846" cy="100.106" r="2.10466" fill="#FFE68B"/>
<circle cx="31.6467" cy="1.44791" r="1.15018" fill="#FFE68B"/>
<circle cx="20.0038" cy="146.547" r="3.30829" fill="#FFE68B"/>
<path d="M1.69629 23.3047C7.92778 23.3047 8.11106 22.5715 8.11106 14.324C8.11106 22.5715 8.11108 23.3047 14.5259 23.3047C8.11108 23.3047 8.11106 24.0378 8.11106 32.2853C8.11106 24.0378 7.92778 23.3047 1.69629 23.3047Z" fill="#FFE68B" stroke="#FFE68B" stroke-width="0.733117" stroke-linejoin="round"/>
<path d="M56.076 46.0861C59.1918 46.0861 59.2834 45.7488 59.2834 41.955C59.2834 45.7488 59.2834 46.0861 62.4908 46.0861C59.2834 46.0861 59.2834 46.4233 59.2834 50.2172C59.2834 46.4233 59.1918 46.0861 56.076 46.0861Z" fill="#FFE68B" stroke="#FFE68B" stroke-width="0.733117" stroke-linejoin="round"/>
</svg>
