<svg width="1225" height="394" viewBox="0 0 1225 394" fill="none" xmlns="http://www.w3.org/2000/svg">
<mask id="path-1-inside-1_142_684" fill="white">
<path fill-rule="evenodd" clip-rule="evenodd" d="M319 394C370.926 394 417.987 372.402 452.283 337.398C477.628 359.408 511.19 372.807 548 372.807C576.808 372.807 603.627 364.601 626.074 350.482C635.615 375.864 660.859 394 690.5 394C719.657 394 744.56 376.451 754.446 351.719C768.478 355.419 783.25 357.394 798.5 357.394C849.419 357.394 894.999 335.375 925.54 300.682C941.79 334.183 977.081 357.394 1018 357.394C1063.78 357.394 1102.51 328.346 1115.42 288.341C1126.86 296.617 1141.09 301.521 1156.5 301.521C1194.33 301.521 1225 271.977 1225 235.533C1225 199.089 1194.33 169.545 1156.5 169.545C1132.46 169.545 1111.31 181.474 1099.09 199.521C1080.45 176.03 1051.06 160.875 1018 160.875C997.995 160.875 979.334 166.423 963.587 176.009C952.914 97.3453 883.07 36.6064 798.5 36.6064C755.407 36.6064 716.138 52.3767 686.573 78.2532C672.529 69.2491 655.653 64 637.5 64C608.349 64 582.491 77.5363 566.366 98.4214C560.353 97.6787 554.223 97.2958 548 97.2958C527.057 97.2958 507.166 101.633 489.241 109.425C458.147 44.5693 393.593 0 319 0C243.58 0 178.423 45.5628 147.737 111.589C133.762 104.305 117.864 100.186 101 100.186C45.2192 100.186 0 145.256 0 200.853C0 256.45 45.2192 301.521 101 301.521C119.067 301.521 136.026 296.793 150.699 288.51C182.485 351.227 245.925 394 319 394Z"/>
</mask>
<path fill-rule="evenodd" clip-rule="evenodd" d="M319 394C370.926 394 417.987 372.402 452.283 337.398C477.628 359.408 511.19 372.807 548 372.807C576.808 372.807 603.627 364.601 626.074 350.482C635.615 375.864 660.859 394 690.5 394C719.657 394 744.56 376.451 754.446 351.719C768.478 355.419 783.25 357.394 798.5 357.394C849.419 357.394 894.999 335.375 925.54 300.682C941.79 334.183 977.081 357.394 1018 357.394C1063.78 357.394 1102.51 328.346 1115.42 288.341C1126.86 296.617 1141.09 301.521 1156.5 301.521C1194.33 301.521 1225 271.977 1225 235.533C1225 199.089 1194.33 169.545 1156.5 169.545C1132.46 169.545 1111.31 181.474 1099.09 199.521C1080.45 176.03 1051.06 160.875 1018 160.875C997.995 160.875 979.334 166.423 963.587 176.009C952.914 97.3453 883.07 36.6064 798.5 36.6064C755.407 36.6064 716.138 52.3767 686.573 78.2532C672.529 69.2491 655.653 64 637.5 64C608.349 64 582.491 77.5363 566.366 98.4214C560.353 97.6787 554.223 97.2958 548 97.2958C527.057 97.2958 507.166 101.633 489.241 109.425C458.147 44.5693 393.593 0 319 0C243.58 0 178.423 45.5628 147.737 111.589C133.762 104.305 117.864 100.186 101 100.186C45.2192 100.186 0 145.256 0 200.853C0 256.45 45.2192 301.521 101 301.521C119.067 301.521 136.026 296.793 150.699 288.51C182.485 351.227 245.925 394 319 394Z" fill="url(#paint0_linear_142_684)"/>
<path d="M452.283 337.398L453.594 335.888L452.172 334.653L450.854 335.998L452.283 337.398ZM626.074 350.482L627.946 349.779L627.084 347.485L625.009 348.789L626.074 350.482ZM754.446 351.719L754.956 349.785L753.246 349.335L752.589 350.977L754.446 351.719ZM925.54 300.682L927.34 299.81L926.027 297.103L924.039 299.361L925.54 300.682ZM1115.42 288.341L1116.59 286.721L1114.36 285.108L1113.52 287.727L1115.42 288.341ZM1099.09 199.521L1097.52 200.764L1099.22 202.9L1100.75 200.643L1099.09 199.521ZM963.587 176.009L961.605 176.278L962.016 179.307L964.627 177.718L963.587 176.009ZM686.573 78.2532L685.493 79.9368L686.759 80.7482L687.89 79.7582L686.573 78.2532ZM566.366 98.4214L566.121 100.406L567.252 100.546L567.949 99.6437L566.366 98.4214ZM489.241 109.425L487.438 110.29L488.271 112.028L490.038 111.259L489.241 109.425ZM147.737 111.589L146.813 113.363L148.669 114.33L149.551 112.432L147.737 111.589ZM150.699 288.51L152.483 287.606L151.538 285.74L149.716 286.768L150.699 288.51ZM450.854 335.998C416.912 370.642 370.356 392 319 392V396C371.496 396 419.063 374.162 453.712 338.798L450.854 335.998ZM548 370.807C511.681 370.807 478.583 357.589 453.594 335.888L450.972 338.908C476.673 361.228 510.698 374.807 548 374.807V370.807ZM625.009 348.789C602.875 362.711 576.424 370.807 548 370.807V374.807C577.192 374.807 604.378 366.49 627.139 352.175L625.009 348.789ZM690.5 392C661.681 392 637.19 374.37 627.946 349.779L624.202 351.186C634.04 377.357 660.037 396 690.5 396V392ZM752.589 350.977C743.009 374.941 718.848 392 690.5 392V396C720.467 396 746.11 377.961 756.304 352.462L752.589 350.977ZM798.5 355.394C783.423 355.394 768.823 353.441 754.956 349.785L753.937 353.653C768.134 357.396 783.076 359.394 798.5 359.394V355.394ZM924.039 299.361C893.871 333.63 848.834 355.394 798.5 355.394V359.394C850.003 359.394 896.127 337.12 927.042 302.004L924.039 299.361ZM1018 355.394C977.846 355.394 943.254 332.619 927.34 299.81L923.741 301.555C940.326 335.746 976.317 359.394 1018 359.394V355.394ZM1113.52 287.727C1100.88 326.89 1062.92 355.394 1018 355.394V359.394C1064.63 359.394 1104.14 329.802 1117.32 288.956L1113.52 287.727ZM1156.5 299.521C1141.52 299.521 1127.7 294.755 1116.59 286.721L1114.25 289.962C1126.03 298.48 1140.66 303.521 1156.5 303.521V299.521ZM1223 235.533C1223 270.803 1193.3 299.521 1156.5 299.521V303.521C1195.36 303.521 1227 273.151 1227 235.533H1223ZM1156.5 171.545C1193.3 171.545 1223 200.263 1223 235.533H1227C1227 197.915 1195.36 167.545 1156.5 167.545V171.545ZM1100.75 200.643C1112.6 183.139 1133.13 171.545 1156.5 171.545V167.545C1131.79 167.545 1110.03 179.809 1097.43 198.4L1100.75 200.643ZM1018 162.875C1050.44 162.875 1079.26 177.744 1097.52 200.764L1100.66 198.278C1081.65 174.316 1051.68 158.875 1018 158.875V162.875ZM964.627 177.718C980.067 168.319 998.368 162.875 1018 162.875V158.875C997.621 158.875 978.602 164.528 962.547 174.301L964.627 177.718ZM798.5 38.6064C882.113 38.6064 951.072 98.6488 961.605 176.278L965.569 175.74C954.755 96.0417 884.027 34.6064 798.5 34.6064V38.6064ZM687.89 79.7582C717.098 54.1943 755.902 38.6064 798.5 38.6064V34.6064C754.913 34.6064 715.178 50.5591 685.255 76.7482L687.89 79.7582ZM637.5 66C655.263 66 671.766 71.1356 685.493 79.9368L687.652 76.5695C673.292 67.3626 656.042 62 637.5 62V66ZM567.949 99.6437C583.7 79.2431 608.977 66 637.5 66V62C607.722 62 581.282 75.8296 564.783 97.1992L567.949 99.6437ZM548 99.2958C554.141 99.2958 560.189 99.6737 566.121 100.406L566.611 96.4365C560.517 95.6838 554.305 95.2958 548 95.2958V99.2958ZM490.038 111.259C507.715 103.575 527.335 99.2958 548 99.2958V95.2958C526.779 95.2958 506.617 99.6907 488.444 107.591L490.038 111.259ZM319 2C392.766 2 456.65 46.0741 487.438 110.29L491.044 108.561C459.644 43.0645 394.421 -2 319 -2V2ZM149.551 112.432C179.934 47.0568 244.416 2 319 2V-2C242.743 -2 176.912 44.0689 145.924 110.746L149.551 112.432ZM101 102.186C117.534 102.186 133.116 106.224 146.813 113.363L148.662 109.816C134.408 102.386 118.193 98.1858 101 98.1858V102.186ZM2 200.853C2 146.367 46.3176 102.186 101 102.186V98.1858C44.1209 98.1858 -2 144.145 -2 200.853H2ZM101 299.521C46.3176 299.521 2 255.34 2 200.853H-2C-2 257.561 44.1209 303.521 101 303.521V299.521ZM149.716 286.768C135.335 294.886 118.714 299.521 101 299.521V303.521C119.42 303.521 136.717 298.699 151.682 290.252L149.716 286.768ZM319 392C246.735 392 183.955 349.702 152.483 287.606L148.915 289.414C181.016 352.751 245.115 396 319 396V392Z" fill="url(#paint1_linear_142_684)" mask="url(#path-1-inside-1_142_684)"/>
<defs>
<linearGradient id="paint0_linear_142_684" x1="613" y1="-544" x2="613" y2="727" gradientUnits="userSpaceOnUse">
<stop offset="0.143887" stop-color="#F2F2F2"/>
<stop offset="0.667909" stop-color="#737373" stop-opacity="0"/>
<stop offset="0.736231" stop-color="#737373" stop-opacity="0"/>
</linearGradient>
<linearGradient id="paint1_linear_142_684" x1="893" y1="20.5" x2="781.5" y2="394" gradientUnits="userSpaceOnUse">
<stop stop-color="white"/>
<stop offset="0.577164" stop-color="#999999" stop-opacity="0.01"/>
</linearGradient>
</defs>
</svg>
