<svg width="621" height="239" viewBox="0 0 621 239" fill="none" xmlns="http://www.w3.org/2000/svg">
<mask id="path-1-inside-1_142_699" fill="white">
<path fill-rule="evenodd" clip-rule="evenodd" d="M443.983 234C415.201 234 389.116 221.173 370.106 200.384C356.058 213.456 337.455 221.413 317.052 221.413C301.084 221.413 286.218 216.539 273.776 208.154C268.488 223.229 254.495 234 238.066 234C220.141 234 205.118 221.18 201.133 203.938C191.737 208.474 181.297 211 170.3 211C169.821 211 169.344 210.995 168.867 210.986C160.235 227.646 143.068 239 123.3 239C102.566 239 84.6932 226.509 76.5287 208.506C70.3134 210.932 63.5755 212.259 56.5372 212.259C25.3126 212.259 0 186.132 0 153.902C0 121.673 25.3126 95.5452 56.5372 95.5452C72.7889 95.5452 87.439 102.623 97.7522 113.955C105.45 79.0201 135.009 53 170.3 53C189.658 53 207.292 60.8292 220.539 73.6645C226.694 53.0199 245.365 38.0102 267.443 38.0102C283.601 38.0102 297.934 46.0495 306.871 58.4533C310.204 58.0122 313.602 57.7848 317.052 57.7848C328.66 57.7848 339.685 60.3605 349.621 64.9884C366.856 26.47 402.637 0 443.983 0C485.787 0 521.902 27.0602 538.911 66.2739C546.657 61.9477 555.47 59.5012 564.817 59.5012C595.735 59.5012 620.8 86.2689 620.8 119.288C620.8 152.308 595.735 179.076 564.817 179.076C554.803 179.076 545.403 176.268 537.269 171.349C519.651 208.597 484.487 234 443.983 234Z"/>
</mask>
<path fill-rule="evenodd" clip-rule="evenodd" d="M443.983 234C415.201 234 389.116 221.173 370.106 200.384C356.058 213.456 337.455 221.413 317.052 221.413C301.084 221.413 286.218 216.539 273.776 208.154C268.488 223.229 254.495 234 238.066 234C220.141 234 205.118 221.18 201.133 203.938C191.737 208.474 181.297 211 170.3 211C169.821 211 169.344 210.995 168.867 210.986C160.235 227.646 143.068 239 123.3 239C102.566 239 84.6932 226.509 76.5287 208.506C70.3134 210.932 63.5755 212.259 56.5372 212.259C25.3126 212.259 0 186.132 0 153.902C0 121.673 25.3126 95.5452 56.5372 95.5452C72.7889 95.5452 87.439 102.623 97.7522 113.955C105.45 79.0201 135.009 53 170.3 53C189.658 53 207.292 60.8292 220.539 73.6645C226.694 53.0199 245.365 38.0102 267.443 38.0102C283.601 38.0102 297.934 46.0495 306.871 58.4533C310.204 58.0122 313.602 57.7848 317.052 57.7848C328.66 57.7848 339.685 60.3605 349.621 64.9884C366.856 26.47 402.637 0 443.983 0C485.787 0 521.902 27.0602 538.911 66.2739C546.657 61.9477 555.47 59.5012 564.817 59.5012C595.735 59.5012 620.8 86.2689 620.8 119.288C620.8 152.308 595.735 179.076 564.817 179.076C554.803 179.076 545.403 176.268 537.269 171.349C519.651 208.597 484.487 234 443.983 234Z" fill="url(#paint0_linear_142_699)"/>
<path d="M370.106 200.384L368.744 198.92L370.221 197.545L371.582 199.034L370.106 200.384ZM273.776 208.154L271.889 207.492L272.746 205.049L274.894 206.496L273.776 208.154ZM201.133 203.938L200.263 202.137L202.517 201.049L203.081 203.488L201.133 203.938ZM168.867 210.986L167.092 210.066L167.664 208.961L168.907 208.986L168.867 210.986ZM76.5287 208.506L75.8016 206.643L77.5673 205.954L78.3502 207.68L76.5287 208.506ZM97.7522 113.955L99.7053 114.386L98.8739 118.159L96.2731 115.301L97.7522 113.955ZM220.539 73.6645L222.455 74.236L221.514 77.3941L219.147 75.1009L220.539 73.6645ZM306.871 58.4533L307.134 60.4361L305.948 60.593L305.249 59.6225L306.871 58.4533ZM349.621 64.9884L351.446 65.8053L350.617 67.6588L348.776 66.8014L349.621 64.9884ZM538.911 66.2739L539.886 68.02L537.956 69.098L537.076 67.0697L538.911 66.2739ZM537.269 171.349L535.461 170.493L536.409 168.491L538.304 169.637L537.269 171.349ZM371.582 199.034C390.253 219.453 415.819 232 443.983 232V236C414.583 236 387.978 222.893 368.63 201.733L371.582 199.034ZM317.052 219.413C336.922 219.413 355.045 211.666 368.744 198.92L371.468 201.848C357.071 215.245 337.988 223.413 317.052 223.413V219.413ZM274.894 206.496C287.019 214.667 301.498 219.413 317.052 219.413V223.413C300.669 223.413 285.417 218.411 272.658 209.813L274.894 206.496ZM238.066 232C253.587 232 266.862 221.822 271.889 207.492L275.663 208.816C270.114 224.635 255.404 236 238.066 236V232ZM203.081 203.488C206.871 219.883 221.134 232 238.066 232V236C219.149 236 203.365 222.476 199.184 204.388L203.081 203.488ZM170.3 209C180.986 209 191.13 206.546 200.263 202.137L202.002 205.739C192.344 210.401 181.607 213 170.3 213V209ZM168.907 208.986C169.37 208.995 169.835 209 170.3 209V213C169.808 213 169.317 212.995 168.827 212.985L168.907 208.986ZM123.3 237C142.278 237 158.782 226.102 167.092 210.066L170.643 211.906C161.687 229.19 143.859 241 123.3 241V237ZM78.3502 207.68C86.2095 225.01 103.395 237 123.3 237V241C101.736 241 83.177 228.008 74.7073 209.332L78.3502 207.68ZM56.5372 210.259C63.3219 210.259 69.8135 208.98 75.8016 206.643L77.2559 210.369C70.8134 212.883 63.8291 214.259 56.5372 214.259V210.259ZM2 153.902C2 185.087 26.4764 210.259 56.5372 210.259V214.259C24.1487 214.259 -2 187.176 -2 153.902H2ZM56.5372 97.5452C26.4764 97.5452 2 122.717 2 153.902H-2C-2 120.628 24.1487 93.5452 56.5372 93.5452V97.5452ZM96.2731 115.301C86.3154 104.36 72.1918 97.5452 56.5372 97.5452V93.5452C73.386 93.5452 88.5626 100.886 99.2313 112.609L96.2731 115.301ZM170.3 55C136.044 55 107.222 80.2701 99.7053 114.386L95.7991 113.525C103.677 77.7702 133.974 51 170.3 51V55ZM219.147 75.1009C206.247 62.6014 189.103 55 170.3 55V51C190.213 51 208.337 59.0571 221.93 72.2282L219.147 75.1009ZM267.443 40.0102C246.306 40.0102 228.374 54.3832 222.455 74.236L218.622 73.0931C225.013 51.6566 244.424 36.0102 267.443 36.0102V40.0102ZM305.249 59.6225C296.662 47.7059 282.916 40.0102 267.443 40.0102V36.0102C284.285 36.0102 299.205 44.3931 308.494 57.2841L305.249 59.6225ZM317.052 59.7848C313.69 59.7848 310.38 60.0064 307.134 60.4361L306.609 56.4706C310.029 56.018 313.514 55.7848 317.052 55.7848V59.7848ZM348.776 66.8014C339.099 62.2935 328.361 59.7848 317.052 59.7848V55.7848C328.959 55.7848 340.272 58.4275 350.465 63.1755L348.776 66.8014ZM443.983 2C403.541 2 368.409 27.8947 351.446 65.8053L347.795 64.1716C365.302 25.0454 401.732 -2 443.983 -2V2ZM537.076 67.0697C520.335 28.4723 484.872 2 443.983 2V-2C486.702 -2 523.47 25.648 540.746 65.478L537.076 67.0697ZM564.817 61.5012C555.824 61.5012 547.346 63.8537 539.886 68.02L537.936 64.5277C545.968 60.0418 555.115 57.5012 564.817 57.5012V61.5012ZM618.8 119.288C618.8 87.2476 594.509 61.5012 564.817 61.5012V57.5012C596.962 57.5012 622.8 85.2902 622.8 119.288H618.8ZM564.817 177.076C594.509 177.076 618.8 151.329 618.8 119.288H622.8C622.8 153.287 596.962 181.076 564.817 181.076V177.076ZM538.304 169.637C546.139 174.376 555.184 177.076 564.817 177.076V181.076C554.422 181.076 544.666 178.159 536.234 173.06L538.304 169.637ZM443.983 232C483.602 232 518.123 207.149 535.461 170.493L539.077 172.204C521.179 210.044 485.372 236 443.983 236V232Z" fill="url(#paint1_linear_142_699)" mask="url(#path-1-inside-1_142_699)"/>
<defs>
<linearGradient id="paint0_linear_142_699" x1="281.023" y1="-323.086" x2="281.023" y2="431.772" gradientUnits="userSpaceOnUse">
<stop offset="0.224783" stop-color="#D9D9D9"/>
<stop offset="0.728115" stop-color="#737373" stop-opacity="0"/>
<stop offset="0.77626" stop-color="#737373" stop-opacity="0"/>
</linearGradient>
<linearGradient id="paint1_linear_142_699" x1="310.4" y1="239" x2="310.4" y2="5.6982e-05" gradientUnits="userSpaceOnUse">
<stop stop-color="#836363" stop-opacity="0"/>
<stop offset="1" stop-color="white"/>
</linearGradient>
</defs>
</svg>
