<svg width="788" height="304" viewBox="0 0 788 304" fill="none" xmlns="http://www.w3.org/2000/svg">
<mask id="path-1-inside-1_142_48" fill="white">
<path fill-rule="evenodd" clip-rule="evenodd" d="M224.439 297.023C260.973 297.023 294.084 280.742 318.213 254.353C336.045 270.946 359.658 281.046 385.557 281.046C405.825 281.046 424.694 274.86 440.488 264.217C447.2 283.351 464.961 297.023 485.816 297.023C508.568 297.023 527.638 280.75 532.696 258.865C544.623 264.622 557.875 267.829 571.833 267.829C572.441 267.829 573.047 267.823 573.652 267.811C584.609 288.958 606.399 303.37 631.492 303.37C657.81 303.37 680.496 287.515 690.86 264.663C698.749 267.742 707.302 269.427 716.236 269.427C755.87 269.427 788 236.263 788 195.353C788 154.443 755.87 121.278 716.236 121.278C695.607 121.278 677.011 130.262 663.92 144.647C654.149 100.303 616.629 67.2745 571.833 67.2745C547.261 67.2745 524.878 77.2124 508.064 93.5046C500.251 67.2998 476.551 48.2474 448.527 48.2474C428.017 48.2474 409.824 58.452 398.479 74.1966C394.248 73.6367 389.935 73.348 385.557 73.348C370.822 73.348 356.827 76.6174 344.216 82.4917C322.339 33.5992 276.921 0 224.439 0C171.376 0 125.534 34.3483 103.944 84.1234C94.1112 78.6321 82.9256 75.5267 71.0607 75.5267C31.815 75.5267 0 109.504 0 151.416C0 193.329 31.815 227.306 71.0607 227.306C83.7721 227.306 95.704 223.742 106.028 217.498C128.392 264.778 173.026 297.023 224.439 297.023Z"/>
</mask>
<path fill-rule="evenodd" clip-rule="evenodd" d="M224.439 297.023C260.973 297.023 294.084 280.742 318.213 254.353C336.045 270.946 359.658 281.046 385.557 281.046C405.825 281.046 424.694 274.86 440.488 264.217C447.2 283.351 464.961 297.023 485.816 297.023C508.568 297.023 527.638 280.75 532.696 258.865C544.623 264.622 557.875 267.829 571.833 267.829C572.441 267.829 573.047 267.823 573.652 267.811C584.609 288.958 606.399 303.37 631.492 303.37C657.81 303.37 680.496 287.515 690.86 264.663C698.749 267.742 707.302 269.427 716.236 269.427C755.87 269.427 788 236.263 788 195.353C788 154.443 755.87 121.278 716.236 121.278C695.607 121.278 677.011 130.262 663.92 144.647C654.149 100.303 616.629 67.2745 571.833 67.2745C547.261 67.2745 524.878 77.2124 508.064 93.5046C500.251 67.2998 476.551 48.2474 448.527 48.2474C428.017 48.2474 409.824 58.452 398.479 74.1966C394.248 73.6367 389.935 73.348 385.557 73.348C370.822 73.348 356.827 76.6174 344.216 82.4917C322.339 33.5992 276.921 0 224.439 0C171.376 0 125.534 34.3483 103.944 84.1234C94.1112 78.6321 82.9256 75.5267 71.0607 75.5267C31.815 75.5267 0 109.504 0 151.416C0 193.329 31.815 227.306 71.0607 227.306C83.7721 227.306 95.704 223.742 106.028 217.498C128.392 264.778 173.026 297.023 224.439 297.023Z" fill="url(#paint0_linear_142_48)"/>
<path d="M318.213 254.353L319.576 252.889L318.099 251.515L316.737 253.004L318.213 254.353ZM440.488 264.217L442.375 263.555L441.517 261.111L439.37 262.558L440.488 264.217ZM532.696 258.865L533.566 257.064L531.311 255.975L530.748 258.414L532.696 258.865ZM573.652 267.811L575.427 266.89L574.855 265.786L573.612 265.811L573.652 267.811ZM690.86 264.663L691.587 262.8L689.821 262.111L689.038 263.837L690.86 264.663ZM663.92 144.647L661.967 145.077L662.798 148.851L665.399 145.993L663.92 144.647ZM508.064 93.5046L506.147 94.076L507.089 97.2342L509.455 94.941L508.064 93.5046ZM398.479 74.1966L398.217 76.1793L399.402 76.3362L400.102 75.3658L398.479 74.1966ZM344.216 82.4917L342.39 83.3086L343.22 85.1621L345.06 84.3047L344.216 82.4917ZM103.944 84.1234L102.969 85.8696L104.899 86.9476L105.779 84.9193L103.944 84.1234ZM106.028 217.498L107.836 216.643L106.888 214.64L104.993 215.787L106.028 217.498ZM316.737 253.004C292.947 279.021 260.355 295.023 224.439 295.023V299.023C261.591 299.023 295.221 282.462 319.689 255.703L316.737 253.004ZM385.557 279.046C360.191 279.046 337.058 269.157 319.576 252.889L316.851 255.817C335.032 272.735 359.125 283.046 385.557 283.046V279.046ZM439.37 262.558C423.893 272.988 405.411 279.046 385.557 279.046V283.046C406.24 283.046 425.495 276.732 441.605 265.875L439.37 262.558ZM485.816 295.023C465.87 295.023 448.826 281.944 442.375 263.555L438.6 264.879C445.574 284.757 464.053 299.023 485.816 299.023V295.023ZM530.748 258.414C525.885 279.454 507.576 295.023 485.816 295.023V299.023C509.56 299.023 529.391 282.046 534.645 259.315L530.748 258.414ZM571.833 265.829C558.185 265.829 545.229 262.694 533.566 257.064L531.827 260.666C544.016 266.55 557.564 269.829 571.833 269.829V265.829ZM573.612 265.811C573.02 265.823 572.427 265.829 571.833 265.829V269.829C572.454 269.829 573.074 269.822 573.692 269.81L573.612 265.811ZM631.492 301.37C607.19 301.37 586.061 287.414 575.427 266.89L571.876 268.731C583.157 290.502 605.609 305.37 631.492 305.37V301.37ZM689.038 263.837C678.98 286.016 656.981 301.37 631.492 301.37V305.37C658.64 305.37 682.013 289.014 692.681 265.489L689.038 263.837ZM716.236 267.427C707.555 267.427 699.249 265.79 691.587 262.8L690.133 266.526C698.249 269.694 707.048 271.427 716.236 271.427V267.427ZM786 195.353C786 235.218 754.706 267.427 716.236 267.427V271.427C757.034 271.427 790 237.307 790 195.353H786ZM716.236 123.278C754.706 123.278 786 155.487 786 195.353H790C790 153.398 757.034 119.278 716.236 119.278V123.278ZM665.399 145.993C678.135 131.999 696.204 123.278 716.236 123.278V119.278C695.01 119.278 675.887 128.526 662.441 143.301L665.399 145.993ZM571.833 69.2745C615.594 69.2745 652.377 101.553 661.967 145.077L665.873 144.216C655.922 99.0527 617.664 65.2745 571.833 65.2745V69.2745ZM509.455 94.941C525.923 78.9845 547.817 69.2745 571.833 69.2745V65.2745C546.706 65.2745 523.833 75.4403 506.672 92.0683L509.455 94.941ZM448.527 50.2474C475.61 50.2474 498.57 68.6631 506.147 94.076L509.98 92.9332C501.931 65.9365 477.492 46.2474 448.527 46.2474V50.2474ZM400.102 75.3658C411.095 60.1084 428.702 50.2474 448.527 50.2474V46.2474C427.333 46.2474 408.552 56.7956 396.856 73.0274L400.102 75.3658ZM385.557 75.348C389.847 75.348 394.072 75.6308 398.217 76.1793L398.741 72.2139C394.424 71.6425 390.023 71.348 385.557 71.348V75.348ZM345.06 84.3047C357.414 78.5504 371.121 75.348 385.557 75.348V71.348C370.523 71.348 356.241 74.6844 343.371 80.6788L345.06 84.3047ZM224.439 2C276.017 2 320.786 35.0238 342.39 83.3086L346.042 81.6749C323.893 32.1745 277.826 -2 224.439 -2V2ZM105.779 84.9193C127.101 35.7604 172.291 2 224.439 2V-2C170.461 -2 123.966 32.9361 102.109 83.3276L105.779 84.9193ZM71.0607 77.5267C82.5708 77.5267 93.4222 80.5381 102.969 85.8696L104.919 82.3773C94.8002 76.7262 83.2803 73.5267 71.0607 73.5267V77.5267ZM2 151.416C2 110.482 33.0414 77.5267 71.0607 77.5267V73.5267C30.5886 73.5267 -2 108.525 -2 151.416H2ZM71.0607 225.306C33.0414 225.306 2 192.351 2 151.416H-2C-2 194.308 30.5886 229.306 71.0607 229.306V225.306ZM104.993 215.787C94.9673 221.85 83.3914 225.306 71.0607 225.306V229.306C84.1529 229.306 96.4407 225.634 107.063 219.209L104.993 215.787ZM224.439 295.023C173.911 295.023 129.919 263.331 107.836 216.643L104.22 218.353C126.864 266.225 172.141 299.023 224.439 299.023V295.023Z" fill="url(#paint1_linear_142_48)" mask="url(#path-1-inside-1_142_48)"/>
<defs>
<linearGradient id="paint0_linear_142_48" x1="431.289" y1="-410.103" x2="431.289" y2="548.061" gradientUnits="userSpaceOnUse">
<stop offset="0.224783" stop-color="#D9D9D9"/>
<stop offset="0.728115" stop-color="#737373" stop-opacity="0"/>
<stop offset="0.77626" stop-color="#737373" stop-opacity="0"/>
</linearGradient>
<linearGradient id="paint1_linear_142_48" x1="394" y1="303.37" x2="394" y2="7.2329e-05" gradientUnits="userSpaceOnUse">
<stop stop-color="#836363" stop-opacity="0"/>
<stop offset="1" stop-color="white"/>
</linearGradient>
</defs>
</svg>
