<svg width="613" height="281" viewBox="0 0 613 281" fill="none" xmlns="http://www.w3.org/2000/svg">
<mask id="path-1-inside-1_142_39" fill="white">
<path fill-rule="evenodd" clip-rule="evenodd" d="M451.98 233.287C423.449 237.085 395.9 227.813 374.313 209.714C362.112 224.526 344.723 234.868 324.498 237.561C308.669 239.668 293.291 236.799 279.851 230.129C276.598 245.769 264.149 258.293 247.863 260.461C230.096 262.826 213.512 252.101 207.286 235.536C198.571 241.271 188.556 245.154 177.655 246.605C177.181 246.668 176.707 246.726 176.233 246.78C169.875 264.433 154.356 277.954 134.761 280.562C114.208 283.298 94.8438 273.275 84.3749 256.507C78.534 259.732 72.0302 261.937 65.0535 262.866C34.1019 266.986 5.56286 244.428 1.30968 212.48C-2.9435 180.532 18.6998 151.293 49.6513 147.172C65.7609 145.028 81.217 150.11 92.9354 159.982C95.9554 124.337 121.823 94.6437 156.805 89.9866C175.994 87.432 194.506 92.8657 209.331 103.841C212.708 82.5644 229.235 65.2219 251.12 62.3084C267.136 60.1762 282.405 66.2537 292.901 77.3696C296.147 76.4925 299.485 75.8187 302.904 75.3635C314.411 73.8316 325.68 74.9298 336.139 78.2062C348.14 37.7502 380.115 6.78985 421.1 1.33363C462.539 -4.18307 501.909 17.8745 523.944 54.5007C531.052 49.1901 539.464 45.6021 548.729 44.3686C579.377 40.2885 607.755 63.5144 612.112 96.2452C616.47 128.976 595.157 158.817 564.509 162.897C554.582 164.219 544.894 162.676 536.183 158.873C523.634 198.12 492.13 227.942 451.98 233.287Z"/>
</mask>
<path fill-rule="evenodd" clip-rule="evenodd" d="M451.98 233.287C423.449 237.085 395.9 227.813 374.313 209.714C362.112 224.526 344.723 234.868 324.498 237.561C308.669 239.668 293.291 236.799 279.851 230.129C276.598 245.769 264.149 258.293 247.863 260.461C230.096 262.826 213.512 252.101 207.286 235.536C198.571 241.271 188.556 245.154 177.655 246.605C177.181 246.668 176.707 246.726 176.233 246.78C169.875 264.433 154.356 277.954 134.761 280.562C114.208 283.298 94.8438 273.275 84.3749 256.507C78.534 259.732 72.0302 261.937 65.0535 262.866C34.1019 266.986 5.56286 244.428 1.30968 212.48C-2.9435 180.532 18.6998 151.293 49.6513 147.172C65.7609 145.028 81.217 150.11 92.9354 159.982C95.9554 124.337 121.823 94.6437 156.805 89.9866C175.994 87.432 194.506 92.8657 209.331 103.841C212.708 82.5644 229.235 65.2219 251.12 62.3084C267.136 60.1762 282.405 66.2537 292.901 77.3696C296.147 76.4925 299.485 75.8187 302.904 75.3635C314.411 73.8316 325.68 74.9298 336.139 78.2062C348.14 37.7502 380.115 6.78985 421.1 1.33363C462.539 -4.18307 501.909 17.8745 523.944 54.5007C531.052 49.1901 539.464 45.6021 548.729 44.3686C579.377 40.2885 607.755 63.5144 612.112 96.2452C616.47 128.976 595.157 158.817 564.509 162.897C554.582 164.219 544.894 162.676 536.183 158.873C523.634 198.12 492.13 227.942 451.98 233.287Z" fill="url(#paint0_linear_142_39)"/>
<path d="M374.313 209.714L372.769 208.442L374.052 206.885L375.598 208.181L374.313 209.714ZM279.851 230.129L277.893 229.722L278.42 227.186L280.74 228.337L279.851 230.129ZM207.286 235.536L206.187 233.865L208.278 232.489L209.158 234.832L207.286 235.536ZM176.233 246.78L174.351 246.102L174.773 244.932L176.009 244.792L176.233 246.78ZM84.3749 256.507L83.4083 254.756L85.0676 253.84L86.0714 255.448L84.3749 256.507ZM92.9354 159.982L94.9282 160.151L94.602 164.002L91.6468 161.512L92.9354 159.982ZM209.331 103.841L211.306 104.154L210.79 107.409L208.141 105.448L209.331 103.841ZM292.901 77.3696L293.423 79.3004L292.268 79.6124L291.447 78.7427L292.901 77.3696ZM336.139 78.2062L338.057 78.775L337.479 80.7217L335.541 80.1147L336.139 78.2062ZM523.944 54.5007L525.141 56.1029L523.37 57.4262L522.23 55.5317L523.944 54.5007ZM536.183 158.873L534.278 158.264L534.952 156.154L536.983 157.04L536.183 158.873ZM375.598 208.181C396.8 225.958 423.798 235.021 451.716 231.305L452.244 235.27C423.101 239.149 394.999 229.668 373.028 211.247L375.598 208.181ZM324.234 235.578C343.93 232.956 360.872 222.886 372.769 208.442L375.857 210.986C363.353 226.166 345.515 236.78 324.762 239.543L324.234 235.578ZM280.74 228.337C293.838 234.837 308.816 237.631 324.234 235.578L324.762 239.543C308.522 241.705 292.744 238.76 278.962 231.92L280.74 228.337ZM247.599 258.478C262.985 256.43 274.8 244.59 277.893 229.722L281.809 230.536C278.395 246.949 265.314 260.155 248.127 262.443L247.599 258.478ZM209.158 234.832C215.079 250.584 230.815 260.713 247.599 258.478L248.127 262.443C229.376 264.94 211.945 253.617 205.414 236.239L209.158 234.832ZM177.391 244.622C187.984 243.212 197.715 239.44 206.187 233.865L208.386 237.206C199.427 243.102 189.127 247.095 177.919 248.587L177.391 244.622ZM176.009 244.792C176.469 244.74 176.93 244.684 177.391 244.622L177.919 248.587C177.431 248.652 176.944 248.712 176.457 248.767L176.009 244.792ZM134.497 278.58C153.309 276.075 168.231 263.094 174.351 246.102L178.115 247.457C171.518 265.772 155.404 279.832 135.025 282.545L134.497 278.58ZM86.0714 255.448C96.1489 271.589 114.767 281.206 134.497 278.58L135.025 282.545C113.65 285.39 93.5386 274.961 82.6784 257.566L86.0714 255.448ZM64.7895 260.883C71.5149 259.988 77.7809 257.863 83.4083 254.756L85.3415 258.258C79.2872 261.6 72.5455 263.886 65.3174 264.848L64.7895 260.883ZM3.29219 212.216C7.40755 243.129 34.9916 264.85 64.7895 260.883L65.3174 264.848C33.2122 269.122 3.71817 245.727 -0.67283 212.744L3.29219 212.216ZM49.9153 149.155C20.1174 153.122 -0.823171 181.303 3.29219 212.216L-0.67283 212.744C-5.06383 179.761 17.2822 149.464 49.3874 145.19L49.9153 149.155ZM91.6468 161.512C80.3324 151.98 65.433 147.089 49.9153 149.155L49.3874 145.19C66.0889 142.966 82.1015 148.24 94.2239 158.453L91.6468 161.512ZM157.069 91.9691C123.112 96.4897 97.8775 125.342 94.9282 160.151L90.9425 159.814C94.0334 123.332 120.533 92.7978 156.541 88.0041L157.069 91.9691ZM208.141 105.448C193.704 94.7603 175.707 89.4878 157.069 91.9691L156.541 88.0041C176.28 85.3762 195.308 90.9712 210.521 102.233L208.141 105.448ZM251.384 64.2909C230.432 67.0802 214.554 83.694 211.306 104.154L207.356 103.527C210.862 81.4348 228.038 63.3636 250.856 60.3259L251.384 64.2909ZM291.447 78.7427C281.363 68.0634 266.722 62.249 251.384 64.2909L250.856 60.3259C267.551 58.1034 283.447 64.444 294.356 75.9965L291.447 78.7427ZM303.168 77.346C299.836 77.7896 296.584 78.4461 293.423 79.3004L292.38 75.4389C295.71 74.539 299.134 73.8478 302.64 73.381L303.168 77.346ZM335.541 80.1147C325.353 76.9234 314.379 75.8536 303.168 77.346L302.64 73.381C314.444 71.8096 326.007 72.9363 336.737 76.2976L335.541 80.1147ZM421.364 3.31614C381.276 8.65301 349.868 38.9574 338.057 78.775L334.222 77.6374C346.412 36.5431 378.955 4.92668 420.836 -0.648876L421.364 3.31614ZM522.23 55.5317C500.542 19.4811 461.896 -2.07982 421.364 3.31614L420.836 -0.648876C463.182 -6.28631 503.277 16.2678 525.658 53.4697L522.23 55.5317ZM548.993 46.3511C540.079 47.5378 531.986 50.9885 525.141 56.1029L522.747 52.8985C530.117 47.3918 538.848 43.6664 548.465 42.3861L548.993 46.3511ZM610.13 96.5092C605.902 64.7485 578.426 42.4328 548.993 46.3511L548.465 42.3861C580.329 38.1441 609.608 62.2804 614.095 95.9813L610.13 96.5092ZM564.245 160.915C593.678 156.997 614.358 128.27 610.13 96.5092L614.095 95.9813C618.582 129.682 596.637 160.638 564.773 164.88L564.245 160.915ZM536.983 157.04C545.374 160.703 554.696 162.186 564.245 160.915L564.773 164.88C554.469 166.252 544.413 164.648 535.382 160.706L536.983 157.04ZM451.716 231.305C490.989 226.076 521.928 196.887 534.278 158.264L538.088 159.482C525.339 199.353 493.271 229.808 452.244 235.27L451.716 231.305Z" fill="url(#paint1_linear_142_39)" mask="url(#path-1-inside-1_142_39)"/>
<defs>
<linearGradient id="paint0_linear_142_39" x1="216.929" y1="-297.422" x2="316.544" y2="450.834" gradientUnits="userSpaceOnUse">
<stop offset="0.224783" stop-color="#D9D9D9"/>
<stop offset="0.728115" stop-color="#737373" stop-opacity="0"/>
<stop offset="0.77626" stop-color="#737373" stop-opacity="0"/>
</linearGradient>
<linearGradient id="paint1_linear_142_39" x1="320.225" y1="255.872" x2="288.685" y2="18.9619" gradientUnits="userSpaceOnUse">
<stop stop-color="#836363" stop-opacity="0"/>
<stop offset="1" stop-color="white"/>
</linearGradient>
</defs>
</svg>
