<svg width="927" height="338" viewBox="0 0 927 338" fill="none" xmlns="http://www.w3.org/2000/svg">
<mask id="path-1-inside-1_142_693" fill="white">
<path fill-rule="evenodd" clip-rule="evenodd" d="M673.424 204.233C649.814 231.003 614.611 247.988 575.289 247.988C552.542 247.988 531.173 242.304 512.629 232.329C496.804 292.875 439.843 337.701 372 337.701C291.919 337.701 227 275.245 227 198.201C227 121.157 291.919 58.701 372 58.701C402.338 58.701 430.499 67.6646 453.78 82.9891C471.353 34.6597 519.12 0 575.289 0C641.641 0 696.267 48.3642 703.25 110.494C714.699 104.895 727.919 101.701 742 101.701C769.951 101.701 794.512 114.288 808.555 133.281C819.837 114.926 840.002 102.701 863 102.701C898.346 102.701 927 131.579 927 167.201C927 202.823 898.346 231.701 863 231.701C841.322 231.701 822.161 220.839 810.584 204.221C796.963 224.822 771.351 238.701 742 238.701C712.655 238.701 687.047 224.828 673.424 204.233ZM176 149.201C176 197.526 136.601 236.701 88 236.701C39.3989 236.701 0 197.526 0 149.201C0 100.876 39.3989 61.701 88 61.701C136.601 61.701 176 100.876 176 149.201Z"/>
</mask>
<path fill-rule="evenodd" clip-rule="evenodd" d="M673.424 204.233C649.814 231.003 614.611 247.988 575.289 247.988C552.542 247.988 531.173 242.304 512.629 232.329C496.804 292.875 439.843 337.701 372 337.701C291.919 337.701 227 275.245 227 198.201C227 121.157 291.919 58.701 372 58.701C402.338 58.701 430.499 67.6646 453.78 82.9891C471.353 34.6597 519.12 0 575.289 0C641.641 0 696.267 48.3642 703.25 110.494C714.699 104.895 727.919 101.701 742 101.701C769.951 101.701 794.512 114.288 808.555 133.281C819.837 114.926 840.002 102.701 863 102.701C898.346 102.701 927 131.579 927 167.201C927 202.823 898.346 231.701 863 231.701C841.322 231.701 822.161 220.839 810.584 204.221C796.963 224.822 771.351 238.701 742 238.701C712.655 238.701 687.047 224.828 673.424 204.233ZM176 149.201C176 197.526 136.601 236.701 88 236.701C39.3989 236.701 0 197.526 0 149.201C0 100.876 39.3989 61.701 88 61.701C136.601 61.701 176 100.876 176 149.201Z" fill="url(#paint0_linear_142_693)"/>
<path d="M673.424 204.233L675.092 203.129L673.651 200.951L671.924 202.91L673.424 204.233ZM512.629 232.329L513.577 230.568L511.337 229.363L510.694 231.824L512.629 232.329ZM453.78 82.9891L452.68 84.6596L454.794 86.0513L455.659 83.6725L453.78 82.9891ZM703.25 110.494L701.262 110.717L701.579 113.537L704.129 112.29L703.25 110.494ZM808.555 133.281L806.946 134.47L808.707 136.851L810.258 134.328L808.555 133.281ZM810.584 204.221L812.225 203.077L810.541 200.66L808.916 203.118L810.584 204.221ZM575.289 249.988C615.195 249.988 650.941 232.749 674.924 205.556L671.924 202.91C648.687 229.257 614.027 245.988 575.289 245.988V249.988ZM511.682 234.091C530.512 244.219 552.206 249.988 575.289 249.988V245.988C552.878 245.988 531.834 240.388 513.577 230.568L511.682 234.091ZM510.694 231.824C495.106 291.465 438.959 335.701 372 335.701V339.701C440.727 339.701 498.503 294.286 514.564 232.835L510.694 231.824ZM372 335.701C292.95 335.701 229 274.068 229 198.201H225C225 276.422 290.888 339.701 372 339.701V335.701ZM229 198.201C229 122.334 292.95 60.701 372 60.701V56.701C290.888 56.701 225 119.981 225 198.201H229ZM372 60.701C401.94 60.701 429.72 69.546 452.68 84.6596L454.879 81.3185C431.279 65.7831 402.736 56.701 372 56.701V60.701ZM575.289 -2C518.291 -2 469.765 33.1747 451.9 82.3056L455.659 83.6725C472.942 36.1447 519.949 2 575.289 2V-2ZM705.237 110.27C698.135 47.0817 642.611 -2 575.289 -2V2C640.671 2 694.398 49.6466 701.262 110.717L705.237 110.27ZM742 99.701C727.617 99.701 714.095 102.964 702.371 108.697L704.129 112.29C715.302 106.827 728.222 103.701 742 103.701V99.701ZM810.163 132.092C795.715 112.551 770.538 99.701 742 99.701V103.701C769.364 103.701 793.308 116.024 806.946 134.47L810.163 132.092ZM863 100.701C839.273 100.701 818.479 113.316 806.851 132.233L810.258 134.328C821.195 116.537 840.73 104.701 863 104.701V100.701ZM929 167.201C929 130.489 899.465 100.701 863 100.701V104.701C897.227 104.701 925 132.669 925 167.201H929ZM863 233.701C899.465 233.701 929 203.913 929 167.201H925C925 201.734 897.227 229.701 863 229.701V233.701ZM808.943 205.364C820.876 222.493 840.636 233.701 863 233.701V229.701C842.008 229.701 823.447 219.185 812.225 203.077L808.943 205.364ZM742 240.701C771.964 240.701 798.23 226.533 812.253 205.324L808.916 203.118C795.696 223.112 770.738 236.701 742 236.701V240.701ZM671.756 205.336C685.78 226.538 712.042 240.701 742 240.701V236.701C713.268 236.701 688.314 223.117 675.092 203.129L671.756 205.336ZM88 238.701C137.695 238.701 178 198.641 178 149.201H174C174 196.411 135.507 234.701 88 234.701V238.701ZM-2 149.201C-2 198.641 38.3051 238.701 88 238.701V234.701C40.4928 234.701 2 196.411 2 149.201H-2ZM88 59.701C38.3051 59.701 -2 99.7608 -2 149.201H2C2 101.991 40.4928 63.701 88 63.701V59.701ZM178 149.201C178 99.7608 137.695 59.701 88 59.701V63.701C135.507 63.701 174 101.991 174 149.201H178Z" fill="url(#paint1_linear_142_693)" mask="url(#path-1-inside-1_142_693)"/>
<defs>
<linearGradient id="paint0_linear_142_693" x1="410.569" y1="-386.785" x2="215.317" y2="487.514" gradientUnits="userSpaceOnUse">
<stop offset="0.143887" stop-color="#F2F2F2"/>
<stop offset="0.718133" stop-color="#737373" stop-opacity="0"/>
</linearGradient>
<linearGradient id="paint1_linear_142_693" x1="648.344" y1="14.3753" x2="647.813" y2="337.729" gradientUnits="userSpaceOnUse">
<stop stop-color="white"/>
<stop offset="0.499677" stop-color="#999999" stop-opacity="0"/>
</linearGradient>
</defs>
</svg>
