<svg width="817" height="382" viewBox="0 0 817 382" fill="none" xmlns="http://www.w3.org/2000/svg">
<g filter="url(#filter0_d_142_61)">
<path d="M436.313 145.065L478.859 183.163L533.929 269.767H335.914L384.424 183.163L408.082 162.543L436.313 145.065Z" fill="url(#paint0_linear_142_61)"/>
</g>
<g filter="url(#filter1_d_142_61)">
<path d="M594.765 85.9546L613.254 116.394L644.666 130.926L666.933 173.148L695.363 212.424L735 296C614.879 277.772 544.278 264.136 424.162 281.452L494.366 181.985L505.698 160.776L529.158 146.833L555.003 116.394L571.902 96.3628L594.765 85.9546Z" fill="url(#paint1_linear_142_61)"/>
</g>
<path d="M446.858 245.364L418.222 281.353L510.072 281.353L492.477 231.665L467.162 218.119C467.101 218.291 456.482 237.518 446.858 245.364Z" fill="url(#paint2_linear_142_61)"/>
<path d="M582.514 122.359L628.918 176.055L645.064 200.444L732.5 296L751.5 301L696.445 213.523L655.799 138.192L624.643 115.227L612.202 112.514L594.372 85.4343L582.514 122.359Z" fill="url(#paint3_linear_142_61)"/>
<g filter="url(#filter2_d_142_61)">
<path d="M290.194 169.809L307.286 201.23L339.692 211.245L407.101 269.963H173.288L233.13 191.607L261.56 173.54L290.194 169.809Z" fill="url(#paint4_linear_142_61)"/>
</g>
<g filter="url(#filter3_d_142_61)">
<path d="M167.348 145.065L211.46 204.372L245.257 208.3L346.277 301.482C219.247 291.576 142.03 302.955 15 316L100.548 204.372L125.2 185.127L138.521 166.863L167.348 145.065Z" fill="url(#paint5_linear_142_61)"/>
</g>
<path d="M430.465 164.085L440.859 155.743L476.075 207.711L490.986 186.894L477.865 171.969L436.313 144.869L430.465 164.085Z" fill="url(#paint6_linear_142_61)"/>
<path d="M209.348 260.189L214.418 276.053L252.648 301.474L307.485 301.474L268.319 270.749L237.703 241.685L216.828 237.168L209.348 260.189Z" fill="url(#paint7_linear_142_61)"/>
<path d="M191.181 301.708L253.039 301.728L214.952 276.202L191.181 301.708Z" fill="url(#paint8_linear_142_61)"/>
<path d="M314.918 198.252L288.598 221.654L308 216.252L350.329 242.401L351.604 251.556L366.135 270.553L418.62 270.552L398.432 262.105L389.869 237.419L316.88 196.001L314.918 198.252Z" fill="url(#paint9_linear_142_61)"/>
<path d="M167.622 145.204L179.397 174.536L134.711 217.514L179.97 189.285L202.766 212.511L267.524 279.979L301.918 301.581L346.65 301.581L247.749 201.915L214.164 198.28L167.83 144.419L167.622 145.204Z" fill="url(#paint10_linear_142_61)"/>
<path d="M619.64 208.658L630.356 223.459H648.573L731.944 281.55L718.226 255.038L635.422 185.269L619.64 208.658Z" fill="url(#paint11_linear_142_61)"/>
<defs>
<filter id="filter0_d_142_61" x="314.582" y="130.843" width="226.458" height="153.145" filterUnits="userSpaceOnUse" color-interpolation-filters="sRGB">
<feFlood flood-opacity="0" result="BackgroundImageFix"/>
<feColorMatrix in="SourceAlpha" type="matrix" values="0 0 0 0 0 0 0 0 0 0 0 0 0 0 0 0 0 0 127 0" result="hardAlpha"/>
<feOffset dx="-7.1109"/>
<feGaussianBlur stdDeviation="7.1109"/>
<feComposite in2="hardAlpha" operator="out"/>
<feColorMatrix type="matrix" values="0 0 0 0 0 0 0 0 0 0 0 0 0 0 0 0 0 0 0.25 0"/>
<feBlend mode="normal" in2="BackgroundImageFix" result="effect1_dropShadow_142_61"/>
<feBlend mode="normal" in="SourceGraphic" in2="effect1_dropShadow_142_61" result="shape"/>
</filter>
<filter id="filter1_d_142_61" x="335.276" y="0.623848" width="481.499" height="380.707" filterUnits="userSpaceOnUse" color-interpolation-filters="sRGB">
<feFlood flood-opacity="0" result="BackgroundImageFix"/>
<feColorMatrix in="SourceAlpha" type="matrix" values="0 0 0 0 0 0 0 0 0 0 0 0 0 0 0 0 0 0 127 0" result="hardAlpha"/>
<feOffset dx="-3.55545"/>
<feGaussianBlur stdDeviation="42.6654"/>
<feComposite in2="hardAlpha" operator="out"/>
<feColorMatrix type="matrix" values="0 0 0 0 0 0 0 0 0 0 0 0 0 0 0 0 0 0 0.25 0"/>
<feBlend mode="normal" in2="BackgroundImageFix" result="effect1_dropShadow_142_61"/>
<feBlend mode="normal" in="SourceGraphic" in2="effect1_dropShadow_142_61" result="shape"/>
</filter>
<filter id="filter2_d_142_61" x="166.177" y="155.587" width="262.256" height="128.598" filterUnits="userSpaceOnUse" color-interpolation-filters="sRGB">
<feFlood flood-opacity="0" result="BackgroundImageFix"/>
<feColorMatrix in="SourceAlpha" type="matrix" values="0 0 0 0 0 0 0 0 0 0 0 0 0 0 0 0 0 0 127 0" result="hardAlpha"/>
<feOffset dx="7.1109"/>
<feGaussianBlur stdDeviation="7.1109"/>
<feComposite in2="hardAlpha" operator="out"/>
<feColorMatrix type="matrix" values="0 0 0 0 0 0 0 0 0 0 0 0 0 0 0 0 0 0 0.25 0"/>
<feBlend mode="normal" in2="BackgroundImageFix" result="effect1_dropShadow_142_61"/>
<feBlend mode="normal" in="SourceGraphic" in2="effect1_dropShadow_142_61" result="shape"/>
</filter>
<filter id="filter3_d_142_61" x="0.77821" y="123.733" width="373.942" height="213.6" filterUnits="userSpaceOnUse" color-interpolation-filters="sRGB">
<feFlood flood-opacity="0" result="BackgroundImageFix"/>
<feColorMatrix in="SourceAlpha" type="matrix" values="0 0 0 0 0 0 0 0 0 0 0 0 0 0 0 0 0 0 127 0" result="hardAlpha"/>
<feOffset dx="7.1109"/>
<feGaussianBlur stdDeviation="10.6663"/>
<feComposite in2="hardAlpha" operator="out"/>
<feColorMatrix type="matrix" values="0 0 0 0 0 0 0 0 0 0 0 0 0 0 0 0 0 0 0.25 0"/>
<feBlend mode="normal" in2="BackgroundImageFix" result="effect1_dropShadow_142_61"/>
<feBlend mode="normal" in="SourceGraphic" in2="effect1_dropShadow_142_61" result="shape"/>
</filter>
<linearGradient id="paint0_linear_142_61" x1="444.979" y1="171.557" x2="525.766" y2="233.297" gradientUnits="userSpaceOnUse">
<stop stop-color="#3F4257"/>
<stop offset="1" stop-color="#D29956"/>
</linearGradient>
<linearGradient id="paint1_linear_142_61" x1="556.5" y1="116.5" x2="724.474" y2="219.025" gradientUnits="userSpaceOnUse">
<stop offset="0.0126796" stop-color="#3F4257"/>
<stop offset="0.890988" stop-color="#D29956"/>
</linearGradient>
<linearGradient id="paint2_linear_142_61" x1="468.812" y1="231.552" x2="508.685" y2="259.427" gradientUnits="userSpaceOnUse">
<stop stop-color="#3F4257"/>
<stop offset="1" stop-color="#D29956"/>
</linearGradient>
<linearGradient id="paint3_linear_142_61" x1="655.489" y1="208.15" x2="717.432" y2="195.566" gradientUnits="userSpaceOnUse">
<stop stop-color="#3F4257"/>
<stop offset="1" stop-color="#D29956"/>
</linearGradient>
<linearGradient id="paint4_linear_142_61" x1="302.07" y1="191.086" x2="368.86" y2="266.129" gradientUnits="userSpaceOnUse">
<stop stop-color="#3F4257"/>
<stop offset="1" stop-color="#D29956"/>
</linearGradient>
<linearGradient id="paint5_linear_142_61" x1="200.16" y1="178.295" x2="305.179" y2="283.403" gradientUnits="userSpaceOnUse">
<stop stop-color="#3F4257"/>
<stop offset="1" stop-color="#D29956"/>
</linearGradient>
<linearGradient id="paint6_linear_142_61" x1="455.311" y1="183.002" x2="484.527" y2="177.625" gradientUnits="userSpaceOnUse">
<stop stop-color="#3F4257"/>
<stop offset="1" stop-color="#D29956"/>
</linearGradient>
<linearGradient id="paint7_linear_142_61" x1="253.612" y1="291.784" x2="295.648" y2="278.062" gradientUnits="userSpaceOnUse">
<stop stop-color="#3F4257"/>
<stop offset="1" stop-color="#D29956"/>
</linearGradient>
<linearGradient id="paint8_linear_142_61" x1="216.601" y1="311.929" x2="242.732" y2="316.666" gradientUnits="userSpaceOnUse">
<stop stop-color="#3F4257"/>
<stop offset="1" stop-color="#D29956"/>
</linearGradient>
<linearGradient id="paint9_linear_142_61" x1="385.978" y1="265.926" x2="402.655" y2="236.212" gradientUnits="userSpaceOnUse">
<stop stop-color="#3F4257"/>
<stop offset="1" stop-color="#D29956"/>
</linearGradient>
<linearGradient id="paint10_linear_142_61" x1="227.849" y1="274.376" x2="318.616" y2="255.273" gradientUnits="userSpaceOnUse">
<stop stop-color="#3F4257"/>
<stop offset="1" stop-color="#D29956"/>
</linearGradient>
<linearGradient id="paint11_linear_142_61" x1="681.496" y1="261.096" x2="736.683" y2="230.115" gradientUnits="userSpaceOnUse">
<stop stop-color="#3F4257"/>
<stop offset="1" stop-color="#D29956"/>
</linearGradient>
</defs>
</svg>
