<svg width="1440" height="992" viewBox="0 0 1440 992" fill="none" xmlns="http://www.w3.org/2000/svg">
<path d="M99.2629 172.308C99.622 177.694 99.622 184.517 101.058 186.312C102.495 188.108 105.367 188.108 110.036 188.467C105.367 188.826 102.495 188.826 101.058 190.621C99.622 192.417 99.622 199.958 99.2629 205.344C98.9038 199.958 98.9038 192.417 97.4674 190.621C96.031 188.826 93.1583 188.826 88.4901 188.467C93.1583 188.108 96.031 188.108 97.4674 186.312C98.9038 184.517 98.9038 177.694 99.2629 172.308Z" fill="white"/>
<path d="M603.858 144.227C604.244 150.008 604.244 157.331 605.785 159.258C607.327 161.185 610.411 161.185 615.421 161.571C610.411 161.956 607.327 161.956 605.785 163.883C604.244 165.81 604.244 173.904 603.858 179.686C603.473 173.904 603.473 165.81 601.931 163.883C600.39 161.956 597.306 161.956 592.296 161.571C597.306 161.185 600.39 161.185 601.931 159.258C603.473 157.331 603.473 150.008 603.858 144.227Z" fill="white"/>
<path d="M34.6346 394.747C35.0476 400.941 35.0476 408.787 36.6994 410.852C38.3512 412.917 41.6549 412.917 47.0233 413.33C41.6549 413.743 38.3512 413.743 36.6994 415.807C35.0476 417.872 35.0476 426.544 34.6346 432.738C34.2217 426.544 34.2217 417.872 32.5699 415.807C30.918 413.743 27.6144 413.743 22.246 413.33C27.6144 412.917 30.918 412.917 32.5699 410.852C34.2217 408.787 34.2217 400.941 34.6346 394.747Z" fill="white"/>
<path d="M566.693 -16C567.436 -4.91378 567.436 9.12877 570.41 12.8242C573.383 16.5196 579.329 16.5196 588.993 17.2587C579.329 17.9978 573.383 17.9978 570.41 21.6932C567.436 25.3886 567.436 40.9093 566.693 51.9955C565.95 40.9093 565.95 25.3886 562.976 21.6932C560.003 17.9978 554.057 17.9978 544.393 17.2587C554.057 16.5196 560.003 16.5196 562.976 12.8242C565.95 9.12877 565.95 -4.91378 566.693 -16Z" fill="white"/>
<path d="M318.093 121.101C318.341 124.818 318.341 129.525 319.332 130.764C320.323 132.003 322.305 132.003 325.527 132.251C322.305 132.499 320.323 132.499 319.332 133.738C318.341 134.976 318.341 140.18 318.093 143.896C317.846 140.18 317.846 134.976 316.854 133.738C315.863 132.499 313.881 132.499 310.66 132.251C313.881 132.003 315.863 132.003 316.854 130.764C317.846 129.525 317.846 124.818 318.093 121.101Z" fill="white"/>
<circle cx="216.093" cy="186.761" r="2.06478" fill="white"/>
<circle cx="70.7331" cy="214.842" r="2.06478" fill="white"/>
<circle cx="126.895" cy="394.891" r="2.06478" fill="white"/>
<circle cx="142.587" cy="310.648" r="1.23887" fill="white"/>
<circle cx="190.49" cy="30.6642" r="1.23887" fill="white"/>
<circle cx="482.863" cy="87.652" r="1.23887" fill="white"/>
<circle cx="535.721" cy="190.065" r="1.23887" fill="white"/>
<circle cx="636.483" cy="223.101" r="1.23887" fill="white"/>
<circle cx="636.483" cy="223.101" r="1.23887" fill="white"/>
<circle cx="697.599" cy="122.34" r="1.23887" fill="white"/>
<circle cx="21.1782" cy="74.4371" r="1.23887" fill="white"/>
<circle cx="175.624" cy="225.579" r="1.23887" fill="white"/>
<circle cx="166.539" cy="266.048" r="1.23887" fill="white"/>
<circle cx="259.041" cy="315.603" r="1.23887" fill="white"/>
<circle cx="350.717" cy="352.769" r="1.23887" fill="white"/>
<circle cx="472.126" cy="253.66" r="1.23887" fill="white"/>
<circle cx="358.15" cy="160.332" r="1.23887" fill="white"/>
<circle cx="572.061" cy="240.445" r="1.23887" fill="white"/>
<circle cx="596.838" cy="217.32" r="1.23887" fill="white"/>
<path d="M738.204 2.99609C738.395 5.86366 738.395 9.4959 739.16 10.4518C739.925 11.4076 741.454 11.4076 743.939 11.5988C741.454 11.79 739.925 11.79 739.16 12.7458C738.395 13.7017 738.395 17.7163 738.204 20.5838C738.013 17.7163 738.013 13.7017 737.248 12.7458C736.484 11.79 734.954 11.79 732.469 11.5988C734.954 11.4076 736.484 11.4076 737.248 10.4518C738.013 9.4959 738.013 5.86366 738.204 2.99609Z" fill="white"/>
<circle cx="704.409" cy="25.7317" r="0.614478" fill="white"/>
<circle cx="754.386" cy="42.1179" r="0.614478" fill="white"/>
<circle cx="754.386" cy="42.1179" r="0.614478" fill="white"/>
<circle cx="722.433" cy="50.7204" r="0.614478" fill="white"/>
<circle cx="734.722" cy="39.2502" r="0.614478" fill="white"/>
<circle cx="374.668" cy="60.3966" r="1.23887" fill="white"/>
<circle cx="311.486" cy="255.725" r="0.825911" fill="white"/>
<circle cx="361.867" cy="290.413" r="0.825911" fill="white"/>
<circle cx="342.871" cy="301.976" r="0.825911" fill="white"/>
<circle cx="335.438" cy="296.195" r="0.825911" fill="white"/>
<circle cx="12.5062" cy="97.9758" r="0.825911" fill="white"/>
<circle cx="1.23887" cy="1.23887" r="1.23887" transform="matrix(-1 0 0 1 442.806 159.093)" fill="white"/>
<circle cx="0.825911" cy="0.825911" r="0.825911" transform="matrix(-1 0 0 1 501.446 148.356)" fill="white"/>
<circle cx="0.825911" cy="0.825911" r="0.825911" transform="matrix(-1 0 0 1 451.065 183.044)" fill="white"/>
<circle cx="0.825911" cy="0.825911" r="0.825911" transform="matrix(-1 0 0 1 470.061 194.607)" fill="white"/>
<circle cx="0.825911" cy="0.825911" r="0.825911" transform="matrix(-1 0 0 1 477.495 188.826)" fill="white"/>
<circle cx="634.005" cy="95.9107" r="1.23887" fill="white"/>
<circle cx="664.976" cy="50.073" r="0.825911" fill="white"/>
<circle cx="683.972" cy="59.9836" r="0.825911" fill="white"/>
<circle cx="742.612" cy="242.51" r="0.825911" fill="white"/>
<circle cx="593.122" cy="340.794" r="0.825911" fill="white"/>
<circle cx="543.567" cy="306.105" r="0.825911" fill="white"/>
<circle cx="534.482" cy="317.668" r="0.825911" fill="white"/>
<circle cx="721.138" cy="420.081" r="0.825911" fill="white"/>
<circle cx="136.806" cy="98.3888" r="1.23887" fill="white"/>
<circle cx="401.923" cy="369.288" r="1.23887" fill="white"/>
<circle cx="1.23887" cy="1.23887" r="1.23887" transform="matrix(1 0 0 -1 137.219 427.514)" fill="white"/>
<circle cx="1.23887" cy="1.23887" r="1.23887" transform="matrix(1 0 0 -1 228.895 390.348)" fill="white"/>
<circle cx="1.23887" cy="1.23887" r="1.23887" transform="matrix(1 0 0 -1 350.304 489.458)" fill="white"/>
<circle cx="0.825911" cy="0.825911" r="0.825911" transform="matrix(1 0 0 -1 190.077 486.98)" fill="white"/>
<circle cx="0.825911" cy="0.825911" r="0.825911" transform="matrix(1 0 0 -1 240.458 452.292)" fill="white"/>
<circle cx="0.825911" cy="0.825911" r="0.825911" transform="matrix(1 0 0 -1 221.462 440.729)" fill="white"/>
<circle cx="0.825911" cy="0.825911" r="0.825911" transform="matrix(1 0 0 -1 214.028 446.51)" fill="white"/>
<circle cx="0.825911" cy="0.825911" r="0.825911" transform="matrix(1 0 0 -1 471.713 401.911)" fill="white"/>
<circle cx="0.825911" cy="0.825911" r="0.825911" transform="matrix(1 0 0 -1 422.158 436.599)" fill="white"/>
<circle cx="0.825911" cy="0.825911" r="0.825911" transform="matrix(1 0 0 -1 413.073 425.037)" fill="white"/>
<circle cx="1.23887" cy="1.23887" r="1.23887" transform="matrix(1 0 0 -1 280.102 373.83)" fill="white"/>
<circle cx="182.52" cy="317.675" r="0.950267" transform="rotate(180 182.52 317.675)" fill="white"/>
<circle cx="112.2" cy="289.167" r="0.950267" transform="rotate(180 112.2 289.167)" fill="white"/>
<circle cx="103.647" cy="336.997" r="0.633511" transform="rotate(180 103.647 336.997)" fill="white"/>
<circle cx="118.219" cy="328.128" r="0.633511" transform="rotate(180 118.219 328.128)" fill="white"/>
<circle cx="123.92" cy="332.563" r="0.633511" transform="rotate(180 123.92 332.563)" fill="white"/>
<circle cx="72.9219" cy="276.497" r="0.950267" transform="rotate(180 72.9219 276.497)" fill="white"/>
<circle cx="23.656" cy="260.267" r="1.23887" fill="white"/>
<circle cx="400.272" cy="146.291" r="2.06478" fill="white"/>
<path d="M1084.26 178.308C1084.62 183.694 1084.62 190.517 1086.06 192.312C1087.49 194.108 1090.37 194.108 1095.04 194.467C1090.37 194.826 1087.49 194.826 1086.06 196.621C1084.62 198.417 1084.62 205.958 1084.26 211.344C1083.9 205.958 1083.9 198.417 1082.47 196.621C1081.03 194.826 1078.16 194.826 1073.49 194.467C1078.16 194.108 1081.03 194.108 1082.47 192.312C1083.9 190.517 1083.9 183.694 1084.26 178.308Z" fill="white"/>
<path d="M1019.63 400.747C1020.05 406.941 1020.05 414.787 1021.7 416.852C1023.35 418.917 1026.65 418.917 1032.02 419.33C1026.65 419.743 1023.35 419.743 1021.7 421.807C1020.05 423.872 1020.05 432.544 1019.63 438.738C1019.22 432.544 1019.22 423.872 1017.57 421.807C1015.92 419.743 1012.61 419.743 1007.25 419.33C1012.61 418.917 1015.92 418.917 1017.57 416.852C1019.22 414.787 1019.22 406.941 1019.63 400.747Z" fill="white"/>
<path d="M1303.09 127.101C1303.34 130.818 1303.34 135.525 1304.33 136.764C1305.32 138.003 1307.31 138.003 1310.53 138.251C1307.31 138.499 1305.32 138.499 1304.33 139.738C1303.34 140.976 1303.34 146.18 1303.09 149.896C1302.85 146.18 1302.85 140.976 1301.85 139.738C1300.86 138.499 1298.88 138.499 1295.66 138.251C1298.88 138.003 1300.86 138.003 1301.85 136.764C1302.85 135.525 1302.85 130.818 1303.09 127.101Z" fill="white"/>
<circle cx="1201.09" cy="192.761" r="2.06478" fill="white"/>
<circle cx="1055.73" cy="220.842" r="2.06478" fill="white"/>
<circle cx="1111.9" cy="400.891" r="2.06478" fill="white"/>
<circle cx="1127.59" cy="316.648" r="1.23887" fill="white"/>
<circle cx="978.923" cy="349.684" r="2.06478" fill="white"/>
<circle cx="954.972" cy="428.972" r="2.06478" fill="white"/>
<circle cx="925.239" cy="311.692" r="1.23887" fill="white"/>
<circle cx="960.249" cy="167.034" r="1.36275" fill="white"/>
<circle cx="924.818" cy="141.959" r="0.817652" fill="white"/>
<circle cx="1175.49" cy="36.6642" r="1.23887" fill="white"/>
<circle cx="1006.18" cy="80.4371" r="1.23887" fill="white"/>
<circle cx="1160.62" cy="231.579" r="1.23887" fill="white"/>
<circle cx="1151.54" cy="272.048" r="1.23887" fill="white"/>
<circle cx="1244.04" cy="321.603" r="1.23887" fill="white"/>
<circle cx="1335.72" cy="358.769" r="1.23887" fill="white"/>
<circle cx="1343.15" cy="166.332" r="1.23887" fill="white"/>
<circle cx="1359.67" cy="66.3966" r="1.23887" fill="white"/>
<circle cx="1296.49" cy="261.725" r="0.825911" fill="white"/>
<circle cx="1346.87" cy="296.413" r="0.825911" fill="white"/>
<circle cx="1327.87" cy="307.976" r="0.825911" fill="white"/>
<circle cx="1320.44" cy="302.195" r="0.825911" fill="white"/>
<circle cx="947.126" cy="69.2873" r="0.825911" fill="white"/>
<circle cx="997.506" cy="103.976" r="0.825911" fill="white"/>
<circle cx="978.51" cy="115.538" r="0.825911" fill="white"/>
<circle cx="971.077" cy="109.757" r="0.825911" fill="white"/>
<circle cx="1.23887" cy="1.23887" r="1.23887" transform="matrix(-1 0 0 1 1427.81 165.093)" fill="white"/>
<circle cx="0.825911" cy="0.825911" r="0.825911" transform="matrix(-1 0 0 1 1436.06 189.044)" fill="white"/>
<circle cx="1121.81" cy="104.389" r="1.23887" fill="white"/>
<circle cx="1386.92" cy="375.288" r="1.23887" fill="white"/>
<circle cx="1.23887" cy="1.23887" r="1.23887" transform="matrix(1 0 0 -1 1122.22 433.514)" fill="white"/>
<circle cx="1.23887" cy="1.23887" r="1.23887" transform="matrix(1 0 0 -1 1213.89 396.348)" fill="white"/>
<circle cx="1.23887" cy="1.23887" r="1.23887" transform="matrix(1 0 0 -1 1335.3 495.458)" fill="white"/>
<circle cx="0.825911" cy="0.825911" r="0.825911" transform="matrix(1 0 0 -1 1175.08 492.98)" fill="white"/>
<circle cx="0.825911" cy="0.825911" r="0.825911" transform="matrix(1 0 0 -1 1225.46 458.292)" fill="white"/>
<circle cx="0.825911" cy="0.825911" r="0.825911" transform="matrix(1 0 0 -1 1206.46 446.729)" fill="white"/>
<circle cx="0.825911" cy="0.825911" r="0.825911" transform="matrix(1 0 0 -1 1199.03 452.51)" fill="white"/>
<circle cx="0.825911" cy="0.825911" r="0.825911" transform="matrix(1 0 0 -1 1407.16 442.599)" fill="white"/>
<circle cx="0.825911" cy="0.825911" r="0.825911" transform="matrix(1 0 0 -1 1398.07 431.037)" fill="white"/>
<circle cx="1.23887" cy="1.23887" r="1.23887" transform="matrix(1 0 0 -1 1265.1 379.83)" fill="white"/>
<circle cx="1167.52" cy="323.675" r="0.950267" transform="rotate(180 1167.52 323.675)" fill="white"/>
<circle cx="1097.2" cy="295.167" r="0.950267" transform="rotate(180 1097.2 295.167)" fill="white"/>
<circle cx="1088.65" cy="342.997" r="0.633511" transform="rotate(180 1088.65 342.997)" fill="white"/>
<circle cx="1103.22" cy="334.128" r="0.633511" transform="rotate(180 1103.22 334.128)" fill="white"/>
<circle cx="1108.92" cy="338.563" r="0.633511" transform="rotate(180 1108.92 338.563)" fill="white"/>
<circle cx="1057.92" cy="282.497" r="0.950267" transform="rotate(180 1057.92 282.497)" fill="white"/>
<circle cx="1008.66" cy="266.267" r="1.23887" fill="white"/>
<circle cx="1385.27" cy="152.291" r="2.06478" fill="white"/>
<path d="M801.263 582.308C801.622 587.694 801.622 594.517 803.058 596.312C804.495 598.108 807.367 598.108 812.036 598.467C807.367 598.826 804.495 598.826 803.058 600.621C801.622 602.417 801.622 609.958 801.263 615.344C800.904 609.958 800.904 602.417 799.467 600.621C798.031 598.826 795.158 598.826 790.49 598.467C795.158 598.108 798.031 598.108 799.467 596.312C800.904 594.517 800.904 587.694 801.263 582.308Z" fill="white"/>
<path d="M1305.86 554.227C1306.24 560.008 1306.24 567.331 1307.79 569.258C1309.33 571.185 1312.41 571.185 1317.42 571.571C1312.41 571.956 1309.33 571.956 1307.79 573.883C1306.24 575.81 1306.24 583.904 1305.86 589.686C1305.47 583.904 1305.47 575.81 1303.93 573.883C1302.39 571.956 1299.31 571.956 1294.3 571.571C1299.31 571.185 1302.39 571.185 1303.93 569.258C1305.47 567.331 1305.47 560.008 1305.86 554.227Z" fill="white"/>
<path d="M736.635 804.747C737.048 810.941 737.048 818.787 738.699 820.852C740.351 822.917 743.655 822.917 749.023 823.33C743.655 823.743 740.351 823.743 738.699 825.807C737.048 827.872 737.048 836.544 736.635 842.738C736.222 836.544 736.222 827.872 734.57 825.807C732.918 823.743 729.614 823.743 724.246 823.33C729.614 822.917 732.918 822.917 734.57 820.852C736.222 818.787 736.222 810.941 736.635 804.747Z" fill="white"/>
<path d="M1020.09 531.101C1020.34 534.818 1020.34 539.525 1021.33 540.764C1022.32 542.003 1024.31 542.003 1027.53 542.251C1024.31 542.499 1022.32 542.499 1021.33 543.738C1020.34 544.976 1020.34 550.18 1020.09 553.896C1019.85 550.18 1019.85 544.976 1018.85 543.738C1017.86 542.499 1015.88 542.499 1012.66 542.251C1015.88 542.003 1017.86 542.003 1018.85 540.764C1019.85 539.525 1019.85 534.818 1020.09 531.101Z" fill="white"/>
<circle cx="918.093" cy="596.761" r="2.06478" fill="white"/>
<circle cx="772.733" cy="624.842" r="2.06478" fill="white"/>
<circle cx="828.895" cy="804.891" r="2.06478" fill="white"/>
<circle cx="844.587" cy="720.648" r="1.23887" fill="white"/>
<circle cx="695.923" cy="753.684" r="2.06478" fill="white"/>
<circle cx="671.972" cy="832.972" r="2.06478" fill="white"/>
<circle cx="642.239" cy="715.693" r="1.23887" fill="white"/>
<circle cx="677.249" cy="571.034" r="1.36275" fill="white"/>
<circle cx="641.818" cy="545.959" r="0.817652" fill="white"/>
<circle cx="892.49" cy="440.664" r="1.23887" fill="white"/>
<circle cx="1184.86" cy="497.652" r="1.23887" fill="white"/>
<circle cx="1237.72" cy="600.065" r="1.23887" fill="white"/>
<circle cx="1338.48" cy="633.101" r="1.23887" fill="white"/>
<circle cx="1338.48" cy="633.101" r="1.23887" fill="white"/>
<circle cx="1399.6" cy="532.34" r="1.23887" fill="white"/>
<circle cx="723.178" cy="484.437" r="1.23887" fill="white"/>
<circle cx="877.624" cy="635.579" r="1.23887" fill="white"/>
<circle cx="868.539" cy="676.048" r="1.23887" fill="white"/>
<circle cx="961.041" cy="725.603" r="1.23887" fill="white"/>
<circle cx="1052.72" cy="762.769" r="1.23887" fill="white"/>
<circle cx="1174.13" cy="663.66" r="1.23887" fill="white"/>
<circle cx="1060.15" cy="570.332" r="1.23887" fill="white"/>
<circle cx="1274.06" cy="650.445" r="1.23887" fill="white"/>
<circle cx="1298.84" cy="627.32" r="1.23887" fill="white"/>
<path d="M1440.2 412.996C1440.4 415.864 1440.4 419.496 1441.16 420.452C1441.92 421.408 1443.45 421.408 1445.94 421.599C1443.45 421.79 1441.92 421.79 1441.16 422.746C1440.4 423.702 1440.4 427.716 1440.2 430.584C1440.01 427.716 1440.01 423.702 1439.25 422.746C1438.48 421.79 1436.95 421.79 1434.47 421.599C1436.95 421.408 1438.48 421.408 1439.25 420.452C1440.01 419.496 1440.01 415.864 1440.2 412.996Z" fill="white"/>
<circle cx="1406.41" cy="435.732" r="0.614478" fill="white"/>
<circle cx="1424.43" cy="460.72" r="0.614478" fill="white"/>
<circle cx="1436.72" cy="449.25" r="0.614478" fill="white"/>
<circle cx="1076.67" cy="470.397" r="1.23887" fill="white"/>
<circle cx="1013.49" cy="665.725" r="0.825911" fill="white"/>
<circle cx="1063.87" cy="700.413" r="0.825911" fill="white"/>
<circle cx="1044.87" cy="711.976" r="0.825911" fill="white"/>
<circle cx="1037.44" cy="706.195" r="0.825911" fill="white"/>
<circle cx="664.126" cy="473.287" r="0.825911" fill="white"/>
<circle cx="714.506" cy="507.976" r="0.825911" fill="white"/>
<circle cx="695.51" cy="519.538" r="0.825911" fill="white"/>
<circle cx="688.077" cy="513.757" r="0.825911" fill="white"/>
<circle cx="1.23887" cy="1.23887" r="1.23887" transform="matrix(-1 0 0 1 1144.81 569.093)" fill="white"/>
<circle cx="0.825911" cy="0.825911" r="0.825911" transform="matrix(-1 0 0 1 1203.45 558.356)" fill="white"/>
<circle cx="0.825911" cy="0.825911" r="0.825911" transform="matrix(-1 0 0 1 1153.06 593.044)" fill="white"/>
<circle cx="0.825911" cy="0.825911" r="0.825911" transform="matrix(-1 0 0 1 1172.06 604.607)" fill="white"/>
<circle cx="0.825911" cy="0.825911" r="0.825911" transform="matrix(-1 0 0 1 1179.49 598.826)" fill="white"/>
<circle cx="1336" cy="505.911" r="1.23887" fill="white"/>
<circle cx="1366.98" cy="460.073" r="0.825911" fill="white"/>
<circle cx="1385.97" cy="469.984" r="0.825911" fill="white"/>
<circle cx="1295.12" cy="750.794" r="0.825911" fill="white"/>
<circle cx="1245.57" cy="716.105" r="0.825911" fill="white"/>
<circle cx="1236.48" cy="727.668" r="0.825911" fill="white"/>
<circle cx="1423.14" cy="830.081" r="0.825911" fill="white"/>
<circle cx="838.806" cy="508.389" r="1.23887" fill="white"/>
<circle cx="1103.92" cy="779.288" r="1.23887" fill="white"/>
<circle cx="1.23887" cy="1.23887" r="1.23887" transform="matrix(1 0 0 -1 839.219 837.514)" fill="white"/>
<circle cx="1.23887" cy="1.23887" r="1.23887" transform="matrix(1 0 0 -1 930.895 800.348)" fill="white"/>
<circle cx="1.23887" cy="1.23887" r="1.23887" transform="matrix(1 0 0 -1 1052.3 899.458)" fill="white"/>
<circle cx="0.825911" cy="0.825911" r="0.825911" transform="matrix(1 0 0 -1 892.077 896.98)" fill="white"/>
<circle cx="0.825911" cy="0.825911" r="0.825911" transform="matrix(1 0 0 -1 942.458 862.292)" fill="white"/>
<circle cx="0.825911" cy="0.825911" r="0.825911" transform="matrix(1 0 0 -1 923.462 850.729)" fill="white"/>
<circle cx="0.825911" cy="0.825911" r="0.825911" transform="matrix(1 0 0 -1 916.028 856.51)" fill="white"/>
<circle cx="0.825911" cy="0.825911" r="0.825911" transform="matrix(1 0 0 -1 1173.71 811.911)" fill="white"/>
<circle cx="0.825911" cy="0.825911" r="0.825911" transform="matrix(1 0 0 -1 1124.16 846.599)" fill="white"/>
<circle cx="0.825911" cy="0.825911" r="0.825911" transform="matrix(1 0 0 -1 1115.07 835.037)" fill="white"/>
<circle cx="1.23887" cy="1.23887" r="1.23887" transform="matrix(1 0 0 -1 982.102 783.83)" fill="white"/>
<circle cx="884.52" cy="727.675" r="0.950267" transform="rotate(180 884.52 727.675)" fill="white"/>
<circle cx="814.2" cy="699.167" r="0.950267" transform="rotate(180 814.2 699.167)" fill="white"/>
<circle cx="805.647" cy="746.997" r="0.633511" transform="rotate(180 805.647 746.997)" fill="white"/>
<circle cx="820.219" cy="738.128" r="0.633511" transform="rotate(180 820.219 738.128)" fill="white"/>
<circle cx="825.92" cy="742.563" r="0.633511" transform="rotate(180 825.92 742.563)" fill="white"/>
<circle cx="774.922" cy="686.497" r="0.950267" transform="rotate(180 774.922 686.497)" fill="white"/>
<circle cx="725.656" cy="670.267" r="1.23887" fill="white"/>
<circle cx="1102.27" cy="556.291" r="2.06478" fill="white"/>
<path d="M435.737 674.308C435.378 679.694 435.378 686.517 433.942 688.312C432.505 690.108 429.633 690.108 424.964 690.467C429.633 690.826 432.505 690.826 433.942 692.621C435.378 694.417 435.378 701.958 435.737 707.344C436.096 701.958 436.096 694.417 437.533 692.621C438.969 690.826 441.842 690.826 446.51 690.467C441.842 690.108 438.969 690.108 437.533 688.312C436.096 686.517 436.096 679.694 435.737 674.308Z" fill="white"/>
<path d="M216.907 623.101C216.659 626.818 216.659 631.525 215.668 632.764C214.677 634.003 212.695 634.003 209.473 634.251C212.695 634.499 214.677 634.499 215.668 635.738C216.659 636.976 216.659 642.18 216.907 645.896C217.154 642.18 217.154 636.976 218.146 635.738C219.137 634.499 221.119 634.499 224.34 634.251C221.119 634.003 219.137 634.003 218.146 632.764C217.154 631.525 217.154 626.818 216.907 623.101Z" fill="white"/>
<circle cx="2.06478" cy="2.06478" r="2.06478" transform="matrix(-1 0 0 1 320.972 686.696)" fill="white"/>
<circle cx="2.06478" cy="2.06478" r="2.06478" transform="matrix(-1 0 0 1 466.332 714.777)" fill="white"/>
<circle cx="2.06478" cy="2.06478" r="2.06478" transform="matrix(-1 0 0 1 410.17 894.826)" fill="white"/>
<circle cx="1.23887" cy="1.23887" r="1.23887" transform="matrix(-1 0 0 1 393.652 811.409)" fill="white"/>
<circle cx="2.06478" cy="2.06478" r="2.06478" transform="matrix(-1 0 0 1 543.142 843.62)" fill="white"/>
<circle cx="2.06478" cy="2.06478" r="2.06478" transform="matrix(-1 0 0 1 567.093 922.907)" fill="white"/>
<circle cx="1.23887" cy="1.23887" r="1.23887" transform="matrix(-1 0 0 1 596 806.454)" fill="white"/>
<circle cx="1.36275" cy="1.36275" r="1.36275" transform="matrix(-1 0 0 1 561.113 661.671)" fill="white"/>
<circle cx="0.817652" cy="0.817652" r="0.817652" transform="matrix(-1 0 0 1 596 637.142)" fill="white"/>
<circle cx="1.23887" cy="1.23887" r="1.23887" transform="matrix(-1 0 0 1 345.749 531.425)" fill="white"/>
<circle cx="1.23887" cy="1.23887" r="1.23887" transform="matrix(-1 0 0 1 53.376 588.413)" fill="white"/>
<circle cx="1.23887" cy="1.23887" r="1.23887" transform="matrix(-1 0 0 1 0.518188 690.826)" fill="white"/>
<circle cx="1.23887" cy="1.23887" r="1.23887" transform="matrix(-1 0 0 1 515.061 575.198)" fill="white"/>
<circle cx="1.23887" cy="1.23887" r="1.23887" transform="matrix(-1 0 0 1 360.615 726.34)" fill="white"/>
<circle cx="1.23887" cy="1.23887" r="1.23887" transform="matrix(-1 0 0 1 369.7 766.81)" fill="white"/>
<circle cx="1.23887" cy="1.23887" r="1.23887" transform="matrix(-1 0 0 1 277.198 816.365)" fill="white"/>
<circle cx="1.23887" cy="1.23887" r="1.23887" transform="matrix(-1 0 0 1 185.522 853.531)" fill="white"/>
<circle cx="1.23887" cy="1.23887" r="1.23887" transform="matrix(-1 0 0 1 64.1127 754.421)" fill="white"/>
<circle cx="1.23887" cy="1.23887" r="1.23887" transform="matrix(-1 0 0 1 178.089 661.093)" fill="white"/>
<circle cx="1.23887" cy="1.23887" r="1.23887" transform="matrix(-1 0 0 1 161.57 561.158)" fill="white"/>
<circle cx="0.825911" cy="0.825911" r="0.825911" transform="matrix(-1 0 0 1 224.34 756.899)" fill="white"/>
<circle cx="0.825911" cy="0.825911" r="0.825911" transform="matrix(-1 0 0 1 173.959 791.587)" fill="white"/>
<circle cx="0.825911" cy="0.825911" r="0.825911" transform="matrix(-1 0 0 1 192.955 803.15)" fill="white"/>
<circle cx="0.825911" cy="0.825911" r="0.825911" transform="matrix(-1 0 0 1 200.388 797.369)" fill="white"/>
<circle cx="0.825911" cy="0.825911" r="0.825911" transform="matrix(-1 0 0 1 573.7 564.461)" fill="white"/>
<circle cx="0.825911" cy="0.825911" r="0.825911" transform="matrix(-1 0 0 1 523.32 599.15)" fill="white"/>
<circle cx="0.825911" cy="0.825911" r="0.825911" transform="matrix(-1 0 0 1 542.316 610.712)" fill="white"/>
<circle cx="0.825911" cy="0.825911" r="0.825911" transform="matrix(-1 0 0 1 549.749 604.931)" fill="white"/>
<circle cx="93.4329" cy="662.332" r="1.23887" fill="white"/>
<circle cx="34.3801" cy="651.182" r="0.825911" fill="white"/>
<circle cx="84.761" cy="685.87" r="0.825911" fill="white"/>
<circle cx="65.7648" cy="697.433" r="0.825911" fill="white"/>
<circle cx="58.3313" cy="691.652" r="0.825911" fill="white"/>
<circle cx="0.825911" cy="0.825911" r="0.825911" transform="matrix(-1 0 0 1 1.34381 818.842)" fill="white"/>
<circle cx="1.23887" cy="1.23887" r="1.23887" transform="matrix(-1 0 0 1 399.433 599.15)" fill="white"/>
<circle cx="1.23887" cy="1.23887" r="1.23887" transform="matrix(-1 0 0 1 134.316 870.049)" fill="white"/>
<circle cx="396.543" cy="928.276" r="1.23887" transform="rotate(180 396.543 928.276)" fill="white"/>
<circle cx="304.866" cy="891.109" r="1.23887" transform="rotate(180 304.866 891.109)" fill="white"/>
<circle cx="183.457" cy="990.219" r="1.23887" transform="rotate(180 183.457 990.219)" fill="white"/>
<circle cx="344.097" cy="988.154" r="0.825911" transform="rotate(180 344.097 988.154)" fill="white"/>
<circle cx="293.716" cy="953.466" r="0.825911" transform="rotate(180 293.716 953.466)" fill="white"/>
<circle cx="312.713" cy="941.903" r="0.825911" transform="rotate(180 312.713 941.903)" fill="white"/>
<circle cx="320.146" cy="947.684" r="0.825911" transform="rotate(180 320.146 947.684)" fill="white"/>
<circle cx="62.4612" cy="903.085" r="0.825911" transform="rotate(180 62.4612 903.085)" fill="white"/>
<circle cx="112.016" cy="937.773" r="0.825911" transform="rotate(180 112.016 937.773)" fill="white"/>
<circle cx="121.101" cy="926.211" r="0.825911" transform="rotate(180 121.101 926.211)" fill="white"/>
<circle cx="253.66" cy="874.591" r="1.23887" transform="rotate(180 253.66 874.591)" fill="white"/>
<circle cx="0.950267" cy="0.950267" r="0.950267" transform="matrix(1 0 0 -1 351.53 820.625)" fill="white"/>
<circle cx="0.950267" cy="0.950267" r="0.950267" transform="matrix(1 0 0 -1 421.85 792.117)" fill="white"/>
<circle cx="0.633511" cy="0.633511" r="0.633511" transform="matrix(1 0 0 -1 430.719 839.631)" fill="white"/>
<circle cx="0.633511" cy="0.633511" r="0.633511" transform="matrix(1 0 0 -1 416.148 830.761)" fill="white"/>
<circle cx="0.633511" cy="0.633511" r="0.633511" transform="matrix(1 0 0 -1 410.446 835.196)" fill="white"/>
<circle cx="0.950267" cy="0.950267" r="0.950267" transform="matrix(1 0 0 -1 461.128 779.447)" fill="white"/>
<circle cx="1.23887" cy="1.23887" r="1.23887" transform="matrix(-1 0 0 1 512.583 761.028)" fill="white"/>
<circle cx="2.06478" cy="2.06478" r="2.06478" transform="matrix(-1 0 0 1 136.793 646.227)" fill="white"/>
</svg>
