<svg id="img" width="2033" height="2638" viewBox="0 0 2033 2638" fill="none" xmlns="http://www.w3.org/2000/svg">
    <g class="connectors" stroke="white" stroke-width="15">
        <path d="M271.402 153.728L59.8022 689.095M516.142 123.134L253.556 640.658M67.4507 691.646L192.371 972.08M256.105 630.462L194.92 966.978M664.006 982.275L294.346 1165.83M197.469 979.728L291.796 1176.03M668.624 977.982L938.839 1239.13M938.839 1240.94L1359.58 1066.84L1968.92 943.523L1905.45 794.813L1771.25 689.63M1968.92 939.896V1391.47L1860.11 1534.74M293.223 1168.4L461.881 1911.95L652.302 1873.86L811.892 1755.99L935.212 1222.81M466.024 1913.21L389.666 2525.89L1149.61 2562.25L809.635 1765.95"/>
    </g>
    <g class="stars" fill="white" stroke="white" stroke-width="15" stroke-linejoin="round">
        <g id="star-bright-1">
            <path d="M161.972 152C263.028 152 266 140.24 266 7.93994C266 140.24 266 152 370.028 152C266 152 266 163.76 266 296.06C266 163.76 263.028 152 161.972 152Z"/>
            <path d="M325.572 93.2C275.044 143.18 257.211 143.18 206.683 93.2C257.211 143.18 257.211 160.82 206.683 210.8C257.211 160.82 275.044 160.82 325.572 210.8C275.044 160.82 275.044 143.18 325.572 93.2Z"/>
        </g>
        <path id="star-2" d="M458.569 122.5C511.93 122.5 513.5 116.22 513.5 45.5701C513.5 116.22 513.5 122.5 568.431 122.5C513.5 122.5 513.5 128.78 513.5 199.43C513.5 128.78 511.93 122.5 458.569 122.5Z"/>
        <path id="star-3" d="M200.569 641.5C253.93 641.5 255.5 635.22 255.5 564.57C255.5 635.22 255.5 641.5 310.431 641.5C255.5 641.5 255.5 647.78 255.5 718.43C255.5 647.78 253.93 641.5 200.569 641.5Z"/>
        <path id="star-4" d="M7.56934 687.5C60.9304 687.5 62.4999 681.22 62.4999 610.57C62.4999 681.22 62.5001 687.5 117.431 687.5C62.5001 687.5 62.4999 693.78 62.4999 764.43C62.4999 693.78 60.9304 687.5 7.56934 687.5Z"/>
        <path id="star-5" d="M141.569 981.5C194.93 981.5 196.5 975.22 196.5 904.57C196.5 975.22 196.5 981.5 251.431 981.5C196.5 981.5 196.5 987.78 196.5 1058.43C196.5 987.78 194.93 981.5 141.569 981.5Z"/>
        <path id="star-6" d="M237.569 1163.5C290.93 1163.5 292.5 1157.22 292.5 1086.57C292.5 1157.22 292.5 1163.5 347.431 1163.5C292.5 1163.5 292.5 1169.78 292.5 1240.43C292.5 1169.78 290.93 1163.5 237.569 1163.5Z"/>
        <path id="star-7" d="M610.569 980.5C663.93 980.5 665.5 974.22 665.5 903.57C665.5 974.22 665.5 980.5 720.431 980.5C665.5 980.5 665.5 986.78 665.5 1057.43C665.5 986.78 663.93 980.5 610.569 980.5Z"/>
        <path id="star-8" d="M881.569 1241.5C934.93 1241.5 936.5 1235.22 936.5 1164.57C936.5 1235.22 936.5 1241.5 991.431 1241.5C936.5 1241.5 936.5 1247.78 936.5 1318.43C936.5 1247.78 934.93 1241.5 881.569 1241.5Z"/>
        <path id="star-9" d="M1305.57 1065.5C1358.93 1065.5 1360.5 1059.22 1360.5 988.57C1360.5 1059.22 1360.5 1065.5 1415.43 1065.5C1360.5 1065.5 1360.5 1071.78 1360.5 1142.43C1360.5 1071.78 1358.93 1065.5 1305.57 1065.5Z"/>
        <path id="star-10" d="M1915.57 945.5C1968.93 945.5 1970.5 939.22 1970.5 868.57C1970.5 939.22 1970.5 945.5 2025.43 945.5C1970.5 945.5 1970.5 951.78 1970.5 1022.43C1970.5 951.78 1968.93 945.5 1915.57 945.5Z"/>
        <path id="star-11" d="M1857.57 803.5C1910.93 803.5 1912.5 797.22 1912.5 726.57C1912.5 797.22 1912.5 803.5 1967.43 803.5C1912.5 803.5 1912.5 809.78 1912.5 880.43C1912.5 809.78 1910.93 803.5 1857.57 803.5Z"/>
        <path id="star-12" d="M1716.57 686.5C1769.93 686.5 1771.5 680.22 1771.5 609.57C1771.5 680.22 1771.5 686.5 1826.43 686.5C1771.5 686.5 1771.5 692.78 1771.5 763.43C1771.5 692.78 1769.93 686.5 1716.57 686.5Z"/>
        <path id="star-13" d="M1915.57 1137.5C1968.93 1137.5 1970.5 1131.22 1970.5 1060.57C1970.5 1131.22 1970.5 1137.5 2025.43 1137.5C1970.5 1137.5 1970.5 1143.78 1970.5 1214.43C1970.5 1143.78 1968.93 1137.5 1915.57 1137.5Z"/>
        <path id="star-14" d="M1915.57 1385.5C1968.93 1385.5 1970.5 1379.22 1970.5 1308.57C1970.5 1379.22 1970.5 1385.5 2025.43 1385.5C1970.5 1385.5 1970.5 1391.78 1970.5 1462.43C1970.5 1391.78 1968.93 1385.5 1915.57 1385.5Z"/>
        <path id="star-15" d="M1800.57 1528.5C1853.93 1528.5 1855.5 1522.22 1855.5 1451.57C1855.5 1522.22 1855.5 1528.5 1910.43 1528.5C1855.5 1528.5 1855.5 1534.78 1855.5 1605.43C1855.5 1534.78 1853.93 1528.5 1800.57 1528.5Z"/>
        <path id="star-16" d="M753.569 1761.5C806.93 1761.5 808.5 1755.22 808.5 1684.57C808.5 1755.22 808.5 1761.5 863.431 1761.5C808.5 1761.5 808.5 1767.78 808.5 1838.43C808.5 1767.78 806.93 1761.5 753.569 1761.5Z"/>
        <path id="star-17" d="M591.569 1867.5C644.93 1867.5 646.5 1861.22 646.5 1790.57C646.5 1861.22 646.5 1867.5 701.431 1867.5C646.5 1867.5 646.5 1873.78 646.5 1944.43C646.5 1873.78 644.93 1867.5 591.569 1867.5Z"/>
        <path id="star-18" d="M411.569 1913.5C464.93 1913.5 466.5 1907.22 466.5 1836.57C466.5 1907.22 466.5 1913.5 521.431 1913.5C466.5 1913.5 466.5 1919.78 466.5 1990.43C466.5 1919.78 464.93 1913.5 411.569 1913.5Z"/>
        <path id="star-19" d="M330.569 2518.5C383.93 2518.5 385.5 2512.22 385.5 2441.57C385.5 2512.22 385.5 2518.5 440.431 2518.5C385.5 2518.5 385.5 2524.78 385.5 2595.43C385.5 2524.78 383.93 2518.5 330.569 2518.5Z"/>
        <path id="star-20" d="M1079.57 2553.5C1132.93 2553.5 1134.5 2547.22 1134.5 2476.57C1134.5 2547.22 1134.5 2553.5 1189.43 2553.5C1134.5 2553.5 1134.5 2559.78 1134.5 2630.43C1134.5 2559.78 1132.93 2553.5 1079.57 2553.5Z"/>
    </g>
</svg>
