<svg xmlns="http://www.w3.org/2000/svg" xmlns:xlink="http://www.w3.org/1999/xlink" viewBox="0 0 290 402" fill="none">
  <title>DurHack 2024</title>
  <defs>
    <linearGradient id="f">
      <stop offset=".41" stop-color="#c69462"/>
      <stop offset="1" stop-color="#21b6ae"/>
    </linearGradient>
    <linearGradient id="a">
      <stop offset="0" stop-color="#ac7649"/>
      <stop offset=".14" stop-color="#b68250"/>
      <stop offset=".23" stop-color="#fbd3b8"/>
      <stop offset=".32" stop-color="#bb7c4e"/>
      <stop offset=".36" stop-color="#b87f47"/>
      <stop offset=".39" stop-color="#f4d1a8"/>
      <stop offset=".43" stop-color="#ba8a3d"/>
      <stop offset=".6253" stop-color="#cb8854"/>
      <stop offset=".6997" stop-color="#fad0af"/>
      <stop offset=".7823" stop-color="#dd9d63"/>
      <stop offset=".8662" stop-color="#e7a56c"/>
      <stop offset=".9292" stop-color="#c9944d"/>
    </linearGradient>
    <linearGradient id="c">
      <stop offset="0" stop-color="#e0af79"/>
      <stop offset=".3" stop-color="#ffdbb5"/>
      <stop offset=".56" stop-color="#b2762f"/>
      <stop offset=".78" stop-color="#ebba81"/>
    </linearGradient>
    <linearGradient id="b">
      <stop offset="0" stop-color="#ffdec8"/>
      <stop offset=".19" stop-color="#d6a566"/>
      <stop offset=".27" stop-color="#a5733e"/>
      <stop offset=".34" stop-color="#ffe0bf"/>
      <stop offset=".44" stop-color="#ffd19b"/>
      <stop offset=".65" stop-color="#ba8340"/>
      <stop offset=".74" stop-color="#ffdbae"/>
      <stop offset=".94" stop-color="#af732a"/>
    </linearGradient>
    <linearGradient id="e" x1="15.3482" x2="15.3477" y1="15.3477" y2="274.6518" gradientUnits="userSpaceOnUse">
      <stop offset=".02" stop-color="#fff8f3"/>
      <stop offset=".18" stop-color="#e8ae7d"/>
      <stop offset=".38" stop-color="#f3cfaf"/>
      <stop offset=".57" stop-color="#c08c5d"/>
      <stop offset=".68" stop-color="#fff8df"/>
      <stop offset=".72" stop-color="#a46f3c"/>
      <stop offset=".84" stop-color="#ffdbb8"/>
      <stop offset=".98" stop-color="#ffd7aa"/>
    </linearGradient>
    <linearGradient id="d" x1="15.35" x2="15.35" y1="274.65" y2="15.35" gradientUnits="userSpaceOnUse">
      <stop offset="0" stop-color="#1ca596"/>
      <stop offset="1" stop-color="#0b3f39"/>
    </linearGradient>
    <linearGradient xlink:href="#a" id="k" x1="82.2598" x2="206.4752" y1="292.767" y2="-.021" gradientUnits="userSpaceOnUse"/>
    <linearGradient xlink:href="#b" id="r" x1="13.9422" x2="13.9422" y1="13.9425" y2="276.0581" gradientUnits="userSpaceOnUse"/>
    <linearGradient xlink:href="#c" id="s" x1="105.9615" x2="105.9615" y1="105.961" y2="184.038" gradientUnits="userSpaceOnUse"/>
    <linearGradient xlink:href="#b" id="g" x1="2.177" x2="2.177" y1="172.885" y2="401.7422" gradientUnits="userSpaceOnUse"/>
    <linearGradient xlink:href="#f" id="h" x1="144.9996" x2="144.9996" y1="172.885" y2="376.4427" gradientUnits="userSpaceOnUse"/>
    <filter id="p" width="140%" height="140%" x="-20%" y="-20%">
      <feDropShadow dx="0" dy="10" flood-color="#000" flood-opacity=".25" stdDeviation="5"/>
    </filter>
    <mask id="j" maskUnits="userSpaceOnUse">
      <path d="M0 0v402h290V0Zm145 49.9395A94.419 95.06 0 0 1 239.418 145 94.419 95.06 0 0 1 145 240.0586 94.419 95.06 0 0 1 50.582 145 94.419 95.06 0 0 1 145 49.9395" fill="#fff"/>
    </mask>
  </defs>
  <g stroke="url(#g)" stroke-width="5.577">
    <path stroke-width="11.154" d="M29.708 208.7504 7.2708 194.7157l6.4906 52.777 6.4905 52.777c34.0745 47.093 66.5264 73.076 124.9402 95.8103 58.4126-22.7343 90.865-48.7173 124.9398-95.8102l12.9796-105.5541-23.4202 14.6497"/>
    <path fill="url(#h)" d="M34.1995 291.339 14.0542 173.0594l4.179-4.1791 13.9305-2.786 5.572 9.7512 20.8956 44.577 18.1095 11.1445 68.2588 29.2536 80.796-32.0399 11.1443-23.6815 18.8588-29.2537 10.3945-9.7513h5.573l4.1779 6.9652-20.1454 118.2796c-30.2174 41.8306-58.9965 64.9097-110.7991 85.1037-51.8026-20.194-80.5817-43.273-110.8-85.1037Z"/>
    <path d="M145 287.1683v47.9467m30.674-64.634 13.942 11.154v26.49m-.001-57.164 18.125 15.337v26.49l23.702 25.097m-131.057-66.924-18.1252 15.337v26.49l-23.702 25.097"/>
    <circle cx="145" cy="345.769" r="11.1538"/>
    <circle cx="189.615" cy="320.673" r="11.1538"/>
    <circle cx="100.3852" cy="320.6728" r="11.1538"/>
    <path d="m114.326 270.481-13.942 11.154v26.49"/>
  </g>
  <g stroke-width="5.577">
    <path filter="url(#p)" d="M145-.0005a145 145 0 0 0-29.1309 3.3242l-5.0683 15.9453c-4.0576 12.7636-18.629 18.7985-30.5235 12.6426L65.17 24.0932a145 145 0 0 0-41.0761 41.0762l7.8183 15.1074c6.1562 11.8943.119 26.4659-12.6445 30.5235l-15.9434 5.0683A145 145 0 0 0 0 144.9995a145 145 0 0 0 3.3242 29.1309l15.9434 5.0683c12.7636 4.0574 18.8007 18.6292 12.6445 30.5235l-7.8183 15.1074a145 145 0 0 0 41.0761 41.0761l15.1074-7.8183c11.8946-6.1562 26.4659-.119 30.5235 12.6445l5.0683 15.9434A145 145 0 0 0 145 289.9995a145.03 145.03 0 0 0 29.0117-2.9492l5.1875-16.3184c4.0574-12.7636 18.6304-18.8007 30.5235-12.6445l15.209 7.871a145 145 0 0 0 41.0273-41.0273l-7.8711-15.209c-6.156-11.8942-.119-26.466 12.6445-30.5234l16.3184-5.1875A145 145 0 0 0 290 144.9995a145 145 0 0 0-3.3242-29.1309l-15.9434-5.0683c-12.7636-4.0576-18.8004-18.629-12.6445-30.5235l7.8184-15.1074A145 145 0 0 0 224.83 24.0932l-15.1074 7.8184c-11.893 6.156-26.4661.121-30.5235-12.6426L174.131 3.3237A145 145 0 0 0 145-.0005" mask="url(#j)" fill="url(#k)"/>
    <path filter="url(#p)" d="M145 15.3477a129.65 129.65 0 0 0-25.6955 2.8967c-.235.6028-.5273 1.1487-.7289 1.7827l-1.0394 3.2736C112.3294 39.679 93.6286 47.423 78.3655 39.5234l-3.0479-1.5777c-.6622-.3428-1.3278-.549-1.9919-.8345a129.65 129.65 0 0 0-36.214 36.214c.2855.6641.4917 1.3297.8345 1.992l1.5777 3.0478c7.8999 15.2631.1539 33.9639-16.2248 39.1707l-3.2715 1.0394c-.6349.2018-1.1812.4956-1.7848.731a129.65 129.65 0 0 0-2.8946 25.6934 129.65 129.65 0 0 0 2.8946 25.6935c.6036.2353 1.15.529 1.7848.7309l3.2715 1.0394c16.3787 5.2068 24.1247 23.9076 16.2248 39.1708l-1.5777 3.0478c-.3428.6622-.549 1.3278-.8344 1.9919a129.65 129.65 0 0 0 36.214 36.214c.664-.2855 1.3296-.4917 1.9918-.8345l3.0479-1.5798c15.2631-7.8988 33.9639-.1523 39.1707 16.227l1.0394 3.2714c.2018.6346.4957 1.1814.731 1.7848A129.65 129.65 0 0 0 145 274.6513a129.65 129.65 0 0 0 25.6935-2.8946c.2352-.6034.5291-1.1502.7309-1.7848l1.0394-3.2715c5.2068-16.3792 23.9076-24.1257 39.1708-16.2269l3.0478 1.5798c.6622.3428 1.3278.549 1.9919.8345a129.65 129.65 0 0 0 36.214-36.214c-.2855-.6641-.4917-1.3296-.8345-1.9919l-1.5798-3.0478c-7.8988-15.2632-.1523-33.964 16.227-39.1708l3.2714-1.0394c.6349-.2018 1.1812-.4956 1.7848-.731a129.65 129.65 0 0 0 2.8946-25.6934 129.65 129.65 0 0 0-2.8946-25.6935c-.6036-.2353-1.15-.529-1.7848-.7309l-3.2715-1.0394c-16.3792-5.2066-24.1257-23.9076-16.2269-39.1707l1.5798-3.0479c.3428-.6622.549-1.3278.8345-1.9919a129.65 129.65 0 0 0-36.214-36.214c-.6641.2855-1.3296.4917-1.9919.8345l-3.0478 1.5777c-15.2632 7.8996-33.964.1557-39.1708-16.2227l-1.0394-3.2736c-.2015-.634-.494-1.18-.7288-1.7827A129.65 129.65 0 0 0 145 15.3477" mask="url(#j)" fill="url(#d)"/>
    <circle cx="145" cy="144.9995" r="95" stroke="url(#e)"/>
    <circle cx="145" cy="144.9995" r="69.8909" fill="url(#d)" stroke="#1f5350"/>
    <circle cx="145" cy="144.9995" r="51.6596" stroke="#1f5350"/>
    <path d="M145-.0005a145 145 0 0 0-29.1309 3.3242l-5.0683 15.9453c-4.0576 12.7636-18.629 18.7985-30.5235 12.6426L65.17 24.0933a145 145 0 0 0-41.0761 41.0761l7.8183 15.1074c6.1562 11.8943.119 26.4659-12.6445 30.5235l-15.9434 5.0683A145 145 0 0 0 0 144.9995a145 145 0 0 0 3.3242 29.1309l15.9434 5.0683c12.7635 4.0574 18.8007 18.6292 12.6445 30.5235l-7.8183 15.1074a145 145 0 0 0 41.0761 41.0761l15.1074-7.8183c11.8946-6.1562 26.4659-.119 30.5235 12.6445l5.0683 15.9434A145 145 0 0 0 145 289.9995a145.03 145.03 0 0 0 29.0117-2.9492l5.1875-16.3184c4.0574-12.7635 18.6304-18.8007 30.5235-12.6445l15.209 7.871a145 145 0 0 0 41.0273-41.0273l-7.8711-15.209c-6.156-11.8942-.119-26.466 12.6445-30.5234l16.3184-5.1875A145 145 0 0 0 290 144.9995a145 145 0 0 0-3.3242-29.1309l-15.9434-5.0683c-12.7636-4.0576-18.8004-18.629-12.6445-30.5235l7.8184-15.1074A145 145 0 0 0 224.83 24.0933l-15.1074 7.8183c-11.893 6.156-26.4661.121-30.5235-12.6426L174.131 3.3237A145 145 0 0 0 145-.0005m-.0117 2.8594c8.7652-.0008 17.5348.977 27 2.9336l4.5527 14.3222c4.5645 14.3589 21.0833 21.1988 34.463 14.2735l13.5722-7.0235a142.12 142.12 0 0 1 38.0586 38.0586l-7.0234 13.5723c-6.9253 13.381-.0832 29.8982 14.2753 34.4629l14.3204 4.5527c3.921 18.9684 3.863 35.6863.3515 53.8653l-14.6719 4.664c-14.3586 4.5645-21.2006 21.082-14.2753 34.4629l7.0761 13.6738a142.12 142.12 0 0 1-38.0097 38.0098l-13.6739-7.0762c-13.3798-6.9257-29.8984-.0834-34.4629 14.2754l-4.664 14.6719c-18.2178 3.5189-34.934 3.5618-53.8653-.3516l-4.5527-14.3203c-4.5647-14.3585-21.0819-21.201-34.463-14.2754l-13.5722 7.0235a142.12 142.12 0 0 1-38.0586-38.0586l7.0235-13.5723c6.9255-13.3808.0832-29.8984-14.2754-34.4629L5.793 171.9878c-3.9073-18.9013-3.9133-35.0462 0-53.9766l14.3203-4.5527c14.3585-4.5647 21.201-21.082 14.2754-34.463l-7.0235-13.5722a142.12 142.12 0 0 1 38.0586-38.0586l13.5723 7.0235c13.3808 6.9251 29.8982.0851 34.4629-14.2735l4.5527-14.3222c9.4507-1.9537 18.2114-2.9329 26.9766-2.9336" fill="#000" fill-opacity=".2"/>
    <path d="M145 15.3472a129.65 129.65 0 0 0-25.6953 2.8964c-.235.6028-.527 1.1493-.7285 1.7832l-1.039 3.2735c-5.2069 16.3784-23.9088 24.1222-39.172 16.2226l-3.0468-1.5761c-.6623-.3428-1.3281-.5505-1.9922-.836a129.65 129.65 0 0 0-36.2149 36.2149c.2855.664.4913 1.33.834 1.9922l1.5781 3.0468c7.8999 15.2632.1541 33.9651-16.2246 39.1719l-3.2715 1.039c-.6348.202-1.1815.4952-1.7851.7305a129.65 129.65 0 0 0-2.8945 25.6934 129.65 129.65 0 0 0 2.8945 25.6934c.6036.2353 1.1503.5286 1.7851.7304l3.2715 1.041c16.3787 5.2068 24.1245 23.9068 16.2246 39.17l-1.578 3.0468c-.3428.6623-.5486 1.3281-.834 1.9922a129.65 129.65 0 0 0 36.2148 36.2149c.664-.2855 1.33-.4913 1.9922-.834l3.0468-1.5801c15.2632-7.8988 33.9651-.1526 39.172 16.2266l1.039 3.2714c.2017.6347.4952 1.1818.7304 1.7852A129.65 129.65 0 0 0 145 274.6518a129.65 129.65 0 0 0 25.6934-2.8945c.2352-.6034.5287-1.1505.7304-1.7851l1.039-3.2715c5.2069-16.3792 23.9088-24.1254 39.172-16.2266l3.0468 1.58c.6623.3428 1.3281.5486 1.9922.834a129.65 129.65 0 0 0 36.2149-36.2148c-.2855-.664-.4913-1.33-.834-1.9922l-1.58-3.0468c-7.899-15.2632-.1527-33.9632 16.2265-39.17l3.2715-1.041c.6348-.2018 1.1815-.4951 1.7851-.7304a129.65 129.65 0 0 0 2.8945-25.6934 129.65 129.65 0 0 0-2.8945-25.6934c-.6036-.2353-1.1503-.5286-1.7851-.7304l-3.2715-1.0391c-16.3792-5.2065-24.1254-23.9087-16.2266-39.1719l1.58-3.0468c.3428-.6623.5486-1.3281.834-1.9922a129.65 129.65 0 0 0-36.2148-36.2149c-.664.2855-1.3299.4932-1.9922.836l-3.0468 1.5761c-15.2632 7.8996-33.9651.1558-39.172-16.2226l-1.039-3.2735c-.2015-.634-.4935-1.1804-.7285-1.7832A129.65 129.65 0 0 0 145 15.3472m0 5.582c7.253.0937 14.464.931 21.586 2.2871l.5624 1.7734c6.2211 19.569 28.8129 28.9245 47.0489 19.4864l1.8066-.9356a123.92 123.92 0 0 1 30.4531 30.4531l-.9355 1.8067v.002c-9.4376 18.2364-.0794 40.8281 19.4902 47.0488l1.7735.5625c1.3555 7.1219 2.1938 14.3331 2.287 21.586-.0932 7.2528-.9315 14.464-2.287 21.5859l-1.7735.5625c-19.5695 6.221-28.9277 28.8124-19.4902 47.0488v.002l.9355 1.8067c-8.3022 11.8568-18.596 22.1511-30.453 30.453l-1.8048-.9375h-.002c-18.2364-9.4375-40.8278-.0793-47.0488 19.4902l-.5625 1.7735c-7.1219 1.3555-14.3331 2.1938-21.586 2.287-7.2528-.0932-14.464-.9315-21.5859-2.287l-.5625-1.7735c-6.2209-19.5695-28.8123-28.9277-47.0488-19.4902h-.002l-1.8047.9375a123.92 123.92 0 0 1-30.455-30.4551l.9356-1.8047v-.002c9.4386-18.2363.0808-40.8278-19.4883-47.0488l-1.7735-.5625c-1.3555-7.1219-2.1938-14.3331-2.287-21.586.0932-7.2528.9315-14.464 2.287-21.5859l1.7735-.5625c19.569-6.221 28.9269-28.8125 19.4883-47.0488l-.9356-1.8066a123.92 123.92 0 0 1 30.4551-30.455l1.8066.9355c18.236 9.4381 40.8278.0827 47.0489-19.4864l.5625-1.7734c7.1219-1.356 14.333-2.1934 21.5859-2.2871" fill="url(#e)" />
  </g>
  <path fill="url(#d)" stroke="url(#r)" stroke-miterlimit="10" stroke-width="9.5" filter="url(#p)" d="m161.2073 128.7916 98.3978 16.2076-98.3978 16.2076-16.2076 98.3978-16.2076-98.3978-98.3973-16.2076 98.3973-16.2076 16.2076-98.3973z"/>
  <path fill="url(#s)" d="m144.9993 93.34 7.306 44.3542 44.3543 7.306-44.3543 7.3059-7.306 44.353-7.3046-44.353L93.3404 145l44.3543-7.3059z"/>
</svg>
