<svg xmlns="http://www.w3.org/2000/svg" xmlns:xlink="http://www.w3.org/1999/xlink" xml:space="preserve" viewBox="0 0 290 402" fill="none">
    <defs>
        <linearGradient id="a">
            <stop offset="0" stop-color="#ffdec8"/>
            <stop offset=".19" stop-color="#d6a566"/>
            <stop offset=".27" stop-color="#a5733e"/>
            <stop offset=".34" stop-color="#ffe0bf"/>
            <stop offset=".44" stop-color="#ffd19b"/>
            <stop offset=".65" stop-color="#ba8340"/>
            <stop offset=".74" stop-color="#ffdbae"/>
            <stop offset=".94" stop-color="#af732a"/>
        </linearGradient>
        <linearGradient id="c" x1="15.348" x2="15.348" y1="15.348" y2="274.65" gradientUnits="userSpaceOnUse">
            <stop offset=".02" stop-color="#fff8f3"/>
            <stop offset=".18" stop-color="#e8ae7d"/>
            <stop offset=".38" stop-color="#f3cfaf"/>
            <stop offset=".57" stop-color="#c08c5d"/>
            <stop offset=".68" stop-color="#fff8df"/>
            <stop offset=".72" stop-color="#a46f3c"/>
            <stop offset=".84" stop-color="#ffdbb8"/>
            <stop offset=".98" stop-color="#ffd7aa"/>
        </linearGradient>
        <linearGradient id="b" x1="15.348" x2="13.682" y1="274.65" y2="13.681" gradientUnits="userSpaceOnUse">
            <stop offset="0" stop-color="#1ca596"/>
            <stop offset="1" stop-color="#0b3f39"/>
        </linearGradient>
        <linearGradient id="f" x1="82.26" x2="206.48" y1="292.77" y2="-.021" gradientUnits="userSpaceOnUse">
            <stop offset="0" stop-color="#ac7649"/>
            <stop offset=".14" stop-color="#b68250"/>
            <stop offset=".23" stop-color="#fbd3b8"/>
            <stop offset=".32" stop-color="#bb7c4e"/>
            <stop offset=".36" stop-color="#b87f47"/>
            <stop offset=".39" stop-color="#f4d1a8"/>
            <stop offset=".43" stop-color="#ba8a3d"/>
            <stop offset=".6252" stop-color="#cb8854"/>
            <stop offset=".6997" stop-color="#fad0af"/>
            <stop offset=".7823" stop-color="#dd9d63"/>
            <stop offset=".8661" stop-color="#e7a56c"/>
            <stop offset=".9292" stop-color="#c9944d"/>
        </linearGradient>
        <linearGradient xlink:href="#a" id="l" x1="13.942" x2="13.942" y1="13.942" y2="276.06" gradientUnits="userSpaceOnUse"/>
        <linearGradient id="m" x1="105.96" x2="105.96" y1="105.96" y2="184.04" gradientUnits="userSpaceOnUse">
            <stop offset="0" stop-color="#e0af79"/>
            <stop offset=".3" stop-color="#ffdbb5"/>
            <stop offset=".56" stop-color="#b2762f"/>
            <stop offset=".78" stop-color="#ebba81"/>
        </linearGradient>
        <linearGradient xlink:href="#a" id="d" x1="2.177" x2="2.177" y1="172.88" y2="401.74" gradientUnits="userSpaceOnUse"/>
        <linearGradient id="e" x1="145" x2="145" y1="172.88" y2="376.44" gradientUnits="userSpaceOnUse">
            <stop offset=".41" stop-color="#c69462"/>
            <stop offset="1" stop-color="#21b6ae"/>
        </linearGradient>
        <mask id="g" maskUnits="userSpaceOnUse">
            <path fill="#fff" d="M0 0v402h290V0zm145 49.939A94.419 95.06 0 0 1 239.418 145 94.419 95.06 0 0 1 145 240.059 94.419 95.06 0 0 1 50.582 145 94.419 95.06 0 0 1 145 49.939"/>
        </mask>
    </defs>
    <g stroke="url(#d)" stroke-width="5.577" >
        <path d="m18.698 203.4-13.122-8.208 6.5613 53.352 6.5612 53.352c34.446 47.606 67.251 73.872 126.3 96.854 59.049-22.982 91.855-49.248 126.3-96.854l13.121-106.7-13.122 8.208"/>
        <path fill="url(#e)" d="m14.055 173.06 4.1791-4.1791 13.93-2.7861 5.572 9.7512 20.896 44.577 18.11 11.144 68.259 29.254 80.796-32.04 11.144-23.682 18.859-29.254 10.395-9.7512h5.5729l4.1779 6.9652-20.145 118.28c-30.217 41.831-58.996 64.91-110.8 85.104-51.803-20.194-80.582-43.273-110.8-85.104z"/>
        <path d="M145 287.17v47.947m30.67-64.637 13.942 11.154v26.49m.008-57.164 18.125 15.337v26.49l23.702 25.097m-131.07-66.924-18.125 15.337v26.49L58.55 317.884"/>
        <circle cx="145" cy="345.77" r="11.154"/>
        <circle cx="189.62" cy="320.67" r="11.154"/>
        <circle cx="100.39" cy="320.67" r="11.154"/>
        <path d="m114.33 270.48-13.942 11.154v26.49"/>
    </g>
    <g stroke-width="5.577">
        <path fill="url(#f)" d="M145-.0005a145 145 0 0 0-29.131 3.3242l-5.0684 15.945c-4.0576 12.764-18.629 18.799-30.523 12.643l-15.107-7.8184a145 145 0 0 0-41.076 41.076l7.8184 15.107c6.1562 11.894.119 26.466-12.645 30.523l-15.943 5.0684a145 145 0 0 0-3.3242 29.131 145 145 0 0 0 3.3242 29.131l15.943 5.0684c12.764 4.0574 18.801 18.629 12.645 30.523l-7.8184 15.107a145 145 0 0 0 41.076 41.076l15.107-7.8184c11.895-6.1562 26.466-.119 30.523 12.645l5.0684 15.943A145 145 0 0 0 145 289.9979a145.03 145.03 0 0 0 29.012-2.9492l5.1875-16.318c4.0574-12.764 18.63-18.801 30.523-12.645l15.209 7.8711a145 145 0 0 0 41.027-41.027l-7.8711-15.209c-6.1559-11.894-.119-26.466 12.645-30.523l16.318-5.1875a145 145 0 0 0 2.9492-29.012 145 145 0 0 0-3.3242-29.131l-15.943-5.0684c-12.764-4.0576-18.8-18.629-12.645-30.523l7.8184-15.107a145 145 0 0 0-41.076-41.076l-15.107 7.8184c-11.893 6.1559-26.466.121-30.523-12.643l-5.0684-15.945a145 145 0 0 0-29.131-3.3242z" mask="url(#g)"/>
        <path fill="url(#b)" d="M145 15.348a129.65 129.65 0 0 0-25.696 2.8967c-.235.6028-.5273 1.1488-.7288 1.7828l-1.0394 3.2735c-5.2068 16.378-23.908 24.122-39.171 16.223l-3.048-1.5778c-.6622-.3428-1.3277-.549-1.9918-.8344a129.65 129.65 0 0 0-36.214 36.214c.2854.664.4916 1.3296.8344 1.9919l1.5778 3.0478c7.8998 15.263.1538 33.964-16.225 39.171l-3.2715 1.0394c-.6349.2018-1.1812.4956-1.7848.7309a129.65 129.65 0 0 0-2.8946 25.693 129.65 129.65 0 0 0 2.8946 25.693c.6036.2353 1.1499.529 1.7848.7309l3.2715 1.0394c16.379 5.2068 24.125 23.908 16.225 39.171l-1.5778 3.0478c-.3428.6622-.549 1.3278-.8344 1.9919a129.65 129.65 0 0 0 36.214 36.214c.664-.2855 1.3296-.4917 1.9919-.8345l3.0479-1.5798c15.263-7.8988 33.964-.1522 39.171 16.227l1.0394 3.2715c.2017.6347.4956 1.1814.7309 1.7848a129.65 129.65 0 0 0 25.693 2.8946 129.65 129.65 0 0 0 25.693-2.8946c.2352-.6033.5291-1.1502.7309-1.7848l1.0394-3.2715c5.2068-16.379 23.908-24.126 39.171-16.227l3.0478 1.5798c.6622.3428 1.3278.549 1.9919.8345a129.65 129.65 0 0 0 36.214-36.214c-.2855-.6641-.4917-1.3296-.8345-1.992l-1.5798-3.0477c-7.8988-15.263-.1522-33.964 16.227-39.171l3.2715-1.0394c.6349-.2019 1.1812-.4956 1.7848-.731a129.65 129.65 0 0 0 2.8946-25.693 129.65 129.65 0 0 0-2.8946-25.693c-.6035-.2352-1.15-.529-1.7848-.7308l-3.2715-1.0394c-16.379-5.2065-24.126-23.908-16.227-39.171l1.5798-3.0478c.3428-.6623.549-1.3278.8345-1.992a129.65 129.65 0 0 0-36.214-36.214c-.6641.2855-1.3296.4917-1.992.8345l-3.0477 1.5778c-15.263 7.8996-33.964.1557-39.171-16.223l-1.0394-3.2735c-.2016-.634-.494-1.1799-.7289-1.7828a129.65 129.65 0 0 0-25.696-2.8967z" mask="url(#g)"/>
        <circle cx="145" cy="145" r="94.641" stroke="url(#c)"/>
        <circle cx="145" cy="145" r="69.891" fill="url(#b)" stroke="#1f5350"/>
        <circle cx="145" cy="145" r="51.66" stroke="#1f5350"/>
        <path fill="#000" fill-opacity=".2" d="M145-.0005a145 145 0 0 0-29.131 3.3242l-5.0684 15.945c-4.0576 12.764-18.629 18.798-30.523 12.643l-15.107-7.8184a145 145 0 0 0-41.076 41.076l7.8184 15.107c6.1562 11.894.119 26.466-12.645 30.523l-15.943 5.0684a145 145 0 0 0-3.3242 29.131 145 145 0 0 0 3.3242 29.131l15.943 5.0684c12.764 4.0574 18.801 18.629 12.645 30.523l-7.8184 15.107a145 145 0 0 0 41.076 41.076l15.107-7.8184c11.895-6.1562 26.466-.119 30.523 12.645l5.0684 15.943A145 145 0 0 0 145 289.9979a145.03 145.03 0 0 0 29.012-2.9492l5.1875-16.318c4.0574-12.764 18.63-18.801 30.523-12.645l15.209 7.8711a145 145 0 0 0 41.027-41.027l-7.8711-15.209c-6.1559-11.894-.119-26.466 12.645-30.523l16.318-5.1875a145 145 0 0 0 2.9492-29.012 145 145 0 0 0-3.3242-29.131l-15.943-5.0684c-12.764-4.0576-18.8-18.629-12.645-30.523l7.8184-15.107a145 145 0 0 0-41.076-41.076l-15.107 7.8184c-11.893 6.1559-26.466.121-30.523-12.643l-5.0684-15.945a145 145 0 0 0-29.131-3.3242zm-.0117 2.8594c8.7652-.0008 17.535.977 27 2.9336l4.5527 14.322c4.5645 14.359 21.083 21.199 34.463 14.273l13.572-7.0234a142.13 142.13 0 0 1 38.059 38.059l-7.0234 13.572c-6.9252 13.381-.0832 29.898 14.275 34.463l14.32 4.5527c3.9211 18.968 3.863 35.686.3516 53.865l-14.672 4.6641c-14.359 4.5644-21.201 21.082-14.275 34.463l7.0762 13.674a142.12 142.12 0 0 1-38.01 38.01l-13.674-7.0762c-13.38-6.9258-29.898-.0834-34.463 14.275l-4.6641 14.672c-18.218 3.5189-34.934 3.5618-53.865-.3516l-4.5527-14.32c-4.5647-14.358-21.082-21.201-34.463-14.275l-13.572 7.0234a142.13 142.13 0 0 1-38.059-38.059l7.0234-13.572c6.9256-13.381.0832-29.898-14.275-34.463l-14.32-4.5527c-3.9072-18.901-3.9133-35.046 0-53.977l14.32-4.5527c14.359-4.5647 21.201-21.082 14.275-34.463l-7.0234-13.572a142.13 142.13 0 0 1 38.059-38.059l13.572 7.0234c13.381 6.9251 29.898.0852 34.463-14.273l4.5527-14.322c9.4506-1.9536 18.211-2.9328 26.977-2.9336"/>
        <path fill="url(#c)" d="M145 15.347a129.65 129.65 0 0 0-25.695 2.8965c-.235.6028-.527 1.1492-.7285 1.7832l-1.0391 3.2734c-5.2068 16.378-23.909 24.122-39.172 16.223l-3.047-1.5762c-.6622-.3428-1.328-.5505-1.9921-.836a129.65 129.65 0 0 0-36.215 36.215c.2855.6642.4912 1.33.834 1.9923l1.578 3.0469c7.8999 15.263.1541 33.965-16.225 39.172l-3.2714 1.039c-.635.2019-1.1815.4952-1.7852.7305a129.65 129.65 0 0 0-2.8945 25.693 129.65 129.65 0 0 0 2.8945 25.693c.6036.2353 1.1503.5287 1.7852.7305l3.2715 1.041c16.379 5.2068 24.124 23.907 16.225 39.17l-1.5781 3.0469c-.3428.6622-.5485 1.328-.834 1.9922a129.65 129.65 0 0 0 36.215 36.215c.664-.2855 1.3299-.4913 1.9922-.834l3.0469-1.5801c15.263-7.8988 33.965-.1526 39.172 16.227l1.039 3.2715c.2018.6346.4953 1.1818.7305 1.7852a129.65 129.65 0 0 0 25.693 2.8945 129.65 129.65 0 0 0 25.693-2.8945c.2353-.6034.5288-1.1506.7305-1.7852l1.0391-3.2715c5.2068-16.379 23.909-24.125 39.172-16.227l3.047 1.5801c.6622.3427 1.328.5485 1.9921.834a129.65 129.65 0 0 0 36.215-36.215c-.2854-.6641-.4912-1.33-.834-1.9922l-1.58-3.047c-7.8989-15.263-.1527-33.963 16.227-39.17l3.2714-1.041c.6349-.2017 1.1816-.495 1.7852-.7304a129.65 129.65 0 0 0 2.8945-25.693 129.65 129.65 0 0 0-2.8945-25.693c-.6035-.2353-1.1503-.5286-1.7852-.7304l-3.2715-1.0391c-16.379-5.2065-24.125-23.909-16.227-39.172l1.5801-3.047c.3428-.6622.5486-1.328.834-1.9921a129.65 129.65 0 0 0-36.215-36.215c-.6641.2854-1.3299.4931-1.9922.8359l-3.0469 1.5762c-15.263 7.8996-33.965.1558-39.172-16.223l-1.039-3.2734c-.2016-.634-.4937-1.1804-.7286-1.7832a129.65 129.65 0 0 0-25.695-2.8965m0 5.582c7.253.0937 14.464.931 21.586 2.2871l.5625 1.7734c6.2211 19.569 28.813 28.924 47.049 19.486l1.8066-.9355a123.92 123.92 0 0 1 30.453 30.453l-.9355 1.8065v.002c-9.4375 18.236-.0794 40.828 19.49 47.049l1.7734.5626c1.3554 7.1217 2.1937 14.333 2.287 21.586-.0933 7.2528-.9315 14.464-2.287 21.586l-1.7735.5625c-19.57 6.221-28.928 28.812-19.49 47.049v.002l.9356 1.8066a123.92 123.92 0 0 1-30.453 30.453l-1.8047-.9376h-.002c-18.236-9.4375-40.828-.0793-47.049 19.49l-.5625 1.7734c-7.1219 1.3555-14.333 2.1938-21.586 2.287-7.2528-.0933-14.464-.9315-21.586-2.287l-.5625-1.7734c-6.2209-19.57-28.812-28.928-47.049-19.49h-.002l-1.8047.9375c-11.858-8.3025-22.153-18.597-30.455-30.455l.9355-1.8047v-.002c9.4386-18.236.0809-40.828-19.488-47.049l-1.7734-.5625c-1.3555-7.1218-2.1938-14.333-2.287-21.586.0932-7.2528.9315-14.464 2.287-21.586l1.7734-.5625c19.569-6.221 28.927-28.812 19.488-47.049l-.9355-1.8066c8.3025-11.858 18.597-22.153 30.455-30.455l1.8066.9355c18.236 9.4381 40.828.0827 47.049-19.486l.5625-1.7734c7.1219-1.356 14.333-2.1934 21.586-2.2871z"/>
    </g>
    <path fill="url(#b)" stroke="url(#l)" stroke-miterlimit="10" stroke-width="8.655" d="m159.81 130.19 89.886 14.806-89.886 14.806-14.806 89.886-14.806-89.886-89.886-14.806 89.886-14.806 14.806-89.886z"/>
    <path fill="url(#m)" d="m145 105.96 5.521 33.518 33.518 5.521-33.518 5.521L145 184.037l-5.52-33.517-33.518-5.521 33.518-5.521z"/>
</svg>
