<svg xmlns="http://www.w3.org/2000/svg" viewBox="0 0 1816 1816">
  <defs>
    <linearGradient id="a" x1="908" x2="908" y1="1816" gradientUnits="userSpaceOnUse">
      <stop stop-color="#592E0F" offset="0"/>
      <stop stop-color="#B5854E" offset=".3473"/>
      <stop stop-color="#F0C795" offset=".6007"/>
      <stop stop-color="#B07F47" offset=".7161"/>
      <stop stop-color="#FFDFBE" offset="1"/>
    </linearGradient>
    <linearGradient id="e" x1="908" x2="908" y1="76.5" y2="1739.5" gradientUnits="userSpaceOnUse">
      <stop stop-color="#378A90" offset=".515"/>
      <stop stop-color="#24595D" offset=".7575"/>
      <stop stop-color="#10282A" offset="1"/>
    </linearGradient>
    <linearGradient id="i" x1="908" x2="908" y1="76.5" y2="1739.5" gradientUnits="userSpaceOnUse">
      <stop stop-color="#F25D2A" offset="0"/>
      <stop stop-color="#361205" offset="1"/>
    </linearGradient>
    <linearGradient id="d">
      <stop stop-color="#FFCEA8" offset="0"/>
      <stop stop-color="#9C6C47" offset="1"/>
    </linearGradient>
    <linearGradient id="n" x1="908" x2="908" y1="76.5" y2="1739.5" gradientUnits="userSpaceOnUse">
      <stop stop-color="#D2D2D2" offset="0"/>
      <stop stop-color="#1D3335" offset="1"/>
    </linearGradient>
    <linearGradient id="r" x1="908" x2="908" y1="76.5" y2="1739.5" gradientUnits="userSpaceOnUse">
      <stop stop-color="#E29650" offset="0"/>
      <stop stop-color="#2A2310" offset="1"/>
    </linearGradient>

    <linearGradient id="u" x1="317.49" x2="317.49" y1="317.49" y2="1498.5" gradientUnits="userSpaceOnUse">
      <stop stop-color="#FFDEC4" offset="0"/>
      <stop stop-color="#9C6C47" offset=".9999"/>
      <stop stop-color="#E2AD77" offset="1"/>
    </linearGradient>

    <linearGradient id="j" x1="596.73" x2="596.73" y1="987.88" y2="1199.1" gradientUnits="userSpaceOnUse" href="#d"/>
    <linearGradient id="k" x1="705.07" x2="705.07" y1="1090.7" y2="1228.4" gradientUnits="userSpaceOnUse" href="#d"/>
    <linearGradient id="l" x1="792.65" x2="792.65" y1="1181.4" y2="1263.2" gradientUnits="userSpaceOnUse" href="#d"/>
    <linearGradient id="m" x1="669.31" x2="669.31" y1="535.41" y2="1280.6" gradientUnits="userSpaceOnUse" href="#d"/>
    <linearGradient id="p" x1="637.28" x2="1070.5" y1="1156" y2="758.04" gradientUnits="userSpaceOnUse" href="#d"/>
    <linearGradient id="f" x1="558.2" x2="558.2" y1="827.51" y2="1192.2" gradientUnits="userSpaceOnUse" href="#d"/>
    <linearGradient id="h" x1="907.43" x2="907.43" y1="570.45" y2="1241" gradientUnits="userSpaceOnUse" href="#d"/>
    <linearGradient id="q" x1="1120.3" x2="854.6" y1="625.57" y2="1009.1" gradientUnits="userSpaceOnUse" href="#d"/>
    <linearGradient id="o" x1="941.49" x2="941.49" y1="632.8" y2="1005.4" gradientUnits="userSpaceOnUse" href="#d"/>
    <linearGradient id="s" x1="958.62" x2="958.62" y1="563.42" y2="860.6" gradientUnits="userSpaceOnUse" href="#d"/>
    <linearGradient id="t" x1="527.04" x2="527.04" y1="706.51" y2="1214.7" gradientUnits="userSpaceOnUse" href="#d"/>

    <filter id="z">
      <feDropShadow dx="0" dy="9" flood-color="#000" flood-opacity=".5" stdDeviation="20"/>
    </filter>

    <symbol id="guild-border">
      <path d="m908 0 786.35 454v908l-786.35 454-786.35-454v-908z" fill="url(#a)"/>
    </symbol>

    <symbol id="guild-gear">
      <path d="m908 317.49a590.53 590.53 0 0 0-118.63 13.539l-20.641 64.936c-16.525 51.979-75.865 76.556-124.3 51.486l-61.523-31.84a590.51 590.51 0 0 0-167.28 167.28l31.84 61.523c25.071 48.439 0.4848 107.78-51.494 124.3l-64.928 20.641a590.5 590.5 0 0 0-13.539 118.63 590.5 590.5 0 0 0 13.539 118.63l64.928 20.641c51.979 16.524 76.565 75.866 51.494 124.3l-31.84 61.523a590.51 590.51 0 0 0 167.28 167.28l61.523-31.84c48.44-25.071 107.78-0.4849 124.3 51.494l20.641 64.928a590.53 590.53 0 0 0 118.63 13.539 590.58 590.58 0 0 0 118.15-12.012l21.125-66.455c16.524-51.979 75.872-76.565 124.31-51.494l61.938 32.055a590.5 590.5 0 0 0 167.08-167.08l-32.055-61.938c-25.07-48.439-0.485-107.78 51.494-124.3l66.455-21.127a590.5 590.5 0 0 0 12.012-118.15 590.52 590.52 0 0 0-13.539-118.63l-64.928-20.641c-51.979-16.524-76.564-75.865-51.494-124.3l31.84-61.523a590.51 590.51 0 0 0-167.28-167.28l-61.523 31.84c-48.434 25.07-107.78 0.4927-124.31-51.486l-20.639-64.936a590.53 590.53 0 0 0-118.63-13.539m0 164.16a426.35 426.35 0 0 1 426.35 426.35 426.35 426.35 0 0 1-426.35 426.35 426.35 426.35 0 0 1-426.35-426.35 426.35 426.35 0 0 1 426.35-426.35" fill="url(#u)" filter="url(#z)"/>
    </symbol>

    <symbol id="guild-atlantis">
      <path d="m908 76.5 720.1 415.75v831.5l-720.1 415.75-720.1-415.75v-831.5z" fill="url(#e)"/>
      <path d="m1111.8 827.81c0.024 0.8195 0.044 1.6392 0.061 2.459 0 163.05-130.89 295.23-292.35 295.23-116.65-0.1676-216.08-73.714-262.18-181.92 21.575 141.21 135.91 248.82 277.4 248.92 158.46-1e-4 286.91-129.72 286.91-289.74-0.026-25.311-3.336-50.509-9.8458-74.951z" fill="url(#f)" filter="url(#z)"/>
      <path d="m907.13 553.3c-170.57 0-263.89 117.46-283.44 145.01-23.767 33.5-31.308 83.051-32.119 135.77 14.183 67.226 46.182 126.31 108.64 151.02 46.034 18.212 86.737-7.971 104.46-54.537 9.4837-24.917 10.945-54.382-4.1778-75.51-11.539-16.122-37.595-15.916-50.141 0-21.307 27.032-7.4777 47.343 25.07 50.34-5.634 39.026-27.92 51.612-66.856 37.756-28.215-19.358-36.511-48.703-25.07-92.291 7.17-27.318 19.768-49.815 37.606-71.314 19.11-23.033 4.179-41.95 8.3574-75.51 4.1785-33.561 26.415-40.264 41.785-58.73 53.453-64.22 117.51-72.831 188.03-29.365-31.483-0.832-63.552 1.0849-91.926 16.779-92.09 50.938-83.568 159.41-25.07 188.78 54.32 25.17 111.89-61.687 75.211-104.88-12.505-14.724-46.935 10.979-29.753 43.208-9.617 10.328-30.514 12.692-35.52-0.6977-22.329-59.718 8.7495-109.32 86.168-113.82 52.971-3.083 79.194 14.226 83.988 71.314 3.8921 46.347-34.928 109.98-58.215 115.81 34.93 5.821 133.9-52.395 116.3-136.78 177.02 120.58 113.43 466.55-124.16 557.32-9.2964 3.6419-18.759 6.9145-28.406 9.6602-0.0717 0.017-0.1412 0.041-0.213 0.059 9e-3 -3e-4 0.0169 0 0.0255 0-0.0165 0-0.0324 0.011-0.0488 0.016 0.1887-0.011 0.3738-0.036 0.5625-0.047 28.56-1.0088 55.799-6.125 81.437-14.725 144.13-44.312 249.02-179.59 249.02-339.63 0-196.06-157.39-354.99-351.54-354.99z" fill="url(#h)" filter="url(#z)"/>
    </symbol>

    <symbol id="guild-centre-of-the-earth">
      <path d="m908 76.5 720.1 415.75v831.5l-720.1 415.75-720.1-415.75v-831.5z" fill="url(#i)"/>
      <path d="m908 987.88c-171.91 0-311.27 51.782-311.27 115.66 0.152 38.56 51.906 74.146 136.14 95.441v-2.1919c-47.066-15.631-74.422-37.105-74.519-59.836-5e-4 -46.491 111.77-84.18 249.65-84.18 137.88-1e-4 249.65 37.689 249.65 84.18-0.1413 22.736-27.577 44.162-74.519 59.758v2.3608c84.196-21.3 136.13-56.884 136.14-95.531 0-63.876-139.36-115.66-311.27-115.66" fill="url(#j)" filter="url(#z)"/>
      <path d="m908 1090.7c-112.07-1e-4 -202.92 33.758-202.92 75.4 0.099 25.138 33.839 48.337 88.755 62.22v-1.4289c-30.683-10.19-48.517-24.19-48.58-39.009-3e-4 -30.308 72.866-54.878 162.75-54.878 89.885 0 162.75 24.57 162.75 54.878-0.092 14.822-17.978 28.79-48.58 38.958v1.539c54.889-13.886 88.744-37.084 88.755-62.279 0-41.642-90.853-75.4-202.92-75.4" fill="url(#k)" filter="url(#z)"/>
      <path d="m908 1181.4c-63.705 0-115.35 19.189-115.35 42.86 0.0645 16.365 25.203 31.287 64.789 38.46-26.133-5.7507-41.907-15.556-41.952-26.079-2e-4 -17.228 41.419-31.195 92.512-31.195s92.513 13.966 92.512 31.195c-0.067 10.806-16.715 20.831-44.003 26.497 40.752-7.0186 66.832-22.189 66.839-38.878 0-23.671-51.644-42.86-115.35-42.86" fill="url(#l)" filter="url(#z)"/>
      <path d="m908 535.42c7.956 121.5 7.956 275.39 39.781 315.89 31.825 40.499 95.471 40.499 198.91 48.598-103.44 8.1-167.09 8.1-198.91 48.598-31.825 40.496-31.825 210.6-39.781 332.09-7.956-121.49-7.956-291.59-39.781-332.09-31.825-40.498-95.476-40.498-198.91-48.598 103.43-8.099 167.08-8.099 198.91-48.598 31.825-40.498 31.825-194.39 39.781-315.89" fill="url(#m)" filter="url(#z)"/>
    </symbol>

    <symbol id="guild-moon">
      <path d="m908 76.5 720.1 415.75v831.5l-720.1 415.75-720.1-415.75v-831.5z" fill="url(#n)"/>
      <path d="m1063.7 632.8c4.07 60.748 4.07 137.7 20.38 157.94 16.3 20.249 48.9 20.249 101.87 24.299-52.97 4.05-85.57 4.05-101.87 24.299-16.31 20.25-16.31 105.3-20.38 166.05-4.08-60.753-4.08-145.8-20.38-166.05-16.3-20.249-48.898-20.249-101.88-24.299 52.977-4.05 85.575-4.05 101.88-24.299s16.3-97.196 20.38-157.94" fill="url(#o)" filter="url(#z)"/>
      <path d="m880.05 602.25c-180.13-4e-4 -326.15 146.02-326.15 326.15-3e-4 180.13 146.02 326.15 326.15 326.15 130.09-0.1824 247.63-77.653 299.09-197.13-36.251 57.251-90.858 99.042-153.46 119.71-49.968 14.981-116.74-50.461-136.07-36.719-25.994 18.477-28.316 31.559-50.807 34.369-78.796 2.08-156.17-61.608-157-137.82 7.7179 40.34 43.264 87.179 79.111 103.45 88.554 48.23 149.51-29.991 160.9-102.21-280.51 259.66-122.96-248.09-235.92-152.76 1.1893-95.661 32.868-271.25 249.43-271.24 14.286 6e-4 28.551 1.0655 42.68 3.1797a326.15 326.15 0 0 0-97.961-15.131" fill="url(#p)" filter="url(#z)"/>
      <path d="m1109.8 1185.9c34.95-23.16 66.18-53.2 91.54-89.73 107.3-154.56 68.85-366.74-85.87-473.93-129.3-89.565-298.87-77.472-413.73 19.104 112.94-74.851 264.75-77.904 382.9 3.95 154.73 107.18 193.18 319.37 85.88 473.94-17.64 25.41-38.12 47.67-60.72 66.67" fill="url(#q)" filter="url(#z)"/>
    </symbol>

    <symbol id="guild-mysterious-island">
      <path d="m908 76.5 720.1 415.75v831.5l-720.1 415.75-720.1-415.75v-831.5z" fill="url(#r)"/>
      <path d="m1057.7 563.42c3.3086 48.453 3.3086 109.83 16.515 125.98 13.206 16.151 39.618 16.151 82.545 19.381-42.927 3.2301-69.339 3.2301-82.545 19.381-13.206 16.152-13.206 83.986-16.515 132.44-3.2992-48.453-3.2992-116.29-16.505-132.44-13.206-16.151-39.626-16.151-82.552-19.381 42.926-3.2301 69.346-3.2301 82.552-19.381 13.206-16.152 13.206-77.525 16.505-125.98" fill="url(#s)" filter="url(#z)"/>
      <path d="m796.91 706.56c-25.518 56.927-50.702 54.669-74.316 52.553-21.814-1.9558-42.289-3.7903-60.451 41.252-13.608 33.747-30.901 26.289-49.154 18.416-30.117-12.989-62.847-27.104-85.947 140.88h761.83c1.7583-94.593-23.727-176.21-87.498-219.78-37.463 144.82-100.87 110.63-157.15 80.285-40.837-22.025-77.921-42.022-98.586 9.9394-6.6805-8.4558-13.307-17.283-19.971-26.16-36.697-48.888-74.533-99.293-128.76-97.389m165.81 308.13c-31.202 12.771-60.154 14.256-85.664 10.938l-83.533 22.082h473.28c-8.5455-8.659-23.773-18.349-46.99-29.135-89.568 28.709-125.3 19.587-166.83 8.9805-24.2-6.1823-50.356-12.865-90.266-12.865m-128.42 88.057c-24.132 0-39.95 6.6826-54.578 12.856-25.112 10.606-46.719 19.738-100.87-8.9707-14.042 10.786-23.246 20.476-28.414 29.135h286.17l-50.51-22.084c-15.425 3.3086-32.929 1.8262-51.795-10.936" fill="url(#t)" filter="url(#z)"/>
    </symbol>
  </defs>
</svg>
