<svg width="65" height="63" viewBox="0 0 65 63" fill="none" xmlns="http://www.w3.org/2000/svg">
<g id="elements">
<path id="Vector" d="M24.9212 52.3785L24.2987 54.7998L24.9212 52.3785ZM20.9547 47.6388L18.5756 48.4067L20.9547 47.6388ZM21.9188 50.1438L19.7891 51.4532L21.9188 50.1438ZM44.0404 47.6388L46.4195 48.4067L44.0404 47.6388ZM43.0763 50.1438L45.206 51.4532L43.0763 50.1438ZM40.074 52.3785L40.6964 54.7998L40.074 52.3785ZM43.4186 44.918L44.3474 42.5969L43.4186 44.918ZM44.3715 46.2832L46.8688 46.1673L44.3715 46.2832ZM21.5765 44.918L20.6478 42.5969L21.5765 44.918ZM20.6236 46.2832L18.1263 46.1673L20.6236 46.2832ZM42.4515 53.0078C42.7149 51.6525 41.8298 50.3402 40.4744 50.0768C39.1191 49.8133 37.8068 50.6985 37.5433 52.0538L42.4515 53.0078ZM39.6741 54.1941L37.22 53.7171V53.7171L39.6741 54.1941ZM25.3207 54.1941L27.7748 53.7171L27.7748 53.7171L25.3207 54.1941ZM27.4515 52.0538C27.188 50.6985 25.8758 49.8133 24.5204 50.0768C23.1651 50.3402 22.2799 51.6525 22.5433 53.0078L27.4515 52.0538ZM29.0309 59.9892L28.2277 62.3567L29.0309 59.9892ZM26.2471 57.641L24.0576 58.8477H24.0576L26.2471 57.641ZM38.7477 57.641L40.9372 58.8477L40.9372 58.8477L38.7477 57.641ZM35.964 59.9892L36.7671 62.3567L35.964 59.9892ZM22.9265 47.3137H42.0686V42.3137H22.9265V47.3137ZM37.4679 50.0308H27.5272V55.0308H37.4679V50.0308ZM27.5272 50.0308C26.045 50.0308 25.7559 50.0118 25.5436 49.9572L24.2987 54.7998C25.2717 55.0499 26.3249 55.0308 27.5272 55.0308V50.0308ZM18.5756 48.4067C18.9588 49.594 19.2663 50.6028 19.7891 51.4532L24.0485 48.8344C23.9166 48.6198 23.7996 48.3136 23.3339 46.8709L18.5756 48.4067ZM25.5436 49.9572C24.9444 49.8032 24.403 49.411 24.0485 48.8344L19.7891 51.4532C20.8062 53.1073 22.4149 54.3155 24.2987 54.7998L25.5436 49.9572ZM41.6612 46.8709C41.1955 48.3136 41.0785 48.6198 40.9466 48.8344L45.206 51.4532C45.7288 50.6028 46.0363 49.594 46.4195 48.4067L41.6612 46.8709ZM37.4679 55.0308C38.6702 55.0308 39.7234 55.0499 40.6964 54.7998L39.4515 49.9572C39.2392 50.0118 38.9502 50.0308 37.4679 50.0308V55.0308ZM40.9466 48.8344C40.5921 49.411 40.0507 49.8032 39.4515 49.9572L40.6964 54.7998C42.5802 54.3155 44.1889 53.1073 45.206 51.4532L40.9466 48.8344ZM42.0686 47.3137C42.2544 47.3137 42.3975 47.3138 42.5203 47.3152C42.6434 47.3166 42.7186 47.3192 42.7664 47.3221C42.8147 47.3251 42.8044 47.3266 42.7601 47.3187C42.7108 47.3099 42.6132 47.2884 42.4899 47.2391L44.3474 42.5969C43.8504 42.398 43.3831 42.3504 43.0702 42.3314C42.7622 42.3126 42.4005 42.3137 42.0686 42.3137V47.3137ZM46.4195 48.4067C46.5253 48.079 46.6382 47.7323 46.7163 47.4327C46.7955 47.1289 46.8928 46.6832 46.8688 46.1673L41.8742 46.3992C41.8636 46.1715 41.9102 46.0478 41.8779 46.1718C41.8641 46.2247 41.8415 46.3031 41.8035 46.4255C41.7655 46.5477 41.7199 46.6892 41.6612 46.8709L46.4195 48.4067ZM42.4899 47.2391C42.0984 47.0824 41.8897 46.7329 41.8742 46.3992L46.8688 46.1673C46.7967 44.6144 45.841 43.1945 44.3474 42.5969L42.4899 47.2391ZM22.9265 42.3137C22.5946 42.3137 22.2329 42.3126 21.925 42.3314C21.612 42.3504 21.1447 42.398 20.6478 42.5969L22.5052 47.2391C22.3819 47.2884 22.2843 47.3099 22.235 47.3187C22.1907 47.3266 22.1805 47.3251 22.2287 47.3221C22.2765 47.3192 22.3518 47.3166 22.4748 47.3152C22.5976 47.3138 22.7407 47.3137 22.9265 47.3137V42.3137ZM23.3339 46.8709C23.2752 46.6892 23.2296 46.5477 23.1916 46.4255C23.1536 46.3031 23.131 46.2247 23.1172 46.1718C23.0849 46.0478 23.1315 46.1715 23.1209 46.3992L18.1263 46.1673C18.1024 46.6832 18.1997 47.1289 18.2788 47.4327C18.3569 47.7323 18.4698 48.079 18.5756 48.4067L23.3339 46.8709ZM20.6478 42.5969C19.1541 43.1945 18.1984 44.6144 18.1263 46.1673L23.1209 46.3992C23.1054 46.7329 22.8967 47.0824 22.5052 47.2391L20.6478 42.5969ZM37.5433 52.0538L37.22 53.7171L42.1282 54.6711L42.4515 53.0078L37.5433 52.0538ZM27.7748 53.7171L27.4515 52.0538L22.5433 53.0078L22.8667 54.6711L27.7748 53.7171ZM32.4974 57.7479C30.5046 57.7479 30.1101 57.7154 29.834 57.6218L28.2277 62.3567C29.4768 62.7804 30.885 62.7479 32.4974 62.7479V57.7479ZM22.8666 54.6711C23.1853 56.3104 23.4252 57.7002 24.0576 58.8477L28.4366 56.4343C28.2769 56.1445 28.1632 55.7155 27.7748 53.7171L22.8666 54.6711ZM29.834 57.6218C29.258 57.4264 28.7542 57.0107 28.4366 56.4343L24.0576 58.8477C24.9648 60.4938 26.4456 61.7521 28.2277 62.3567L29.834 57.6218ZM37.22 53.7171C36.8316 55.7155 36.718 56.1445 36.5582 56.4343L40.9372 58.8477C41.5697 57.7002 41.8096 56.3104 42.1282 54.6711L37.22 53.7171ZM32.4974 62.7479C34.1098 62.7479 35.518 62.7804 36.7671 62.3567L35.1608 57.6218C34.8847 57.7154 34.4903 57.7479 32.4974 57.7479V62.7479ZM36.5582 56.4343C36.2406 57.0107 35.7368 57.4264 35.1608 57.6218L36.7671 62.3567C38.5493 61.7521 40.0301 60.4938 40.9372 58.8477L36.5582 56.4343Z" fill="white"/>
<path id="Ellipse 1590" d="M15.2606 40.125C14.157 37.6795 13.5416 34.9588 13.5416 32.0919C13.5416 21.4442 22.0296 12.8125 32.5 12.8125C42.9704 12.8125 51.4583 21.4442 51.4583 32.0919C51.4583 34.9588 50.843 37.6795 49.7393 40.125" stroke="white" stroke-width="5" stroke-linecap="round"/>
<path id="Vector 4602" d="M32.5 2.75V5.625" stroke="white" stroke-width="5" stroke-linecap="round" stroke-linejoin="round"/>
<path id="Vector 4611" d="M61.6666 31.5L58.75 31.5" stroke="white" stroke-width="5" stroke-linecap="round" stroke-linejoin="round"/>
<path id="Vector 4612" d="M6.25 31.5L3.33333 31.5" stroke="white" stroke-width="5" stroke-linecap="round" stroke-linejoin="round"/>
<path id="Vector 4613" d="M53.1217 11.1708L51.0593 13.2037" stroke="white" stroke-width="5" stroke-linecap="round" stroke-linejoin="round"/>
<path id="Vector 4616" d="M13.9404 13.2048L11.878 11.1719" stroke="white" stroke-width="5" stroke-linecap="round" stroke-linejoin="round"/>
</g>
</svg>
