<?xml version="1.0" standalone="no"?>
<!DOCTYPE svg PUBLIC "-//W3C//DTD SVG 20010904//EN"
 "http://www.w3.org/TR/2001/REC-SVG-20010904/DTD/svg10.dtd">
<svg version="1.0" xmlns="http://www.w3.org/2000/svg"
 width="1157.000000pt" height="1280.000000pt" viewBox="0 0 1157.000000 1280.000000"
 preserveAspectRatio="xMidYMid meet" transform="rotate(180)">
<g transform="translate(0.000000,1280.000000) scale(0.100000,-0.100000)"
fill="#000000" stroke="none">
<path d="M4589 12796 c-2 -3 -164 -9 -359 -15 -1057 -33 -1881 -101 -2610
-216 -574 -90 -980 -196 -1245 -325 -141 -68 -231 -133 -287 -206 -40 -54 -88
-174 -88 -222 0 -32 26 -115 74 -239 54 -139 66 -211 66 -398 0 -137 5 -193
30 -342 31 -181 257 -1423 619 -3403 645 -3526 942 -5298 1020 -6065 20 -196
25 -212 104 -330 375 -558 1241 -923 2387 -1005 85 -6 199 -15 253 -20 127
-13 325 -13 501 0 78 6 204 15 281 21 740 54 1422 223 1916 475 247 126 404
239 554 395 137 144 133 134 172 406 78 545 185 1261 628 4191 378 2506 546
3632 674 4527 101 699 131 938 131 1036 0 129 31 190 181 354 153 167 232 308
233 417 1 47 -3 61 -24 83 -14 15 -41 34 -60 42 -19 9 -62 40 -95 71 -257 239
-777 420 -1580 551 -599 98 -1294 162 -2080 191 -159 6 -398 15 -531 20 -240
10 -857 14 -865 6z"/>
</g>
</svg>
