<svg width="52" height="52" viewBox="0 0 52 52" fill="none" xmlns="http://www.w3.org/2000/svg">
<g id="icon">
<path id="Vector" d="M38.8746 0.407227H13.5754C6.60039 0.407227 0.925781 6.08184 0.925781 13.0568V38.356C0.925781 45.331 6.60039 51.0056 13.5754 51.0056H26.225V29.923H23.2734C22.1091 29.923 21.1651 28.979 21.1651 27.8147C21.1651 26.6504 22.1091 25.7064 23.2734 25.7064H26.225V21.9644C26.225 17.0527 30.2208 13.0568 35.1325 13.0568H39.7179C40.8822 13.0568 41.8262 14.0008 41.8262 15.1651C41.8262 16.3294 40.8822 17.2734 39.7179 17.2734H35.1325C32.5458 17.2734 30.4415 19.3777 30.4415 21.9644V25.7064H38.8746C40.0389 25.7064 40.9828 26.6504 40.9828 27.8147C40.9828 28.979 40.0389 29.923 38.8746 29.923H30.4415V51.0056H38.8746C45.8496 51.0056 51.5242 45.331 51.5242 38.356V13.0568C51.5242 6.08184 45.8496 0.407227 38.8746 0.407227Z" fill="white"/>
</g>
</svg>
