<svg width="52" height="52" viewBox="0 0 52 52" fill="none" xmlns="http://www.w3.org/2000/svg">
<g id="icon">
<path id="Vector" d="M38.8771 51.0066H13.5779C6.60289 51.0066 0.928276 45.332 0.928276 38.357V13.0578C0.928276 6.08281 6.60289 0.408203 13.5779 0.408203H38.8771C45.8521 0.408203 51.5267 6.08281 51.5267 13.0578V38.357C51.5267 45.332 45.8521 51.0066 38.8771 51.0066ZM13.5779 4.62474C8.92788 4.62474 5.14481 8.40781 5.14481 13.0578V38.357C5.14481 43.007 8.92788 46.7901 13.5779 46.7901H38.8771C43.5271 46.7901 47.3101 43.007 47.3101 38.357V13.0578C47.3101 8.40781 43.5271 4.62474 38.8771 4.62474H13.5779Z" fill="white"/>
<path id="Vector_2" d="M26.2273 37.9364C19.4847 37.9364 13.9993 32.4509 13.9993 25.7084C13.9993 18.9659 19.4847 13.4805 26.2273 13.4805C32.9698 13.4805 38.4552 18.9659 38.4552 25.7084C38.4552 32.4509 32.9698 37.9364 26.2273 37.9364ZM26.2273 17.5047C21.7038 17.5047 18.0236 21.1849 18.0236 25.7084C18.0236 30.2319 21.7038 33.9121 26.2273 33.9121C30.7508 33.9121 34.431 30.2319 34.431 25.7084C34.431 21.1849 30.7508 17.5047 26.2273 17.5047Z" fill="white"/>
<path id="Vector_3" d="M40.1418 14.7449C41.7719 14.7449 43.0934 13.4235 43.0934 11.7934C43.0934 10.1633 41.7719 8.8418 40.1418 8.8418C38.5117 8.8418 37.1903 10.1633 37.1903 11.7934C37.1903 13.4235 38.5117 14.7449 40.1418 14.7449Z" fill="white"/>
</g>
</svg>
