<svg width="52" height="52" viewBox="0 0 52 52" fill="none" xmlns="http://www.w3.org/2000/svg">
<g id="icon">
<path id="Vector" d="M38.8694 0.408203H13.5702C6.59523 0.408203 0.920624 6.08281 0.920624 13.0578V38.357C0.920624 45.332 6.59523 51.0066 13.5702 51.0066H38.8694C45.8444 51.0066 51.519 45.332 51.519 38.357V13.0578C51.519 6.08281 45.8444 0.408203 38.8694 0.408203ZM17.7868 36.2487C17.7868 37.4131 16.8428 38.357 15.6785 38.357C14.5142 38.357 13.5702 37.4131 13.5702 36.2487V21.3003C13.5702 20.136 14.5142 19.192 15.6785 19.192C16.8428 19.192 17.7868 20.136 17.7868 21.3003V36.2487ZM17.7868 14.7444C17.7868 15.9087 16.8428 16.8527 15.6785 16.8527C14.5142 16.8527 13.5702 15.9087 13.5702 14.7444V14.3228C13.5702 13.1584 14.5142 12.2145 15.6785 12.2145C16.8428 12.2145 17.7868 13.1584 17.7868 14.3228V14.7444ZM38.8694 36.2487C38.8694 37.4131 37.9255 38.357 36.7612 38.357C35.5968 38.357 34.6529 37.4131 34.6529 36.2487V27.215C34.6529 25.2101 33.8214 23.8968 32.372 23.6121C30.4473 23.234 27.7426 24.7025 26.296 28.2407C26.2749 28.2919 26.2443 28.3354 26.2198 28.3838V36.2487C26.2198 37.4131 25.2759 38.357 24.1116 38.357C22.9472 38.357 22.0033 37.4131 22.0033 36.2487V21.4942C22.0033 20.3299 22.9472 19.386 24.1116 19.386C25.2416 19.386 26.1566 20.2776 26.2097 21.3945C28.4759 19.6106 31.0775 19.0602 33.185 19.4742C36.6383 20.1531 38.8694 23.1913 38.8694 27.215V36.2487Z" fill="white"/>
</g>
</svg>
