<svg width="64" height="64" viewBox="0 0 64 64" fill="none" xmlns="http://www.w3.org/2000/svg">
<g id="elements">
<path id="Vector" d="M34.415 14.5027C34.738 13.5897 34.9139 12.607 34.9139 11.5833C34.9139 6.75076 30.9963 2.83325 26.1639 2.83325C21.3314 2.83325 17.4139 6.75076 17.4139 11.5833C17.4139 12.607 17.5897 13.5896 17.9127 14.5027C11.2488 14.527 7.69251 14.7636 5.39333 17.0627C3.09438 19.3617 2.85768 22.9175 2.83331 29.5802C3.74479 29.2583 4.72554 29.0833 5.74718 29.0833C10.5797 29.0833 14.4972 33.0008 14.4972 37.8333C14.4972 42.6657 10.5797 46.5833 5.74718 46.5833C4.72554 46.5833 3.74479 46.4082 2.83331 46.0864C2.85768 52.749 3.09438 56.3048 5.39333 58.6038C7.69228 60.9027 11.2481 61.1394 17.9108 61.1638C17.589 60.2523 17.4139 59.2716 17.4139 58.2499C17.4139 53.4174 21.3314 49.4999 26.1639 49.4999C30.9963 49.4999 34.9139 53.4174 34.9139 58.2499C34.9139 59.2716 34.7388 60.2523 34.4169 61.1638C41.0796 61.1394 44.6354 60.9027 46.9344 58.6038C49.2335 56.3046 49.4701 52.7483 49.4944 46.0844C50.4075 46.4074 51.3901 46.5833 52.4139 46.5833C57.2463 46.5833 61.1639 42.6657 61.1639 37.8333C61.1639 33.0008 57.2463 29.0833 52.4139 29.0833C51.3901 29.0833 50.4075 29.2591 49.4944 29.5821C49.4701 22.9182 49.2335 19.3619 46.9344 17.0627C44.6352 14.7636 41.0789 14.527 34.415 14.5027Z" stroke="white" stroke-width="5" stroke-linejoin="round"/>
</g>
</svg>
