<svg width="64" height="59" viewBox="0 0 64 59" fill="none" xmlns="http://www.w3.org/2000/svg">
<g id="elements">
<path id="Vector 5594" d="M14.5 20.6538V43.4105C14.5 48.7743 14.5 51.4562 16.2085 53.1225C20.0414 56.8606 43.2459 57.5557 47.7915 53.1225C49.5 51.4562 49.5 48.7743 49.5 43.4105V20.6538" stroke="white" stroke-width="5" stroke-linecap="round"/>
<path id="Vector" d="M13.7438 29.5384L5.87603 21.8062C3.84756 19.8127 2.83333 18.816 2.83333 17.5774C2.83333 16.3388 3.84756 15.3421 5.87602 13.3486L11.7122 7.61302C12.7234 6.61924 13.229 6.12234 13.8317 5.75626C14.4345 5.39018 15.1128 5.16796 16.4695 4.72353L21.2699 3.15097C21.9718 2.92104 22.3228 2.80608 22.5614 2.9443C22.8 3.08252 22.8754 3.48067 23.0261 4.27698C23.8146 8.44286 27.5325 11.5969 32 11.5969C36.4675 11.5969 40.1854 8.44286 40.9739 4.27698C41.1246 3.48067 41.1999 3.08252 41.4386 2.9443C41.6772 2.80608 42.0282 2.92104 42.73 3.15097L47.5305 4.72353C48.8872 5.16796 49.5655 5.39018 50.1683 5.75626C50.771 6.12235 51.2766 6.61924 52.2878 7.61302L58.124 13.3486C60.1524 15.3421 61.1667 16.3388 61.1667 17.5774C61.1667 18.816 60.1524 19.8127 58.124 21.8062L50.2562 29.5384" stroke="white" stroke-width="5" stroke-linecap="round" stroke-linejoin="round"/>
</g>
</svg>
