<svg width="72" height="75" viewBox="0 0 72 75" fill="none" xmlns="http://www.w3.org/2000/svg">
<g id="elements">
<path id="Vector" d="M13.9183 46.445C14.1412 45.6132 14.3307 44.8128 14.4899 44.0432M14.4899 44.0432C15.9363 37.0511 14.8838 32.6016 13.6984 30.2004C9.85352 32.767 -0.546407 44.3676 5.07419 56.6641L20.3132 53.5538C20.2554 54.8495 20.2546 56.151 20.3165 57.455C20.458 60.4376 20.5288 61.9289 21.678 63.4734C22.8272 65.0179 24.4376 65.4494 27.6585 66.3124L29.055 66.6866C32.2759 67.5496 33.8864 67.9812 35.6539 67.2182C37.4213 66.4552 38.2283 65.1991 39.8421 62.6869C40.5477 61.5885 41.1978 60.461 41.7955 59.31L53.4378 69.6231C64.4536 61.7843 61.2473 46.5379 59.2009 42.3928C56.9737 43.8795 53.8375 47.2067 51.594 53.9853M14.4899 44.0432L17.9367 43.5557C19.8466 43.2856 20.8015 43.1505 21.4867 42.5537C22.1719 41.9569 22.5602 40.856 23.3369 38.6542C28.2274 24.7904 37.8318 13.3966 43.6433 9.44952C46.7026 15.7736 49.3233 30.4431 46.6268 44.8947C46.1985 47.1898 45.9844 48.3374 46.2793 49.1969C46.5743 50.0563 47.3337 50.6507 48.8527 51.8396L51.594 53.9853M50.8881 56.3511C51.111 55.5192 51.3471 54.7313 51.594 53.9853" stroke="white" stroke-width="5" stroke-linecap="round" stroke-linejoin="round"/>
<path id="Vector 5202" d="M37.6985 31.6356L36.8493 34.8051" stroke="white" stroke-width="5" stroke-linecap="round" stroke-linejoin="round"/>
<path id="Vector_2" d="M61.9353 31.3359L62.7845 28.1664M65.3323 18.6581L66.1815 15.4886" stroke="white" stroke-width="5" stroke-linecap="round" stroke-linejoin="round"/>
<path id="Vector_3" d="M16.8588 19.2576L17.708 16.0882M20.2558 6.57984L21.105 3.4104" stroke="white" stroke-width="5" stroke-linecap="round" stroke-linejoin="round"/>
</g>
</svg>
