<svg width="64" height="64" viewBox="0 0 64 64" fill="none" xmlns="http://www.w3.org/2000/svg">
<g id="elements">
<path id="Vector" d="M37.0389 7.04617L42.1717 17.3965C42.8716 18.8374 44.7381 20.2194 46.3129 20.484L55.6161 22.0424C61.5654 23.0422 62.9652 27.394 58.6782 31.6871L51.4457 38.9794C50.2208 40.2144 49.5501 42.5961 49.9292 44.3016L51.9998 53.3288C53.6329 60.474 49.8709 63.2381 43.6007 59.5037L34.8809 54.2991C33.306 53.3582 30.7105 53.3582 29.1065 54.2991L20.3866 59.5037C14.1456 63.2381 10.3544 60.4446 11.9876 53.3288L14.0582 44.3016C14.4373 42.5961 13.7665 40.2144 12.5417 38.9794L5.30912 31.6871C1.05126 27.394 2.42194 23.0422 8.37128 22.0424L17.6744 20.484C19.2201 20.2194 21.0865 18.8374 21.7865 17.3965L26.9192 7.04617C29.7189 1.42992 34.2684 1.42992 37.0389 7.04617Z" stroke="white" stroke-width="5" stroke-linecap="round" stroke-linejoin="round"/>
</g>
</svg>
