<svg width="48" height="55" viewBox="0 0 48 55" fill="none" xmlns="http://www.w3.org/2000/svg">
<g id="icon">
<path id="Vector" d="M17.6625 54.4105C12.9614 54.3565 8.56239 52.4729 5.27603 49.1061C1.44685 45.1814 -0.319033 39.8137 0.43151 34.3792C1.43111 27.1368 6.66692 21.3568 13.7701 19.6542C14.0712 19.5822 14.379 19.5457 14.6854 19.5457C15.6119 19.5457 16.4883 19.8692 17.2094 20.4789C18.1162 21.2458 18.6003 22.4022 18.6003 23.5899V27.943C18.6003 29.6176 17.5653 31.1144 16.0248 31.6685C15.5152 31.8518 15.0393 32.1115 14.61 32.4404C12.2777 34.2288 11.8229 37.6009 13.5964 39.9571C14.5864 41.2712 16.1527 42.0589 17.7856 42.0648C19.2086 42.0648 20.5309 41.5141 21.5288 40.5142C22.5357 39.5048 23.0928 38.1591 23.0982 36.7247V4.56349C23.0979 2.13111 25.0698 0.15918 27.5022 0.15918H31.6178C33.7432 0.15918 35.4664 1.88234 35.4664 4.00775V4.40832C35.9929 9.43218 40.2106 11.3417 43.6566 12.0613C43.8008 12.0911 43.9518 12.1187 44.1035 12.1434C46.2658 12.4931 47.8349 14.3012 47.8349 16.4432V20.229C47.8349 21.0251 47.6536 21.8192 47.2513 22.506C46.4246 23.9171 44.939 24.7309 43.3724 24.7309C43.1807 24.7309 42.9873 24.7185 42.797 24.6941C40.325 24.3778 37.9272 23.6742 35.6699 22.6029L35.4664 22.506V36.7893C35.4661 41.5037 33.5125 46.0972 30.1063 49.392C26.7609 52.6289 22.3429 54.4113 17.6679 54.4119H17.8702L17.6625 54.4105ZM14.4894 23.3481C9.08215 24.7362 5.09415 29.2367 4.32983 34.8137C3.74711 39.0632 5.11776 43.2603 8.09042 46.3291C10.642 48.9613 14.0574 50.4343 17.7078 50.4765L17.7036 50.4773C21.3388 50.4773 24.7713 49.0949 27.3695 46.5846C30.0139 44.0297 31.5307 40.4676 31.531 36.8115V19.0979C31.531 18.36 31.9425 17.6904 32.6051 17.3508C32.8873 17.2066 33.2041 17.1302 33.5212 17.1302C33.9344 17.1302 34.331 17.2544 34.6684 17.4897C37.2278 19.2747 40.2308 20.4292 43.3527 20.8286C43.3758 20.8314 43.398 20.8328 43.4191 20.8328C43.538 20.8328 43.6484 20.7912 43.7387 20.7128C43.8438 20.6215 43.8995 20.4997 43.8995 20.3614V16.4909C43.8995 16.2523 43.6959 16.1106 43.5068 16.0805C43.2993 16.0468 43.0921 16.0091 42.8858 15.9667C36.2167 14.5752 32.0805 10.4872 31.5388 4.75155C31.536 4.69251 31.5335 4.63292 31.5307 4.57361L31.531 4.09461H27.5019C27.243 4.09461 27.0333 4.30459 27.0333 4.56321V36.6387C27.0246 39.1416 26.0585 41.4908 24.3128 43.2533C22.5717 45.011 20.2605 45.9788 17.805 45.9788H17.7713C14.9164 45.9687 12.1807 44.5849 10.4542 42.277C7.08211 37.7645 8.36927 31.1105 13.5075 28.3279C13.851 28.1418 14.2109 27.9872 14.5763 27.8492L14.6648 27.8154V23.3032L14.4894 23.3481Z" fill="white"/>
</g>
</svg>
