<svg width="292" height="292" viewBox="0 0 292 292" fill="none" xmlns="http://www.w3.org/2000/svg">
<path d="M0.844715 291.43C110.569 171.773 107.422 108.311 0.844734 0.913456C109.421 107.982 172.928 110.253 291.359 0.913471C184.16 113.817 183.946 177.425 291.359 291.43C190.894 187.148 128.425 177.959 0.844715 291.43Z" fill="white"/>
<path d="M0.844715 291.43C110.569 171.773 107.422 108.311 0.844734 0.913456C109.421 107.982 172.928 110.253 291.359 0.913471C184.16 113.817 183.946 177.425 291.359 291.43C190.894 187.148 128.425 177.959 0.844715 291.43Z" fill="white" fill-opacity="0.2"/>
<path d="M291.36 291.428C171.703 181.704 108.242 184.851 0.843575 291.428C107.912 182.853 110.183 119.345 0.843575 0.914299C113.747 108.114 177.355 108.328 291.36 0.914337C187.078 101.38 177.89 163.848 291.36 291.428Z" fill="white"/>
<path d="M291.36 291.428C171.703 181.704 108.242 184.851 0.843575 291.428C107.912 182.853 110.183 119.345 0.843575 0.914299C113.747 108.114 177.355 108.328 291.36 0.914337C187.078 101.38 177.89 163.848 291.36 291.428Z" fill="white" fill-opacity="0.2"/>
</svg>
