<svg width="740" height="1031" viewBox="0 0 740 1031" fill="none" xmlns="http://www.w3.org/2000/svg">
<path d="M15.9482 508.366C11.8061 508.366 8.44824 511.724 8.44824 515.866C8.44824 520.008 11.8061 523.366 15.9482 523.366C100.962 523.366 164.528 526.513 212.32 538.002C259.778 549.41 291 568.876 312.173 601.223C333.631 634.006 345.382 680.911 351.605 748.584C357.817 816.144 358.448 903.281 358.448 1015.87C358.448 1020.01 361.806 1023.37 365.948 1023.37C370.09 1023.37 373.448 1020.01 373.448 1015.87C373.448 903.242 373.454 816.096 378.893 748.499C384.342 680.777 395.183 633.896 416.026 601.142C436.564 568.868 467.42 549.416 515.343 538.006C563.607 526.514 628.425 523.366 715.949 523.366C720.091 523.366 723.449 520.008 723.449 515.866C723.449 511.724 720.091 508.366 715.949 508.366C628.425 508.366 563.607 505.218 515.343 493.726C467.42 482.316 436.564 462.863 416.026 430.589C395.183 397.836 384.342 350.954 378.893 283.233C373.454 215.635 373.448 128.489 373.448 15.8658C373.448 11.7237 370.09 8.36584 365.948 8.36584C361.806 8.36584 358.448 11.7237 358.448 15.8658C358.448 128.451 357.817 215.588 351.605 283.148C345.382 350.82 333.631 397.725 312.173 430.508C291 462.856 259.778 482.322 212.32 493.73C164.528 505.218 100.962 508.366 15.9482 508.366Z" fill="white" stroke="white" stroke-width="15" stroke-linejoin="round"/>
</svg>
