<svg width="744" height="1006" viewBox="0 0 744 1006" fill="none" xmlns="http://www.w3.org/2000/svg">
<path d="M115.944 513.775C318.017 501.576 371.151 419.767 371.874 156.965C373.202 421.817 427.148 502.607 627.802 513.772C433.903 520.779 377.679 598.638 371.872 870.583C375.234 619.114 328.297 531.105 115.944 513.775Z" fill="white"/>
<path d="M115.944 513.775C318.017 501.576 371.151 419.767 371.874 156.965C373.202 421.817 427.148 502.607 627.802 513.772C433.903 520.779 377.679 598.638 371.872 870.583C375.234 619.114 328.297 531.105 115.944 513.775Z" fill="white"/>
<path d="M371.874 870.582C363.124 588.857 304.445 514.78 115.944 513.772C305.915 511.92 363.864 436.71 371.872 156.964C376.898 427.293 432.744 505.679 627.802 513.774C447.431 509.088 384.304 574.526 371.874 870.582Z" fill="white"/>
<path d="M371.874 870.582C363.124 588.857 304.445 514.78 115.944 513.772C305.915 511.92 363.864 436.71 371.872 156.964C376.898 427.293 432.744 505.679 627.802 513.774C447.431 509.088 384.304 574.526 371.874 870.582Z" fill="white"/>
<path d="M381.872 22.4973C381.872 16.9745 377.395 12.4973 371.872 12.4973C366.35 12.4973 361.872 16.9744 361.872 22.4973L381.872 22.4973ZM19.4926 503.774C13.9697 503.774 9.49255 508.251 9.49255 513.774C9.49255 519.297 13.9697 523.774 19.4926 523.774V503.774ZM115.944 513.775L115.341 503.793L115.13 523.742L115.944 513.775ZM371.874 156.965L381.874 156.914L361.874 156.937L371.874 156.965ZM627.802 513.772L628.163 523.766L628.358 503.788L627.802 513.772ZM371.872 870.583L361.873 870.449L381.87 870.796L371.872 870.583ZM371.874 870.582L361.879 870.893L381.865 871.002L371.874 870.582ZM115.944 513.772L115.846 503.772L115.89 523.772L115.944 513.772ZM371.872 156.964L381.87 156.778L361.876 156.678L371.872 156.964ZM627.802 513.774L627.543 523.771L628.217 503.783L627.802 513.774ZM363.27 991.108C363.27 996.631 367.747 1001.11 373.27 1001.11C378.793 1001.11 383.27 996.631 383.27 991.108H363.27ZM383.27 10.4258C383.27 4.90293 378.793 0.425781 373.27 0.425781C367.747 0.425781 363.27 4.90293 363.27 10.4258H383.27ZM733.58 524.709C739.103 524.709 743.58 520.232 743.58 514.709C743.58 509.186 739.103 504.709 733.58 504.709V524.709ZM10.1641 504.709C4.64121 504.709 0.164062 509.186 0.164062 514.709C0.164062 520.232 4.64121 524.709 10.1641 524.709V504.709ZM381.871 1005.05L381.872 22.4973L361.872 22.4973L361.871 1005.05H381.871ZM19.4926 523.774H724.253V503.774H19.4926V523.774ZM116.546 523.757C218.54 517.599 286.282 493.729 327.59 435.106C368.217 377.449 381.513 288.329 381.874 156.992L361.874 156.937C361.512 288.403 347.879 371.589 311.241 423.586C275.282 474.618 215.421 497.751 115.341 503.793L116.546 523.757ZM361.874 157.015C362.538 289.377 376.195 378.755 416.93 436.28C458.358 494.783 525.968 518.121 627.247 523.757L628.358 503.788C528.983 498.258 469.293 475.619 433.252 424.722C396.519 372.848 382.538 289.405 381.874 156.914L361.874 157.015ZM627.441 503.779C529.492 507.318 462.948 528.831 421.18 586.993C380.172 644.095 364.776 734.467 361.874 870.369L381.87 870.796C384.775 734.753 400.394 650.224 437.425 598.659C473.696 548.152 532.213 527.233 628.163 523.766L627.441 503.779ZM381.871 870.716C383.551 745.087 372.884 657.227 333.067 598.749C292.616 539.339 223.898 512.551 116.757 503.808L115.13 523.742C220.343 532.328 281.27 558.21 316.535 610.005C352.435 662.73 363.555 744.609 361.873 870.449L381.871 870.716ZM381.869 870.272C377.497 729.507 360.729 637.626 319.392 581.011C277.203 523.23 211.245 504.282 115.997 503.772L115.89 523.772C209.143 524.271 266.776 542.865 303.239 592.805C340.555 643.912 357.501 729.932 361.879 870.893L381.869 870.272ZM116.041 523.771C212.031 522.836 278.156 503.373 320.234 445.456C361.473 388.695 377.867 297.025 381.868 157.25L361.876 156.678C357.869 296.649 341.284 382.457 304.054 433.701C267.663 483.788 209.828 502.856 115.846 503.772L116.041 523.771ZM361.874 157.15C364.385 292.249 379.484 382.354 420.446 439.531C462.15 497.744 528.868 519.677 627.388 523.766L628.217 503.783C531.678 499.776 472.944 478.469 436.704 427.883C399.722 376.261 384.384 292.009 381.87 156.778L361.874 157.15ZM628.062 503.778C536.996 501.412 471.787 516.589 428.882 573.371C386.92 628.905 368.093 722.253 361.883 870.163L381.865 871.002C388.085 722.854 407.037 635.456 444.839 585.428C481.697 536.649 538.237 521.451 627.543 523.771L628.062 503.778ZM383.27 991.108V10.4258H363.27V991.108H383.27ZM733.58 504.709H10.1641V524.709H733.58V504.709Z" fill="white"/>
</svg>
