<svg width="744" height="1006" viewBox="0 0 744 1006" fill="none" xmlns="http://www.w3.org/2000/svg">
<path d="M116.104 513.837C318.177 501.638 371.311 419.83 372.034 157.027C373.362 421.88 427.309 502.67 627.963 513.835C434.063 520.841 377.839 598.701 372.032 870.645C375.394 619.177 328.457 531.167 116.104 513.837Z" fill="white"/>
<path d="M116.104 513.837C318.177 501.638 371.311 419.83 372.034 157.027C373.362 421.88 427.309 502.67 627.963 513.835C434.063 520.841 377.839 598.701 372.032 870.645C375.394 619.177 328.457 531.167 116.104 513.837Z" fill="white"/>
<path d="M372.034 870.645C363.284 588.92 304.605 514.843 116.104 513.834C306.075 511.983 364.024 436.772 372.032 157.027C377.058 427.356 432.904 505.741 627.963 513.837C447.591 509.15 384.464 574.588 372.034 870.645Z" fill="white"/>
<path d="M372.034 870.645C363.284 588.92 304.605 514.843 116.104 513.834C306.075 511.983 364.024 436.772 372.032 157.027C377.058 427.356 432.904 505.741 627.963 513.837C447.591 509.15 384.464 574.588 372.034 870.645Z" fill="white"/>
<path d="M237.245 649.055C338.795 532.709 335.882 471.003 237.245 366.577C337.732 470.682 396.508 472.891 506.116 366.577C406.903 476.357 406.705 538.204 506.116 649.055C413.135 547.659 355.32 538.724 237.245 649.055Z" fill="white"/>
<path d="M237.245 649.055C338.795 532.709 335.882 471.003 237.245 366.577C337.732 470.682 396.508 472.891 506.116 366.577C406.903 476.357 406.705 538.204 506.116 649.055C413.135 547.659 355.32 538.724 237.245 649.055Z" fill="white"/>
<path d="M506.117 649.054C395.374 542.365 336.641 545.426 237.244 649.054C336.335 543.482 338.438 481.731 237.244 366.578C341.736 470.811 400.605 471.019 506.117 366.578C409.604 464.263 401.1 525.003 506.117 649.054Z" fill="white"/>
<path d="M506.117 649.054C395.374 542.365 336.641 545.426 237.244 649.054C336.335 543.482 338.438 481.731 237.244 366.578C341.736 470.811 400.605 471.019 506.117 366.578C409.604 464.263 401.1 525.003 506.117 649.054Z" fill="white"/>
<path d="M382.033 22.5598C382.033 17.037 377.555 12.5598 372.033 12.5598C366.51 12.5598 362.033 17.0369 362.033 22.5598L382.033 22.5598ZM19.6527 503.836C14.1299 503.836 9.65271 508.313 9.65271 513.836C9.65271 519.359 14.1299 523.836 19.6527 523.836V503.836ZM116.104 513.837L115.501 503.855L115.291 523.804L116.104 513.837ZM372.034 157.027L382.034 156.977L362.034 157L372.034 157.027ZM627.963 513.835L628.324 523.828L628.518 503.85L627.963 513.835ZM372.032 870.645L362.033 870.511L382.03 870.859L372.032 870.645ZM372.034 870.645L362.039 870.955L382.025 871.064L372.034 870.645ZM116.104 513.834L116.006 503.835L116.05 523.834L116.104 513.834ZM372.032 157.027L382.031 156.841L362.036 156.741L372.032 157.027ZM627.963 513.837L627.703 523.834L628.377 503.846L627.963 513.837ZM363.43 991.17C363.43 996.693 367.907 1001.17 373.43 1001.17C378.953 1001.17 383.43 996.693 383.43 991.17H363.43ZM383.43 10.4883C383.43 4.96543 378.953 0.488281 373.43 0.488281C367.907 0.488281 363.43 4.96543 363.43 10.4883H383.43ZM733.741 524.771C739.263 524.771 743.741 520.294 743.741 514.771C743.741 509.248 739.263 504.771 733.741 504.771V524.771ZM10.3242 504.771C4.80137 504.771 0.324219 509.248 0.324219 514.771C0.324219 520.294 4.80137 524.771 10.3242 524.771V504.771ZM193.824 306.456C190.016 302.456 183.686 302.299 179.686 306.107C175.686 309.915 175.529 316.244 179.337 320.245L193.824 306.456ZM179.337 695.388C175.529 699.388 175.685 705.718 179.686 709.526C183.686 713.334 190.016 713.177 193.823 709.177L179.337 695.388ZM237.245 649.055L229.711 642.479L244.072 656.362L237.245 649.055ZM237.245 366.577L244.44 359.632L229.975 373.443L237.245 366.577ZM506.116 366.577L513.535 373.282L499.153 359.399L506.116 366.577ZM506.116 649.055L498.745 655.813L513.561 642.378L506.116 649.055ZM506.117 649.054L499.179 656.255L513.749 642.593L506.117 649.054ZM237.244 649.054L229.952 642.21L244.461 655.976L237.244 649.054ZM237.244 366.578L244.306 359.498L229.732 373.179L237.244 366.578ZM506.117 366.578L513.23 373.606L499.082 359.471L506.117 366.578ZM545.017 702.886C548.825 706.887 555.155 707.043 559.155 703.235C563.155 699.428 563.312 693.098 559.504 689.098L545.017 702.886ZM190.01 300.906C186.202 296.906 179.872 296.75 175.872 300.557C171.871 304.365 171.715 310.695 175.523 314.695L190.01 300.906ZM569.276 315.467C573.083 311.466 572.927 305.137 568.927 301.329C564.926 297.521 558.597 297.677 554.789 301.678L569.276 315.467ZM174.789 700.906C170.981 704.907 171.137 711.236 175.138 715.044C179.138 718.852 185.468 718.696 189.276 714.695L174.789 700.906ZM382.032 1005.11L382.033 22.5598L362.033 22.5598L362.032 1005.11H382.032ZM19.6527 523.836H724.413V503.836H19.6527V523.836ZM116.706 523.819C218.7 517.662 286.443 493.791 327.75 435.169C368.377 377.511 381.673 288.392 382.034 157.055L362.034 157C361.672 288.465 348.04 371.652 311.401 423.649C275.442 474.681 215.581 497.814 115.501 503.855L116.706 523.819ZM362.034 157.077C362.698 289.439 376.355 378.817 417.09 436.343C458.518 494.846 526.128 518.184 627.407 523.819L628.518 503.85C529.143 498.321 469.453 475.681 433.412 424.785C396.679 372.911 382.698 289.467 382.034 156.977L362.034 157.077ZM627.601 503.841C529.652 507.381 463.108 528.894 421.34 587.055C380.332 644.158 364.937 734.53 362.035 870.432L382.03 870.859C384.935 734.816 400.554 650.286 437.585 598.721C473.856 548.215 532.373 527.295 628.324 523.828L627.601 503.841ZM382.031 870.779C383.711 745.15 373.044 657.29 333.227 598.811C292.777 539.401 224.058 512.614 116.917 503.87L115.291 523.804C220.503 532.39 281.43 558.273 316.695 610.067C352.595 662.793 363.715 744.672 362.033 870.511L382.031 870.779ZM382.029 870.334C377.657 729.57 360.889 637.689 319.552 581.074C277.363 523.292 211.405 504.344 116.157 503.835L116.05 523.834C209.304 524.333 266.936 542.928 303.399 592.868C340.715 643.975 357.661 729.995 362.039 870.955L382.029 870.334ZM116.201 523.834C212.191 522.898 278.316 503.435 320.394 445.519C361.634 388.757 378.027 297.087 382.028 157.313L362.036 156.741C358.029 296.712 341.444 382.52 304.214 433.763C267.823 483.851 209.988 502.919 116.006 503.835L116.201 523.834ZM362.034 157.213C364.546 292.311 379.644 382.417 420.606 439.593C462.31 497.806 529.028 519.739 627.548 523.828L628.377 503.846C531.838 499.839 473.104 478.532 436.864 427.946C399.882 376.323 384.545 292.071 382.031 156.841L362.034 157.213ZM628.222 503.84C537.156 501.474 471.947 516.651 429.042 573.433C387.08 628.967 368.253 722.316 362.043 870.225L382.025 871.064C388.245 722.917 407.197 635.518 444.999 585.491C481.857 536.711 538.397 521.513 627.703 523.834L628.222 503.84ZM383.43 991.17V10.4883H363.43V991.17H383.43ZM733.741 504.771H10.3242V524.771H733.741V504.771ZM564.022 695.388L193.824 306.456L179.337 320.245L549.536 709.177L564.022 695.388ZM193.823 709.177L564.023 320.244L549.537 306.455L179.337 695.388L193.823 709.177ZM244.779 655.631C295.76 597.221 322.712 550.248 322.315 503.261C321.916 456.161 294.075 412.179 244.515 359.71L229.975 373.443C279.052 425.401 301.986 464.485 302.315 503.431C302.646 542.49 280.28 584.542 229.711 642.479L244.779 655.631ZM230.05 373.522C280.416 425.701 322.787 455.178 368.193 455.484C413.495 455.789 458.168 427.015 513.078 373.755L499.153 359.399C444.456 412.453 404.938 435.731 368.328 435.485C331.821 435.238 294.561 411.558 244.44 359.632L230.05 373.522ZM498.697 359.872C448.855 415.022 421.659 460.374 421.632 507.409C421.605 554.431 448.736 600.05 498.671 655.731L513.561 642.378C464.084 587.209 441.609 546.479 441.632 507.42C441.654 468.374 464.163 427.912 513.535 373.282L498.697 359.872ZM513.486 642.296C466.935 591.532 426.718 560.901 381.364 559.661C336.172 558.425 289.562 586.483 230.417 641.748L244.072 656.362C303.003 601.296 344.339 578.656 380.817 579.654C417.135 580.647 452.316 605.182 498.745 655.813L513.486 642.296ZM513.055 641.852C457.574 588.403 412.622 559.762 367.332 560.185C321.927 560.61 279.845 590.193 230.027 642.132L244.461 655.976C294.04 604.286 331.023 580.525 367.519 580.185C404.13 579.842 443.917 603.016 499.179 656.255L513.055 641.852ZM244.535 655.898C294.323 602.853 322.063 558.57 322.351 511.47C322.638 464.471 295.558 417.787 244.755 359.977L229.732 373.179C280.123 430.522 302.59 472.29 302.351 511.348C302.113 550.305 279.256 589.682 229.952 642.21L244.535 655.898ZM230.181 373.657C282.557 425.903 325.955 454.802 371.292 454.831C416.616 454.859 460.269 426.031 513.151 373.685L499.082 359.471C446.452 411.566 407.916 434.854 371.304 434.831C334.706 434.807 296.423 411.485 244.306 359.498L230.181 373.657ZM499.003 359.549C450.548 408.594 421.712 450.633 420.546 497.681C419.385 544.557 445.779 593.257 498.484 655.515L513.749 642.593C461.437 580.8 439.576 537.105 440.54 498.177C441.5 459.421 465.173 422.247 513.23 373.606L499.003 359.549ZM559.504 689.098L190.01 300.906L175.523 314.695L545.017 702.886L559.504 689.098ZM554.789 301.678L174.789 700.906L189.276 714.695L569.276 315.467L554.789 301.678Z" fill="white"/>
</svg>
