<svg width="52" height="64" viewBox="0 0 52 64" fill="none" xmlns="http://www.w3.org/2000/svg">
<g id="elements">
<path id="Rectangle 672" d="M33.4098 2.83325V10.0847C33.4098 15.1829 33.4098 17.732 34.0339 20.1791C34.658 22.6262 35.8813 24.8732 38.3278 29.3671L41.643 35.4568C47.8773 46.9085 50.9944 52.6343 48.4371 56.8789L48.3976 56.9439C45.803 61.1666 39.202 61.1666 25.9999 61.1666C12.7978 61.1666 6.19679 61.1666 3.60223 56.9439L3.5627 56.8789C1.00537 52.6343 4.12252 46.9085 10.3568 35.4568L13.672 29.3671C16.1185 24.8732 17.3418 22.6262 17.9659 20.1791C18.59 17.732 18.59 15.1829 18.59 10.0847V2.83325" stroke="white" stroke-width="5"/>
<path id="Vector" d="M17.2499 43.6722L17.2752 43.6655" stroke="white" stroke-width="5" stroke-linecap="round" stroke-linejoin="round"/>
<path id="Vector_2" d="M34.7499 49.5056L34.7752 49.4988" stroke="white" stroke-width="5" stroke-linecap="round" stroke-linejoin="round"/>
<path id="Vector 1495" d="M14.3332 2.83325L37.6666 2.83325" stroke="white" stroke-width="5" stroke-linecap="round" stroke-linejoin="round"/>
<path id="Vector 4582" d="M12.8749 30.7057C15.7916 27.3417 20.4565 29.7667 25.9999 32.9279C33.2916 37.0862 37.6666 33.8958 39.1249 30.8776" stroke="white" stroke-width="5" stroke-linecap="round"/>
</g>
</svg>
