<svg width="50" height="49" viewBox="0 0 50 49" fill="none" xmlns="http://www.w3.org/2000/svg">
<g id="icon">
<path id="Vector" d="M23.6972 29.6593L7.97235 47.8825C7.55573 48.3601 6.97099 48.6047 6.38289 48.6047C5.89092 48.6047 5.39699 48.4335 4.99752 48.0849C4.12014 47.3191 4.02962 45.9874 4.79539 45.11L21.0206 26.3137L23.6972 29.6593ZM29.4174 23.1047L45.6427 4.30831C46.4084 3.43093 46.3179 2.09925 45.4405 1.33348C44.5634 0.567702 43.2309 0.658223 42.4657 1.5356L26.7409 19.7588L29.4174 23.1047Z" fill="white"/>
<path id="Vector_2" d="M47.8495 48.6042H36.8858C36.2451 48.6042 35.6396 48.3129 35.2395 47.8128L0.942684 4.23895C0.436384 3.60614 0.337711 2.73888 0.688832 2.00853C1.03995 1.27817 1.77846 0.813477 2.58893 0.813477H13.5527C14.1934 0.813477 14.7989 1.10472 15.1989 1.60483L49.4958 45.1787C50.0021 45.8115 50.1008 46.6788 49.7496 47.4091C49.3985 48.1395 48.66 48.6042 47.8495 48.6042ZM37.8992 44.3874H43.4626L12.5392 5.0303H6.97584L37.8992 44.3874Z" fill="white"/>
</g>
</svg>
