<svg width="2759" height="2098" viewBox="0 0 2759 2098" fill="none" xmlns="http://www.w3.org/2000/svg">
    <g class="connectors" stroke="white" stroke-width="15">
        <path d="M551.642 276.919L986.362 134.798L1375.1 502.638L1433.62 644.758L1630.08 874.657M1630.08 874.657L2612.38 1175.62L2206.92 1969.82L1375.1 1622.88L1630.08 874.657ZM87.6636 816.138L426.243 732.537L1220.44 1267.58L1266.42 1409.7L1375.1 1635.42M334.283 1229.96L635.243 1280.12L1065.78 1693.94M1065.78 1693.94L1358.38 1622.87"/>
    </g>
    <g class="stars" fill="white" stroke="white" stroke-width="15" stroke-linejoin="round">
        <path d="M2448.22 1186C2591.78 1186 2596 1169.28 2596 981.18C2596 1169.28 2596 1186 2743.78 1186C2596 1186 2596 1202.72 2596 1390.82C2596 1202.72 2591.78 1186 2448.22 1186Z"/>
        <path d="M2680.63 1102.4C2608.85 1173.46 2583.51 1173.46 2511.74 1102.4C2583.51 1173.46 2583.51 1198.54 2511.74 1269.6C2583.51 1198.54 2608.85 1198.54 2680.63 1269.6C2608.85 1198.54 2608.85 1173.46 2680.63 1102.4Z"/>
        <path d="M555.5 1273.5C640.5 1273.5 643 1263.54 643 1151.49C643 1263.54 643 1273.5 730.5 1273.5C643 1273.5 643 1283.46 643 1395.51C643 1283.46 640.5 1273.5 555.5 1273.5Z"/>
        <path d="M246.5 1231.5C331.5 1231.5 334 1221.54 334 1109.49C334 1221.54 334 1231.5 421.5 1231.5C334 1231.5 334 1241.46 334 1353.51C334 1241.46 331.5 1231.5 246.5 1231.5Z"/>
        <path d="M338.5 746.5C423.5 746.5 426 736.54 426 624.49C426 736.54 426 746.5 513.5 746.5C426 746.5 426 756.46 426 868.51C426 756.46 423.5 746.5 338.5 746.5Z"/>
        <path d="M7.5 820.5C92.5 820.5 95 810.54 95 698.49C95 810.54 95.0003 820.5 182.5 820.5C95.0003 820.5 95 830.46 95 942.51C95 830.46 92.5 820.5 7.5 820.5Z"/>
        <path d="M1286.5 1627.5C1371.5 1627.5 1374 1617.54 1374 1505.49C1374 1617.54 1374 1627.5 1461.5 1627.5C1374 1627.5 1374 1637.46 1374 1749.51C1374 1637.46 1371.5 1627.5 1286.5 1627.5Z"/>
        <path d="M977.5 1689.5C1062.5 1689.5 1065 1679.54 1065 1567.49C1065 1679.54 1065 1689.5 1152.5 1689.5C1065 1689.5 1065 1699.46 1065 1811.51C1065 1699.46 1062.5 1689.5 977.5 1689.5Z"/>
        <path d="M1549.5 861.5C1634.5 861.5 1637 851.54 1637 739.49C1637 851.54 1637 861.5 1724.5 861.5C1637 861.5 1637 871.46 1637 983.51C1637 871.46 1634.5 861.5 1549.5 861.5Z"/>
        <path d="M884.5 130.5C969.5 130.5 972 120.54 972 8.48999C972 120.54 972 130.5 1059.5 130.5C972 130.5 972 140.46 972 252.51C972 140.46 969.5 130.5 884.5 130.5Z"/>
        <path d="M462.5 276.5C547.5 276.5 550 266.54 550 154.49C550 266.54 550 276.5 637.5 276.5C550 276.5 550 286.46 550 398.51C550 286.46 547.5 276.5 462.5 276.5Z"/>
        <path d="M2117.5 1967.5C2202.5 1967.5 2205 1957.54 2205 1845.49C2205 1957.54 2205 1967.5 2292.5 1967.5C2205 1967.5 2205 1977.46 2205 2089.51C2205 1977.46 2202.5 1967.5 2117.5 1967.5Z"/>
        <path d="M1219.4 1402.5C1267.1 1402.5 1268.5 1396.94 1268.5 1334.39C1268.5 1396.94 1268.5 1402.5 1317.6 1402.5C1268.5 1402.5 1268.5 1408.06 1268.5 1470.61C1268.5 1408.06 1267.1 1402.5 1219.4 1402.5Z"/>
        <path d="M1178.4 1279.5C1226.1 1279.5 1227.5 1273.94 1227.5 1211.39C1227.5 1273.94 1227.5 1279.5 1276.6 1279.5C1227.5 1279.5 1227.5 1285.06 1227.5 1347.61C1227.5 1285.06 1226.1 1279.5 1178.4 1279.5Z"/>
        <path d="M1375.4 635.5C1423.1 635.5 1424.5 629.94 1424.5 567.39C1424.5 629.94 1424.5 635.5 1473.6 635.5C1424.5 635.5 1424.5 641.06 1424.5 703.61C1424.5 641.06 1423.1 635.5 1375.4 635.5Z"/>
        <path d="M1325.4 496.5C1373.1 496.5 1374.5 490.94 1374.5 428.39C1374.5 490.94 1374.5 496.5 1423.6 496.5C1374.5 496.5 1374.5 502.06 1374.5 564.61C1374.5 502.06 1373.1 496.5 1325.4 496.5Z"/>
    </g>
</svg>
