<svg width="4152" height="4613" viewBox="0 0 4152 4613" fill="none" xmlns="http://www.w3.org/2000/svg" xmlns:xlink="http://www.w3.org/1999/xlink">
    <path d="M1976.5 0L3973.99 1153.25V3459.75L1976.5 4613L-20.9875 3459.75V1153.25L1976.5 0Z" fill="white"/>
    <g filter="url(#filter0_d_24_71)">
        <path d="M1976.5 232L3773.07 1269.25V3343.75L1976.5 4381L179.93 3343.75V1269.25L1976.5 232Z" fill="url(#paint0_linear_24_71)"/>
    </g>
    <g style="mix-blend-mode:screen" filter="url(#filter1_d_24_71)">
        <path d="M1976.5 232L3773.07 1269.25V3343.75L1976.5 4381L179.93 3343.75V1269.25L1976.5 232Z" fill="url(#pattern0)" shape-rendering="crispEdges"/>
    </g>
    <use filter="url(#filter2_f_24_71)" href="#constellation" xlink:href="#constellation"/>
    <use href="#constellation" xlink:href="#constellation"/>
    <g filter="url(#filter3_f_24_71)">
        <path d="M1158.04 1123.09C1158.04 1134.1 1156.68 1143.93 1153.96 1152.59C1151.24 1161.25 1147.53 1168.92 1142.83 1175.6C1138.25 1182.16 1132.93 1187.78 1126.87 1192.48C1120.81 1197.18 1114.44 1201.02 1107.76 1203.99C1101.2 1206.96 1094.53 1209.12 1087.72 1210.48C1081.04 1211.84 1074.73 1212.52 1068.8 1212.52H959.694V1164.28H1068.8C1074.98 1163.79 1080.55 1162.55 1085.5 1160.57C1090.57 1158.47 1094.9 1155.68 1098.48 1152.22C1102.07 1148.76 1104.85 1144.61 1106.83 1139.79C1108.81 1134.84 1109.8 1129.27 1109.8 1123.09V1101.2C1109.18 1095.13 1107.88 1089.57 1105.91 1084.5C1103.93 1079.42 1101.2 1075.1 1097.74 1071.51C1094.4 1067.92 1090.32 1065.14 1085.5 1063.16C1080.67 1061.06 1075.1 1060 1068.8 1060H960.065C953.633 1060 948.747 1061.67 945.407 1065.01C942.067 1068.35 940.397 1073.18 940.397 1079.49V1277.84H892.155V1079.49C892.155 1067.12 894.382 1056.6 898.835 1047.94C903.412 1039.28 909.04 1032.3 915.72 1026.98C922.523 1021.66 929.883 1017.82 937.8 1015.47C945.716 1013 953.015 1011.76 959.694 1011.76H1068.8C1079.68 1011.76 1089.45 1013.18 1098.11 1016.03C1106.77 1018.75 1114.38 1022.46 1120.93 1027.16C1127.61 1031.74 1133.24 1037.06 1137.82 1043.12C1142.52 1049.18 1146.35 1055.55 1149.32 1062.23C1152.42 1068.79 1154.64 1075.47 1156 1082.27C1157.36 1088.95 1158.04 1095.26 1158.04 1101.2V1123.09ZM1418.18 1169.11H1265.85V1120.49H1418.18V1169.11ZM1439.89 1277.84H1265.85C1259.17 1277.84 1251.87 1276.66 1243.95 1274.31C1236.04 1271.96 1228.68 1268.13 1221.87 1262.81C1215.19 1257.36 1209.56 1250.38 1204.99 1241.84C1200.53 1233.18 1198.31 1222.6 1198.31 1210.11V1036.07C1198.31 1032.73 1198.93 1029.57 1200.16 1026.61C1201.4 1023.64 1203.07 1021.04 1205.17 1018.81C1207.4 1016.59 1210 1014.85 1212.97 1013.62C1215.93 1012.38 1219.15 1011.76 1222.61 1011.76H1439.89V1060H1246.55V1210.11C1246.55 1216.42 1248.22 1221.24 1251.56 1224.58C1254.9 1227.92 1259.79 1229.59 1266.22 1229.59H1439.89V1277.84ZM1747.34 1253.53C1747.34 1256.99 1746.72 1260.21 1745.49 1263.18C1744.25 1266.15 1742.52 1268.74 1740.29 1270.97C1738.19 1273.07 1735.65 1274.74 1732.68 1275.98C1729.71 1277.22 1726.5 1277.84 1723.03 1277.84H1548.99C1544.54 1277.84 1539.71 1277.34 1534.52 1276.35C1529.45 1275.24 1524.38 1273.57 1519.3 1271.34C1514.36 1269.12 1509.59 1266.27 1505.02 1262.81C1500.44 1259.22 1496.36 1254.95 1492.77 1250C1489.31 1244.93 1486.52 1239.12 1484.42 1232.56C1482.32 1225.88 1481.27 1218.4 1481.27 1210.11V1079.49C1481.27 1075.03 1481.76 1070.27 1482.75 1065.2C1483.86 1060 1485.53 1054.93 1487.76 1049.98C1489.99 1044.91 1492.89 1040.09 1496.48 1035.51C1500.07 1030.93 1504.34 1026.91 1509.28 1023.45C1514.36 1019.86 1520.17 1017.02 1526.73 1014.92C1533.28 1012.81 1540.7 1011.76 1548.99 1011.76H1745.11V1060H1548.99C1542.68 1060 1537.86 1061.67 1534.52 1065.01C1531.18 1068.35 1529.51 1073.3 1529.51 1079.86V1210.11C1529.51 1216.3 1531.18 1221.12 1534.52 1224.58C1537.98 1227.92 1542.81 1229.59 1548.99 1229.59H1699.1V1169.11H1570.7V1120.49H1723.03C1726.5 1120.49 1729.71 1121.17 1732.68 1122.53C1735.65 1123.77 1738.19 1125.5 1740.29 1127.73C1742.52 1129.96 1744.25 1132.55 1745.49 1135.52C1746.72 1138.37 1747.34 1141.46 1747.34 1144.8V1253.53ZM2058.69 1277.84H2010.45V1212.52H1840.86V1277.84H1792.61V1144.8C1792.61 1125.38 1795.95 1107.5 1802.63 1091.18C1809.31 1074.85 1818.59 1060.81 1830.47 1049.06C1842.34 1037.31 1856.38 1028.15 1872.58 1021.6C1888.79 1015.04 1906.48 1011.76 1925.65 1011.76H2034.38C2037.72 1011.76 2040.88 1012.38 2043.84 1013.62C2046.81 1014.85 2049.41 1016.59 2051.64 1018.81C2053.86 1021.04 2055.6 1023.64 2056.83 1026.61C2058.07 1029.57 2058.69 1032.73 2058.69 1036.07V1277.84ZM1840.86 1164.28H2010.45V1060H1925.65C1924.17 1060 1921.01 1060.25 1916.19 1060.75C1911.49 1061.12 1905.98 1062.17 1899.67 1063.9C1893.49 1065.63 1886.93 1068.29 1880.01 1071.88C1873.08 1075.47 1866.71 1080.41 1860.9 1086.72C1855.08 1093.03 1850.26 1100.95 1846.42 1110.47C1842.71 1119.87 1840.86 1131.32 1840.86 1144.8V1164.28ZM2370.59 1199.54C2370.59 1209.06 2369.36 1217.66 2366.88 1225.33C2364.53 1232.87 2361.38 1239.55 2357.42 1245.37C2353.46 1251.18 2348.82 1256.13 2343.5 1260.21C2338.18 1264.29 2332.68 1267.63 2326.99 1270.23C2321.3 1272.83 2315.49 1274.74 2309.55 1275.98C2303.73 1277.22 2298.23 1277.84 2293.03 1277.84H2106.93V1229.59H2293.03C2302.31 1229.59 2309.49 1226.87 2314.56 1221.43C2319.75 1215.99 2322.35 1208.69 2322.35 1199.54C2322.35 1195.08 2321.67 1191 2320.31 1187.29C2318.95 1183.58 2316.97 1180.36 2314.37 1177.64C2311.9 1174.92 2308.81 1172.82 2305.09 1171.33C2301.51 1169.85 2297.49 1169.11 2293.03 1169.11H2182.08C2174.28 1169.11 2165.87 1167.74 2156.84 1165.02C2147.81 1162.18 2139.4 1157.66 2131.61 1151.48C2123.94 1145.29 2117.51 1137.19 2112.31 1127.17C2107.24 1117.15 2104.7 1104.91 2104.7 1090.43C2104.7 1075.96 2107.24 1063.78 2112.31 1053.88C2117.51 1043.86 2123.94 1035.76 2131.61 1029.57C2139.4 1023.27 2147.81 1018.75 2156.84 1016.03C2165.87 1013.18 2174.28 1011.76 2182.08 1011.76H2346.29V1060H2182.08C2172.92 1060 2165.75 1062.79 2160.55 1068.35C2155.48 1073.92 2152.95 1081.28 2152.95 1090.43C2152.95 1099.71 2155.48 1107.07 2160.55 1112.51C2165.75 1117.83 2172.92 1120.49 2182.08 1120.49H2293.03H2293.41C2298.6 1120.62 2304.11 1121.36 2309.92 1122.72C2315.73 1123.96 2321.48 1125.93 2327.17 1128.66C2332.99 1131.38 2338.49 1134.84 2343.69 1139.05C2348.88 1143.13 2353.46 1148.08 2357.42 1153.89C2361.5 1159.7 2364.72 1166.38 2367.07 1173.93C2369.42 1181.48 2370.59 1190.01 2370.59 1199.54ZM2671.36 1253.53C2671.36 1256.99 2670.75 1260.21 2669.51 1263.18C2668.27 1266.15 2666.54 1268.74 2664.31 1270.97C2662.09 1273.07 2659.49 1274.74 2656.52 1275.98C2653.55 1277.22 2650.4 1277.84 2647.06 1277.84H2538.33C2528.06 1277.84 2517.67 1276.72 2507.16 1274.5C2496.64 1272.27 2486.44 1268.87 2476.54 1264.29C2466.77 1259.59 2457.55 1253.65 2448.89 1246.48C2440.23 1239.3 2432.63 1230.83 2426.07 1221.06C2419.64 1211.16 2414.57 1199.91 2410.86 1187.29C2407.15 1174.55 2405.29 1160.38 2405.29 1144.8V1011.76H2453.53V1144.8C2453.53 1158.41 2455.39 1169.91 2459.1 1179.31C2462.93 1188.71 2467.76 1196.57 2473.57 1202.88C2479.39 1209.18 2485.76 1214.13 2492.68 1217.72C2499.61 1221.31 2506.17 1223.97 2512.35 1225.7C2518.66 1227.43 2524.16 1228.54 2528.86 1229.04C2533.69 1229.41 2536.84 1229.59 2538.33 1229.59H2623.12V1011.76H2671.36V1253.53ZM2983.27 1199.54C2983.27 1209.06 2982.03 1217.66 2979.56 1225.33C2977.21 1232.87 2974.05 1239.55 2970.09 1245.37C2966.14 1251.18 2961.5 1256.13 2956.18 1260.21C2950.86 1264.29 2945.36 1267.63 2939.67 1270.23C2933.97 1272.83 2928.16 1274.74 2922.22 1275.98C2916.41 1277.22 2910.91 1277.84 2905.71 1277.84H2719.61V1229.59H2905.71C2914.99 1229.59 2922.16 1226.87 2927.23 1221.43C2932.43 1215.99 2935.03 1208.69 2935.03 1199.54C2935.03 1195.08 2934.35 1191 2932.99 1187.29C2931.62 1183.58 2929.65 1180.36 2927.05 1177.64C2924.57 1174.92 2921.48 1172.82 2917.77 1171.33C2914.18 1169.85 2910.16 1169.11 2905.71 1169.11H2794.75C2786.96 1169.11 2778.55 1167.74 2769.52 1165.02C2760.49 1162.18 2752.08 1157.66 2744.28 1151.48C2736.61 1145.29 2730.18 1137.19 2724.99 1127.17C2719.92 1117.15 2717.38 1104.91 2717.38 1090.43C2717.38 1075.96 2719.92 1063.78 2724.99 1053.88C2730.18 1043.86 2736.61 1035.76 2744.28 1029.57C2752.08 1023.27 2760.49 1018.75 2769.52 1016.03C2778.55 1013.18 2786.96 1011.76 2794.75 1011.76H2958.96V1060H2794.75C2785.6 1060 2778.42 1062.79 2773.23 1068.35C2768.16 1073.92 2765.62 1081.28 2765.62 1090.43C2765.62 1099.71 2768.16 1107.07 2773.23 1112.51C2778.42 1117.83 2785.6 1120.49 2794.75 1120.49H2905.71H2906.08C2911.28 1120.62 2916.78 1121.36 2922.59 1122.72C2928.41 1123.96 2934.16 1125.93 2939.85 1128.66C2945.66 1131.38 2951.17 1134.84 2956.36 1139.05C2961.56 1143.13 2966.14 1148.08 2970.09 1153.89C2974.18 1159.7 2977.39 1166.38 2979.74 1173.93C2982.09 1181.48 2983.27 1190.01 2983.27 1199.54Z" fill="white"/>
    </g>
    <g filter="url(#filter4_d_24_71)">
        <path d="M1158.04 1123.09C1158.04 1134.1 1156.68 1143.93 1153.96 1152.59C1151.24 1161.25 1147.53 1168.92 1142.83 1175.6C1138.25 1182.16 1132.93 1187.78 1126.87 1192.48C1120.81 1197.18 1114.44 1201.02 1107.76 1203.99C1101.2 1206.96 1094.53 1209.12 1087.72 1210.48C1081.04 1211.84 1074.73 1212.52 1068.8 1212.52H959.694V1164.28H1068.8C1074.98 1163.79 1080.55 1162.55 1085.5 1160.57C1090.57 1158.47 1094.9 1155.68 1098.48 1152.22C1102.07 1148.76 1104.85 1144.61 1106.83 1139.79C1108.81 1134.84 1109.8 1129.27 1109.8 1123.09V1101.2C1109.18 1095.13 1107.88 1089.57 1105.91 1084.5C1103.93 1079.42 1101.2 1075.1 1097.74 1071.51C1094.4 1067.92 1090.32 1065.14 1085.5 1063.16C1080.67 1061.06 1075.1 1060 1068.8 1060H960.065C953.633 1060 948.747 1061.67 945.407 1065.01C942.067 1068.35 940.397 1073.18 940.397 1079.49V1277.84H892.155V1079.49C892.155 1067.12 894.382 1056.6 898.835 1047.94C903.412 1039.28 909.04 1032.3 915.72 1026.98C922.523 1021.66 929.883 1017.82 937.8 1015.47C945.716 1013 953.015 1011.76 959.694 1011.76H1068.8C1079.68 1011.76 1089.45 1013.18 1098.11 1016.03C1106.77 1018.75 1114.38 1022.46 1120.93 1027.16C1127.61 1031.74 1133.24 1037.06 1137.82 1043.12C1142.52 1049.18 1146.35 1055.55 1149.32 1062.23C1152.42 1068.79 1154.64 1075.47 1156 1082.27C1157.36 1088.95 1158.04 1095.26 1158.04 1101.2V1123.09ZM1418.18 1169.11H1265.85V1120.49H1418.18V1169.11ZM1439.89 1277.84H1265.85C1259.17 1277.84 1251.87 1276.66 1243.95 1274.31C1236.04 1271.96 1228.68 1268.13 1221.87 1262.81C1215.19 1257.36 1209.56 1250.38 1204.99 1241.84C1200.53 1233.18 1198.31 1222.6 1198.31 1210.11V1036.07C1198.31 1032.73 1198.93 1029.57 1200.16 1026.61C1201.4 1023.64 1203.07 1021.04 1205.17 1018.81C1207.4 1016.59 1210 1014.85 1212.97 1013.62C1215.93 1012.38 1219.15 1011.76 1222.61 1011.76H1439.89V1060H1246.55V1210.11C1246.55 1216.42 1248.22 1221.24 1251.56 1224.58C1254.9 1227.92 1259.79 1229.59 1266.22 1229.59H1439.89V1277.84ZM1747.34 1253.53C1747.34 1256.99 1746.72 1260.21 1745.49 1263.18C1744.25 1266.15 1742.52 1268.74 1740.29 1270.97C1738.19 1273.07 1735.65 1274.74 1732.68 1275.98C1729.71 1277.22 1726.5 1277.84 1723.03 1277.84H1548.99C1544.54 1277.84 1539.71 1277.34 1534.52 1276.35C1529.45 1275.24 1524.38 1273.57 1519.3 1271.34C1514.36 1269.12 1509.59 1266.27 1505.02 1262.81C1500.44 1259.22 1496.36 1254.95 1492.77 1250C1489.31 1244.93 1486.52 1239.12 1484.42 1232.56C1482.32 1225.88 1481.27 1218.4 1481.27 1210.11V1079.49C1481.27 1075.03 1481.76 1070.27 1482.75 1065.2C1483.86 1060 1485.53 1054.93 1487.76 1049.98C1489.99 1044.91 1492.89 1040.09 1496.48 1035.51C1500.07 1030.93 1504.34 1026.91 1509.28 1023.45C1514.36 1019.86 1520.17 1017.02 1526.73 1014.92C1533.28 1012.81 1540.7 1011.76 1548.99 1011.76H1745.11V1060H1548.99C1542.68 1060 1537.86 1061.67 1534.52 1065.01C1531.18 1068.35 1529.51 1073.3 1529.51 1079.86V1210.11C1529.51 1216.3 1531.18 1221.12 1534.52 1224.58C1537.98 1227.92 1542.81 1229.59 1548.99 1229.59H1699.1V1169.11H1570.7V1120.49H1723.03C1726.5 1120.49 1729.71 1121.17 1732.68 1122.53C1735.65 1123.77 1738.19 1125.5 1740.29 1127.73C1742.52 1129.96 1744.25 1132.55 1745.49 1135.52C1746.72 1138.37 1747.34 1141.46 1747.34 1144.8V1253.53ZM2058.69 1277.84H2010.45V1212.52H1840.86V1277.84H1792.61V1144.8C1792.61 1125.38 1795.95 1107.5 1802.63 1091.18C1809.31 1074.85 1818.59 1060.81 1830.47 1049.06C1842.34 1037.31 1856.38 1028.15 1872.58 1021.6C1888.79 1015.04 1906.48 1011.76 1925.65 1011.76H2034.38C2037.72 1011.76 2040.88 1012.38 2043.84 1013.62C2046.81 1014.85 2049.41 1016.59 2051.64 1018.81C2053.86 1021.04 2055.6 1023.64 2056.83 1026.61C2058.07 1029.57 2058.69 1032.73 2058.69 1036.07V1277.84ZM1840.86 1164.28H2010.45V1060H1925.65C1924.17 1060 1921.01 1060.25 1916.19 1060.75C1911.49 1061.12 1905.98 1062.17 1899.67 1063.9C1893.49 1065.63 1886.93 1068.29 1880.01 1071.88C1873.08 1075.47 1866.71 1080.41 1860.9 1086.72C1855.08 1093.03 1850.26 1100.95 1846.42 1110.47C1842.71 1119.87 1840.86 1131.32 1840.86 1144.8V1164.28ZM2370.59 1199.54C2370.59 1209.06 2369.36 1217.66 2366.88 1225.33C2364.53 1232.87 2361.38 1239.55 2357.42 1245.37C2353.46 1251.18 2348.82 1256.13 2343.5 1260.21C2338.18 1264.29 2332.68 1267.63 2326.99 1270.23C2321.3 1272.83 2315.49 1274.74 2309.55 1275.98C2303.73 1277.22 2298.23 1277.84 2293.03 1277.84H2106.93V1229.59H2293.03C2302.31 1229.59 2309.49 1226.87 2314.56 1221.43C2319.75 1215.99 2322.35 1208.69 2322.35 1199.54C2322.35 1195.08 2321.67 1191 2320.31 1187.29C2318.95 1183.58 2316.97 1180.36 2314.37 1177.64C2311.9 1174.92 2308.81 1172.82 2305.09 1171.33C2301.51 1169.85 2297.49 1169.11 2293.03 1169.11H2182.08C2174.28 1169.11 2165.87 1167.74 2156.84 1165.02C2147.81 1162.18 2139.4 1157.66 2131.61 1151.48C2123.94 1145.29 2117.51 1137.19 2112.31 1127.17C2107.24 1117.15 2104.7 1104.91 2104.7 1090.43C2104.7 1075.96 2107.24 1063.78 2112.31 1053.88C2117.51 1043.86 2123.94 1035.76 2131.61 1029.57C2139.4 1023.27 2147.81 1018.75 2156.84 1016.03C2165.87 1013.18 2174.28 1011.76 2182.08 1011.76H2346.29V1060H2182.08C2172.92 1060 2165.75 1062.79 2160.55 1068.35C2155.48 1073.92 2152.95 1081.28 2152.95 1090.43C2152.95 1099.71 2155.48 1107.07 2160.55 1112.51C2165.75 1117.83 2172.92 1120.49 2182.08 1120.49H2293.03H2293.41C2298.6 1120.62 2304.11 1121.36 2309.92 1122.72C2315.73 1123.96 2321.48 1125.93 2327.17 1128.66C2332.99 1131.38 2338.49 1134.84 2343.69 1139.05C2348.88 1143.13 2353.46 1148.08 2357.42 1153.89C2361.5 1159.7 2364.72 1166.38 2367.07 1173.93C2369.42 1181.48 2370.59 1190.01 2370.59 1199.54ZM2671.36 1253.53C2671.36 1256.99 2670.75 1260.21 2669.51 1263.18C2668.27 1266.15 2666.54 1268.74 2664.31 1270.97C2662.09 1273.07 2659.49 1274.74 2656.52 1275.98C2653.55 1277.22 2650.4 1277.84 2647.06 1277.84H2538.33C2528.06 1277.84 2517.67 1276.72 2507.16 1274.5C2496.64 1272.27 2486.44 1268.87 2476.54 1264.29C2466.77 1259.59 2457.55 1253.65 2448.89 1246.48C2440.23 1239.3 2432.63 1230.83 2426.07 1221.06C2419.64 1211.16 2414.57 1199.91 2410.86 1187.29C2407.15 1174.55 2405.29 1160.38 2405.29 1144.8V1011.76H2453.53V1144.8C2453.53 1158.41 2455.39 1169.91 2459.1 1179.31C2462.93 1188.71 2467.76 1196.57 2473.57 1202.88C2479.39 1209.18 2485.76 1214.13 2492.68 1217.72C2499.61 1221.31 2506.17 1223.97 2512.35 1225.7C2518.66 1227.43 2524.16 1228.54 2528.86 1229.04C2533.69 1229.41 2536.84 1229.59 2538.33 1229.59H2623.12V1011.76H2671.36V1253.53ZM2983.27 1199.54C2983.27 1209.06 2982.03 1217.66 2979.56 1225.33C2977.21 1232.87 2974.05 1239.55 2970.09 1245.37C2966.14 1251.18 2961.5 1256.13 2956.18 1260.21C2950.86 1264.29 2945.36 1267.63 2939.67 1270.23C2933.97 1272.83 2928.16 1274.74 2922.22 1275.98C2916.41 1277.22 2910.91 1277.84 2905.71 1277.84H2719.61V1229.59H2905.71C2914.99 1229.59 2922.16 1226.87 2927.23 1221.43C2932.43 1215.99 2935.03 1208.69 2935.03 1199.54C2935.03 1195.08 2934.35 1191 2932.99 1187.29C2931.62 1183.58 2929.65 1180.36 2927.05 1177.64C2924.57 1174.92 2921.48 1172.82 2917.77 1171.33C2914.18 1169.85 2910.16 1169.11 2905.71 1169.11H2794.75C2786.96 1169.11 2778.55 1167.74 2769.52 1165.02C2760.49 1162.18 2752.08 1157.66 2744.28 1151.48C2736.61 1145.29 2730.18 1137.19 2724.99 1127.17C2719.92 1117.15 2717.38 1104.91 2717.38 1090.43C2717.38 1075.96 2719.92 1063.78 2724.99 1053.88C2730.18 1043.86 2736.61 1035.76 2744.28 1029.57C2752.08 1023.27 2760.49 1018.75 2769.52 1016.03C2778.55 1013.18 2786.96 1011.76 2794.75 1011.76H2958.96V1060H2794.75C2785.6 1060 2778.42 1062.79 2773.23 1068.35C2768.16 1073.92 2765.62 1081.28 2765.62 1090.43C2765.62 1099.71 2768.16 1107.07 2773.23 1112.51C2778.42 1117.83 2785.6 1120.49 2794.75 1120.49H2905.71H2906.08C2911.28 1120.62 2916.78 1121.36 2922.59 1122.72C2928.41 1123.96 2934.16 1125.93 2939.85 1128.66C2945.66 1131.38 2951.17 1134.84 2956.36 1139.05C2961.56 1143.13 2966.14 1148.08 2970.09 1153.89C2974.18 1159.7 2977.39 1166.38 2979.74 1173.93C2982.09 1181.48 2983.27 1190.01 2983.27 1199.54Z" fill="white"/>
    </g>
    <defs>
        <filter id="filter0_d_24_71" x="175.931" y="232" width="3601.14" height="4157" filterUnits="userSpaceOnUse" color-interpolation-filters="sRGB">
            <feFlood flood-opacity="0" result="BackgroundImageFix"/>
            <feColorMatrix in="SourceAlpha" type="matrix" values="0 0 0 0 0 0 0 0 0 0 0 0 0 0 0 0 0 0 127 0" result="hardAlpha"/>
            <feOffset dy="4"/>
            <feGaussianBlur stdDeviation="2"/>
            <feComposite in2="hardAlpha" operator="out"/>
            <feColorMatrix type="matrix" values="0 0 0 0 0 0 0 0 0 0 0 0 0 0 0 0 0 0 0.25 0"/>
            <feBlend mode="normal" in2="BackgroundImageFix" result="effect1_dropShadow_24_71"/>
            <feBlend mode="normal" in="SourceGraphic" in2="effect1_dropShadow_24_71" result="shape"/>
        </filter>
        <filter id="filter1_d_24_71" x="175.931" y="232" width="3601.14" height="4157" filterUnits="userSpaceOnUse" color-interpolation-filters="sRGB">
            <feFlood flood-opacity="0" result="BackgroundImageFix"/>
            <feColorMatrix in="SourceAlpha" type="matrix" values="0 0 0 0 0 0 0 0 0 0 0 0 0 0 0 0 0 0 127 0" result="hardAlpha"/>
            <feOffset dy="4"/>
            <feGaussianBlur stdDeviation="2"/>
            <feComposite in2="hardAlpha" operator="out"/>
            <feColorMatrix type="matrix" values="0 0 0 0 0 0 0 0 0 0 0 0 0 0 0 0 0 0 0.25 0"/>
            <feBlend mode="normal" in2="BackgroundImageFix" result="effect1_dropShadow_24_71"/>
            <feBlend mode="normal" in="SourceGraphic" in2="effect1_dropShadow_24_71" result="shape"/>
        </filter>
        <pattern id="pattern0" patternContentUnits="objectBoundingBox" width="1" height="1">
            <use xlink:href="#image0_24_71" transform="translate(0 -0.334259) scale(0.000925926)"/>
        </pattern>
        <filter id="filter2_f_24_71" x="522.865" y="1493.88" width="2918.2" height="2256.02" filterUnits="userSpaceOnUse" color-interpolation-filters="sRGB">
            <feFlood flood-opacity="0" result="BackgroundImageFix"/>
            <feBlend mode="normal" in="SourceGraphic" in2="BackgroundImageFix" result="shape"/>
            <feGaussianBlur stdDeviation="40" result="effect1_foregroundBlur_24_71"/>
        </filter>
        <filter id="filter3_f_24_71" x="812.155" y="931.762" width="2251.11" height="426.074" filterUnits="userSpaceOnUse" color-interpolation-filters="sRGB">
            <feFlood flood-opacity="0" result="BackgroundImageFix"/>
            <feBlend mode="normal" in="SourceGraphic" in2="BackgroundImageFix" result="shape"/>
            <feGaussianBlur stdDeviation="40" result="effect1_foregroundBlur_24_71"/>
        </filter>
        <filter id="filter4_d_24_71" x="888.155" y="1011.76" width="2099.11" height="290.074" filterUnits="userSpaceOnUse" color-interpolation-filters="sRGB">
            <feFlood flood-opacity="0" result="BackgroundImageFix"/>
            <feColorMatrix in="SourceAlpha" type="matrix" values="0 0 0 0 0 0 0 0 0 0 0 0 0 0 0 0 0 0 127 0" result="hardAlpha"/>
            <feOffset dy="20"/>
            <feGaussianBlur stdDeviation="2"/>
            <feComposite in2="hardAlpha" operator="out"/>
            <feColorMatrix type="matrix" values="0 0 0 0 0 0 0 0 0 0 0 0 0 0 0 0 0 0 0.25 0"/>
            <feBlend mode="normal" in2="BackgroundImageFix" result="effect1_dropShadow_24_71"/>
            <feBlend mode="normal" in="SourceGraphic" in2="effect1_dropShadow_24_71" result="shape"/>
        </filter>
        <linearGradient id="paint0_linear_24_71" x1="1976.5" y1="232" x2="1976.5" y2="4381" gradientUnits="userSpaceOnUse">
            <stop stop-color="#2E2B5F"/>
            <stop offset="1" stop-color="#3EB1C4"/>
        </linearGradient>
        <image id="image0_24_71" width="1080" height="1802" href="../stars-overlay.jpg" xlink:href="../stars-overlay.jpg"/>
        <image id="constellation" x="602.87" y="1572.89" href="./constellation.svg" xlink:href="./constellation.svg"/>
    </defs>
</svg>
