<svg width="526" height="298" viewBox="0 0 526 298" fill="none" xmlns="http://www.w3.org/2000/svg">
<path d="M359.192 26.5601C332.248 24.4568 308.059 37.629 297.206 58.0277C292.446 55.5769 287.203 54.0271 281.633 53.5923C267.103 52.4585 220.323 101.826 183.674 148.424C183.32 148.643 182.965 148.865 182.608 149.088C82.919 77.0132 8.88938 218.36 7.35814 237.976C-25.2314 287.664 64.9864 235.562 139.489 213.849C137.493 218.153 136.314 221.674 136.116 224.207C134.965 238.959 163.148 223.132 193.425 205.49C196.67 205.729 199.737 206.189 202.601 206.896C231.569 206.895 250.096 191.323 257.298 174.277C258.017 174.226 258.69 174.22 259.315 174.269C278.386 175.758 304.31 151.509 316.224 127.672C325.77 134.328 337.484 138.682 350.36 139.688C362.322 140.621 373.741 138.543 383.692 134.159C396.34 144.884 417.552 152.868 442.045 154.78C482.754 157.958 517.111 143.161 518.785 121.729C520.458 100.298 488.813 80.3475 448.104 77.1695C447.197 77.0988 446.294 77.0395 445.395 76.9865C441.357 61.264 427.613 49.1031 410.415 47.7604C408.194 47.587 406.001 47.6032 403.853 47.7909C393.138 36.0254 377.317 27.9751 359.192 26.5601Z" fill="#FCF7F7" fill-opacity="0.76"/>
</svg>
