<svg width="791" height="489" viewBox="0 0 791 489" fill="none" xmlns="http://www.w3.org/2000/svg">
<path d="M255.868 128.229C262.881 122.927 280.874 129.078 298.602 142.132C298.566 141.259 298.782 140.579 299.267 140.108C304.739 134.793 358.779 213.091 413.028 229.519C431.36 235.07 443.891 239.554 452.172 243.22C452.695 241.197 453.782 239.492 455.476 238.212C462.996 232.526 479.917 237.122 495.19 248.437C496.111 248.11 497.107 247.873 498.169 247.728C491.383 237.619 490.069 228.252 495.874 223.864C504.285 217.505 524.456 224.006 540.926 238.383C551.973 248.026 558.548 258.762 559.145 266.706C755.925 287.985 860.912 339.731 648.962 325.426C612.704 289.01 540.267 299.031 513.929 291.049C504.922 296.039 485.808 289.495 470.07 275.758C464.2 270.633 459.592 265.2 456.472 260.041C452.495 261.288 448.535 262.346 447.214 263.629C444.478 266.288 433.716 261.779 418.529 252.339C430.773 267.184 431.798 274.292 415.266 264.112C372.614 262.173 221.508 210.878 262.065 199.109C233.749 174.391 259.733 174.131 279.586 172.89C278.918 172.33 278.252 171.76 277.59 171.182C257.459 153.609 247.734 134.379 255.868 128.229Z" fill="#F7F7F7" fill-opacity="0.89"/>
<path d="M103.227 121.77C125.696 121.195 146.384 130.722 156.161 144.657C160.058 143.17 164.391 142.298 169.035 142.179C181.151 141.87 221.975 176.222 254.23 208.416C254.535 208.573 254.841 208.731 255.148 208.892C270.498 208.499 402.845 260.415 404.798 273.54C406.751 286.665 441.943 289.819 426.593 290.211C353.81 269.013 327.285 271.687 292.43 264.13C290.058 264.042 286.789 263.209 282.865 261.838C270.782 258.666 257.273 254.064 240.404 246.817C230.211 243.824 220.722 237.296 213.479 229.818C204.163 225.84 196.394 223.206 191.84 223.322C175.935 223.729 153.416 206.76 142.634 190.5C134.876 194.644 125.228 197.19 114.491 197.464C104.518 197.719 94.896 195.983 86.423 192.756C76.2101 199.519 58.7389 204.193 38.312 204.715C4.36563 205.582 -24.8831 194.66 -27.017 180.32C-29.1503 165.98 -3.36125 153.653 30.5848 152.785C31.3394 152.766 32.0919 152.754 32.8417 152.746C35.6795 142.387 46.7616 134.7 61.1037 134.334C62.9544 134.286 64.7876 134.364 66.5891 134.555C75.1497 127.039 88.1109 122.156 103.227 121.77Z" fill="#F7F7F7" fill-opacity="0.89"/>
</svg>
