<svg width="1923" height="1518" viewBox="0 0 1923 1518" fill="none" xmlns="http://www.w3.org/2000/svg">
<path d="M1957.67 30.5439V1517.49H-6.15625V694.84H608.176V413.866H631.116V395.69C606.534 395.238 590.529 382.569 591.384 370.568C592.331 357.27 625.05 346.335 648.319 345.742C671.588 345.15 696.315 356.857 696.315 370.568C724.236 386.539 694.854 397.873 645.392 395.715V413.866H664.256V500.282H748.376V608.424L818.731 568.354V500.282H957.912V460.695H938.539L957.912 428.35H1056.82L1076.19 460.695H1056.82V709.323H1106.27V523.938L1154.19 440.901V597.803H1321.92L1365.77 512.834H1397.89V497.646H1407.06V512.834L1407.06 270.266H1398.9V228.461H1407.06V199.911H1544.71V228.461H1553.89V270.266H1544.71V332.76H1544.71V295.756H1553.89V332.76H1732.33V-89.666L1957.67 30.5439ZM1407.06 472.156H1397.89V430.352H1407.06V472.156ZM1407.06 404.857H1397.89V363.053H1407.06V404.857ZM1407.06 337.561H1397.89V295.756H1407.06V337.561ZM1732.33 318.191H1703.83L1703.72 311.131L1732.33 285.562L1732.33 318.191ZM1732.33 267.147H1703.83L1703.72 260.087L1732.33 234.519L1732.33 267.147ZM1732.33 216.104H1703.83L1703.72 209.043L1732.33 183.475L1732.33 216.104ZM1732.33 165.058H1703.83L1703.72 157.997L1732.33 132.429L1732.33 165.058ZM1732.33 114.015H1703.83L1703.72 106.954L1732.33 81.3857L1732.33 114.015ZM1732.33 62.9736H1703.83L1703.72 55.9131L1732.33 30.3447L1732.33 62.9736ZM1732.33 11.9287H1703.83L1703.72 4.86816L1732.33 -20.7012L1732.33 11.9287Z" fill="url(#paint0_linear_2052_5227)"/>
<path d="M1011.44 436.007L1013.92 364.071L1016.39 436.007H1011.44" fill="#5EC1EA"/>
<path d="M1029.46 401.683L1022.3 405.581L1028.95 404.868C1026.83 415.931 1020.94 423.874 1014.01 423.874C1008.2 423.874 1003.12 418.331 1000.37 410.044L1005.56 404.123L999.096 405.188C998.504 402.248 998.188 399.079 998.188 395.771V395.64L1003.63 393.429L998.27 392.537C998.362 390.285 998.545 387.599 998.8 384.618C999.106 381.089 999.524 377.142 1000.04 373.006L1005.53 377.486L1000.78 367.397C1001.38 363.155 1002.06 358.832 1002.83 354.639L1008.05 357.014L1003.59 350.658C1004.53 345.95 1005.58 341.521 1006.7 337.728L1012.41 341.218L1008.1 333.462C1009.91 328.468 1011.91 325.323 1014.01 325.323C1016.19 325.323 1018.26 328.746 1020.14 334.109L1018.42 337.114L1020.72 335.821C1021.47 338.155 1022.19 340.791 1022.88 343.624L1019.39 349.112L1023.48 346.229C1024.53 350.97 1025.48 356.145 1026.31 361.354L1020.18 366.668L1026.79 364.449C1027.16 366.873 1027.49 369.288 1027.79 371.655C1028.45 376.814 1028.96 381.727 1029.31 385.961L1022.3 391.397L1029.58 389.76C1029.73 392.119 1029.81 394.157 1029.81 395.771C1029.81 397.802 1029.68 399.775 1029.46 401.683Z" fill="#5EC1EA"/>
<defs>
<linearGradient id="paint0_linear_2052_5227" x1="975.756" y1="-89.666" x2="872.262" y2="1517.29" gradientUnits="userSpaceOnUse">
<stop offset="0.0761081" stop-color="#B6E9FE"/>
<stop offset="0.341076" stop-color="#57BEE9"/>
<stop offset="1" stop-color="#AEE2F7"/>
</linearGradient>
</defs>
</svg>
