<svg width="2837" height="1369" viewBox="0 0 2837 1369" fill="none" xmlns="http://www.w3.org/2000/svg">
<g filter="url(#filter0_f_1732_1939)">
<mask id="path-1-inside-1_1732_1939" fill="white">
<path d="M2638.53 73.6942C2671.08 81.1287 2692.13 111.121 2686.37 141.265C2743.22 173.931 2775.42 234.994 2761.71 295.036C2744.38 370.929 2660.25 416.449 2573.8 396.707C2566.47 395.031 2559.35 392.938 2552.48 390.466C2592.25 445.601 2628.32 444.157 2611.55 491.752C2687.49 538.199 2637.67 571.991 2543.6 552.454C2549.82 564.173 2555.24 575.529 2559.7 586.225C2603.26 690.629 2771.07 1058.6 2580.61 1119.88C2574.09 1121.98 2567.24 1123.69 2560.08 1125.03C2485.84 1228.38 2158.94 1113.99 1246.76 1296.88C410.129 1305.16 -98.0861 890.672 123.527 850.952C345.141 811.233 686.323 822.002 767.638 918.788C877.666 1049.75 1147.89 857.634 1035.43 774.792C994.48 744.628 1031.71 718.123 1116.09 698.768C1122.97 683.556 1134.38 670.416 1149.19 659.761C1144.58 658.863 1140.44 656.911 1137.05 653.829C1122.62 640.705 1127.29 612.082 1147.47 589.898C1159.41 576.769 1174.11 568.839 1187.12 567.272C1186.51 565.382 1186.54 563.674 1187.3 562.243C1190.67 555.926 1209.74 554.077 1231.12 570.722C1241.62 552.211 1265.57 542.263 1290.08 547.859C1319.25 554.521 1338.15 580.689 1332.3 606.308C1330.66 613.484 1327.25 619.856 1322.55 625.165C1323.95 626.847 1324.74 628.96 1324.72 631.166C1332.13 629.982 1341.8 632.087 1350.71 637.447C1355.95 640.598 1360.21 644.44 1363.23 648.455C1366.95 648.999 1370.81 649.716 1374.75 650.615C1383.9 652.705 1392.26 655.497 1399.21 658.614C1399.97 653.288 1400.96 647.932 1402.18 642.563C1404.71 631.503 1408.11 620.933 1412.27 610.947C1408.21 605.47 1406.44 599.168 1407.84 593.041C1409.58 585.4 1415.89 579.651 1424.38 576.812C1416.87 564.548 1413.98 549.074 1417.55 533.481C1424.5 503.043 1453.37 483.674 1482.03 490.22C1484.92 490.879 1487.69 491.776 1490.34 492.887C1491.13 487.769 1494.08 483.88 1498.41 483.081C1498.78 483.013 1499.15 482.97 1499.52 482.949C1501.76 475.545 1506.07 470.124 1512.35 467.801C1520.55 464.773 1530.61 467.564 1540.41 474.565C1550.62 465.759 1562.66 461.67 1574.27 464.323C1593.13 468.63 1605.27 489.431 1605.8 514.745C1612.91 508.6 1622.84 505.811 1632.82 508.091C1649.31 511.857 1659.68 528.027 1655.99 544.209C1654.18 552.138 1649.32 558.597 1642.9 562.681C1644.82 564.064 1646.7 565.834 1648.38 567.924C1653.93 574.858 1655.14 582.66 1651.08 585.351C1650.84 585.511 1650.58 585.647 1650.32 585.764C1654.74 590.125 1658.04 595.726 1659.92 602.004C1662.12 602.063 1664.35 602.289 1666.59 602.693C1675 594.869 1688.36 591.342 1702.04 594.467C1720.08 598.587 1732.6 612.878 1732.37 627.879C1735.72 630.628 1737.76 633.591 1738.13 636.781C1739.15 645.562 1744.24 659.304 1750.19 674.603C1760.51 675.406 1770.83 676.266 1781.12 677.182C1790.23 660.567 1806.04 645.2 1826.69 634.726C1845.43 625.219 1865.07 621.31 1882.59 622.512C1883.21 618.468 1884 614.355 1884.95 610.186C1886.33 559.251 1917.2 551.053 1945.52 538.162C1945.64 535.321 1946.01 532.468 1946.66 529.625C1951.17 509.888 2000.55 490.08 2044.21 481.128C2047.13 462.392 2057.36 441.596 2073.11 422.382C2100.42 409 2084.46 325.006 2168.33 379.01C2165.88 371.527 2165.35 363.678 2167.12 355.93C2173.57 327.67 2181.41 303.617 2217.63 311.89C2232.93 316.078 2245.54 320.223 2255.9 324.367C2246.92 294.856 2255.58 264.341 2280.43 248.065C2313.52 226.404 2362.77 238.167 2390.45 274.338C2390.89 274.91 2391.32 275.485 2391.74 276.063C2392.67 275.66 2393.6 275.265 2394.53 274.878C2394.81 268.416 2397.65 261.382 2403.17 254.796C2416.48 238.92 2427.83 242.617 2445.6 247.024C2445.87 239.223 2446.88 231.374 2448.66 223.542C2450.68 214.735 2453.59 206.338 2457.3 198.403C2443.73 184.75 2437.17 165.498 2441.54 146.371C2448.57 115.603 2481.2 96.8129 2514.43 104.402C2528.07 107.518 2539.69 114.598 2548.17 123.99C2553.6 122.413 2559.16 121.102 2564.82 120.069C2565.03 118.601 2565.3 117.131 2565.64 115.663C2572.67 84.8951 2605.3 66.1054 2638.53 73.6942Z"/>
</mask>
<path d="M2638.53 73.6942C2671.08 81.1287 2692.13 111.121 2686.37 141.265C2743.22 173.931 2775.42 234.994 2761.71 295.036C2744.38 370.929 2660.25 416.449 2573.8 396.707C2566.47 395.031 2559.35 392.938 2552.48 390.466C2592.25 445.601 2628.32 444.157 2611.55 491.752C2687.49 538.199 2637.67 571.991 2543.6 552.454C2549.82 564.173 2555.24 575.529 2559.7 586.225C2603.26 690.629 2771.07 1058.6 2580.61 1119.88C2574.09 1121.98 2567.24 1123.69 2560.08 1125.03C2485.84 1228.38 2158.94 1113.99 1246.76 1296.88C410.129 1305.16 -98.0861 890.672 123.527 850.952C345.141 811.233 686.323 822.002 767.638 918.788C877.666 1049.75 1147.89 857.634 1035.43 774.792C994.48 744.628 1031.71 718.123 1116.09 698.768C1122.97 683.556 1134.38 670.416 1149.19 659.761C1144.58 658.863 1140.44 656.911 1137.05 653.829C1122.62 640.705 1127.29 612.082 1147.47 589.898C1159.41 576.769 1174.11 568.839 1187.12 567.272C1186.51 565.382 1186.54 563.674 1187.3 562.243C1190.67 555.926 1209.74 554.077 1231.12 570.722C1241.62 552.211 1265.57 542.263 1290.08 547.859C1319.25 554.521 1338.15 580.689 1332.3 606.308C1330.66 613.484 1327.25 619.856 1322.55 625.165C1323.95 626.847 1324.74 628.96 1324.72 631.166C1332.13 629.982 1341.8 632.087 1350.71 637.447C1355.95 640.598 1360.21 644.44 1363.23 648.455C1366.95 648.999 1370.81 649.716 1374.75 650.615C1383.9 652.705 1392.26 655.497 1399.21 658.614C1399.97 653.288 1400.96 647.932 1402.18 642.563C1404.71 631.503 1408.11 620.933 1412.27 610.947C1408.21 605.47 1406.44 599.168 1407.84 593.041C1409.58 585.4 1415.89 579.651 1424.38 576.812C1416.87 564.548 1413.98 549.074 1417.55 533.481C1424.5 503.043 1453.37 483.674 1482.03 490.22C1484.92 490.879 1487.69 491.776 1490.34 492.887C1491.13 487.769 1494.08 483.88 1498.41 483.081C1498.78 483.013 1499.15 482.97 1499.52 482.949C1501.76 475.545 1506.07 470.124 1512.35 467.801C1520.55 464.773 1530.61 467.564 1540.41 474.565C1550.62 465.759 1562.66 461.67 1574.27 464.323C1593.13 468.63 1605.27 489.431 1605.8 514.745C1612.91 508.6 1622.84 505.811 1632.82 508.091C1649.31 511.857 1659.68 528.027 1655.99 544.209C1654.18 552.138 1649.32 558.597 1642.9 562.681C1644.82 564.064 1646.7 565.834 1648.38 567.924C1653.93 574.858 1655.14 582.66 1651.08 585.351C1650.84 585.511 1650.58 585.647 1650.32 585.764C1654.74 590.125 1658.04 595.726 1659.92 602.004C1662.12 602.063 1664.35 602.289 1666.59 602.693C1675 594.869 1688.36 591.342 1702.04 594.467C1720.08 598.587 1732.6 612.878 1732.37 627.879C1735.72 630.628 1737.76 633.591 1738.13 636.781C1739.15 645.562 1744.24 659.304 1750.19 674.603C1760.51 675.406 1770.83 676.266 1781.12 677.182C1790.23 660.567 1806.04 645.2 1826.69 634.726C1845.43 625.219 1865.07 621.31 1882.59 622.512C1883.21 618.468 1884 614.355 1884.95 610.186C1886.33 559.251 1917.2 551.053 1945.52 538.162C1945.64 535.321 1946.01 532.468 1946.66 529.625C1951.17 509.888 2000.55 490.08 2044.21 481.128C2047.13 462.392 2057.36 441.596 2073.11 422.382C2100.42 409 2084.46 325.006 2168.33 379.01C2165.88 371.527 2165.35 363.678 2167.12 355.93C2173.57 327.67 2181.41 303.617 2217.63 311.89C2232.93 316.078 2245.54 320.223 2255.9 324.367C2246.92 294.856 2255.58 264.341 2280.43 248.065C2313.52 226.404 2362.77 238.167 2390.45 274.338C2390.89 274.91 2391.32 275.485 2391.74 276.063C2392.67 275.66 2393.6 275.265 2394.53 274.878C2394.81 268.416 2397.65 261.382 2403.17 254.796C2416.48 238.92 2427.83 242.617 2445.6 247.024C2445.87 239.223 2446.88 231.374 2448.66 223.542C2450.68 214.735 2453.59 206.338 2457.3 198.403C2443.73 184.75 2437.17 165.498 2441.54 146.371C2448.57 115.603 2481.2 96.8129 2514.43 104.402C2528.07 107.518 2539.69 114.598 2548.17 123.99C2553.6 122.413 2559.16 121.102 2564.82 120.069C2565.03 118.601 2565.3 117.131 2565.64 115.663C2572.67 84.8951 2605.3 66.1054 2638.53 73.6942Z" fill="url(#paint0_linear_1732_1939)"/>
<path d="M2638.53 73.6942L2642.39 56.7954L2638.53 73.6942ZM2686.37 141.265L2669.34 138.011L2667.02 150.142L2677.73 156.295L2686.37 141.265ZM2761.71 295.036L2778.61 298.895L2778.61 298.895L2761.71 295.036ZM2573.8 396.707L2569.94 413.605L2573.8 396.707ZM2552.48 390.466L2558.34 374.155L2505.67 355.209L2538.42 400.607L2552.48 390.466ZM2611.55 491.752L2595.2 485.993L2590.54 499.221L2602.51 506.539L2611.55 491.752ZM2543.6 552.454L2547.12 535.482L2510.99 527.978L2528.29 560.578L2543.6 552.454ZM2559.7 586.225L2575.7 579.551L2559.7 586.225ZM2580.61 1119.88L2585.92 1136.38L2580.61 1119.88ZM2560.08 1125.03L2556.88 1108L2550.06 1109.28L2546.01 1114.92L2560.08 1125.03ZM1246.76 1296.88L1246.93 1314.21L1248.56 1314.19L1250.16 1313.87L1246.76 1296.88ZM123.527 850.952L120.469 833.89L120.469 833.89L123.527 850.952ZM767.638 918.788L780.909 907.638L780.909 907.638L767.638 918.788ZM1035.43 774.792L1025.15 788.748L1025.15 788.748L1035.43 774.792ZM1116.09 698.768L1119.97 715.663L1128.34 713.742L1131.88 705.914L1116.09 698.768ZM1149.19 659.761L1159.31 673.832L1191.88 650.406L1152.5 642.746L1149.19 659.761ZM1137.05 653.829L1125.39 666.651L1125.39 666.651L1137.05 653.829ZM1147.47 589.898L1134.65 578.234L1134.65 578.234L1147.47 589.898ZM1187.12 567.272L1189.19 584.481L1210.05 581.966L1203.62 561.963L1187.12 567.272ZM1187.3 562.243L1172.01 554.085L1172.01 554.086L1187.3 562.243ZM1231.12 570.722L1220.47 584.399L1236.29 596.721L1246.19 579.278L1231.12 570.722ZM1290.08 547.859L1293.94 530.96L1293.94 530.96L1290.08 547.859ZM1332.3 606.308L1349.2 610.167L1349.2 610.167L1332.3 606.308ZM1322.55 625.165L1309.57 613.677L1299.74 624.787L1309.2 636.216L1322.55 625.165ZM1324.72 631.166L1307.38 630.961L1307.14 651.527L1327.45 648.283L1324.72 631.166ZM1350.71 637.447L1359.64 622.59L1359.64 622.59L1350.71 637.447ZM1363.23 648.455L1349.37 658.866L1353.66 664.577L1360.73 665.608L1363.23 648.455ZM1374.75 650.615L1378.61 633.716L1374.75 650.615ZM1399.21 658.614L1392.11 674.428L1413.11 683.855L1416.37 661.065L1399.21 658.614ZM1402.18 642.563L1385.28 638.703L1385.28 638.704L1402.18 642.563ZM1412.27 610.947L1428.27 617.616L1432.06 608.526L1426.19 600.617L1412.27 610.947ZM1407.84 593.041L1390.94 589.182L1390.94 589.182L1407.84 593.041ZM1424.38 576.812L1429.88 593.251L1450.54 586.341L1439.16 567.758L1424.38 576.812ZM1417.55 533.481L1400.65 529.622L1417.55 533.481ZM1482.03 490.22L1485.89 473.321L1485.89 473.321L1482.03 490.22ZM1490.34 492.887L1483.63 508.871L1504.08 517.451L1507.47 495.532L1490.34 492.887ZM1498.41 483.081L1495.26 466.035L1495.26 466.035L1498.41 483.081ZM1499.52 482.949L1500.49 500.255L1512.6 499.577L1516.11 487.964L1499.52 482.949ZM1512.35 467.801L1506.34 451.542L1512.35 467.801ZM1540.41 474.565L1530.34 488.67L1541.42 496.587L1551.73 487.691L1540.41 474.565ZM1574.27 464.323L1578.13 447.424L1578.13 447.424L1574.27 464.323ZM1605.8 514.745L1588.47 515.108L1589.24 551.975L1617.14 527.857L1605.8 514.745ZM1632.82 508.091L1636.68 491.192L1636.68 491.192L1632.82 508.091ZM1655.99 544.209L1672.89 548.068L1655.99 544.209ZM1642.9 562.681L1633.6 548.057L1612.02 561.788L1632.77 576.743L1642.9 562.681ZM1648.38 567.924L1661.9 557.084L1661.9 557.084L1648.38 567.924ZM1651.08 585.351L1660.65 599.805L1660.65 599.804L1651.08 585.351ZM1650.32 585.764L1643.34 569.897L1619.97 580.176L1638.15 598.106L1650.32 585.764ZM1659.92 602.004L1643.31 606.967L1646.91 618.992L1659.45 619.332L1659.92 602.004ZM1666.59 602.693L1663.53 619.754L1672.06 621.285L1678.4 615.383L1666.59 602.693ZM1702.04 594.467L1705.9 577.568L1702.04 594.467ZM1732.37 627.879L1715.04 627.619L1714.92 635.977L1721.38 641.279L1732.37 627.879ZM1738.13 636.781L1720.91 638.773L1720.91 638.773L1738.13 636.781ZM1750.19 674.603L1734.03 680.885L1737.98 691.039L1748.84 691.884L1750.19 674.603ZM1781.12 677.182L1779.59 694.448L1790.87 695.452L1796.32 685.516L1781.12 677.182ZM1826.69 634.726L1818.85 619.267L1818.85 619.267L1826.69 634.726ZM1882.59 622.512L1881.4 639.805L1897.31 640.896L1899.72 625.142L1882.59 622.512ZM1884.95 610.186L1901.85 614.045L1902.23 612.373L1902.27 610.658L1884.95 610.186ZM1945.52 538.162L1952.7 553.938L1962.4 549.523L1962.84 538.874L1945.52 538.162ZM1946.66 529.625L1929.76 525.766L1929.76 525.766L1946.66 529.625ZM2044.21 481.128L2047.69 498.108L2059.48 495.691L2061.33 483.801L2044.21 481.128ZM2073.11 422.382L2065.48 406.817L2062.1 408.476L2059.7 411.393L2073.11 422.382ZM2168.33 379.01L2158.94 393.584L2199.97 420.002L2184.8 373.622L2168.33 379.01ZM2167.12 355.93L2150.22 352.071L2150.22 352.071L2167.12 355.93ZM2217.63 311.89L2222.21 295.172L2221.85 295.074L2221.49 294.992L2217.63 311.89ZM2255.9 324.367L2249.46 340.461L2282.99 353.869L2272.48 319.323L2255.9 324.367ZM2280.43 248.065L2270.94 233.564L2270.94 233.564L2280.43 248.065ZM2390.45 274.338L2404.22 263.804L2404.22 263.804L2390.45 274.338ZM2391.74 276.063L2377.74 286.288L2385.94 297.499L2398.66 291.954L2391.74 276.063ZM2394.53 274.878L2401.15 290.899L2411.37 286.675L2411.85 275.622L2394.53 274.878ZM2403.17 254.796L2389.89 243.663L2389.89 243.663L2403.17 254.796ZM2445.6 247.024L2441.42 263.848L2462.17 268.996L2462.92 247.631L2445.6 247.024ZM2448.66 223.542L2431.77 219.682L2431.77 219.682L2448.66 223.542ZM2457.3 198.403L2473 205.745L2478.13 194.774L2469.59 186.185L2457.3 198.403ZM2441.54 146.371L2424.64 142.512L2424.64 142.512L2441.54 146.371ZM2514.43 104.402L2518.29 87.5029L2514.43 104.402ZM2548.17 123.99L2535.3 135.602L2542.57 143.662L2553 140.637L2548.17 123.99ZM2564.82 120.069L2567.93 137.122L2580.23 134.879L2581.99 122.506L2564.82 120.069ZM2565.64 115.663L2548.74 111.803L2548.74 111.803L2565.64 115.663ZM2638.53 73.6942L2634.67 90.593C2659.27 96.2122 2673.14 118.149 2669.34 138.011L2686.37 141.265L2703.39 144.52C2711.12 104.092 2682.89 66.0452 2642.39 56.7954L2638.53 73.6942ZM2686.37 141.265L2677.73 156.295C2729.31 185.932 2756.51 239.962 2744.81 291.177L2761.71 295.036L2778.61 298.895C2794.34 230.026 2757.13 161.93 2695 126.236L2686.37 141.265ZM2761.71 295.036L2744.81 291.176C2730.07 355.737 2656.91 397.906 2577.66 379.808L2573.8 396.707L2569.94 413.605C2663.59 434.992 2758.69 386.121 2778.61 298.895L2761.71 295.036ZM2573.8 396.707L2577.66 379.808C2571.01 378.288 2564.56 376.392 2558.34 374.155L2552.48 390.466L2546.61 406.777C2554.14 409.484 2561.92 411.774 2569.94 413.605L2573.8 396.707ZM2552.48 390.466L2538.42 400.607C2559.03 429.18 2581.52 446.293 2590.67 455.894C2595.66 461.136 2597.41 464.382 2598.07 467.353C2598.75 470.422 2598.81 475.751 2595.2 485.993L2611.55 491.752L2627.9 497.511C2632.68 483.956 2634.52 471.617 2631.91 459.848C2629.28 447.98 2622.67 439.218 2615.77 431.979C2601.13 416.619 2585.7 406.887 2566.54 380.324L2552.48 390.466ZM2611.55 491.752L2602.51 506.539C2620.65 517.633 2628.26 526.292 2630.59 531.119C2631.57 533.145 2631.15 533.489 2631.31 532.773C2631.47 532.041 2631.77 532.292 2630.48 533.327C2627.23 535.934 2618.83 539.391 2603.4 540.45C2588.6 541.465 2569.46 540.122 2547.12 535.482L2543.6 552.454L2540.08 569.425C2564.77 574.554 2587.14 576.314 2605.77 575.036C2623.76 573.802 2640.71 569.572 2652.18 560.367C2658.25 555.496 2663.26 548.81 2665.15 540.269C2667.04 531.744 2665.37 523.408 2661.81 516.039C2655.06 502.077 2640.43 489.095 2620.6 476.965L2611.55 491.752ZM2543.6 552.454L2528.29 560.578C2534.29 571.899 2539.48 582.769 2543.7 592.899L2559.7 586.225L2575.7 579.551C2571 568.289 2565.34 556.447 2558.91 544.329L2543.6 552.454ZM2559.7 586.225L2543.7 592.899C2565.76 645.764 2617.77 762.067 2640.95 872.775C2652.56 928.237 2656.46 980.311 2646.93 1021.41C2637.66 1061.42 2616.02 1090.28 2575.3 1103.38L2580.61 1119.88L2585.92 1136.38C2640.43 1118.85 2669.24 1078.72 2680.71 1029.24C2691.92 980.848 2686.86 922.914 2674.88 865.673C2650.87 750.974 2597.2 631.09 2575.7 579.551L2559.7 586.225ZM2580.61 1119.88L2575.3 1103.38C2569.54 1105.24 2563.4 1106.77 2556.88 1108L2560.08 1125.03L2563.28 1142.07C2571.08 1140.6 2578.65 1138.72 2585.92 1136.38L2580.61 1119.88ZM2560.08 1125.03L2546.01 1114.92C2532.14 1134.22 2504.79 1145.93 2449.76 1152.56C2395.38 1159.11 2320.31 1160.19 2217.04 1163.81C2011.4 1171.01 1700.64 1188.2 1243.35 1279.88L1246.76 1296.88L1250.16 1313.87C1705.06 1222.67 2013.84 1205.61 2218.25 1198.45C2320.02 1194.89 2397.6 1193.76 2453.9 1186.98C2509.55 1180.27 2550.91 1167.52 2574.16 1135.15L2560.08 1125.03ZM1246.76 1296.88L1246.59 1279.54C831.021 1283.66 497.665 1182.73 296.388 1076.58C195.168 1023.2 129.416 969.579 102.309 928.932C88.5236 908.261 87.3924 895.096 90.076 887.951C92.5287 881.421 101.103 872.581 126.585 868.014L123.527 850.952L120.469 833.89C90.5485 839.253 66.5264 852.054 57.622 875.762C48.9485 898.854 57.6994 924.524 73.4669 948.167C105.466 996.148 177.505 1053.08 280.216 1107.25C486.8 1216.2 825.865 1318.38 1246.93 1314.21L1246.76 1296.88ZM123.527 850.952L126.585 868.014C235.898 848.422 375.105 841.25 496.816 850.96C557.668 855.814 613.568 864.846 658.896 878.381C704.797 892.087 737.354 909.689 754.366 929.938L767.638 918.788L780.909 907.638C757.264 879.494 716.68 859.455 668.815 845.162C620.376 830.699 561.883 821.373 499.573 816.402C374.961 806.46 232.77 813.763 120.469 833.89L123.527 850.952ZM767.638 918.788L754.366 929.938C785.921 967.498 828.932 981.501 872.107 980.518C914.881 979.545 958.457 963.967 994.15 941.668C1029.58 919.532 1059.47 889.357 1072.56 857.191C1079.2 840.866 1081.78 823.297 1077.56 806.02C1073.29 788.557 1062.51 773.215 1045.71 760.835L1035.43 774.792L1025.15 788.748C1036.46 797.079 1041.83 805.862 1043.88 814.25C1045.98 822.825 1045.04 832.833 1040.45 844.123C1031.06 867.185 1007.6 892.388 975.782 912.266C944.223 931.982 906.642 945.056 871.318 945.859C836.396 946.654 804.368 935.561 780.909 907.638L767.638 918.788ZM1035.43 774.792L1045.71 760.836C1036.79 754.265 1036.07 750.621 1036.07 750.588C1036.07 750.586 1036.07 750.607 1036.07 750.643C1036.07 750.679 1036.06 750.706 1036.06 750.717C1036.06 750.751 1036.07 750.611 1036.24 750.271C1036.61 749.522 1037.64 747.98 1040.13 745.806C1045.29 741.322 1054.42 736.123 1068.37 730.742C1082.07 725.455 1099.37 720.386 1119.97 715.663L1116.09 698.768L1112.22 681.872C1090.62 686.826 1071.62 692.329 1055.89 698.398C1040.4 704.373 1026.97 711.315 1017.38 719.647C1007.75 728.024 999.665 740.081 1001.71 755.23C1003.61 769.255 1013.59 780.236 1025.15 788.748L1035.43 774.792ZM1116.09 698.768L1131.88 705.914C1137.32 693.894 1146.55 683.01 1159.31 673.832L1149.19 659.761L1139.07 645.689C1122.2 657.821 1108.63 673.218 1100.3 691.621L1116.09 698.768ZM1149.19 659.761L1152.5 642.746C1150.66 642.388 1149.51 641.73 1148.71 641.006L1137.05 653.829L1125.39 666.651C1131.37 672.091 1138.49 675.338 1145.88 676.775L1149.19 659.761ZM1137.05 653.829L1148.71 641.007C1147.27 639.695 1145.09 636.043 1146.39 628.049C1147.66 620.248 1152.13 610.539 1160.29 601.562L1147.47 589.898L1134.65 578.234C1122.63 591.441 1114.67 607.135 1112.17 622.473C1109.71 637.617 1112.4 654.838 1125.39 666.651L1137.05 653.829ZM1147.47 589.898L1160.29 601.563C1170.06 590.826 1181.16 585.449 1189.19 584.481L1187.12 567.272L1185.04 550.062C1167.07 552.228 1148.77 562.712 1134.65 578.234L1147.47 589.898ZM1187.12 567.272L1203.62 561.963C1203.97 563.066 1204.68 566.499 1202.6 570.4L1187.3 562.243L1172.01 554.086C1168.4 560.849 1169.05 567.699 1170.62 572.581L1187.12 567.272ZM1187.3 562.243L1202.59 570.401C1201.49 572.463 1200.12 573.677 1199.24 574.291C1198.37 574.904 1197.76 575.098 1197.68 575.124C1197.55 575.162 1198.48 574.883 1200.64 575.11C1204.82 575.55 1211.94 577.757 1220.47 584.399L1231.12 570.722L1241.77 557.045C1228.92 547.042 1215.82 541.85 1204.27 540.633C1198.57 540.031 1192.76 540.358 1187.45 542C1182.5 543.527 1175.82 546.927 1172.01 554.085L1187.3 562.243ZM1231.12 570.722L1246.19 579.278C1252.39 568.355 1268.08 560.614 1286.22 564.758L1290.08 547.859L1293.94 530.96C1263.07 523.912 1230.85 536.067 1216.04 562.167L1231.12 570.722ZM1290.08 547.859L1286.22 564.758C1308.18 569.774 1318.67 588.157 1315.4 602.449L1332.3 606.308L1349.2 610.167C1357.64 573.221 1330.31 539.267 1293.94 530.96L1290.08 547.859ZM1332.3 606.308L1315.4 602.448C1314.44 606.653 1312.45 610.432 1309.57 613.677L1322.55 625.165L1335.53 636.653C1342.06 629.28 1346.88 620.316 1349.2 610.167L1332.3 606.308ZM1322.55 625.165L1309.2 636.216C1308.13 634.927 1307.36 633.101 1307.38 630.961L1324.72 631.166L1342.05 631.372C1342.13 624.819 1339.76 618.767 1335.91 614.114L1322.55 625.165ZM1324.72 631.166L1327.45 648.283C1329.93 647.888 1335.49 648.519 1341.78 652.303L1350.71 637.447L1359.64 622.59C1348.1 615.655 1334.34 612.075 1321.98 614.049L1324.72 631.166ZM1350.71 637.447L1341.78 652.303C1345.3 654.419 1347.82 656.807 1349.37 658.866L1363.23 648.455L1377.09 638.044C1372.6 632.073 1366.61 626.777 1359.64 622.59L1350.71 637.447ZM1363.23 648.455L1360.73 665.608C1363.99 666.084 1367.4 666.716 1370.89 667.513L1374.75 650.615L1378.61 633.716C1374.23 632.717 1369.92 631.914 1365.73 631.303L1363.23 648.455ZM1374.75 650.615L1370.89 667.513C1379.06 669.379 1386.32 671.83 1392.11 674.428L1399.21 658.614L1406.3 642.8C1398.2 639.164 1388.74 636.031 1378.61 633.716L1374.75 650.615ZM1399.21 658.614L1416.37 661.065C1417.06 656.21 1417.96 651.324 1419.08 646.422L1402.18 642.563L1385.28 638.704C1383.95 644.541 1382.87 650.367 1382.05 656.163L1399.21 658.614ZM1402.18 642.563L1419.08 646.422C1421.39 636.322 1424.49 626.691 1428.27 617.616L1412.27 610.947L1396.27 604.278C1391.73 615.174 1388.03 626.684 1385.28 638.703L1402.18 642.563ZM1412.27 610.947L1426.19 600.617C1425.33 599.449 1424.95 598.519 1424.8 597.933C1424.66 597.392 1424.69 597.089 1424.74 596.9L1407.84 593.041L1390.94 589.182C1388.18 601.286 1391.97 612.675 1398.36 621.277L1412.27 610.947ZM1407.84 593.041L1424.74 596.901C1424.78 596.701 1424.92 596.27 1425.6 595.618C1426.33 594.909 1427.69 593.981 1429.88 593.251L1424.38 576.812L1418.88 560.373C1406.48 564.52 1394.41 573.987 1390.94 589.182L1407.84 593.041ZM1424.38 576.812L1439.16 567.758C1434 559.329 1431.9 548.488 1434.44 537.34L1417.55 533.481L1400.65 529.622C1396.07 549.661 1399.74 569.766 1409.6 585.866L1424.38 576.812ZM1417.55 533.481L1434.44 537.34C1439.49 515.264 1459.78 502.92 1478.17 507.119L1482.03 490.22L1485.89 473.321C1446.95 464.429 1409.51 490.822 1400.65 529.622L1417.55 533.481ZM1482.03 490.22L1478.17 507.119C1480.08 507.554 1481.9 508.144 1483.63 508.871L1490.34 492.887L1497.04 476.902C1493.48 475.408 1489.75 474.204 1485.89 473.321L1482.03 490.22ZM1490.34 492.887L1507.47 495.532C1507.47 495.532 1507.47 495.541 1507.46 495.558C1507.46 495.575 1507.45 495.601 1507.44 495.636C1507.42 495.704 1507.39 495.812 1507.33 495.955C1507.22 496.234 1506.98 496.691 1506.55 497.231C1505.6 498.409 1503.88 499.697 1501.55 500.128L1498.41 483.081L1495.26 466.035C1481.26 468.618 1474.69 480.617 1473.21 490.242L1490.34 492.887ZM1498.41 483.081L1501.55 500.128C1501.17 500.197 1500.82 500.237 1500.49 500.255L1499.52 482.949L1498.55 465.642C1497.48 465.702 1496.38 465.829 1495.26 466.035L1498.41 483.081ZM1499.52 482.949L1516.11 487.964C1516.69 486.052 1517.35 485.03 1517.74 484.565C1518.06 484.174 1518.24 484.104 1518.36 484.061L1512.35 467.801L1506.34 451.542C1493.59 456.255 1486.26 466.916 1482.93 477.934L1499.52 482.949ZM1512.35 467.801L1518.36 484.061C1518.71 483.932 1522.57 483.121 1530.34 488.67L1540.41 474.565L1550.49 460.46C1538.65 452.006 1522.39 445.615 1506.34 451.542L1512.35 467.801ZM1540.41 474.565L1551.73 487.691C1559 481.427 1565.57 480.116 1570.41 481.221L1574.27 464.323L1578.13 447.424C1559.74 443.224 1542.25 450.09 1529.09 461.439L1540.41 474.565ZM1574.27 464.323L1570.41 481.221C1578.04 482.963 1588.02 493.502 1588.47 515.108L1605.8 514.745L1623.13 514.382C1622.52 485.36 1608.23 454.297 1578.13 447.424L1574.27 464.323ZM1605.8 514.745L1617.14 527.857C1620.19 525.22 1624.51 523.973 1628.96 524.99L1632.82 508.091L1636.68 491.192C1621.17 487.65 1605.63 491.981 1594.46 501.633L1605.8 514.745ZM1632.82 508.091L1628.96 524.99C1636.42 526.693 1640.58 533.8 1639.09 540.35L1655.99 544.209L1672.89 548.068C1678.78 522.255 1662.2 497.02 1636.68 491.192L1632.82 508.091ZM1655.99 544.209L1639.09 540.35C1638.34 543.606 1636.37 546.295 1633.6 548.057L1642.9 562.681L1652.21 577.306C1662.28 570.899 1670.01 560.671 1672.89 548.068L1655.99 544.209ZM1642.9 562.681L1632.77 576.743C1633.38 577.186 1634.13 577.864 1634.85 578.765L1648.38 567.924L1661.9 557.084C1659.28 553.805 1656.26 550.943 1653.04 548.619L1642.9 562.681ZM1648.38 567.924L1634.85 578.765C1636.19 580.438 1636.28 581.378 1636.21 580.886C1636.16 580.606 1636 579.309 1636.57 577.416C1637.21 575.314 1638.73 572.739 1641.51 570.899L1651.08 585.351L1660.65 599.804C1670.82 593.074 1671.44 581.856 1670.47 575.572C1669.41 568.772 1666.12 562.344 1661.9 557.084L1648.38 567.924ZM1651.08 585.351L1641.51 570.897C1642.18 570.455 1642.81 570.132 1643.34 569.897L1650.32 585.764L1657.3 601.632C1658.36 601.163 1659.5 600.567 1660.65 599.805L1651.08 585.351ZM1650.32 585.764L1638.15 598.106C1640.36 600.293 1642.22 603.305 1643.31 606.967L1659.92 602.004L1676.53 597.041C1673.87 588.147 1669.12 579.957 1662.49 573.423L1650.32 585.764ZM1659.92 602.004L1659.45 619.332C1660.78 619.367 1662.14 619.504 1663.53 619.754L1666.59 602.693L1669.66 585.632C1666.55 585.075 1663.46 584.759 1660.39 584.676L1659.92 602.004ZM1666.59 602.693L1678.4 615.383C1682.12 611.924 1689.42 609.363 1698.18 611.366L1702.04 594.467L1705.9 577.568C1687.31 573.321 1667.89 577.814 1654.79 590.003L1666.59 602.693ZM1702.04 594.467L1698.18 611.366C1710.24 614.119 1715.11 622.685 1715.04 627.619L1732.37 627.879L1749.7 628.14C1750.08 603.07 1729.93 583.055 1705.9 577.568L1702.04 594.467ZM1732.37 627.879L1721.38 641.279C1722.07 641.851 1722.1 642.019 1721.88 641.683C1721.62 641.283 1721.09 640.282 1720.91 638.773L1738.13 636.781L1755.35 634.789C1754.25 625.312 1748.45 618.654 1743.37 614.48L1732.37 627.879ZM1738.13 636.781L1720.91 638.773C1722.24 650.28 1728.4 666.415 1734.03 680.885L1750.19 674.603L1766.34 668.32C1760.07 652.193 1756.05 640.843 1755.35 634.789L1738.13 636.781ZM1750.19 674.603L1748.84 691.884C1759.1 692.683 1769.35 693.538 1779.59 694.448L1781.12 677.182L1782.66 659.916C1772.3 658.995 1761.92 658.129 1751.53 657.321L1750.19 674.603ZM1781.12 677.182L1796.32 685.516C1803.6 672.248 1816.7 659.233 1834.53 650.185L1826.69 634.726L1818.85 619.267C1795.39 631.167 1776.87 648.886 1765.92 668.848L1781.12 677.182ZM1826.69 634.726L1834.53 650.185C1850.7 641.984 1867.24 638.833 1881.4 639.805L1882.59 622.512L1883.78 605.219C1862.91 603.787 1840.17 608.454 1818.85 619.267L1826.69 634.726ZM1882.59 622.512L1899.72 625.142C1900.28 621.517 1900.99 617.814 1901.85 614.045L1884.95 610.186L1868.05 606.327C1867 610.896 1866.14 615.419 1865.46 619.881L1882.59 622.512ZM1884.95 610.186L1902.27 610.658C1902.86 589.252 1909.3 579.312 1916.57 572.937C1925.48 565.117 1936.57 561.283 1952.7 553.938L1945.52 538.162L1938.34 522.385C1926.16 527.932 1907.65 534.642 1893.7 546.877C1878.11 560.558 1868.42 580.185 1867.62 609.714L1884.95 610.186ZM1945.52 538.162L1962.84 538.874C1962.91 537.082 1963.15 535.283 1963.56 533.485L1946.66 529.625L1929.76 525.766C1928.88 529.654 1928.36 533.559 1928.2 537.449L1945.52 538.162ZM1946.66 529.625L1963.56 533.485C1963.38 534.262 1963.63 532.418 1968.52 528.497C1972.98 524.917 1979.58 520.993 1988.06 517.05C2004.95 509.198 2026.87 502.377 2047.69 498.108L2044.21 481.128L2040.72 464.147C2017.88 468.831 1993.28 476.39 1973.44 485.614C1963.56 490.209 1954.24 495.498 1946.81 501.463C1939.81 507.086 1932.2 515.12 1929.76 525.766L1946.66 529.625ZM2044.21 481.128L2061.33 483.801C2063.65 468.923 2072.13 450.914 2086.51 433.372L2073.11 422.382L2059.7 411.393C2042.58 432.278 2030.61 455.86 2027.08 478.454L2044.21 481.128ZM2073.11 422.382L2080.74 437.948C2094.15 431.375 2100.28 417.4 2103.75 408.942C2108.22 398.039 2110.3 390.9 2114.23 384.584C2117.28 379.674 2119.5 378.584 2122.7 378.438C2127.9 378.2 2138.83 380.631 2158.94 393.584L2168.33 379.01L2177.71 364.436C2155.89 350.387 2137.36 343.065 2121.12 343.806C2102.86 344.639 2091.64 355.257 2084.79 366.268C2078.81 375.874 2074.51 388.866 2071.68 395.789C2069.98 399.927 2068.57 402.788 2067.23 404.771C2065.94 406.684 2065.3 406.908 2065.48 406.817L2073.11 422.382ZM2168.33 379.01L2184.8 373.622C2183.25 368.885 2183 364.235 2184.02 359.79L2167.12 355.93L2150.22 352.071C2147.7 363.12 2148.51 374.168 2151.85 384.398L2168.33 379.01ZM2167.12 355.93L2184.02 359.79C2187.4 344.972 2190.3 336.237 2194.37 331.489C2195.92 329.688 2197.5 328.658 2199.7 328.089C2202.19 327.446 2206.53 327.136 2213.77 328.789L2217.63 311.89L2221.49 294.992C2210.62 292.508 2200.4 292.102 2191.03 294.525C2181.37 297.022 2173.8 302.221 2168.05 308.931C2157.53 321.206 2153.29 338.628 2150.22 352.071L2167.12 355.93ZM2217.63 311.89L2213.06 328.609C2227.91 332.677 2239.87 336.625 2249.46 340.461L2255.9 324.367L2262.33 308.272C2251.21 303.821 2237.94 299.48 2222.21 295.172L2217.63 311.89ZM2255.9 324.367L2272.48 319.323C2265.34 295.849 2272.6 273.91 2289.93 262.567L2280.43 248.065L2270.94 233.564C2238.55 254.772 2228.5 293.862 2239.31 329.41L2255.9 324.367ZM2280.43 248.065L2289.93 262.567C2313.75 246.97 2353.23 254.215 2376.69 284.872L2390.45 274.338L2404.22 263.804C2372.32 222.119 2313.28 205.838 2270.94 233.564L2280.43 248.065ZM2390.45 274.338L2376.69 284.872C2377.04 285.334 2377.39 285.806 2377.74 286.288L2391.74 276.063L2405.74 265.837C2405.25 265.164 2404.74 264.486 2404.22 263.804L2390.45 274.338ZM2391.74 276.063L2398.66 291.954C2399.5 291.591 2400.32 291.239 2401.15 290.899L2394.53 274.878L2387.91 258.858C2386.87 259.29 2385.84 259.728 2384.82 260.171L2391.74 276.063ZM2394.53 274.878L2411.85 275.622C2411.93 273.684 2412.89 270.188 2416.46 265.93L2403.17 254.796L2389.89 243.663C2382.42 252.577 2377.68 263.148 2377.21 274.135L2394.53 274.878ZM2403.17 254.796L2416.46 265.93C2420.79 260.762 2422.92 260.672 2424.02 260.588C2425.24 260.496 2427.07 260.596 2430.1 261.174C2433.26 261.777 2436.63 262.659 2441.42 263.848L2445.6 247.024L2449.77 230.201C2442.24 228.332 2431.61 225.246 2421.4 226.02C2409.07 226.954 2398.86 232.954 2389.89 243.663L2403.17 254.796ZM2445.6 247.024L2462.92 247.631C2463.15 240.914 2464.02 234.154 2465.56 227.401L2448.66 223.542L2431.77 219.682C2429.73 228.593 2428.58 237.532 2428.27 246.417L2445.6 247.024ZM2448.66 223.542L2465.56 227.401C2467.3 219.808 2469.81 212.577 2473 205.745L2457.3 198.403L2441.59 191.062C2437.37 200.098 2434.05 209.662 2431.77 219.682L2448.66 223.542ZM2457.3 198.403L2469.59 186.185C2459.75 176.278 2455.53 162.947 2458.44 150.23L2441.54 146.371L2424.64 142.512C2418.81 168.049 2427.71 193.221 2445 210.622L2457.3 198.403ZM2441.54 146.371L2458.44 150.23C2463.06 129.997 2485.43 115.558 2510.57 121.3L2514.43 104.402L2518.29 87.5029C2476.97 78.0677 2434.07 101.21 2424.64 142.512L2441.54 146.371ZM2514.43 104.402L2510.57 121.3C2520.72 123.618 2529.2 128.841 2535.3 135.602L2548.17 123.99L2561.04 112.377C2550.19 100.354 2535.43 91.4173 2518.29 87.5029L2514.43 104.402ZM2548.17 123.99L2553 140.637C2557.86 139.225 2562.85 138.049 2567.93 137.122L2564.82 120.069L2561.71 103.017C2555.47 104.155 2549.34 105.601 2543.34 107.342L2548.17 123.99ZM2564.82 120.069L2581.99 122.506C2582.13 121.516 2582.31 120.52 2582.54 119.522L2565.64 115.663L2548.74 111.803C2548.3 113.742 2547.94 115.687 2547.66 117.633L2564.82 120.069ZM2565.64 115.663L2582.54 119.522C2587.16 99.2886 2609.53 84.8505 2634.67 90.593L2638.53 73.6942L2642.39 56.7954C2601.07 47.3602 2558.17 70.5016 2548.74 111.803L2565.64 115.663Z" fill="url(#paint1_linear_1732_1939)" mask="url(#path-1-inside-1_1732_1939)"/>
</g>
<defs>
<filter id="filter0_f_1732_1939" x="0.181908" y="0.636009" width="2836.05" height="1367.74" filterUnits="userSpaceOnUse" color-interpolation-filters="sRGB">
<feFlood flood-opacity="0" result="BackgroundImageFix"/>
<feBlend mode="normal" in="SourceGraphic" in2="BackgroundImageFix" result="shape"/>
<feGaussianBlur stdDeviation="35.6874" result="effect1_foregroundBlur_1732_1939"/>
</filter>
<linearGradient id="paint0_linear_1732_1939" x1="1447.83" y1="1495.22" x2="1618.62" y2="-145.193" gradientUnits="userSpaceOnUse">
<stop offset="0.0450244" stop-color="#DCF3FF" stop-opacity="0.15"/>
<stop offset="0.39686" stop-color="#F3FBFF"/>
<stop offset="1" stop-color="#91D3FF"/>
</linearGradient>
<linearGradient id="paint1_linear_1732_1939" x1="1273.51" y1="1370.27" x2="1622.61" y2="-158.321" gradientUnits="userSpaceOnUse">
<stop stop-color="#E3AFCF" stop-opacity="0.08"/>
<stop offset="1" stop-color="#FFBAE5"/>
</linearGradient>
</defs>
</svg>
