<svg width="1793" height="1144" viewBox="0 0 1793 1144" fill="none" xmlns="http://www.w3.org/2000/svg">
<path d="M1656.11 1.98715C1691.34 10.0329 1714.12 42.4913 1707.88 75.1143C1769.41 110.465 1804.26 176.546 1789.42 241.522C1770.66 323.653 1679.62 372.914 1586.07 351.549C1578.13 349.736 1570.43 347.471 1562.99 344.796C1606.03 404.459 1645.06 402.898 1626.92 454.404C1709.1 504.669 1655.18 541.239 1553.37 520.094C1560.1 532.777 1565.97 545.067 1570.8 556.643C1617.94 669.628 1799.55 1067.84 1593.43 1134.16C1387.3 1200.48 871.507 909.801 824.37 796.816C822.257 791.752 820.861 786.301 820.142 780.502C801.391 792.711 770.026 796.693 736.81 789.107C701.514 781.047 673.771 762.126 663.475 741.563C636.374 730.911 604.265 712.395 579.4 693.437C553.96 776.234 482.108 829.215 412.965 813.424C405.643 811.752 398.63 809.369 391.955 806.348C362.572 864.961 269.894 893.69 171.205 871.151C61.7024 846.143 -13.734 767.486 2.71368 695.467C8.15087 671.66 22.9493 651.56 44.2796 636.219C39.2875 635.248 34.8073 633.135 31.1408 629.8C15.5286 615.597 20.577 584.622 42.4166 560.615C55.3405 546.408 71.2485 537.825 85.3183 536.128C84.6616 534.085 84.6942 532.237 85.5196 530.69C89.1666 523.853 109.801 521.851 132.937 539.865C144.306 519.832 170.227 509.066 196.744 515.122C228.311 522.331 248.769 550.651 242.437 578.375C240.663 586.142 236.974 593.038 231.889 598.784C233.395 600.604 234.257 602.89 234.229 605.277C242.256 603.995 252.712 606.273 262.361 612.073C268.034 615.483 272.643 619.64 275.907 623.985C279.938 624.573 284.113 625.35 288.37 626.322C298.275 628.584 307.325 631.606 314.839 634.979C315.662 629.215 316.732 623.419 318.059 617.608C320.793 605.639 324.478 594.2 328.982 583.394C324.584 577.467 322.669 570.648 324.183 564.018C326.071 555.748 332.895 549.526 342.087 546.454C333.956 533.181 330.836 516.436 334.69 499.56C342.213 466.621 373.457 445.66 404.475 452.744C407.597 453.457 410.598 454.427 413.462 455.629C414.318 450.092 417.511 445.883 422.193 445.019C422.594 444.945 422.998 444.898 423.402 444.876C425.824 436.864 430.484 430.997 437.286 428.483C446.155 425.206 457.046 428.227 467.653 435.804C478.702 426.274 491.726 421.849 504.295 424.719C524.705 429.381 537.84 451.891 538.415 479.285C546.106 472.636 556.857 469.618 567.658 472.085C585.503 476.161 596.727 493.66 592.728 511.171C590.768 519.753 585.515 526.742 578.568 531.162C580.645 532.659 582.68 534.575 584.493 536.837C590.507 544.341 591.817 552.785 587.418 555.697C587.157 555.869 586.882 556.017 586.594 556.144C591.378 560.863 594.953 566.924 596.983 573.717C599.653 573.789 602.372 574.089 605.108 574.633C614.196 566.047 628.745 562.157 643.651 565.561C663.539 570.103 677.219 586.065 676.445 602.628C679.442 605.344 681.263 608.248 681.622 611.352C683.403 626.746 696.757 656.235 706.886 684.141C710.808 683.486 714.893 683.025 719.11 682.771C722.183 655.191 743.943 626.173 777.545 609.129C797.827 598.841 819.08 594.611 838.036 595.911C838.708 591.534 839.555 587.083 840.585 582.57C842.525 511.353 897.722 517.341 931.415 489.829C928.137 460.942 940.587 433.913 964.468 423.529C977.456 417.881 1002.5 428.553 1028.26 445.531C1029.42 424.719 1038.22 401.695 1054.56 380.916C1080.1 348.449 1116.84 330.646 1147.45 332.986C1144.64 324.711 1143.99 316.008 1145.95 307.421C1152.93 276.838 1161.41 250.809 1200.62 259.763C1217.17 264.295 1230.82 268.781 1242.03 273.265C1232.32 241.327 1241.68 208.303 1268.58 190.688C1304.38 167.247 1357.69 179.976 1387.64 219.12C1388.12 219.739 1388.58 220.362 1389.04 220.987C1390.04 220.551 1391.05 220.123 1392.06 219.705C1392.36 212.712 1395.44 205.102 1401.41 197.975C1415.81 180.794 1428.1 184.795 1447.32 189.564C1447.61 181.122 1448.7 172.627 1450.64 164.152C1452.82 154.62 1455.97 145.531 1459.98 136.944C1445.3 122.168 1438.2 101.334 1442.93 80.6355C1450.53 47.339 1485.85 27.0045 1521.81 35.2171C1536.58 38.5894 1549.15 46.2508 1558.33 56.4156C1564.2 54.7098 1570.22 53.2922 1576.35 52.1746C1576.57 50.5859 1576.87 48.9953 1577.23 47.4055C1584.84 14.1091 1620.15 -6.22548 1656.11 1.98715Z" fill="url(#paint0_linear_1732_1894)"/>
<defs>
<linearGradient id="paint0_linear_1732_1894" x1="807.146" y1="1016.39" x2="1067.26" y2="-122.556" gradientUnits="userSpaceOnUse">
<stop stop-color="#A0DFFF"/>
<stop offset="0.711538" stop-color="white"/>
</linearGradient>
</defs>
</svg>
