<svg width="497" height="742" viewBox="0 0 497 742" fill="none" xmlns="http://www.w3.org/2000/svg">
<path d="M103.725 403.649C112.21 395.371 117.823 387.021 120.565 378.598C121.834 374.644 120.979 371.254 117.998 368.428C116.489 366.972 115.464 365.23 114.924 363.202L113.367 357.342C109.154 320.861 122.443 294.079 153.234 276.996C171.34 266.978 190.405 260.661 210.428 258.045C211.35 257.929 212.279 258.024 213.145 258.322C214.012 258.62 214.794 259.113 215.432 259.764C216.07 260.414 216.548 261.206 216.828 262.079C217.109 262.952 217.186 263.884 217.052 264.803C215.868 273.417 215.625 281.694 216.324 289.633C216.675 293.434 217.595 293.56 219.083 290.011C222.893 281.098 225.67 271.457 227.416 261.089C227.56 260.314 227.958 259.604 228.544 259.077C229.13 258.549 229.869 258.235 230.638 258.188L337.171 251.043C342.014 250.738 343.533 252.854 341.727 257.391L339.621 262.562C338.785 264.715 339.381 266.307 341.409 267.336C342.597 267.907 343.767 267.897 344.919 267.305C346.127 266.645 347.098 265.736 347.832 264.577C349.957 261.263 352.117 258.006 354.312 254.807C354.96 253.901 355.825 253.168 356.826 252.675C357.827 252.183 358.932 251.947 360.037 251.99C410.461 254.363 454.848 269.928 493.198 298.684C495.47 300.423 495.485 302.249 493.243 304.163C471.396 322.809 448.223 339.61 423.723 354.564C421.29 356.039 418.861 356.1 416.436 354.748C412.94 352.749 409.924 349.867 407.388 346.1C405.593 343.447 403.174 342.155 400.129 342.225C399.453 342.24 398.858 342.492 398.344 342.981C397.022 344.115 396.689 345.458 397.343 347.012C399.465 352.086 402.328 356.63 405.933 360.644C406.383 361.156 406.698 361.776 406.847 362.447C406.997 363.118 406.978 363.819 406.79 364.486C406.603 365.153 406.254 365.765 405.775 366.266C405.296 366.767 404.703 367.142 404.048 367.356L311.445 397.756C308.116 398.841 305.399 398.044 303.294 395.365C298.984 389.926 294.335 384.664 289.346 379.578C283.047 373.198 280.809 374.436 282.634 383.291C283.851 389.328 285.883 395.349 288.731 401.354C289.115 402.145 289.338 403.009 289.385 403.897C289.432 404.784 289.302 405.677 289.004 406.525C288.706 407.373 288.246 408.158 287.648 408.836C287.051 409.514 286.329 410.071 285.524 410.475C263.736 421.403 241.905 430.001 220.032 436.269C211.999 438.566 206.848 435.757 204.579 427.843C201.537 416.975 196.545 407.266 189.6 398.716C186.709 395.113 185.566 395.627 186.171 400.258L191.328 438.982C191.457 439.981 191.184 441.002 190.569 441.823C189.955 442.644 189.048 443.198 188.046 443.365C168.379 446.555 149.863 444.76 132.499 437.98C121.7 433.771 112.108 422.327 103.725 403.649ZM339.379 319.505C342.244 321.329 345.059 321.27 347.822 319.327C348.163 319.09 348.438 318.77 348.62 318.398C348.802 318.026 348.885 317.616 348.86 317.208C348.835 316.8 348.703 316.41 348.477 316.075C348.252 315.74 347.941 315.473 347.575 315.3C337.286 310.572 316.314 317.29 304.903 318.45C295.46 319.371 286.303 320.951 277.433 323.189C260.02 327.536 243.11 331.811 226.701 336.013C209.73 340.294 192.856 341.338 176.569 347.708C170.57 350.019 165.122 349.717 160.223 346.803C158.926 346.029 157.707 346.198 156.569 347.311C149.881 353.878 141.281 357.499 130.769 358.173C129.144 358.266 127.977 359.044 127.268 360.507C126.43 362.261 127.822 363.424 131.444 363.995C132.306 364.14 133.19 364.071 134.016 363.795C149.95 358.356 166.04 354.037 182.286 350.836C198.626 347.656 214.897 344.023 231.099 339.936C246.457 336.069 262.192 332.112 278.306 328.067C296.502 323.508 314.345 322.998 331.935 318.37C334.618 317.665 337.099 318.044 339.379 319.505ZM365.665 350.52C365.897 350.369 365.938 349.925 365.788 349.215C365.637 348.505 365.297 347.543 364.788 346.382C364.278 345.222 363.608 343.887 362.817 342.453C362.026 341.019 361.128 339.515 360.176 338.026C359.224 336.537 358.235 335.093 357.267 333.775C356.299 332.458 355.37 331.293 354.533 330.348C353.696 329.403 352.968 328.695 352.39 328.266C351.812 327.836 351.395 327.694 351.164 327.846C350.933 327.997 350.891 328.441 351.042 329.151C351.192 329.861 351.532 330.823 352.042 331.984C352.551 333.144 353.221 334.479 354.012 335.913C354.804 337.347 355.701 338.851 356.653 340.34C357.606 341.829 358.594 343.273 359.562 344.591C360.53 345.908 361.459 347.073 362.296 348.018C363.133 348.964 363.861 349.671 364.439 350.1C365.017 350.53 365.434 350.672 365.665 350.52Z" fill="url(#paint0_linear_1732_2065)"/>
<path d="M331.935 318.37C314.345 322.998 296.502 323.508 278.306 328.067C262.192 332.112 246.457 336.069 231.099 339.936C214.897 344.023 198.626 347.656 182.286 350.836C166.04 354.037 149.95 358.356 134.016 363.795C133.19 364.071 132.306 364.14 131.444 363.995C127.822 363.424 126.43 362.261 127.268 360.507C127.977 359.044 129.144 358.266 130.769 358.173C141.281 357.499 149.881 353.878 156.569 347.311C157.707 346.198 158.926 346.029 160.223 346.803C165.122 349.717 170.57 350.019 176.569 347.708C192.856 341.338 209.73 340.294 226.701 336.013C243.11 331.811 260.02 327.536 277.433 323.189C286.303 320.951 295.46 319.371 304.903 318.45C316.314 317.29 337.286 310.572 347.575 315.3C347.941 315.473 348.252 315.74 348.477 316.075C348.703 316.41 348.835 316.8 348.86 317.208C348.885 317.616 348.802 318.026 348.62 318.398C348.438 318.77 348.163 319.09 347.822 319.327C345.059 321.27 342.244 321.329 339.379 319.505C337.099 318.044 334.618 317.665 331.935 318.37Z" fill="url(#paint1_linear_1732_2065)"/>
<path d="M356.653 340.34C360.658 346.602 364.692 351.159 365.665 350.52C366.638 349.881 364.18 344.287 360.176 338.026C356.172 331.764 352.137 327.207 351.164 327.846C350.192 328.485 352.649 334.079 356.653 340.34Z" fill="url(#paint2_linear_1732_2065)"/>
<path d="M21.9565 507.067C33.5981 505.167 42.9743 501.541 50.0849 496.19C53.4087 493.668 54.6961 490.379 53.9473 486.323C53.5831 484.248 53.7745 482.218 54.5215 480.234L56.6848 474.503C74.5543 442.001 100.838 427.639 135.536 431.416C155.923 433.66 174.925 439.51 192.54 448.964C193.348 449.403 194.039 450.02 194.562 450.768C195.085 451.516 195.427 452.376 195.56 453.282C195.693 454.188 195.616 455.117 195.333 456C195.05 456.882 194.569 457.693 193.926 458.374C187.955 464.785 182.937 471.464 178.874 478.411C176.942 481.746 177.607 482.383 180.871 480.322C189.125 475.187 196.975 468.853 204.418 461.323C204.986 460.768 205.719 460.414 206.497 460.319C207.276 460.224 208.052 460.394 208.698 460.8L298.474 516.685C302.544 519.242 302.531 521.866 298.437 524.557L293.731 527.597C291.805 528.887 291.357 530.544 292.387 532.567C293.009 533.727 293.955 534.397 295.226 534.577C296.581 534.734 297.891 534.548 299.156 534.019C302.794 532.52 306.427 531.089 310.056 529.725C311.104 529.355 312.227 529.252 313.318 529.427C314.41 529.601 315.435 530.048 316.298 530.724C355.438 561.917 382.04 600.479 396.104 646.41C396.918 649.16 395.866 650.673 392.949 650.951C364.528 653.647 336.116 654.053 307.715 652.169C304.9 651.974 302.912 650.616 301.752 648.096C300.107 644.422 299.362 640.298 299.519 635.723C299.623 632.497 298.431 630.029 295.943 628.322C295.39 627.942 294.765 627.805 294.068 627.91C292.345 628.077 291.294 628.991 290.915 630.651C289.664 636.062 289.318 641.466 289.876 646.863C289.939 647.547 289.831 648.24 289.56 648.88C289.289 649.519 288.865 650.086 288.326 650.527C287.787 650.968 287.15 651.269 286.473 651.405C285.796 651.54 285.101 651.505 284.45 651.301L192.319 622.655C189.012 621.619 187.293 619.387 187.162 615.959C186.867 608.978 186.197 601.946 185.151 594.864C183.806 585.954 181.287 585.676 177.593 594.031C175.054 599.711 173.18 605.851 171.969 612.45C171.817 613.325 171.493 614.165 171.013 614.924C170.534 615.682 169.91 616.343 169.176 616.869C168.443 617.395 167.615 617.774 166.74 617.987C165.865 618.199 164.961 618.239 164.078 618.106C140.201 614.477 117.648 608.903 96.4185 601.385C88.6244 598.619 86.1213 593.318 88.9091 585.481C92.797 574.763 94.4413 563.868 93.8421 552.797C93.6177 548.151 92.3996 547.911 90.1879 552.079L71.77 586.976C71.2917 587.874 70.4777 588.557 69.5054 588.877C68.5331 589.197 67.4812 589.128 66.5788 588.685C48.9151 579.91 35.0813 567.695 25.0777 552.04C18.8509 542.309 17.8105 527.318 21.9565 507.067ZM260.36 574.376C261.6 577.54 263.896 579.124 267.249 579.125C267.66 579.127 268.068 579.023 268.431 578.822C268.794 578.621 269.1 578.331 269.317 577.981C269.535 577.63 269.656 577.232 269.67 576.825C269.684 576.419 269.59 576.018 269.397 575.664C263.883 565.802 243.115 559.177 233.269 553.517C225.143 548.8 216.864 544.792 208.431 541.493C191.905 534.978 175.825 528.695 160.191 522.643C144.058 516.33 129.889 507.407 113.089 503.211C106.921 501.637 102.719 498.229 100.48 492.988C99.8886 491.597 98.8109 491.03 97.2474 491.287C88.0464 492.821 79.0257 490.818 70.1854 485.278C68.8252 484.412 67.4342 484.376 66.0121 485.171C64.3163 486.131 64.7576 487.896 67.3359 490.466C67.9444 491.085 68.6943 491.541 69.5191 491.792C85.4929 496.55 100.94 502.321 115.86 509.104C130.845 515.958 146.038 522.399 161.439 528.426C176.034 534.145 190.985 540.009 206.291 546.018C223.57 552.812 238.207 562.739 255.039 569.124C257.605 570.099 259.379 571.85 260.36 574.376ZM263.414 615.173C263.688 615.183 263.98 614.841 264.273 614.169C264.565 613.497 264.853 612.507 265.119 611.255C265.386 610.003 265.626 608.515 265.825 606.875C266.025 605.235 266.18 603.475 266.282 601.695C266.385 599.917 266.432 598.153 266.421 596.506C266.411 594.859 266.343 593.361 266.221 592.097C266.099 590.833 265.926 589.828 265.712 589.139C265.497 588.45 265.246 588.091 264.971 588.082C264.697 588.073 264.405 588.414 264.112 589.086C263.82 589.758 263.532 590.749 263.266 592C262.999 593.252 262.759 594.74 262.56 596.381C262.36 598.021 262.205 599.781 262.103 601.56C262.001 603.339 261.953 605.102 261.964 606.749C261.974 608.396 262.042 609.894 262.164 611.158C262.286 612.422 262.459 613.428 262.673 614.117C262.888 614.805 263.139 615.165 263.414 615.173Z" fill="url(#paint3_linear_1732_2065)"/>
<path d="M255.039 569.124C238.207 562.739 223.57 552.812 206.291 546.018C190.985 540.009 176.034 534.145 161.439 528.426C146.038 522.399 130.845 515.958 115.86 509.104C100.94 502.321 85.4929 496.55 69.5191 491.792C68.6943 491.541 67.9444 491.085 67.3359 490.466C64.7576 487.896 64.3163 486.131 66.0121 485.171C67.4342 484.376 68.8252 484.412 70.1854 485.278C79.0257 490.818 88.0464 492.821 97.2474 491.287C98.8109 491.03 99.8886 491.597 100.48 492.988C102.719 498.229 106.921 501.637 113.089 503.211C129.889 507.407 144.058 516.33 160.191 522.643C175.825 528.695 191.905 534.978 208.431 541.493C216.864 544.792 225.143 548.8 233.269 553.517C243.115 559.177 263.883 565.802 269.397 575.664C269.59 576.018 269.684 576.419 269.67 576.825C269.656 577.232 269.535 577.63 269.317 577.981C269.1 578.331 268.794 578.621 268.431 578.822C268.068 579.023 267.66 579.127 267.249 579.125C263.896 579.124 261.6 577.54 260.36 574.376C259.379 571.85 257.605 570.099 255.039 569.124Z" fill="url(#paint4_linear_1732_2065)"/>
<path d="M262.103 601.56C261.673 609.041 262.26 615.136 263.414 615.173C264.568 615.211 265.852 609.176 266.282 601.695C266.712 594.214 266.125 588.119 264.971 588.082C263.817 588.044 262.533 594.079 262.103 601.56Z" fill="url(#paint5_linear_1732_2065)"/>
<path d="M93.9742 331.29C95.2669 319.604 94.2759 309.698 91.0012 301.573C89.45 297.77 86.606 295.752 82.4695 295.519C80.3582 295.382 78.4408 294.719 76.7172 293.531L71.7403 290.092C45.0252 265.185 38.1741 236.427 51.187 203.818C58.8568 184.665 69.6506 167.699 83.5684 152.919C84.2118 152.243 84.9964 151.721 85.8629 151.392C86.7294 151.063 87.6552 150.936 88.5703 151.021C89.4854 151.105 90.3659 151.399 91.1453 151.88C91.9248 152.361 92.5827 153.017 93.0695 153.798C97.68 161.073 102.807 167.49 108.452 173.049C111.167 175.7 111.964 175.208 110.844 171.571C108.086 162.392 104.057 153.323 98.7571 144.363C98.3717 143.684 98.2259 142.893 98.3434 142.119C98.461 141.345 98.8348 140.636 99.4034 140.108L177.804 66.6001C181.38 63.2734 183.922 63.9037 185.43 68.4908L187.111 73.7495C187.843 75.9128 189.33 76.7356 191.571 76.2177C192.863 75.8905 193.768 75.1348 194.285 73.9507C194.802 72.6795 194.975 71.3708 194.802 70.0246C194.328 66.1593 193.919 62.3147 193.574 58.4907C193.497 57.3911 193.7 56.2833 194.164 55.2706C194.627 54.2579 195.336 53.3733 196.224 52.6994C237.029 22.2609 281.605 5.66223 329.951 2.90334C332.838 2.7659 334.023 4.13795 333.505 7.0195C328.464 35.0928 321.204 62.6172 311.724 89.5929C310.776 92.2643 308.923 93.8635 306.166 94.3904C302.158 95.1132 297.957 94.8601 293.562 93.6311C290.46 92.7713 287.745 93.3409 285.418 95.3401C284.901 95.7843 284.6 96.3554 284.513 97.0533C284.212 98.7559 284.815 99.9858 286.323 100.743C291.235 103.225 296.384 104.833 301.77 105.565C302.451 105.665 303.094 105.933 303.642 106.345C304.189 106.757 304.624 107.3 304.907 107.924C305.189 108.548 305.311 109.234 305.26 109.92C305.208 110.605 304.987 111.268 304.614 111.848L252.003 194.046C250.107 196.995 247.479 198.129 244.118 197.448C237.266 196.088 230.265 195.078 223.112 194.42C214.106 193.619 213.158 195.986 220.268 201.52C225.094 205.309 230.545 208.565 236.62 211.288C237.428 211.641 238.156 212.153 238.763 212.794C239.369 213.435 239.842 214.194 240.155 215.026C240.467 215.857 240.613 216.746 240.583 217.641C240.553 218.536 240.348 219.419 239.981 220.239C230.027 242.435 218.544 262.896 205.532 281.62C200.749 288.493 194.932 289.661 188.08 285.124C178.73 278.846 168.604 274.692 157.703 272.662C153.135 271.785 152.575 272.904 156.022 276.021L184.913 302.022C185.655 302.696 186.099 303.642 186.147 304.656C186.196 305.671 185.845 306.67 185.172 307.437C171.901 322.422 156.324 332.901 138.442 338.871C127.325 342.59 112.502 340.063 93.9742 331.29ZM223.5 116.985C226.904 116.534 229.058 114.691 229.963 111.454C230.076 111.057 230.084 110.639 229.987 110.241C229.89 109.843 229.691 109.48 229.41 109.187C229.128 108.895 228.775 108.683 228.384 108.574C227.993 108.465 227.58 108.462 227.184 108.565C216.131 111.565 204.109 130.054 195.966 138.227C189.201 144.96 183.082 152.009 177.61 159.373C166.838 173.793 156.41 187.837 146.327 201.505C135.857 215.593 123.382 227.171 114.786 242.401C111.598 247.984 107.159 251.239 101.472 252.165C99.9636 252.409 99.1233 253.316 98.9509 254.886C97.9599 264.13 93.5864 272.367 85.8304 279.597C84.6239 280.706 84.2147 282.04 84.6025 283.6C85.0765 285.464 86.9076 285.453 90.0962 283.57C90.8606 283.128 91.5045 282.511 91.9706 281.774C100.89 267.474 110.65 253.92 121.25 241.113C131.936 228.262 142.277 215.111 152.273 201.662C161.753 188.919 171.47 175.866 181.423 162.505C192.669 147.424 206.242 135.632 216.972 120.886C218.609 118.638 220.785 117.338 223.5 116.985ZM263.899 123.648C263.982 123.385 263.73 123.023 263.157 122.582C262.583 122.141 261.7 121.63 260.558 121.078C259.415 120.526 258.036 119.944 256.499 119.365C254.961 118.786 253.296 118.221 251.598 117.703C249.899 117.186 248.202 116.725 246.601 116.347C245.001 115.969 243.529 115.682 242.27 115.502C241.011 115.321 239.989 115.252 239.263 115.296C238.537 115.341 238.121 115.499 238.038 115.762C237.955 116.025 238.208 116.387 238.781 116.828C239.354 117.269 240.237 117.78 241.38 118.332C242.522 118.884 243.901 119.466 245.439 120.045C246.976 120.624 248.642 121.189 250.34 121.706C252.038 122.224 253.736 122.685 255.336 123.063C256.937 123.441 258.409 123.728 259.668 123.908C260.927 124.088 261.949 124.158 262.675 124.113C263.401 124.069 263.817 123.911 263.899 123.648Z" fill="url(#paint6_linear_1732_2065)"/>
<path d="M216.972 120.886C206.242 135.632 192.669 147.424 181.423 162.505C171.47 175.866 161.753 188.919 152.273 201.662C142.277 215.111 131.936 228.262 121.25 241.113C110.65 253.92 100.89 267.474 91.9706 281.774C91.5045 282.511 90.8606 283.128 90.0962 283.57C86.9076 285.453 85.0765 285.464 84.6025 283.6C84.2147 282.04 84.6239 280.706 85.8304 279.597C93.5864 272.367 97.9599 264.13 98.9509 254.886C99.1233 253.316 99.9636 252.409 101.472 252.165C107.159 251.239 111.598 247.984 114.786 242.401C123.382 227.171 135.857 215.593 146.327 201.505C156.41 187.837 166.838 173.793 177.61 159.373C183.082 152.009 189.201 144.96 195.966 138.227C204.109 130.054 216.131 111.565 227.184 108.565C227.58 108.462 227.993 108.465 228.384 108.574C228.775 108.683 229.128 108.895 229.41 109.187C229.691 109.48 229.89 109.843 229.987 110.241C230.084 110.639 230.076 111.057 229.963 111.454C229.058 114.691 226.904 116.534 223.5 116.985C220.785 117.338 218.609 118.638 216.972 120.886Z" fill="url(#paint7_linear_1732_2065)"/>
<path d="M250.34 121.706C257.481 123.884 263.552 124.753 263.899 123.648C264.247 122.542 258.739 119.881 251.598 117.703C244.456 115.526 238.385 114.657 238.038 115.762C237.691 116.867 243.199 119.529 250.34 121.706Z" fill="url(#paint8_linear_1732_2065)"/>
<defs>
<linearGradient id="paint0_linear_1732_2065" x1="339.357" y1="260.271" x2="170.693" y2="471.025" gradientUnits="userSpaceOnUse">
<stop stop-color="#88B71D"/>
<stop offset="1" stop-color="#3C510D"/>
</linearGradient>
<linearGradient id="paint1_linear_1732_2065" x1="339.357" y1="260.271" x2="170.693" y2="471.025" gradientUnits="userSpaceOnUse">
<stop stop-color="#88B71D"/>
<stop offset="1" stop-color="#3C510D"/>
</linearGradient>
<linearGradient id="paint2_linear_1732_2065" x1="339.357" y1="260.271" x2="170.693" y2="471.025" gradientUnits="userSpaceOnUse">
<stop stop-color="#88B71D"/>
<stop offset="1" stop-color="#3C510D"/>
</linearGradient>
<linearGradient id="paint3_linear_1732_2065" x1="294.854" y1="525.556" x2="35.1161" y2="596.263" gradientUnits="userSpaceOnUse">
<stop stop-color="#88B71D"/>
<stop offset="1" stop-color="#3C510D"/>
</linearGradient>
<linearGradient id="paint4_linear_1732_2065" x1="294.854" y1="525.556" x2="35.1161" y2="596.263" gradientUnits="userSpaceOnUse">
<stop stop-color="#88B71D"/>
<stop offset="1" stop-color="#3C510D"/>
</linearGradient>
<linearGradient id="paint5_linear_1732_2065" x1="294.854" y1="525.556" x2="35.1161" y2="596.263" gradientUnits="userSpaceOnUse">
<stop stop-color="#88B71D"/>
<stop offset="1" stop-color="#3C510D"/>
</linearGradient>
<linearGradient id="paint6_linear_1732_2065" x1="185.434" y1="72.1852" x2="192.414" y2="339.378" gradientUnits="userSpaceOnUse">
<stop stop-color="#88B71D"/>
<stop offset="1" stop-color="#3C510D"/>
</linearGradient>
<linearGradient id="paint7_linear_1732_2065" x1="185.434" y1="72.1852" x2="192.414" y2="339.378" gradientUnits="userSpaceOnUse">
<stop stop-color="#88B71D"/>
<stop offset="1" stop-color="#3C510D"/>
</linearGradient>
<linearGradient id="paint8_linear_1732_2065" x1="185.434" y1="72.1852" x2="192.414" y2="339.378" gradientUnits="userSpaceOnUse">
<stop stop-color="#88B71D"/>
<stop offset="1" stop-color="#3C510D"/>
</linearGradient>
</defs>
</svg>
