<svg width="499" height="461" viewBox="0 0 499 461" fill="none" xmlns="http://www.w3.org/2000/svg">
<path d="M278.839 379.817C258.221 390.782 237.247 400.706 213.998 407.937C200.387 411.685 162.054 430.225 151.614 423.456C152.462 421.978 152.105 420.935 153.31 420.5C152.953 419.457 153.801 417.98 155.854 416.066C169.425 392.419 191.517 373.893 218.293 357.187C227.219 351.618 297.727 320.278 319.772 313.482C300.272 315.844 279.21 317.599 259.71 319.961C240.924 324.409 219.727 329.727 200.941 334.174L199.736 334.609C186.974 336.879 175.416 338.713 162.654 340.983C160.244 341.854 159.039 342.289 157.478 341.682C115.355 345.193 77.1153 340.271 48.4749 311.967C35.0466 300.421 22.4664 287.397 6.985 277.764C5.4234 277.157 4.70994 275.072 5.20135 272.552C18.455 267.761 40.2301 268.091 67.0467 271.284C67.0467 271.284 67.0467 271.284 68.2516 270.849C126.57 279.056 203.58 306.278 249.405 309.629C250.967 310.236 322.094 304.443 322.094 304.443C315.356 304.535 309.467 303.15 303.934 302.807C225.712 307.65 156.153 282.421 106.68 228.847C102.843 225.548 108.646 218.765 113.331 220.586C141.931 228.992 172.854 228.358 203.15 233.808C204.355 233.372 204.712 234.415 204.712 234.415C213.368 235.972 221.176 239.006 227.422 241.434C228.627 240.999 228.984 242.041 228.984 242.041C249.642 250.975 266.55 264.777 284.663 278.144C316.427 307.663 400.451 296.037 445.341 292.698C453.64 293.212 488.582 280.584 492.641 288.488C495.716 301.433 411.604 304.891 398.486 306.118C357.25 328.05 320.565 355.365 279.687 378.339C280.044 379.381 278.839 379.817 278.839 379.817Z" fill="url(#paint0_linear_3216_3445)"/>
<path d="M229.583 229.086C212.277 222.895 195.359 215.928 178.707 206.16C169.23 200.178 138.085 187.664 136.193 177.841C137.477 177.539 137.865 176.763 138.762 177.236C139.15 176.46 140.434 176.157 142.615 176.328C163.168 171.486 185.49 174.441 209.34 181.144C217.29 183.378 273.037 207.894 288.792 217.189C276.89 206.986 264.48 195.534 252.578 185.332C239.902 176.681 225.431 167.084 212.754 158.433L211.857 157.96C203.665 151.675 196.369 145.864 188.176 139.579C186.382 138.633 185.486 138.16 184.977 136.91C160.155 114.007 142.145 88.8139 142.383 56.5828C141.533 42.4071 141.968 27.9287 138.936 13.5824C138.427 12.3332 139.203 10.7814 140.875 9.70279C150.74 14.9087 162.375 27.9124 175.15 45.4395C175.15 45.4395 175.15 45.4395 176.047 45.9128C203.124 84.7146 229.743 144.846 252.747 173.654C253.256 174.904 295.093 213.651 295.093 213.651C291.384 209.732 288.96 205.512 286.148 202.067C240.99 158.626 217.304 103.964 220.327 45.748C220.084 41.6978 227.016 41.4337 228.543 45.1813C239.38 66.588 256.517 84.4564 269.922 105.258C270.819 105.731 270.431 106.507 270.431 106.507C274.262 112.45 276.807 118.696 278.844 123.693C279.74 124.166 279.353 124.942 279.353 124.942C285.584 141.957 287.064 159.407 289.441 177.331C290.221 212.06 342.311 255.237 368.538 279.863C372.756 285.031 398.763 298.755 396.559 305.436C391.009 314.274 343.427 266.612 335.622 259.551C301.011 247.169 265.867 240.389 230.867 228.783C230.48 229.559 229.583 229.086 229.583 229.086Z" fill="url(#paint1_linear_3216_3445)"/>
<defs>
<linearGradient id="paint0_linear_3216_3445" x1="464.14" y1="205.202" x2="31.7706" y2="353.161" gradientUnits="userSpaceOnUse">
<stop stop-color="#3C510D"/>
<stop offset="1" stop-color="#88B71D"/>
</linearGradient>
<linearGradient id="paint1_linear_3216_3445" x1="427.533" y1="243.445" x2="104.005" y2="81.7914" gradientUnits="userSpaceOnUse">
<stop stop-color="#3C510D"/>
<stop offset="1" stop-color="#88B71D"/>
</linearGradient>
</defs>
</svg>
