<svg width="360" height="527" viewBox="0 0 360 527" fill="none" xmlns="http://www.w3.org/2000/svg">
<path d="M158.073 132.911C157.014 121.014 156.086 109.024 155.288 96.9421C154.034 78.1437 155.542 58.8597 159.812 39.09C161.72 30.1491 162.858 21.4793 169.283 15.3501C172.151 12.6172 175.022 9.76684 177.897 6.79903C178.179 6.51232 178.506 6.29814 178.859 6.16949C179.213 6.04085 179.584 6.00044 179.951 6.05066C180.318 6.10088 180.673 6.24073 180.994 6.4617C181.316 6.68267 181.597 6.98015 181.821 7.33614C183.776 10.3952 185.133 13.6768 185.893 17.181C190.801 39.6323 193.522 66.7327 194.054 98.4822C194.424 119.811 192.349 141.59 187.83 163.817C187.01 167.82 187.659 171.427 189.777 174.637C195.076 182.71 200.703 190.768 206.659 198.813C231.656 232.564 253.519 263.302 272.248 291.026C273.155 292.339 273.442 293.828 273.11 295.495L272.928 296.389C272.884 296.584 272.799 296.762 272.68 296.905C272.562 297.048 272.414 297.15 272.252 297.202C272.09 297.254 271.92 297.253 271.758 297.2C271.596 297.147 271.448 297.044 271.33 296.901L180.258 185.685C179.324 184.543 178.164 183.709 176.887 183.261C175.611 182.813 174.261 182.766 172.965 183.126C138.611 192.811 107.256 196.951 71.859 187.129C46.0586 180.003 27.8819 164.299 9.3103 143.138C9.16081 142.978 9.05011 142.771 8.99003 142.54C8.92995 142.309 8.92275 142.064 8.96919 141.829C9.01563 141.594 9.11396 141.379 9.25369 141.207C9.39343 141.035 9.5693 140.913 9.76252 140.852C21.2401 136.883 32.0825 133.504 42.2898 130.713C66.1856 124.167 94.4751 134.72 116.72 144.761C118.649 145.642 119.756 144.829 120.041 142.321C120.083 142.037 119.662 141.272 118.778 140.029C114.694 134.252 110.592 128.513 106.473 122.809C86.6822 95.4849 75.3891 57.0512 71.1775 21.5453C70.9498 19.5703 71.6433 18.8127 73.2578 19.2726C94.5123 25.4878 110.381 37.3642 120.863 54.9017C129.588 69.4468 136.965 84.3082 142.585 100.995C146.401 112.325 150.231 123.385 154.075 134.173C157.761 144.553 159.093 144.132 158.073 132.911Z" fill="url(#paint0_linear_1732_1808)"/>
<path d="M183.249 280.135C176.355 271.5 169.519 262.698 162.741 253.728C152.186 239.782 143.613 223.454 137.021 204.744C134.021 196.3 130.538 188.627 132.61 179.137C133.536 174.903 134.406 170.575 135.218 166.151C135.3 165.721 135.455 165.315 135.675 164.958C135.894 164.601 136.173 164.3 136.495 164.074C136.817 163.849 137.174 163.702 137.545 163.645C137.917 163.587 138.295 163.618 138.656 163.738C141.787 164.741 144.548 166.352 146.939 168.572C162.298 182.762 178.251 202.208 194.798 226.91C205.925 243.495 215.308 262.204 222.947 283.035C224.317 286.791 226.672 289.171 230.01 290.176C238.384 292.722 247.015 295.02 255.904 297.07C293.206 305.66 326.449 314.137 355.634 322.498C357.032 322.879 358.02 323.848 358.598 325.406L358.905 326.243C358.969 326.429 358.991 326.632 358.967 326.83C358.944 327.029 358.877 327.216 358.773 327.374C358.668 327.532 358.531 327.655 358.373 327.731C358.216 327.806 358.044 327.831 357.875 327.804L227.94 305.79C226.607 305.563 225.247 305.743 223.989 306.312C222.732 306.881 221.619 307.821 220.757 309.042C197.957 341.539 174.763 367.486 141.22 385.324C116.787 398.353 94.1498 399.089 68.4242 395.8C68.2219 395.781 68.0276 395.698 67.8621 395.559C67.6965 395.42 67.5659 395.231 67.4841 395.012C67.4024 394.793 67.3727 394.552 67.3981 394.315C67.4235 394.078 67.5031 393.854 67.6284 393.667C74.8733 382.23 81.9047 371.718 88.7227 362.131C104.678 339.678 132.859 327.557 155.903 319.404C157.906 318.705 158.387 317.262 157.343 315.075C157.233 314.819 156.505 314.52 155.161 314.176C148.933 312.566 142.71 310.997 136.492 309.469C106.653 302.192 78.0298 279.991 56.6063 254.982C55.42 253.586 55.5948 252.486 57.1309 251.681C77.4337 241.221 96.2652 239.129 113.625 245.406C128.049 250.589 141.545 256.997 154.551 266.117C163.382 272.31 172.086 278.278 180.665 284.023C188.907 289.559 189.769 288.263 183.249 280.135Z" fill="url(#paint1_linear_1732_1808)"/>
<defs>
<linearGradient id="paint0_linear_1732_1808" x1="129.349" y1="9.95616" x2="152.546" y2="306.585" gradientUnits="userSpaceOnUse">
<stop stop-color="#88B71D"/>
<stop offset="1" stop-color="#3C510D"/>
</linearGradient>
<linearGradient id="paint1_linear_1732_1808" x1="97.6535" y1="203.756" x2="293.035" y2="394.677" gradientUnits="userSpaceOnUse">
<stop stop-color="#88B71D"/>
<stop offset="1" stop-color="#3C510D"/>
</linearGradient>
</defs>
</svg>
