<svg width="1923" height="749" viewBox="0 0 1923 749" fill="none" xmlns="http://www.w3.org/2000/svg">
<rect x="-31.6479" y="0.935547" width="2021.94" height="90.7479" fill="url(#paint0_linear_1732_1997)"/>
<g filter="url(#filter0_d_1732_1997)">
<path d="M1033.61 26.2441C1015.04 26.2447 -32.668 26.2441 -32.668 26.2441V91.6983H1190.02C1190.02 91.6983 1173.64 75.048 1160.73 65.6082C1150.21 57.9072 1144.32 53.3682 1131.45 47.2993C1113.57 38.8631 1101.25 35.9402 1080.03 31.7368C1062.42 28.2474 1052.18 26.2436 1033.61 26.2441Z" fill="url(#paint1_linear_1732_1997)" fill-opacity="0.76" shape-rendering="crispEdges"/>
</g>
<g filter="url(#filter1_i_1732_1997)">
<path d="M912.207 53.2988C913.731 53.2988 1029.29 53.2988 1030.56 53.2988C1031.19 53.2988 1031.03 54.5751 1031.07 55.8514C1031.1 57.1277 1031.32 58.404 1030.56 58.404C1029.03 58.404 913.73 58.404 912.207 58.404C911.445 58.404 911.699 56.8441 911.699 55.5678C911.699 54.2915 911.445 53.2988 912.207 53.2988Z" fill="#F5F5F5"/>
</g>
<g filter="url(#filter2_i_1732_1997)">
<path d="M1030.57 53.2988C1030.65 53.2988 1036.58 53.2988 1036.64 53.2988C1036.67 53.2988 1036.66 54.5751 1036.67 55.8514C1036.67 57.1277 1036.68 58.404 1036.64 58.404C1036.56 58.404 1030.65 58.404 1030.57 58.404C1030.53 58.404 1030.55 56.8441 1030.55 55.5678C1030.55 54.2915 1030.53 53.2988 1030.57 53.2988Z" fill="#F5F5F5"/>
</g>
<g filter="url(#filter3_i_1732_1997)">
<path d="M724.915 53.2988C726.439 53.2988 841.995 53.2988 843.265 53.2988C843.9 53.2988 843.741 54.5751 843.773 55.8514C843.805 57.1277 844.027 58.404 843.265 58.404C841.741 58.404 726.438 58.404 724.915 58.404C724.153 58.404 724.407 56.8441 724.407 55.5678C724.407 54.2915 724.153 53.2988 724.915 53.2988Z" fill="#F5F5F5"/>
</g>
<g filter="url(#filter4_i_1732_1997)">
<path d="M843.279 53.2988C843.357 53.2988 849.283 53.2988 849.348 53.2988C849.381 53.2988 849.373 54.5751 849.374 55.8514C849.376 57.1277 849.387 58.404 849.348 58.404C849.27 58.404 843.357 58.404 843.279 58.404C843.24 58.404 843.253 56.8441 843.253 55.5678C843.253 54.2915 843.24 53.2988 843.279 53.2988Z" fill="#F5F5F5"/>
</g>
<g filter="url(#filter5_i_1732_1997)">
<path d="M540.237 53.2988C541.761 53.2988 657.318 53.2988 658.587 53.2988C659.222 53.2988 659.064 54.5751 659.095 55.8514C659.127 57.1277 659.349 58.404 658.587 58.404C657.064 58.404 541.761 58.404 540.237 58.404C539.475 58.404 539.729 56.8441 539.729 55.5678C539.729 54.2915 539.475 53.2988 540.237 53.2988Z" fill="#F5F5F5"/>
</g>
<g filter="url(#filter6_i_1732_1997)">
<path d="M658.6 53.2988C658.679 53.2988 664.605 53.2988 664.67 53.2988C664.702 53.2988 664.694 54.5751 664.696 55.8514C664.697 57.1277 664.709 58.404 664.67 58.404C664.591 58.404 658.679 58.404 658.6 58.404C658.561 58.404 658.574 56.8441 658.574 55.5678C658.574 54.2915 658.561 53.2988 658.6 53.2988Z" fill="#F5F5F5"/>
</g>
<g filter="url(#filter7_i_1732_1997)">
<path d="M352.942 53.2988C354.465 53.2988 470.022 53.2988 471.292 53.2988C471.927 53.2988 471.768 54.5751 471.8 55.8514C471.832 57.1277 472.054 58.404 471.292 58.404C469.768 58.404 354.465 58.404 352.942 58.404C352.18 58.404 352.434 56.8441 352.434 55.5678C352.434 54.2915 352.18 53.2988 352.942 53.2988Z" fill="#F5F5F5"/>
</g>
<g filter="url(#filter8_i_1732_1997)">
<path d="M471.307 53.2988C471.386 53.2988 477.312 53.2988 477.377 53.2988C477.409 53.2988 477.401 54.5751 477.403 55.8514C477.404 57.1277 477.416 58.404 477.377 58.404C477.299 58.404 471.386 58.404 471.307 58.404C471.268 58.404 471.281 56.8441 471.281 55.5678C471.281 54.2915 471.268 53.2988 471.307 53.2988Z" fill="#F5F5F5"/>
</g>
<g filter="url(#filter9_i_1732_1997)">
<path d="M168.265 53.2988C169.789 53.2988 285.346 53.2988 286.616 53.2988C287.251 53.2988 287.092 54.5751 287.124 55.8514C287.155 57.1277 287.378 58.404 286.616 58.404C285.092 58.404 169.789 58.404 168.265 58.404C167.503 58.404 167.757 56.8441 167.757 55.5678C167.757 54.2915 167.503 53.2988 168.265 53.2988Z" fill="#F5F5F5"/>
</g>
<g filter="url(#filter10_i_1732_1997)">
<path d="M286.632 53.2988C286.71 53.2988 292.636 53.2988 292.701 53.2988C292.733 53.2988 292.725 54.5751 292.727 55.8514C292.729 57.1277 292.74 58.404 292.701 58.404C292.623 58.404 286.71 58.404 286.632 58.404C286.593 58.404 286.606 56.8441 286.606 55.5678C286.606 54.2915 286.593 53.2988 286.632 53.2988Z" fill="#F5F5F5"/>
</g>
<g filter="url(#filter11_i_1732_1997)">
<path d="M-21.6468 53.2988C-20.1229 53.2988 95.4337 53.2988 96.7036 53.2988C97.3386 53.2988 97.1799 54.5751 97.2116 55.8514C97.2434 57.1277 97.4656 58.404 96.7036 58.404C95.1798 58.404 -20.123 58.404 -21.6468 58.404C-22.4086 58.404 -22.1546 56.8441 -22.1547 55.5678C-22.1547 54.2915 -22.4087 53.2988 -21.6468 53.2988Z" fill="#F5F5F5"/>
</g>
<g filter="url(#filter12_i_1732_1997)">
<path d="M99.3353 53.2988C99.4134 53.2988 105.339 53.2988 105.405 53.2988C105.437 53.2988 105.429 54.5751 105.431 55.8514C105.432 57.1277 105.444 58.404 105.405 58.404C105.326 58.404 99.4134 58.404 99.3353 58.404C99.2962 58.404 99.3092 56.8441 99.3092 55.5678C99.3092 54.2915 99.2962 53.2988 99.3353 53.2988Z" fill="#F5F5F5"/>
</g>
<g filter="url(#filter13_d_1732_1997)">
<path d="M1690.09 115.263H820.364V126.286H843.998C847.543 126.286 851.314 129.635 854.338 135.012C857.7 140.99 858.474 154.302 858.474 154.302H872.063C872.063 154.302 873.565 141.02 877.085 135.012C879.91 130.191 882.994 126.286 886.243 126.286H942.078C946.214 126.286 947.679 129.938 950.35 134.093C954.292 140.225 956.258 154.302 956.258 154.302H968.075C968.075 154.302 970.183 140.086 974.279 134.093C977.398 129.531 981.074 126.286 984.028 126.286H1038.39C1043.1 126.286 1045.09 129.371 1048.1 134.044L1048.13 134.093C1052.02 140.113 1053.45 154.302 1053.45 154.302H1066.16C1066.16 154.302 1070.29 137.768 1072.06 134.093C1073.84 130.419 1076.79 126.286 1079.45 126.286H1136.47C1138.83 126.286 1142.61 129.92 1145.33 134.553C1148.83 140.504 1150.06 153.843 1150.06 153.843H1163.64C1163.64 153.843 1164.86 140.483 1168.37 134.553C1171.17 129.823 1175.17 126.286 1177.53 126.286H1233.66C1236.61 126.286 1240.51 130.549 1243.41 135.931C1246.5 141.68 1247.84 153.843 1247.84 153.843H1260.54C1260.54 153.843 1261.96 139.633 1265.86 133.634L1265.96 133.481C1268.63 129.378 1270.63 126.286 1274.43 126.286H1330.85C1334.69 126.286 1337.18 129.868 1340.01 134.553C1343.59 140.474 1345.03 153.843 1345.03 153.843H1357.15C1357.15 153.843 1359.41 140.671 1363.05 134.553C1365.47 130.501 1368.08 126.286 1370.44 126.286H1427.16C1430.61 126.286 1432.8 129.426 1435.5 133.303L1435.73 133.634C1439.9 139.616 1442.23 153.843 1442.23 153.843H1454.93C1454.93 153.843 1456.29 139.543 1460.25 133.634C1463.37 128.964 1465.86 126.286 1470.29 126.286H1524.95C1529.08 126.286 1531.53 130.048 1534.4 135.012C1537.87 141.007 1539.13 154.302 1539.13 154.302H1552.42C1552.42 154.302 1553.96 141.072 1557.44 135.012C1560.11 130.375 1563.06 126.286 1566.01 126.286H1623.32C1625.68 126.286 1628.76 130.595 1631.3 135.012C1634.67 140.881 1636.62 153.384 1636.62 153.384H1649.61C1649.61 153.384 1651.09 140.064 1654.05 135.012C1657 129.96 1660.25 126.286 1662.61 126.286H1690.09V115.263Z" fill="#FDFF00"/>
<path d="M837.055 115.263H-32.668V126.286H-9.0342C-5.48914 126.286 -1.71871 129.635 1.30557 135.012C4.66757 140.99 5.44148 154.302 5.44148 154.302H19.0309C19.0309 154.302 20.5327 141.02 24.0531 135.012C26.878 130.191 29.9615 126.286 33.2112 126.286H89.0459C93.1818 126.286 94.6464 129.938 97.3177 134.093C101.259 140.225 103.226 154.302 103.226 154.302H115.043C115.043 154.302 117.151 140.086 121.247 134.093C124.366 129.531 128.042 126.286 130.996 126.286H185.354C190.064 126.286 192.055 129.371 195.07 134.044L195.102 134.093C198.987 140.113 200.42 154.302 200.42 154.302H213.123C213.123 154.302 217.259 137.768 219.032 134.093C220.804 130.419 223.758 126.286 226.417 126.286H283.434C285.797 126.286 289.574 129.92 292.296 134.553C295.794 140.504 297.023 153.843 297.023 153.843H310.612C310.612 153.843 311.827 140.483 315.339 134.553C318.141 129.823 322.134 126.286 324.497 126.286H380.627C383.582 126.286 387.481 130.549 390.376 135.931C393.469 141.68 394.808 153.843 394.808 153.843H407.511C407.511 153.843 408.931 139.633 412.829 133.634L412.928 133.481C415.594 129.378 417.602 126.286 421.396 126.286H477.821C481.662 126.286 484.147 129.868 486.979 134.553C490.56 140.474 492.002 153.843 492.002 153.843H504.114C504.114 153.843 506.373 140.671 510.022 134.553C512.439 130.501 515.045 126.286 517.408 126.286H574.129C577.576 126.286 579.765 129.426 582.466 133.303L582.696 133.634C586.868 139.616 589.195 153.843 589.195 153.843H601.899C601.899 153.843 603.262 139.543 607.216 133.634C610.342 128.964 612.829 126.286 617.261 126.286H671.914C676.05 126.286 678.497 130.048 681.367 135.012C684.834 141.007 686.094 154.302 686.094 154.302H699.388C699.388 154.302 700.927 141.072 704.41 135.012C707.075 130.375 710.023 126.286 712.977 126.286H770.289C772.653 126.286 775.729 130.595 778.266 135.012C781.636 140.881 783.583 153.384 783.583 153.384H796.582C796.582 153.384 798.059 140.064 801.013 135.012C803.967 129.96 807.217 126.286 809.58 126.286H837.055V115.263Z" fill="#FDFF00"/>
</g>
<path d="M1247.62 91.7012C1247.62 88.4477 1241.97 5.30176 1229.52 5.30176C1225.98 5.30176 1219.09 20.5084 1216.59 37.5125C1214.08 54.5166 1212.71 67.6538 1212.71 91.7012" stroke="url(#paint2_linear_1732_1997)" stroke-width="8.72722"/>
<path d="M1512.92 91.7012C1512.92 88.4477 1507.28 5.30176 1494.82 5.30176C1491.29 5.30176 1484.39 20.5084 1481.89 37.5125C1479.39 54.5166 1478.01 67.6538 1478.01 91.7012" stroke="url(#paint3_linear_1732_1997)" stroke-width="8.72722"/>
<path d="M358.312 26.2471C358.312 24.0505 350.52 5.30176 345.148 5.30176C339.776 5.30176 334.624 14.9759 330.825 32.1961C327.027 49.4163 325.148 67.3482 325.148 91.7012" stroke="url(#paint4_linear_1732_1997)" stroke-width="8.72722"/>
<path d="M142.749 26.2471C142.749 24.0505 134.957 5.30176 129.585 5.30176C124.213 5.30176 119.061 14.9759 115.262 32.1961C111.464 49.4163 109.585 67.3482 109.585 91.7012" stroke="url(#paint5_linear_1732_1997)" stroke-width="8.72722"/>
<path d="M571.255 26.2471C571.255 24.0505 563.463 5.30176 558.091 5.30176C552.719 5.30176 547.567 14.9759 543.769 32.1961C539.97 49.4163 538.092 67.3482 538.092 91.7012" stroke="url(#paint6_linear_1732_1997)" stroke-width="8.72722"/>
<path d="M784.201 26.2471C784.201 24.0505 776.409 5.30176 771.037 5.30176C765.665 5.30176 760.513 14.9759 756.714 32.1961C752.915 49.4163 751.037 67.3482 751.037 91.7012" stroke="url(#paint7_linear_1732_1997)" stroke-width="8.72722"/>
<path d="M1010.23 26.2471C1010.23 24.0505 1002.44 5.30176 997.071 5.30176C991.699 5.30176 986.547 14.9759 982.748 32.1961C978.95 49.4163 977.071 67.3482 977.071 91.7012" stroke="url(#paint8_linear_1732_1997)" stroke-width="8.72722"/>
<path d="M1675.23 1398.86H1616.78V445.391C1616.78 328.508 1522.03 233.756 1405.14 233.756H1379.83C1262.95 233.756 1168.2 328.508 1168.2 445.391V1398.86H1050.38V445.391C1050.38 328.508 955.628 233.756 838.745 233.756H813.436C696.553 233.756 601.801 328.508 601.801 445.391V1398.86H481.365V445.391C481.365 328.508 386.613 233.756 269.73 233.756H244.421C127.538 233.756 32.7862 328.508 32.7861 445.391V1398.86H-32.668V91.6846H1675.23V1398.86Z" fill="url(#paint9_linear_1732_1997)"/>
<g filter="url(#filter14_d_1732_1997)">
<path d="M1690.96 134.464H821.236V145.487H844.87C848.415 145.487 852.186 148.836 855.21 154.213C858.572 160.191 859.346 173.503 859.346 173.503H872.935C872.935 173.503 874.437 160.221 877.957 154.213C880.782 149.392 883.866 145.487 887.115 145.487H942.95C947.086 145.487 948.551 149.139 951.222 153.295C955.164 159.427 957.13 173.503 957.13 173.503H968.947C968.947 173.503 971.055 159.287 975.151 153.295C978.27 148.732 981.946 145.487 984.9 145.487H1039.26C1043.97 145.487 1045.96 148.573 1048.97 153.245L1049.01 153.295C1052.89 159.314 1054.32 173.503 1054.32 173.503H1067.03C1067.03 173.503 1071.16 156.969 1072.94 153.295C1074.71 149.62 1077.66 145.487 1080.32 145.487H1137.34C1139.7 145.487 1143.48 149.121 1146.2 153.754C1149.7 159.706 1150.93 173.044 1150.93 173.044H1164.52C1164.52 173.044 1165.73 159.684 1169.24 153.754C1172.04 149.024 1176.04 145.487 1178.4 145.487H1234.53C1237.49 145.487 1241.39 149.75 1244.28 155.132C1247.37 160.881 1248.71 173.044 1248.71 173.044H1261.42C1261.42 173.044 1262.84 158.834 1266.73 152.835L1266.83 152.682C1269.5 148.579 1271.51 145.487 1275.3 145.487H1331.73C1335.57 145.487 1338.05 149.07 1340.88 153.754C1344.46 159.675 1345.91 173.044 1345.91 173.044H1358.02C1358.02 173.044 1360.28 159.872 1363.93 153.754C1366.34 149.702 1368.95 145.487 1371.31 145.487H1428.03C1431.48 145.487 1433.67 148.627 1436.37 152.505L1436.6 152.835C1440.77 158.818 1443.1 173.044 1443.1 173.044H1455.8C1455.8 173.044 1457.17 158.744 1461.12 152.835C1464.25 148.165 1466.73 145.487 1471.16 145.487H1525.82C1529.95 145.487 1532.4 149.249 1535.27 154.213C1538.74 160.208 1540 173.503 1540 173.503H1553.29C1553.29 173.503 1554.83 160.273 1558.31 154.213C1560.98 149.576 1563.93 145.487 1566.88 145.487H1624.19C1626.56 145.487 1629.63 149.796 1632.17 154.213C1635.54 160.082 1637.49 172.585 1637.49 172.585H1650.49C1650.49 172.585 1651.96 159.265 1654.92 154.213C1657.87 149.161 1661.12 145.487 1663.48 145.487H1690.96V134.464Z" fill="#E6F5FD"/>
<path d="M837.927 134.464H-31.7954V145.487H-8.16164C-4.61658 145.487 -0.846148 148.836 2.17813 154.213C5.54013 160.191 6.31404 173.503 6.31404 173.503H19.9035C19.9035 173.503 21.4053 160.221 24.9256 154.213C27.7505 149.392 30.8341 145.487 34.0837 145.487H89.9185C94.0544 145.487 95.5189 149.139 98.1903 153.295C102.132 159.427 104.099 173.503 104.099 173.503H115.916C115.916 173.503 118.023 159.287 122.119 153.295C125.238 148.732 128.914 145.487 131.868 145.487H186.226C190.936 145.487 192.928 148.573 195.943 153.245L195.975 153.295C199.86 159.314 201.293 173.503 201.293 173.503H213.996C213.996 173.503 218.132 156.969 219.904 153.295C221.677 149.62 224.631 145.487 227.29 145.487H284.306C286.67 145.487 290.446 149.121 293.169 153.754C296.666 159.705 297.896 173.044 297.896 173.044H311.485C311.485 173.044 312.699 159.684 316.212 153.754C319.013 149.024 323.007 145.487 325.37 145.487H381.5C384.454 145.487 388.354 149.75 391.249 155.132C394.342 160.881 395.68 173.044 395.68 173.044H408.383C408.383 173.044 409.803 158.834 413.701 152.835L413.8 152.682C416.466 148.579 418.475 145.487 422.268 145.487H478.694C482.534 145.487 485.019 149.07 487.852 153.754C491.433 159.675 492.874 173.044 492.874 173.044H504.986C504.986 173.044 507.246 159.872 510.895 153.754C513.312 149.702 515.917 145.487 518.28 145.487H575.002C578.449 145.487 580.637 148.627 583.338 152.505L583.569 152.835C587.741 158.818 590.068 173.044 590.068 173.044H602.771C602.771 173.044 604.135 158.744 608.089 152.835C611.214 148.165 613.702 145.487 618.133 145.487H672.786C676.922 145.487 679.369 149.249 682.24 154.213C685.706 160.208 686.966 173.503 686.966 173.503H700.26C700.26 173.503 701.799 160.273 705.283 154.213C707.948 149.576 710.896 145.487 713.85 145.487H771.162C773.525 145.487 776.601 149.796 779.138 154.213C782.509 160.082 784.456 172.585 784.456 172.585H797.454C797.454 172.585 798.931 159.265 801.886 154.213C804.84 149.161 808.089 145.487 810.453 145.487H837.927V134.464Z" fill="#E6F5FD"/>
</g>
<path d="M1779.1 91.7012C1779.1 88.4477 1773.46 5.30176 1761 5.30176C1757.47 5.30176 1750.57 20.5084 1748.07 37.5125C1745.57 54.5166 1744.19 67.6538 1744.19 91.7012" stroke="url(#paint10_linear_1732_1997)" stroke-width="8.72722"/>
<path d="M3412.84 1399.04H3347.39V445.391C3347.39 328.508 3252.64 233.756 3135.75 233.756H3110.44C2993.56 233.756 2898.81 328.508 2898.81 445.391V1399.04H2767.9V445.391C2767.9 328.508 2673.15 233.756 2556.27 233.756H2530.96C2414.07 233.756 2319.32 328.508 2319.32 445.391V1399.04H2188.41V445.391C2188.41 328.508 2093.66 233.756 1976.78 233.756H1951.47C1834.59 233.756 1739.83 328.508 1739.83 445.391V1399.04H1674.38V91.7002H3412.84V1399.04Z" fill="url(#paint11_linear_1732_1997)"/>
<g filter="url(#filter15_d_1732_1997)">
<path d="M2554.13 134.51H1674.21V145.533H1708.04C1711.58 145.533 1715.35 148.882 1718.38 154.259C1721.74 160.237 1722.51 173.549 1722.51 173.549H1736.1C1736.1 173.549 1737.61 160.267 1741.13 154.259C1743.95 149.438 1747.03 145.533 1750.28 145.533H1806.12C1810.25 145.533 1811.72 149.185 1814.39 153.341C1818.33 159.472 1820.3 173.549 1820.3 173.549H1832.12C1832.12 173.549 1834.22 159.333 1838.32 153.341C1841.44 148.778 1845.11 145.533 1848.07 145.533H1902.43C1907.14 145.533 1909.13 148.618 1912.14 153.291L1912.17 153.341C1916.06 159.36 1917.49 173.549 1917.49 173.549H1930.2C1930.2 173.549 1934.33 157.015 1936.1 153.341C1937.88 149.666 1940.83 145.533 1943.49 145.533H2000.51C2002.87 145.533 2006.65 149.167 2009.37 153.8C2012.87 159.751 2014.1 173.09 2014.1 173.09H2027.68C2027.68 173.09 2028.9 159.73 2032.41 153.8C2035.21 149.07 2039.21 145.533 2041.57 145.533H2097.7C2100.65 145.533 2104.55 149.796 2107.45 155.178C2110.54 160.927 2111.88 173.09 2111.88 173.09H2124.58C2124.58 173.09 2126 158.88 2129.9 152.881L2130 152.728C2132.67 148.625 2134.67 145.533 2138.47 145.533H2194.89C2198.73 145.533 2201.22 149.116 2204.05 153.8C2207.63 159.721 2209.07 173.09 2209.07 173.09H2221.19C2221.19 173.09 2223.45 159.918 2227.09 153.8C2229.51 149.748 2232.12 145.533 2234.48 145.533H2291.2C2294.65 145.533 2296.84 148.673 2299.54 152.55L2299.77 152.881C2303.94 158.863 2306.27 173.09 2306.27 173.09H2318.97C2318.97 173.09 2320.33 158.79 2324.29 152.881C2327.41 148.211 2329.9 145.533 2334.33 145.533H2388.99C2393.12 145.533 2395.57 149.295 2398.44 154.259C2401.91 160.254 2403.17 173.549 2403.17 173.549H2416.46C2416.46 173.549 2418 160.319 2421.48 154.259C2424.15 149.622 2427.1 145.533 2430.05 145.533H2487.36C2489.73 145.533 2492.8 149.842 2495.34 154.259C2498.71 160.128 2500.66 172.631 2500.66 172.631H2513.65C2513.65 172.631 2515.13 159.311 2518.09 154.259C2521.04 149.207 2524.29 145.533 2526.65 145.533H2554.13V134.51Z" fill="#E6F5FD"/>
</g>
<defs>
<filter id="filter0_d_1732_1997" x="-53.7006" y="4.33881" width="1264.75" height="107.519" filterUnits="userSpaceOnUse" color-interpolation-filters="sRGB">
<feFlood flood-opacity="0" result="BackgroundImageFix"/>
<feColorMatrix in="SourceAlpha" type="matrix" values="0 0 0 0 0 0 0 0 0 0 0 0 0 0 0 0 0 0 127 0" result="hardAlpha"/>
<feOffset dy="-0.872722"/>
<feGaussianBlur stdDeviation="10.5163"/>
<feComposite in2="hardAlpha" operator="out"/>
<feColorMatrix type="matrix" values="0 0 0 0 1 0 0 0 0 1 0 0 0 0 1 0 0 0 0.61 0"/>
<feBlend mode="normal" in2="BackgroundImageFix" result="effect1_dropShadow_1732_1997"/>
<feBlend mode="normal" in="SourceGraphic" in2="effect1_dropShadow_1732_1997" result="shape"/>
</filter>
<filter id="filter1_i_1732_1997" x="911.658" y="53.2988" width="119.461" height="5.97819" filterUnits="userSpaceOnUse" color-interpolation-filters="sRGB">
<feFlood flood-opacity="0" result="BackgroundImageFix"/>
<feBlend mode="normal" in="SourceGraphic" in2="BackgroundImageFix" result="shape"/>
<feColorMatrix in="SourceAlpha" type="matrix" values="0 0 0 0 0 0 0 0 0 0 0 0 0 0 0 0 0 0 127 0" result="hardAlpha"/>
<feOffset dy="0.872722"/>
<feGaussianBlur stdDeviation="1.00363"/>
<feComposite in2="hardAlpha" operator="arithmetic" k2="-1" k3="1"/>
<feColorMatrix type="matrix" values="0 0 0 0 0.000553098 0 0 0 0 0.2743 0 0 0 0 0.316415 0 0 0 0.46 0"/>
<feBlend mode="normal" in2="shape" result="effect1_innerShadow_1732_1997"/>
</filter>
<filter id="filter2_i_1732_1997" x="1030.54" y="53.2988" width="6.12598" height="5.97819" filterUnits="userSpaceOnUse" color-interpolation-filters="sRGB">
<feFlood flood-opacity="0" result="BackgroundImageFix"/>
<feBlend mode="normal" in="SourceGraphic" in2="BackgroundImageFix" result="shape"/>
<feColorMatrix in="SourceAlpha" type="matrix" values="0 0 0 0 0 0 0 0 0 0 0 0 0 0 0 0 0 0 127 0" result="hardAlpha"/>
<feOffset dy="0.872722"/>
<feGaussianBlur stdDeviation="1.00363"/>
<feComposite in2="hardAlpha" operator="arithmetic" k2="-1" k3="1"/>
<feColorMatrix type="matrix" values="0 0 0 0 0.000553098 0 0 0 0 0.2743 0 0 0 0 0.316415 0 0 0 0.46 0"/>
<feBlend mode="normal" in2="shape" result="effect1_innerShadow_1732_1997"/>
</filter>
<filter id="filter3_i_1732_1997" x="724.366" y="53.2988" width="119.461" height="5.97819" filterUnits="userSpaceOnUse" color-interpolation-filters="sRGB">
<feFlood flood-opacity="0" result="BackgroundImageFix"/>
<feBlend mode="normal" in="SourceGraphic" in2="BackgroundImageFix" result="shape"/>
<feColorMatrix in="SourceAlpha" type="matrix" values="0 0 0 0 0 0 0 0 0 0 0 0 0 0 0 0 0 0 127 0" result="hardAlpha"/>
<feOffset dy="0.872722"/>
<feGaussianBlur stdDeviation="1.00363"/>
<feComposite in2="hardAlpha" operator="arithmetic" k2="-1" k3="1"/>
<feColorMatrix type="matrix" values="0 0 0 0 0.000553098 0 0 0 0 0.2743 0 0 0 0 0.316415 0 0 0 0.46 0"/>
<feBlend mode="normal" in2="shape" result="effect1_innerShadow_1732_1997"/>
</filter>
<filter id="filter4_i_1732_1997" x="843.251" y="53.2988" width="6.12598" height="5.97819" filterUnits="userSpaceOnUse" color-interpolation-filters="sRGB">
<feFlood flood-opacity="0" result="BackgroundImageFix"/>
<feBlend mode="normal" in="SourceGraphic" in2="BackgroundImageFix" result="shape"/>
<feColorMatrix in="SourceAlpha" type="matrix" values="0 0 0 0 0 0 0 0 0 0 0 0 0 0 0 0 0 0 127 0" result="hardAlpha"/>
<feOffset dy="0.872722"/>
<feGaussianBlur stdDeviation="1.00363"/>
<feComposite in2="hardAlpha" operator="arithmetic" k2="-1" k3="1"/>
<feColorMatrix type="matrix" values="0 0 0 0 0.000553098 0 0 0 0 0.2743 0 0 0 0 0.316415 0 0 0 0.46 0"/>
<feBlend mode="normal" in2="shape" result="effect1_innerShadow_1732_1997"/>
</filter>
<filter id="filter5_i_1732_1997" x="539.688" y="53.2988" width="119.461" height="5.97819" filterUnits="userSpaceOnUse" color-interpolation-filters="sRGB">
<feFlood flood-opacity="0" result="BackgroundImageFix"/>
<feBlend mode="normal" in="SourceGraphic" in2="BackgroundImageFix" result="shape"/>
<feColorMatrix in="SourceAlpha" type="matrix" values="0 0 0 0 0 0 0 0 0 0 0 0 0 0 0 0 0 0 127 0" result="hardAlpha"/>
<feOffset dy="0.872722"/>
<feGaussianBlur stdDeviation="1.00363"/>
<feComposite in2="hardAlpha" operator="arithmetic" k2="-1" k3="1"/>
<feColorMatrix type="matrix" values="0 0 0 0 0.000553098 0 0 0 0 0.2743 0 0 0 0 0.316415 0 0 0 0.46 0"/>
<feBlend mode="normal" in2="shape" result="effect1_innerShadow_1732_1997"/>
</filter>
<filter id="filter6_i_1732_1997" x="658.572" y="53.2988" width="6.12598" height="5.97819" filterUnits="userSpaceOnUse" color-interpolation-filters="sRGB">
<feFlood flood-opacity="0" result="BackgroundImageFix"/>
<feBlend mode="normal" in="SourceGraphic" in2="BackgroundImageFix" result="shape"/>
<feColorMatrix in="SourceAlpha" type="matrix" values="0 0 0 0 0 0 0 0 0 0 0 0 0 0 0 0 0 0 127 0" result="hardAlpha"/>
<feOffset dy="0.872722"/>
<feGaussianBlur stdDeviation="1.00363"/>
<feComposite in2="hardAlpha" operator="arithmetic" k2="-1" k3="1"/>
<feColorMatrix type="matrix" values="0 0 0 0 0.000553098 0 0 0 0 0.2743 0 0 0 0 0.316415 0 0 0 0.46 0"/>
<feBlend mode="normal" in2="shape" result="effect1_innerShadow_1732_1997"/>
</filter>
<filter id="filter7_i_1732_1997" x="352.393" y="53.2988" width="119.461" height="5.97819" filterUnits="userSpaceOnUse" color-interpolation-filters="sRGB">
<feFlood flood-opacity="0" result="BackgroundImageFix"/>
<feBlend mode="normal" in="SourceGraphic" in2="BackgroundImageFix" result="shape"/>
<feColorMatrix in="SourceAlpha" type="matrix" values="0 0 0 0 0 0 0 0 0 0 0 0 0 0 0 0 0 0 127 0" result="hardAlpha"/>
<feOffset dy="0.872722"/>
<feGaussianBlur stdDeviation="1.00363"/>
<feComposite in2="hardAlpha" operator="arithmetic" k2="-1" k3="1"/>
<feColorMatrix type="matrix" values="0 0 0 0 0.000553098 0 0 0 0 0.2743 0 0 0 0 0.316415 0 0 0 0.46 0"/>
<feBlend mode="normal" in2="shape" result="effect1_innerShadow_1732_1997"/>
</filter>
<filter id="filter8_i_1732_1997" x="471.279" y="53.2988" width="6.12598" height="5.97819" filterUnits="userSpaceOnUse" color-interpolation-filters="sRGB">
<feFlood flood-opacity="0" result="BackgroundImageFix"/>
<feBlend mode="normal" in="SourceGraphic" in2="BackgroundImageFix" result="shape"/>
<feColorMatrix in="SourceAlpha" type="matrix" values="0 0 0 0 0 0 0 0 0 0 0 0 0 0 0 0 0 0 127 0" result="hardAlpha"/>
<feOffset dy="0.872722"/>
<feGaussianBlur stdDeviation="1.00363"/>
<feComposite in2="hardAlpha" operator="arithmetic" k2="-1" k3="1"/>
<feColorMatrix type="matrix" values="0 0 0 0 0.000553098 0 0 0 0 0.2743 0 0 0 0 0.316415 0 0 0 0.46 0"/>
<feBlend mode="normal" in2="shape" result="effect1_innerShadow_1732_1997"/>
</filter>
<filter id="filter9_i_1732_1997" x="167.717" y="53.2988" width="119.461" height="5.97819" filterUnits="userSpaceOnUse" color-interpolation-filters="sRGB">
<feFlood flood-opacity="0" result="BackgroundImageFix"/>
<feBlend mode="normal" in="SourceGraphic" in2="BackgroundImageFix" result="shape"/>
<feColorMatrix in="SourceAlpha" type="matrix" values="0 0 0 0 0 0 0 0 0 0 0 0 0 0 0 0 0 0 127 0" result="hardAlpha"/>
<feOffset dy="0.872722"/>
<feGaussianBlur stdDeviation="1.00363"/>
<feComposite in2="hardAlpha" operator="arithmetic" k2="-1" k3="1"/>
<feColorMatrix type="matrix" values="0 0 0 0 0.000553098 0 0 0 0 0.2743 0 0 0 0 0.316415 0 0 0 0.46 0"/>
<feBlend mode="normal" in2="shape" result="effect1_innerShadow_1732_1997"/>
</filter>
<filter id="filter10_i_1732_1997" x="286.604" y="53.2988" width="6.12646" height="5.97819" filterUnits="userSpaceOnUse" color-interpolation-filters="sRGB">
<feFlood flood-opacity="0" result="BackgroundImageFix"/>
<feBlend mode="normal" in="SourceGraphic" in2="BackgroundImageFix" result="shape"/>
<feColorMatrix in="SourceAlpha" type="matrix" values="0 0 0 0 0 0 0 0 0 0 0 0 0 0 0 0 0 0 127 0" result="hardAlpha"/>
<feOffset dy="0.872722"/>
<feGaussianBlur stdDeviation="1.00363"/>
<feComposite in2="hardAlpha" operator="arithmetic" k2="-1" k3="1"/>
<feColorMatrix type="matrix" values="0 0 0 0 0.000553098 0 0 0 0 0.2743 0 0 0 0 0.316415 0 0 0 0.46 0"/>
<feBlend mode="normal" in2="shape" result="effect1_innerShadow_1732_1997"/>
</filter>
<filter id="filter11_i_1732_1997" x="-22.1953" y="53.2988" width="119.461" height="5.97819" filterUnits="userSpaceOnUse" color-interpolation-filters="sRGB">
<feFlood flood-opacity="0" result="BackgroundImageFix"/>
<feBlend mode="normal" in="SourceGraphic" in2="BackgroundImageFix" result="shape"/>
<feColorMatrix in="SourceAlpha" type="matrix" values="0 0 0 0 0 0 0 0 0 0 0 0 0 0 0 0 0 0 127 0" result="hardAlpha"/>
<feOffset dy="0.872722"/>
<feGaussianBlur stdDeviation="1.00363"/>
<feComposite in2="hardAlpha" operator="arithmetic" k2="-1" k3="1"/>
<feColorMatrix type="matrix" values="0 0 0 0 0.000553098 0 0 0 0 0.2743 0 0 0 0 0.316415 0 0 0 0.46 0"/>
<feBlend mode="normal" in2="shape" result="effect1_innerShadow_1732_1997"/>
</filter>
<filter id="filter12_i_1732_1997" x="99.3071" y="53.2988" width="6.12646" height="5.97819" filterUnits="userSpaceOnUse" color-interpolation-filters="sRGB">
<feFlood flood-opacity="0" result="BackgroundImageFix"/>
<feBlend mode="normal" in="SourceGraphic" in2="BackgroundImageFix" result="shape"/>
<feColorMatrix in="SourceAlpha" type="matrix" values="0 0 0 0 0 0 0 0 0 0 0 0 0 0 0 0 0 0 127 0" result="hardAlpha"/>
<feOffset dy="0.872722"/>
<feGaussianBlur stdDeviation="1.00363"/>
<feComposite in2="hardAlpha" operator="arithmetic" k2="-1" k3="1"/>
<feColorMatrix type="matrix" values="0 0 0 0 0.000553098 0 0 0 0 0.2743 0 0 0 0 0.316415 0 0 0 0.46 0"/>
<feBlend mode="normal" in2="shape" result="effect1_innerShadow_1732_1997"/>
</filter>
<filter id="filter13_d_1732_1997" x="-48.5515" y="98.5064" width="1754.52" height="70.8061" filterUnits="userSpaceOnUse" color-interpolation-filters="sRGB">
<feFlood flood-opacity="0" result="BackgroundImageFix"/>
<feColorMatrix in="SourceAlpha" type="matrix" values="0 0 0 0 0 0 0 0 0 0 0 0 0 0 0 0 0 0 127 0" result="hardAlpha"/>
<feOffset dy="-0.872722"/>
<feGaussianBlur stdDeviation="7.94177"/>
<feComposite in2="hardAlpha" operator="out"/>
<feColorMatrix type="matrix" values="0 0 0 0 0.879648 0 0 0 0 1 0 0 0 0 0.997994 0 0 0 1 0"/>
<feBlend mode="normal" in2="BackgroundImageFix" result="effect1_dropShadow_1732_1997"/>
<feBlend mode="normal" in="SourceGraphic" in2="effect1_dropShadow_1732_1997" result="shape"/>
</filter>
<filter id="filter14_d_1732_1997" x="-47.679" y="117.708" width="1754.52" height="70.8061" filterUnits="userSpaceOnUse" color-interpolation-filters="sRGB">
<feFlood flood-opacity="0" result="BackgroundImageFix"/>
<feColorMatrix in="SourceAlpha" type="matrix" values="0 0 0 0 0 0 0 0 0 0 0 0 0 0 0 0 0 0 127 0" result="hardAlpha"/>
<feOffset dy="-0.872722"/>
<feGaussianBlur stdDeviation="7.94177"/>
<feComposite in2="hardAlpha" operator="out"/>
<feColorMatrix type="matrix" values="0 0 0 0 0.879648 0 0 0 0 1 0 0 0 0 0.997994 0 0 0 1 0"/>
<feBlend mode="normal" in2="BackgroundImageFix" result="effect1_dropShadow_1732_1997"/>
<feBlend mode="normal" in="SourceGraphic" in2="effect1_dropShadow_1732_1997" result="shape"/>
</filter>
<filter id="filter15_d_1732_1997" x="1658.32" y="117.754" width="1780.43" height="70.8061" filterUnits="userSpaceOnUse" color-interpolation-filters="sRGB">
<feFlood flood-opacity="0" result="BackgroundImageFix"/>
<feColorMatrix in="SourceAlpha" type="matrix" values="0 0 0 0 0 0 0 0 0 0 0 0 0 0 0 0 0 0 127 0" result="hardAlpha"/>
<feOffset dy="-0.872722"/>
<feGaussianBlur stdDeviation="7.94177"/>
<feComposite in2="hardAlpha" operator="out"/>
<feColorMatrix type="matrix" values="0 0 0 0 0.879648 0 0 0 0 1 0 0 0 0 0.997994 0 0 0 1 0"/>
<feBlend mode="normal" in2="BackgroundImageFix" result="effect1_dropShadow_1732_1997"/>
<feBlend mode="normal" in="SourceGraphic" in2="effect1_dropShadow_1732_1997" result="shape"/>
</filter>
<linearGradient id="paint0_linear_1732_1997" x1="1144.77" y1="-9.97165" x2="1144.77" y2="91.6834" gradientUnits="userSpaceOnUse">
<stop offset="0.0822391" stop-color="#E2F8FC"/>
<stop offset="0.220174" stop-color="#52AEC1"/>
<stop offset="0.5" stop-color="#88DAEA"/>
<stop offset="1" stop-color="#F7F7F7" stop-opacity="0.13"/>
</linearGradient>
<linearGradient id="paint1_linear_1732_1997" x1="-32.668" y1="58.9712" x2="1190.02" y2="58.9712" gradientUnits="userSpaceOnUse">
<stop stop-color="#3CA2AD"/>
<stop offset="1" stop-color="#194347"/>
</linearGradient>
<linearGradient id="paint2_linear_1732_1997" x1="1236.48" y1="59.5424" x2="1211.58" y2="54.7757" gradientUnits="userSpaceOnUse">
<stop stop-color="#4F7B82"/>
<stop offset="1" stop-color="#8ACCC7"/>
</linearGradient>
<linearGradient id="paint3_linear_1732_1997" x1="1501.79" y1="59.5424" x2="1476.89" y2="54.7757" gradientUnits="userSpaceOnUse">
<stop stop-color="#4F7B82"/>
<stop offset="1" stop-color="#8ACCC7"/>
</linearGradient>
<linearGradient id="paint4_linear_1732_1997" x1="360.902" y1="60.2316" x2="324.685" y2="49.8349" gradientUnits="userSpaceOnUse">
<stop stop-color="#4F7B82"/>
<stop offset="1" stop-color="#8ACCC7"/>
</linearGradient>
<linearGradient id="paint5_linear_1732_1997" x1="145.339" y1="60.2316" x2="109.122" y2="49.8349" gradientUnits="userSpaceOnUse">
<stop stop-color="#4F7B82"/>
<stop offset="1" stop-color="#8ACCC7"/>
</linearGradient>
<linearGradient id="paint6_linear_1732_1997" x1="573.845" y1="60.2316" x2="537.629" y2="49.8349" gradientUnits="userSpaceOnUse">
<stop stop-color="#4F7B82"/>
<stop offset="1" stop-color="#8ACCC7"/>
</linearGradient>
<linearGradient id="paint7_linear_1732_1997" x1="786.791" y1="60.2316" x2="750.574" y2="49.8349" gradientUnits="userSpaceOnUse">
<stop stop-color="#4F7B82"/>
<stop offset="1" stop-color="#8ACCC7"/>
</linearGradient>
<linearGradient id="paint8_linear_1732_1997" x1="1012.82" y1="60.2316" x2="976.608" y2="49.8349" gradientUnits="userSpaceOnUse">
<stop stop-color="#4F7B82"/>
<stop offset="1" stop-color="#8ACCC7"/>
</linearGradient>
<linearGradient id="paint9_linear_1732_1997" x1="836.563" y1="91.6995" x2="836.563" y2="1399.04" gradientUnits="userSpaceOnUse">
<stop offset="0.0792564" stop-color="#335A69"/>
<stop offset="0.276382" stop-color="#4C869C"/>
<stop offset="0.382973" stop-color="#65B1CF"/>
<stop offset="0.51488" stop-color="#89C3DB" stop-opacity="0.27"/>
<stop offset="0.572439" stop-color="#93CAE1" stop-opacity="0.228"/>
<stop offset="0.665973" stop-color="#BDE6F8" stop-opacity="0.06"/>
<stop offset="1" stop-color="#E5F7FF" stop-opacity="0"/>
</linearGradient>
<linearGradient id="paint10_linear_1732_1997" x1="1767.97" y1="59.5424" x2="1743.07" y2="54.7757" gradientUnits="userSpaceOnUse">
<stop stop-color="#4F7B82"/>
<stop offset="1" stop-color="#8ACCC7"/>
</linearGradient>
<linearGradient id="paint11_linear_1732_1997" x1="2543.61" y1="91.7002" x2="2543.61" y2="1399.04" gradientUnits="userSpaceOnUse">
<stop offset="0.0792564" stop-color="#335A69"/>
<stop offset="0.276382" stop-color="#4C869C"/>
<stop offset="0.527256" stop-color="#5B9FBA"/>
<stop offset="0.677128" stop-color="#89C3DB" stop-opacity="0.27"/>
<stop offset="0.817227" stop-color="#BDE6F8" stop-opacity="0.06"/>
<stop offset="1" stop-color="#E5F7FF" stop-opacity="0"/>
</linearGradient>
</defs>
</svg>
