<svg width="1510" height="2181" viewBox="0 0 1510 2181" fill="none" xmlns="http://www.w3.org/2000/svg">
    <g class="connectors" stroke="white" stroke-width="15">
        <path d="M913.005 114.642L1347.1 334.369L926.403 669.314M926.403 669.314L618.252 1891.2L82.3376 2046.61L379.771 891.719L926.403 669.314ZM921.045 677.353V117.322"/>
    </g>
    <g class="stars" fill="white" stroke="white" stroke-width="15" stroke-linejoin="round">
        <path d="M1199.22 336C1342.78 336 1347 319.28 1347 131.18C1347 319.28 1347 336 1494.78 336C1347 336 1347 352.72 1347 540.82C1347 352.72 1342.78 336 1199.22 336Z"/>
        <path d="M1431.63 252.4C1359.85 323.46 1334.51 323.46 1262.74 252.4C1334.51 323.46 1334.51 348.54 1262.74 419.6C1334.51 348.54 1359.85 348.54 1431.63 419.6C1359.85 348.54 1359.85 323.46 1431.63 252.4Z"/>
        <path d="M833.5 130.5C918.5 130.5 921 120.54 921 8.48999C921 120.54 921 130.5 1008.5 130.5C921 130.5 921 140.46 921 252.51C921 140.46 918.5 130.5 833.5 130.5Z"/>
        <path d="M833.5 687.5C918.5 687.5 921 677.54 921 565.49C921 677.54 921 687.5 1008.5 687.5C921 687.5 921 697.46 921 809.51C921 697.46 918.5 687.5 833.5 687.5Z"/>
        <path d="M289.5 892.5C374.5 892.5 377 882.54 377 770.49C377 882.54 377 892.5 464.5 892.5C377 892.5 377 902.46 377 1014.51C377 902.46 374.5 892.5 289.5 892.5Z"/>
        <path d="M7.5 2050.5C92.5 2050.5 95 2040.54 95 1928.49C95 2040.54 95.0003 2050.5 182.5 2050.5C95.0003 2050.5 95 2060.46 95 2172.51C95 2060.46 92.5 2050.5 7.5 2050.5Z"/>
        <path d="M531.5 1893.5C616.5 1893.5 619 1883.54 619 1771.49C619 1883.54 619 1893.5 706.5 1893.5C619 1893.5 619 1903.46 619 2015.51C619 1903.46 616.5 1893.5 531.5 1893.5Z"/>
    </g>
</svg>
