<svg width="4087" height="4613" viewBox="0 0 4087 4613" fill="none" xmlns="http://www.w3.org/2000/svg" xmlns:xlink="http://www.w3.org/1999/xlink">
    <path d="M2016.5 0L4013.99 1153.25V3459.75L2016.5 4613L19.0125 3459.75V1153.25L2016.5 0Z" fill="white"/>
    <g filter="url(#filter0_d_24_96)">
        <path d="M2016.5 232L3813.07 1269.25V3343.75L2016.5 4381L219.93 3343.75V1269.25L2016.5 232Z" fill="url(#paint0_linear_24_96)"/>
    </g>
    <g style="mix-blend-mode:screen" filter="url(#filter1_d_24_96)">
        <path d="M2016.5 232L3813.07 1269.25V3343.75L2016.5 4381L219.93 3343.75V1269.25L2016.5 232Z" fill="url(#pattern0)" shape-rendering="crispEdges"/>
    </g>
    <g filter="url(#filter2_f_24_96)">
        <path d="M1646.16 1297.21H1414.52C1410.87 1297.21 1407.49 1296.56 1404.36 1295.26C1401.24 1293.96 1398.5 1292.2 1396.16 1289.98C1393.95 1287.64 1392.19 1284.91 1390.89 1281.78C1389.58 1278.66 1388.93 1275.27 1388.93 1271.62V1017.13H1439.71V1246.43H1646.16V1297.21ZM1921.36 1110.88C1921.36 1122.47 1919.86 1132.82 1916.86 1141.94C1914 1151.05 1910.16 1159.12 1905.34 1166.16C1900.52 1173.06 1894.86 1178.98 1888.35 1183.93C1881.97 1188.88 1875.33 1192.98 1868.43 1196.23C1861.52 1199.36 1854.49 1201.64 1847.33 1203.07C1840.3 1204.5 1833.66 1205.22 1827.41 1205.22H1806.9V1297.21H1755.73V1205.22H1735.42C1729.17 1205.22 1722.46 1204.5 1715.3 1203.07C1708.27 1201.64 1701.24 1199.36 1694.21 1196.23C1687.31 1192.98 1680.67 1188.88 1674.29 1183.93C1667.9 1178.98 1662.24 1173.06 1657.29 1166.16C1652.48 1159.12 1648.57 1151.05 1645.57 1141.94C1642.71 1132.69 1641.28 1122.34 1641.28 1110.88V1017.13H1692.06V1110.88C1692.06 1117.52 1693.1 1123.51 1695.18 1128.85C1697.27 1134.06 1700.2 1138.55 1703.97 1142.33C1707.75 1146.1 1712.31 1149.03 1717.64 1151.12C1723.11 1153.07 1729.17 1154.05 1735.81 1154.05H1827.41C1832.23 1153.27 1837.18 1152.29 1842.25 1151.12C1847.33 1149.82 1851.95 1147.67 1856.12 1144.67C1860.29 1141.68 1863.74 1137.51 1866.47 1132.17C1869.21 1126.83 1870.57 1119.74 1870.57 1110.88V1017.13H1921.36V1110.88ZM2246.94 1111.27C2246.94 1122.86 2245.51 1133.21 2242.64 1142.33C2239.78 1151.44 2235.87 1159.52 2230.93 1166.55C2226.11 1173.45 2220.51 1179.37 2214.13 1184.32C2207.75 1189.27 2201.04 1193.37 2194.01 1196.62C2187.11 1199.75 2180.08 1202.03 2172.92 1203.46C2165.89 1204.89 2159.25 1205.61 2153 1205.61L2259.05 1297.21H2180.54L2074.68 1205.61H2038.15V1154.83H2153C2159.38 1154.31 2165.17 1153.01 2170.38 1150.92C2175.72 1148.71 2180.27 1145.78 2184.05 1142.13C2187.96 1138.49 2190.95 1134.12 2193.04 1129.05C2195.12 1123.84 2196.16 1117.91 2196.16 1111.27V1079.24C2196.16 1076.38 2195.77 1074.23 2194.99 1072.8C2194.34 1071.23 2193.43 1070.13 2192.25 1069.48C2191.21 1068.7 2190.04 1068.24 2188.74 1068.11C2187.57 1067.98 2186.46 1067.91 2185.42 1067.91H2017.84V1297.21H1967.06V1042.72C1967.06 1039.2 1967.71 1035.88 1969.01 1032.76C1970.31 1029.63 1972.07 1026.9 1974.29 1024.55C1976.63 1022.21 1979.36 1020.39 1982.49 1019.09C1985.61 1017.78 1989 1017.13 1992.64 1017.13H2185.42C2196.75 1017.13 2206.32 1019.22 2214.13 1023.38C2221.94 1027.42 2228.26 1032.56 2233.07 1038.81C2238.02 1044.93 2241.54 1051.57 2243.62 1058.73C2245.83 1065.9 2246.94 1072.6 2246.94 1078.85V1111.27ZM2572.72 1297.21H2521.94V1228.46H2343.43V1297.21H2292.64V1157.17C2292.64 1136.73 2296.16 1117.91 2303.19 1100.73C2310.22 1083.54 2319.99 1068.76 2332.49 1056.39C2344.99 1044.02 2359.77 1034.39 2376.82 1027.48C2393.88 1020.58 2412.5 1017.13 2432.68 1017.13H2547.14C2550.65 1017.13 2553.97 1017.78 2557.1 1019.09C2560.22 1020.39 2562.96 1022.21 2565.3 1024.55C2567.64 1026.9 2569.47 1029.63 2570.77 1032.76C2572.07 1035.88 2572.72 1039.2 2572.72 1042.72V1297.21ZM2343.43 1177.68H2521.94V1067.91H2432.68C2431.12 1067.91 2427.8 1068.17 2422.72 1068.7C2417.77 1069.09 2411.98 1070.19 2405.34 1072.02C2398.83 1073.84 2391.93 1076.64 2384.64 1080.41C2377.35 1084.19 2370.64 1089.4 2364.52 1096.04C2358.4 1102.68 2353.32 1111.01 2349.29 1121.04C2345.38 1130.93 2343.43 1142.98 2343.43 1157.17V1177.68Z" fill="white"/>
    </g>
    <g filter="url(#filter3_d_24_96)">
        <path d="M1646.16 1297.21H1414.52C1410.87 1297.21 1407.49 1296.56 1404.36 1295.26C1401.24 1293.96 1398.5 1292.2 1396.16 1289.98C1393.95 1287.64 1392.19 1284.91 1390.89 1281.78C1389.58 1278.66 1388.93 1275.27 1388.93 1271.62V1017.13H1439.71V1246.43H1646.16V1297.21ZM1921.36 1110.88C1921.36 1122.47 1919.86 1132.82 1916.86 1141.94C1914 1151.05 1910.16 1159.12 1905.34 1166.16C1900.52 1173.06 1894.86 1178.98 1888.35 1183.93C1881.97 1188.88 1875.33 1192.98 1868.43 1196.23C1861.52 1199.36 1854.49 1201.64 1847.33 1203.07C1840.3 1204.5 1833.66 1205.22 1827.41 1205.22H1806.9V1297.21H1755.73V1205.22H1735.42C1729.17 1205.22 1722.46 1204.5 1715.3 1203.07C1708.27 1201.64 1701.24 1199.36 1694.21 1196.23C1687.31 1192.98 1680.67 1188.88 1674.29 1183.93C1667.9 1178.98 1662.24 1173.06 1657.29 1166.16C1652.48 1159.12 1648.57 1151.05 1645.57 1141.94C1642.71 1132.69 1641.28 1122.34 1641.28 1110.88V1017.13H1692.06V1110.88C1692.06 1117.52 1693.1 1123.51 1695.18 1128.85C1697.27 1134.06 1700.2 1138.55 1703.97 1142.33C1707.75 1146.1 1712.31 1149.03 1717.64 1151.12C1723.11 1153.07 1729.17 1154.05 1735.81 1154.05H1827.41C1832.23 1153.27 1837.18 1152.29 1842.25 1151.12C1847.33 1149.82 1851.95 1147.67 1856.12 1144.67C1860.29 1141.68 1863.74 1137.51 1866.47 1132.17C1869.21 1126.83 1870.57 1119.74 1870.57 1110.88V1017.13H1921.36V1110.88ZM2246.94 1111.27C2246.94 1122.86 2245.51 1133.21 2242.64 1142.33C2239.78 1151.44 2235.87 1159.52 2230.93 1166.55C2226.11 1173.45 2220.51 1179.37 2214.13 1184.32C2207.75 1189.27 2201.04 1193.37 2194.01 1196.62C2187.11 1199.75 2180.08 1202.03 2172.92 1203.46C2165.89 1204.89 2159.25 1205.61 2153 1205.61L2259.05 1297.21H2180.54L2074.68 1205.61H2038.15V1154.83H2153C2159.38 1154.31 2165.17 1153.01 2170.38 1150.92C2175.72 1148.71 2180.27 1145.78 2184.05 1142.13C2187.96 1138.49 2190.95 1134.12 2193.04 1129.05C2195.12 1123.84 2196.16 1117.91 2196.16 1111.27V1079.24C2196.16 1076.38 2195.77 1074.23 2194.99 1072.8C2194.34 1071.23 2193.43 1070.13 2192.25 1069.48C2191.21 1068.7 2190.04 1068.24 2188.74 1068.11C2187.57 1067.98 2186.46 1067.91 2185.42 1067.91H2017.84V1297.21H1967.06V1042.72C1967.06 1039.2 1967.71 1035.88 1969.01 1032.76C1970.31 1029.63 1972.07 1026.9 1974.29 1024.55C1976.63 1022.21 1979.36 1020.39 1982.49 1019.09C1985.61 1017.78 1989 1017.13 1992.64 1017.13H2185.42C2196.75 1017.13 2206.32 1019.22 2214.13 1023.38C2221.94 1027.42 2228.26 1032.56 2233.07 1038.81C2238.02 1044.93 2241.54 1051.57 2243.62 1058.73C2245.83 1065.9 2246.94 1072.6 2246.94 1078.85V1111.27ZM2572.72 1297.21H2521.94V1228.46H2343.43V1297.21H2292.64V1157.17C2292.64 1136.73 2296.16 1117.91 2303.19 1100.73C2310.22 1083.54 2319.99 1068.76 2332.49 1056.39C2344.99 1044.02 2359.77 1034.39 2376.82 1027.48C2393.88 1020.58 2412.5 1017.13 2432.68 1017.13H2547.14C2550.65 1017.13 2553.97 1017.78 2557.1 1019.09C2560.22 1020.39 2562.96 1022.21 2565.3 1024.55C2567.64 1026.9 2569.47 1029.63 2570.77 1032.76C2572.07 1035.88 2572.72 1039.2 2572.72 1042.72V1297.21ZM2343.43 1177.68H2521.94V1067.91H2432.68C2431.12 1067.91 2427.8 1068.17 2422.72 1068.7C2417.77 1069.09 2411.98 1070.19 2405.34 1072.02C2398.83 1073.84 2391.93 1076.64 2384.64 1080.41C2377.35 1084.19 2370.64 1089.4 2364.52 1096.04C2358.4 1102.68 2353.32 1111.01 2349.29 1121.04C2345.38 1130.93 2343.43 1142.98 2343.43 1157.17V1177.68Z" fill="white"/>
    </g>
    <use filter="url(#filter4_f_24_96)" href="#constellation1" xlink:href="#constellation1"/>
    <use href="#constellation1" xlink:href="#constellation1"/>
    <defs>
        <filter id="filter0_d_24_96" x="215.93" y="232" width="3601.14" height="4157" filterUnits="userSpaceOnUse"
                color-interpolation-filters="sRGB">
            <feFlood flood-opacity="0" result="BackgroundImageFix"/>
            <feColorMatrix in="SourceAlpha" type="matrix" values="0 0 0 0 0 0 0 0 0 0 0 0 0 0 0 0 0 0 127 0"
                           result="hardAlpha"/>
            <feOffset dy="4"/>
            <feGaussianBlur stdDeviation="2"/>
            <feComposite in2="hardAlpha" operator="out"/>
            <feColorMatrix type="matrix" values="0 0 0 0 0 0 0 0 0 0 0 0 0 0 0 0 0 0 0.25 0"/>
            <feBlend mode="normal" in2="BackgroundImageFix" result="effect1_dropShadow_24_96"/>
            <feBlend mode="normal" in="SourceGraphic" in2="effect1_dropShadow_24_96" result="shape"/>
        </filter>
        <filter id="filter1_d_24_96" x="215.93" y="232" width="3601.14" height="4157" filterUnits="userSpaceOnUse"
                color-interpolation-filters="sRGB">
            <feFlood flood-opacity="0" result="BackgroundImageFix"/>
            <feColorMatrix in="SourceAlpha" type="matrix" values="0 0 0 0 0 0 0 0 0 0 0 0 0 0 0 0 0 0 127 0"
                           result="hardAlpha"/>
            <feOffset dy="4"/>
            <feGaussianBlur stdDeviation="2"/>
            <feComposite in2="hardAlpha" operator="out"/>
            <feColorMatrix type="matrix" values="0 0 0 0 0 0 0 0 0 0 0 0 0 0 0 0 0 0 0.25 0"/>
            <feBlend mode="normal" in2="BackgroundImageFix" result="effect1_dropShadow_24_96"/>
            <feBlend mode="normal" in="SourceGraphic" in2="effect1_dropShadow_24_96" result="shape"/>
        </filter>
        <pattern id="pattern0" patternContentUnits="objectBoundingBox" width="1" height="1">
            <use xlink:href="#image0_24_96" transform="translate(0 -0.334259) scale(0.000925926)"/>
        </pattern>
        <filter id="filter2_f_24_96" x="1308.93" y="937.133" width="1343.79" height="440.078"
                filterUnits="userSpaceOnUse" color-interpolation-filters="sRGB">
            <feFlood flood-opacity="0" result="BackgroundImageFix"/>
            <feBlend mode="normal" in="SourceGraphic" in2="BackgroundImageFix" result="shape"/>
            <feGaussianBlur stdDeviation="40" result="effect1_foregroundBlur_24_96"/>
        </filter>
        <filter id="filter3_d_24_96" x="1384.93" y="1017.13" width="1191.79" height="304.078"
                filterUnits="userSpaceOnUse" color-interpolation-filters="sRGB">
            <feFlood flood-opacity="0" result="BackgroundImageFix"/>
            <feColorMatrix in="SourceAlpha" type="matrix" values="0 0 0 0 0 0 0 0 0 0 0 0 0 0 0 0 0 0 127 0"
                           result="hardAlpha"/>
            <feOffset dy="20"/>
            <feGaussianBlur stdDeviation="2"/>
            <feComposite in2="hardAlpha" operator="out"/>
            <feColorMatrix type="matrix" values="0 0 0 0 0 0 0 0 0 0 0 0 0 0 0 0 0 0 0.25 0"/>
            <feBlend mode="normal" in2="BackgroundImageFix" result="effect1_dropShadow_24_96"/>
            <feBlend mode="normal" in="SourceGraphic" in2="effect1_dropShadow_24_96" result="shape"/>
        </filter>
        <filter id="filter4_f_24_96" x="1278.71" y="1500.39" width="1669.99" height="2339.02"
                filterUnits="userSpaceOnUse" color-interpolation-filters="sRGB">
            <feFlood flood-opacity="0" result="BackgroundImageFix"/>
            <feBlend mode="normal" in="SourceGraphic" in2="BackgroundImageFix" result="shape"/>
            <feGaussianBlur stdDeviation="40" result="effect1_foregroundBlur_24_96"/>
        </filter>
        <linearGradient id="paint0_linear_24_96" x1="2016.5" y1="232" x2="2016.5" y2="4381"
                        gradientUnits="userSpaceOnUse">
            <stop stop-color="#2E2B5F"/>
            <stop offset="1" stop-color="#F38456"/>
        </linearGradient>
        <image id="image0_24_96" width="1080" height="1802" href="../stars-overlay.jpg" xlink:href="../stars-overlay.jpg"/>
        <image id="constellation1" href="./constellation.svg" xlink:href="./constellation.svg" x="1358.71" y="1579.41"/>
    </defs>
</svg>
