<svg xmlns="http://www.w3.org/2000/svg" viewBox="0 0 985.21 992.94"><defs><style>.cls-1{fill:#c5e3b3;}.cls-2{fill:#92ced4;}.cls-3{fill:#ae95c8;}.cls-4{fill:#842fd7;}.cls-5{fill:#dab8e9;}.cls-6{fill:#751c9e;}</style></defs><title>Asset 5</title><g id="Layer_2" data-name="Layer 2"><g id="NEW"><path class="cls-1" d="M538.73,7.85c-.45-.62-4.79-6-6.38-5.67-9.75-5.85-26.68.8-27.12,11.26,0,5.93,4.16,9.39,1.86,10.63-2.75,2.84-37,35.27-37,35.27l41.21,37.05.71,235.77h9.48s-.7-236.66-.7-238.7c.26-1.77-38.11-33.94-36.52-35.27,4.34-3.54,27.56-28.18,29.51-29.07,1.86,1.16,12.5,4.26,17.64,1.51C540.5,26.91,542.09,12.28,538.73,7.85ZM528.8,23.54c-6.11,4-15.06,1-16.39-6.47s5.05-12.85,12.23-11.43A9,9,0,0,1,530,8.92a10.11,10.11,0,0,1,2.31,2.48C535.27,15.65,532.88,20.88,528.8,23.54Z"/><path class="cls-1" d="M420.25,68.14c-2-2.66,4.78-4.69,3.72-11.52-.09-.44-.27-8.15-2.84-10.72-.35-.36-5.94-4.88-8.59-5.58-1.25-.36-8-1.78-13.48.53-2.74,1.15-7.71,5.23-10.19,11.34-2.57,6.29,3.46,14.89,4.35,16,5.84,7,15.95,4,17.45,4.34,3.64,2.93,44.14,38.56,44.14,38.56V409.28h9.48l.09-301.88C464.47,107.4,424.06,71.69,420.25,68.14Zm-10.37-2.92a7.5,7.5,0,0,1-2.4.18,3.7,3.7,0,0,1-2,.35,8,8,0,0,1-3.81-1.42l-1.06-.53a8.22,8.22,0,0,1-3.81-6.91v-.53a6.48,6.48,0,0,1,2.39-5.94,10.29,10.29,0,0,1,4.08-2.22,9.71,9.71,0,0,1,3.9-.53,9,9,0,0,1,3.54,1,8.58,8.58,0,0,1,5.32,6.29A8.28,8.28,0,0,1,409.88,65.22Z"/><path class="cls-2" d="M254.05,268.41,225,321.14c0,1.86.09,140.14.18,142.8,3.54,0,6.65-.45,10.19-.45.44-.62-.88-141.11-.88-141.11l24.81-43.87"/><path class="cls-3" d="M805,832.52l.24-20.16.29-14,50.7-29.6s1-30.84,0-32.08c-2-2.3-63.64-45.82-63.64-45.82V551.43l9.4.26L802.23,687l63.64,44.49v43l-51.49,29.07-.13,7.88-.14,20.67s10.1,7.36,11.34,12.68c-.08,3.54.09,6.56-.88,9.75.18,2.12-2.66,7.18-4.7,8-2,1.6-6.29,2.13-8.77,3.1-5.67.09-9.93-1.68-11.17-3.63-7.71-7-8-15.07-.8-24.81C800.37,835.44,805,832.52,805,832.52ZM800.82,855v.26a3.39,3.39,0,0,0,1.06,1.87h0a7,7,0,0,0,3.81,2.92.68.68,0,0,1,.36.09c3.63,1.68,8.5.09,11.25-2.66,3-3,3.19-7.62,1.24-11.26a11.3,11.3,0,0,0-8.95-6c-4.52-.18-8.42,3.81-9,8.15a9.16,9.16,0,0,0,0,2.22A6.9,6.9,0,0,0,800.82,855Z"/><path class="cls-4" d="M577.39,706.86c-.45-1.42-.62-48.81-.62-48.81h-9.93l.71,54.57,31.73,21.45-.45,31.72-26.58,15.33L534.4,750.28s-.79-46.08,0-46.7c4.61-2.84,11-6.91,10.82-12.85.17-2-.27-9.22-1.87-11.43-1.24-3.11-10.36-6.65-13.73-6.74-3.37.27-11.52,4.25-12.14,6-1.07,1.33-2.4,12-1.42,13.82-1.24,2.84,9,11.26,9,11.26l.18,51.22s44.93,37.84,46.08,37.49c.89,0,37.58-21.45,37.58-21.45V727.51S578.89,707.83,577.39,706.86Zm-47.24-9.13c-3.63.71-7.18-2.31-8.51-6-1.5-4.07-.18-9,3.9-10.9A10.21,10.21,0,0,1,538.92,685c2.48,4.43,1.33,10.28-3.63,12.32A9.43,9.43,0,0,1,530.15,697.73Z"/><path class="cls-4" d="M362.7,117.36c-.44-5.14-11.87-9.39-12.67-9-7.62.44-14.54,1-17.9,6.73-2.4,3.11-3.11,16.31.7,20.39.45.44,6.56,6.82,6.92,6.47,0,0,.26,47.59-1.07,52.55-2.48,2-28.18,42.1-28.18,42.1l-.71,38.11,13,24.81-.62,161.21h9.93L333,298.15l-12.94-24.28s.09-34.3,1.6-36.25c.44-.26,28.62-40.76,28.18-43.24-.8-4.52.44-51.41.44-51.41s9.93-5.67,10.82-7.09C364.12,131.1,363.41,119.13,362.7,117.36Zm-9.39,16.22a9.43,9.43,0,0,1-8.69,3,11,11,0,0,1-7.62-7c-2.3-6.47,2.13-17.81,10.63-14.62a4.17,4.17,0,0,1,1.42.8,9.4,9.4,0,0,1,4,1.5C358.8,121,357.56,129.15,353.31,133.58Z"/><path class="cls-3" d="M677.53,61.78A15.79,15.79,0,0,1,682.31,55c2.22-1.69,9.4-3.81,12.23-3.73,3.64.18,11,4.79,13.3,7.54s3.63,12.58,4.69,13.56c1.16.53,49.22,36.55,50,39.3,1.06,1.33-.18,355.23-.18,355.23h-10l-.17-353.1L706,79.77s-17.37,4.88-22,.45S674.78,68.34,677.53,61.78Zm8.68,10.46c3,2.92,7.27,4.87,11.43,3.37a10.14,10.14,0,0,0,6.38-9,8.91,8.91,0,0,0-6-8.95,11.13,11.13,0,0,0-10.37,1.68,9.24,9.24,0,0,0-2.57,2C682,64.71,683.11,69.23,686.21,72.24Z"/><path class="cls-3" d="M160,417.81c-7.62-.7-35.82-1-35.82-1l-36.34,33s-50.87,1.15-52.64.09c-2-3.9-5.49-8.87-9.66-10.46C19.12,437,13,437.31,7.69,441.57A19.63,19.63,0,0,0,.07,459.11C.86,464,4.41,469,10.17,469.57a31.43,31.43,0,0,0,16.22-.8c2.3.27,7.53-8.59,8.86-8.77,7.09-1.06,55.57-.53,57.87-.89,1.42.09,36.16-32.17,36.16-32.17l30.77.27C159.34,426,160.31,417.9,160,417.81ZM22.75,463.54c-4.07,1.87-9.66,1.6-13.11-1.41s-3.19-6.83-1.51-10.28a8.19,8.19,0,0,1,2.39-3.64c4.7-4.16,13.3-3.1,16.31,2.66A9.06,9.06,0,0,1,22.75,463.54Z"/><path class="cls-4" d="M210.37,100.38c5,3.37,8.51,12.23,4.52,22.24-.27,1.69-3.19,5-4.7,5.68-3.9,2.74-7.09.35-7.53,4.78-.35,3.1.18,50.07.18,50.07L172,224.9l.53,194.66s-7.89.53-10.37,0c.09-4.87,0-198.65,0-198.65l30.57-39.62.18-49.36s-6.82-5.76-7.35-7.27c-4.17-12.67-3.64-13.11,3-22.15,2.75-3.73,5.58-4.52,9.75-6C201.24,95.42,208.51,97.37,210.37,100.38ZM195,104.81a9.36,9.36,0,0,0-3.37,4,8,8,0,0,0-2,8,7,7,0,0,0,1.6,2.84,7.43,7.43,0,0,0,1.5,2.22,7.31,7.31,0,0,0,6.12,2.12,8.76,8.76,0,0,0,8.86-4.69,9.34,9.34,0,0,0,.09-9,10.83,10.83,0,0,0-.71-1.78,8.06,8.06,0,0,0-7.27-4.25A5.68,5.68,0,0,0,195,104.81Z"/><path class="cls-3" d="M452.71,820.22s2.13-167.07,1.15-170.17l-8.68.26c-1.16,1.33-1.95,165.21-1.95,165.21s-20.3,15.15-26.86,20.21c-1.59.7-.09,121.32-1.68,123.54-1.77,1-7.53,8-8.42,9.57-3.28,10,5.05,22.42,8.24,23,5.59.36,21.09.53,20.83-8.24,1.42-6.47.18-17.11-5.58-20.47a38.07,38.07,0,0,1-4.44-4.08L426,840.78Zm-21.8,156.86c0,3.46-1.78,6.74-5.41,7.18a8.29,8.29,0,0,1-2.57-.18,7.57,7.57,0,0,1-2.83.53h-.54c-4.43-.26-8.15-4.43-8.42-9-.26-4,1.95-8.15,6-9.21C423.73,964.67,430.82,970.35,430.91,977.08Z"/><path class="cls-2" d="M600.77,53.21c-1-1.77-5.22-3.55-7.35-3.72-4.79-.36-9.93-.53-10.19-.45-5.41,1.51-12.85,8.16-12.68,10.2-1.95,5.23-.44,18.61.36,19.4,2.21,4.79,10.37,6,10.9,10.2.8,3.81-.18,372.21-.18,372.21l10.64.09s.08-369.56.88-372.75c.18-1,12.06-7.26,11.79-9.48C607.15,73.06,606.09,59.06,600.77,53.21Zm-2.21,17.1a10.49,10.49,0,0,1-.71,1.78c-1.24,5-5.32,8.59-10.37,7.09a10.56,10.56,0,0,1-4.08-.45c-11.43-3.63-7.26-23.66,4.7-22.15a11.09,11.09,0,0,1,7.8,4.61A9.22,9.22,0,0,1,598.56,70.31Z"/><path class="cls-2" d="M195.67,692.76l-44,37-44.31-.18S104,719.35,98.63,717s-16.75-2.75-21.27.88c-6.3,5-7.54,20.3-2.66,27,4.25,5.85,18.52,6.56,24.64,2.93,1.86-1.06,7.53-7.09,7.53-7.09l48.74-.89,29.87-24.92M99.25,737.52c-1.6,4.61-6.83,7-11.44,6.2a13.15,13.15,0,0,1-7.62-4.61,7.77,7.77,0,0,1-2.12-3.36l-.27-1.07c-1-3.19-.53-6.64,2-9a10.6,10.6,0,0,1,12-1.15C97,726.62,101.2,732,99.25,737.52Z"/><path class="cls-4" d="M733.51,312.16l-5.5-4.87c-2.92-2.13-18.69-1.68-22.86.71-3.37,1.95-6.82,9.75-9.31,12.23-3.45.09-43.78-.71-43.78-.71s-44.75,47.41-47.14,53.53c-.09,1.51-.18,87.09-.18,87.09h11.79V373.76l41.38-44.67s37.05,1.06,37.93,1.15c1.6,1.42,7.27,11.17,10.37,12.59,3.28,1.5,10.82,1.68,14.27,1.06,2.84-.53,8.16-3.63,10.11-5.76,1.68-1.86,3-7,3.36-9.57C734.57,324,736,316.86,733.51,312.16Zm-7.36,19a9,9,0,0,1-6.64,4.25,10.88,10.88,0,0,1-5.76,1.42c-7.18-.18-12.06-7.62-10.2-14.44a11.75,11.75,0,0,1,12-8.42,5.9,5.9,0,0,1,3.54-.09,10.39,10.39,0,0,1,7.27,8A9.21,9.21,0,0,1,726.15,331.13Z"/><path class="cls-2" d="M844.42,331.1c5.94-1.24,12.94,2.66,15.78,9.92.8,1.69,46.79.09,55.3.18,2.66,0,46.09,32.88,46.09,32.88l-23.67,35.27s6.12,13.83,1.6,18.44c-3.64,3.81-10.11,8.86-15.78,7-7.62-2.57-11.52-8.33-13.2-15.69-1.15-4.87,2.48-7.88,5.23-10.9,2-2.3,5.14-3.37,8.06-4.34,1.24-.44,3.55.18,4.34-.71,6.92-7.44,18.62-27,18.62-27l-34.3-24.55s-49.81-.71-51.49.09c-2.31,7.8-8.25,12.67-14.8,12-7.8-.79-15.69-8.33-16.4-15.86C829.09,341.73,837.07,332.61,844.42,331.1Zm89.78,82.24a5.3,5.3,0,0,0-1.15-.71,6.4,6.4,0,0,0-4.17-2.48c-.26-.18-.62-.35-.88-.53-4-2-9.22-1.42-11.61,2.66a9.75,9.75,0,0,0-.89,7.53,8.63,8.63,0,0,0,2.57,7.45c4,3.9,11,5.14,15,.71C936.33,424.42,938.72,417,934.2,413.34Zm-97.13-64.16a8.82,8.82,0,0,0,2,5c4.43,5.14,13.2,3.1,14.71-3.54a9.38,9.38,0,0,0-2.93-9.13c-.17-.18-.35-.27-.53-.45a9.11,9.11,0,0,0-8.33-1.5,7.57,7.57,0,0,0-5.49,7A6.13,6.13,0,0,0,837.07,349.18Z"/><path class="cls-2" d="M664.41,948.68c-1.51-1.16-6.56-3.9-7.53-5.32,0-.23-.17-26.7-.27-52-.09-23.14-.17-185.26-.17-185.26s-37.05-29.69-38.2-30.58l-.36-27.51-10-1,.53,33,37.31,30.13s.19,159.77.39,181.19c.23,24.49.46,51.14.41,52.85-4.08,2.92-8.15,6.38-8.33,11.78-1.15,2.66,2,12.5,4.16,15.33,2.93,4,13.56,5.94,15.69,4.79,5.94-.89,10.46-6,10.28-11.79C669.46,961.17,666.8,950.45,664.41,948.68ZM662,963.3a8.24,8.24,0,0,1-5.94,5.23,1.62,1.62,0,0,1-.62.18,10.45,10.45,0,0,1-9.13-2.66,8.87,8.87,0,0,1-2.48-8.69c1.6-5,7.62-7.35,12.41-5.85A9.24,9.24,0,0,1,662,963.3Z"/><path class="cls-1" d="M966.54,596.76c-7.09-3.37-18.34,3.45-18.34,3.45l-17.73-13.64-1.06-75.51-8.74-11.95-8.25,4.76,7.15,10.55s.8,74.63,1,75.07c.62,1.06,19.14,15.15,20.65,17.19.79,1.86-.71,7.54.62,9-.18,5.59,4.43,7.89,7.53,11.52,1.68,2.57,15.95,4,18.79,3.11,8.33-2.57,10.54-10.91,12-19.24C981.34,603.76,972.92,599.77,966.54,596.76Zm4,25.61a12.06,12.06,0,0,1-9,3.28c-7.89-.09-15.86-7.45-11.52-15.69,4.17-8,16.93-8.86,21.09-.35a11.74,11.74,0,0,1,1.24,4.69A8.2,8.2,0,0,1,970.53,622.37Z"/><path class="cls-2" d="M432,271.85c-1-1.69-14.18-5-18.7-1.33-9.48,3.1-7.89,17.54-7.89,17.54s-37,46.89-41.89,48.84c-1.78,1.59-.89,122.11-2.4,128.84,1.6.09,10.9.45,10.9.45L373.2,343s36.49-45.2,38.44-47.15c2.39-.88,10.45,6,16.21,1.51C437.87,292.23,440.26,281.77,432,271.85Zm-4.79,18.87c-.17.09-.44.27-.62.36a5.1,5.1,0,0,1-3,1.24,14.54,14.54,0,0,1-4.43-.18,8.85,8.85,0,0,1-5.85-2.92,9.6,9.6,0,0,1-.35-11.88c5.22-6.82,18.52-4.87,19.23,4.61A10,10,0,0,1,427.23,290.72Z"/><path class="cls-1" d="M984.68,459.36c-1.42-7.44-8.77-12.76-15.77-11.43-8.78,1.68-15.6,9.84-14,17.28.53,2.57,1.51,3.9-.44,5-4.79,2.57-44.67,25.61-58.49,36.15H797.59c-.17,2.31.45,9.66.45,9.66s95.89-.17,99.88,0c1.59.45,42.18-26.41,61.68-36.77,3.1-1.69,5.76-2,8.6-.89,3.72,1.33,7,.35,10-1.42C984.33,473.37,986.28,467.78,984.68,459.36Zm-9.57,12.85a8.44,8.44,0,0,1-7.45-.08,9.81,9.81,0,0,1-7-4.35,9.37,9.37,0,0,1,2.75-12.32c5.76-3.81,14.54-.17,16.31,6.47A9.08,9.08,0,0,1,975.11,472.21Z"/><path class="cls-4" d="M171.43,341.84l-39-61.16s-1.15-4.07.45-6.55c2.3-3.64,2.12-8,1.68-12.23a17.59,17.59,0,0,0-13.2-13.3c-12.15,1.69-18.44,8-16.84,21.18-.45,1.16,2.39,8.25,5.4,10.2,1.07,2.3,6.38,4.16,8.69,3.81a32.36,32.36,0,0,1,6,.88s34.92,56.37,38.2,59.56c0,2.66-.35,69.51-.35,69.51h9Zm-60.18-71.61a9.13,9.13,0,0,1,.36-7.27h0a8.81,8.81,0,0,1,4.52-5.85c5.23-2.66,10.54,1.24,12.23,6.2a10,10,0,0,1-.8,8.16,6.48,6.48,0,0,1-.62,1.06,7.73,7.73,0,0,1-4.25,3.1,10.71,10.71,0,0,1-3.82.71A7.54,7.54,0,0,1,111.25,270.23Z"/><path class="cls-1" d="M683.07,845.82a19.81,19.81,0,0,1-1.42-14.8c.8-3.28,5.67-8.6,9.22-9.13,6.11-.8,7.35-.71,11.78.8,2.93.62,7.89,7.62,7.89,7.62l26,.18s12.85-24.11,13-24.82c-.36-.62-27.57-30.4-29.25-29.69-.71.09-13.47,4.43-15.69,1.78-3.63-.09-12.14-13.21-9-19.06.36-1.06,5.67-9.57,11.35-9.48,2-.53,11.34,1.06,12.4,2.66,2.4.35,6.3,13.82,6.56,15.33.27.26,35,37.13,35,37.13l-19.5,35.19-31,.53s-4.16,9.57-9.75,10.63C698.31,851.31,684.66,850.07,683.07,845.82Zm32.17-74.45a5.76,5.76,0,0,0,1.24-.7c4.7-3.28,3.9-9.58.8-13.65s-9-5.94-12.85-1.69a10.11,10.11,0,0,0-2.22,4.08,8.81,8.81,0,0,0-.62,1.33,6.83,6.83,0,0,0,.27,5.14,11.44,11.44,0,0,0,.44,1.77C704.34,772.88,710.81,775.72,715.24,771.37Zm-17.73,73.74c.27-.09.45-.09.71-.18a4.42,4.42,0,0,0,.89-.17c3.72-1,6-5,5.76-8.69-.44-6.91-9.13-12.5-15.42-8.6-5.14,3.19-5.23,11-.89,15A10.61,10.61,0,0,0,697.51,845.11Z"/><path class="cls-4" d="M687.48,133.56v192h-11s.8-183.39.36-189.59c0-.36-21.89-32-21.89-32L634.22,128.6l2.39,9s-.09,9.49-.62,11c-2,5.59-2.84,8.6-8.86,11.79-8.78,4.7-18.44-2.84-21.27-8.69-4-8.24,3.54-21.35,11.87-25.34a26.3,26.3,0,0,1,7.27-2l30.31-36Zm-68.86-.44a8.58,8.58,0,0,0-7,8.42,3.4,3.4,0,0,0,.18,1.33,1.1,1.1,0,0,1-.09.53,10.28,10.28,0,0,0,5,9,8.44,8.44,0,0,0,10.46-1.33,12.13,12.13,0,0,0,1.86-13A9.75,9.75,0,0,0,618.62,133.12Z"/><path class="cls-4" d="M549.83,970.37c-.54-3.81-11-8.42-12.68-8.51-1.86,0-11.7,2.22-11.7,2.22l-29.77-28.45.62-286H486.19V941s25.08,24,32.62,32c-1.51,5.76,1.33,10.37,4.69,14.18,1.25,2.57,6.74,5.5,9.49,5.59a37.22,37.22,0,0,0,8.24,0c6.29.17,11.26-7.8,10.9-14.54C552.66,977.11,550.18,971,549.83,970.37Zm-17.11,16.49a9.06,9.06,0,0,1-4.43-2.13,8.76,8.76,0,0,1-2.48-8.33c2.21-9.66,18.34-8.51,19.67,1.15C546.37,984.55,538.13,990,532.72,986.86Z"/><path class="cls-4" d="M276.56,795l1.06-142.94h-9.75l-2.22,140.37-36.6,38.81s.71,47.42-.88,51.5c-1.95,1.41-6.12,4.25-6.21,7.09-1.15,3.1-1.15,9.21-.62,12.67,1.42,8.06,6.29,10.37,14.09,10.63,6.83.27,12.5-4.16,13.92-12.23.62-1.5-.45-8.86-1.07-10.37-1.5-4.87-8.59-5.22-8.86-9-1.06-2.21.18-47.59.18-47.59Zm-35.63,97.66A8.89,8.89,0,0,1,244.3,900c-.18,5.76-5.5,8-10.11,6.64a8.56,8.56,0,0,1-7.35-5,8.16,8.16,0,0,1-.09-6.91.33.33,0,0,1,.09-.27,7.34,7.34,0,0,1,7.88-5.49A8.87,8.87,0,0,1,240.93,892.65Z"/><path class="cls-4" d="M97.79,530c-6.47.35-55.57,1-55.57,1L17.14,558.32s25.61,22.33,28.54,21.62c9.83-4.43,17.37-5.76,24.55.36,2,1.5,3.45,11.43,2.92,14.09-.53,3.81-6,9-7.09,9.83-.89,1.24-10.81,3.19-12.58,3.28a79.43,79.43,0,0,1-9.58-5.14c-1.68-1.33-3-11.87-3.45-13.38-5.67-3.72-35.81-30-35.81-30L37.7,522.16l60.62-.45C98.32,521.8,99.38,529.87,97.79,530Zm-49,65.22c2,5.76,8.95,6.47,13.56,3.46a9,9,0,0,0,4.43-6.74,8.36,8.36,0,0,0-3.63-7.44c-4.17-3.1-10.2-2.48-12.86,1.77a3.24,3.24,0,0,0-.44.62A10.23,10.23,0,0,0,48.78,595.18Z"/><path class="cls-1" d="M725.75,364.1c-2.66-4.52-9-5.94-10-6.21-5.31-1.24-13.73,5.32-15.42,10.37-3.1,4.7.36,15,2.31,15.95.88,1.6,4.87,3.73,4.87,3.73l-12.67,29.24H663a17,17,0,0,1-6.47-4.69c-4.61-4.26-10-2.22-14.36-1.33-1.15-.09-8.68,4.34-8.86,10.45-1.15,4.08,1.77,9.75,2.4,10.2,3.27,4.25,7.62,7.88,12.58,6.91s6.47-.62,10.9-7.09c.44-2.93,2.3-4.88,4.34-5.05,3-.27,38.11-.8,38.11-.8L718,390.06s7.18-4.78,7.62-6.82C726.19,381.56,730.36,371.9,725.75,364.1ZM645.1,432.78a7.49,7.49,0,0,1-5.94-7.71,6.61,6.61,0,0,1,3.28-7.36A8.65,8.65,0,0,1,648,417a15.59,15.59,0,0,1,2,.17,6.88,6.88,0,0,1,5.32,6.12,4.93,4.93,0,0,1,.18.62C656.62,429.86,650.59,433.93,645.1,432.78Zm69.57-50.34a8,8,0,0,1-5.94-2.3,5.41,5.41,0,0,1-2.57-5.05,7.8,7.8,0,0,1,1-6.21,8,8,0,0,1,5-3.45,8.37,8.37,0,0,1,8.68,1.95,6.76,6.76,0,0,1,2.13,4.25,8.85,8.85,0,0,1,.71,3.37C723.62,379.78,718.92,382.26,714.67,382.44Z"/><path class="cls-2" d="M383.31,877.77c-2.66-4.52-9-5.93-10-6.2-5.32-1.24-13.74,5.32-15.42,10.37-3.11,4.7.35,15,2.3,15.95.89,1.6,4.87,3.72,4.87,3.72l-12.67,29.25H320.57a17,17,0,0,1-6.47-4.7c-4.61-4.25-10-2.21-14.36-1.33-1.15-.09-8.69,4.35-8.86,10.46-1.16,4.08,1.77,9.75,2.39,10.19,3.28,4.26,7.62,7.89,12.58,6.92s6.47-.63,10.9-7.09c.45-2.93,2.31-4.88,4.35-5.06,3-.26,38.11-.79,38.11-.79l16.39-35.72s7.18-4.79,7.62-6.82C383.75,895.23,387.92,885.57,383.31,877.77Zm-80.65,68.69a7.49,7.49,0,0,1-5.93-7.71,6.61,6.61,0,0,1,3.27-7.36,8.76,8.76,0,0,1,5.59-.71,15.61,15.61,0,0,1,2,.18,6.87,6.87,0,0,1,5.31,6.11,5.74,5.74,0,0,1,.18.63C314.18,943.53,308.16,947.61,302.66,946.46Zm69.57-50.34a7.91,7.91,0,0,1-5.93-2.31,5.38,5.38,0,0,1-2.57-5,7.73,7.73,0,0,1,1-6.2,8.09,8.09,0,0,1,5-3.46,8.42,8.42,0,0,1,8.69,1.95,6.78,6.78,0,0,1,2.13,4.26,8.83,8.83,0,0,1,.7,3.36C381.18,893.46,376.49,895.94,372.23,896.12Z"/><path class="cls-4" d="M853.19,205.2c3.54,2.92,4.43,3.63,6.56,7.53,1.15,2.13,1,3.19.88,6.3.53,1.5-1.77,5.84-1.77,6.73-1,3.19-8.24,8.77-12,9.66-3.2-.18-6.65.09-9.31-1-2.92-1.16-4.34.44-4.34.44l-30.31,39.88.71,53.09s-12.41-.18-9.22-.54c-.35-1.24-.62-57.42-.62-57.42l31.46-42.37s2.48-5.05,2.57-8.42c.18-8.5,3.81-13.47,12-15.59C844.5,202.28,849,203.78,853.19,205.2Zm-12.76,4.17c-.18,0-.27.08-.45.08a9.75,9.75,0,0,0-2.74,1.24h0a5.44,5.44,0,0,0-1.07.89,2.64,2.64,0,0,0-.71.62c-6.73,6.83-.17,19.85,9.49,17.55,7.44-1.77,12.14-11.7,6.82-18C848.85,208.48,844.24,207.24,840.43,209.37Z"/><path class="cls-2" d="M160.43,822.42c1.51-5.06,6.82-8.78,11.87-10.11,6-.17,13.83,4.7,13.83,4.7l21.09-12.94V759.76l-33-36-.44-10.61h8.77l.71,6.71L217.15,757l.09,52.2c-9.13,5.41-18.17,12-27.3,17.46-.62,2-2.57,11.08-7.27,14.45-2,1.5-13.38,1.5-17.46-.89C159.54,836.86,158.74,828.09,160.43,822.42Zm8.77,13.91a7.35,7.35,0,0,0,8.24-.27,8.69,8.69,0,0,0,4.61-4,9.74,9.74,0,0,0-4.61-12.77,9.24,9.24,0,0,0-9.48,2.31,11.54,11.54,0,0,0-3.72,8.24A7.1,7.1,0,0,0,169.2,836.33Z"/><path class="cls-3" d="M453.49,673.84l-60.2,52.58-38-29.51V648.58l10.63.53v43.72s26.77,20.3,27.48,20.47c1.24-.53,50.76-44.38,51.83-45.53"/><path class="cls-2" d="M717.72,928.11s40.77-31.29,41.92-33.06c1.77,0,3.64-.53,5.14,0,5.76,1.86,19.15-7.71,19.23-12.23,1.16-4.43-2.39-15.33-5-16.75-3.19-1.77-12-3.46-15.6-2.39-.62.26-11.61,2.39-11.87,6.55-.45,2.66-1.42,11.44-.89,14.18.53,3.28-.62,4.79-.62,4.79l-36.51,29.69-62.66,1-.26,9Zm45-56.37a8.47,8.47,0,0,1,4.88-1,5.77,5.77,0,0,1,4.08,1,7.91,7.91,0,0,1,3.45,5.23,8.46,8.46,0,0,1-6.91,10.19A9.84,9.84,0,0,1,764,887a7.09,7.09,0,0,1-5.58-4.35l-.26-.53C756.54,878,759,873.69,762.74,871.74Z"/><path class="cls-2" d="M399.45,791.26c-1-5.32-6.83-7.09-11.35-7.71-3-.44-7.8,1.59-10.72,2-3-1-54.55-46.4-54.55-46.4l.17-96.43-10-12.71V744.51s55.44,46.66,56.77,50.38c.44.89,1.41,9.49,3.36,12.23,1.6,2.75,12,6.65,14.36,6.83,3.55-.09,10.72-2.22,11.52-5.94C401.31,802.51,402.19,796.75,399.45,791.26Zm-4.52,9.84a8.5,8.5,0,0,1-10.37,5.67,10.33,10.33,0,0,1-6-4.34,6.74,6.74,0,0,1-.8-4.26,7.23,7.23,0,0,1,.27-3.37,8.73,8.73,0,0,1,12.49-4.87A9.49,9.49,0,0,1,394.93,801.1Z"/><path class="cls-3" d="M551.6,819.18c-3.72,1.78-8.6,7.8-8.33,9.22-1.06,2.57.26,11.43,2.39,12.76,2.13,1.69,6,3.28,7.45,5.85.53,2.31.35,28.19.35,28.19l19.68,22.15s-1,13.74,6,18.88c4.88,3.37,18.44-.27,19.41-1.69,2.39-1.5,5.67-7.17,5.41-10.28-.36-3.63-1.78-10-5.85-13.56-3-4.25-16.31-2-18.35-2.48-3.45-1.5-17.63-18.34-17.63-18.34s-.89-22.78.26-23.49a19.22,19.22,0,0,0,9.13-15.6c.53-3.72-1.33-8.5-3.46-11-2.39-1.5-3.45-2.65-6.47-2.39A17,17,0,0,0,551.6,819.18ZM591,893.36a6.9,6.9,0,0,1,4.61,4.08,11,11,0,0,1,1.33,2.13c3.45,7.26-3.64,13.65-10.73,12.14a8.64,8.64,0,0,1-6.64-6.12c-1-3.36.44-6.82,2.66-9.21S587.85,892.57,591,893.36Zm-25-64.07a10,10,0,0,1,.35,2.3,8.38,8.38,0,0,1-12.85,7.62c-6.29-3.72-5.41-13.47,1.42-16C559.66,821.49,565.34,824.68,566,829.29Z"/><path class="cls-3" d="M352,45.59c-1.77-3.72-7.8-8.6-9.22-8.33-2.57-1.07-11.43.26-12.76,2.39-1.68,2.13-3.28,6-5.85,7.45-2.3.53-28.18.35-28.18.35L273.81,67.12s-13.73-1-18.87,6c-3.37,4.88.26,18.44,1.68,19.41C258.13,95,263.8,98.23,266.9,98c3.63-.36,10-1.78,13.56-5.85,4.25-3,2-16.31,2.48-18.35,1.51-3.45,18.35-17.63,18.35-17.63s22.77-.89,23.48.26a19.26,19.26,0,0,0,15.6,9.13c3.72.53,8.51-1.33,11-3.46,1.51-2.39,2.66-3.45,2.39-6.47A16.91,16.91,0,0,0,352,45.59ZM277.8,84.94a6.9,6.9,0,0,1-4.08,4.61,10.92,10.92,0,0,1-2.12,1.33c-7.27,3.45-13.65-3.64-12.14-10.73a8.64,8.64,0,0,1,6.11-6.64c3.37-1,6.82.44,9.22,2.65S278.6,81.84,277.8,84.94Zm64.08-25a10.05,10.05,0,0,1-2.31.35A8.38,8.38,0,0,1,332,47.45c3.72-6.29,13.47-5.41,15.95,1.42C349.68,53.65,346.48,59.33,341.88,60Z"/><path class="cls-2" d="M847.16,633.6c.8-1.42,5.85-6.47,6.38-6.56,1.16-1.42,8.51-2.39,14.27,0,3.19,2.57,6.38,4.25,7.8,9.39-.18,2.4,1,11.53-1.15,14.18a46.08,46.08,0,0,0-3.46,4.7l15,20.12s20.92,1.15,21.89-.27c1.6-2.21,9.4-9.57,20.3-6.82,8,3.37,10.9,14.89,10.63,16.57,1.24,7.18-11.61,13-18.61,12-3.72.79-12.85-9.4-12.32-11.26-.62-.27-25.88,0-25.88,0L860.9,657.79s-8.69-.17-12-6.38C844.59,645.65,845.48,640.6,847.16,633.6Zm69.31,54.77a9,9,0,0,0,7.89,3.54c7.53-.44,11.07-9.48,6.11-15.06-4.7-5.32-14.36-2.93-15.69,4.07A8.41,8.41,0,0,0,916.47,688.37Zm-60.36-40.59a8,8,0,0,0,7.71,2c3.46-1,5.68-4.61,6-8,.62-6.82-7.89-11.26-13-6.82a7.59,7.59,0,0,0-3.63,6A9.64,9.64,0,0,0,856.11,647.78Z"/><path class="cls-2" d="M109,401.53c1.42-.79,6.47-5.84,6.56-6.38,1.42-1.15,2.39-8.5,0-14.26-2.57-3.2-4.25-6.39-9.39-7.8-2.4.17-11.53-1-14.18,1.15a44.55,44.55,0,0,1-4.7,3.45l-20.12-15s-1.15-20.92.27-21.89c2.21-1.6,9.57-9.4,6.82-20.3-3.37-8-14.89-10.9-16.57-10.63-7.18-1.24-13,11.61-12,18.61-.79,3.72,9.4,12.85,11.26,12.32.26.62,0,25.88,0,25.88L84.83,387.8s.17,8.68,6.38,12C97,404.1,102,403.22,109,401.53Zm-54.77-69.3a9.07,9.07,0,1,1,11.52-14c5.32,4.69,2.93,14.35-4.07,15.68A8.4,8.4,0,0,1,54.25,332.23Zm40.59,60.35a8,8,0,0,1-2-7.71c1-3.45,4.61-5.67,8-6,6.82-.62,11.25,7.88,6.82,13a7.57,7.57,0,0,1-6,3.64A9.61,9.61,0,0,1,94.84,392.58Z"/><path class="cls-1" d="M363.15,263.11c-3-2.66-3.54-7.89-3.63-8.24-.09-.18-1.06-7.09-.09-8.86.18-.27,2.13-5.15,4.52-7.36.89-.8,4.08-3.1,4.52-3.37l-.09-10.72,23.84-24.46.09-16.22a9,9,0,0,1-2.48-1.6,18.82,18.82,0,0,1-1.95-3.28,12.62,12.62,0,0,1-1.33-6.91c1.95-9.84,3-13.2,14.62-13.2,4.08,0,8.87,8.77,8.69,11.61-.27,5-1.15,8-2.39,9.75-1.6,2.39-5.41,3.63-5.41,3.63l-.27,19.23s-2.39,2.48-3.63,3.63c-4.34,3.9-21.18,21.45-21.18,21.45s-.09,5.58.09,6.83c5,1,11.87,7.79,11.7,17.54-.18,7.54-8.33,14-15.6,14.54C373,266.92,366.79,266.3,363.15,263.11Zm39.26-85.43a7.55,7.55,0,0,0,2.22-4.88,6.19,6.19,0,0,0-1.24-7.18,7.25,7.25,0,0,0-8.15-.88c-4.79,2.48-5.41,9.39-1.42,12.94A6.21,6.21,0,0,0,402.41,177.68Zm-27.56,82c3.19-.62,5.76-3.54,6.56-6.64a11.91,11.91,0,0,0,.27-2.57,7.53,7.53,0,0,0-1.78-6.12,7.75,7.75,0,0,0-7.79-2.39c-4.17,1.15-6.65,5.85-6.39,10C366.08,256.46,370,260.63,374.85,259.65Z"/><path class="cls-3" d="M653.79,287.2c3-2.66,3.54-7.89,3.63-8.25.09-.17,1.07-7.09.09-8.86-.18-.27-2.13-5.14-4.52-7.36-.89-.79-4.08-3.1-4.52-3.36l.09-10.73-23.84-24.46L624.63,208a8.93,8.93,0,0,0,2.48-1.59,18.33,18.33,0,0,0,1.95-3.28,12.62,12.62,0,0,0,1.33-6.91c-1.95-9.84-3-13.21-14.62-13.21-4.08,0-8.86,8.78-8.69,11.61.27,5,1.16,8,2.4,9.75,1.59,2.39,5.4,3.63,5.4,3.63l.27,19.24s2.39,2.48,3.63,3.63c4.34,3.9,21.18,21.45,21.18,21.45s.09,5.58-.09,6.82c-5,1-11.87,7.8-11.69,17.55.17,7.53,8.33,14,15.59,14.53C644,291,650.15,290.39,653.79,287.2Zm-39.26-85.44a7.53,7.53,0,0,1-2.22-4.87,6.19,6.19,0,0,1,1.24-7.18,7.26,7.26,0,0,1,8.16-.89c4.78,2.48,5.4,9.4,1.41,12.94A6.2,6.2,0,0,1,614.53,201.76Zm27.56,82c-3.19-.62-5.76-3.55-6.56-6.65a11.85,11.85,0,0,1-.26-2.57,7.47,7.47,0,0,1,1.77-6.11,7.79,7.79,0,0,1,7.8-2.4c4.16,1.16,6.64,5.85,6.38,10C650.86,280.55,647,284.71,642.09,283.74Z"/><path class="cls-4" d="M786.34,130.05c-3.36,4.08-3.54,16.22-1.77,20.39,2,3,10.19,9.21,10.19,9.21L793.7,434l9.75-.54.09-273.67c1.33-1.51,9.48-6.29,10.81-15.77C817.19,129.79,799.9,118.62,786.34,130.05Zm16.49,21.72a3.33,3.33,0,0,1-.8.79c-5.49,4.79-10.19-1-11.52-6.2-.09-.27-.09-.44-.18-.71a14,14,0,0,1-1.15-5c-.18-5.32,3.55-8.78,8.42-8.33a10.92,10.92,0,0,1,4.16.26,9.24,9.24,0,0,1,7.09,8.6C808.94,145.3,806.55,150,802.83,151.77Z"/><path class="cls-2" d="M185.48,714.9c4.08-2.93,29.6-27.48,29.6-27.48l.8-144.75H206l-1.33,141.92s-23.84,21.09-25.25,22.6"/><path class="cls-4" d="M109.37,181c-5.05.44-9.66,8.95-10,14.53-.62,8.6,9.66,19.06,19.49,16.93,4.88-1.06,14.36-9.13,14.54-10.9l50.41.36v-5.14l4-4.44L133.57,192c-.36-1.51-5.5-8.16-10.37-10.37C120.63,180.52,112.74,179,109.37,181Zm11.52,6.47a8.22,8.22,0,0,1,4.88,3.1,7.4,7.4,0,0,1,1.15,5.05,4.17,4.17,0,0,1-.44,3.19,9.66,9.66,0,0,1-4.26,4l-1.06.53c-3.28,2.22-7.27,3.55-10.9,1.42a10.73,10.73,0,0,1-4.88-11.52c1-3.54,4.26-5.67,7.71-6.11a13,13,0,0,1,3.73,0A19.65,19.65,0,0,1,120.89,187.43Z"/><path class="cls-2" d="M104.67,487l-26.81-.89a62.82,62.82,0,0,0-4.79-6c-2.3-4.16-6.11-5.49-10.63-5.22-1.42-.09-2.93-.09-4.34-.18-6.92-.18-13.56,6.11-14.1,13.29a10.63,10.63,0,0,0-.44,5.23c1,3.46,1,6.47,3.28,8.24a29,29,0,0,0,14.8,5.05c8.06.36,12.58-3.28,16.22-9.92,6.11-.53,27.52.26,27.52.26ZM65.45,500.45a11.41,11.41,0,0,1-12.85-4.88,8.43,8.43,0,0,1-1.06-5.31A8.64,8.64,0,0,1,57.92,482c4.78-1.24,11.16.45,12.94,5.41C72.54,492.12,70.41,498.76,65.45,500.45Z"/><path class="cls-4" d="M330.56,830.55c-1.95-1.41-12.32-3-12.85-2.74-7.18-.09-14.63,6.47-19.59,10.63-3.46.09-61.09-.35-61.09-.35v8.59l61.09-.44s1.33,2.92,2,4.34c1.42,3,10.37,7.8,12.23,8,1.42-.09,2.83-.09,4.25-.18,1.86.53,11.43-2.3,12.5-4.52,1.5-2,2.92-2.66,3.9-5.94,1.5-.88,1-6.38,1.15-6.91C334.81,838.26,333.13,832.33,330.56,830.55Zm-7,20.83a10.27,10.27,0,0,1-9.74.53,8.91,8.91,0,0,1-6.56-5c-1.77-4.17.35-9.22,4.16-11.43,5.5-3.19,14.71-1.42,16.49,5.49A10,10,0,0,1,323.55,851.38Z"/><path class="cls-4" d="M919.1,281.35c-3.11-4-16.49-3.36-18.79-3.72-4.79,1.24-5.32.36-8.16,4.88-1.5,1.15-2.57,8-2.57,8l-90.89,1s.09,8.42.09,9.92c-.62.8,90.71.36,90.71.36s3.37,6,7.36,6.64c1.77,1.42,12.85,1.16,15-.26,5.23-2.57,6.82-4.79,7.89-6.74,1.68-3,3.1-7.88,3-8.77C922.2,288.35,921.13,284.19,919.1,281.35Zm-4.26,12.32a8.19,8.19,0,0,1-1.68,5.41c-3.81,5.4-12.32,6.11-16.22.26-3.81-5.67.18-13.91,6.73-15.06a9.75,9.75,0,0,1,10.11,4.43A8.32,8.32,0,0,1,914.84,293.67Z"/><path class="cls-2" d="M707,695.61c-.27.35-5,.62-5.85,1.42a33,33,0,0,0-5.41,5.49,9.08,9.08,0,0,0-1.86,4c-.36,2.66-.71,5.58.09,8.24,0,2,4,8.25,5.94,9.13,1.33,2.13,11,2.93,14.35,1.6,2.13.35,8.33-6.56,8.87-8.07,2.83-5.94,3.54-12.23-1-17.37-1-1.06-3.28-3.63-3.28-3.63l-.88-42s-7.27-.41-10.46-1C706.15,654.57,708.45,693.57,707,695.61Zm10.45,8.33c2.13,3.46,2.49,8.6.09,12a9.29,9.29,0,0,1-5.4,3.37,7.79,7.79,0,0,1-4.52.44c-6.83-1.32-8.07-9.12-4.7-14.26a11.41,11.41,0,0,1,6.29-5.06A7.28,7.28,0,0,1,717.49,703.94Z"/><path class="cls-1" d="M159.2,608.92,151.93,603S83.81,654.1,82.48,656.49c-1.86.18-12.49-1.77-15.68.89s-7.89,12-7.8,14c.62,4.17,4.43,11.52,8.68,12.59,2.31,1.51,9.93,2,11.7,1.15.53-.09,9.66-5.94,10.19-13a47.93,47.93,0,0,0-.53-7.18ZM83.37,674.75a8.94,8.94,0,0,1-11.25,5.94,10.68,10.68,0,0,1-5.32-4.34c-2-2.31-3-5.85-1.24-8.51a1.38,1.38,0,0,1,.35-.44,12.56,12.56,0,0,1,.62-1.6,8.45,8.45,0,0,1,9.22-4.52,8.84,8.84,0,0,1,3.19,1.51,7,7,0,0,1,3.19,2,7.71,7.71,0,0,1,1.6,7.71C83.64,673.16,83.55,674,83.37,674.75Z"/><path class="cls-2" d="M262.69,157.33a16.45,16.45,0,0,0-18.53-1.41c-3.63,2.12-5.14,5.31-5.93,8.86-1.51,7.27-1,11.43,4.43,16.57,1.5,1.42,6,3.64,6.2,5.59.89,9.12,1.06,91.54,1.06,91.54l9.31.09-.09-92.34s1.33-3.81,3.72-5.5C269.07,176.39,270.4,163.63,262.69,157.33ZM261,171.6a8.45,8.45,0,0,1-5.49,5.85.33.33,0,0,0-.27.09c-4.07,3.19-9.75.09-11.25-5a9.24,9.24,0,0,1,3.45-9.93c.18-.17.27-.44.45-.62a4,4,0,0,1,3.63-1.24,3.55,3.55,0,0,1,1-.09C258.34,160.08,262.51,166.11,261,171.6Z"/><polyline class="cls-1" points="151.93 602.98 151.93 550.82 160.2 550.82 159.2 608.92"/><path class="cls-4" d="M758.84,700s41.41,39.39,46,40c2.22-2.92,15.07-4.25,18.53-2.39,2.48.88,8.5,6.2,9.39,9.39,1.15,4.08,1.06,11.43-4.17,15.69a38.46,38.46,0,0,1-8.41,4c-4.17,1.33-7.09.26-11.08-1.6-5.76-2.21-7.45-9.13-8.42-14-1.33-1.77-49-43.73-49-43.73Zm50.63,57.65a5.89,5.89,0,0,0,7.45,4c4.25-.53,8.33-3.19,9.48-7.62a6,6,0,0,0,.18-2.74,7.1,7.1,0,0,0-1.16-4.52c-3.72-5.94-12.76-4.44-15.51,1.33a7.24,7.24,0,0,0-.62,1.41,8.46,8.46,0,0,0-.44,3.64A19.47,19.47,0,0,0,809.47,757.64Z"/><polyline class="cls-4" points="752.02 706.84 752.22 555.06 763.99 553.23 762.99 703.49"/><polygon class="cls-1" points="521.54 332.17 461.43 392.27 455.38 386.22 515.46 326.14 521.54 332.17"/><path class="cls-5" d="M857.77,578.57l-32.59-42h-8.54v42H704.31l-22.92-22.91v22.91H588.88L570.1,559.88v18.69H531.46V513.29H481.6v65.28H443V513.29h-29.5V502l-7.26-7.32h-24v83.92H253.82L225,549.7l-28.87,28.87H96.84V409.47h99.24l32.59,32.59V456h33.75v76.58l7.35,7.35h37.94V456H422.19L443,476.87v-67.4H481.6v65.18h49.86V409.47H570.1V456h81.38l26.41,26.52L704.3,456H778V409.47h38.63V498h8.54l32.59-42h49l-47.71,61.33,47.74,61.23ZM778,539.94V494.65H720.37L713,502v30.59l7.35,7.35Zm-135.25,0v-3.33H604.84l-1.67,1.68,1.65,1.65Zm-462.74,0,10-10v-71.8l-10-10H135.48v91.84ZM570.1,516.73,588.86,498h49.87l-3.32-3.32H570.1Z"/><path class="cls-6" d="M218.67,541.84l-26.73,26.73h-85.1V419.47h85.1l26.73,26.73Zm-93.19,8.1h58.68L200,534.07V454L184.16,438.1H125.48Z"/><path class="cls-6" d="M233.79,466h18.64v70.72l13.2,13.21h52.08V466h18.64V568.57H258L233.79,544.4Z"/><path class="cls-6" d="M442.1,503.29H423.46v-5.44l-13.1-13.2H372.23v83.92H353.6V466H418l24.07,24.18Z"/><path class="cls-6" d="M541.47,568.57V503.29H471.6v65.28H453V419.47H471.6v65.18h69.87V419.47H560.1v149.1Z"/><path class="cls-6" d="M671.4,568.57H593L568.83,544.5V532.15L593,508h59.75V497.85l-13.21-13.2H578.2V466h69.13l24.07,24.18Zm-82.33-30.24,11.61,11.61h52.08V526.61H600.68Z"/><path class="cls-6" d="M716.23,484.65,703,497.85v38.88l13.21,13.21h56.66v18.63H708.45L684.38,544.5V490.19L708.45,466h64.44v18.64Z"/><path class="cls-6" d="M830.07,508l32.6-42h23.64l-39.94,51.34,39.94,51.22H862.67l-32.6-42H806.64v42H788V419.47h18.64V508Z"/><path class="cls-1" d="M311.47,660.35,278.8,616.64v43.71H265.7V594.83h13.1l32.67,43.61V594.83h13v65.52Z"/><path class="cls-1" d="M333.83,660.35V594.83h55.6v13.1H346.94v13.2h39.21v13.1H346.94v13h42.49v13.11Z"/><path class="cls-1" d="M396.91,660.35V640.78l13.1-13.1-13.1-13.1V594.83H410V608l13,13.1h6.55L442.68,608v-13.2h13v19.75l-13,13.1,13,13.1v19.57h-13V647.24l-13.11-13H423l-13,13v13.11Z"/><path class="cls-1" d="M484.23,660.35V607.93H461.3v-13.1h58.77v13.1H497.33v52.42Z"/><path class="cls-1" d="M534.67,660.35l-6.46-6.46V601.48l6.46-6.65h45.86l6.46,6.65v13H574v-6.56H541.32v39.31H574V635.92H557.51V622.81H587v31.08l-6.46,6.46Z"/><path class="cls-1" d="M596.34,660.35V594.83h55.6v13.1H609.45v13.2h39.21v13.1H609.45v13h42.49v13.11Z"/><path class="cls-1" d="M706.12,660.35l-32.66-43.71v43.71h-13.1V594.83h13.1l32.66,43.61V594.83h13v65.52Z"/></g></g></svg>