<?xml version="1.0" encoding="utf-8"?>
<!-- Generator: Adobe Illustrator 22.1.0, SVG Export Plug-In . SVG Version: 6.00 Build 0)  -->
<svg version="1.1" id="Layer_1" xmlns="http://www.w3.org/2000/svg" xmlns:xlink="http://www.w3.org/1999/xlink" x="0px" y="0px"
	 viewBox="0 0 252.4 108.2" style="enable-background:new 0 0 252.4 108.2;" xml:space="preserve">
<style type="text/css">
	.st0{fill:#002F67;}
	.st1{fill-rule:evenodd;clip-rule:evenodd;fill:#FFFFFF;}
	.st2{fill:none;stroke:#FFFFFF;stroke-width:0.6;stroke-miterlimit:3.8637;}
	.st3{fill:#FFFFFF;stroke:#FFFFFF;stroke-width:0.6;stroke-miterlimit:3.8637;}
	.st4{fill:#FFFFFF;}
	.st5{fill:#FFFFFF;stroke:#FFFFFF;stroke-width:1.2;stroke-miterlimit:3.8637;}
	
		.st6{clip-path:url(#SVGID_2_);fill:none;stroke:#002F67;stroke-width:0.3826;stroke-linecap:round;stroke-linejoin:round;stroke-miterlimit:3.8637;}
	
		.st7{clip-path:url(#SVGID_2_);fill:#002F67;stroke:#002F67;stroke-width:8.480000e-02;stroke-linecap:round;stroke-linejoin:round;stroke-miterlimit:3.8637;}
	.st8{clip-path:url(#SVGID_2_);fill:none;stroke:#002F67;stroke-width:0.9;stroke-miterlimit:3.8637;}
	.st9{fill:none;stroke:#002F67;stroke-width:0.6122;stroke-linecap:round;stroke-linejoin:round;stroke-miterlimit:3.8637;}
	.st10{fill:#002F67;stroke:#002F67;stroke-width:0.312;stroke-miterlimit:3.8637;}
	
		.st11{fill:#002F67;stroke:#002F67;stroke-width:7.806100e-02;stroke-linecap:round;stroke-linejoin:round;stroke-miterlimit:3.8637;}
	
		.st12{fill-rule:evenodd;clip-rule:evenodd;fill:#002F67;stroke:#002F67;stroke-width:7.806100e-02;stroke-linecap:round;stroke-linejoin:round;stroke-miterlimit:3.8637;}
	.st13{fill:none;stroke:#002F67;stroke-width:0.2295;stroke-linecap:round;stroke-linejoin:round;stroke-miterlimit:3.8637;}
	.st14{fill:none;stroke:#002F67;stroke-width:0.2294;stroke-linecap:round;stroke-linejoin:round;stroke-miterlimit:3.8637;}
	.st15{fill:#FFFFFF;stroke:#002F67;stroke-width:0.2294;stroke-linecap:round;stroke-linejoin:round;stroke-miterlimit:3.8637;}
	.st16{fill:none;stroke:#002F67;stroke-width:0.1151;stroke-linecap:round;stroke-linejoin:round;stroke-miterlimit:3.8637;}
	.st17{fill:none;stroke:#002F67;stroke-width:0.1417;stroke-linecap:round;stroke-linejoin:round;stroke-miterlimit:3.8637;}
	
		.st18{fill-rule:evenodd;clip-rule:evenodd;fill:#002F67;stroke:#002F67;stroke-width:0.1151;stroke-linecap:round;stroke-linejoin:round;stroke-miterlimit:3.8637;}
	.st19{fill:#FFFFFF;stroke:#002F67;stroke-width:0.2295;stroke-linecap:round;stroke-linejoin:round;stroke-miterlimit:3.8637;}
	.st20{fill:#002F67;stroke:#002F67;stroke-width:0.1151;stroke-linecap:round;stroke-linejoin:round;stroke-miterlimit:3.8637;}
	.st21{fill:none;stroke:#002F67;stroke-width:0.26;stroke-linecap:round;stroke-linejoin:round;stroke-miterlimit:3.8637;}
	.st22{fill:none;stroke:#002F67;stroke-width:0.1328;stroke-linecap:round;stroke-linejoin:round;stroke-miterlimit:3.8637;}
	.st23{fill:#002F67;stroke:#002F67;stroke-width:0.1328;stroke-linecap:round;stroke-linejoin:round;stroke-miterlimit:3.8637;}
	.st24{fill:none;stroke:#002F67;stroke-width:8.478100e-02;stroke-linecap:round;stroke-linejoin:round;stroke-miterlimit:3.8637;}
	.st25{fill:none;stroke:#002F67;stroke-width:7.806100e-02;stroke-linecap:round;stroke-linejoin:round;stroke-miterlimit:3.8637;}
	.st26{fill:none;stroke:#002F67;stroke-width:0.1529;stroke-linecap:round;stroke-linejoin:round;stroke-miterlimit:3.8637;}
	
		.st27{fill:#002F67;stroke:#002F67;stroke-width:8.478100e-02;stroke-linecap:round;stroke-linejoin:round;stroke-miterlimit:3.8637;}
	.st28{fill:none;stroke:#002F67;stroke-width:8.856100e-02;stroke-linecap:round;stroke-linejoin:round;stroke-miterlimit:3.8637;}
	
		.st29{fill-rule:evenodd;clip-rule:evenodd;fill:#FFFFFF;stroke:#002F67;stroke-width:0.2294;stroke-linecap:round;stroke-linejoin:round;stroke-miterlimit:3.8637;}
	.st30{fill:#002F67;stroke:#002F67;stroke-width:0.324;stroke-miterlimit:3.8637;}
	.st31{fill:#FFFFFF;stroke:#002F67;stroke-width:0.378;stroke-linecap:round;stroke-linejoin:round;stroke-miterlimit:3.8637;}
	
		.st32{fill:#002F67;stroke:#002F67;stroke-width:8.480000e-02;stroke-linecap:round;stroke-linejoin:round;stroke-miterlimit:3.8637;}
	
		.st33{fill-rule:evenodd;clip-rule:evenodd;fill:#002F67;stroke:#002F67;stroke-width:8.480000e-02;stroke-linecap:round;stroke-linejoin:round;stroke-miterlimit:3.8637;}
	.st34{fill:none;stroke:#002F67;stroke-width:0.6122;stroke-linecap:round;stroke-miterlimit:3.8637;}
</style>
<g>
	<path class="st0" d="M0.9,61.9c-1-27.4,54.2-51.5,123.3-53.9C193.2,5.7,250,25.9,251,53.3c1,27.4-54.2,51.5-123.3,53.9
		C58.6,109.5,1.8,89.3,0.9,61.9L0.9,61.9z"/>
	<path class="st1" d="M33.2,59.2h7.4c8.3,0,15.7-2.6,15.7-12.6c0-10-7.3-12.6-15.7-12.6h-7.4V59.2L33.2,59.2z M38.6,38h3
		c4.5,0,8.9,3.1,8.9,8.6c0,5.5-4.4,8.6-8.9,8.6h-3V38L38.6,38z"/>
	<path class="st2" d="M33.2,59.2h7.4c8.3,0,15.7-2.6,15.7-12.6c0-10-7.3-12.6-15.7-12.6h-7.4V59.2L33.2,59.2z M38.6,38h3
		c4.5,0,8.9,3.1,8.9,8.6c0,5.5-4.4,8.6-8.9,8.6h-3V38L38.6,38z"/>
	<path class="st3" d="M78.4,40.6h-5.2v9.1c0,2.4-0.8,6.2-4.6,6.2c-3.3,0-3.4-3.1-3.4-5.3v-9.9H60v11.7c0,4.2,2.1,7.3,6.8,7.3
		c2.7,0,5-1.2,6.6-3h0.1v2.5h4.9V40.6L78.4,40.6z"/>
	<path class="st3" d="M82.7,59.2h5.2v-6.8c0-2.7,0-7.6,4.2-7.6c0.9,0,1.9,0.1,2.3,0.4v-4.9c-0.5-0.1-1.1-0.1-1.6-0.1
		c-3.1,0-5.2,2.9-5.5,4.6h-0.1v-4.2h-4.6V59.2L82.7,59.2z"/>
	<path class="st3" d="M98.3,59.2h5.2v-9.1c0-2.4,0.8-6.2,4.6-6.2c3.3,0,3.4,3.1,3.4,5.3v9.9h5.2V47.5c0-4.2-2.1-7.3-6.8-7.3
		c-2.7,0-5,1.2-6.3,3h-0.1v-11h-5.2V59.2L98.3,59.2z"/>
	<path class="st1" d="M122.3,45.7c1.8-1.2,4-2,6.2-2c3.1,0,4.5,1,4.5,4h-2.9c-2.2,0-4.7,0.2-6.7,1.1c-2,0.9-3.4,2.5-3.4,5.3
		c0,3.5,3.5,5.5,7,5.5c2.4,0,5-1.2,6.2-3.2h0.1c0,0.6,0,1.8,0.2,2.8h4.6c-0.1-1.4-0.2-2.7-0.2-4.1c0-1.4-0.1-2.8-0.1-4.6V48
		c0-5.5-2.5-7.8-8.6-7.8c-2.2,0-4.9,0.5-7,1.4L122.3,45.7L122.3,45.7z M124.9,53.8c0-2.8,3.5-3.2,5.8-3.2h2.3c0,1.4-0.2,2.8-1.1,3.8
		c-0.8,1-2.1,1.7-3.7,1.7C126.4,56.1,124.9,55.4,124.9,53.8L124.9,53.8z"/>
	<path class="st2" d="M122.3,45.7c1.8-1.2,4-2,6.2-2c3.1,0,4.5,1,4.5,4h-2.9c-2.2,0-4.7,0.2-6.7,1.1c-2,0.9-3.4,2.5-3.4,5.3
		c0,3.5,3.5,5.5,7,5.5c2.4,0,5-1.2,6.2-3.2h0.1c0,0.6,0,1.8,0.2,2.8h4.6c-0.1-1.4-0.2-2.7-0.2-4.1c0-1.4-0.1-2.8-0.1-4.6V48
		c0-5.5-2.5-7.8-8.6-7.8c-2.2,0-4.9,0.5-7,1.4L122.3,45.7L122.3,45.7z M124.9,53.8c0-2.8,3.5-3.2,5.8-3.2h2.3c0,1.4-0.2,2.8-1.1,3.8
		c-0.8,1-2.1,1.7-3.7,1.7C126.4,56.1,124.9,55.4,124.9,53.8L124.9,53.8z"/>
	<path class="st3" d="M142.3,59.2h5.2v-9c0-2.4,0.4-6.2,3.9-6.2c3,0,3,2.4,3,4.2v11.1h5.2v-9c0-2.4,0.4-6.2,3.9-6.2c3,0,3,2.4,3,4.2
		v11.1h5.2V47.5c0-4.1-1.4-7.3-6.3-7.3c-2.4,0-5.1,1-6.3,3.3c-1.1-2.3-3.1-3.3-5.9-3.3c-1.9,0-4.3,0.8-5.9,3h-0.1v-2.6h-4.9V59.2
		L142.3,59.2z"/>
	<path class="st4" d="M43,66.4c-1.1-0.5-2.2-0.6-3.4-0.6c-4.6,0-8,3.1-8,7.7c0,4.8,3.2,7.9,7.9,7.9c0.9,0,2.3-0.1,3.4-0.5l-0.1-2.1
		c-0.8,0.5-2.2,0.7-3.3,0.7c-3.1,0-5.7-2.4-5.7-5.9c0-3.4,2.3-5.9,5.8-5.9c1.1,0,2.2,0.3,3.1,0.8L43,66.4L43,66.4z"/>
	<path class="st1" d="M44,75.5c0,3.2,2.3,5.8,5.6,5.8c3.3,0,5.6-2.6,5.6-5.8c0-3.3-2.2-5.8-5.6-5.8C46.2,69.8,44,72.2,44,75.5
		L44,75.5z M46.1,75.5c0-2.1,1.3-4.1,3.5-4.1c2.2,0,3.4,2,3.4,4.1c0,2-1.1,4.1-3.4,4.1C47.2,79.7,46.1,77.5,46.1,75.5L46.1,75.5z"/>
	<path class="st4" d="M66.3,70h-2v5.1c0,2.7-1,4.5-3.3,4.5c-1.8-0.1-2.3-1.4-2.3-3.9V70h-2v6.5c0,3,1.3,4.7,4.1,4.7
		c1.5,0,3-0.8,3.6-2h0v1.7h2V70L66.3,70z"/>
	<path class="st4" d="M68.7,81.1h2V76c0-2.7,1-4.5,3.3-4.5c1.8,0.1,2.3,1.4,2.3,3.9v5.7h2v-6.5c0-3-1.3-4.7-4.1-4.7
		c-1.5,0-3,0.8-3.6,2h0V70h-2V81.1L68.7,81.1z"/>
	<path class="st4" d="M87,70h-2.9v-3.2l-2,0.6V70h-2.5v1.6H82v6.4c0,2.2,1.3,3.2,3.4,3.2c0.6,0,1.3-0.2,1.7-0.3v-1.7
		c-0.3,0.2-0.8,0.4-1.4,0.4c-0.9,0-1.7-0.7-1.7-2v-6H87V70L87,70z"/>
	<path class="st4" d="M89,85.7c0.4,0.1,0.7,0.2,1.4,0.2c2.7,0,3.5-2.4,4.2-4.6L98.7,70h-2.1l-3,9.1h0l-3-9.1h-2.2l3.7,10.3
		c0.1,0.4,0.4,0.9,0.4,1.2c0,0.2-0.6,2.7-2.4,2.7c-0.3,0-0.7-0.1-1-0.2L89,85.7L89,85.7z"/>
	<path class="st4" d="M116.8,66.4c-1.1-0.5-2.2-0.6-3.4-0.6c-4.6,0-8,3.1-8,7.7c0,4.8,3.2,7.9,7.9,7.9c0.9,0,2.3-0.1,3.4-0.5
		l-0.1-2.1c-0.8,0.5-2.2,0.7-3.3,0.7c-3.1,0-5.7-2.4-5.7-5.9c0-3.4,2.3-5.9,5.8-5.9c1.1,0,2.2,0.3,3.1,0.8L116.8,66.4L116.8,66.4z"
		/>
	<path class="st1" d="M117.7,75.5c0,3.2,2.3,5.8,5.6,5.8c3.3,0,5.6-2.6,5.6-5.8c0-3.3-2.2-5.8-5.6-5.8
		C120,69.8,117.7,72.2,117.7,75.5L117.7,75.5z M119.9,75.5c0-2.1,1.3-4.1,3.5-4.1c2.2,0,3.4,2,3.4,4.1c0,2-1.1,4.1-3.4,4.1
		C121,79.7,119.9,77.5,119.9,75.5L119.9,75.5z"/>
	<path class="st4" d="M140.3,70h-2v5.1c0,2.7-1,4.5-3.3,4.5c-1.8-0.1-2.3-1.4-2.3-3.9V70h-2v6.5c0,3,1.3,4.7,4.1,4.7
		c1.5,0,3-0.8,3.6-2h0v1.7h2V70L140.3,70z"/>
	<path class="st4" d="M142.5,81.1h2V76c0-2.7,1-4.5,3.3-4.5c1.8,0.1,2.3,1.4,2.3,3.9v5.7h2v-6.5c0-3-1.3-4.7-4.1-4.7
		c-1.5,0-3,0.8-3.6,2h0V70h-2V81.1L142.5,81.1z"/>
	<path class="st4" d="M162.1,70.2c-0.6-0.2-1.6-0.4-2.5-0.4c-3.4,0-5.6,2.4-5.6,5.8c0,3.2,2.3,5.8,5.6,5.8c0.7,0,1.7-0.1,2.5-0.5
		L162,79c-0.6,0.4-1.5,0.6-2.2,0.6c-2.6,0-3.7-2.2-3.7-4.1c0-2.1,1.3-4.1,3.5-4.1c0.6,0,1.4,0.2,2.2,0.5L162.1,70.2L162.1,70.2z"/>
	<path class="st1" d="M164.6,81.1h2V70h-2V81.1L164.6,81.1z M166.8,65.3h-2.3v2.3h2.3V65.3L166.8,65.3z"/>
	<polygon class="st4" points="169.3,81.1 171.3,81.1 171.3,64.9 169.3,64.9 169.3,81.1 	"/>
	<path class="st5" d="M233.8,12.8c0.3,0.9,0.6,1.6,0.6,1.7c0.1,0.2,0.1,0.5,0,0.7l-3.2,8.1c-0.2,0.6,0.1,1.1,0.7,1.1h7.7
		c0.5,0,0.9,0.4,0.9,0.9c-0.3,8.3-0.8,26.9-0.8,26.9c-0.1,5.2-1.8,12.7-1.8,12.7c-1.4,5.3-3,9.4-4.4,12.3c-1.4,2.9-2.5,4.6-2.9,5.3
		c-4.2,6.9-11.9,14.2-20.9,19.1c-0.2,0.1-0.6,0.1-0.9,0c-8.8-4.7-15-11.3-19.1-17.1c-3.5-5.1-6.9-11.2-9-19.5
		c-0.9-3-1.4-6.1-1.7-8.5c-0.3-2.5-0.4-4.1-0.4-4.1c-0.2-6-0.9-25.6-0.9-27.1c0-0.5,0.4-0.9,0.9-0.9h8c0.6,0,1-0.5,0.7-1.1l-3.5-8.1
		c-0.1-0.2-0.1-0.4,0-0.6c0.4-1.2,0.6-2.2,0.7-2.9c0-0.1-0.1-0.6-0.2-0.7c-0.6-0.6-0.8-1.5-0.4-2.3c0-0.1,0.1-0.1,0.2-0.2l0.2-0.2
		c2.1-1.3,3.7-2,3.9-2.1l0.2-0.1c0.7-0.2,1.2-0.1,1.5,0c0.4,0.1,0.8-0.1,0.9-0.5c0.1-0.3,0.3-0.5,0.5-0.8c0,0,0.1,0,0.1-0.1
		c0.1,0,0.1-0.1,0.1-0.1c1.6-0.7,6.4-2,7.2-2.2c2-0.6,3.1,1.1,2.4,2.7c0,0-0.1,0.4-0.1,0.4l0.6,1.4c0.2,1,1.3,0.2,1.3,0.2
		c0-0.1,0-0.1,0-0.1c0.3-0.8,0.6-1.5,0.8-2c0-0.1,0-0.6-0.1-0.7c-0.7-1.1-0.5-2.2,0.7-2.7l0.2,0c1.6-0.3,6.7-0.3,9.2-0.1
		c0.1,0,0.1,0.1,0.2,0.1l0.2,0.1c1,0.7,1.3,1.9,0.6,2.7c-0.1,0.1-0.2,0.6-0.1,0.8l0.2,0.5c0.2,0.3,0.3,0.6,0.4,0.9
		c0.1,0.3,0.2,0.5,0.3,0.6c0.3,0.9,1.3,0.9,1.5-0.1l0.2-1.4c0-0.1-0.1-0.5-0.1-0.6c-0.4-0.7-0.4-1.4,0-2c0.5-0.6,1.4-1,2.2-0.8
		c1.9,0.4,6.4,1.8,7.3,2.3c0,0,0.1,0.1,0.1,0.1c0.1,0,0.1,0.1,0.1,0.1c0.2,0.2,0.3,0.4,0.4,0.7c0.2,0.4,0.6,0.6,1,0.4
		c0.3-0.1,0.7-0.2,1.3,0l0.2,0.1c0.4,0.2,1.3,0.7,2.2,1.2c0.7,0.4,1.4,0.8,1.6,0.9l0.2,0.1c0.8,0.8,0.7,2.1-0.1,2.8
		c-0.2,0.1-0.3,0.6-0.2,0.8C233.6,12.1,233.7,12.4,233.8,12.8L233.8,12.8z"/>
	<g>
		<defs>
			<path id="SVGID_1_" d="M229.4,25.1c6.5,0,10.1,0,10.1,0c-0.3,8.3-0.8,26.9-0.8,26.9c-0.1,5.1-1.8,12.5-1.8,12.5
				c-2.7,10.5-6.4,16.1-7.2,17.3c-4.1,6.8-11.6,14-20.5,18.8c-8.7-4.6-14.8-11.1-18.8-16.8c-3.4-5.1-6.8-11-8.9-19.2
				c-1.7-5.9-2-12.4-2-12.4c-0.2-6-0.9-25.6-0.9-27.1c0.4,0,5.6,0,10.5,0l-4.5-10.5c0.7-2.3,0.9-4.2,0.9-4.2c-1-0.3-1.1-1-0.9-1.6
				c2.1-1.3,3.8-2,3.8-2c1.6-0.4,1.6,1.1,1.2,1.7c0,0.4,1.9,6,1.9,6l1.2-0.4l-1.1-3.3c0.6-2.3,0.7-3.7,0.7-3.7
				c-0.8,0-1.4-0.9-0.5-1.8c1.6-0.6,6.4-2,7-2.1c1.3-0.4,1.9,0.9,1.1,1.8c0.1,0.4,1.1,6.7,1.1,6.7l2.9-0.5l-0.3-4
				c0.6-1.3,1-2.4,1.1-2.9c-1-0.7-0.8-1.6-0.1-1.8c1.4-0.2,6.5-0.2,9-0.1c0.8,0.6,0.8,1.4-0.2,1.9c0.1,0.8,1.3,2.9,1.3,3.2
				c-0.1,0.2-0.4,3.8-0.4,3.8l2.8,0.4l1.1-6.6c-1.2-1-0.1-2.1,0.9-1.8c1.8,0.4,6.3,1.8,7.1,2.2c0.5,0.6,0.6,1.5-0.9,1.7
				c0,0.3,1.1,3.5,1.1,3.5l-1.1,3.5l1,0.5l2.3-6.2c-0.7-0.7-0.1-1.9,0.9-1.7c0.6,0.3,3.7,2,3.7,2c0.6,0.6,0.1,1.8-0.9,1.6
				c-0.1,0.8,1.2,4.3,1.2,4.3L229.4,25.1L229.4,25.1z"/>
		</defs>
		<use xlink:href="#SVGID_1_"  style="overflow:visible;fill:#E39717;"/>
		<clipPath id="SVGID_2_">
			<use xlink:href="#SVGID_1_"  style="overflow:visible;"/>
		</clipPath>
		<path class="st6" d="M229.6,6.9c0.4,0.5,0.2,1.6-0.2,1.8c0,1.2,0.8,3.8,0.8,3.8l-1.4,3.3 M198.8,3.3c-0.2,0.7,0.2,1.5,0.6,1.8
			c0,1.1-0.9,3.1-1,3.2c0,0.2,0.9,3.8,0.9,3.8 M191.9,10.5c2.5-1.1,4.2-1.7,6.4-2.1 M233.5,14.6c-1.1-0.7-1.5-1.1-3.3-2 M219.3,3.3
			c0.4,0.8,0.2,1.6-0.3,1.8c0.4,1.4,0.9,2.5,1.3,3.4c0,0.2-1,3.8-1,3.8 M226.6,10.7c-2.5-1.1-4-1.7-6.2-2.2 M188.4,6.9
			c-0.4,0.5,0.2,1.4,0.6,1.6c0,1.4-0.9,3.9-0.9,3.9l1.4,3.3 M184.8,14.3c1.1-0.7,1.4-0.9,3.1-1.9 M203.8,7.3
			c3.3-0.5,8.3-0.4,10.8,0.1 M186.1,17.7c12.6-8.3,31.3-9.5,46.3,0.1 M187.4,21.1c13.5-7.4,29-7.7,43.5,0.2 M202.8,20.3
			c-1.8,0.9,1.7,2.7,1.7,2.7 M215.2,20.4c1.8,0.9-1.6,2.6-1.6,2.6"/>
		<polygon class="st7" points="232.1,13.9 232.3,14.1 231.1,16.9 230.8,16.7 232.1,13.9 		"/>
		<polygon class="st7" points="229.1,20.7 229.5,20.8 228,24 227.7,23.8 229.1,20.7 		"/>
		<path class="st6" d="M185.8,13.7l1.5,3.2 M194.8,9.5l1,3.6 M191.1,15l1.3,3.8 M188.7,20.4l1.6,3.8 M197,17.2l1.1,4.1 M201.5,11.8
			l0.5,4.3 M223.6,9.5l-1.1,3.6 M227.2,15.1l-1.3,3.8 M221.3,17.4l-1,3.9 M216.8,11.7L216,16 M209.2,7v4 M209.2,15.5l0,4.4
			 M189.1,24.9c12.8-6.7,27-6.6,40.1,0 M224.7,22.8c1.6,1.1-2.1,2.3-2.1,2.3 M193.6,22.8c-1.2,1.2,2.3,2.2,2.3,2.2"/>
		<path class="st7" d="M196,25c4.2-2.4,16.5-3.7,26.5,0c-0.5,0-3.7,0.1-3.7,0.1c0.7-2.4-19.2-3.3-18.8-0.1C199.4,25.2,196,25,196,25
			L196,25z"/>
		<path class="st8" d="M192.4,7.3c2.5-1.1,4.8-1.7,7-2.1 M232.6,10.7c-1.1-0.7-1.5-1.1-3.3-2 M225.9,7.3c-2.5-1.1-4.5-1.8-6.7-2.3
			 M185.7,10.4c1.1-0.7,1.4-0.9,3.1-1.9 M203.8,4.3c3.3-0.5,8.3-0.4,10.8,0.1"/>
		
			<use xlink:href="#SVGID_1_"  style="overflow:visible;fill:none;stroke:#002F67;stroke-width:0.1151;stroke-linecap:round;stroke-linejoin:round;stroke-miterlimit:3.8637;"/>
	</g>
	<path class="st9" d="M184.7,14.7c0.7-2.3,0.9-4.2,0.9-4.2c-1-0.3-1.1-1-0.9-1.6c2.1-1.3,3.8-2,3.8-2c1.6-0.4,1.6,1.1,1.2,1.7
		c0,0.4,1.9,6,1.9,6l1.2-0.4l-1.1-3.3c0.6-2.3,0.7-3.7,0.7-3.7c-0.8,0-1.4-0.9-0.5-1.8c1.6-0.6,6.4-2,7-2.1c1.3-0.4,1.9,0.9,1.1,1.8
		c0.1,0.4,1.1,6.7,1.1,6.7l2.9-0.5l-0.3-4c0.6-1.3,1-2.4,1.1-2.9c-1-0.7-0.8-1.6-0.1-1.8c1.4-0.2,6.5-0.2,9-0.1
		c0.8,0.6,0.8,1.4-0.2,1.9c0.1,0.8,1.3,2.9,1.3,3.2c-0.1,0.2-0.3,3.8-0.3,3.8l2.8,0.4l1.2-6.6c-1.2-1-0.1-2.1,0.9-1.8
		c1.8,0.4,6.3,1.8,7.1,2.2c0.5,0.6,0.6,1.5-0.9,1.7c0,0.3,1.1,3.5,1.1,3.5l-1.1,3.5l1,0.5l2.3-6.2c-0.7-0.7-0.1-1.9,0.9-1.7
		c0.6,0.3,3.7,2,3.7,2c0.6,0.6,0.1,1.8-0.9,1.6c-0.1,0.8,1.2,4.3,1.2,4.3L229.3,25h-40.1L184.7,14.7L184.7,14.7z"/>
	<path class="st10" d="M215.3,52.2V25.1c13.3,0,24.2,0,24.2,0c-0.3,8.3-0.9,27.1-0.9,27.1H215.3L215.3,52.2z"/>
	<path class="st4" d="M230.4,26c0.7,0.3,0.9,1,0.8,1.6c0.4-0.2,0.8-0.4,2.1-0.5c0,0.8-0.1,1.2-0.1,1.8c0.4,0.2,0.9,0.1,1.4,0.9
		c-0.5,0.4-1,0.2-1.9,0.8c0.6,0.8,0.2,2-0.6,2c0.1,1.4-0.2,2.6-0.9,3.1c-0.2-0.2-0.3-0.7-0.3-0.7c-0.3,1.3-0.4,1.5-1.5,2.8
		c1,1.6,3.4,5.1,5.7,5.1c1.4-0.2,2.2-1.4,1.5-2.3c-0.5-0.6-1.2-0.5-1.9,0.3c-0.3,0-0.5-0.4-0.5-0.5c-0.5-0.2-0.5-0.9-0.1-1.4
		c-0.7-0.3-1.6-1-1.3-1.5c-0.3-0.6-0.8-0.8-0.7-1c0.4-0.5,1.5-0.5,2-0.2c-0.1-0.8-0.8-0.6-1-2.8c0-0.8,0.2-1.4,0.7-2
		c0.6-0.6,3.1-1.9,2.5-3c0.8-0.3,0.9,0.6,0.9,1.1c0.1-0.1,0.2-0.2,0.3-0.2c0.3,0.5,0.6,1.7-0.7,2.7c0.8,0.5,0.9,1.7,0.5,2.1
		c-0.1-0.1-0.2-0.2-0.2-0.1c0.1,0.6-0.6,0.7-0.6,0.7c-0.1-0.8-0.6-1.2-1.1-0.9c-1.4,0.5-0.5,2.5,1.1,3.9c1.8,2,2.8,3.9,0.7,6
		c0.3,0.4,0.2,0.6,0.2,0.6c0.6,0.7,0.2,0.9,0.2,1.2c-1.6-1.2-3.8-1.1-5.7-2.7c-0.1,0.8,0.1,1.7,0.3,1.9c1,0.1,1.9-0.2,2.1-0.4
		c0.7,0.3,2,2.7,1.3,3c0.3,0.7,0,0.8-0.4,1c0.3,0.6-0.3,1.2-0.6,1.2c-0.1,0.4-0.5,0.7-0.7,0.6c0,0.3-0.3,0.6-0.5,0.7
		c0,0.4,0.3,0.6,0.3,0.6c-0.6,0.1-1.5-0.1-2-0.9c-0.4,0.2-0.8-0.3-0.9-0.4c-0.3,0-0.6,0.5-0.6,0.5c-0.4-0.3-0.1-1.1-0.1-1.1
		c-0.1-0.1-0.1-0.6-0.1-0.6c-0.2-0.1-0.6,0.3-0.6,0.3c0.1-1.3,1.5-1.4,1.8-1.4c-0.1,0.6,0,1.3,0.5,1.1c1.2-0.7-0.4-2.8-0.6-3.2
		c-1-0.5-1.5-0.8-2-1.4c-0.2-0.2-0.2-1.4-0.2-2.1c-1.2-0.3-2,1-2,1.6c0,1.2,0.5,2,0.8,2.4c0.1,0.5-0.6,0.8-0.9,0.7
		c-0.3,0.6-1.5,0.3-1.5,0.3c-0.7,0.6-1.7,0-1.7,0c-0.5,0.4-1.3-0.1-1.4-0.3c-0.6,0.3-1.3-0.2-1.4-0.4c-0.4-0.1-0.8,0.7-1,0.8
		c-0.4-0.9,0.5-1.4,0.5-1.9c-0.1-0.3,0-0.6,0-0.6c-0.3-0.1-1,0.3-1.1,0.2c0.1-0.5,1.1-1.3,1.6-1.5c-0.2-0.3-0.9-0.2-1-0.4
		c1.1-0.9,2.3-0.5,2.6-0.1c-0.1,0.5-0.2,1,0,1.4c0.7-0.2,1.5-0.5,2.6-0.5c0.1-1.7,0.9-3.5,1.1-3.9c0.6,0.1,1.3,0.5,2.4,0.5
		c0.4-1.1-2.3-1.7-2.3-1.7c-0.3,1.3-1.2,2.1-2.7,1.8c-0.6,0.4-1.6,0.4-2.1,0.2c-0.5,0-1.2,0.2-1.7-0.3c-0.8,0.6-1.7-0.2-1.7-0.2
		c-0.1-0.1-0.5,0.5-0.5,0.5c-0.3-0.7,0.3-1.7,0.3-1.7c-0.2-0.4-0.1-0.7,0.2-0.9c-0.5-0.3-1.3,0.6-1.6,0.6c0.2-1.5,2.2-1.5,2.2-1.5
		c-0.1-0.6-0.7-0.5-0.9-0.7c0.3-0.6,1.9-0.4,2.2,0.1c-0.2,0.6,0,1.3,0,1.3c0.4,0.1,1.9-0.6,2.5-1.1c-0.4-0.2-0.8-0.5-0.9-0.8
		c-1.2-0.4-1.8-1.3-1.8-2.1c-0.8-0.2-1.1-0.7-1.1-1.5c-0.4-0.2-0.8-0.7-0.8-1.3c-0.2,0-0.7-0.1-0.8-0.3c-0.4,0.5-0.8,0.5-1.2,0.1
		c-0.2-0.8,0.1-0.9,0.6-1.2c0-0.4,0.4-0.5,0.5-0.7c-0.3-0.8,0.8-1.1,1.3-1c0.1-0.3,0.7-0.2,0.7-0.2v-1.3c0.3-0.2,1.2-0.5,1.5-0.4
		c-0.1,1,0,1.8,0,1.8s6.9-2.1,8-2.5c1-0.2,1.5,0.3,1.5,0.3c-0.2,0.6-0.9,0.9-0.9,0.9c-2.5,1-4.2,1.4-8,2.8c0.1,0.3,0.2,0.7,0.3,0.8
		c0.1,0.1,1.1,0.6,1.1,0.7c-0.2,0.2-0.8,0.4-1.1,0.6c0.3,0.4,2.7,1.3,3.2,2.1c0.2-0.2,0.9-0.3,0.9-0.3c-0.4-0.2-0.8-0.7-0.8-0.7
		c0.6-0.6,1.9-0.6,3.4-0.7c0.1-0.4,0.2-1.1,0.1-1.3c-0.4-0.2-2.6,1-3.5-0.2c-0.5-1,0.3-1.8,1.1-1.3c-0.2,0.4-0.3,0.7,0.2,0.8
		c0.7,0,1.3-0.2,2.5-0.2c-0.1-0.6-0.1-1.4,0-1.7c0.8-0.1,1.3,0.2,1.9-0.1C230.2,27.5,230.1,26.4,230.4,26L230.4,26z"/>
	<path class="st11" d="M230.4,28c0.4,0.3,0.8,0.6,1.3,0.6c-0.2-0.2-0.3-0.2-0.2-0.5c-0.5,0-0.2-0.4-0.2-0.6c-0.1,0.1,0,0.4-0.2,0.2
		C231.2,28,230.7,28.1,230.4,28L230.4,28z"/>
	<path class="st12" d="M232.1,28.9c0.2,0.5,0.3,0.4,0.8,0.9c-0.2-0.4,0-0.4,0.2-0.4c-0.1-0.3-0.2-0.3,0.4-0.6c-0.3,0.2-0.8,0.4-1,0
		C232.5,29.1,232.1,29,232.1,28.9L232.1,28.9z"/>
	<path class="st13" d="M230,28.4c1.3,0.3,2.3,1.5,2.8,2.3c-0.7-0.2-1,0.2-1,0.2"/>
	<path class="st14" d="M230.3,26.8c0.5-0.1,0.6,0.9-0.1,0.7"/>
	<path class="st15" d="M232.7,27.8c-0.6-0.1-0.9,0.4-0.6,0.7C232.5,28.8,233,28.2,232.7,27.8L232.7,27.8z"/>
	<path class="st14" d="M234,30.1c0.1-0.6-1-0.6-0.8,0.2"/>
	<path class="st16" d="M234.3,29.5c-0.3-0.1-0.1-0.1-0.3,0.1c0.4-0.7-0.3-0.8-0.5-0.2c0.1-0.4-0.1-0.3-0.5-0.8
		c0.5-0.1,0.3-0.4-0.1-0.4c0.3,0.1,0.6-0.3,0.2-0.5c0.4,0,0.2-0.5,0.2-0.5s-0.5-0.4-0.6,0.2c-0.1-0.4-0.9-0.5-0.6,0.2
		c-0.5-0.5-0.3-0.7-0.3-0.5c0-0.3-0.4,0.1-0.2,0.4c-0.1,0-0.6-0.2-0.6-0.2c0.5,0,0.2-0.6-0.1-0.6c0.1-0.1,0.2-0.2,0.1-0.3"/>
	<path class="st14" d="M229.6,29.2c0.4-0.7,1.6,0.6,0.3,0.7c0.4,0.2,0.7-0.2,0.7-0.2c0.3,0.7,0.8,0.5,0.8,0.5"/>
	<path class="st17" d="M229.8,29.4c0,0.4,0.4,0.2,0.4,0"/>
	<polygon class="st18" points="228.2,29.1 228.6,28.9 228.6,29.1 228.2,29.1 	"/>
	<path class="st16" d="M228.1,29.8c0.1,0.3,1,0.3,1.2,0.5c0.5,0.5,0.2,1.2,0.2,1.2c-0.3,0.5-0.8,0.3-0.8,0.3
		c-0.6-0.1-0.7-0.7-0.7-0.7"/>
	<path class="st14" d="M228.2,30c-0.1,0.3,0.1,1,0.1,1c0.1-0.5,0.6-0.8,0.6-0.8c0.6,0.2,0.7,0.6,0.7,0.6"/>
	<path class="st11" d="M228,31c0.6-0.1,1.4,0.3,1.3,0.6C228.6,32.2,228,31,228,31L228,31z"/>
	<path class="st11" d="M229.9,32.3c0.4-0.3,0.2-1.3,0.2-1.3c0.2,1.9,1.3,0.7,1.1,0.1C231.6,32.7,229.9,32.3,229.9,32.3L229.9,32.3z"
		/>
	<path class="st11" d="M232.4,31.3c-0.7,0-0.5,0.7-0.1,0.7C232.1,31.8,232.1,31.5,232.4,31.3L232.4,31.3z"/>
	<path class="st19" d="M231.5,31.9c0.2,0.8,1.2,0.7,1.4,0C232.8,33.1,231.4,33,231.5,31.9L231.5,31.9z"/>
	<path class="st20" d="M227.1,32.2c1.3-0.3,2.1,0.3,2.3,0.4C229.1,32.5,228.1,32.2,227.1,32.2L227.1,32.2z"/>
	<path class="st21" d="M226,33.7c-0.9-0.4-3.3,1.1-3.7,1.8c1,0.8,4-0.2,4.5-0.5c-0.7,0.8-1.6,2.1-1.3,2.6c1.5-0.2,3.2-2.1,3.5-2.8
		c-0.9,1.6,0,3.4,0,3.4c0.8-0.4,2.3-2.7,1.8-3.8"/>
	<path class="st20" d="M228.6,35.4l-0.7,0.7c0,0.5,0.7,0.8,0.7,0.8L228.6,35.4L228.6,35.4z"/>
	<path class="st13" d="M225.2,36.2c-0.9-0.2-1.6,0.8-1.2-0.4c-0.2,0.8-0.1,0.6-1.9,1.4"/>
	<path class="st19" d="M226.1,39.2c0-1.4,1,0.1,1.6-1.6c-0.2,1.2-0.8,1.3,0.6,1.4c-1.1,0.1-2-0.8-2.1,0
		C226.2,39.1,226.3,39.3,226.1,39.2L226.1,39.2z"/>
	<path class="st20" d="M228.5,39.5c0.9,0.9,0.7,2,0.3,3.2c-0.1,0-0.5,0-0.5,0c0.2-0.7,0.3-1.7,0.3-1.7L229,41
		C229.1,40.2,228.5,39.5,228.5,39.5L228.5,39.5z"/>
	<path class="st13" d="M228.2,40.8c0.1,0.4-0.4,1.8-0.4,1.8 M227.8,40.8c-0.1,0.6-0.6,1.6-0.6,1.6 M227.3,40.7
		c-0.1,0.7-0.6,1.6-0.6,1.6"/>
	<path class="st11" d="M237.3,29.5c0.1,0.1,0.1,0.1,0.1,0.1c-0.2,1-1,1.7-1.8,2.1C237,30.7,237,30.2,237.3,29.5L237.3,29.5z"/>
	<path class="st12" d="M237,32.2c-0.8-0.4-1.8-0.2-2.4,0.4c0.4-0.3,2-0.9,2.9,0.3C237.6,32.9,237,32.2,237,32.2L237,32.2z"/>
	<path class="st11" d="M237.3,34.6c-0.2-1.4-1.2-1.5-1.7-1.5c0.9-0.2,1.7,0.3,1.8,1.3C237.3,34.4,237.3,34.6,237.3,34.6L237.3,34.6z
		"/>
	<path class="st13" d="M221.3,32c-0.8-0.6-0.3-1.3-0.1-1.4c-0.1-0.9-0.9-2-1.8-1.7c0.1,0.5-0.1,0.9-0.5,0.9
		c-0.1,0.5,0.2,1.1,0.2,1.1c-1.1-0.4-1-1.6-0.9-2.5 M227.3,26.9l-6.8,2.3c-0.1-0.2-0.2-0.5-0.2-0.8 M219.8,31.9
		c-0.6-0.6-0.5-1.3,0-1.8c0.1,0.1,0.6,0.3,0.6,0.3l0.4-0.4 M219.7,33.1c0,0-0.9,0-1.3-0.3 M216.4,30.1c0.1,0.5,0.6,1.1,0.6,1.1
		c-0.1-0.4,0.1-0.8,0.1-0.8c0.6,0.5,1.6,0.6,1.6,0.6c-0.2,0.3-1,0.6-1,0.6 M218.9,30.3c0.5-0.1,1-0.3,1-0.3c0.1-0.5-0.1-0.9-0.6-1
		c-0.1-0.5-0.5-0.9-0.5-0.9 M218.8,29.8c0.1-0.4,0-0.8,0-0.8c-0.6,0.2-0.8,0.4-0.8,0.4c-0.1-0.2-0.6-0.2-0.6-0.2
		c-0.2,0.3-0.3,0.8-0.3,0.8c0.1,0.3,0.7,0.6,0.7,0.6l-0.2,0.4 M217,29.4c0.3,0.8,1.1,1.2,1.6,1.1 M221.2,34.5
		c-0.3,0.2-1.4,0.1-1.7-0.1 M221.1,36.4c0.5,0.3,1.3,0.1,1.3,0.1 M219.2,36.7c-0.1,0.2,0.1,0.3,0.1,0.8c-0.2,0-1-0.4-0.8,0
		c0.1,0.3,0.8,1,1.5,0.8"/>
	<path class="st14" d="M218.3,37.7l0.2,0.7c-0.8,0-1.1,0.2-1.1,0.2"/>
	<path class="st13" d="M218.4,38.4c-1,0.1-0.9,0.7-0.6,1.1 M220,39.2c-0.6,0.5-1.5,0.4-1.8-0.1c0,0.1-0.4,0.3-0.4,0.3
		c0.6,0.2,0.8,0.4,0.9,0.5c-0.5,0.2-0.9,0.6-0.9,0.6 M220.6,40c0,0-0.7,0.8-1,0.8 M224.7,39.5c-0.1,0.6-0.7,1.2-1.2,1.5 M222.7,39.5
		c-0.3,0.9-1.2,1.6-1.6,1.7 M234.4,38c-0.7,0.3-1.5-0.3-1.8-0.6"/>
	<path class="st19" d="M236.4,39.4c-0.6-0.8-1.8-0.6-2.5-0.3c0.1,0.1,0.1,0.2,0.1,0.2C235.5,38.5,235.9,39.1,236.4,39.4L236.4,39.4z
		"/>
	<path class="st13" d="M234.8,39.4c-0.6,0.2-0.7,0.8-0.6,1.2 M237.3,44.1c-0.4-0.5-1.5-0.2-1.5-0.2"/>
	<path class="st14" d="M237.4,44.6c-0.3-0.3-0.7-0.2-0.7-0.2"/>
	<path class="st19" d="M233,43c-1-0.8-1.3-1-1.8-1.8c0.4,1,0.5,1.4,0.6,2.2c0.4,0.6,0.1-0.2,0.1-0.2c-0.1-0.5,0.1-0.9,0.1-0.9
		L233,43L233,43z"/>
	<path class="st13" d="M232.1,45c0.2,0.3,0.4,0.5,0.4,0.5 M230.6,46.1c0.5,0.3,1.3,0.5,1.3,0.5 M233.2,45.9c0.6,0,0.8,0.3,0.5,0.9"
		/>
	<path class="st19" d="M235,45.2c-0.3,0.4-1,0.8-1,0.8c0.8-0.4,1.1-0.5,1.1-0.5L235,45.2L235,45.2z"/>
	<path class="st19" d="M235.6,46.1c-0.1,0.2-1.3,0.7-1.3,0.7c1-0.3,1.3-0.3,1.3-0.3L235.6,46.1L235.6,46.1z"/>
	<path class="st13" d="M235.5,47.7c-0.4-0.4-1.4-0.1-1.4-0.1"/>
	<path class="st19" d="M235.3,48.7c-0.5-0.5-1.2-0.4-1.2-0.4c0.8,0.2,1.1,0.6,1.1,0.6L235.3,48.7L235.3,48.7z"/>
	<path class="st13" d="M234.5,49.9c0.1-0.6-0.4-1-0.4-1 M233.9,50.5c0.2-0.3-0.1-0.6-0.3-0.8 M233.3,51.3c-0.5-0.3-0.6-0.5-0.6-0.6
		c-0.4,0.2-0.6,0.9-0.6,0.9 M232.6,49c0.3,0.9-0.5,1.7-0.9,1.6c0,0.1,0,0.3,0,0.3 M230.8,50.7c0,0,0-0.4,0.1-0.8
		c-0.1,0-0.4-0.3-1,0.3c0-0.1,0.4-0.6,0.8-0.9c0.1,0,0.6,0.1,0.6,0.1 M230.2,48.6c0,0,0.4,0.4,0.4,0.5c-0.5,0.1-0.7,0.5-0.7,0.5
		 M221.7,43.1c0,0,0.2,0.3-0.2,0.9c-0.2,0.1-0.9-0.1-0.9-0.1 M221.8,44.8c0,0-0.6-0.1-0.7-0.7c-0.3,0-0.9,0.1-0.9,0.1
		s0.3,0.1,0.6,0.6c-0.2,0.2-0.7,0.4-0.7,0.4 M222.1,45.6c-0.8,0-1.4-0.3-1.4-0.3c-0.5,0.3-0.6,0.6-0.6,0.6c0.3-0.1,0.9,0,0.9,0.1
		c0.1,0.2-0.2,0.8-0.5,1 M222.9,46.6c-0.4,0.6-1,0.9-1,0.9 M224.2,46.9c-0.3,0.7-0.9,0.8-0.9,0.8 M225.7,46.9
		c-0.1,0.5-0.6,0.9-0.6,0.9 M226.7,46.7c0.2,0.4,0,0.8,0,0.8 M226.2,45.8c-0.1,0.7-0.6,0.5-0.8,0.3"/>
	<path class="st10" d="M179.6,52.1c-0.2-6-0.9-25.6-0.9-27.1c0.7,0,12.1,0,24.4,0v27.1H179.6L179.6,52.1z"/>
	<path class="st10" d="M215.3,64.5h21.6c-2.7,10.5-6.4,16.1-7.2,17.3c-3.1,5-8.4,10.5-14.4,14.9L215.3,64.5L215.3,64.5z"/>
	<path class="st10" d="M203.1,96.8c-5.8-4.1-9.5-8.5-12.7-13c-3.4-5.1-6.8-11.1-8.9-19.3H203L203.1,96.8L203.1,96.8z"/>
	<path class="st4" d="M226.8,66.5c0.9,0.2,0.9,1.3,0.9,1.3c0.5-0.4,1.4-0.3,1.4-0.3s0,1-0.1,1.5c0.7-0.1,1.3,0.3,1.3,0.6
		c-0.1,0.2-1.2,0.5-1.7,0.9c0.4,0.8-0.5,1.6-1,1c0.1,0.8-0.4,2.4-0.4,2.4c-0.3,0-0.5-0.6-0.5-0.6c-0.1,0.8-1.6,2.2-1.6,2.2
		c0.9,2.6,0.6,2.6,1.3,4c1.3,1.8,2.2,0.5,2.3-0.2c-0.2-1.3-1.3-0.8-1.3-0.8c-0.1-0.2,0.1-0.6,0.1-0.6c-0.6-0.4-0.6-1.3-0.5-1.9
		c0.1-0.8,0-1.3-0.1-1.7c0.9,0.1,1.1,1.3,1.1,1.3c-0.2-2.1,0.2-2.6,1.4-3.5c0.6-0.5,1.9-0.3,1.7-1.7c1,0.2,1.5,1.1,0.8,1.7
		c1.8-0.4,0-1.6,1.4-2c0,0.6,0.9,1.6,0.2,2.5c-0.7,0.7-1.5,0.6-2,0.7c0.1,1.1-0.8,1.5-1.4,1.2c0.4-1.4-0.7-1.1-0.9-0.7
		c-0.5,0.8-0.2,2.7,0.3,3.8c0.5,2.1,0.3,3.4-1.1,3.5c0.4,0.8-0.1,1.2-0.1,1.2c-0.3-0.7-2.1-1.1-2.5-2c-0.2,1.1-0.3,2.3-0.2,2.4
		c0.5,0.2,1.3-0.6,1.3-0.6c1.3,1.1,0,3.7-0.1,3.3c0,0.8-0.7,1.4-0.8,1.2c0,0.4-0.6,0.7-0.6,0.6c-0.2,0.5-0.9,0.7-0.9,0.7
		c0.1,0.2-0.1,1-0.1,1c-0.7-0.1-0.9-1.2-1-1.4c-0.3,0.5-0.2,0.3-0.6,0.8c-0.4-2,0.9-2.8,0.9-2.8c0.2,0,0.7,0.4,0.7,0.4
		c0.6-1.1,0.2-2.2,0.2-2.2c-0.1-0.2-1.3-1.4-1.4-1.9c-0.1-0.9,0.6-2.3,0.6-2.3c-1.1,0-1.7,1.5-1.1,2.9c-0.1,0.5-0.8,0.8-0.8,0.6
		c-0.3,0.5-1.2,0.6-1.1,0.4c-0.8,0.5-1.3,0.3-1.3,0.2c-0.5,0.3-0.6,0.3-0.8,0.1c-0.3,0.2-0.6,0.8-0.6,0.8c-0.3-0.6,0-1.4-0.4-1.8
		c-0.4,0.1-0.6,0.4-0.6,0.4c-0.2-0.4,0.2-1.3,0.5-1.6c-0.1-0.2-0.6-0.1-0.6-0.1c0.3-1,1.9-0.8,2-0.6c-0.1,0.2,0.2,0.7,0.2,0.7
		c0.3,0,1.4-0.9,1.7-0.9c-0.1-0.8,0.6-2.6,0.7-2.9c0.6,0.3,1.8,0.6,2.1,0.5c0.4-0.4-1-1.8-1-2.2c-0.3,1.1-1.3,1.2-1.3,0.9
		c-0.5,0.8-1.5,1-1.5,0.8c-0.7,0.7-1.1,0.6-1.3,0.3c0,0.2,0.2,1,0.2,1c-0.6,0-1.1-0.8-1.1-1c-0.1,0-0.4-0.2-0.4-0.2
		c-0.1,0.1-0.4,0.8-0.4,0.8c-0.7-1.2,0.3-2.8,0.3-2.8c-0.2,0-0.6-0.3-0.6-0.3c0.5-0.3,1.1-0.4,1.3-0.3c-0.1,0.4,0.3,0.9,0.3,0.9
		c0.8-0.2,2.1-1.6,2.1-1.6c-1,0.2-1.2-0.6-1.1-0.6c-1-0.5-0.9-0.9-0.8-0.9c-0.9-0.4-1.1-1.2-1-1.2c-0.1-0.1-0.3-0.2-0.3-0.2
		c-0.4,0.5-1.1,0-0.9-0.8c-0.1-0.2-0.1-0.5,0-0.6c-0.1-0.2,0.1-0.6,0.1-0.7c0.2-0.1,0.5-0.1,0.5-0.1c0-0.2,0.1-0.4,0.1-0.4
		c0.2,0,0.7,0.1,0.7,0.1c-0.2-0.4-0.2-1.1-0.2-1.1l0.9-0.5c0,0.3,0,0.7,0.1,1c3.3-2,5.7-3.8,6.7-3.4c-0.2,1-4.4,3.2-6,4.6
		c0.1,0.2,0.8,0.6,0.8,0.6c-0.4,0.2-0.9,0.7-0.9,0.7c0.1,0.3,2.1,0.9,2.4,1.6c0.1-0.1,0.9-0.4,1.1-0.3c-0.2-0.1-0.6-0.2-0.6-0.4
		c0.4-0.5,2.8-0.8,2.8-0.8l0.1-0.8c-0.1-0.5-2.1,0.3-2.1-1c-0.1-0.4,0.4-0.9,1-0.6c-0.4,0.9,0.9,0.6,1.3,0.8c0.1-0.3,0-0.6,0.1-0.8
		c0.2-0.1,0.9-0.2,1.3-0.3C226.7,67.6,226.7,67,226.8,66.5L226.8,66.5z"/>
	<path class="st11" d="M227.7,67.7c-0.2,0.4,0.2,0.8,0.2,0.8c-0.3-0.2-0.8-0.6-0.8-0.6C227.4,68,227.7,67.7,227.7,67.7L227.7,67.7z"
		/>
	<path class="st11" d="M229,68.8c-0.9,0.2-0.9-0.2-0.9-0.1c0,0.2,0.4,0.6,0.6,0.9C228.8,69.4,228.6,69.2,229,68.8L229,68.8z"/>
	<path class="st15" d="M226.5,67.2c0-0.2,0.1-0.4,0.3-0.4c0.1,0,0.3,0.2,0.3,0.4c0,0.2-0.1,0.4-0.3,0.4
		C226.7,67.6,226.5,67.4,226.5,67.2L226.5,67.2z"/>
	<path class="st15" d="M228.1,68.2c0-0.2,0.1-0.3,0.3-0.3c0.2,0,0.3,0.1,0.3,0.3c0,0.2-0.1,0.3-0.3,0.3
		C228.2,68.4,228.1,68.3,228.1,68.2L228.1,68.2z"/>
	<path class="st15" d="M229.1,69.8c0-0.1,0.2-0.2,0.4-0.2c0.2,0,0.4,0.1,0.4,0.2c0,0.1-0.2,0.2-0.4,0.2
		C229.3,70,229.1,69.9,229.1,69.8L229.1,69.8z"/>
	<path class="st16" d="M228.2,68l-0.1-0.5 M228.4,67.8c0,0-0.1-0.3,0.2-0.4 M229,68.5l-0.6,0.1l0.1,0.3"/>
	<path class="st13" d="M226.4,68.2c1.5,0.8,2.2,2.1,2.2,2.1"/>
	<path class="st22" d="M226.1,68.9c0,0.2,0.5-0.2,0.6,0c0.3,0.1,0.1,0.7,0.3,0.6 M226.2,69.2c0.2,0,0.3,0.7,0.7,0.1"/>
	<polyline class="st16" points="225.2,68.6 225.3,68.8 225.5,68.8 225.5,69 225.3,68.9 225.2,69 	"/>
	<path class="st15" d="M225.1,69.3c0,0.2,0.6,0.3,0.6,0.3l-0.5,0.5L225.1,69.3L225.1,69.3z"/>
	<path class="st11" d="M225.7,69.6c0.3,0.1,0.5,0.1,0.5,0.3c0.2,0.4,0,0.7-0.1,0.8C226.2,69.9,225.7,69.6,225.7,69.6L225.7,69.6z"/>
	<path class="st11" d="M225.1,70.1c0.5,0.2,0.9,0.6,0.9,0.6c-0.1,0.1-0.6,0-0.6,0c-0.3-0.2-0.4-0.6-0.4-0.6L225.1,70.1L225.1,70.1z"
		/>
	<path class="st11" d="M226.6,70.3c0.2,0-0.4,1,0.6,0.7c-0.6,0.4-0.9-0.1-1.3,0.4C225.9,71,226.6,71.1,226.6,70.3L226.6,70.3z"/>
	<path class="st23" d="M226.5,69.2C226.5,69.2,226.5,69.2,226.5,69.2c0.1,0,0.1,0,0.1,0C226.6,69.2,226.6,69.2,226.5,69.2
		C226.5,69.2,226.5,69.2,226.5,69.2L226.5,69.2z"/>
	<path class="st14" d="M228.1,70.4c0.3-0.1,0.5,0.1,0.5,0.1 M227.4,71l0,0.2"/>
	<path class="st16" d="M227.9,71.1c-0.2-0.3,0.2-0.4,0.2-0.4"/>
	<path class="st20" d="M224.8,70.9c0.1,0.1,0.3,0,0.7,0.1c0,0.1-0.1,0.2-0.1,0.2l-0.9-0.2L224.8,70.9L224.8,70.9z"/>
	<path class="st21" d="M222.9,72.2c-1.9-0.1-2.4,1.4-2.4,1.4c1.4,0.3,2.8-0.5,2.8-0.5c-1.5,1.2-1.4,1.9-1.4,1.9
		c1.4,0.2,2.9-1.4,2.9-1.4c-0.6,0.5,0,1.7,0,1.7c-0.2-0.8-0.5-1.2-0.5-1.2"/>
	<path class="st14" d="M232.4,70.7c0.5,1.4-0.1,1.7-0.1,1.7"/>
	<path class="st18" d="M232,71.8c0,0-0.6,0.4-0.8,0.4C231.6,72.2,232,71.8,232,71.8L232,71.8z"/>
	<path class="st16" d="M231.4,73.5c0-1.4-1.7-1.1-2.1-0.6c0.7-0.8,1.8-0.5,2.1,0.2"/>
	<path class="st14" d="M230.4,73.2c0.5,0.3,0.4,1.2,0,1.3 M218.6,68.3c0.1,0.6,0.3,0.9,0.8,1.4 M218.9,69l3.8-2.3l-3.7,2.5"/>
	<path class="st21" d="M217.5,69c0.5,0.2,1.2,0.5,1.3,0.8c-0.3,0.4,0,0.9,0.5,1.1"/>
	<path class="st14" d="M216.9,69.4c0.7,0.1,1,0.4,1,0.4c-0.4,0.1-0.2,0.7,0.4,1c-0.6,0.1-1.4-0.8-1.4-1.3 M217.2,70.2
		c-0.1,0.2,0.2,0.7,0.2,0.7c-0.5,0.1-1.3-0.7-1.3-1.1 M217.4,70.9c0,0.2,0.2,0.4,0.2,0.4c-0.6,0.3-1.4-0.5-1.4-0.5 M217.2,71.8
		c0.3,0.3,0.7,0.1,0.7,0.1 M218.1,72.9c0.4,0.2,0.7-0.1,0.7-0.1 M218.8,73.8c0.7,0.1,1-0.3,1-0.3c0.1,0.5,0.7,0.5,0.7,0.5"/>
	<path class="st18" d="M219.9,74.7c0.5-0.2,1.2-0.9,1.2-0.9C220.8,74.3,219.9,74.7,219.9,74.7L219.9,74.7z"/>
	<path class="st14" d="M216.9,75.8c0.2,0,0.5-0.1,0.5-0.1c0,0-0.1-0.3-0.1-0.5 M216.8,76.2c0.8,0.4,1.5-0.2,1.5-0.2 M216.5,77
		c0.3-0.2,0.7-0.3,0.7-0.3c-0.1,0.5-0.1,1.1-0.1,1.1 M218.8,76.7c-0.5,0.3-1.2,0.5-1.2,0.5c-0.1,0.2,0,0.8,0,0.8
		c0.2-0.4,0.6-0.4,0.6-0.4c0.2,0.3,0.4,0.7,0.4,0.7 M220.1,76.9c0,0.5-0.3,1-0.3,1 M221.5,75.7c0.2,0.6-0.2,1.2-0.3,1.5 M224,75.1
		c-0.1,0.6-1,0.5-1,0.5c-0.3,0.7,0.6,1.3,0.6,1.3"/>
	<path class="st16" d="M222.2,76.9c0.3-0.5,0.3-1.4,0.3-1.4c0.5-0.2,1,0.1,1,0.1c-0.4,0-1,0-1,0c-0.1,0.4,0.3,1.4,0.3,1.4"/>
	<path class="st11" d="M221.4,81.3c0.5,0.6-0.1,0.8-0.7,0.9C221.5,81.9,221.5,81.8,221.4,81.3L221.4,81.3z"/>
	<path class="st14" d="M221.8,82.2c0.1,0.5-0.1,0.8-0.1,0.8 M220.7,83.6c-0.1,0,0.2-0.5,0.2-1.2c-0.2,1.1-0.4,1.3-1.5,1.3
		c0-0.3,0.5-0.6,0.5-1.1c-0.2,0.6-0.9,1.1-1,1.1 M217.2,80.9c0.5-0.1,0.7,0.1,0.7,0.1c-0.4,0-0.5,0.5-0.7,0.6c0.2,0,0.6-0.2,0.7-0.2
		c0.2,0.6,0.9,0.3,1,0.1 M217.1,81.9c0.4-0.1,0.7,0,0.7,0c0,0.2-0.4,0.6-0.4,0.8 M219.3,82.2c-0.2,0.3-1.2,0.2-1.2,0.2
		c-0.2,0.2-0.4,0.6-0.5,0.7c0.1,0,0.5-0.2,0.7-0.1c0,0.2,0.1,0.7,0.1,0.7 M222.5,78.1c0.4,0.5,0,1.4,0,1.4 M223.1,78.2
		c0.2,0.5-0.1,1-0.1,1 M224.1,77.9c0.1,1-0.6,1.7-0.6,1.7c0.1-0.4,0.1-0.6,0.1-0.6c-0.2-0.3-0.1-0.8-0.1-0.8 M225.7,79.2
		c0.2,0.7-0.1,1.4-0.1,1.4"/>
	<path class="st16" d="M227.7,74.8c0,0.5,0.5,1.4,0.5,1.4c-0.3-0.3-0.5-0.9-0.5-0.9"/>
	<path class="st14" d="M226.7,75.9c0.1,0.9,1.3,1.2,1.3,1.2 M227.2,77.9c0.3-0.6,1.2,0,1.2,0 M225.5,82.2c-0.1,0.6,0.2,0.8,0.2,0.8
		 M227.4,83.5c-0.6,0.4-1.3,0.4-1.6,0.1c0.5,0.4,0.3,0.6,0,0.8c0.9,0.4,1.1,0.9,0.5,1.9 M225.6,85.5c0.5,0.6,0.1,1.4-0.1,1.6
		 M223.6,83.1l1.2,1 M223.1,85.7c0.3,0.9,1,0.2,1,0.2c-0.2,0.4-0.9,0.4-1.2,0.1 M222.7,86.5c0.3,0,0.5,0,0.5,0l0,0
		c0,0-0.2,0.7-0.1,1.1 M224.5,86.4c-0.3,0.5-0.8,0.7-1.1,0.7c-0.1,0.2,0.1,0.9,0.1,0.9c0-0.3,0.4-0.5,0.4-0.5
		c0.2,0.1,0.4,0.3,0.4,0.3c1.1-0.1,1.1-0.8,1.1-1.4"/>
	<path class="st24" d="M228.1,68.3h-0.3 M228.6,68.2c0,0,0.3,0,0.7-0.5 M226.5,66.9l0.7-0.1c0.2,0.3-0.2,0.7-0.2,0.7
		s0.5-0.2,0.7,0.1 M229.8,69.8c0,0,0.1-0.6-0.1-0.7c-0.2-0.2-0.5,0.5-0.5,0.5s0.1-0.4-0.2-0.6"/>
	<path class="st4" d="M198.7,69.1c0.5,0.1,1.1,0,1.4,0.6c-0.2,0.2-0.8,0.2-1.6,0.7c0.6,0.5,0.3,1.5-0.5,1.6c0,0.7-0.2,2.5-0.8,2.8
		c-0.2-0.1-0.4-0.9-0.4-0.9c-0.1,0.6-0.6,1.2-0.9,1.5c0,0.2,2.4,3.5,2.9,4.4c0.2,0.4,0.5,1.2,1.8,0.9c0.8-0.3,0.8-1.1,0.5-1.6
		c-0.7-0.7-1.8-0.4-2,0c-0.3-0.3-0.1-1,0.3-1.2c-0.8,0.1-1.4-0.6-1.1-1.2c-0.1-0.8-0.3-1.4-0.2-1.7c0.4-0.1,1.1,0.9,1.1,0.9
		c-1.1-2-0.3-3.2,0-3.7c0.5-0.8,1.4-1,1.4-2c0.2,0,0.3,0.2,0.4,0.4c0.1-0.2,0.2-0.2,0.2-0.2c0.6,0.6,0.6,1.1,0.1,2
		c0.7,0.5,0.9,1.2,0.6,1.4c-0.1-0.1-0.2-0.2-0.3-0.2c0.3,0.7-0.3,1.1-0.5,1.1c-0.4-1.2-1.7-0.8-1.3,0.3c0.3,1.2,1.7,2,2.3,4.3
		c0.2,1.3-0.4,2-1.1,2.3c0.5,0.5,0.1,1.2,0.1,1.2c-0.7-0.5-2-1.2-2.4-1.3c0.1,0.8,0,1.3,0.3,2.3c0.7,0.1,0.9,0.1,1.6-0.5
		c1.1,1.1,0.8,4.1,0.3,4.3c-0.1,0.5-0.6,1-0.6,0.8c-0.1,0.5-0.4,0.9-0.6,0.7c-0.1,0.3-0.6,0.5-0.6,0.5c0.1,0.3,0.3,0.6,0.3,0.8
		c-0.6,0.1-1.4-0.5-1.3-1.3c-0.2,0.1-0.2,0.6-0.4,0.8c-0.4-0.3-0.5-0.9-0.4-1.5c-0.3,0-0.5,0.4-0.7,0.3c-0.2-1.2,1.1-1.7,1.4-1.6
		c0.1,0.5,0.3,0.8,0.7,0.7c0.6-0.4,0.1-1.7-0.2-2.3c-0.3-0.1-1.9-1.1-2.1-1.4c0-0.2,0-3.2,0-3.2c-0.6,0.1-1.1,0.3-1.1,0.3
		c-0.3,1.3,0,2,0.4,2.7c-0.3,0.5-2.1,1.2-2.6,0.7c-0.7,0.1-1.1-0.2-1.1-0.3c-0.4,0-0.9-0.5-1-0.6c-0.5-0.1-0.8-0.7-0.8-0.8
		c-0.2,0.1-0.7,0-0.7-0.2c-0.1-0.3,0.5-0.8,0.5-0.8c-0.5,0.1-0.8-0.3-0.8-0.3c0.3-0.4,1.5-0.5,1.5-0.5l-0.1-0.6
		c1.1-0.1,1.5,0.5,1.6,0.6c0,0.2-0.5,0.6-0.4,1c0.5,0.2,1-0.1,1.8,0c-0.5-1.1-0.4-3-0.1-3.4c0.7-0.1,2.2,0.5,2.2,0.5
		c0.1-0.5-1.5-1.7-1.5-2.2c0,0-0.3,0.1-0.3,0.1c-0.1,1-1,1.4-1.1,1.1c-0.1,0.6-0.9,0.6-0.9,0.5c-0.1,0.1-0.3,0.2-0.5,0.1
		c-0.5,0.5-0.6,0.5-1.1,0.5c-0.2,0.4-1,0.3-1.3,0.2c0,0.4-0.1,0.6-0.1,0.6c-0.6-0.2-1-1.3-0.9-1.9c-0.1,0.5-0.5,1-0.5,1.3
		c-0.6-0.4-0.2-2.1,0-2.3c-0.2,0-0.6,0.2-0.8,0.1c0.2-0.7,1.2-0.9,1.8-0.9c0.1,0.1,0.1,0.5,0.2,0.9c0.5,0.2,1.6-0.5,1.7-0.7
		c-0.8-0.2-1.1-0.5-0.9-0.8c-0.5-0.2-0.8-0.8-0.6-0.9c-0.5-0.2-0.8-0.8-0.7-1c-0.3-0.1-0.8-0.8-0.6-1c-0.2,0-0.4-0.5-0.4-0.5
		c-0.2,0.1-0.7,0-0.7,0c-0.2,1-1.1,1-1.3,0.3c-0.3-0.6,0.3-1.1,0.7-1.1c0.1-0.1,0.3-0.4,0.3-0.4c-0.1-0.5,0.1-0.9,0.7-0.8
		c0-0.3,0.3-0.6,1.3-0.6c-0.2-0.4-0.2-1.3-0.2-1.3l0.8-0.5c0.1,0.1,0.2,0.8,0.3,1.1c1.1-0.5,4.8-3.2,5.1-3.4
		c0.4-0.2,0.6-0.1,0.8-0.1c0,0.4-0.4,0.8-0.4,0.8c-1.1,1-2.4,1.8-4.8,3.7c0.3,0.4,0.8,0.8,0.8,0.8c0,0.1-0.5,0.6-1.1,0.5
		c-0.1,0.6,1.9,1.1,2.7,2.4c0.3-0.1,0.9-0.5,1.3-0.7c-0.5-0.1-1.2-0.1-1.2-0.5c1.1-0.6,3.5-0.8,3.5-0.8c-0.5,0-0.9-0.3-0.9-0.3
		c0-0.2,0.1-0.8,0.1-0.8c0.2,0.4,0.8,0.4,0.8,0.4c0.2-0.2-0.8-0.7-2-0.7c-1.5-0.1-0.9-1.5-0.1-1.4c-0.1,0.5,0.1,0.7,0.1,0.7
		c0.5,0.2,1.3,0.1,1.3,0.1c-0.1-0.2,0.1-0.6,0-1c0.5-0.1,1.1,0,1.3-0.1c0.1-0.4,0.1-1.2,0.1-1.9c0.6,0,0.8,0.9,0.8,1.4
		c0.3-0.2,0.6-0.6,1.3-0.4C198.8,68.2,198.9,68.2,198.7,69.1L198.7,69.1z"/>
	<path class="st16" d="M196.6,67.3c0.4,0,0.5,0.7,0,0.7 M198.4,68.3c0.2,0.4,0,0.6-0.4,0.4C197.8,68.2,198.1,68.2,198.4,68.3
		L198.4,68.3z M199.5,70c-0.1-0.7-0.8-0.6-0.6,0.2"/>
	<path class="st25" d="M197,66.9c0,0,0.1,0.4,0,0.6c0.7-0.1,0.6,0.8,0.1,0.5c0.1,0.2,0,0.3-0.2,0.3c0,0.3,0.5,0.6,0.8,0.5
		c-0.2,0-0.4-0.2,0-0.3c-0.4,0-0.3-0.5,0.1-0.3c-0.1-0.3,0-0.7,0.3-0.1c0.1-0.7,0.4-0.3,0.3,0c0.3-0.7,0.6,0,0.2,0.1
		c0.7,0,0.2,0.4-0.1,0.4c0.4,0.1,0.5,0.3,0.1,0.4c0,0.2,0,0.4-0.3,0.1c0,0.3-0.2,0.3-0.3,0.2c-0.1,0.5,0.5,0.7,0.5,0.7
		c-0.2-0.3,0-0.5,0.3-0.4c0.1-0.4,0.4-0.4,0.5,0c0.1-0.3,0.5-0.2,0.6,0"/>
	<path class="st14" d="M196.5,68.7c0.8,0.3,1.9,1.5,2.1,1.9c-0.5-0.2-0.9-0.1-0.9-0.1"/>
	<path class="st26" d="M196.1,69.1c0.2,0.4,0.4,0,0.7,0.2c0.2,0.2,0,0.4,0.3,0.6c-0.4-0.2-0.2,0.1-0.6,0c-0.3-0.1-0.3-0.4-0.3-0.4"
		/>
	<path class="st16" d="M197.5,70.6c0,0,0.1,0.1,0.1,0.2c0,0.1-0.1,0.2-0.1,0.2"/>
	<path class="st11" d="M198.3,71c0.1-0.2-0.5-0.5-0.4,0c0,0.6,0.4,0.3,0.4,0.3s-0.1,0.1-0.1-0.2C198.2,70.9,198.3,71,198.3,71
		L198.3,71z"/>
	<path class="st14" d="M197.5,71.4c0,0.3,0.3,0.4,0.5,0.5"/>
	<path class="st12" d="M196.7,70.7c-0.1,0.5,0,0.9,0.3,0.9c0.1,0-1,0-1,0C196.4,71.6,196.6,71.3,196.7,70.7L196.7,70.7z"/>
	<path class="st14" d="M195.2,69.6c0.1,0.3,0.4,0.4,0.4,0.4c0.4,0,0.6,0.2,0.7,0.3c0.1,0.7-0.4,0.7-0.4,0.7l-0.6-0.6
		c0-0.3,0.2-0.5,0.2-0.5"/>
	<path class="st20" d="M196.5,69.5C196.5,69.5,196.5,69.5,196.5,69.5C196.5,69.5,196.6,69.5,196.5,69.5
		C196.6,69.6,196.5,69.6,196.5,69.5C196.5,69.6,196.5,69.6,196.5,69.5L196.5,69.5z"/>
	<line class="st16" x1="195.2" y1="69.7" x2="195.2" y2="70.5"/>
	<path class="st14" d="M201.1,70.4c0.1,0.8-0.6,1.5-0.6,1.5"/>
	<path class="st15" d="M201.5,72.1c-0.8-0.2-1.9,1-1.9,1.2c0.4-0.8,1.7-1.2,2.1-0.9C201.8,72.4,201.5,72.1,201.5,72.1L201.5,72.1z"
		/>
	<path class="st18" d="M201.8,73.4c-0.1-0.3-0.6-0.4-0.6-0.4s0.6,0.5,0.6,0.6C201.9,73.8,201.8,73.4,201.8,73.4L201.8,73.4z"/>
	<path class="st14" d="M195.2,69.1c0.1,0.1,0.4-0.1,0.4-0.1l0.1,0.2"/>
	<path class="st21" d="M192.5,73.4c-0.7,0.6-1.1,1.5-1.1,1.5c0.8,0.5,2.4-0.1,3-0.5c-0.6,0.8-0.9,2-0.9,2c1.1,0.1,2.9-1.4,2.9-1.4"
		/>
	<path class="st20" d="M192,75.1c-0.1,0.6-1.3,1.4-1.5,1.4c0-0.1-0.5-0.5-0.5-0.5C191.3,76.4,192,75.3,192,75.1L192,75.1z"/>
	<path class="st14" d="M189.1,74.5c0.5,0.4,1.5,0.1,1.5,0.1c-0.2,0.4,0.2,0.9,0.7,0.8c-0.3,0.1-1,0.2-1.5,0 M189.2,68.6
		c0.1,0.5,0.8,1.1,0.8,1.1"/>
	<polygon class="st15" points="189.4,69.2 193.3,66.5 189.5,69.4 189.4,69.2 	"/>
	<path class="st14" d="M188.2,69.4c0.1,0.2,0.5,0.5,0.5,0.5c-1.2,0.5-1.1,0.7-0.6,1.4c-1-0.5-1.1-1.2-1.1-1.2 M187.3,70.7
		c0.1,0.3,0.5,0.7,0.5,0.7c-0.8,0-1.6-0.5-1.6-0.5c0.9,0.5,1,0.7,1.4,0.8c-1.3,0.6-1.6,0-1.6-0.6 M187.5,72.3
		c0.2,0.4,0.8,0.2,0.8,0.2 M188.3,73.4c0.6,0.3,1.7,0,1.7,0 M189.1,76.9c-0.5,0-1-0.2-1-0.2c-0.4,0.2-0.5,0.8-0.5,0.8l0.7-0.1l0,0.5
		c0.7,0,1.4-0.2,1.4-0.2 M188.4,79.1l0.3-0.6c0.1,0.5,0.7,0.7,0.7,0.7c1.4,0.1,1.4-0.8,1.7-1.4 M191.9,77.7
		c-0.1,0.6-0.4,1.1-0.7,1.4c0.4,0,0.7-0.5,0.7-0.5c0.6-0.2,0.6-1.5,0.6-1.5 M193.3,77.4c-0.1,0.4-0.2,0.7-0.2,0.7 M194.1,76.3l0,0.5
		c0,0,0.5-0.4,1-0.3c0,1,0.8,1.4,0.8,1.4 M194.6,78.5c0,0.8-0.4,1.6-0.4,1.6 M195.1,78.7c0.1,0.8-0.6,2-0.6,2 M195.1,80.8
		c0.7-0.8,0.7-2,0.7-2l0.3,1.1l0.2,0.2c-0.3,0.1-0.4,0.8-0.4,0.8 M196.5,78.7l0,2.1 M198.3,76.4c0,0.6,1.1,0.8,1.1,0.8 M199,77.9
		c1.4-0.8,2.3,0.6,2.3,0.6 M198.6,80.2c0,0,0.4,1,0.4,1.5 M200.6,81.1c0.4,0.1,0.7,0.5,0.7,0.5 M199.2,83.5
		c-0.1,0.3,0.3,0.8,0.3,0.8 M201.3,83.9c0,0-0.3,0.4-0.7,0.4 M201.6,85.3c-0.3-0.3-1-0.2-1-0.2 M201.4,86.7
		c-0.2-0.7-0.7-0.8-0.7-0.8 M201,87.5c-0.1-0.5-0.5-0.8-0.5-0.8 M200.4,88.4c0.1-0.3-0.2-0.6-0.2-0.6 M199.8,89
		c0.1-0.3-0.1-0.5-0.1-0.5 M198.7,90c0,0,0-0.6,0.1-0.8c0.2,0.2,0.4,0.3,0.6,0.3 M199,88.2c-0.4,0.3-0.9,0.5-0.9,0.5l-0.1,0.5
		c-0.3-0.5-0.1-0.9-0.1-0.9c-0.3-0.1-0.5,0.2-0.5,0.2c0-0.5,0.2-0.9,0.2-0.9c0.5,0.3,1,0.2,1,0.2l-0.2-0.4 M199.8,84.9
		c0.9-0.1,0.5,0.7,0.5,0.7 M198.2,85.1c0.6,0.3,1,0.4,1,0.4 M197,87.4l0.3,0.2c-0.3,0.4-0.2,0.7-0.2,0.7 M195.3,84.1l-0.5-0.8
		 M194.8,82.7c-0.3,0.8-0.9,0.2-0.9,0.2 M194.2,84.6v-1 M193.1,84.6l0.3-0.9 M192.1,84.1l0.6-0.5l-0.9,0.5 M191,83.4
		c0.4,0,0.9-0.2,0.9-0.2 M190.3,82.6l0.6-0.3l-0.6-0.6l0.4-0.1c0.3,0.8,1,0.8,1,0.8 M192.1,81.8c-0.7,0.1-0.8-0.8-0.8-0.8
		c0,0-0.8-0.2-0.8-0.2l1.4,0.1l0.1-0.4 M190.4,80.9l0.3,0.3c0,0-0.7,0.1-0.8,0.4"/>
	<path class="st16" d="M195.8,70.1c0.4,0.2,0.5,0.7,0.5,0.7"/>
	<path class="st27" d="M197.8,68l0,0.2h-0.4l0.2,0.6c-0.3,0-0.6-0.3-0.6-0.3l0.1-0.3l0.2,0l0-0.3L197.8,68L197.8,68z"/>
	<path class="st27" d="M198.7,69l-0.2,0.2l-0.2-0.2l-0.1,0.3l-0.2-0.2c0,0,0,0.4,0.5,0.6c-0.1-0.2,0-0.4,0-0.4l0.4-0.3L198.7,69
		L198.7,69z"/>
	<line class="st28" x1="196.5" y1="69.5" x2="196.7" y2="69.6"/>
	<path class="st21" d="M189.6,71.2c-0.2-0.2,0.1-0.8,0.1-0.8c-0.6-0.8-2.1-0.4-2.1-0.4c0.6,0,0.8,0.4,0.8,0.4
		c-0.4,0.9,0.4,1.2,0.4,1.2"/>
	<path class="st4" d="M196.2,45.3c0.3,0.2,0.7,0.6,1.8-0.4c0.8,0.6,1.4,1.3,1.5,1.6c0.1,0.6,0.1,1.4,0.1,1.4h-0.4
		c0.3,0.2,0.3,0.4,0.3,0.7c0,0.4-0.3,0.9-0.3,0.9c-0.1-0.2-0.5-0.5-0.5-0.5c0.1,0.3,0,0.9-0.2,1.2c0-0.1-0.1-0.2-0.1-0.2
		c0,0.4-0.3,0.8-0.5,0.9c0,0-0.1-0.1-0.1-0.1c-0.1,0.5-0.3,0.8-0.5,0.8c-0.1,0-0.4-0.1-0.4-0.1c-0.1,0.2,0.2,0.5,0.2,0.5
		s-1.2-0.1-1.4-0.9c-0.3,0.2-0.7-0.2-0.8-0.6c-0.1,0-0.5,0.4-0.7,0.6c-0.2-0.3-0.1-1.1-0.1-1.1c-0.4,0-0.9,0.2-0.9,0.2
		c0.1-1.1,1.5-1.6,1.6-1.4c0.1,0.2-0.1,0.5,0.5,0.8c0.4,0.1,0.5-0.5,0.5-1.2c0-0.7-0.3-1.4-0.6-1.6c-0.7-0.7-1.8-1.1-2.1-1.6
		c-0.6-0.8-0.4-1.9-0.5-2.2c-0.7-0.1-1.6,0.4-1.9,0.8c-0.3,0.5-0.3,1-0.3,1.4c0.1,1.4,0.5,1,0.5,1.8c0,0.5-1.3,1.1-1.9,0.9
		c-0.2,0.1-1.5,0.4-1.9,0c-0.6,0.2-0.9,0.3-1.6-0.1c-0.2,0.1-0.9-0.1-1.1-0.6c-0.3,0-0.8,0.7-0.8,0.7c-0.3-0.7,0.2-2.1,0.2-2.1
		c-0.4-0.1-1.3,0.4-1.3,0.4c-0.1-0.2,0.4-1.1,1.5-1.4c0.1-0.3,0.3-0.4,0.5-0.5c-0.3-0.2-0.8-0.4-0.8-0.4c0.3-0.3,2.1-0.5,2.3-0.1
		c0.1,0.2-0.6,0.4-0.4,1.2c0.6,0.2,1.6-0.8,3-0.8c0-0.8,0.3-2.4,1.1-3.4c1.3,0.6,2.4,0.3,2.4,0.3c-0.1-0.8-1-1.8-2.4-1.7
		c0,0.4,0,0.8-0.4,1.2c-0.4,0.4-1.1,0.6-1.4,0.5c-0.7,0.8-2.1,0.6-2.4,0.3c-0.7,0.4-1.2,0.2-1.4,0c-0.5,0.3-0.9,0.4-1.1,0
		c-0.5,0.1-1,0-1.2-0.4c-0.2,0.1-0.6,0.5-0.6,0.5c-0.4-0.6,0.2-1.9,0.2-1.9c0-0.3-0.1-0.8-0.1-0.8c-0.2,0-0.9,0.2-1.1,0.3
		c0-0.9,1.1-1.5,1.9-1.5c0.1-0.1,0.1-0.1,0.3-0.2c-0.1-0.3-0.7-0.5-0.7-0.5c0.4-0.6,1.8,0,2,0.4c0,0.3-0.4,0.3-0.2,1.1
		c0.4,0.4,2.5-1,2.5-1c-0.4-0.1-0.9-0.3-1-0.7c-1.1-0.4-1.6-1.4-1.6-2c-1.3-1-1.3-1.3-1.3-1.8c-0.3-0.2-0.6-0.8-0.7-1.2
		c-0.3,0-0.7,0-0.9-0.4c-0.1,0.2-1.1,0.7-1.3-0.2c-0.1-0.6,0.3-0.9,0.7-0.9c0.1-0.2,0.4-0.4,0.6-0.4c-0.1-1.1,0.1-1.3,1.2-1.1
		c0-0.6,0.6-0.8,1.1-0.7c-0.1-1.3,0.3-1.5,1.3-1.5c0,0.3-0.1,1.4,0.1,2c0.9-0.3,8.3-2.9,8.7-2.9c0.3,0,0.7,0.1,0.9,0.3
		c-0.1,0.2-0.4,0.7-0.7,0.8c-0.4,0.3-6.6,2.5-8.1,3.2c0,0.7,0.4,1,0.8,1.4c-0.2,0.2-1,0.4-1.1,0.5c0.4,1,2.8,1.2,3,2.3
		c0.2-0.1,1.5-0.6,2.3-0.6c-0.1-0.1-1.3-0.5-1.3-0.8c0.1-0.5,2.2-0.8,3.2-0.8c0-0.6,0.3-0.5,0-1.2c-1.2-0.2-2.8,1-3.6,0.1
		c-0.4-0.4-0.2-1.6,0.8-1.4c-0.3,1.4,1.2,0.3,2.9,0.7c-0.1-0.5,0.1-1.3,0.1-1.7c0.2-0.3,1.2,0.1,1.9-0.1c0.3-0.9,0.1-1.7,0.3-2.3
		c0.1,0,0.3,0.1,0.3,0.5c0.1-0.1,0.3,0,0.2,0.2c0.2,0,0.4,0,0.3,0.3c0.2-0.1,0.3,0.3,0.3,0.3c0.2,0,0.5,0,0.5,0.2
		c0-0.1,0.3-0.4,0.4,0c0-0.2,0.4-0.5,0.4,0c0-0.4,0.4-0.1,0.4-0.1c0,0.2,0.2,0.5-0.1,0.5c0.1,0.1,0.1,0.4-0.2,0.4
		c0.4,0.1,0.2,0.5,0.2,0.8c0.2,0.1,0.7,0.3,0.5,0.6c0.4-0.1,0.5,0.1,0.6,0.3c-0.2,0.3-1.3,0.3-1.7,0.8c0.3,0.2,0.6,1.5-0.6,2.1
		c0,0.9,0.1,2.2-0.6,2.8c-0.1,0-0.3-0.5-0.4-0.7c-0.2,0.9-0.6,2-1.9,3c1.3,1.2,3,4.3,5.3,4.9c1.6,0.5,2.8-0.6,2.3-1.8
		c-0.5-1.1-1.8-0.7-1.8,0.2c-0.4-0.2-0.5-0.6-0.5-0.8c-0.1,0.1-0.2,0.3-0.2,0.3c-0.4-0.4-0.4-1.3-0.1-1.6c-1-0.5-1.2-1-1-1.5
		c-0.3-0.3-0.4-0.5-0.7-1c0.3-0.2,1-0.3,1.7,0c-0.7-0.8-0.9-1.3-0.9-2.4c0-1.5,1.3-2.8,2-3.4c1.4-1.3,1.1-1.9,0.9-2.3
		c0.6-0.2,1.4,0.5,1.1,1.3c0.1-0.1,0.3-0.7,0.3-0.7s0.6,0.7,0.5,1.4c-0.1,0.6-0.3,1.1-1.1,1.8c1.4,1.1,0.8,1.7,0.6,1.9
		c0.2,0.9-0.7,0.9-0.9,0.8c0.3-1.5-1.9-1.2-1.5,0.4c0.2,0.9,1.6,2,2.6,3.4c0.4,0.6,0.7,1.4,0.7,2.1c0.1,2.1-1.1,2.7-1.3,2.9
		c0.1,0,0.7,0.2,0.8,0.9c0.1,0.7-0.1,1.1-0.1,1.1c-1-1.1-3.1-1.4-3.3-1.4l0,0l0,0c0,0-1.7-0.6-2.5-1.9
		C195.9,43.7,195.9,44.6,196.2,45.3L196.2,45.3z"/>
	<path class="st13" d="M193.9,28.7c1.4,0.8,1.8,1,2.7,2.4"/>
	<path class="st21" d="M188.2,34.3c-1.3,0.5-2.2,1.6-2.2,1.6c1.6,0.6,3.1,0.3,4.3-0.4c-0.6,0.7-1.3,2.1-1.3,2.5
		c1.4,0,2.6-0.8,4.1-2.5c-0.7,1.5-0.3,2,0,2.7c-0.1-0.1-1.3-1.4-1.3-1.4"/>
	<path class="st13" d="M189.5,36.6c-0.8-0.4-3.4,0.9-3.8,1.1"/>
	<path class="st29" d="M200.9,32.7c0.8-0.1,0-0.1,0-0.1c-1.8-0.6-2.7,1.2-2.7,1.2S199.1,32.1,200.9,32.7L200.9,32.7z"/>
	<path class="st13" d="M201.2,29.8c-0.1,1-1,2-1,2 M201.4,34.7c-0.1-1.1-1.4-1.1-1.4-1.1 M198.6,37.5l-0.9-0.7 M198.5,38.3
		c-0.8,0.3-1.8-0.3-1.8-0.3 M199.9,39.2c-1.5-0.4-2,0.4-2,0.4 M199.2,40c-1,0.7-0.9,1.1-0.9,1.1 M195.8,31.2c2-0.5,0.9,3.2-0.5,1.4
		 M193.3,29.1c0.1,0.1,0.1,0.4,0.1,0.4c0.1-0.4,0.7-0.4,0.9-0.2c0.4,0.7-0.2,0.8-0.2,0.8c0.5-0.5,0.4,0.3,0.6,0.2"/>
	<path class="st11" d="M191.7,32.3c0.5,0,1.1,0.1,2,0.4c0.4-0.2,0.1-1.1,0.3-1.6c0.2,0.9,0.6,1.5,1,1.1c-0.1,0.6-0.9,0.1-1.1,0.8
		C193.8,33.1,192.3,32.4,191.7,32.3L191.7,32.3z"/>
	<path class="st13" d="M180,30.5c0,0.9,0.6,1.1,0.6,1.1c-0.1-0.4,0.1-0.5,0.1-0.5c0.7,0.1,1.3,0.7,1.3,0.7c-1,0.4-1.4,0-1.4,0
		 M180.6,30c0.1,0.8,2.2,1,2.2,1c-0.6-0.6-0.7-1-0.7-1c-0.7-0.3-0.8-0.1-0.8-0.1c-0.1,0.4,0.2,1.3,0.2,1.3 M181.8,28.9
		c0,1.1,1.3,1.8,1.3,1.8c-0.5-1.1-0.4-1.6-0.4-1.6c-0.8,0-0.5,0.7-0.5,0.7 M185,32.3c-0.3-0.7,0.4-1.1,0.4-1.1
		c-0.3-2.4-2.4-2.3-2.4-2.3c1.5,0.7,1.4,1.8,1.4,1.8c0.4,0.5,0.8,0.1,0.8,0.1 M183.7,32.1c-0.9-1.1,0.6-1.8,0.6-1.8
		s-0.3,0.2-0.4,0.2c-0.9-1.8-1-2.5-1-2.5c0.1,0.8,1.2,2.3,0,2.1 M182.1,33.5l1.9-0.1c-1.8-0.2-2.4-1-2.4-1 M183.2,34.9
		c0.5,0.3,1.7,0,1.7,0 M184.3,28.7c0,0.4,0.3,0.9,0.3,0.9l6.2-2.3"/>
	<path class="st11" d="M192.2,39.3c-0.4-0.1-1.3-0.4-0.8-1.7c-0.5,0.4,0.1,0.7-0.7,1.1c-0.9-0.2-1,0.5-0.8,0.8
		C190.3,38.2,190.7,39.4,192.2,39.3L192.2,39.3z"/>
	<path class="st13" d="M187.9,41.5c0.5-0.3,0.9-1.9,0.9-1.9 M185.4,41.7c0.8-0.2,1.3-2,1.3-2 M184.1,41.7c0.5-0.2,0.9-1.1,0.9-1.1
		 M182.8,41.7c0.6,0,1-0.9,1-0.9 M181.8,41.3c0.4-0.3,0.6-1.2,0.6-1.2c-0.2-0.2-1.1-0.1-1.1-0.1l0.5-0.7c0.6,0.5,1.3,0.4,1.3,0.4
		 M181.1,39.1l1.1-0.5l-0.5-0.8l0.8,0.2c0.1,0.8,1.4,0.5,1.4,0.5 M182.1,37.5l0.9,0.4l0.1-0.8 M184.6,36.8c0.2,0.2,1.8-0.1,1.8-0.1
		 M184.2,44.5l0.7,0c0.1,0.6,0.6,0.6,0.6,0.6 M185.6,46.1c-0.9-0.2-1.4-0.4-1.4-0.4 M184,44.9c0.4,0.1,0.4,0.3,0.4,0.3
		c-0.6,0.6-0.8,1.3-0.8,1.3c0.4-0.4,1.2,0,1.2,0c0.3,0-0.5,0.8-0.4,1 M185.5,48.1c0.9,0,1.2-1.2,1.2-1.2 M187,48.3
		c1.1-0.4,1.2-1.3,1.2-1.3 M188.8,48.3c0.8-0.1,1-1.3,1-1.3 M188.9,46.2c1.2,0.5,1.1-0.6,1.1-0.6 M190.1,43.5
		c1.6-1.1,1.1-2.2,1.1-2.2 M190.6,43.7c1.4-1.1,1.2-2.4,1.2-2.4 M191.7,43.4c0.5-0.9,0.6-1.7,0.6-1.7l0.2,0.1c0,0.8-0.3,1.5-0.4,1.5
		"/>
	<polyline class="st16" points="192.2,41.2 192.2,41.6 192.4,41.7 	"/>
	<path class="st13" d="M192.8,42.4l-0.1,0.7l0,0c0.3-2.5-0.4-2.9-0.4-2.9c0.9,1.8,0.1,2.9,0.1,2.9"/>
	<path class="st11" d="M196,42.5l0.8,0.4l0,0l-1.7-1.7c1.1,1.4,0.1,3.1,1.5,4.8C195.5,44.2,196,42.5,196,42.5L196,42.5z"/>
	<path class="st13" d="M197.1,46.2c0.9,0,0.6,1.1,0.6,1.1 M199,45.6c-0.3,0.6-1.1,0.7-1.1,0.7 M199.7,46.7c-1.1-0.1-1.5,0.2-1.5,0.2
		 M199.7,48.1c-0.3-0.3-1.4-0.3-1.4-0.3 M198.9,49.4c-0.2-0.6-0.9-0.7-0.9-0.7 M198.5,50.4c0.1-0.7-0.6-1.1-0.6-1.1 M195,46.7
		c0.6,0.6,1.2,0.6,1.2,0.6 M197.8,51.3c0.2-0.6-0.4-1.1-0.4-1.1 M196.9,51.7c-0.9-1.4-1.1-0.1-1.1-0.1 M195.5,51.2
		c-0.1-0.6,0.9-0.2,0.9-1.9 M194.9,49.3c-0.5,0.3-0.9,0.8-0.9,0.8c0.4-0.5,0.7-0.2,0.7-0.2c0.4,0.1,0.2,0.9,0.2,0.9 M185.2,43.6
		c0,0,0,0.5,0.1,0.6c-0.1,0.1-1.2,0-1.2,0"/>
	<path class="st16" d="M189.5,33.9l1,0 M196.2,31.9c-0.2-0.2-0.4-0.2-0.6-0.1c-0.3,0.3,0.1,0.6,0.2,0.5
		C195.7,31.7,196.1,32,196.2,31.9L196.2,31.9z M195.4,30.1c0.1,0.4-0.1,0.5-0.1,0.5"/>
	<path class="st17" d="M194,29.7c0,0.6-0.5,0.1-0.3-0.1"/>
	<path class="st16" d="M192.5,29.2c0.1,0.5-0.2,0.1-0.2,0.1"/>
	<path class="st11" d="M192.5,30.5c1,0.1,1.3,1,0.8,1.3C193.5,31.3,192.5,30.8,192.5,30.5L192.5,30.5z"/>
	<path class="st11" d="M193.2,31.9c-0.6,0.2-0.9-0.8-1.2-0.8C191.9,31.9,193,32.1,193.2,31.9L193.2,31.9z"/>
	<path class="st13" d="M194.2,27.4c0.7-0.1,0.6,0.7-0.1,0.6"/>
	<path class="st19" d="M196.5,28.3c0.3,0.6-0.1,0.9-0.5,0.7C195.8,28.4,196.4,28.1,196.5,28.3L196.5,28.3z"/>
	<path class="st13" d="M197.8,30.5c-0.1-0.4-0.8-0.2-0.6,0.2"/>
	<path class="st16" d="M197.4,29.5c0.5,0.1,0.3,0.3,0.3,0.5c0.4-0.3,0.7,0.3,0.6,0.4"/>
	<path class="st11" d="M196.8,30.2c-0.2-0.4,0.1-0.5,0.4-0.3c-0.1-0.4,0-0.5,0.2-0.4l-0.2-0.3c-0.1,0.1-0.3,0.1-0.4-0.1
		c-0.2,0.5-0.4,0.1-0.3-0.1l-0.1,0.1C196.2,30.2,196.3,29.6,196.8,30.2L196.8,30.2z"/>
	<path class="st16" d="M195.6,27.8c0.1-0.1,0.3-0.1,0.4,0.2c0.1-0.4,0.3-0.3,0.4,0c0.2-0.5,0.5-0.3,0.4,0c0.2-0.7,0.9,0,0.4,0.3
		c0.3,0.3,0,0.3-0.1,0.3c0.5,0.3,0.3,0.5,0.2,0.6 M194.3,26.4c0.3-0.1,0.4,0.5,0.4,0.5c0.3-0.1,0.2,0.2,0.2,0.2
		c0.5-0.2,0.3,0.3,0.3,0.3c0.5,0,0.3,0,0.3,0.3"/>
	<path class="st11" d="M195.5,27.7c0,0.3,0,0.3-0.3,0.3c-0.2-0.1-0.1-0.1-0.1-0.1c0,0.5,0,0.5-0.3,0.2c0.1,0.8,0.4,0.6,1.3,0.6
		c-0.4,0-0.5-0.3-0.2-0.5C195.5,28,195.6,27.7,195.5,27.7L195.5,27.7z"/>
	<path class="st20" d="M193.1,35.6c-0.3,0.8-0.5,2,0,2.5c-0.1-0.1-1.3-1.2-1.3-1.2L193.1,35.6L193.1,35.6z"/>
	<path class="st13" d="M191.9,28.9c0,0.6-0.1,0.7-0.1,0.9c0.2,0.1,0.6,0.4,0.8,0.7c-0.1,0.3-0.4,0.6-0.5,1c-0.1-0.3-0.1-1.5-0.1-1.5
		"/>
	<polygon class="st0" points="203,52.2 215.4,52.2 215.4,64.5 203,64.5 203,52.2 	"/>
	<path class="st30" d="M209.9,29c1.7,3,4.2,5.8,4.2,5.8c-2.2,2.5-4.2,5.9-4.2,5.9c-2.1-3.2-4.3-5.9-4.3-5.9
		C208.2,31.9,209.9,29,209.9,29L209.9,29z"/>
	<path class="st4" d="M209.9,29.4c0,1.4,0,5.4,0,5.4l-4.1,0C206.1,34.5,208.6,31.6,209.9,29.4L209.9,29.4z"/>
	<path class="st30" d="M229.6,53.3c1.5,2.6,3.7,5.1,3.7,5.1c-2,2.2-3.7,5.1-3.7,5.1c-1.8-2.8-3.8-5.1-3.8-5.1
		C228,56.1,229.6,53.3,229.6,53.3L229.6,53.3z"/>
	<path class="st4" d="M226.1,58.4c0.8,0,3.5,0,3.5,0v-4.7C229.6,53.7,228.2,56.3,226.1,58.4L226.1,58.4z"/>
	<path class="st30" d="M190.5,53.2c1.5,2.6,3.6,5.1,3.6,5.1c-1.9,2.2-3.6,5.1-3.6,5.1c-1.8-2.8-3.9-5.1-3.9-5.1
		C188.8,56,190.5,53.2,190.5,53.2L190.5,53.2z"/>
	<path class="st4" d="M186.9,58.4c1.1,0,3.7,0,3.7,0v-4.8C189.9,54.7,188.1,57.4,186.9,58.4L186.9,58.4z"/>
	<path class="st30" d="M209.9,78c1.7,3,4.2,5.8,4.2,5.8c-2.2,2.5-4.2,5.9-4.2,5.9c-2.1-3.2-4.3-5.9-4.3-5.9
		C208.2,80.9,209.9,78,209.9,78L209.9,78z"/>
	<path class="st4" d="M209.9,78.4c0,1.4,0,5.4,0,5.4l-4.1,0C206.1,83.6,208.6,80.7,209.9,78.4L209.9,78.4z"/>
	<path class="st4" d="M205.8,61.8c-1-0.9-1.5-2.4-1.3-3.6c0.9-1.3,2.1,0.4,2.3-0.4c0.1-0.9-1.6-0.1-1.6-1.7c0.4-1.2,2.1-2.3,3.1-2.2
		c1.3,0.6,0.1,2,0.9,2c0.8-0.1-0.3-1.5,1-2c1.1-0.1,3,1.5,3.1,2.3c0,1.6-1.7,0.8-1.6,1.7c0.2,0.8,1.3-0.8,2.2,0.3
		c0.3,0.8-0.3,2.8-1,3.4l-0.1,0.1c-1.5,0.4-1.2-1.3-2-1c-0.7,0.5,1.2,1,0.4,2.3c-0.4,0.4-2.8,0.7-3.6,0c-0.9-1.2,1-1.7,0.3-2.2
		C207,60.3,207.2,62.1,205.8,61.8L205.8,61.8z"/>
	<path class="st31" d="M207.2,58.4c0-1.1,0.9-2,1.9-2c1.1,0,1.9,0.9,1.9,2s-0.9,2-1.9,2C208.1,60.4,207.2,59.5,207.2,58.4
		L207.2,58.4z"/>
	<path class="st14" d="M206.2,56.7c-0.5-0.1-0.5-0.8,0.2-0.8c0.7,0,1-0.5,1.1-0.9c0.4-0.8,1-0.4,0.8,0.3 M209.9,55.1
		c-0.1-0.5,0.5-0.8,0.9-0.2c0.2,0.7,0.8,0.8,1.1,0.9c0.6,0.2,0.6,0.8,0.1,0.9 M212.4,58.4c0.4-0.2,0.9,0.4,0.3,0.8
		c-0.6,0.4-0.4,0.7-0.4,1.1c0.1,0.9-0.6,0.9-0.8,0.2 M210.5,61.5c0.4,0.3,0.1,0.9-0.6,0.7c-0.6-0.3-1-0.2-1.2,0
		c-0.6,0.2-0.9-0.4-0.5-0.8 M206.9,60.9c-0.3,0.5-1,0.2-0.8-0.6c0-0.7-0.5-0.8-0.6-1.1c-0.5-0.7-0.1-1.2,0.3-0.8"/>
	<path class="st32" d="M207.7,56.9c0.1-0.2-0.2-0.8-0.2-0.8c0.4,0.5,0.6,0.5,0.6,0.5L207.7,56.9L207.7,56.9z"/>
	<path class="st33" d="M210.1,56.6c0.3,0,0.6-0.5,0.6-0.5c-0.4,0.5-0.3,0.7-0.3,0.7L210.1,56.6L210.1,56.6z"/>
	<path class="st33" d="M211.1,58.9c0.1,0.2,0.6,0.5,0.6,0.5c-0.6-0.3-0.8-0.1-0.8-0.1L211.1,58.9L211.1,58.9z"/>
	<path class="st32" d="M209.4,60.4c-0.1,0.2-0.2,0.9-0.2,0.9c0-0.6-0.2-0.9-0.2-0.9H209.4L209.4,60.4z"/>
	<path class="st32" d="M207.4,59.4c-0.2-0.1-0.8,0-0.8,0c0.6-0.2,0.6-0.5,0.6-0.5L207.4,59.4L207.4,59.4z"/>
	<path class="st4" d="M210.1,53.7c-0.2,0.1-0.4,0.2-0.5,0.3c-0.3,0.1-0.4-0.6-0.4-0.6s-0.2,0.6-0.4,0.7c-0.1-0.1-0.3-0.3-0.5-0.4
		l0.9-1.2L210.1,53.7L210.1,53.7z"/>
	<path class="st4" d="M205,56.1c0,0.3,0.1,0.5,0.2,0.7c-0.1,0.3-0.7,0.2-0.7,0.2s0.6,0.4,0.5,0.7c-0.2,0.1-0.3,0.2-0.5,0.3
		c-0.1-0.1-0.8-1.4-0.8-1.4L205,56.1L205,56.1z"/>
	<path class="st1" d="M205.8,61.9c0.3,0.1,0.5,0.1,0.7,0c0.2,0.2-0.1,0.8-0.1,0.8s0.6-0.4,0.8-0.3c0,0.2,0.1,0.4,0.2,0.6
		c-0.4,0.1-1.6,0.5-1.6,0.5L205.8,61.9L205.8,61.9z"/>
	<path class="st4" d="M213.3,56.2c0,0.3-0.1,0.5-0.2,0.7c0.1,0.3,0.7,0.2,0.7,0.2s-0.6,0.4-0.5,0.7c0.2,0.1,0.3,0.2,0.5,0.3
		c0.1-0.1,0.8-1.4,0.8-1.4L213.3,56.2L213.3,56.2z"/>
	<path class="st1" d="M212.7,61.7c-0.3,0.1-0.5,0.1-0.7,0c-0.2,0.2,0.1,0.8,0.1,0.8s-0.5-0.4-0.7-0.2c0,0.2,0,0.4-0.2,0.6
		c0.4,0.1,1.5,0.4,1.5,0.4L212.7,61.7L212.7,61.7z"/>
	<path class="st34" d="M178.7,25.1c1.6,0,60.9,0,60.9,0c-0.3,8.3-0.8,26.9-0.8,26.9c-0.1,5.1-1.8,12.5-1.8,12.5
		c-2.7,10.5-6.4,16.1-7.2,17.3c-4.1,6.8-11.6,14-20.5,18.8c-8.7-4.6-14.8-11.1-18.8-16.8c-3.4-5.1-6.8-11-8.9-19.2
		c-1.7-5.9-2-12.4-2-12.4C179.3,46.2,178.7,26.6,178.7,25.1L178.7,25.1z"/>
</g>
</svg>
