<?xml version="1.0" encoding="utf-8"?>
<!-- Generator: Adobe Illustrator 22.1.0, SVG Export Plug-In . SVG Version: 6.00 Build 0)  -->
<svg version="1.1" id="Layer_1" xmlns="http://www.w3.org/2000/svg" xmlns:xlink="http://www.w3.org/1999/xlink" x="0px" y="0px"
	 viewBox="0 0 2800 857" style="enable-background:new 0 0 2800 857;" xml:space="preserve">
<style type="text/css">
	.st0{fill:#FF2515;}
</style>
<g>
	<g>
		<path d="M873.6,488.2h34.8c10,0,19.3,1.5,27.7,4.6c8.4,3.1,15.6,7.4,21.5,12.8c5.9,5.5,10.6,12,13.9,19.6c3.3,7.6,5,15.9,5,24.8
			c0,8.9-1.7,17.2-5,24.8c-3.3,7.6-7.9,14.2-13.9,19.6c-5.9,5.5-13.1,9.7-21.5,12.8c-8.4,3.1-17.6,4.6-27.7,4.6h-34.8V488.2z
			 M910.1,587.8c5.7,0,10.9-0.9,15.6-2.6c4.7-1.7,8.7-4.2,12.1-7.4c3.4-3.2,6-7.2,7.8-11.8c1.8-4.6,2.7-9.9,2.7-15.9
			c0-5.9-0.9-11.2-2.7-15.9c-1.8-4.6-4.4-8.6-7.8-11.8c-3.4-3.2-7.4-5.7-12.1-7.4c-4.7-1.7-9.9-2.6-15.6-2.6h-8.4v75.4H910.1z"/>
		<path d="M1106.7,488.2h28.1v79.1c0,14.6-4.3,26.1-12.8,34.4c-8.5,8.3-20.4,12.4-35.5,12.4c-15.2,0-27-4.1-35.5-12.4
			c-8.5-8.3-12.8-19.8-12.8-34.4v-79.1h28.1v80.1c0,7.1,1.7,12.4,5.1,16.2c3.4,3.7,8.4,5.6,15.1,5.6c6.6,0,11.6-1.9,15.1-5.6
			c3.4-3.7,5.1-9.1,5.1-16.2V488.2z"/>
		<path d="M1289,527.4c0,8.3-2.1,15.5-6.4,21.7c-4.3,6.2-10.3,10.9-17.9,14.1l37.5,48.7h-34.6l-31.3-42.9h-5.1V612H1203V488.2h36.3
			c7.1,0,13.6,0.8,19.7,2.4c6.1,1.6,11.3,4,15.8,7.2c4.5,3.2,7.9,7.3,10.4,12.2C1287.7,515,1289,520.8,1289,527.4z M1261.9,528
			c0-5.6-2-9.7-6-12.4c-4-2.7-9.6-4-16.8-4h-8.1v34.7h6.9c7.5,0,13.4-1.6,17.6-4.8C1259.8,538.3,1261.9,533.8,1261.9,528z"/>
		<path d="M1428.6,612v-50.3h-41.8V612h-28.1V488.2h28.1v48.5h41.8v-48.5h28.1V612H1428.6z"/>
		<path d="M1595.8,588h-43.7l-7,24h-28.9l42.5-123.7h30.8l42.5,123.7H1603L1595.8,588z M1559.3,563.9h29.3l-14.6-52.2L1559.3,563.9z
			"/>
		<path d="M1767.8,592.3h-27.1l-22.3-49.6L1715,612h-27.6l8.6-123.7h25.4l32.9,75.6l32.9-75.6h25.4L1821,612h-27.6l-3.4-69.3
			L1767.8,592.3z"/>
	</g>
	<path class="st0" d="M455.2,13c0.1-10.3,11-16.8,19.8-11.7c37.3,21.5,71.4,41.2,105.4,61c9.1,5.3,17.3,12,26.5,17.2
		c48,27.3,97.9,52.3,143.4,82.5c16,10.6,30.4,33.9,30.7,51.6c2.5,130.8,2.2,261.7,0.1,392.5c-0.2,15.6-12.6,34.5-25.6,45.8
		c-19.8,17.1-44.8,29.4-68.2,42.9c-92.4,53-184.8,105.9-278,157.6c-8.9,4.9-26.3,5.6-35.1,0.9c-63.3-34-125.7-69.4-187.8-105.3
		c-52.7-30.4-104.4-62.2-156.8-93C9.2,643.2,0.2,626,0.2,604.8C0,473.9-0.3,343.1,0.5,212.2c0.1-22.5,11.8-41,34.5-53.7
		c82-46,163.5-92.6,245-139.4L306.2,4c8.9-5.1,20,1.4,20,11.9c0.1,40.4,0.2,77-0.6,113.6c-0.1,4.6-7.3,10.3-12.7,13.4
		c-38.4,22.5-77.3,44.2-115.7,66.6c-21.7,12.6-43.1,25.7-63.9,39.5c-4.9,3.3-9.8,9.9-10,15.2c-0.9,21.1-0.6,42.2-0.5,65.4
		c0,7.5,6,13.5,13.3,13.5c37.3,0,71.8,0.3,106.4,0.1c32.5-0.2,58.7-11.1,59.3,23.1c0.4,24.5,3,55,1.8,87.3
		c-0.8,23.2-7.8,17.1-43.5,17.7c0,0-71.9,1.8-107.8,0.7c-23.6-0.8-28.2,8.1-30.9,28.5c-6.6,50.2,13.8,79.6,63.9,102.4
		c53.7,24.5,102.5,58.1,152.2,89.3c45.7,28.7,59.1,28.9,105.5,0.8c59.4-36,119.3-71.5,180.4-104.9c24.9-13.6,37.2-28.1,36.4-55.9
		c-2.1-75.4-2.3-147.2,0.8-226.2c3.1-42.4-17.2-64.7-51.5-84c-44.7-25.2-89.8-50-133.8-76.1c-8.7-5.1-18.9-15.4-19.3-23.6
		C454.5,86.7,455,51.2,455.2,13z"/>
	<g>
		<path d="M873.4,224.3h73v24.8h-44.1v25.5h42v24.8h-42v27.1h44.7v24.8h-73.5V224.3z"/>
		<path d="M1090.3,351.3l-48.3-75.7v75.7h-27.8v-127h27.8l48.3,75.7v-75.7h27.8v127H1090.3z"/>
		<path d="M1271.2,224.3v24.8h-31.5v102.2h-28.8V249.1h-31.5v-24.8H1271.2z"/>
		<path d="M1420.8,264.5c0,8.5-2.2,16-6.6,22.3c-4.4,6.4-10.5,11.2-18.4,14.5l38.5,50h-35.5l-32.2-44h-5.3v44h-28.8v-127h37.3
			c7.3,0,14,0.8,20.2,2.5c6.2,1.7,11.6,4.1,16.2,7.4c4.6,3.3,8.1,7.5,10.7,12.5C1419.5,251.7,1420.8,257.6,1420.8,264.5z
			 M1393.1,265.1c0-5.7-2.1-9.9-6.2-12.7c-4.1-2.7-9.8-4.1-17.2-4.1h-8.3V284h7c7.7,0,13.8-1.7,18.1-5
			C1390.9,275.7,1393.1,271.1,1393.1,265.1z"/>
		<path d="M1492.4,224.3h73v24.8h-44.1v25.5h42v24.8h-42v27.1h44.7v24.8h-73.5V224.3z"/>
		<path d="M1717.9,265.7c0,6.7-1.3,12.8-4,18.1c-2.7,5.3-6.4,9.8-11.2,13.4c-4.7,3.6-10.3,6.4-16.8,8.3c-6.4,1.9-13.4,2.9-20.9,2.9
			h-3v42.9h-28.8v-127h33.8c7.4,0,14.2,0.8,20.5,2.5c6.3,1.7,11.7,4.2,16.2,7.5c4.5,3.4,8,7.7,10.5,12.9
			C1716.7,252.4,1717.9,258.5,1717.9,265.7z M1690.2,265.8c0-11.7-7.7-17.5-23-17.5h-5.1v36h4.7c7.6,0,13.4-1.7,17.4-5
			C1688.2,276.1,1690.2,271.6,1690.2,265.8z"/>
		<path d="M1867.2,264.5c0,8.5-2.2,16-6.6,22.3c-4.4,6.4-10.5,11.2-18.4,14.5l38.5,50h-35.5l-32.2-44h-5.3v44h-28.8v-127h37.3
			c7.3,0,14,0.8,20.2,2.5c6.2,1.7,11.6,4.1,16.2,7.4c4.6,3.3,8.1,7.5,10.7,12.5C1865.9,251.7,1867.2,257.6,1867.2,264.5z
			 M1839.4,265.1c0-5.7-2.1-9.9-6.2-12.7c-4.1-2.7-9.8-4.1-17.2-4.1h-8.3V284h7c7.7,0,13.8-1.7,18.1-5
			C1837.3,275.7,1839.4,271.1,1839.4,265.1z"/>
		<path d="M1938.7,224.3h73v24.8h-44.1v25.5h42v24.8h-42v27.1h44.7v24.8h-73.5V224.3z"/>
		<path d="M2155.7,351.3l-48.3-75.7v75.7h-27.8v-127h27.8l48.3,75.7v-75.7h27.8v127H2155.7z"/>
		<path d="M2253.8,224.3h73v24.8h-44.1v25.5h42v24.8h-42v27.1h44.7v24.8h-73.5V224.3z"/>
		<path d="M2464.6,224.3h28.8v81.2c0,15-4.4,26.8-13.1,35.3c-8.7,8.5-20.9,12.8-36.5,12.8c-15.6,0-27.7-4.3-36.5-12.8
			c-8.7-8.5-13.1-20.3-13.1-35.3v-81.2h28.8v82.2c0,7.2,1.8,12.8,5.3,16.6c3.5,3.8,8.7,5.7,15.5,5.7c6.8,0,12-1.9,15.5-5.7
			c3.5-3.8,5.3-9.3,5.3-16.6V224.3z"/>
		<path d="M2651.6,264.5c0,8.5-2.2,16-6.6,22.3c-4.4,6.4-10.5,11.2-18.4,14.5l38.5,50h-35.5l-32.2-44h-5.3v44h-28.8v-127h37.3
			c7.3,0,14,0.8,20.2,2.5c6.2,1.7,11.6,4.1,16.2,7.4c4.6,3.3,8.1,7.5,10.7,12.5C2650.3,251.7,2651.6,257.6,2651.6,264.5z
			 M2623.8,265.1c0-5.7-2.1-9.9-6.2-12.7c-4.1-2.7-9.8-4.1-17.2-4.1h-8.3V284h7c7.7,0,13.8-1.7,18.1-5
			C2621.7,275.7,2623.8,271.1,2623.8,265.1z"/>
		<path d="M2800,313.3c0,5.6-1,10.8-3.1,15.7c-2.1,4.9-5,9.2-8.9,12.8c-3.9,3.6-8.6,6.5-14.1,8.6c-5.5,2.1-11.8,3.1-18.8,3.1
			c-6.4,0-12.9-0.8-19.3-2.3c-6.4-1.5-12.4-3.7-17.9-6.7l5.8-23.8c4.1,2.2,8.7,4,13.9,5.6c5.2,1.6,10.7,2.4,16.7,2.4
			c4.9,0,9-1,12.1-3c3.2-2,4.7-5.2,4.7-9.6c0-3.2-1.4-6.1-4.1-8.7c-2.8-2.6-7.8-5.4-15-8.3c-11.5-4.7-19.9-10.1-25.1-16.1
			c-5.3-6-7.9-13.8-7.9-23.2c0-12.3,3.7-21.7,11.2-28.2c7.4-6.5,17.7-9.7,30.9-9.7c6.7,0,13.1,0.8,19.2,2.4
			c6.1,1.6,11.3,3.7,15.5,6.2l-4.9,23.5c-4.1-2.2-8.6-3.9-13.4-5.2c-4.9-1.3-9.9-2-15-2c-4.3,0-7.8,0.8-10.5,2.4
			c-2.6,1.6-4,4.3-4,8.1c0,1.8,0.2,3.3,0.7,4.6c0.5,1.3,1.3,2.5,2.5,3.6c1.2,1.1,3,2.3,5.2,3.4c2.2,1.1,5,2.5,8.4,4
			c4.9,2.2,9.6,4.5,13.9,6.9c4.3,2.4,8.1,5.2,11.3,8.4c3.2,3.2,5.7,6.8,7.5,10.9C2799.1,303.1,2800,307.9,2800,313.3z"/>
	</g>
</g>
</svg>
