<svg width="580" height="330" viewBox="0 0 580 330" fill="none" xmlns="http://www.w3.org/2000/svg">
<path d="M61.4746 212.287H434.813V278.576H61.4746V212.287Z" fill="#BEF8F0"/>
<g filter="url(#filter0_d_1819_1251)">
<path d="M25.9526 97.0195H152.166L167.015 82.7012H291.638L336.979 128.043L482.284 127.055V239.673L463.458 258.764V317.628H249.743L234.629 302.78H30.1951L11.8994 284.749V260.09L27.5435 248.953V182.399L11.8994 171.263V112.399L25.9526 97.0195Z" fill="#BBF7EF" fill-opacity="0.53" shape-rendering="crispEdges"/>
<path d="M30.9902 180.622L29.543 179.591L15.3467 169.485V113.735L27.4717 100.467H153.558L154.559 99.501L168.405 86.1484H290.21L334.542 130.48L335.562 131.499L337.003 131.489L478.837 130.525V238.259L461.004 256.344L460.011 257.351V314.182H251.154L237.045 300.32L236.039 299.333H31.6084L15.3467 283.306V261.866L29.543 251.762L30.9902 250.73V180.622Z" stroke="#BBF7EF" stroke-width="6.89402" shape-rendering="crispEdges"/>
</g>
<g filter="url(#filter1_d_1819_1251)">
<path d="M42.1642 82.1875H158.567L149.817 91.2028H32.8838L42.1642 82.1875Z" fill="#BBF7EF"/>
</g>
<g filter="url(#filter2_d_1819_1251)">
<path d="M232.267 308.131H34.9655L44.653 317.308H241.443L232.267 308.131Z" fill="#BBF7EF"/>
</g>
<g filter="url(#filter3_d_1819_1251)">
<path d="M304.932 82.1875H330.652L370.425 122.491H345.235L304.932 82.1875Z" fill="#BBF7EF"/>
</g>
<g filter="url(#filter4_d_1819_1251)">
<path d="M342.318 82.1875H368.038L407.812 122.491H382.622L342.318 82.1875Z" fill="#BBF7EF"/>
</g>
<g filter="url(#filter5_d_1819_1251)">
<path d="M379.707 82.1875H405.427L445.2 122.491H420.011L379.707 82.1875Z" fill="#BBF7EF"/>
</g>
<g filter="url(#filter6_d_1819_1251)">
<path d="M417.095 82.1875H442.815L482.588 122.491H457.398L417.095 82.1875Z" fill="#BBF7EF"/>
</g>
<path d="M470.124 315.397H480.729V250.05L470.124 260.785V315.397Z" stroke="#BBF7EF" stroke-width="3.71217"/>
<path d="M21.8926 244.131L14.3887 249.472V181.224L21.8926 186.582V244.131Z" stroke="#BBF7EF" stroke-width="3.71217"/>
<path d="M33.1022 315.744L13.5501 296.619L13.5504 315.743L33.1022 315.744Z" stroke="#BBF7EF" stroke-width="3.18186"/>
<path d="M83.2904 155.564C83.2904 155.889 83.2265 156.191 83.0987 156.47C82.9826 156.749 82.8199 156.993 82.6108 157.202C82.4133 157.399 82.1752 157.556 81.8964 157.672C81.6176 157.788 81.3213 157.847 81.0077 157.847C80.7289 157.847 80.4443 157.794 80.1538 157.69C79.875 157.585 79.6253 157.417 79.4045 157.184L62.8503 139.898V157.498H58.3197V134.444C58.3197 133.979 58.4475 133.561 58.7031 133.19C58.9703 132.806 59.3072 132.522 59.7138 132.336C60.1436 132.161 60.585 132.121 61.0381 132.214C61.4912 132.295 61.8803 132.504 62.2056 132.841L78.7598 150.11V132.51H83.2904V155.564ZM113.088 157.498H108.557V151.364H92.6305V157.498H88.0999V145.004C88.0999 143.18 88.4135 141.501 89.0408 139.968C89.6681 138.435 90.5394 137.116 91.6547 136.012C92.7699 134.909 94.0884 134.049 95.6102 133.433C97.1321 132.818 98.7933 132.51 100.594 132.51H110.805C111.119 132.51 111.415 132.568 111.694 132.684C111.973 132.8 112.217 132.963 112.426 133.172C112.635 133.381 112.798 133.625 112.914 133.904C113.03 134.183 113.088 134.479 113.088 134.793V157.498ZM92.6305 146.834H108.557V137.041H100.594C100.455 137.041 100.158 137.064 99.7052 137.11C99.2638 137.145 98.7468 137.244 98.1544 137.406C97.5735 137.569 96.9578 137.819 96.3073 138.156C95.6567 138.493 95.0584 138.957 94.5124 139.55C93.9664 140.142 93.5134 140.886 93.1532 141.78C92.8047 142.663 92.6305 143.738 92.6305 145.004V146.834ZM147.451 157.498H142.886V142.617L134.852 156.749C134.655 157.109 134.376 157.382 134.016 157.568C133.667 157.754 133.29 157.847 132.883 157.847C132.488 157.847 132.117 157.754 131.768 157.568C131.431 157.382 131.164 157.109 130.967 156.749L122.899 142.617V157.498H118.368V134.444C118.368 133.921 118.519 133.457 118.821 133.05C119.135 132.644 119.541 132.371 120.041 132.231C120.285 132.173 120.529 132.156 120.773 132.179C121.017 132.19 121.249 132.243 121.47 132.336C121.702 132.417 121.911 132.539 122.097 132.702C122.283 132.853 122.44 133.038 122.567 133.259L132.883 151.19L143.199 133.259C143.466 132.818 143.832 132.504 144.297 132.318C144.773 132.132 145.267 132.103 145.778 132.231C146.266 132.371 146.667 132.644 146.981 133.05C147.294 133.457 147.451 133.921 147.451 134.444V157.498ZM173.276 147.287H158.969V142.721H173.276V147.287ZM175.314 157.498H158.969C158.342 157.498 157.657 157.388 156.913 157.167C156.17 156.946 155.478 156.586 154.839 156.087C154.212 155.575 153.684 154.919 153.254 154.118C152.835 153.304 152.626 152.311 152.626 151.138V134.793C152.626 134.479 152.684 134.183 152.801 133.904C152.917 133.625 153.074 133.381 153.271 133.172C153.48 132.963 153.724 132.8 154.003 132.684C154.282 132.568 154.584 132.51 154.909 132.51H175.314V137.041H157.157V151.138C157.157 151.73 157.314 152.183 157.627 152.497C157.941 152.811 158.4 152.967 159.004 152.967H175.314V157.498Z" fill="#F7F7F7"/>
<path d="M70.365 172.86H65.23V183.381H62.8999V172.86H57.7559V170.53H70.365V172.86ZM82.6515 178.129H75.2939V175.781H82.6515V178.129ZM83.7 183.381H75.2939C74.9713 183.381 74.6188 183.324 74.2364 183.211C73.8541 183.097 73.4986 182.912 73.17 182.655C72.8474 182.392 72.5755 182.055 72.3545 181.642C72.1394 181.224 72.0319 180.713 72.0319 180.11V171.704C72.0319 171.542 72.0617 171.39 72.1215 171.247C72.1812 171.103 72.2619 170.978 72.3635 170.87C72.471 170.763 72.5965 170.679 72.7398 170.619C72.8832 170.56 73.0386 170.53 73.2059 170.53H83.7V172.86H74.3619V180.11C74.3619 180.415 74.4426 180.648 74.6039 180.809C74.7652 180.97 75.0012 181.051 75.3118 181.051H83.7V183.381ZM98.5674 183.381H96.2374V180.226H88.0464V183.381H85.7163V176.955C85.7163 176.017 85.8777 175.154 86.2003 174.365C86.5229 173.577 86.971 172.899 87.5445 172.331C88.1181 171.764 88.7962 171.321 89.5788 171.005C90.3615 170.688 91.2158 170.53 92.1419 170.53H97.3934C97.5547 170.53 97.7071 170.56 97.8505 170.619C97.9938 170.679 98.1193 170.763 98.2268 170.87C98.3344 170.978 98.418 171.103 98.4778 171.247C98.5375 171.39 98.5674 171.542 98.5674 171.704V183.381ZM88.0464 177.896H96.2374V172.86H92.1419C92.0702 172.86 91.9178 172.872 91.6848 172.896C91.4578 172.914 91.1919 172.964 90.8872 173.048C90.5885 173.132 90.2719 173.26 89.9373 173.433C89.6027 173.607 89.295 173.846 89.0142 174.15C88.7334 174.455 88.5004 174.837 88.3152 175.297C88.136 175.751 88.0464 176.304 88.0464 176.955V177.896ZM116.24 183.381H113.892V175.728L109.761 182.996C109.659 183.181 109.516 183.321 109.33 183.417C109.151 183.512 108.957 183.56 108.748 183.56C108.545 183.56 108.354 183.512 108.174 183.417C108.001 183.321 107.864 183.181 107.762 182.996L103.613 175.728V183.381H101.283V171.525C101.283 171.256 101.36 171.017 101.516 170.808C101.677 170.599 101.886 170.458 102.143 170.386C102.269 170.357 102.394 170.348 102.519 170.36C102.645 170.366 102.764 170.392 102.878 170.44C102.997 170.482 103.105 170.545 103.201 170.628C103.296 170.706 103.377 170.802 103.443 170.915L108.748 180.137L114.053 170.915C114.191 170.688 114.379 170.527 114.618 170.431C114.863 170.336 115.117 170.321 115.379 170.386C115.63 170.458 115.837 170.599 115.998 170.808C116.159 171.017 116.24 171.256 116.24 171.525V183.381ZM120.989 182.207C120.989 182.368 120.957 182.521 120.891 182.664C120.831 182.801 120.748 182.924 120.64 183.031C120.538 183.133 120.416 183.214 120.273 183.273C120.135 183.333 119.989 183.363 119.833 183.363C119.672 183.363 119.52 183.333 119.376 183.273C119.239 183.214 119.117 183.133 119.009 183.031C118.907 182.924 118.827 182.801 118.767 182.664C118.707 182.521 118.677 182.368 118.677 182.207C118.677 182.052 118.707 181.905 118.767 181.768C118.827 181.624 118.907 181.502 119.009 181.4C119.117 181.293 119.239 181.209 119.376 181.149C119.52 181.084 119.672 181.051 119.833 181.051C119.989 181.051 120.135 181.084 120.273 181.149C120.416 181.209 120.538 181.293 120.64 181.4C120.748 181.502 120.831 181.624 120.891 181.768C120.957 181.905 120.989 182.052 120.989 182.207ZM120.989 174.867C120.989 175.029 120.957 175.181 120.891 175.324C120.831 175.462 120.748 175.584 120.64 175.692C120.538 175.793 120.416 175.874 120.273 175.934C120.135 175.993 119.989 176.023 119.833 176.023C119.672 176.023 119.52 175.993 119.376 175.934C119.239 175.874 119.117 175.793 119.009 175.692C118.907 175.584 118.827 175.462 118.767 175.324C118.707 175.181 118.677 175.029 118.677 174.867C118.677 174.712 118.707 174.566 118.767 174.428C118.827 174.285 118.907 174.162 119.009 174.061C119.117 173.953 119.239 173.87 119.376 173.81C119.52 173.744 119.672 173.711 119.833 173.711C119.989 173.711 120.135 173.744 120.273 173.81C120.416 173.87 120.538 173.953 120.64 174.061C120.748 174.162 120.831 174.285 120.891 174.428C120.957 174.566 120.989 174.712 120.989 174.867ZM142.211 178.004C142.211 178.787 142.073 179.506 141.798 180.164C141.53 180.821 141.156 181.388 140.678 181.866C140.2 182.338 139.633 182.709 138.976 182.978C138.318 183.246 137.604 183.381 136.834 183.381H130.543C130.375 183.381 130.22 183.351 130.077 183.291C129.933 183.231 129.808 183.151 129.7 183.049C129.599 182.942 129.518 182.816 129.458 182.673C129.399 182.53 129.369 182.374 129.369 182.207V171.704C129.369 171.542 129.399 171.39 129.458 171.247C129.518 171.103 129.599 170.978 129.7 170.87C129.808 170.763 129.933 170.679 130.077 170.619C130.22 170.56 130.375 170.53 130.543 170.53H136.834C137.604 170.53 138.318 170.664 138.976 170.933C139.633 171.202 140.2 171.575 140.678 172.053C141.156 172.525 141.53 173.093 141.798 173.756C142.073 174.413 142.211 175.13 142.211 175.907V178.004ZM139.881 175.907C139.881 175.453 139.806 175.038 139.657 174.661C139.513 174.285 139.307 173.965 139.038 173.702C138.769 173.433 138.447 173.227 138.07 173.084C137.7 172.935 137.288 172.86 136.834 172.86H131.699V181.051H136.834C137.288 181.051 137.7 180.979 138.07 180.836C138.447 180.686 138.769 180.48 139.038 180.217C139.307 179.949 139.513 179.629 139.657 179.258C139.806 178.882 139.881 178.464 139.881 178.004V175.907ZM155.062 178.129H147.704V175.781H155.062V178.129ZM156.11 183.381H147.704C147.382 183.381 147.029 183.324 146.647 183.211C146.264 183.097 145.909 182.912 145.58 182.655C145.258 182.392 144.986 182.055 144.765 181.642C144.55 181.224 144.442 180.713 144.442 180.11V171.704C144.442 171.542 144.472 171.39 144.532 171.247C144.592 171.103 144.672 170.978 144.774 170.87C144.881 170.763 145.007 170.679 145.15 170.619C145.294 170.56 145.449 170.53 145.616 170.53H156.11V172.86H146.772V180.11C146.772 180.415 146.853 180.648 147.014 180.809C147.175 180.97 147.411 181.051 147.722 181.051H156.11V183.381ZM170.664 179.599C170.664 180.059 170.604 180.474 170.485 180.845C170.371 181.209 170.219 181.532 170.028 181.813C169.837 182.093 169.613 182.332 169.356 182.53C169.099 182.727 168.833 182.888 168.558 183.013C168.283 183.139 168.002 183.231 167.716 183.291C167.435 183.351 167.169 183.381 166.918 183.381H157.93V181.051H166.918C167.366 181.051 167.713 180.919 167.958 180.657C168.209 180.394 168.334 180.041 168.334 179.599C168.334 179.384 168.301 179.187 168.235 179.008C168.17 178.828 168.074 178.673 167.949 178.542C167.829 178.41 167.68 178.309 167.501 178.237C167.327 178.165 167.133 178.129 166.918 178.129H161.559C161.183 178.129 160.776 178.064 160.34 177.932C159.904 177.795 159.498 177.577 159.121 177.278C158.751 176.979 158.44 176.588 158.189 176.104C157.944 175.62 157.822 175.029 157.822 174.33C157.822 173.631 157.944 173.042 158.189 172.564C158.44 172.08 158.751 171.689 159.121 171.39C159.498 171.085 159.904 170.867 160.34 170.736C160.776 170.599 161.183 170.53 161.559 170.53H169.49V172.86H161.559C161.117 172.86 160.77 172.994 160.519 173.263C160.274 173.532 160.152 173.887 160.152 174.33C160.152 174.778 160.274 175.133 160.519 175.396C160.77 175.653 161.117 175.781 161.559 175.781H166.918H166.936C167.187 175.787 167.453 175.823 167.734 175.889C168.014 175.949 168.292 176.044 168.567 176.176C168.848 176.307 169.114 176.474 169.365 176.678C169.616 176.875 169.837 177.114 170.028 177.394C170.225 177.675 170.38 177.998 170.494 178.362C170.607 178.727 170.664 179.139 170.664 179.599ZM174.948 183.381H172.618V170.53H174.948V183.381ZM190.353 182.207C190.353 182.374 190.323 182.53 190.263 182.673C190.203 182.816 190.12 182.942 190.012 183.049C189.911 183.151 189.788 183.231 189.645 183.291C189.501 183.351 189.346 183.381 189.179 183.381H180.773C180.558 183.381 180.325 183.357 180.074 183.309C179.829 183.255 179.584 183.175 179.339 183.067C179.1 182.96 178.87 182.822 178.649 182.655C178.428 182.482 178.231 182.276 178.057 182.037C177.89 181.792 177.756 181.511 177.654 181.194C177.553 180.872 177.502 180.51 177.502 180.11V173.801C177.502 173.586 177.526 173.356 177.573 173.111C177.627 172.86 177.708 172.615 177.815 172.376C177.923 172.131 178.063 171.898 178.237 171.677C178.41 171.456 178.616 171.262 178.855 171.094C179.1 170.921 179.381 170.784 179.697 170.682C180.014 170.581 180.373 170.53 180.773 170.53H190.245V172.86H180.773C180.468 172.86 180.235 172.941 180.074 173.102C179.912 173.263 179.832 173.502 179.832 173.819V180.11C179.832 180.409 179.912 180.642 180.074 180.809C180.241 180.97 180.474 181.051 180.773 181.051H188.023V178.129H181.821V175.781H189.179C189.346 175.781 189.501 175.814 189.645 175.88C189.788 175.94 189.911 176.023 190.012 176.131C190.12 176.238 190.203 176.364 190.263 176.507C190.323 176.645 190.353 176.794 190.353 176.955V182.207ZM205.624 182.386C205.624 182.553 205.591 182.709 205.525 182.852C205.465 182.996 205.382 183.121 205.274 183.229C205.172 183.33 205.05 183.411 204.907 183.47C204.763 183.53 204.611 183.56 204.45 183.56C204.306 183.56 204.16 183.533 204.01 183.479C203.867 183.426 203.739 183.339 203.625 183.22L195.111 174.33V183.381H192.781V171.525C192.781 171.286 192.847 171.071 192.979 170.879C193.116 170.682 193.289 170.536 193.498 170.44C193.719 170.351 193.946 170.33 194.179 170.377C194.412 170.419 194.613 170.527 194.78 170.7L203.293 179.581V170.53H205.624V182.386Z" fill="#F7F7F7"/>
<path d="M131.763 238.767H134.226L132.977 241.801L127.98 258.859H124.233L118.523 238.767H120.95L126.125 257.789L131.763 238.767ZM145.003 238.767H147.501L141.577 258.859H137.83L132.977 241.801L131.763 238.767H134.226L139.686 257.789L145.003 238.767ZM150.489 258.859V238.767H163.943V240.802H152.737V247.725H161.623V249.652H152.737V256.932H164.3V258.859H150.489ZM167.673 258.859V238.767H174.917C175.607 238.767 176.309 238.803 177.023 238.874C177.76 238.946 178.45 239.089 179.093 239.303C179.759 239.493 180.353 239.79 180.877 240.195C181.4 240.576 181.805 241.087 182.09 241.729C182.4 242.348 182.554 243.133 182.554 244.085C182.554 244.846 182.4 245.56 182.09 246.226C181.805 246.892 181.269 247.428 180.484 247.832C179.723 248.213 178.617 248.427 177.165 248.474V248.617C178.855 248.617 180.151 248.855 181.055 249.331C181.959 249.783 182.578 250.378 182.911 251.115C183.268 251.853 183.446 252.674 183.446 253.578C183.446 254.529 183.28 255.326 182.947 255.969C182.614 256.611 182.162 257.123 181.591 257.503C181.043 257.884 180.413 258.169 179.699 258.36C179.009 258.55 178.272 258.681 177.487 258.752C176.725 258.824 176 258.859 175.31 258.859H167.673ZM169.957 256.932H175.131C176.226 256.932 177.213 256.861 178.093 256.718C178.997 256.552 179.711 256.219 180.235 255.719C180.782 255.195 181.055 254.398 181.055 253.328C181.055 252.21 180.77 251.377 180.199 250.83C179.628 250.283 178.866 249.914 177.915 249.723C176.963 249.533 175.904 249.438 174.739 249.438H169.957V256.932ZM169.957 247.582H174.667C175.785 247.582 176.761 247.511 177.594 247.368C178.426 247.225 179.069 246.928 179.521 246.476C179.997 246 180.235 245.274 180.235 244.299C180.235 243.181 179.973 242.372 179.449 241.872C178.95 241.373 178.272 241.063 177.415 240.944C176.583 240.802 175.678 240.73 174.703 240.73H169.957V247.582ZM194.299 259.323C193.252 259.323 192.217 259.192 191.194 258.931C190.195 258.669 189.279 258.276 188.447 257.753C187.638 257.206 186.983 256.504 186.484 255.648C186.008 254.791 185.77 253.78 185.77 252.614H188.054C188.054 252.685 188.078 252.888 188.125 253.221C188.173 253.554 188.292 253.946 188.482 254.398C188.696 254.85 189.029 255.291 189.481 255.719C189.933 256.147 190.564 256.504 191.373 256.79C192.182 257.075 193.217 257.218 194.478 257.218C195.525 257.218 196.381 257.099 197.047 256.861C197.737 256.599 198.261 256.29 198.617 255.933C198.998 255.552 199.26 255.184 199.403 254.827C199.545 254.446 199.617 254.137 199.617 253.899C199.64 253.066 199.414 252.4 198.939 251.9C198.463 251.377 197.82 250.972 197.011 250.687C196.226 250.378 195.358 250.104 194.406 249.866C193.455 249.628 192.503 249.378 191.551 249.117C190.623 248.831 189.767 248.474 188.982 248.046C188.197 247.618 187.578 247.047 187.126 246.333C186.674 245.596 186.472 244.668 186.519 243.549C186.567 242.479 186.936 241.563 187.626 240.802C188.316 240.04 189.244 239.457 190.409 239.053C191.575 238.625 192.884 238.411 194.335 238.411C195.715 238.411 196.976 238.66 198.118 239.16C199.26 239.636 200.176 240.361 200.866 241.337C201.556 242.312 201.877 243.526 201.829 244.977H199.581C199.629 244.073 199.462 243.335 199.081 242.764C198.701 242.193 198.213 241.753 197.618 241.444C197.023 241.111 196.405 240.885 195.762 240.766C195.144 240.623 194.597 240.552 194.121 240.552C192.622 240.552 191.385 240.849 190.409 241.444C189.458 242.039 188.958 242.812 188.91 243.764C188.91 244.596 189.148 245.262 189.624 245.762C190.1 246.262 190.731 246.666 191.516 246.975C192.301 247.261 193.169 247.511 194.121 247.725C195.096 247.939 196.048 248.189 196.976 248.474C197.927 248.736 198.796 249.081 199.581 249.509C200.366 249.938 200.985 250.52 201.437 251.258C201.889 251.996 202.091 252.935 202.043 254.077C201.996 255.195 201.627 256.147 200.937 256.932C200.247 257.694 199.331 258.288 198.189 258.717C197.047 259.121 195.751 259.323 194.299 259.323ZM208.267 258.217V239.41H210.551V258.217H208.267ZM205.519 258.859V256.861H213.299V258.859H205.519ZM205.519 240.766V238.767H213.299V240.766H205.519ZM224.747 239.41V258.859H222.463V239.41H224.747ZM216.004 240.766V238.767H231.171V240.766H216.004ZM233.957 258.859V238.767H247.411V240.802H236.205V247.725H245.091V249.652H236.205V256.932H247.768V258.859H233.957ZM267.996 259.359C264.808 259.359 262.381 258.419 260.716 256.54C259.05 254.636 258.218 252.079 258.218 248.867C258.218 246.749 258.574 244.918 259.288 243.371C260.026 241.801 261.108 240.587 262.536 239.731C263.987 238.851 265.807 238.411 267.996 238.411C271.184 238.411 273.599 239.362 275.24 241.266C276.882 243.145 277.703 245.679 277.703 248.867C277.703 250.937 277.334 252.769 276.597 254.363C275.883 255.933 274.8 257.158 273.349 258.039C271.921 258.919 270.137 259.359 267.996 259.359ZM267.96 257.146C269.626 257.146 271.006 256.801 272.1 256.111C273.218 255.421 274.051 254.458 274.598 253.221C275.169 251.96 275.455 250.509 275.455 248.867C275.455 247.225 275.181 245.786 274.634 244.549C274.11 243.288 273.29 242.312 272.171 241.622C271.053 240.909 269.649 240.552 267.96 240.552C265.51 240.552 263.642 241.289 262.357 242.764C261.096 244.239 260.466 246.274 260.466 248.867C260.466 250.485 260.739 251.924 261.287 253.185C261.834 254.422 262.655 255.398 263.749 256.111C264.867 256.801 266.271 257.146 267.96 257.146ZM283.788 258.859H281.504V238.767H295.386V240.802H283.788V247.225H292.924V249.152H283.788V258.859ZM300.97 258.859H298.686V238.767H312.568V240.802H300.97V247.225H310.106V249.152H300.97V258.859ZM318.396 258.217V239.41H320.68V258.217H318.396ZM315.648 258.859V256.861H323.428V258.859H315.648ZM315.648 240.766V238.767H323.428V240.766H315.648ZM336.446 259.216C334.615 259.216 332.949 258.836 331.45 258.074C329.975 257.289 328.797 256.123 327.917 254.577C327.061 253.03 326.644 251.127 326.668 248.867C326.668 246.559 327.084 244.632 327.917 243.086C328.774 241.539 329.951 240.373 331.45 239.588C332.949 238.803 334.662 238.411 336.589 238.411C338.231 238.411 339.682 238.708 340.943 239.303C342.204 239.897 343.227 240.754 344.012 241.872C344.821 242.967 345.368 244.287 345.654 245.833H343.263C343.049 244.62 342.62 243.633 341.978 242.871C341.336 242.086 340.551 241.503 339.623 241.123C338.695 240.742 337.684 240.552 336.589 240.552C334.21 240.552 332.342 241.254 330.986 242.657C329.63 244.061 328.952 246.083 328.952 248.724C328.952 251.46 329.618 253.542 330.951 254.969C332.283 256.373 334.127 257.075 336.482 257.075C337.672 257.075 338.742 256.885 339.694 256.504C340.669 256.1 341.478 255.505 342.121 254.72C342.763 253.935 343.179 252.959 343.37 251.793H345.797C345.535 253.316 345 254.636 344.191 255.755C343.382 256.849 342.323 257.705 341.014 258.324C339.73 258.919 338.207 259.216 336.446 259.216ZM349.069 258.859V238.767H362.523V240.802H351.318V247.725H360.204V249.652H351.318V256.932H362.88V258.859H349.069ZM366.325 258.859V238.767H372.962C374.675 238.767 376.115 238.946 377.281 239.303C378.47 239.636 379.374 240.219 379.993 241.051C380.635 241.884 380.956 243.038 380.956 244.513C380.956 245.465 380.778 246.345 380.421 247.154C380.088 247.939 379.565 248.57 378.851 249.045C378.161 249.521 377.293 249.759 376.246 249.759C377.102 249.759 377.768 249.926 378.244 250.259C378.72 250.568 379.065 250.984 379.279 251.508C379.493 252.031 379.636 252.59 379.707 253.185C379.779 253.78 379.826 254.363 379.85 254.934C379.874 255.505 379.922 256.004 379.993 256.433C380.088 256.861 380.278 257.158 380.564 257.325C380.849 257.491 381.278 257.468 381.849 257.253V258.752C381.634 258.943 381.301 259.073 380.849 259.145C380.421 259.24 379.969 259.216 379.493 259.073C379.017 258.931 378.613 258.61 378.28 258.11C377.971 257.61 377.816 256.873 377.816 255.897C377.816 254.708 377.768 253.744 377.673 253.007C377.578 252.245 377.364 251.662 377.031 251.258C376.722 250.854 376.234 250.568 375.568 250.401C374.901 250.235 374.009 250.152 372.891 250.152C371.773 250.152 370.357 250.164 368.644 250.187V258.859H366.325ZM368.644 248.439H373.319C374.58 248.439 375.615 248.332 376.424 248.117C377.257 247.903 377.875 247.535 378.28 247.011C378.684 246.464 378.887 245.679 378.887 244.656C378.887 243.442 378.637 242.562 378.137 242.015C377.638 241.468 376.912 241.123 375.96 240.98C375.032 240.813 373.878 240.73 372.499 240.73H368.644V248.439Z" fill="#006793"/>
<g filter="url(#filter7_d_1819_1251)">
<path d="M554.112 10.6973C559.97 10.6974 564.718 15.4462 564.718 21.3037C564.718 27.1611 559.97 31.909 554.112 31.9092C548.255 31.9092 543.506 27.1612 543.506 21.3037C543.506 15.4461 548.255 10.6973 554.112 10.6973ZM554.111 16.002C551.183 16.0021 548.809 18.3762 548.809 21.3047C548.809 24.2334 551.183 26.6082 554.111 26.6084C557.04 26.6084 559.415 24.2335 559.415 21.3047C559.415 18.376 557.04 16.002 554.111 16.002Z" fill="#BBF7EF"/>
</g>
<g filter="url(#filter8_d_1819_1251)">
<path d="M554.677 29.1738V72.394L475.145 134.197" stroke="#C7F8F2" stroke-width="6.89402"/>
</g>
<path d="M531.311 0.619141V12.0208" stroke="#C8F9F2" stroke-width="4.24248"/>
<path d="M576.915 0.619141V11.7556" stroke="#C8F9F2" stroke-width="4.24248"/>
<path d="M531.311 41.9863V31.3801" stroke="#C8F9F2" stroke-width="4.24248"/>
<path d="M576.915 41.9863V31.115" stroke="#C8F9F2" stroke-width="4.24248"/>
<path d="M540.855 2.74414L529.189 2.74414" stroke="#C8F9F2" stroke-width="4.24248"/>
<path d="M567.899 2.74414L579.036 2.74414" stroke="#C8F9F2" stroke-width="4.24248"/>
<path d="M540.591 39.8652H529.189" stroke="#C8F9F2" stroke-width="4.24248"/>
<path d="M567.899 39.8652H579.036" stroke="#C8F9F2" stroke-width="4.24248"/>
<defs>
<filter id="filter0_d_1819_1251" x="6.2914" y="77.0932" width="481.601" height="246.144" filterUnits="userSpaceOnUse" color-interpolation-filters="sRGB">
<feFlood flood-opacity="0" result="BackgroundImageFix"/>
<feColorMatrix in="SourceAlpha" type="matrix" values="0 0 0 0 0 0 0 0 0 0 0 0 0 0 0 0 0 0 127 0" result="hardAlpha"/>
<feOffset/>
<feGaussianBlur stdDeviation="2.80401"/>
<feComposite in2="hardAlpha" operator="out"/>
<feColorMatrix type="matrix" values="0 0 0 0 1 0 0 0 0 1 0 0 0 0 1 0 0 0 0.65 0"/>
<feBlend mode="normal" in2="BackgroundImageFix" result="effect1_dropShadow_1819_1251"/>
<feBlend mode="normal" in="SourceGraphic" in2="effect1_dropShadow_1819_1251" result="shape"/>
</filter>
<filter id="filter1_d_1819_1251" x="27.2758" y="76.5795" width="136.9" height="20.2317" filterUnits="userSpaceOnUse" color-interpolation-filters="sRGB">
<feFlood flood-opacity="0" result="BackgroundImageFix"/>
<feColorMatrix in="SourceAlpha" type="matrix" values="0 0 0 0 0 0 0 0 0 0 0 0 0 0 0 0 0 0 127 0" result="hardAlpha"/>
<feOffset/>
<feGaussianBlur stdDeviation="2.80401"/>
<feComposite in2="hardAlpha" operator="out"/>
<feColorMatrix type="matrix" values="0 0 0 0 1 0 0 0 0 1 0 0 0 0 1 0 0 0 0.69 0"/>
<feBlend mode="normal" in2="BackgroundImageFix" result="effect1_dropShadow_1819_1251"/>
<feBlend mode="normal" in="SourceGraphic" in2="effect1_dropShadow_1819_1251" result="shape"/>
</filter>
<filter id="filter2_d_1819_1251" x="29.3578" y="302.523" width="217.694" height="20.3918" filterUnits="userSpaceOnUse" color-interpolation-filters="sRGB">
<feFlood flood-opacity="0" result="BackgroundImageFix"/>
<feColorMatrix in="SourceAlpha" type="matrix" values="0 0 0 0 0 0 0 0 0 0 0 0 0 0 0 0 0 0 127 0" result="hardAlpha"/>
<feOffset/>
<feGaussianBlur stdDeviation="2.80401"/>
<feComposite in2="hardAlpha" operator="out"/>
<feColorMatrix type="matrix" values="0 0 0 0 1 0 0 0 0 1 0 0 0 0 1 0 0 0 0.66 0"/>
<feBlend mode="normal" in2="BackgroundImageFix" result="effect1_dropShadow_1819_1251"/>
<feBlend mode="normal" in="SourceGraphic" in2="effect1_dropShadow_1819_1251" result="shape"/>
</filter>
<filter id="filter3_d_1819_1251" x="299.324" y="76.5795" width="76.7092" height="51.5188" filterUnits="userSpaceOnUse" color-interpolation-filters="sRGB">
<feFlood flood-opacity="0" result="BackgroundImageFix"/>
<feColorMatrix in="SourceAlpha" type="matrix" values="0 0 0 0 0 0 0 0 0 0 0 0 0 0 0 0 0 0 127 0" result="hardAlpha"/>
<feOffset/>
<feGaussianBlur stdDeviation="2.80401"/>
<feComposite in2="hardAlpha" operator="out"/>
<feColorMatrix type="matrix" values="0 0 0 0 1 0 0 0 0 1 0 0 0 0 1 0 0 0 0.66 0"/>
<feBlend mode="normal" in2="BackgroundImageFix" result="effect1_dropShadow_1819_1251"/>
<feBlend mode="normal" in="SourceGraphic" in2="effect1_dropShadow_1819_1251" result="shape"/>
</filter>
<filter id="filter4_d_1819_1251" x="336.71" y="76.5795" width="76.7092" height="51.5188" filterUnits="userSpaceOnUse" color-interpolation-filters="sRGB">
<feFlood flood-opacity="0" result="BackgroundImageFix"/>
<feColorMatrix in="SourceAlpha" type="matrix" values="0 0 0 0 0 0 0 0 0 0 0 0 0 0 0 0 0 0 127 0" result="hardAlpha"/>
<feOffset/>
<feGaussianBlur stdDeviation="2.80401"/>
<feComposite in2="hardAlpha" operator="out"/>
<feColorMatrix type="matrix" values="0 0 0 0 1 0 0 0 0 1 0 0 0 0 1 0 0 0 0.66 0"/>
<feBlend mode="normal" in2="BackgroundImageFix" result="effect1_dropShadow_1819_1251"/>
<feBlend mode="normal" in="SourceGraphic" in2="effect1_dropShadow_1819_1251" result="shape"/>
</filter>
<filter id="filter5_d_1819_1251" x="374.099" y="76.5795" width="76.7092" height="51.5188" filterUnits="userSpaceOnUse" color-interpolation-filters="sRGB">
<feFlood flood-opacity="0" result="BackgroundImageFix"/>
<feColorMatrix in="SourceAlpha" type="matrix" values="0 0 0 0 0 0 0 0 0 0 0 0 0 0 0 0 0 0 127 0" result="hardAlpha"/>
<feOffset/>
<feGaussianBlur stdDeviation="2.80401"/>
<feComposite in2="hardAlpha" operator="out"/>
<feColorMatrix type="matrix" values="0 0 0 0 1 0 0 0 0 1 0 0 0 0 1 0 0 0 0.66 0"/>
<feBlend mode="normal" in2="BackgroundImageFix" result="effect1_dropShadow_1819_1251"/>
<feBlend mode="normal" in="SourceGraphic" in2="effect1_dropShadow_1819_1251" result="shape"/>
</filter>
<filter id="filter6_d_1819_1251" x="411.487" y="76.5795" width="76.7092" height="51.5188" filterUnits="userSpaceOnUse" color-interpolation-filters="sRGB">
<feFlood flood-opacity="0" result="BackgroundImageFix"/>
<feColorMatrix in="SourceAlpha" type="matrix" values="0 0 0 0 0 0 0 0 0 0 0 0 0 0 0 0 0 0 127 0" result="hardAlpha"/>
<feOffset/>
<feGaussianBlur stdDeviation="2.80401"/>
<feComposite in2="hardAlpha" operator="out"/>
<feColorMatrix type="matrix" values="0 0 0 0 1 0 0 0 0 1 0 0 0 0 1 0 0 0 0.66 0"/>
<feBlend mode="normal" in2="BackgroundImageFix" result="effect1_dropShadow_1819_1251"/>
<feBlend mode="normal" in="SourceGraphic" in2="effect1_dropShadow_1819_1251" result="shape"/>
</filter>
<filter id="filter7_d_1819_1251" x="537.898" y="5.08925" width="32.4279" height="32.4289" filterUnits="userSpaceOnUse" color-interpolation-filters="sRGB">
<feFlood flood-opacity="0" result="BackgroundImageFix"/>
<feColorMatrix in="SourceAlpha" type="matrix" values="0 0 0 0 0 0 0 0 0 0 0 0 0 0 0 0 0 0 127 0" result="hardAlpha"/>
<feOffset/>
<feGaussianBlur stdDeviation="2.80401"/>
<feComposite in2="hardAlpha" operator="out"/>
<feColorMatrix type="matrix" values="0 0 0 0 1 0 0 0 0 1 0 0 0 0 1 0 0 0 0.7 0"/>
<feBlend mode="normal" in2="BackgroundImageFix" result="effect1_dropShadow_1819_1251"/>
<feBlend mode="normal" in="SourceGraphic" in2="effect1_dropShadow_1819_1251" result="shape"/>
</filter>
<filter id="filter8_d_1819_1251" x="467.422" y="23.5658" width="96.3098" height="118.96" filterUnits="userSpaceOnUse" color-interpolation-filters="sRGB">
<feFlood flood-opacity="0" result="BackgroundImageFix"/>
<feColorMatrix in="SourceAlpha" type="matrix" values="0 0 0 0 0 0 0 0 0 0 0 0 0 0 0 0 0 0 127 0" result="hardAlpha"/>
<feOffset/>
<feGaussianBlur stdDeviation="2.80401"/>
<feComposite in2="hardAlpha" operator="out"/>
<feColorMatrix type="matrix" values="0 0 0 0 1 0 0 0 0 1 0 0 0 0 1 0 0 0 0.7 0"/>
<feBlend mode="normal" in2="BackgroundImageFix" result="effect1_dropShadow_1819_1251"/>
<feBlend mode="normal" in="SourceGraphic" in2="effect1_dropShadow_1819_1251" result="shape"/>
</filter>
</defs>
</svg>
