<svg width="587" height="312" viewBox="0 0 587 312" fill="none" xmlns="http://www.w3.org/2000/svg">
<path d="M159.579 194.525H532.917V260.814H159.579V194.525Z" fill="#BEF8F0"/>
<g filter="url(#filter0_d_1819_1219)">
<path d="M124.359 78.752H250.573L265.421 64.4336H390.044L435.385 109.775H580.69V221.405L561.864 240.496V299.361H348.149L333.036 284.512H128.601L110.306 266.482V241.822L125.95 230.686V164.132L110.306 152.995V94.1309L124.359 78.752Z" fill="#BBF7EF" fill-opacity="0.53" shape-rendering="crispEdges"/>
<path d="M129.396 162.354L127.949 161.323L113.753 151.218V95.4678L125.878 82.1992H251.964L252.965 81.2334L266.812 67.8809H388.616L432.948 112.213L433.958 113.222H577.243V219.991L559.41 238.076L558.417 239.083V295.914H349.561L335.451 282.053L334.445 281.065H130.015L113.753 265.038V243.599L127.949 233.494L129.396 232.463V162.354Z" stroke="#BBF7EF" stroke-width="6.89402" shape-rendering="crispEdges"/>
</g>
<g filter="url(#filter1_d_1819_1219)">
<path d="M140.268 64.4336H256.671L247.921 73.4489H130.988L140.268 64.4336Z" fill="#BBF7EF"/>
</g>
<g filter="url(#filter2_d_1819_1219)">
<path d="M330.369 290.373H133.068L142.756 299.55H339.546L330.369 290.373Z" fill="#BBF7EF"/>
</g>
<g filter="url(#filter3_d_1819_1219)">
<path d="M403.037 64.4336H428.757L468.53 104.737H443.341L403.037 64.4336Z" fill="#BBF7EF"/>
</g>
<g filter="url(#filter4_d_1819_1219)">
<path d="M440.422 64.4336H466.142L505.915 104.737H480.725L440.422 64.4336Z" fill="#BBF7EF"/>
</g>
<g filter="url(#filter5_d_1819_1219)">
<path d="M477.811 64.4336H503.531L543.304 104.737H518.114L477.811 64.4336Z" fill="#BBF7EF"/>
</g>
<g filter="url(#filter6_d_1819_1219)">
<path d="M515.197 64.4336H540.917L580.69 104.737H555.501L515.197 64.4336Z" fill="#BBF7EF"/>
</g>
<path d="M568.229 297.636H578.834V232.288L568.229 243.023V297.636Z" stroke="#BBF7EF" stroke-width="3.71217"/>
<path d="M119.997 226.371L112.493 231.712V163.464L119.997 168.822V226.371Z" stroke="#BBF7EF" stroke-width="3.71217"/>
<path d="M131.205 297.982L111.653 278.857L111.653 297.982L131.205 297.982Z" stroke="#BBF7EF" stroke-width="3.18186"/>
<path d="M181.394 137.802C181.394 138.127 181.33 138.429 181.202 138.708C181.086 138.987 180.923 139.231 180.714 139.44C180.517 139.638 180.279 139.794 180 139.911C179.721 140.027 179.425 140.085 179.111 140.085C178.832 140.085 178.548 140.033 178.257 139.928C177.979 139.823 177.729 139.655 177.508 139.423L160.954 122.137V139.736H156.423V116.682C156.423 116.218 156.551 115.8 156.807 115.428C157.074 115.044 157.411 114.76 157.817 114.574C158.247 114.4 158.689 114.359 159.142 114.452C159.595 114.533 159.984 114.742 160.309 115.079L176.863 132.348V114.748H181.394V137.802ZM211.191 139.736H206.661V133.603H190.734V139.736H186.203V127.242C186.203 125.418 186.517 123.74 187.144 122.206C187.772 120.673 188.643 119.354 189.758 118.251C190.873 117.147 192.192 116.287 193.714 115.672C195.236 115.056 196.897 114.748 198.697 114.748H208.909C209.222 114.748 209.519 114.806 209.797 114.922C210.076 115.039 210.32 115.201 210.529 115.41C210.738 115.619 210.901 115.863 211.017 116.142C211.133 116.421 211.191 116.717 211.191 117.031V139.736ZM190.734 129.072H206.661V119.279H198.697C198.558 119.279 198.262 119.302 197.809 119.349C197.367 119.383 196.85 119.482 196.258 119.645C195.677 119.807 195.061 120.057 194.411 120.394C193.76 120.731 193.162 121.196 192.616 121.788C192.07 122.381 191.617 123.124 191.257 124.019C190.908 124.901 190.734 125.976 190.734 127.242V129.072ZM245.555 139.736H240.989V124.855L232.956 138.987C232.758 139.347 232.48 139.62 232.119 139.806C231.771 139.992 231.393 140.085 230.987 140.085C230.592 140.085 230.22 139.992 229.872 139.806C229.535 139.62 229.268 139.347 229.07 138.987L221.002 124.855V139.736H216.471V116.682C216.471 116.16 216.622 115.695 216.924 115.288C217.238 114.882 217.645 114.609 218.144 114.469C218.388 114.411 218.632 114.394 218.876 114.417C219.12 114.429 219.352 114.481 219.573 114.574C219.805 114.655 220.015 114.777 220.2 114.94C220.386 115.091 220.543 115.277 220.671 115.497L230.987 133.428L241.303 115.497C241.57 115.056 241.936 114.742 242.401 114.557C242.877 114.371 243.371 114.342 243.882 114.469C244.37 114.609 244.77 114.882 245.084 115.288C245.398 115.695 245.555 116.16 245.555 116.682V139.736ZM271.379 129.525H257.073V124.96H271.379V129.525ZM273.418 139.736H257.073C256.445 139.736 255.76 139.626 255.017 139.405C254.273 139.185 253.582 138.824 252.943 138.325C252.316 137.814 251.787 137.157 251.357 136.356C250.939 135.543 250.73 134.549 250.73 133.376V117.031C250.73 116.717 250.788 116.421 250.904 116.142C251.02 115.863 251.177 115.619 251.375 115.41C251.584 115.201 251.828 115.039 252.107 114.922C252.385 114.806 252.687 114.748 253.013 114.748H273.418V119.279H255.261V133.376C255.261 133.968 255.417 134.422 255.731 134.735C256.045 135.049 256.504 135.206 257.108 135.206H273.418V139.736Z" fill="#F7F7F7"/>
<path d="M168.469 155.104H163.333V165.625H161.003V155.104H155.859V152.774H168.469V155.104ZM180.755 160.373H173.397V158.026H180.755V160.373ZM181.803 165.625H173.397C173.075 165.625 172.722 165.568 172.34 165.455C171.958 165.341 171.602 165.156 171.274 164.899C170.951 164.636 170.679 164.299 170.458 163.886C170.243 163.468 170.135 162.957 170.135 162.354V153.948C170.135 153.787 170.165 153.634 170.225 153.491C170.285 153.348 170.365 153.222 170.467 153.115C170.575 153.007 170.7 152.923 170.843 152.864C170.987 152.804 171.142 152.774 171.309 152.774H181.803V155.104H172.465V162.354C172.465 162.659 172.546 162.892 172.707 163.053C172.869 163.214 173.105 163.295 173.415 163.295H181.803V165.625ZM196.671 165.625H194.341V162.47H186.15V165.625H183.82V159.199C183.82 158.261 183.981 157.398 184.304 156.61C184.626 155.821 185.074 155.143 185.648 154.575C186.222 154.008 186.9 153.566 187.682 153.249C188.465 152.932 189.319 152.774 190.245 152.774H195.497C195.658 152.774 195.811 152.804 195.954 152.864C196.097 152.923 196.223 153.007 196.33 153.115C196.438 153.222 196.522 153.348 196.581 153.491C196.641 153.634 196.671 153.787 196.671 153.948V165.625ZM186.15 160.14H194.341V155.104H190.245C190.174 155.104 190.021 155.116 189.788 155.14C189.561 155.158 189.295 155.209 188.991 155.292C188.692 155.376 188.375 155.504 188.041 155.678C187.706 155.851 187.399 156.09 187.118 156.394C186.837 156.699 186.604 157.082 186.419 157.542C186.24 157.996 186.15 158.548 186.15 159.199V160.14ZM214.343 165.625H211.995V157.972L207.864 165.24C207.762 165.425 207.619 165.565 207.434 165.661C207.255 165.756 207.06 165.804 206.851 165.804C206.648 165.804 206.457 165.756 206.278 165.661C206.105 165.565 205.967 165.425 205.866 165.24L201.716 157.972V165.625H199.386V153.769C199.386 153.5 199.464 153.261 199.619 153.052C199.781 152.843 199.99 152.702 200.247 152.631C200.372 152.601 200.498 152.592 200.623 152.604C200.748 152.61 200.868 152.637 200.981 152.684C201.101 152.726 201.208 152.789 201.304 152.873C201.4 152.95 201.48 153.046 201.546 153.159L206.851 162.381L212.157 153.159C212.294 152.932 212.482 152.771 212.721 152.675C212.966 152.58 213.22 152.565 213.483 152.631C213.734 152.702 213.94 152.843 214.101 153.052C214.263 153.261 214.343 153.5 214.343 153.769V165.625ZM219.093 164.451C219.093 164.612 219.06 164.765 218.994 164.908C218.935 165.045 218.851 165.168 218.744 165.275C218.642 165.377 218.519 165.458 218.376 165.517C218.239 165.577 218.092 165.607 217.937 165.607C217.776 165.607 217.623 165.577 217.48 165.517C217.342 165.458 217.22 165.377 217.112 165.275C217.011 165.168 216.93 165.045 216.871 164.908C216.811 164.765 216.781 164.612 216.781 164.451C216.781 164.296 216.811 164.149 216.871 164.012C216.93 163.869 217.011 163.746 217.112 163.644C217.22 163.537 217.342 163.453 217.48 163.394C217.623 163.328 217.776 163.295 217.937 163.295C218.092 163.295 218.239 163.328 218.376 163.394C218.519 163.453 218.642 163.537 218.744 163.644C218.851 163.746 218.935 163.869 218.994 164.012C219.06 164.149 219.093 164.296 219.093 164.451ZM219.093 157.111C219.093 157.273 219.06 157.425 218.994 157.568C218.935 157.706 218.851 157.828 218.744 157.936C218.642 158.037 218.519 158.118 218.376 158.178C218.239 158.238 218.092 158.267 217.937 158.267C217.776 158.267 217.623 158.238 217.48 158.178C217.342 158.118 217.22 158.037 217.112 157.936C217.011 157.828 216.93 157.706 216.871 157.568C216.811 157.425 216.781 157.273 216.781 157.111C216.781 156.956 216.811 156.81 216.871 156.672C216.93 156.529 217.011 156.406 217.112 156.305C217.22 156.197 217.342 156.114 217.48 156.054C217.623 155.988 217.776 155.955 217.937 155.955C218.092 155.955 218.239 155.988 218.376 156.054C218.519 156.114 218.642 156.197 218.744 156.305C218.851 156.406 218.935 156.529 218.994 156.672C219.06 156.81 219.093 156.956 219.093 157.111ZM240.314 160.248C240.314 161.031 240.177 161.751 239.902 162.408C239.633 163.065 239.26 163.633 238.782 164.11C238.304 164.582 237.736 164.953 237.079 165.222C236.422 165.491 235.708 165.625 234.937 165.625H228.646C228.479 165.625 228.324 165.595 228.18 165.535C228.037 165.476 227.911 165.395 227.804 165.293C227.702 165.186 227.622 165.06 227.562 164.917C227.502 164.774 227.472 164.618 227.472 164.451V153.948C227.472 153.787 227.502 153.634 227.562 153.491C227.622 153.348 227.702 153.222 227.804 153.115C227.911 153.007 228.037 152.923 228.18 152.864C228.324 152.804 228.479 152.774 228.646 152.774H234.937C235.708 152.774 236.422 152.908 237.079 153.177C237.736 153.446 238.304 153.819 238.782 154.297C239.26 154.769 239.633 155.337 239.902 156C240.177 156.657 240.314 157.374 240.314 158.151V160.248ZM237.984 158.151C237.984 157.697 237.91 157.282 237.76 156.905C237.617 156.529 237.411 156.209 237.142 155.946C236.873 155.678 236.55 155.471 236.174 155.328C235.804 155.179 235.391 155.104 234.937 155.104H229.802V163.295H234.937C235.391 163.295 235.804 163.223 236.174 163.08C236.55 162.931 236.873 162.724 237.142 162.462C237.411 162.193 237.617 161.873 237.76 161.503C237.91 161.126 237.984 160.708 237.984 160.248V158.151ZM253.165 160.373H245.808V158.026H253.165V160.373ZM254.214 165.625H245.808C245.485 165.625 245.133 165.568 244.75 165.455C244.368 165.341 244.012 165.156 243.684 164.899C243.361 164.636 243.089 164.299 242.868 163.886C242.653 163.468 242.546 162.957 242.546 162.354V153.948C242.546 153.787 242.576 153.634 242.635 153.491C242.695 153.348 242.776 153.222 242.877 153.115C242.985 153.007 243.11 152.923 243.254 152.864C243.397 152.804 243.552 152.774 243.72 152.774H254.214V155.104H244.876V162.354C244.876 162.659 244.956 162.892 245.118 163.053C245.279 163.214 245.515 163.295 245.826 163.295H254.214V165.625ZM268.768 161.843C268.768 162.303 268.708 162.718 268.588 163.089C268.475 163.453 268.322 163.776 268.131 164.057C267.94 164.338 267.716 164.576 267.459 164.774C267.202 164.971 266.936 165.132 266.662 165.258C266.387 165.383 266.106 165.476 265.819 165.535C265.538 165.595 265.273 165.625 265.022 165.625H256.033V163.295H265.022C265.47 163.295 265.816 163.164 266.061 162.901C266.312 162.638 266.438 162.285 266.438 161.843C266.438 161.628 266.405 161.431 266.339 161.252C266.273 161.072 266.178 160.917 266.052 160.786C265.933 160.654 265.783 160.553 265.604 160.481C265.431 160.409 265.237 160.373 265.022 160.373H259.663C259.286 160.373 258.88 160.308 258.444 160.176C258.008 160.039 257.601 159.821 257.225 159.522C256.855 159.223 256.544 158.832 256.293 158.348C256.048 157.864 255.925 157.273 255.925 156.574C255.925 155.875 256.048 155.286 256.293 154.808C256.544 154.324 256.855 153.933 257.225 153.634C257.601 153.33 258.008 153.112 258.444 152.98C258.88 152.843 259.286 152.774 259.663 152.774H267.594V155.104H259.663C259.22 155.104 258.874 155.238 258.623 155.507C258.378 155.776 258.256 156.132 258.256 156.574C258.256 157.022 258.378 157.377 258.623 157.64C258.874 157.897 259.22 158.026 259.663 158.026H265.022H265.04C265.29 158.031 265.556 158.067 265.837 158.133C266.118 158.193 266.396 158.288 266.671 158.42C266.951 158.551 267.217 158.719 267.468 158.922C267.719 159.119 267.94 159.358 268.131 159.639C268.328 159.919 268.484 160.242 268.597 160.606C268.711 160.971 268.768 161.383 268.768 161.843ZM273.051 165.625H270.721V152.774H273.051V165.625ZM288.456 164.451C288.456 164.618 288.426 164.774 288.367 164.917C288.307 165.06 288.223 165.186 288.116 165.293C288.014 165.395 287.892 165.476 287.748 165.535C287.605 165.595 287.45 165.625 287.282 165.625H278.876C278.661 165.625 278.428 165.601 278.177 165.553C277.932 165.5 277.687 165.419 277.442 165.311C277.203 165.204 276.973 165.066 276.752 164.899C276.531 164.726 276.334 164.52 276.161 164.281C275.994 164.036 275.859 163.755 275.758 163.438C275.656 163.116 275.605 162.754 275.605 162.354V156.045C275.605 155.83 275.629 155.6 275.677 155.355C275.731 155.104 275.811 154.859 275.919 154.62C276.027 154.375 276.167 154.142 276.34 153.921C276.513 153.7 276.72 153.506 276.959 153.339C277.203 153.165 277.484 153.028 277.801 152.926C278.118 152.825 278.476 152.774 278.876 152.774H288.349V155.104H278.876C278.572 155.104 278.339 155.185 278.177 155.346C278.016 155.507 277.935 155.746 277.935 156.063V162.354C277.935 162.653 278.016 162.886 278.177 163.053C278.345 163.214 278.578 163.295 278.876 163.295H286.126V160.373H279.925V158.026H287.282C287.45 158.026 287.605 158.058 287.748 158.124C287.892 158.184 288.014 158.267 288.116 158.375C288.223 158.483 288.307 158.608 288.367 158.751C288.426 158.889 288.456 159.038 288.456 159.199V164.451ZM303.727 164.63C303.727 164.798 303.694 164.953 303.628 165.096C303.569 165.24 303.485 165.365 303.378 165.473C303.276 165.574 303.153 165.655 303.01 165.715C302.867 165.774 302.714 165.804 302.553 165.804C302.41 165.804 302.263 165.777 302.114 165.724C301.971 165.67 301.842 165.583 301.729 165.464L293.215 156.574V165.625H290.885V153.769C290.885 153.53 290.951 153.315 291.082 153.123C291.22 152.926 291.393 152.78 291.602 152.684C291.823 152.595 292.05 152.574 292.283 152.622C292.516 152.663 292.716 152.771 292.883 152.944L301.397 161.825V152.774H303.727V164.63Z" fill="#F7F7F7"/>
<path d="M228.129 221.613H230.592L229.343 224.647L224.347 241.705H220.599L214.889 221.613H217.316L222.491 240.634L228.129 221.613ZM241.369 221.613H243.868L237.944 241.705H234.196L229.343 224.647L228.129 221.613H230.592L236.052 240.634L241.369 221.613ZM246.855 241.705V221.613H260.309V223.647H249.103V230.571H257.989V232.498H249.103V239.778H260.666V241.705H246.855ZM264.039 241.705V221.613H271.283C271.973 221.613 272.675 221.649 273.389 221.72C274.126 221.792 274.816 221.934 275.459 222.148C276.125 222.339 276.72 222.636 277.243 223.041C277.767 223.421 278.171 223.933 278.456 224.575C278.766 225.194 278.92 225.979 278.92 226.931C278.92 227.692 278.766 228.406 278.456 229.072C278.171 229.738 277.636 230.273 276.851 230.678C276.089 231.058 274.983 231.272 273.532 231.32V231.463C275.221 231.463 276.517 231.701 277.422 232.177C278.326 232.629 278.944 233.223 279.277 233.961C279.634 234.698 279.813 235.519 279.813 236.423C279.813 237.375 279.646 238.172 279.313 238.814C278.98 239.457 278.528 239.968 277.957 240.349C277.41 240.73 276.779 241.015 276.065 241.205C275.375 241.396 274.638 241.527 273.853 241.598C273.091 241.669 272.366 241.705 271.676 241.705H264.039ZM266.323 239.778H271.497C272.592 239.778 273.579 239.707 274.459 239.564C275.364 239.397 276.077 239.064 276.601 238.565C277.148 238.041 277.422 237.244 277.422 236.174C277.422 235.055 277.136 234.223 276.565 233.675C275.994 233.128 275.233 232.759 274.281 232.569C273.329 232.379 272.271 232.284 271.105 232.284H266.323V239.778ZM266.323 230.428H271.033C272.152 230.428 273.127 230.356 273.96 230.214C274.793 230.071 275.435 229.774 275.887 229.322C276.363 228.846 276.601 228.12 276.601 227.145C276.601 226.026 276.339 225.218 275.816 224.718C275.316 224.218 274.638 223.909 273.781 223.79C272.949 223.647 272.045 223.576 271.069 223.576H266.323V230.428ZM290.665 242.169C289.619 242.169 288.584 242.038 287.561 241.776C286.561 241.515 285.645 241.122 284.813 240.599C284.004 240.052 283.35 239.35 282.85 238.493C282.374 237.637 282.136 236.626 282.136 235.46H284.42C284.42 235.531 284.444 235.733 284.492 236.066C284.539 236.4 284.658 236.792 284.848 237.244C285.063 237.696 285.396 238.136 285.848 238.565C286.3 238.993 286.93 239.35 287.739 239.635C288.548 239.921 289.583 240.063 290.844 240.063C291.891 240.063 292.747 239.945 293.413 239.707C294.103 239.445 294.627 239.136 294.984 238.779C295.364 238.398 295.626 238.029 295.769 237.672C295.911 237.292 295.983 236.982 295.983 236.745C296.007 235.912 295.781 235.246 295.305 234.746C294.829 234.223 294.187 233.818 293.378 233.533C292.593 233.223 291.724 232.95 290.773 232.712C289.821 232.474 288.869 232.224 287.918 231.962C286.99 231.677 286.133 231.32 285.348 230.892C284.563 230.464 283.944 229.893 283.492 229.179C283.04 228.441 282.838 227.513 282.886 226.395C282.933 225.325 283.302 224.409 283.992 223.647C284.682 222.886 285.61 222.303 286.776 221.899C287.941 221.47 289.25 221.256 290.701 221.256C292.081 221.256 293.342 221.506 294.484 222.006C295.626 222.481 296.542 223.207 297.232 224.183C297.922 225.158 298.243 226.371 298.195 227.823H295.947C295.995 226.919 295.828 226.181 295.448 225.61C295.067 225.039 294.579 224.599 293.984 224.29C293.39 223.957 292.771 223.731 292.129 223.612C291.51 223.469 290.963 223.397 290.487 223.397C288.988 223.397 287.751 223.695 286.776 224.29C285.824 224.884 285.324 225.658 285.277 226.609C285.277 227.442 285.515 228.108 285.99 228.608C286.466 229.107 287.097 229.512 287.882 229.821C288.667 230.107 289.535 230.356 290.487 230.571C291.462 230.785 292.414 231.035 293.342 231.32C294.294 231.582 295.162 231.927 295.947 232.355C296.732 232.783 297.351 233.366 297.803 234.104C298.255 234.841 298.457 235.781 298.41 236.923C298.362 238.041 297.993 238.993 297.303 239.778C296.613 240.539 295.697 241.134 294.555 241.562C293.413 241.967 292.117 242.169 290.665 242.169ZM304.633 241.063V222.255H306.917V241.063H304.633ZM301.885 241.705V239.707H309.665V241.705H301.885ZM301.885 223.612V221.613H309.665V223.612H301.885ZM321.113 222.255V241.705H318.829V222.255H321.113ZM312.37 223.612V221.613H327.537V223.612H312.37ZM330.323 241.705V221.613H343.777V223.647H332.571V230.571H341.457V232.498H332.571V239.778H344.134V241.705H330.323ZM364.362 242.205C361.174 242.205 358.747 241.265 357.082 239.385C355.416 237.482 354.584 234.924 354.584 231.713C354.584 229.595 354.941 227.763 355.654 226.217C356.392 224.647 357.474 223.433 358.902 222.577C360.353 221.696 362.173 221.256 364.362 221.256C367.55 221.256 369.965 222.208 371.607 224.111C373.248 225.991 374.069 228.525 374.069 231.713C374.069 233.782 373.7 235.614 372.963 237.208C372.249 238.779 371.166 240.004 369.715 240.884C368.288 241.765 366.503 242.205 364.362 242.205ZM364.326 239.992C365.992 239.992 367.372 239.647 368.466 238.957C369.584 238.267 370.417 237.304 370.964 236.066C371.535 234.806 371.821 233.354 371.821 231.713C371.821 230.071 371.547 228.632 371 227.394C370.477 226.133 369.656 225.158 368.538 224.468C367.419 223.754 366.016 223.397 364.326 223.397C361.876 223.397 360.008 224.135 358.723 225.61C357.463 227.085 356.832 229.119 356.832 231.713C356.832 233.33 357.106 234.77 357.653 236.031C358.2 237.268 359.021 238.243 360.115 238.957C361.234 239.647 362.637 239.992 364.326 239.992ZM380.154 241.705H377.87V221.613H391.753V223.647H380.154V230.071H389.29V231.998H380.154V241.705ZM397.336 241.705H395.052V221.613H408.934V223.647H397.336V230.071H406.472V231.998H397.336V241.705ZM414.762 241.063V222.255H417.046V241.063H414.762ZM412.014 241.705V239.707H419.794V241.705H412.014ZM412.014 223.612V221.613H419.794V223.612H412.014ZM432.813 242.062C430.981 242.062 429.315 241.681 427.816 240.92C426.341 240.135 425.164 238.969 424.283 237.423C423.427 235.876 423.011 233.973 423.034 231.713C423.034 229.405 423.451 227.478 424.283 225.931C425.14 224.385 426.318 223.219 427.816 222.434C429.315 221.649 431.028 221.256 432.955 221.256C434.597 221.256 436.048 221.554 437.309 222.148C438.57 222.743 439.593 223.6 440.378 224.718C441.187 225.812 441.735 227.133 442.02 228.679H439.629C439.415 227.466 438.987 226.478 438.344 225.717C437.702 224.932 436.917 224.349 435.989 223.968C435.061 223.588 434.05 223.397 432.955 223.397C430.576 223.397 428.709 224.099 427.353 225.503C425.996 226.907 425.318 228.929 425.318 231.57C425.318 234.306 425.985 236.388 427.317 237.815C428.649 239.219 430.493 239.921 432.848 239.921C434.038 239.921 435.109 239.73 436.06 239.35C437.036 238.945 437.845 238.35 438.487 237.565C439.129 236.78 439.546 235.805 439.736 234.639H442.163C441.901 236.162 441.366 237.482 440.557 238.6C439.748 239.695 438.689 240.551 437.381 241.17C436.096 241.765 434.573 242.062 432.813 242.062ZM445.435 241.705V221.613H458.89V223.647H447.684V230.571H456.57V232.498H447.684V239.778H459.246V241.705H445.435ZM462.691 241.705V221.613H469.329C471.042 221.613 472.481 221.792 473.647 222.148C474.836 222.481 475.741 223.064 476.359 223.897C477.001 224.73 477.323 225.884 477.323 227.359C477.323 228.31 477.144 229.191 476.787 230C476.454 230.785 475.931 231.415 475.217 231.891C474.527 232.367 473.659 232.605 472.612 232.605C473.468 232.605 474.135 232.771 474.61 233.104C475.086 233.414 475.431 233.83 475.645 234.353C475.859 234.877 476.002 235.436 476.074 236.031C476.145 236.626 476.193 237.208 476.216 237.779C476.24 238.35 476.288 238.85 476.359 239.278C476.454 239.707 476.645 240.004 476.93 240.171C477.216 240.337 477.644 240.313 478.215 240.099V241.598C478.001 241.788 477.668 241.919 477.216 241.991C476.787 242.086 476.335 242.062 475.859 241.919C475.384 241.776 474.979 241.455 474.646 240.956C474.337 240.456 474.182 239.718 474.182 238.743C474.182 237.553 474.135 236.59 474.039 235.852C473.944 235.091 473.73 234.508 473.397 234.104C473.088 233.699 472.6 233.414 471.934 233.247C471.268 233.081 470.376 232.997 469.257 232.997C468.139 232.997 466.724 233.009 465.011 233.033V241.705H462.691ZM465.011 231.284H469.686C470.947 231.284 471.981 231.177 472.79 230.963C473.623 230.749 474.242 230.38 474.646 229.857C475.051 229.31 475.253 228.525 475.253 227.502C475.253 226.288 475.003 225.408 474.503 224.861C474.004 224.313 473.278 223.968 472.326 223.826C471.399 223.659 470.245 223.576 468.865 223.576H465.011V231.284Z" fill="#006793"/>
<g filter="url(#filter7_d_1819_1219)">
<path d="M25.4419 10.8672C31.2994 10.8673 36.0474 15.6161 36.0474 21.4736C36.0472 27.3311 31.2993 32.079 25.4419 32.0791C19.5843 32.0791 14.8356 27.3312 14.8354 21.4736C14.8354 15.616 19.5843 10.8672 25.4419 10.8672ZM25.4409 16.1758C22.5124 16.176 20.1384 18.55 20.1382 21.4785C20.1382 24.4072 22.5123 26.782 25.4409 26.7822C28.3697 26.7822 30.7446 24.4073 30.7446 21.4785C30.7444 18.5499 28.3696 16.1758 25.4409 16.1758Z" fill="#BBF7EF"/>
</g>
<g filter="url(#filter8_d_1819_1219)">
<path d="M25.1758 31.293V74.5132L48.7746 94.6649H112.942" stroke="#BBF7EF" stroke-width="6.89402"/>
</g>
<path d="M2.63867 0.796875L2.63867 12.1985" stroke="#BBF7EF" stroke-width="4.24248"/>
<path d="M48.2446 0.796875V11.9334" stroke="#BBF7EF" stroke-width="4.24248"/>
<path d="M2.63867 42.1582L2.63867 31.552" stroke="#BBF7EF" stroke-width="4.24248"/>
<path d="M48.2446 42.1582V31.2869" stroke="#BBF7EF" stroke-width="4.24248"/>
<path d="M12.1841 2.91406L0.517273 2.91406" stroke="#BBF7EF" stroke-width="4.24248"/>
<path d="M39.2295 2.91406L50.366 2.91406" stroke="#BBF7EF" stroke-width="4.24248"/>
<path d="M11.9189 40.0352H0.517292" stroke="#BBF7EF" stroke-width="4.24248"/>
<path d="M39.2295 40.0352H50.366" stroke="#BBF7EF" stroke-width="4.24248"/>
<defs>
<filter id="filter0_d_1819_1219" x="104.698" y="58.8256" width="481.601" height="246.144" filterUnits="userSpaceOnUse" color-interpolation-filters="sRGB">
<feFlood flood-opacity="0" result="BackgroundImageFix"/>
<feColorMatrix in="SourceAlpha" type="matrix" values="0 0 0 0 0 0 0 0 0 0 0 0 0 0 0 0 0 0 127 0" result="hardAlpha"/>
<feOffset/>
<feGaussianBlur stdDeviation="2.80401"/>
<feComposite in2="hardAlpha" operator="out"/>
<feColorMatrix type="matrix" values="0 0 0 0 1 0 0 0 0 1 0 0 0 0 1 0 0 0 0.65 0"/>
<feBlend mode="normal" in2="BackgroundImageFix" result="effect1_dropShadow_1819_1219"/>
<feBlend mode="normal" in="SourceGraphic" in2="effect1_dropShadow_1819_1219" result="shape"/>
</filter>
<filter id="filter1_d_1819_1219" x="125.38" y="58.8256" width="136.899" height="20.2317" filterUnits="userSpaceOnUse" color-interpolation-filters="sRGB">
<feFlood flood-opacity="0" result="BackgroundImageFix"/>
<feColorMatrix in="SourceAlpha" type="matrix" values="0 0 0 0 0 0 0 0 0 0 0 0 0 0 0 0 0 0 127 0" result="hardAlpha"/>
<feOffset/>
<feGaussianBlur stdDeviation="2.80401"/>
<feComposite in2="hardAlpha" operator="out"/>
<feColorMatrix type="matrix" values="0 0 0 0 1 0 0 0 0 1 0 0 0 0 1 0 0 0 0.69 0"/>
<feBlend mode="normal" in2="BackgroundImageFix" result="effect1_dropShadow_1819_1219"/>
<feBlend mode="normal" in="SourceGraphic" in2="effect1_dropShadow_1819_1219" result="shape"/>
</filter>
<filter id="filter2_d_1819_1219" x="127.46" y="284.765" width="217.694" height="20.3918" filterUnits="userSpaceOnUse" color-interpolation-filters="sRGB">
<feFlood flood-opacity="0" result="BackgroundImageFix"/>
<feColorMatrix in="SourceAlpha" type="matrix" values="0 0 0 0 0 0 0 0 0 0 0 0 0 0 0 0 0 0 127 0" result="hardAlpha"/>
<feOffset/>
<feGaussianBlur stdDeviation="2.80401"/>
<feComposite in2="hardAlpha" operator="out"/>
<feColorMatrix type="matrix" values="0 0 0 0 1 0 0 0 0 1 0 0 0 0 1 0 0 0 0.66 0"/>
<feBlend mode="normal" in2="BackgroundImageFix" result="effect1_dropShadow_1819_1219"/>
<feBlend mode="normal" in="SourceGraphic" in2="effect1_dropShadow_1819_1219" result="shape"/>
</filter>
<filter id="filter3_d_1819_1219" x="397.429" y="58.8256" width="76.7092" height="51.5188" filterUnits="userSpaceOnUse" color-interpolation-filters="sRGB">
<feFlood flood-opacity="0" result="BackgroundImageFix"/>
<feColorMatrix in="SourceAlpha" type="matrix" values="0 0 0 0 0 0 0 0 0 0 0 0 0 0 0 0 0 0 127 0" result="hardAlpha"/>
<feOffset/>
<feGaussianBlur stdDeviation="2.80401"/>
<feComposite in2="hardAlpha" operator="out"/>
<feColorMatrix type="matrix" values="0 0 0 0 1 0 0 0 0 1 0 0 0 0 1 0 0 0 0.66 0"/>
<feBlend mode="normal" in2="BackgroundImageFix" result="effect1_dropShadow_1819_1219"/>
<feBlend mode="normal" in="SourceGraphic" in2="effect1_dropShadow_1819_1219" result="shape"/>
</filter>
<filter id="filter4_d_1819_1219" x="434.814" y="58.8256" width="76.7092" height="51.5188" filterUnits="userSpaceOnUse" color-interpolation-filters="sRGB">
<feFlood flood-opacity="0" result="BackgroundImageFix"/>
<feColorMatrix in="SourceAlpha" type="matrix" values="0 0 0 0 0 0 0 0 0 0 0 0 0 0 0 0 0 0 127 0" result="hardAlpha"/>
<feOffset/>
<feGaussianBlur stdDeviation="2.80401"/>
<feComposite in2="hardAlpha" operator="out"/>
<feColorMatrix type="matrix" values="0 0 0 0 1 0 0 0 0 1 0 0 0 0 1 0 0 0 0.66 0"/>
<feBlend mode="normal" in2="BackgroundImageFix" result="effect1_dropShadow_1819_1219"/>
<feBlend mode="normal" in="SourceGraphic" in2="effect1_dropShadow_1819_1219" result="shape"/>
</filter>
<filter id="filter5_d_1819_1219" x="472.203" y="58.8256" width="76.7092" height="51.5188" filterUnits="userSpaceOnUse" color-interpolation-filters="sRGB">
<feFlood flood-opacity="0" result="BackgroundImageFix"/>
<feColorMatrix in="SourceAlpha" type="matrix" values="0 0 0 0 0 0 0 0 0 0 0 0 0 0 0 0 0 0 127 0" result="hardAlpha"/>
<feOffset/>
<feGaussianBlur stdDeviation="2.80401"/>
<feComposite in2="hardAlpha" operator="out"/>
<feColorMatrix type="matrix" values="0 0 0 0 1 0 0 0 0 1 0 0 0 0 1 0 0 0 0.66 0"/>
<feBlend mode="normal" in2="BackgroundImageFix" result="effect1_dropShadow_1819_1219"/>
<feBlend mode="normal" in="SourceGraphic" in2="effect1_dropShadow_1819_1219" result="shape"/>
</filter>
<filter id="filter6_d_1819_1219" x="509.589" y="58.8256" width="76.7092" height="51.5188" filterUnits="userSpaceOnUse" color-interpolation-filters="sRGB">
<feFlood flood-opacity="0" result="BackgroundImageFix"/>
<feColorMatrix in="SourceAlpha" type="matrix" values="0 0 0 0 0 0 0 0 0 0 0 0 0 0 0 0 0 0 127 0" result="hardAlpha"/>
<feOffset/>
<feGaussianBlur stdDeviation="2.80401"/>
<feComposite in2="hardAlpha" operator="out"/>
<feColorMatrix type="matrix" values="0 0 0 0 1 0 0 0 0 1 0 0 0 0 1 0 0 0 0.66 0"/>
<feBlend mode="normal" in2="BackgroundImageFix" result="effect1_dropShadow_1819_1219"/>
<feBlend mode="normal" in="SourceGraphic" in2="effect1_dropShadow_1819_1219" result="shape"/>
</filter>
<filter id="filter7_d_1819_1219" x="9.22743" y="5.25917" width="32.4279" height="32.427" filterUnits="userSpaceOnUse" color-interpolation-filters="sRGB">
<feFlood flood-opacity="0" result="BackgroundImageFix"/>
<feColorMatrix in="SourceAlpha" type="matrix" values="0 0 0 0 0 0 0 0 0 0 0 0 0 0 0 0 0 0 127 0" result="hardAlpha"/>
<feOffset/>
<feGaussianBlur stdDeviation="2.80401"/>
<feComposite in2="hardAlpha" operator="out"/>
<feColorMatrix type="matrix" values="0 0 0 0 1 0 0 0 0 1 0 0 0 0 1 0 0 0 0.7 0"/>
<feBlend mode="normal" in2="BackgroundImageFix" result="effect1_dropShadow_1819_1219"/>
<feBlend mode="normal" in="SourceGraphic" in2="effect1_dropShadow_1819_1219" result="shape"/>
</filter>
<filter id="filter8_d_1819_1219" x="16.121" y="25.685" width="102.429" height="78.0344" filterUnits="userSpaceOnUse" color-interpolation-filters="sRGB">
<feFlood flood-opacity="0" result="BackgroundImageFix"/>
<feColorMatrix in="SourceAlpha" type="matrix" values="0 0 0 0 0 0 0 0 0 0 0 0 0 0 0 0 0 0 127 0" result="hardAlpha"/>
<feOffset/>
<feGaussianBlur stdDeviation="2.80401"/>
<feComposite in2="hardAlpha" operator="out"/>
<feColorMatrix type="matrix" values="0 0 0 0 1 0 0 0 0 1 0 0 0 0 1 0 0 0 0.7 0"/>
<feBlend mode="normal" in2="BackgroundImageFix" result="effect1_dropShadow_1819_1219"/>
<feBlend mode="normal" in="SourceGraphic" in2="effect1_dropShadow_1819_1219" result="shape"/>
</filter>
</defs>
</svg>
