<svg xmlns="http://www.w3.org/2000/svg" width="1000" height="1000" viewBox="200 160 700 700" version="1.1">
	<path d="M 740.472 202.042 C 733.477 202.957, 722.451 205.694, 719.523 207.243 C 715.246 209.505, 700.913 221.303, 696.563 226.141 C 694.056 228.929, 690.317 234.628, 688.253 238.805 L 684.500 246.400 684.500 272.950 C 684.500 291.406, 684.883 300.759, 685.757 303.632 C 686.448 305.904, 690.663 312.641, 695.123 318.603 C 699.583 324.565, 703.433 329.966, 703.679 330.605 C 703.924 331.244, 689.532 351.325, 671.697 375.228 L 639.269 418.690 633.885 419.350 C 623.772 420.589, 559.776 421.284, 552.465 420.234 C 545.555 419.241, 545.307 419.101, 538.465 412.302 C 526.137 400.051, 510.505 391.439, 493.237 387.383 C 488.208 386.202, 482.950 385.904, 472.500 386.207 C 459.962 386.572, 457.896 386.891, 452.716 389.267 C 430.390 399.508, 409.647 433.017, 408.230 461.131 C 407.786 469.926, 407.967 471.249, 410.318 476.383 C 419.188 495.759, 450.896 512.640, 480.296 513.639 C 493.300 514.080, 498.157 512.991, 506.114 507.848 C 518.587 499.786, 538.669 478.082, 542.742 468.261 L 544.500 464.022 600.907 463.761 L 657.314 463.500 701.512 405.210 C 725.821 373.150, 746.672 345.813, 747.848 344.460 C 749.422 342.650, 750.995 342, 753.805 342 C 764.251 342, 782.667 334.566, 791.514 326.779 C 796.473 322.414, 804.275 311.360, 808.990 302.019 C 816.400 287.341, 816.925 271.264, 810.880 244.166 L 808.797 234.832 795.794 221.438 C 781.015 206.216, 776.982 203.703, 764.678 202.051 C 755.939 200.877, 749.399 200.875, 740.472 202.042 M 557 216.002 C 552.870 216.343, 547.927 217.437, 546 218.437 C 531.958 225.720, 507.911 250.308, 503.851 261.535 C 502.838 264.337, 501.939 265.108, 499.056 265.649 C 497.104 266.015, 471.788 266.044, 442.797 265.713 L 390.086 265.111 344.001 325.923 L 297.916 386.734 292.208 387.405 C 278.397 389.027, 264.442 394.630, 255.843 402.003 C 253.282 404.200, 248.711 409.754, 245.686 414.347 C 233.792 432.408, 231.539 439.911, 232.281 459 C 232.781 471.863, 235.892 488.941, 238.739 494.457 C 239.579 496.084, 245.943 503.108, 252.883 510.066 C 263.781 520.994, 266.318 523.024, 271.500 524.964 C 283.409 529.421, 309.270 528.697, 324.017 523.494 C 331.954 520.694, 350.830 504.289, 356.230 495.500 C 361.977 486.145, 362.696 482.217, 362.928 458.900 C 363.144 437.162, 362.207 427.235, 359.435 421.874 C 358.663 420.382, 354.595 414.643, 350.395 409.119 C 345.904 403.214, 342.986 398.480, 343.312 397.630 C 343.923 396.038, 404.278 314.535, 406.879 311.789 C 408.300 310.290, 412.576 309.941, 441.500 308.965 C 464.326 308.194, 478.607 308.162, 487.822 308.862 L 501.145 309.874 507.555 316.444 C 527.486 336.872, 557.241 347.191, 584 342.956 C 600.869 340.287, 615.958 327.079, 627.472 304.904 C 636.681 287.167, 640.980 267.935, 638.103 257.344 C 635.117 246.353, 622.883 234.314, 606.353 226.100 C 597.046 221.474, 583.331 217.236, 575.113 216.445 C 572.026 216.148, 568.375 215.787, 567 215.643 C 565.625 215.499, 561.125 215.660, 557 216.002 M 737.500 236.409 C 722.381 240.155, 711.380 252.399, 710.227 266.763 C 709.569 274.962, 712.056 284.230, 716.945 291.794 C 724.039 302.770, 732.962 307.974, 744.712 307.990 C 754.340 308.003, 761.435 305.283, 768.419 298.900 C 784.044 284.620, 786.368 263.740, 773.913 249.553 C 769.024 243.986, 761.404 238.916, 754.864 236.881 C 747.990 234.741, 744.602 234.649, 737.500 236.409 M 563.500 239.325 C 551.484 242.402, 541.369 250.709, 536.196 261.747 C 533.831 266.794, 533.500 268.727, 533.501 277.500 C 533.503 286.405, 533.818 288.183, 536.381 293.734 C 539.982 301.535, 546.792 308.059, 555.777 312.315 C 562.008 315.267, 563.269 315.500, 573.021 315.500 C 582.870 315.500, 583.964 315.292, 590.144 312.250 C 614.680 300.171, 619.159 267.324, 598.834 248.507 C 589.495 239.861, 575.553 236.238, 563.500 239.325 M 464.500 414.386 C 452.642 417.270, 444.270 424.263, 438.626 436 C 435.798 441.881, 435.501 443.404, 435.507 452 C 435.514 460.575, 435.822 462.150, 438.672 468.180 C 442.892 477.109, 448.763 483.266, 456.856 487.250 C 463.036 490.292, 464.130 490.500, 473.979 490.500 C 483.664 490.500, 485.017 490.255, 491 487.413 C 499.259 483.491, 506.385 476.356, 510.387 468 C 513.199 462.128, 513.499 460.582, 513.493 452 C 513.486 443.431, 513.177 441.848, 510.338 435.841 C 505.145 424.855, 496.312 417.879, 483.307 414.492 C 476.580 412.740, 471.390 412.711, 464.500 414.386 M 292.286 422.390 C 276.765 427.463, 265.952 441.712, 265.165 458.129 C 264.581 470.311, 269.163 478.551, 281.235 487.029 C 289.190 492.615, 295.598 494.467, 304.505 493.752 C 326.193 492.011, 341.430 470.750, 335.531 450.458 C 334.588 447.214, 332.908 442.780, 331.798 440.603 C 328.605 434.346, 320.515 426.469, 314.702 423.958 C 308.308 421.197, 298.118 420.484, 292.286 422.390 M 584.814 518.024 C 576.530 519.318, 567.316 521.841, 562.353 524.174 C 557.824 526.303, 554.460 530.308, 547.410 541.965 C 545.260 545.521, 540.958 551.146, 537.851 554.465 L 532.202 560.500 522.351 561.150 C 516.933 561.507, 489.757 561.845, 461.961 561.900 L 411.422 562 364.330 603.750 L 317.237 645.500 306.369 645.702 C 269.059 646.393, 241.394 658.544, 233.969 677.500 C 228.227 692.160, 232.689 732.749, 242.062 751.122 C 245.256 757.381, 255.511 765.697, 267 771.341 L 277.500 776.500 287.500 776.451 C 308.986 776.345, 333.404 766.134, 346.722 751.685 C 355.607 742.047, 357.378 732.586, 356.627 698.791 L 356.078 674.081 360.194 668.791 C 367.913 658.869, 391.476 636.445, 421.266 610.672 L 434.937 598.844 480.719 598.672 C 505.898 598.577, 528.075 598.866, 530 599.313 C 532.822 599.969, 534.563 601.587, 538.983 607.663 C 552.414 626.122, 573.802 637.082, 601 639.442 C 613.710 640.545, 629.502 636.378, 641.297 628.809 C 646.973 625.167, 655.416 613.317, 656.716 607.167 C 657.142 605.150, 657.482 596.975, 657.470 589 C 657.450 575.019, 657.324 574.142, 653.944 564.500 C 652.016 559, 648.707 551.890, 646.590 548.701 C 638.761 536.907, 621.181 521.695, 612.176 518.921 C 607.295 517.418, 591.918 516.913, 584.814 518.024 M 590.120 545.128 C 583.151 546.285, 573.912 551.249, 569.370 556.276 C 567.393 558.463, 564.396 563.202, 562.710 566.806 C 560.128 572.323, 559.645 574.557, 559.656 580.930 C 559.686 599.156, 571.427 612.885, 589.742 616.111 C 597.288 617.441, 610.165 615.222, 616.584 611.487 C 622.132 608.259, 627.693 601.885, 630.865 595.120 C 633.107 590.338, 633.500 588.143, 633.500 580.399 C 633.500 571.969, 633.242 570.793, 630 564.450 C 622.695 550.157, 606.651 542.383, 590.120 545.128 M 755.105 562.546 C 737.609 566.342, 723.277 573.191, 713.083 582.630 C 700.488 594.291, 698.543 602.274, 699.383 638.862 L 699.943 663.223 697.086 667.362 C 691.481 675.481, 663.862 701.898, 632.602 729.038 L 621.705 738.500 586.102 739.396 C 546.558 740.390, 523.386 739.441, 521.888 736.765 C 518.724 731.110, 510.493 721.827, 504.236 716.855 C 490.642 706.052, 474.273 699.939, 454.872 698.420 C 443.626 697.540, 433.572 699.678, 421.351 705.551 C 410.937 710.554, 406.765 714.671, 401.716 724.925 C 398.581 731.294, 398.553 731.486, 398.527 746.925 C 398.503 760.503, 398.800 763.462, 400.842 770 C 404.637 782.155, 409.597 790.474, 418.839 800.186 C 435.809 818.017, 446.039 822.312, 466.368 820.137 C 478.457 818.844, 486.661 816.830, 493.669 813.436 C 498.212 811.236, 499.594 809.754, 505.066 801.216 C 513.971 787.322, 518.707 781.346, 522.862 778.762 L 526.500 776.500 585.739 776 L 644.977 775.500 691.995 733.750 L 739.012 692 749.756 691.994 C 786.524 691.974, 816.579 678.190, 822.573 658.598 C 825.027 650.575, 825.448 636.109, 823.609 623 C 821.671 609.190, 817.943 594.795, 814.593 588.184 C 810.002 579.123, 795.941 568.271, 782.446 563.373 C 774.864 560.621, 765.313 560.332, 755.105 562.546 M 758.715 588.043 C 756.083 588.483, 751.133 590.237, 747.715 591.939 C 734.011 598.763, 728.289 603.242, 724.474 610.130 C 721.825 614.914, 721.500 616.434, 721.502 624.056 C 721.504 631.925, 721.805 633.220, 725.254 640.200 C 733.353 656.587, 751.673 667.489, 767.906 665.581 C 795.821 662.300, 809.251 629.265, 792.934 604.019 C 785.278 592.174, 771.751 585.859, 758.715 588.043 M 282.286 673.451 C 261.931 679.812, 251.327 701.257, 257.876 722.817 C 262.516 738.095, 274.875 748.752, 289.139 749.776 C 298.229 750.429, 304.541 748.680, 314.249 742.820 C 330.238 733.167, 335.646 724.994, 334.740 711.849 C 333.892 699.557, 324.489 684.887, 313.228 678.288 C 303.460 672.563, 291.239 670.653, 282.286 673.451 M 449.760 722.494 C 438.080 725.455, 430.279 731.836, 425.301 742.500 C 422.885 747.675, 422.500 749.737, 422.500 757.500 C 422.500 765.173, 422.895 767.343, 425.181 772.220 C 428.493 779.287, 435.251 785.995, 442.783 789.693 C 447.946 792.228, 449.518 792.500, 459 792.500 C 468.290 792.500, 470.157 792.192, 475.196 789.830 C 489.741 783.012, 498.926 765.872, 496.133 750.761 C 492.228 729.636, 471.478 716.988, 449.760 722.494 M 1.762 999.707 C 3.006 999.946, 4.806 999.937, 5.762 999.687 C 6.718 999.437, 5.700 999.241, 3.500 999.252 C 1.300 999.263, 0.518 999.468, 1.762 999.707 M 12.750 999.737 C 15.638 999.939, 20.363 999.939, 23.250 999.737 C 26.138 999.535, 23.775 999.370, 18 999.370 C 12.225 999.370, 9.863 999.535, 12.750 999.737 " stroke="none" fill="black" fill-rule="evenodd"/>
</svg>
