<svg width="43" height="47" viewBox="0 0 43 47" fill="none" xmlns="http://www.w3.org/2000/svg">
<path d="M42.1639 18.6128C41.3899 13.4525 41.6479 10.4853 40.8739 9.45326C40.6158 9.06624 40.0998 8.80822 39.5838 9.06624C38.6807 9.19524 37.1326 9.71127 34.9395 10.7433C31.0693 11.9044 26.167 14.2265 24.877 18.3548C23.1999 22.612 26.038 25.9662 30.1663 25.8372C27.3281 28.9334 24.877 32.5456 23.1999 36.5448C22.8128 29.1914 20.6197 22.354 16.6205 16.1616C22.0388 15.6456 23.7159 8.16319 19.3296 5.32503C17.6526 4.03495 14.9434 4.03495 12.8793 3.51892C10.2991 3.26091 8.10602 1.45481 5.78389 0.809772C5.52587 0.551758 5.13885 0.680765 4.75183 0.551758C4.2358 0.809772 4.10679 1.58382 4.10679 2.22885C3.46176 6.35708 1.13963 10.0983 2.30069 14.3555C3.59077 19.6448 11.4602 21.4509 14.2984 16.6777C19.0716 23.6441 21.3938 32.1585 20.8777 40.673C19.4587 37.9639 17.5236 35.5127 15.3304 33.4486C19.4587 31.5135 17.6526 25.0631 13.9113 23.6441C9.78311 22.096 5.9129 24.8051 1.91367 24.5471C1.52665 24.5471 1.13963 24.6761 1.01062 24.9341C0.752607 25.3211 0.752607 25.7082 0.881614 26.0952C2.55871 29.7074 0.881614 34.0936 2.55871 37.8349C5.78389 44.8012 13.2663 41.3181 13.3953 34.8677C16.4915 37.7058 19.7167 41.4471 20.1037 45.5753C19.9747 46.2203 20.6197 46.8654 21.2648 46.8654C22.0388 46.7364 22.8128 46.0913 22.6838 45.1883C23.7159 38.7379 26.8121 32.6746 31.0693 27.7723C30.9403 31.7715 34.5525 36.0288 38.4227 33.3196C42.4219 29.4494 42.1639 24.1601 42.1639 18.6128Z" fill="#00AA66"/>
</svg>
