<svg width="29" height="56" viewBox="0 0 29 56" fill="none" xmlns="http://www.w3.org/2000/svg">
<path d="M23.5698 38.0596C20.3506 39.906 16.8247 42.0602 15.1384 43.1373C14.8318 40.0599 14.6785 36.5209 15.445 32.5203C17.7445 32.8281 22.65 33.2897 24.7962 32.3665C27.5556 31.1355 28.782 24.3653 26.4825 25.4424C24.6429 26.3656 18.511 29.9046 15.7516 31.4433C15.7516 31.1355 15.9049 30.9816 15.9049 30.6739C16.5181 27.9043 17.1313 25.4424 17.5912 23.2882C19.2775 23.7498 21.8835 24.0576 24.3363 22.8266C28.1688 20.9802 29.5485 17.5951 28.3221 15.7486C27.7089 14.6715 21.4236 18.9799 18.0511 21.4418C18.9709 18.2105 19.5841 16.0564 20.1973 14.5177C23.5698 12.3635 27.7089 8.82453 28.3221 3.90073C29.0886 -1.48468 25.716 -0.561469 21.4236 4.20847C18.2044 7.90132 18.3577 12.5174 18.6643 14.5177C17.8978 16.2102 16.8247 18.826 15.7516 21.5956C15.2917 18.6721 14.0653 12.0558 13.1455 10.5171C11.9191 8.36293 9.77296 12.3635 10.3862 16.9796C10.6928 20.5186 13.912 22.2111 15.445 22.8266C14.6785 25.1346 13.912 27.4427 13.2988 29.5968C11.4592 26.5194 7.32019 19.9031 5.9405 18.0567C4.25422 15.7486 2.87454 15.287 2.56794 19.7492C2.26134 24.2114 3.94763 29.2891 8.23998 29.9046C10.3862 30.2123 11.9191 30.52 12.8389 30.8278C12.5323 32.0587 12.379 33.2897 12.2257 34.5206C12.0724 36.5209 11.9191 38.6751 11.9191 40.8293C9.31307 38.2135 3.02784 32.0587 1.64815 31.1355C-0.19143 29.9046 -0.651325 34.6745 2.56794 38.9828C5.02071 42.2141 9.77296 42.3679 11.9191 42.2141C12.0724 47.5995 12.9922 52.6772 15.2917 55.2929L18.6643 54.3697C18.6643 54.3697 16.3648 50.523 15.2917 44.3682C20.6571 45.9069 23.5698 45.1376 26.1759 41.137C29.0886 36.6748 28.0155 35.4438 23.5698 38.0596Z" fill="#00AA66"/>
</svg>
