<svg width="39" height="40" viewBox="0 0 39 40" fill="none" xmlns="http://www.w3.org/2000/svg">
<path d="M22.7495 18.3299C22.498 18.3299 22.2465 18.3299 21.995 18.581C22.2465 18.3299 22.498 17.8279 22.498 17.5769C22.498 17.3259 22.2465 17.0749 21.995 17.0749C26.019 14.5647 36.8338 6.78308 29.5401 2.51577C20.989 -1.75155 21.7435 10.0463 20.7374 16.5728C20.2344 15.8198 19.2284 16.8238 19.2284 17.5769C19.2284 17.3259 18.9769 17.0749 18.9769 17.0749C19.9829 13.0586 22.7495 -1.50053 14.1983 1.00965C5.14414 4.02188 13.9468 11.8035 17.9709 17.0749C17.7194 17.3259 17.7194 18.0789 17.9709 18.3299C17.7194 18.0789 17.2164 17.8279 16.9649 17.8279H16.7134C14.1983 13.8116 6.40167 3.0178 2.12608 10.2973C-2.1495 19.083 10.4257 18.0789 16.7134 19.083L16.9649 19.334C16.7134 19.334 16.2104 19.334 15.9589 19.334C15.4558 19.8361 15.7073 20.0871 15.9589 20.5891C11.4318 19.585 -1.898 17.3259 0.365547 25.6095C3.38361 34.3951 10.9288 26.3625 15.9589 22.0952C16.2104 22.5973 16.9649 22.5973 17.4679 22.3462C17.2164 22.5973 16.9649 23.0993 16.9649 23.3503C12.6893 26.1115 2.62909 33.6421 9.92273 37.6584C12.1863 38.6625 13.6953 38.6625 14.9528 38.1604C15.6074 38.0196 16.3823 36.4654 16.3823 36.4654C16.7134 35.5676 17.1573 34.3853 17.1573 34.1343C17.1573 34.0374 17.6807 33.0102 17.9322 30.249C17.9422 30.1388 18.7071 27.1407 18.7071 27.1407C18.7071 27.1407 19.2284 25.1074 19.2284 24.6054V24.3544C19.7314 24.3544 20.2344 23.8524 19.9829 23.0993C19.9829 23.0993 19.9829 23.0993 19.9829 23.3503C18.9769 27.8687 16.4619 41.6747 25.013 39.1645C33.8157 36.1523 25.7675 28.6217 21.492 23.6013C21.492 23.3503 21.492 22.8483 21.2405 22.5973C21.492 22.8483 21.995 23.0993 22.2465 23.0993C22.498 23.0993 22.498 22.8483 22.7495 22.8483C25.7675 27.3666 32.8097 36.9053 36.8338 29.6258C40.8578 21.3422 30.0431 21.5932 23.2525 21.0911C23.504 20.5891 22.7495 19.8361 22.2465 19.8361C22.498 19.8361 22.7495 19.585 23.001 19.334C27.7796 20.3381 40.8578 22.5973 38.5943 14.3136C35.8277 5.27697 28.0311 14.3136 22.7495 18.3299Z" fill="#00AA66"/>
</svg>
