<svg width="39" height="38" viewBox="0 0 39 38" fill="none" xmlns="http://www.w3.org/2000/svg">
<path d="M20.1045 4.91787C22.5955 1.57853 26.7472 -0.300171 31.1064 0.117086H31.5225L31.7295 0.534078C33.3902 4.49968 32.9755 9.09209 30.4844 12.4315C30.2768 12.6402 30.0689 12.8488 29.8613 13.0575H30.0693C30.2771 13.0578 30.6919 13.2665 30.8994 13.2665C34.8436 14.5188 37.7501 17.8581 38.7881 22.2411V22.6581L38.373 22.8671C36.0895 24.9542 33.1826 25.9979 30.2764 25.9979C29.0308 25.9979 27.0401 25.4702 26.7471 25.372C26.2792 25.2151 25.7505 24.9849 25.543 24.7763V27.3788C25.5428 28.031 24.8923 34.5343 19.6895 37.786C16.5756 35.4902 13.2539 30.1718 13.2539 26.4149V25.58H13.0469V25.372C12.8393 25.372 12.4234 25.58 12.2158 25.58C11.178 25.9973 9.93285 26.2069 8.6875 26.2069C5.78125 26.2069 2.87432 25.1632 0.59082 23.0761L0.175781 22.8671V22.4501C1.21374 18.2758 4.12022 14.9355 8.06445 13.4745C8.27208 13.4744 8.68697 13.2666 8.89453 13.2665H9.10254C8.89495 13.0578 8.68708 12.8483 8.47949 12.6395C5.98856 9.30012 5.57369 4.70856 7.23438 0.743062L7.44141 0.32607H7.85645C12.2158 -0.0913595 16.3683 1.78645 18.8594 5.12587C19.067 5.33459 19.0668 5.54412 19.2744 5.75283C19.482 5.33546 19.6894 5.12655 20.1045 4.91787ZM19.6895 10.4696C16.0971 10.4696 13.1846 13.3822 13.1846 16.9745C13.1848 20.5667 16.0972 23.4784 19.6895 23.4784C23.2815 23.4783 26.1931 20.5666 26.1934 16.9745C26.1934 13.3823 23.2817 10.4698 19.6895 10.4696Z" fill="#00AA66"/>
</svg>
