<svg width="2151" height="812" viewBox="0 0 2151 812" fill="none" xmlns="http://www.w3.org/2000/svg">
<path d="M2044.3 139.551C1981.97 122.665 1925.61 134.088 1879.8 162.631C1886.66 197.517 1891.66 238.152 1884.59 262.542C1864.11 240.158 1850.44 213.845 1841.75 192.463C1832.58 201.302 1824.06 210.919 1816.27 221.149C1824.78 250.163 1834.42 286.87 1837.79 314.329C1815.69 296.2 1801.01 276.271 1791.59 260.005C1776.8 288.241 1766.72 319.137 1762.28 350.606C1717.43 342.401 1663.93 315.372 1630.74 325.439C1635.75 341.235 1656.49 392.94 1662.25 413.012C1639.89 404.111 1622.34 384.96 1611.13 369.675C1546.75 400.326 1512.85 450.087 1512.85 450.087C1512.85 450.087 1526.54 337.04 1337.07 201.63C1322.94 214.234 1307.03 226.776 1292.99 234.163C1295.58 213.681 1299.89 195.532 1304.49 180.412C1286.28 170.12 1268.29 162.692 1250.62 157.761C1237.87 179.982 1221.04 206.07 1200.67 230.459C1186.42 218.448 1190.01 178.979 1195 149.966C1162.75 149.843 1132.02 157.229 1103.45 169.424C1104.72 207.093 1101.82 258.081 1082.35 297.06C1055.89 267.187 1046.83 231.523 1044.52 202.694C977.948 249.651 929.813 316.109 911.95 350.606C907.55 326.544 900.388 308.599 890.88 294.87L869.113 310.646L879.583 281.509C872.118 274.246 863.651 268.619 854.313 264.015C840.955 280.834 817.969 303.832 780.697 325.439C789.72 315.311 802.88 276.742 811.37 249.631C781.791 242.572 747.45 237.457 710.252 225.057C698.705 237.273 684.369 252.987 671.478 268.701C668.122 262.337 673.963 232.894 678.532 212.781C670.92 209.384 663.217 205.62 655.436 201.384C652.634 199.87 649.89 198.458 647.17 197.108C641.191 214.643 630.395 242.838 612.968 277.335C603.391 259.923 607.53 215.093 612.155 183.072C519.701 156.084 488.205 232.321 488.205 232.321C474.247 187.88 457.771 151.562 439.676 121.928C424.302 129.894 402.79 140.84 382.826 150.293L417.553 89.9129C401.66 69.6545 384.897 53.6233 367.761 41.0582C355.47 62.2844 326.133 111.947 298.311 151.541C296.599 123.096 308.993 56.1215 317.65 13.7244C218.69 -23.754 123.241 27.4066 123.241 27.4066V692H2058.94C2058.94 692 2069.81 392.285 2044.3 139.551Z" fill="url(#paint0_linear_1775_1162)"/>
<path d="M313.741 477C358.741 421 355.539 437.633 381.741 423.5C384.138 403.891 386.014 397.038 385.689 375.333C361.375 408.297 350.199 415.965 297.241 463.76C301.095 457.196 347.393 378.061 381.791 323.421C380.111 311.099 377.843 298.565 374.919 285.877C365.518 308.69 344.466 352.843 304.35 406.99C305.983 306.904 346.631 272.83 368.564 261.698C364.339 247.331 359.25 232.805 353.146 218.161C312.31 259.399 280.684 362.177 250.378 437.086C262.972 371.897 320.625 230.734 338.659 187.457C332.941 176.89 326.806 167.14 320.317 158.149C315.65 208.514 282.191 313.069 258.719 349.139L299.14 132.641C295.177 128.488 291.13 124.552 287.004 120.822C281.434 153.501 252.31 322.68 234.251 395.103C233.206 375.471 266.809 158.687 274.377 110.198C270.505 107.174 266.577 104.303 262.603 101.593C260.697 120.165 256.142 154.116 245.962 191.027C234.013 151.785 242.272 113.892 249.077 93.0311C232.141 83.1135 214.588 75.7047 197.026 70.2589C206.9 115.455 228.946 227.857 224.672 313.054C220.043 251.787 188.395 118.327 175.174 64.4414C162.892 61.7002 150.73 59.8023 138.903 58.5877C151.529 92.0975 171.131 149.807 186.791 221.281C164.477 159.732 125.751 88.1048 108.177 56.8088C100.63 56.6933 93.3262 56.8098 86.3328 57.1057C153.86 156.846 214.737 324.843 219.671 463.76C178.025 360.626 79.4636 121.365 54.0768 59.7737C25.7464 63.2681 7.59865 68.5563 7.59865 68.5563L9.46516 94.4025C51.1688 158.285 128.003 284.236 170.53 405.132C137.039 348.3 48.2803 207.659 13.7001 153.017L20.1078 241.715C44.4956 269.844 84.7239 320.386 117.156 381.179C95.1256 339.716 51.5699 310.263 23.9414 294.797L35.0894 716.029C35.0894 716.029 175.097 691.221 238.475 670.141C293.611 651.803 430.741 657.5 430.741 657.5C430.741 657.5 547.741 490.5 412.241 421C386.211 434.276 343.305 467.806 313.741 477Z" fill="url(#paint1_linear_1775_1162)"/>
<path d="M960.069 625.158C960.362 613.894 960.262 599.432 959.134 582.287C943.148 590.418 920.739 598.509 896.03 597.58C898.247 596.397 932.593 565.821 955.43 545.411C955.302 544.468 955.17 543.505 955.035 542.543C928.475 561.324 879.977 592.873 832.256 609.788C882.722 589.718 925.96 512.372 942.599 479.179C942.054 477.016 941.497 474.832 940.914 472.649C935.896 453.675 929.944 436.604 922.788 421.404C911.61 445.552 881.072 508.619 844.995 558.634C841.185 510.629 875.922 422.694 895 378.619C887.537 370.363 879.237 363.121 869.999 356.897C861.721 401.795 831.773 516.14 738.53 543.478C778.569 507.388 831.39 379.587 845.675 343.775C840.005 341.365 834.059 339.233 827.806 337.398C822.738 361.554 803.02 434.744 739.936 505.366C735.496 477.238 783.239 362.976 796.986 330.844C792.477 330.228 787.837 329.699 783.068 329.278C776.261 349.477 753.903 414.481 727.307 477.873C730.894 455.597 748.694 364.608 755.875 328.079C748.224 327.998 740.991 327.285 734.106 326.047C731.319 366.22 725.545 482.107 704.408 547.957C707.083 501.367 684.796 469.948 681.421 422.691C678.666 384.096 705.816 337.23 715.87 321.328C702.343 316.786 690.139 310.35 678.576 303.276C677.317 316.444 673.202 350.507 662.113 382.718C648.858 359.978 656.299 319.737 663.442 293.518C644.229 280.724 626.03 267.679 605.331 260.814C611.756 297.721 628.83 377.252 665.485 446.046C715.109 539.153 684.732 549.437 684.732 549.437C684.732 549.437 685.107 491.914 633.845 448.757C586.184 408.612 578.024 329.184 582.786 256.181C569.304 255.113 554.533 256.976 537.747 263.097C544.811 287.357 571.634 385.955 574.354 492.967C513.93 454.427 512.381 328.756 514.815 273.512C504.899 278.854 494.335 285.533 483.001 293.78C482.718 293.995 482.445 294.21 482.16 294.404C488.88 322.047 501.024 372.375 514.251 428.944C485.303 403.707 467.487 353.254 457.801 316.53C453.057 321.787 448.675 327.319 444.646 333.088C465.657 377.758 488.446 425.252 504.741 477.873C472.575 433.996 446.087 404.811 424.202 370.663C415.727 391.02 410.116 412.91 406.659 435.244C448.459 471.772 420.041 434.099 476.241 531.5C424.461 508.278 451.829 541.582 402.122 489.712C401.944 498.38 402.006 507 402.263 515.51C444.343 545.692 451.046 534.96 460.149 579.029C424.101 541.985 436.57 574.257 404.784 554.894C411.242 621.908 417.028 681.568 417.028 681.568C417.028 681.568 567.624 706.113 664.99 704.428C796.134 702.158 1001.6 680.665 1001.6 680.665C1008.95 669.892 946.303 632.559 960.069 625.158Z" fill="url(#paint2_linear_1775_1162)"/>
<path d="M1474.14 351.462L1270.74 598.949C1270.74 598.949 1274.22 610.467 1343.98 509.835C1405.98 420.369 1449.22 352.796 1464 345.336C1450.96 337.687 1437.26 330.569 1423.03 324.116C1404.17 347.306 1341.63 425.057 1270.56 522.036C1304.16 421.382 1384.01 341.028 1408.7 317.904C1403.19 315.63 1397.62 313.461 1391.98 311.399C1382.42 322.773 1363.04 345.64 1327.39 386.93C1324.35 329.897 1344.14 308.199 1356.84 300.198C1346.55 297.39 1336.09 294.949 1325.5 292.918C1325.5 292.918 1272.7 357.454 1260.21 405.321C1248.62 449.737 1260.73 522.007 1260.73 522.007C1260.73 522.007 1224.94 438.096 1242.86 382.053C1256.82 338.4 1298.23 304.183 1315.85 291.186C1297.42 288.108 1278.64 286.281 1259.67 285.893C1254.26 322.22 1221.78 409.105 1197.24 469.823C1199.51 426.769 1230.08 323.99 1240.21 285.992C1231.44 286.274 1222.64 286.87 1213.83 287.802C1210.45 337.108 1197.24 469.823 1197.24 469.823C1197.24 469.823 1200.56 445.951 1144.54 387.925C1152.09 348.702 1172.94 311.067 1184.67 292.143C1176.36 293.745 1168.05 295.666 1159.76 297.921C1152.96 314.516 1138.26 350.274 1128.68 372.329C1126.85 363.874 1132.91 326.402 1136.63 305.101C1129.2 307.709 1121.8 310.595 1114.44 313.779C1115.14 328.561 1116.79 365.766 1117.35 404.897C1103.47 391.808 1089.14 348.031 1083.42 329.076C1077.07 332.619 1070.76 336.399 1064.51 340.433C1055.54 346.19 1047.08 352.083 1039.02 358.082C1097.59 401.296 1120.43 448.783 1124.43 488.739C1100.67 466.672 1043.5 400.407 1020.1 373.016C1013.99 378.135 1008.18 383.329 1002.64 388.549C1022.32 407.444 1059.49 443.109 1087.49 469.823C1065.26 450.295 1007.32 423.528 980.21 411.548C959.671 434.555 943.9 458.105 931.845 481.16C969.367 498.133 1059.82 552.457 1037.76 590.838C1012.08 560.234 957.262 520.577 923.798 497.683C917.226 512.149 916.235 507.544 912.175 521.128C969.579 554.52 1075.94 667.666 1102.66 687.917L1123.26 687.851C1104.84 663.977 1129.46 689.209 1167.37 687.71C1140.89 654.424 1169.17 690.495 1167.37 687.71L1174.24 691.166C1191.74 700 1207.74 695.501 1207.74 695.501L1277.24 691.166L1347.24 691.166C1347.24 691.166 1359.2 629.914 1377.24 527C1383.38 492 1460.85 407.218 1486.34 380.016C1488.78 372.972 1490.51 367.382 1491.71 363.035C1486.02 359.064 1480.16 355.218 1474.14 351.462Z" fill="url(#paint3_linear_1775_1162)"/>
<path d="M2091.66 638.608C2092.33 629.456 2092.58 617.714 2091.56 603.81C2070.64 610.663 2041.4 617.584 2009.41 617.217C2012.32 616.222 2057.6 590.855 2087.71 573.923C2087.57 573.16 2087.42 572.38 2087.27 571.601C2052.38 587.268 1988.74 613.646 1926.48 628.129C1992.37 611.042 2050.38 547.557 2072.8 520.343C2072.14 518.595 2071.48 516.83 2070.78 515.067C2064.77 499.738 2057.5 485.97 2048.62 473.739C2033.52 493.522 1992.33 545.213 1944.3 586.392C1940.6 547.47 1987.87 475.52 2013.72 439.432C2004.27 432.844 1993.7 427.094 1981.9 422.185C1970.01 458.773 1928.27 552.092 1806.77 575.753C1859.57 545.819 1931.29 441.215 1950.72 411.91C1943.44 410.043 1935.79 408.404 1927.74 407.012C1920.55 426.707 1893.12 486.448 1809.58 544.783C1804.55 522.012 1869.34 428.481 1887.98 402.173C1882.16 401.744 1876.16 401.387 1869.99 401.119C1860.65 417.629 1830.01 470.764 1793.92 522.656C1799.14 504.511 1824.55 430.347 1834.79 400.572C1824.89 400.626 1815.53 400.161 1806.65 399.263C1802 431.928 1791.53 526.122 1762.45 579.924C1767.12 542.051 1739.06 516.887 1735.9 478.566C1733.33 447.27 1769.71 408.787 1783.14 395.717C1765.74 392.241 1750.09 387.206 1735.29 381.642C1733.32 392.355 1727.12 420.08 1711.92 446.41C1695.33 428.152 1706.01 395.359 1715.94 373.956C1691.38 363.868 1668.14 353.561 1641.5 348.31C1648.87 378.18 1668.94 442.493 1714.65 497.781C1776.54 572.608 1736.92 581.435 1736.92 581.435C1736.92 581.435 1738.89 534.719 1673.6 500.478C1612.89 468.626 1604.36 404.256 1612.42 344.902C1594.98 344.246 1575.79 345.99 1553.89 351.224C1562.42 370.812 1594.62 450.456 1595.39 537.309C1518.1 506.961 1519.34 404.937 1523.91 360.04C1510.93 364.533 1497.07 370.122 1482.18 376.997C1481.8 377.176 1481.45 377.354 1481.07 377.517C1489.06 399.858 1503.5 440.535 1519.18 486.263C1482.33 466.224 1460.55 425.534 1448.95 395.865C1442.66 400.208 1436.84 404.769 1431.48 409.516C1457.54 445.46 1501.78 508.891 1521.53 551.366C1480.99 516.24 1431.49 467.735 1404.02 440.349C1392.52 457.012 1384.68 474.874 1379.63 493.065C1432.84 522.072 1411.88 497.542 1482.18 575.753C1415.7 557.708 1435.41 578.706 1372.35 537.365C1371.89 544.407 1371.75 551.405 1371.87 558.312C1425.6 582.161 1449.58 578.859 1460.24 614.501C1414.5 584.985 1414.8 605.478 1374.12 590.253C1380.75 644.568 1239.74 691 1239.74 691C1239.74 691 1580.06 703.894 1706.24 701C1876.19 697.102 2149.72 753.676 2149.72 753.676C2159.52 744.813 2073.64 644.833 2091.66 638.608Z" fill="url(#paint4_linear_1775_1162)"/>
<path d="M1028.4 542.088L1141.43 679.774C1141.43 679.774 1154.01 669.818 1115.16 613.765C1080.62 563.934 1042.08 542.719 1033.93 538.594C1041.04 534.262 1048.51 530.21 1056.27 526.521C1066.75 539.426 1101.51 582.689 1141.06 636.693C1122.04 580.463 1077.77 535.817 1064.09 522.979C1067.1 521.697 1070.14 520.457 1073.23 519.26C1078.53 525.589 1089.3 538.314 1109.1 561.278C1110.42 529.32 1099.44 517.258 1092.43 512.828C1098.06 511.214 1103.78 509.79 1109.57 508.619L1167.3 643.101C1167.3 643.101 1165.58 589.469 1155.42 558.166C1147.51 533.764 1124.59 514.792 1114.85 507.602C1124.94 505.785 1135.23 504.683 1145.63 504.377C1148.81 524.697 1172.78 601.417 1186.6 635.314C1185.1 611.195 1162.09 525.568 1156.3 504.348C1161.12 504.467 1165.95 504.754 1170.79 505.228C1172.93 532.827 1200.99 633.667 1200.99 633.667C1200.99 633.667 1215.6 592.208 1209.38 561.002C1205 539.066 1193.35 518.077 1186.8 507.544C1191.37 508.387 1195.93 509.439 1200.5 510.658C1204.32 519.913 1212.6 539.88 1217.98 552.2C1218.94 547.445 1215.39 526.489 1213.22 514.582C1217.31 515.998 1221.39 517.581 1225.44 519.329C1225.14 527.628 1224.46 548.458 1224.39 570.389C1231.92 563 1239.52 538.396 1242.54 527.766C1246.05 529.709 1249.53 531.799 1252.98 534.034C1257.93 537.224 1262.61 540.49 1267.07 543.814C1235.21 568.277 1222.96 594.978 1221.01 617.383C1233.91 604.91 1264.86 567.528 1277.53 552.086C1280.92 554.924 1284.13 557.8 1287.2 560.693C1276.52 571.385 1256.35 591.525 1241.15 606.613C1253.22 595.58 1284.84 580.314 1299.63 573.48C1311.04 586.282 1319.83 599.396 1326.58 612.251C1306.1 621.928 1256.82 652.764 1269.14 674.166C1283.04 656.918 1312.87 634.45 1331.09 621.461C1334.77 629.545 1337.71 637.443 1340.02 645.054C1308.74 664.001 1259.99 701.987 1245.46 713.439L1219.98 712.621C1229.94 699.157 1255.31 662.451 1260.92 630.766C1259.94 632.328 1213.5 693.199 1199.18 711.961L1198.37 711.92C1207.3 697.157 1232.58 654.502 1254.88 608.079C1188.45 644.02 1174.79 695.081 1172.08 711.082L1144.73 710.197L1144.49 709.399C1144.49 709.399 1122.8 679.814 1087.44 634.366C1062.9 602.812 1036.03 573.245 1021.89 558.121C1020.5 554.184 1019.53 551.072 1018.84 548.634C1021.94 546.394 1025.13 544.219 1028.4 542.088Z" fill="url(#paint5_linear_1775_1162)"/>
<path d="M166.529 665.519C165.883 658.784 195.37 650.73 195.468 640.455C206.786 644.973 222.527 649.342 239.493 648.254C237.917 647.583 213.079 630.014 196.554 618.279C196.605 617.715 196.658 617.129 196.713 616.566C215.731 627.235 250.35 645.09 283.855 654.205C248.342 643.248 215.526 597.874 202.761 578.354C203.051 577.046 203.349 575.738 203.662 574.408C206.366 562.93 209.782 552.6 214.103 543.326C222.75 557.541 246.261 594.65 273.064 623.84C273.784 595.018 246.402 543.116 231.53 517.135C236.338 512.028 241.763 507.505 247.87 503.589C255.345 530.29 280.476 598.108 345.719 612.468C316.738 591.734 275.334 516.328 264.088 495.203C267.894 493.636 271.902 492.227 276.127 490.998C280.575 505.361 297.037 548.755 343.24 589.694C345.184 572.766 307.81 505.347 297.077 486.428C300.155 485.946 303.326 485.531 306.594 485.183C312.074 497.132 330.033 535.564 350.841 572.952C347.49 559.69 331.636 505.59 325.255 483.865C330.512 483.669 335.463 483.091 340.149 482.175C343.658 506.185 352.22 575.472 369.37 614.425C365.686 586.585 379.779 567.299 380.229 538.929C380.599 515.764 360.062 488.29 352.512 478.984C361.638 475.959 369.785 471.856 377.459 467.372C378.845 475.232 383.027 495.521 391.932 514.58C400.149 500.675 393.436 476.743 387.483 461.213C400.197 453.13 412.206 444.937 426.175 440.366C423.214 462.593 444.735 482.175 410.741 527.5C382.241 565.5 387.483 598.5 387.483 598.5C387.483 598.5 380.434 580.457 413.997 553.519C445.204 528.459 447.668 480.726 441.503 437.12C450.733 436.191 460.974 436.994 472.766 440.294C468.867 454.974 489.071 517.135 456.68 578.718C496.726 554.352 492.817 479.058 488.956 446.036C495.989 449.012 503.523 452.797 511.649 457.482C511.852 457.617 512.049 457.729 512.25 457.841C508.722 474.549 502.362 504.943 495.499 539.078C514.418 523.361 524.683 492.753 529.887 470.564C533.358 473.619 536.593 476.831 539.598 480.202C526.91 507.393 505.458 555.362 496.324 587.207C516.716 560.241 541.444 523.167 555.151 502.26C561.787 514.273 566.514 527.238 569.777 540.568C542.462 563.318 486.641 613.915 451.829 673.44C486.534 658.441 542.912 605.206 575.06 573.067C575.524 578.249 575.822 583.408 575.982 588.522C548.221 607.489 507.146 639.632 502.627 666.189C525.966 643.248 554.702 624.437 575.805 612.16C690.357 601.79 702.972 671.021 702.972 671.021C702.972 671.021 517.287 704.361 397.318 711.993C278.536 719.55 92.6697 710.272 92.6697 710.272C26.9363 688.865 141.061 707.558 166.529 665.519Z" fill="url(#paint6_linear_1775_1162)"/>
<ellipse cx="38.8284" cy="15.1413" rx="38.8284" ry="15.1413" transform="matrix(0.999717 -0.0237766 0.0391086 0.999235 432.936 331.807)" fill="#D3DF20"/>
<ellipse cx="38.3548" cy="10.3404" rx="38.3548" ry="10.3404" transform="matrix(0.999717 -0.0237766 0.0391086 0.999235 511.755 360.221)" fill="#D3DF20"/>
<ellipse cx="38.4339" cy="15.1313" rx="38.4339" ry="15.1313" transform="matrix(0.998203 0.0826844 -0.13471 0.98824 563.361 325.01)" fill="#D3DF20"/>
<ellipse cx="38.0217" cy="15.3894" rx="38.0217" ry="15.3894" transform="matrix(0.985084 0.189732 -0.300666 0.948605 616.882 345.352)" fill="#D3DF20"/>
<ellipse cx="26.2627" cy="10.7721" rx="26.2627" ry="10.7721" transform="matrix(0.958222 -0.272739 0.426504 0.910563 388.255 386.703)" fill="#D3DF20"/>
<ellipse cx="23.2757" cy="12.3705" rx="23.2757" ry="12.3705" transform="matrix(0.676613 -0.725848 0.875989 0.496204 341.581 394.746)" fill="#D3DF20"/>
<ellipse cx="10.2394" cy="35.6942" rx="10.2394" ry="35.6942" transform="matrix(0.631044 -0.765878 0.899869 0.450554 614.886 578.662)" fill="#D3DF20"/>
<ellipse cx="9.35067" cy="26.6846" rx="9.35067" ry="26.6846" transform="matrix(-0.161212 -0.988807 0.993989 -0.0984768 557.281 551.287)" fill="#D3DF20"/>
<ellipse cx="9.32446" cy="38.1646" rx="9.32446" ry="38.1646" transform="matrix(-0.0656892 -0.998249 0.998953 -0.0399455 1013.92 345.258)" fill="#D3DF20"/>
<ellipse cx="9.32446" cy="38.1646" rx="9.32446" ry="38.1646" transform="matrix(-0.0656892 -0.998249 0.998953 -0.0399455 1082.11 321.453)" fill="#D3DF20"/>
<ellipse cx="18.8082" cy="38.1646" rx="18.8082" ry="38.1646" transform="matrix(-0.0656892 -0.998249 0.998953 -0.0399455 1089.09 508.742)" fill="#D3DF20"/>
<ellipse cx="12.0035" cy="31.8497" rx="12.0035" ry="31.8497" transform="matrix(0.306397 -0.946695 0.984386 0.193601 1196.74 560.203)" fill="#D3DF20"/>
<ellipse cx="9.23583" cy="25.4022" rx="9.23583" ry="25.4022" transform="matrix(-0.0656892 -0.998249 0.998953 -0.0399455 1145.92 329.684)" fill="#D3DF20"/>
<ellipse cx="5.59782" cy="17.6645" rx="5.59782" ry="17.6645" transform="matrix(0.327577 -0.939303 0.981645 0.208032 1243.23 310.383)" fill="#D3DF20"/>
<ellipse cx="9.95751" cy="24.1145" rx="9.95751" ry="24.1145" transform="matrix(-0.0622109 -1.0054 0.98146 0.158738 1668.03 574.834)" fill="#D3DF20"/>
<g filter="url(#filter0_di_1775_1162)">
<path d="M1571.27 341.528C1568.95 373.682 1557.71 395.764 1540.28 385.692C1527.11 376.015 1511.61 361.433 1511.61 351.591C1511.61 341.749 1527.49 328.745 1539.89 325.646C1556.94 322.547 1571.27 331.686 1571.27 341.528Z" fill="url(#paint7_linear_1775_1162)"/>
</g>
<g filter="url(#filter1_d_1775_1162)">
<path d="M1544.54 393.44C1561.29 399.188 1554.37 426.358 1541.44 437.223C1529.37 441.444 1508.52 441.174 1503.09 435.674C1497.66 430.173 1497.53 417.695 1506.31 410.325C1514.05 399.737 1539.11 387.94 1544.54 393.44Z" fill="url(#paint8_linear_1775_1162)"/>
</g>
<g filter="url(#filter2_d_1775_1162)">
<path d="M1549.19 393.052C1552.4 414.09 1508.65 418.993 1488.75 410.102C1476.91 398.957 1482.14 389.524 1485.24 380.958C1488.34 372.391 1498.96 361.111 1512.46 367.151C1529.03 370.526 1552.29 384.486 1549.19 393.052Z" fill="url(#paint9_linear_1775_1162)"/>
</g>
<g filter="url(#filter3_di_1775_1162)">
<path d="M1550.74 437.217C1529.43 435.667 1533.43 408.418 1550.74 389.179C1566.56 379.126 1582.46 378.521 1589.17 383.882C1595.87 389.242 1601.77 403.314 1590.01 416.368C1579.41 433.343 1557.44 442.577 1550.74 437.217Z" fill="url(#paint10_linear_1775_1162)"/>
</g>
<g filter="url(#filter4_di_1775_1162)">
<path d="M1581.19 402.823C1550.24 404.249 1555.24 373.249 1567.79 356.043C1577.28 339.59 1589.2 338.92 1598.2 340.515C1607.2 342.109 1619.97 351.84 1615.82 369.033C1610.96 389.164 1590.19 404.417 1581.19 402.823Z" fill="url(#paint11_linear_1775_1162)"/>
</g>
<path d="M1548.86 375.102C1546.88 370.054 1545.37 367.682 1540.55 362.91C1539.17 357.997 1543.65 356.324 1547.92 361.12C1549.64 367.18 1549.53 370.102 1548.86 375.102Z" fill="url(#paint12_linear_1775_1162)"/>
<path d="M1537 379.214C1535.66 375.787 1534.63 374.176 1531.36 370.935C1530.42 367.599 1533.46 366.463 1536.36 369.72C1537.53 373.835 1537.45 375.819 1537 379.214Z" fill="url(#paint13_linear_1775_1162)"/>
<path d="M1533.2 392.3C1528.51 390.319 1526.35 388.74 1522.19 383.572C1517.57 382.262 1515.54 387.356 1519.78 391.908C1525.47 393.545 1528.31 393.284 1533.2 392.3Z" fill="url(#paint14_linear_1775_1162)"/>
<path d="M1541.17 395.621C1536.97 398.505 1534.48 399.466 1527.88 400.188C1524.29 403.371 1527.48 407.828 1533.6 406.712C1538.05 402.798 1539.36 400.271 1541.17 395.621Z" fill="url(#paint15_linear_1775_1162)"/>
<path d="M1558.31 377.567C1559.01 372.188 1560.3 368.334 1556.82 363.297C1556.82 357.698 1565.59 357.874 1565.59 365.094C1563.97 371.198 1562.09 373.642 1558.31 377.567Z" fill="url(#paint16_linear_1775_1162)"/>
<path d="M1563.01 384.058C1565.76 380.939 1568.12 378.938 1568.65 374.797C1571.14 371.336 1575.41 374.029 1572.19 378.492C1568.66 381.79 1566.64 382.746 1563.01 384.058Z" fill="url(#paint17_linear_1775_1162)"/>
<path d="M1559.23 388.87C1563.38 388.622 1566.47 388.887 1569.77 386.341C1573.99 385.675 1575.08 390.597 1569.65 391.456C1564.82 391.278 1562.72 390.517 1559.23 388.87Z" fill="url(#paint18_linear_1775_1162)"/>
<g filter="url(#filter5_i_1775_1162)">
<path d="M1538.96 398.517C1530.79 394.765 1535.27 381.498 1542.14 376.719C1548.33 375.229 1558.74 376.447 1561.26 379.487C1563.77 382.528 1563.37 388.792 1558.7 392.033C1554.43 396.941 1541.47 401.558 1538.96 398.517Z" fill="url(#paint19_linear_1775_1162)"/>
</g>
<ellipse cx="9.32446" cy="38.1646" rx="9.32446" ry="38.1646" transform="matrix(-0.0656892 -0.998249 0.998953 -0.0399455 1621.07 412.055)" fill="#D3DF20"/>
<ellipse cx="9.32565" cy="21.9932" rx="9.32565" ry="21.9932" transform="matrix(-0.0759386 -0.997679 0.998588 -0.0461876 1669.38 430.592)" fill="#D3DF20"/>
<ellipse cx="13.8883" cy="32.7535" rx="13.8883" ry="32.7535" transform="matrix(-0.0759386 -0.997679 0.998588 -0.0461876 1740.94 410.424)" fill="#D3DF20"/>
<path d="M1093.24 681.23C1093.24 681.23 1040.07 611.232 1001.59 604.347C963.13 597.471 809.241 695 809.241 695L1093.24 681.23Z" fill="#3C5B75"/>
<path d="M255.234 703.219C255.234 703.219 277.241 660 336.394 625.024C451.741 612 519.97 699.516 519.97 699.516L255.234 703.219Z" fill="#24394B"/>
<path d="M133.388 731.087C133.388 731.087 130.423 691.968 208.747 675.047C236.741 668.999 280.928 725.54 280.928 725.54C280.928 725.54 135.741 735 133.388 731.087Z" fill="#3C5B75"/>
<ellipse cx="11.2145" cy="21.4244" rx="11.2145" ry="21.4244" transform="matrix(-0.92278 -0.400272 0.57667 -0.807864 1439.71 653.469)" fill="#D3DF20"/>
<ellipse cx="10.2853" cy="23.4726" rx="10.2853" ry="23.4726" transform="matrix(-0.731112 -0.693407 0.836272 -0.53581 1468.72 621.762)" fill="#D3DF20"/>
<path d="M500.241 746C500.241 746 562.844 648.718 591.062 645.244C619.287 641.77 746.262 676.511 746.262 676.511L791.241 741.368L500.241 746" fill="#24394B"/>
<path d="M1901.17 717.629C1902.4 713.593 1903.58 708.377 1904.17 702.12C1890.51 703.898 1871.65 705.198 1851.72 703.085C1853.62 702.818 1884.12 694.278 1904.4 688.571C1904.38 688.223 1904.36 687.866 1904.33 687.51C1881.18 692.362 1839.13 700.233 1799 702.889C1841.63 699.295 1883.43 674.549 1899.81 663.792C1899.56 662.973 1899.3 662.147 1899.02 661.319C1896.62 654.123 1893.29 647.546 1888.83 641.556C1877.66 649.448 1847.4 669.965 1813.8 685.382C1814.92 667.817 1850.76 638.646 1870.07 624.144C1864.75 620.633 1858.66 617.427 1851.72 614.52C1841.08 630.096 1806.81 669.124 1728.89 672.256C1764.48 662.141 1818.46 619.912 1833.17 608.042C1828.79 606.766 1824.16 605.57 1819.26 604.459C1813.03 612.794 1790.65 637.736 1733.37 658.631C1732.24 648.179 1780.92 610.462 1794.87 599.879C1791.27 599.332 1787.56 598.808 1783.73 598.312C1776.45 605.098 1752.64 626.901 1725.55 647.819C1730.4 640.053 1752.79 608.562 1761.81 595.922C1755.62 595.342 1749.82 594.565 1744.36 593.623C1738.58 607.892 1723.75 649.217 1700.86 671.412C1707.11 654.824 1691.81 641.903 1693.22 624.639C1694.37 610.539 1720.46 595.614 1730 590.61C1719.44 588 1710.12 584.803 1701.37 581.422C1699.2 586.075 1692.88 598.048 1681.08 608.851C1672.33 599.706 1681.89 585.747 1689.97 576.818C1675.53 570.826 1661.93 564.817 1645.77 560.854C1647.74 574.61 1654.6 604.485 1678.26 631.903C1710.3 669.012 1684.79 670.529 1684.79 670.529C1684.79 670.529 1690.14 649.837 1652.4 630.601C1617.31 612.71 1617.66 583.513 1627.91 557.562C1617.09 556.206 1604.96 555.814 1590.83 556.81C1594.42 566.056 1607.51 603.501 1600.34 642.241C1554.77 624.009 1564.53 578.633 1571.34 558.91C1562.84 560.12 1553.7 561.765 1543.79 563.919C1543.55 563.976 1543.31 564.034 1543.06 564.083C1546.08 574.524 1551.51 593.526 1557.26 614.853C1536.03 603.679 1526.02 584.224 1521.39 570.299C1517.09 571.85 1513.05 573.528 1509.28 575.315C1522.39 592.918 1544.41 623.873 1553 644C1530.79 625.88 1504.17 601.253 1489.43 587.377C1480.79 594.099 1474.32 601.579 1469.57 609.375C1500.22 625.542 1562.6 661.056 1599.59 700.185C1559.68 688.092 1496.84 650.928 1461.12 628.667C1460.22 631.776 1459.51 634.885 1458.97 637.969C1490.41 651.87 1536.66 674.899 1540.17 691.427C1514.22 675.488 1481.61 661.599 1457.57 652.336C1456.93 676.938 1288.71 669.203 1288.71 669.203C1288.71 669.203 1555.82 728.033 1634.83 734.437C1741.26 743.063 1936.93 727.254 1936.93 727.254C1979.54 666.295 1889.38 719.303 1901.17 717.629Z" fill="url(#paint20_linear_1775_1162)"/>
<path d="M1647.42 703.945C1647.42 703.945 1725.07 638.468 1735.71 640.027C1746.35 641.586 1801.67 682.119 1801.67 682.119L1811.24 732L1639.87 732C1639.87 732 1630.4 721.089 1647.42 703.945Z" fill="#3C5B75"/>
<path d="M1780.24 754.014C1780.24 750.767 1812.35 697.995 1850.9 689.062C1889.44 680.132 1960.09 663.085 1994.35 705.301C2028.61 747.516 2033.96 753.203 2033.96 753.203L1780.24 754.014" fill="#24394B"/>
<path d="M1218.81 699.721C1218.81 699.721 1212.15 650.017 1271.56 648.821C1330.97 647.615 1390.89 697.316 1390.89 697.316L1218.81 699.721Z" fill="#24394B"/>
<defs>
<filter id="filter0_di_1775_1162" x="1504.91" y="322.331" width="73.0602" height="76.5191" filterUnits="userSpaceOnUse" color-interpolation-filters="sRGB">
<feFlood flood-opacity="0" result="BackgroundImageFix"/>
<feColorMatrix in="SourceAlpha" type="matrix" values="0 0 0 0 0 0 0 0 0 0 0 0 0 0 0 0 0 0 127 0" result="hardAlpha"/>
<feOffset dy="4"/>
<feGaussianBlur stdDeviation="3.35"/>
<feComposite in2="hardAlpha" operator="out"/>
<feColorMatrix type="matrix" values="0 0 0 0 0.531982 0 0 0 0 0.264762 0 0 0 0 0.0461269 0 0 0 0.25 0"/>
<feBlend mode="normal" in2="BackgroundImageFix" result="effect1_dropShadow_1775_1162"/>
<feBlend mode="normal" in="SourceGraphic" in2="effect1_dropShadow_1775_1162" result="shape"/>
<feColorMatrix in="SourceAlpha" type="matrix" values="0 0 0 0 0 0 0 0 0 0 0 0 0 0 0 0 0 0 127 0" result="hardAlpha"/>
<feOffset dx="12.5" dy="7"/>
<feGaussianBlur stdDeviation="1.4"/>
<feComposite in2="hardAlpha" operator="arithmetic" k2="-1" k3="1"/>
<feColorMatrix type="matrix" values="0 0 0 0 0.940129 0 0 0 0 0.412865 0 0 0 0 0.168523 0 0 0 0.25 0"/>
<feBlend mode="normal" in2="shape" result="effect2_innerShadow_1775_1162"/>
</filter>
<filter id="filter1_d_1775_1162" x="1492.61" y="389.343" width="68.5216" height="61.484" filterUnits="userSpaceOnUse" color-interpolation-filters="sRGB">
<feFlood flood-opacity="0" result="BackgroundImageFix"/>
<feColorMatrix in="SourceAlpha" type="matrix" values="0 0 0 0 0 0 0 0 0 0 0 0 0 0 0 0 0 0 127 0" result="hardAlpha"/>
<feOffset dy="4"/>
<feGaussianBlur stdDeviation="3.35"/>
<feComposite in2="hardAlpha" operator="out"/>
<feColorMatrix type="matrix" values="0 0 0 0 0.531982 0 0 0 0 0.264762 0 0 0 0 0.0461269 0 0 0 0.25 0"/>
<feBlend mode="normal" in2="BackgroundImageFix" result="effect1_dropShadow_1775_1162"/>
<feBlend mode="normal" in="SourceGraphic" in2="effect1_dropShadow_1775_1162" result="shape"/>
</filter>
<filter id="filter2_d_1775_1162" x="1474.68" y="362.745" width="81.4918" height="62.2789" filterUnits="userSpaceOnUse" color-interpolation-filters="sRGB">
<feFlood flood-opacity="0" result="BackgroundImageFix"/>
<feColorMatrix in="SourceAlpha" type="matrix" values="0 0 0 0 0 0 0 0 0 0 0 0 0 0 0 0 0 0 127 0" result="hardAlpha"/>
<feOffset dy="4"/>
<feGaussianBlur stdDeviation="3.35"/>
<feComposite in2="hardAlpha" operator="out"/>
<feColorMatrix type="matrix" values="0 0 0 0 0.531982 0 0 0 0 0.264762 0 0 0 0 0.0461269 0 0 0 0.25 0"/>
<feBlend mode="normal" in2="BackgroundImageFix" result="effect1_dropShadow_1775_1162"/>
<feBlend mode="normal" in="SourceGraphic" in2="effect1_dropShadow_1775_1162" result="shape"/>
</filter>
<filter id="filter3_di_1775_1162" x="1529.52" y="376.535" width="73.9112" height="72.9031" filterUnits="userSpaceOnUse" color-interpolation-filters="sRGB">
<feFlood flood-opacity="0" result="BackgroundImageFix"/>
<feColorMatrix in="SourceAlpha" type="matrix" values="0 0 0 0 0 0 0 0 0 0 0 0 0 0 0 0 0 0 127 0" result="hardAlpha"/>
<feOffset dy="4"/>
<feGaussianBlur stdDeviation="3.35"/>
<feComposite in2="hardAlpha" operator="out"/>
<feColorMatrix type="matrix" values="0 0 0 0 0.531982 0 0 0 0 0.264762 0 0 0 0 0.0461269 0 0 0 0.25 0"/>
<feBlend mode="normal" in2="BackgroundImageFix" result="effect1_dropShadow_1775_1162"/>
<feBlend mode="normal" in="SourceGraphic" in2="effect1_dropShadow_1775_1162" result="shape"/>
<feColorMatrix in="SourceAlpha" type="matrix" values="0 0 0 0 0 0 0 0 0 0 0 0 0 0 0 0 0 0 127 0" result="hardAlpha"/>
<feOffset dx="47.5" dy="-21"/>
<feGaussianBlur stdDeviation="2"/>
<feComposite in2="hardAlpha" operator="arithmetic" k2="-1" k3="1"/>
<feColorMatrix type="matrix" values="0 0 0 0 1 0 0 0 0 0.985723 0 0 0 0 0.571702 0 0 0 0.51 0"/>
<feBlend mode="normal" in2="shape" result="effect2_innerShadow_1775_1162"/>
</filter>
<filter id="filter4_di_1775_1162" x="1551.32" y="337.236" width="72.0025" height="76.402" filterUnits="userSpaceOnUse" color-interpolation-filters="sRGB">
<feFlood flood-opacity="0" result="BackgroundImageFix"/>
<feColorMatrix in="SourceAlpha" type="matrix" values="0 0 0 0 0 0 0 0 0 0 0 0 0 0 0 0 0 0 127 0" result="hardAlpha"/>
<feOffset dy="4"/>
<feGaussianBlur stdDeviation="3.35"/>
<feComposite in2="hardAlpha" operator="out"/>
<feColorMatrix type="matrix" values="0 0 0 0 0.531982 0 0 0 0 0.264762 0 0 0 0 0.0461269 0 0 0 0.25 0"/>
<feBlend mode="normal" in2="BackgroundImageFix" result="effect1_dropShadow_1775_1162"/>
<feBlend mode="normal" in="SourceGraphic" in2="effect1_dropShadow_1775_1162" result="shape"/>
<feColorMatrix in="SourceAlpha" type="matrix" values="0 0 0 0 0 0 0 0 0 0 0 0 0 0 0 0 0 0 127 0" result="hardAlpha"/>
<feOffset dx="-4" dy="-27"/>
<feGaussianBlur stdDeviation="1.05"/>
<feComposite in2="hardAlpha" operator="arithmetic" k2="-1" k3="1"/>
<feColorMatrix type="matrix" values="0 0 0 0 0.77171 0 0 0 0 0.450352 0 0 0 0 0.0830869 0 0 0 0.25 0"/>
<feBlend mode="normal" in2="shape" result="effect2_innerShadow_1775_1162"/>
</filter>
<filter id="filter5_i_1775_1162" x="1534.56" y="374.084" width="28.2222" height="25.4062" filterUnits="userSpaceOnUse" color-interpolation-filters="sRGB">
<feFlood flood-opacity="0" result="BackgroundImageFix"/>
<feBlend mode="normal" in="SourceGraphic" in2="BackgroundImageFix" result="shape"/>
<feColorMatrix in="SourceAlpha" type="matrix" values="0 0 0 0 0 0 0 0 0 0 0 0 0 0 0 0 0 0 127 0" result="hardAlpha"/>
<feOffset dy="-8"/>
<feGaussianBlur stdDeviation="1"/>
<feComposite in2="hardAlpha" operator="arithmetic" k2="-1" k3="1"/>
<feColorMatrix type="matrix" values="0 0 0 0 0.762076 0 0 0 0 0.65858 0 0 0 0 0.1411 0 0 0 1 0"/>
<feBlend mode="normal" in2="shape" result="effect1_innerShadow_1775_1162"/>
</filter>
<linearGradient id="paint0_linear_1775_1162" x1="1226.94" y1="269.171" x2="1241.59" y2="824.897" gradientUnits="userSpaceOnUse">
<stop stop-color="#41691A"/>
<stop offset="0.849599" stop-color="#76A444"/>
</linearGradient>
<linearGradient id="paint1_linear_1775_1162" x1="214.378" y1="674.591" x2="200.902" y2="53.5213" gradientUnits="userSpaceOnUse">
<stop stop-color="#77A848"/>
<stop offset="0.928155" stop-color="#6A8C41"/>
</linearGradient>
<linearGradient id="paint2_linear_1775_1162" x1="752.15" y1="419.669" x2="696.517" y2="700.972" gradientUnits="userSpaceOnUse">
<stop stop-color="#639132"/>
<stop offset="1" stop-color="#8ABD57"/>
</linearGradient>
<linearGradient id="paint3_linear_1775_1162" x1="1193.71" y1="287.496" x2="1206.94" y2="696.364" gradientUnits="userSpaceOnUse">
<stop stop-color="#5E8534"/>
<stop offset="1" stop-color="#85B751"/>
</linearGradient>
<linearGradient id="paint4_linear_1775_1162" x1="1674.95" y1="342.419" x2="1688.74" y2="768.591" gradientUnits="userSpaceOnUse">
<stop stop-color="#669138"/>
<stop offset="1" stop-color="#85B752"/>
</linearGradient>
<linearGradient id="paint5_linear_1775_1162" x1="1183.24" y1="505.014" x2="1178.13" y2="711.774" gradientUnits="userSpaceOnUse">
<stop stop-color="#99C368"/>
<stop offset="1" stop-color="#BDCC7C"/>
</linearGradient>
<linearGradient id="paint6_linear_1775_1162" x1="386.526" y1="436.947" x2="387.36" y2="714.658" gradientUnits="userSpaceOnUse">
<stop stop-color="#99C368"/>
<stop offset="1" stop-color="#B9CA78"/>
</linearGradient>
<linearGradient id="paint7_linear_1775_1162" x1="1541.44" y1="325.031" x2="1541.44" y2="388.151" gradientUnits="userSpaceOnUse">
<stop offset="0.180131" stop-color="#F1FE70"/>
<stop offset="1" stop-color="#C7933D"/>
</linearGradient>
<linearGradient id="paint8_linear_1775_1162" x1="1497.93" y1="436.991" x2="1557.98" y2="410.261" gradientUnits="userSpaceOnUse">
<stop stop-color="#F1FE70"/>
<stop offset="1" stop-color="#C7933D"/>
</linearGradient>
<linearGradient id="paint9_linear_1775_1162" x1="1588.97" y1="386.241" x2="1454.54" y2="405.998" gradientUnits="userSpaceOnUse">
<stop offset="0.406224" stop-color="#C7933D"/>
<stop offset="0.790159" stop-color="#EFFA6E"/>
<stop offset="1" stop-color="#F1FE70"/>
</linearGradient>
<linearGradient id="paint10_linear_1775_1162" x1="1714.88" y1="488.904" x2="1444.86" y2="325.032" gradientUnits="userSpaceOnUse">
<stop offset="0.448026" stop-color="#D8AE6A"/>
<stop offset="0.554526" stop-color="#BA7504"/>
<stop offset="0.795021" stop-color="#E8E765"/>
<stop offset="0.840776" stop-color="#FF825D"/>
</linearGradient>
<linearGradient id="paint11_linear_1775_1162" x1="1589.75" y1="335.104" x2="1559.14" y2="387.791" gradientUnits="userSpaceOnUse">
<stop offset="0.284193" stop-color="#F1FE70"/>
<stop offset="1" stop-color="#C7933D"/>
</linearGradient>
<linearGradient id="paint12_linear_1775_1162" x1="1549.11" y1="375.01" x2="1542.77" y2="358.12" gradientUnits="userSpaceOnUse">
<stop stop-color="#6D99BC"/>
<stop offset="1" stop-color="#7CCE7C"/>
</linearGradient>
<linearGradient id="paint13_linear_1775_1162" x1="1537.17" y1="379.152" x2="1532.87" y2="367.682" gradientUnits="userSpaceOnUse">
<stop stop-color="#6D99BC"/>
<stop offset="1" stop-color="#7CCE7C"/>
</linearGradient>
<linearGradient id="paint14_linear_1775_1162" x1="1533.09" y1="392.579" x2="1517.36" y2="386.289" gradientUnits="userSpaceOnUse">
<stop stop-color="#6D99BC"/>
<stop offset="1" stop-color="#7CCE7C"/>
</linearGradient>
<linearGradient id="paint15_linear_1775_1162" x1="1541.34" y1="395.866" x2="1527.56" y2="405.723" gradientUnits="userSpaceOnUse">
<stop stop-color="#6D99BC"/>
<stop offset="1" stop-color="#7CCE7C"/>
</linearGradient>
<linearGradient id="paint16_linear_1775_1162" x1="1559.13" y1="377.692" x2="1561.89" y2="359.488" gradientUnits="userSpaceOnUse">
<stop stop-color="#6D99BC"/>
<stop offset="1" stop-color="#7CCE7C"/>
</linearGradient>
<linearGradient id="paint17_linear_1775_1162" x1="1563.37" y1="384.378" x2="1572.85" y2="373.936" gradientUnits="userSpaceOnUse">
<stop stop-color="#6D99BC"/>
<stop offset="1" stop-color="#7CCE7C"/>
</linearGradient>
<linearGradient id="paint18_linear_1775_1162" x1="1559.26" y1="389.346" x2="1573.35" y2="388.72" gradientUnits="userSpaceOnUse">
<stop stop-color="#6D99BC"/>
<stop offset="1" stop-color="#7CCE7C"/>
</linearGradient>
<linearGradient id="paint19_linear_1775_1162" x1="1551.28" y1="384.078" x2="1547.79" y2="409.259" gradientUnits="userSpaceOnUse">
<stop stop-color="#F1FE70"/>
<stop offset="0.726141" stop-color="#C7933D"/>
</linearGradient>
<linearGradient id="paint20_linear_1775_1162" x1="1655.6" y1="559.589" x2="1492.4" y2="659.852" gradientUnits="userSpaceOnUse">
<stop stop-color="#99C368"/>
<stop offset="1" stop-color="#B7CA77"/>
</linearGradient>
</defs>
</svg>
