<svg width="2151" height="223" viewBox="0 0 2151 223" fill="none" xmlns="http://www.w3.org/2000/svg">
<path d="M1176.83 81.1577C1178.94 84.5183 1179.39 90.6568 1179.39 90.6568L1201.25 90.7376C1201.25 90.7376 1200.77 86.1932 1201.28 83.3337C1201.63 81.3411 1201.73 80.1416 1202.78 78.3337C1203.77 76.6383 1204.57 75.737 1206.25 74.4881C1207.51 73.5549 1208.31 73.0749 1209.84 72.52C1211.3 71.9921 1212.22 71.8765 1213.8 71.7004C1215.76 71.4815 1218.86 71.7191 1218.86 71.7191C1218.86 71.7191 1217.65 70.8073 1216.77 70.3557C1215.56 69.7404 1214.82 69.4075 1213.44 69.1963C1212.3 69.0224 1211.62 69.0602 1210.47 69.1853C1209.02 69.3436 1208.22 69.6059 1206.89 70.1106C1204.71 70.9319 1203.69 71.76 1201.93 73.1165C1199.66 74.8746 1196.97 78.3123 1196.97 78.3123C1196.97 78.3123 1196.96 74.1942 1197.62 71.6406C1198.21 69.3259 1198.62 67.9815 1199.98 65.9138L1200.01 65.8823C1200.92 64.501 1201.46 63.6777 1202.84 62.5874C1204.03 61.644 1204.79 61.1332 1206.3 60.6188C1207.63 60.1687 1208.46 60.0751 1209.89 60.0064C1211.44 59.9318 1213.84 60.3338 1213.84 60.3338C1213.84 60.3338 1211.2 58.8681 1209.28 58.6484C1208.37 58.5449 1207.84 58.5659 1206.93 58.6398C1205.69 58.7397 1204.99 58.876 1203.84 59.254C1202.07 59.8309 1201.22 60.4607 1199.8 61.499L1199.75 61.5331C1197.17 63.429 1196.37 65.0541 1194.67 67.5627C1191.93 71.5973 1189.68 78.7025 1189.68 78.7025C1189.68 78.7025 1190.42 71.9659 1191.58 67.7598C1192.58 64.1097 1193.32 62.083 1194.95 58.5955C1196.03 56.2719 1198.06 52.7672 1198.06 52.7672C1198.06 52.7672 1200.31 49.2404 1202.52 47.5696C1204.27 46.253 1207.6 44.877 1207.6 44.877C1207.6 44.877 1201.54 45.6889 1199.93 46.5172C1198.32 47.3455 1196.12 48.4136 1194.24 50.146C1192.32 51.9093 1190.39 55.3459 1190.39 55.3459C1190.39 55.3459 1188.49 59.0256 1187.65 61.4884C1185.74 67.0692 1185.86 76.2899 1185.86 76.2899C1185.86 76.2899 1185.39 71.1312 1184.41 67.9419C1183.65 65.4729 1181.84 61.7798 1181.84 61.7798C1181.84 61.7798 1179.99 58.2126 1177.91 56.5512C1176.03 55.0583 1174.72 54.2621 1172.23 53.7146C1171.06 53.4561 1169.15 53.3903 1169.15 53.3903C1169.15 53.3903 1172.37 56.9681 1174.07 59.4569C1177.27 64.1666 1178.15 67.2253 1180.07 72.41C1182.07 77.8052 1183.97 86.5025 1183.97 86.5025C1183.97 86.5025 1181.95 79.0683 1178.33 75.532L1178.32 75.5212C1176.47 73.7107 1175.33 72.6018 1172.79 71.5488C1169.59 70.229 1167.32 70.255 1163.77 70.4727C1160.04 70.7017 1154.62 72.8374 1154.62 72.8374C1154.62 72.8374 1164.62 71.8507 1169.69 74.4573C1173.25 76.2888 1174.87 78.0498 1176.83 81.1577Z" fill="#45705D"/>
<path d="M37.9748 217.417C37.9748 217.417 35.2689 202.16 26.2683 198.088C18.1198 194.402 1.94249 197.517 1.94249 197.517C1.94249 197.517 19.72 189.729 27.9213 190.137C36.1225 190.546 41.5593 196.288 41.5593 196.288C41.5593 196.288 37.5234 183.366 29.6756 177.87C23.8831 173.813 19.476 171.852 11.6616 170.753C7.60316 170.182 1.11059 170.505 1.11059 170.505C1.11059 170.505 10.0489 167.496 16.1338 167.619C24.2535 167.782 30.434 170.546 35.3455 173.684C40.2569 176.823 52.7876 192.665 52.7876 192.665L48.084 180.677L56.5977 192.754C56.5977 192.754 56.4812 187.134 55.3452 183.655C54.2129 180.188 50.8535 175.128 50.8535 175.128C50.8535 175.128 54.934 177.46 56.9119 179.373C58.541 180.949 60.3276 183.772 60.3276 183.772C60.3276 183.772 57.7525 175.663 53.2793 171.73C48.1085 167.184 35.5735 163.972 35.5735 163.972C35.5735 163.972 50.3606 164.424 57.7616 168.164C62.5332 170.576 67.8371 176.175 67.8371 176.175C67.8371 176.175 65.7639 165.765 59.9805 161.09C56.2098 158.043 53.5654 155.981 48.0959 155.197C44.0011 154.61 37.5196 156.028 37.5196 156.028C37.5196 156.028 44.8024 153.147 49.905 153.08C54.8447 153.015 58.054 153.461 62.1638 155.527C65.8812 157.396 69.3388 162.174 69.3388 162.174L75.5434 172.685L71.224 156.82C71.224 156.82 74.7614 162.214 76.5848 165.799C79.6112 171.749 82.3746 181.483 82.3746 181.483C82.3746 181.483 82.3762 160.539 79.6584 147.3C77.6116 137.33 77.6863 131.295 72.04 122.073C69.216 117.46 68.0504 114.458 63.2129 110.852C57.1215 106.312 43.4455 103.478 43.4455 103.478C43.4455 103.478 50.7725 103.65 53.9863 104.157C57.2001 104.663 61.0453 106.104 64.7391 108.297C71.3906 112.245 72.3648 116.429 75.8501 122.162C81.2586 131.059 84.08 146.325 84.08 146.325L93.1072 186.485C93.1072 186.485 90.1334 150.785 92.4282 140.474C94.723 130.164 103.82 117.42 103.82 117.42C103.82 117.42 100.686 135.874 99.8811 147.775C99.3064 156.275 99.3692 169.573 99.3692 169.573C99.3692 169.573 100.356 161.335 102.902 156.484C104.17 154.068 106.854 150.53 106.854 150.53C106.854 150.53 104.375 157.522 103.943 162.123C103.444 167.433 105.089 175.754 105.089 175.754C105.089 175.754 103.811 157.461 109.285 146.917C112.325 141.062 113.116 136.697 119.877 132.913C126.554 129.177 140.788 129.085 140.788 129.085C140.788 129.085 130.36 130.102 125.446 133.044C119.569 136.563 118.816 140.431 116.643 145.794C113.933 152.481 115.05 163.679 115.05 163.679C115.05 163.679 120.496 151.383 128.366 146.069C133.339 142.711 136.586 140.64 143.182 139.507C152.444 137.915 163.081 141.269 167.139 143.308C171.196 145.348 171.419 148.376 171.419 148.376C171.419 148.376 162.152 143.911 155.416 143.033C148.827 142.174 144.364 141.806 138.386 143.929C133.457 145.68 131.247 147.665 128.249 151.033C123.603 156.253 123.483 166.684 123.483 166.684L124.533 184.416C124.533 184.416 124.886 171.515 131.71 166.014C136.154 162.431 146.228 159.661 146.228 159.661C146.228 159.661 140.244 163.85 137.839 167.238C134.922 171.346 134.584 174.168 134.048 178.809C133.425 184.212 135.776 192.67 135.776 192.67C135.776 192.67 142.424 169.124 152.762 156.143C155.763 152.374 161.191 146.84 161.191 146.84C161.191 146.84 149.499 167.046 146.61 180.832C145.405 186.584 144.795 195.689 144.795 195.689L160.705 167.559C160.705 167.559 155.754 180.616 154.331 189.219C153.597 193.654 153.183 200.637 153.183 200.637C153.183 200.637 156.026 193.45 160.177 190.004C162.039 188.459 165.261 186.755 166.895 185.932C167.224 185.383 167.57 184.856 167.934 184.356C171.621 179.288 174.201 176.41 180.23 172.768C183.715 170.662 190.013 168.247 190.013 168.247C190.013 168.247 182.295 172.63 178.971 176.409C176.112 179.66 175.368 181.873 173.771 185.572C171.016 191.955 170.146 202.547 170.146 202.547C170.146 202.547 171.807 197.889 174.983 196.398C177.899 195.028 180.455 194.78 183.801 195.525C188.928 196.668 191.521 203.912 191.521 203.912C191.521 203.912 187.02 197.397 182.279 197.865C180.046 198.085 178.786 198.706 177.246 199.906C175.048 201.619 174.765 205.678 174.765 205.678L181.319 201.297L177.054 208.107L176.937 213.071C176.937 213.071 182.954 207.337 188.206 207.721C192.998 208.072 197.746 213.56 197.746 213.56C197.746 213.56 191.975 210.237 188.13 210.959C185.984 211.362 183.415 211.928 183.385 213.222C183.355 214.517 182.968 222.087 182.968 222.087L37.9748 217.417Z" fill="#507C5D"/>
<path d="M301.486 185.163C301.486 185.163 296.148 174.203 286.641 173.063C278.034 172.031 262.79 177.877 262.79 177.877C262.79 177.877 278.771 168.15 286.85 166.69C294.93 165.231 301.253 168.403 301.253 168.403C301.253 168.403 295.029 159.496 286.396 157.03C280.024 155.21 275.374 154.677 267.551 155.53C263.487 155.974 257.205 157.618 257.205 157.618C257.205 157.618 265.401 153.414 271.363 152.194C279.32 150.567 285.843 151.325 291.192 152.64C296.542 153.956 311.575 163.24 311.575 163.24L304.865 155.184L315.311 162.486C315.311 162.486 314.205 158.259 312.481 155.871C310.763 153.492 306.589 150.388 306.589 150.388C306.589 150.388 310.985 151.273 313.254 152.294C315.123 153.134 317.366 154.885 317.366 154.885C317.366 154.885 313.419 149.305 308.357 147.294C302.505 144.969 289.699 145.243 289.699 145.243C289.699 145.243 304.216 142.395 312.103 143.629C317.188 144.425 323.356 147.517 323.356 147.517C323.356 147.517 319.492 140.088 313.02 137.798C308.8 136.306 305.854 135.316 300.375 135.902C296.273 136.341 290.196 138.812 290.196 138.812C290.196 138.812 296.798 135.062 301.768 133.911C306.579 132.796 309.791 132.441 314.169 133.118C318.128 133.731 322.348 136.6 322.348 136.6L330.263 143.214L323.243 132.142C323.243 132.142 327.65 135.461 330.063 137.78C334.07 141.63 338.487 148.398 338.487 148.398C338.487 148.398 334.789 132.551 329.796 123.121C326.036 116.018 325.043 111.436 317.901 105.675C314.329 102.795 312.66 100.774 307.3 99.0897C300.551 96.9683 286.698 97.7735 286.698 97.7735C286.698 97.7735 293.882 96.3234 297.109 96.0135C300.336 95.7036 304.345 95.9648 308.339 96.8271C315.531 98.3797 317.221 101.335 321.637 104.921C328.489 110.487 333.941 121.429 333.941 121.429L349.85 149.868C349.85 149.868 340.639 123.498 341.058 115.202C341.477 106.906 348.107 95.3014 348.107 95.3014C348.107 95.3014 348.308 109.94 349.625 119.118C350.565 125.673 352.976 135.722 352.976 135.722C352.976 135.722 352.484 129.275 354.113 125.056C354.924 122.954 356.92 119.699 356.92 119.699C356.92 119.699 355.735 125.524 356.125 129.098C356.576 133.224 359.652 139.164 359.652 139.164C359.652 139.164 355.173 125.599 358.654 116.44C360.588 111.355 360.589 107.882 366.522 103.56C372.381 99.2938 386.262 96.1545 386.262 96.1545C386.262 96.1545 376.26 99.1727 371.982 102.458C366.866 106.389 366.814 109.478 365.64 114.004C364.175 119.648 367.244 127.88 367.244 127.88C367.244 127.88 370.389 117.401 377.134 111.684C381.396 108.071 384.201 105.803 390.441 103.523C399.203 100.321 410.181 100.565 414.503 101.233C418.825 101.901 419.576 104.144 419.576 104.144C419.576 104.144 409.74 102.764 403.008 103.553C396.424 104.324 392.001 105.008 386.54 107.903C382.036 110.291 380.229 112.27 377.897 115.465C374.284 120.417 376.009 128.335 376.009 128.335L380.167 141.525C380.167 141.525 378.232 131.688 383.923 126.053C387.629 122.384 396.975 118.115 396.975 118.115C396.975 118.115 391.873 122.576 390.123 125.657C388.001 129.395 388.17 131.603 388.467 135.23C388.813 139.452 392.602 145.345 392.602 145.345C392.602 145.345 394.933 126.096 402.733 114.045C404.998 110.546 409.32 105.187 409.32 105.187C409.32 105.187 401.474 122.998 401.089 134.051C400.928 138.664 401.942 145.684 401.942 145.684L412.505 120.969C412.505 120.969 409.979 131.916 410.109 138.732C410.176 142.246 411.005 147.619 411.005 147.619C411.005 147.619 412.511 141.568 415.956 138.065C417.5 136.495 420.345 134.51 421.795 133.536C422.02 133.049 422.264 132.576 422.531 132.119C425.236 127.489 427.246 124.755 432.489 120.699C435.519 118.354 441.242 115.168 441.242 115.168C441.242 115.168 434.48 120.149 431.903 123.726C429.686 126.802 429.35 128.637 428.445 131.781C426.882 137.204 427.905 145.405 427.905 145.405C427.905 145.405 428.704 141.523 431.54 139.71C434.146 138.045 436.597 137.305 439.996 137.148C445.204 136.907 449.015 141.829 449.015 141.829C449.015 141.829 443.47 137.87 438.924 139.246C436.782 139.895 435.661 140.636 434.37 141.876C432.527 143.647 432.967 146.779 432.967 146.779L438.593 142.05L435.631 148.123L436.394 151.904C436.394 151.904 441.256 146.268 446.452 145.426C451.192 144.657 456.797 147.786 456.797 147.786C456.797 147.786 450.576 146.516 446.949 147.891C444.925 148.659 442.517 149.642 442.716 150.628C442.915 151.614 443.875 157.425 443.875 157.425L301.486 185.163Z" fill="#4A765D"/>
<path d="M426.908 154.985C426.908 154.985 423.738 146.594 418.202 145.24C413.19 144.014 404.359 147.517 404.359 147.517C404.359 147.517 413.595 141.184 418.286 140.539C422.976 139.895 426.672 142.58 426.672 142.58C426.672 142.58 423 135.66 417.964 133.372C414.247 131.684 411.539 131.039 406.994 131.249C404.633 131.359 400.989 132.237 400.989 132.237C400.989 132.237 405.731 129.569 409.191 128.988C413.809 128.213 417.608 129.124 420.727 130.384C423.846 131.645 432.645 139.318 432.645 139.318L428.694 133.001L434.814 138.961C434.814 138.961 434.145 135.776 433.128 133.919C432.114 132.067 429.668 129.547 429.668 129.547C429.668 129.547 432.23 130.438 433.556 131.315C434.648 132.037 435.963 133.452 435.963 133.452C435.963 133.452 433.634 129.114 430.678 127.355C427.261 125.321 419.814 124.834 419.814 124.834C419.814 124.834 428.241 123.51 432.835 124.847C435.797 125.708 439.403 128.327 439.403 128.327C439.403 128.327 437.111 122.626 433.333 120.585C430.87 119.254 429.151 118.364 425.968 118.502C423.585 118.606 420.065 120.107 420.065 120.107C420.065 120.107 423.882 117.689 426.765 117.105C429.557 116.539 431.423 116.45 433.973 117.186C436.28 117.852 438.752 120.2 438.752 120.2L443.395 125.517L439.245 116.952C439.245 116.952 441.828 119.643 443.246 121.488C445.599 124.55 448.209 129.792 448.209 129.792C448.209 129.792 445.963 117.876 443.003 110.634C440.774 105.181 440.168 101.739 435.98 97.0955C433.885 94.7731 432.903 93.1898 429.775 91.6557C425.837 89.7241 417.784 89.5742 417.784 89.5742C417.784 89.5742 421.954 88.8885 423.829 88.8329C425.704 88.7774 428.038 89.1862 430.366 90.0386C434.558 91.5735 435.559 93.8498 438.148 96.7389C442.167 101.222 445.403 109.606 445.403 109.606L454.826 131.49C454.826 131.49 449.311 111.496 449.505 105.385C449.699 99.2732 453.486 91.0499 453.486 91.0499C453.486 91.0499 453.69 101.884 454.511 108.742C455.097 113.639 456.56 121.198 456.56 121.198C456.56 121.198 456.235 116.406 457.157 113.373C457.616 111.863 458.758 109.563 458.758 109.563C458.758 109.563 458.103 113.807 458.352 116.47C458.639 119.545 460.463 124.103 460.463 124.103C460.463 124.103 457.777 113.832 459.747 107.247C460.841 103.591 460.821 101.023 464.246 98.1473C467.628 95.3076 475.683 93.7332 475.683 93.7332C475.683 93.7332 469.883 95.4268 467.415 97.6261C464.463 100.257 464.451 102.538 463.795 105.822C462.977 109.916 464.811 116.168 464.811 116.168C464.811 116.168 466.578 108.589 470.467 104.724C472.924 102.282 474.542 100.757 478.157 99.4064C483.234 97.5101 489.621 98.2807 492.138 99.0072C494.656 99.7337 495.107 101.432 495.107 101.432C495.107 101.432 489.377 99.8835 485.467 100.104C481.642 100.32 479.074 100.588 475.914 102.435C473.309 103.959 472.27 105.324 470.933 107.561C468.861 111.028 469.912 116.976 469.912 116.976L472.409 126.952C472.409 126.952 471.225 119.575 474.501 115.715C476.635 113.201 482.045 110.547 482.045 110.547C482.045 110.547 479.104 113.571 478.105 115.755C476.893 118.405 477.004 120.046 477.199 122.744C477.425 125.885 479.664 130.446 479.664 130.446C479.664 130.446 480.905 116.338 485.369 107.847C486.666 105.382 489.147 101.652 489.147 101.652C489.147 101.652 484.691 114.399 484.533 122.552C484.467 125.953 485.098 131.199 485.098 131.199L491.094 113.493C491.094 113.493 489.691 121.451 489.807 126.498C489.867 129.1 490.382 133.117 490.382 133.117C490.382 133.117 491.221 128.724 493.204 126.319C494.092 125.241 495.735 123.927 496.573 123.284C496.7 122.937 496.84 122.6 496.993 122.276C498.538 118.999 499.691 117.085 502.715 114.368C504.464 112.797 507.773 110.75 507.773 110.75C507.773 110.75 503.871 114.069 502.393 116.575C501.122 118.73 500.938 120.068 500.43 122.344C499.553 126.27 500.197 132.389 500.197 132.389C500.197 132.389 500.639 129.562 502.278 128.374C503.783 127.283 505.205 126.868 507.18 126.934C510.208 127.036 512.454 130.88 512.454 130.88C512.454 130.88 509.205 127.655 506.569 128.428C505.328 128.792 504.68 129.28 503.937 130.128C502.875 131.338 503.15 133.677 503.15 133.677L506.393 130.484L504.707 134.814L505.174 137.651C505.174 137.651 507.968 133.745 510.984 133.402C513.737 133.089 517.016 135.704 517.016 135.704C517.016 135.704 513.39 134.43 511.289 135.252C510.116 135.711 508.722 136.308 508.843 137.048C508.965 137.787 509.558 142.136 509.558 142.136L426.908 154.985Z" fill="#4A765D"/>
<path d="M756.778 116.527C756.778 116.527 758.712 101.153 767.496 96.6327C775.448 92.54 791.762 94.8362 791.762 94.8362C791.762 94.8362 773.615 87.9538 765.444 88.7751C757.274 89.5964 752.134 95.6052 752.134 95.6052C752.134 95.6052 755.513 82.4967 763.074 76.6118C768.655 72.2681 772.957 70.0873 780.706 68.5958C784.731 67.8212 791.232 67.8166 791.232 67.8166C791.232 67.8166 782.153 65.262 776.082 65.6911C767.981 66.2637 761.947 69.3352 757.2 72.7172C752.453 76.0992 740.737 92.5525 740.737 92.5525L744.83 80.3435L736.936 92.8339C736.936 92.8339 736.769 87.2152 737.729 83.6834C738.685 80.1635 741.785 74.9408 741.785 74.9408C741.785 74.9408 737.827 77.4755 735.948 79.4858C734.4 81.1416 732.758 84.0514 732.758 84.0514C732.758 84.0514 734.922 75.8228 739.191 71.6693C744.126 66.8681 756.483 63.0291 756.483 63.0291C756.483 63.0291 741.738 64.2255 734.534 68.334C729.891 70.9828 724.876 76.842 724.876 76.842C724.876 76.842 726.421 66.341 731.962 61.3809C735.574 58.147 738.111 55.9549 743.534 54.8959C747.594 54.1032 754.139 55.1932 754.139 55.1932C754.139 55.1932 746.72 52.6832 741.621 52.8729C736.684 53.0566 733.502 53.6643 729.501 55.9349C725.883 57.9886 722.67 62.9347 722.67 62.9347L717.003 73.7448L720.517 57.6823C720.517 57.6823 717.256 63.2479 715.616 66.9204C712.893 73.0158 710.624 82.8759 710.624 82.8759C710.624 82.8759 709.567 61.9592 711.614 48.6002C713.156 38.5397 712.777 32.5159 717.951 23.0205C720.539 18.2714 721.552 15.2144 726.202 11.3697C732.057 6.52829 745.572 3.00854 745.572 3.00854C745.572 3.00854 738.263 3.54965 735.079 4.21747C731.895 4.8853 728.127 6.51851 724.549 8.89438C718.105 13.1726 717.343 17.4004 714.151 23.3018C709.197 32.4599 707.149 47.8484 707.149 47.8484L700.157 88.4131C700.157 88.4131 701.328 52.6079 698.516 42.4263C695.705 32.2447 685.978 19.9758 685.978 19.9758C685.978 19.9758 690.038 38.2479 691.441 50.0937C692.443 58.5532 693.051 71.8381 693.051 71.8381C693.051 71.8381 691.65 63.6599 688.863 58.9434C687.475 56.5944 684.616 53.1966 684.616 53.1966C684.616 53.1966 687.444 60.0549 688.108 64.6275C688.874 69.9062 687.65 78.2991 687.65 78.2991C687.65 78.2991 688.004 59.9647 682.006 49.7098C678.675 44.0155 677.665 39.6964 670.721 36.2582C663.865 32.8634 649.645 33.4891 649.645 33.4891C649.645 33.4891 660.111 33.9788 665.166 36.6694C671.213 39.8878 672.16 43.7128 674.601 48.9592C677.644 55.5011 677.093 66.7418 677.093 66.7418C677.093 66.7418 671.034 54.7352 662.906 49.825C657.771 46.7221 654.423 44.8176 647.778 44.0179C638.448 42.8949 627.993 46.7806 624.044 49.0221C620.094 51.2635 620.025 54.2984 620.025 54.2984C620.025 54.2984 629.055 49.3727 635.738 48.1563C642.275 46.9666 646.714 46.3735 652.791 48.1927C657.802 49.6928 660.11 51.5639 663.273 54.7767C668.176 59.7561 668.822 70.1682 668.822 70.1682L668.667 87.9303C668.667 87.9303 667.664 75.0638 660.572 69.9131C655.953 66.5583 645.752 64.2996 645.752 64.2996C645.752 64.2996 651.939 68.1824 654.512 71.4441C657.633 75.4002 658.112 78.2012 658.881 82.8101C659.776 88.1741 657.855 96.7402 657.855 96.7402C657.855 96.7402 650.028 73.5596 639.049 61.1159C635.862 57.5029 630.162 52.2491 630.162 52.2491C630.162 52.2491 642.857 71.8403 646.437 85.4631C647.931 91.1472 648.999 100.21 648.999 100.21L631.692 72.917C631.692 72.917 637.294 85.7087 639.149 94.2285C640.105 98.6212 640.871 105.574 640.871 105.574C640.871 105.574 637.669 98.5396 633.349 95.3073C631.413 93.8582 628.109 92.3183 626.435 91.5796C626.079 91.0479 625.706 90.5385 625.318 90.0572C621.38 85.1819 618.658 82.4374 612.454 79.1036C608.867 77.1762 602.456 75.0815 602.456 75.0815C602.456 75.0815 610.385 79.0701 613.895 82.677C616.913 85.7793 617.769 87.9519 619.55 91.5665C622.623 97.8018 624.025 108.336 624.025 108.336C624.025 108.336 622.132 103.769 618.885 102.439C615.904 101.218 613.338 101.099 610.035 102.012C604.971 103.412 602.747 110.778 602.747 110.778C602.747 110.778 606.913 104.044 611.672 104.272C613.913 104.38 615.204 104.936 616.801 106.057C619.083 107.658 619.571 111.697 619.571 111.697L612.804 107.652L617.407 114.238L617.774 119.19C617.774 119.19 611.475 113.766 606.249 114.415C601.481 115.006 597.016 120.727 597.016 120.727C597.016 120.727 602.612 117.117 606.488 117.644C608.652 117.938 611.246 118.375 611.342 119.666C611.437 120.957 612.205 128.499 612.205 128.499L756.778 116.527Z" fill="#46725C"/>
<path d="M768.101 123.38C768.101 123.38 765.109 111.831 757.956 109.244C751.48 106.903 739.249 110.264 739.249 110.264C739.249 110.264 752.428 103.22 758.748 103.042C765.068 102.864 769.586 106.946 769.586 106.946C769.586 106.946 765.713 97.2688 759.36 93.52C754.67 90.753 751.169 89.5118 745.105 89.1366C741.955 88.9417 736.991 89.5789 736.991 89.5789C736.991 89.5789 743.672 86.7333 748.35 86.4626C754.593 86.1015 759.503 87.8523 763.461 89.967C767.419 92.0818 777.988 103.491 777.988 103.491L773.659 94.5716L780.918 103.332C780.918 103.332 780.492 99.0246 779.411 96.4221C778.334 93.8284 775.452 90.1457 775.452 90.1457C775.452 90.1457 778.724 91.6912 780.357 93.0412C781.702 94.1531 783.243 96.2133 783.243 96.2133C783.243 96.2133 780.78 90.1428 777.111 87.3918C772.869 84.2119 763.054 82.4982 763.054 82.4982C763.054 82.4982 774.432 81.9584 780.338 84.3859C784.145 85.951 788.552 89.931 788.552 89.931C788.552 89.931 786.337 82.0644 781.617 78.8228C778.54 76.7093 776.386 75.2854 772.14 75.0112C768.962 74.8059 764.072 76.2834 764.072 76.2834C764.072 76.2834 769.489 73.6354 773.402 73.2777C777.19 72.9314 779.681 73.0818 782.959 74.4214C785.925 75.6331 788.865 79.0935 788.865 79.0935L794.258 86.79L789.992 74.8704C789.992 74.8704 793.03 78.7991 794.645 81.4419C797.325 85.8282 800.03 93.1341 800.03 93.1341C800.03 93.1341 798.775 77.0571 795.895 67.0575C793.727 59.5268 793.422 54.8896 788.535 48.1485C786.091 44.777 785.016 42.5424 781.086 40.0647C776.138 36.9447 765.47 35.589 765.47 35.589C765.47 35.589 771.105 35.2818 773.602 35.478C776.1 35.6741 779.138 36.5499 782.105 38.0115C787.447 40.6434 788.446 43.7968 791.465 47.9887C796.15 54.494 799.231 66.0433 799.231 66.0433L808.568 96.3309C808.568 96.3309 804.145 69.1041 805.289 61.052C806.432 52.9999 812.651 42.6721 812.651 42.6721C812.651 42.6721 811.352 57.0255 811.448 66.2097C811.516 72.7685 812.361 82.9731 812.361 82.9731C812.361 82.9731 812.625 76.5899 814.289 72.7135C815.117 70.7829 816.966 67.9065 816.966 67.9065C816.966 67.9065 815.482 73.4225 815.426 76.9797C815.361 81.0862 817.123 87.3747 817.123 87.3747C817.123 87.3747 815.045 73.4088 818.615 64.9866C820.597 60.3099 820.943 56.9122 825.906 53.6023C830.807 50.3341 841.728 49.4104 841.728 49.4104C841.728 49.4104 833.784 50.8159 830.189 53.3688C825.888 56.4225 825.542 59.4367 824.195 63.6836C822.516 68.9792 824.045 77.5087 824.045 77.5087C824.045 77.5087 827.489 67.7428 833.211 63.1921C836.827 60.3165 839.196 58.5322 844.191 57.2666C851.206 55.4894 859.572 57.4263 862.809 58.7487C866.046 60.0711 866.398 62.3818 866.398 62.3818C866.398 62.3818 859.017 59.5103 853.793 59.2402C848.684 58.9759 845.236 58.9605 840.775 60.9487C837.096 62.5881 835.518 64.2444 833.419 67.0096C830.166 71.2953 830.699 79.31 830.699 79.31L832.568 92.8585C832.568 92.8585 832.065 82.9344 836.974 78.3021C840.17 75.2849 847.737 72.5548 847.737 72.5548C847.737 72.5548 843.395 76.1296 841.752 78.8739C839.759 82.2026 839.669 84.3888 839.536 87.984C839.381 92.1684 841.693 98.5204 841.693 98.5204C841.693 98.5204 845.385 80.0475 852.542 69.4629C854.62 66.3898 858.455 61.816 858.455 61.816C858.455 61.816 850.691 78.0278 849.3 88.7835C848.72 93.2713 848.797 100.297 848.797 100.297L859.324 77.7496C859.324 77.7496 856.307 88.0698 855.73 94.7588C855.432 98.2074 855.533 103.592 855.533 103.592C855.533 103.592 857.284 97.905 860.265 95.0109C861.601 93.7135 863.972 92.2119 865.177 91.4829C865.397 91.0417 865.631 90.616 865.88 90.2102C868.407 86.0992 870.215 83.7351 874.624 80.5778C877.173 78.7524 881.863 76.5209 881.863 76.5209C881.863 76.5209 876.201 80.3482 873.876 83.4485C871.877 86.1151 871.438 87.8585 870.434 90.7943C868.701 95.8587 868.669 104.041 868.669 104.041C868.669 104.041 869.665 100.367 872.013 99.0316C874.169 97.8054 876.117 97.4613 878.729 97.8331C882.734 98.4029 885.159 103.808 885.159 103.808C885.159 103.808 881.313 99.0768 877.702 99.7203C876.001 100.023 875.07 100.575 873.961 101.589C872.376 103.036 872.402 106.169 872.402 106.169L877.171 102.413L874.305 107.896L874.513 111.713C874.513 111.713 878.788 106.951 882.842 106.931C886.542 106.913 890.516 110.841 890.516 110.841C890.516 110.841 885.886 108.636 882.978 109.421C881.355 109.859 879.417 110.448 879.471 111.443C879.526 112.438 879.683 118.273 879.683 118.273L768.101 123.38Z" fill="#436F5D"/>
<path d="M1358.54 103.427C1358.54 103.427 1358.15 94.9066 1353.53 92.039C1349.35 89.4428 1340.3 89.9831 1340.3 89.9831C1340.3 89.9831 1350.56 87.0074 1355.01 87.8183C1359.45 88.6293 1362.01 92.1528 1362.01 92.1528C1362.01 92.1528 1360.73 84.8116 1356.84 81.2493C1353.97 78.62 1351.71 77.2338 1347.52 76.0737C1345.35 75.4712 1341.78 75.182 1341.78 75.182C1341.78 75.182 1346.88 74.1808 1350.19 74.684C1354.61 75.3554 1357.78 77.3067 1360.24 79.3716C1362.69 81.4365 1368.4 90.9805 1368.4 90.9805L1366.69 84.1014L1370.47 91.3025C1370.47 91.3025 1370.81 88.2271 1370.44 86.2471C1370.07 84.2737 1368.6 81.2715 1368.6 81.2715C1368.6 81.2715 1370.66 82.8367 1371.6 84.0226C1372.38 84.9992 1373.15 86.6681 1373.15 86.6681C1373.15 86.6681 1372.32 82.0581 1370.17 79.5909C1367.67 76.7391 1361.06 74.0878 1361.06 74.0878C1361.06 74.0878 1369.1 75.3945 1372.87 77.9663C1375.3 79.6245 1377.79 83.0603 1377.79 83.0603C1377.79 83.0603 1377.41 77.2307 1374.59 74.2649C1372.75 72.3313 1371.45 71.0167 1368.52 70.1965C1366.33 69.5825 1362.69 69.8919 1362.69 69.8919C1362.69 69.8919 1366.87 68.842 1369.66 69.171C1372.36 69.4895 1374.08 69.9633 1376.18 71.3855C1378.07 72.6718 1379.61 75.5272 1379.61 75.5272L1382.25 81.7082L1381.03 72.7404C1381.03 72.7404 1382.57 75.9378 1383.31 78.0251C1384.53 81.4895 1385.34 86.9994 1385.34 86.9994C1385.34 86.9994 1386.85 75.5699 1386.31 68.1501C1385.91 62.5623 1386.38 59.274 1383.96 53.8361C1382.75 51.1163 1382.33 49.3944 1379.95 47.0799C1376.95 44.1654 1369.69 41.6382 1369.69 41.6382C1369.69 41.6382 1373.68 42.2575 1375.4 42.7643C1377.11 43.2711 1379.11 44.3334 1380.97 45.7947C1384.31 48.4262 1384.55 50.7794 1386.04 54.1581C1388.35 59.4012 1388.8 67.9346 1388.8 67.9346L1390.84 90.4991C1390.84 90.4991 1391.78 70.8026 1393.77 65.3404C1395.76 59.8782 1401.64 53.5757 1401.64 53.5757C1401.64 53.5757 1398.61 63.4218 1397.32 69.8592C1396.39 74.4564 1395.47 81.7184 1395.47 81.7184C1395.47 81.7184 1396.6 77.2932 1398.34 74.8284C1399.2 73.6008 1400.92 71.8627 1400.92 71.8627C1400.92 71.8627 1399.07 75.5008 1398.5 77.9803C1397.85 80.8427 1398.15 85.5015 1398.15 85.5015C1398.15 85.5015 1398.77 75.4265 1402.51 70.0647C1404.59 67.0873 1405.33 64.7622 1409.29 63.182C1413.21 61.6218 1420.98 62.5923 1420.98 62.5923C1420.98 62.5923 1415.22 62.3994 1412.32 63.6526C1408.86 65.1517 1408.18 67.2086 1406.6 69.9794C1404.65 73.4345 1404.45 79.626 1404.45 79.626C1404.45 79.626 1408.31 73.3058 1412.98 70.9702C1415.94 69.4943 1417.86 68.597 1421.54 68.4513C1426.71 68.2466 1432.27 70.8396 1434.34 72.2436C1436.41 73.6476 1436.31 75.3158 1436.31 75.3158C1436.31 75.3158 1431.58 72.215 1427.96 71.2528C1424.43 70.3118 1422.02 69.7907 1418.6 70.5207C1415.79 71.1228 1414.44 72.0476 1412.56 73.6708C1409.65 76.1866 1408.84 81.8708 1408.84 81.8708L1408.14 91.6229C1408.14 91.6229 1409.26 84.6078 1413.38 82.0946C1416.06 80.4577 1421.76 79.6684 1421.76 79.6684C1421.76 79.6684 1418.19 81.5258 1416.64 83.2019C1414.75 85.2348 1414.36 86.7505 1413.74 89.2452C1413.01 92.1488 1413.69 96.9334 1413.69 96.9334C1413.69 96.9334 1419 84.5603 1425.57 78.2172C1427.48 76.3755 1430.84 73.7443 1430.84 73.7443C1430.84 73.7443 1423.01 83.9333 1420.45 91.2497C1419.38 94.3024 1418.39 99.2277 1418.39 99.2277L1429.09 85.0165C1429.09 85.0165 1425.45 91.7876 1424.06 96.3803C1423.34 98.7482 1422.61 102.529 1422.61 102.529C1422.61 102.529 1424.68 98.8109 1427.19 97.2279C1428.32 96.5183 1430.2 95.8191 1431.15 95.4877C1431.37 95.2117 1431.6 94.9486 1431.83 94.7017C1434.21 92.2005 1435.82 90.8147 1439.37 89.2592C1441.43 88.3599 1445.04 87.4934 1445.04 87.4934C1445.04 87.4934 1440.51 89.3321 1438.42 91.1562C1436.63 92.7252 1436.07 93.8795 1434.93 95.7841C1432.97 99.0696 1431.73 104.788 1431.73 104.788C1431.73 104.788 1432.98 102.365 1434.82 101.779C1436.5 101.24 1437.92 101.288 1439.69 101.935C1442.41 102.926 1443.3 107.066 1443.3 107.066C1443.3 107.066 1441.31 103.187 1438.69 103.103C1437.46 103.063 1436.72 103.311 1435.8 103.856C1434.48 104.633 1434.03 106.828 1434.03 106.828L1437.92 104.907L1435.11 108.318L1434.69 111.018C1434.69 111.018 1438.38 108.32 1441.22 108.907C1443.81 109.442 1446.01 112.777 1446.01 112.777C1446.01 112.777 1443.1 110.55 1440.95 110.668C1439.75 110.734 1438.3 110.859 1438.19 111.563C1438.08 112.267 1437.33 116.371 1437.33 116.371L1358.54 103.427Z" fill="#45705C"/>
<path d="M1685.95 150.778C1685.95 150.778 1689.44 140.946 1695.86 139.239C1701.68 137.692 1712.08 141.551 1712.08 141.551C1712.08 141.551 1701.14 134.412 1695.65 133.776C1690.16 133.14 1685.91 136.351 1685.91 136.351C1685.91 136.351 1690.02 128.217 1695.84 125.436C1700.14 123.383 1703.28 122.568 1708.59 122.703C1711.35 122.774 1715.62 123.707 1715.62 123.707C1715.62 123.707 1710.02 120.719 1705.97 120.127C1700.56 119.337 1696.15 120.488 1692.54 122.029C1688.93 123.569 1678.86 132.702 1678.86 132.702L1683.31 125.263L1676.32 132.34C1676.32 132.34 1677.01 128.621 1678.15 126.437C1679.29 124.259 1682.08 121.271 1682.08 121.271C1682.08 121.271 1679.11 122.368 1677.59 123.42C1676.33 124.286 1674.83 125.963 1674.83 125.963C1674.83 125.963 1677.44 120.863 1680.85 118.746C1684.78 116.3 1693.46 115.555 1693.46 115.555C1693.46 115.555 1683.59 114.218 1678.26 115.883C1674.83 116.956 1670.69 120.087 1670.69 120.087C1670.69 120.087 1673.22 113.404 1677.57 110.94C1680.41 109.333 1682.4 108.257 1686.12 108.342C1688.9 108.405 1693.05 110.064 1693.05 110.064C1693.05 110.064 1688.53 107.345 1685.15 106.736C1681.88 106.146 1679.7 106.087 1676.74 107.004C1674.06 107.834 1671.24 110.624 1671.24 110.624L1665.96 116.916L1670.58 106.86C1670.58 106.86 1667.63 110.05 1666.03 112.229C1663.36 115.845 1660.45 122.002 1660.45 122.002C1660.45 122.002 1662.76 108.095 1666.03 99.605C1668.5 93.211 1669.11 89.1952 1673.88 83.696C1676.27 80.9456 1677.38 79.0811 1680.99 77.2223C1685.53 74.8817 1694.93 74.5133 1694.93 74.5133C1694.93 74.5133 1690.04 73.8166 1687.85 73.7973C1685.66 73.7779 1682.95 74.3094 1680.26 75.3565C1675.4 77.242 1674.29 79.9125 1671.34 83.3337C1666.77 88.6429 1663.2 98.4676 1663.2 98.4676L1652.77 124.137C1652.77 124.137 1658.69 100.759 1658.31 93.6589C1657.93 86.5585 1653.3 77.0896 1653.3 77.0896C1653.3 77.0896 1653.33 89.6902 1652.55 97.6822C1651.99 103.39 1650.48 112.213 1650.48 112.213C1650.48 112.213 1650.74 106.634 1649.58 103.131C1649.01 101.386 1647.62 98.7399 1647.62 98.7399C1647.62 98.7399 1648.49 103.657 1648.27 106.76C1648.01 110.341 1646 115.684 1646 115.684C1646 115.684 1648.87 103.679 1646.4 96.0711C1645.03 91.8468 1644.99 88.8611 1640.92 85.6002C1636.9 82.3804 1627.46 80.7442 1627.46 80.7442C1627.46 80.7442 1634.27 82.5733 1637.21 85.0707C1640.72 88.0579 1640.79 90.7096 1641.64 94.5112C1642.7 99.2515 1640.72 106.564 1640.72 106.564C1640.72 106.564 1638.46 97.7959 1633.83 93.3966C1630.9 90.6165 1628.97 88.882 1624.71 87.3993C1618.74 85.3172 1611.3 86.3671 1608.38 87.2724C1605.46 88.1777 1604.98 90.1634 1604.98 90.1634C1604.98 90.1634 1611.63 88.2245 1616.2 88.387C1620.67 88.5459 1623.67 88.7951 1627.41 90.8665C1630.49 92.5746 1631.74 94.1374 1633.35 96.7056C1635.86 100.686 1634.79 107.626 1634.79 107.626L1632.13 119.285C1632.13 119.285 1633.32 110.679 1629.4 106.271C1626.84 103.399 1620.46 100.445 1620.46 100.445C1620.46 100.445 1623.97 103.889 1625.19 106.405C1626.67 109.456 1626.59 111.367 1626.43 114.508C1626.24 118.165 1623.75 123.521 1623.75 123.521C1623.75 123.521 1621.94 107.15 1616.51 97.3862C1614.94 94.5513 1611.94 90.2755 1611.94 90.2755C1611.94 90.2755 1617.47 104.987 1617.86 114.461C1618.03 118.414 1617.42 124.528 1617.42 124.528L1609.97 104.087C1609.97 104.087 1611.82 113.306 1611.81 119.176C1611.8 122.202 1611.31 126.885 1611.31 126.885C1611.31 126.885 1610.21 121.798 1607.84 119.05C1606.77 117.818 1604.82 116.33 1603.83 115.603C1603.67 115.202 1603.5 114.814 1603.31 114.441C1601.43 110.668 1600.03 108.471 1596.43 105.385C1594.35 103.601 1590.44 101.301 1590.44 101.301C1590.44 101.301 1595.08 105.065 1596.86 107.943C1598.4 110.418 1598.65 111.969 1599.3 114.603C1600.43 119.146 1599.83 126.276 1599.83 126.276C1599.83 126.276 1599.24 122.999 1597.3 121.657C1595.52 120.425 1593.85 119.977 1591.54 120.102C1588.01 120.293 1585.49 124.817 1585.49 124.817C1585.49 124.817 1589.2 120.989 1592.29 121.824C1593.75 122.217 1594.52 122.769 1595.41 123.736C1596.68 125.117 1596.42 127.844 1596.42 127.844L1592.55 124.21L1594.63 129.204L1594.16 132.513C1594.16 132.513 1590.8 128.039 1587.27 127.713C1584.05 127.416 1580.29 130.534 1580.29 130.534C1580.29 130.534 1584.49 128.966 1586.96 129.871C1588.34 130.376 1589.98 131.037 1589.86 131.9C1589.74 132.762 1589.15 137.832 1589.15 137.832L1685.95 150.778Z" fill="#48745D"/>
<path d="M1973.96 193.617C1973.96 193.617 1973.43 178.131 1965.09 172.832C1957.55 168.035 1941.09 168.842 1941.09 168.842C1941.09 168.842 1959.79 163.634 1967.85 165.193C1975.91 166.752 1980.49 173.203 1980.49 173.203C1980.49 173.203 1978.31 159.842 1971.31 153.295C1966.15 148.463 1962.06 145.901 1954.48 143.713C1950.54 142.576 1944.07 141.982 1944.07 141.982C1944.07 141.982 1953.34 140.261 1959.35 141.239C1967.37 142.545 1973.1 146.151 1977.52 149.949C1981.94 153.748 1992.11 171.196 1992.11 171.196L1989.14 158.666L1995.87 171.821C1995.87 171.821 1996.55 166.241 1995.91 162.637C1995.28 159.045 1992.67 153.562 1992.67 153.562C1992.67 153.562 1996.38 156.445 1998.07 158.618C1999.46 160.407 2000.83 163.454 2000.83 163.454C2000.83 163.454 1999.42 155.063 1995.55 150.539C1991.07 145.31 1979.11 140.366 1979.11 140.366C1979.11 140.366 1993.69 142.895 2000.49 147.64C2004.87 150.7 2009.33 156.989 2009.33 156.989C2009.33 156.989 2008.75 146.392 2003.68 140.949C2000.38 137.401 1998.05 134.988 1992.74 133.441C1988.77 132.283 1982.16 132.775 1982.16 132.775C1982.16 132.775 1989.77 130.949 1994.83 131.6C1999.73 132.231 2002.85 133.125 2006.62 135.749C2010.04 138.122 2012.79 143.34 2012.79 143.34L2017.46 154.619L2015.41 138.304C2015.41 138.304 2018.16 144.143 2019.46 147.949C2021.61 154.266 2022.98 164.291 2022.98 164.291C2022.98 164.291 2025.93 143.557 2025.1 130.067C2024.48 119.908 2025.4 113.944 2021.11 104.018C2018.97 99.0537 2018.23 95.9174 2013.95 91.6668C2008.56 86.3142 1995.42 81.583 1995.42 81.583C1995.42 81.583 2002.65 82.7849 2005.76 83.7388C2008.87 84.6927 2012.48 86.6609 2015.82 89.3516C2021.85 94.1968 2022.23 98.4763 2024.87 104.643C2028.97 114.213 2029.62 129.723 2029.62 129.723L2032.9 170.755C2032.9 170.755 2034.98 134.991 2038.71 125.107C2042.43 115.222 2053.23 103.886 2053.23 103.886C2053.23 103.886 2047.53 121.715 2045.06 133.384C2043.29 141.718 2041.48 154.893 2041.48 154.893C2041.48 154.893 2043.62 146.876 2046.82 142.432C2048.42 140.218 2051.57 137.094 2051.57 137.094C2051.57 137.094 2048.13 143.667 2047.06 148.161C2045.82 153.348 2046.27 161.817 2046.27 161.817C2046.27 161.817 2047.58 143.526 2054.49 133.858C2058.32 128.489 2059.72 124.28 2066.95 121.485C2074.08 118.727 2088.19 120.64 2088.19 120.64C2088.19 120.64 2077.72 120.178 2072.44 122.399C2066.13 125.055 2064.84 128.779 2061.93 133.782C2058.31 140.021 2057.84 151.265 2057.84 151.265C2057.84 151.265 2064.96 139.858 2073.5 135.705C2078.9 133.081 2082.4 131.488 2089.09 131.294C2098.49 131.022 2108.54 135.84 2112.27 138.431C2116 141.021 2115.8 144.05 2115.8 144.05C2115.8 144.05 2107.25 138.326 2100.71 136.508C2094.3 134.73 2089.94 133.737 2083.72 134.997C2078.59 136.037 2076.13 137.691 2072.68 140.603C2067.35 145.117 2065.76 155.428 2065.76 155.428L2064.31 173.131C2064.31 173.131 2066.47 160.408 2074 155.922C2078.91 153 2089.27 151.676 2089.27 151.676C2089.27 151.676 2082.76 154.982 2079.9 157.997C2076.43 161.653 2075.7 164.399 2074.52 168.919C2073.14 174.18 2074.27 182.885 2074.27 182.885C2074.27 182.885 2084.17 160.51 2096.23 149.114C2099.74 145.805 2105.89 141.09 2105.89 141.09C2105.89 141.09 2091.47 159.448 2086.67 172.69C2084.66 178.216 2082.78 187.144 2082.78 187.144L2102.49 161.534C2102.49 161.534 2095.75 173.764 2093.13 182.081C2091.78 186.369 2090.39 193.223 2090.39 193.223C2090.39 193.223 2094.21 186.508 2098.81 183.681C2100.87 182.414 2104.3 181.18 2106.03 180.596C2106.44 180.099 2106.85 179.625 2107.28 179.181C2111.65 174.683 2114.61 172.197 2121.09 169.44C2124.83 167.846 2131.41 166.341 2131.41 166.341C2131.41 166.341 2123.15 169.594 2119.33 172.868C2116.04 175.683 2114.99 177.77 2112.89 181.208C2109.26 187.138 2106.91 197.502 2106.91 197.502C2106.91 197.502 2109.21 193.126 2112.57 192.096C2115.65 191.15 2118.21 191.264 2121.42 192.473C2126.33 194.327 2127.88 201.864 2127.88 201.864C2127.88 201.864 2124.34 194.78 2119.58 194.576C2117.34 194.479 2116.01 194.916 2114.31 195.888C2111.9 197.275 2111.04 201.253 2111.04 201.253L2118.15 197.839L2112.97 203.98L2112.15 208.878C2112.15 208.878 2118.92 204.048 2124.06 205.168C2128.76 206.19 2132.69 212.292 2132.69 212.292C2132.69 212.292 2127.44 208.189 2123.53 208.363C2121.35 208.459 2118.73 208.659 2118.52 209.936C2118.3 211.213 2116.85 218.654 2116.85 218.654L1973.96 193.617Z" fill="#517E5E"/>
<path d="M711.002 138.02C714.446 143.459 715.202 153.414 715.202 153.414H750.603C750.603 153.414 749.805 146.045 750.603 141.403C751.16 138.169 751.312 136.222 753.003 133.283C754.589 130.527 755.894 129.06 758.604 127.024C760.628 125.503 761.918 124.719 764.404 123.81C766.768 122.945 768.251 122.752 770.804 122.456C773.977 122.09 779.004 122.456 779.004 122.456C779.004 122.456 777.037 120.985 775.604 120.257C773.651 119.266 772.447 118.731 770.204 118.396C768.358 118.121 767.262 118.187 765.404 118.396C763.053 118.662 761.764 119.092 759.604 119.919C756.088 121.264 754.442 122.614 751.603 124.825C747.924 127.69 743.603 133.283 743.603 133.283C743.603 133.283 743.55 126.603 744.603 122.456C745.558 118.698 746.2 116.515 748.403 113.152L748.437 113.101C749.908 110.855 750.786 109.516 753.003 107.739C754.922 106.201 756.156 105.368 758.604 104.525C760.746 103.787 762.095 103.63 764.404 103.51C766.909 103.379 770.804 104.017 770.804 104.017C770.804 104.017 766.526 101.655 763.404 101.311C761.932 101.148 761.08 101.185 759.604 101.311C757.605 101.48 756.473 101.705 754.603 102.326C751.751 103.272 750.364 104.299 748.078 105.991L748.003 106.047C743.829 109.138 742.544 111.779 739.803 115.859C735.395 122.42 731.803 133.96 731.803 133.96C731.803 133.96 732.952 123.027 734.803 116.197C736.409 110.27 737.596 106.978 740.203 101.311C741.94 97.5348 745.203 91.8372 745.203 91.8372C745.203 91.8372 748.827 86.1025 752.403 83.3788C755.221 81.2326 760.604 78.9805 760.604 78.9805C760.604 78.9805 750.803 80.3338 748.203 81.6871C745.603 83.0405 742.045 84.7863 739.003 87.608C735.907 90.4799 732.803 96.0664 732.803 96.0664C732.803 96.0664 729.752 102.047 728.403 106.047C725.344 115.112 725.603 130.069 725.603 130.069C725.603 130.069 724.813 121.703 723.202 116.536C721.956 112.535 719.002 106.555 719.002 106.555C719.002 106.555 715.984 100.779 712.602 98.0964C709.563 95.6859 707.438 94.4021 703.402 93.5289C701.497 93.1166 698.402 93.0214 698.402 93.0214C698.402 93.0214 703.642 98.806 706.402 102.833C711.624 110.454 713.065 115.411 716.202 123.81C719.466 132.55 722.602 146.647 722.602 146.647C722.602 146.647 719.277 134.6 713.402 128.885L713.384 128.867C710.376 125.941 708.534 124.149 704.402 122.456C699.222 120.335 695.539 120.39 689.801 120.765C683.767 121.159 675.001 124.656 675.001 124.656C675.001 124.656 691.183 122.995 699.402 127.193C705.177 130.143 707.817 132.99 711.002 138.02Z" fill="#5D9675"/>
<path d="M1398.84 158.37C1401.9 164.032 1401.97 174.016 1401.97 174.016L1437.29 176.447C1437.29 176.447 1437 169.04 1438.11 164.464C1438.89 161.275 1439.18 159.344 1441.07 156.528C1442.84 153.887 1444.24 152.513 1447.08 150.668C1449.21 149.289 1450.55 148.596 1453.09 147.86C1455.51 147.159 1457 147.068 1459.57 146.949C1462.76 146.801 1467.75 147.512 1467.75 147.512C1467.75 147.512 1465.89 145.909 1464.51 145.085C1462.63 143.962 1461.46 143.345 1459.25 142.857C1457.43 142.456 1456.33 142.446 1454.46 142.528C1452.1 142.631 1450.78 142.972 1448.57 143.648C1444.97 144.749 1443.23 145.982 1440.25 147.993C1436.38 150.6 1431.69 155.883 1431.69 155.883C1431.69 155.883 1432.09 149.214 1433.43 145.15C1434.64 141.466 1435.43 139.332 1437.86 136.129L1437.9 136.08C1439.52 133.94 1440.49 132.665 1442.82 131.044C1444.84 129.642 1446.13 128.895 1448.63 128.222C1450.82 127.633 1452.17 127.569 1454.48 127.607C1456.99 127.65 1460.83 128.553 1460.83 128.553C1460.83 128.553 1456.73 125.903 1453.64 125.345C1452.18 125.082 1451.33 125.06 1449.85 125.084C1447.84 125.116 1446.7 125.263 1444.79 125.753C1441.88 126.502 1440.42 127.431 1438.03 128.963L1437.95 129.013C1433.57 131.81 1432.11 134.357 1429.09 138.239C1424.25 144.482 1419.87 155.748 1419.87 155.748C1419.87 155.748 1421.77 144.92 1424.08 138.233C1426.09 132.43 1427.5 129.227 1430.49 123.752C1432.48 120.104 1436.13 114.644 1436.13 114.644C1436.13 114.644 1440.14 109.172 1443.89 106.7C1446.85 104.753 1452.38 102.875 1452.38 102.875C1452.38 102.875 1442.51 103.552 1439.82 104.724C1437.13 105.896 1433.46 107.393 1430.24 109.999C1426.95 112.652 1423.47 118.012 1423.47 118.012C1423.47 118.012 1420.01 123.769 1418.39 127.667C1414.72 136.501 1413.95 151.44 1413.95 151.44C1413.95 151.44 1413.74 143.04 1412.49 137.774C1411.52 133.697 1408.98 127.528 1408.98 127.528C1408.98 127.528 1406.37 121.559 1403.18 118.65C1400.31 116.037 1398.28 114.61 1394.31 113.462C1392.44 112.92 1389.36 112.612 1389.36 112.612C1389.36 112.612 1394.19 118.743 1396.67 122.95C1401.35 130.912 1402.45 135.956 1405 144.55C1407.66 153.494 1409.82 167.773 1409.82 167.773C1409.82 167.773 1407.33 155.526 1401.86 149.421L1401.84 149.402C1399.04 146.277 1397.33 144.363 1393.32 142.39C1388.3 139.917 1384.62 139.72 1378.87 139.7C1372.83 139.678 1363.84 142.565 1363.84 142.565C1363.84 142.565 1380.1 142.02 1388.01 146.772C1393.57 150.112 1396.01 153.133 1398.84 158.37Z" fill="#5D9675"/>
<path d="M817.163 120.175C819.155 123.304 819.593 129.032 819.593 129.032H840.07C840.07 129.032 839.608 124.792 840.07 122.122C840.391 120.26 840.48 119.141 841.458 117.45C842.375 115.864 843.13 115.02 844.697 113.849C845.868 112.973 846.615 112.522 848.052 111.999C849.42 111.501 850.278 111.39 851.754 111.221C853.59 111.01 856.498 111.221 856.498 111.221C856.498 111.221 855.36 110.374 854.531 109.955C853.401 109.385 852.704 109.077 851.407 108.885C850.339 108.726 849.705 108.764 848.631 108.885C847.271 109.037 846.526 109.285 845.276 109.761C843.242 110.535 842.29 111.311 840.648 112.583C838.52 114.232 836.02 117.45 836.02 117.45C836.02 117.45 835.99 113.606 836.599 111.221C837.151 109.058 837.523 107.802 838.797 105.868L838.816 105.838C839.668 104.546 840.175 103.775 841.458 102.753C842.568 101.868 843.281 101.389 844.697 100.904C845.936 100.479 846.717 100.389 848.052 100.32C849.502 100.245 851.754 100.612 851.754 100.612C851.754 100.612 849.28 99.2529 847.474 99.0545C846.623 98.961 846.13 98.9824 845.276 99.0545C844.12 99.1521 843.465 99.2816 842.383 99.6385C840.733 100.183 839.931 100.774 838.609 101.748L838.566 101.78C836.151 103.558 835.408 105.078 833.822 107.425C831.273 111.2 829.195 117.839 829.195 117.839C829.195 117.839 829.859 111.549 830.93 107.619C831.859 104.209 832.546 102.315 834.054 99.0545C835.058 96.8821 836.946 93.604 836.946 93.604C836.946 93.604 839.042 90.3046 841.111 88.7376C842.741 87.5028 845.854 86.207 845.854 86.207C845.854 86.207 840.185 86.9857 838.681 87.7643C837.177 88.5429 835.119 89.5474 833.36 91.1708C831.569 92.8231 829.773 96.0373 829.773 96.0373C829.773 96.0373 828.009 99.4782 827.228 101.78C825.459 106.995 825.608 115.6 825.608 115.6C825.608 115.6 825.152 110.787 824.22 107.814C823.499 105.512 821.791 102.072 821.791 102.072C821.791 102.072 820.045 98.7487 818.089 97.2052C816.331 95.8184 815.101 95.0797 812.767 94.5773C811.665 94.3402 809.875 94.2854 809.875 94.2854C809.875 94.2854 812.906 97.6135 814.502 99.9304C817.523 104.315 818.357 107.167 820.171 111.999C822.059 117.028 823.873 125.139 823.873 125.139C823.873 125.139 821.95 118.207 818.551 114.919L818.541 114.909C816.801 113.226 815.735 112.195 813.345 111.221C810.349 110 808.219 110.032 804.9 110.247C801.409 110.474 796.339 112.486 796.339 112.486C796.339 112.486 805.699 111.531 810.453 113.946C813.793 115.643 815.321 117.281 817.163 120.175Z" fill="#5D9675"/>
<path d="M1645.45 179.979C1647.17 183.554 1646.93 189.704 1646.93 189.704L1668.65 192.22C1668.65 192.22 1668.68 187.651 1669.5 184.865C1670.07 182.924 1670.31 181.743 1671.55 180.064C1672.72 178.489 1673.63 177.683 1675.43 176.629C1676.78 175.841 1677.63 175.453 1679.22 175.073C1680.73 174.711 1681.66 174.698 1683.24 174.699C1685.21 174.7 1688.27 175.282 1688.27 175.282C1688.27 175.282 1687.17 174.241 1686.34 173.694C1685.22 172.948 1684.51 172.534 1683.16 172.17C1682.05 171.871 1681.37 171.833 1680.22 171.829C1678.76 171.825 1677.93 171.997 1676.55 172.349C1674.3 172.923 1673.19 173.632 1671.29 174.785C1668.83 176.278 1665.79 179.395 1665.79 179.395C1665.79 179.395 1666.23 175.301 1667.17 172.837C1668.02 170.603 1668.57 169.312 1670.16 167.41L1670.18 167.381C1671.24 166.11 1671.88 165.352 1673.36 164.422C1674.65 163.617 1675.47 163.194 1677.03 162.852C1678.4 162.552 1679.23 162.552 1680.66 162.642C1682.21 162.741 1684.55 163.408 1684.55 163.408C1684.55 163.408 1682.09 161.658 1680.2 161.225C1679.31 161.02 1678.79 160.983 1677.87 160.955C1676.63 160.916 1675.92 160.974 1674.73 161.221C1672.91 161.597 1671.99 162.128 1670.47 163.002L1670.42 163.03C1667.64 164.627 1666.66 166.152 1664.69 168.456C1661.52 172.16 1658.5 178.971 1658.5 178.971C1658.5 178.971 1659.98 172.358 1661.6 168.308C1663 164.792 1663.97 162.861 1665.97 159.576C1667.3 157.387 1669.71 154.13 1669.71 154.13C1669.71 154.13 1672.34 150.876 1674.72 149.462C1676.61 148.348 1680.07 147.352 1680.07 147.352C1680.07 147.352 1673.96 147.484 1672.27 148.128C1670.58 148.772 1668.27 149.588 1666.2 151.1C1664.1 152.638 1661.8 155.838 1661.8 155.838C1661.8 155.838 1659.5 159.284 1658.39 161.637C1655.87 166.971 1654.97 176.148 1654.97 176.148C1654.97 176.148 1655.08 170.969 1654.46 167.69C1653.98 165.152 1652.59 161.28 1652.59 161.28C1652.59 161.28 1651.15 157.529 1649.26 155.646C1647.57 153.954 1646.35 153.016 1643.94 152.195C1642.8 151.807 1640.91 151.529 1640.91 151.529C1640.91 151.529 1643.71 155.443 1645.12 158.105C1647.78 163.143 1648.32 166.281 1649.65 171.647C1651.03 177.231 1651.95 186.086 1651.95 186.086C1651.95 186.086 1650.77 178.473 1647.57 174.556L1647.56 174.544C1645.92 172.538 1644.92 171.31 1642.5 169.98C1639.47 168.312 1637.21 168.084 1633.66 167.906C1629.93 167.718 1624.31 169.236 1624.31 169.236C1624.31 169.236 1634.35 169.37 1639.1 172.525C1642.43 174.741 1643.85 176.672 1645.45 179.979Z" fill="#5D9675"/>
<path d="M478.525 185.014C481.968 190.453 482.725 200.408 482.725 200.408H518.126C518.126 200.408 517.327 193.039 518.126 188.397C518.682 185.163 518.835 183.216 520.526 180.277C522.112 177.521 523.417 176.054 526.126 174.018C528.15 172.497 529.441 171.713 531.926 170.804C534.291 169.939 535.774 169.746 538.326 169.451C541.499 169.084 546.527 169.451 546.527 169.451C546.527 169.451 544.56 167.979 543.127 167.251C541.174 166.261 539.969 165.725 537.726 165.391C535.88 165.115 534.784 165.181 532.926 165.391C530.575 165.656 529.287 166.086 527.126 166.913C523.61 168.258 521.964 169.608 519.126 171.819C515.447 174.685 511.126 180.277 511.126 180.277C511.126 180.277 511.073 173.597 512.126 169.451C513.08 165.692 513.723 163.509 515.926 160.146L515.959 160.095C517.431 157.849 518.308 156.51 520.526 154.733C522.444 153.196 523.678 152.362 526.126 151.519C528.268 150.781 529.617 150.624 531.926 150.504C534.432 150.374 538.326 151.011 538.326 151.011C538.326 151.011 534.048 148.65 530.926 148.305C529.455 148.142 528.603 148.179 527.126 148.305C525.128 148.474 523.995 148.7 522.126 149.32C519.273 150.266 517.887 151.293 515.601 152.986L515.526 153.041C511.352 156.132 510.066 158.773 507.325 162.853C502.917 169.414 499.325 180.954 499.325 180.954C499.325 180.954 500.474 170.021 502.325 163.191C503.932 157.264 505.119 153.972 507.725 148.305C509.462 144.529 512.726 138.831 512.726 138.831C512.726 138.831 516.35 133.097 519.926 130.373C522.744 128.227 528.126 125.975 528.126 125.975C528.126 125.975 518.326 127.328 515.726 128.681C513.126 130.035 509.567 131.78 506.525 134.602C503.429 137.474 500.325 143.061 500.325 143.061C500.325 143.061 497.275 149.041 495.925 153.041C492.867 162.106 493.125 177.063 493.125 177.063C493.125 177.063 492.336 168.697 490.725 163.53C489.478 159.529 486.525 153.549 486.525 153.549C486.525 153.549 483.507 147.773 480.125 145.091C477.086 142.68 474.96 141.396 470.924 140.523C469.019 140.111 465.924 140.016 465.924 140.016C465.924 140.016 471.165 145.8 473.924 149.827C479.146 157.448 480.588 162.405 483.725 170.804C486.989 179.544 490.125 193.642 490.125 193.642C490.125 193.642 486.8 181.594 480.925 175.879L480.907 175.861C477.899 172.936 476.056 171.143 471.924 169.451C466.745 167.329 463.062 167.385 457.324 167.759C451.289 168.153 442.523 171.65 442.523 171.65C442.523 171.65 458.706 169.989 466.924 174.187C472.699 177.137 475.339 179.984 478.525 185.014Z" fill="#5D9675"/>
</svg>
