<svg width="702" height="772" viewBox="0 0 702 772" fill="none" xmlns="http://www.w3.org/2000/svg">
<path fill-rule="evenodd" clip-rule="evenodd" d="M61.0258 101.267C58.9046 101.04 57.4056 101.214 55.7546 101.572C54.9103 101.777 54.1031 101.976 52.7644 102.611C52.0468 103.017 51.3029 103.202 49.5372 104.99C48.8498 105.823 47.393 107.291 46.9897 110.481C45.965 109.938 44.8848 109.399 43.5396 108.83C42.8569 108.546 42.091 108.232 40.9734 107.888C40.2639 107.686 39.7477 107.482 38.0689 107.268C37.4501 107.237 35.843 106.935 33.2593 107.764C31.5649 108.295 29.2189 109.766 27.8478 111.987C26.5395 114.032 26.2151 116.206 26.2529 117.682C26.3325 119.726 26.7527 120.686 27.0511 121.483C27.2908 122.059 27.5278 122.513 27.7559 122.911C28.1895 123.65 28.4542 123.998 28.7957 124.463C30.9796 127.036 32.8683 131.446 36.566 136.341C39.7095 140.472 43.2138 144.372 47.3561 147.174C53.8506 151.524 62.2208 156.857 70.2366 159.453C72.5308 160.079 74.5654 160.598 76.1609 160.952C82.5056 162.347 84.029 162.703 89.1181 166.143C91.02 167.419 93.6299 168.533 96.4721 169.088C94.9694 169.807 96.7912 170.736 100.702 171.534C102.268 171.885 103.788 172.183 105.246 172.461C106.903 173.564 108.752 174.17 111.15 174.685C111.687 174.799 112.337 174.992 113.07 175.243C115.879 176.417 119.862 177.536 123.347 178.742C125.563 180.042 127.524 181.022 129.723 181.722C129.824 181.804 129.919 181.888 130.007 181.971C130.371 182.316 130.76 182.598 131.164 182.829C131.188 182.84 131.268 182.858 131.295 182.869C133.154 183.823 135.598 183.801 137.712 183.296C137.992 183.231 138.266 183.154 138.53 183.077C139.345 183.111 140.208 183.134 141.125 183.141C151.271 183.24 155.423 188.091 160.979 189.369C162.559 189.961 164.189 190.401 165.888 190.539C169.334 190.816 173.535 191.186 177.399 191.397C181.884 192.758 188.06 195.201 196.946 199.54C199.352 200.84 201.636 202.144 203.814 203.442C203.654 204.721 203.477 205.841 203.506 206.453C203.499 206.59 203.48 206.666 203.469 206.691C205.256 210.932 207.715 213.059 209.189 214.944C210.264 216.611 211.13 218.057 211.384 219.212C211.813 221.173 212.181 223.456 212.519 225.384C212.989 227.781 213.72 230.086 214.713 232.073C215.398 233.446 215.72 234.906 215.82 236.272C216.228 240.296 215.963 244.05 217.488 247.525C218.452 249.703 219.445 252.372 220.327 255.059C220.549 255.767 220.774 256.468 220.993 257.155C220.977 257.3 220.962 257.445 220.944 257.587C220.58 259.775 219.903 261.648 220.47 263.498C221.398 267.25 224.956 266.781 223.52 287.437C221.604 308.046 219.694 319.25 218.478 327.046C218.437 327.294 218.398 327.547 218.358 327.849C218.322 328.103 218.278 328.463 218.242 328.816C217.457 333.869 220.644 340.807 224.2 343.79C227.703 347.061 231.108 348.734 234.315 350.321C240.706 353.348 246.733 355.722 250.934 358.848C251.101 358.968 251.268 359.088 251.431 359.206C256.153 362.943 264.126 367.148 272.093 371.091C272.247 373.86 273.356 375.881 274.034 376.999C276.396 380.494 278.31 381.628 279.491 383.413C282.026 387.085 288.314 390.78 289.753 393.552C291.203 396.337 292.998 393.887 295.78 393.826C297.012 393.79 297.096 395.2 296.987 396.789C296.511 397.604 296.406 398.186 296.827 398.649C296.731 399.943 296.76 401.016 297.487 401.115C297.686 401.141 297.868 401.113 298.037 401.045L297.007 399.966C297.601 400.003 298.286 399.896 298.959 399.791C300.109 400.932 297.366 403.248 298.231 403.944C299.207 404.741 301.683 403.54 302.322 409.754C302.927 415.956 303.664 419.047 304.049 421.239C304.396 423.341 308.39 426.876 308.33 429.777C308.317 430.043 308.317 430.319 308.299 430.496C308.443 433.014 308.469 435.553 306.557 436.748C304.507 437.948 307.148 439.333 307.476 442.404C307.614 444.025 305.683 444.53 303.541 446.027C302.622 446.328 301.406 447.698 300.7 448.718C299.97 449.787 299.586 450.77 299.752 451.767C300.446 455.399 304.05 455.959 303.614 459.022C303.588 459.207 303.546 459.404 303.488 459.616C302.496 463.165 305.214 466.683 303.584 468.244C301.956 469.822 306.9 469.947 305.831 472.163C304.767 474.383 305.446 475.725 307.112 477.597C308.766 479.482 310.408 485.25 308.589 487.512C306.756 489.791 310.364 491.997 311.302 493.37C311.593 493.801 311.972 494.127 312.356 494.367C312.518 494.469 312.843 494.492 313.157 494.464C313.548 494.428 313.925 494.309 313.961 494.158C314.136 493.421 314.676 492.294 315.997 490.929C318.47 488.399 315.518 488.352 316.691 485.113C317.879 481.872 320.523 479.909 318.648 476.276C316.791 472.599 324.147 471.674 319.956 466.522C317.123 462.984 319.819 461.587 322.193 459.566C323.314 458.609 324.365 457.492 324.776 456.046C325.014 455.222 325.088 454.374 325.051 453.77C325.03 453.475 324.983 453.251 324.881 453.226C324.797 453.154 324.54 453.545 324.566 453.012C323.698 452.271 324.811 447.057 325.927 444.823C328.005 441.239 330.44 433.783 328.077 427.533C327.915 427.075 327.764 426.617 327.615 426.141C325.649 420.37 325.546 415.186 322.07 411.26C321.585 410.731 321.073 410.181 320.548 409.614C320.537 409.433 320.521 409.249 320.483 409.167C318.907 406.267 325.22 403.671 319.653 399.438C316.821 397.623 316.867 395.781 317.337 393.675C321.466 396.31 324.784 397.45 326.056 398.922C327.001 401.036 325.63 401.893 327.527 404.156C330.852 409.531 335.245 411.448 334.977 422.541C334.475 433.842 336.104 445.925 334.054 451.113C331.978 456.264 336.826 457.303 335.071 464.844C333.67 472.612 332.667 476.043 336.475 485.608C336.602 485.793 336.734 485.981 336.867 486.166C340.628 492.773 354.422 506.162 361.063 512.005C361.138 512.065 361.389 512.204 361.473 512.255C361.867 512.562 362.223 512.862 362.538 513.152C367.395 517.619 374.688 518.994 379.519 520.77C380.334 521.078 381.133 521.407 381.895 521.703C383.554 522.384 385.372 522.468 386.466 521.903C386.933 521.676 387.023 521.289 386.928 520.994C386.799 520.621 386.457 520.342 386.067 520.326C384.846 520.314 383.397 519.192 381.756 517.426C380.655 516.289 379.449 515.032 378.195 513.647C373.322 508.357 370.857 508.726 365.248 505.728C364.136 504.908 362.912 503.866 361.588 502.474C354.875 495.058 352.431 488.96 347.576 480.981C347.632 481.232 347.547 481.191 347.462 481.02C347.377 480.868 347.274 480.576 347.175 480.224C345.205 468.741 353.646 465.518 350.853 446.341C347.522 426.771 356.616 425.88 353.871 403.503C352.474 395.659 346.976 381.506 332.084 377.854C328.129 377.088 326.554 376.841 327.068 377.29C319.567 373.745 311.786 368.988 306.656 365.811C304.5 364.43 302.099 362.976 299.433 361.574C289.928 356.509 279.236 351.928 268.557 346.542C266.205 345.379 263.825 344.01 261.417 342.482C255.959 339.013 250.287 336.147 245.437 333.378C243.055 332.02 240.829 330.598 239.687 329.574C239.576 329.478 239.48 329.384 239.397 329.302C239.537 326.841 239.648 323.996 239.601 321.402C239.532 306.126 237.85 285.513 235.334 272.464C235.33 272.306 235.298 272.141 235.236 271.967C234.976 270.648 234.708 269.409 234.432 268.267C235.276 267.345 236.714 266.625 236.401 265.831C235.861 264.473 233.153 264.502 235.197 257.566C235.47 256.639 235.716 255.768 235.938 254.94C237.363 249.293 237.5 245.722 237.677 243.183C237.856 240.788 235.745 236.548 234.968 232.948C234.755 231.895 234.591 230.888 234.539 229.938C234.425 227.728 233.701 224.959 233.127 222.481C238.783 226.287 243.322 229.527 247.253 232.267C250.304 234.392 254.487 237.002 259.842 239.866C267.881 244.08 277.735 249.592 286.648 255.451C291.233 258.465 295.888 259.93 299.769 261.043C310.444 263.944 323.991 265.127 337.398 267.847C351.561 270.571 365.294 274.567 372.829 277.604C387.409 283.572 388.325 280.825 401.143 283.436C408.441 284.89 413.131 288.887 421.303 292.432C426.344 294.768 431.336 297.231 438.786 298.408C440.11 298.608 441.4 298.771 442.855 298.892C444.415 298.971 445.593 299.218 449.077 298.82C453.681 298.454 457.462 294.712 458.328 293.091C459.462 291.28 459.667 290.369 459.889 289.691C460.232 288.447 460.23 288.058 460.187 287.915C462.629 286.946 466.63 286.562 472.715 287.849C481.792 289.726 491.848 291.667 500.993 292.15C507.779 292.488 513.421 292.96 516.937 294.104C524.703 296.646 526.135 291.867 537.392 294.364C543.96 295.821 549.11 296.487 554.266 296.688C558.027 296.84 561.687 296.742 565.933 296.516C576.135 296.139 607.1 297.097 618.206 299.302C622.781 300.36 627.651 300.324 631.02 301.104L630.383 300.803C635.152 302.996 640.032 304.365 644.041 305.354L643.907 305.294C645.034 305.631 646.05 306.058 646.971 306.548C648.993 307.634 650.664 308.565 652.005 309.191C652.574 309.46 652.993 309.393 653.198 309.153C653.447 308.851 653.357 308.273 652.775 307.735C651.018 306.162 648.923 303.91 645.705 301.692C645.68 301.681 645.614 301.649 645.591 301.64C643.683 300.485 641.677 299.093 639.665 297.459C637.693 295.856 636.077 294.602 634.604 293.565C634.476 293.498 634.103 293.308 633.967 293.264C625.408 290.046 621.926 292.563 608.489 290.653C591.705 288.407 581.883 284.852 562.006 284.497C560.104 284.455 558.412 284.345 556.765 284.178C557.535 283.234 558.151 281.954 559.588 280.852C561.271 279.548 563.277 281.273 565.258 282.68C567.91 283.522 570.988 283.632 573.222 282.031C578.137 278.217 576.019 274.515 580.414 272.392C581.874 271.671 582.968 270.684 583.875 269.768C585.381 268.176 586.817 266.529 588.279 266.997C590.464 267.762 588.604 263.169 591.488 263.212C594.224 263.31 595.55 262.31 597.345 260.21C597.368 260.207 597.434 260.178 597.46 260.173C597.514 260.097 597.57 260.018 597.626 259.94C598.969 257.545 606.406 255.262 608.36 257.915C609.445 259.262 610.724 258.954 612.276 258.664L611.314 257.988C612.347 258.066 613.57 258.35 614.29 258.784C614.826 259.106 615.376 259.307 615.877 259.408C616.089 259.451 616.396 259.334 616.658 259.16C616.985 258.943 617.244 258.636 617.176 258.444C616.808 257.495 616.674 255.996 616.255 253.484C616.231 253.358 616.205 253.234 616.175 253.115C615.977 252.977 615.474 252.526 615.243 252.461C612.776 248.956 611.359 251.22 606.729 249.492C602.174 248.065 598.416 246.161 593.65 248.779L593.806 248.729C593.503 248.907 593.191 249.11 592.875 249.34C588.556 252.644 584.407 245.923 578.635 253.62C577.342 255.508 576.218 256.624 575.027 257.309C571.697 259.186 567.11 257.135 563.534 258.579C561.998 259.165 561.272 259.67 561.312 260.131C556.215 261.996 552.097 264.605 549.404 264.777C545.608 265.043 540.785 264.849 535.856 265.691C535.487 265.747 535.114 265.81 534.745 265.88C528.717 267.024 521.156 264.638 514.518 266.628C507.87 268.615 498.497 271.177 494.182 272.835C490.922 274.094 489.51 274.613 487.175 274.426C484.375 273.5 481.739 272.433 479.015 271.392C475.47 270.042 471.74 268.568 466.546 267.594C461.468 266.931 454.11 265.269 443.764 271.448C443.413 271.685 443.074 271.935 442.752 272.192C442.377 272.503 442.031 272.819 441.708 273.13C440.663 272.912 439.581 272.688 438.488 272.465C434.351 271.619 430 270.821 425.64 270.184C409.905 266.856 389.33 260.677 379.003 257.603C377.454 257.1 375.849 256.588 374.195 256.066C376.669 256.071 380.164 255.543 384.146 254.814C386.272 254.428 388.369 254.008 390.75 253.515C393.241 252.922 395.06 252.821 399.376 251.148C401.927 250.028 404.161 248.563 406.027 247.13C410.236 244.077 413.941 238.16 415.857 235.827C417.079 233.654 425.612 231.752 429.781 232.521C436.601 233.529 436.642 230.622 442.765 229.038C445.782 228.295 448.466 229.764 451.483 231.309C453.003 232.078 454.609 232.873 456.584 233.361C458.639 233.78 460.635 234.244 464.948 232.895C465.159 232.814 465.371 232.726 465.58 232.633C473.618 228.836 472.924 224.5 481.187 222.282C484.38 221.44 487.273 220.235 489.933 219.207C489.551 219.2 489.402 219.013 489.64 218.954C489.866 218.889 490.359 218.953 490.872 219.142C491.917 219.521 492.985 220.319 493.465 221.249C495.042 224.39 498.449 220.793 501.802 225.155C505.139 229.546 508.146 231.518 513.299 233.433C514.192 233.756 515.359 234.275 516.755 234.87C516.782 234.89 516.87 234.937 516.898 234.957C521.405 236.845 529.001 239.022 534.36 239.909C534.403 239.919 534.537 239.924 534.583 239.931C536.637 240.198 538.394 240.525 539.64 241.011C545.115 243.124 551.331 239.7 555.037 238.895C556.193 238.643 557.104 238.296 557.801 237.937C558.096 237.785 558.233 237.465 558.233 237.151C558.233 236.76 558.021 236.374 557.642 236.324C555.8 236.084 553.041 235.451 549.804 234.019C543.813 231.312 543.004 234.341 535.141 232.611C535.112 232.604 535.082 232.598 535.054 232.591L535.362 232.622C529.54 230.673 527.408 227.917 522.603 225.179C521.487 224.492 520.138 223.705 518.486 222.832C509.909 218.423 515.247 210.666 497.88 204.954C494.068 204.05 489.813 203.465 485.861 204.62C478.079 206.95 472.739 203.867 462.865 206.87C460.989 207.418 459.178 208.038 457.466 208.624C457.915 208.516 457.766 208.611 457.471 208.68C457.165 208.757 456.692 208.843 456.136 208.922C455.033 209.082 453.698 209.223 452.283 209.359C449.472 209.629 446.397 209.895 443.469 210.189C437.582 210.756 432.115 211.495 428.253 211.651C421.446 212.331 410.336 211.203 399.863 222.804C397.636 225.699 396.593 227.748 395.519 229.509C394.168 231.828 392.69 233.109 391.578 233.439C391.896 233.29 391.668 233.368 391.405 233.409C391.09 233.47 390.735 233.524 390.287 233.588C389.422 233.71 388.393 233.82 387.375 233.91C385.298 234.095 383.007 234.24 380.788 234.395C376.255 234.711 371.629 235.111 367.213 236.009C354.749 238.56 336.775 241.355 328.474 243.057C325.208 243.728 322.907 244.191 320.832 244.457C319.012 244.247 317.193 244.049 315.386 243.865C308.407 243.137 300.816 241.896 297.421 239.345C288.825 233.453 279.876 227.306 270.332 221.734C263.477 217.7 256.168 212.935 248.759 208.95C244.749 206.782 240.403 204.474 235.788 202.202C233.03 200.671 230.132 199.157 227.148 197.68C223.432 192.107 219.619 194.163 217.516 190.203C216.965 189.234 216.291 188.498 215.616 187.896C212.513 184.879 208.958 184.134 208.16 182.244C206.962 179.692 204.455 183.946 202.477 181.836C202.417 181.773 202.357 181.711 202.298 181.652C202.186 181.574 201.787 181.477 201.668 181.412C198.854 179.565 197.076 180.002 194.572 181.205C194.278 181.339 193.929 181.467 193.541 181.592C193.124 181.241 192.766 180.852 192.481 180.403C189.842 176.206 188.543 174.172 184.294 173.456C183.608 173.343 182.814 173.255 181.94 173.204C175.733 172.819 174.964 167.493 171.624 166.638C168.287 165.75 167.177 168.35 152.142 159.289C143.961 154.318 137.821 150.632 133.03 147.768C129.02 145.372 125.906 143.543 123.362 141.995C119.857 139.873 113.359 137.401 106.851 134.363C105.444 131.701 103.587 128.774 100.468 125.442C96.435 121.21 91.0812 116.693 84.692 113.07C80.6232 111.497 71.915 102.135 61.0258 101.267ZM278.803 375.428C280.304 376.696 281.907 377.896 283.479 378.982C283.355 378.968 283.239 378.954 283.13 378.948C282.276 378.818 281.821 378.655 281.46 378.52C280.765 378.244 280.463 378.026 280.207 377.83C279.726 377.441 279.525 377.118 279.323 376.721C279.152 376.37 278.982 375.974 278.803 375.428ZM459.994 287.998C459.667 288.404 458.878 289.65 457.059 290.74C457.312 289.821 458.216 288.752 459.994 287.998ZM45.1049 113.153C45.111 113.14 45.1508 113.16 45.3091 113.418C45.3727 113.526 45.4519 113.672 45.5492 113.878C45.4108 113.645 45.2623 113.403 45.1049 113.153ZM63.9506 103.183C64.5295 103.674 65.2445 104.319 65.9539 105.335C65.3619 104.733 64.8233 104.163 64.3512 103.629C64.2162 103.477 64.0814 103.326 63.9506 103.183Z" fill="#00483F"/>
<path d="M590.342 288.471C591.701 295.058 528.441 377.227 663.751 440.334C663.305 440.195 714.663 336.691 590.342 288.471Z" fill="url(#paint0_linear_1732_1670)"/>
<path d="M438.853 249.166C437.775 255.776 349.225 308.513 453.392 417.158C453.025 416.863 538.045 339.937 438.853 249.166Z" fill="url(#paint1_linear_1732_1670)"/>
<path d="M114.551 101.483C112.959 111.248 -17.8431 189.147 136.027 349.631C135.485 349.196 261.071 235.565 114.551 101.483Z" fill="url(#paint2_linear_1732_1670)"/>
<path d="M214.252 184.507C216.939 190.52 180.617 286.619 312.825 312.054C312.405 312.036 333.495 198.437 214.252 184.507Z" fill="url(#paint3_linear_1732_1670)"/>
<path d="M244.254 335.187C243.197 341.801 154.813 394.83 259.317 503.133C258.949 502.84 343.726 425.633 244.254 335.187Z" fill="url(#paint4_linear_1732_1670)"/>
<path d="M141.985 132.421C143.975 140.783 66.3858 248.23 241.544 323.553C240.97 323.392 302.542 189.155 141.985 132.421Z" fill="url(#paint5_linear_1732_1670)"/>
<path d="M84.0457 106.785C89.2811 105.736 112.406 197.744 246.541 60.5067C205.867 44.4865 187.875 85.9854 84.0457 106.785Z" fill="url(#paint6_linear_1732_1670)"/>
<path d="M121.184 116.139C126.458 116.893 119.143 211.772 289.225 126.549C255.907 97.794 225.779 131.099 121.184 116.139Z" fill="url(#paint7_linear_1732_1670)"/>
<path d="M325.391 434.562C310.816 513.911 396.084 550.237 402.838 602.24C419.384 589.33 481.362 485.267 325.391 434.562Z" fill="url(#paint8_linear_1732_1670)"/>
<path d="M98.9465 496.275C124.079 571.685 177.147 588.791 200.989 635.124C203.309 620.17 189.726 513.152 98.9465 496.275Z" fill="url(#paint9_linear_1732_1670)"/>
<path d="M370.942 741.796C328.434 724.629 300.852 742.605 271.553 735.936C277.217 742.712 329.179 777.272 370.942 741.796Z" fill="url(#paint10_linear_1732_1670)"/>
<path d="M425.093 212.121C430.924 208.184 525.232 222.839 548.221 87.9441C548.21 88.3587 437.032 92.4129 425.093 212.121Z" fill="url(#paint11_linear_1732_1670)"/>
<defs>
<linearGradient id="paint0_linear_1732_1670" x1="644.959" y1="305.595" x2="608.177" y2="422.91" gradientUnits="userSpaceOnUse">
<stop stop-color="#1B6A32"/>
<stop offset="1" stop-color="#6EC287"/>
</linearGradient>
<linearGradient id="paint1_linear_1732_1670" x1="483.88" y1="285.28" x2="407.578" y2="380.411" gradientUnits="userSpaceOnUse">
<stop stop-color="#1B6A32"/>
<stop offset="1" stop-color="#6EC287"/>
</linearGradient>
<linearGradient id="paint2_linear_1732_1670" x1="181.062" y1="154.829" x2="68.3531" y2="295.351" gradientUnits="userSpaceOnUse">
<stop stop-color="#1B6A32"/>
<stop offset="1" stop-color="#6EC287"/>
</linearGradient>
<linearGradient id="paint3_linear_1732_1670" x1="265.712" y1="186.701" x2="260.464" y2="309.823" gradientUnits="userSpaceOnUse">
<stop stop-color="#1B6A32"/>
<stop offset="1" stop-color="#6EC287"/>
</linearGradient>
<linearGradient id="paint4_linear_1732_1670" x1="289.392" y1="371.154" x2="213.389" y2="466.537" gradientUnits="userSpaceOnUse">
<stop stop-color="#1B6A32"/>
<stop offset="1" stop-color="#6EC287"/>
</linearGradient>
<linearGradient id="paint5_linear_1732_1670" x1="212.366" y1="152.159" x2="169.932" y2="303.469" gradientUnits="userSpaceOnUse">
<stop stop-color="#1B6A32"/>
<stop offset="1" stop-color="#6EC287"/>
</linearGradient>
<linearGradient id="paint6_linear_1732_1670" x1="129.279" y1="54.8936" x2="198.692" y2="115.4" gradientUnits="userSpaceOnUse">
<stop stop-color="#1B6A32"/>
<stop offset="1" stop-color="#6EC287"/>
</linearGradient>
<linearGradient id="paint7_linear_1732_1670" x1="180.316" y1="82.0837" x2="226.672" y2="162.574" gradientUnits="userSpaceOnUse">
<stop stop-color="#1B6A32"/>
<stop offset="1" stop-color="#6EC287"/>
</linearGradient>
<linearGradient id="paint8_linear_1732_1670" x1="387.842" y1="450.947" x2="351.672" y2="588.816" gradientUnits="userSpaceOnUse">
<stop stop-color="#1B6A32"/>
<stop offset="1" stop-color="#6EC287"/>
</linearGradient>
<linearGradient id="paint9_linear_1732_1670" x1="122.012" y1="486.282" x2="188.789" y2="640.41" gradientUnits="userSpaceOnUse">
<stop stop-color="#1B6A32"/>
<stop offset="1" stop-color="#6EC287"/>
</linearGradient>
<linearGradient id="paint10_linear_1732_1670" x1="366.579" y1="756.259" x2="273.861" y2="728.286" gradientUnits="userSpaceOnUse">
<stop stop-color="#1B6A32"/>
<stop offset="1" stop-color="#6EC287"/>
</linearGradient>
<linearGradient id="paint11_linear_1732_1670" x1="459.247" y1="129.157" x2="514.527" y2="171.258" gradientUnits="userSpaceOnUse">
<stop stop-color="#1B6A32"/>
<stop offset="1" stop-color="#6EC287"/>
</linearGradient>
</defs>
</svg>
