<svg width="580" height="927" viewBox="0 0 580 927" fill="none" xmlns="http://www.w3.org/2000/svg">
<path d="M520.161 416.817C520.776 420.756 572.129 452.047 511.433 517.006C511.647 516.829 462.386 471.11 520.161 416.817Z" fill="url(#paint0_linear_1732_1684)"/>
<path d="M499.579 437.828C498.506 440.225 512.935 478.507 460.244 488.706C460.412 488.699 452.06 443.435 499.579 437.828Z" fill="url(#paint1_linear_1732_1684)"/>
<path fill-rule="evenodd" clip-rule="evenodd" d="M511.025 123.182C511.75 121.929 512.211 122.37 512.127 123.793C512.002 125.877 511.333 127.442 511.739 128.64C512.261 130.178 512.564 131.144 512.325 132.271C513.353 133.067 514.159 134.349 514.277 135.303C514.594 136.386 514.361 137.453 514.112 138.009C513.856 138.597 513.603 138.894 513.402 139.121C512.655 139.88 512.288 139.953 511.92 140.122C511.565 140.259 511.265 140.334 510.978 140.395C510.8 140.421 510.618 140.446 510.434 140.472C510.037 141.096 509.53 141.622 508.908 143.637C509.444 143.793 509.894 143.936 509.572 144.499C509.119 145.32 511.917 144.426 510.662 145.801C509.649 146.957 511.412 146.456 512.461 146.56C512.514 147.149 512.498 147.771 512.746 147.906C513.204 148.156 513.929 148.347 514.183 149.114C514.441 149.874 515.694 149.671 515.887 150.613C516.5 151.163 517.199 152.189 518.126 152.511C518.932 152.789 520.042 153.651 521.08 154.427C521.752 154.943 522.326 155.462 522.794 155.758C524.167 156.687 523.145 157.42 522.997 158.641C522.773 159.775 525.876 159.678 525.748 161.075C525.569 162.367 524.006 162.726 524.492 163.799C524.663 164.178 524.644 164.554 524.585 164.879L524.563 164.722C524.494 164.841 524.462 165.239 524.473 165.547C524.486 165.862 524.554 166.118 524.785 166.275C525.502 166.783 523.553 167.038 524.038 167.725C524.055 167.749 524.071 167.773 524.086 167.798C524.5 168.458 524.25 168.886 523.647 169.474C523.025 170.087 522.495 171.873 523.28 172.521C524.068 173.17 522.705 173.911 522.382 174.355C522.281 174.493 522.143 174.602 521.999 174.685C521.939 174.72 521.811 174.736 521.685 174.736C521.529 174.736 521.375 174.711 521.356 174.666C521.26 174.446 521.006 174.116 520.439 173.728C519.381 173.005 520.55 172.923 520.002 171.95C519.453 170.979 518.365 170.414 519.039 169.292C519.355 168.762 518.862 168.447 518.42 168.139C517.92 167.783 517.501 167.475 518.268 166.738C518.605 166.399 518.664 166.095 518.565 165.706C518.569 165.681 518.543 165.605 518.547 165.58C518.338 164.72 516.44 164.469 515.989 163.599C515.43 162.544 516.661 161.255 516.218 160.902C516.07 160.804 515.88 160.733 515.686 160.649C515.215 160.366 514.662 159.977 514.2 159.352C513.415 158.296 511.518 158.306 510.647 156.963C510.625 156.93 510.602 156.897 510.58 156.864C510.575 156.862 510.569 156.861 510.564 156.859C510.29 156.791 510.145 156.325 509.927 155.909C509.814 155.75 509.697 155.591 509.581 155.431C509.492 155.353 509.391 155.293 509.274 155.262C508.526 155.065 507.714 153.891 506.928 153.892C506.862 153.892 506.807 153.885 506.763 153.874C506.545 154.928 506.336 155.897 506.134 156.791C505.541 159.562 505.479 161.553 505.349 163.338C505.284 164.385 505.03 165.85 504.699 167.535C504.119 170.376 503.53 173.904 503.677 176.914C503.69 177.212 503.7 177.53 503.712 177.867C503.941 178.456 504.103 179.089 504.41 179.183C504.967 179.353 505.794 179.417 506.309 180.158C506.568 180.53 507.045 180.608 507.511 180.72C508.082 180.887 508.639 181.114 508.92 181.701C509.201 182.282 509.505 182.955 509.759 183.591C510.124 183.548 510.49 183.472 510.527 183.676C510.602 184.111 509.755 184.786 511.627 185.814C513.497 186.833 514.323 187.487 514.938 187.906C515.455 188.257 515.722 189.554 516.423 190.303C516.579 190.471 516.745 190.62 516.927 190.747C518.144 191.55 519.596 194.059 520.627 194.694C521.689 195.335 520.657 195.976 520.51 197.035C520.383 197.903 522.327 197.381 523.055 197.687C523.151 197.775 523.277 198.155 523.361 198.254C523.507 198.342 523.596 198.463 523.596 198.638C523.606 199.645 522.248 200.472 523.062 201.317C523.882 202.165 523.426 203.691 524.237 203.88C525.051 204.076 523.297 204.964 524.002 205.452C524.234 205.615 524.384 205.782 524.47 205.963C524.609 206.29 524.517 206.683 524.32 207.218C524.01 208.051 524.374 210.02 525.39 210.296C526.405 210.571 525.542 211.893 525.468 212.468C525.445 212.647 525.375 212.814 525.287 212.959C525.25 213.02 525.144 213.093 525.032 213.149C524.892 213.219 524.741 213.263 524.702 213.228C524.509 213.057 524.123 212.851 523.427 212.727C522.13 212.495 523.136 211.897 522.176 211.186C521.216 210.473 519.954 210.375 520.032 208.92C520.052 208.569 519.906 208.361 519.682 208.211C519.68 208.199 519.661 208.171 519.659 208.16C518.983 207.715 517.547 207.905 518.123 206.194C518.857 203.903 516.017 205.126 514.845 203.647C514.575 203.303 514.393 202.878 514.269 202.416L514.576 202.986C513.951 201.464 514.101 199.773 513.599 199.204C512.955 198.46 511.99 197.692 511.476 196.457C511.33 196.107 511.072 195.813 510.767 195.546C509.82 194.682 508.628 193.889 508.234 192.602C507.844 191.34 507.362 189.763 507.047 188.512C506.967 188.509 506.878 188.509 506.779 188.515C505.442 188.618 504.882 188.545 504.465 188.532C504.518 188.853 504.574 189.166 504.636 189.47C505.002 191.254 505.597 192.806 506.152 193.803C507.946 196.872 506.916 197.337 507.736 200.448C508.073 201.658 508.867 202.53 509.804 203.482C511.017 204.415 512.622 204.827 513.977 206.843C514.551 207.7 514.977 208.515 515.3 209.296C516.807 212.625 516.287 214.566 516.419 218.471C516.421 219.532 516.297 220.549 516.112 221.508C515.123 225.987 512.751 228.44 512.43 230.204C511.948 232.351 510.139 231.532 509.017 234.194C508.568 235.254 508.125 236.096 507.648 236.836C506.906 237.987 506.056 238.91 504.929 239.989C503.524 241.314 500.683 245.138 498.268 247.817C497.644 248.78 497.15 249.624 496.914 250.28C496.234 252.131 494.797 253.453 493.727 254.78L493.751 254.721C493.255 255.462 492.754 256.001 492.408 256.489C492.052 256.981 491.72 257.336 491.431 257.594C491.309 257.701 491.163 257.708 491.051 257.652L491 257.621C490.891 257.54 490.831 257.393 490.892 257.232C491.169 256.468 491.594 255.271 491.655 253.94C491.66 253.93 491.672 253.897 491.677 253.887C491.707 253.66 491.739 253.427 491.772 253.188C492.378 249.717 493.751 250.009 495.737 246.34C495.785 246.25 495.832 246.161 495.878 246.073C495.91 246.032 496.003 245.91 496.041 245.875C498.206 242.734 498.578 240.151 501.697 236.471C502.383 235.647 502.826 234.88 503.154 234.132C504.342 231.37 504.224 229.004 507.763 225.142C509.482 223.198 509.925 221.607 509.776 220.408C509.692 219.268 509.361 218.248 508.965 217.254C508.586 216.286 508.007 215.269 507.706 215.089C507.682 215.071 507.661 215.056 507.643 215.045C506.271 213.351 503.857 210.797 502.329 207.115C500.883 203.477 499.239 199.172 498.314 196.685C497.656 195.043 496.982 193.111 496.527 190.908C495.9 187.773 495.63 184.49 495.732 181.072C495.662 181.017 495.573 180.987 495.454 180.99C494.946 180.989 495.512 180.533 495.769 180.161C495.775 180.047 495.779 179.933 495.786 179.819C495.787 179.797 495.788 179.775 495.789 179.752C495.775 179.745 495.76 179.738 495.742 179.731C495.117 179.479 495.204 179.051 495.633 178.415C495.736 178.262 495.817 178.068 495.874 177.861C495.886 177.536 495.898 177.207 495.909 176.876C495.824 176.702 495.654 176.601 495.374 176.62C494.549 176.718 495.532 175.715 495.649 175.299C495.69 175.176 495.769 175.045 495.86 174.924C495.881 174.895 495.921 174.86 495.969 174.821C495.997 173.829 496.027 172.818 496.07 171.795C495.682 171.806 495.154 172.039 494.38 172.83C493.13 174.2 492.423 175.098 491.872 175.753C491.714 175.954 491.599 176.117 491.506 176.267C491.177 176.781 489.441 177.38 488.926 178.875C488.717 179.48 488.271 180.295 487.832 181.173C487.207 182.412 486.615 183.648 486.557 184.477C486.477 185.885 485.383 185.374 484.317 186.047C483.243 186.747 485.621 188.726 484.742 189.711C483.865 190.712 482.319 190.3 482.132 191.801C481.963 193.266 480.5 194.327 480.954 195.118C481.411 195.9 479.488 195.451 479.696 196.45C479.917 197.43 479.571 197.878 478.817 198.565C478.082 199.205 477.449 201.325 477.916 202.61C477.917 202.62 477.909 202.65 477.91 202.66C477.938 202.765 477.971 202.864 478.011 202.953C478.317 203.672 477.948 204.183 477.57 204.47C477.244 204.724 476.859 205.068 476.706 205.352C476.602 205.545 476.464 205.705 476.321 205.828C476.26 205.879 476.133 205.904 476.007 205.904L475.892 205.897C475.782 205.883 475.692 205.849 475.677 205.799C475.586 205.464 475.314 205.009 474.838 204.249C474.783 204.158 474.737 204.07 474.701 203.985C474.287 202.995 474.882 202.886 474.951 202.296C474.953 202.15 474.925 201.96 474.847 201.724C474.381 200.319 473.346 199.134 474.342 197.4C475.357 195.751 472.588 194.588 474.927 192.532C477.281 190.633 474.473 189.395 475.051 186.829C475.644 184.27 478.541 182.14 479.078 180.761C479.463 179.769 479.862 178.541 480.56 177.292C480.863 176.749 481.226 176.202 481.67 175.684C483.061 174.075 484.085 170.762 486.913 169.447C486.949 169.432 486.985 169.416 487.022 169.401C488.043 168.952 489.268 168.542 490.471 168.22C490.188 167.81 490.26 167.638 490.858 167.673C491.785 167.734 490.39 166.534 490.719 166.424C491.043 166.328 491.934 166.928 492.017 165.36C492.11 163.782 492.363 163.067 492.497 162.536C492.63 162.008 494.005 161.701 494.211 160.84C494.418 159.977 495.649 158.81 495.597 157.944C495.541 157.08 496.526 157.782 497.386 157.749C497.664 157.737 497.63 157.511 497.481 157.199L497.442 157.253C497.107 156.613 496.234 155.621 496.705 155.438C497.398 155.169 498.77 155.967 498.865 155.173C498.899 154.869 499.114 154.678 499.343 154.521C501.462 149.615 503.665 144.106 505.051 140.864C504.898 140.87 504.76 140.884 504.627 140.91C504.294 141.122 504.016 141.348 503.843 141.588C503.435 142.152 503.079 142.007 502.633 141.752C502.445 141.773 502.246 141.769 502.043 141.738C501.789 142.072 501.584 142.306 501.419 142.51C501.277 142.687 500.952 142.748 500.58 142.81C500.491 143.024 500.38 143.242 500.227 143.452C499.84 143.864 499.448 144.473 497.842 144.435C497.482 144.682 497.128 144.936 496.879 145.206L497.31 144.898C497.188 145.065 497.104 145.229 497.064 145.396C496.858 146.278 496.092 145.342 495.217 145.185C494.341 145.03 495.885 147.622 495.084 147.736C494.286 147.85 493.189 146.702 492.817 147.482C492.455 148.254 491.167 147.949 491.354 148.658C491.55 149.36 490.188 147.938 490.138 148.586C490.098 149.229 489.732 149.231 488.984 149.086C488.918 149.074 488.848 149.066 488.775 149.064L488.82 149.015C488.087 148.994 487.027 149.705 487.27 150.52C487.537 151.425 486.113 150.986 485.646 151.027C485.497 151.043 485.339 151.012 485.188 150.967C485.124 150.947 485.02 150.872 484.926 150.789C484.809 150.686 484.708 150.569 484.717 150.529C484.756 150.34 484.737 149.979 484.502 149.386C484.06 148.281 484.987 148.997 485.041 148.081C485.08 147.308 484.67 146.434 485.334 145.959C485.352 145.949 485.385 145.891 485.404 145.882C485.517 145.81 485.659 145.756 485.837 145.724C487.006 145.541 485.166 143.23 487.303 143.546C489.394 143.923 487.487 141.519 488.235 140.359C488.976 139.211 491.286 139.517 491.784 138.93C491.891 138.805 491.995 138.67 492.112 138.523C492.207 138.492 492.418 138.254 492.516 138.235C492.796 137.963 493.111 137.667 493.489 137.427C493.564 137.268 493.642 137.11 493.723 136.95C493.748 136.567 494.428 135.829 494.634 135.505C494.885 135.433 495.113 135.277 495.31 134.969C496.061 133.8 497.759 133.792 497.786 132.927C497.821 132.056 499.111 133.54 499.467 132.696C499.827 131.852 500.381 131.748 501.328 131.83C502.278 131.903 504.303 131.096 504.536 130.003C504.619 129.62 504.859 129.442 505.223 129.358C505.238 129.342 505.302 129.32 505.319 129.306C506 129.201 506.738 129.636 507.135 129.721C507.327 129.762 507.494 129.852 507.634 129.956C507.693 130.001 507.752 130.115 507.791 130.234C507.841 130.382 507.86 130.538 507.816 130.573C507.643 130.714 507.41 130.982 507.243 131.439C507.501 131.381 507.779 131.328 508.08 131.282C508.104 131.28 508.128 131.277 508.152 131.274C508.16 131.227 508.169 131.178 508.177 131.13C508.574 128.779 509.585 125.671 511.025 123.182ZM507.012 152.642C507.068 152.508 507.117 152.371 507.145 152.236C507.162 152.158 507.153 152.107 507.124 152.075C507.087 152.267 507.049 152.455 507.012 152.642ZM507.663 133.784C507.602 133.795 507.491 133.817 507.197 134.118C507.051 134.282 506.841 134.509 506.603 135.05C506.584 135.093 506.565 135.14 506.545 135.19C506.898 134.789 507.221 134.441 507.522 134.141C507.556 134.098 507.587 134.056 507.614 134.017C507.632 133.941 507.65 133.863 507.668 133.785C507.666 133.785 507.665 133.784 507.663 133.784ZM498.879 134.461C498.191 134.272 497.626 134.309 497.349 134.355C496.949 134.424 496.84 134.509 496.802 134.558C496.747 134.66 496.982 134.679 497.23 134.679C497.801 134.593 498.375 134.536 498.879 134.461Z" fill="#00483F"/>
<path d="M512.877 146.659C512.927 146.682 512.972 146.708 513.01 146.74C513.15 146.859 513.217 147.017 513.238 147.202L512.877 146.659Z" fill="#00483F"/>
<path d="M512.877 146.659C512.763 146.607 512.62 146.576 512.461 146.56C512.435 146.273 512.394 145.993 512.293 145.781L512.877 146.659Z" fill="#00483F"/>
<path fill-rule="evenodd" clip-rule="evenodd" d="M543.717 414.102C544.562 414.012 545.159 414.081 545.817 414.224C546.154 414.306 546.475 414.385 547.009 414.639C547.294 414.801 547.591 414.875 548.294 415.588C548.568 415.921 549.149 416.507 549.309 417.78C549.718 417.563 550.148 417.348 550.684 417.121C550.956 417.008 551.261 416.883 551.707 416.745C551.989 416.665 552.195 416.583 552.864 416.498C553.11 416.485 553.751 416.365 554.78 416.696C555.455 416.908 556.39 417.495 556.936 418.381C557.458 419.197 557.587 420.066 557.572 420.655C557.54 421.471 557.373 421.854 557.254 422.172C557.158 422.402 557.064 422.583 556.973 422.742C556.8 423.037 556.695 423.176 556.559 423.361C555.688 424.389 554.936 426.149 553.463 428.103C552.21 429.752 550.814 431.309 549.163 432.427C546.576 434.164 543.241 436.292 540.047 437.328C539.133 437.578 538.322 437.785 537.687 437.927C535.159 438.484 534.552 438.626 532.524 439.999C531.766 440.508 530.726 440.953 529.594 441.174C530.193 441.462 529.467 441.832 527.909 442.151C527.285 442.291 526.679 442.41 526.098 442.521C525.438 442.961 524.701 443.203 523.745 443.409C523.532 443.454 523.273 443.531 522.981 443.631C521.861 444.1 520.274 444.547 518.886 445.028C518.003 445.547 517.222 445.938 516.345 446.218C516.305 446.25 516.267 446.284 516.232 446.317C516.087 446.455 515.932 446.567 515.771 446.659C515.762 446.664 515.73 446.671 515.719 446.675C514.978 447.056 514.005 447.047 513.162 446.846C513.051 446.82 512.942 446.789 512.836 446.759C512.512 446.772 512.168 446.781 511.803 446.784C507.76 446.824 506.105 448.76 503.892 449.27C503.262 449.506 502.613 449.682 501.936 449.737C500.563 449.848 498.889 449.995 497.35 450.079C495.563 450.623 493.102 451.598 489.561 453.33C488.603 453.849 487.693 454.37 486.825 454.888C486.888 455.398 486.959 455.845 486.947 456.09C486.95 456.144 486.958 456.174 486.962 456.185C486.25 457.877 485.27 458.726 484.683 459.479C484.255 460.144 483.91 460.722 483.809 461.183C483.638 461.965 483.491 462.877 483.356 463.646C483.169 464.603 482.878 465.523 482.482 466.316C482.209 466.865 482.081 467.447 482.041 467.992C481.878 469.599 481.984 471.097 481.377 472.484C480.992 473.354 480.597 474.419 480.245 475.492C480.157 475.774 480.067 476.054 479.98 476.328C479.987 476.386 479.992 476.444 479.999 476.501C480.145 477.374 480.414 478.122 480.188 478.86C479.819 480.358 478.401 480.171 478.973 488.416C479.737 496.642 480.497 501.115 480.982 504.227C480.999 504.326 481.014 504.427 481.03 504.547C481.044 504.649 481.062 504.793 481.076 504.933C481.389 506.95 480.119 509.72 478.702 510.911C477.307 512.216 475.95 512.884 474.672 513.518C472.126 514.726 469.724 515.674 468.05 516.921C467.984 516.969 467.917 517.017 467.852 517.064C465.971 518.556 462.794 520.234 459.62 521.808C459.559 522.914 459.117 523.721 458.846 524.167C457.905 525.562 457.143 526.015 456.672 526.727C455.662 528.193 453.157 529.668 452.584 530.774C452.006 531.886 451.291 530.908 450.182 530.883C449.691 530.869 449.658 531.432 449.701 532.066C449.891 532.391 449.933 532.624 449.765 532.809C449.803 533.325 449.792 533.754 449.502 533.793C449.423 533.803 449.35 533.792 449.283 533.765L449.693 533.335C449.457 533.349 449.184 533.306 448.916 533.264C448.457 533.72 449.55 534.645 449.206 534.922C448.817 535.241 447.83 534.761 447.576 537.242C447.334 539.717 447.041 540.951 446.887 541.826C446.749 542.665 445.158 544.076 445.182 545.234C445.187 545.34 445.187 545.45 445.194 545.521C445.137 546.526 445.126 547.54 445.888 548.017C446.705 548.496 445.653 549.049 445.522 550.274C445.467 550.921 446.236 551.123 447.09 551.721C447.456 551.841 447.941 552.388 448.222 552.795C448.513 553.221 448.666 553.614 448.599 554.012C448.323 555.462 446.887 555.685 447.061 556.908C447.071 556.982 447.088 557.06 447.111 557.145C447.506 558.562 446.423 559.966 447.073 560.589C447.721 561.219 445.752 561.269 446.177 562.153C446.601 563.04 446.331 563.575 445.667 564.322C445.008 565.075 444.354 567.377 445.079 568.28C445.809 569.19 444.371 570.07 443.998 570.619C443.882 570.791 443.731 570.921 443.578 571.017C443.513 571.057 443.384 571.067 443.259 571.055C443.103 571.041 442.953 570.994 442.938 570.933C442.868 570.639 442.653 570.189 442.127 569.644C441.141 568.634 442.318 568.616 441.85 567.323C441.377 566.029 440.324 565.245 441.071 563.795C441.811 562.327 438.88 561.958 440.55 559.902C441.678 558.49 440.604 557.932 439.658 557.125C439.212 556.743 438.793 556.297 438.629 555.72C438.534 555.391 438.505 555.053 438.52 554.811C438.528 554.694 438.547 554.604 438.587 554.594C438.621 554.566 438.723 554.722 438.713 554.509C439.058 554.213 438.615 552.132 438.17 551.24C437.342 549.81 436.372 546.833 437.314 544.338C437.378 544.156 437.439 543.973 437.498 543.783C438.281 541.479 438.322 539.41 439.707 537.843C439.9 537.632 440.104 537.412 440.314 537.186C440.318 537.114 440.324 537.04 440.34 537.007C440.967 535.849 438.452 534.813 440.67 533.124C441.799 532.399 441.78 531.664 441.593 530.823C439.948 531.875 438.626 532.33 438.119 532.918C437.743 533.762 438.289 534.104 437.533 535.007C436.208 537.153 434.458 537.918 434.565 542.346C434.764 546.857 434.116 551.68 434.932 553.751C435.759 555.807 433.828 556.222 434.527 559.232C435.085 562.333 435.485 563.702 433.968 567.52C433.917 567.594 433.865 567.669 433.812 567.743C432.313 570.38 426.817 575.725 424.171 578.057C424.141 578.081 424.041 578.137 424.008 578.157C423.85 578.28 423.709 578.399 423.583 578.515C421.648 580.298 418.742 580.847 416.817 581.556C416.492 581.679 416.174 581.81 415.871 581.928C415.21 582.2 414.485 582.234 414.049 582.008C413.863 581.918 413.828 581.763 413.866 581.645C413.917 581.496 414.053 581.385 414.208 581.379C414.695 581.374 415.272 580.926 415.926 580.221C416.365 579.767 416.845 579.265 417.345 578.713C419.287 576.601 420.269 576.748 422.504 575.551C422.946 575.224 423.434 574.808 423.962 574.253C426.637 571.293 427.61 568.858 429.545 565.673C429.523 565.774 429.556 565.757 429.59 565.689C429.624 565.628 429.665 565.512 429.704 565.371C430.489 560.787 427.126 559.501 428.239 551.846C429.566 544.034 425.943 543.679 427.036 534.746C427.593 531.615 429.784 525.966 435.717 524.508C437.293 524.202 437.921 524.103 437.716 524.283C440.705 522.868 443.805 520.969 445.849 519.701C446.708 519.15 447.664 518.569 448.727 518.009C452.514 515.987 456.774 514.159 461.029 512.009C461.966 511.545 462.914 510.998 463.874 510.388C466.048 509.004 468.308 507.86 470.241 506.754C471.19 506.212 472.077 505.645 472.532 505.236C472.576 505.198 472.614 505.16 472.647 505.127C472.591 504.145 472.547 503.009 472.566 501.974C472.593 495.876 473.264 487.648 474.266 482.439C474.268 482.376 474.281 482.31 474.305 482.241C474.409 481.714 474.515 481.22 474.626 480.764C474.289 480.396 473.716 480.108 473.841 479.791C474.056 479.249 475.135 479.261 474.321 476.492C474.212 476.123 474.114 475.775 474.026 475.444C473.458 473.19 473.403 471.765 473.332 470.751C473.261 469.795 474.102 468.102 474.412 466.666C474.497 466.245 474.562 465.843 474.583 465.464C474.628 464.582 474.917 463.476 475.146 462.488C472.892 464.007 471.083 465.3 469.517 466.394C468.301 467.242 466.635 468.284 464.501 469.427C461.298 471.109 457.372 473.309 453.82 475.648C451.994 476.851 450.139 477.436 448.593 477.88C444.339 479.038 438.942 479.51 433.6 480.596C427.957 481.683 422.485 483.279 419.483 484.491C413.674 486.873 413.309 485.777 408.202 486.819C405.294 487.399 403.425 488.995 400.169 490.41C398.16 491.343 396.172 492.326 393.203 492.796C392.676 492.875 392.162 492.94 391.582 492.988C390.96 493.02 390.491 493.119 389.103 492.96C387.268 492.814 385.762 491.32 385.417 490.673C384.965 489.95 384.883 489.586 384.795 489.316C384.658 488.819 384.659 488.664 384.676 488.607C383.703 488.22 382.109 488.067 379.685 488.58C376.068 489.33 372.061 490.104 368.418 490.297C365.714 490.432 363.466 490.621 362.065 491.077C358.971 492.092 358.4 490.184 353.915 491.181C351.298 491.763 349.246 492.029 347.192 492.109C345.693 492.17 344.235 492.131 342.543 492.04C338.478 491.889 326.141 492.272 321.715 493.152C319.893 493.575 317.952 493.56 316.61 493.872L316.864 493.751C314.964 494.627 313.019 495.173 311.422 495.568L311.475 495.544C311.026 495.678 310.621 495.849 310.255 496.044C309.449 496.478 308.783 496.85 308.249 497.099C308.022 497.207 307.855 497.18 307.774 497.085C307.674 496.964 307.71 496.733 307.942 496.518C308.642 495.891 309.477 494.992 310.759 494.106C310.769 494.102 310.795 494.089 310.804 494.086C311.564 493.624 312.364 493.069 313.166 492.417C313.951 491.776 314.595 491.276 315.182 490.862C315.233 490.835 315.382 490.76 315.436 490.742C318.846 489.458 320.233 490.462 325.587 489.7C332.275 488.803 336.188 487.384 344.108 487.242C344.866 487.226 345.54 487.182 346.196 487.115C345.889 486.738 345.644 486.227 345.071 485.787C344.401 485.267 343.602 485.955 342.812 486.517C341.755 486.853 340.529 486.897 339.639 486.258C337.681 484.736 338.524 483.258 336.773 482.411C336.192 482.123 335.756 481.729 335.394 481.363C334.794 480.727 334.222 480.07 333.64 480.257C332.769 480.562 333.51 478.729 332.361 478.746C331.271 478.785 330.743 478.386 330.027 477.548C330.018 477.547 329.992 477.535 329.981 477.533C329.96 477.503 329.938 477.471 329.916 477.44C329.38 476.484 326.417 475.573 325.639 476.632C325.206 477.17 324.697 477.047 324.078 476.931L324.462 476.661C324.05 476.692 323.563 476.805 323.276 476.978C323.062 477.107 322.843 477.188 322.643 477.228C322.559 477.245 322.437 477.198 322.332 477.129C322.202 477.042 322.099 476.919 322.126 476.843C322.273 476.464 322.326 475.866 322.493 474.863C322.502 474.813 322.513 474.763 322.525 474.716C322.604 474.66 322.804 474.481 322.896 474.455C323.879 473.056 324.444 473.959 326.289 473.269C328.103 472.7 329.601 471.94 331.5 472.985L331.438 472.965C331.558 473.036 331.682 473.117 331.808 473.209C333.529 474.528 335.183 471.845 337.482 474.917C337.997 475.671 338.445 476.116 338.92 476.39C340.247 477.139 342.074 476.32 343.499 476.897C344.111 477.131 344.4 477.332 344.384 477.516C346.415 478.261 348.056 479.302 349.129 479.371C350.641 479.477 352.563 479.399 354.527 479.736C354.674 479.758 354.822 479.783 354.97 479.811C357.372 480.268 360.384 479.315 363.029 480.11C365.678 480.903 369.412 481.925 371.132 482.587C372.43 483.09 372.993 483.297 373.923 483.223C375.039 482.853 376.089 482.427 377.174 482.011C378.587 481.472 380.073 480.884 382.143 480.495C384.166 480.231 387.098 479.567 391.22 482.034C391.36 482.128 391.495 482.228 391.623 482.331C391.772 482.455 391.91 482.581 392.039 482.705C392.455 482.618 392.887 482.529 393.322 482.44C394.97 482.102 396.704 481.783 398.441 481.529C404.71 480.201 412.908 477.734 417.023 476.507C417.64 476.307 418.28 476.102 418.939 475.894C417.953 475.896 416.561 475.685 414.974 475.394C414.127 475.24 413.291 475.072 412.342 474.875C411.35 474.639 410.625 474.598 408.905 473.931C407.889 473.484 406.999 472.898 406.255 472.327C404.579 471.108 403.102 468.746 402.339 467.815C401.852 466.947 398.452 466.188 396.791 466.495C394.074 466.898 394.057 465.737 391.618 465.105C390.416 464.808 389.346 465.395 388.144 466.011C387.539 466.318 386.899 466.636 386.112 466.831C385.293 466.998 384.498 467.183 382.779 466.644C382.695 466.612 382.611 466.577 382.528 466.54C379.325 465.024 379.601 463.293 376.309 462.408C375.037 462.072 373.884 461.591 372.824 461.181C372.977 461.178 373.036 461.103 372.941 461.08C372.851 461.054 372.655 461.079 372.45 461.155C372.034 461.306 371.608 461.624 371.417 461.996C370.789 463.249 369.431 461.814 368.095 463.555C366.766 465.308 365.568 466.095 363.515 466.859C363.159 466.988 362.694 467.195 362.137 467.433C362.127 467.441 362.092 467.46 362.08 467.468C360.285 468.221 357.258 469.09 355.123 469.444C355.106 469.448 355.053 469.45 355.034 469.453C354.216 469.56 353.516 469.69 353.019 469.884C350.838 470.728 348.361 469.361 346.884 469.039C346.424 468.939 346.061 468.8 345.783 468.657C345.666 468.596 345.611 468.469 345.611 468.343C345.611 468.187 345.695 468.033 345.846 468.013C346.58 467.917 347.68 467.665 348.97 467.093C351.357 466.012 351.679 467.222 354.812 466.531C354.823 466.528 354.835 466.526 354.847 466.523L354.724 466.535C357.043 465.758 357.893 464.657 359.807 463.564C360.252 463.29 360.789 462.976 361.448 462.628C364.865 460.868 362.738 457.771 369.658 455.491C371.177 455.13 372.872 454.897 374.447 455.358C377.548 456.288 379.675 455.057 383.609 456.256C384.357 456.475 385.078 456.722 385.76 456.956C385.582 456.913 385.641 456.951 385.758 456.978C385.88 457.009 386.069 457.043 386.29 457.075C386.73 457.139 387.262 457.195 387.826 457.25C388.946 457.357 390.171 457.463 391.337 457.581C393.683 457.807 395.861 458.102 397.4 458.164C400.112 458.436 404.539 457.986 408.712 462.617C409.599 463.772 410.015 464.59 410.442 465.293C410.981 466.218 411.57 466.73 412.013 466.862C411.886 466.802 411.977 466.833 412.082 466.85C412.207 466.874 412.349 466.896 412.527 466.921C412.872 466.97 413.282 467.014 413.687 467.049C414.515 467.123 415.428 467.181 416.312 467.243C418.118 467.369 419.961 467.529 421.72 467.887C426.687 468.906 433.848 470.021 437.155 470.701C438.457 470.969 439.374 471.153 440.2 471.26C440.926 471.176 441.65 471.097 442.37 471.023C445.151 470.733 448.176 470.237 449.528 469.219C452.953 466.867 456.519 464.413 460.322 462.189C463.053 460.579 465.965 458.677 468.917 457.086C470.515 456.221 472.247 455.299 474.085 454.393C475.184 453.781 476.339 453.177 477.528 452.588C479.008 450.363 480.527 451.184 481.365 449.603C481.585 449.216 481.854 448.922 482.123 448.682C483.359 447.478 484.775 447.18 485.093 446.426C485.57 445.407 486.57 447.105 487.357 446.263C487.381 446.238 487.405 446.213 487.429 446.19C487.473 446.159 487.633 446.12 487.68 446.094C488.801 445.356 489.51 445.531 490.507 446.011C490.624 446.065 490.763 446.116 490.918 446.166C491.084 446.026 491.227 445.87 491.34 445.691C492.392 444.016 492.909 443.204 494.602 442.918C494.876 442.873 495.192 442.838 495.54 442.817C498.013 442.664 498.32 440.538 499.65 440.196C500.98 439.842 501.422 440.88 507.413 437.263C510.672 435.279 513.119 433.807 515.028 432.664C516.625 431.708 517.866 430.978 518.88 430.36C520.276 429.513 522.865 428.526 525.459 427.313C526.019 426.251 526.759 425.082 528.002 423.752C529.609 422.063 531.742 420.26 534.287 418.814C535.909 418.186 539.378 414.449 543.717 414.102ZM456.946 523.54C456.348 524.046 455.709 524.525 455.083 524.958C455.133 524.953 455.179 524.947 455.222 524.944C455.563 524.893 455.744 524.828 455.888 524.774C456.165 524.664 456.285 524.577 456.387 524.498C456.578 524.343 456.659 524.214 456.739 524.056C456.807 523.916 456.875 523.758 456.946 523.54ZM384.753 488.64C384.883 488.802 385.198 489.3 385.922 489.735C385.822 489.368 385.462 488.941 384.753 488.64ZM550.06 418.847C550.058 418.841 550.042 418.85 549.979 418.953C549.954 418.996 549.922 419.054 549.883 419.136C549.939 419.043 549.998 418.947 550.06 418.847ZM542.552 414.867C542.321 415.063 542.036 415.32 541.753 415.726C541.989 415.486 542.204 415.258 542.392 415.045C542.446 414.984 542.499 414.924 542.552 414.867Z" fill="#00483F"/>
<path d="M107.31 373.305C106.416 381.689 165.982 497.869 6.86621 595.324C7.39812 595.088 -40.04 450.703 107.31 373.305ZM368.027 30.7334C364.278 35.3628 380.369 109.917 306.92 137.04C311.709 146.744 357.237 186.766 355.229 247.821C370.058 271.235 402.9 329.297 325.124 392.56C325.246 392.464 313.871 375.851 307.28 352.052C304.087 355.673 300.706 359.33 297.126 363.019C297.258 362.903 285.684 349.569 274.225 328.028C275.746 338.492 275.823 351.348 273.935 367.118C273.966 366.99 260.809 369.075 245.622 366.199C256.127 411.362 241.328 478.559 221.532 508.274C221.755 507.858 88.0912 346.574 181.12 323.717C188.578 321.884 195.315 321.21 201.381 321.543C199.907 311.879 200.102 300.227 202.588 286.186C201.795 286.657 200.996 287.13 200.188 287.601C200.576 287.449 170.766 153.931 255.48 133.446C257.193 134.357 260.613 137.935 264.207 143.616C264.716 127.326 270.225 31.4608 368.027 30.7334ZM500.094 69.5459C524.087 114.047 494.553 140.837 474.497 153.062C479.778 153.495 483.398 154.146 484.156 153.937C484.273 157.807 484.154 161.437 483.826 164.839C489.53 163.515 493.452 162.956 494.256 162.427C496.143 172.715 496.582 182.048 495.881 190.512C504.36 182.516 511.748 178.011 512.517 176.766C565.628 248.276 487.363 303.95 487.553 304.2C472.766 280.562 468.125 260.438 469.132 243.636C445.854 264.262 416 269.63 415.998 269.814C413.624 247.006 416.082 229.161 421.36 215.17C413.568 215.364 408.274 214.667 408.276 214.732C408.649 207.455 409.579 201.015 410.959 195.316C386.49 183.612 353.861 157.393 364.601 101.965C367.397 105.565 421.985 104.904 434.165 160.689C441.151 156.431 448.738 154.316 455.846 153.372C431.982 86.9992 497.378 72.0806 500.094 69.5459ZM251.984 246.443C240.922 259.311 225.414 272.425 204.096 285.283C211.006 285.356 241.822 277.001 260.596 296.536C255.531 281.392 252.009 264.418 251.984 246.443ZM303.841 138.131C293.029 141.804 280.372 144.485 265.552 145.831C269.33 152.308 273.091 161.007 275.081 171.284C282.484 160.145 291.942 149.039 303.841 138.131Z" fill="url(#paint2_linear_1732_1684)"/>
<path d="M507.68 431.972C507.93 434.386 538.153 455.103 499.23 492.563C499.366 492.463 470.868 463.047 507.68 431.972Z" fill="url(#paint3_linear_1732_1684)"/>
<path d="M530.421 411.795C528.363 411.375 519.206 448.545 466.574 393.229C482.575 386.729 489.618 403.473 530.421 411.795Z" fill="#6EC287"/>
<path d="M484.487 441.487C482.437 441.027 472.582 478.008 421.001 421.656C437.122 415.476 443.849 432.357 484.487 441.487Z" fill="url(#paint4_linear_1732_1684)"/>
<path d="M524.864 568.437C515.125 598.635 494.178 605.355 484.87 623.886C483.913 617.878 488.999 574.961 524.864 568.437Z" fill="#6EC287"/>
<path d="M407.915 712.157C377.219 708.034 366.84 688.164 347.375 682.273C352.935 680.171 394.904 677.195 407.915 712.157Z" fill="#6EC287"/>
<path d="M299.381 871.645C374.933 789.663 452.102 800.484 509.169 755.331C503.442 776.124 424.209 906.183 299.381 871.645Z" fill="url(#paint5_linear_1732_1684)"/>
<path d="M436.053 543.516C441.659 575.205 407.71 589.929 404.908 610.735C398.366 605.613 373.989 564.155 436.053 543.516ZM467.774 503.589C468.185 506.259 502.879 527.556 461.654 571.395C461.744 571.225 428.58 540.185 467.774 503.589ZM332.441 484.816C331.888 487.459 356.771 520.183 302.937 545.791C303.114 545.734 283.001 504.439 332.441 484.816ZM391.683 469.019C392.103 471.688 426.861 492.871 385.773 536.845C385.914 536.722 352.572 505.772 391.683 469.019ZM348.797 404.326C348.802 404.493 392.533 405.973 397.065 454.26C394.776 452.68 357.655 458.725 348.797 404.326Z" fill="url(#paint6_linear_1732_1684)"/>
<path fill-rule="evenodd" clip-rule="evenodd" d="M504.768 77.6665C504.734 77.6915 504.692 77.7241 504.638 77.7691C504.61 77.7927 504.585 77.8154 504.545 77.852C504.47 77.922 504.377 78.0134 504.257 78.1581C504.089 78.4132 503.659 78.7968 503.525 79.8493C503.908 79.7318 504.288 79.6181 504.665 79.5086C505.047 79.3979 505.399 79.2994 505.801 79.1976C505.893 79.1749 505.991 79.1509 506.1 79.1258C506.207 79.102 506.294 79.0831 506.437 79.0572C506.508 79.0451 506.547 79.0386 506.655 79.0256C506.713 79.0191 506.776 79.0137 506.853 79.012C506.892 79.0113 506.936 79.0115 506.987 79.0145C507.014 79.0196 507.153 79.0097 507.417 79.1054C507.549 79.1572 507.73 79.2456 507.913 79.4399C508.097 79.6264 508.243 79.9578 508.257 80.2185C508.284 80.6417 508.143 80.8817 508.061 81.0223C508.033 81.0665 508.006 81.1038 507.981 81.1361C508.372 81.5346 508.792 82.1938 508.907 82.8255C508.942 82.9855 508.962 83.1385 508.973 83.2831C509.487 83.0456 510.037 82.8232 510.634 82.6233C511.26 82.5348 511.633 82.3401 512.699 82.6202C512.963 82.7084 513.383 82.9511 513.609 83.3696C513.725 83.5768 513.785 83.8025 513.804 84.0047C513.819 84.1761 513.81 84.3237 513.789 84.4635C513.737 84.7652 513.674 84.9116 513.599 85.0905C513.52 85.2716 513.447 85.4032 513.372 85.5308C512.915 86.2662 512.439 86.8149 511.96 87.3234C511.985 87.3591 512.008 87.3969 512.029 87.436C512.128 87.6077 512.161 87.8547 512.142 88.0927C512.256 88.0775 512.386 88.062 512.534 88.05C512.755 88.0399 512.992 88.0065 513.524 88.0927C513.8 88.1534 514.205 88.2101 514.807 88.6529C515.437 89.0728 515.912 90.1611 515.883 90.7399C516.071 94.5576 512.79 97.0512 510.548 97.9648C508.129 99.0266 505.691 99.5012 503.135 99.9257C502.554 100.026 501.87 100.129 501.148 100.245C500.966 100.305 500.863 100.327 500.777 100.347C500.583 100.389 500.506 100.397 500.441 100.407C500.322 100.422 500.282 100.425 500.246 100.428C500.141 100.437 500.125 100.437 500.121 100.438C500.097 100.439 500.084 100.44 500.069 100.441C500.044 100.442 500.03 100.443 500.007 100.444C499.994 100.445 499.98 100.446 499.967 100.447C499.318 100.567 498.664 100.706 498.048 100.875C497.571 101.069 496.998 101.014 496.533 100.86C496.216 100.908 495.896 100.956 495.576 101.008C493.998 101.262 492.394 101.56 490.809 101.878C487.607 102.523 484.417 103.26 481.227 104.046C474.528 105.7 467.847 107.264 461.346 108.637C458.145 109.313 454.801 110.011 451.337 110.71C449.607 111.058 447.835 111.41 446.047 111.747C445.137 111.919 444.249 112.083 443.319 112.243C442.92 112.312 442.547 112.372 442.149 112.433C442.135 112.44 442.119 112.449 442.105 112.456C442.116 112.45 442.128 112.441 442.141 112.434C442.052 112.447 441.961 112.463 441.869 112.477C441.736 112.496 441.626 112.511 441.485 112.53C441.333 112.551 441.204 112.566 441.049 112.583C440.955 112.593 440.862 112.602 440.765 112.609C440.712 112.614 440.678 112.616 440.602 112.621C440.518 112.625 440.428 112.629 440.318 112.63C440.264 112.63 440.203 112.629 440.134 112.627C440.047 112.621 440.054 112.63 439.759 112.595C439.5 112.541 439.156 112.554 438.374 112.093C438.19 111.976 437.982 111.818 437.766 111.597C437.398 111.602 437.029 111.609 436.662 111.615C432.794 111.656 429.335 111.575 427.188 111.914C425.342 112.205 423.18 112.583 421.032 113.037C419.855 113.286 418.635 113.524 417.344 113.732C416.699 113.835 416.042 113.93 415.344 114.011C414.994 114.052 414.639 114.089 414.238 114.12C414.035 114.135 413.823 114.149 413.543 114.158C413.403 114.161 413.242 114.167 412.954 114.156C412.765 114.139 412.669 114.169 412.016 114.03C411.918 114.006 411.806 113.976 411.676 113.934C411.531 113.883 411.453 113.866 411.12 113.706C410.932 113.611 410.708 113.487 410.457 113.295C408.178 113.411 405.742 113.203 403.511 112.941C400.914 112.632 398.545 112.295 397.008 112.377C394.351 112.511 390.987 112.836 387.122 112.517C386.451 112.455 385.769 112.381 385.08 112.289C380.741 111.693 375.135 112.675 369.98 111.253C369.627 111.154 369.262 111.049 368.891 110.938C364.864 109.261 360.992 107.803 358.044 106.813C347.85 107.207 340.835 107.413 335.486 107.59C334.549 107.62 333.75 107.649 332.905 107.679C330.654 107.76 327.663 107.747 324.267 107.729C322.57 107.721 320.765 107.71 318.939 107.728C318.027 107.737 317.084 107.753 316.216 107.792C315.59 107.8 314.832 107.913 314.708 107.907C311.186 109.583 307.609 113.554 303.999 117.06C303.342 117.691 302.596 118.376 301.694 119.086C297.989 121.979 293.446 125.874 288.692 130.002C285.393 132.797 281.883 134.756 278.867 136.533C278.773 137.099 279.882 137.637 279.641 138.004C279.34 138.45 278.294 138.244 278.619 140.833C278.87 142.895 278.856 144.189 278.836 145.115C278.825 145.377 278.813 145.606 278.803 145.822C278.763 146.886 277.256 148.674 277.079 150.219C276.876 151.826 275.744 154.348 276.101 155.483C276.17 155.729 276.172 155.907 276.122 156.048C275.933 156.605 275.061 156.605 274.409 157.256C274.397 157.268 274.387 157.281 274.377 157.293C274.358 157.428 274.32 157.573 274.271 157.728C274.458 158.523 276.303 159.517 275.808 160.441C275.206 161.572 273.615 161.513 273.745 162.965C273.873 164.43 272.541 165.67 273.043 166.441C273.273 166.804 272.985 166.922 272.629 167.046C272.642 167.337 272.675 167.599 272.735 167.817C273.118 169.227 271.918 169.085 271.112 170.099C270.306 171.113 273.167 172.347 272.565 173.673C272.312 174.226 271.879 174.556 271.474 174.858C270.883 175.448 270.356 175.908 270.211 177.064C269.921 179.139 267.991 180.214 268.116 181.21C268.204 182.252 266.545 181.204 266.254 182.307C265.939 183.421 265.301 183.759 264.227 183.994C263.897 184.066 263.456 184.266 263.001 184.535C262.984 184.562 262.904 184.62 262.882 184.646C262.075 185.032 261.153 185.52 260.471 186.007C260.174 186.22 260.001 186.415 259.925 186.639C259.638 187.656 258.086 187.103 257.353 187.246C257.132 187.286 256.923 187.272 256.738 187.233C256.66 187.217 256.562 187.132 256.485 187.033L256.42 186.938C256.364 186.842 256.336 186.75 256.367 186.708C256.571 186.431 256.798 185.94 256.97 185.13C257.297 183.656 258.176 184.396 259.16 183.407C259.174 183.39 259.188 183.373 259.202 183.355C259.702 182.711 259.802 181.952 260.164 181.405L259.935 181.619C260.165 181.213 260.504 180.871 261.091 180.606C262.672 179.835 260.585 177.84 262.977 177.144C265.319 176.231 262.828 174.686 262.468 173.562C262.46 173.493 262.454 173.423 262.452 173.35C262.364 171.059 264.396 168.252 264.44 166.796C264.481 165.34 264.371 163.338 265.109 161.292C265.492 160.237 265.534 158.985 265.721 157.642C265.866 156.523 266.06 155.396 266.638 154.416C267.129 153.586 267.683 152.606 268.229 151.647C268.43 150.619 268.751 149.536 269.326 148.591C270.282 147.002 269.998 144.91 270.922 143.342C270.963 143.269 271.006 143.196 271.051 143.125C271.46 142.488 271.909 141.748 272.356 141.008C270.207 142.742 268.309 144.484 266.764 145.825C265.474 146.963 264.294 147.895 263.162 148.654C257.902 152.172 256.42 151.369 251.652 155.096C251.61 155.132 251.568 155.167 251.527 155.203C245.367 160.616 242.229 166.951 234.152 172.685C233.943 172.832 233.738 172.975 233.537 173.114C233.114 173.472 232.591 173.849 231.956 174.18C227.441 177.139 224.83 178.117 221.295 180.773C219.564 182.148 217.384 183.698 214.366 185.153C211.8 186.395 209.166 187.125 206.892 187.792C200.382 189.827 194.245 194.52 190.686 196.804C190.499 196.937 190.322 197.066 190.159 197.19C186.079 200.257 184.679 198.877 178.469 202.535C175.051 204.513 172.239 205.758 169.664 206.952C166.788 208.252 164.159 208.397 161.227 208.509C159.034 208.586 155.391 208.647 151.33 208.964C144.439 209.554 135.78 210.457 132.393 213.858C131.866 214.304 131.396 214.744 130.997 215.143C127.398 218.782 122.595 222.184 118.372 224.279C118.353 224.292 118.294 224.324 118.273 224.335C117.203 224.723 116.192 225.264 115.289 225.759C115.057 225.886 114.835 226.01 114.625 226.133C113.366 226.865 112.379 227.486 111.597 227.936C111.266 228.128 111.05 228.143 110.968 228.048L110.952 228.023C110.884 227.89 111.002 227.615 111.348 227.31C112.192 226.565 113.268 225.632 114.543 224.644C115.374 223.991 116.265 223.243 117.374 222.533L117.287 222.582C117.913 222.074 118.546 221.517 119.181 220.917C123.853 216.396 125.289 215.705 130.632 211.481C131.695 210.677 133.022 209.805 134.674 209.047C140.849 206.484 145.545 205.815 150.843 204.859C154.679 204.214 158.893 204.059 163.64 203.482C165.155 203.276 166.423 202.916 167.315 202.434C174.534 198.782 177.335 195.987 187.247 190.929C188.527 190.282 189.937 189.535 191.53 188.696C197.11 185.693 201.066 183.226 205.019 181.736C209.58 179.958 212.596 178.354 215.922 174.767C216.006 174.68 216.09 174.594 216.175 174.507C215.035 174.557 213.907 174.595 212.914 174.648C212.71 174.659 212.514 174.674 212.313 174.692C206.245 175.066 198.908 174.433 195.64 175.416C194.123 175.842 192.326 176.474 191.046 177.218C189.432 178.196 186.931 180.17 184.229 181.795C183.493 182.235 182.741 182.724 181.791 183.265C181.243 183.544 180.916 183.842 179.53 184.218C179.315 184.266 179.069 184.309 178.775 184.33C178.471 184.351 177.975 184.352 177.427 184.217C176.843 184.09 175.947 183.665 175.357 183.003C174.758 182.383 174.425 181.471 174.351 181.073C174.151 180.02 174.273 179.621 174.331 179.195C174.4 178.829 174.467 178.602 174.549 178.345C175.189 176.425 176.15 174.652 177.832 173.067C180.159 170.833 183.625 168.221 187.743 167.927C188.32 167.88 188.91 167.866 189.498 167.884C190.238 167.935 191.006 167.972 191.79 167.998C192.515 167.745 193.147 167.535 193.675 167.322C197.527 165.907 197.752 167.154 200.929 167.383C204.052 167.67 206.235 164.491 210.054 164.709C210.782 164.753 211.383 164.85 211.929 164.972C215.021 165.523 216.203 166.92 219.475 167.533C220.847 167.801 222.089 168.114 223.235 168.363C230.852 162.352 239.59 156.232 246.107 150.014C250.581 145.699 255.41 143.593 258.436 141.592C259.558 140.879 260.607 140.082 261.523 139.338C264.188 137.192 267.119 134.449 270.976 131.782C275.27 128.878 279.858 126.7 283.309 123.776C286.387 121.157 289.611 118.424 293.069 115.787C294.324 114.831 295.615 113.852 296.94 112.865C300.876 109.989 304.431 104.543 311.265 100.754C313.413 99.7703 314.431 99.9379 315.473 99.7822C316.512 99.6917 317.467 99.6378 318.439 99.5893C320.368 99.4955 322.268 99.438 324.167 99.3963C327.979 99.3152 331.695 99.3044 335.421 99.3704C336.894 99.3978 338.4 99.4385 339.875 99.494C341.4 99.5516 342.983 99.6128 344.608 99.6746C345.284 99.2623 345.935 99.2521 347.033 99.7649C348.793 100.589 349.653 98.7758 350.684 99.0018C351.633 99.2122 351.68 100.135 355.793 99.7154C356.162 99.68 356.548 99.6363 356.98 99.5843C362.401 98.9368 365.485 99.1766 367.474 99.2133C368.378 99.2324 369.694 99.5633 370.908 99.7921C372.603 100.079 374.551 100.321 376.239 100.124C379.304 99.8213 385.681 99.6318 387.936 98.6413C388.05 98.5932 388.168 98.5486 388.265 98.5115C390.72 97.7533 391.023 98.871 393.19 99.3283C395.069 99.752 396.444 97.7337 398.105 97.135C398.511 97.0074 398.942 96.9425 399.406 96.973C402.172 97.1699 402.661 98.7453 405.602 98.2066C408.509 97.6862 411.426 98.443 412.574 97.5944C413.076 97.2244 413.434 97.3918 413.84 97.6266C414.273 97.9301 414.822 98.3357 415.625 97.8319C417.037 96.9151 418.126 96.6568 419.976 96.5989C420.143 96.5938 420.338 96.5776 420.557 96.5525C421.97 96.4858 424.605 95.3901 426.95 95.0511L426.913 95.0548C427.697 94.9059 428.377 94.7614 428.86 94.557C430.391 93.9187 432.055 94.6979 433.273 95.4499C435.044 94.9738 435.794 93.5423 437.149 93.4032C437.591 93.3615 437.929 93.4043 438.353 93.4495C438.768 93.119 438.912 93.0735 439.046 92.9926C439.312 92.8542 439.381 92.8323 439.453 92.8009C439.676 92.7115 439.664 92.7202 439.701 92.7063L439.757 92.6877C440.653 92.3928 442.995 91.4043 445.184 91.122C452.431 90.1574 459.176 89.9074 465.114 89.8538C466.768 89.663 468.481 89.4968 470.266 89.3634C474.878 87.3684 478.674 86.1007 485.916 84.4746C486.362 84.3731 486.812 84.2722 487.266 84.1723C496.154 82.2208 501.671 79.1114 504.893 77.583C504.873 77.5945 504.835 77.6171 504.768 77.6665ZM427.087 98.0415C426.785 98.1708 426.514 98.3231 426.254 98.4892C426.405 98.4834 426.552 98.4816 426.696 98.4867C426.762 98.4233 426.826 98.3574 426.883 98.287C426.952 98.2026 427.021 98.1215 427.087 98.0415Z" fill="#00483F"/>
<path fill-rule="evenodd" clip-rule="evenodd" d="M329.705 190.189C331.876 189.607 335.411 189.748 337.87 189.778C338.611 189.865 339.695 189.794 341.295 191.139C342.065 191.811 342.687 192.996 342.828 193.964C342.989 194.943 342.866 195.67 342.74 196.213C342.4 197.502 341.938 198.117 341.398 198.721C339.616 200.512 338.675 199.735 336.824 199.863C334.846 199.843 333.942 202.961 331.99 202.817C331.244 202.746 330.727 202.439 330.299 202.157C329.873 202.571 329.391 202.254 328.829 202.703L328.917 202.656C328.819 202.741 328.716 202.844 328.61 202.969C327.57 204.177 327.178 205.608 325.199 205.698C325.141 205.7 325.084 205.705 325.031 205.711L325.453 205.486C323.887 205.949 325.05 208.451 322.215 208.411C319.291 208.37 320.795 211.073 318.992 212.76C317.532 214.125 314.955 214.536 313.393 215.108C313.353 215.787 313.372 216.679 313.486 217.878C313.917 222.568 314.021 224.941 314.203 226.577C314.241 226.921 314.23 227.341 314.199 227.813C314.084 229.195 313.834 229.849 315.56 232.867C315.572 232.887 315.583 232.908 315.594 232.928C316.185 234.002 316.987 235.451 318.137 237.45C320.045 241.271 319.155 244.219 319.084 245.831C318.96 247.056 318.633 247.723 318.255 248.186C317.59 248.987 316.777 249.277 315.573 250.295C313.81 251.717 313.814 255.454 311.692 256.38C310.898 256.71 310.624 256.494 310.408 256.171C310.325 255.423 309.608 255.509 309.798 256.73C310.124 258.915 309.27 261.805 309.956 262.923C310.044 263.066 310.091 263.196 310.106 263.317C310.217 263.99 308.752 264.39 309.346 265.575C310.057 266.864 310.048 267.582 310.051 268.982C309.955 270.16 311.539 272.37 312.991 274.448L312.847 274.223C313.238 274.615 313.618 274.93 313.963 275.111C315.037 275.676 315.44 276.937 315.605 278.079C315.615 278.092 315.634 278.135 315.643 278.149C315.684 278.496 315.643 278.69 315.659 278.922C315.67 279.147 315.706 279.364 315.763 279.547C315.866 279.875 315.918 280.172 315.93 280.424C315.934 280.53 315.859 280.642 315.76 280.719L315.712 280.753C315.597 280.824 315.464 280.848 315.389 280.778C315.012 280.425 314.307 279.886 313.478 279.239L313.514 279.303C313.458 279.273 313.399 279.242 313.339 279.211C311.581 278.374 312.371 277.569 310.574 276.061C310.534 275.998 310.405 275.827 310.379 275.758C310.361 275.738 310.341 275.718 310.32 275.698C309.008 274.463 306.525 273.918 305.592 270.363C305.022 267.526 302.882 266.885 302.989 263.642C303.032 263.144 303.153 262.583 303.384 261.923C304.085 259.911 303.722 258.798 303.135 257.61C302.844 257.002 302.485 256.391 302.247 255.463C302.083 254.555 301.669 253.146 303.166 250.71C303.35 250.428 303.55 250.167 303.753 249.93C306.105 247.483 307.269 247.346 308.22 246.728C309.146 246.228 309.933 245.64 310.471 244.841C310.768 244.391 310.959 243.975 311.023 243.63C311.255 242.639 310.983 241.379 310.87 241.387C310.331 240.41 309.645 239.174 309.116 237.719C308.883 237.082 308.621 236.423 308.356 235.75C307.953 234.915 305.558 231 305.778 227.912C305.776 226.819 305.867 225.749 306.088 224.732C306.506 222.785 307.07 220.557 307.621 218.499C305.713 219.21 304.065 221.284 301.794 221.778C299.474 222.283 296.24 223.081 294.652 223.275C293.764 223.384 293.255 223.448 292.791 223.665C292.422 223.837 292.082 224.102 291.599 224.548C291.025 225.079 290.051 225.408 288.975 225.247C288.675 225.44 288.372 225.628 288.067 225.809C288.06 225.818 288.054 225.828 288.047 225.837C288.037 225.849 288.025 225.86 288.016 225.871C287.855 226.251 287.702 226.738 287.596 227.341C287.382 228.519 286.922 228.66 286.326 229.088C286.216 229.334 286.054 229.484 285.794 229.546C285.604 229.745 285.405 229.998 285.2 230.336C284.397 231.647 284.054 232.869 283.062 233.883C282.713 234.246 282.26 234.597 281.601 234.935C279.347 236.071 280.79 238.797 276.9 239.747C273.078 240.561 274.579 243.249 271.861 245.593C269.124 247.928 264.51 248.78 262.789 249.983C262.723 250.029 262.656 250.076 262.588 250.125C260.91 251.315 258.767 252.968 256.124 254.069C253.385 255.211 250.747 257.923 247.556 258.893C244.958 259.688 241.51 260.769 239.157 261.389C237.686 262.698 236.058 264.179 234.373 265.739C229.292 270.449 223.557 275.784 218.881 280.68C214.33 285.359 207.576 292.418 200.377 299.166C196.084 303.089 190.909 304.98 187.304 306.418C186.142 306.883 185.234 308.063 184.459 309.407C181.414 315.297 180.164 317.154 177.775 320.422C177.04 321.485 176.186 322.712 175.097 324.277C172.263 328.366 170.342 332.475 168.949 336.461C168.054 338.719 166.579 340.83 165.097 342.454C164.769 342.784 164.353 343.143 163.684 343.474C162.936 343.848 161.919 344.065 160.963 343.963C159.298 343.732 158.571 343.139 158.135 342.747C157.98 342.893 157.824 343.043 157.673 343.195C156.722 344.155 155.844 345.17 154.987 346.247C153.187 348.443 151.862 350.897 148.73 355.809C148.569 356.043 148.409 356.277 148.24 356.52C145.284 360.843 141.574 364.47 138.826 367.61C134.611 372.257 130.698 374.571 128.957 376.673C128.267 377.444 127.661 378.003 127.085 378.453C124.765 380.241 122.908 380.408 118.581 384.05C117.117 385.264 115.755 386.287 114.449 387.19C110.709 389.713 107.565 391.21 103.404 393.104C101.406 394.007 98.0253 395.71 94.2531 397.709C88.988 400.359 82.899 401.867 78.5113 403.844C78.5089 403.845 78.5032 403.847 78.5013 403.847C76.6628 404.609 75.0978 405.31 73.9526 405.904C67.8357 409.12 59.9433 410.488 55.7845 412.369C55.5292 412.494 55.2884 412.619 55.058 412.745C54.1328 413.263 53.1785 413.715 52.3351 413.594C51.8945 413.527 51.7616 413.311 51.8003 413.199C51.8558 413.046 52.1139 413 52.4964 412.939C53.0867 412.848 53.7329 412.39 54.45 411.831C56.1826 410.504 58.5207 409.325 61.0386 407.861C67.5692 404.168 68.9263 404.789 77.4752 401.119L77.4622 401.124C77.8267 400.965 78.1978 400.803 78.5863 400.631C83.9685 398.214 88.4361 396.498 92.2058 394.14C95.4882 392.04 99.1049 389.934 103.826 387.512C107.097 385.828 109.485 384.256 111.451 382.683C114.865 379.904 117.557 377.188 122.33 373.131C124.176 371.525 126.438 369.876 129.02 368.116C131.265 366.582 132.951 365.191 134.171 363.778C138.55 358.843 140.639 355.754 142.828 351.54C144.224 348.816 145.359 344.929 148.831 339.113C149.76 337.653 150.781 336.126 152.489 334.519C153.357 333.728 154.429 332.874 156.016 332.236C157.381 331.662 159.282 331.439 160.957 331.783C164.661 325.752 168.308 321.484 170.742 316.901C173.293 312.289 175.344 308.12 177.484 304.797C178.797 302.771 180.927 300.02 184.416 298.691C188.323 297.176 191.989 295.65 194.867 292.999C198.979 289.233 203.439 284.627 208.118 280.264C214.551 274.208 221.45 267.038 228.641 259.858C232.477 256.193 235.613 252.507 241.179 249.246C242.09 248.795 243.374 247.857 244.582 246.943C249.804 242.881 256.205 237.543 262.764 233.098C268.399 229.263 273.815 225.409 278.568 222.439C279.331 221.823 279.976 221.237 280.305 220.739C280.932 219.807 281.449 219.894 282.147 219.984C282.269 220.017 282.399 220.048 282.538 220.07C283 219.802 283.445 219.542 283.874 219.292C284.002 218.318 283.498 216.718 284.505 216.046C285.982 215.05 287.279 215.909 288.601 214.15C289.055 213.57 289.667 213.102 290.31 212.73C291.176 212.298 292.2 211.853 292.338 211.155C292.558 210.103 293.909 211.529 294.584 210.39C294.906 209.857 295.252 209.509 295.657 209.274C295.691 209.207 295.748 209.157 295.832 209.129C295.905 209.105 295.979 209.091 296.055 209.084C296.43 208.941 296.855 208.863 297.352 208.81C297.909 208.733 298.814 208.447 299.717 208.048C299.853 207.951 299.926 207.823 299.876 207.617C299.78 207.215 300.155 207.465 300.523 207.658C300.572 207.632 300.621 207.606 300.669 207.579C301.265 207.072 301.897 206.534 302.582 205.959C302.712 205.794 302.865 205.671 303.033 205.58C303.471 205.215 303.93 204.836 304.413 204.44C305.521 203.549 306.781 202.615 308.207 201.754C308.278 201.151 308.443 200.756 308.847 200.532C309.087 200.401 309.411 200.335 309.853 200.327C311.384 200.311 310.976 198.427 311.763 198.215C312.542 198.028 313.063 198.908 316.054 196.449C316.911 195.744 317.629 195.164 318.225 194.668C320.066 193.261 321.35 192.598 322.305 192.056C323.387 191.447 325.688 191.216 327.672 190.679C328.56 190.433 329.132 190.342 329.705 190.189ZM159.608 341.708C159.904 341.564 159.681 341.584 159.363 341.763C159.457 341.753 159.545 341.735 159.608 341.708ZM156.208 339.722C156.213 339.732 156.219 339.741 156.225 339.752C156.222 339.746 156.22 339.74 156.218 339.735C156.17 339.621 156.128 339.563 156.208 339.722ZM263.394 240.704C262.81 241.2 262.246 241.687 261.699 242.165C261.837 242.161 261.983 242.149 262.138 242.126C262.831 242.021 263.142 241.42 263.394 240.704ZM269.529 235.659C268.632 236.394 267.759 237.107 266.909 237.799C267.789 237.839 268.584 237.904 269.527 236.981C269.826 236.689 270.154 236.436 270.491 236.212C270.329 236.141 270.164 236.058 269.995 235.961C269.842 235.868 269.693 235.78 269.529 235.659ZM308.825 206.311C308.285 206.805 307.727 207.289 307.101 207.791C307.072 208.019 306.92 208.028 306.75 208.067C306.623 208.167 306.494 208.267 306.361 208.368C306.336 208.421 306.314 208.484 306.297 208.559C306.183 209.05 306.247 209.599 306.152 210.011C306.992 209.47 307.745 208.923 308.105 208.424C308.669 207.64 309.141 207.84 309.776 208.056C309.756 207.881 309.735 207.695 309.709 207.497C309.665 207.165 309.646 206.803 309.652 206.424C309.372 206.401 309.091 206.356 308.825 206.311ZM316.528 204.192C315.567 204.236 314.296 204.464 313.248 204.838C314.283 204.881 315.155 205.555 316.049 204.602C316.196 204.445 316.358 204.31 316.528 204.192Z" fill="#00483F"/>
<mask id="mask0_1732_1684" style="mask-type:alpha" maskUnits="userSpaceOnUse" x="68" y="169" width="130" height="210">
<path d="M192.661 169.802C190.969 177.998 239.469 299.68 71.113 378.2C71.6673 378.026 37.9771 229.799 192.661 169.802Z" fill="url(#paint7_linear_1732_1684)"/>
</mask>
<g mask="url(#mask0_1732_1684)">
<path d="M192.661 169.802C190.969 177.998 239.469 299.68 71.113 378.2C71.6673 378.026 37.9771 229.799 192.661 169.802Z" fill="url(#paint8_linear_1732_1684)"/>
<path d="M70.3227 384.454C106.061 291.475 137.911 235.813 200.771 167.902L248.275 207.355L238.246 261.352L165.635 329.217L70.3227 384.454Z" fill="url(#paint9_linear_1732_1684)" stroke="#1E8456" stroke-width="3.05628"/>
<path d="M169.282 318.097L139.866 246.778L129.59 261.552L145.731 333.186L169.282 318.097Z" fill="#767070" style="mix-blend-mode:hard-light"/>
<path d="M169.282 318.097L139.866 246.778L129.59 261.552L145.731 333.186L169.282 318.097Z" stroke="#1E8456" stroke-width="3.05628"/>
<path d="M31.2894 308.671L121.691 269.665L104.413 306.089L14.7985 368.476L31.2894 308.671Z" fill="#4D735B" style="mix-blend-mode:hard-light"/>
<path d="M31.2894 308.671L121.691 269.665L104.413 306.089L14.7985 368.476L31.2894 308.671Z" stroke="#1E8456" stroke-width="3.05628"/>
<path d="M217.004 286.582L167.971 206.3L163.83 213.79L201.372 286.942L217.004 286.582Z" fill="#767070" style="mix-blend-mode:hard-light"/>
<path d="M217.004 286.582L167.971 206.3L163.83 213.79L201.372 286.942L217.004 286.582Z" stroke="#1E8456" stroke-width="3.05628"/>
</g>
<path d="M471.462 14.7609C470.666 18.5378 492.436 74.3922 415.418 111.028C415.671 110.947 400.733 42.8318 471.462 14.7609Z" fill="url(#paint10_linear_1732_1684)"/>
<path d="M510.512 0.10054C512.109 4.86618 571.599 57.8444 512.919 140.237C513.137 140.011 453.013 69.345 510.512 0.10054Z" fill="url(#paint11_linear_1732_1684)"/>
<mask id="mask1_1732_1684" style="mask-type:alpha" maskUnits="userSpaceOnUse" x="213" y="152" width="104" height="152">
<path d="M254.637 152.952C158.122 164.79 254.63 274.27 306.613 303.399C306.21 303.22 351.152 141.114 254.637 152.952Z" fill="url(#paint12_linear_1732_1684)"/>
</mask>
<g mask="url(#mask1_1732_1684)">
<path d="M254.637 152.952C158.122 164.79 254.63 274.27 306.613 303.399C306.21 303.22 351.152 141.114 254.637 152.952Z" fill="url(#paint13_linear_1732_1684)"/>
<path d="M261.508 159.728C150.111 166.921 246.492 265.219 303.528 301.482C303.082 301.254 372.904 152.535 261.508 159.728Z" fill="url(#paint14_linear_1732_1684)"/>
<path d="M306.52 316.207C292.14 254.039 285.354 189.889 247.816 157.02L312.895 150.357L334.42 180.901L331.907 249.303L306.52 316.207Z" fill="url(#paint15_linear_1732_1684)" stroke="#1E8456" stroke-width="3.05628"/>
<path d="M335.61 244.54L287.659 225.216L289.799 237.473L331.58 263.641L335.61 244.54Z" fill="#767070" style="mix-blend-mode:hard-light"/>
<path d="M335.61 244.54L287.659 225.216L289.799 237.473L331.58 263.641L335.61 244.54Z" stroke="#1E8456" stroke-width="3.05628"/>
<path d="M230.4 251.079L276.432 202.688L280.333 214.385L245.1 264.358L230.4 251.079Z" fill="#4D735B" style="mix-blend-mode:hard-light"/>
<path d="M230.4 251.079L276.432 202.688L280.333 214.385L245.1 264.358L230.4 251.079Z" stroke="#1E8456" stroke-width="3.05628"/>
<path d="M259.998 311.337L289.845 250.097L297.04 276.491L278.016 349.225L259.998 311.337Z" fill="#4D735B" style="mix-blend-mode:hard-light"/>
<path d="M259.998 311.337L289.845 250.097L297.04 276.491L278.016 349.225L259.998 311.337Z" stroke="#1E8456" stroke-width="3.05628"/>
<path d="M336.065 203.467L273.48 190.056L275.091 195.645L328.655 211.417L336.065 203.467Z" fill="#767070" style="mix-blend-mode:hard-light"/>
<path d="M336.065 203.467L273.48 190.056L275.091 195.645L328.655 211.417L336.065 203.467Z" stroke="#1E8456" stroke-width="3.05628"/>
</g>
<mask id="mask2_1732_1684" style="mask-type:alpha" maskUnits="userSpaceOnUse" x="81" y="359" width="94" height="165">
<path d="M114.026 367.055C202.434 325.539 175.473 470.643 145.837 523.32C146.091 522.952 25.6183 408.571 114.026 367.055Z" fill="#6EC287"/>
</mask>
<g mask="url(#mask2_1732_1684)">
<path d="M114.026 367.055C202.434 325.539 175.473 470.643 145.837 523.32C146.091 522.952 25.6183 408.571 114.026 367.055Z" fill="url(#paint16_linear_1732_1684)"/>
<path d="M78.4623 365.95L119.673 326.179L122.607 339.287L90.6073 383.221L78.4623 365.95Z" fill="#4D735B" style="mix-blend-mode:hard-light"/>
<path d="M78.4623 365.95L119.673 326.179L122.607 339.287L90.6073 383.221L78.4623 365.95Z" stroke="#1E8456" stroke-width="3.05628"/>
</g>
<mask id="mask3_1732_1684" style="mask-type:alpha" maskUnits="userSpaceOnUse" x="296" y="101" width="107" height="117">
<path d="M334.112 105.156C240.503 134.029 342.824 198.257 398.905 217.568C398.478 217.464 427.721 76.2825 334.112 105.156Z" fill="url(#paint17_linear_1732_1684)"/>
</mask>
<g mask="url(#mask3_1732_1684)">
<path d="M334.112 105.156C240.503 134.029 342.824 198.257 398.905 217.568C398.478 217.464 427.721 76.2825 334.112 105.156Z" fill="url(#paint18_linear_1732_1684)"/>
<path d="M403.504 230.17C378.544 180.044 359.66 126.677 320.914 106.284L375.098 87.3152L399.704 108.992L411.518 167.886L403.504 230.17Z" fill="url(#paint19_linear_1732_1684)" stroke="#1E8456" stroke-width="3.05628"/>
<path d="M413.707 163.068L368.837 156.36L373.164 166.385L414.165 180.193L413.707 163.068Z" fill="#767070" style="mix-blend-mode:hard-light"/>
<path d="M413.707 163.068L368.837 156.36L373.164 166.385L414.165 180.193L413.707 163.068Z" stroke="#1E8456" stroke-width="3.05628"/>
<path d="M325.244 190.114L354.656 139.419L360.373 148.606L340.5 198.448L325.244 190.114Z" fill="#4D735B" style="mix-blend-mode:hard-light"/>
<path d="M325.244 190.114L354.656 139.419L360.373 148.606L340.5 198.448L325.244 190.114Z" stroke="#1E8456" stroke-width="3.05628"/>
<path d="M362.803 235.507L375.779 177.147L387.307 198.206L385.913 264.168L362.803 235.507Z" fill="#4D735B" style="mix-blend-mode:hard-light"/>
<path d="M362.803 235.507L375.779 177.147L387.307 198.206L385.913 264.168L362.803 235.507Z" stroke="#1E8456" stroke-width="3.05628"/>
<path d="M405.713 127.92L349.56 129.245L352.075 133.687L401.01 136.218L405.713 127.92Z" fill="#767070" style="mix-blend-mode:hard-light"/>
<path d="M405.713 127.92L349.56 129.245L352.075 133.687L401.01 136.218L405.713 127.92Z" stroke="#1E8456" stroke-width="3.05628"/>
</g>
<defs>
<linearGradient id="paint0_linear_1732_1684" x1="538.109" y1="495.017" x2="492.467" y2="439.645" gradientUnits="userSpaceOnUse">
<stop stop-color="#208669"/>
<stop offset="1" stop-color="#1C6550"/>
</linearGradient>
<linearGradient id="paint1_linear_1732_1684" x1="481.109" y1="487.792" x2="478.96" y2="438.731" gradientUnits="userSpaceOnUse">
<stop stop-color="#208669"/>
<stop offset="1" stop-color="#1C6550"/>
</linearGradient>
<linearGradient id="paint2_linear_1732_1684" x1="265.718" y1="30.7334" x2="112.598" y2="880.862" gradientUnits="userSpaceOnUse">
<stop offset="0.16643" stop-color="#186D4C"/>
<stop offset="0.810634" stop-color="#7ACC93"/>
</linearGradient>
<linearGradient id="paint3_linear_1732_1684" x1="516.131" y1="480.086" x2="490.159" y2="444.906" gradientUnits="userSpaceOnUse">
<stop stop-color="#6EC287"/>
<stop offset="1" stop-color="#1F7552"/>
</linearGradient>
<linearGradient id="paint4_linear_1732_1684" x1="439.352" y1="444.155" x2="467.763" y2="420.983" gradientUnits="userSpaceOnUse">
<stop stop-color="#6EC287"/>
<stop offset="1" stop-color="#1F7552"/>
</linearGradient>
<linearGradient id="paint5_linear_1732_1684" x1="385.638" y1="791.816" x2="490.571" y2="924.221" gradientUnits="userSpaceOnUse">
<stop stop-color="#6EC287"/>
<stop offset="1" stop-color="#216F38"/>
</linearGradient>
<linearGradient id="paint6_linear_1732_1684" x1="390.426" y1="404.326" x2="390.426" y2="610.735" gradientUnits="userSpaceOnUse">
<stop stop-color="#1E7350"/>
<stop offset="1" stop-color="#6EC287"/>
</linearGradient>
<linearGradient id="paint7_linear_1732_1684" x1="107.704" y1="196.439" x2="156.317" y2="351.486" gradientUnits="userSpaceOnUse">
<stop stop-color="#8AE1A4"/>
<stop offset="1" stop-color="#2B8345"/>
</linearGradient>
<linearGradient id="paint8_linear_1732_1684" x1="107.704" y1="196.439" x2="156.317" y2="351.486" gradientUnits="userSpaceOnUse">
<stop stop-color="#8AE1A4"/>
<stop offset="1" stop-color="#2B8345"/>
</linearGradient>
<linearGradient id="paint9_linear_1732_1684" x1="236.038" y1="195.843" x2="64.1025" y2="378.602" gradientUnits="userSpaceOnUse">
<stop stop-color="#177B51"/>
<stop offset="0.639206" stop-color="#17A669"/>
</linearGradient>
<linearGradient id="paint10_linear_1732_1684" x1="432.634" y1="27.2719" x2="455.464" y2="98.1248" gradientUnits="userSpaceOnUse">
<stop stop-color="#8AE1A4"/>
<stop offset="1" stop-color="#2B8345"/>
</linearGradient>
<linearGradient id="paint11_linear_1732_1684" x1="477.068" y1="34.7742" x2="548.338" y2="103.516" gradientUnits="userSpaceOnUse">
<stop stop-color="#8AE1A4"/>
<stop offset="1" stop-color="#2B8345"/>
</linearGradient>
<linearGradient id="paint12_linear_1732_1684" x1="257.502" y1="156.727" x2="291.714" y2="289.887" gradientUnits="userSpaceOnUse">
<stop stop-color="#8AE1A4"/>
<stop offset="1" stop-color="#2B8345"/>
</linearGradient>
<linearGradient id="paint13_linear_1732_1684" x1="257.502" y1="156.727" x2="291.714" y2="289.887" gradientUnits="userSpaceOnUse">
<stop stop-color="#8AE1A4"/>
<stop offset="1" stop-color="#2B8345"/>
</linearGradient>
<linearGradient id="paint14_linear_1732_1684" x1="263.078" y1="139.554" x2="324.386" y2="353.204" gradientUnits="userSpaceOnUse">
<stop offset="0.139405" stop-color="#8AE1A4"/>
<stop offset="0.714897" stop-color="#2B8345"/>
</linearGradient>
<linearGradient id="paint15_linear_1732_1684" x1="301.231" y1="151.038" x2="311.226" y2="323.139" gradientUnits="userSpaceOnUse">
<stop stop-color="#177B51"/>
<stop offset="0.639206" stop-color="#17A669"/>
</linearGradient>
<linearGradient id="paint16_linear_1732_1684" x1="100.918" y1="441.088" x2="174.278" y2="377.126" gradientUnits="userSpaceOnUse">
<stop stop-color="#6EC287"/>
<stop offset="1" stop-color="#115C5D"/>
</linearGradient>
<linearGradient id="paint17_linear_1732_1684" x1="331.335" y1="87.6166" x2="427.263" y2="257.455" gradientUnits="userSpaceOnUse">
<stop offset="0.139405" stop-color="#8AE1A4"/>
<stop offset="0.714897" stop-color="#2B8345"/>
</linearGradient>
<linearGradient id="paint18_linear_1732_1684" x1="331.335" y1="87.6166" x2="427.263" y2="257.455" gradientUnits="userSpaceOnUse">
<stop offset="0.139405" stop-color="#8AE1A4"/>
<stop offset="0.714897" stop-color="#2B8345"/>
</linearGradient>
<linearGradient id="paint19_linear_1732_1684" x1="365.283" y1="90.2768" x2="408.935" y2="235.126" gradientUnits="userSpaceOnUse">
<stop stop-color="#177B51"/>
<stop offset="0.639206" stop-color="#17A669"/>
</linearGradient>
</defs>
</svg>
