<svg width="420" height="354" viewBox="0 0 420 354" fill="none" xmlns="http://www.w3.org/2000/svg">
<path d="M155.049 190.79C154.903 190.599 154.031 189.547 152.451 189.788C151.714 189.932 151.396 190.204 151.16 190.388C150.925 190.586 150.781 190.777 150.717 190.863C150.564 191.069 150.471 191.251 150.432 191.331C150.335 191.536 150.3 191.646 150.267 191.745C150.08 192.382 150.09 192.548 150.043 192.836C149.986 193.269 149.953 193.646 149.923 194.02C149.102 194.381 148.929 194.948 148.887 194.986C148.84 195.079 148.809 195.156 148.786 195.219C148.741 195.344 148.72 195.43 148.705 195.497C148.653 195.775 148.668 195.731 148.659 195.807C148.653 195.907 148.655 195.929 148.655 195.973C148.798 196.798 148.958 197.535 149.121 198.274L149.118 198.282C148.922 198.143 148.778 198.013 148.671 197.899C148.59 197.811 148.558 197.771 148.513 197.714C148.43 197.608 148.371 197.516 148.324 197.438C148.145 197.133 148.106 196.993 148.065 196.882C148.014 196.726 148.011 196.703 147.996 196.646C147.972 196.545 147.972 196.532 147.966 196.503C147.953 196.432 147.951 196.42 147.95 196.418C147.95 196.422 147.952 196.463 147.954 196.495C147.959 196.568 147.967 196.664 147.973 196.754C147.984 196.944 147.994 197.149 148.004 197.354C148.024 197.765 148.042 198.204 148.062 198.646C148.1 199.535 148.14 200.466 148.186 201.45C148.198 201.717 148.218 201.988 148.231 202.262C148.163 202.633 148.101 203.013 148.039 203.403C148.021 203.395 148.004 203.384 147.988 203.376C147.966 203.305 147.942 203.234 147.919 203.163C147.943 203.143 147.974 203.118 148.012 203.094C148.129 203.018 148.08 202.924 147.815 202.831C147.805 202.799 147.791 202.767 147.78 202.734C146.468 198.643 146.2 199.143 146.871 202.684C146.71 202.689 146.561 202.709 146.463 202.738C146.162 202.829 146.358 202.904 145.822 202.95C144.748 203.043 144.335 203.081 144.959 203.198C145.581 203.316 144.167 203.373 144.327 203.441C144.494 203.509 145.323 203.509 144.682 203.855C144.04 204.202 143.873 204.396 143.719 204.528C143.564 204.66 144.284 204.936 144.026 205.151C143.764 205.366 144.003 205.807 143.576 205.983C143.146 206.16 144.084 206.157 144.608 206.3C145.128 206.442 142.817 206.556 143.141 206.729C143.469 206.902 144.693 206.93 144.424 207.128C144.148 207.327 144.983 207.527 144.481 207.615C143.981 207.703 145.49 207.712 145.168 207.836C144.829 207.962 145.026 208.04 145.522 208.149C145.649 208.178 145.772 208.218 145.873 208.269C145.86 208.426 145.84 208.577 145.822 208.722C145.557 208.777 145.628 208.828 145.804 208.884C145.743 209.278 145.644 209.622 145.453 209.905C144.558 211.226 144.125 211.916 144.364 213.265C144.209 213.851 144.275 214.503 144.396 215.114C144.213 215.444 144.24 215.795 144.524 216.326C144.26 217.059 143.866 217.642 143.957 218.291L143.961 218.299C143.906 218.411 143.875 218.518 143.903 218.635C143.961 218.868 144.113 219.017 144.246 219.273C144.334 219.539 144.411 219.865 144.47 220.341C144.481 220.833 144.423 221.514 144.216 222.491C143.532 225.709 143.339 227.476 143.167 228.695C142.996 229.914 143.685 232.474 143.387 234.455C143.174 235.866 143.194 238.336 143.04 240.199C142.978 240.956 142.887 241.602 142.747 242.063C142.256 243.644 143.194 243.686 143.649 245.007C143.806 245.473 143.609 245.877 143.303 246.271C143.281 246.276 143.258 246.284 143.233 246.287C142.111 246.424 141.699 246.374 142.185 246.937C142.653 247.529 141.253 247.231 141.317 247.482C141.373 247.732 142.1 248.092 141.145 248.824C141.093 248.867 141.034 248.912 140.975 248.956C139.679 249.936 139.165 250.453 138.763 250.785C138.373 251.108 138.372 252.363 137.645 252.812C137.264 253.048 136.821 253.546 136.346 253.977C136.178 254.107 135.977 254.161 135.769 254.046C135.331 253.774 135.687 254.647 135.417 255.276C135.071 255.905 134.305 253.696 133.811 254.073C133.262 254.462 133.23 255.702 132.427 255.47C131.631 255.229 130.813 256.08 130.435 255.578C130.06 255.074 130.029 256.604 129.494 256.267C129.415 256.217 129.338 256.178 129.267 256.15L129.645 256.188C129.309 255.963 129.021 256.112 128.565 256.433C128.298 256.637 127.785 256.717 127.328 256.646C127.043 256.448 126.749 256.248 126.449 256.042C126.443 256.022 126.434 256.001 126.431 255.979C126.398 255.812 126.326 255.716 126.229 255.667C126.21 255.65 126.141 255.628 126.122 255.612C126.004 255.565 125.881 255.559 125.76 255.57C123.853 254.273 121.703 252.862 119.382 251.586C118.561 251.134 117.727 250.61 116.896 250.043C113.819 247.936 110.574 245.332 107.327 243.56C106.233 242.96 105.041 242.265 103.805 241.518C100.245 239.387 96.5492 237.265 94.5742 236.063C93.6046 235.485 92.9146 235.038 92.3584 234.605C91.3522 233.805 90.6479 233.071 89.5605 231.512C88.5918 230.095 87.059 228.379 85.7412 226.858C85.1766 226.075 84.7142 226.265 84.9629 227.45C85.3775 229.057 86.3004 229.971 86.3311 230.946C86.4272 232.886 86.599 233.768 88.4434 234.865C89.475 235.467 89.835 236.222 90.1348 236.923C90.3966 237.501 90.6153 238.019 91.0713 238.319C92.1081 238.966 92.5894 238.399 96.8672 242.446C98.2882 243.784 99.5176 244.891 100.521 245.822C102.644 247.781 104.217 249.021 105.381 249.954C107.016 251.267 110.777 253.034 113.582 255.052C113.793 255.204 114.007 255.36 114.214 255.52C114.922 256.068 115.837 256.704 116.846 257.38C116.732 257.62 116.643 258.045 116.449 258.34C116.103 258.861 115.829 256.55 115.408 256.865C114.986 257.194 114.92 258.426 114.438 258.153C113.953 257.876 113.466 258.719 113.25 258.212C113.035 257.709 113.012 259.234 112.707 258.9C112.401 258.56 112.214 258.759 111.947 259.256L111.937 259.271C111.847 258.549 111.988 257.501 111.312 257.26C110.281 256.901 109.437 257.809 108.641 256.9C107.834 255.988 106.384 256.035 106.221 255.326C106.05 254.614 105.181 255.871 104.737 255.19C104.287 254.509 103.786 254.446 102.979 254.549C102.318 254.628 100.928 254.25 100.239 253.651C100.22 253.638 100.163 253.621 100.144 253.609C99.9698 253.489 99.8276 253.352 99.7383 253.199C99.2386 252.363 98.0978 253.119 97.5732 253.233C97.4072 253.266 97.2629 253.341 97.1455 253.423C97.0962 253.458 97.0484 253.547 97.0215 253.64C96.9883 253.756 96.9828 253.881 97.0254 253.91C97.2342 254.048 97.5305 254.339 97.793 254.882C98.2431 255.847 98.5868 255.119 99.3223 255.717L99.1953 255.659C99.2268 255.691 99.2598 255.729 99.292 255.768C100.018 256.634 100.133 257.663 101.45 257.806C102.778 257.971 101.804 260.044 103.92 259.887C106.066 259.769 104.874 261.856 106.036 263.097C107.196 264.34 109.698 264.641 110.452 265.395C110.507 265.449 110.562 265.507 110.618 265.564C111.994 266.771 113.422 267.504 115.023 267.707C116.712 267.9 118.496 269.095 120.326 268.833C121.117 268.723 122.028 268.575 122.9 268.419C123.075 268.739 123.216 269.05 123.482 269.088C124.095 269.207 124.515 268.35 127.027 270.516C128.255 271.612 129.179 272.491 129.914 273.185C130.037 273.321 130.138 273.461 130.238 273.591C131.346 275.829 132.33 277.84 132.854 279.188C133.928 281.938 134.663 282.332 135.807 283.48C136.267 284.622 136.637 285.701 136.708 286.429C136.776 287.046 136.932 287.399 137.147 287.65C137.456 288.01 137.892 288.165 138.365 288.591C138.315 288.657 138.254 288.723 138.169 288.78C137.13 289.495 136.735 289.803 137.414 290.578C138.094 291.343 136.708 291.834 136.905 292.292C137.106 292.75 137.936 292.686 137.483 295.123C137.411 295.518 137.347 295.878 137.294 296.226C137.013 297.978 136.964 299.048 136.897 299.812C136.819 300.73 137.699 302.554 137.563 304.051C137.426 305.545 137.92 308.519 137.595 309.764C137.269 311.007 138.207 310.93 138.812 311.86C139.417 312.789 137.174 313.757 137.599 314.916C138.026 316.075 139.266 316.152 139.105 317.534C138.945 318.917 139.895 320.204 139.444 320.856C138.992 321.502 140.514 321.435 140.25 322.326C140.15 322.649 140.123 322.941 140.153 323.186C140.207 323.624 140.434 323.985 140.782 324.427C140.977 324.678 141.175 325.123 141.329 325.63C140.935 326.608 140.774 327.261 140.497 327.893C139.809 329.577 139.443 331.443 139.179 333.207C139.131 333.247 139.108 333.28 139.133 333.323C139.138 333.332 139.152 333.334 139.159 333.343C139.032 334.176 138.927 334.984 138.809 335.736C138.534 336.088 138.378 336.223 138.242 336.34C138.172 336.398 138.177 336.506 138.173 336.692C138.266 336.869 138.22 337.525 137.834 337.783C137.696 337.878 137.557 338.022 137.414 338.186C137.006 338.652 136.47 339.341 135.941 339.415C135.328 339.495 135.787 340.032 135.903 340.656C135.917 340.73 135.928 340.806 135.93 340.881C135.927 341.605 134.098 340.135 133.888 340.742C133.727 341.197 134.065 341.87 133.973 342.273C133.552 342.108 133.455 342.388 133.344 342.769C133.218 342.883 133.12 343.025 133.032 343.163C132.923 343.337 132.816 343.49 132.696 343.565C132.256 343.272 131.674 342.011 131.229 342.331C130.648 342.753 130.721 343.99 129.941 343.82C129.165 343.648 128.518 344.578 128.122 344.114C127.73 343.652 127.872 345.174 127.355 344.892C126.84 344.608 126.57 344.841 126.203 345.38C125.836 345.921 124.578 346.476 124.045 345.913C123.514 345.353 123.074 346.46 122.773 346.745C122.681 346.833 122.612 346.949 122.562 347.065C122.54 347.115 122.537 347.217 122.546 347.313C122.558 347.434 122.588 347.552 122.623 347.564C122.792 347.624 123.055 347.796 123.382 348.207C123.993 348.974 123.963 348.064 124.723 348.412C125.484 348.761 126.009 349.562 126.804 348.927C127.593 348.294 128.05 350.541 129.112 349.108C129.302 348.849 129.471 348.714 129.629 348.667C129.924 348.927 130.055 348.918 130.18 348.837C130.648 349.226 131.116 350.084 131.88 350.164C133.172 350.296 134.516 348.712 135.271 348.667C135.419 348.659 135.581 348.654 135.749 348.647C136.24 348.629 136.802 348.59 137.363 348.412C137.507 348.458 137.644 348.488 137.769 348.521C137.964 348.572 138.141 348.655 138.273 348.923C138.806 349.995 139.037 350.408 139.699 349.77C140.357 349.132 140.719 350.544 141.121 350.365C141.389 350.242 141.457 349.827 142.107 349.723C142.425 349.671 142.884 349.695 143.595 349.835C145.31 350.157 146.469 350.145 147.568 349.928C147.665 349.936 147.788 349.938 147.911 349.939C148.207 349.94 148.717 349.653 149.314 349.387C149.847 349.147 150.456 348.923 151.029 348.938C151.697 348.954 152.717 348.75 153.631 348.629C154.337 348.536 155.007 348.508 155.438 348.651C155.935 348.818 156.153 348.651 156.352 348.365C156.959 348.354 157.559 348.344 158.147 348.319C158.24 348.315 158.333 348.308 158.425 348.304C158.635 348.52 158.879 348.699 159.188 348.74C159.264 348.766 159.337 348.759 159.411 348.714C159.604 348.603 159.765 348.41 159.924 348.203C160.081 348.189 160.242 348.178 160.401 348.16C160.786 348.117 161.173 348.064 161.623 347.971C161.858 347.92 162.09 347.868 162.409 347.758C162.633 347.639 162.842 347.652 163.269 347.341C163.579 347.303 163.841 347.322 164.005 347.519C164.455 348.054 164.612 346.53 165.284 346.919C165.956 347.31 166.394 347.145 167.046 346.698C167.542 346.358 168.777 346.122 169.616 346.323C169.879 346.387 170.104 346.492 170.252 346.652C170.459 346.875 170.685 346.911 170.915 346.86C171.468 347.219 172.025 347.574 172.585 347.924C172.517 348.09 172.628 348.271 172.826 348.39C173.281 348.656 173.707 348.574 173.906 348.992C174.304 349.832 174.473 350.157 175.184 349.808C175.894 349.459 176.048 350.516 176.443 350.456C176.568 350.437 176.662 350.366 176.789 350.299C176.807 350.307 176.824 350.318 176.842 350.326C177.316 350.556 177.814 350.796 178.322 351.042C179.039 351.386 179.71 351.723 180.634 352.133C180.76 352.187 180.885 352.243 181.089 352.322C181.2 352.363 181.307 352.408 181.574 352.48C181.745 352.51 181.805 352.589 182.492 352.574C182.672 352.56 182.856 352.536 183.154 352.438C183.407 352.355 183.716 352.198 183.998 351.961C184.006 351.962 184.013 351.962 184.021 351.963C184.681 352.071 185.304 352.127 185.833 352.264C187.198 352.621 189.639 352.476 190.548 352.843C190.549 352.843 190.551 352.844 190.553 352.845C191.498 353.199 191.54 352.526 192.345 352.191C193.153 351.858 193.68 353.559 194.652 353.378C195.625 353.197 195.822 352.322 196.91 352.584C197.657 352.764 198.427 352.567 198.988 352.551L198.957 352.549C199.157 352.542 199.38 352.587 199.535 352.716C200.045 353.126 200.187 352.035 200.895 352.311C201.094 352.386 201.27 352.43 201.437 352.446C201.867 352.488 202.218 352.347 202.665 352.095C203.287 351.747 205.161 351.448 205.844 351.888C206.526 352.328 207.304 351.566 207.771 351.385C207.917 351.328 208.031 351.251 208.119 351.171C208.156 351.137 208.174 351.066 208.174 350.996C208.174 350.909 208.147 350.823 208.1 350.812C207.867 350.758 207.52 350.616 207.11 350.299C206.347 349.708 206.262 350.36 205.232 350.055C204.202 349.748 203.589 349.14 202.385 349.517C202.032 349.627 201.76 349.561 201.518 349.436C200.896 349.128 200.613 348.515 199.334 349.025C199.317 349.018 199.3 349.012 199.283 349.004C199.278 349.004 199.265 349.002 199.261 349.003C198.55 348.657 198.009 348.249 197.09 348.524C196.743 348.227 196.339 347.925 195.726 347.807C195.709 347.803 195.692 347.802 195.676 347.799C195.539 347.705 195.394 347.664 195.214 347.742C195.201 347.742 195.189 347.743 195.176 347.742C194.832 347.722 194.477 347.733 194.12 347.767C193.081 347.574 193.327 346.31 192.324 345.623C191.881 345.315 191.316 345.114 190.731 344.946C190.039 344.745 189.334 344.598 188.796 344.414C188.681 344.192 188.663 344.213 188.597 344.103C188.461 343.914 188.351 343.775 188.238 343.631C188.018 343.354 187.799 343.083 187.595 342.815C187.185 342.279 186.812 341.737 186.522 341.187C186.403 340.957 186.257 340.699 186.088 340.421C184.868 338.401 182.659 335.475 182.061 333.953C181.382 332.229 180.611 332.763 179.347 331.873C178.083 330.984 179.317 328.704 178.021 327.437C177.868 327.287 177.716 327.16 177.566 327.053C177.141 325.476 176.799 324.249 176.495 323.034C176.573 322.404 176.698 321.678 176.927 320.826C177.412 319.028 177.993 317.498 178.515 316.025C179.409 312.828 179.832 311.735 180.495 308.383C180.532 308.206 180.574 308.042 180.623 307.876C180.827 307.221 181.094 306.678 181.401 306.205C181.483 306.124 181.577 306.041 181.667 305.946C181.768 305.845 181.876 305.742 181.983 305.637C182.456 305.172 182.887 304.691 183.286 304.209C184.11 303.52 185.012 302.832 185.883 301.842C186.37 301.329 186.905 300.639 187.421 299.742C187.68 299.291 187.938 298.784 188.195 298.198C188.324 297.905 188.453 297.591 188.593 297.231C188.664 297.049 188.734 296.86 188.835 296.608C188.886 296.48 188.946 296.34 189.059 296.079C189.148 295.83 189.165 296.018 189.529 294.775C189.593 294.493 189.681 294.125 189.676 293.434C189.648 293.022 189.701 292.857 189.409 291.882C189.383 291.782 189.345 291.679 189.302 291.572C190.64 289.237 192.406 286.426 193.849 284.034C194.042 283.939 194.246 283.841 194.45 283.729C197.139 282.253 199.93 279.955 202.246 278.085C203.659 276.942 204.888 275.965 205.846 275.404C208.408 273.905 211.873 272.03 215.28 269.606C215.449 269.486 215.624 269.363 215.801 269.243C215.839 269.217 215.943 269.155 215.978 269.127C219.376 266.483 223.577 263.623 226.495 260.366C226.576 260.276 226.66 260.186 226.741 260.096C228.424 258.316 230.274 255.858 231.697 254.506C232.318 253.965 232.871 253.448 233.382 252.979C234.846 252.611 236.385 252.28 238.133 251.849C238.354 251.794 238.589 251.737 238.815 251.679C243.07 250.577 248.528 250.528 253.232 249.416C254.568 249.099 256.066 248.767 257.599 248.453C261.474 247.656 265.623 246.991 267.885 246.562C271.043 245.966 271.822 245.839 274.895 246.07C275.6 246.125 276.424 246.129 277.272 246.07C278.552 245.983 279.914 245.754 281.138 245.37C282.161 245.051 281.929 244.621 280.884 244.427C279.359 244.145 278.109 244.363 277.319 243.835C277.293 243.817 277.265 243.797 277.238 243.78C275.717 242.764 275.019 242.383 273.076 243.042C271.102 243.715 270.123 242.325 268.964 242.527C267.802 242.746 267.861 243.527 261.911 243.228C260.083 243.146 258.502 243.117 257.125 243.119C254.011 243.127 251.957 243.27 250.393 243.358C249.754 243.393 248.933 243.537 248.003 243.723C248.762 242.509 249.238 241.059 249.818 240.562C249.968 240.434 250.135 240.296 250.304 240.16L250.157 240.303C251.038 239.667 252.071 238.868 252.828 237.728C253.75 236.339 255.717 235.373 256.47 233.569C257.08 232.107 257.866 230.132 258.146 228.614C258.205 228.286 258.239 227.991 258.254 227.748C258.308 226.41 258.279 226.144 258.848 225.071C259.165 224.455 259.158 223.442 258.562 222.657C258.26 222.265 257.831 222.381 257.614 222.712C257.294 223.197 257.432 223.632 256.863 223.803C255.718 224.126 255.295 224.157 255.745 224.89C256.171 225.653 254.73 225.452 254.767 225.791C254.786 226.047 255.198 226.304 254.905 226.904C254.798 227.118 254.566 227.394 254.138 227.721C252.579 228.884 251.726 229.586 251.14 230.053C250.553 230.511 250.046 232.178 248.997 232.889C248.138 233.478 246.868 234.917 245.876 235.538C245.839 235.561 245.756 235.66 245.718 235.688C245.507 235.849 245.305 235.981 245.128 236.063C244.064 236.562 244.75 237.211 244.55 238.199C244.352 239.185 242.195 238.104 241.732 239.081C241.276 240.057 242.062 241.014 241.059 241.684C240.052 242.35 239.839 243.788 239.112 243.815C238.389 243.839 239.439 244.944 238.681 245.242C238.512 245.308 238.376 245.388 238.261 245.471C237.857 245.53 237.431 245.591 236.992 245.664C234.547 246.057 231.216 246.801 228.903 247.587C228.833 247.605 228.635 247.695 228.564 247.722C227.342 248.241 226.26 248.725 225.485 249.01C222.581 250.095 223.063 250.926 221.219 252.572C219.76 253.884 217.696 253.465 215.708 254.123C215.242 254.263 214.737 254.496 214.247 254.847C211.86 256.559 212.075 257.853 209.018 259.24C205.96 260.627 203.433 262.996 201.884 263.278C200.343 263.556 200.936 264.979 198.925 265.708C196.91 266.438 195.883 267.235 194.504 268.57C193.757 269.294 192.012 270.545 190.236 271.614C189.69 271.833 189.112 272.021 188.479 272.159C187.611 272.351 186.792 272.656 186.086 272.978C185.954 272.926 185.83 272.864 185.718 272.786C184.118 271.683 183.439 271.261 181.39 271.846C179.34 272.427 178.406 270.973 177.22 271.104C176.505 271.183 176.21 271.523 174.776 271.595C173.986 271.63 172.542 271.576 171.289 270.581C170.198 269.694 169.647 268.19 168.398 266.531C168.05 265.976 167.621 264.435 167.208 263.306C167.045 262.826 166.907 262.38 166.791 261.964C166.392 260.642 165.422 258.248 164.702 255.701C164.838 254.937 164.982 254.271 165.246 253.864C165.928 252.792 166.993 251.474 167.716 249.818C167.744 249.754 167.777 249.688 167.809 249.625C168.605 248.033 170.452 246.77 171.273 244.968C171.962 243.441 173.043 241.474 173.81 240.141C173.878 240.02 173.943 239.903 174.006 239.793C174.096 239.705 174.185 239.618 174.271 239.533C174.333 239.495 174.398 239.458 174.46 239.417L174.398 239.448C174.904 239.137 175.462 238.739 176.067 238.233C176.742 237.673 177.351 237.262 177.913 236.946C178.343 236.869 178.788 236.658 179.216 236.354C181.404 235.605 183.172 236.15 186.573 234.791C190.122 233.377 193.983 230.859 196.921 229.16C197.994 228.54 198.928 228.04 199.699 227.729C200.886 227.248 201.886 226.886 203.576 226.267C205.621 225.431 208.109 224.53 210.609 223.219C211.098 222.963 211.609 222.709 212.132 222.457C215.295 220.901 219.283 219.634 222.718 216.956C223.188 216.577 223.678 216.173 224.147 215.754C226.549 213.659 229.544 210.74 231.67 208.099C232.893 206.598 233.954 205.256 234.677 204.293C236.627 201.682 237.109 201.052 239.482 199.032C240.443 198.198 241.52 197.058 242.388 195.633C242.719 195.046 243.015 194.433 243.213 193.791C243.394 193.246 243.222 192.917 243.039 192.998C242.881 192.974 242.661 193.117 242.292 193.471C241.872 193.873 241.497 194.281 241.158 194.646C240.662 195.159 240.162 195.603 239.605 195.726C237.761 196.118 237.006 196.302 236.071 198.15C235.125 200.005 233.457 199.66 232.753 200.591C232.09 201.463 232.591 202.042 228.799 205.132C228.556 205.328 228.292 205.531 228.013 205.739C223.57 209.028 220.922 210.407 218.941 211.681C218.889 211.712 218.835 211.743 218.783 211.773C217.213 212.778 213.585 215.439 210.139 216.705C209.965 216.771 209.782 216.846 209.592 216.922C208.514 217.364 207.159 217.899 205.703 218.48C205.649 218.156 206.705 218.209 206.613 217.989C206.51 217.737 205.683 217.484 206.659 216.539C207.277 215.97 207.672 215.619 207.95 215.37C208.116 215.221 208.249 215.094 208.37 214.991C208.68 214.727 208.543 213.575 209.202 213.119C209.83 212.678 210.639 211.313 211.399 211.101C212.145 210.892 211.446 210.271 211.415 209.515C211.39 208.757 213.403 209.988 213.623 209.248C213.839 208.518 213.034 207.657 213.685 207.189C213.754 207.142 213.859 206.912 213.92 206.857C213.932 206.846 213.948 206.834 213.962 206.822C214.579 206.333 214.284 205.212 214.895 205.175C215.506 205.134 214.222 204.309 214.768 204.057C215.312 203.801 215.296 203.43 215.084 202.804C215.018 202.608 215.004 202.339 215.033 202.061C215.049 202.043 215.069 201.973 215.084 201.956C215.123 201.269 215.267 200.529 215.762 200.297C216.485 199.947 215.582 199.144 215.407 198.773C215.353 198.656 215.267 198.552 215.172 198.468C215.131 198.432 215.035 198.4 214.941 198.379C214.826 198.353 214.708 198.348 214.683 198.375C214.575 198.517 214.326 198.715 213.835 198.89C212.92 199.2 213.786 199.483 213.199 200.007C212.832 200.319 212.336 200.434 212.081 200.63L212.182 200.433C211.983 200.591 211.861 200.82 211.881 201.198C211.928 202.201 209.877 201.187 210.37 202.865C210.682 203.96 209.916 203.869 209.079 203.929L209.353 203.546C208.923 203.474 208.47 203.428 208.124 203.65C207.148 204.279 207.066 206.331 206.497 206.834C205.923 207.332 205.033 207.96 204.598 209.062C204.369 209.65 203.818 210.154 203.342 210.738C203.242 210.802 203.13 210.839 202.97 210.819C202.091 210.709 201.748 210.672 201.78 211.376C201.809 212.083 200.839 211.663 200.738 211.983C200.636 212.304 201.119 212.68 199.741 213.653C199.257 213.994 198.86 214.287 198.529 214.543C197.976 214.944 197.639 215.166 197.338 215.352C197.196 215.439 197.035 215.622 196.842 215.862C196.736 215.843 196.68 215.865 196.74 215.992C196.658 216.097 196.569 216.207 196.476 216.326C196.463 216.321 196.45 216.317 196.438 216.312C196.161 216.175 195.864 216.016 195.757 216.005C195.506 215.966 196.12 216.704 195.987 216.729C195.864 216.745 195.653 216.672 195.71 216.919C195.75 217.181 195.313 216.792 195.427 217.193C195.433 217.221 195.44 217.25 195.446 217.278L195.692 217.156C195.692 217.163 195.692 217.169 195.691 217.176C195.616 217.228 195.537 217.276 195.455 217.315C195.386 217.35 195.314 217.392 195.236 217.437C194.18 217.865 193.435 218.241 192.862 218.542C192.573 218.693 192.332 218.816 192.111 218.929C191.362 219.309 190.41 220.935 189.155 221.517C187.907 222.104 185.785 223.873 184.6 224.162C183.422 224.454 183.943 225.23 183.467 226.212C183.382 226.385 183.255 226.482 183.093 226.539C182.709 226.332 182.19 226.096 181.28 226.342C181.27 226.344 181.258 226.346 181.248 226.349C181.223 226.355 181.198 226.364 181.173 226.371C180.869 226.353 180.604 226.41 180.43 226.642C180.424 226.649 180.42 226.658 180.414 226.666C179.918 226.914 179.442 227.245 179.005 227.57C178.165 228.133 177.562 228.744 177.101 228.994C176.873 229.118 176.628 229.251 176.378 229.397C175.546 229.905 174.936 230.277 174.626 230.537C174.594 230.564 174.562 230.586 174.528 230.603C173.399 230.974 171.992 230.711 170.777 231.166C170.483 231.276 170.157 231.39 169.816 231.498C169.692 231.535 169.567 231.574 169.44 231.611C169.356 231.442 169.246 231.289 169.088 231.163L169.266 231.345C169.007 231.072 168.785 230.947 168.506 230.842C167.439 230.492 168.144 229.163 167.312 228.68C167.178 227.514 166.928 226.166 167.042 225.369C167.121 224.848 166.962 224.575 166.699 224.371C166.567 224.27 166.404 224.183 166.225 224.073C166.136 224.021 166.038 223.954 165.932 223.868C165.912 223.851 165.898 223.829 165.878 223.811C165.897 222.341 165.882 221.043 165.809 220.02C165.803 219.891 165.795 219.764 165.789 219.641C165.742 218.78 165.705 218.051 165.674 217.397C166.061 213.834 166.215 210.602 166.005 207.491C165.981 207.335 165.971 207.154 165.886 206.869C165.842 205.933 165.76 204.963 165.62 204.011C165.503 203.224 165.354 202.446 165.142 201.705C165.001 200.98 164.454 200.742 164.587 201.052C164.29 200.968 164.311 201.395 164.217 202.096C164.152 202.785 164.124 203.434 164.102 204.041C164.093 204.27 164.084 204.493 164.074 204.707C163.608 204.489 163.054 204.36 162.56 204.358C162.881 203.18 163.194 202.008 163.52 200.854C163.651 200.391 163.793 199.907 163.901 199.57C163.923 199.5 163.951 199.417 163.924 199.474C163.853 199.561 164.06 199.402 163.419 200.228C163.32 200.337 163.188 200.464 162.995 200.618C163.077 200.051 163.162 199.476 163.242 198.866C163.268 198.531 163.34 198.488 163.296 197.62C163.286 197.541 163.284 197.466 163.238 197.269C163.138 197.07 163.319 196.904 162.49 195.988C162.352 195.777 161.827 195.525 161.265 195.4C160.9 195.095 160.422 194.805 159.827 194.65C158.723 194.352 157.685 194.667 157.157 194.959C156.604 195.261 156.345 195.534 156.158 195.729C155.527 196.484 155.578 196.604 155.48 196.773C155.458 196.827 155.444 196.875 155.431 196.909C155.34 196.871 155.227 196.837 155.087 196.812C155.114 196.68 155.137 196.544 155.164 196.41C155.261 195.926 155.368 195.398 155.465 194.882C155.515 194.608 155.557 194.373 155.607 194.055C155.643 193.717 155.724 193.662 155.708 192.7C155.69 192.489 155.683 192.321 155.588 191.915C155.558 191.803 155.528 191.673 155.423 191.424C155.348 191.268 155.32 191.152 155.049 190.79ZM179.952 351.456C179.982 351.503 180.015 351.563 179.937 351.468C179.91 351.432 179.888 351.397 179.825 351.286C179.872 351.349 179.918 351.404 179.952 351.456ZM163.739 342.424C163.722 342.435 163.703 342.445 163.686 342.455C163.64 342.411 163.599 342.368 163.558 342.331C163.618 342.362 163.679 342.393 163.739 342.424ZM155.793 339.346C155.846 339.356 155.9 339.369 155.954 339.38C156.07 339.444 156.183 339.508 156.294 339.569C155.874 339.462 155.47 339.351 155.076 339.257C155.086 339.239 155.092 339.218 155.103 339.198C155.34 339.245 155.562 339.3 155.793 339.346ZM169.67 332.848C169.649 332.831 169.629 332.813 169.608 332.797L169.612 332.755C169.631 332.786 169.652 332.817 169.67 332.848ZM164.317 302.035C164.285 302.063 164.249 302.086 164.217 302.112C164.221 302.003 164.225 301.894 164.229 301.785C164.259 301.766 164.29 301.745 164.322 301.726C164.321 301.828 164.319 301.932 164.317 302.035ZM164.248 301.202C164.27 301.256 164.286 301.309 164.285 301.361C164.285 301.401 164.267 301.446 164.238 301.492C164.242 301.396 164.245 301.299 164.248 301.202ZM190.205 276.486C190.109 276.604 190 276.728 189.876 276.855C189.403 277.341 188.695 277.897 187.652 278.553C187.6 278.514 187.548 278.479 187.496 278.447C187.721 278.307 187.973 278.181 188.216 278.035C188.45 277.895 188.675 277.739 188.848 277.532C189.072 277.264 189.345 276.938 189.592 276.64C189.792 276.595 189.997 276.545 190.205 276.486ZM182.875 275.648C182.834 275.687 182.794 275.726 182.754 275.765C182.472 275.769 182.192 275.774 181.913 275.779C182.214 275.738 182.524 275.686 182.836 275.613C182.856 275.609 182.876 275.604 182.896 275.6C182.89 275.616 182.882 275.632 182.875 275.648ZM210.967 264.912C209.203 265.951 207.225 267.182 205.507 268.198C206.015 267.817 206.487 267.459 206.866 267.137C206.954 267.06 207.039 266.987 207.117 266.919C208.326 265.886 208.756 265.557 209.999 265.163C210.12 265.128 210.253 265.093 210.396 265.061C210.576 265.02 210.767 264.97 210.967 264.912ZM138.262 262.687C138.201 262.653 138.14 262.62 138.079 262.586C138.12 262.567 138.16 262.549 138.198 262.53C138.213 262.58 138.234 262.632 138.262 262.687ZM166.194 225.896C166.237 225.777 166.351 226.037 166.144 226.634C166.103 226.748 166.048 226.848 165.989 226.936C165.961 226.824 165.937 226.711 165.909 226.6C166.043 226.298 166.168 226.035 166.194 225.896ZM202.82 216.759C203.092 217.638 203.163 217.819 202.747 218.508C202.573 218.798 202.566 219.232 202.813 219.656C202.697 219.704 202.579 219.751 202.462 219.799C202.436 219.703 202.411 219.607 202.385 219.517C202.327 219.317 202.266 219.132 202.204 218.983C202.003 218.489 201.943 218.395 202.327 218.372C202.526 218.377 202.652 217.947 202.096 217.459C201.88 217.359 201.598 217.398 201.381 217.4C201.383 217.396 201.386 217.392 201.388 217.388C201.589 217.284 201.832 217.188 202.146 217.088C202.369 217.016 202.596 216.899 202.816 216.74L202.82 216.759ZM148.868 215.446C148.875 215.676 148.881 215.903 148.885 216.126C148.827 216.065 148.769 215.998 148.721 215.919C148.614 215.74 148.702 215.589 148.868 215.446ZM202.521 214.778C202.517 214.779 202.513 214.779 202.51 214.78C202.513 214.772 202.516 214.763 202.52 214.755C202.52 214.763 202.52 214.771 202.521 214.778Z" fill="#301B0A"/>
<path d="M174.458 190.421C174.365 190.251 174.216 190.11 174.031 190.033C173.846 189.957 173.643 189.95 173.462 190.016C173.282 190.082 173.138 190.216 173.059 190.389C172.979 190.562 172.973 190.76 173.029 190.944C173.27 191.732 173.515 192.519 173.764 193.305C176.006 200.377 178.569 207.331 181.453 214.167C184.338 221.003 187.544 227.721 191.072 234.322C191.464 235.056 191.86 235.787 192.26 236.518C192.353 236.688 192.502 236.829 192.687 236.905C192.872 236.982 193.075 236.988 193.255 236.923C193.435 236.857 193.58 236.723 193.659 236.55C193.739 236.376 193.745 236.178 193.689 235.995C193.448 235.206 193.203 234.419 192.954 233.633C190.712 226.562 188.149 219.608 185.265 212.772C182.38 205.936 179.174 199.217 175.646 192.616C175.254 191.883 174.858 191.151 174.458 190.421Z" fill="#5E3413"/>
<path d="M233.009 221.509C233.134 221.314 233.187 221.083 233.147 220.859C233.107 220.635 232.978 220.438 232.785 220.309C232.593 220.179 232.351 220.128 232.11 220.163C231.869 220.198 231.651 220.319 231.492 220.491C230.699 221.351 229.91 222.213 229.125 223.078C222.061 230.866 215.339 238.883 208.958 247.128C202.577 255.374 196.537 263.849 190.838 272.553C190.205 273.52 189.576 274.49 188.951 275.462C188.826 275.657 188.772 275.888 188.813 276.112C188.853 276.336 188.982 276.533 189.174 276.663C189.367 276.792 189.609 276.844 189.85 276.808C190.091 276.773 190.309 276.652 190.468 276.48C191.261 275.621 192.05 274.758 192.835 273.893C199.898 266.105 206.621 258.088 213.002 249.843C219.383 241.597 225.423 233.122 231.122 224.418C231.755 223.451 232.384 222.481 233.009 221.509Z" fill="#5E3413"/>
<path d="M151.765 178.752C151.757 178.56 151.686 178.372 151.554 178.229C151.422 178.086 151.242 178 151.051 177.99C150.859 177.98 150.67 178.046 150.521 178.173C150.372 178.301 150.278 178.48 150.246 178.67C150.11 179.48 149.979 180.289 149.853 181.099C148.712 188.389 147.913 195.697 147.456 203.024C146.999 210.351 146.884 217.696 147.111 225.06C147.137 225.878 147.166 226.696 147.2 227.515C147.208 227.707 147.279 227.895 147.411 228.038C147.543 228.181 147.723 228.267 147.915 228.277C148.106 228.288 148.296 228.222 148.445 228.094C148.593 227.966 148.688 227.787 148.72 227.597C148.855 226.788 148.986 225.978 149.113 225.168C150.253 217.878 151.052 210.57 151.509 203.243C151.966 195.916 152.081 188.571 151.854 181.208C151.829 180.389 151.799 179.571 151.765 178.752Z" fill="#5E3413"/>
<path d="M390.979 206.248C387.687 291.054 354.661 309.741 310.197 316.455C249.625 325.6 206.467 277.582 157.251 271.641C97.9957 264.489 37.4238 263.467 37.4238 172.538C51.25 81.6011 28.7265 48.0028 117.711 13.9122C230.678 -33.1052 347.43 52.3139 390.979 74.4488C455.349 112.651 390.979 169.008 390.979 206.248Z" fill="url(#paint0_linear_1732_142)"/>
<mask id="mask0_1732_142" style="mask-type:alpha" maskUnits="userSpaceOnUse" x="35" y="83" width="220" height="206">
<path d="M86.5382 176.264C106.782 229.191 203.759 137.378 244.121 177.12C291.204 219.405 161.771 235.91 167.35 268.768C106.721 288.88 71.6777 311.001 45.6517 242.958C19.6256 174.915 44.8079 108.741 105.437 88.6289C166.066 68.5164 60.5121 108.221 86.5382 176.264Z" fill="#A2AE66"/>
</mask>
<g mask="url(#mask0_1732_142)">
<path d="M388.182 130.091C415.638 211.009 403.138 274.193 363.67 294.412C309.906 321.956 298.838 265.652 248.982 265.652C193.715 265.652 74.7447 296.651 41.9816 210.994C22.2398 121.009 182.716 67.5887 158.731 97.5616C206.368 81.7591 260.314 42.7317 309.313 49.9745C341.973 54.802 374.764 95.0107 388.182 130.091Z" fill="#3B5728"/>
</g>
<defs>
<linearGradient id="paint0_linear_1732_142" x1="228.506" y1="0" x2="228.506" y2="317.609" gradientUnits="userSpaceOnUse">
<stop stop-color="#4B6A15"/>
<stop offset="1" stop-color="#5D7F21"/>
</linearGradient>
</defs>
</svg>
