<svg width="559" height="628" viewBox="0 0 559 628" fill="none" xmlns="http://www.w3.org/2000/svg">
<path d="M297.619 339.344C297.859 339.005 299.297 337.132 301.9 337.562C303.116 337.818 303.64 338.301 304.028 338.628C304.415 338.979 304.651 339.32 304.757 339.474C305.009 339.84 305.164 340.164 305.228 340.307C305.388 340.672 305.446 340.867 305.5 341.042C305.808 342.175 305.792 342.471 305.87 342.982C305.964 343.752 306.016 344.423 306.066 345.087C307.421 345.73 307.705 346.742 307.775 346.807C307.852 346.971 307.902 347.107 307.94 347.22C308.015 347.443 308.048 347.596 308.073 347.715C308.159 348.21 308.135 348.131 308.149 348.266C308.159 348.445 308.156 348.484 308.156 348.562C307.921 350.028 307.656 351.339 307.387 352.654L307.393 352.668C307.717 352.421 307.954 352.19 308.13 351.987C308.263 351.83 308.317 351.759 308.391 351.657C308.527 351.469 308.624 351.306 308.702 351.168C308.997 350.626 309.06 350.375 309.127 350.178C309.212 349.9 309.217 349.86 309.242 349.758C309.281 349.579 309.283 349.556 309.292 349.504C309.315 349.372 309.318 349.355 309.318 349.353C309.318 349.357 309.316 349.431 309.312 349.49C309.303 349.62 309.289 349.791 309.28 349.951C309.261 350.289 309.245 350.653 309.229 351.017C309.196 351.749 309.165 352.529 309.133 353.314C309.07 354.897 309.006 356.552 308.93 358.302C308.909 358.777 308.876 359.26 308.854 359.746C308.967 360.407 309.07 361.082 309.171 361.775C309.202 361.76 309.228 361.742 309.254 361.728C309.292 361.601 309.331 361.476 309.369 361.35C309.328 361.314 309.279 361.268 309.216 361.226C309.022 361.091 309.104 360.923 309.541 360.758C309.558 360.7 309.58 360.643 309.597 360.586C311.76 353.309 312.202 354.2 311.096 360.496C311.362 360.505 311.607 360.541 311.769 360.593C312.265 360.754 311.94 360.888 312.824 360.971C314.596 361.136 315.276 361.202 314.247 361.411C313.22 361.62 315.557 361.723 315.288 361.845C315.012 361.965 313.646 361.965 314.704 362.581C315.762 363.197 316.037 363.543 316.292 363.777C316.547 364.012 315.359 364.502 315.784 364.885C316.216 365.267 315.822 366.05 316.527 366.364C317.235 366.678 315.689 366.675 314.825 366.929C313.969 367.182 317.777 367.383 317.245 367.691C316.704 367.999 314.686 368.049 315.129 368.4C315.585 368.754 314.207 369.11 315.034 369.268C315.86 369.424 313.371 369.438 313.904 369.659C314.463 369.883 314.137 370.021 313.319 370.217C313.11 370.267 312.907 370.34 312.741 370.43C312.762 370.709 312.794 370.977 312.824 371.234C313.261 371.332 313.146 371.425 312.856 371.523C312.955 372.225 313.118 372.836 313.433 373.34C315.205 376.162 315.886 377.366 314.856 380.927C314.758 381.266 314.695 381.591 314.653 381.897C315.45 382.74 315.62 383.435 314.964 384.759C315.4 386.061 316.047 387.098 315.898 388.253L315.891 388.267C315.981 388.466 316.033 388.657 315.987 388.865C315.891 389.28 315.641 389.544 315.421 390.001C315.277 390.473 315.15 391.054 315.053 391.899C315.034 392.775 315.13 393.986 315.472 395.724C316.6 401.446 316.916 404.59 317.2 406.758C317.482 408.925 316.346 413.477 316.837 417.001C317.188 419.51 317.156 423.902 317.41 427.216C317.512 428.563 317.661 429.711 317.892 430.531C318.702 433.342 317.156 433.417 316.406 435.767C316.148 436.596 316.472 437.314 316.977 438.016C317.013 438.023 317.051 438.038 317.091 438.044C318.941 438.288 319.62 438.199 318.819 439.199C318.047 440.253 320.354 439.723 320.249 440.169C320.158 440.613 318.958 441.253 320.534 442.557C320.618 442.633 320.717 442.711 320.814 442.79C322.95 444.533 323.796 445.452 324.459 446.044C325.102 446.618 325.103 448.849 326.301 449.648C326.928 450.067 327.657 450.953 328.441 451.719C328.718 451.951 329.049 452.049 329.394 451.843C330.114 451.359 329.527 452.911 329.972 454.03C330.542 455.151 331.805 451.219 332.621 451.891C333.525 452.581 333.576 454.788 334.901 454.374C336.213 453.946 337.56 455.46 338.184 454.567C338.801 453.671 338.852 456.393 339.734 455.792C339.864 455.703 339.991 455.634 340.109 455.585L339.486 455.654C340.038 455.253 340.513 455.517 341.264 456.087C341.705 456.45 342.55 456.594 343.303 456.466C343.773 456.114 344.258 455.759 344.751 455.393C344.761 455.356 344.776 455.32 344.783 455.282C344.837 454.984 344.954 454.812 345.113 454.726C345.145 454.696 345.26 454.656 345.292 454.629C345.486 454.545 345.688 454.533 345.888 454.554C349.03 452.246 352.574 449.736 356.399 447.468C357.752 446.664 359.125 445.733 360.496 444.724C365.566 440.977 370.915 436.347 376.266 433.194C378.069 432.128 380.034 430.891 382.071 429.562C387.937 425.773 394.027 421.999 397.282 419.862C398.88 418.833 400.017 418.039 400.934 417.269C402.592 415.845 403.752 414.539 405.544 411.766C407.141 409.246 409.667 406.194 411.838 403.49C412.769 402.098 413.531 402.436 413.122 404.543C412.438 407.401 410.917 409.027 410.867 410.762C410.708 414.211 410.426 415.778 407.386 417.729C405.686 418.799 405.092 420.143 404.598 421.39C404.167 422.418 403.807 423.339 403.055 423.873C401.346 425.023 400.553 424.015 393.502 431.213C391.161 433.591 389.136 435.562 387.482 437.218C383.984 440.701 381.391 442.906 379.473 444.564C376.779 446.899 370.58 450.043 365.958 453.632C365.61 453.902 365.258 454.181 364.917 454.464C363.749 455.439 362.242 456.57 360.579 457.772C360.766 458.2 360.913 458.953 361.233 459.479C361.803 460.407 362.254 456.297 362.948 456.857C363.644 457.442 363.752 459.634 364.547 459.148C365.346 458.654 366.149 460.154 366.504 459.252C366.859 458.357 366.898 461.071 367.4 460.477C367.904 459.872 368.211 460.226 368.651 461.109L368.669 461.137C368.817 459.853 368.584 457.988 369.699 457.56C371.398 456.921 372.788 458.536 374.1 456.92C375.429 455.297 377.82 455.381 378.088 454.12C378.369 452.853 379.802 455.09 380.534 453.879C381.275 452.667 382.101 452.555 383.43 452.737C384.52 452.878 386.811 452.207 387.946 451.142C387.977 451.118 388.072 451.086 388.104 451.065C388.39 450.852 388.624 450.609 388.771 450.337C389.595 448.849 391.476 450.195 392.34 450.398C392.614 450.457 392.852 450.59 393.045 450.735C393.127 450.797 393.204 450.956 393.249 451.121C393.303 451.329 393.314 451.552 393.243 451.603C392.899 451.848 392.412 452.364 391.979 453.329C391.237 455.047 390.67 453.751 389.458 454.814L389.667 454.712C389.615 454.769 389.561 454.836 389.508 454.904C388.312 456.445 388.123 458.275 385.952 458.529C383.763 458.823 385.369 462.51 381.88 462.23C378.343 462.022 380.308 465.733 378.393 467.939C376.481 470.151 372.358 470.686 371.115 472.026C371.024 472.124 370.935 472.226 370.842 472.329C368.575 474.474 366.222 475.779 363.583 476.14C360.799 476.482 357.86 478.607 354.843 478.142C353.541 477.946 352.039 477.682 350.601 477.405C350.313 477.974 350.081 478.528 349.641 478.596C348.632 478.808 347.939 477.282 343.798 481.134C341.776 483.084 340.253 484.647 339.042 485.881C338.84 486.123 338.674 486.373 338.508 486.603C336.682 490.583 335.06 494.16 334.196 496.557C332.427 501.449 331.216 502.149 329.331 504.192C328.573 506.223 327.962 508.14 327.844 509.435C327.731 510.532 327.477 511.161 327.121 511.608C326.612 512.248 325.894 512.523 325.114 513.279C325.197 513.398 325.296 513.515 325.437 513.616C327.149 514.887 327.802 515.437 326.682 516.815C325.561 518.175 327.844 519.047 327.52 519.862C327.19 520.677 325.821 520.563 326.568 524.898C326.688 525.602 326.792 526.24 326.879 526.858C327.342 529.975 327.422 531.878 327.533 533.235C327.663 534.869 326.211 538.113 326.434 540.775C326.66 543.433 325.848 548.722 326.383 550.936C326.921 553.146 325.375 553.01 324.376 554.664C323.38 556.315 327.078 558.038 326.377 560.099C325.673 562.16 323.63 562.296 323.894 564.755C324.159 567.214 322.593 569.504 323.335 570.664C324.081 571.812 321.571 571.692 322.007 573.278C322.172 573.852 322.216 574.371 322.167 574.806C322.079 575.585 321.706 576.228 321.131 577.014C320.81 577.46 320.483 578.251 320.229 579.153C320.878 580.892 321.144 582.055 321.601 583.178C322.735 586.174 323.338 589.492 323.773 592.629C323.851 592.699 323.89 592.759 323.849 592.836C323.84 592.852 323.817 592.855 323.805 592.87C324.014 594.352 324.188 595.79 324.383 597.128C324.837 597.753 325.093 597.994 325.317 598.201C325.433 598.304 325.425 598.495 325.431 598.827C325.277 599.141 325.353 600.307 325.99 600.767C326.217 600.936 326.447 601.192 326.682 601.482C327.354 602.312 328.237 603.539 329.108 603.67C330.12 603.812 329.364 604.767 329.171 605.878C329.149 606.009 329.13 606.144 329.127 606.277C329.132 607.564 332.147 604.949 332.494 606.029C332.759 606.839 332.201 608.037 332.354 608.754C333.047 608.459 333.205 608.957 333.389 609.634C333.597 609.837 333.759 610.09 333.904 610.336C334.084 610.644 334.258 610.917 334.456 611.051C335.182 610.529 336.142 608.286 336.875 608.856C337.832 609.607 337.711 611.807 338.997 611.505C340.276 611.199 341.342 612.852 341.995 612.028C342.642 611.204 342.406 613.912 343.258 613.41C344.107 612.906 344.552 613.318 345.158 614.277C345.763 615.241 347.836 616.228 348.714 615.227C349.589 614.231 350.314 616.2 350.81 616.706C350.963 616.862 351.077 617.069 351.16 617.276C351.194 617.365 351.2 617.545 351.185 617.717C351.166 617.931 351.115 618.141 351.058 618.164C350.78 618.269 350.347 618.574 349.807 619.306C348.799 620.67 348.849 619.051 347.596 619.671C346.342 620.292 345.477 621.716 344.167 620.586C342.866 619.46 342.114 623.458 340.363 620.909C340.051 620.448 339.771 620.209 339.511 620.125C339.025 620.588 338.808 620.571 338.603 620.427C337.831 621.118 337.061 622.645 335.802 622.787C333.672 623.022 331.457 620.204 330.213 620.125C329.969 620.11 329.702 620.101 329.425 620.09C328.616 620.058 327.689 619.988 326.764 619.671C326.527 619.752 326.304 619.806 326.098 619.863C325.776 619.955 325.485 620.102 325.266 620.578C324.388 622.486 324.007 623.221 322.916 622.085C321.832 620.951 321.235 623.463 320.572 623.145C320.131 622.926 320.019 622.188 318.947 622.003C318.423 621.91 317.667 621.953 316.495 622.202C313.668 622.775 311.759 622.753 309.947 622.367C309.788 622.382 309.585 622.386 309.381 622.388C308.893 622.389 308.054 621.877 307.07 621.404C306.192 620.978 305.188 620.581 304.244 620.606C303.144 620.636 301.462 620.271 299.957 620.056C298.793 619.891 297.687 619.841 296.978 620.097C296.158 620.392 295.799 620.096 295.472 619.588C294.47 619.567 293.483 619.55 292.512 619.506C292.359 619.499 292.207 619.485 292.055 619.478C291.708 619.862 291.306 620.181 290.797 620.255C290.671 620.3 290.552 620.288 290.429 620.207C290.111 620.01 289.846 619.666 289.584 619.299C289.325 619.274 289.061 619.255 288.797 619.224C288.163 619.147 287.526 619.052 286.784 618.887C286.397 618.797 286.015 618.704 285.488 618.508C285.118 618.296 284.775 618.319 284.072 617.765C283.561 617.698 283.129 617.732 282.859 618.081C282.117 619.034 281.859 616.323 280.75 617.016C279.644 617.71 278.922 617.418 277.848 616.623C277.03 616.017 274.994 615.598 273.612 615.956C273.179 616.069 272.808 616.256 272.564 616.541C272.222 616.938 271.851 617.002 271.471 616.912C268.284 619.144 265.024 621.339 261.703 623.075C260.92 623.484 260.102 623.912 259.264 624.349C258.083 624.961 256.976 625.559 255.454 626.288C255.246 626.385 255.04 626.484 254.704 626.625C254.52 626.698 254.345 626.778 253.904 626.907C253.622 626.959 253.525 627.099 252.392 627.072C252.095 627.047 251.793 627.006 251.3 626.832C250.704 626.62 249.914 626.141 249.343 625.359C248.67 624.46 248.469 623.47 248.429 622.743C246.629 623.269 245.49 623.568 244.652 623.817C243.975 624.021 242.802 624.09 241.665 624.313C240.686 624.528 239.725 624.651 238.893 624.83C236.745 625.31 232.725 625.192 231.187 625.604C231.177 625.606 231.166 625.609 231.157 625.611C229.605 625.992 229.551 625.325 228.241 625.024C226.919 624.724 225.996 626.451 224.398 626.313C222.8 626.176 222.505 625.307 220.704 625.619C219.461 625.834 218.193 625.67 217.269 625.68L217.303 625.677C216.947 625.685 216.589 625.75 216.336 625.889C215.509 626.333 215.325 625.248 214.165 625.548C213.834 625.631 213.544 625.679 213.269 625.698C212.57 625.747 211.998 625.609 211.267 625.362C210.248 625.022 207.157 624.731 206.032 625.17C204.907 625.611 203.623 624.848 202.852 624.667C202.612 624.611 202.423 624.534 202.278 624.454C202.216 624.42 202.188 624.349 202.188 624.278L202.196 624.214C202.212 624.152 202.252 624.102 202.311 624.094C202.694 624.04 203.267 623.898 203.943 623.581C205.202 622.99 205.342 623.643 207.042 623.336C208.742 623.026 209.757 622.417 211.75 622.781C211.856 622.801 211.959 622.812 212.057 622.82C212.408 622.761 212.92 622.622 213.499 622.308C214.044 622.009 214.34 621.999 214.669 622.018C215.023 622.04 215.399 622.067 216.237 621.795C216.459 621.725 216.674 621.657 216.881 621.592C216.887 621.592 216.901 621.59 216.906 621.59C218.126 621.21 219.034 620.772 220.605 621.011C222.231 621.224 222.643 619.944 223.972 619.882C224.2 619.829 224.451 619.791 224.726 619.771C227.531 619.603 227.042 617.978 229.114 616.664C229.867 616.178 230.763 615.763 231.672 615.376C233.283 614.69 234.899 614.132 235.758 613.567C236.566 613.038 237.599 612.327 238.881 611.747C239.533 611.45 240.256 611.107 241.049 610.785C241.972 610.413 242.92 609.803 244.024 609.199C244.185 609.112 244.346 609.029 244.508 608.949C244.975 608.246 245.399 607.538 245.749 606.82C245.946 606.411 246.188 605.954 246.466 605.458C248.476 601.865 252.118 596.663 253.104 593.957C254.223 590.89 255.492 591.839 257.575 590.256C259.658 588.674 257.624 584.62 259.759 582.365C260.012 582.099 260.263 581.875 260.509 581.685C261.21 578.881 261.775 576.697 262.275 574.537C262.146 573.416 261.939 572.125 261.563 570.609C260.763 567.411 259.807 564.691 258.947 562.072C257.472 556.385 256.775 554.441 255.682 548.479C255.622 548.165 255.553 547.873 255.472 547.578C255.135 546.414 254.697 545.447 254.19 544.606C254.054 544.462 253.901 544.314 253.751 544.146C253.584 543.966 253.407 543.782 253.231 543.596C252.453 542.769 251.742 541.913 251.083 541.057C249.726 539.831 248.239 538.608 246.803 536.847C246.001 535.935 245.12 534.707 244.269 533.111C243.842 532.309 243.416 531.41 242.993 530.367C242.781 529.845 242.569 529.287 242.338 528.647C242.22 528.323 242.104 527.987 241.938 527.54C241.854 527.312 241.756 527.062 241.57 526.598C241.423 526.154 241.396 526.489 240.795 524.279C240.69 523.777 240.544 523.121 240.553 521.892C240.6 521.159 240.51 520.867 240.992 519.134C241.034 518.957 241.099 518.774 241.169 518.583C238.964 514.43 236.052 509.43 233.675 505.176C233.357 505.007 233.021 504.832 232.684 504.633C228.252 502.009 223.654 497.922 219.836 494.596C217.508 492.562 215.482 490.827 213.904 489.829C209.682 487.162 203.971 483.828 198.356 479.518C198.078 479.303 197.789 479.084 197.499 478.871C197.437 478.824 197.263 478.713 197.207 478.664C191.605 473.962 184.683 468.875 179.875 463.083C179.741 462.923 179.603 462.762 179.468 462.602C176.695 459.437 173.646 455.065 171.3 452.661C170.277 451.7 169.367 450.78 168.525 449.944C166.111 449.291 163.575 448.702 160.694 447.936C160.329 447.838 159.943 447.737 159.57 447.633C152.558 445.673 143.564 445.586 135.81 443.608C133.609 443.045 131.139 442.453 128.614 441.896C122.227 440.477 115.39 439.297 111.663 438.532C106.458 437.473 105.173 437.247 100.11 437.658C98.9466 437.755 97.5887 437.762 96.1909 437.658C94.0821 437.503 91.838 437.097 89.8208 436.413C88.1349 435.845 88.518 435.08 90.2397 434.734C92.7534 434.233 94.8132 434.621 96.1147 433.683C96.1588 433.651 96.2047 433.617 96.2485 433.586C98.7557 431.778 99.9065 431.1 103.108 432.272C106.361 433.47 107.973 430.998 109.884 431.357C111.799 431.747 111.702 433.134 121.507 432.603C124.52 432.457 127.125 432.407 129.395 432.41C134.527 432.424 137.912 432.68 140.491 432.836C141.543 432.897 142.895 433.152 144.428 433.482C143.177 431.323 142.393 428.745 141.437 427.862C141.19 427.634 140.915 427.389 140.637 427.147L140.878 427.401C139.427 426.27 137.724 424.848 136.477 422.82C134.958 420.35 131.715 418.634 130.475 415.426C129.469 412.825 128.174 409.312 127.712 406.613C127.615 406.029 127.558 405.505 127.535 405.072C127.445 402.692 127.494 402.22 126.556 400.312C126.033 399.216 126.044 397.416 127.026 396.02C127.525 395.322 128.232 395.528 128.588 396.116C129.116 396.979 128.89 397.752 129.827 398.056C131.714 398.631 132.41 398.685 131.668 399.989C130.967 401.347 133.342 400.988 133.282 401.592C133.25 402.047 132.569 402.505 133.053 403.573C133.231 403.953 133.611 404.443 134.317 405.024C136.885 407.093 138.292 408.342 139.258 409.172C140.225 409.987 141.061 412.951 142.79 414.215C144.206 415.262 146.299 417.822 147.934 418.927C147.996 418.967 148.133 419.145 148.195 419.195C148.542 419.481 148.875 419.716 149.167 419.862C150.919 420.748 149.789 421.902 150.119 423.659C150.444 425.414 154 423.489 154.762 425.228C155.516 426.963 154.219 428.667 155.874 429.857C157.532 431.042 157.883 433.599 159.081 433.647C160.273 433.689 158.541 435.656 159.792 436.187C160.069 436.304 160.293 436.444 160.484 436.592C161.15 436.697 161.851 436.807 162.574 436.937C166.603 437.635 172.094 438.956 175.905 440.354C176.021 440.386 176.347 440.548 176.463 440.596C178.478 441.519 180.261 442.381 181.539 442.887C186.325 444.817 185.531 446.294 188.569 449.222C190.972 451.554 194.374 450.81 197.651 451.98C198.419 452.23 199.25 452.643 200.058 453.267C203.992 456.312 203.638 458.613 208.677 461.081C213.716 463.547 217.88 467.761 220.433 468.264C222.973 468.758 221.996 471.286 225.311 472.583C228.631 473.882 230.323 475.3 232.595 477.674C234.575 479.744 240.806 484.249 244.669 485.922C245.634 485.811 246.451 485.641 247.077 485.172C249.713 483.21 250.831 482.461 254.208 483.5C257.586 484.534 259.125 481.948 261.081 482.18C262.258 482.32 262.744 482.925 265.107 483.053C266.409 483.115 268.79 483.02 270.855 481.251C272.654 479.673 273.561 477 275.619 474.049C276.193 473.062 276.899 470.32 277.581 468.312C277.849 467.458 278.075 466.664 278.267 465.925C278.924 463.573 280.524 459.316 281.709 454.787C281.486 453.429 281.249 452.244 280.814 451.52C279.69 449.612 277.934 447.269 276.743 444.324C276.696 444.21 276.643 444.093 276.59 443.98C275.278 441.149 272.234 438.903 270.88 435.698C269.746 432.984 267.965 429.484 266.702 427.113C266.588 426.899 266.481 426.691 266.377 426.494C266.229 426.337 266.081 426.184 265.939 426.033C265.838 425.965 265.731 425.899 265.628 425.826L265.73 425.882C264.897 425.329 263.977 424.62 262.98 423.722C261.868 422.724 260.863 421.991 259.937 421.431C259.229 421.292 258.495 420.917 257.791 420.378C254.184 419.045 251.272 420.016 245.667 417.6C239.818 415.085 233.456 410.605 228.614 407.583C226.845 406.481 225.304 405.591 224.034 405.038C222.078 404.183 220.43 403.539 217.645 402.438C214.275 400.951 210.175 399.349 206.054 397.018C205.25 396.563 204.406 396.111 203.545 395.662C198.333 392.894 191.759 390.642 186.098 385.88C185.324 385.206 184.517 384.486 183.743 383.74C179.785 380.015 174.847 374.824 171.344 370.127C169.328 367.458 167.581 365.072 166.391 363.358C163.177 358.715 162.383 357.595 158.471 354.003C156.887 352.52 155.112 350.491 153.682 347.956C153.137 346.912 152.649 345.823 152.323 344.682C152.024 343.711 152.307 343.126 152.609 343.271C152.869 343.229 153.232 343.481 153.841 344.11C154.533 344.826 155.149 345.552 155.708 346.202C156.526 347.113 157.351 347.904 158.268 348.121C161.308 348.818 162.551 349.147 164.091 352.435C165.65 355.732 168.399 355.119 169.56 356.774C170.653 358.327 169.826 359.355 176.077 364.851C176.476 365.199 176.911 365.559 177.372 365.931C184.694 371.781 189.058 374.232 192.323 376.497C192.408 376.553 192.499 376.608 192.583 376.662C195.172 378.449 201.149 383.18 206.829 385.433C207.116 385.549 207.417 385.683 207.731 385.818C209.307 386.517 211.244 387.344 213.336 388.244C213.371 388.195 213.403 388.147 213.432 388.102C213.005 387.996 212.559 387.923 212.64 387.717C212.702 387.554 212.92 387.39 213.097 387.168C212.942 387.202 213.111 387.055 213.26 386.907C213.297 386.826 213.323 386.739 213.334 386.643C213.108 386.628 213.142 386.499 213.295 386.243C213.21 385.947 212.993 385.585 212.564 385.137C211.547 384.125 210.894 383.502 210.436 383.06C210.163 382.795 209.944 382.568 209.744 382.386C209.233 381.916 209.459 379.866 208.373 379.056C207.338 378.271 206.005 375.842 204.752 375.465C203.523 375.094 204.676 373.991 204.727 372.645C204.768 371.297 201.449 373.487 201.087 372.17C200.732 370.872 202.058 369.342 200.986 368.511C200.872 368.428 200.699 368.015 200.598 367.919C200.577 367.899 200.553 367.877 200.529 367.856C199.512 366.986 199.998 364.993 198.992 364.927C197.985 364.855 200.1 363.388 199.201 362.938C198.303 362.483 198.33 361.824 198.68 360.71C198.789 360.362 198.812 359.884 198.763 359.389C198.736 359.357 198.704 359.233 198.68 359.203C198.616 357.98 198.378 356.665 197.562 356.252C196.37 355.629 197.859 354.201 198.147 353.542C198.236 353.334 198.377 353.148 198.534 352.998C198.601 352.935 198.76 352.877 198.916 352.84C199.106 352.794 199.298 352.785 199.34 352.833C199.518 353.086 199.928 353.437 200.738 353.748C202.247 354.301 200.818 354.804 201.786 355.736C202.391 356.291 203.208 356.496 203.627 356.844L203.462 356.493C203.79 356.775 203.992 357.182 203.958 357.854C203.881 359.638 207.26 357.834 206.448 360.819C205.934 362.767 207.197 362.605 208.576 362.711L208.125 362.03C208.834 361.903 209.58 361.819 210.151 362.216C211.759 363.334 211.892 366.984 212.831 367.878C213.777 368.764 215.244 369.88 215.961 371.84C216.65 373.754 219.121 375.16 219.347 377.873C219.359 378.029 219.368 378.192 219.378 378.354C219.471 379.548 219.457 380.828 219.385 382.007C219.752 382.127 220.102 382.172 220.535 381.897C222.298 380.799 223.048 380.433 223.602 382.124C224.129 383.798 225.908 382.045 226.403 382.736C226.87 383.438 226.119 384.645 229.801 386.072C232.419 387.109 234.093 388.014 235.301 388.7C235.779 388.969 236.175 389.188 236.54 389.389C237.774 390.064 239.343 392.956 241.411 393.99C243.469 395.034 246.965 398.181 248.918 398.695C250.86 399.214 250.001 400.595 250.786 402.342C251.152 403.148 251.998 403.044 253.117 403.07L252.97 402.947C254.042 402.699 255.217 402.281 255.791 403.105C256.844 404.611 255.964 406.613 257.899 407.363C259.051 407.803 259.878 408.82 260.629 409.517C261.137 409.988 261.612 410.311 262.097 410.19C263.295 409.888 262.157 412.313 263.57 412.475C264.305 412.553 264.803 412.786 265.203 413.183C265.257 413.194 265.31 413.207 265.365 413.218C267.45 413.625 269.725 414.056 270.928 414.353C271.79 414.565 272.298 414.685 272.832 414.725C272.897 414.645 272.965 414.551 273.027 414.435C273.646 413.266 273.58 411.918 274.482 411.146L274.19 411.47C274.617 410.984 274.98 410.763 275.441 410.575C277.2 409.953 276.037 407.59 277.41 406.73C277.63 404.657 278.042 402.259 277.854 400.842C277.723 399.915 277.986 399.429 278.419 399.067C278.637 398.887 278.905 398.733 279.201 398.537C279.346 398.445 279.507 398.325 279.683 398.173C279.715 398.143 279.739 398.102 279.772 398.069C279.74 395.455 279.766 393.149 279.886 391.328C279.896 391.1 279.908 390.873 279.918 390.654C279.996 389.124 280.058 387.826 280.109 386.664C279.471 380.326 279.217 374.58 279.563 369.047C279.603 368.769 279.619 368.447 279.759 367.939C279.831 366.274 279.967 364.549 280.198 362.855C280.391 361.456 280.636 360.074 280.985 358.756C281.217 357.466 282.119 357.043 281.9 357.594C282.389 357.445 282.354 358.205 282.509 359.451C282.616 360.677 282.663 361.832 282.7 362.911C282.714 363.318 282.728 363.714 282.745 364.094C283.513 363.707 284.426 363.477 285.241 363.475C284.711 361.378 284.195 359.295 283.659 357.242C283.442 356.418 283.209 355.558 283.031 354.959C282.995 354.835 282.948 354.686 282.993 354.787C283.11 354.943 282.767 354.66 283.825 356.128C283.988 356.322 284.205 356.549 284.523 356.823C284.388 355.815 284.249 354.792 284.117 353.707C284.075 353.111 283.954 353.035 284.028 351.492C284.044 351.351 284.047 351.218 284.123 350.866C284.288 350.512 283.99 350.218 285.355 348.589C285.583 348.213 286.448 347.765 287.375 347.543C287.975 347 288.763 346.484 289.744 346.209C291.564 345.678 293.276 346.24 294.145 346.759C295.057 347.295 295.482 347.78 295.79 348.128C296.83 349.471 296.747 349.685 296.908 349.985C296.944 350.081 296.968 350.165 296.991 350.226C297.14 350.159 297.325 350.097 297.555 350.054C297.511 349.817 297.472 349.576 297.428 349.339C297.268 348.478 297.092 347.539 296.933 346.621C296.85 346.135 296.781 345.716 296.698 345.149C296.639 344.548 296.506 344.451 296.533 342.741C296.563 342.365 296.572 342.068 296.73 341.345C296.779 341.146 296.83 340.915 297.003 340.472C297.127 340.194 297.171 339.987 297.619 339.344ZM256.578 625.084C256.528 625.167 256.475 625.275 256.603 625.105C256.646 625.041 256.684 624.978 256.788 624.781C256.711 624.894 256.634 624.992 256.578 625.084ZM241.338 615.689C241.143 615.785 240.944 615.881 240.742 615.974C239.688 616.454 238.684 617.088 238.139 617.586C237.047 618.595 236.686 618.03 235.456 618.322C234.813 618.476 234.514 619.064 234.167 619.675C233.955 620.046 233.725 620.422 233.397 620.711C234.612 620.618 235.933 620.553 237.241 620.581C238.309 620.599 239.456 620.385 240.433 620.038C241.258 619.762 242.086 619.532 242.903 619.37C242.555 619.005 242.272 618.629 242.123 618.336C241.733 617.655 241.535 617.009 241.436 616.492C241.381 616.198 241.352 615.928 241.338 615.689ZM255.536 613.231C255.171 613.755 254.847 614.237 254.545 614.677C255.075 614.213 255.596 613.75 256.114 613.301C256.108 613.211 256.092 613.124 256.095 613.046C256.099 612.77 256.133 612.541 256.165 612.345C255.936 612.664 255.724 612.956 255.536 613.231ZM260.573 609.476C260.031 609.716 259.473 609.941 258.902 610.144C259.244 610.13 259.606 610.078 259.957 609.999C260.165 609.822 260.37 609.647 260.573 609.476ZM283.297 609.021C283.327 609.042 283.357 609.058 283.386 609.077C283.461 608.999 283.528 608.922 283.595 608.856C283.496 608.911 283.397 608.966 283.297 609.021ZM297.53 603.285C297.139 603.369 296.774 603.465 296.393 603.546C296.305 603.564 296.215 603.59 296.126 603.608C295.935 603.722 295.75 603.836 295.568 603.945C296.26 603.755 296.925 603.556 297.575 603.388C297.558 603.356 297.547 603.32 297.53 603.285ZM273.523 591.989C273.557 591.96 273.59 591.929 273.625 591.9L273.618 591.824C273.587 591.88 273.553 591.934 273.523 591.989ZM315.713 547.469C315.628 548.798 315.565 550.075 315.517 551.32C315.64 550.812 315.726 550.357 315.726 549.966C315.726 549.213 315.717 548.371 315.713 547.469ZM282.344 537.191C282.398 537.24 282.456 537.282 282.509 537.328C282.487 536.644 282.464 535.955 282.446 535.265C282.402 535.22 282.364 535.164 282.319 535.12C282.323 535.793 282.333 536.49 282.344 537.191ZM295.399 520.073C295.355 520.158 295.311 520.238 295.27 520.314C295.309 520.406 295.31 520.445 295.339 520.517C295.349 520.548 295.357 520.587 295.365 520.619C295.399 520.602 295.435 520.584 295.472 520.564C295.448 520.401 295.424 520.237 295.399 520.073ZM318.864 500.382C318.475 500.453 318.137 500.638 318.064 501.2C318.059 501.242 318.043 501.284 318.038 501.324C318.105 501.602 318.186 501.864 318.242 502.122C318.462 501.508 318.665 500.928 318.864 500.382ZM243.934 491.831C244.087 491.957 244.261 492.117 244.449 492.288C244.751 492.564 245.085 492.848 245.428 493.031C246.086 493.396 247.358 494.227 247.958 494.354C247.96 494.354 247.962 494.354 247.963 494.354C248.26 493.243 248.475 492.964 248.957 493.84C249.345 494.545 249.59 493.767 249.807 493.186C248.425 492.919 247.578 492.546 246.834 492.071C246.677 492.058 246.516 492.044 246.359 492.03C245.458 491.965 244.65 491.896 243.934 491.831ZM250.583 493.351C250.778 493.649 251.063 493.878 251.699 493.61C251.681 493.604 251.664 493.597 251.647 493.59C251.308 493.504 250.953 493.427 250.583 493.351ZM250.78 489.278C251.194 489.672 251.586 490.077 251.96 490.469C254.243 490.505 256.463 490.568 258.642 490.717C259.355 490.756 260.062 490.772 260.761 490.773C259.087 490.57 257.378 490.146 256.44 490.058C255.221 489.946 253.579 489.814 251.882 489.465C251.532 489.393 251.162 489.334 250.78 489.278ZM242.358 490.332C242.42 490.418 242.477 490.502 242.531 490.588C242.718 490.577 242.912 490.563 243.116 490.554C242.848 490.47 242.603 490.399 242.358 490.332ZM271.313 489.348C271.012 489.374 270.71 489.408 270.417 489.449C270.512 489.469 270.612 489.487 270.715 489.511C270.799 489.53 270.902 489.547 271.021 489.565C271.375 489.478 271.725 489.389 272.069 489.294C271.822 489.308 271.568 489.325 271.313 489.348ZM239.578 488.12C239.892 488.32 240.171 488.502 240.417 488.655C240.58 488.761 240.731 488.863 240.87 488.96C241.073 489.022 241.299 489.103 241.56 489.211C242.121 489.443 242.569 489.498 242.959 489.519C242.526 489.292 242.038 489.059 241.481 488.824C240.755 488.519 240.062 488.252 239.392 488.005C239.455 488.044 239.518 488.081 239.578 488.12ZM232.547 485.271C232.588 485.286 232.629 485.3 232.67 485.314C232.623 485.289 232.574 485.266 232.526 485.24C232.533 485.251 232.541 485.261 232.547 485.271ZM221.888 479.537C222.879 480.181 224.05 480.951 225.26 481.684C225.75 481.508 226.211 481.362 226.638 481.23C224.982 480.277 223.486 479.98 221.888 479.537ZM203.056 469.708L202.751 469.487C205.418 471.071 208.719 473.275 211.817 475.303C213.477 475.929 214.967 476.342 216.178 476.729C216.211 476.74 216.243 476.752 216.276 476.763C215.912 476.48 215.536 476.169 215.149 475.823L212.799 473.595C208.89 470.117 206.336 470.282 202.732 469.48C202.838 469.556 202.947 469.631 203.056 469.708ZM325.418 466.825C325.403 466.948 325.349 467.075 325.285 467.211C325.496 467.084 325.708 466.959 325.919 466.834C325.813 466.836 325.706 466.831 325.6 466.807C325.546 466.794 325.489 466.78 325.431 466.767C325.426 466.785 325.422 466.805 325.418 466.825ZM327.772 464.621C327.566 464.45 327.256 464.435 326.73 464.828C326.738 464.826 326.746 464.826 326.753 464.823C327.001 464.741 327.432 464.696 327.772 464.621ZM275.971 419.009C275.917 419.594 276.066 419.675 276.315 419.504C276.183 419.322 276.069 419.157 275.971 419.009ZM276.121 416.98C275.382 417.489 274.734 418.102 274.412 418.734C274.399 418.746 274.349 418.764 274.335 418.775L274.334 418.776C274.476 418.84 274.619 418.822 274.771 418.754L274.587 418.631C274.978 418.426 275.485 417.977 275.786 417.957C275.881 417.908 276.016 417.876 276.197 417.86C276.17 417.546 276.139 417.253 276.121 416.98ZM270.687 416.888C270.331 416.771 269.758 416.697 268.636 416.799C268.806 416.849 268.97 416.888 269.127 416.911C269.351 416.943 269.551 416.995 269.725 417.056C269.746 417.065 269.797 417.099 269.82 417.11C270.072 417.208 270.281 417.337 270.461 417.482C270.536 417.309 270.612 417.111 270.687 416.888ZM279.251 401.777C279.181 401.566 278.993 402.029 279.333 403.091C279.401 403.293 279.492 403.473 279.588 403.628C279.635 403.43 279.675 403.228 279.721 403.029C279.501 402.492 279.294 402.025 279.251 401.777ZM309.331 371.675C309.218 372.28 309.069 372.94 308.829 373.663C308.752 373.908 308.638 374.198 308.499 374.516C307.879 379.171 307.721 383.423 307.781 387.001C307.847 386.84 307.891 386.749 307.908 386.691C307.903 386.726 307.901 386.77 307.895 386.815C307.861 387.141 307.827 387.469 307.793 387.792C307.831 389.221 307.896 390.538 307.984 391.714C308.115 393.097 308.241 394.393 308.359 395.621C308.689 393.788 309.012 392.116 309.292 390.847C309.31 390.713 309.326 390.581 309.343 390.454C309.709 387.773 309.939 386.038 310.036 384.388C309.99 384.041 309.929 383.66 309.858 383.238C309.684 382.21 309.702 380.944 309.953 379.661C309.913 379.085 309.885 378.457 309.826 377.77C309.676 376.035 309.693 373.943 309.896 371.799C309.749 371.76 309.563 371.72 309.331 371.675ZM220.781 386.461C220.833 386.527 220.888 386.594 220.944 386.659C221.068 386.664 221.188 386.671 221.296 386.671C221.125 386.573 220.935 386.48 220.719 386.388C220.74 386.412 220.76 386.436 220.781 386.461Z" fill="#62484B"/>
<mask id="mask0_1732_1638" style="mask-type:alpha" maskUnits="userSpaceOnUse" x="0" y="0" width="559" height="498">
<path d="M558.302 310.783C567.666 511.259 432.045 529.829 329.075 416.471C124.182 579.161 -12.5979 478.623 0.919392 279.197C0.919392 91.379 46.6823 16.7938 251.57 0C459.588 11.5457 558.302 109.257 558.302 310.783Z" fill="url(#paint0_radial_1732_1638)"/>
</mask>
<g mask="url(#mask0_1732_1638)">
<path d="M558.302 310.783C567.666 511.259 432.045 529.829 329.075 416.471C124.182 579.161 -12.5979 478.623 0.919392 279.197C0.919392 91.379 46.6823 16.7938 251.57 0C459.588 11.5457 558.302 109.257 558.302 310.783Z" fill="url(#paint1_radial_1732_1638)"/>
<mask id="mask1_1732_1638" style="mask-type:alpha" maskUnits="userSpaceOnUse" x="-9" y="171" width="632" height="352">
<path d="M620.294 363.138C643.004 516.61 467.001 567.768 360.264 443.809C-41.7285 684.839 -7.63863 301.328 -7.63863 200.81C32.1039 315.917 160.416 326.734 160.416 326.734C160.416 326.734 314.844 373.955 347.773 171.297C347.773 455.615 568.061 415.279 620.294 363.138Z" fill="#9C7979"/>
</mask>
<g mask="url(#mask1_1732_1638)">
<path d="M574.23 344.639C555.373 625.166 407.665 462.24 323.343 529.194C118.451 691.884 -16.7568 478.623 -3.23948 279.197C-3.23948 91.379 42.5234 16.7938 247.411 0C455.429 11.5457 587.745 143.575 574.23 344.639Z" fill="url(#paint2_linear_1732_1638)"/>
</g>
</g>
<defs>
<radialGradient id="paint0_radial_1732_1638" cx="0" cy="0" r="1" gradientUnits="userSpaceOnUse" gradientTransform="translate(438.11 -50.8993) rotate(125.205) scale(444.826 600.672)">
<stop offset="0.279704" stop-color="#ACD266"/>
<stop offset="0.495631" stop-color="#70B333"/>
<stop offset="0.967011" stop-color="#74BC31"/>
</radialGradient>
<radialGradient id="paint1_radial_1732_1638" cx="0" cy="0" r="1" gradientUnits="userSpaceOnUse" gradientTransform="translate(438.11 -50.8993) rotate(125.205) scale(444.826 600.672)">
<stop offset="0.279704" stop-color="#ACD266"/>
<stop offset="0.495631" stop-color="#70B333"/>
<stop offset="0.967011" stop-color="#74BC31"/>
</radialGradient>
<linearGradient id="paint2_linear_1732_1638" x1="277.357" y1="0" x2="277.357" y2="508.961" gradientUnits="userSpaceOnUse">
<stop offset="0.168269" stop-color="#50991C" stop-opacity="0"/>
<stop offset="0.903846" stop-color="#107F26"/>
</linearGradient>
</defs>
</svg>
