<svg width="445" height="436" viewBox="0 0 445 436" fill="none" xmlns="http://www.w3.org/2000/svg">
<path d="M173.854 244.908C173.659 244.684 172.499 243.445 170.398 243.729C169.417 243.899 168.995 244.218 168.682 244.435C168.369 244.667 168.177 244.893 168.092 244.994C167.889 245.236 167.765 245.451 167.713 245.545C167.584 245.787 167.536 245.916 167.492 246.032C167.245 246.781 167.258 246.976 167.195 247.314C167.119 247.824 167.076 248.268 167.036 248.707C165.942 249.133 165.714 249.802 165.657 249.845C165.595 249.953 165.555 250.043 165.524 250.117C165.464 250.265 165.437 250.367 165.417 250.445C165.347 250.772 165.367 250.72 165.355 250.809C165.347 250.927 165.35 250.954 165.35 251.005C165.539 251.975 165.754 252.842 165.971 253.712L165.965 253.721C165.704 253.557 165.513 253.405 165.37 253.271C165.263 253.167 165.22 253.119 165.16 253.052C165.051 252.927 164.972 252.82 164.909 252.729C164.671 252.37 164.62 252.205 164.565 252.074C164.497 251.89 164.494 251.863 164.474 251.796C164.442 251.678 164.44 251.663 164.433 251.628C164.413 251.532 164.412 251.527 164.412 251.527C164.412 251.527 164.414 251.579 164.417 251.619C164.424 251.705 164.436 251.818 164.443 251.924C164.458 252.147 164.47 252.388 164.483 252.629C164.51 253.113 164.535 253.629 164.561 254.148C164.612 255.195 164.664 256.29 164.725 257.447C164.742 257.762 164.768 258.081 164.786 258.402C164.695 258.839 164.612 259.286 164.53 259.744C164.506 259.734 164.484 259.722 164.463 259.713C164.433 259.629 164.401 259.546 164.371 259.463C164.404 259.439 164.444 259.409 164.494 259.381C164.651 259.292 164.585 259.181 164.232 259.071C164.219 259.033 164.2 258.995 164.187 258.957C162.441 254.145 162.084 254.734 162.977 258.898C162.762 258.904 162.565 258.928 162.434 258.962C162.033 259.068 162.296 259.157 161.583 259.212C160.153 259.321 159.604 259.365 160.435 259.503C161.263 259.641 159.377 259.709 159.595 259.79C159.818 259.87 160.918 259.87 160.065 260.277C159.212 260.685 158.989 260.913 158.784 261.068C158.579 261.223 159.537 261.548 159.194 261.801C158.845 262.053 159.163 262.571 158.595 262.779C158.023 262.987 159.271 262.985 159.969 263.152C160.658 263.32 157.584 263.453 158.016 263.657C158.452 263.861 160.08 263.894 159.723 264.126C159.355 264.36 160.467 264.595 159.799 264.699C159.134 264.803 161.142 264.813 160.712 264.959C160.261 265.107 160.523 265.198 161.184 265.327C161.352 265.36 161.515 265.409 161.649 265.468C161.632 265.652 161.607 265.83 161.583 266C161.23 266.065 161.323 266.126 161.558 266.191C161.477 266.655 161.345 267.059 161.091 267.393C159.661 269.259 159.111 270.056 159.942 272.411C160.022 272.635 160.072 272.85 160.106 273.053C159.463 273.61 159.326 274.07 159.855 274.945C159.504 275.807 158.982 276.493 159.103 277.257L159.107 277.266C159.035 277.397 158.993 277.524 159.03 277.661C159.108 277.935 159.309 278.11 159.486 278.412C159.603 278.725 159.706 279.108 159.784 279.668C159.8 280.247 159.721 281.048 159.445 282.197C158.535 285.982 158.281 288.061 158.052 289.495C157.824 290.928 158.741 293.939 158.344 296.27C158.061 297.929 158.087 300.834 157.883 303.025C157.801 303.916 157.679 304.676 157.493 305.219C156.84 307.078 158.087 307.127 158.692 308.682C158.9 309.23 158.638 309.705 158.23 310.169C158.201 310.174 158.171 310.183 158.139 310.188C156.647 310.349 156.099 310.29 156.744 310.951C157.368 311.649 155.506 311.298 155.592 311.593C155.665 311.887 156.632 312.31 155.36 313.172C155.292 313.222 155.213 313.274 155.135 313.326C153.411 314.479 152.728 315.087 152.193 315.479C151.674 315.858 151.674 317.334 150.707 317.862C150.201 318.139 149.612 318.725 148.979 319.231C148.756 319.385 148.489 319.45 148.211 319.313C147.63 318.994 148.104 320.02 147.744 320.761C147.284 321.501 146.266 318.902 145.607 319.346C144.878 319.803 144.836 321.262 143.768 320.988C142.709 320.705 141.62 321.706 141.117 321.115C140.619 320.523 140.578 322.322 139.867 321.926C139.763 321.867 139.66 321.821 139.564 321.789L140.066 321.834C139.621 321.569 139.238 321.744 138.632 322.121C138.276 322.361 137.594 322.456 136.986 322.371C136.607 322.139 136.215 321.903 135.817 321.661C135.81 321.637 135.797 321.614 135.792 321.589C135.748 321.391 135.653 321.277 135.525 321.22C135.499 321.2 135.408 321.174 135.382 321.156C135.225 321.1 135.062 321.093 134.9 321.106C132.365 319.58 129.505 317.92 126.418 316.42C125.326 315.888 124.218 315.272 123.112 314.604C119.02 312.127 114.704 309.065 110.386 306.979C108.931 306.274 107.345 305.456 105.701 304.577C100.967 302.072 96.0524 299.575 93.4258 298.162C92.1359 297.482 91.2184 296.956 90.4785 296.447C89.1401 295.506 88.204 294.642 86.7578 292.808C85.4695 291.141 83.4313 289.122 81.6787 287.334C80.9278 286.413 80.3128 286.637 80.6436 288.03C81.195 289.92 82.4221 290.995 82.4629 292.143C82.5907 294.424 82.8185 295.461 85.2715 296.752C86.6436 297.459 87.1228 298.347 87.5215 299.172C87.8697 299.852 88.1603 300.461 88.7666 300.814C90.1455 301.575 90.7863 300.908 96.4756 305.669C98.3655 307.242 99.9988 308.547 101.334 309.642C104.157 311.945 106.25 313.403 107.798 314.5C109.972 316.044 114.974 318.124 118.704 320.497C118.985 320.676 119.269 320.86 119.545 321.047C120.487 321.692 121.703 322.44 123.045 323.235C122.894 323.518 122.776 324.017 122.518 324.364C122.057 324.978 121.694 322.26 121.134 322.631C120.572 323.017 120.484 324.467 119.842 324.146C119.198 323.819 118.551 324.81 118.264 324.214C117.978 323.622 117.946 325.417 117.541 325.023C117.134 324.623 116.887 324.858 116.531 325.442L116.516 325.461C116.396 324.612 116.585 323.378 115.686 323.095C114.315 322.673 113.193 323.74 112.134 322.672C111.061 321.598 109.132 321.653 108.915 320.819C108.688 319.982 107.531 321.461 106.941 320.66C106.343 319.859 105.677 319.785 104.604 319.905C103.725 319.999 101.876 319.554 100.96 318.85C100.935 318.834 100.858 318.813 100.832 318.8C100.601 318.659 100.413 318.497 100.294 318.317C99.6293 317.333 98.1105 318.224 97.4131 318.358C97.1922 318.397 97.0008 318.485 96.8447 318.581C96.7791 318.622 96.7165 318.727 96.6807 318.836C96.6364 318.974 96.6284 319.121 96.6855 319.154C96.9632 319.317 97.357 319.658 97.7061 320.297C98.3048 321.433 98.7618 320.576 99.7402 321.279L99.5713 321.211C99.6132 321.249 99.6564 321.294 99.6992 321.339C100.664 322.358 100.817 323.568 102.569 323.736C104.336 323.931 103.039 326.368 105.854 326.184C108.709 326.046 107.124 328.5 108.669 329.96C110.212 331.422 113.539 331.776 114.542 332.663C114.615 332.728 114.688 332.795 114.763 332.863C116.592 334.282 118.491 335.145 120.621 335.384C122.867 335.61 125.239 337.015 127.674 336.707C128.725 336.577 129.937 336.404 131.098 336.221C131.33 336.597 131.516 336.963 131.871 337.008C132.686 337.149 133.245 336.139 136.587 338.687C138.219 339.976 139.448 341.01 140.426 341.826C140.589 341.986 140.723 342.152 140.856 342.304C142.33 344.936 143.639 347.302 144.336 348.887C145.764 352.123 146.74 352.586 148.262 353.938C148.873 355.281 149.367 356.548 149.462 357.404C149.553 358.13 149.759 358.546 150.046 358.842C150.456 359.265 151.035 359.447 151.665 359.947C151.598 360.026 151.518 360.103 151.404 360.17C150.023 361.011 149.496 361.375 150.399 362.286C151.303 363.185 149.461 363.763 149.723 364.302C149.99 364.84 151.094 364.765 150.491 367.632C150.395 368.097 150.311 368.52 150.24 368.929C149.867 370.99 149.802 372.248 149.713 373.146C149.608 374.226 150.78 376.372 150.6 378.133C150.417 379.891 151.073 383.389 150.641 384.853C150.207 386.315 151.454 386.224 152.26 387.318C153.065 388.41 150.081 389.549 150.646 390.912C151.214 392.275 152.862 392.366 152.649 393.992C152.436 395.618 153.699 397.133 153.101 397.9C152.499 398.66 154.524 398.581 154.172 399.63C154.039 400.009 154.004 400.352 154.044 400.64C154.115 401.155 154.415 401.581 154.879 402.101C155.138 402.396 155.402 402.919 155.606 403.516C155.083 404.666 154.869 405.434 154.5 406.177C153.585 408.159 153.098 410.353 152.747 412.428C152.684 412.474 152.653 412.514 152.686 412.564C152.693 412.575 152.711 412.577 152.721 412.587C152.552 413.567 152.412 414.518 152.255 415.403C151.889 415.817 151.681 415.976 151.501 416.113C151.407 416.181 151.414 416.308 151.409 416.527C151.533 416.735 151.472 417.507 150.958 417.811C150.775 417.922 150.589 418.091 150.399 418.283C149.857 418.832 149.144 419.644 148.441 419.73C147.625 419.825 148.235 420.456 148.391 421.19C148.409 421.277 148.424 421.367 148.426 421.455C148.421 422.306 145.989 420.577 145.71 421.291C145.496 421.826 145.945 422.618 145.822 423.093C145.263 422.898 145.136 423.227 144.987 423.675C144.82 423.809 144.689 423.976 144.572 424.139C144.427 424.343 144.285 424.524 144.126 424.612C143.54 424.267 142.765 422.784 142.173 423.161C141.401 423.658 141.499 425.112 140.461 424.912C139.428 424.71 138.568 425.803 138.042 425.258C137.52 424.714 137.71 426.504 137.022 426.173C136.337 425.839 135.978 426.112 135.489 426.746C135.001 427.383 133.328 428.037 132.619 427.374C131.913 426.716 131.328 428.017 130.928 428.352C130.804 428.455 130.713 428.593 130.646 428.729C130.618 428.788 130.614 428.907 130.626 429.021C130.642 429.163 130.682 429.302 130.729 429.316C130.953 429.386 131.303 429.588 131.738 430.071C132.552 430.974 132.511 429.903 133.521 430.312C134.534 430.724 135.232 431.666 136.289 430.918C137.339 430.173 137.946 432.818 139.359 431.132C139.611 430.827 139.836 430.669 140.046 430.613C140.439 430.92 140.614 430.909 140.779 430.813C141.402 431.271 142.024 432.28 143.039 432.374C144.758 432.529 146.546 430.666 147.55 430.613C147.747 430.604 147.962 430.598 148.186 430.591C148.839 430.57 149.587 430.522 150.333 430.312C150.525 430.366 150.705 430.403 150.871 430.44C151.131 430.501 151.365 430.598 151.542 430.913C152.251 432.175 152.558 432.661 153.438 431.91C154.313 431.16 154.795 432.821 155.33 432.61C155.686 432.466 155.777 431.978 156.642 431.855C157.064 431.794 157.674 431.823 158.62 431.987C160.901 432.366 162.442 432.352 163.904 432.097C164.033 432.106 164.197 432.109 164.361 432.11C164.755 432.111 165.433 431.772 166.227 431.459C166.935 431.177 167.745 430.915 168.507 430.932C169.394 430.951 170.752 430.71 171.967 430.567C172.906 430.458 173.799 430.425 174.371 430.595C175.032 430.79 175.321 430.595 175.585 430.259C176.393 430.245 177.191 430.233 177.974 430.204C178.097 430.199 178.22 430.191 178.343 430.186C178.622 430.44 178.947 430.65 179.357 430.699C179.459 430.729 179.556 430.722 179.655 430.668C179.912 430.538 180.126 430.31 180.337 430.067C180.546 430.051 180.759 430.038 180.972 430.018C181.483 429.967 181.998 429.903 182.597 429.794C182.909 429.734 183.217 429.674 183.643 429.544C183.941 429.404 184.218 429.419 184.785 429.053C185.197 429.009 185.547 429.031 185.765 429.262C186.363 429.892 186.571 428.099 187.466 428.557C188.359 429.016 188.942 428.824 189.809 428.298C190.469 427.897 192.111 427.62 193.227 427.856C193.576 427.931 193.876 428.055 194.072 428.243C194.348 428.505 194.648 428.548 194.954 428.488C196.564 429.413 198.198 430.327 199.852 431.164C200.237 431.703 200.507 431.928 201.106 431.778C201.681 432.052 202.257 432.317 202.837 432.565C203.468 432.836 204.129 433.117 204.805 433.406C205.757 433.811 206.652 434.207 207.88 434.689C208.048 434.754 208.214 434.82 208.485 434.913C208.633 434.962 208.775 435.014 209.131 435.1C209.358 435.134 209.436 435.226 210.351 435.208C210.591 435.191 210.835 435.164 211.232 435.049C211.711 434.91 212.341 434.596 212.801 434.085C212.958 434.099 213.116 434.114 213.273 434.134C214.095 434.258 214.89 434.324 215.576 434.47C217.304 434.846 220.52 434.71 221.768 435.083C221.773 435.084 221.778 435.086 221.783 435.088C223.057 435.455 223.094 434.78 224.157 434.452C225.223 434.125 225.965 435.834 227.253 435.662C228.541 435.491 228.778 434.617 230.23 434.891C231.221 435.077 232.232 434.891 232.975 434.878C233.261 434.878 233.547 434.926 233.75 435.055C234.419 435.472 234.567 434.381 235.502 434.662C235.759 434.738 235.988 434.782 236.204 434.8C236.776 434.846 237.24 434.706 237.835 434.452C238.656 434.105 241.146 433.808 242.052 434.248C242.957 434.689 243.99 433.926 244.611 433.745C244.805 433.689 244.957 433.612 245.074 433.532C245.124 433.498 245.146 433.427 245.146 433.356C245.146 433.269 245.111 433.183 245.048 433.172C244.74 433.118 244.278 432.976 243.733 432.659C242.719 432.068 242.607 432.721 241.238 432.415C239.869 432.107 239.052 431.499 237.447 431.873C236.973 431.983 236.606 431.914 236.276 431.785C235.501 431.488 235.034 430.926 233.574 431.289C233.478 431.254 233.383 431.221 233.291 431.187C233.286 431.187 233.274 431.185 233.27 431.186C232.358 430.837 231.647 430.446 230.451 430.714C230.374 430.73 230.301 430.74 230.23 430.745C229.833 430.498 229.374 430.258 228.74 430.132C228.414 429.914 228.068 429.747 227.57 429.858C227.456 429.854 227.335 429.855 227.209 429.863C224.908 430.048 225.33 428.413 223.656 427.473C223.003 427.1 222.206 426.838 221.404 426.61C220.489 426.349 219.582 426.142 218.896 425.905C218.588 425.325 218.582 425.41 218.47 425.244C218.289 425.022 218.143 424.859 217.992 424.689C217.7 424.364 217.408 424.044 217.137 423.729C216.592 423.099 216.097 422.462 215.712 421.814C215.552 421.544 215.357 421.241 215.133 420.913C213.511 418.537 210.572 415.096 209.776 413.306C208.874 411.278 207.849 411.906 206.168 410.858C204.487 409.812 206.128 407.131 204.405 405.64C204.201 405.464 204 405.316 203.801 405.189C203.235 403.335 202.78 401.891 202.376 400.462C202.48 399.72 202.645 398.867 202.949 397.864C203.595 395.749 204.368 393.95 205.062 392.218C206.251 388.456 206.814 387.171 207.695 383.229C207.744 383.021 207.8 382.827 207.865 382.632C208.137 381.862 208.492 381.223 208.9 380.667C209.01 380.572 209.134 380.473 209.254 380.361C209.389 380.243 209.532 380.121 209.674 379.998C210.302 379.451 210.875 378.886 211.406 378.319C212.502 377.508 213.702 376.699 214.861 375.534C215.509 374.931 216.22 374.119 216.906 373.064C217.251 372.534 217.595 371.939 217.937 371.249C218.108 370.904 218.278 370.534 218.464 370.111C218.559 369.896 218.653 369.674 218.787 369.379C218.855 369.228 218.934 369.063 219.084 368.756C219.203 368.463 219.225 368.684 219.71 367.223C219.795 366.89 219.912 366.457 219.904 365.644C219.867 365.159 219.939 364.966 219.551 363.819C219.516 363.702 219.464 363.581 219.407 363.455C221.187 360.709 223.537 357.401 225.455 354.588C225.712 354.476 225.983 354.361 226.255 354.229C229.831 352.493 233.542 349.79 236.623 347.59C238.502 346.245 240.137 345.097 241.41 344.438C244.817 342.673 249.426 340.468 253.957 337.617C254.181 337.476 254.415 337.33 254.649 337.189C254.7 337.158 254.84 337.085 254.885 337.053C259.405 333.943 264.992 330.579 268.872 326.748C268.98 326.642 269.092 326.536 269.2 326.43C271.438 324.337 273.898 321.446 275.791 319.855C276.617 319.219 277.351 318.61 278.031 318.058C279.979 317.625 282.025 317.237 284.351 316.729C284.645 316.665 284.957 316.598 285.258 316.529C290.916 315.233 298.174 315.176 304.432 313.868C306.208 313.496 308.201 313.104 310.239 312.735C315.393 311.797 320.91 311.015 323.918 310.51C328.118 309.809 329.155 309.661 333.241 309.933C334.18 309.997 335.275 310.001 336.403 309.933C338.105 309.83 339.917 309.56 341.545 309.108C342.905 308.733 342.596 308.228 341.206 307.999C339.177 307.667 337.515 307.924 336.465 307.303C336.429 307.282 336.393 307.259 336.357 307.239C334.334 306.044 333.406 305.595 330.822 306.37C328.197 307.162 326.896 305.527 325.354 305.765C323.809 306.022 323.887 306.94 315.974 306.588C313.543 306.491 311.44 306.459 309.608 306.461C305.467 306.47 302.735 306.64 300.654 306.743C299.805 306.784 298.714 306.952 297.477 307.171C298.487 305.743 299.119 304.037 299.891 303.453C300.09 303.302 300.312 303.14 300.536 302.98L300.342 303.148C301.513 302.4 302.887 301.46 303.894 300.118C305.12 298.485 307.737 297.35 308.737 295.228C309.55 293.507 310.594 291.184 310.967 289.399C311.045 289.013 311.091 288.667 311.11 288.381C311.182 286.807 311.143 286.494 311.899 285.232C312.322 284.507 312.313 283.316 311.521 282.393C311.118 281.931 310.548 282.068 310.26 282.457C309.834 283.028 310.016 283.539 309.26 283.739C307.737 284.12 307.175 284.156 307.773 285.019C308.34 285.917 306.424 285.679 306.472 286.078C306.497 286.379 307.047 286.682 306.656 287.389C306.513 287.64 306.206 287.964 305.636 288.349C303.563 289.717 302.428 290.543 301.648 291.092C300.868 291.631 300.194 293.591 298.799 294.427C297.656 295.12 295.967 296.813 294.647 297.544C294.598 297.571 294.488 297.687 294.438 297.721C294.157 297.909 293.889 298.065 293.653 298.162C292.239 298.748 293.151 299.511 292.885 300.674C292.622 301.834 289.753 300.561 289.138 301.711C288.53 302.859 289.576 303.986 288.241 304.773C286.903 305.557 286.619 307.248 285.652 307.28C284.691 307.308 286.087 308.608 285.078 308.959C284.854 309.037 284.673 309.13 284.52 309.228C283.982 309.297 283.417 309.369 282.834 309.455C279.583 309.917 275.15 310.791 272.075 311.716C271.981 311.737 271.718 311.843 271.624 311.875C269.998 312.485 268.56 313.055 267.529 313.39C263.666 314.666 264.308 315.644 261.855 317.58C259.916 319.123 257.171 318.631 254.526 319.405C253.907 319.57 253.236 319.844 252.584 320.256C249.41 322.27 249.695 323.792 245.629 325.424C241.562 327.055 238.202 329.841 236.142 330.174C234.091 330.5 234.88 332.173 232.205 333.031C229.526 333.89 228.16 334.828 226.326 336.398C224.947 337.58 221.014 339.958 217.959 341.3C217.41 341.458 216.887 341.641 216.402 341.832C215.703 341.758 215.106 341.643 214.641 341.357C212.513 340.06 211.61 339.564 208.885 340.252C206.159 340.936 204.917 339.225 203.339 339.378C202.389 339.471 201.997 339.872 200.09 339.956C199.039 339.997 197.118 339.934 195.451 338.764C194 337.72 193.268 335.952 191.607 334C191.144 333.347 190.573 331.534 190.023 330.206C189.807 329.641 189.625 329.116 189.47 328.627C188.939 327.072 187.649 324.256 186.692 321.261C186.873 320.362 187.064 319.578 187.415 319.1C188.322 317.838 189.739 316.288 190.7 314.341C190.738 314.265 190.781 314.188 190.823 314.113C191.882 312.241 194.338 310.755 195.431 308.636C196.346 306.84 197.784 304.526 198.804 302.958C198.895 302.816 198.981 302.678 199.064 302.548C199.184 302.444 199.303 302.343 199.418 302.243C199.499 302.198 199.587 302.154 199.67 302.106L199.588 302.144C200.26 301.778 201.002 301.309 201.807 300.715C202.704 300.055 203.514 299.57 204.262 299.199C204.833 299.108 205.425 298.861 205.994 298.504C208.904 297.622 211.255 298.264 215.778 296.665C220.498 295.002 225.633 292.039 229.54 290.041C230.968 289.312 232.21 288.723 233.235 288.357C234.814 287.792 236.144 287.367 238.392 286.638C241.111 285.654 244.419 284.595 247.745 283.053C248.394 282.752 249.075 282.453 249.77 282.156C253.976 280.326 259.281 278.836 263.85 275.687C264.474 275.241 265.127 274.765 265.751 274.271C268.945 271.808 272.929 268.374 275.756 265.268C277.383 263.502 278.792 261.924 279.753 260.791C282.347 257.72 282.988 256.979 286.145 254.604C287.423 253.623 288.855 252.281 290.009 250.604C290.449 249.914 290.842 249.193 291.105 248.438C291.347 247.797 291.118 247.41 290.875 247.506C290.665 247.478 290.372 247.644 289.881 248.061C289.323 248.534 288.825 249.015 288.374 249.444C287.714 250.047 287.049 250.57 286.309 250.714C283.855 251.175 282.851 251.392 281.608 253.566C280.35 255.747 278.132 255.342 277.195 256.437C276.313 257.463 276.981 258.144 271.937 261.778C271.614 262.009 271.263 262.247 270.892 262.492C264.982 266.361 261.461 267.982 258.826 269.48C258.757 269.517 258.685 269.554 258.616 269.59C256.528 270.772 251.704 273.901 247.12 275.391C246.889 275.468 246.646 275.556 246.393 275.646C244.959 276.166 243.157 276.795 241.221 277.479C241.148 277.098 242.554 277.16 242.431 276.901C242.293 276.605 241.193 276.308 242.492 275.195C243.313 274.526 243.839 274.114 244.209 273.821C244.429 273.646 244.606 273.496 244.768 273.375C245.179 273.064 244.999 271.71 245.875 271.174C246.71 270.655 247.785 269.048 248.796 268.799C249.788 268.553 248.858 267.823 248.816 266.933C248.784 266.042 251.461 267.49 251.753 266.619C252.04 265.761 250.97 264.748 251.835 264.198C251.927 264.143 252.067 263.871 252.148 263.808C252.165 263.794 252.185 263.78 252.204 263.767C253.025 263.191 252.633 261.872 253.444 261.828C254.257 261.781 252.55 260.811 253.275 260.514C254 260.213 253.979 259.776 253.696 259.039C253.609 258.809 253.59 258.494 253.629 258.166C253.651 258.145 253.677 258.063 253.696 258.043C253.748 257.234 253.939 256.364 254.598 256.091C255.56 255.679 254.358 254.734 254.126 254.299C254.054 254.161 253.94 254.039 253.813 253.939C253.759 253.898 253.631 253.86 253.506 253.835C253.352 253.805 253.197 253.798 253.163 253.83C253.02 253.998 252.689 254.229 252.035 254.435C250.817 254.8 251.97 255.133 251.189 255.75C250.701 256.117 250.042 256.252 249.703 256.482L249.837 256.25C249.573 256.437 249.41 256.706 249.437 257.151C249.499 258.331 246.772 257.137 247.428 259.112C247.842 260.4 246.823 260.294 245.711 260.363L246.074 259.913C245.502 259.829 244.9 259.774 244.439 260.036C243.141 260.775 243.033 263.189 242.276 263.78C241.513 264.366 240.329 265.104 239.75 266.4C239.405 267.187 238.505 267.845 237.828 268.66C237.866 268.522 237.896 268.379 237.914 268.233C237.966 267.804 237.668 267.684 237.326 267.88C236.826 268.165 236.658 268.595 236.184 268.561C235.237 268.489 234.867 268.468 234.758 269.287C234.646 270.107 233.656 269.68 233.479 270.06C233.3 270.438 233.762 270.844 232.029 272.058C231.509 272.42 231.066 272.738 230.686 273.021C229.869 273.599 229.366 273.906 228.923 274.169C228.613 274.352 228.191 274.805 227.676 275.358C227.319 275.781 226.825 276.237 226.278 276.488C225.973 276.636 225.593 276.847 225.173 277.089C224.785 277.256 224.446 277.411 224.143 277.552C223.757 277.729 223.438 277.874 223.144 278.007C222.785 278.168 222.391 278.52 221.956 278.936C221.891 278.97 221.831 279.003 221.772 279.029C221.194 279.296 221.042 279.556 220.977 279.858C220.444 280.335 219.859 280.786 219.213 281.051C217.552 281.741 214.731 283.823 213.154 284.163C211.587 284.506 212.281 285.419 211.647 286.574C211.352 287.107 210.669 287.039 209.767 287.057L209.885 286.975C209.02 286.811 208.071 286.534 207.608 287.079C207.27 287.475 207.179 287.922 207.094 288.349C206.985 288.412 206.876 288.474 206.77 288.537C205.662 289.158 204.816 289.864 204.209 290.167C203.952 290.296 203.679 290.434 203.396 290.585C202.292 291.193 201.413 291.711 200.714 292.046C200.679 292.063 200.643 292.078 200.607 292.092C199.044 292.574 197.069 292.309 195.348 292.792C194.98 292.896 194.578 293.001 194.16 293.102C193.837 293.177 193.506 293.254 193.175 293.33C193.039 292.969 192.87 292.64 192.524 292.397L192.761 292.611C192.416 292.29 192.123 292.145 191.751 292.021C190.331 291.609 191.27 290.045 190.162 289.477C189.984 288.105 189.651 286.519 189.803 285.582C189.908 284.969 189.697 284.648 189.347 284.408C189.171 284.289 188.955 284.188 188.717 284.059C188.599 283.998 188.469 283.918 188.327 283.817C188.301 283.797 188.281 283.771 188.255 283.749C188.281 282.02 188.26 280.494 188.163 279.29C188.155 279.139 188.146 278.988 188.138 278.844C188.075 277.832 188.024 276.973 187.983 276.205C188.498 272.013 188.704 268.213 188.425 264.554C188.393 264.37 188.379 264.157 188.266 263.821C188.207 262.72 188.098 261.579 187.912 260.459C187.756 259.533 187.558 258.619 187.276 257.747C187.089 256.894 186.361 256.614 186.538 256.979C186.143 256.88 186.171 257.383 186.046 258.207C185.959 259.018 185.922 259.782 185.893 260.495C185.881 260.764 185.87 261.026 185.856 261.277C185.236 261.022 184.5 260.87 183.843 260.868C184.27 259.482 184.686 258.103 185.118 256.746C185.293 256.201 185.482 255.632 185.626 255.235C185.655 255.153 185.692 255.055 185.656 255.122C185.561 255.225 185.838 255.038 184.985 256.009C184.853 256.137 184.678 256.287 184.422 256.469C184.531 255.802 184.644 255.126 184.75 254.408C184.784 254.014 184.881 253.963 184.821 252.942C184.808 252.849 184.805 252.761 184.744 252.528C184.611 252.294 184.851 252.099 183.75 251.022C183.566 250.774 182.867 250.478 182.12 250.331C181.635 249.972 181 249.63 180.208 249.448C178.739 249.097 177.357 249.469 176.656 249.812C175.921 250.167 175.577 250.488 175.329 250.718C174.489 251.606 174.557 251.747 174.427 251.946C174.397 252.01 174.378 252.065 174.36 252.105C174.24 252.061 174.09 252.021 173.904 251.992C173.94 251.836 173.971 251.676 174.007 251.519C174.136 250.949 174.278 250.329 174.406 249.722C174.474 249.4 174.529 249.123 174.597 248.748C174.644 248.351 174.751 248.286 174.729 247.155C174.705 246.907 174.697 246.71 174.57 246.231C174.531 246.1 174.491 245.947 174.351 245.654C174.251 245.471 174.215 245.333 173.854 244.908ZM206.973 433.894C207.013 433.949 207.056 434.02 206.952 433.907C206.917 433.865 206.887 433.824 206.804 433.693C206.866 433.768 206.927 433.833 206.973 433.894ZM218.395 430.075C218.5 430.083 218.594 430.11 218.679 430.151C218.447 430.144 218.214 430.14 217.979 430.14C218.005 430.118 218.031 430.095 218.056 430.073C218.16 430.067 218.272 430.066 218.395 430.075ZM207.734 426.357C207.859 426.407 208.007 426.445 208.169 426.479C208.325 426.665 208.473 426.841 208.613 427.01C208.297 426.783 207.985 426.557 207.675 426.334C207.695 426.342 207.715 426.35 207.734 426.357ZM185.411 423.27C185.387 423.283 185.362 423.294 185.339 423.307C185.279 423.255 185.224 423.204 185.17 423.161C185.25 423.197 185.331 423.233 185.411 423.27ZM174.842 419.648C174.913 419.66 174.986 419.677 175.058 419.689C175.212 419.765 175.362 419.84 175.509 419.912C174.95 419.786 174.413 419.655 173.889 419.544C173.902 419.523 173.911 419.498 173.925 419.476C174.24 419.531 174.535 419.595 174.842 419.648ZM193.299 412.005C193.271 411.986 193.245 411.964 193.217 411.945L193.222 411.896C193.247 411.932 193.274 411.968 193.299 412.005ZM159.247 383.191C159.264 383.235 159.283 383.277 159.305 383.32C159.347 383.93 159.383 384.524 159.41 385.107C159.311 384.771 159.24 384.469 159.24 384.211C159.24 383.893 159.244 383.552 159.247 383.191ZM186.18 375.762C186.136 375.794 186.089 375.822 186.046 375.853C186.048 375.813 186.049 375.772 186.051 375.732C186.093 375.72 186.136 375.708 186.181 375.697C186.18 375.719 186.18 375.74 186.18 375.762ZM186.195 374.769C186.195 374.811 186.194 374.854 186.193 374.897C186.162 374.894 186.125 374.888 186.083 374.878C186.086 374.803 186.089 374.728 186.092 374.652C186.126 374.693 186.162 374.732 186.195 374.769ZM214.646 348.482C214.749 348.43 214.762 348.443 214.759 348.455C214.759 348.455 214.715 348.467 214.671 348.478L214.646 348.482ZM220.915 345.351C220.726 345.596 220.484 345.86 220.171 346.144C219.542 346.714 218.601 347.369 217.214 348.141C216.739 347.831 216.252 347.697 216.04 347.677C215.852 347.649 215.7 347.639 215.576 347.636C216.03 347.254 216.431 346.947 216.781 346.746C216.927 346.662 217.076 346.578 217.228 346.498C218.027 346.078 219.021 345.735 220.139 345.521C220.392 345.472 220.652 345.415 220.915 345.351ZM211.045 344.568C210.527 344.684 210.097 344.786 209.731 344.876C208.228 344.902 206.757 344.943 205.308 345.024C204.784 345.048 204.263 345.059 203.748 345.062C204.152 344.987 204.505 344.927 204.778 344.909C205.763 344.847 207.089 344.788 208.461 344.524C209.377 344.349 210.455 344.3 211.516 344.179C211.354 344.307 211.198 344.439 211.045 344.568ZM248.169 332.122C246.136 333.182 243.894 334.407 241.851 335.491C242.351 335.176 242.813 334.879 243.206 334.602C243.349 334.5 243.485 334.403 243.61 334.313C245.284 333.145 245.875 332.77 247.464 332.293C247.647 332.242 247.847 332.192 248.065 332.146C248.1 332.138 248.134 332.13 248.169 332.122ZM149.322 327.996C149.484 327.716 149.754 327.48 150.491 327.985C150.906 328.27 151.254 328.485 151.548 328.646L151.086 328.608C150.713 328.823 150.579 328.876 150.507 328.978C150.505 328.978 150.504 328.98 150.502 328.98C150.505 328.982 150.508 328.984 150.512 328.985C150.659 328.946 151.314 328.754 151.419 329.223C151.431 329.304 151.476 329.388 151.527 329.478C151.19 329.311 150.851 329.147 150.512 328.985C150.479 328.994 150.472 328.996 150.502 328.98C150.491 328.975 150.48 328.969 150.469 328.964C150.544 328.931 150.62 328.88 150.69 328.806C150.779 328.71 150.758 328.577 150.67 328.514C150.541 328.42 150.433 328.48 150.368 328.313C150.241 327.98 150.187 327.851 150.016 328.04C149.842 328.227 149.777 327.788 149.678 327.834C149.6 327.872 149.577 328.042 149.322 327.996ZM191.159 296.666C191.313 296.682 191.481 296.705 191.665 296.733C191.626 296.779 191.593 296.854 191.568 296.965C191.504 296.895 191.366 296.854 191.141 296.838C191.147 296.78 191.153 296.722 191.159 296.666ZM188.676 286.201C188.732 286.062 188.885 286.368 188.609 287.07C188.555 287.204 188.482 287.322 188.404 287.425C188.367 287.294 188.333 287.161 188.296 287.029C188.473 286.674 188.641 286.365 188.676 286.201ZM237.387 275.455C237.748 276.489 237.843 276.701 237.29 277.511C237.058 277.852 237.048 278.363 237.377 278.862C237.221 278.918 237.066 278.974 236.91 279.03C236.876 278.917 236.842 278.805 236.808 278.698C236.731 278.463 236.65 278.245 236.567 278.07C236.3 277.488 236.219 277.379 236.73 277.352C236.995 277.357 237.163 276.852 236.424 276.278C236.128 276.157 235.737 276.21 235.444 276.21C235.72 276.082 236.053 275.965 236.49 275.842C236.786 275.757 237.089 275.619 237.382 275.432L237.387 275.455ZM165.633 273.911C165.642 274.171 165.65 274.428 165.654 274.681C165.599 274.61 165.544 274.533 165.498 274.442C165.4 274.243 165.479 274.073 165.633 273.911ZM237.092 269.992C237.058 270.12 237.032 270.253 237.018 270.391C237.008 270.494 237.001 270.602 236.992 270.709C236.917 271.498 236.929 272.345 236.987 273.125C236.691 273.204 236.409 273.234 236.06 273.053C235.719 272.879 235.426 272.733 235.17 272.627C235.232 272.503 235.288 272.387 235.337 272.282C235.838 271.199 235.959 270.943 236.832 270.241C236.921 270.17 237.006 270.084 237.092 269.992Z" fill="#493638"/>
<path d="M337.38 246.909C337.38 291.854 194.498 276.02 128.668 278.667C62.8379 281.313 8.22878 293.884 0 245.585C0 200.64 27.397 105.984 121.182 105.984C214.966 105.984 337.38 201.964 337.38 246.909Z" fill="url(#paint0_linear_1732_1604)"/>
<path d="M444.562 120.538C444.562 198.735 356.375 298.845 293.537 304.8C245.737 301.523 229.12 253.524 178.251 217.134C138.603 188.772 93.0582 182.399 80.3366 160.565C66.8762 123.514 98.9609 -4.51158 178.249 0.122635C257.536 4.75685 444.562 42.3407 444.562 120.538Z" fill="url(#paint1_linear_1732_1604)"/>
<path d="M249.191 142.367C241.71 172.14 201.314 163.539 160.17 160.893C140.581 160.893 142.344 168.832 142.344 195.959C134.116 191.255 89.1085 184.711 80.8747 160.893C71.148 140.382 82.496 77.5311 103.441 47.7578C98.204 81.5009 237.97 93.4064 249.191 142.367Z" fill="#527937"/>
<defs>
<linearGradient id="paint0_linear_1732_1604" x1="154.851" y1="142.914" x2="165.989" y2="282.102" gradientUnits="userSpaceOnUse">
<stop stop-color="#BDBC51"/>
<stop offset="1" stop-color="#7A9E36"/>
</linearGradient>
<linearGradient id="paint1_linear_1732_1604" x1="118.403" y1="279.869" x2="392.96" y2="103.273" gradientUnits="userSpaceOnUse">
<stop offset="0.36421" stop-color="#7A9E36"/>
<stop offset="1" stop-color="#BDBC51"/>
</linearGradient>
</defs>
</svg>
