<svg width="378" height="351" viewBox="0 0 378 351" fill="none" xmlns="http://www.w3.org/2000/svg">
<path d="M192.457 182.544C192.609 182.346 193.51 181.258 195.144 181.508C195.906 181.657 196.235 181.938 196.479 182.128C196.722 182.333 196.871 182.531 196.938 182.62C197.095 182.833 197.192 183.022 197.232 183.104C197.333 183.317 197.369 183.43 197.403 183.532C197.596 184.191 197.586 184.363 197.635 184.66C197.694 185.108 197.728 185.499 197.759 185.885C198.609 186.259 198.787 186.848 198.831 186.885C198.879 186.98 198.911 187.06 198.935 187.125C198.981 187.255 199.003 187.344 199.019 187.413C199.073 187.7 199.057 187.655 199.065 187.732C199.072 187.837 199.07 187.86 199.07 187.905C198.923 188.758 198.756 189.52 198.588 190.285L198.592 190.293C198.795 190.149 198.943 190.015 199.054 189.897C199.137 189.806 199.171 189.764 199.218 189.705C199.303 189.596 199.364 189.501 199.413 189.421C199.598 189.106 199.637 188.96 199.68 188.845C199.733 188.683 199.736 188.66 199.752 188.601C199.777 188.497 199.777 188.484 199.783 188.453C199.797 188.377 199.8 188.367 199.8 188.365C199.8 188.369 199.797 188.411 199.795 188.445C199.789 188.521 199.781 188.62 199.775 188.713C199.764 188.909 199.754 189.121 199.743 189.333C199.722 189.759 199.703 190.212 199.684 190.669C199.644 191.589 199.604 192.553 199.557 193.57C199.543 193.847 199.523 194.127 199.509 194.41C199.58 194.795 199.644 195.188 199.708 195.591C199.727 195.582 199.744 195.571 199.76 195.562C199.783 195.489 199.808 195.416 199.831 195.343C199.806 195.322 199.774 195.295 199.735 195.271C199.614 195.192 199.665 195.094 199.938 194.998C199.949 194.965 199.964 194.932 199.975 194.898C201.332 190.667 201.609 191.185 200.915 194.847C201.082 194.852 201.236 194.872 201.338 194.902C201.649 194.996 201.446 195.074 202 195.122C203.111 195.218 203.538 195.256 202.893 195.378C202.249 195.499 203.712 195.559 203.546 195.63C203.373 195.7 202.516 195.7 203.18 196.059C203.844 196.417 204.016 196.618 204.176 196.755C204.335 196.891 203.591 197.176 203.857 197.398C204.128 197.621 203.882 198.076 204.323 198.259C204.767 198.441 203.798 198.44 203.255 198.587C202.72 198.734 205.107 198.852 204.774 199.031C204.435 199.21 203.168 199.239 203.446 199.443C203.731 199.649 202.868 199.856 203.387 199.947C203.904 200.038 202.343 200.046 202.678 200.175C203.028 200.305 202.823 200.385 202.311 200.499C202.18 200.528 202.053 200.571 201.948 200.623C201.962 200.785 201.981 200.942 202 201.092C202.274 201.149 202.201 201.202 202.02 201.26C202.082 201.667 202.185 202.022 202.383 202.315C203.495 203.957 203.922 204.658 203.275 206.729C203.214 206.926 203.174 207.115 203.147 207.293C203.648 207.783 203.754 208.188 203.343 208.957C203.616 209.715 204.022 210.318 203.929 210.989L203.925 210.997C203.981 211.113 204.014 211.225 203.984 211.346C203.924 211.587 203.767 211.741 203.63 212.006C203.539 212.281 203.459 212.618 203.398 213.109C203.386 213.619 203.447 214.323 203.662 215.334C204.37 218.662 204.568 220.49 204.746 221.751C204.923 223.011 204.21 225.659 204.519 227.708C204.739 229.167 204.719 231.722 204.878 233.649C204.942 234.433 205.036 235.101 205.181 235.578C205.688 237.212 204.719 237.256 204.248 238.622C204.086 239.104 204.289 239.523 204.606 239.931C204.629 239.935 204.653 239.943 204.679 239.946C205.839 240.088 206.265 240.038 205.763 240.619C205.279 241.232 206.725 240.923 206.659 241.183C206.602 241.441 205.85 241.813 206.839 242.571C206.892 242.615 206.954 242.661 207.015 242.707C208.355 243.721 208.887 244.256 209.303 244.6C209.706 244.934 209.706 246.232 210.458 246.696C210.851 246.94 211.31 247.455 211.802 247.9C211.976 248.035 212.183 248.091 212.399 247.972C212.851 247.691 212.483 248.593 212.763 249.244C213.12 249.895 213.913 247.609 214.425 248C214.992 248.402 215.024 249.685 215.855 249.444C216.679 249.196 217.525 250.075 217.916 249.557C218.303 249.036 218.336 250.618 218.889 250.269C218.97 250.217 219.05 250.177 219.124 250.148L218.733 250.188C219.08 249.956 219.378 250.109 219.85 250.44C220.126 250.651 220.657 250.734 221.129 250.66C221.424 250.456 221.729 250.249 222.038 250.036C222.044 250.015 222.054 249.994 222.058 249.973C222.091 249.799 222.166 249.699 222.266 249.648C222.286 249.631 222.357 249.608 222.377 249.593C222.499 249.544 222.626 249.537 222.752 249.549C224.724 248.207 226.948 246.747 229.349 245.428C230.198 244.96 231.06 244.418 231.92 243.831C235.102 241.652 238.459 238.959 241.817 237.126C242.949 236.506 244.182 235.787 245.461 235.014C249.143 232.81 252.965 230.615 255.008 229.373C256.011 228.775 256.724 228.312 257.3 227.864C258.34 227.036 259.069 226.277 260.193 224.664C261.195 223.199 262.781 221.423 264.144 219.851C264.727 219.041 265.206 219.238 264.949 220.463C264.52 222.125 263.566 223.071 263.534 224.08C263.435 226.086 263.257 226.998 261.35 228.133C260.282 228.755 259.91 229.536 259.6 230.261C259.329 230.859 259.102 231.394 258.631 231.705C257.558 232.374 257.06 231.788 252.636 235.974C251.166 237.357 249.895 238.504 248.856 239.467C246.661 241.492 245.034 242.775 243.83 243.739C242.139 245.097 238.249 246.926 235.348 249.013C235.13 249.17 234.908 249.332 234.694 249.496C233.961 250.063 233.015 250.721 231.972 251.421C232.089 251.67 232.181 252.108 232.382 252.413C232.74 252.952 233.023 250.563 233.458 250.889C233.895 251.229 233.964 252.503 234.463 252.221C234.964 251.934 235.467 252.805 235.69 252.281C235.913 251.761 235.938 253.339 236.253 252.993C236.569 252.642 236.762 252.848 237.038 253.361L237.05 253.377C237.142 252.63 236.996 251.546 237.695 251.297C238.761 250.926 239.634 251.864 240.458 250.925C241.292 249.981 242.792 250.029 242.961 249.296C243.137 248.56 244.037 249.86 244.496 249.156C244.961 248.452 245.479 248.386 246.313 248.492C246.997 248.574 248.435 248.184 249.147 247.564C249.167 247.551 249.227 247.532 249.247 247.52C249.427 247.395 249.574 247.254 249.666 247.096C250.183 246.231 251.364 247.013 251.906 247.132C252.078 247.166 252.227 247.243 252.349 247.328C252.4 247.364 252.449 247.456 252.477 247.552C252.511 247.672 252.517 247.802 252.473 247.832C252.257 247.975 251.95 248.275 251.679 248.836C251.213 249.835 250.857 249.082 250.097 249.7L250.229 249.641C250.196 249.674 250.162 249.713 250.129 249.752C249.378 250.648 249.259 251.712 247.896 251.86C246.523 252.031 247.53 254.176 245.341 254.014C243.121 253.893 244.354 256.051 243.152 257.334C241.952 258.619 239.366 258.931 238.585 259.71C238.528 259.767 238.471 259.827 238.413 259.887C236.99 261.134 235.514 261.892 233.857 262.103C232.111 262.302 230.266 263.537 228.372 263.267C227.555 263.153 226.612 263 225.709 262.839C225.528 263.17 225.383 263.491 225.107 263.531C224.474 263.655 224.039 262.767 221.44 265.007C220.171 266.141 219.214 267.05 218.454 267.768C218.328 267.908 218.224 268.054 218.12 268.188C216.974 270.502 215.955 272.583 215.413 273.977C214.303 276.822 213.542 277.23 212.359 278.418C211.884 279.599 211.501 280.713 211.427 281.466C211.356 282.104 211.196 282.47 210.973 282.73C210.653 283.102 210.203 283.263 209.713 283.703C209.765 283.772 209.828 283.839 209.916 283.898C210.99 284.638 211.399 284.957 210.697 285.759C209.994 286.549 211.427 287.057 211.224 287.531C211.016 288.005 210.157 287.938 210.626 290.46C210.701 290.869 210.766 291.241 210.821 291.601C211.112 293.413 211.162 294.519 211.231 295.309C211.313 296.259 210.402 298.145 210.542 299.693C210.684 301.239 210.174 304.315 210.51 305.603C210.847 306.888 209.878 306.81 209.251 307.771C208.625 308.732 210.945 309.733 210.506 310.932C210.064 312.13 208.782 312.21 208.947 313.641C209.113 315.071 208.131 316.402 208.597 317.077C209.064 317.744 207.49 317.675 207.764 318.598C207.867 318.931 207.894 319.233 207.863 319.485C207.808 319.939 207.574 320.312 207.214 320.77C207.012 321.029 206.807 321.489 206.647 322.014C207.055 323.025 207.222 323.701 207.509 324.354C208.22 326.097 208.599 328.027 208.872 329.852C208.921 329.892 208.945 329.927 208.92 329.972C208.914 329.981 208.899 329.983 208.892 329.991C209.023 330.853 209.133 331.69 209.255 332.468C209.539 332.831 209.701 332.971 209.841 333.092C209.913 333.152 209.908 333.263 209.912 333.456C209.816 333.639 209.863 334.317 210.263 334.584C210.405 334.682 210.55 334.832 210.697 335C211.119 335.483 211.674 336.196 212.22 336.272C212.854 336.356 212.38 336.911 212.26 337.557C212.246 337.633 212.234 337.711 212.232 337.789C212.236 338.537 214.127 337.017 214.345 337.645C214.511 338.115 214.161 338.812 214.257 339.229C214.692 339.058 214.792 339.347 214.907 339.741C215.037 339.86 215.139 340.007 215.229 340.149C215.343 340.329 215.452 340.487 215.576 340.565C216.032 340.262 216.635 338.957 217.096 339.289C217.695 339.726 217.62 341.005 218.427 340.829C219.229 340.652 219.898 341.612 220.308 341.134C220.714 340.655 220.567 342.229 221.102 341.938C221.634 341.645 221.913 341.884 222.293 342.441C222.673 343.001 223.974 343.576 224.525 342.994C225.074 342.416 225.53 343.559 225.841 343.854C225.937 343.944 226.009 344.065 226.061 344.186C226.082 344.237 226.086 344.342 226.076 344.442C226.064 344.567 226.032 344.688 225.996 344.702C225.821 344.763 225.549 344.941 225.211 345.366C224.579 346.159 224.61 345.218 223.824 345.578C223.037 345.94 222.493 346.768 221.671 346.11C220.855 345.456 220.382 347.781 219.283 346.299C219.088 346.031 218.912 345.891 218.749 345.842C218.444 346.111 218.308 346.102 218.18 346.019C217.695 346.42 217.211 347.308 216.422 347.391C215.085 347.527 213.695 345.889 212.914 345.842C212.761 345.833 212.593 345.829 212.42 345.822C211.912 345.804 211.329 345.762 210.749 345.578C210.6 345.625 210.46 345.657 210.331 345.69C210.129 345.744 209.946 345.83 209.809 346.106C209.257 347.216 209.019 347.643 208.334 346.982C207.654 346.323 207.279 347.781 206.863 347.599C206.587 347.472 206.515 347.042 205.843 346.935C205.514 346.881 205.039 346.906 204.304 347.051C202.53 347.384 201.331 347.371 200.194 347.146C200.095 347.155 199.966 347.157 199.839 347.158C199.533 347.159 199.006 346.861 198.389 346.586C197.838 346.338 197.207 346.107 196.614 346.122C195.924 346.139 194.868 345.928 193.924 345.803C193.194 345.707 192.5 345.678 192.055 345.826C191.54 345.998 191.315 345.826 191.109 345.53C190.481 345.518 189.861 345.508 189.252 345.482C189.156 345.478 189.06 345.47 188.965 345.466C188.747 345.689 188.495 345.875 188.176 345.918C188.097 345.944 188.021 345.938 187.944 345.891C187.745 345.776 187.578 345.576 187.414 345.362C187.251 345.348 187.085 345.336 186.92 345.318C186.522 345.274 186.122 345.218 185.656 345.122C185.414 345.07 185.174 345.016 184.844 344.902C184.612 344.779 184.395 344.792 183.954 344.47C183.634 344.431 183.363 344.452 183.193 344.654C182.728 345.208 182.566 343.633 181.87 344.034C181.176 344.438 180.722 344.268 180.048 343.806C179.534 343.454 178.257 343.21 177.39 343.418C177.118 343.484 176.884 343.592 176.731 343.758C176.517 343.988 176.284 344.026 176.046 343.974C174.046 345.272 171.999 346.549 169.915 347.559C169.424 347.796 168.91 348.045 168.385 348.299C167.644 348.655 166.948 349.003 165.993 349.427C165.863 349.483 165.733 349.541 165.522 349.623C165.407 349.666 165.297 349.712 165.021 349.787C164.844 349.817 164.782 349.898 164.071 349.883C163.885 349.868 163.695 349.845 163.386 349.743C163.021 349.623 162.543 349.355 162.188 348.921C162.13 348.94 162.075 348.957 162.022 348.976C161.611 349.12 160.886 349.09 160.201 349.17C159.523 349.282 158.882 349.341 158.337 349.479C156.931 349.842 154.407 349.699 153.465 350.068C153.463 350.069 153.462 350.07 153.46 350.07C152.481 350.426 152.44 349.753 151.608 349.42C150.773 349.087 150.225 350.79 149.219 350.611C148.213 350.432 148.012 349.557 146.886 349.821C146.112 350.003 145.316 349.807 144.735 349.792L144.768 349.79C144.559 349.784 144.328 349.829 144.167 349.959C143.641 350.37 143.497 349.28 142.766 349.557C142.56 349.633 142.378 349.676 142.206 349.692C141.761 349.735 141.398 349.594 140.936 349.342C140.293 348.994 138.354 348.696 137.648 349.136C136.943 349.576 136.138 348.814 135.654 348.633C135.504 348.577 135.386 348.499 135.295 348.419C135.256 348.385 135.238 348.313 135.238 348.243C135.238 348.156 135.266 348.07 135.315 348.059C135.556 348.005 135.915 347.864 136.339 347.547C137.129 346.955 137.216 347.609 138.281 347.303C139.347 346.996 139.981 346.388 141.227 346.764C141.591 346.874 141.873 346.807 142.124 346.682C142.761 346.376 143.062 345.772 144.353 346.255C144.38 346.243 144.408 346.232 144.435 346.22C144.439 346.22 144.452 346.217 144.457 346.218C145.195 345.869 145.756 345.461 146.713 345.739C146.719 345.741 146.725 345.742 146.731 345.743C147.086 345.451 147.498 345.158 148.119 345.041C148.122 345.04 148.126 345.04 148.129 345.039C148.287 344.919 148.454 344.856 148.667 344.938C148.798 344.931 148.939 344.936 149.091 344.953C149.127 344.958 149.163 344.96 149.197 344.964C149.31 344.966 149.423 344.971 149.536 344.979C150.906 344.935 150.551 343.529 151.672 342.771C152.133 342.455 152.718 342.245 153.321 342.066C154.345 341.761 155.393 341.572 155.925 341.226C156.438 340.891 157.113 340.415 157.978 340.049C158.241 339.935 158.535 339.814 158.859 339.7C159.257 339.174 159.619 338.644 159.902 338.104C160.026 337.867 160.178 337.601 160.353 337.312C161.614 335.223 163.899 332.197 164.518 330.623C165.22 328.84 166.017 329.392 167.324 328.471C168.631 327.551 167.355 325.193 168.695 323.882C168.854 323.727 169.011 323.597 169.166 323.486C169.606 321.856 169.96 320.585 170.274 319.329C170.194 318.677 170.063 317.927 169.827 317.045C169.325 315.185 168.725 313.603 168.186 312.08C167.26 308.772 166.822 307.642 166.137 304.175C166.099 303.992 166.056 303.822 166.005 303.65C165.794 302.973 165.517 302.411 165.199 301.922C165.114 301.838 165.018 301.752 164.925 301.654C164.82 301.55 164.708 301.443 164.598 301.334C164.109 300.853 163.663 300.356 163.25 299.857C162.398 299.144 161.465 298.433 160.563 297.409C160.06 296.879 159.507 296.165 158.974 295.237C158.705 294.771 158.438 294.247 158.172 293.641C158.039 293.337 157.907 293.012 157.762 292.641C157.688 292.452 157.615 292.256 157.511 291.996C157.458 291.863 157.396 291.718 157.279 291.448C157.187 291.19 157.17 291.385 156.793 290.1C156.727 289.807 156.636 289.427 156.642 288.712C156.671 288.286 156.614 288.116 156.916 287.107C156.943 287.004 156.984 286.898 157.028 286.787C155.644 284.372 153.816 281.464 152.324 278.99C152.124 278.892 151.914 278.79 151.702 278.674C148.921 277.148 146.034 274.771 143.639 272.837C142.178 271.655 140.905 270.645 139.915 270.064C137.265 268.513 133.681 266.574 130.157 264.067C129.983 263.943 129.802 263.815 129.619 263.691C129.58 263.664 129.471 263.6 129.436 263.571C125.92 260.837 121.575 257.878 118.558 254.51C118.474 254.417 118.387 254.323 118.303 254.229C116.562 252.389 114.649 249.847 113.177 248.448C112.535 247.889 111.963 247.354 111.435 246.868C109.92 246.488 108.328 246.145 106.52 245.699C106.291 245.642 106.048 245.584 105.813 245.523C101.413 244.384 95.7676 244.334 90.9014 243.184C89.5202 242.856 87.9704 242.511 86.3857 242.187C82.3777 241.362 78.0857 240.675 75.7461 240.23C72.4801 239.615 71.6731 239.484 68.4961 239.723C67.7662 239.779 66.9133 239.783 66.0361 239.723C64.7127 239.632 63.304 239.395 62.0381 238.998C60.98 238.668 61.2204 238.223 62.3008 238.022C63.8783 237.731 65.1715 237.956 65.9883 237.41C66.0158 237.392 66.0449 237.372 66.0723 237.354C67.6456 236.303 68.3679 235.908 70.377 236.59C72.4184 237.286 73.4308 235.849 74.6299 236.058C75.831 236.284 75.7714 237.091 81.9248 236.782C83.8152 236.697 85.4515 236.668 86.876 236.67C90.0963 236.678 92.2215 236.827 93.8398 236.918C94.5003 236.954 95.3489 237.102 96.3105 237.294C95.5253 236.039 95.0333 234.539 94.4336 234.025C94.2788 233.893 94.106 233.75 93.9316 233.609L94.083 233.758C93.1719 233.1 92.1032 232.272 91.3203 231.093C90.3666 229.656 88.3321 228.658 87.5537 226.792C86.922 225.279 86.1093 223.237 85.8193 221.667C85.7583 221.328 85.723 221.023 85.708 220.771C85.652 219.387 85.6821 219.112 85.0938 218.003C84.7654 217.365 84.7726 216.318 85.3887 215.506C85.7017 215.1 86.1453 215.22 86.3691 215.562C86.6998 216.064 86.5586 216.514 87.1465 216.69C88.3306 217.025 88.7679 217.056 88.3027 217.814C87.8619 218.604 89.3529 218.396 89.3154 218.747C89.295 219.012 88.8686 219.278 89.1719 219.898C89.2833 220.119 89.5216 220.405 89.9648 220.743C91.5768 221.946 92.4601 222.673 93.0664 223.155C93.6731 223.63 94.1977 225.353 95.2822 226.088C96.1711 226.697 97.4853 228.186 98.5117 228.828C98.5506 228.852 98.6359 228.955 98.6748 228.984C98.8924 229.15 99.1013 229.288 99.2842 229.373C100.384 229.888 99.6758 230.559 99.8828 231.581C100.087 232.601 102.319 231.482 102.797 232.493C103.269 233.503 102.456 234.493 103.494 235.186C104.535 235.875 104.755 237.361 105.507 237.39C106.254 237.414 105.169 238.558 105.953 238.866C106.127 238.934 106.268 239.017 106.388 239.103C106.805 239.164 107.246 239.227 107.699 239.303C110.228 239.709 113.675 240.478 116.066 241.291C116.14 241.31 116.344 241.403 116.417 241.431C117.681 241.967 118.8 242.468 119.602 242.763C122.605 243.885 122.108 244.746 124.015 246.448C125.523 247.804 127.659 247.371 129.715 248.052C130.197 248.197 130.719 248.438 131.226 248.8C133.694 250.571 133.473 251.91 136.635 253.345C139.797 254.779 142.411 257.229 144.014 257.521C145.607 257.809 144.994 259.28 147.074 260.034C149.158 260.79 150.221 261.614 151.646 262.995C152.879 264.189 156.735 266.773 159.163 267.766C159.233 267.767 159.302 267.77 159.368 267.772C159.911 267.707 160.374 267.606 160.735 267.355C162.39 266.215 163.092 265.779 165.212 266.384C167.331 266.985 168.297 265.481 169.524 265.615C170.263 265.697 170.569 266.049 172.052 266.123C172.869 266.159 174.363 266.104 175.659 265.075C176.788 264.158 177.358 262.603 178.648 260.887C179.009 260.312 179.453 258.718 179.881 257.55C180.049 257.053 180.191 256.591 180.312 256.161C180.724 254.793 181.727 252.318 182.472 249.685C182.331 248.895 182.182 248.205 181.909 247.784C181.204 246.675 180.102 245.312 179.354 243.6C179.325 243.533 179.292 243.465 179.259 243.399C178.435 241.753 176.524 240.446 175.675 238.582C174.963 237.003 173.846 234.969 173.053 233.59C172.982 233.465 172.914 233.344 172.849 233.229C172.755 233.138 172.664 233.049 172.574 232.961C172.511 232.921 172.443 232.883 172.379 232.841L172.442 232.873C171.92 232.551 171.342 232.14 170.717 231.617C170.019 231.037 169.388 230.611 168.807 230.285C168.362 230.205 167.902 229.986 167.46 229.673C165.197 228.897 163.368 229.462 159.851 228.057C156.18 226.594 152.186 223.989 149.147 222.231C148.037 221.59 147.071 221.073 146.273 220.751C145.046 220.254 144.011 219.879 142.264 219.238C140.148 218.374 137.575 217.442 134.988 216.086C134.484 215.822 133.954 215.559 133.414 215.298C130.143 213.688 126.017 212.379 122.464 209.609C121.978 209.217 121.471 208.798 120.985 208.364C118.501 206.198 115.402 203.179 113.204 200.447C111.939 198.895 110.842 197.507 110.095 196.511C108.078 193.81 107.579 193.158 105.124 191.069C104.13 190.207 103.016 189.027 102.119 187.553C101.777 186.946 101.471 186.312 101.266 185.648C101.078 185.084 101.256 184.744 101.445 184.828C101.609 184.804 101.837 184.951 102.219 185.316C102.653 185.732 103.04 186.154 103.391 186.532C103.904 187.062 104.421 187.522 104.997 187.648C106.905 188.054 107.686 188.245 108.652 190.157C109.631 192.075 111.355 191.719 112.084 192.682C112.77 193.584 112.251 194.183 116.174 197.379C116.425 197.582 116.698 197.791 116.987 198.007C121.583 201.409 124.321 202.835 126.37 204.152C126.424 204.185 126.481 204.217 126.534 204.248C128.159 205.288 131.91 208.039 135.475 209.349C135.655 209.417 135.844 209.495 136.041 209.573C137.156 210.031 138.557 210.584 140.062 211.186C140.119 210.85 139.026 210.904 139.122 210.677C139.23 210.416 140.084 210.154 139.074 209.177C138.436 208.589 138.027 208.226 137.739 207.969C137.568 207.815 137.43 207.682 137.305 207.576C136.984 207.303 137.125 206.112 136.443 205.641C135.794 205.184 134.958 203.772 134.172 203.552C133.4 203.336 134.123 202.694 134.155 201.911C134.181 201.128 132.098 202.401 131.871 201.636C131.648 200.881 132.48 199.99 131.808 199.507C131.736 199.458 131.627 199.219 131.564 199.163C131.552 199.151 131.535 199.139 131.521 199.127C130.882 198.621 131.187 197.462 130.556 197.423C129.924 197.381 131.251 196.528 130.688 196.267C130.124 196.002 130.141 195.618 130.36 194.971C130.428 194.769 130.443 194.49 130.412 194.202C130.395 194.183 130.375 194.111 130.36 194.094C130.32 193.383 130.171 192.619 129.659 192.378C128.911 192.016 129.844 191.185 130.025 190.802C130.081 190.681 130.17 190.572 130.269 190.485C130.311 190.449 130.411 190.415 130.508 190.394C130.627 190.367 130.749 190.361 130.775 190.39C130.887 190.537 131.145 190.741 131.652 190.922C132.598 191.243 131.702 191.536 132.31 192.078C132.69 192.4 133.202 192.519 133.466 192.722L133.362 192.518C133.568 192.682 133.694 192.919 133.673 193.31C133.624 194.347 135.745 193.298 135.235 195.034C134.913 196.167 135.706 196.073 136.571 196.135L136.288 195.738C136.733 195.664 137.202 195.616 137.56 195.847C138.569 196.497 138.653 198.619 139.242 199.139C139.836 199.654 140.757 200.304 141.207 201.443C141.639 202.557 143.19 203.375 143.332 204.952C143.339 205.043 143.345 205.138 143.352 205.232C143.367 205.416 143.376 205.603 143.383 205.792C143.52 205.922 143.694 206.066 143.914 206.225C144.257 206.47 144.555 206.694 144.819 206.896C145.42 206.625 145.745 206.697 146.002 207.425C146.333 208.398 147.449 207.379 147.76 207.78C148.052 208.188 147.582 208.891 149.893 209.721C151.535 210.323 152.587 210.85 153.345 211.249C153.645 211.405 153.893 211.533 154.122 211.649C154.897 212.043 155.882 213.725 157.18 214.326C158.471 214.934 160.665 216.763 161.891 217.062C163.109 217.364 162.571 218.167 163.063 219.183C163.293 219.651 163.824 219.591 164.526 219.606L164.435 219.535C165.107 219.391 165.844 219.148 166.204 219.627C166.865 220.503 166.313 221.667 167.527 222.104C168.084 222.3 168.519 222.695 168.905 223.052C169.349 223.33 169.693 223.552 169.914 223.727C169.927 223.737 169.941 223.747 169.955 223.756C170.024 223.765 170.093 223.764 170.162 223.748C170.376 223.698 170.47 223.777 170.517 223.918C171.588 224.119 172.824 223.983 173.913 224.379C174.218 224.49 174.557 224.604 174.91 224.713C175.731 224.953 176.606 225.205 177.331 225.429C177.463 224.994 177.582 224.584 177.936 224.304L177.752 224.492C178.02 224.21 178.248 224.081 178.537 223.972C179.64 223.61 178.912 222.236 179.772 221.735C179.911 220.53 180.17 219.135 180.052 218.311C179.97 217.772 180.134 217.489 180.406 217.278C180.543 217.174 180.712 217.084 180.897 216.971C180.989 216.917 181.09 216.846 181.2 216.758C181.22 216.74 181.235 216.717 181.256 216.698C181.236 215.178 181.251 213.836 181.327 212.777C181.333 212.645 181.341 212.513 181.348 212.386C181.396 211.496 181.435 210.741 181.467 210.065C181.066 206.38 180.907 203.037 181.124 199.819C181.149 199.658 181.16 199.47 181.248 199.175C181.293 198.206 181.378 197.204 181.522 196.219C181.644 195.405 181.798 194.6 182.018 193.834C182.163 193.084 182.728 192.838 182.591 193.158C182.897 193.072 182.876 193.514 182.974 194.238C183.041 194.951 183.071 195.623 183.094 196.25C183.103 196.487 183.111 196.717 183.121 196.938C183.603 196.714 184.176 196.58 184.688 196.578C184.355 195.359 184.032 194.147 183.695 192.954C183.559 192.475 183.413 191.974 183.301 191.626C183.279 191.554 183.249 191.467 183.276 191.525C183.35 191.616 183.135 191.452 183.799 192.306C183.902 192.419 184.038 192.551 184.237 192.71C184.153 192.124 184.065 191.528 183.982 190.897C183.956 190.551 183.881 190.507 183.927 189.609C183.937 189.527 183.939 189.45 183.986 189.245C184.09 189.039 183.903 188.868 184.76 187.921C184.903 187.702 185.446 187.442 186.027 187.312C186.404 186.997 186.898 186.697 187.514 186.537C188.656 186.228 189.731 186.555 190.276 186.856C190.848 187.168 191.116 187.451 191.309 187.653C191.961 188.434 191.91 188.559 192.011 188.733C192.034 188.789 192.048 188.838 192.062 188.873C192.156 188.834 192.273 188.799 192.417 188.773C192.389 188.636 192.365 188.495 192.337 188.357C192.236 187.857 192.126 187.31 192.026 186.776C191.974 186.494 191.931 186.25 191.879 185.921C191.842 185.571 191.759 185.515 191.775 184.521C191.795 184.302 191.8 184.129 191.898 183.708C191.929 183.592 191.961 183.458 192.07 183.2C192.148 183.039 192.176 182.918 192.457 182.544ZM166.698 348.727C166.667 348.775 166.634 348.837 166.714 348.739C166.741 348.702 166.765 348.665 166.83 348.551C166.782 348.616 166.733 348.673 166.698 348.727ZM166.281 341.523C166.198 341.632 166.118 341.735 166.045 341.834C165.816 342.138 165.612 342.418 165.423 342.674C165.755 342.404 166.082 342.134 166.407 341.873C166.404 341.821 166.394 341.771 166.396 341.726C166.397 341.624 166.406 341.534 166.418 341.452C166.372 341.477 166.326 341.5 166.281 341.523ZM168.911 339.881C168.854 339.906 168.794 339.934 168.729 339.968C168.759 339.962 168.79 339.959 168.819 339.953C168.85 339.929 168.881 339.905 168.911 339.881ZM183.468 339.385C183.486 339.396 183.506 339.406 183.523 339.417C183.57 339.371 183.613 339.327 183.655 339.289C183.593 339.321 183.53 339.353 183.468 339.385ZM191.688 336.2C191.632 336.211 191.576 336.225 191.521 336.236C191.401 336.302 191.283 336.369 191.169 336.433C191.603 336.322 192.021 336.206 192.429 336.108C192.419 336.09 192.412 336.069 192.401 336.049C192.156 336.098 191.926 336.153 191.688 336.2ZM177.333 329.479C177.355 329.463 177.376 329.443 177.397 329.427L177.394 329.383C177.374 329.415 177.352 329.447 177.333 329.479ZM203.813 303.586C203.76 304.359 203.719 305.103 203.689 305.827C203.766 305.531 203.821 305.266 203.821 305.039C203.821 304.601 203.816 304.111 203.813 303.586ZM163.801 270.437C164.22 270.443 164.636 270.45 165.049 270.46C164.623 270.413 164.173 270.347 163.719 270.243C163.669 270.232 163.617 270.223 163.566 270.213C163.645 270.288 163.724 270.362 163.801 270.437ZM180.929 218.854C180.885 218.732 180.766 219.002 180.98 219.619C181.023 219.737 181.08 219.841 181.141 219.931C181.17 219.816 181.195 219.699 181.224 219.583C181.086 219.27 180.956 218.998 180.929 218.854ZM199.808 201.348C199.762 201.574 199.705 201.814 199.631 202.068C199.73 202.257 199.747 202.53 199.574 202.983C199.243 203.819 199.613 204.134 200.085 204.483C200.027 203.562 200.051 202.502 200.162 201.419C200.07 201.396 199.953 201.374 199.808 201.348Z" fill="url(#paint0_linear_1732_173)"/>
<path d="M156.087 137.79C156 137.617 155.855 137.476 155.674 137.4C155.493 137.325 155.292 137.322 155.113 137.392C154.933 137.463 154.788 137.602 154.707 137.78C154.626 137.959 154.617 138.161 154.67 138.347C154.67 138.347 154.67 138.347 154.67 138.347C154.926 139.228 155.185 140.107 155.448 140.985C157.816 148.884 160.503 156.658 163.509 164.307C166.515 171.956 169.839 179.48 173.483 186.879C173.888 187.701 174.296 188.521 174.709 189.34C174.796 189.513 174.941 189.655 175.122 189.73C175.303 189.805 175.504 189.809 175.683 189.738C175.862 189.668 176.007 189.528 176.089 189.35C176.17 189.172 176.179 188.969 176.126 188.784C175.87 187.903 175.611 187.023 175.348 186.146C172.98 178.246 170.292 170.472 167.287 162.823C164.281 155.174 160.956 147.65 157.313 140.252C156.908 139.43 156.5 138.609 156.087 137.79Z" fill="#301B0A"/>
<path d="M216.792 172.187C216.913 171.988 216.963 171.749 216.922 171.516C216.881 171.284 216.753 171.078 216.564 170.942C216.375 170.806 216.139 170.75 215.906 170.784C215.672 170.818 215.462 170.942 215.31 171.119C215.31 171.119 215.31 171.119 215.31 171.119C214.491 172.083 213.675 173.05 212.864 174.019C205.562 182.746 198.593 191.713 191.957 200.92C185.322 210.127 179.019 219.575 173.051 229.263C172.387 230.339 171.728 231.419 171.073 232.501C170.953 232.701 170.902 232.939 170.943 233.172C170.985 233.404 171.113 233.61 171.301 233.746C171.49 233.882 171.726 233.939 171.96 233.904C172.193 233.87 172.404 233.746 172.555 233.569C173.375 232.605 174.19 231.638 175.001 230.669C182.304 221.942 189.273 212.975 195.908 203.768C202.544 194.561 208.846 185.113 214.815 175.425C215.478 174.349 216.137 173.27 216.792 172.187Z" fill="#301B0A"/>
<path d="M132.715 124.75C132.709 124.557 132.637 124.368 132.504 124.223C132.371 124.079 132.19 123.992 131.998 123.981C131.805 123.97 131.615 124.035 131.467 124.163C131.318 124.291 131.225 124.471 131.196 124.662C131.196 124.662 131.196 124.662 131.196 124.662C131.059 125.569 130.925 126.476 130.797 127.383C129.636 135.548 128.818 143.733 128.341 151.937C127.865 160.142 127.73 168.366 127.938 176.61C127.961 177.526 127.988 178.443 128.02 179.359C128.026 179.553 128.098 179.742 128.231 179.886C128.364 180.03 128.545 180.118 128.737 180.129C128.93 180.14 129.12 180.074 129.268 179.946C129.417 179.819 129.51 179.639 129.539 179.447C129.676 178.541 129.809 177.634 129.938 176.727C131.099 168.562 131.917 160.377 132.393 152.172C132.87 143.968 133.004 135.743 132.797 127.499C132.774 126.583 132.747 125.667 132.715 124.75Z" fill="#301B0A"/>
<path d="M377.956 155.526C374.551 249.717 340.391 270.471 294.4 277.928C231.748 288.086 187.109 234.753 136.202 228.155C74.9124 220.211 12.2607 219.076 12.2607 118.085C26.5617 17.0849 99.7828 -15.2104 196.484 6.36755C248.789 6.36755 300.272 12.4627 345.316 37.0472C375.339 53.4335 377.956 114.165 377.956 155.526Z" fill="url(#paint1_linear_1732_173)"/>
<mask id="mask0_1732_173" style="mask-type:alpha" maskUnits="userSpaceOnUse" x="0" y="15" width="223" height="211">
<path d="M64.6947 100.642C64.6947 163.044 193.403 100.642 217.919 156.231C248.036 216.814 115.769 189.159 108.959 225.474C42.389 225.474 0 236.455 0 156.231C0 76.0069 49.199 15.5117 115.769 15.5117C182.34 15.5117 64.6947 20.4178 64.6947 100.642Z" fill="#A2AE66"/>
</mask>
<g mask="url(#mask0_1732_173)">
<path d="M377.956 157.794C374.551 251.985 338.823 313.754 292.831 321.21C230.18 331.368 187.109 237.022 136.202 230.424C74.9124 222.48 12.2607 221.345 12.2607 120.354C26.5617 19.3536 66.7405 25.0192 163.442 46.5972C215.747 46.5972 285.923 22.0127 330.967 46.5972C360.99 62.9835 377.956 116.434 377.956 157.794Z" fill="#3B5728"/>
</g>
<defs>
<linearGradient id="paint0_linear_1732_173" x1="163.188" y1="181.471" x2="163.188" y2="350.624" gradientUnits="userSpaceOnUse">
<stop offset="0.35945" stop-color="#301B0A"/>
<stop offset="1" stop-color="#96541F"/>
</linearGradient>
<linearGradient id="paint1_linear_1732_173" x1="195.108" y1="0" x2="195.108" y2="279.21" gradientUnits="userSpaceOnUse">
<stop stop-color="#4B6A15"/>
<stop offset="1" stop-color="#5F8719"/>
</linearGradient>
</defs>
</svg>
