<svg width="745" height="445" viewBox="0 0 745 445" fill="none" xmlns="http://www.w3.org/2000/svg">
<path fill-rule="evenodd" clip-rule="evenodd" d="M390.657 246.89C390.857 246.657 392.05 245.37 394.21 245.665C395.219 245.841 395.654 246.174 395.976 246.399C396.298 246.641 396.495 246.875 396.582 246.981C396.791 247.232 396.919 247.456 396.972 247.553C397.105 247.804 397.154 247.938 397.199 248.059C397.454 248.838 397.44 249.042 397.505 249.394C397.583 249.924 397.626 250.385 397.667 250.842C398.792 251.284 399.028 251.98 399.086 252.024C399.15 252.138 399.191 252.232 399.223 252.309C399.284 252.463 399.313 252.568 399.334 252.649C399.405 252.989 399.385 252.935 399.397 253.027C399.405 253.151 399.402 253.178 399.402 253.231C399.207 254.24 398.986 255.142 398.763 256.046L398.768 256.056C399.037 255.886 399.233 255.728 399.38 255.588C399.49 255.48 399.535 255.43 399.597 255.36C399.709 255.231 399.79 255.119 399.854 255.025C400.099 254.652 400.152 254.479 400.208 254.343C400.278 254.152 400.283 254.125 400.304 254.055C400.336 253.932 400.337 253.915 400.345 253.879C400.365 253.779 400.367 253.775 400.367 253.775C400.367 253.775 400.363 253.828 400.36 253.87C400.353 253.959 400.342 254.077 400.334 254.187C400.319 254.419 400.305 254.67 400.292 254.921C400.264 255.424 400.239 255.961 400.213 256.501C400.16 257.589 400.107 258.729 400.044 259.932C400.026 260.259 399.999 260.59 399.981 260.925C400.075 261.379 400.161 261.845 400.246 262.321C400.271 262.311 400.292 262.297 400.314 262.288C400.345 262.201 400.377 262.114 400.408 262.027C400.374 262.003 400.333 261.971 400.281 261.942C400.121 261.849 400.189 261.734 400.551 261.62C400.565 261.581 400.583 261.541 400.597 261.502C402.392 256.497 402.76 257.11 401.842 261.441C402.063 261.447 402.266 261.471 402.401 261.507C402.812 261.617 402.543 261.71 403.275 261.767C404.745 261.881 405.311 261.927 404.457 262.07C403.605 262.214 405.545 262.285 405.321 262.369C405.092 262.452 403.958 262.45 404.836 262.874C405.714 263.298 405.943 263.537 406.154 263.698C406.363 263.86 405.38 264.197 405.732 264.46C406.091 264.723 405.765 265.26 406.349 265.477C406.937 265.692 405.654 265.691 404.937 265.866C404.227 266.04 407.387 266.177 406.943 266.389C406.494 266.601 404.821 266.636 405.189 266.878C405.566 267.121 404.424 267.365 405.109 267.474C405.795 267.582 403.729 267.591 404.172 267.743C404.636 267.897 404.365 267.992 403.687 268.126C403.514 268.161 403.345 268.212 403.207 268.273C403.225 268.465 403.25 268.649 403.275 268.826C403.638 268.894 403.543 268.958 403.302 269.025C403.385 269.508 403.521 269.928 403.782 270.275C405.253 272.216 405.817 273.045 404.962 275.494C404.881 275.727 404.828 275.95 404.793 276.161C405.455 276.741 405.596 277.219 405.051 278.129C405.413 279.026 405.95 279.74 405.826 280.534L405.821 280.543C405.896 280.68 405.938 280.811 405.9 280.954C405.82 281.239 405.614 281.421 405.432 281.735C405.312 282.06 405.206 282.459 405.126 283.041C405.11 283.644 405.189 284.478 405.473 285.673C406.408 289.609 406.672 291.771 406.907 293.262C407.141 294.753 406.199 297.884 406.607 300.308C406.898 302.034 406.871 305.055 407.081 307.335C407.166 308.261 407.29 309.051 407.481 309.615C408.153 311.549 406.871 311.6 406.248 313.216C406.035 313.787 406.304 314.281 406.723 314.763C406.753 314.769 406.783 314.777 406.817 314.782C408.351 314.95 408.916 314.889 408.251 315.576C407.61 316.302 409.525 315.937 409.436 316.244C409.36 316.55 408.367 316.99 409.674 317.886C409.744 317.939 409.825 317.993 409.906 318.047C411.679 319.246 412.382 319.878 412.932 320.285C413.465 320.68 413.466 322.215 414.461 322.764C414.981 323.052 415.586 323.662 416.237 324.189C416.467 324.348 416.741 324.415 417.027 324.273C417.624 323.941 417.137 325.009 417.507 325.779C417.98 326.548 419.028 323.845 419.705 324.307C420.455 324.782 420.498 326.299 421.597 326.015C422.686 325.72 423.805 326.762 424.323 326.148C424.835 325.532 424.877 327.404 425.608 326.99C425.716 326.929 425.821 326.881 425.919 326.848L425.402 326.895C425.86 326.62 426.254 326.801 426.877 327.192C427.243 327.442 427.945 327.541 428.57 327.453C428.96 327.211 429.363 326.966 429.772 326.715C429.78 326.69 429.792 326.665 429.798 326.64C429.842 326.434 429.941 326.316 430.072 326.257C430.099 326.236 430.192 326.209 430.219 326.191C430.38 326.133 430.548 326.125 430.715 326.139C433.322 324.551 436.264 322.825 439.438 321.265C440.56 320.712 441.7 320.07 442.838 319.376C447.046 316.8 451.485 313.614 455.926 311.446C457.422 310.712 459.052 309.862 460.743 308.948C465.612 306.342 470.665 303.745 473.366 302.276C474.693 301.568 475.637 301.021 476.398 300.491C477.774 299.512 478.736 298.614 480.223 296.707C481.548 294.974 483.645 292.873 485.447 291.014C486.219 290.056 486.852 290.289 486.512 291.738C485.945 293.704 484.682 294.822 484.641 296.016C484.509 298.388 484.275 299.466 481.753 300.808C480.342 301.544 479.849 302.469 479.439 303.326C479.081 304.034 478.782 304.667 478.158 305.034C476.74 305.825 476.081 305.132 470.231 310.083C468.288 311.718 466.607 313.075 465.234 314.213C462.331 316.609 460.18 318.127 458.588 319.268C456.352 320.874 451.208 323.036 447.372 325.505C447.083 325.69 446.789 325.881 446.506 326.076C445.537 326.747 444.286 327.525 442.906 328.352C443.061 328.646 443.184 329.165 443.449 329.527C443.922 330.164 444.297 327.337 444.873 327.722C445.451 328.124 445.54 329.632 446.2 329.298C446.863 328.959 447.529 329.99 447.824 329.37C448.118 328.755 448.15 330.621 448.567 330.211C448.985 329.795 449.24 330.04 449.605 330.648L449.622 330.666C449.745 329.783 449.552 328.501 450.476 328.206C451.886 327.768 453.038 328.877 454.127 327.765C455.23 326.649 457.216 326.707 457.439 325.84C457.671 324.968 458.86 326.507 459.467 325.675C460.083 324.841 460.767 324.764 461.87 324.889C462.774 324.986 464.676 324.524 465.619 323.791C465.645 323.774 465.724 323.753 465.75 323.739C465.988 323.592 466.181 323.425 466.303 323.238C466.987 322.214 468.549 323.141 469.266 323.281C469.493 323.321 469.69 323.412 469.85 323.512C469.918 323.554 469.983 323.663 470.019 323.777C470.065 323.92 470.073 324.073 470.014 324.108C469.729 324.277 469.325 324.632 468.966 325.296C468.35 326.477 467.88 325.587 466.874 326.318L467.046 326.247C467.003 326.287 466.959 326.333 466.915 326.379C465.922 327.439 465.766 328.698 463.964 328.873C462.147 329.075 463.48 331.611 460.584 331.418C457.65 331.275 459.28 333.828 457.691 335.345C456.105 336.866 452.683 337.234 451.651 338.156C451.576 338.223 451.501 338.294 451.424 338.364C449.542 339.84 447.59 340.738 445.399 340.986C443.09 341.222 440.65 342.684 438.147 342.363C437.066 342.228 435.82 342.047 434.627 341.856C434.388 342.247 434.196 342.629 433.831 342.676C432.993 342.822 432.418 341.772 428.981 344.422C427.303 345.763 426.038 346.837 425.033 347.686C424.865 347.853 424.728 348.025 424.591 348.184C423.075 350.921 421.728 353.382 421.011 355.03C419.543 358.395 418.539 358.877 416.974 360.282C416.345 361.679 415.839 362.997 415.741 363.887C415.648 364.643 415.436 365.076 415.14 365.384C414.718 365.823 414.123 366.013 413.475 366.533C413.544 366.614 413.627 366.695 413.743 366.765C415.164 367.64 415.705 368.017 414.776 368.965C413.846 369.9 415.741 370.501 415.472 371.062C415.197 371.621 414.061 371.544 414.681 374.525C414.78 375.008 414.868 375.449 414.94 375.874C415.324 378.017 415.392 379.325 415.483 380.259C415.592 381.383 414.386 383.614 414.572 385.445C414.759 387.273 414.085 390.911 414.529 392.434C414.975 393.955 413.692 393.862 412.864 395C412.036 396.135 415.104 397.319 414.524 398.737C413.94 400.155 412.244 400.249 412.463 401.941C412.682 403.632 411.383 405.206 411.998 406.004C412.617 406.794 410.536 406.712 410.897 407.803C411.033 408.197 411.069 408.555 411.028 408.853C410.955 409.389 410.646 409.832 410.169 410.373C409.902 410.68 409.632 411.224 409.421 411.845C409.96 413.041 410.181 413.84 410.56 414.612C411.501 416.673 412.001 418.956 412.362 421.114C412.427 421.162 412.459 421.202 412.425 421.255C412.418 421.266 412.399 421.269 412.389 421.279C412.563 422.298 412.707 423.288 412.869 424.208C413.245 424.637 413.457 424.804 413.643 424.946C413.739 425.017 413.733 425.148 413.738 425.377C413.61 425.592 413.674 426.395 414.203 426.711C414.391 426.827 414.581 427.004 414.776 427.204C415.334 427.775 416.068 428.618 416.79 428.708C417.63 428.806 417.002 429.463 416.843 430.227C416.824 430.317 416.807 430.41 416.805 430.501C416.809 431.387 419.312 429.588 419.599 430.331C419.819 430.888 419.357 431.711 419.483 432.205C420.058 432.002 420.189 432.345 420.342 432.811C420.514 432.951 420.649 433.125 420.769 433.294C420.919 433.506 421.064 433.693 421.228 433.785C421.831 433.426 422.628 431.883 423.236 432.275C424.03 432.791 423.93 434.306 424.997 434.098C426.059 433.888 426.942 435.023 427.484 434.458C428.021 433.891 427.827 435.754 428.534 435.409C429.238 435.062 429.606 435.345 430.108 436.005C430.61 436.667 432.332 437.346 433.061 436.657C433.787 435.973 434.388 437.325 434.799 437.674C434.927 437.781 435.021 437.925 435.09 438.068C435.119 438.129 435.125 438.253 435.112 438.371C435.096 438.518 435.053 438.661 435.006 438.677C434.775 438.749 434.415 438.96 433.968 439.463C433.131 440.401 433.173 439.288 432.134 439.714C431.093 440.142 430.374 441.121 429.287 440.344C428.207 439.569 427.583 442.32 426.129 440.566C425.871 440.249 425.64 440.085 425.424 440.027C425.02 440.345 424.839 440.334 424.669 440.235C424.028 440.711 423.389 441.759 422.345 441.857C420.577 442.018 418.739 440.081 417.707 440.027C417.504 440.017 417.283 440.01 417.053 440.002C416.381 439.98 415.612 439.932 414.845 439.714C414.648 439.77 414.462 439.807 414.291 439.846C414.024 439.909 413.783 440.011 413.602 440.339C412.873 441.651 412.557 442.156 411.651 441.375C410.752 440.594 410.256 442.322 409.706 442.104C409.34 441.953 409.247 441.445 408.357 441.318C407.922 441.254 407.295 441.284 406.322 441.456C403.976 441.85 402.391 441.834 400.888 441.569C400.756 441.579 400.587 441.581 400.418 441.583C400.013 441.583 399.317 441.231 398.5 440.906C397.772 440.613 396.939 440.34 396.156 440.358C395.243 440.378 393.846 440.127 392.597 439.979C391.631 439.866 390.714 439.831 390.126 440.007C389.445 440.21 389.147 440.007 388.876 439.658C388.044 439.643 387.225 439.631 386.42 439.601C386.293 439.596 386.167 439.586 386.041 439.581C385.753 439.846 385.418 440.066 384.996 440.117C384.891 440.148 384.792 440.139 384.69 440.083C384.426 439.948 384.207 439.711 383.99 439.458C383.774 439.441 383.554 439.428 383.336 439.406C382.81 439.353 382.281 439.289 381.666 439.175C381.345 439.113 381.027 439.049 380.59 438.915C380.283 438.769 379.999 438.784 379.415 438.403C378.991 438.357 378.631 438.381 378.407 438.621C377.792 439.276 377.578 437.412 376.659 437.887C375.74 438.365 375.14 438.165 374.249 437.617C373.57 437.201 371.881 436.913 370.734 437.159C370.375 437.237 370.066 437.365 369.864 437.561C369.58 437.834 369.272 437.878 368.957 437.817C366.312 439.352 363.606 440.862 360.85 442.056C360.201 442.337 359.522 442.632 358.827 442.932C357.847 443.353 356.927 443.764 355.664 444.266C355.492 444.333 355.321 444.401 355.042 444.498C354.89 444.548 354.745 444.603 354.378 444.692C354.145 444.728 354.064 444.824 353.125 444.805C352.878 444.788 352.627 444.76 352.218 444.64C351.723 444.494 351.068 444.165 350.594 443.628C349.633 442.564 349.829 441.316 349.876 441.119C350.008 440.67 350.121 440.397 350.204 440.22C350.18 440.231 350.157 440.25 350.131 440.263C349.94 440.341 349.688 440.436 349.292 440.523C349.076 440.566 348.916 440.604 348.502 440.627C348.001 440.649 347.286 440.607 346.493 440.287C345.72 440.005 344.883 439.253 344.601 438.797C344.278 438.329 344.115 437.884 344.033 437.529C343.876 436.836 343.969 436.334 343.98 436.236C344.106 435.524 344.216 435.4 344.268 435.257C344.651 434.513 344.653 434.626 344.776 434.442C344.961 434.212 345.111 434.042 345.266 433.866C345.566 433.528 345.866 433.195 346.145 432.868C346.705 432.212 347.214 431.549 347.61 430.875C347.774 430.594 347.975 430.279 348.206 429.938C349.874 427.466 352.895 423.888 353.714 422.027C354.642 419.917 355.696 420.57 357.425 419.481C359.153 418.394 357.466 415.604 359.238 414.053C359.448 413.87 359.656 413.717 359.86 413.586C360.441 411.658 360.91 410.155 361.325 408.669C361.218 407.898 361.048 407.01 360.736 405.968C360.072 403.768 359.277 401.897 358.564 400.095C357.34 396.183 356.76 394.845 355.853 390.745C355.804 390.529 355.748 390.328 355.681 390.126C355.402 389.325 355.036 388.659 354.615 388.081C354.503 387.982 354.375 387.88 354.252 387.764C354.113 387.641 353.966 387.514 353.82 387.386C353.174 386.817 352.584 386.229 352.038 385.64C350.912 384.796 349.678 383.955 348.486 382.743C347.82 382.116 347.088 381.272 346.382 380.175C346.028 379.623 345.675 379.004 345.324 378.286C345.148 377.927 344.972 377.543 344.781 377.104C344.683 376.88 344.586 376.649 344.448 376.341C344.378 376.184 344.296 376.012 344.142 375.693C344.02 375.389 343.998 375.618 343.5 374.099C343.413 373.753 343.292 373.303 343.3 372.457C343.339 371.953 343.263 371.752 343.662 370.559C343.697 370.437 343.752 370.312 343.811 370.181C341.981 367.324 339.564 363.885 337.591 360.959C337.327 360.843 337.048 360.723 336.768 360.585C334.01 359.232 331.174 357.311 328.592 355.471L324.706 352.676C323.357 351.718 322.166 350.918 321.183 350.403C317.679 348.568 312.94 346.275 308.28 343.31C308.05 343.163 307.809 343.01 307.568 342.864C307.516 342.832 307.372 342.757 307.325 342.723C302.677 339.489 296.932 335.989 292.941 332.005C292.83 331.895 292.716 331.784 292.605 331.674C290.304 329.497 287.774 326.491 285.827 324.837C284.978 324.175 284.222 323.543 283.523 322.968C281.52 322.519 279.415 322.114 277.024 321.587C276.721 321.519 276.401 321.45 276.091 321.378C270.272 320.03 262.809 319.97 256.374 318.609C254.547 318.222 252.498 317.815 250.402 317.431C245.102 316.456 239.427 315.643 236.334 315.117C232.015 314.389 230.948 314.234 226.747 314.517C225.781 314.583 224.654 314.588 223.494 314.517C221.744 314.41 219.882 314.13 218.208 313.66C216.809 313.27 217.126 312.743 218.555 312.506C220.641 312.16 222.35 312.427 223.43 311.781C223.467 311.76 223.505 311.736 223.541 311.715C225.622 310.472 226.577 310.006 229.233 310.812C231.933 311.635 233.273 309.935 234.858 310.182C236.447 310.45 236.366 311.404 244.504 311.038C247.003 310.938 249.166 310.904 251.049 310.907C255.308 310.916 258.117 311.091 260.257 311.199C261.131 311.241 262.254 311.418 263.526 311.645C262.487 310.16 261.836 308.386 261.043 307.779C260.838 307.622 260.609 307.453 260.379 307.287L260.58 307.462C259.375 306.684 257.962 305.705 256.927 304.31C255.666 302.611 252.975 301.43 251.946 299.223C251.111 297.434 250.036 295.019 249.652 293.163C249.572 292.761 249.525 292.4 249.506 292.103C249.432 290.465 249.473 290.14 248.694 288.828C248.26 288.073 248.269 286.835 249.084 285.875C249.498 285.396 250.084 285.538 250.38 285.942C250.817 286.536 250.63 287.068 251.408 287.276C252.974 287.672 253.552 287.709 252.936 288.606C252.354 289.54 254.325 289.293 254.275 289.709C254.248 290.022 253.685 290.336 254.086 291.07C254.233 291.332 254.548 291.669 255.134 292.069C257.266 293.492 258.434 294.352 259.236 294.922C260.038 295.484 260.732 297.522 262.167 298.392C263.342 299.112 265.079 300.873 266.436 301.632C266.487 301.66 266.599 301.781 266.651 301.816C266.939 302.012 267.215 302.175 267.457 302.276C268.911 302.885 267.974 303.679 268.248 304.887C268.518 306.094 271.469 304.771 272.102 305.967C272.727 307.161 271.651 308.333 273.024 309.151C274.4 309.966 274.691 311.724 275.685 311.758C276.674 311.786 275.238 313.14 276.276 313.504C276.506 313.585 276.693 313.681 276.851 313.783C277.404 313.855 277.985 313.931 278.584 314.02C281.928 314.501 286.485 315.409 289.647 316.371C289.743 316.393 290.015 316.504 290.112 316.537C291.783 317.172 293.263 317.765 294.323 318.113C298.295 319.441 297.636 320.457 300.158 322.47C302.153 324.075 304.975 323.563 307.694 324.368C308.332 324.54 309.022 324.825 309.692 325.253C312.957 327.348 312.664 328.93 316.846 330.628C321.028 332.324 324.483 335.223 326.602 335.569C328.709 335.909 327.898 337.648 330.649 338.54C333.405 339.434 334.809 340.409 336.695 342.042C337.642 342.862 339.761 344.239 342 345.479C342.255 345.5 342.455 345.535 342.6 345.548C343.162 345.649 343.431 345.751 343.657 345.829C344.087 345.989 344.31 346.102 344.516 346.202C344.912 346.399 345.187 346.552 345.459 346.702C345.806 346.896 346.128 347.079 346.441 347.255C347.073 346.615 347.501 346.436 347.796 346.281C348.35 346.023 348.671 345.961 348.684 345.955C348.811 345.921 348.9 345.901 348.973 345.886C349.118 345.856 349.202 345.845 349.27 345.834C349.569 345.792 349.577 345.796 349.649 345.788C349.767 345.777 349.828 345.772 349.899 345.767C350.033 345.756 350.149 345.747 350.269 345.738C350.501 345.72 350.728 345.702 350.954 345.684C351.407 345.649 351.856 345.612 352.305 345.575C353.208 345.5 354.104 345.422 355.005 345.339C356.678 345.206 358.034 345.114 359.769 345.159C359.955 345.13 360.142 345.121 360.335 345.14C360.466 345.153 360.587 345.172 360.703 345.195C360.923 345.206 361.149 345.218 361.383 345.234C361.571 345.251 361.795 345.279 362.087 345.344C362.233 345.377 362.397 345.421 362.582 345.482C362.661 345.507 362.786 345.553 362.935 345.615C363.735 345.49 364.539 345.35 365.338 345.188C365.791 345.096 366.251 344.996 366.682 344.892C366.815 344.86 366.947 344.824 367.071 344.791C366.979 344.825 366.841 344.883 366.605 344.992C366.535 345.026 366.51 345.036 366.371 345.11C366.215 345.194 366.021 345.304 365.75 345.497C365.916 345.483 366.086 345.472 366.257 345.46C366.4 345.431 366.543 345.401 366.687 345.371C367.274 345.183 367.875 344.907 368.446 344.501C369.939 343.416 370.692 341.578 372.4 339.548C372.876 338.869 373.463 336.983 374.029 335.601C374.251 335.014 374.438 334.468 374.597 333.959C375.143 332.342 376.47 329.415 377.454 326.299C377.269 325.365 377.072 324.549 376.711 324.051C375.779 322.739 374.321 321.128 373.332 319.102C373.294 319.024 373.249 318.943 373.206 318.865C372.116 316.917 369.59 315.373 368.467 313.169C367.526 311.301 366.047 308.894 364.998 307.263C364.904 307.115 364.816 306.972 364.73 306.837C364.607 306.729 364.485 306.624 364.366 306.52C364.283 306.473 364.194 306.427 364.109 306.377L364.192 306.416C363.501 306.035 362.738 305.548 361.911 304.93C360.988 304.244 360.154 303.74 359.385 303.354C358.797 303.259 358.189 303.002 357.604 302.631C354.611 301.714 352.194 302.382 347.542 300.72C342.689 298.99 337.408 295.909 333.39 293.83C331.922 293.072 330.645 292.459 329.591 292.078C327.967 291.49 326.599 291.049 324.288 290.291C321.491 289.268 318.089 288.165 314.669 286.561C314.001 286.249 313.301 285.939 312.587 285.63C308.261 283.726 302.805 282.177 298.107 278.901C297.464 278.438 296.794 277.943 296.152 277.43C292.867 274.867 288.77 271.296 285.863 268.065C284.19 266.229 282.74 264.587 281.752 263.409C279.085 260.215 278.425 259.445 275.179 256.974C273.865 255.954 272.392 254.559 271.205 252.815C270.753 252.097 270.348 251.348 270.077 250.563C269.829 249.896 270.064 249.493 270.314 249.592C270.53 249.563 270.831 249.736 271.337 250.169C271.911 250.662 272.424 251.161 272.888 251.608C273.566 252.234 274.249 252.778 275.01 252.928C277.533 253.408 278.567 253.633 279.845 255.895C281.138 258.163 283.419 257.742 284.382 258.881C285.289 259.949 284.604 260.657 289.791 264.437C290.122 264.676 290.483 264.924 290.865 265.179C296.942 269.203 300.564 270.889 303.273 272.447C303.344 272.485 303.418 272.523 303.488 272.56C305.636 273.79 310.597 277.044 315.311 278.594C315.549 278.674 315.799 278.766 316.06 278.859C317.534 279.4 319.387 280.054 321.378 280.765C321.452 280.369 320.009 280.434 320.135 280.165C320.276 279.857 321.406 279.547 320.07 278.39C319.226 277.694 318.686 277.265 318.306 276.961C318.079 276.779 317.897 276.622 317.73 276.497C317.307 276.173 317.493 274.764 316.591 274.207C315.733 273.667 314.627 271.996 313.588 271.736C312.568 271.481 313.525 270.723 313.567 269.797C313.602 268.87 310.847 270.376 310.546 269.471C310.251 268.578 311.352 267.525 310.462 266.953C310.368 266.896 310.225 266.612 310.141 266.546C310.124 266.532 310.103 266.518 310.083 266.504C309.239 265.906 309.642 264.534 308.808 264.489C307.972 264.439 309.726 263.431 308.982 263.121C308.237 262.808 308.258 262.354 308.548 261.588C308.638 261.349 308.659 261.02 308.618 260.68C308.596 260.658 308.568 260.571 308.548 260.551C308.495 259.71 308.298 258.806 307.621 258.521C306.632 258.093 307.866 257.111 308.106 256.657C308.18 256.514 308.299 256.387 308.429 256.284C308.484 256.24 308.616 256.201 308.744 256.175C308.901 256.144 309.06 256.136 309.096 256.169C309.244 256.343 309.585 256.585 310.257 256.798C311.509 257.178 310.324 257.525 311.127 258.166C311.629 258.548 312.307 258.689 312.655 258.929L312.518 258.687C312.79 258.881 312.956 259.161 312.928 259.624C312.864 260.85 315.669 259.609 314.995 261.663C314.568 263.002 315.617 262.892 316.76 262.965L316.386 262.496C316.975 262.409 317.595 262.35 318.069 262.623C319.403 263.392 319.513 265.903 320.292 266.518C321.077 267.128 322.296 267.895 322.891 269.243C323.462 270.56 325.512 271.528 325.7 273.394C325.71 273.501 325.717 273.613 325.726 273.724C325.803 274.545 325.791 275.425 325.731 276.236C326.036 276.319 326.327 276.35 326.686 276.161C328.149 275.406 328.772 275.154 329.232 276.318C329.669 277.469 331.145 276.263 331.556 276.739C331.943 277.222 331.321 278.052 334.376 279.033C336.548 279.746 337.938 280.368 338.94 280.84C339.337 281.025 339.666 281.176 339.968 281.314C340.993 281.778 342.294 283.768 344.01 284.48C345.718 285.198 348.619 287.362 350.24 287.716C351.852 288.073 351.14 289.022 351.791 290.223C352.095 290.778 352.797 290.708 353.726 290.726L353.604 290.64C354.493 290.469 355.468 290.182 355.944 290.749C356.819 291.784 356.088 293.162 357.694 293.679C358.65 293.981 359.337 294.68 359.961 295.16C360.382 295.484 360.776 295.705 361.178 295.622C362.172 295.415 361.228 297.083 362.401 297.194C363.576 297.297 364.026 297.795 364.551 298.736C364.724 299.05 365.106 299.443 365.579 299.825C366.112 300.038 366.588 300.195 367.012 300.246C367.197 300.268 367.364 300.304 367.509 300.346C367.526 300.353 367.569 300.375 367.587 300.383C367.796 300.45 367.971 300.539 368.12 300.638C368.228 300.431 368.342 300.174 368.441 299.857C368.763 298.84 369.26 299.152 369.843 298.926C369.977 298.855 370.12 298.743 370.25 298.543C370.763 297.74 370.707 296.812 371.455 296.281L371.213 296.503C371.567 296.169 371.869 296.016 372.251 295.887C373.711 295.459 372.746 293.834 373.885 293.242C374.068 291.816 374.41 290.167 374.254 289.192C374.145 288.555 374.364 288.221 374.724 287.972C374.904 287.848 375.127 287.742 375.373 287.607C375.494 287.544 375.626 287.461 375.772 287.356C375.799 287.335 375.819 287.308 375.846 287.286C375.819 285.487 375.841 283.9 375.941 282.648C375.95 282.491 375.959 282.335 375.967 282.185C376.031 281.132 376.084 280.24 376.126 279.441C375.596 275.081 375.386 271.128 375.673 267.322C375.706 267.131 375.719 266.91 375.835 266.561C375.895 265.415 376.008 264.229 376.199 263.064C376.359 262.101 376.563 261.149 376.853 260.243C377.046 259.356 377.793 259.065 377.611 259.443C378.017 259.341 377.99 259.864 378.119 260.721C378.208 261.564 378.245 262.359 378.276 263.101C378.288 263.381 378.3 263.654 378.313 263.916C378.951 263.65 379.708 263.492 380.385 263.49C379.945 262.048 379.516 260.615 379.072 259.203C378.892 258.636 378.699 258.044 378.551 257.632C378.521 257.546 378.481 257.444 378.518 257.514C378.616 257.622 378.332 257.425 379.21 258.436C379.346 258.569 379.525 258.725 379.789 258.914C379.677 258.22 379.562 257.517 379.452 256.771C379.418 256.361 379.316 256.308 379.377 255.247C379.39 255.15 379.394 255.058 379.458 254.816C379.595 254.573 379.346 254.37 380.479 253.25C380.668 252.991 381.387 252.684 382.156 252.531C382.654 252.157 383.307 251.802 384.121 251.612C385.632 251.247 387.053 251.635 387.774 251.992C388.53 252.361 388.883 252.693 389.139 252.932C390.002 253.856 389.934 254.005 390.068 254.211C390.098 254.277 390.117 254.335 390.136 254.377C390.259 254.331 390.413 254.287 390.604 254.257C390.567 254.095 390.536 253.929 390.5 253.766C390.367 253.173 390.22 252.529 390.088 251.897C390.019 251.563 389.963 251.274 389.893 250.885C389.844 250.471 389.735 250.404 389.757 249.227C389.782 248.969 389.788 248.764 389.919 248.267C389.96 248.13 390.002 247.971 390.146 247.667C390.248 247.476 390.285 247.333 390.657 246.89ZM356.598 443.438C356.557 443.495 356.512 443.569 356.619 443.453C356.654 443.409 356.684 443.365 356.771 443.229C356.707 443.307 356.644 443.375 356.598 443.438ZM378.771 432.39C378.795 432.404 378.822 432.414 378.846 432.427C378.908 432.373 378.963 432.32 379.019 432.275C378.936 432.312 378.854 432.352 378.771 432.39ZM389.641 428.624C389.567 428.636 389.492 428.652 389.419 428.665C389.26 428.743 389.105 428.823 388.954 428.898C389.529 428.767 390.082 428.629 390.621 428.513C390.607 428.492 390.597 428.467 390.583 428.443C390.259 428.501 389.957 428.568 389.641 428.624ZM312.18 336.561L311.928 336.41C314.643 337.746 318.15 339.726 321.168 341.336C321.279 341.186 321.4 341.047 321.528 340.922C321.673 340.787 321.814 340.667 321.952 340.561L320.266 339.236C317.023 336.844 314.903 336.957 311.912 336.405C312 336.457 312.09 336.509 312.18 336.561ZM376.462 305.593C376.547 305.748 376.673 305.886 376.947 305.99C376.984 306.004 377.023 306.019 377.058 306.033C377.055 306 377.056 305.966 377.053 305.933C376.998 305.893 376.943 305.845 376.879 305.806C376.762 305.715 376.617 305.648 376.462 305.593ZM372.816 300.294C372.204 300.644 371.665 301.064 371.397 301.499C371.386 301.507 371.345 301.521 371.334 301.528C371.317 301.556 371.301 301.59 371.288 301.619C371.098 302.022 370.765 302.146 370.386 302.149C370.603 302.498 370.797 302.852 370.975 303.094C371.074 303.131 371.173 303.183 371.283 303.218C372.042 303.463 372.704 303.723 373.301 303.999C373.291 303.798 373.267 303.567 373.221 303.307C373.14 302.862 373.08 302.456 373.026 302.086C372.325 301.289 372.112 300.954 372.879 300.899C372.857 300.683 372.832 300.481 372.816 300.294ZM375.414 289.836C375.355 289.691 375.199 290.01 375.482 290.739C375.538 290.879 375.614 291.002 375.694 291.109C375.732 290.972 375.767 290.833 375.805 290.697C375.622 290.327 375.449 290.006 375.414 289.836ZM400.377 269.13C400.284 269.546 400.16 270 399.96 270.497C399.896 270.666 399.801 270.865 399.685 271.084C399.171 274.286 399.041 277.211 399.091 279.672C399.146 279.562 399.181 279.498 399.195 279.459C399.191 279.483 399.19 279.514 399.185 279.545C399.156 279.768 399.13 279.995 399.101 280.217C399.132 281.199 399.186 282.104 399.258 282.913C399.367 283.864 399.473 284.756 399.571 285.601C399.845 284.34 400.112 283.19 400.345 282.317C400.359 282.225 400.373 282.135 400.387 282.047C400.691 280.203 400.881 279.009 400.961 277.874C400.924 277.635 400.874 277.373 400.814 277.083C400.67 276.376 400.685 275.505 400.893 274.624C400.86 274.227 400.838 273.795 400.789 273.322C400.664 272.129 400.676 270.69 400.845 269.215C400.723 269.189 400.57 269.16 400.377 269.13ZM325.321 278.659C324.949 279.735 324.852 279.957 325.42 280.799C325.658 281.154 325.669 281.684 325.331 282.204C325.491 282.262 325.652 282.32 325.811 282.378C325.846 282.261 325.88 282.145 325.916 282.034C325.994 281.789 326.078 281.561 326.163 281.38C326.438 280.775 326.521 280.661 325.996 280.632C325.724 280.638 325.551 280.113 326.312 279.516C326.616 279.39 327.017 279.445 327.318 279.445C327.034 279.312 326.693 279.19 326.243 279.062C325.939 278.974 325.628 278.831 325.326 278.636L325.321 278.659Z" fill="url(#paint0_linear_1732_1630)"/>
<path d="M367.51 344.667C367.468 344.684 367.381 344.709 367.293 344.734C367.224 344.754 367.148 344.771 367.071 344.791C367.166 344.756 367.211 344.746 367.259 344.728C367.438 344.671 367.457 344.671 367.492 344.662C367.544 344.652 367.528 344.659 367.51 344.667Z" fill="url(#paint1_linear_1732_1630)"/>
<path d="M600.294 232.123C608.166 381.905 485.754 401.51 399.191 316.816C226.944 438.367 116.778 357.595 128.142 208.597C128.142 68.2721 166.613 12.5472 338.856 0C513.73 8.62618 600.294 81.5567 600.294 232.123Z" fill="url(#paint2_linear_1732_1630)"/>
<mask id="mask0_1732_1630" style="mask-type:alpha" maskUnits="userSpaceOnUse" x="0" y="33" width="745" height="397">
<path d="M742.234 267.255C768.967 454.32 536.64 480.459 410.992 329.368C-62.2205 623.156 3.05153 191.916 3.05153 69.3974C49.8352 209.699 200.88 222.883 200.88 222.883C200.88 222.883 382.668 280.441 421.431 33.4238C421.431 379.974 680.747 330.809 742.234 267.255Z" fill="#9E9E9E"/>
</mask>
<g mask="url(#mask0_1732_1630)">
<path d="M596.796 232.123C604.668 381.905 496.318 432.093 409.754 347.4C237.507 468.951 108.727 342.707 128.311 203.048C147.777 64.2278 163.116 12.5472 335.359 0C510.233 8.62619 596.796 81.5567 596.796 232.123Z" fill="#59843A"/>
</g>
<defs>
<linearGradient id="paint0_linear_1732_1630" x1="351.957" y1="245.621" x2="351.957" y2="444.808" gradientUnits="userSpaceOnUse">
<stop offset="0.583938" stop-color="#493638"/>
<stop offset="1" stop-color="#6B522B"/>
</linearGradient>
<linearGradient id="paint1_linear_1732_1630" x1="351.957" y1="245.621" x2="351.957" y2="444.808" gradientUnits="userSpaceOnUse">
<stop offset="0.583938" stop-color="#493638"/>
<stop offset="1" stop-color="#6B522B"/>
</linearGradient>
<linearGradient id="paint2_linear_1732_1630" x1="363.997" y1="-5.84174e-06" x2="283.396" y2="194.891" gradientUnits="userSpaceOnUse">
<stop stop-color="#BDBC51"/>
<stop offset="1" stop-color="#7A9E36"/>
</linearGradient>
</defs>
</svg>
