<?xml version="1.0" encoding="UTF-8" standalone="no"?>
<!-- Created with Inkscape (http://www.inkscape.org/) -->

<svg
   version="1.1"
   id="svg2"
   xml:space="preserve"
   width="599.96002"
   height="243.2"
   viewBox="0 0 599.96002 243.2"
   xmlns="http://www.w3.org/2000/svg"
   xmlns:svg="http://www.w3.org/2000/svg"><defs
     id="defs6" /><g
     id="g8"
     transform="matrix(1.3333333,0,0,-1.3333333,0,243.2)"><g
       id="g10"
       transform="scale(0.1)"><path
         d="m 2216.38,890.129 h -156.65 c -12.42,0 -21.2,12.148 -17.28,23.941 l 62.21,187.6 c 15.57,44.54 33.39,122.47 33.39,122.47 h 2.23 c 0,0 16.7,-77.93 31.17,-122.47 l 62.21,-187.604 c 3.91,-11.789 -4.87,-23.937 -17.28,-23.937 z m 1.66,458.801 c -2.56,7.28 -9.44,12.15 -17.17,12.15 h -124.53 c -7.72,0 -14.61,-4.87 -17.17,-12.15 L 1793.66,594.852 c -4.17,-11.852 4.62,-24.262 17.17,-24.262 h 109.19 c 7.87,0 14.84,5.051 17.3,12.512 l 58.55,177.617 c 2.46,7.461 9.44,12.511 17.29,12.511 h 250.89 c 7.86,0 14.83,-5.05 17.29,-12.511 l 58.56,-177.617 c 2.47,-7.461 9.44,-12.512 17.3,-12.512 h 109.19 c 12.55,0 21.34,12.41 17.17,24.262 l -265.52,754.078"
         style="fill:#312050;fill-opacity:1;fill-rule:nonzero;stroke:none"
         id="path12" /><path
         d="m 3221.65,677.469 c -92.42,0 -169.24,71.25 -169.24,177.027 0,104.656 76.82,177.034 169.24,177.034 91.29,0 168.12,-72.378 168.12,-177.034 0,-105.777 -76.83,-177.027 -168.12,-177.027 z m -1.11,474.301 c -172.58,0 -311.76,-123.59 -311.76,-297.274 0,-174.797 139.18,-297.266 312.87,-297.266 172.56,0 311.74,122.469 311.74,297.266 0,173.684 -139.18,297.274 -312.85,297.274"
         style="fill:#312050;fill-opacity:1;fill-rule:nonzero;stroke:none"
         id="path14" /><path
         d="m 2834.59,689.859 c -2.08,-0.089 -4.31,-0.14 -6.66,-0.14 -38.97,0 -112.45,13.363 -112.45,106.883 v 193.214 c 0,10.086 8.18,18.254 18.26,18.254 h 92.64 c 10.08,0 18.26,8.17 18.26,18.26 v 75.94 c 0,10.08 -8.18,18.25 -18.26,18.25 h -92.64 c -10.08,0 -18.26,8.18 -18.26,18.26 l 0.04,101.93 c 0,10.08 -8.18,18.25 -18.26,18.25 l -101.58,-2.25 c -10.08,0 -18.24,-8.17 -18.24,-18.25 v -99.68 c 0,-10.08 -8.18,-18.26 -18.26,-18.26 h -40.32 c -10.09,0 -18.26,-8.17 -18.26,-18.25 v -75.94 c 0,-10.09 8.17,-18.26 18.26,-18.26 h 36.97 c 10.09,0 18.26,-8.168 18.26,-18.254 V 778.789 c 0,-190.391 156.98,-213.769 236.03,-213.769 10.66,0 19.73,0.531 26.77,1.171 9.44,0.86 16.65,8.719 16.65,18.188 v 87.25 c 0,10.383 -8.58,18.66 -18.95,18.23"
         style="fill:#312050;fill-opacity:1;fill-rule:nonzero;stroke:none"
         id="path16" /><path
         d="m 4388.99,1102.5 c -39.91,27.07 -88.54,43.08 -140.26,43.05 h -9.13 c -34.44,0.02 -67.62,-7.08 -97.64,-19.85 -24.2,-10.29 -46.33,-24.24 -65.86,-41.12 -6.99,-6.03 -17.3,-5.81 -24.12,0.39 -8.81,8 -18.17,15.39 -28.06,22.09 -39.9,27.07 -88.53,43.08 -140.24,43.06 h -9.13 c -34.45,0.01 -67.63,-7.08 -97.65,-19.86 -45.09,-19.17 -83.19,-50.9 -110.27,-90.86 -27.08,-39.92 -43.08,-88.541 -43.06,-140.255 V 588.84 c 0,-10.078 8.17,-18.25 18.25,-18.25 h 109.51 c 10.09,0 18.26,8.172 18.26,18.25 v 310.305 c 0.01,14.496 2.93,28.031 8.23,40.546 7.94,18.739 21.47,35.059 38.34,46.461 16.91,11.399 36.7,17.918 58.39,17.938 h 9.13 c 14.49,0 28.02,-2.92 40.54,-8.223 18.74,-7.937 35.06,-21.469 46.46,-38.34 11.4,-16.914 17.92,-36.699 17.94,-58.382 V 894.574 588.84 c 0,-10.078 8.17,-18.25 18.26,-18.25 h 109.51 c 10.09,0 18.26,8.172 18.26,18.25 v 305.734 c 0,14.5 2.92,28.043 8.24,40.555 7.92,18.738 21.46,35.055 38.33,46.457 16.91,11.406 36.68,17.926 58.38,17.945 h 9.13 c 14.5,-0.008 28.03,-2.926 40.55,-8.23 18.74,-7.934 35.06,-21.465 46.46,-38.332 11.4,-16.922 17.92,-36.699 17.95,-58.395 V 588.84 c 0,-10.078 8.17,-18.25 18.25,-18.25 h 109.51 c 10.09,0 18.25,8.172 18.25,18.25 v 305.734 c 0.01,34.449 -7.08,67.621 -19.84,97.653 -19.18,45.083 -50.91,83.193 -90.87,110.273"
         style="fill:#312050;fill-opacity:1;fill-rule:nonzero;stroke:none"
         id="path18" /><path
         d="m 843.184,1625.07 c 0.277,4.65 0.41,8.62 0.41,11.17 0.047,13.75 -1.535,27.35 -4.649,40.8 -0.687,3.18 -1.535,6.48 -2.476,9.85 -3.496,11.84 -6.942,21.15 -11.739,30.79 -4.976,9.46 -8.984,16.25 -13.199,22.46 -0.843,1.22 -1.683,2.29 -2.523,3.46 -3.68,5.12 -7.379,9.86 -11.153,14.2 -1.277,1.49 -2.558,3.06 -3.886,4.5 -4.492,4.85 -8.856,9.09 -13.035,12.84 -1.258,1.13 -2.481,2.19 -3.731,3.27 -5.23,4.45 -9.832,7.97 -13.633,10.63 -2.398,1.64 -3.113,2.17 -3.625,2.51 -1.449,0.92 -2.828,1.65 -4.261,2.52 -4.059,2.54 -8.012,4.98 -11.84,7.05 -6.028,3.16 -11.031,5.54 -15.75,7.51 -5.844,2.44 -10.516,4.17 -14.602,5.48 -2.676,0.88 -3.984,1.35 -4.898,1.6 -1.227,0.35 -2.453,0.57 -3.703,0.9 -4.286,1.19 -8.477,2.24 -12.559,3.08 -1.199,0.25 -2.426,0.51 -3.621,0.72 -4.238,0.8 -8.324,1.43 -12.258,1.9 -3.312,0.42 -6.582,0.74 -9.875,0.99 -2.73,0.2 -5.461,0.4 -8.015,0.5 -2.172,0.08 -4.364,0.17 -6.532,0.17 -10.851,0.1 -20.648,-0.74 -31.113,-2.44 l -2.73,-0.47 c -15.75,-2.79 -32.977,-7.82 -49.958,-15.66 -2.878,-1.27 -5.332,-2.47 -8.242,-3.99 l -2.726,-1.47 c -3.348,-1.81 -7.254,-4.08 -11.563,-6.83 -9.347,-6.09 -18.742,-13.09 -28.113,-21.75 -1.094,-1.04 -2.082,-2.02 -3.106,-2.99 -1.125,-1.12 -2.273,-2.12 -3.398,-3.28 -5.227,-5.71 -8.547,-9.39 -11.277,-12.61 -1.254,-1.44 -2.227,-2.9 -3.399,-4.37 -5.004,-6.53 -8.422,-11.48 -11.359,-16.42 -1.914,-3.15 -3.086,-5.3 -4.262,-7.47 -3.648,-6.58 -6.512,-12.35 -8.191,-16.03 -1.633,-3.67 -3.27,-7.4 -4.824,-10.94 -10.368,-23.7 -22.512,-51.37 -32.625,-74.45 -0.84,-1.92 -1.782,-4.09 -2.579,-5.92 -0.664,-1.52 -1.429,-3.29 -2.136,-4.91 -3.653,-8.34 -7.715,-17.58 -11.617,-26.54 -2.325,-5.25 -4.571,-10.39 -6.559,-14.96 -1.508,-3.42 -3.215,-7.33 -4.824,-10.99 -11.719,-26.74 -25.731,-58.73 -36.684,-83.75 -10.742,-24.57 -24.422,-55.77 -36.137,-82.56 -2.203,-5.03 -4.468,-10.23 -6.515,-14.87 -3.723,-8.51 -8.164,-18.62 -12.504,-28.53 -3.266,-7.45 -6.481,-14.82 -9.285,-21.21 -6.133,-13.98 -13.203,-30.17 -20.348,-46.44 -4.746,-10.86 -9.492,-21.7 -14.062,-32.16 -3.524,-8.03 -6.95,-15.85 -10.082,-23.02 -3.243,-7.42 -6.79,-15.49 -10.418,-23.78 -11.766,-26.87 -24.911,-56.9 -35.43,-80.89 -0.813,-1.84 -1.731,-3.98 -2.602,-5.94 -6.636,-15.17 -14.597,-33.32 -20.824,-47.54 -11.027,-25.19 -24.863,-56.75 -37.191,-84.935 -3.727,-8.492 -7.352,-16.781 -10.696,-24.41 -10.515,-23.996 -23.48,-53.601 -35.425,-80.925 -0.868,-1.965 -1.739,-3.938 -2.579,-5.872 -3.953,-9.031 -7.7847,-17.8 -11.3355,-25.867 C 87.7578,829.477 77.625,806.441 70.0742,789.129 54.5742,753.77 33.9258,706.59 18.4375,671.199 13.8164,659.691 10.625,651.328 8.07031,642.238 5.28906,632.629 3.40234,622.82 1.27734,607.199 0.339844,599.641 -0.121094,591.898 0.0273438,586.07 0.136719,574.891 0.746094,563.859 2.30078,552.898 c 0.38281,-3.339 1.6836,-11.867 4.75,-23.527 1.1211,-4.5 2.42578,-8.949 4.20702,-14.191 1.6914,-4.828 2.711,-7.68 3.957,-11.008 4.1172,-10.961 9.4961,-21.024 13.7344,-28.371 2.9102,-5 4.5469,-7.68 5.4883,-9.231 1.5039,-2.39 3.7734,-5.582 5.9492,-8.672 2.6485,-3.777 5.8906,-7.82 9.543,-12.238 0.9492,-1.148 1.8906,-2.379 2.832,-3.469 2.0196,-2.359 4.2383,-4.679 6.5391,-7.14 3.7226,-3.961 7.375,-7.602 10.9531,-10.942 1.0938,-0.988 1.9883,-1.937 3.1328,-2.929 11.2578,-10.078 21.2891,-17.039 27.5933,-21 7.934,-4.828 13.911,-8.309 19.426,-11.078 12.504,-6.25 25.52,-11 25.649,-11.02 1.531,-0.551 2.988,-0.781 4.492,-1.281 32.164,-10.91 59.574,-12.469 75.906,-11.891 1.613,0.031 2.867,0.192 4.246,0.238 4.16,0.204 8.469,0.532 12.938,0.954 5.254,0.5 10.211,1.117 15.035,1.886 3.266,0.524 6.508,1.024 9.902,1.692 3.574,0.75 6.739,1.59 10.004,2.441 2.27,0.57 4.516,1.098 6.871,1.77 5.102,1.488 9.649,2.988 13.828,4.531 6.434,2.367 10.903,4.18 14.344,5.75 l 2.453,1.219 c 1.684,0.781 3.399,1.648 5.106,2.488 4.289,2.109 8.32,4.262 12.148,6.402 1.203,0.668 2.375,1.289 3.574,2 6.434,3.75 12.078,7.41 17.102,10.949 14.164,10.11 22.586,18.11 26.676,22.391 9.011,9.109 14.418,15.508 16.234,17.848 4.106,5.082 7.965,10.359 12.813,17.633 1.218,1.847 2.347,3.539 3.628,5.48 2.395,3.918 3.954,6.566 5.379,9.18 0.688,1.277 1.329,2.519 1.993,3.808 0.738,1.45 1.503,2.918 2.191,4.371 3.629,7.399 6.617,14.34 8.66,19.469 l 122.695,325.895 c 93.977,249.805 194.981,518.205 277.168,736.635 l 1.555,4.74 c 5.516,16.75 5.848,18.27 7.863,29.8 0.969,5.62 1.559,10.73 1.969,15.43 0.149,1.72 0.227,3.45 0.356,5.16"
         style="fill:#f8d722;fill-opacity:1;fill-rule:evenodd;stroke:none"
         id="path20" /><path
         d="m 1367.24,287.809 c -1.03,12.953 -3.91,30.089 -6.74,42.793 -2.24,10.097 -6.87,23.148 -10.13,32.957 -2.88,7.632 -6.06,16.062 -9.22,24.453 -10,26.5 -20.93,55.429 -31.05,82.277 -3.79,10.063 -7.53,19.922 -10.91,28.941 -7.37,19.52 -17.22,45.61 -24.59,65.129 -10.37,27.481 -23.25,61.59 -34.98,92.661 -4.31,11.468 -8.5,22.57 -12.31,32.679 -10.2,26.981 -22.93,60.75 -34.38,91.082 -3.71,9.778 -7.27,19.25 -10.55,27.969 -3.41,9.059 -7.45,19.68 -11.43,30.258 -3.59,9.492 -7.14,18.933 -10.23,27.07 -12.51,33.172 -29.2,77.375 -41.7,110.531 -11.93,31.601 -27.82,73.721 -39.75,105.341 -5.76,15.25 -13.44,35.59 -19.2,50.87 -8.12,21.5 -18.19,48.22 -27.39,72.56 -3.38,9 -6.67,17.69 -9.65,25.66 -10.65,28.15 -24.811,65.67 -35.436,93.85 -5.141,13.61 -12.008,31.78 -17.145,45.39 -2.433,6.43 -5.062,13.41 -7.793,20.65 -5.695,15.12 -11.832,31.39 -17.543,46.54 -2.73,7.24 -5.367,14.2 -7.8,20.66 l 0.054,-0.17 -0.078,0.17 c -4.508,10.92 -7.871,19.11 -14.008,29.86 l -0.347,0.69 c -1.258,2.25 -2.934,4.8 -4.489,7.27 -0.726,1.15 -1.254,2.1 -2.031,3.33 l -0.223,0.3 c -3.113,4.72 -6.343,9.39 -9.351,13.22 l -2.402,2.67 c -6.59,8.23 -13.208,15.63 -19.528,21.58 l -2.207,1.91 c -8.992,8.2 -17.269,14.5 -23.109,18.83 l -0.074,0.04 -0.071,0.05 c -6.121,4.51 -17.547,11.65 -33.707,18.84 -1.832,0.84 -3.664,1.76 -5.469,2.5 -1.449,0.61 -3.183,1.18 -4.71,1.78 -5.262,2.05 -10.422,3.93 -15.438,5.46 -1.152,0.37 -2.031,0.77 -3.207,1.14 -8.895,2.71 -17.574,4.47 -25.586,5.71 l -0.379,0.07 c -3.609,0.54 -7.09,0.99 -10.351,1.34 -9.68,1.06 -17.793,1.32 -23.258,1.25 h -0.375 c -2.531,0.03 -9.727,-0.04 -19.801,-0.99 -1.777,-0.17 -3.535,-0.33 -5.215,-0.53 l -2.258,-0.26 -2.425,-0.34 -2.887,-0.42 c -2.676,-0.43 -5.383,-0.89 -7.715,-1.31 l -1.055,-0.25 c -3.734,-0.72 -7.168,-1.49 -10.375,-2.32 l -1.101,-0.25 c -6.242,-1.28 -13.785,-3.88 -20.778,-6.58 -1.129,-0.38 -2.105,-0.74 -3.312,-1.13 -4.481,-1.58 -10.324,-4.27 -16.488,-7.37 -3.856,-1.9 -7.418,-3.7 -11,-5.73 l -0.227,-0.15 c -2.355,-1.34 -4.914,-2.77 -6.691,-3.8 -2.078,-1.24 -4.914,-3.05 -8.196,-5.3 l -1.328,-0.95 c -3.23,-2.25 -6.742,-4.83 -10.551,-7.79 l -1.25,-0.95 c -0.933,-0.73 -2.308,-2 -3.39,-2.88 -6.289,-5.17 -12.727,-10.88 -18.617,-17.26 -2.407,-2.59 -4.11,-4.85 -6.215,-7.32 -3.489,-3.94 -6.918,-8.1 -10.43,-12.84 -3.859,-5.19 -7.144,-10.04 -9.898,-14.56 l -1.68,-2.48 c -0.652,-1.1 -1.023,-2.09 -1.648,-3.19 -3.086,-5.46 -5.821,-10.62 -8.125,-15.24 -0.555,-1.1 -1.106,-2.51 -1.653,-3.74 l -0.73,-1.6 c -2.453,-5.59 -4.91,-11.72 -6.512,-16.91 l -0.301,-1.09 c -4.238,-12.93 -6.344,-23.58 -7.719,-30.9 l -0.203,-1.47 c -0.675,-4.67 -1.504,-10.98 -2.101,-18.52 -0.656,-7.44 -0.91,-14.38 -0.504,-23.2 v -0.63 c 0.449,-9.86 1.152,-16.48 2.332,-23.48 1.152,-7.11 2.629,-13.67 4.406,-21.28 l 0.199,-0.83 0.082,-0.4 301.024,-1125.07 -0.028,0.18 0.028,-0.11 v -0.089 c 6.719,-24.45 14.082,-40.34 16.191,-44.672 C 859.395,138.32 869.57,121.441 879,109.77 892.281,93.3906 901.879,81.5586 921.902,64.7617 945.16,45.3203 965.938,34.5195 973.754,30.4609 1021.78,5.5 1079.59,-4.80859 1132.37,2.10938 c 11.81,1.5625 43.14,5.66015 80.33,22.81252 35.59,16.3867 57.37,35.6367 69.1,45.9883 24.14,21.4218 42.15,48.5898 52.96,67.6208 17.29,30.367 24.43,60.801 27.44,73.789 5.06,21.559 6.99,50.481 5.04,75.489"
         style="fill:#57467b;fill-opacity:1;fill-rule:evenodd;stroke:none"
         id="path22" /><path
         d="m 1298.48,967.656 0.05,0.453 c 0.57,6.825 0.98,14.024 1.05,21.957 l -0.02,0.977 -0.05,2.406 c 0,5.614 -0.21,11.011 -0.54,16.221 -0.13,2.21 -0.28,4.28 -0.46,6.36 -0.27,3.05 -0.57,5.95 -0.93,8.82 -0.31,2.63 -0.6,5.21 -0.93,7.6 l -0.08,0.49 c -0.8,5.21 -1.6,9.65 -2.4,13.41 -2.65,13.19 -5.59,22.75 -7.01,26.97 -0.7,2.07 -1.67,4.79 -2.53,7.23 -5.46,16.26 -11.21,28.81 -17.45,40.16 -1.14,2.11 -2.37,4.27 -3.64,6.47 -3.63,6.26 -7.44,12.38 -11.49,18.8 -0.05,0.13 -6.7,10.25 -17.35,23.03 l -2.04,2.46 c -1.34,1.57 -2.78,3.19 -4.25,4.84 -2.22,2.5 -4.36,4.86 -6.42,7.07 -1.03,1.08 -2.01,2.13 -2.96,3.1 -11.09,11.42 -19.7,18.43 -22.51,20.61 l -0.18,0.15 c -0.11,0.07 -6.24,5.23 -15.91,12.15 -7.09,5.32 -11.34,8.09 -19.59,13.08 l -0.7,0.39 -0.64,0.42 c -2.92,1.75 -6.12,3.54 -9.49,5.32 -14.72,8.14 -26.14,13.01 -29.72,14.45 h -0.03 c -10.42,4.67 -29.45,10.84 -47.02,15.24 -1.17,0.29 -2.32,0.56 -3.48,0.84 -6.89,1.64 -13.36,2.96 -18.95,3.75 -4.98,0.83 -9.85,1.35 -14.72,1.89 -2.32,0.27 -4.33,0.47 -6.65,0.71 -1.55,0.15 -3.13,0.42 -4.65,0.52 -1.62,0.1 -3.4,0.14 -5.07,0.25 -1.86,0.11 -4,0.38 -5.7,0.44 -4.28,0.04 -10.08,0.11 -16.321,0.1 -2.113,-0.03 -4.148,0 -6.344,-0.06 -9.535,-0.17 -19.925,-0.66 -29.339,-1.98 l -2.321,-0.34 c -9.613,-1.21 -19.636,-3 -30.105,-5.41 -4.953,-1.09 -9.75,-2.21 -14.027,-3.42 -17.942,-5.08 -19.028,-5.58 -47.54,-17.54 l -0.105,-0.05 0.105,0.07 -528.472,-245.86 -0.442,-0.25 -1.515,-0.79 c -4.309,-2.152 -8.301,-4.246 -12.09,-6.277 -3.066,-1.617 -6.008,-3.25 -8.789,-4.871 l -0.34,-0.223 c -3.148,-1.84 -6.238,-3.773 -9.383,-5.91 l -1.832,-1.211 c -2.32,-1.621 -4.722,-3.332 -7.301,-5.281 -1.203,-0.903 -2.316,-1.621 -3.578,-2.578 -1.058,-0.832 -1.937,-1.715 -2.968,-2.536 -2.989,-2.378 -6.157,-4.984 -9.715,-7.953 -0.231,-0.172 -20.832,-17.593 -37.309,-42.011 -0.848,-1.274 -1.469,-2.504 -2.293,-3.754 -13.555,-20.465 -20.648,-37.867 -23.226,-45.309 -0.387,-1.086 -0.852,-2.531 -1.235,-3.683 l -0.93,-2.754 c -0.98,-2.871 -1.882,-5.965 -2.89,-9.383 -0.922,-3.164 -1.777,-6.242 -2.524,-9.258 -0.363,-1.504 -0.695,-2.949 -1.031,-4.523 -3.664,-16.602 -4.824,-30.715 -4.871,-40.485 v -0.07 c -1.055,-36.91 7.758,-64.559 9.512,-69.75 1.547,-4.488 3.172,-9.168 5.027,-14.059 l 0.695,-2.101 c 1.028,-2.7 2.239,-5.2 3.379,-7.789 0.668,-1.571 1.289,-3.102 2.036,-4.719 1.726,-3.684 3.535,-7.184 5.386,-10.582 1.27,-2.391 2.629,-4.801 4.102,-7.309 2.629,-4.461 5.258,-8.609 7.859,-12.472 l 1.477,-2.309 1,-1.301 c 9.617,-13.668 18.093,-22.777 20.758,-25.48 l 1.824,-1.719 c 10.597,-11.039 19.828,-18.77 24.523,-22.262 1.848,-1.398 4.406,-3.218 6.778,-4.957 1.16,-0.84 2.316,-1.691 3.48,-2.531 4.07,-2.852 8.789,-5.961 14.156,-9.23 3.914,-2.372 7.91,-4.43 11.883,-6.489 2.602,-1.383 5.051,-2.703 7.887,-4.082 l 1.312,-0.679 c 3.688,-1.661 9.289,-4.11 16.321,-6.809 l 2.449,-1.07 c 6.133,-2.219 18.898,-6.86 37.461,-10.629 1.519,-0.313 3.273,-0.563 4.922,-0.832 l 0.207,-0.059 c 2.605,-0.41 5.23,-0.812 8.015,-1.172 7.946,-1.179 16.246,-2.16 25.239,-2.578 h -0.024 c 5.313,-0.133 9.899,-0.152 14.231,-0.101 l 1.828,0.019 c 11.554,0.152 20.289,0.871 29.133,2.191 7.039,0.911 14.57,2.192 24.593,4.571 l 0.258,0.051 570.314,138.019 -0.23,-0.082 0.25,0.082 c 1.02,0.238 2,0.598 3.03,0.859 l 0.64,0.192 c -1.24,-0.32 -2.42,-0.762 -3.69,-1.051 6.83,1.91 16.11,4.051 22.79,6.41 1.6,0.559 3.41,1.219 5.13,1.848 6.5,2.18 13.38,4.832 20.6,7.883 4.13,1.718 8.14,3.437 11.63,5.168 l 2.27,1.14 1,0.469 1.11,0.633 c 31.63,16.098 48.88,30 56.38,36.047 l 1.65,1.472 0.8,0.59 c 1.34,1.098 2.45,2.379 3.76,3.508 6.79,5.852 13.15,11.723 18.95,17.691 2.61,2.68 5.03,5.45 7.5,8.18 4.57,5.09 8.88,10.102 12.79,15.11 2.45,3.093 4.9,6.21 7.19,9.414 5.76,7.929 10.86,15.671 15.17,23.015 0.8,1.348 1.49,2.727 2.24,4.082 12.19,21.594 18.71,39.407 21.27,47.61 0.77,2.523 1.62,5.203 2.45,8.027 l 0.72,2.461 c 3.89,13.309 7.92,29.992 9.77,52.027"
         style="fill:#eb2b81;fill-opacity:1;fill-rule:evenodd;stroke:none"
         id="path24" /></g></g></svg>
