<?xml version="1.0" encoding="UTF-8" standalone="no"?>
<svg
   version="1.0"
   width="1070.000000pt"
   height="389.000000pt"
   viewBox="0 0 1070.000000 389.000000"
   preserveAspectRatio="xMidYMid meet"
   id="svg64"
   sodipodi:docname="MW-logo.svg"
   inkscape:version="1.1.2 (0a00cf5339, 2022-02-04)"
   xmlns:inkscape="http://www.inkscape.org/namespaces/inkscape"
   xmlns:sodipodi="http://sodipodi.sourceforge.net/DTD/sodipodi-0.dtd"
   xmlns="http://www.w3.org/2000/svg"
   xmlns:svg="http://www.w3.org/2000/svg">
  <defs
     id="defs68">
    <inkscape:path-effect
       effect="mirror_symmetry"
       start_point="33.42919,338.86668"
       end_point="33.42919,387.95819"
       center_point="33.42919,363.41243"
       id="path-effect61676"
       is_visible="true"
       lpeversion="1.1"
       mode="free"
       discard_orig_path="false"
       fuse_paths="false"
       oposite_fuse="false"
       split_items="false"
       split_open="false" />
    <inkscape:path-effect
       effect="mirror_symmetry"
       start_point="33.385979,338.86542"
       end_point="33.385979,388.00964"
       center_point="33.385979,363.43753"
       id="path-effect61514"
       is_visible="true"
       lpeversion="1.1"
       mode="free"
       discard_orig_path="false"
       fuse_paths="false"
       oposite_fuse="false"
       split_items="false"
       split_open="false" />
    <inkscape:path-effect
       effect="mirror_symmetry"
       start_point="16.79299,388.00964"
       end_point="33.925655,389.828"
       center_point="33.925655,364.935"
       id="path-effect61301"
       is_visible="true"
       lpeversion="1.1"
       mode="free"
       discard_orig_path="false"
       fuse_paths="false"
       oposite_fuse="false"
       split_items="false"
       split_open="false" />
    <inkscape:path-effect
       effect="mirror_symmetry"
       start_point="33.845925,389.828"
       end_point="67.49185,364.935"
       center_point="33.845925,364.935"
       id="path-effect60554"
       is_visible="true"
       lpeversion="1.1"
       mode="free"
       discard_orig_path="false"
       fuse_paths="false"
       oposite_fuse="false"
       split_items="false"
       split_open="false" />
    <inkscape:path-effect
       effect="mirror_symmetry"
       start_point="33.42919,338.86668"
       end_point="33.42919,387.95819"
       center_point="33.42919,363.41243"
       id="path-effect61676-4"
       is_visible="true"
       lpeversion="1.1"
       mode="free"
       discard_orig_path="false"
       fuse_paths="false"
       oposite_fuse="false"
       split_items="false"
       split_open="false" />
  </defs>
  <sodipodi:namedview
     id="namedview66"
     pagecolor="#505050"
     bordercolor="#eeeeee"
     borderopacity="1"
     inkscape:pageshadow="0"
     inkscape:pageopacity="0"
     inkscape:pagecheckerboard="0"
     inkscape:document-units="pt"
     showgrid="false"
     inkscape:zoom="1.4142136"
     inkscape:cx="535.27982"
     inkscape:cy="344.36099"
     inkscape:window-width="3440"
     inkscape:window-height="1313"
     inkscape:window-x="0"
     inkscape:window-y="32"
     inkscape:window-maximized="1"
     inkscape:current-layer="layer3"
     showguides="true"
     inkscape:guide-bbox="true" />
  <metadata
     id="metadata2">
Created by potrace 1.16, written by Peter Selinger 2001-2019
</metadata>
  <g
     inkscape:groupmode="layer"
     id="layer3"
     inkscape:label="my SVG"
     style="display:inline">
    <path
       id="rect43452"
       style="display:inline;fill:#49134b;fill-opacity:1;stroke-width:13.5225;stroke-linecap:round;paint-order:stroke fill markers"
       d="m 694.36914,133.9375 c -11.52322,7.9e-4 -20.86444,9.34201 -20.86523,20.86523 -2.9e-4,11.52399 9.34124,20.8664 20.86523,20.86719 0.008,0 0.0156,1e-5 0.0234,0 h 42.43554 c 0.008,1e-5 0.0156,0 0.0234,0 11.52399,-7.9e-4 20.86553,-9.3432 20.86524,-20.86719 -7.9e-4,-11.52322 -9.34202,-20.86444 -20.86524,-20.86523 -0.008,0 -0.0156,-1e-5 -0.0234,0 h -42.43554 c -0.008,-1e-5 -0.0156,0 -0.0234,0 z"
       transform="scale(0.75)" />
    <path
       id="rect43452-1"
       style="display:inline;fill:#49134b;fill-opacity:1;stroke-width:10.1419;stroke-linecap:round;paint-order:stroke fill markers"
       d="m 520.77684,6.3008795 c -8.64242,5.93e-4 -15.64833,7.0065075 -15.64892,15.6489225 -2.2e-4,8.642993 7.00593,15.6498 15.64892,15.650393 0.006,0 0.0117,7e-6 0.0176,0 h 31.82665 c 0.006,7e-6 0.0117,0 0.0176,0 8.643,-5.93e-4 15.64915,-7.0074 15.64893,-15.650393 -5.9e-4,-8.642415 -7.00651,-15.6483295 -15.64893,-15.6489225 -0.006,0 -0.0117,-8e-6 -0.0176,0 h -31.82665 c -0.006,-8e-6 -0.0117,0 -0.0176,0 z" />
    <path
       id="rect43452-1-9"
       style="display:inline;fill:#49134b;fill-opacity:1;stroke-width:10.1419;stroke-linecap:round;paint-order:stroke fill markers"
       d="m 395.64534,6.3008798 c -8.64242,5.93e-4 -15.64833,7.0065072 -15.64892,15.6489222 -2.2e-4,8.642993 7.00593,15.6498 15.64892,15.650393 0.006,0 0.0117,7e-6 0.0176,0 h 31.82665 c 0.006,7e-6 0.0117,0 0.0176,0 8.643,-5.93e-4 15.64915,-7.0074 15.64893,-15.650393 -5.9e-4,-8.642415 -7.00651,-15.6483293 -15.64893,-15.6489223 -0.006,0 -0.0117,-8e-6 -0.0176,0 h -31.82665 c -0.006,-8e-6 -0.0117,0 -0.0176,10e-8 z" />
    <path
       id="rect43452-1-9-6"
       style="display:inline;fill:#49134b;fill-opacity:1;stroke-width:10.1419;stroke-linecap:round;paint-order:stroke fill markers"
       d="m 144.34438,6.3008796 c -8.64242,5.93e-4 -15.64833,7.0065074 -15.64892,15.6489224 -2.2e-4,8.642993 7.00593,15.6498 15.64892,15.650393 0.006,0 0.0117,7e-6 0.0176,0 h 31.82665 c 0.006,7e-6 0.0117,0 0.0176,0 8.643,-5.93e-4 15.64915,-7.0074 15.64893,-15.650393 -5.9e-4,-8.642415 -7.00651,-15.6483294 -15.64893,-15.6489224 -0.006,0 -0.0117,-8e-6 -0.0176,0 h -31.82665 c -0.006,-8e-6 -0.0117,0 -0.0176,0 z" />
    <path
       id="rect43452-1-9-6-4"
       style="display:inline;fill:#49134b;fill-opacity:1;stroke-width:10.1419;stroke-linecap:round;paint-order:stroke fill markers"
       d="m 18.973021,6.3008798 c -8.64242,5.93e-4 -15.6483299,7.0065072 -15.6489199,15.6489222 -2.2e-4,8.642993 7.0059299,15.6498 15.6489199,15.650393 0.006,0 0.0117,7e-6 0.0176,0 h 31.82665 c 0.006,7e-6 0.0117,0 0.0176,0 8.643,-5.93e-4 15.64915,-7.0074 15.64893,-15.650393 -5.9e-4,-8.642415 -7.00651,-15.6483292 -15.64893,-15.6489222 -0.006,0 -0.0117,-8e-6 -0.0176,0 h -31.82665 c -0.006,-8e-6 -0.0117,0 -0.0176,0 z" />
    <path
       id="rect43452-1-9-6-4-3"
       style="display:inline;fill:#49134b;fill-opacity:1;stroke-width:10.1419;stroke-linecap:round;paint-order:stroke fill markers"
       d="m 18.973021,100.45312 c -8.64242,5.9e-4 -15.6483297,7.00651 -15.6489197,15.64892 -2.2e-4,8.643 7.0059297,15.6498 15.6489197,15.6504 0.006,0 0.0117,0 0.0176,0 h 31.82665 c 0.006,0 0.0117,0 0.0176,0 8.643,-6e-4 15.64915,-7.0074 15.64893,-15.6504 -5.9e-4,-8.64241 -7.00651,-15.64833 -15.64893,-15.64892 -0.006,0 -0.0117,-1e-5 -0.0176,0 h -31.82665 c -0.006,-1e-5 -0.0117,0 -0.0176,0 z" />
    <path
       id="rect43452-1-9-6-4-3-3"
       style="display:inline;fill:#49134b;fill-opacity:1;stroke-width:10.1419;stroke-linecap:round;paint-order:stroke fill markers"
       d="m 18.973021,194.52404 c -8.64242,5.9e-4 -15.6483298,7.00651 -15.6489198,15.64892 -2.2e-4,8.643 7.0059298,15.6498 15.6489198,15.6504 0.006,0 0.0117,0 0.0176,0 h 31.82665 c 0.006,0 0.0117,0 0.0176,0 8.643,-6e-4 15.64915,-7.0074 15.64893,-15.6504 -5.9e-4,-8.64241 -7.00651,-15.64833 -15.64893,-15.64892 -0.006,0 -0.0117,-1e-5 -0.0176,0 h -31.82665 c -0.006,-1e-5 -0.0117,0 -0.0176,0 z" />
    <path
       id="rect43452-1-9-3"
       style="display:inline;fill:#49134b;fill-opacity:1;stroke-width:10.1419;stroke-linecap:round;paint-order:stroke fill markers"
       d="m 677.67879,225.82336 c 8.64242,-6e-4 15.64833,-7.00651 15.64892,-15.64893 2.2e-4,-8.64299 -7.00593,-15.6498 -15.64892,-15.65039 -0.006,0 -0.0117,-1e-5 -0.0176,0 h -31.82665 c -0.006,-1e-5 -0.0117,0 -0.0176,0 -8.643,5.9e-4 -15.64914,7.0074 -15.64894,15.65039 6e-4,8.64242 7.00652,15.64833 15.64894,15.64893 0.006,0 0.0117,0 0.0176,0 h 31.82665 c 0.006,0 0.0117,0 0.0176,0 z" />
    <path
       id="rect43452-1-9-6-8"
       style="display:inline;fill:#49134b;fill-opacity:1;stroke-width:10.1419;stroke-linecap:round;paint-order:stroke fill markers"
       d="m 928.97975,225.82336 c 8.64242,-6e-4 15.64833,-7.00651 15.64892,-15.64893 2.2e-4,-8.64299 -7.00593,-15.6498 -15.64892,-15.65039 -0.006,0 -0.0117,-1e-5 -0.0176,0 H 897.1355 c -0.006,-1e-5 -0.0117,0 -0.0176,0 -8.643,5.9e-4 -15.64915,7.0074 -15.64893,15.65039 5.9e-4,8.64242 7.00651,15.64833 15.64893,15.64893 0.006,0 0.0117,0 0.0176,0 h 31.82665 c 0.006,0 0.0117,0 0.0176,0 z" />
    <path
       id="rect43452-1-9-6-4-6"
       style="display:inline;fill:#49134b;fill-opacity:1;stroke-width:10.1419;stroke-linecap:round;paint-order:stroke fill markers"
       d="m 1054.3511,225.82336 c 8.6424,-6e-4 15.6483,-7.00651 15.6489,-15.64893 2e-4,-8.64299 -7.0059,-15.6498 -15.6489,-15.65039 -0.01,0 -0.012,-1e-5 -0.018,0 h -31.8267 c -0.01,-1e-5 -0.012,0 -0.018,0 -8.643,5.9e-4 -15.6491,7.0074 -15.6489,15.65039 6e-4,8.64242 7.0065,15.64833 15.6489,15.64893 0.01,0 0.012,0 0.018,0 h 31.8267 c 0.01,0 0.012,0 0.018,0 z" />
    <path
       id="rect43452-1-9-6-4-3-0"
       style="display:inline;fill:#49134b;fill-opacity:1;stroke-width:10.1419;stroke-linecap:round;paint-order:stroke fill markers"
       d="m 1054.3511,131.75244 c 8.6424,-5.9e-4 15.6483,-7.00651 15.6489,-15.64892 2e-4,-8.643 -7.0059,-15.6498 -15.6489,-15.6504 -0.01,0 -0.012,0 -0.018,0 h -31.8267 c -0.01,0 -0.012,0 -0.018,0 -8.643,6e-4 -15.6491,7.0074 -15.6489,15.6504 6e-4,8.64241 7.0065,15.64833 15.6489,15.64892 0.01,0 0.012,1e-5 0.018,0 h 31.8267 c 0.01,1e-5 0.012,0 0.018,0 z" />
    <path
       id="rect43452-1-9-6-4-3-3-4"
       style="display:inline;fill:#49134b;fill-opacity:1;stroke-width:10.1419;stroke-linecap:round;paint-order:stroke fill markers"
       d="m 1054.3511,37.600195 c 8.6424,-5.9e-4 15.6483,-7.00651 15.6489,-15.64892 2e-4,-8.643 -7.0059,-15.6498 -15.6489,-15.6504 -0.01,0 -0.012,0 -0.018,0 h -31.8267 c -0.01,0 -0.012,0 -0.018,0 -8.643,6e-4 -15.6491,7.0074 -15.6489,15.6504 6e-4,8.64241 7.0065,15.64833 15.6489,15.64892 0.01,0 0.012,1e-5 0.018,0 h 31.8267 c 0.01,1e-5 0.012,0 0.018,0 z" />
    <path
       id="rect43452-1-8"
       style="display:inline;fill:#49134b;fill-opacity:1;stroke-width:10.1419;stroke-linecap:round;paint-order:stroke fill markers"
       d="m 520.77684,194.52404 c -8.64242,5.9e-4 -15.64833,7.00651 -15.64892,15.64892 -2.2e-4,8.64299 7.00593,15.6498 15.64892,15.65039 0.006,0 0.0117,1e-5 0.0176,0 h 31.82665 c 0.006,1e-5 0.0117,0 0.0176,0 8.643,-5.9e-4 15.64915,-7.0074 15.64893,-15.65039 -5.9e-4,-8.64241 -7.00651,-15.64833 -15.64893,-15.64892 -0.006,0 -0.0117,-1e-5 -0.0176,0 h -31.82665 c -0.006,-1e-5 -0.0117,0 -0.0176,0 z" />
    <circle
       style="display:inline;fill:#49134b;fill-opacity:1;stroke-width:9.93172;stroke-linecap:round;paint-order:stroke fill markers"
       id="path44100"
       cx="285.92578"
       cy="21.950537"
       r="21.985788" />
    <circle
       style="display:inline;fill:#49134b;fill-opacity:1;stroke-width:9.93172;stroke-linecap:round;paint-order:stroke fill markers"
       id="path44100-8"
       cx="285.92578"
       cy="116.10278"
       r="21.985788" />
    <circle
       style="display:inline;fill:#49134b;fill-opacity:1;stroke-width:9.93172;stroke-linecap:round;paint-order:stroke fill markers"
       id="path44100-88"
       cx="787.39838"
       cy="116.10278"
       r="21.985788" />
    <circle
       style="display:inline;fill:#49134b;fill-opacity:1;stroke-width:9.93172;stroke-linecap:round;paint-order:stroke fill markers"
       id="path44100-8-9"
       cx="787.39838"
       cy="210.17369"
       r="21.985788" />
    <path
       style="font-size:62px;line-height:1.25;font-family:'Gothic CG No2';-inkscape-font-specification:'Gothic CG No2, Normal';letter-spacing:43.875px;stroke-width:0.850599;fill:#49134b;fill-opacity:1"
       d="M 33.42919,374.39003 19.678968,338.86668 0.2,387.04952 H 7.0656803 L 19.703641,352.79131 33.42919,387.95819 m 0,-13.56816 13.750222,-35.52335 19.478968,48.18284 H 59.7927 L 47.154739,352.79131 33.42919,387.95819"
       id="path61082"
       sodipodi:nodetypes="cccccc"
       inkscape:path-effect="#path-effect61676"
       inkscape:original-d="M 33.42919,374.39003 19.678968,338.86668 0.2,387.04952 H 7.0656803 L 19.703641,352.79131 33.42919,387.95819"
       transform="matrix(1.0153232,0,0,1,-0.22971893,-0.3022111)" />
    <path
       style="font-size:62px;line-height:1.25;font-family:'Gothic CG No2';-inkscape-font-specification:'Gothic CG No2, Normal';letter-spacing:43.875px;display:inline;stroke-width:0.850599;fill:#49134b;fill-opacity:1"
       d="M 33.42919,374.39003 19.678968,338.86668 0.2,387.04952 H 7.0656803 L 19.703641,352.79131 33.42919,387.95819 m 0,-13.56816 13.750222,-35.52335 19.478968,48.18284 H 59.7927 L 47.154739,352.79131 33.42919,387.95819"
       id="path61082-3"
       sodipodi:nodetypes="cccccc"
       inkscape:path-effect="#path-effect61676-4"
       inkscape:original-d="M 33.42919,374.39003 19.678968,338.86668 0.2,387.04952 H 7.0656803 L 19.703641,352.79131 33.42919,387.95819"
       transform="matrix(1.0153232,0,0,-1,750.9894,727.30443)" />
    <path
       d="m 104.69969,386.42346 6.04534,-10.85 h 26.36641 l 6.11817,10.85 h 7.28354 l -26.73059,-47.058 -26.366408,47.058 z m 29.49833,-15.872 h -20.61241 l 10.26979,-18.414 z"
       style="font-size:62px;line-height:1.25;font-family:'Gothic CG No2';-inkscape-font-specification:'Gothic CG No2, Normal';letter-spacing:43.875px;stroke-width:0.812899;fill:#49134b;fill-opacity:1"
       id="path60326" />
    <path
       d="m 454.13776,386.43908 6.04533,-10.85 h 26.36641 l 6.11817,10.85 h 7.28354 l -26.73059,-47.058 -26.3664,47.058 z m 29.49833,-15.872 h -20.61241 l 10.26978,-18.414 z"
       style="font-size:62px;line-height:1.25;font-family:'Gothic CG No2';-inkscape-font-specification:'Gothic CG No2, Normal';letter-spacing:43.875px;display:inline;stroke-width:0.812899;fill:#49134b;fill-opacity:1"
       id="path60326-7" />
    <path
       d="m 858.47485,386.76885 6.04533,-10.85 h 26.36641 l 6.11817,10.85 h 7.28354 l -26.73059,-47.058 -26.3664,47.058 z m 29.49833,-15.872 h -20.61241 l 10.26978,-18.414 z"
       style="font-size:62px;line-height:1.25;font-family:'Gothic CG No2';-inkscape-font-specification:'Gothic CG No2, Normal';letter-spacing:43.875px;display:inline;stroke-width:0.812899;fill:#49134b;fill-opacity:1"
       id="path60326-7-6" />
    <path
       d="m 200.88176,386.63717 v -18.7468 c 1.22548,0.0633 2.45096,0.19001 3.67644,0.19001 1.44174,0 2.8114,-0.12667 4.25314,-0.19001 l 18.16592,18.7468 h 8.50627 l -19.46349,-19.76014 c 5.26235,-1.14 12.7594,-4.81336 12.7594,-12.73008 0,-8.04339 -7.35288,-13.17342 -18.8868,-13.17342 h -15.64288 v 45.66364 z m 0,-40.72361 h 8.43418 c 8.29001,0 12.97567,2.78669 12.97567,8.10672 0,8.36006 -11.89436,9.50007 -18.38219,9.50007 -1.00922,0 -2.01844,-0.12667 -3.02766,-0.19001 z"
       style="font-size:62px;line-height:1.25;font-family:'Gothic CG No2';-inkscape-font-specification:'Gothic CG No2, Normal';letter-spacing:43.875px;stroke-width:0.817364;fill:#49134b;fill-opacity:1"
       id="path60328" />
    <path
       d="m 310.44159,375.54521 c 0,-8.25822 -7.48901,-12.58088 -16.56222,-15.67772 -5.61676,-2.00003 -9.43327,-4.51621 -9.43327,-8.83887 0,-4.25815 4.68063,-6.51625 9.57729,-6.51625 4.53661,0 8.35312,2.06455 12.6737,4.51621 v -6.51625 c -2.2323,-1.35486 -6.48087,-3.16135 -12.74571,-3.16135 -9.28925,0 -15.69811,4.90332 -15.69811,11.61312 0,8.51629 7.70503,12.2583 14.68997,14.77447 6.84092,2.38714 11.1615,4.96784 11.1615,9.54857 0,4.8388 -4.89666,7.87111 -11.23351,7.87111 -5.47273,0 -10.87346,-2.32262 -15.48208,-4.77428 l 0.50407,6.45174 c 2.16029,1.16131 7.27298,3.80652 14.83399,3.80652 11.23351,0 17.71438,-5.61301 17.71438,-13.09702 z"
       style="font-size:62px;line-height:1.25;font-family:'Gothic CG No2';-inkscape-font-specification:'Gothic CG No2, Normal';letter-spacing:43.875px;stroke-width:0.824524;fill:#49134b;fill-opacity:1"
       id="path60330" />
    <path
       d="M 366.81252,386.85085 V 365.1936 h 30.1495 v 21.65725 H 403.51 v -46.19787 h -6.54798 v 19.15834 h -30.1495 v -19.15834 h -6.54798 v 46.19787 z"
       style="font-size:62px;line-height:1.25;font-family:'Gothic CG No2';-inkscape-font-specification:'Gothic CG No2, Normal';letter-spacing:43.875px;stroke-width:0.821383;fill:#49134b;fill-opacity:1"
       id="path60332" />
    <path
       d="m 575.67417,386.72567 v -5.54898 h -25.40875 v -40.43741 h -6.64093 v 45.98639 z"
       style="font-size:62px;line-height:1.25;font-family:'Gothic CG No2';-inkscape-font-specification:'Gothic CG No2, Normal';letter-spacing:43.875px;stroke-width:0.820799;fill:#49134b;fill-opacity:1"
       id="path60336" />
    <path
       d="m 653.22841,386.63841 v -5.54898 h -25.40875 v -40.43741 h -6.64093 v 45.98639 z"
       style="font-size:62px;line-height:1.25;font-family:'Gothic CG No2';-inkscape-font-specification:'Gothic CG No2, Normal';letter-spacing:43.875px;display:inline;stroke-width:0.820799;fill:#49134b;fill-opacity:1"
       id="path60336-7" />
    <path
       d="m 985.87403,384.27726 0.44039,-6.83306 c -3.89005,2.60307 -8.88105,5.92198 -17.02812,5.92198 -11.96372,0 -20.33098,-7.87429 -20.33098,-19.39287 0,-11.32336 8.36726,-19.19765 20.47777,-19.19765 7.70669,0 13.43167,3.44907 15.56018,5.20614 l 0.58718,-6.31244 c -1.39455,-1.04123 -7.04612,-4.42522 -15.63358,-4.42522 -15.85376,0 -27.67069,10.60751 -27.67069,25.51009 0,13.79627 11.96372,24.20855 27.08352,24.20855 8.29386,0 13.06467,-2.7983 16.51433,-4.68552 z"
       style="font-size:62px;line-height:1.25;font-family:'Gothic CG No2';-inkscape-font-specification:'Gothic CG No2, Normal';letter-spacing:43.875px;stroke-width:0.83603;fill:#49134b;fill-opacity:1"
       id="path60344" />
    <path
       d="m 1065.0624,386.42346 v -5.40856 h -24.4154 v -15.90753 h 21.1751 v -5.21767 h -21.1751 v -13.99863 h 24.4154 v -5.34493 h -31.3481 v 45.87732 z"
       style="font-size:62px;line-height:1.25;font-family:'Gothic CG No2';-inkscape-font-specification:'Gothic CG No2, Normal';letter-spacing:43.875px;stroke-width:0.837644;fill:#49134b;fill-opacity:1"
       id="path60346" />
  </g>
</svg>
