<?xml version="1.0" encoding="UTF-8" standalone="no"?>
<svg
   viewBox="0 0 290 331.92"
   version="1.1"
   id="svg79"
   xml:space="preserve"
   xmlns="http://www.w3.org/2000/svg"
   xmlns:svg="http://www.w3.org/2000/svg"
   xmlns:rdf="http://www.w3.org/1999/02/22-rdf-syntax-ns#"
   xmlns:cc="http://creativecommons.org/ns#"
   xmlns:dc="http://purl.org/dc/elements/1.1/"><defs
     id="defs1"><style
       id="style1">.cls-1{fill:#27aae1;}.cls-2{fill:#1b75bc;}.cls-3{fill:#72c6ef;}.cls-4{fill:#fff;}</style></defs><title
     id="title1">qrt-large</title><g
     id="Layer_1-2"
     data-name="Layer 1"><polygon
       class="cls-1"
       points="121.48,35.5 102.36,24.66 102.36,46.34 "
       id="polygon1" /><polygon
       class="cls-1"
       points="103.26,47.84 122.38,58.67 122.38,37 "
       id="polygon2" /><polygon
       class="cls-1"
       points="81.51,35.5 100.62,46.34 100.62,24.66 "
       id="polygon3" /><polygon
       class="cls-1"
       points="164.99,35.5 145.87,24.66 145.87,46.34 "
       id="polygon4" /><polygon
       class="cls-1"
       points="146.76,47.84 165.88,58.67 165.88,37 "
       id="polygon5" /><polygon
       class="cls-1"
       points="208.49,35.5 189.38,24.66 189.38,46.34 "
       id="polygon6" /><polygon
       class="cls-1"
       points="168.52,35.5 187.63,46.34 187.63,24.66 "
       id="polygon7" /><polygon
       class="cls-1"
       points="143.24,47.84 124.12,37 124.12,58.67 "
       id="polygon8" /><polygon
       class="cls-1"
       points="164.99,60.17 145.87,49.33 145.87,71.01 "
       id="polygon9" /><polygon
       class="cls-1"
       points="125.01,60.17 144.13,71.01 144.13,49.33 "
       id="polygon10" /><polygon
       class="cls-1"
       points="186.74,47.84 167.62,37 167.62,58.67 "
       id="polygon11" /><polygon
       class="cls-1"
       points="103.26,23.17 122.38,34.01 122.38,12.33 "
       id="polygon12" /><polygon
       class="cls-1"
       points="164.99,10.84 145.87,0 145.87,21.68 "
       id="polygon13" /><polygon
       class="cls-1"
       points="144.13,21.68 144.13,0 125.01,10.84 "
       id="polygon14" /><polygon
       class="cls-1"
       points="186.74,23.17 167.62,12.33 167.62,34.01 "
       id="polygon15" /><polygon
       class="cls-1"
       points="125.01,35.5 144.13,46.34 144.13,24.66 "
       id="polygon16" /><polygon
       class="cls-1"
       points="143.24,23.17 124.12,12.33 124.12,34.01 "
       id="polygon17" /><polygon
       class="cls-1"
       points="146.76,23.17 165.88,34.01 165.88,12.33 "
       id="polygon18" /><polygon
       class="cls-2"
       points="99.73,47.84 80.61,37 80.61,58.67 "
       id="polygon19" /><polygon
       class="cls-2"
       points="121.48,60.17 102.36,49.33 102.36,71.01 "
       id="polygon20" /><polygon
       class="cls-2"
       points="81.51,60.17 100.62,71.01 100.62,49.33 "
       id="polygon21" /><polygon
       class="cls-2"
       points="143.24,72.5 124.12,61.66 124.12,83.34 "
       id="polygon22" /><polygon
       class="cls-2"
       points="125.01,84.83 144.13,95.67 144.13,73.99 "
       id="polygon23" /><polygon
       class="cls-2"
       points="103.26,72.5 122.38,83.34 122.38,61.66 "
       id="polygon24" /><polygon
       class="cls-2"
       points="121.48,84.83 102.36,73.99 102.36,95.67 "
       id="polygon25" /><polygon
       class="cls-2"
       points="143.24,97.17 124.12,86.33 124.12,108 "
       id="polygon26" /><polygon
       class="cls-2"
       points="103.26,97.16 122.38,108 122.38,86.33 "
       id="polygon27" /><polygon
       class="cls-2"
       points="121.48,109.5 102.36,98.66 102.36,120.33 "
       id="polygon28" /><polygon
       class="cls-2"
       points="99.73,72.5 80.61,61.66 80.61,83.34 "
       id="polygon29" /><polygon
       class="cls-2"
       points="81.51,84.83 100.62,95.67 100.62,73.99 "
       id="polygon30" /><polygon
       class="cls-2"
       points="99.73,97.17 80.61,86.33 80.61,108 "
       id="polygon31" /><polygon
       class="cls-2"
       points="81.51,109.5 100.62,120.34 100.62,98.66 "
       id="polygon32" /><polygon
       class="cls-2"
       points="125.01,109.5 144.13,120.33 144.13,98.66 "
       id="polygon33" /><polygon
       class="cls-2"
       points="143.24,121.83 124.12,110.99 124.12,132.67 "
       id="polygon34" /><polygon
       class="cls-2"
       points="125.01,134.16 144.13,145 144.13,123.32 "
       id="polygon35" /><polygon
       class="cls-2"
       points="103.26,121.83 122.38,132.67 122.38,110.99 "
       id="polygon36" /><polygon
       class="cls-3"
       points="168.52,60.17 187.63,71.01 187.63,49.33 "
       id="polygon37" /><polygon
       class="cls-3"
       points="146.76,72.5 165.88,83.34 165.88,61.66 "
       id="polygon38" /><polygon
       class="cls-3"
       points="164.99,84.83 145.87,73.99 145.87,95.67 "
       id="polygon39" /><polygon
       class="cls-3"
       points="146.76,97.16 165.88,108 165.88,86.33 "
       id="polygon40" /><polygon
       class="cls-3"
       points="164.99,109.5 145.87,98.66 145.87,120.33 "
       id="polygon41" /><polygon
       class="cls-3"
       points="186.74,97.17 167.62,86.33 167.62,108 "
       id="polygon42" /><polygon
       class="cls-3"
       points="186.74,72.5 167.62,61.66 167.62,83.34 "
       id="polygon43" /><polygon
       class="cls-3"
       points="190.27,47.84 209.39,58.67 209.39,37 "
       id="polygon44" /><polygon
       class="cls-3"
       points="208.49,60.17 189.38,49.33 189.38,71.01 "
       id="polygon45" /><polygon
       class="cls-3"
       points="164.99,134.16 145.87,123.32 145.87,145 "
       id="polygon46" /><polygon
       class="cls-3"
       points="146.76,121.83 165.88,132.67 165.88,110.99 "
       id="polygon47" /><polygon
       class="cls-3"
       points="186.74,121.83 167.62,110.99 167.62,132.67 "
       id="polygon48" /><polygon
       class="cls-3"
       points="208.49,109.5 189.38,98.66 189.38,120.34 "
       id="polygon49" /><polygon
       class="cls-3"
       points="208.49,84.83 189.38,73.99 189.38,95.67 "
       id="polygon50" /><polygon
       class="cls-3"
       points="190.27,97.16 209.39,108 209.39,86.33 "
       id="polygon51" /><polygon
       class="cls-3"
       points="168.52,109.5 187.63,120.34 187.63,98.66 "
       id="polygon52" /><polygon
       class="cls-3"
       points="168.52,84.83 187.63,95.67 187.63,73.99 "
       id="polygon53" /><polygon
       class="cls-3"
       points="190.27,72.5 209.39,83.34 209.39,61.66 "
       id="polygon54" /><path
       class="cls-4"
       d="m 258.25,178.15 h -50.5 v 18.59 h 31.91 v 89.83 h 18.59 V 196.74 H 290 v -18.59 z m -59.46,59.94 a 39.79,39.79 0 0 0 4.49,-9.83 38.51,38.51 0 0 0 1.62,-11.26 37.19,37.19 0 0 0 -3.09,-15.1 39.68,39.68 0 0 0 -20.68,-20.68 37.06,37.06 0 0 0 -15.1,-3.1 H 125.45 V 286.57 H 144 v -89.83 h 22 a 19.66,19.66 0 0 1 14.4,6 20.16,20.16 0 0 1 4.34,22 21.69,21.69 0 0 1 -4.34,6.66 19.66,19.66 0 0 1 -14.4,6 h -8 l -7.59,18.59 h 12.7 l 19.67,30.51 h 22.12 l -22.15,-34.38 a 37.68,37.68 0 0 0 9.07,-6 38.7,38.7 0 0 0 7,-8.13 m -88.74,11.16 a 56.56,56.56 0 0 1 -7.2,14.87 l 9.76,9.91 v 26.33 L 56.23,244 v -26.35 l 33.14,33 A 37.3,37.3 0 0 0 94,232.21 37.7,37.7 0 0 0 91.21,217.8 37.05,37.05 0 0 0 83,205.57 a 37.92,37.92 0 0 0 -12.23,-8.29 37.22,37.22 0 0 0 -14.56,-2.87 36.77,36.77 0 0 0 -14.41,2.87 38.07,38.07 0 0 0 -12.24,8.29 37.05,37.05 0 0 0 -8.21,12.23 37.88,37.88 0 0 0 -2.78,14.41 38.39,38.39 0 0 0 2.78,14.48 37.94,37.94 0 0 0 20.45,20.52 37.63,37.63 0 0 0 14.43,2.79 34,34 0 0 0 3.94,-0.23 c 1.3,-0.16 2.56,-0.34 3.8,-0.54 l 14.71,14.71 a 60.55,60.55 0 0 1 -10.76,3.41 56.27,56.27 0 0 1 -33.61,-3.18 55.77,55.77 0 0 1 -17.89,-12.08 57.5,57.5 0 0 1 -12,-18 56.66,56.66 0 0 1 0,-43.83 57.5,57.5 0 0 1 12,-18 55.77,55.77 0 0 1 17.89,-12.08 55.07,55.07 0 0 1 21.92,-4.41 55,55 0 0 1 22,4.41 56.5,56.5 0 0 1 30,30 55.11,55.11 0 0 1 4.42,21.92 56.13,56.13 0 0 1 -2.56,17"
       id="path54"
       style="fill:#0b0527;fill-opacity:1" /><path
       class="cls-1"
       d="m 48.25,325.93 a 5,5 0 0 1 -0.86,2.8 l 0.86,0.88 v 2.31 l -5,-5 v -2.31 l 2.91,2.9 a 3.3,3.3 0 0 0 0.41,-1.62 3.21,3.21 0 0 0 -1,-2.35 3.34,3.34 0 0 0 -1.07,-0.73 3.25,3.25 0 0 0 -1.28,-0.25 3.2,3.2 0 0 0 -1.27,0.25 3.38,3.38 0 0 0 -1.08,0.73 3.31,3.31 0 0 0 -1,2.35 3.23,3.23 0 0 0 0.25,1.27 3,3 0 0 0 0.72,1.08 3.21,3.21 0 0 0 2.35,1 1.94,1.94 0 0 0 0.34,0 l 0.34,-0.05 1.29,1.3 a 4.79,4.79 0 0 1 -0.95,0.3 4.9,4.9 0 0 1 -1,0.11 4.79,4.79 0 0 1 -1.93,-0.39 4.93,4.93 0 0 1 -1.58,-1.06 5,5 0 0 1 -1.05,-1.58 5,5 0 0 1 1.05,-5.44 5,5 0 0 1 1.58,-1.07 5.09,5.09 0 0 1 3.86,0 5.08,5.08 0 0 1 2.72,2.64 4.82,4.82 0 0 1 0.39,1.93 z"
       id="path55" /><path
       class="cls-1"
       d="m 57.27,321.17 v 5.72 a 3.85,3.85 0 0 1 -0.32,1.56 3.9,3.9 0 0 1 -0.86,1.28 4.13,4.13 0 0 1 -1.27,0.86 3.91,3.91 0 0 1 -1.56,0.31 3.85,3.85 0 0 1 -1.56,-0.31 4.18,4.18 0 0 1 -1.28,-0.86 4,4 0 0 1 -1.17,-2.84 v -5.72 h 1.64 v 5.72 a 2.53,2.53 0 0 0 0.17,0.91 2.33,2.33 0 0 0 0.52,0.77 2.44,2.44 0 0 0 0.77,0.52 2.34,2.34 0 0 0 0.91,0.18 2.29,2.29 0 0 0 1.67,-0.7 2.34,2.34 0 0 0 0.7,-1.68 v -5.72 z"
       id="path56" /><path
       class="cls-1"
       d="m 65,325.61 a 2.93,2.93 0 0 1 0.87,1 2.68,2.68 0 0 1 0.33,1.31 v 0 A 2.82,2.82 0 0 1 66,329 a 2.91,2.91 0 0 1 -0.6,0.89 2.71,2.71 0 0 1 -0.89,0.59 2.56,2.56 0 0 1 -1.07,0.22 h -2.7 l 0.66,-1.64 h 2.06 a 1.12,1.12 0 0 0 0.81,-0.33 1.1,1.1 0 0 0 0.33,-0.81 v 0 a 1.1,1.1 0 0 0 -0.33,-0.81 1.12,1.12 0 0 0 -0.81,-0.33 h -3.34 v 3.95 h -1.64 v -9.54 h 4.31 a 2.64,2.64 0 0 1 1.08,0.22 2.59,2.59 0 0 1 0.89,0.6 2.78,2.78 0 0 1 0.59,0.88 2.64,2.64 0 0 1 0.22,1.08 v 0 a 2.84,2.84 0 0 1 -0.14,0.88 3.14,3.14 0 0 1 -0.43,0.76 z M 63.93,324 a 1.13,1.13 0 0 0 -1.14,-1.14 h -2.67 v 2.31 h 2.67 A 1.13,1.13 0 0 0 63.93,324 Z"
       id="path57" /><path
       class="cls-1"
       d="m 68.84,322.81 v 2.31 h 3.56 l 0.41,1.64 h -4 v 2.31 h 4.79 v 1.64 h -6.39 v -9.54 h 6.42 v 1.64 z"
       id="path58" /><path
       class="cls-1"
       d="m 84.23,324.59 a 3.32,3.32 0 0 1 -0.54,1.85 3.27,3.27 0 0 1 -1.41,1.24 l 2,3 h -2 L 80.55,328 h -1.12 l 0.67,-1.64 h 0.71 a 1.76,1.76 0 0 0 1.27,-0.53 1.93,1.93 0 0 0 0.38,-0.59 1.72,1.72 0 0 0 0,-1.36 1.79,1.79 0 0 0 -1.65,-1.1 h -1.94 v 7.9 h -1.63 v -9.54 h 3.57 a 3.29,3.29 0 0 1 1.33,0.27 3.56,3.56 0 0 1 1.86,1.85 3.33,3.33 0 0 1 0.23,1.33 z"
       id="path59" /><path
       class="cls-1"
       d="m 86.87,322.81 v 2.31 h 3.55 l 0.41,1.64 h -4 v 2.31 h 4.78 v 1.64 h -6.38 v -9.54 h 6.42 v 1.64 z"
       id="path60" /><path
       class="cls-1"
       d="m 99.06,328 a 3.3,3.3 0 0 1 -0.22,1.21 2.54,2.54 0 0 1 -0.62,0.91 2.66,2.66 0 0 1 -1,0.58 3.7,3.7 0 0 1 -1.28,0.21 5.3,5.3 0 0 1 -2,-0.36 5.55,5.55 0 0 1 -1.46,-0.83 l 1.13,-1.13 a 3.3,3.3 0 0 0 1,0.63 2.35,2.35 0 0 0 0.64,0.17 3.52,3.52 0 0 0 0.49,0.05 2.27,2.27 0 0 0 0.65,-0.09 2,2 0 0 0 0.51,-0.24 1.07,1.07 0 0 0 0.46,-0.9 0.85,0.85 0 0 0 -0.25,-0.61 1.3,1.3 0 0 0 -0.49,-0.36 2.91,2.91 0 0 0 -0.51,-0.22 l -0.49,-0.15 h -0.13 a 0.25,0.25 0 0 1 -0.09,0 0.13,0.13 0 0 1 -0.08,0 c -0.2,-0.06 -0.47,-0.15 -0.83,-0.29 a 5,5 0 0 1 -1.07,-0.56 2.4,2.4 0 0 1 -1.24,-2 2.94,2.94 0 0 1 0.28,-1.36 2.61,2.61 0 0 1 0.73,-0.9 2.83,2.83 0 0 1 1,-0.49 4.13,4.13 0 0 1 1.08,-0.15 4.9,4.9 0 0 1 1.65,0.23 6.3,6.3 0 0 1 1.07,0.46 2.5,2.5 0 0 1 0.34,0.24 l 0.26,0.21 -1.16,1.17 a 3.32,3.32 0 0 0 -0.75,-0.56 2.77,2.77 0 0 0 -1.2,-0.27 2.13,2.13 0 0 0 -0.55,0.07 1.54,1.54 0 0 0 -0.47,0.18 1.08,1.08 0 0 0 -0.6,1 0.88,0.88 0 0 0 0.24,0.63 1.62,1.62 0 0 0 0.49,0.37 3.71,3.71 0 0 0 0.55,0.22 l 0.53,0.15 h 0.16 l 0.26,0.08 0.45,0.16 0.57,0.26 a 4.76,4.76 0 0 1 0.6,0.36 2.46,2.46 0 0 1 1.35,1.92 z"
       id="path61" /><path
       class="cls-1"
       d="m 101.56,322.81 v 2.31 h 3.56 l 0.41,1.64 h -4 v 2.31 h 4.79 v 1.64 h -6.39 v -9.54 h 6.42 v 1.64 z"
       id="path62" /><path
       class="cls-1"
       d="m 117.25,330.71 h -1.8 l -0.73,-1.64 -0.74,-1.63 -1.93,-4.28 -1.94,4.28 h 2.48 l 0.74,1.63 h -4 l -0.73,1.64 h -1.8 l 4.31,-9.54 h 1.79 z"
       id="path63" /><path
       class="cls-1"
       d="m 124.77,324.59 a 3.46,3.46 0 0 1 -1.15,2.57 3.43,3.43 0 0 1 -0.8,0.52 l 2,3 h -2 L 121.09,328 H 120 l 0.67,-1.64 h 0.71 a 1.72,1.72 0 0 0 1.26,-0.53 2,2 0 0 0 0.39,-0.59 1.74,1.74 0 0 0 -0.39,-1.93 1.69,1.69 0 0 0 -1.26,-0.53 h -1.94 v 7.9 h -1.63 v -9.54 h 3.57 a 3.25,3.25 0 0 1 1.32,0.27 3.45,3.45 0 0 1 1.09,0.74 3.49,3.49 0 0 1 0.73,1.08 3.17,3.17 0 0 1 0.25,1.36 z"
       id="path64" /><path
       class="cls-1"
       d="m 133.77,329.43 a 5.07,5.07 0 0 1 -1.58,1.07 4.84,4.84 0 0 1 -1.94,0.39 4.78,4.78 0 0 1 -1.92,-0.39 5,5 0 0 1 -1.59,-1.06 5,5 0 0 1 -1.06,-1.58 5,5 0 0 1 0,-3.86 4.93,4.93 0 0 1 1.06,-1.58 5,5 0 0 1 1.59,-1.07 4.77,4.77 0 0 1 1.92,-0.38 4.83,4.83 0 0 1 1.94,0.38 5.07,5.07 0 0 1 1.58,1.07 l -1.16,1.16 a 3.34,3.34 0 0 0 -1.07,-0.73 3.26,3.26 0 0 0 -1.29,-0.25 3.18,3.18 0 0 0 -1.26,0.25 3.43,3.43 0 0 0 -1.81,1.81 3.2,3.2 0 0 0 -0.25,1.27 3.23,3.23 0 0 0 0.25,1.27 3.18,3.18 0 0 0 0.73,1.08 3.21,3.21 0 0 0 2.34,1 3.44,3.44 0 0 0 1.29,-0.24 3.34,3.34 0 0 0 1.07,-0.73 z"
       id="path65" /><path
       class="cls-1"
       d="m 141.61,321.17 v 9.54 H 140 v -3.95 h -4 v 3.95 h -1.63 v -9.54 H 136 v 3.95 h 4 v -3.95 z"
       id="path66" /><path
       class="cls-1"
       d="m 152.09,330.64 a 7,7 0 0 0 -0.78,-1.17 3.16,3.16 0 0 1 -0.37,0.45 2.88,2.88 0 0 1 -1,0.67 3.1,3.1 0 0 1 -3.39,-0.67 2.86,2.86 0 0 1 -0.68,-1 3.05,3.05 0 0 1 -0.23,-1.2 2.41,2.41 0 0 1 0.73,-1.77 l 0.28,-0.23 0.3,-0.21 a 5.17,5.17 0 0 1 -0.62,-0.9 2.26,2.26 0 0 1 -0.24,-1 2.53,2.53 0 0 1 0.21,-1 2.88,2.88 0 0 1 0.57,-0.85 2.65,2.65 0 0 1 0.85,-0.57 2.53,2.53 0 0 1 1,-0.21 2.6,2.6 0 0 1 1,0.21 2.65,2.65 0 0 1 0.85,0.57 3.06,3.06 0 0 1 0.56,0.85 2.53,2.53 0 0 1 0.21,1 h -1.63 a 1,1 0 0 0 -0.3,-0.72 1,1 0 0 0 -0.72,-0.3 1,1 0 0 0 -1,1 0.78,0.78 0 0 0 0.11,0.37 2,2 0 0 0 0.27,0.39 4.4,4.4 0 0 0 0.37,0.38 l 0.41,0.37 0.42,0.36 c 0.15,0.11 0.3,0.24 0.47,0.36 l 0.69,0.58 c 0.05,-0.1 0.09,-0.2 0.13,-0.29 a 1.28,1.28 0 0 1 0.16,-0.27 3.31,3.31 0 0 1 1.87,-1.38 l 0.5,1.57 a 1.62,1.62 0 0 0 -1.25,1.63 11.47,11.47 0 0 1 1,1.11 8.77,8.77 0 0 1 0.73,1.14 z m -3.35,-1.44 a 1.43,1.43 0 0 0 0.85,-0.27 1.47,1.47 0 0 0 0.54,-0.69 c -0.24,-0.21 -0.47,-0.41 -0.71,-0.6 l -0.68,-0.55 -0.27,-0.22 a 1.64,1.64 0 0 1 -0.25,-0.21 2.3,2.3 0 0 0 -0.78,0.54 0.84,0.84 0 0 0 -0.18,0.51 1.4,1.4 0 0 0 0.12,0.58 1.67,1.67 0 0 0 0.31,0.47 1.4,1.4 0 0 0 0.47,0.32 1.37,1.37 0 0 0 0.58,0.12 z"
       id="path67" /><path
       class="cls-1"
       d="m 164.26,322.81 h -2.79 v 7.9 h -1.64 v -7.9 H 157 v -1.64 h 7.24 z"
       id="path68" /><path
       class="cls-1"
       d="m 166.44,322.81 v 2.31 H 170 l 0.41,1.64 h -4 v 2.31 h 4.79 v 1.64 h -6.42 v -9.54 h 6.42 v 1.64 z"
       id="path69" /><path
       class="cls-1"
       d="m 180.13,329.43 a 5.24,5.24 0 0 1 -1.59,1.07 5,5 0 0 1 -3.86,0 4.92,4.92 0 0 1 -2.64,-2.64 5,5 0 0 1 0,-3.86 4.93,4.93 0 0 1 1.06,-1.58 5.07,5.07 0 0 1 1.58,-1.07 5.09,5.09 0 0 1 3.86,0 5.24,5.24 0 0 1 1.59,1.07 l -1.13,1.16 a 3.38,3.38 0 0 0 -1.08,-0.73 3.25,3.25 0 0 0 -1.28,-0.25 3.2,3.2 0 0 0 -1.27,0.25 3.37,3.37 0 0 0 -1.8,1.81 3.21,3.21 0 0 0 -0.26,1.27 3.24,3.24 0 0 0 0.26,1.27 3.15,3.15 0 0 0 0.72,1.08 3.21,3.21 0 0 0 2.35,1 3.43,3.43 0 0 0 1.28,-0.24 3.38,3.38 0 0 0 1.08,-0.73 z"
       id="path70" /><path
       class="cls-1"
       d="m 188,321.17 v 9.54 h -1.63 v -3.95 h -4 v 3.95 h -1.64 v -9.54 h 1.64 v 3.95 h 4 v -3.95 z"
       id="path71" /><path
       class="cls-1"
       d="m 196.49,321.16 v 9.54 h -1.77 l -3.83,-6.53 v 6.53 h -1.64 v -9.54 H 191 l 3.83,6.52 v -6.52 z"
       id="path72" /><path
       class="cls-1"
       d="m 202.36,321 a 4.82,4.82 0 0 1 1.93,0.38 5.07,5.07 0 0 1 1.58,1.07 4.93,4.93 0 0 1 1.06,1.58 5,5 0 0 1 0,3.86 4.92,4.92 0 0 1 -2.64,2.64 5,5 0 0 1 -3.86,0 4.92,4.92 0 0 1 -2.64,-2.64 5,5 0 0 1 0,-3.86 4.93,4.93 0 0 1 1.06,-1.58 5.07,5.07 0 0 1 1.58,-1.07 4.85,4.85 0 0 1 1.93,-0.38 z m 0,1.63 a 3.22,3.22 0 0 0 -2.34,1 3.38,3.38 0 0 0 -0.73,1.08 3.2,3.2 0 0 0 -0.25,1.27 3.23,3.23 0 0 0 0.25,1.27 3.18,3.18 0 0 0 0.73,1.08 3.24,3.24 0 0 0 1.07,0.73 3.41,3.41 0 0 0 1.27,0.24 3.46,3.46 0 0 0 1.28,-0.24 3.38,3.38 0 0 0 1.08,-0.73 3,3 0 0 0 0.72,-1.08 3.42,3.42 0 0 0 0.25,-1.27 3.38,3.38 0 0 0 -0.25,-1.27 3.2,3.2 0 0 0 -0.72,-1.08 3.38,3.38 0 0 0 -1.08,-0.73 3.28,3.28 0 0 0 -1.28,-0.3 z"
       id="path73" /><path
       class="cls-1"
       d="m 213.61,329.07 v 1.64 h -5.39 v -9.53 h 1.64 v 7.89 z"
       id="path74" /><path
       class="cls-1"
       d="m 218.55,321 a 4.85,4.85 0 0 1 1.93,0.38 5.07,5.07 0 0 1 1.58,1.07 4.93,4.93 0 0 1 1.06,1.58 5,5 0 0 1 0,3.86 4.92,4.92 0 0 1 -2.64,2.64 5,5 0 0 1 -3.86,0 4.92,4.92 0 0 1 -2.64,-2.64 5,5 0 0 1 0,-3.86 4.93,4.93 0 0 1 1.06,-1.58 5.07,5.07 0 0 1 1.58,-1.07 4.85,4.85 0 0 1 1.93,-0.38 z m 0,1.63 a 3.2,3.2 0 0 0 -1.27,0.25 3.31,3.31 0 0 0 -1.8,4.35 3,3 0 0 0 0.73,1.08 3.24,3.24 0 0 0 1.07,0.73 3.48,3.48 0 0 0 2.54,0 3.32,3.32 0 0 0 1.09,-0.73 3,3 0 0 0 0.72,-1.08 3.42,3.42 0 0 0 0.25,-1.27 3.38,3.38 0 0 0 -0.25,-1.27 3.2,3.2 0 0 0 -0.72,-1.08 3.32,3.32 0 0 0 -1.09,-0.73 3.2,3.2 0 0 0 -1.27,-0.28 z"
       id="path75" /><path
       class="cls-1"
       d="m 234,325.52 a 2.75,2.75 0 0 1 0,0.41 4.86,4.86 0 0 1 -0.39,1.93 4.92,4.92 0 0 1 -2.61,2.64 5,5 0 0 1 -3.86,0 4.92,4.92 0 0 1 -2.64,-2.64 5,5 0 0 1 0,-3.86 4.93,4.93 0 0 1 1.06,-1.58 5.07,5.07 0 0 1 1.58,-1.07 4.89,4.89 0 0 1 5.43,1.07 l -1.14,1.16 a 3.38,3.38 0 0 0 -1.08,-0.73 3.28,3.28 0 0 0 -1.28,-0.25 3.22,3.22 0 0 0 -2.34,1 3.38,3.38 0 0 0 -0.73,1.08 3.2,3.2 0 0 0 -0.25,1.27 3.23,3.23 0 0 0 0.25,1.27 3.18,3.18 0 0 0 0.73,1.08 3.24,3.24 0 0 0 1.07,0.73 3.41,3.41 0 0 0 1.27,0.24 3.46,3.46 0 0 0 1.28,-0.24 3.38,3.38 0 0 0 1.08,-0.73 3.34,3.34 0 0 0 0.87,-1.54 h -4.42 l 0.41,-1.63 h 5.67 c -0.03,0.12 0.04,0.25 0.04,0.39 z"
       id="path76" /><path
       class="cls-1"
       d="m 236.51,330.71 h -1.63 v -9.53 h 1.63 z"
       id="path77" /><path
       class="cls-1"
       d="m 239.47,322.81 v 2.31 H 243 l 0.41,1.64 h -4 v 2.31 h 4.79 v 1.64 h -6.42 v -9.54 h 6.42 v 1.64 z"
       id="path78" /><path
       class="cls-1"
       d="m 251.66,328 a 3.11,3.11 0 0 1 -0.22,1.21 2.42,2.42 0 0 1 -0.62,0.91 2.62,2.62 0 0 1 -1,0.58 3.7,3.7 0 0 1 -1.28,0.21 5.31,5.31 0 0 1 -2,-0.36 5.72,5.72 0 0 1 -1.46,-0.83 l 1.13,-1.13 a 3.43,3.43 0 0 0 1,0.63 2.44,2.44 0 0 0 0.64,0.17 3.67,3.67 0 0 0 0.49,0.05 2.17,2.17 0 0 0 0.65,-0.09 1.72,1.72 0 0 0 0.51,-0.24 1.08,1.08 0 0 0 0.47,-0.9 0.9,0.9 0 0 0 -0.25,-0.61 1.39,1.39 0 0 0 -0.49,-0.36 3,3 0 0 0 -0.52,-0.22 l -0.49,-0.15 a 0.3,0.3 0 0 0 -0.12,0 h -0.1 -0.08 c -0.19,-0.06 -0.46,-0.15 -0.82,-0.29 a 4.78,4.78 0 0 1 -1.07,-0.56 2.4,2.4 0 0 1 -1.24,-2 2.94,2.94 0 0 1 0.28,-1.36 2.5,2.5 0 0 1 0.73,-0.9 2.75,2.75 0 0 1 1,-0.49 4.07,4.07 0 0 1 1.08,-0.15 5,5 0 0 1 1.65,0.23 6.15,6.15 0 0 1 1.06,0.46 2.65,2.65 0 0 1 0.35,0.24 l 0.25,0.21 -1.16,1.17 a 2.93,2.93 0 0 0 -0.75,-0.56 2.77,2.77 0 0 0 -1.2,-0.27 2,2 0 0 0 -0.54,0.07 1.71,1.71 0 0 0 -0.48,0.18 1.08,1.08 0 0 0 -0.6,1 0.85,0.85 0 0 0 0.25,0.63 1.62,1.62 0 0 0 0.49,0.37 3.21,3.21 0 0 0 0.54,0.22 l 0.54,0.15 h 0.16 l 0.26,0.08 0.45,0.16 0.56,0.26 a 4.24,4.24 0 0 1 0.61,0.36 2.46,2.46 0 0 1 1.34,1.92 z"
       id="path79" /></g><metadata
     id="metadata79"><rdf:RDF><cc:Work
         rdf:about=""><dc:title>qrt-large</dc:title></cc:Work></rdf:RDF></metadata></svg>
