<?xml version="1.0" encoding="UTF-8"?>
<svg width="999pt" height="321pt" version="1.0" viewBox="0 0 999 321" xmlns="http://www.w3.org/2000/svg">
 <metadata>Created by potrace 1.16, written by Peter Selinger 2001-2019</metadata>
 <g transform="translate(0 321) scale(.1 -.1)">
  <path d="m8643 3192c-50-1-142-11-205-21-658-114-1147-530-1319-1124-61-211-76-518-35-742 76-411 333-801 676-1025 89-58 308-162 405-194 185-59 271-71 525-70 214 0 247 2 371 27 282 55 600 180 808 317l91 60v1190h-600l-2-407-3-408-75-37c-185-90-376-139-545-139-255 0-493 98-670 276-221 220-323 522-285 840 35 292 188 540 430 698 154 100 297 144 500 154 96 5 136 2 230-17 218-43 438-147 611-290l45-38 26 31c13 18 102 130 196 250l172 218-67 52c-308 236-679 376-1043 395-97.6 6.39-199 5.21-237 4z"/>
  <path d="m0 2855v-295h465 465l2-1252 3-1253 348-3 347-2v1255 1255h475 475v295 295h-1290-1290v-295z"/>
  <path d="m3492 1603 3-1548 348-3 347-2v609 610l28 3c15 2 330 2 699 0l673-2 2-608 3-607 348-3 347-2v1550 1550h-350-350v-645-645h-700-700v645 645h-350-350l2-1547z"/>
 </g>
</svg>
