<svg viewBox="0 0 909 240" xmlns="http://www.w3.org/2000/svg">
  <path d="M841.225 172.839H880.53C879.923 157.403 872.904 150.785 861.284 150.785C852.059 150.785 843.643 155.793 841.225 172.839ZM862.086 239.605C831.805 239.605 811.156 221.563 811.156 186.676V184.67C811.156 149.582 833.009 130.331 861.072 130.331C887.142 130.331 909 144.97 909 179.657V192.291H840.835C842.038 211.135 850.049 218.354 862.682 218.354C873.907 218.354 879.923 212.344 881.939 204.724H909C905.797 224.571 889.554 239.605 862.086 239.605ZM741.169 132.542H770.436V151.788C776.653 137.751 786.479 131.139 801.92 131.139V160.004C782.067 160.004 770.436 166.02 770.436 183.467V237.405H741.169V132.542ZM719.907 237.405H690.624V221.964C685.616 231.991 675.79 239.605 660.142 239.605C641.303 239.605 627.461 228.181 627.461 203.52V132.542H656.939V199.109C656.939 211.135 661.747 216.75 672.18 216.75C682.402 216.75 690.624 210.333 690.624 197.304V132.542H719.907V237.405ZM589.56 100.858V132.542H609.613V154.389H589.56V204.116C589.56 211.943 593.164 215.547 599.982 215.547C604.199 215.547 607.402 214.951 610.209 213.748V236.603C606.806 237.606 600.985 238.809 593.766 238.809C570.916 238.809 560.081 228.381 560.081 207.124V154.389H547.849V132.542H560.081V112.884L589.56 100.858ZM442.173 132.542H471.445V148.179C476.665 138.352 487.087 130.331 503.13 130.331C522.18 130.331 534.808 141.761 534.808 167.224V237.405H505.53V171.635C505.53 159.408 500.523 153.988 489.894 153.988C479.667 153.988 471.445 160.205 471.445 173.44V237.405H442.173V132.542ZM356.344 172.839H395.643C395.042 157.403 388.023 150.785 376.392 150.785C367.173 150.785 358.75 155.793 356.344 172.839ZM377.2 239.605C346.919 239.605 326.269 221.563 326.269 186.676V184.67C326.269 149.582 348.122 130.331 376.191 130.331C402.261 130.331 424.119 144.97 424.119 179.657V192.291H355.943C357.146 211.135 365.168 218.354 377.796 218.354C389.026 218.354 395.042 212.344 397.047 204.724H424.119C420.905 224.571 404.667 239.605 377.2 239.605ZM267.301 239.605C238.229 239.605 217.179 221.563 217.179 186.074V184.67C217.179 149.181 239.633 130.331 267.502 130.331C291.365 130.331 311.018 142.363 313.424 169.831H285.349C283.544 159.609 278.336 152.991 268.109 152.991C255.67 152.991 247.053 162.812 247.053 183.467V186.676C247.053 207.932 254.673 217.552 268.309 217.552C278.336 217.552 285.75 210.132 287.355 198.708H314.026C312.02 222.566 295.777 239.605 267.301 239.605ZM158.21 239.605C129.144 239.605 108.088 221.563 108.088 186.074V184.67C108.088 149.181 130.542 130.331 158.411 130.331C182.275 130.331 201.927 142.363 204.333 169.831H176.259C174.454 159.609 169.245 152.991 159.018 152.991C146.579 152.991 137.962 162.812 137.962 183.467V186.676C137.962 207.932 145.582 217.552 159.219 217.552C169.245 217.552 176.66 210.132 178.264 198.708H204.935C202.93 222.566 186.686 239.605 158.21 239.605ZM62.5556 202.512V192.491H50.9246C36.4917 192.491 29.0775 196.502 29.0775 205.921V206.924C29.0775 214.143 33.4892 219.157 43.3098 219.157C53.3365 219.157 62.5556 213.547 62.5556 202.512ZM34.4863 239.605C15.6417 239.605 0 229.985 0 208.729V207.531C0 181.662 22.4542 173.24 49.5264 173.24H62.5556V168.232C62.5556 157.804 57.9433 151.381 47.12 151.381C37.2938 151.381 32.0855 156.996 31.2778 165.023H3.20857C5.20835 141.761 23.6575 130.331 48.5237 130.331C73.7855 130.331 91.8336 141.16 91.8336 167.224V237.405H63.1628V225.373C58.1439 232.993 48.5237 239.605 34.4863 239.605Z" fill="#000"/>
  <path d="M529.809 66.9731L582.137 47.5213L529.809 27.0723V0.000183105L619.431 36.0908V58.5451L529.809 94.8418V66.9731Z" fill="#8E4894"/>
</svg>
