<svg viewBox="0 -15 79 63" fill="none" xmlns="http://www.w3.org/2000/svg">
<g clip-path="url(#clip0_90_2360)">
<path d="M23.0689 17.6559C23.0689 18.6043 23.1713 19.3732 23.3506 19.9371C23.5555 20.501 23.8116 21.1161 24.1702 21.7825C24.2983 21.9876 24.3495 22.1926 24.3495 22.372C24.3495 22.6283 24.1958 22.8846 23.8629 23.141L22.2492 24.2175C22.0187 24.3712 21.7882 24.4481 21.5833 24.4481C21.3272 24.4481 21.071 24.32 20.8149 24.0893C20.4563 23.7048 20.149 23.2947 19.8928 22.8846C19.6367 22.4489 19.3806 21.9619 19.0988 21.3724C17.101 23.7305 14.5909 24.9095 11.5685 24.9095C9.41704 24.9095 7.70096 24.2943 6.44591 23.0641C5.19087 21.8338 4.55054 20.1934 4.55054 18.1429C4.55054 15.9643 5.31893 14.1958 6.88134 12.863C8.44374 11.5301 10.5184 10.8637 13.1566 10.8637C14.0274 10.8637 14.9239 10.9406 15.8716 11.0688C16.8193 11.1969 17.7926 11.402 18.8171 11.6327V9.76161C18.8171 7.81366 18.4073 6.45522 17.6133 5.66067C16.7936 4.86611 15.4105 4.48164 13.4383 4.48164C12.5418 4.48164 11.6198 4.58417 10.6721 4.81485C9.7244 5.04552 8.80233 5.32746 7.90586 5.6863C7.49605 5.86571 7.18869 5.96824 7.0094 6.0195C6.83011 6.07076 6.70204 6.09639 6.59959 6.09639C6.24101 6.09639 6.06171 5.84008 6.06171 5.30183V4.04592C6.06171 3.63582 6.11294 3.32825 6.24101 3.14884C6.36907 2.96942 6.59959 2.79 6.95818 2.61059C7.85464 2.14923 8.93039 1.76477 10.1854 1.45719C11.4405 1.12399 12.7724 0.970207 14.1811 0.970207C17.2291 0.970207 19.4574 1.66224 20.8917 3.04631C22.3005 4.43038 23.0176 6.53212 23.0176 9.35152V17.6559H23.0689ZM12.6699 21.5518C13.5152 21.5518 14.386 21.3981 15.3081 21.0905C16.2301 20.7829 17.0498 20.219 17.7413 19.4501C18.1511 18.9631 18.4585 18.4249 18.6122 17.8097C18.7659 17.1946 18.8683 16.4513 18.8683 15.5798V14.5033C18.1255 14.3239 17.3315 14.1701 16.5119 14.0676C15.6923 13.9651 14.8983 13.9138 14.1043 13.9138C12.3882 13.9138 11.1331 14.247 10.2879 14.9391C9.44266 15.6311 9.03284 16.6051 9.03284 17.8866C9.03284 19.0913 9.3402 19.9884 9.98053 20.6035C10.5952 21.2443 11.4917 21.5518 12.6699 21.5518ZM33.2373 24.32C32.7763 24.32 32.4689 24.2431 32.264 24.0637C32.0591 23.9099 31.8798 23.551 31.7261 23.0641L25.707 3.25136C25.5533 2.73874 25.4765 2.40554 25.4765 2.22612C25.4765 1.81603 25.6814 1.58535 26.0912 1.58535H28.6013C29.088 1.58535 29.4209 1.66224 29.6002 1.84166C29.8051 1.99544 29.9588 2.35428 30.1125 2.84126L34.4155 19.8089L38.4112 2.84126C38.5392 2.32865 38.6929 1.99544 38.8978 1.84166C39.1027 1.68787 39.4613 1.58535 39.9223 1.58535H41.9714C42.458 1.58535 42.791 1.66224 42.9959 1.84166C43.2008 1.99544 43.3801 2.35428 43.4826 2.84126L47.5295 20.014L51.9605 2.84126C52.1142 2.32865 52.2935 1.99544 52.4728 1.84166C52.6777 1.68787 53.0107 1.58535 53.4717 1.58535H55.8537C56.2635 1.58535 56.4941 1.7904 56.4941 2.22612C56.4941 2.35428 56.4685 2.48243 56.4428 2.63622C56.4172 2.79 56.366 2.99505 56.2635 3.27699L50.0908 23.0897C49.9371 23.6023 49.7578 23.9355 49.5529 24.0893C49.348 24.2431 49.015 24.3456 48.5796 24.3456H46.3769C45.8902 24.3456 45.5572 24.2687 45.3523 24.0893C45.1474 23.9099 44.9681 23.5767 44.8657 23.0641L40.8956 6.53212L36.9512 23.0384C36.8232 23.5511 36.6695 23.8843 36.4646 24.0637C36.2597 24.2431 35.9011 24.32 35.44 24.32H33.2373ZM66.1502 25.012C64.8184 25.012 63.4865 24.8582 62.2058 24.5507C60.9252 24.2431 59.9262 23.9099 59.2603 23.5254C58.8505 23.2947 58.5687 23.0384 58.4663 22.8078C58.3638 22.5771 58.3126 22.3208 58.3126 22.0901V20.7829C58.3126 20.2447 58.5175 19.9884 58.9017 19.9884C59.0554 19.9884 59.2091 20.014 59.3627 20.0652C59.5164 20.1165 59.7469 20.219 60.0031 20.3216C60.8739 20.706 61.8216 21.0136 62.8205 21.2186C63.8451 21.4237 64.844 21.5262 65.8685 21.5262C67.4821 21.5262 68.7372 21.2443 69.608 20.6804C70.4789 20.1165 70.9399 19.2963 70.9399 18.2454C70.9399 17.5278 70.7094 16.9383 70.2484 16.4513C69.7873 15.9643 68.9165 15.5286 67.6614 15.1185L63.9475 13.9651C62.0777 13.3756 60.6946 12.5041 59.8494 11.3507C59.0042 10.223 58.5687 8.96705 58.5687 7.63425C58.5687 6.55775 58.7993 5.6094 59.2603 4.78921C59.7213 3.96902 60.336 3.25136 61.1044 2.68748C61.8728 2.09797 62.7437 1.66224 63.7682 1.35467C64.7927 1.0471 65.8685 0.918945 66.9955 0.918945C67.559 0.918945 68.1481 0.944576 68.7116 1.02147C69.3007 1.09836 69.8385 1.20089 70.3764 1.30341C70.8887 1.43156 71.3753 1.55972 71.8364 1.7135C72.2974 1.86729 72.656 2.02107 72.9121 2.17486C73.2707 2.37991 73.5268 2.58496 73.6805 2.81563C73.8342 3.02068 73.911 3.30262 73.911 3.66145V4.86611C73.911 5.40436 73.7061 5.6863 73.3219 5.6863C73.117 5.6863 72.784 5.58377 72.3486 5.37873C70.8887 4.71232 69.2494 4.37912 67.4309 4.37912C65.971 4.37912 64.8184 4.6098 64.0243 5.09679C63.2303 5.58377 62.8205 6.32707 62.8205 7.37794C62.8205 8.0956 63.0767 8.71075 63.5889 9.19773C64.1012 9.68472 65.0489 10.1717 66.4064 10.6074L70.0434 11.7608C71.8876 12.3503 73.2195 13.1705 74.0135 14.2214C74.8075 15.2723 75.1917 16.4769 75.1917 17.8097C75.1917 18.9119 74.9612 19.9115 74.5257 20.7829C74.0647 21.6544 73.45 22.4233 72.656 23.0384C71.862 23.6792 70.9143 24.1406 69.8129 24.4738C68.6603 24.8326 67.4565 25.012 66.1502 25.012Z" fill="#252F3E"/>
<path fill-rule="evenodd" clip-rule="evenodd" d="M70.9936 37.4641C62.5669 43.6924 50.3238 46.9988 39.7967 46.9988C25.0436 46.9988 11.7503 41.5394 1.70995 32.4661C0.915938 31.7484 1.63311 30.7744 2.58079 31.3383C13.4408 37.6435 26.8365 41.4625 40.6932 41.4625C50.042 41.4625 60.3129 39.5146 69.7642 35.5162C71.1729 34.8754 72.3767 36.4389 70.9936 37.4641Z" fill="#FF9900"/>
<path fill-rule="evenodd" clip-rule="evenodd" d="M74.503 33.4704C73.4272 32.0863 67.3825 32.804 64.6419 33.1372C63.8223 33.2397 63.6942 32.5221 64.437 31.9838C69.2523 28.6005 77.1667 29.5745 78.0888 30.7023C79.0109 31.8557 77.8327 39.7756 73.3248 43.569C72.6332 44.1585 71.9673 43.8509 72.2746 43.082C73.2991 40.5445 75.5787 34.8288 74.503 33.4704Z" fill="#FF9900"/>
</g>
<defs>
<clipPath id="clip0_90_2360">
<rect width="77.8641" height="46.6483" fill="white" transform="translate(0.94104 0.634766)"/>
</clipPath>
</defs>
</svg>
