<?xml version="1.0" encoding="utf-8"?>
<svg version="1.1" xmlns="http://www.w3.org/2000/svg" viewBox="0 0 1800 600">
<path fill="#282869" d="M285,115.8v248.7h-65.1V240.1c0-9.6-1.7-18.5-5.5-26.9s-8.7-15.6-15.1-22s-13.9-11.3-22.3-14.8
	c-8.4-3.5-17.4-5.2-26.6-5.2c-9.6,0-18.5,1.7-26.9,5.5s-15.6,8.7-22,14.8s-11.6,13.6-15.1,22c-3.8,8.4-5.5,17.7-5.5,27.2
	c0,9.3,1.7,18.2,5.5,26.3c3.8,8.4,8.7,15.6,15.1,22s13.9,11.3,22,15.1c8.4,3.8,17.1,5.5,26.9,5.5c10.1,0,19.1-1.7,26.3-5.5h0.6v0.9
	l24.9,44.3l-0.6,0.6c-16.2,12.5-36.2,18.8-60.2,18.8c-17.7,0-34.2-3.2-49.8-9.8c-15.6-6.7-29.2-15.6-40.8-27.2S30,306.5,23.3,290.9
	c-6.7-15.6-10.4-32.4-10.4-50.1c0-18,3.5-34.7,10.1-50.1c6.7-15.6,15.9-29.2,27.5-40.8s25.2-20.8,40.8-27.5s32.1-10.1,49.8-10.1
	c17.1,0,32.4,3.2,45.2,9.6c13,6.4,24,15.6,33.3,27.8v-33.6H285V115.8z M422.8,215.7c-1.2-0.3-2.3-0.6-3.2-0.6
	c-5-1.7-9.9-3.5-15.1-5.5c-5.2-2.1-9.8-4.4-13.9-6.4c-4-2-7.5-4.3-10.1-6.9c-2.7-2.3-4.1-5.2-4.1-8.1c0-4.1,0.9-7,2.6-9.3
	c1.8-2.3,3.8-3.8,6.4-5.2c2.3-1.4,5.2-2.3,8.1-2.6s5.5-0.6,7.8-0.6c12.7,0,24.6,2.4,35.9,6.7c11.3,4.6,20.9,10.7,28.4,18.2l0.6,0.6
	l30.6-55.3v-0.9c-13.9-9.2-29-16.2-45.2-21.1c-16.6-4.9-32.5-7.2-48.4-7.2c-13.7,0-26.1,2-37.4,5.8c-11.3,3.7-21.2,9.3-29,16.2
	c-8.1,6.9-14.2,15.3-18.5,24.9c-4.4,9.8-6.4,20.2-6.4,31.8v1.2c0,13,2.6,24,7.8,32.4c5.2,8.3,11.9,15.3,19.7,20.8
	c8.1,5.2,17.1,9.5,26.9,12.7c9.8,3.2,20,6.1,29.8,8.7c1.4,0.6,3.2,0.9,4.6,1.2c1.4,0,2.9,0.6,4.6,1.2c8.7,2.6,15.9,5.5,22.3,8.4
	s9.6,7.2,9.6,13.3c0,12.4-9.5,18.8-29.2,18.8c-14.1,0-27.7-2.6-40.2-8.1c-12.8-5.5-24.1-13.3-33.9-24l-0.6-0.6l-33.9,53.3l-0.6,0.6
	l0.6,0.6c15.9,11.9,33,21.1,51.2,27.8c18.2,6.6,36.8,9.8,55.6,9.8c30.2,0,53.6-7.2,70.4-21.4c16.8-14.2,25.2-33.9,25.2-59.1v-0.6
	c0-10.4-2-19.1-5.8-26.6c-3.7-7.5-9.2-13.9-15.9-19.1c-6.6-5.2-14.4-9.8-23.7-13.6c-9.3-3.8-19.1-7.5-30.1-11.3
	C425.1,216.3,424.2,216,422.8,215.7z M635.9,215.7c-1.2-0.3-2.3-0.6-3.2-0.6c-5-1.7-9.9-3.5-15.1-5.5c-5.2-2.1-9.9-4.4-13.9-6.4
	s-7.5-4.3-10.1-6.9c-2.7-2.3-4.1-5.2-4.1-8.1c0-4.1,0.9-7.3,2.6-9.3c1.8-2.3,3.8-3.8,6.4-5.2c2.3-1.4,5.2-2.3,8.1-2.6
	c2.9-0.3,5.5-0.6,7.8-0.6c12.7,0,24.6,2.4,35.9,6.7c11.3,4.6,20.9,10.7,28.4,18.2l0.6,0.6l30.6-55.3v-0.9
	c-13.9-9.2-29-16.2-45.2-21.1c-16.6-4.9-32.5-7.2-48.4-7.2c-13.7,0-26.1,2-37.4,5.8c-11.3,3.7-21.2,9.3-29,16.2
	c-8.1,6.9-14.2,15.3-18.5,24.9c-4.4,9.8-6.4,20.2-6.4,31.8v1.2c0,13,2.6,24,7.8,32.4c5.2,8.3,11.9,15.3,19.7,20.8
	c8.1,5.2,17.1,9.5,26.9,12.7c9.8,3.2,20,6.1,29.8,8.7c1.4,0.6,3.2,1.2,4.6,1.2c1.4,0,2.9,0.6,4.6,1.2c8.7,2.6,15.9,5.5,22.3,8.4
	s9.6,7.2,9.6,13.3c0,12.4-9.5,18.8-29.2,18.8c-14.1,0-27.7-2.6-40.2-8.1c-12.8-5.5-24.1-13.3-33.9-24l-0.6-0.6l-33.9,53.3l-0.6,0.6
	l0.6,0.6c15.9,11.9,33,21.1,51.2,27.8c18.2,6.6,36.8,9.8,55.6,9.8c30.2,0,53.6-7.2,70.4-21.4s25.2-33.9,25.2-59.1v-0.6
	c0-10.4-2-19.1-5.8-26.6c-3.7-7.5-9.2-13.9-15.9-19.1c-6.6-5.2-14.4-9.8-23.7-13.6s-19.1-7.5-30.1-11.3
	C638.5,216.3,637.3,216,635.9,215.7z M1198.7,134.9c3.2-3.2,6.7-6.4,10.4-9.6c-18.5-9.3-37.6-13.6-57.3-13.6
	c-33.9,0-59.6,12.2-77,36.2v-32.1H1007v248.7h67.8v-137c1.4-7.8,4.1-15.3,8.1-22.3c4.1-6.9,9.3-13,15.1-18.2
	c6.1-5.2,12.7-9,20.3-11.9s15.6-4.3,24.3-4.3c9.6,0,18.5,1.7,26.9,5.2C1177,160.7,1186.6,146.8,1198.7,134.9z M1649.8,16.2l66,0v348
	h-66.6v-32.7c-11.3,15.4-25.7,25.8-43.1,31.3c-1.2,0.3-2.7,0.9-4.1,1.2h-0.3c-8.9,2.7-18.8,4.1-29.5,4.1c-17.7,0-34.5-3.1-50.1-9.8
	c-15.6-6.4-29.2-15.6-40.8-27.2c-11.6-11.6-20.9-25.2-27.5-40.8s-10.1-32.1-10.1-49.8s3.4-34.2,10.1-49.8s15.9-29.2,27.5-40.8
	s25.2-20.5,40.8-27.2c15.4-6.6,32.1-9.8,50.1-9.8c33.9,0,59.6,12.4,77.6,37.6V16.2L1649.8,16.2z M1650.1,250.9v-11.6
	c0-9.2-2-17.9-5.8-26.3s-8.7-15.6-14.8-21.7c-6.4-6.1-13.3-11-22-14.5s-17.4-5.2-27.2-5.2s-18.5,1.7-26.9,5.2
	c-8.4,3.5-15.6,8.4-21.7,14.8s-11,13.6-14.8,22s-5.5,17.3-5.5,26.9c0,9.8,1.7,18.5,5.5,26.9c3.8,8.4,8.7,15.6,14.8,21.7
	c5.2,5.2,11.3,9.5,18.2,13c1.2,0.5,2.3,1.1,3.5,1.7c8.4,3.5,17.4,5.2,27.2,5.2c9.5,0,18.5-1.7,27.2-5.2c8.4-3.5,15.9-8.4,22-14.5
	s11.3-13.3,15.1-21.7C1647.2,262.3,1649,256.8,1650.1,250.9z M913.8,115.8v134.1c-0.9,6.1-2.6,12.2-5.2,18
	c-3.8,8.4-8.7,15.6-15.1,21.7c-4.9,4.9-10.7,9.3-16.8,12.5h-0.3c-1.7,1.2-3.8,2-5.5,2.9c-8.4,3.5-16.5,6.1-25.8,6.1
	c-1.2,0-2,0-3.2,0c-10.7-0.3-19.1-2.3-25.2-5.5c-6.7-3.8-11.6-9-14.8-15.1c-3.2-6.4-4.9-13.6-5.5-22s-0.9-16.8-0.9-25.8V115.8h-68
	V242c0,42.9,7.8,73.8,23.5,93.5c16.8,22,45.5,32.7,86,32.7c11,0,21.1-1.4,30.4-4.3c1.4-0.6,2.9-0.9,4.3-1.4c0.3,0,0.6-0.3,0.9-0.3
	c10.7-3.8,20-9.3,28.4-16.8c0,0,0,0,0.3-0.3l0,0c4.6-4.1,8.7-9,12.4-14.5v34.7h68V115.8H913.8L913.8,115.8z M1428.8,240.8
	c0,9.6-0.9,18.8-2.9,27.8l-0.6,0.9h-0.3v0.6h-182.1c2.9,5.8,6.3,11,10.4,15.9c5.5,6.4,12.5,12.2,20.3,16.5
	c8.1,4.4,17.1,6.7,26.9,6.7c9,0,17.1-1.2,24.6-3.8c7.5-2.6,14.4-8.1,21.1-16.8l0.6-0.6l0.9,0.6l57.6,25.5l-0.9,0.9
	c-11.9,16.8-27,29.8-45.5,39.1S1321,368,1300.4,368c-17.7,0-34.8-3.1-50.4-9.8c-15.9-6.4-29.5-15.6-41.1-27.2
	c-11.6-11.6-20.8-25.2-27.5-40.8c-6.6-15.6-10.1-32.1-10.1-49.8c0-17.7,3.4-34.5,10.1-50.1s15.9-29.2,27.5-40.8s25.4-20.9,41.1-27.5
	c15.7-6.6,32.4-10.1,50.4-10.1c17.7,0,34.2,3.4,49.8,10.1s29.2,15.9,40.8,27.5s20.8,25.2,27.5,40.8S1428.6,222.7,1428.8,240.8z
	 M1240.4,212.5c-0.8,2-1.4,4.1-2,6.1l-4.3-0.3h127.4c-4.7-13.9-12.5-25.2-23.2-34.2c-10.7-9-23.4-13.3-37.9-13.3
	c-9,0-17.7,1.7-25.5,5.5c-7.9,3.8-14.8,8.7-20.6,14.8C1248.5,197.2,1243.9,204.4,1240.4,212.5z"/>
<path fill="#059DDF" d="M352,458.6v-62.7H371v153.4H352v-18.8c-9.4,14.5-23.2,21.7-41.4,21.7c-15.5,0-28.6-5.5-39.2-16.7
	c-10.8-11.2-16.2-24.9-16.2-41c0-15.9,5.4-29.5,16.2-40.8c10.8-11.2,23.9-16.9,39.2-16.9C328.8,436.9,342.6,444.1,352,458.6z
	 M313,533.8c11.1,0,20.4-3.7,27.8-11.2c7.5-7.7,11.2-17.1,11.2-28.1c0-11.1-3.7-20.4-11.2-27.8c-7.5-7.6-16.7-11.4-27.8-11.4
	c-11,0-20.2,3.8-27.6,11.4c-7.5,7.5-11.2,16.7-11.2,27.8c0,11,3.7,20.3,11.2,28.1C292.8,530.1,302,533.8,313,533.8z M482.8,458.6
	v-18.8h19.1v109.6h-19.1v-18.8c-9.4,14.5-23.2,21.7-41.4,21.7c-15.5,0-28.6-5.5-39.2-16.7c-10.8-11.2-16.2-24.9-16.2-41
	c0-15.9,5.4-29.5,16.2-40.8c10.8-11.2,23.9-16.9,39.2-16.9C459.7,436.9,473.5,444.1,482.8,458.6z M443.8,533.8
	c11.1,0,20.4-3.7,27.8-11.2c7.5-7.7,11.2-17.1,11.2-28.1c0-11.1-3.7-20.4-11.2-27.8c-7.5-7.6-16.7-11.4-27.8-11.4
	c-11,0-20.2,3.8-27.6,11.4c-7.5,7.5-11.2,16.7-11.2,27.8c0,11,3.7,20.3,11.2,28.1C423.6,530.1,432.8,533.8,443.8,533.8z
	 M582.5,439.8v18.4h-29.1v59.4c0,5.4,1.1,9.2,3.2,11.5c2.1,2.3,5.4,3.4,9.8,3.5c4.4,0.1,9.8,0,16.2-0.3v17.1
	c-16.8,2.2-29,0.8-36.7-4.2c-7.7-5-11.5-14.2-11.5-27.6v-59.4h-21.7v-18.4h21.7v-25l19.1-5.7v30.7H582.5z M682.4,458.6v-18.8h19.1
	v109.6h-19.1v-18.8c-9.4,14.5-23.2,21.7-41.4,21.7c-15.5,0-28.6-5.5-39.2-16.7c-10.8-11.2-16.2-24.9-16.2-41
	c0-15.9,5.4-29.5,16.2-40.8c10.8-11.2,23.9-16.9,39.2-16.9C659.3,436.9,673.1,444.1,682.4,458.6z M643.4,533.8
	c11.1,0,20.4-3.7,27.8-11.2c7.5-7.7,11.2-17.1,11.2-28.1c0-11.1-3.7-20.4-11.2-27.8c-7.5-7.6-16.7-11.4-27.8-11.4
	c-11,0-20.2,3.8-27.6,11.4c-7.5,7.5-11.2,16.7-11.2,27.8c0,11,3.7,20.3,11.2,28.1C623.3,530.1,632.5,533.8,643.4,533.8z
	 M829.9,436.9c15.3,0,28.4,5.6,39.2,16.9c10.8,11.3,16.2,24.8,16.2,40.8c0,16.1-5.4,29.7-16.2,41c-10.7,11.1-23.7,16.7-39.2,16.7
	c-18.1,0-31.9-7.2-41.4-21.7v62.7h-19.1V439.8h19.1v18.8C798,444.1,811.8,436.9,829.9,436.9z M827.5,533.8c11,0,20.2-3.7,27.6-11.2
	c7.5-7.7,11.2-17.1,11.2-28.1c0-11.1-3.7-20.4-11.2-27.8c-7.5-7.6-16.7-11.4-27.6-11.4c-11.1,0-20.4,3.8-27.8,11.4
	c-7.5,7.5-11.2,16.7-11.2,27.8c0,11,3.7,20.3,11.2,28.1C807.1,530.1,816.4,533.8,827.5,533.8z M919.3,439.8v18.4
	c6.3-13.6,17.7-20.4,34.2-20.4v19.9c-9.3-0.4-17.4,2-24.1,7.5c-6.7,5.4-10.1,14.1-10.1,26.1v58.1h-19.1V439.8H919.3z M1050.8,535.5
	c-11.1,11.1-24.8,16.7-41,16.7s-29.9-5.5-41-16.7c-11.1-11.1-16.7-24.8-16.7-41s5.6-29.9,16.7-41c11.1-11.1,24.8-16.7,41-16.7
	s29.9,5.6,41,16.7c11.2,11.3,16.9,24.9,16.9,41C1067.7,510.6,1062.1,524.3,1050.8,535.5z M1009.8,533.6c11,0,20.2-3.7,27.6-11.2
	c7.5-7.5,11.2-16.7,11.2-27.8c0-11.1-3.7-20.4-11.2-27.8s-16.7-11.2-27.6-11.2c-10.8,0-19.9,3.7-27.4,11.2s-11.2,16.7-11.2,27.8
	c0,11.1,3.7,20.4,11.2,27.8C989.9,529.8,999,533.6,1009.8,533.6z M1139.6,439.8v18.4h-29.1v59.4c0,5.4,1.1,9.2,3.2,11.5
	c2.1,2.3,5.4,3.4,9.8,3.5c4.4,0.1,9.8,0,16.2-0.3v17.1c-16.8,2.2-29,0.8-36.7-4.2s-11.5-14.2-11.5-27.6v-59.4h-21.7v-18.4h21.7v-25
	l19.1-5.7v30.7H1139.6z M1254,503.3h-91.8c1.9,9.6,6.4,17.2,13.4,22.7s15.8,8.2,26.3,8.2c14.5,0,25-5.3,31.6-16l16.2,9.2
	c-10.8,16.5-26.9,24.8-48.2,24.8c-17.2,0-31.4-5.4-42.5-16.2c-10.8-11.1-16.2-24.9-16.2-41.4c0-16.7,5.3-30.4,16-41.2
	c10.7-11,24.5-16.4,41.4-16.4c16.1,0,29.1,5.7,39.2,17.1c10.2,11.1,15.3,24.7,15.3,40.8C1254.6,497.5,1254.4,500.4,1254,503.3z
	 M1200.1,454.9c-10.1,0-18.5,2.8-25.3,8.5c-6.8,5.7-11,13.4-12.6,23.2h73.2c-1.6-10.1-5.6-17.9-12.1-23.4
	C1216.9,457.7,1209.1,454.9,1200.1,454.9z M1319.9,552.2c-16.5,0-30.2-5.5-41.2-16.4c-11-11.1-16.4-24.8-16.4-41.2
	c0-16.4,5.5-30,16.4-41c11-11.1,24.7-16.7,41.2-16.7c10.8,0,20.5,2.6,29.1,7.8c8.6,5.2,15,12.2,19.3,20.9l-16,9.2
	c-2.8-5.8-7.1-10.5-12.8-14c-5.8-3.5-12.3-5.3-19.6-5.3c-11,0-20.2,3.7-27.6,11.2c-7.3,7.6-11,16.9-11,27.8c0,10.8,3.7,20,11,27.6
	c7.5,7.5,16.7,11.2,27.6,11.2c7.3,0,13.9-1.7,19.7-5.2c5.8-3.4,10.3-8.1,13.4-13.9l16.2,9.4c-4.8,8.8-11.6,15.7-20.4,20.8
	C1340.1,549.6,1330.4,552.2,1319.9,552.2z M1439.8,439.8v18.4h-29.1v59.4c0,5.4,1.1,9.2,3.2,11.5c2.1,2.3,5.4,3.4,9.8,3.5
	c4.4,0.1,9.8,0,16.2-0.3v17.1c-16.8,2.2-29,0.8-36.7-4.2s-11.5-14.2-11.5-27.6v-59.4h-21.7v-18.4h21.7v-25l19.1-5.7v30.7H1439.8z
	 M1464.1,419.8c-3.7,0-6.7-1.2-9.2-3.7c-2.5-2.5-3.7-5.5-3.7-9c0-3.5,1.2-6.5,3.7-9.1c2.5-2.6,5.6-3.8,9.2-3.8c3.5,0,6.5,1.3,9,3.8
	c2.5,2.6,3.7,5.6,3.7,9.1c0,3.5-1.2,6.5-3.7,9C1470.6,418.6,1467.6,419.8,1464.1,419.8z M1473.5,549.3h-19.1V439.8h19.1V549.3z
	 M1587.3,535.5c-11.1,11.1-24.8,16.7-41,16.7s-29.9-5.5-41-16.7c-11.1-11.1-16.7-24.8-16.7-41s5.6-29.9,16.7-41
	c11.1-11.1,24.8-16.7,41-16.7s29.9,5.6,41,16.7c11.2,11.3,16.9,24.9,16.9,41C1604.2,510.6,1598.5,524.3,1587.3,535.5z M1546.3,533.6
	c11,0,20.2-3.7,27.6-11.2c7.5-7.5,11.2-16.7,11.2-27.8c0-11.1-3.7-20.4-11.2-27.8s-16.7-11.2-27.6-11.2c-10.8,0-19.9,3.7-27.4,11.2
	s-11.2,16.7-11.2,27.8c0,11.1,3.7,20.4,11.2,27.8C1526.4,529.8,1535.5,533.6,1546.3,533.6z M1673.4,436.9c12.9,0,23.2,4.1,30.9,12.2
	c7.7,8.1,11.6,19.1,11.6,33v67.3h-19.1v-66.2c0-8.8-2.4-15.6-7.2-20.6c-4.8-5-11.5-7.5-19.9-7.5c-9.8,0-17.5,3-23.2,9.1
	c-5.7,6.1-8.5,15.1-8.5,27.1v58.1h-19.1V439.8h19.1v15.8C1645.5,443.1,1657.3,436.9,1673.4,436.9z"/>
</svg>
