<?xml version="1.0" encoding="UTF-8"?>
<svg version="1.1" viewBox="0 0 599.96 243.2" xmlns="http://www.w3.org/2000/svg"><g><path d="m276.85 61.723c-1.0293 0-1.9477 0.64848-2.2891 1.6191l-35.402 100.54c-0.556 1.5803 0.61573 3.2344 2.2891 3.2344h14.559c1.0493 0 1.9786-0.67317 2.3066-1.668l7.8066-23.682c0.328-0.99479 1.26-1.668 2.3066-1.668h33.451c1.048 0 1.9767 0.67317 2.3047 1.668l7.8086 23.682c0.32933 0.9948 1.2586 1.668 2.3066 1.668h14.559c1.6733 0 2.8451-1.6541 2.2891-3.2344l-35.402-100.54c-0.34133-0.97066-1.2584-1.6191-2.2891-1.6191h-16.604zm82.789 13.615-13.545 0.30078c-1.344 0-2.4316 1.0896-2.4316 2.4336v13.291c0 1.344-1.0896 2.4336-2.4336 2.4336h-5.377c-1.3453 0-2.4356 1.0896-2.4356 2.4336v10.125c0 1.3453 1.0902 2.4356 2.4356 2.4356h4.9297c1.3453 0 2.4336 1.0888 2.4336 2.4336v28.137c0 25.385 20.931 28.502 31.471 28.502 1.4213 0 2.6316-0.07092 3.5703-0.15625 1.2587-0.11467 2.2188-1.1613 2.2188-2.4238v-11.633c0-1.3844-1.1427-2.489-2.5254-2.4316-0.27733 0.0119-0.57533 0.01953-0.88867 0.01953-5.196 0-14.992-1.7826-14.992-14.252v-25.762c0-1.3448 1.0896-2.4336 2.4336-2.4336h12.354c1.344 0 2.4336-1.0902 2.4336-2.4356v-10.125c0-1.344-1.0896-2.4336-2.4336-2.4336h-12.354c-1.344 0-2.4336-1.0896-2.4336-2.4336l0.00391-13.592c0-1.344-1.0896-2.4336-2.4336-2.4336zm-74.561 4.6426h0.29687s2.2269 10.391 4.1562 16.33l8.2949 25.014c0.52133 1.5719-0.65003 3.1914-2.3047 3.1914h-20.887c-1.656 0-2.8274-1.619-2.3047-3.1914l8.2949-25.014c2.076-5.9387 4.4531-16.33 4.4531-16.33zm144.33 9.6504c-23.011 0-41.568 16.479-41.568 39.637 0 23.306 18.556 39.635 41.715 39.635 23.008 0 41.566-16.329 41.566-39.635 0-23.158-18.557-39.637-41.713-39.637zm87.201 0.2207c-4.5933-0.001299-9.0188 0.94249-13.021 2.6465-6.012 2.556-11.091 6.7872-14.701 12.115-3.6107 5.3227-5.7448 11.806-5.7422 18.701v41.373c0 1.3437 1.0896 2.4336 2.4336 2.4336h14.602c1.3453 0 2.4336-1.0898 2.4336-2.4336v-41.373c1e-3 -1.9328 0.39099-3.7376 1.0976-5.4062 1.0587-2.4985 2.864-4.675 5.1133-6.1953 2.2547-1.5199 4.8932-2.388 7.7852-2.3906h1.2168c1.932 0 3.735 0.38863 5.4043 1.0957 2.4987 1.0583 4.6753 2.8619 6.1953 5.1113 1.52 2.2552 2.3899 4.8941 2.3926 7.7852v0.60938 40.764c0 1.3437 1.0883 2.4336 2.4336 2.4336h14.602c1.3453 0 2.4356-1.0898 2.4356-2.4336v-40.764c0-1.9333 0.38833-3.74 1.0977-5.4082 1.056-2.4984 2.862-4.6731 5.1113-6.1934 2.2547-1.5208 4.8899-2.39 7.7832-2.3926h1.2188c1.9333 1e-3 3.7369 0.39045 5.4062 1.0976 2.4986 1.0579 4.6753 2.8604 6.1953 5.1094 1.52 2.2563 2.3886 4.8943 2.3926 7.7871v40.764c0 1.3437 1.0896 2.4336 2.4336 2.4336h14.602c1.3453 0 2.4336-1.0898 2.4336-2.4336v-40.764c1e-3 -4.5932-0.94515-9.0172-2.6465-13.021-2.5573-6.0111-6.7872-11.092-12.115-14.703-5.3213-3.6093-11.805-5.7423-18.701-5.7383h-1.2188c-4.592-0.0027-9.0149 0.94382-13.018 2.6465-3.2267 1.372-6.1772 3.2318-8.7812 5.4824-0.932 0.804-2.3075 0.77393-3.2168-0.052735-1.1747-1.0667-2.4216-2.052-3.7402-2.9453-5.32-3.6093-11.805-5.7429-18.699-5.7402h-1.2168zm-87.055 15.811c12.172 0 22.416 9.6514 22.416 23.605 0 14.104-10.244 23.604-22.416 23.604-12.323 0-22.564-9.4999-22.564-23.604 0-13.954 10.242-23.605 22.564-23.605z" fill="#312050"/><g fill-rule="evenodd"><path d="m112.42 26.524c0.0369-0.62 0.0547-1.1493 0.0547-1.4893 6e-3 -1.8333-0.20467-3.6467-0.61987-5.44-0.0916-0.424-0.20467-0.864-0.33013-1.3133-0.46614-1.5787-0.9256-2.82-1.5652-4.1053-0.66347-1.2613-1.1979-2.1667-1.7599-2.9947-0.1124-0.16267-0.2244-0.30533-0.3364-0.46133-0.49067-0.68267-0.98387-1.3147-1.4871-1.8933-0.17026-0.19867-0.34106-0.408-0.51813-0.6-0.59893-0.64667-1.1808-1.212-1.738-1.712-0.16773-0.15067-0.3308-0.292-0.49747-0.436-0.69736-0.59333-1.311-1.0627-1.8178-1.4173-0.31973-0.21867-0.41507-0.28933-0.48333-0.33467-0.1932-0.12267-0.37707-0.22-0.56814-0.336-0.5412-0.33867-1.0683-0.664-1.5787-0.94-0.80373-0.42133-1.4708-0.73867-2.1-1.0013-0.7792-0.32533-1.4021-0.556-1.9469-0.73067-0.3568-0.11733-0.5312-0.18-0.65307-0.21333-0.1636-0.046667-0.32707-0.076-0.49373-0.12-0.57147-0.15867-1.1303-0.29867-1.6745-0.41067-0.15987-0.033333-0.32347-0.068-0.4828-0.096-0.56507-0.10667-1.1099-0.19067-1.6344-0.25333-0.4416-0.056-0.8776-0.098667-1.3167-0.132-0.364-0.026667-0.72813-0.053333-1.0687-0.066667-0.2896-0.010667-0.58187-0.022667-0.87093-0.022667-1.4468-0.013333-2.7531 0.098667-4.1484 0.32533l-0.364 0.062667c-2.1 0.372-4.3969 1.0427-6.6611 2.088-0.38373 0.16933-0.71093 0.32933-1.0989 0.532l-0.36347 0.196c-0.4464 0.24133-0.9672 0.544-1.5417 0.91067-1.2463 0.812-2.4989 1.7453-3.7484 2.9-0.14587 0.13867-0.2776 0.26933-0.41413 0.39867-0.15 0.14933-0.30307 0.28267-0.45307 0.43733-0.69693 0.76133-1.1396 1.252-1.5036 1.6813-0.1672 0.192-0.29693 0.38667-0.4532 0.58267-0.6672 0.87067-1.1229 1.5307-1.5145 2.1893-0.2552 0.42-0.41147 0.70667-0.56827 0.996-0.4864 0.87733-0.86827 1.6467-1.0921 2.1373-0.21773 0.48933-0.436 0.98667-0.6432 1.4587-1.3824 3.16-3.0016 6.8493-4.35 9.9267-0.112 0.256-0.2376 0.54533-0.34387 0.78933-0.08853 0.20267-0.19053 0.43867-0.2848 0.65467-0.48707 1.112-1.0287 2.344-1.5489 3.5387-0.31 0.7-0.60947 1.3853-0.87453 1.9947-0.20107 0.456-0.42867 0.97733-0.6432 1.4653-1.5625 3.5653-3.4308 7.8307-4.8912 11.167-1.4323 3.276-3.2563 7.436-4.8183 11.008-0.29373 0.67067-0.59573 1.364-0.86867 1.9827-0.4964 1.1347-1.0885 2.4827-1.6672 3.804-0.43547 0.99333-0.86413 1.976-1.238 2.828-0.81773 1.864-1.7604 4.0227-2.7131 6.192-0.6328 1.448-1.2656 2.8933-1.8749 4.288-0.46987 1.0707-0.92667 2.1133-1.3443 3.0693-0.4324 0.98933-0.90533 2.0653-1.3891 3.1707-1.5688 3.5827-3.3215 7.5867-4.724 10.785-0.1084 0.24533-0.2308 0.53067-0.34693 0.792-0.8848 2.0227-1.9463 4.4427-2.7765 6.3387-1.4703 3.3587-3.3151 7.5667-4.9588 11.325-0.49693 1.1323-0.98027 2.2375-1.4261 3.2547-1.402 3.1995-3.1307 7.1468-4.7233 10.79-0.11573 0.262-0.23187 0.52507-0.34387 0.78294-0.52707 1.2041-1.038 2.3733-1.5114 3.4489-1.0073 2.3072-2.3583 5.3787-3.3651 7.6869-2.0667 4.7145-4.8198 11.005-6.8849 15.724-0.61615 1.5344-1.0417 2.6495-1.3823 3.8615-0.37083 1.2812-0.6224 2.5891-0.90573 4.6719-0.125 1.0077-0.18646 2.0401-0.16667 2.8172 0.014583 1.4905 0.095833 2.9615 0.30312 4.4229 0.051041 0.4452 0.22448 1.5823 0.63333 3.1369 0.14948 0.6 0.32344 1.1932 0.56094 1.8921 0.22552 0.64373 0.36147 1.024 0.5276 1.4677 0.54896 1.4615 1.2661 2.8032 1.8313 3.7828 0.38803 0.66666 0.60625 1.024 0.73177 1.2308 0.20052 0.31866 0.50312 0.74426 0.79323 1.1563 0.35313 0.5036 0.78541 1.0427 1.2724 1.6317 0.12656 0.15306 0.25208 0.3172 0.3776 0.46253 0.26928 0.31453 0.56511 0.62387 0.87188 0.952 0.49635 0.52813 0.98333 1.0136 1.4604 1.4589 0.14584 0.13174 0.26511 0.25827 0.41771 0.39054 1.501 1.3437 2.8385 2.2719 3.6791 2.8 1.0579 0.64373 1.8548 1.1079 2.5901 1.4771 1.6672 0.83334 3.4027 1.4667 3.4199 1.4693 0.20413 0.0735 0.3984 0.10413 0.59893 0.1708 4.2885 1.4547 7.9432 1.6625 10.121 1.5855 0.21507-4e-3 0.38227-0.0256 0.56613-0.0317 0.55467-0.0272 1.1292-0.0709 1.7251-0.1272 0.70053-0.0667 1.3615-0.14893 2.0047-0.25147 0.43547-0.0699 0.86773-0.13653 1.3203-0.2256 0.47653-0.1 0.89853-0.212 1.3339-0.32546 0.30267-0.076 0.60213-0.1464 0.91613-0.236 0.68027-0.1984 1.2865-0.3984 1.8437-0.60414 0.85787-0.3156 1.4537-0.55733 1.9125-0.76666l0.32707-0.16254c0.22453-0.10413 0.4532-0.21973 0.6808-0.33173 0.57187-0.2812 1.1093-0.56827 1.6197-0.8536 0.1604-0.0891 0.31667-0.17187 0.47653-0.26667 0.85787-0.5 1.6104-0.988 2.2803-1.4599 1.8885-1.348 3.0115-2.4147 3.5568-2.9855 1.2015-1.2145 1.9224-2.0677 2.1645-2.3797 0.54747-0.6776 1.062-1.3812 1.7084-2.3511 0.1624-0.24627 0.31293-0.47187 0.48373-0.73067 0.31933-0.5224 0.5272-0.87546 0.7172-1.224 0.09173-0.17026 0.1772-0.33586 0.26573-0.50773 0.0984-0.19333 0.2004-0.38907 0.29213-0.5828 0.48387-0.98653 0.88227-1.912 1.1547-2.5959l16.359-43.453c12.53-33.307 25.997-69.094 36.956-98.218l0.20733-0.632c0.73547-2.2333 0.77973-2.436 1.0484-3.9733 0.1292-0.74933 0.20787-1.4307 0.26253-2.0573 0.0199-0.22933 0.0303-0.46 0.0475-0.688" fill="#f8d722"/><path d="m182.3 204.83c-0.13733-1.7271-0.52133-4.0119-0.89866-5.7057-0.29867-1.3463-0.916-3.0864-1.3507-4.3943-0.384-1.0176-0.808-2.1416-1.2293-3.2604-1.3333-3.5333-2.7907-7.3905-4.14-10.97-0.50534-1.3417-1.004-2.6563-1.4547-3.8588-0.98267-2.6027-2.296-6.0813-3.2787-8.6839-1.3827-3.6641-3.1-8.212-4.664-12.355-0.57466-1.5291-1.1333-3.0093-1.6413-4.3572-1.36-3.5975-3.0573-8.1-4.584-12.144-0.49467-1.3037-0.96933-2.5667-1.4067-3.7292-0.45466-1.2079-0.99333-2.624-1.524-4.0344-0.47866-1.2656-0.952-2.5244-1.364-3.6093-1.668-4.4229-3.8933-10.317-5.56-14.737-1.5907-4.2135-3.7093-9.8295-5.3-14.045-0.768-2.0333-1.792-4.7453-2.56-6.7827-1.0827-2.8667-2.4253-6.4293-3.652-9.6747-0.45066-1.2-0.88933-2.3587-1.2867-3.4213-1.42-3.7533-3.3081-8.756-4.7248-12.513-0.68547-1.8147-1.6011-4.2373-2.286-6.052-0.3244-0.85733-0.67494-1.788-1.0391-2.7533-0.75933-2.016-1.5776-4.1853-2.3391-6.2053-0.364-0.96533-0.7156-1.8933-1.04-2.7547l7e-3 0.02267-0.0104-0.02267c-0.60106-1.456-1.0495-2.548-1.8677-3.9813l-0.0463-0.092c-0.16773-0.3-0.3912-0.64-0.59853-0.96933-0.0968-0.15333-0.1672-0.28-0.2708-0.444l-0.0297-0.04c-0.41507-0.62933-0.84574-1.252-1.2468-1.7627l-0.32027-0.356c-0.87867-1.0973-1.7611-2.084-2.6037-2.8773l-0.29427-0.25467c-1.1989-1.0933-2.3025-1.9333-3.0812-2.5107l-0.01-0.0053-9e-3 -0.0067c-0.81614-0.60133-2.3396-1.5533-4.4943-2.512-0.24427-0.112-0.48853-0.23467-0.7292-0.33333-0.1932-0.08133-0.4244-0.15733-0.628-0.23733-0.7016-0.27333-1.3896-0.524-2.0584-0.728-0.1536-0.04933-0.2708-0.10267-0.4276-0.152-1.186-0.36133-2.3432-0.596-3.4115-0.76133l-0.0505-0.0093c-0.4812-0.072-0.94533-0.132-1.3801-0.17867-1.2907-0.14133-2.3724-0.176-3.1011-0.16667h-0.05c-0.33747-4e-3 -1.2969 0.0053-2.6401 0.132-0.23693 0.02267-0.47133 0.044-0.69533 0.07067l-0.30107 0.03467-0.32333 0.04533-0.38493 0.056c-0.3568 0.05733-0.71773 0.11867-1.0287 0.17467l-0.14067 0.03333c-0.49787 0.096-0.95573 0.19867-1.3833 0.30933l-0.1468 0.03333c-0.83227 0.17067-1.838 0.51733-2.7704 0.87733-0.15053 0.05067-0.28067 0.09867-0.4416 0.15067-0.59747 0.21067-1.3765 0.56933-2.1984 0.98267-0.51413 0.25333-0.98907 0.49333-1.4667 0.764l-0.03027 0.02c-0.314 0.17867-0.6552 0.36933-0.89213 0.50667-0.27707 0.16533-0.6552 0.40667-1.0928 0.70667l-0.17707 0.12667c-0.43067 0.3-0.89893 0.644-1.4068 1.0387l-0.16667 0.12667c-0.1244 0.09733-0.30773 0.26667-0.452 0.384-0.83853 0.68933-1.6969 1.4507-2.4823 2.3013-0.32093 0.34533-0.548 0.64667-0.82867 0.976-0.4652 0.52533-0.9224 1.08-1.3907 1.712-0.51453 0.692-0.95253 1.3387-1.3197 1.9413l-0.224 0.33067c-0.08693 0.14667-0.1364 0.27867-0.21973 0.42533-0.41147 0.728-0.77613 1.416-1.0833 2.032-0.074 0.14667-0.14747 0.33467-0.2204 0.49867l-0.09733 0.21333c-0.32707 0.74533-0.65467 1.5627-0.86827 2.2547l-0.04013 0.14533c-0.56507 1.724-0.84587 3.144-1.0292 4.12l-0.02707 0.196c-0.09 0.62267-0.20053 1.464-0.28013 2.4693-0.08747 0.992-0.12133 1.9173-0.0672 3.0933v0.084c0.05987 1.3147 0.1536 2.1973 0.31093 3.1307 0.1536 0.948 0.35053 1.8227 0.58747 2.8373l0.02653 0.11067 0.01093 0.05333 40.137 150.01-4e-3 -0.024 4e-3 0.0147v0.0119c0.89587 3.26 1.8776 5.3787 2.1588 5.9563 1.4095 2.8865 2.7661 5.1371 4.0235 6.6932 1.7708 2.1839 3.0505 3.7615 5.7203 6.0011 3.1011 2.5922 5.8715 4.0323 6.9136 4.5734 6.4035 3.3281 14.111 4.7026 21.149 3.7802 1.5747-0.20833 5.752-0.75469 10.711-3.0417 4.7453-2.1849 7.6493-4.7516 9.2133-6.1318 3.2187-2.8562 5.62-6.4786 7.0613-9.0161 2.3053-4.0489 3.2573-8.1068 3.6587-9.8385 0.67467-2.8745 0.932-6.7308 0.672-10.065" fill="#57467b"/><path d="m173.13 114.18 7e-3 -0.0604c0.076-0.91 0.13067-1.8699 0.14-2.9276l-3e-3 -0.13026-7e-3 -0.3208c0-0.74854-0.028-1.4681-0.072-2.1628-0.0173-0.29467-0.0373-0.57067-0.0613-0.848-0.036-0.40667-0.076-0.79334-0.124-1.176-0.0413-0.35067-0.08-0.69467-0.124-1.0133l-0.0107-0.0653c-0.10667-0.69467-0.21334-1.2867-0.32-1.788-0.35334-1.7587-0.74534-3.0333-0.93467-3.596-0.0933-0.276-0.22267-0.63867-0.33733-0.964-0.728-2.168-1.4947-3.8413-2.3267-5.3547-0.152-0.28133-0.316-0.56933-0.48533-0.86267-0.484-0.83467-0.992-1.6507-1.532-2.5067-7e-3 -0.01733-0.89334-1.3667-2.3133-3.0707l-0.272-0.328c-0.17832-0.20936-0.37032-0.42536-0.56632-0.64536-0.296-0.33333-0.58134-0.648-0.856-0.94267-0.13734-0.144-0.268-0.284-0.39467-0.41333-1.4787-1.5227-2.6267-2.4573-3.0013-2.748l-0.024-0.02c-0.0147-0.0093-0.832-0.69733-2.1213-1.62-0.94533-0.70933-1.512-1.0787-2.612-1.744l-0.0933-0.052-0.0853-0.056c-0.38934-0.23333-0.816-0.472-1.2653-0.70933-1.9627-1.0853-3.4853-1.7347-3.9627-1.9267h-4e-3c-1.3893-0.62267-3.9267-1.4453-6.2693-2.032-0.156-0.03867-0.30933-0.07467-0.464-0.112-0.91866-0.21867-1.7813-0.39467-2.5267-0.5-0.664-0.11067-1.3133-0.18-1.9627-0.252-0.30933-0.036-0.57733-0.06267-0.88667-0.09467-0.20666-0.02-0.41733-0.056-0.62-0.06933-0.216-0.01333-0.45333-0.01867-0.676-0.03333-0.248-0.01467-0.53333-0.05067-0.76-0.05867-0.57066-0.0053-1.344-0.01467-2.1761-0.01333-0.28173 4e-3 -0.55307 0-0.84587 8e-3 -1.2713 0.02267-2.6567 0.088-3.9119 0.264l-0.30947 0.04533c-1.2817 0.16133-2.6181 0.4-4.014 0.72133-0.6604 0.14533-1.3 0.29467-1.8703 0.456-2.3923 0.67733-2.5371 0.744-6.3387 2.3387l-0.014 0.0067 0.014-0.0093-70.463 32.781-0.05893 0.0333-0.202 0.10533c-0.57453 0.28694-1.1068 0.56614-1.612 0.83694-0.4088 0.2156-0.80107 0.43333-1.1719 0.64946l-0.04533 0.0297c-0.41973 0.24533-0.83173 0.50306-1.2511 0.788l-0.24427 0.16146c-0.30933 0.21614-0.6296 0.44427-0.97347 0.70414-0.1604 0.1204-0.3088 0.21613-0.47707 0.34373-0.14107 0.11093-0.25827 0.22867-0.39573 0.33813-0.39853 0.31707-0.82093 0.66454-1.2953 1.0604-0.0308 0.0229-2.7776 2.3457-4.9745 5.6015-0.11307 0.16987-0.19587 0.33387-0.30573 0.50053-1.8073 2.7287-2.7531 5.0489-3.0968 6.0412-0.0516 0.1448-0.1136 0.33747-0.16467 0.49107l-0.124 0.3672c-0.13067 0.3828-0.25093 0.79533-0.38533 1.2511-0.12293 0.42186-0.23693 0.83226-0.33653 1.2344-0.0484 0.20053-0.09267 0.3932-0.13747 0.60306-0.48853 2.2136-0.6432 4.0953-0.64947 5.398v9e-3c-0.14067 4.9213 1.0344 8.6079 1.2683 9.3 0.20627 0.5984 0.42293 1.2224 0.67027 1.8745l0.09267 0.28013c0.13707 0.36 0.29853 0.69334 0.45053 1.0385 0.08907 0.20946 0.17187 0.4136 0.27147 0.6292 0.23013 0.4912 0.47133 0.95786 0.71813 1.4109 0.16933 0.3188 0.35053 0.64013 0.54693 0.97453 0.35053 0.5948 0.70107 1.1479 1.0479 1.6629l0.19693 0.30786 0.13333 0.17347c1.2823 1.8224 2.4124 3.0369 2.7677 3.3973l0.2432 0.2292c1.4129 1.4719 2.6437 2.5027 3.2697 2.9683 0.2464 0.1864 0.58747 0.42907 0.90373 0.66093 0.15467 0.112 0.3088 0.22547 0.464 0.33747 0.54267 0.38027 1.1719 0.7948 1.8875 1.2307 0.52187 0.31626 1.0547 0.59066 1.5844 0.8652 0.34693 0.1844 0.67347 0.3604 1.0516 0.54426l0.17493 0.0905c0.49173 0.22146 1.2385 0.548 2.1761 0.90786l0.32653 0.14267c0.81773 0.29587 2.5197 0.91467 4.9948 1.4172 0.20253 0.0417 0.4364 0.0751 0.65627 0.11093l0.0276 8e-3c0.34733 0.0547 0.69733 0.10827 1.0687 0.15627 1.0595 0.1572 2.1661 0.288 3.3652 0.34373h-0.0032c0.7084 0.0177 1.3199 0.0203 1.8975 0.0135l0.24373-3e-3c1.5405-0.0203 2.7052-0.11613 3.8844-0.29213 0.93853-0.12147 1.9427-0.29227 3.2791-0.60947l0.0344-7e-3 76.042-18.403-0.0307 0.0109 0.0333-0.0109c0.136-0.0317 0.26667-0.0797 0.404-0.11453l0.0853-0.0256c-0.16534 0.0427-0.32267 0.1016-0.492 0.14013 0.91066-0.25467 2.148-0.54013 3.0387-0.85467 0.21334-0.0745 0.45467-0.16253 0.684-0.2464 0.86667-0.29066 1.784-0.64426 2.7467-1.0511 0.55067-0.22907 1.0853-0.45827 1.5507-0.68907l0.30266-0.152 0.13334-0.0625 0.148-0.0844c4.2173-2.1464 6.5173-4 7.5173-4.8063l0.22-0.19627 0.10667-0.0787c0.17866-0.1464 0.32666-0.3172 0.50133-0.46774 0.90533-0.78026 1.7533-1.5631 2.5267-2.3588 0.348-0.35733 0.67066-0.72666 1-1.0907 0.60933-0.67867 1.184-1.3469 1.7053-2.0147 0.32667-0.4124 0.65333-0.828 0.95867-1.2552 0.768-1.0572 1.448-2.0895 2.0227-3.0687 0.10667-0.17973 0.19867-0.3636 0.29867-0.54426 1.6253-2.8792 2.4947-5.2543 2.836-6.348 0.10267-0.3364 0.216-0.69374 0.32667-1.0703l0.096-0.32813c0.51866-1.7745 1.056-3.9989 1.3027-6.9369" fill="#eb2b81"/></g></g></svg>
