<?xml version="1.0" encoding="UTF-8"?>
<svg version="1.1" viewBox="0 0 500 90" xmlns="http://www.w3.org/2000/svg">
 <path d="m53.99 5.9922c-1.414 0-2.3571 0.23636-2.8281 0.94336h-1.4141l-2.3574 0.23633c-1.415 0.235-2.3568 0.94244-3.3008 1.6484-0.235 0.236-1.1781 1.1791-1.4141 2.1211 0 0.707 0.23633 1.4144 0.23633 1.6504l0.23633 0.23438c0.472-0.471 1.4128-0.70508 2.5918-0.70508 1.649 0 4.0065 0.70577 4.4785 1.8848 1.178 1.886 0.70508 3.2992 0.70508 4.9492-0.706 4.478-2.3546 6.6013-5.8906 7.0723-0.707 0.236-1.4147 0.23633-1.8867 0.23633-2.592 0-4.4789-0.70838-5.4219-2.3594v-0.4707s0.23666-3.3e-4 0.47266-0.23633c0.942-0.471 1.6488-1.1781 1.8848-2.1211 0.235-1.178 9.21e-4 -2.3558-0.70508-3.2988-1.414-1.414-3.3009-2.3574-5.4219-2.3574-1.414 0-2.3578 0.2357-3.3008 0.4707-2.829 0.707-5.4216 3.0639-7.3066 6.8359-1.414 2.829-2.3568 6.1274-2.5918 9.8984-0.236 3.772-0.236 6.8361 0 9.6641 0.235 4.713 1.1784 7.5434 2.3574 10.607 1.178 3.064 2.5932 5.8924 4.2422 8.4844 0.472 0.707 0.70674 1.4147 1.1777 1.8867l0.23633-0.23632c0.235-0.236 0.47008-0.47041 0.70508-0.94141 0.943-0.707 2.5935-3.0645 3.0645-3.7715 0.472-0.707 1.1794-1.8865 1.6504-3.0645l0.23437-0.4707 0.47266 0.23437c0.471 0.472 0.70703 1.1787 0.70703 1.8867 0 0.707-0.23603 1.4131-0.70703 2.8281-0.472 1.649-1.4154 3.5349-2.3574 5.4199 0.235 0.236 0.235 0.70898 0 0.70899-0.707 1.177-0.70703 1.6491-0.70703 2.1211h0.23633c0.235 0 1.1768-0.23631 1.8848-0.94531 0.706-0.471 2.5922-2.1199 4.9492-5.4199 1.886-2.358 3.0645-4.9493 4.4785-7.7773l0.23633-0.47266 0.4707 0.23633 0.70703 0.47071c0.236 0.471 0.23633 1.1778 0.23633 1.8848-0.236 1.886-1.415 4.4792-2.123 6.3652-1.414 3.3-4.0066 6.8377-5.8926 9.4297 0 0.235-0.47203 0.70508-0.70703 0.70508 0.235 0.236 0.47236 0.47203 0.94336 0.70703l0.70703 0.70703c2.593 2.122 4.9497 3.7719 8.0137 5.4219 2.358 1.414 7.0711 3.7699 10.371 4.7129 3.299-0.706 8.0131-3.2999 10.371-4.7129 3.064-1.65 5.4216-3.2999 8.0156-5.4219l0.70508-0.70703 0.94336-0.70703c0.236-0.472 0.23633-0.70541 0.23633-0.94141l-0.23633-0.23632c-1.886-2.357-4.4776-6.1277-5.8926-9.4277-0.706-1.885-1.8851-4.4783-2.1211-6.3633-0.235-0.707-0.0016-1.4157 0.23438-1.8867l0.47266-0.4707c0.235-0.235 0.70703-0.23633 0.70703-0.23633l0.23438 0.4707c1.414 2.829 2.8295 5.4223 4.4785 7.7793 2.358 3.3 4.2422 4.9489 4.9492 5.4199 0.707 0.707 1.4147 0.94336 1.8867 0.94336h0.23633c0.235-0.235-9.9e-4 -0.70772-0.70899-1.8867-0.235-0.235-0.23437-0.47007-0.23437-0.70507-0.942-1.886-1.8864-3.7709-2.3574-5.4219-0.472-1.414-0.70703-2.3571-0.70704-2.8281 0-0.708 0.23504-1.4157 0.70704-1.8867l0.4707-0.23438 0.23437 0.4707c0.472 1.178 1.4157 2.5928 1.8867 3.3008l2.8281 3.5352c0.472 0.472 0.70703 0.70736 0.70703 0.94336l0.23633 0.23438c0.236-0.236 0.47136-0.70544 0.94336-1.6484l0.23437-0.23633c1.415-2.358 2.8279-5.4223 4.0059-8.4863 1.179-2.828 1.8874-5.8915 2.3594-10.605 0.235-2.828 0.471-5.8911 0-9.6621 0.239-3.536-0.70386-7.0711-1.8809-9.6641-0.708-1.65-1.8858-3.5352-4.0078-4.9492-0.94199-0.707-2.1218-1.4157-3.3008-1.8867-0.943-0.23499-1.8854-0.4707-3.0644-0.4707h-0.23438c-1.415 0-4.0079 0.23543-5.4219 2.3574-0.707 0.706-0.94303 2.1208-0.70703 3.2988 0.235 0.944 0.94372 1.8851 1.8867 2.1211 0 0 0.23503 0.23632 0.70703 0.23632 0 0.236-0.23633 0.70703-0.23633 0.70703-0.707 0.706-1.8849 1.8848-5.4199 1.8848h-0.23633c-1.885-0.235-3.2989-0.70613-5.4199-2.8281-1.179-1.414-1.8867-4.0067-1.8867-8.0137 0-2.12-0.23603-3.7715-0.70703-5.1855-0.236-0.944-1.1768-1.8854-1.8848-2.3574-0.707-0.47099-1.1784-0.70673-2.3574-1.1777-1.415-0.235-2.8298-0.47266-4.0078-0.47266zm411.53 7.3106c-10.843 0-20.977 4.0047-20.977 16.262 0 8.249 5.8923 12.728 15.32 18.385 4.478 2.592 8.0137 5.4201 8.0137 9.6621 0 5.185-4.7144 8.0137-10.607 8.0137-7.777 0-12.962-4.4778-15.791-10.135l-0.94336 14.143c5.893 2.121 11.077 3.0644 16.027 3.0644 12.256 0 22.627-6.8344 22.627-17.441 0-8.249-6.3622-12.965-12.49-16.736-5.657-3.771-11.078-6.5982-11.078-11.076 0-5.186 4.2414-7.0723 9.1914-7.0723 5.656 0 10.84 3.301 13.197 7.543l1.416-13.434c-3.771 0-7.7783-1.1777-13.906-1.1777zm-169.47 0.23242c-19.562 0-29.932 14.85-29.932 33.705 0 13.435 8.485 25.691 23.334 25.691 11.313 0 18.147-5.8936 21.211-14.85-7.306 5.185-11.784 6.3652-16.734 6.3652-8.956 0-16.025-6.8358-16.025-19.092 0-11.314 4.9491-24.512 17.205-24.512 6.128 0 10.841 3.2984 13.67 8.4844l1.4141-14.613c-5.185 0-8.0136-1.1797-14.143-1.1797zm107.71 0.47266c-2.122 0-6.5998 0.2347-10.135 0.4707 2.121 0.942 5.1857 5.8921 8.0137 11.078 4.243 8.484 7.0724 15.557 9.1934 22.627 0 5.186-0.94349 20.978-3.7715 23.57h15.557c-1.178-1.178-1.6504-4.7146-1.6504-7.3066 0-6.128 0.23574-11.785 1.1777-16.027 0.943-2.357 2.8288-5.186 4.0078-7.543 2.828-4.713 16.026-25.69 19.326-26.398h-15.32c0.472 0.472 0.70703 2.1208 0.70703 3.2988 0 1.65-0.94244 3.5362-1.6484 4.9512-3.536 5.892-6.3657 10.134-10.137 16.262-1.649-4.478-4.2427-10.841-8.0137-19.326-2.356-5.185-3.5356-5.6562-7.3066-5.6562zm-286.84 0.4707c1.178 0.943 1.6504 3.536 1.6504 7.543 0 4.714-0.23636 11.549-0.94336 20.035l-0.23438 3.5352c-0.942 15.319-1.6492 23.804-4.2422 26.162h20.033c15.321 0 24.75-8.0141 24.514-17.914 0-9.192-6.6006-13.671-15.557-14.377 6.363-1.65 13.197-6.1289 13.197-13.672 0-11.077-10.606-11.312-16.027-11.312zm201.05 0c0.942 1.178 1.4141 3.77 1.4141 7.541 0 4.715-0.23441 11.315-0.94141 20.035l-0.23633 3.5352c-1.178 15.084-1.8842 23.57-4.2422 26.162h40.539c0-0.942-0.23633-1.8848-0.23633-2.5918 0-3.064 2.1238-7.5424 4.0098-11.314l1.1758-2.5918h7.0723c6.598 0 10.84-0.47044 13.197-1.6484l1.4141 4.9492c4.008 13.435 4.2444 13.67 9.1934 13.67 1.415 0 5.8934-0.23504 9.1934-0.70704-3.771-2.829-6.3644-10.136-10.607-25.455l-2.3574-8.957c-1.178-4.007-6.1289-22.627-6.1289-22.627h-12.492c0.472 1.179 0.70703 2.1208 0.70703 3.2988 0 1.414-3.772 9.6647-7.543 17.678l-4.0059 8.4844c-3.064 6.364-5.8917 12.493-8.7207 17.443-4.478 2.829-6.5987 3.0625-16.262 3.0625-2.829 0-3.7715-0.70683-3.7715-3.2988 0-5.421 0.94173-11.315 1.1777-16.971l0.23633-3.5352c0.943-15.32 1.6489-24.513 4.0059-26.162zm-135.76 0.23438c0.472 1.179 0.70703 2.1218 0.70703 3.3008 0 1.177-4.008 9.8978-7.543 17.676l-4.0059 8.4863c-6.835 14.613-12.022 23.806-15.793 27.576h13.672c-0.235-1.178-0.23633-1.8848-0.23633-2.5918 0-3.299 2.8279-8.7214 4.0059-11.314l1.1797-2.5918h6.8359c6.6 0 10.842-0.47044 13.199-1.6484l1.4121 4.9492c3.771 13.435 4.2444 13.67 9.1934 13.67 1.415 0 5.4207-0.23566 8.7207-0.47266-3.3-2.829-6.1291-10.135-10.371-25.455l-2.3574-8.957c-2.828-10.371-6.127-22.627-6.127-22.627zm38.656 2e-3c1.178 0.943 1.6484 3.536 1.6484 7.543 0 4.714-0.23541 11.548-0.94141 20.033l-0.23633 3.5352c-1.415 17.677-2.1205 24.276-4.4785 26.162h15.557c-1.178-0.943-1.6504-3.2993-1.6504-7.0703 0-3.535 0.47203-8.2496 0.70703-14.143l0.23633-4.4766h0.23437c1.885 0 3.0642 1.1775 4.2422 3.0625l16.264 22.156c1.414 1.886 2.3557 2.5918 6.5977 2.5918 2.828 0 7.0717-0.23503 10.139-0.70703-2.594-1.178-3.0651-1.6485-10.371-11.312l-11.551-15.32c-0.707-0.943-2.1211-2.5928-2.8281-3.3008 7.542-2.356 13.672-7.3061 13.672-16.498 0-11.078-9.1927-12.256-16.264-12.256zm-86.738 6.5996c6.834 0 10.134 2.8267 9.9004 6.5977 0 6.6-6.5993 9.1934-13.906 9.1934h-1.4141c0 0.236 0.23632-3.3008 0.23632-3.3008 0.235-4.478 0.46979-8.2479 1.1758-12.256 1.415-0.235 2.8288-0.23438 4.0078-0.23438zm104.18 0.23633c5.421 0 8.4847 2.5913 8.7207 7.0703 0 6.364-4.9505 10.842-12.021 10.842-0.706 0-1.8848 6.2e-4 -2.5918-0.23438l0.23633-4.0078c0.472-6.835 0.70674-11.08 1.1777-13.436 1.414-0.236 3.0635-0.23437 4.4785-0.23437zm-51.383 6.3633 5.6582 20.035h-15.086zm185.49 0 5.6582 20.035h-14.85zm-243.95 16.027h4.0078c7.307 0 13.671 2.8278 13.436 10.133 0 6.6-5.1862 10.607-13.199 10.607-3.772 0-5.4219-1.1774-5.4219-1.6484 0-3.771 0.23666-6.8364 0.47266-10.607z" fill="#00aeef"/>
</svg>
