<svg aria-hidden="true" width="764" height="262" version="1.0" xmlns="http://www.w3.org/2000/svg" viewBox="0 0 764.000000 262.000000" preserveAspectRatio="xMidYMid meet">

                        <g transform="translate(0.000000,262.000000) scale(0.100000,-0.100000)" fill="#e82229" stroke="none" style="--darkreader-inline-stroke: none; --darkreader-inline-fill: #b31318;" data-darkreader-inline-stroke="" data-darkreader-inline-fill="">
                            <path d="M3 1773 c4 -913 2 -880 57 -1038 119 -344 414 -598 785 -676 88 -19
313 -16 410 5 197 43 351 130 511 290 166 167 266 329 387 632 78 194 104 245
172 349 167 252 389 361 634 311 45 -9 106 -27 134 -40 111 -50 218 -151 276
-261 l21 -40 -487 -5 -488 -5 -46 -78 c-26 -43 -75 -149 -109 -235 -70 -174
-151 -343 -212 -439 l-40 -63 38 -48 c156 -192 367 -320 619 -374 76 -16 302
-16 380 1 199 41 370 129 524 268 l54 49 -164 125 c-222 170 -196 159 -254
115 -107 -82 -211 -117 -350 -117 -168 0 -284 49 -405 171 -42 41 -88 99 -103
128 l-28 52 673 0 673 0 23 -78 c142 -470 617 -782 1102 -723 254 31 430 119
620 310 162 163 266 333 380 619 73 186 106 253 177 360 166 250 386 358 633
308 180 -37 332 -149 409 -304 l21 -42 -485 0 -485 0 -36 -56 c-43 -67 -86
-160 -147 -316 -52 -133 -109 -250 -179 -366 l-50 -83 58 -70 c97 -119 256
-233 405 -292 379 -150 783 -73 1098 210 l54 49 -164 125 c-222 170 -196 159
-254 115 -107 -82 -211 -117 -350 -117 -167 0 -283 49 -406 171 -43 42 -88 98
-103 127 l-26 53 772 2 772 3 10 40 c5 22 9 105 10 185 0 120 -4 160 -23 235
-81 311 -277 555 -555 690 -282 137 -635 137 -906 0 -286 -145 -500 -420 -675
-868 -89 -229 -180 -375 -303 -488 -118 -109 -219 -150 -375 -150 -179 0 -292
46 -418 171 -119 118 -172 242 -172 405 0 184 83 353 227 462 238 180 556 155
768 -60 68 -69 132 -190 151 -285 l13 -63 38 98 c87 224 210 436 344 590 l72
83 0 360 0 360 -230 0 -230 0 0 -339 0 -339 -107 54 c-63 32 -150 65 -208 81
-88 23 -119 26 -260 26 -142 0 -171 -3 -259 -26 -250 -67 -473 -227 -607 -437
l-44 -67 -46 71 c-223 338 -632 518 -1027 452 -239 -40 -406 -130 -584 -314
-156 -163 -254 -326 -373 -622 -105 -262 -179 -385 -302 -501 -124 -117 -228
-161 -383 -161 -177 -1 -297 48 -420 172 -121 121 -173 244 -173 411 1 280
195 510 478 565 76 15 99 16 173 5 255 -37 445 -214 496 -464 l12 -58 38 98
c46 117 132 292 188 380 l40 63 -43 56 c-125 162 -329 293 -548 352 -84 22
-115 25 -256 25 -141 0 -172 -3 -260 -26 -58 -16 -145 -49 -208 -81 l-107 -54
0 339 0 339 -230 0 -231 0 4 -847z"></path>
                            <path d="M7385 326 c-86 -39 -120 -147 -75 -236 33 -65 100 -97 178 -85 66 10
127 71 137 138 10 64 -15 128 -62 164 -42 32 -130 42 -178 19z m151 -31 c88
-57 83 -204 -9 -251 -48 -25 -130 -15 -167 21 -77 74 -50 202 50 244 33 14 94
7 126 -14z"></path>
                            <path d="M7390 175 c0 -88 1 -95 20 -95 16 0 20 7 20 30 0 41 35 41 58 0 9
-16 25 -30 35 -30 21 0 21 4 0 37 -14 20 -15 27 -5 31 20 6 33 49 22 76 -10
27 -55 46 -111 46 l-39 0 0 -95z m87 59 c48 -13 38 -64 -13 -64 -32 0 -34 2
-34 35 0 36 6 40 47 29z"></path>
                        </g>
                    </svg>
