<?xml version="1.0" encoding="UTF-8" standalone="no"?>
<!-- Created with Inkscape (http://www.inkscape.org/) -->

<svg
   version="1.1"
   id="svg2"
   xml:space="preserve"
   width="845.66669"
   height="775.58667"
   viewBox="0 0 845.66669 775.58667"
   sodipodi:docname="BidFX logo.svg"
   inkscape:version="1.1.2 (0a00cf5339, 2022-02-04)"
   xmlns:inkscape="http://www.inkscape.org/namespaces/inkscape"
   xmlns:sodipodi="http://sodipodi.sourceforge.net/DTD/sodipodi-0.dtd"
   xmlns="http://www.w3.org/2000/svg"
   xmlns:svg="http://www.w3.org/2000/svg"><defs
     id="defs6" /><sodipodi:namedview
     id="namedview4"
     pagecolor="#505050"
     bordercolor="#eeeeee"
     borderopacity="1"
     inkscape:pageshadow="0"
     inkscape:pageopacity="0"
     inkscape:pagecheckerboard="0"
     showgrid="false"
     inkscape:zoom="1.1255995"
     inkscape:cx="422.88574"
     inkscape:cy="387.34913"
     inkscape:window-width="3440"
     inkscape:window-height="1313"
     inkscape:window-x="0"
     inkscape:window-y="32"
     inkscape:window-maximized="1"
     inkscape:current-layer="g8" /><g
     id="g8"
     inkscape:groupmode="layer"
     inkscape:label="ink_ext_XXXXXX"
     transform="matrix(1.3333333,0,0,-1.3333333,0,775.58667)"><g
       id="g10"
       transform="scale(0.1)"><path
         d="m 1559.4,4426.77 v -291.88 h 420.51 v 528.89 C 1784.69,4411 1559.4,4426.84 1559.4,4426.77"
         style="fill:#232d62;fill-opacity:1;fill-rule:nonzero;stroke:none"
         id="path12" /><path
         d="m 2260.25,4862.71 v -727.82 h 420.49 v 751.6 c 0,0 -255.32,79.23 -420.49,-23.78"
         style="fill:#232d62;fill-opacity:1;fill-rule:nonzero;stroke:none"
         id="path14" /><path
         d="m 2961.08,4134.89 h 420.49 v 513.84 c 0,0 -225.3,13.19 -420.49,142.66 v -656.5"
         style="fill:#232d62;fill-opacity:1;fill-rule:nonzero;stroke:none"
         id="path16" /><path
         d="m 3661.91,4134.89 h 420.49 v 770.15 c -120.11,-113.65 -285.33,-208.75 -420.49,-240.46 v -529.69"
         style="fill:#232d62;fill-opacity:1;fill-rule:nonzero;stroke:none"
         id="path18" /><path
         d="m 4362.74,5121.05 v -986.16 c 0,0 280.34,0 420.49,-31.06 v 1713.05 c -75.07,-225.27 -255.27,-523.6 -420.49,-695.83"
         style="fill:#232d62;fill-opacity:1;fill-rule:nonzero;stroke:none"
         id="path20" /><path
         d="M 1349.16,5396.37 V 4134.89 h -420.5 v 1681.99 h 3574.26 c -75.09,-237.04 -280.34,-420.51 -280.34,-420.51 H 1349.16"
         style="fill:#232d62;fill-opacity:1;fill-rule:nonzero;stroke:none"
         id="path22" /><path
         d="m 4432.83,1752.05 v -420.5 H 928.66 v 420.5 h 3504.17"
         style="fill:#232d62;fill-opacity:1;fill-rule:nonzero;stroke:none"
         id="path24" /><path
         d="m 4993.5,4043 v 1773.88 h 420.49 V 3694.32 c -108.27,164.2 -279.78,297.14 -420.49,348.68"
         style="fill:#232d62;fill-opacity:1;fill-rule:nonzero;stroke:none"
         id="path26" /><path
         d="m 1954.79,2312.71 c 198.38,0 305.46,84.8 305.46,245.3 0,160.5 -107.08,245.29 -305.46,245.29 h -605.63 v -490.59 z m 6.3,841.01 c 170.03,0 258.22,70.56 258.22,211.89 0,137.98 -88.19,208.6 -258.22,208.6 H 1349.16 V 3153.72 Z M 928.66,3924.63 h 951.63 c 251.79,0 395.74,-26.48 524.64,-100.02 140.92,-82.37 227.88,-235.38 227.88,-400.14 0,-188.28 -89.94,-320.66 -281.81,-411.89 230.81,-108.82 329.74,-253.01 329.74,-479.56 0,-185.34 -74.95,-344.19 -206.86,-441.24 -128.91,-97.12 -269.83,-129.49 -554.6,-129.49 H 928.66 v 1962.34"
         style="fill:#232d62;fill-opacity:1;fill-rule:nonzero;stroke:none"
         id="path28" /><path
         d="m 3381.57,1962.29 h -420.49 v 1962.34 h 420.49 V 1962.29"
         style="fill:#232d62;fill-opacity:1;fill-rule:nonzero;stroke:none"
         id="path30" /><path
         d="m 4471.96,2312.71 c 208.63,0 334.42,82.14 420.24,217.36 67.56,108.9 101.3,244.21 101.3,414.83 0,164.8 -30.67,294.23 -98.22,406.06 -79.73,135.3 -205.53,223.25 -392.65,223.25 H 4082.4 v -1261.5 z m -810.05,1611.92 h 722.4 c 399.41,0 609.53,-70.63 787.06,-270.69 156.86,-176.5 242.62,-423.64 242.62,-700.2 0,-288.35 -94.66,-556.02 -257.41,-732.59 -171.64,-182.4 -390.58,-258.86 -757.49,-258.86 h -737.18 v 1962.34"
         style="fill:#232d62;fill-opacity:1;fill-rule:nonzero;stroke:none"
         id="path32" /><path
         d="m 4572.99,1752.05 h 308.67 v -73.3 h -213.41 v -103.89 h 198.08 v -73.3 h -198.08 v -170.01 h -95.26 v 420.5"
         style="fill:#232d62;fill-opacity:1;fill-rule:nonzero;stroke:none"
         id="path34" /><path
         d="m 5153.99,1547.14 -137.5,204.91 h 111.15 l 70.9,-114.16 15.95,-30.67 15.32,30.67 72.28,114.16 h 107.67 l -139.62,-205.46 143.85,-215.04 h -111.21 l -74.32,120.11 -18.83,32.51 -18,-32.51 -77.89,-120.11 h -107.72 l 147.97,215.59"
         style="fill:#232d62;fill-opacity:1;fill-rule:nonzero;stroke:none"
         id="path36" /><g
         id="g38"
         transform="scale(10)"><text
           transform="matrix(1,0,0,-1,3.90625e-4,30.9781)"
           style="font-variant:normal;font-weight:normal;font-size:56.0666px;font-family:OpenSans;-inkscape-font-specification:OpenSans;writing-mode:lr-tb;fill:#232d62;fill-opacity:1;fill-rule:nonzero;stroke:none"
           id="text42"><tspan
             x="0 35.4795 69.891106 84.455605 115.2261 156.04451 188.40291 202.96741 243.7858 266.67252 300.53674 334.94885 369.30624 383.87073 419.24084 453.10507 505.2565 539.61389 570.79547 605.20758"
             y="0"
             sodipodi:role="line"
             id="tspan40">An SGX Group Company</tspan></text></g></g></g></svg>
