<svg xmlns="http://www.w3.org/2000/svg" viewBox="0 0 534.81 169.33">
  <path fill="#261453" d="M73.6309 0 0 42.5215v84.291l73.6309 42.5215 73.6308-42.5215V60.5117c2.8947-1.4505 4.8848-4.4442 4.8848-7.9004 0-4.875-3.9584-8.832-8.832-8.832-4.8737 0-8.8301 3.957-8.8301 8.832 0 3.4562 1.99 6.45 4.8847 7.9004v45.2305l-18.4687-8.9863v-16.625c3.0105-1.4078 5.0996-4.463 5.0996-8.004 0-4.875-3.9564-8.832-8.83-8.832-4.8737 0-8.8321 3.957-8.8321 8.832 0 3.541 2.0893 6.5961 5.0996 8.004v21.2949l25.9316 12.6191v8.963L73.631 160.9725V76.2402l-2.4336-7.0722-2.6426 7.0722H51.5703l-2.5527-7.0722-2.5235 7.0722v28.172H22.3184V48.168h-3.6075v2.5937h-3.6054V48.168H11.498v2.5937H7.8906v-4.4375L73.631 8.3594l34.7656 20.0781c-.0365.326-.0586.6565-.0586.9922 0 4.8748 3.9584 8.832 8.832 8.832 4.8737 0 8.8301-3.9572 8.8301-8.832 0-4.875-3.9564-8.832-8.83-8.832-1.8909 0-3.6428.5975-5.0801 1.6113zm43.539 24.6582c2.6328 0 4.7695 2.138 4.7695 4.7715 0 2.6333-2.1367 4.7715-4.7695 4.7715-2.6327 0-4.7715-2.1382-4.7715-4.7715 0-2.6335 2.1388-4.7715 4.7715-4.7715m56.9278 18.9121c-.8038 0-1.692.0392-2.668.1192-.9569.0599-1.8287.1907-2.6133.3906v20.1426c.7846.1998 1.6565.3306 2.6133.3906.976.08 1.8642.1191 2.668.1191 1.6266 0 3.1198-.2092 4.4785-.6289 1.3587-.4396 2.526-1.09 3.502-1.9492.9759-.8793 1.7317-1.978 2.2675-3.2969.5358-1.3389.8047-2.9085.8047-4.707 0-1.7985-.2689-3.3569-.8047-4.6758-.5358-1.3389-1.2916-2.4376-2.2676-3.2969-.976-.8792-2.1432-1.5295-3.502-1.9492-1.3586-.4396-2.8518-.6582-4.4784-.6582m38.6503 0c-.8037 0-1.694.0392-2.6699.1192-.9568.0599-1.8267.1907-2.6113.3906v20.4726h2.7851v-8.123h3.2715c.268 0 .5266-.0113.7754-.0313.3636.4597.765.9997 1.2051 1.6192.4593.6195.9196 1.2884 1.379 2.0078.4592.6994.9074 1.4394 1.3476 2.2187.4592.7794.8809 1.5493 1.2636 2.3086h3.043c-.3445-.7993-.7661-1.629-1.2637-2.4882-.4784-.8593-.9653-1.6777-1.4629-2.457-.4975-.7994-.9864-1.5188-1.4648-2.1583-.4593-.6594-.8422-1.1901-1.1484-1.5898 1.3587-.4796 2.3833-1.2083 3.0722-2.1875.708-.9792 1.0625-2.1583 1.0625-3.5371 0-2.1782-.7374-3.817-2.211-4.916-1.4543-1.0991-3.579-1.6485-6.373-1.6485m185.5274.0977c-2.1316 0-3.8032.4987-5.0156 1.496-1.2125.9974-1.8184 2.3846-1.8184 4.1641 0 .8605.1364 1.595.4102 2.2012.2933.6062.6849 1.1342 1.1738 1.584.4889.4302 1.0656.8101 1.7305 1.1426.6649.3129 1.3682.5973 2.1113.8515.6453.2347 1.2512.4685 1.8183.7032.5867.2346 1.105.519 1.5547.8515.4498.3129.8025.6948 1.0567 1.1445.2737.4303.4101.9583.4101 1.584 0 2.0338-1.4865 3.0508-4.459 3.0508-1.3297 0-2.4539-.1578-3.373-.4707-.9191-.3129-1.603-.5954-2.0527-.8496l-.8516 2.3457c.2151.1173.5093.2654.8809.4414.391.1565.8509.3123 1.3789.4688.528.1368 1.1241.2537 1.789.3515.6845.1174 1.4268.1758 2.2285.1758 2.3663 0 4.1957-.4793 5.4864-1.4375 1.3102-.9582 1.9648-2.326 1.9648-4.1055 0-.9582-.1461-1.7706-.4394-2.4355-.2934-.6845-.7142-1.2709-1.2618-1.7598-.528-.4889-1.163-.9097-1.9062-1.2617-.7236-.352-1.5263-.7027-2.4063-1.0547-.6257-.2347-1.2024-.4704-1.7304-.705-.5085-.2347-.9585-.488-1.3496-.7618-.3911-.2933-.6931-.6265-.9082-.998-.2151-.3716-.3223-.8314-.3223-1.379 0-.4888.0974-.9097.293-1.2617.215-.3715.4976-.6735.8496-.9082.352-.2346.763-.412 1.2324-.5293.4693-.1173.9778-.1757 1.5254-.1757 1.0755 0 2.0146.1286 2.8164.3828.8213.2346 1.437.4782 1.8477.7324l.9101-2.3164c-.4693-.3129-1.2136-.5973-2.2305-.8516-.9973-.2737-2.1117-.4101-3.3437-.4101m-209.918.1113v13.039c0 1.1591.1427 2.2392.4297 3.2383.3062.9992.7665 1.868 1.379 2.6075.6123.7194 1.3966 1.2893 2.3534 1.709.9569.4196 2.0855.6289 3.3867.6289 1.3013 0 2.4217-.2093 3.3594-.629.9569-.4196 1.7412-.9895 2.3535-1.709.6315-.7393 1.09-1.6082 1.377-2.6074.3062-.9991.459-2.0792.459-3.2382V43.7793h-2.7832v12.711c0 1.039-.116 1.9378-.3457 2.6972-.2297.7394-.5536 1.3485-.9746 1.8281-.421.4796-.9283.8383-1.5215 1.0782-.5741.2198-1.2158.33-1.9239.33-1.416 0-2.565-.469-3.4453-1.4082-.8803-.9392-1.3203-2.447-1.3203-4.5254V43.7793Zm36.3809 0v20.7734h2.7851V54.961h9.7305v9.5918h2.7852V43.7793h-2.7852v8.664h-9.7305v-8.664zm25.2246 0a119.9741 119.9741 0 0 0-1.9805 4.5566 213.1897 213.1897 0 0 0-1.9238 4.797c-.6315 1.6785-1.2814 3.4554-1.9512 5.3339-.6698 1.8585-1.3869 3.8877-2.1523 6.086h2.8984l1.8086-5.3067h9.0137c.3062.8993.6016 1.7887.8886 2.668.2871.8593.5946 1.7394.92 2.6386h3.043a598.7574 598.7574 0 0 0-2.1544-6.0859c-.6697-1.8785-1.3298-3.6554-1.9804-5.334-.6315-1.6786-1.263-3.2781-1.8946-4.7969a119.9743 119.9743 0 0 0-1.9804-4.5566zm13.3984 0c-.1722 1.4988-.3352 3.087-.4883 4.7656-.134 1.6786-.2683 3.409-.4023 5.1875a409.145 409.145 0 0 0-.3164 5.3946 543.9791 543.9791 0 0 0-.2578 5.4257h2.7265c.0957-2.7977.2118-5.565.3457-8.3027.134-2.7577.3052-5.3158.5157-7.6738.1913.3397.4399.8292.746 1.4687.3254.6395.6697 1.3682 1.0333 2.1875.3636.7994.7465 1.659 1.1484 2.5781a77.01 77.01 0 0 1 1.1777 2.6387c.3636.8593.6978 1.6571 1.004 2.3965.3253.7394.584 1.3505.7753 1.83h2.2383c.1914-.4795.4419-1.0906.748-1.83.3254-.7394.6697-1.5372 1.0333-2.3965.3636-.8593.7465-1.7394 1.1484-2.6387.421-.9192.8122-1.7787 1.1758-2.578.3636-.8194.6977-1.5481 1.0039-2.1876.3253-.6395.584-1.129.7754-1.4687.2105 2.358.3836 4.916.5176 7.6738.134 2.7377.248 5.505.3437 8.3027h2.7266c-.3254-7.154-.8123-14.079-1.463-20.7734h-2.4394c-.5167.8793-1.0727 1.9182-1.666 3.1172-.5932 1.199-1.186 2.4584-1.7793 3.7773a142.3902 142.3902 0 0 0-1.7226 3.9278 2818.7192 2818.7192 0 0 0-1.5215 3.5664 2858.9019 2858.9019 0 0 0-1.5215-3.5664 142.36 142.36 0 0 0-1.7227-3.9278c-.5932-1.3189-1.186-2.5783-1.7793-3.7773-.5932-1.199-1.1473-2.238-1.664-3.1172zm116.711.1523c-.8214 0-1.7293.039-2.7266.1172-.9778.0587-1.8681.1853-2.67.3809v20.0351h2.8458v-7.9492h3.3438c.2737 0 .5367-.0097.791-.0293.3715.4498.7826.9778 1.2324 1.584.4693.6062.9388 1.2609 1.4082 1.9649.4693.6844.9291 1.4092 1.3789 2.1718.4693.7627.8999 1.5147 1.291 2.2578h3.1094c-.352-.7822-.7826-1.5946-1.291-2.4355a46.1527 46.1527 0 0 0-1.4961-2.4043c-.5085-.7822-1.0072-1.4856-1.4961-2.1113-.4694-.6454-.861-1.1636-1.1739-1.5547 1.3885-.4693 2.4347-1.1844 3.1387-2.1426.7236-.9582 1.086-2.1116 1.086-3.461 0-2.1315-.754-3.735-2.2598-4.8105-1.4862-1.0755-3.6566-1.6133-6.5117-1.6133m-87.963.2051v12.7598c0 1.1342.1481 2.1902.4415 3.168.3129.9777.7824 1.8291 1.4082 2.5527.6258.704 1.4265 1.2612 2.4043 1.6719.9778.4106 2.1311.6152 3.461.6152 1.3297 0 2.4753-.2046 3.4335-.6152.9778-.4107 1.7785-.968 2.4043-1.672.6453-.7235 1.1149-1.5749 1.4082-2.5526.3129-.9778.4688-2.0338.4688-3.168V44.1367h-2.8457v12.4375c0 1.017-.117 1.8975-.3516 2.6406-.2347.7236-.5659 1.3198-.9961 1.7891-.4302.4693-.9485.82-1.5547 1.0547-.5867.2151-1.2432.3242-1.9668.3242-1.447 0-2.62-.4598-3.5195-1.3789-.8996-.9191-1.3496-2.396-1.3496-4.4297V44.1367zm19.7286 0v20.3281h2.7871V48.5957c.5476.6258 1.1437 1.3486 1.789 2.17.6454.8213 1.3097 1.7019 1.9942 2.6405a91.5282 91.5282 0 0 1 2.0547 2.875 114.662 114.662 0 0 1 2.0234 2.963c.6454.9582 1.2415 1.8855 1.789 2.7851.5672.8996 1.066 1.712 1.4962 2.4355h2.377v-20.328h-2.7872v15.0487c-.6258-1.0364-1.3992-2.221-2.3183-3.5507-.8996-1.3298-1.8679-2.678-2.9043-4.047a94.8742 94.8742 0 0 0-3.1094-4.0194c-1.0364-1.3103-2.0125-2.454-2.9316-3.4317zm20.7558 0v20.3281h2.8438v-20.328Zm5.0606 0c.7235 2.1511 1.4269 4.1462 2.1113 5.9844a386.5763 386.5763 0 0 0 1.9961 5.1914 551.3693 551.3693 0 0 0 1.9356 4.7227 303.713 303.713 0 0 0 1.9648 4.4296h2.67a178.4631 178.4631 0 0 0 1.9355-4.4296c.6453-1.5058 1.2902-3.08 1.9355-4.7227.6454-1.6427 1.3-3.3727 1.9649-5.1914.6844-1.8382 1.3994-3.8333 2.1425-5.9844h-3.0507c-1.0365 3.0898-2.0632 6.0726-3.0801 8.9473-1.0169 2.855-2.0631 5.5242-3.1387 8.0078-1.0756-2.5031-2.1218-5.182-3.1387-8.0371a736.6748 736.6748 0 0 1-3.1093-8.918zm20.871 0v20.3281h13.1427v-2.4355h-10.297v-7.039h8.5079v-2.377h-8.5078v-6.041h9.5625v-2.4356Zm49.006 0v20.3281h2.8456v-20.328Zm5.2382 0v2.4649h6.3946v17.8632h2.8437V46.6016h6.3945v-2.4649zm16.5293 0c1.056 1.9556 2.1802 3.9506 3.373 5.9844 1.193 2.0338 2.4652 4.097 3.8145 6.1894v8.1543h2.8457V56.252a201.8586 201.8586 0 0 0 3.7832-6.131c1.193-2.0337 2.317-4.0287 3.373-5.9843h-3.1679c-.7627 1.6036-1.6024 3.2362-2.5215 4.8985a108.8138 108.8138 0 0 1-2.8164 4.752c-.9778-1.5254-1.9266-3.1094-2.8457-4.752-.919-1.6623-1.751-3.295-2.4941-4.8985zm-254.9707 1.9805c2.6409 0 4.6128.71 5.914 2.1289 1.3014 1.3988 1.9513 3.3664 1.9513 5.9043s-.65 4.5167-1.9512 5.9355c-1.3013 1.3989-3.2732 2.0996-5.914 2.0996-.7847 0-1.3978-.0112-1.838-.0312-.421-.02-.7164-.0406-.8886-.0605V46.207c.1722-.02.4676-.0386.8886-.0586.4402-.02 1.0533-.0312 1.838-.0312zm38.6504 0c.7463 0 1.445.0598 2.0957.1797.6698.1199 1.2423.331 1.7207.6308.4976.2998.8907.709 1.1777 1.2286.2871.5195.4297 1.1698.4297 1.9492 0 .8393-.1426 1.5175-.4297 2.037-.287.4997-.6985.8902-1.2343 1.17-.5167.2798-1.1584.4684-1.9238.5684-.7655.0999-1.6252.1504-2.582.1504h-1.9806V46.207c.6316-.06 1.5401-.0898 2.7266-.0898m167.3281.3066c.7627 0 1.4777.0604 2.1426.1778.6845.1173 1.2709.3219 1.7598.6152.5084.2933.9098.6947 1.2031 1.2031.2933.5085.4395 1.1436.4395 1.9063 0 .8213-.1462 1.4857-.4395 1.9941-.2933.4889-.7142.8708-1.2617 1.1445-.528.2738-1.1826.459-1.9649.5567-.7822.0978-1.6628.1465-2.6406.1465h-2.0234v-7.6543c.6453-.0587 1.5727-.0899 2.7851-.0899m-129.1386.6836c.6506 1.4988 1.274 3.0665 1.8672 4.7051.6123 1.6187 1.2235 3.2985 1.8359 5.0371h-7.4063a238.0348 238.0348 0 0 1 1.7813-5.0371c.6124-1.6386 1.252-3.2063 1.9219-4.705m-107.8535.7324c2.6327 0 4.7714 2.138 4.7714 4.7715 0 2.6333-2.1387 4.7715-4.7714 4.7715-2.6328 0-4.7696-2.1382-4.7696-4.7715 0-2.6334 2.1368-4.7715 4.7696-4.7715M11.1602 56.8262c2.3297 0 4.2207 1.8942 4.2207 4.2246 0 1.5942-.886 2.9809-2.1914 3.6992v41.879c1.3055.7183 2.1914 2.1086 2.1914 3.703 0 2.3302-1.891 4.2207-4.2207 4.2207-2.3296 0-4.2227-1.8905-4.2227-4.2207 0-1.5944.886-2.9847 2.1914-3.703V64.75c-1.3054-.7183-2.1914-2.105-2.1914-3.6992 0-2.3304 1.8931-4.2246 4.2227-4.2246m0 2.371c-1.0224 0-1.8516.8308-1.8516 1.8536 0 1.0226.8292 1.8515 1.8516 1.8515 1.0225 0 1.8535-.829 1.8535-1.8515 0-1.0228-.831-1.8535-1.8535-1.8535m106.0097 8.1583c2.6328 0 4.7696 2.138 4.7696 4.7715 0 2.6333-2.1368 4.7714-4.7696 4.7714-2.6327 0-4.7715-2.1381-4.7715-4.7714 0-2.6335 2.1388-4.7715 4.7715-4.7715m58.0137 8.5742c-2.051 0-3.8195.7469-5.3047 2.2402-1.4144 1.4222-2.121 3.1644-2.121 5.2266v37.332c0 2.0622.7066 3.8407 2.121 5.334 1.4852 1.4222 3.2537 2.1328 5.3047 2.1328h29.7031c2.051 0 3.7848-.7106 5.1992-2.1328 1.4852-1.4933 2.2266-3.2718 2.2266-5.334v-7.4668h-8.4863v7.4668h-27.582v-37.332h27.582v7.4668h8.4863v-7.4668c0-2.0622-.7414-3.8044-2.2266-5.2266-1.4144-1.4933-3.1482-2.2402-5.1992-2.2402zm51.9824 0c-2.051 0-3.8195.7469-5.3047 2.2402-1.4144 1.4222-2.121 3.1644-2.121 5.2266v37.332c0 2.0622.7066 3.8407 2.121 5.334 1.4852 1.4222 3.2538 2.1328 5.3047 2.1328h29.7031c2.051 0 3.7829-.7106 5.1973-2.1328 1.4852-1.4933 2.2285-3.2718 2.2285-5.334v-37.332c0-2.0622-.7433-3.8044-2.2285-5.2266-1.4144-1.4933-3.1463-2.2402-5.1973-2.2402zm47.7363 0V128.09h8.4883V88.836l-3.1836-5.334h4.7735l12.625 29.7598h6.1523l13.0488-29.7597h4.7735l-3.1817 5.334V128.09h8.4864V75.9297h-14.7461l-10.502 24.959h-1.0605l-10.504-24.959zm63.1211 0v7.4668h7.4258l-7.4258 7.4668v37.332h8.4864v-14.9336h28.6425c1.9803 0 3.714-.745 5.1993-2.2383 1.4851-1.4933 2.2265-3.2354 2.2265-5.2265V83.3965c0-1.9911-.7414-3.7332-2.2265-5.2266-1.4852-1.4933-3.219-2.2402-5.1993-2.2402zm59.4063 0c-2.051 0-3.8176.7469-5.3027 2.2402-1.4145 1.4222-2.123 3.1644-2.123 5.2266V98.33c0 2.0622.7085 3.8387 2.123 5.332 1.4851 1.4222 3.2517 2.1348 5.3027 2.1348h21.2168v14.9316h-28.6426v7.4668h29.705c2.051 0 3.7829-.7106 5.1973-2.1328 1.4852-1.4933 2.2286-3.2718 2.2286-5.334V105.797c0-2.0622-.7434-3.8044-2.2286-5.2266-1.4144-1.4933-3.1463-2.2402-5.1972-2.2402h-21.2188V83.3965h28.6446v-7.4668zm45.6172 0c-2.051 0-3.8195.7469-5.3047 2.2402-1.4145 1.4222-2.1211 3.1644-2.1211 5.2266v37.332c0 2.0622.7066 3.8407 2.121 5.334 1.4853 1.4222 3.2538 2.1328 5.3048 2.1328H472.75c2.051 0 3.7828-.7106 5.1973-2.1328 1.4852-1.4933 2.2285-3.2718 2.2285-5.334v-37.332c0-2.0622-.7433-3.8044-2.2285-5.2266-1.4145-1.4933-3.1463-2.2402-5.1973-2.2402zm54.6328 0c-2.051 0-3.8195.7469-5.3047 2.2402-1.4145 1.4222-2.121 3.1644-2.121 5.2266v37.332c0 2.0622.7065 3.8407 2.121 5.334 1.4852 1.4222 3.2537 2.1328 5.3047 2.1328h29.7031c2.051 0 3.7848-.7106 5.1992-2.1328 1.4852-1.4933 2.2266-3.2718 2.2266-5.334v-7.4668h-8.4863v7.4668h-27.582v-37.332h27.582v7.4668h8.4863v-7.4668c0-2.0622-.7414-3.8044-2.2266-5.2266-1.4144-1.4933-3.1482-2.2402-5.1992-2.2402zm-269.4531 7.4668h27.582v37.332h-27.582zm118.2832 0h27.582v22.4004H352.875l-6.3652 6.3984zm97.5976 0h27.582v37.332h-27.582Zm-384.5449 22.414c2.3296 0 4.2207 1.8906 4.2207 4.2207 0 .133-.0056.2648-.0176.3946l4.2832 2.7773v36.8281c1.323.7133 2.2227 2.1115 2.2227 3.7188 0 2.3302-1.8912 4.2246-4.2207 4.2246-2.3297 0-4.2227-1.8944-4.2227-4.2246 0-.4386.0692-.86.1934-1.2578l-15.9278-10.6016a4.1981 4.1981 0 0 1-1.7167.3652c-2.328 0-4.2168-1.89-4.2168-4.2187 0-2.3287 1.8887-4.2207 4.2168-4.2207 2.328 0 4.2167 1.892 4.2167 4.2207 0 .2076-.014.412-.043.6113l15.4376 10.2754v-33.5136l-2.5-1.6211c-.5774.2968-1.2325.4628-1.9258.4628-2.3297 0-4.2188-1.8905-4.2188-4.2207 0-2.3301 1.889-4.2207 4.2188-4.2207m0 2.3672c-1.0225 0-1.8516.831-1.8516 1.8535 0 1.0228.8291 1.8536 1.8516 1.8536 1.0223 0 1.8535-.8308 1.8535-1.8535s-.8312-1.8536-1.8535-1.8536m-48.4023.3008c-1.0224 0-1.8516.8308-1.8516 1.8535s.8292 1.8516 1.8516 1.8516c1.0225 0 1.8535-.829 1.8535-1.8516 0-1.0227-.831-1.8535-1.8535-1.8535m33.2168 27.709c-1.0209 0-1.8497.8285-1.8497 1.8496s.8288 1.8496 1.8497 1.8496c1.0208 0 1.8496-.8285 1.8496-1.8496 0-1.021-.8288-1.8496-1.8496-1.8496m21.6738 15.711c-1.0225 0-1.8516.8287-1.8516 1.8515 0 1.0226.829 1.8535 1.8516 1.8535 1.0223 0 1.8535-.8309 1.8535-1.8535 0-1.0228-.8312-1.8516-1.8535-1.8516"/>
</svg>
