<?xml version="1.0" encoding="UTF-8" standalone="no"?>
<svg
   version="1.0"
   width="2943pt"
   height="886pt"
   viewBox="0 0 2943 886"
   preserveAspectRatio="xMidYMid meet"
   id="svg14"
   sodipodi:docname="CreatecLogo.svg"
   inkscape:version="1.1.2 (0a00cf5339, 2022-02-04)"
   xmlns:inkscape="http://www.inkscape.org/namespaces/inkscape"
   xmlns:sodipodi="http://sodipodi.sourceforge.net/DTD/sodipodi-0.dtd"
   xmlns="http://www.w3.org/2000/svg"
   xmlns:svg="http://www.w3.org/2000/svg">
  <defs
     id="defs18" />
  <sodipodi:namedview
     id="namedview16"
     pagecolor="#505050"
     bordercolor="#eeeeee"
     borderopacity="1"
     inkscape:pageshadow="0"
     inkscape:pageopacity="0"
     inkscape:pagecheckerboard="0"
     inkscape:document-units="pt"
     showgrid="false"
     inkscape:zoom="0.2294577"
     inkscape:cx="-793.17451"
     inkscape:cy="732.16109"
     inkscape:window-width="3440"
     inkscape:window-height="1313"
     inkscape:window-x="0"
     inkscape:window-y="32"
     inkscape:window-maximized="1"
     inkscape:current-layer="svg14" />
  <metadata
     id="metadata2">
Created by potrace 1.16, written by Peter Selinger 2001-2019
</metadata>
  <path
     id="path1330"
     style="fill:#272c30;fill-opacity:1;stroke-width:1.15086;stroke-linecap:round;paint-order:stroke fill markers"
     d="m 2230.7129,129.3125 c -13.4625,-0.2625 -26.9134,0.13759 -35.2134,1.2876 -74.1,10.39999 -138.099,57.4998 -171.999,126.7998 -16.6,33.8 -23.8008,64.70059 -23.8008,102.60058 -0.1,23.50001 1.5002,36.69991 6.7002,57.39991 22.1,87.1 93.3001,152.89912 182.6001,168.59912 17.9,3.1 47.8993,3.80107 65.7993,1.60107 24.9,-3.2 45.9007,-9.40058 67.7007,-20.10058 23.7,-11.6 42.2005,-25.3001 62.5005,-46.1001 19.6,-20.1 32.9992,-39.19922 46.6992,-66.19922 4,-7.9 7.3008,-14.80029 7.3008,-15.30029 0,-0.5 -27.1011,-0.90088 -66.1011,-0.90088 h -66.0996 l -9.5991,10.1001 c -18.7001,19.7 -34.2002,27.50039 -59.2002,29.90039 -28.6,2.7 -58.4002,-6.09941 -78.7002,-23.39942 -15.7,-13.29999 -27.6998,-33.70038 -30.7998,-52.40039 l -0.7002,-4.19971 h 161.499 161.5005 l 1.3008,-8.80077 c 1.9,-12.20001 1.599,-43.5002 -0.501,-59.2002 -5.9,-43.7 -20.7998,-80.99961 -45.7998,-114.09961 -33.8,-44.9 -83.1003,-74.89941 -139.8003,-84.89942 -8.35,-1.5 -21.8241,-2.42548 -35.2866,-2.68798 z m -5.8257,108.87451 C 2228.2247,238.17451 2231.6,238.45 2237,239 c 33.6,3.6 60.6997,20.10039 76.1997,46.40039 3.9,6.6 9.7998,21.09961 9.7998,24.09961 0,1.3 -12.1995,1.5 -96.4995,1.5 -85,0 -96.4995,-0.2 -96.4995,-1.5 0,-0.8 0.9991,-4.30068 2.0991,-7.70069 11.7,-34.09999 43.0004,-58.2997 80.9004,-62.6997 5.25,-0.6 8.5497,-0.9001 11.8872,-0.9126 z" />
  <path
     id="path1334"
     style="fill:#272c30;fill-opacity:1;stroke-width:1.15086;stroke-linecap:round;paint-order:stroke fill markers"
     d="m 1453.8901,129.36377 c -10.8844,-0.0139 -13.8656,0.43681 -24.8906,2.23681 -67,10.70001 -124.8,54.39942 -156,117.89942 -15.4,31.5 -23.4002,63.9 -24.7002,100.5 -0.9,27.5 1.5002,50.29961 8.2002,76.59961 21,82.5 82.6012,143.10078 161.7012,158.80078 52.9,10.6 104.5988,2.69903 141.2988,-21.50098 10.2,-6.8 22.9005,-19.69893 28.0005,-28.39893 l 4.0005,-6.90087 0.2988,23.2002 L 1592,575 h 64.9995 65.001 V 359 143 H 1656.9995 1592 l -0.2007,23.10058 -0.2988,23.09913 -3.7998,-5.39942 c -2,-3 -6.7001,-8.5999 -10.5,-12.3999 -19.4,-19.9 -44.4014,-32.80098 -76.9014,-39.50098 -7.7,-1.59999 -14.5998,-2.09941 -32.2998,-2.39941 -5.975,-0.075 -10.4813,-0.1316 -14.1094,-0.13623 z m 26.3511,121.02539 c 1.9531,-0.002 4.0343,0.0363 6.2593,0.11132 27.9,0.9 51.8992,11.09981 72.1992,30.79981 40.4,39.2 44.2996,102.70029 9.0996,147.30029 -10,12.80001 -22.4987,22.5 -38.1987,30 -45.1001,21.3 -99.1002,7.79952 -129.7002,-32.50048 -7.1,-9.40001 -15.401,-26.7001 -18.501,-38.6001 -3.1,-12.3 -4.199,-29.29932 -2.499,-41.79932 6.5,-48.6 40.3993,-85.40117 86.7993,-94.20117 3.975,-0.75 8.6821,-1.10566 14.5415,-1.11035 z" />
  <path
     id="path1332"
     style="fill:#272c30;fill-opacity:1;stroke-width:1.15086;stroke-linecap:round;paint-order:stroke fill markers"
     d="m 974,129.40039 c -26.79998,-0.3 -37.59998,0.79961 -58.5,6.09961 -64.29998,16.2 -118.20053,60.59951 -148.0005,121.99951 -14.30003,29.2 -21.00008,54.30088 -23.6001,87.90088 -2.4,30.7 2.70067,65.99981 13.7007,95.2998 28.5,76.2 95.0004,131.19932 175.4004,145.29932 15.6,2.7 45.89962,3.80058 61.5996,2.10059 77,-8.1 141.7998,-55.39961 180.7998,-132.09962 3.5,-6.9 6.7005,-13.50078 7.0005,-14.80077 l 0.7002,-2.2002 h -66.1011 -66.1992 l -9.6006,10.1001 c -18.7,19.7 -34.2002,27.50039 -59.2002,29.90039 -23.1,2.2 -47.49885,-3.30068 -67.7988,-15.20069 -8.7,-4.99999 -25.80053,-22.69989 -31.0005,-31.8999 -4.5,-8 -9.40073,-21.29922 -10.7007,-28.69922 l -0.7002,-4.19971 h 161.5005 161.4009 l 1.0986,-6.7998 c 3.2,-19.5 2.3002,-49.70117 -2.2998,-74.70117 -18.1,-97.5 -88.2995,-168.59902 -183.4995,-185.49903 -10,-1.8 -17.2,-2.30009 -36,-2.60009 z m -5.1123,108.78662 c 3.3375,-0.0125 6.7128,0.26299 12.1128,0.81299 31.7,3.3 58.1991,18.69941 74.0991,42.89941 4.7,7.2 10.3001,19.9002 11.6001,26.2002 L 1067.3003,311 h -96.7002 c -79.5,0 -96.6006,-0.19932 -96.6006,-1.29932 0,-0.8 1.10092,-4.50126 2.4009,-8.30127 11.49997,-33.8 42.70012,-57.9998 80.6001,-62.2998 5.25,-0.6 8.5497,-0.9001 11.8872,-0.9126 z" />
  <path
     style="fill:#ffffff;stroke-width:1.15086;stroke-linecap:round;paint-order:stroke fill markers"
     d="m 2952.9995,895.98095 c 0,0.0105 -0.01,0.0187 -0.019,0.0187 h 0.019 z"
     id="path1346" />
  <path
     style="fill:#ffffff;stroke-width:1.15086;stroke-linecap:round;paint-order:stroke fill markers"
     d="M -10,895.98095 V 896 h 0.019043 C -9.9915912,896 -10,895.9916 -10,895.98095 Z"
     id="path1344" />
  <path
     style="fill:#7ce1c4;fill-opacity:1;stroke-width:1.15086;stroke-linecap:round;paint-order:stroke fill markers"
     d="m 349.76269,661.52539 c -14.2125,-0.35 -28.51318,-0.22578 -35.26318,0.57422 -56.3,6.8 -105.79883,30.5997 -148.79883,71.6997 C 138.20068,759.99935 106.20009,773 69.1001,773 47.200093,773 28.799316,768.99987 9.299316,759.8999 l -8.299804,-3.7998 v 60.3003 60.3003 l 9.300292,2.0991 c 69.199998,15.9 140.600676,3.20018 198.200676,-35.2998 13.8,-9.20002 23.79972,-17.29935 38.69971,-31.2993 6.40001,-6 14.8002,-13.10017 18.7002,-15.7002 14.8,-9.80003 32.89961,-17.3007 51.09961,-21.2007 12.1,-2.60002 42,-2.50035 54,0.0996 19.4,4.2 38.19931,12.5001 53.79931,23.6001 4.60001,3.3 8.50079,6 8.80079,6 0.19999,0 0.3999,-28.7994 0.3999,-63.8994 v -63.89941 l -7.19971,-2.5005 c -15.3,-5.4 -24.00029,-7.5999 -42.30029,-10.8999 -6.4,-1.1 -20.52481,-1.9249 -34.73731,-2.2749 z"
     id="path1342" />
  <path
     style="fill:#272c30;fill-opacity:1;stroke-width:1.15086;stroke-linecap:round;paint-order:stroke fill markers"
     d="m 2736.6626,129.17481 c -11.1875,-0.075 -22.3126,0.22578 -28.6626,0.92577 -42.9,4.9 -85.0995,23.29874 -118.9995,51.69873 -42.4,35.50001 -71.1999,88.50069 -78.3999,144.20069 -6.3,48.4 0.7998,92.29951 21.7998,135.49951 12.4,25.3 26.0002,44.00107 47.2002,64.60107 36.1999,35.1 82.8998,56.69952 134.2998,61.99952 16.1,1.69999 48.2991,0.60049 63.5991,-1.99952 22.7,-3.9 40.2998,-9.10009 59.2998,-17.6001 41.4,-18.3 75.6,-48.20019 100.5,-87.70019 3.1001,-5 5.401,-9.50088 5.001,-9.90088 -0.5,-0.39999 -25.0998,-13.99883 -54.7998,-30.29883 l -53.9004,-29.50048 -1.8999,3.19921 c -16.6,27.9 -36,43.3002 -63,50.2002 C 2726.0002,475.29951 2681.3,459.3 2658.5,425 c -37,-55.8 -19.1005,-136.8 36.4995,-165 22.6,-11.5 53.2998,-13.00049 80.2998,-4.00049 22.2,7.5 39.7003,22.10058 52.8003,44.10059 2.7,4.39999 4.7005,6.79951 5.5005,6.49951 1.2,-0.5 107.3992,-58.49913 108.1992,-59.09912 0.7,-0.60001 -10.3994,-18.10059 -17.3994,-27.60059 -37.1,-49.8 -92.9997,-81.29941 -158.6997,-89.39941 -6.6,-0.8 -17.8501,-1.25068 -29.0376,-1.32568 z"
     id="path1328" />
  <path
     style="fill:#272c30;fill-opacity:1;stroke-width:1.15086;stroke-linecap:round;paint-order:stroke fill markers"
     d="m 226.0625,129.125 c -11.5625,0.025 -22.91299,0.5251 -30.06299,1.4751 -47.2,6.4 -91.49892,27.79941 -125.898925,60.89941 -87.699998,84.3 -93.800683,226.20117 -13.700683,319.20117 49.399998,57.3 124.299808,85.89883 201.799808,76.79883 63.8,-7.5 120.69999,-38.99951 157.5,-87.49951 7.8,-10.3 18.30029,-26.60039 18.30029,-28.40039 0,-0.6 -21.00068,-12.6001 -46.70069,-26.6001 -25.69999,-14 -50.0999,-27.39971 -54.39989,-29.6997 l -7.69923,-4.29933 -4.10009,6.99903 c -12.2,20.5 -28.9001,35.10088 -49.1001,42.90088 -12.7,4.9 -22.69951,6.59951 -39.49951,6.49951 -17,0 -26.10049,-1.79961 -40.00049,-7.59961 -44,-18.6 -68.6,-68.50029 -60,-121.80029 5.8,-35.5 26.99932,-65.00049 56.79932,-79.00049 31.3,-14.7 74.10068,-10.7001 102.20068,9.3999 8.2,5.90001 18.29951,16.5003 24.49952,25.8003 3.19999,4.8 6.10097,9.60068 6.50097,10.70068 0.3,1.2 0.99961,2.09912 1.59961,2.09912 1.9,0 108.89942,-59.2999 108.89942,-60.3999 0,-1.9 -12.50001,-21.09961 -19.5,-30.09961 -37.30001,-47.8 -93.19962,-78.59951 -156.09962,-85.99952 -8,-0.94999 -19.7749,-1.40048 -31.3374,-1.37548 z"
     id="path1326" />
  <path
     style="fill:#272c30;fill-opacity:1;stroke-width:1.15086;stroke-linecap:round;paint-order:stroke fill markers"
     d="m 722,129.00048 -10.19971,0.0996 c -29,0.3 -53.9002,8.70019 -72.70019,24.70019 -6.9,5.9 -15.99942,17.29913 -21.89942,27.59912 l -4.70068,8.001 -0.30029,-23.2002 L 612.00048,143 H 551 489.99951 v 216 216 h 65.00097 64.89991 l 0.30029,-127.29932 0.29883,-127.20117 2.2002,-7.79883 c 3.69999,-12.9 7.90077,-20.30068 16.30077,-28.70068 14.4,-14.4 33.99903,-21.4 66.99903,-24 6.9,-0.5 13.29981,-1.00049 14.2998,-1.00049 C 721.89932,258.99951 722,255.2 722,194 Z"
     id="path1324" />
  <path
     style="fill:#272c30;fill-opacity:1;stroke-width:1.15086;stroke-linecap:round;paint-order:stroke fill markers"
     d="M 1787,4.88e-4 V 287.49951 575 h 64.9995 65.001 V 408.5 242 h 30.999 H 1979 V 192.5 143 h -31.0005 -30.999 V 71.499515 4.88e-4 h -65.001 z"
     id="path1322" />
  <path
     style="fill:#ffffff;stroke-width:1.15086;stroke-linecap:round;paint-order:stroke fill markers"
     d="m 2952.9804,-10 c 0.01,0 0.019,0.00841 0.019,0.019043 V -10 Z"
     id="path1320" />
  <path
     style="fill:#ffffff;stroke-width:1.15086;stroke-linecap:round;paint-order:stroke fill markers"
     d="m -10,-10 v 0.019043 C -10,-9.9915912 -9.9915912,-10 -9.980957,-10 Z"
     id="rect857" />
</svg>
