<?xml version="1.0" encoding="UTF-8" standalone="no"?>
<svg
   version="1.0"
   width="1667.000000pt"
   height="625.000000pt"
   viewBox="0 0 1667.000000 625.000000"
   preserveAspectRatio="xMidYMid meet"
   id="svg94"
   xmlns="http://www.w3.org/2000/svg"
   xmlns:svg="http://www.w3.org/2000/svg">
  <defs
     id="defs98" />
  <metadata
     id="metadata2">
Created by potrace 1.16, written by Peter Selinger 2001-2019
</metadata>
  <g
     id="layer1"
     style="display:inline;opacity:1">
    <path
       d="m 383.5,64 c -13.4,1.1 -23.8,2.9 -24.7,4.3 -1.2,1.9 -0.9,4.4 0.8,5.7 2.2,1.9 15.9,2.5 24,1.1 11.9,-2.1 18.5,-6.2 16.8,-10.5 -0.7,-1.8 -2.1,-1.8 -16.9,-0.6 z"
       id="path4"
       style="fill:#007e9e;fill-opacity:1;stroke:none;stroke-width:0.1" />
    <path
       d="m 411.6,65.2 c -0.3,0.7 -0.7,2.5 -1,4 -1.3,5.8 -10.7,9.4 -27,10.4 -9.9,0.6 -12.6,1.1 -16.9,3.3 -6.6,3.4 -9.2,7 -9.2,12.6 0,9 9.2,14 24.4,13.3 6.9,-0.3 9.9,-1 14.3,-3.1 7.1,-3.5 9.1,-6.4 9.2,-14 0.2,-5.3 0.5,-6.2 3,-8.2 5.5,-4.4 12.2,-5.7 25.3,-4.9 10.2,0.6 12.5,0.4 15.5,-1 4.4,-2.1 5.3,-4.1 3.3,-7.2 -1.8,-2.8 -2.3,-2.9 -16.3,-4.9 -13.9,-1.9 -24.1,-2 -24.6,-0.3 z"
       id="path6"
       style="fill:#5c802d;fill-opacity:1;stroke:none;stroke-width:0.1" />
    <path
       d="m 336,73 c -16.7,4.9 -26,8.6 -29,11.4 -4,3.8 -11.9,8.3 -22.5,12.7 -11.1,4.6 -14,6.4 -20.3,12.3 -7.5,7 -9.1,12.3 -4.7,15.2 3.3,2.2 9.5,1.2 17.2,-2.6 9,-4.5 12.7,-8.2 16.8,-16.5 C 299.1,94.2 307,89 325.1,84.9 340.2,81.5 349.6,76 348.8,71.2 348.5,69.3 348,69.4 336,73 Z"
       id="path8"
       style="fill:#5c802d;fill-opacity:1;stroke:none;stroke-width:0.1" />
    <path
       d="m 461,73 c 4.1,5.8 20.2,12 31.2,12 6.9,0 8.2,-1.4 3.1,-3.6 C 490,79.2 466.2,71.3 462.1,70.5 l -3.4,-0.7 z"
       id="path10"
       style="fill:#5c802d;fill-opacity:1;stroke:none;stroke-width:0.1" />
    <path
       d="m 325.1,88.5 c -12.3,3.5 -22,10.8 -24.1,18.4 -1.3,4.7 0.5,8.1 5.3,10.5 3.5,1.7 4.7,1.7 10.7,0.7 3.8,-0.6 8.8,-1.1 11.1,-1.1 5.3,0 12,3.2 15.4,7.2 2.5,3 2.6,3.3 1.9,13.9 l -0.7,10.9 4.2,4 c 8.3,7.9 22.4,9.1 34.9,2.9 13.2,-6.5 17.9,-20.3 10.6,-31.2 -4.1,-6.3 -8.9,-7.8 -23.6,-7.6 -13.6,0.2 -16.4,-0.5 -22.6,-6.5 l -3.3,-3.1 0.6,-8.2 c 0.7,-7.9 0.7,-8.1 -1.8,-9.8 -3.6,-2.3 -12.2,-2.8 -18.6,-1 z"
       id="path12"
       style="fill:#007e9e;fill-opacity:1;stroke:none;stroke-width:0.1" />
    <path
       d="m 475,90 c -4.8,4.8 -0.8,14.7 8.5,21.2 8.6,5.9 26.1,8.9 31.3,5.2 2.7,-1.9 2.9,-6.6 0.5,-12.5 -1.6,-4 -1.5,-4.2 0.2,-5.5 2.6,-1.9 4.7,-1.8 11.5,1 3.3,1.4 6,2.3 6,2.1 0,-0.4 -12.5,-7.8 -17.8,-10.4 -2.8,-1.4 -4.8,-1.9 -5.5,-1.3 -2.6,2 -6.8,2.1 -14.2,0.2 -10.4,-2.7 -17.9,-2.6 -20.5,0 z"
       id="path14"
       style="fill:#5c802d;fill-opacity:1;stroke:none;stroke-width:0.1" />
    <path
       d="m 526.2,106.2 c -3.1,3.1 -0.7,10.2 6.1,17.5 4.6,5 8.3,7.1 17.8,10.3 7.7,2.6 14.8,7.6 20,14.3 l 3.9,4.9 v -4.7 c 0,-4.1 -0.5,-5.3 -4,-9.3 -2.3,-2.5 -6.2,-8.2 -8.8,-12.5 -5.1,-8.5 -11.7,-14.7 -20.6,-19.2 -5.3,-2.7 -12.4,-3.3 -14.4,-1.3 z"
       id="path16"
       style="fill:#5c802d;fill-opacity:1;stroke:none;stroke-width:0.1" />
    <path
       d="m 243,125.2 c -10.4,9.2 -20.9,20.8 -19,20.8 0.7,0 3.7,-1.4 6.7,-3.1 5.1,-2.9 5.5,-3 7.8,-1.5 3,2 3.1,4.4 0.5,12.1 -4.3,12.5 -1.5,18.1 8.8,17.9 7,0 12.5,-2.7 19.8,-9.6 6.9,-6.5 10.4,-13.5 10.4,-20.5 0,-4.4 -0.5,-5.9 -2.5,-7.8 -3,-3.1 -5.9,-3.1 -15.4,-0.3 -6.6,2 -7.6,2 -10,0.7 -3.7,-2.1 -3.7,-4.3 -0.1,-9.9 1.8,-2.7 3,-5.5 2.8,-6.1 -0.2,-0.6 -4.6,2.7 -9.8,7.3 z"
       id="path18"
       style="fill:#003063;fill-opacity:1;stroke:none;stroke-width:0.1" />
    <path
       d="m 422.6,123.4 c -9.7,3.6 -12.6,8.3 -12.6,20.2 0,7.6 -0.2,8.5 -3.2,13 -1.8,2.7 -5.9,6.7 -9.1,8.9 l -5.9,4 -13.6,0.5 c -15.4,0.6 -17.6,1.3 -23.6,8 -5.1,5.7 -6.9,10.3 -6.9,18 0,14.7 11.2,25.9 26.4,26.3 8.2,0.2 14.2,-1.6 20.1,-5.9 7.3,-5.2 9.1,-9.7 9.4,-22.6 0.3,-12.3 1.2,-14.7 7.9,-20.6 8,-7 10.3,-7.7 25.5,-7.7 12.3,0 13.8,-0.2 17.2,-2.3 4.7,-2.9 8.8,-10.9 8.8,-17.1 -0.1,-8.9 -5.9,-17 -15.5,-21.2 -6.4,-2.9 -19.2,-3.6 -24.9,-1.5 z"
       id="path20"
       style="fill:#5c802d;fill-opacity:1;stroke:none;stroke-width:0.1" />
    <path
       d="m 304.5,127.7 c -10.9,4.4 -16.8,11.5 -18.1,21.3 -0.9,7.7 -3.5,13.1 -9,19.1 -6.2,6.5 -11.5,9.5 -18.4,10.4 -13.1,1.6 -18.9,5.5 -24.2,16.3 -2.8,5.6 -3.3,7.8 -3.3,13.7 0,11.2 4.9,17.3 14.3,18.3 10.1,0.9 22.1,-6.1 25.7,-15 0.9,-2.3 2.1,-8.3 2.7,-13.2 1.2,-10.8 2.4,-13.3 9.7,-20.6 7.4,-7.4 11.3,-9.1 23.1,-10 14.1,-1.1 20.4,-5 25.1,-15.5 6.7,-14.8 -0.9,-26.6 -17.1,-26.4 -3.6,0 -8.3,0.7 -10.5,1.6 z"
       id="path22"
       style="fill:#5c802d;fill-opacity:1;stroke:none;stroke-width:0.1" />
    <path
       d="m 220.4,151.9 c -6.6,4 -11.2,10.9 -20.4,30.5 -1.8,3.7 -5.5,9.8 -8.3,13.5 -6.7,8.8 -11.3,19.2 -17.1,38.9 -1.3,4.5 -1.3,5.4 -0.1,5.8 4.5,1.8 10.7,-7.7 14.1,-21.7 4.4,-17.7 11.8,-28.9 21.5,-32.3 9.5,-3.2 19.5,-16.2 21.4,-27.7 1.3,-7.8 -4.2,-11.2 -11.1,-7 z"
       id="path24"
       style="fill:#003063;fill-opacity:1;stroke:none;stroke-width:0.1" />
    <path
       d="m 936,164.9 c -8.1,2.6 -15.2,9.4 -17,16.1 -0.8,2.9 -1,24.7 -0.7,72.8 0.3,66.8 0.4,68.9 2.5,76.9 4.1,15.7 11.2,28.3 22.1,39.7 19.2,19.9 45.8,30 74.6,28.2 18.4,-1.1 34.3,-7.3 49.3,-19.2 6.8,-5.3 8.9,-7.6 10.9,-12.1 3.4,-7.5 2.9,-16.2 -1.4,-23.1 -3.4,-5.5 -11.4,-10.8 -17.9,-11.8 -5.4,-0.8 -13.4,1.1 -17.7,4.1 -16,11.6 -20.2,13.1 -33.7,12.3 -16.8,-1 -31,-12.2 -36,-28.5 -1.8,-5.7 -2,-9.3 -2,-29.4 V 268 h 33.8 c 30.5,0 34.1,-0.2 37.7,-1.9 16.8,-7.6 20.2,-30.6 6.4,-42.5 -2.2,-1.9 -6,-3.9 -8.4,-4.5 -2.8,-0.7 -16.5,-1.1 -36.9,-1.1 h -32.4 l -0.4,-17.3 c -0.3,-14.9 -0.6,-17.8 -2.4,-21.7 -2.4,-5.1 -7.1,-10.3 -11.7,-12.7 -3.6,-1.8 -14.9,-2.7 -18.7,-1.4 z"
       id="path26"
       style="fill:#007e9e;fill-opacity:1;stroke:none;stroke-width:0.1" />
    <path
       d="m 523.5,167.4 c -5.4,2.5 -10,7.1 -12.2,12.3 -1,2.4 -1.3,9.3 -1.3,26.9 0,18.5 -0.3,23.5 -1.2,23.1 -14.9,-6.6 -24.7,-8.7 -39.5,-8.7 -5.9,0 -13.7,0.7 -17.3,1.4 -35.9,7.6 -65.3,38.2 -71,73.9 -1.7,10.1 -0.7,26.9 2,36.5 7,24.7 25.9,46.9 49.3,57.7 13.4,6.2 21.5,7.9 36.7,7.9 15.8,0 23.3,-1.5 35.6,-7.3 25.1,-11.8 41.7,-30.4 50.5,-56.6 l 2.4,-7 0.3,-72.7 c 0.3,-70.5 0.2,-72.9 -1.7,-76.5 -2.5,-4.9 -7.6,-9.8 -12.3,-11.7 -5.6,-2.4 -14.3,-2 -20.3,0.8 z m -40.1,104.7 c 15.3,6.1 25.6,20.8 25.8,37 0.1,9 -2.6,17 -8.2,24.3 -12,15.8 -31.2,20.9 -48.3,12.8 -8.4,-3.9 -16.3,-11.6 -20.3,-19.7 -2.6,-5.5 -2.9,-6.9 -2.9,-16.5 0,-9.6 0.3,-11 2.9,-16.5 5.6,-11.4 17.7,-21 29.8,-23.5 5.9,-1.2 15,-0.3 21.2,2.1 z"
       id="path28"
       style="fill:#007e9e;fill-opacity:1;stroke:none;stroke-width:0.1" />
    <path
       d="m 1306.9,166.4 c -7.7,2.7 -13.6,9.1 -15.9,17.1 -0.8,2.9 -1,26.2 -0.8,83.5 l 0.3,79.5 2.8,8.2 c 5.4,16 16.9,29.4 31.8,37.3 9.9,5.1 17.3,7 27.9,7 6.8,0 9.5,-0.5 13.5,-2.4 8.8,-4 13.5,-11.4 13.5,-21.1 0,-13.3 -8.9,-22.5 -23.1,-24 -7.8,-0.9 -12.8,-3.8 -15.5,-9.2 -1.8,-3.6 -1.9,-7.6 -2.4,-81.8 -0.6,-87.9 0,-81.5 -8.5,-89.4 -6.4,-5.9 -15.4,-7.7 -23.6,-4.7 z"
       id="path30"
       style="fill:#007e9e;fill-opacity:1;stroke:none;stroke-width:0.1" />
    <path
       d="m 594.2,168.6 c -14.1,7 -17.8,26.1 -7.4,37.6 5,5.6 10.2,7.8 18.2,7.8 8.1,0 13.4,-2.3 18.1,-7.9 10.7,-12.4 6.1,-32.5 -8.8,-38.8 -5.4,-2.2 -14.2,-1.7 -20.1,1.3 z"
       id="path32"
       style="fill:#007e9e;fill-opacity:1;stroke:none;stroke-width:0.1" />
    <path
       d="m 863.1,167.4 c -4.8,1.7 -10.8,7.1 -13.3,11.9 -2.4,4.8 -2.8,15.1 -0.8,20.2 3.5,9.1 12.1,14.5 22.8,14.5 7.8,0 11.9,-1.7 17.1,-7 14.7,-15.2 3.8,-41.2 -17.1,-40.9 -2.9,0 -6.8,0.6 -8.7,1.3 z"
       id="path34"
       style="fill:#007e9e;fill-opacity:1;stroke:none;stroke-width:0.1" />
    <path
       d="m 206.9,195.9 c -8.3,5.2 -15,18.5 -15.3,30.1 -0.1,4.9 0.4,7.3 1.8,9.4 1.8,2.9 1.9,2.9 9.4,2.2 l 7.5,-0.6 4.1,4.3 c 5.5,5.7 6.6,9.9 5.9,22.3 -0.7,13 0,16.6 4.4,21.4 5.7,6.4 14.1,7.7 22.8,3.6 5.7,-2.6 9.9,-7 12.9,-13.6 1.6,-3.5 2,-6.6 2.1,-14.1 0,-8.9 -0.2,-9.9 -3,-14.5 -4.5,-7.2 -7.8,-8.6 -19,-7.8 -8.8,0.6 -9.2,0.6 -12.2,-2 -5.1,-4.3 -7.7,-10.7 -6.9,-17.4 0.3,-3.1 0.9,-9.1 1.2,-13.2 0.6,-7.2 0.5,-7.6 -2.1,-10.3 -3.6,-3.6 -7.8,-3.5 -13.6,0.2 z"
       id="path36"
       style="fill:#007e9e;fill-opacity:1;stroke:none;stroke-width:0.1" />
    <path
       d="m 1160.5,222.7 c -9,1.9 -18.2,5.5 -26.9,10.7 -8.3,4.9 -22.7,18.8 -28.1,27.1 -16.1,24.7 -19.2,57 -7.9,83.7 8.2,19.6 27.5,39.2 46.9,47.7 22.6,9.9 52.8,9.1 75,-2 l 4.4,-2.2 2.7,3.2 c 5.8,7 17.4,9.9 26.1,6.6 2.6,-1 6.6,-3.6 8.9,-5.7 7.6,-7 7.6,-6.7 7.2,-55.4 -0.4,-40.3 -0.6,-43.3 -2.6,-49.9 -10.1,-33.3 -35.3,-57.3 -67.2,-64 -9.1,-1.9 -29.2,-1.8 -38.5,0.2 z m 25.4,47.3 c 12.7,2.4 24.2,11.4 30.2,23.5 3.1,6.4 3.4,7.7 3.4,16.5 0,8.6 -0.3,10.1 -3.1,16.1 -12.4,26.2 -44.2,32 -64.4,11.8 -2.8,-2.8 -6.5,-7.8 -8.3,-11.2 -3,-5.8 -3.2,-6.8 -3.2,-16.7 0,-9.5 0.3,-11 2.8,-16.2 5.7,-11.5 16.6,-20.6 28.2,-23.4 6.4,-1.6 8.1,-1.6 14.4,-0.4 z"
       id="path38"
       style="fill:#007e9e;fill-opacity:1;stroke:none;stroke-width:0.1" />
    <path
       d="m 597.5,223.2 c -3.2,1.1 -9.1,5.2 -11.3,7.8 -0.7,0.8 -2.2,3.3 -3.2,5.5 -1.9,3.8 -2,7 -2,73.6 0,74.6 -0.1,73.8 5,81 1.2,1.6 4.2,4.1 6.8,5.6 6.3,3.7 17.4,4 23.9,0.6 5,-2.7 10,-8.6 11.3,-13.3 0.6,-2.1 1,-30.9 1,-72.6 0,-75.8 0.2,-73.6 -6,-81.4 -5.6,-7 -16.5,-9.9 -25.5,-6.8 z"
       id="path40"
       style="fill:#007e9e;fill-opacity:1;stroke:none;stroke-width:0.1" />
    <path
       d="m 862.4,223.9 c -6.1,2.8 -11.1,7.7 -13.1,12.9 -1.7,4.4 -1.8,9.5 -1.8,74.7 v 70 l 2.3,4.7 c 10.1,20.4 40.6,17.2 45.2,-4.7 0.7,-3.4 1,-27.4 0.8,-73.1 -0.3,-75.1 0,-71 -6.9,-78.9 -1.9,-2.1 -5.2,-4.6 -7.4,-5.6 -5.2,-2.4 -13.8,-2.4 -19.1,0 z"
       id="path42"
       style="fill:#007e9e;fill-opacity:1;stroke:none;stroke-width:0.1" />
    <path
       d="m 722.4,225.4 c -9.4,1.8 -13.5,3.2 -21.9,7.4 -22.3,11.1 -38.9,30.2 -46.3,53.2 -3.6,11.3 -4.5,18.3 -3.9,31.3 0.6,14.6 2.7,22.2 9.6,36.2 8.9,17.8 22.5,31.2 40.6,40 12.1,5.8 19.6,7.6 34.9,8.2 14.8,0.7 23.1,-0.5 35,-4.8 4.4,-1.6 8.1,-2.9 8.3,-2.9 0.2,0 0.3,4.7 0.3,10.4 0,12.3 -2.1,20.4 -7.4,28.2 -8.9,13.1 -23.3,19.4 -39.7,17.3 -7.9,-1 -14.1,-3.6 -19.7,-8.5 -6.1,-5.2 -11.7,-7.4 -19,-7.4 -7.6,0 -12.4,1.9 -17.6,6.8 -6.9,6.7 -9.3,15.7 -6.5,25.5 2.1,7.5 14.2,18 29.4,25.3 12.5,6.1 18.8,7.5 34.5,8.1 11,0.4 15.3,0.1 23,-1.5 40.4,-8.4 67.8,-37.5 73,-77.5 0.6,-4.5 0.5,-38.9 -0.1,-92.2 -1.2,-93.9 -0.9,-90.1 -7.7,-97 -5.7,-5.7 -8.7,-7 -17.2,-7 -6.4,0 -8.2,0.4 -12.2,2.7 -2.5,1.5 -5.5,4 -6.5,5.4 l -2,2.7 -6.6,-3.2 c -3.6,-1.7 -10.1,-4.1 -14.4,-5.2 -10.1,-2.7 -30,-3.4 -39.9,-1.5 z m 32.9,50.8 c 7.9,3.7 16,11.6 20,19.7 3,6.1 3.2,7.3 3.2,16.6 0,9.6 -0.2,10.4 -3.8,17.7 -6.1,12.4 -17.3,20.7 -30.6,22.9 -16.2,2.6 -33.7,-7.5 -41.4,-23.8 -2.9,-6.2 -3.2,-7.7 -3.2,-16.3 0,-8.2 0.4,-10.3 2.7,-15.2 2.7,-5.8 9.8,-14.2 15.2,-18.1 1.6,-1.1 5.4,-3.1 8.5,-4.4 7.9,-3.3 21,-2.9 29.4,0.9 z"
       id="path44"
       style="fill:#007e9e;fill-opacity:1;stroke:none;stroke-width:0.1" />
    <path
       d="m 292.2,242.5 c -2.4,0.7 -6,2.5 -8.1,3.9 -7.6,5.3 -10.1,11.2 -10.1,23.7 0,4.1 -0.7,9.8 -1.5,12.5 -1.9,6.3 -7.3,13.6 -12.7,17.1 -3.9,2.6 -4.8,2.8 -13.2,2.5 -11.5,-0.3 -15.7,1.7 -19.5,9.3 -2.3,4.3 -2.6,6.2 -2.6,15 0,8.5 0.4,10.7 2.4,14.5 5.1,9.8 12,14.4 21.8,14.5 5.2,0 6.7,-0.4 10.4,-3 7.3,-5.1 8.3,-7.9 8.9,-24.1 0.5,-13.6 0.6,-14.2 3.5,-18.3 3.4,-4.9 9.8,-10.5 13.8,-12 1.6,-0.6 7.4,-1.1 12.9,-1.1 12.1,0 17.1,-1.9 21.7,-8.2 4.7,-6.4 6.4,-12.8 5.9,-21.8 -0.4,-6 -1,-8.7 -3.1,-12.3 -3.5,-6 -9,-10.4 -15.1,-12.2 -6,-1.8 -9.7,-1.8 -15.4,0 z"
       id="path46"
       style="fill:#007e9e;fill-opacity:1;stroke:none;stroke-width:0.1" />
    <path
       d="m 194.4,249.4 c -3.6,1.6 -7.6,6.6 -9.3,11.6 -0.7,1.9 -1.6,8.1 -2.2,13.8 -1.6,16.7 -6.1,26.2 -12.4,26.2 -5.3,0 -5.7,1.8 -4.5,17.2 1.8,22.5 2.9,25.7 8.7,25.8 1.5,0 2.8,-1.1 4,-3.3 1.5,-2.7 1.8,-5.3 1.6,-15.9 -0.2,-10.8 0,-13.6 1.8,-18.2 2.9,-7.9 6.5,-10.6 13.9,-10.6 5.4,0 6.2,-0.3 9.4,-3.4 4.8,-4.8 7.1,-12.2 7.1,-22.6 0,-10 -2.7,-16.9 -7.9,-20.1 -3.6,-2.2 -5.9,-2.3 -10.2,-0.5 z"
       id="path48"
       style="fill:#003063;fill-opacity:1;stroke:none;stroke-width:0.1" />
    <path
       d="m 171.7,250.2 c -1.2,1 -2.2,5.3 -3.7,15.9 -2.4,16.8 -2.4,25.2 0.2,25.7 2.4,0.5 5.5,-3.4 7.9,-9.7 3,-7.9 3.8,-25.4 1.5,-29.9 -1.8,-3.4 -3.3,-3.9 -5.9,-2 z"
       id="path50"
       style="fill:#003063;fill-opacity:1;stroke:none;stroke-width:0.1" />
    <path
       d="m 192.2,309.6 c -1.2,0.8 -3.2,3.4 -4.5,5.7 -1.9,3.6 -2.2,5.7 -2.2,14.7 0,9.5 0.3,11 2.8,16.3 3.2,6.4 5.3,7.9 14.1,9.7 11.2,2.3 18.8,13.2 21.3,30.5 0.7,5.5 2.3,11.9 3.4,14.2 2.3,4.8 8.6,10.9 13.5,12.9 4.9,2.1 13,1.8 16.8,-0.6 8.2,-5 10.5,-18.8 5.1,-30.8 -4.7,-10.6 -10.8,-14.7 -23.7,-15.9 -6.8,-0.6 -7.5,-0.9 -11.8,-4.9 -2.6,-2.4 -5.9,-6.7 -7.5,-9.6 -2.5,-4.5 -2.9,-6.6 -3.5,-17.3 -0.8,-12.5 -2,-16.5 -6.4,-21.3 -4.6,-5.1 -12.8,-6.8 -17.4,-3.6 z"
       id="path52"
       style="fill:#003063;fill-opacity:1;stroke:none;stroke-width:0.1" />
    <path
       d="m 298.7,311 c -5.8,1.5 -8.9,3.4 -13.5,8.3 -11.6,12.7 -8.2,36.8 6.3,44.5 1.8,0.9 7.1,1.8 13.8,2.3 12.8,0.9 16.4,2.6 25,11.9 6.6,7.1 7.7,10.2 7.7,22.5 0,11 2.2,16.2 8.8,21.2 13,9.8 32.9,7.6 41.8,-4.7 9,-12.3 5.7,-30.6 -6.9,-38.4 -4.5,-2.8 -5.8,-3 -17.5,-3.6 -14.6,-0.7 -17,-1.6 -24.3,-9.1 -7.4,-7.6 -9.1,-12 -9,-23.7 0.1,-13.3 -1.6,-18.7 -7.5,-24.2 -2.5,-2.3 -6,-4.8 -7.8,-5.5 -4.5,-1.9 -12.4,-2.6 -16.9,-1.5 z"
       id="path54"
       style="fill:#5c802d;fill-opacity:1;stroke:none;stroke-width:0.1" />
    <path
       d="m 171.6,356.3 c 2,8.9 10.5,34.7 11.5,34.7 0.4,0 1.1,-1.6 1.5,-3.5 2,-10.8 -5.5,-32.7 -12.5,-36.5 -1.8,-0.9 -1.9,-0.7 -0.5,5.3 z"
       id="path56"
       style="fill:#003063;fill-opacity:1;stroke:none;stroke-width:0.1" />
    <path
       d="m 190.6,366.3 c -3.1,3.1 -3.4,8.7 -1.1,18.2 2,8.4 1.9,13.1 -0.4,15.4 -1.8,1.8 -1.8,2.1 4.1,13.2 5.5,10.5 9.4,16.5 7.3,11.4 -3.7,-9.2 -4.8,-13.7 -3.7,-16 1.3,-2.9 4.3,-3.2 8.2,-1 1.4,0.8 3.9,1.4 5.6,1.5 4.7,0 6.7,-2.9 7.2,-10.4 1,-15.2 -9.6,-32.8 -20.6,-34.3 -3.4,-0.5 -4.4,-0.1 -6.6,2 z"
       id="path58"
       style="fill:#003063;fill-opacity:1;stroke:none;stroke-width:0.1" />
    <path
       d="m 286.2,381.1 c -8.3,4.1 -10.7,10.6 -9.1,24.2 1,7.9 0.9,9.1 -0.9,12.5 -1,2 -3.8,5.2 -6.3,7.1 -4.1,3.1 -4.7,3.3 -9.9,2.7 -17.4,-2 -17.5,-2 -19.8,0.9 -3,3.8 -3,12.2 -0.1,18.2 3.1,6.4 11.2,14.8 17.1,17.7 6.8,3.4 15.3,3.6 19.3,0.4 2.7,-2.1 2.7,-2.3 2,-9.2 -1.7,-14.5 -1.4,-16.1 3,-20.7 5.9,-6.2 9,-7.2 17.7,-5.8 9.4,1.5 17.1,0.8 20.6,-1.8 4.9,-3.6 7.6,-9.9 7.6,-17.8 0.1,-12 -6.2,-21.7 -17.6,-27.5 -7.8,-3.8 -16.9,-4.2 -23.6,-0.9 z"
       id="path60"
       style="fill:#007e9e;fill-opacity:1;stroke:none;stroke-width:0.1" />
    <path
       d="m 204.7,418.7 c -2.5,2.9 -2.1,7.1 1.7,14.8 4.4,9.1 10.2,15.6 18.4,20.4 8.4,4.9 19,15.8 23,23.6 3,6 6.1,9.4 13.8,15.3 8.2,6.3 18.1,9.1 21.2,6 5.4,-5.4 -6.7,-22.1 -19.4,-26.7 -3.2,-1.2 -7.8,-2.8 -10.2,-3.7 -4.9,-1.8 -15.3,-11.8 -18.2,-17.4 -1,-2 -2.4,-5.9 -3.1,-8.6 -2.2,-9.2 -7.1,-16.4 -14.5,-21.5 -5.8,-4 -10.3,-4.7 -12.7,-2.2 z"
       id="path62"
       style="fill:#5c802d;fill-opacity:1;stroke:none;stroke-width:0.1" />
    <path
       d="m 934.4,422.1 c -1.7,1.9 -1.9,4.1 -2.2,26 l -0.3,23.9 -6.7,-5.2 c -3.7,-2.8 -9.3,-6.4 -12.5,-7.9 -34,-16.1 -75,13.7 -72.4,52.6 1.6,22.7 17.6,42.3 39.2,48 7.4,1.9 21.3,1.9 28.4,0 18.7,-4.9 34.2,-21 38,-39.3 0.7,-3.4 1.1,-21.4 1.1,-50.5 0,-51 0.2,-49.7 -6.9,-49.7 -2.6,0 -4.4,0.7 -5.7,2.1 z M 905.2,471 c 6.7,2 15.4,8.7 19.8,15.2 10.8,16.2 9.1,35.8 -4.2,49.1 -19.1,19.1 -50.5,13.4 -62.1,-11.1 -2.9,-6.1 -3.2,-7.6 -3.2,-16.2 0,-8.6 0.3,-10.1 3.1,-16 8.5,-17.8 27.9,-26.6 46.6,-21 z"
       id="path64"
       style="fill:#007e9e;fill-opacity:1;stroke:none;stroke-width:0.1" />
    <path
       d="m 1143.4,420.8 c -3.3,2.1 -3.4,5 -3.4,70.7 v 65.6 l 2.5,2.4 c 2.9,3 6.4,3.2 9.6,0.6 l 2.4,-1.9 0.5,-30.4 0.5,-30.3 2.9,-6 c 3.8,-7.7 11.4,-15.3 19.1,-19.1 5.4,-2.6 7,-2.9 16,-2.9 8.8,0 10.7,0.3 15.7,2.7 8,3.7 15.2,10.7 19.1,18.7 l 3.2,6.5 0.5,30.4 0.5,30.4 2.4,1.9 c 3,2.5 6.2,2.4 9.5,-0.2 l 2.6,-2 v -28.8 c 0,-22.3 -0.3,-30 -1.5,-34.5 -6.2,-23.7 -27.8,-40.6 -52,-40.6 -12.1,0 -25.4,4.9 -34.5,12.7 l -4,3.5 v -23.1 c 0,-21.8 -0.1,-23.2 -2,-25.1 -2,-2 -7.4,-2.7 -9.6,-1.2 z"
       id="path66"
       style="fill:#007e9e;fill-opacity:1;stroke:none;stroke-width:0.1" />
    <path
       d="m 553.5,435.7 c -7,2.8 -12.2,7.1 -16.4,13.4 -6,9 -7.4,15.4 -4.6,20.8 2.4,4.7 6.7,5.3 16,2.1 3.2,-1.1 6.6,-2 7.5,-2 1,0 2.9,0.9 4.3,2 1.4,1.1 3,2 3.5,2 2.3,0 4.7,-12.1 5.9,-28.9 0.4,-7.4 0.3,-8.6 -1.3,-9.8 -2.4,-1.8 -10,-1.6 -14.9,0.4 z"
       id="path68"
       style="fill:#5c802d;fill-opacity:1;stroke:none;stroke-width:0.1" />
    <path
       d="m 298.4,441.9 c -11.1,5.1 -12.7,18 -3.8,29.6 4.2,5.6 9.7,8.2 20.4,9.9 11.4,1.7 13.4,2.4 21.1,7.7 7.3,4.9 9.5,8.2 10.3,15.9 0.6,5.3 1.1,6.3 4.6,9.3 11.3,9.6 36,9.4 42,-0.5 2.6,-4.2 2.5,-6.3 -0.2,-11.8 -3.7,-7.3 -9.2,-10 -23,-11.2 -14.3,-1.3 -18.5,-2.8 -25.3,-8.9 -5.9,-5.5 -7,-8.1 -7.9,-18.1 -0.6,-8 -2.2,-11.3 -7.2,-15.8 -8.3,-7.3 -22.6,-10.1 -31,-6.1 z"
       id="path70"
       style="fill:#007e9e;fill-opacity:1;stroke:none;stroke-width:0.1" />
    <path
       d="m 435.9,446 c -9.7,1.7 -19.2,8.7 -22.5,16.6 -3.7,8.8 -0.1,19.4 7.9,23.3 3.7,1.8 6.2,2.1 16.9,2.1 11.8,0 12.9,0.2 17.8,2.7 2.9,1.6 6.2,4 7.3,5.5 1.8,2.4 1.9,3.2 0.9,6.6 -3.2,10.7 -0.5,14.2 11.3,14.2 7.8,0 15.8,-2.6 23.2,-7.5 6.5,-4.3 9.3,-8.6 9.3,-14.3 0,-7.6 -5.6,-10.3 -17.3,-8.3 -10.5,1.8 -14.8,1.5 -19.8,-1.8 -6.6,-4.2 -8.4,-8.4 -7.1,-17.2 0.7,-4.5 0.7,-8.1 0.1,-10.4 -2.3,-8.1 -15.7,-13.7 -28,-11.5 z"
       id="path72"
       style="fill:#007e9e;fill-opacity:1;stroke:none;stroke-width:0.1" />
    <path
       d="m 959.7,455.8 c -1.5,1.6 -1.7,5.3 -1.7,31.8 0,24.6 0.3,31 1.6,35.5 5.2,17.8 18.8,31.2 36.8,36.4 8.4,2.4 22.2,2.2 30.7,-0.4 16.9,-5.3 30.8,-19.9 35.4,-37.2 1.1,-4.1 1.5,-12.6 1.5,-35.1 0,-29.6 0,-29.7 -2.2,-31.2 -2.9,-2 -6.7,-2 -9.6,0 -2.2,1.5 -2.2,1.8 -2.2,27.3 0,14.2 -0.5,28.4 -1.1,31.7 -2.3,12.7 -10.4,22.9 -22.7,28.7 -5.9,2.8 -7.7,3.2 -15.2,3.1 -10.9,0 -17.9,-2.6 -25.4,-9.5 -12.1,-11.1 -13.6,-16.7 -13.6,-52.1 0,-25.5 -0.1,-26.9 -2,-28.8 -2.6,-2.6 -8.1,-2.6 -10.3,-0.2 z"
       id="path74"
       style="fill:#007e9e;fill-opacity:1;stroke:none;stroke-width:0.1" />
    <path
       d="m 1113.1,455.6 c -17.8,4.8 -32.9,20 -37.7,37.9 -1,3.6 -1.4,13.1 -1.4,34.6 0,28.4 0.1,29.7 2,31.4 1.1,1 3.4,1.8 5,1.8 1.6,0 3.9,-0.8 5,-1.8 1.9,-1.7 2,-3 2,-28.1 0,-15.7 0.5,-28.4 1.1,-31.6 1.6,-7.6 5.4,-14.4 11,-19.9 6.1,-6 13.6,-9.5 23,-11 4.1,-0.6 8.2,-1.8 9.2,-2.7 2.3,-2.1 2.2,-7.7 -0.3,-10.2 -2.4,-2.4 -10.7,-2.6 -18.9,-0.4 z"
       id="path76"
       style="fill:#007e9e;fill-opacity:1;stroke:none;stroke-width:0.1" />
    <path
       d="m 1298.3,455.1 c -26.4,4.4 -45.3,26.5 -45.3,52.9 0,15.9 5.3,28.4 16.4,38.7 10.5,9.8 21.7,14.3 36.2,14.3 13.2,0 23.9,-4.2 34.3,-13.6 l 5.1,-4.6 v 7.2 c 0,6.2 0.3,7.4 2.5,9.5 3.1,3.2 6.9,3.2 10,0 l 2.5,-2.4 v -26.8 c 0,-19.1 -0.4,-28.7 -1.4,-33.4 -4.4,-20.5 -23.4,-38.7 -43.6,-41.9 -7.4,-1.1 -9.4,-1.1 -16.7,0.1 z m 17.2,15.5 c 21,5.4 33.8,27 28,47 -2.3,8.1 -5.7,13.5 -12.1,19.3 -7.5,6.9 -14.5,9.5 -25.5,9.6 -7.9,0 -9.1,-0.3 -16.1,-3.8 -24.4,-12 -29.7,-42.9 -10.7,-61.9 10.1,-10.1 23,-13.7 36.4,-10.2 z"
       id="path78"
       style="fill:#007e9e;fill-opacity:1;stroke:none;stroke-width:0.1" />
    <path
       d="m 1396.9,455.4 c -10.6,2.8 -20,11.2 -24.1,21.5 -2.1,5.4 -2.2,7.1 -2.6,41.5 -0.3,25.8 0,36.6 0.8,38.6 2,4.9 9.3,5.9 12.7,1.8 0.9,-1 1.3,-12 1.5,-37.8 l 0.3,-36.5 2.8,-4.8 c 6.9,-11.8 22.2,-14.3 32.5,-5.3 6.9,6.1 7.6,9.3 8,34.6 0.3,18.7 0.6,22.8 1.9,24.2 2.2,2.4 7.8,2.3 10.3,-0.2 1.9,-1.9 2,-3.3 2,-23.4 0,-16 0.4,-22.4 1.4,-25.4 4.5,-12.6 17.6,-18.6 29.2,-13.3 5.3,2.4 10.9,9.1 12.3,14.6 0.7,2.8 1.1,16.9 1.1,38.3 0,32.7 0.1,34 2,35.7 2.6,2.3 7.4,2.3 10,0 1.9,-1.8 2,-3 2,-39.4 0,-36.9 -0.1,-37.7 -2.3,-43.2 -3.1,-7.4 -6.8,-12 -13,-16.3 -14.3,-9.7 -32.8,-8.4 -45.8,3.2 l -4.6,4.1 -2.9,-3.1 c -8.6,-9.1 -22.7,-12.9 -35.5,-9.4 z"
       id="path80"
       style="fill:#007e9e;fill-opacity:1;stroke:none;stroke-width:0.1" />
    <path
       d="m 539,479.9 c -10.2,3.2 -19,10.2 -22.9,18.5 -1.7,3.5 -4.5,7.8 -6.3,9.5 -5.4,5 -15.5,9.8 -24.5,11.4 -9.3,1.8 -19.6,6.3 -23.2,10.1 -3.5,3.7 -1.7,3.5 16.2,-2.4 23.9,-7.9 51.6,-22.4 68.5,-35.9 5.4,-4.3 6.8,-8.1 4,-10.9 -1.3,-1.3 -7.9,-1.5 -11.8,-0.3 z"
       id="path82"
       style="fill:#003063;fill-opacity:1;stroke:none;stroke-width:0.1" />
    <path
       d="m 295.8,488.5 c -3.4,1.9 -3.7,5.6 -1.1,12.3 1.6,4.3 1.6,4.5 -0.2,5.8 -2.5,1.8 -5.7,1.8 -10.3,-0.2 -5.7,-2.3 -2.6,-0.2 6.8,4.8 8.2,4.4 8.6,4.5 11.8,3.1 3.1,-1.2 4.2,-1.2 11.5,0.8 15.7,4.1 22.7,2.5 22.7,-5.2 0,-2.2 -0.7,-5.3 -1.5,-6.8 -2.3,-4.5 -10.2,-10.8 -16.4,-13.2 -7.4,-2.8 -19.6,-3.5 -23.3,-1.4 z"
       id="path84"
       style="fill:#003063;fill-opacity:1;stroke:none;stroke-width:0.1" />
    <path
       d="m 418.6,497.6 c -9.7,3.5 -12.6,7 -12.6,15.4 0,5.7 -1.4,7.6 -8.2,11.2 -4,2.1 -5.4,2.2 -18.5,2 -17,-0.3 -21.3,0.8 -21.3,5.6 0,2.3 0.5,3.1 2.4,3.6 4.6,1.1 28.1,3.6 34.4,3.6 6,0 6.3,-0.1 6.2,-2.3 -0.4,-4.3 0,-4.8 6.3,-7.8 5.4,-2.5 8.3,-3.1 19.1,-3.9 14,-1.1 19.2,-2.7 23.9,-7.8 1.8,-1.9 3.1,-4.5 3.4,-7.1 0.5,-3.7 0.2,-4.4 -3.3,-8 -2.3,-2.2 -5.7,-4.4 -7.9,-5 -5.5,-1.5 -19.2,-1.3 -23.9,0.5 z"
       id="path86"
       style="fill:#5c802d;fill-opacity:1;stroke:none;stroke-width:0.1" />
    <path
       d="m 312.6,520.9 c 2.1,2.2 35,12.8 36.1,11.7 0.2,-0.2 -0.6,-1.6 -1.9,-3 -3.4,-4 -20.3,-9.6 -28.7,-9.6 -4,0 -6.1,0.4 -5.5,0.9 z"
       id="path88"
       style="fill:#007e9e;fill-opacity:1;stroke:none;stroke-width:0.1" />
    <path
       d="m 421,530.9 c -8.5,2.7 -11.9,4.9 -12,7.5 0,1.2 16.3,0.1 30.8,-2.1 10.3,-1.5 11.3,-1.8 11,-3.7 -0.4,-2.7 -3.4,-3.4 -14.8,-3.4 -6.3,0 -11.4,0.6 -15,1.7 z"
       id="path90"
       style="fill:#003063;fill-opacity:1;stroke:none;stroke-width:0.1" />
  </g>
</svg>
