<?xml version="1.0" encoding="UTF-8"?>
<svg version="1.1" viewBox="0 0 1667 625" xmlns="http://www.w3.org/2000/svg">
 <g>
  <path d="m396.29 63.164c-2.4088 0.01538-6.319 0.31143-12.794 0.83642-13.4 1.1-23.8 2.8993-24.7 4.2993-1.2 1.9-0.90019 4.3997 0.79981 5.6997 2.2 1.9 15.9 2.5001 24 1.1001 11.9-2.1 18.5-6.2 16.8-10.5-0.39375-1.0125-1.0089-1.4553-4.106-1.4355zm-63.445 24.255c-2.6391 0.05449-5.349 0.40606-7.749 1.0811-12.3 3.5-22 10.8-24.1 18.4-1.3 4.7 0.49983 8.1 5.2998 10.5 3.5 1.7 4.6992 1.7002 10.699 0.7002 3.8-0.6 8.8006-1.1001 11.101-1.1001 5.3 0 12 3.1997 15.4 7.1997 2.5 3 2.5999 3.2999 1.8999 13.9l-0.70019 10.9 4.1997 4.0005c8.3 7.9 22.4 9.1004 34.9 2.9004 13.2-6.5 17.901-20.3 10.601-31.2-4.1-6.3-8.9001-7.8011-23.6-7.6011-13.6 0.2-16.4-0.49954-22.6-6.4995l-3.3003-3.0996 0.59912-8.2002c0.7-7.9 0.70117-8.0998-1.7988-9.7998-2.25-1.4375-6.4531-2.1724-10.852-2.0815zm609.79 76.878c-2.7328-0.0627-5.2122 0.11601-6.6372 0.60351-8.1 2.6-15.2 9.4001-17 16.1-0.8 2.9-1.0002 24.7-0.7002 72.8 0.3 66.8 0.39903 68.9 2.499 76.9 4.1 15.7 11.2 28.3 22.1 39.7 19.2 19.9 45.8 30 74.6 28.2 18.4-1.1 34.301-7.2998 49.301-19.2 6.8-5.3 8.8999-7.6011 10.9-12.101 3.4-7.5 2.8996-16.199-1.4004-23.099-3.4-5.5-11.4-10.801-17.9-11.801-5.4-0.8-13.4 1.1001-17.7 4.1001-16 11.6-20.2 13.1-33.7 12.3-16.8-0.99996-31-12.2-36-28.5-1.8-5.7-1.9995-9.2995-1.9995-29.399v-22.9h33.8c30.5 0 34.101-0.19994 37.701-1.8999 16.8-7.6 20.2-30.601 6.3999-42.501-2.2-1.9-6.0009-3.9-8.4009-4.5-2.8-0.7-16.499-1.1001-36.899-1.1001h-32.399l-0.40136-17.3c-0.3-14.9-0.59942-17.8-2.3994-21.7-2.4-5.1-7.0997-10.3-11.7-12.7-2.25-1.125-7.5083-1.898-12.063-2.0024zm373.65 0.7163c-3.1207-0.18808-6.3088 0.26221-9.3838 1.3872-7.7 2.7-13.599 9.0992-15.899 17.099-0.8 2.9-0.9998 26.201-0.7998 83.5l0.2988 79.5 2.8008 8.2002c5.4 16 16.9 29.399 31.8 37.299 9.9 5.1 17.299 7.0005 27.899 7.0005 6.8 0 9.5-0.49945 13.5-2.3994 8.8-4 13.5-11.401 13.5-21.101 0-13.3-8.9006-22.5-23.101-24-7.8-0.9-12.8-3.7992-15.5-9.1992-1.8-3.6-1.8994-7.6001-2.3994-81.8-0.6-87.9-5e-4 -81.501-8.5005-89.401-4-3.6875-9.0151-5.773-14.216-6.0864zm-782.48 0.0366c-3.625 0.15-7.2993 0.94964-10.299 2.3496-5.4 2.5-10.001 7.1003-12.201 12.3-1 2.4-1.2993 9.3004-1.2993 26.9 0 18.5-0.29971 23.501-1.1997 23.101-14.9-6.6-24.701-8.7012-39.501-8.7012-5.9 0-13.7 0.70039-17.3 1.4004-35.9 7.6-65.3 38.2-71 73.9-1.7 10.1-0.70049 26.9 1.9995 36.5 7 24.7 25.901 46.9 49.301 57.7 13.4 6.2 21.5 7.8999 36.7 7.8999 15.8 0 23.3-1.4993 35.6-7.2993 25.1-11.8 41.699-30.4 50.499-56.6l2.4009-7.0005 0.29883-72.7c0.3-70.5 0.20078-72.9-1.6992-76.5-2.5-4.9-7.6003-9.7997-12.3-11.7-2.8-1.2-6.3755-1.6998-10-1.5498zm71.988 0.89649c-4.0326 0.0699-8.2682 0.9668-11.587 2.6543-14.1 7-17.8 26.1-7.4004 37.6 5 5.6 10.199 7.8003 18.199 7.8003 8.1 0 13.401-2.2999 18.101-7.8999 10.7-12.4 6.0992-32.501-8.8008-38.801-2.3625-0.96248-5.3757-1.4079-8.5122-1.3535zm266.01 0.15381c-2.9 0-6.7997 0.59931-8.6997 1.2993-4.8 1.7-10.801 7.1004-13.301 11.9-2.4 4.8-2.7998 15.1-0.7998 20.2 3.5 9.1 12.1 14.5 22.8 14.5 7.8 0 11.899-1.7005 17.099-7.0005 14.7-15.2 3.8008-41.2-17.099-40.9zm-657.28 26.962c-2.225 0.0375-4.7245 0.98743-7.6245 2.8374-8.3 5.2-15 18.501-15.3 30.101-0.1 4.9 0.40029 7.2999 1.8003 9.3999 1.8 2.9 1.8999 2.9002 9.3999 2.2002l7.5-0.60059 4.1001 4.2993c5.5 5.7 6.5989 9.9008 5.8989 22.301-0.7 13 3.9e-4 16.6 4.4004 21.4 5.7 6.4 14.1 7.7006 22.8 3.6006 5.7-2.6 9.8994-7.0011 12.899-13.601 1.6-3.5 2.0006-6.5992 2.1006-14.099 0-8.9-0.2-9.9005-3-14.5-4.5-7.2-7.8005-8.6003-19-7.8003-8.8 0.6-9.1992 0.60049-12.199-1.9995-5.1-4.3-7.7009-10.699-6.9009-17.399 0.3-3.1 0.90118-9.1012 1.2012-13.201 0.6-7.2 0.49941-7.5993-2.1006-10.299-1.8-1.8-3.7501-2.6757-5.9751-2.6382zm965.3 28.075c-7.325 0.0375-14.674 0.56299-19.324 1.563-9 1.9-18.2 5.4992-26.9 10.699-8.3 4.9-22.7 18.801-28.1 27.101-16.1 24.7-19.2 57-7.8999 83.7 8.2 19.6 27.5 39.2 46.9 47.7 22.6 9.9 52.8 9.1004 75-1.9995l4.4004-2.2002 2.6997 3.1992c5.8 7 17.401 9.9006 26.101 6.6006 2.6-1 6.5989-3.5997 8.8989-5.6997 7.6-7 7.5997-6.7006 7.1997-55.4-0.4-40.3-0.5986-43.3-2.5986-49.9-10.1-33.3-35.301-57.3-67.201-64-4.55-0.95-11.85-1.3998-19.175-1.3623zm-575.33 0.83349c-2.375 0.0547-4.7446 0.45401-6.9946 1.229-3.2 1.1-9.0998 5.2003-11.3 7.8003-0.7 0.8-2.1992 3.3005-3.1992 5.5005-1.9 3.8-2.001 6.9998-2.001 73.6 0 74.6-0.099 73.8 5.001 81 1.2 1.6 4.1998 4.1001 6.7998 5.6001 6.3 3.7 17.4 3.9991 23.9 0.59912 5-2.7 9.9998-8.5993 11.3-13.299 0.6-2.1 0.99902-30.901 0.99902-72.601 0-75.8 0.2-73.6-6-81.4-4.2-5.25-11.38-8.1929-18.505-8.0288zm267.49 0.12891c-3.4625 0-6.9374 0.60029-9.5874 1.8003-6.1 2.8-11.1 7.6994-13.1 12.899-1.7 4.4-1.8003 9.5014-1.8003 74.701v69.999l2.2998 4.7007c10.1 20.4 40.601 17.199 45.201-4.7007 0.7-3.4 0.9998-27.4 0.7998-73.1-0.3-75.1-8.8e-4 -70.999-6.9009-78.899-1.9-2.1-5.1989-4.6001-7.3989-5.6001-2.6-1.2-6.0502-1.8003-9.5127-1.8003zm-135.28 2.228c-5.4808 0.0129-10.6 0.35976-14.313 1.0723-9.4 1.8-13.499 3.2004-21.899 7.4004-22.3 11.1-38.899 30.2-46.299 53.2-3.6 11.3-4.5008 18.299-3.9009 31.299 0.6 14.6 2.7006 22.201 9.6006 36.201 8.9 17.8 22.5 31.199 40.6 39.999 12.1 5.8 19.6 7.6002 34.9 8.2002 14.8 0.7 23.1-0.5003 35-4.8003 4.4-1.6 8.1013-2.8989 8.3013-2.8989s0.29883 4.699 0.29883 10.399c0 12.3-2.099 20.401-7.3989 28.201-8.9 13.1-23.3 19.4-39.7 17.3-7.9-1-14.101-3.6005-19.701-8.5005-6.1-5.2-11.699-7.4004-18.999-7.4004-7.6 0-12.4 1.8998-17.6 6.7998-6.9 6.7-9.301 15.7-6.501 25.5 2.1 7.5 14.201 18.001 29.401 25.301 12.5 6.1 18.8 7.5006 34.5 8.1006 11 0.4 15.3 0.1 23-1.5 40.4-8.4 67.8-37.501 73-77.5 0.6-4.5 0.49892-38.9-0.10108-92.2-1.2-93.9-0.89925-90.101-7.6992-97-5.7-5.7-8.7002-6.999-17.2-6.999-6.4 0-8.2007 0.39971-12.201 2.6997-2.5 1.5-5.4995 3.9994-6.4995 5.3994l-1.9995 2.6997-6.6006-3.1992c-3.6-1.7-10.099-4.1002-14.399-5.2002-6.3125-1.6875-16.453-2.5938-25.588-2.5723zm-436.92 16.822c-2.3875 0-4.7379 0.45059-7.5879 1.3506-2.4 0.7-5.9992 2.4994-8.0991 3.8994-7.6 5.3-10.1 11.2-10.1 23.7 0 4.1-0.7 9.801-1.5 12.501-1.9 6.3-7.3002 13.599-12.7 17.099-3.9 2.6-4.7997 2.8005-13.2 2.5005-11.5-0.3-15.7 1.7003-19.5 9.3003-2.3 4.3-2.6001 6.2-2.6001 15 0 8.5 0.39941 10.699 2.3994 14.499 5.1 9.8 12 14.4 21.8 14.5 5.2 0 6.7004-0.4 10.4-3 7.3-5.1 8.3004-7.8997 8.9004-24.1 0.5-13.6 0.59951-14.2 3.4995-18.3 3.4-4.9 9.8003-10.5 13.8-12 1.6-0.6 7.3994-1.1001 12.899-1.1001 12.1 0 17.1-1.9002 21.7-8.2002 4.7-6.4 6.4004-12.8 5.9004-21.8-0.4-6-0.99961-8.7003-3.0996-12.3-3.5-6-9.0011-10.399-15.101-12.199-3-0.9-5.4245-1.3506-7.812-1.3506zm878.95 28c2.0125-0.05 4.0116 0.24961 7.1616 0.84961 12.7 2.4 24.201 11.401 30.201 23.5 3.1 6.4 3.3999 7.7 3.3999 16.5 0 8.6-0.2996 10.1-3.0996 16.1-12.4 26.2-44.2 31.999-64.4 11.799-2.8-2.8-6.4998-7.8002-8.2998-11.2-3-5.8-3.2007-6.7993-3.2007-16.699 0-9.5 0.3008-11.001 2.8008-16.201 5.7-11.5 16.6-20.599 28.2-23.399 3.2-0.8 5.2253-1.1995 7.2378-1.2495zm-711.61 0.33399c5.3391-0.14063 11.62 0.81621 16.27 2.6162 15.3 6.1 25.6 20.799 25.8 36.999 0.1 9-2.6002 17-8.2002 24.3-12 15.8-31.2 20.9-48.3 12.8-8.4-3.9-16.3-11.599-20.3-19.699-2.6-5.5-2.9004-6.9-2.9004-16.5s0.30039-11 2.9004-16.5c5.6-11.4 17.701-21 29.801-23.5 1.475-0.3 3.1495-0.46877 4.9292-0.51562zm273.28 3.6035c5.3125 0.1625 10.687 1.2128 14.887 3.1128 7.9 3.7 16 11.599 20 19.699 3 6.1 3.2007 7.2996 3.2007 16.6 0 9.6-0.19984 10.401-3.7998 17.701-6.1 12.4-17.301 20.7-30.601 22.9-16.2 2.6-33.699-7.5008-41.399-23.801-2.9-6.2-3.2007-7.6994-3.2007-16.299 0-8.2 0.40121-10.301 2.7012-15.201 2.7-5.8 9.7993-14.2 15.199-18.1 1.6-1.1 5.4005-3.1004 8.5005-4.4004 3.95-1.65 9.1997-2.3744 14.512-2.2119zm-444.35 105.78c-3.5402 0.0525-6.9316 0.78721-9.8628 2.231-8.3 4.1-10.7 10.601-9.0996 24.201 1 7.9 0.90058 9.0995-0.89942 12.5-1 2-3.8003 5.2001-6.3003 7.1001-4.1 3.1-4.7009 3.2997-9.9009 2.6997-17.4-2-17.499-1.9991-19.799 0.90088-3 3.8-3.0011 12.199-0.10107 18.199 3.1 6.4 11.201 14.8 17.101 17.7 6.8 3.4 15.299 3.5999 19.299 0.39991 2.7-2.1 2.701-2.2992 2.001-9.1992-1.7-14.5-1.4-16.1 3-20.7 5.9-6.2 8.9997-7.2008 17.7-5.8008 9.4 1.5 17.1 0.79968 20.6-1.8003 4.9-3.6 7.5996-9.8994 7.5996-17.799 0.1-12-6.2001-21.7-17.6-27.5-4.3875-2.1375-9.1857-3.1993-13.737-3.1318zm850.81 41.124c-1.3769-9e-3 -2.6525 0.24466-3.4775 0.80712-3.3 2.1-3.3999 5.0009-3.3999 70.701v65.6l2.5005 2.3994c2.9 3 6.3991 3.2006 9.5991 0.60059l2.4009-1.8999 0.4995-30.401 0.4995-30.299 2.9004-6c3.8-7.7 11.4-15.3 19.1-19.1 5.4-2.6 7.0005-2.9004 16-2.9004 8.8 0 10.7 0.29971 15.7 2.6997 8 3.7 15.199 10.7 19.099 18.7l3.2007 6.4995 0.4995 30.4 0.501 30.401 2.3994 1.8999c3 2.5 6.1995 2.3993 9.4995-0.20069l2.6001-1.9995v-28.8c0-22.3-0.3-30-1.5-34.5-6.2-23.7-27.799-40.6-51.999-40.6-12.1 0-25.4 4.9002-34.5 12.7l-4.0005 3.4995v-23.101c0-21.8-0.1-23.2-1.9995-25.1-1.25-1.25-3.8281-1.9922-6.1231-2.0068zm-206.78 0.00732c-2.6 0-4.3997 0.70059-5.6997 2.1006-1.7 1.9-1.9002 4.0996-2.2002 26l-0.3003 23.9-6.7002-5.2002c-3.7-2.8-9.2996-6.3999-12.5-7.8999-34-16.1-75 13.7-72.4 52.6 1.6 22.7 17.599 42.3 39.199 48 7.4 1.9 21.3 1.9 28.4 0 18.7-4.9 34.2-21 38-39.3 0.7-3.4 1.1001-21.399 1.1001-50.499 0-51 0.20055-49.701-6.8994-49.701zm-632.46 20.071c-3.4142-8e-3 -6.6152 0.57815-9.2402 1.8281-11.1 5.1-12.7 18-3.7998 29.6 4.2 5.6 9.6994 8.2009 20.399 9.9009 11.4 1.7 13.4 2.3992 21.1 7.6992 7.3 4.9 9.5008 8.2009 10.301 15.901 0.6 5.3 1.0996 6.2988 4.5996 9.2988 11.3 9.6 36 9.4004 42-0.49952 2.6-4.2 2.4993-6.2993-0.20068-11.799-3.7-7.3-9.1996-10-23-11.2-14.3-1.3-18.499-2.8004-25.299-8.9004-5.9-5.5-6.9999-8.0996-7.8999-18.1-0.6-8-2.2012-11.3-7.2012-15.8-5.7062-5.0188-14.248-7.9117-21.759-7.9292zm132.9 5.4595c-1.548 0.0416-3.1031 0.19375-4.6406 0.46875-9.7 1.7-19.2 8.7011-22.5 16.601-3.7 8.8-0.10009 19.4 7.8999 23.3 3.7 1.8 6.2014 2.0991 16.901 2.0991 11.8 0 12.899 0.2012 17.799 2.7012 2.9 1.6 6.1993 3.999 7.2993 5.499 1.8 2.4 1.9008 3.2006 0.90088 6.6006-3.2 10.7-0.50017 14.2 11.3 14.2 7.8 0 15.8-2.6 23.2-7.5 6.5-4.3 9.3003-8.5998 9.3003-14.3 0-7.6-5.5998-10.301-17.3-8.3013-10.5 1.8-14.8 1.5012-19.8-1.7988-6.6-4.2-8.4001-8.4002-7.1001-17.2 0.7-4.5 0.69962-8.1004 0.0996-10.4-2.0125-7.0875-12.524-12.26-23.36-11.969zm524.16 8.4946c-1.975-0.025-3.901 0.57393-5.001 1.7739-1.5 1.6-1.6992 5.3004-1.6992 31.8 0 24.6 0.29961 31 1.5996 35.5 5.2 17.8 18.8 31.2 36.8 36.4 8.4 2.4 22.2 2.2001 30.7-0.3999 16.9-5.3 30.799-19.9 35.399-37.2 1.1-4.1 1.5-12.601 1.5-35.101 0-29.6-2e-4 -29.7-2.2002-31.2-2.9-2-6.6991-2-9.5991 0-2.2 1.5-2.2002 1.8004-2.2002 27.3 0 14.2-0.5001 28.399-1.1001 31.699-2.3 12.7-10.399 22.901-22.699 28.701-5.9 2.8-7.7007 3.1996-15.201 3.0996-10.9 0-17.9-2.5996-25.4-9.4995-12.1-11.1-13.6-16.7-13.6-52.1 0-25.5-0.09951-26.9-1.9995-28.8-1.3-1.3-3.3248-1.9496-5.2998-1.9746zm160.02 0.0498c-3.4-0.075-7.525 0.4249-11.625 1.5249-17.8 4.8-32.899 20-37.699 37.9-1 3.6-1.4004 13.1-1.4004 34.6 0 28.4 0.1 29.7 1.9995 31.4 1.1 1 3.401 1.8003 5.001 1.8003s3.8995-0.80029 4.9995-1.8003c1.9-1.7 1.9995-3.0002 1.9995-28.1 0-15.7 0.5001-28.4 1.1001-31.6 1.6-7.6 5.401-14.4 11.001-19.9 6.1-6 13.6-9.501 23-11.001 4.1-0.6 8.1992-1.7997 9.1992-2.6997 2.3-2.1 2.2012-7.6997-0.2988-10.2-1.2-1.2-3.8759-1.8498-7.2759-1.9248zm281.91 0.0366c-3.2563-6e-3 -6.5383 0.41259-9.7383 1.2876-10.6 2.8-20 11.201-24.1 21.501-2.1 5.4-2.2001 7.0992-2.6001 41.499-0.3 25.8-2e-4 36.6 0.7998 38.6 2 4.9 9.3002 5.9003 12.7 1.8003 0.9-0.99996 1.3-12 1.5-37.8l0.3003-36.5 2.7993-4.8003c6.9-11.8 22.2-14.3 32.5-5.2998 6.9 6.1 7.5995 9.2997 7.9995 34.6 0.3 18.7 0.5999 22.801 1.8999 24.201 2.2 2.4 7.8008 2.2993 10.301-0.20069 1.9-1.9 1.9995-3.2995 1.9995-23.399 0-16 0.4004-22.4 1.4004-25.4 4.5-12.6 17.6-18.599 29.2-13.299 5.3 2.4 10.899 9.1001 12.299 14.6 0.7 2.8 1.1001 16.9 1.1001 38.3 0 32.7 0.101 34 2.001 35.7 2.6 2.3 7.399 2.3 9.999 0 1.9-1.8 2.001-3.0001 2.001-39.4 0-36.9-0.1-37.7-2.2998-43.2-3.1-7.4-6.8005-12.001-13-16.301-14.3-9.7-32.8-8.3993-45.8 3.2007l-4.6011 4.1001-2.8989-3.1011c-6.45-6.825-15.994-10.669-25.762-10.688zm-100.03 0.0762c-2.3375 0.0125-4.663 0.3126-8.313 0.9126-26.4 4.4-45.3 26.5-45.3 52.9 0 15.9 5.3004 28.4 16.4 38.7 10.5 9.8 21.701 14.3 36.201 14.3 13.2 0 23.899-4.1996 34.299-13.6l5.1006-4.6011v7.2012c0 6.2 0.299 7.3995 2.499 9.4995 3.1 3.2 6.9005 3.2 10 0l2.5005-2.3994v-26.801c0-19.1-0.4004-28.7-1.4004-33.4-4.4-20.5-23.4-38.7-43.6-41.9-3.7-0.55-6.0502-0.82402-8.3877-0.81152zm-1.0327 15.108c3.2515-3e-3 6.5699 0.42871 9.9199 1.3037 21 5.4 33.8 27 28 47-2.3 8.1-5.7011 13.501-12.101 19.301-7.5 6.9-14.5 9.4991-25.5 9.5991-7.9 0-9.1001-0.29984-16.1-3.7998-24.4-12-29.699-42.9-10.699-61.9 7.575-7.575 16.725-11.494 26.48-11.503zm-410.9 0.0366c3.479 0.0731 7.0099 0.61699 10.516 1.667 6.7 2 15.4 8.7007 19.8 15.201 10.8 16.2 9.0988 35.799-4.2012 49.099-19.1 19.1-50.499 13.401-62.099-11.099-2.9-6.1-3.2007-7.5998-3.2007-16.2s0.30108-10.101 3.1011-16c6.9062-14.462 21.008-22.984 36.083-22.667zm-576.58 50.667c-4 0-6.099 0.39941-5.499 0.89941 2.1 2.2 35 12.8 36.1 11.7 0.2-0.2-0.59991-1.6-1.8999-3-3.4-4-20.301-9.5991-28.701-9.5991z" fill="#007e9e"/>
  <path d="m418.88 64c-4.35-0.05-7.0244 0.34971-7.2744 1.1997-0.3 0.7-0.70049 2.5005-1.0005 4.0005-1.3 5.8-10.7 9.3989-27 10.399-9.9 0.6-12.6 1.1003-16.9 3.3003-6.6 3.4-9.2007 7.0006-9.2007 12.601 0 9 9.1999 13.999 24.4 13.299 6.9-0.3 9.9013-0.99961 14.301-3.0996 7.1-3.5 9.0992-6.3995 9.1992-14 0.2-5.3 0.5-6.2002 3-8.2002 5.5-4.4 12.201-5.6999 25.301-4.8999 10.2 0.6 12.5 0.39951 15.5-1.0005 4.4-2.1 5.3003-4.0997 3.3003-7.1997-1.8-2.8-2.3008-2.8999-16.301-4.8999-6.95-0.95-12.975-1.45-17.325-1.5zm39.825 5.7993 2.2998 3.2007c4.1 5.8 20.201 12 31.201 12 6.9 0 8.1996-1.4006 3.0996-3.6006-5.3-2.2-29.101-10.1-33.201-10.9zm-111.35 0.18018c-1.4838 0.07712-4.5952 0.99551-11.345 3.0205-16.7 4.9-26 8.5994-29 11.399-4 3.8-11.9 8.3002-22.5 12.7-11.1 4.6-14 6.4003-20.3 12.3-7.5 7-9.1007 12.299-4.7007 15.199 3.3 2.2 9.5002 1.1999 17.2-2.6001 9-4.5 12.7-8.2 16.8-16.5 5.6-11.3 13.5-16.5 31.6-20.6 15.1-3.4 24.5-8.8992 23.7-13.699-0.13125-0.83125-0.30051-1.2802-1.4546-1.2202zm134.98 18.032c-3.5 0.0125-6.0242 0.68779-7.3242 1.9878-4.8 4.8-0.80097 14.701 8.499 21.201 8.6 5.9 26.101 8.8987 31.301 5.1987 2.7-1.9 2.8995-6.5995 0.49951-12.5-1.6-4-1.4993-4.2005 0.20069-5.5005 2.6-1.9 4.699-1.7995 11.499 1.0005 3.3 1.4 6 2.3006 6 2.1006 0-0.4-12.499-7.8004-17.799-10.4-2.8-1.4-4.8005-1.9008-5.5005-1.3008-2.6 2-6.8002 2.1007-14.2 0.20068-5.2-1.35-9.6748-2.0003-13.175-1.9878zm47.914 17.008c-1.8205 0.0451-3.2886 0.4292-4.0386 1.1792-3.1 3.1-0.70039 10.2 6.0996 17.5 4.6 5 8.3008 7.0993 17.801 10.299 7.7 2.6 14.8 7.5998 20 14.3l3.9009 4.9014v-4.7007c0-4.1-0.50049-5.3003-4.0005-9.3003-2.3-2.5-6.1993-8.1995-8.7993-12.5-5.1-8.5-11.7-14.7-20.6-19.2-3.3125-1.6875-7.3281-2.5552-10.362-2.48zm-98.943 17.166c-3.4225 0.0316-6.5578 0.42539-8.6953 1.2129-9.7 3.6-12.601 8.3002-12.601 20.2 0 7.6-0.19922 8.5005-3.1992 13-1.8 2.7-5.8996 6.6989-9.0996 8.8989l-5.9004 4.0005-13.6 0.49951c-15.4 0.6-17.6 1.301-23.6 8.001-5.1 5.7-6.9009 10.3-6.9009 18 0 14.7 11.201 25.9 26.401 26.3 8.2 0.2 14.199-1.6004 20.099-5.9004 7.3-5.2 9.0999-9.6996 9.3999-22.6 0.3-12.3 1.1999-14.7 7.8999-20.6 8-7 10.3-7.7007 25.5-7.7007 12.3 0 13.8-0.19981 17.2-2.2998 4.7-2.9 8.8008-10.899 8.8008-17.099-0.1-8.9-5.901-17.001-15.501-21.201-4-1.8125-10.5-2.7656-16.204-2.7129zm-116.3 3.9126c-3.6 0-8.3 0.70107-10.5 1.6011-10.9 4.4-16.8 11.499-18.1 21.299-0.9 7.7-3.5 13.1-9 19.1-6.2 6.5-11.5 9.5004-18.4 10.4-13.1 1.6-18.901 5.4993-24.201 16.299-2.8 5.6-3.3003 7.8007-3.3003 13.701 0 11.2 4.8998 17.3 14.3 18.3 10.1 0.9 22.101-6.1 25.701-15 0.9-2.3 2.0997-8.2997 2.6997-13.2 1.2-10.8 2.4002-13.3 9.7002-20.6 7.4-7.4 11.301-9.1005 23.101-10 14.1-1.1 20.4-4.9995 25.1-15.5 6.7-14.8-0.90061-26.601-17.101-26.401zm-10.162 184.39c-2.2852-0.0621-4.4502 0.0973-6.1377 0.50976-5.8 1.5-8.9 3.3998-13.5 8.2998-11.6 12.7-8.2012 36.8 6.2988 44.5 1.8 0.9 7.1003 1.7998 13.8 2.2998 12.8 0.9 16.4 2.6004 25 11.9 6.6 7.1 7.6992 10.2 7.6992 22.5 0 11 2.2008 16.201 8.8008 21.201 13 9.8 32.899 7.5993 41.799-4.7007 9-12.3 5.7006-30.599-6.8994-38.399-4.5-2.8-5.8005-3.0006-17.5-3.6006-14.6-0.7-17-1.5996-24.3-9.0996-7.4-7.6-9.1-12-9-23.7 0.1-13.3-1.6-18.701-7.5-24.201-2.5-2.3-5.9988-4.8005-7.7988-5.5005-2.8125-1.1875-6.9536-1.9062-10.762-2.0098zm-96.595 106.75c-1.4484 0.0322-2.6435 0.52002-3.5434 1.4575-2.5 2.9-2.1008 7.0993 1.6992 14.799 4.4 9.1 10.2 15.599 18.4 20.399 8.4 4.9 19.001 15.8 23.001 23.6 3 6 6.1003 9.4003 13.8 15.3 8.2 6.3 18.099 9.1 21.199 6 5.4-5.4-6.7004-22.1-19.4-26.7-3.2-1.2-7.7997-2.8002-10.2-3.7002-4.9-1.8-15.299-11.799-18.199-17.399-1-2-2.4011-5.9001-3.1011-8.6001-2.2-9.2-7.099-16.401-14.499-21.501-3.625-2.5-6.7427-3.71-9.1567-3.6562zm354.68 16.827c-3.0588-0.0496-6.67 0.50538-9.4263 1.6304-7 2.8-12.2 7.1004-16.4 13.4-6 9-7.3996 15.399-4.5996 20.799 2.4 4.7 6.7005 5.3006 16 2.1006 3.2-1.1 6.6-2.001 7.5-2.001 1 0 2.8993 0.90098 4.2993 2.001 1.4 1.1 2.9995 1.9995 3.4995 1.9995 2.3 0 4.7004-12.1 5.9004-28.9 0.4-7.4 0.30068-8.5998-1.2993-9.7998-1.05-0.7875-3.095-1.1918-5.4741-1.2305zm-132.68 62.042c-4.7 0.0875-9.2999 0.58828-11.65 1.4883-9.7 3.5-12.599 6.9999-12.599 15.4 0 5.7-1.4002 7.6002-8.2002 11.2-4 2.1-5.401 2.1995-18.501 1.9995-17-0.3-21.299 0.8001-21.299 5.6001 0 2.3 0.49941 3.1006 2.3994 3.6006 4.6 1.1 28.1 3.5991 34.4 3.5991 6 0 6.2992-0.0998 6.1992-2.2998-0.4-4.3 3e-4 -4.8003 6.3003-7.8003 5.4-2.5 8.3001-3.0994 19.1-3.8994 14-1.1 19.2-2.7003 23.9-7.8003 1.8-1.9 3.0999-4.5001 3.3999-7.1001 0.49999-3.7 0.1997-4.3995-3.3003-7.9995-2.3-2.2-5.6999-4.3995-7.8999-4.9995-2.75-0.75-7.5505-1.0763-12.25-0.98877z" fill="#5c802d"/>
  <path d="m252.71 117.83c-0.66724-0.11499-4.8384 3.0557-9.7134 7.3682-10.4 9.2-20.9 20.799-19 20.799 0.7 0 3.7002-1.3996 6.7002-3.0996 5.1-2.9 5.5003-3 7.8003-1.5 3 2 3.0995 4.3996 0.49951 12.1-4.3 12.5-1.4992 18.1 8.8008 17.9 7 0 12.5-2.7006 19.8-9.6006 6.9-6.5 10.399-13.499 10.399-20.499 0-4.4-0.49902-5.9003-2.499-7.8003-3-3.1-5.8999-3.1003-15.4-0.30029-6.6 2-7.6005 2.0002-10 0.70019-3.7-2.1-3.6996-4.2994-0.0996-9.8994 1.8-2.7 2.9993-5.5011 2.7993-6.1011-0.0125-0.0375-0.0419-0.0597-0.0864-0.0674zm-26.42 32.259c-1.718-0.0742-3.7368 0.49658-5.8931 1.8091-6.6 4-11.201 10.9-20.401 30.5-1.8 3.7-5.4998 9.8-8.2998 13.5-6.7 8.8-11.299 19.2-17.099 38.9-1.3 4.5-1.3011 5.4008-0.10108 5.8008 4.5 1.8 10.701-7.7002 14.101-21.7 4.4-17.7 11.8-28.9 21.5-32.3 9.5-3.2 19.5-16.2 21.4-27.7 0.89375-5.3625-1.4264-8.6463-5.206-8.8096zm-26.531 98.06c-1.5625-0.075-3.2128 0.34951-5.3628 1.2495-3.6 1.6-7.5988 6.6001-9.2988 11.6-0.7 1.9-1.6002 8.1003-2.2002 13.8-1.6 16.7-6.0999 26.2-12.4 26.2-5.3 0-5.7 1.8002-4.5 17.2 1.8 22.5 2.8997 25.699 8.6997 25.799 1.5 0 2.8005-1.0988 4.0005-3.2988 1.5-2.7 1.7996-5.3009 1.5996-15.901-0.2-10.8 3e-4 -13.599 1.8003-18.199 2.9-7.9 6.4999-10.601 13.9-10.601 5.4 0 6.1999-0.2999 9.3999-3.3999 4.8-4.8 7.1001-12.2 7.1001-22.6 0-10-2.6999-16.901-7.8999-20.101-1.8-1.1-3.2759-1.674-4.8384-1.749zm-25.528 0.95068c-0.73946 0.0111-1.5592 0.38614-2.5342 1.0986-1.2 1-2.2002 5.3009-3.7002 15.901-2.4 16.8-2.3993 25.199 0.20068 25.699 2.4 0.5 5.4999-3.4002 7.8999-9.7002 3-7.9 3.8-25.399 1.5-29.899-1.125-2.125-2.1338-3.1182-3.3662-3.0996zm24.28 58.887c-2.3578-0.099-4.5885 0.4128-6.3135 1.6128-1.2 0.8-3.2 3.3997-4.5 5.6997-1.9 3.6-2.2002 5.6997-2.2002 14.7 0 9.5 0.29932 10.999 2.7993 16.299 3.2 6.4 5.3006 7.9002 14.101 9.7002 11.2 2.3 18.8 13.201 21.3 30.501 0.7 5.5 2.2999 11.9 3.3999 14.2 2.3 4.8 8.6 10.899 13.5 12.899 4.9 2.1 12.999 1.7994 16.799-0.60059 8.2-5 10.501-18.8 5.1006-30.8-4.7-10.6-10.8-14.699-23.7-15.899-6.8-0.6-7.5008-0.8999-11.801-4.8999-2.6-2.4-5.9-6.7006-7.5-9.6006-2.5-4.5-2.8995-6.5998-3.4995-17.3-0.8-12.5-1.9999-16.5-6.3999-21.3-2.875-3.1875-7.1563-5.0469-11.086-5.2119zm-27.448 42.617c-0.72188-0.0422-0.51533 1.1953 0.53467 5.6953 2 8.9 10.499 34.701 11.499 34.701 0.4 0 1.1-1.601 1.5-3.501 2-10.8-5.4995-32.7-12.5-36.5-0.45-0.225-0.79356-0.38145-1.0342-0.39551zm23.978 13.501c-1.8188 0-2.7943 0.61933-4.4443 2.1943-3.1 3.1-3.4001 8.6992-1.1001 18.199 2 8.4 1.9001 13.1-0.3999 15.4-1.8 1.8-1.7999 2.1012 4.1001 13.201 5.5 10.5 9.4008 16.499 7.3008 11.399-3.7-9.2-4.8002-13.7-3.7002-16 1.3-2.9 4.3002-3.199 8.2002-0.99902 1.4 0.8 3.9001 1.4 5.6001 1.5 4.7 0 6.6997-2.9004 7.1997-10.4 1-15.2-9.6001-32.801-20.6-34.301-0.85-0.125-1.55-0.19336-2.1562-0.19336zm350.83 115.01c-2.3-0.0625-4.926 0.18809-6.876 0.78809-10.2 3.2-19 10.2-22.9 18.5-1.7 3.5-4.5003 7.7995-6.3003 9.4995-5.4 5-15.5 9.8009-24.5 11.401-9.3 1.8-19.6 6.3001-23.2 10.1-3.5 3.7-1.7003 3.4991 16.2-2.4009 23.9-7.9 51.6-22.399 68.5-35.899 5.4-4.3 6.8005-8.0999 4.0005-10.9-0.65-0.65-2.6248-1.0259-4.9248-1.0884zm-243.03 8.1694c-3.0768 0.0369-5.6599 0.43125-7.0474 1.2188-3.4 1.9-3.7001 5.5988-1.1001 12.299 1.6 4.3 1.5993 4.5008-0.20069 5.8008-2.5 1.8-5.6993 1.7993-10.299-0.20069-5.7-2.3-2.6002-0.1997 6.7998 4.8003 8.2 4.4 8.5993 4.4996 11.799 3.0996 3.1-1.2 4.2005-1.1987 11.5 0.80127 15.7 4.1 22.701 2.4998 22.701-5.2002 0-2.2-0.7-5.2998-1.5-6.7998-2.3-4.5-10.2-10.801-16.4-13.201-4.625-1.75-11.125-2.6792-16.252-2.6177zm133.15 41.918c-6.3 0-11.4 0.60068-15 1.7007-8.5 2.7-11.9 4.9-12 7.5 0 1.2 16.3 0.0994 30.8-2.1006 10.3-1.5 11.3-1.8002 11-3.7002-0.39999-2.7-3.3993-3.3999-14.799-3.3999z" fill="#003063"/>
 </g>
</svg>
