<?xml version="1.0" encoding="UTF-8"?>
<svg version="1.1" viewBox="0 0 24 24" xmlns="http://www.w3.org/2000/svg">
 <title>Durham University Esports and Gaming</title>
 <path fill="#68246d" d="m12 0.028436c-2.2084 8.531e-5 -6.1455 0.52543-8.101 1.6545-0.018242 0.010533-1.567 0.90471-1.567 0.90471v9.1549c5.7e-6 3.2132 2.096 5.1679 2.096 5.1679l7.5721 7.0611 7.5721-7.0611s2.096-1.9546 2.096-5.1679v-9.1549s-1.5488-0.89419-1.567-0.90471c-1.9556-1.1291-5.8927-1.6544-8.101-1.6545zm-0.54028 2.3463v2.818c0 1.1595-0.59286 2.1545-1.4482 2.9522l-5.1642 4.8156c-0.16293-0.6832-0.18372-1.2181-0.18372-1.2181v-7.8084c0.068405-0.039492 0.39719-0.22931 0.40114-0.23159 1.3801-0.7968 4.3495-1.2562 6.3949-1.3275zm1.0806 5.68e-5c0.49944 0.017424 1.0467 0.058572 1.6208 0.12196v2.696c0 0.5725 0.30955 1.1856 0.93278 1.7667l4.2426 3.9563v0.82668s-0.02079 0.53493-0.18372 1.2181l-5.1642-4.8156c-0.85537-0.79765-1.4482-1.7926-1.4482-2.9522v-2.818zm5.1753 0.81935c0.47274 0.15059 0.89282 0.31945 1.2196 0.50812 4e-3 0.00229 0.33281 0.19215 0.4012 0.23165v6.0486l-1.6208-1.5114v-5.2771zm-7.8767 0.93232c-1.3362 0.15515-2.698 0.42981-3.5545 0.7836v4.4943l2.6217-2.4448c0.62322-0.58117 0.93278-1.1942 0.93278-1.7667v-1.0663zm1.6208 4.2568v2.2164l-5.1901 4.8398-0.25153-0.2346c-0.32024-0.29863-0.56493-0.66485-0.75198-1.046l6.1936-5.7756zm1.0806 0 6.1936 5.7756c-0.18705 0.38115-0.43177 0.74732-0.75198 1.0459l-0.25153 0.2346-3.5692-3.3284v4.4402l0.90994-0.84852v-1.8101l2.159 2.0132-4.6896 4.3731v-11.896zm-1.0806 3.1495v2.2162l-2.313 2.1569 0.69218 0.64546v-0.35784l1.6208-1.5114v5.597l-4.6896-4.3731 4.6896-4.3731z" />
</svg>
