<svg version="1.1" width="80" height="80" viewBox="0 0 80 80" xmlns="http://www.w3.org/2000/svg">
  <path d="m36.102 0.0020618a128.76 128.76 0 0 0-25.787 2.578 4.9653 4.9653 0 0 0-3.994 4.1399 108.22 108.22 0 0 0-1.5707 22.213c1.6627-1.5835 16.966-16.477 16.966-16.477l15.948 15.925a250.13 250.13 0 0 0-1.5619-28.378zm7.9527 0a234.91 234.91 0 0 0-1.5619 27.551v4.4005l1.0294 0.10161c0.49766 0 0.68985 0.31528 0.75772 0.81295 0.06786 0.49766 0.13475 1.1311 0.13475 1.1311s18.63-0.13582 30.664-1.7872a116.96 116.96 0 0 0-1.1995-25.493 4.9993 4.9993 0 0 0-4.0493-4.1399 123.83 123.83 0 0 0-25.776-2.578zm-13.246 2.6907c0.23752 0 0.32827 0.40744 0.27171 0.55448a1.4817 1.4817 0 0 0 0.54344-0.13475 0.81436 0.81436 0 0 1-0.3402 0.62076 1.0066 1.0066 0 0 0 0.57657-0.079527 1.493 1.493 0 0 1-0.37334 0.63401 0.95009 0.95009 0 0 1 0.63401 0.6561c-0.22621-0.1018-0.36194 0-0.56553 0a6.119 6.119 0 0 1 0.68924 1.4138 3.0539 3.0539 0 0 0-0.50809-0.24962c0.18097 0.40718-0.07917 0.80349 0 1.0184a1.1311 1.1311 0 0 1-0.35125-0.27171 1.6061 1.6061 0 0 0-0.15684 0.89469 2.3639 2.3639 0 0 0-0.37334-0.27171 1.3686 1.3686 0 0 0-0.24962 0.94991 4.1057 4.1057 0 0 0 0.53239 1.8313 3.7212 3.7212 0 0 1 0.33799 1.0073 0.61077 0.61077 0 0 0 0.58762 0.50809 0.55422 0.55422 0 0 0 0.52135-0.56553c0-0.57684-0.68924-0.93763-0.68924-1.933 0-0.65601 0.49651-0.98429 0.51913-1.4027 0.02262-0.41845-0.32748-0.14625-0.58762-0.3159 0.32801 0 0.52108-0.42 0.81515-0.40868 0.29408 0.01131 0.30459 0.15835 0.3159 0.28276a0.95009 0.95009 0 0 1-0.12372 0.46391 1.2894 1.2894 0 0 0 0.40648-0.8019c0-0.28276-0.3956-0.59946-0.2938-1.1311a0.63339 0.63339 0 0 1 0-0.11266c0.12442 0.61077 0.98305 0.76798 0.98305 1.3674 0 0.59946-0.486 0.45242-0.76877 0.84829 0.30538-0.26014 0.6561-0.20236 0.6561 0.13696h-0.04418c0 0.30538-0.47504 0.48476-0.56553 0.6318a0.48635 0.48635 0 0 0-0.10383 0.18115c-0.06786-0.20359 0-0.36106 0-0.50809 0-0.14704-0.11311-0.23858-0.28276-0.23858a1.1311 1.1311 0 0 0-0.49704 1.5508 0.8596 0.8596 0 0 1 0.14801-0.62296 0.39587 0.39587 0 0 0 0.10161-0.28276 0.97271 0.97271 0 0 1 0.15684 0.53239c0 0.40718-0.29257 0.48547-0.15684 0.79086a2.4431 2.4431 0 0 0 0.09058 0.26067 1.1311 1.1311 0 0 1 0-0.37334c0-0.1018 0.18088-0.28311 0.19219-0.36229a0.45242 0.45242 0 0 0 0-0.24962 0.80305 0.80305 0 0 1 0.21428 0.57878 1.1311 1.1311 0 0 1-0.1701 0.56553 1.018 1.018 0 0 0-0.10161 0.32694c-0.09049 0.67863-0.41823 0.9963-0.85933 0.9963a1.1311 1.1311 0 0 1-0.6561-0.15905c0 0.87091-0.98305 0.80191-0.98305 1.3674a0.75781 0.75781 0 0 0 0.20324 0.45286c0.11311 0.1018 0.50907 0.24927 0.6561 0.45286a0.80305 0.80305 0 0 0-0.56553 0.22533c0.35063 0.18097 0.33914 0.38491 0.38438 0.64505-0.35063-0.16966-0.50818-0.06786-0.59867 0-0.09048 0.06786-4.42e-4 0.26084-0.1701 0.44181 0-0.13573-0.14871-0.26067-0.30706-0.26067a0.76912 0.76912 0 0 0-0.4617 0.36229 0.33932 0.33932 0 0 1-0.3402 0.36229 0.41849 0.41849 0 0 0-0.11266 0.41752c-0.13573-0.13573-0.15791-0.21314-0.11266-0.45066-0.15835-0.06786-0.13582-0.20474-0.09058-0.32916a0.30539 0.30539 0 0 1-0.39763 0.07953 0.45242 0.45242 0 0 0-0.20324 0.3159c0-0.36194 0.0015-0.48494 0.12592-0.53018a0.26014 0.26014 0 0 1 0.15684-0.31811 0.15835 0.15835 0 0 0 0-0.07953 0.29407 0.29407 0 0 1-0.26068-0.12372c-0.1131 0-0.27092 0.12407-0.30485 0.20324a0.5316 0.5316 0 0 1 0.28276-0.45286c0.13573-0.27145 0.3964-0.31519 0.54344-0.15684a0.83698 0.83698 0 0 0 0.49704 0.1701 0.63339 0.63339 0 0 0 0.45286-0.23858 0.58815 0.58815 0 0 0 0.07952-0.13475c0-0.1018 0.13538-0.22781-0.07952-0.49926-0.2149-0.27145-0.58736-0.62049-0.59867-0.91456a1.1311 1.1311 0 0 1 0.42857-0.96316h-0.1701c-0.30539 0-0.3372-0.19219-0.65389-0.19219a0.40718 0.40718 0 0 0-0.36229 0.43077 0.58815 0.58815 0 0 0 0.10161 0.37334 0.56553 0.56553 0 0 1 0.10161 0.45286 0.47504 0.47504 0 0 0-0.64505 0 0.71257 0.71257 0 0 1-0.28276 0.42857 0.44111 0.44111 0 0 0-0.75772-0.1701c0 0.07917-0.06733 0.26068-0.30485 0.26068-0.23752 0-0.13538 0.0014-0.20324-0.05523a0.61077 0.61077 0 0 0-0.2165 0.3159 0.52029 0.52029 0 0 1 0.09058-0.44181c0-0.07917 8.8e-5 -0.29248 0.09058-0.34903v-0.05744a0.35063 0.35063 0 0 1-0.49704 0c-0.09048 0-0.18123 0.07943-0.27171 0.27171a0.63339 0.63339 0 0 1 0.19219-0.58762c0-0.14704 0.20289-0.27278 0.40648-0.22754v-0.07953s-0.25873 2.66e-4 -0.24742-0.2938a0.29407 0.29407 0 0 0-0.31811 0.09058 0.44111 0.44111 0 0 1 0.39764-0.29381c0-0.09049 0.19033-0.10161 0.26951-0.10161a0.26014 0.26014 0 0 1 0.27172 0.15905 0.88222 0.88222 0 0 0 0.80411 0.34903 0.30539 0.30539 0 0 0 0.30485-0.3159c0-0.19228-0.32694-0.73421-0.32694-0.98305a1.018 1.018 0 0 1 0.75772-0.73563c0.91616 0 1.131 0.38438 1.3232 0.38438s0.3281-0.05637 0.37334-0.10161c-0.4298-0.5316-0.70126-0.52135-1.1311-0.80411a0.90484 0.90484 0 0 1-0.3402-0.60971c-0.26014 0.05655-0.50986 0.39481-0.62296 0.60971a0.29407 0.29407 0 0 0-0.24742-0.1701c-0.20359 0-0.35107 0.27305-0.45286 0.49926 0-0.26014-0.21402-0.49926-0.50809-0.49926a0.4298 0.4298 0 0 0-0.39763 0.18115 0.40718 0.40718 0 0 1-0.45066 0.20544c-0.09048 0-0.17072 0.07758-0.23858 0.34903-0.07917-0.33932 0-0.39552 0-0.486a0.36194 0.36194 0 0 1 0.07953-0.36229c-0.13573 0-0.32783-3.54e-4 -0.38438-0.07953-0.05655-0.07917-0.19343 0.0018-0.32916 0.20544a0.57684 0.57684 0 0 1 0.29602-0.45286c0-0.12442 0.22436-0.18115 0.36008-0.18115v-0.06849a0.28276 0.28276 0 0 1-0.1458-0.29381c-0.1131-0.13573-0.2384-0.05655-0.3402 0 0.18097-0.19228 0.38536-0.26032 0.53239-0.18115 0.30539-0.1018 0.4192-6.18e-4 0.44182 0.21428 0.02262 0.2149 0.35046 0.22753 0.66714 0.22753 0.70126 0 1.82-0.65601 1.7408-1.1311a0.84829 0.84829 0 0 0-0.3159 0c-0.37325 0-0.84864 0.47495-1.2106 0.47495 0.18097-0.20359 0.0683-0.41849 0.1701-0.56553a5.0898 5.0898 0 0 1-0.80411 0.07953 0.66732 0.66732 0 0 0 0.22753-0.44181c0-0.1018-0.0012-0.28276-0.41972-0.28276a0.98402 0.98402 0 0 1-0.23637 0c-0.1018 0-0.37334-7.96e-4 -0.37334-0.24962a0.45242 0.45242 0 0 0-0.38438 0.12592 0.71257 0.71257 0 0 1 0.39543-0.36229 0.29407 0.29407 0 0 1 0.23637-0.15905 0.63339 0.63339 0 0 0 0-0.07952c-0.14704 0-0.32722-0.06733-0.3159-0.30485 0.01131-0.23752-0.16922-0.11311-0.39543 0 0.28276-0.20359 0.38447-0.16869 0.47495-0.13475a0.30539 0.30539 0 0 1 0.42857 0v-0.06848a0.35063 0.35063 0 0 1 0-0.35125c0-0.16966-0.07803-0.21349-0.23637-0.24742a0.63339 0.63339 0 0 1 0.54344 0.19219 0.36194 0.36194 0 0 1 0.29382 0.29381c0 0.28276-0.30538 0.48547 0.28276 0.79086a5.5648 5.5648 0 0 0 0.71133 0.27171 4.3206 4.3206 0 0 0 0.71354 0.19219c-0.1018-0.15835-0.0014-0.31634-0.22753-0.486a2.5562 2.5562 0 0 1 0.60087 0.09058c0-0.22621-0.0012-0.2263-0.13696-0.37334h0.41972c0.67863 0.06786 0.69048-0.25944 0.8262-0.68924a1.9567 1.9567 0 0 0-0.9963 0.3159 1.1311 1.1311 0 0 0 0-0.3402 0.22621 0.22621 0 0 1 0.23637-0.23637h0.2165c0.14704 0 0.35116-0.16904 0.26068-0.49704 0-0.00322-2e-3 -0.00567-0.0023-0.00883a3.3932 3.3932 0 0 1-1.3454 0.59645 0.36194 0.36194 0 0 1-0.42857-0.37334c0.09048-0.29407 0.31581-0.39569 0.50809-0.66714-0.07917 0.28276-0.07802 0.64505 0.32916 0.64505a2.9747 2.9747 0 0 0 0.91015-0.30043c-0.05408-0.093312-0.17655-0.14217-0.27834-0.10825-0.13573 0.045242-0.12468 3.535e-4 -0.27171 0.079527a0.27145 0.27145 0 0 0-0.16789 0.24962s-0.0569-0.20465-0.07952-0.23858l-0.07952-0.18115v-0.066273a0.23752 0.23752 0 0 1 0.18115-0.3402l0.42857-0.10162c0.23752-0.067863 0.30601-0.15835 0.35125-0.28276 0.04524-0.12442 0.08995-0.18115 0.30485-0.18115h0.63401c0.32801 0 0.68994-0.26041 0.56553-0.55448zm-1.5883 1.7253c0.01656 0.028575 0.02494 0.063579 0.02651 0.09941a3.3932 3.3932 0 0 0 0.02429-0.015464v-0.10162a2.9747 2.9747 0 0 1-0.05081 0.017673zm0.91678-1.0537a3.0199 3.0199 0 0 0-0.37997 0.030928 0.38456 0.38456 0 0 0 0 0.3159 1.3799 1.3799 0 0 0 0.36229-0.12371c0.1131-0.067864 0.1473-0.12601 0.27171-0.2165a3.0199 3.0199 0 0 0-0.25405-0.00663zm-15.141 0.37997c0.2149 0 0.30618 0.39666 0.24962 0.53239a1.3686 1.3686 0 0 0 0.51913-0.13696 0.80305 0.80305 0 0 1-0.3159 0.60087 0.95009 0.95009 0 0 0 0.55448-0.079527 1.5609 1.5609 0 0 1-0.36229 0.62296 0.88222 0.88222 0 0 1 0.61192 0.62076c-0.22621-0.1018-0.35116 0-0.54344 0a5.7571 5.7571 0 0 1 0.6561 1.3454 4.9427 4.9427 0 0 0-0.486-0.23637c0.16966 0.39587-0.07917 0.77946 0 0.98305a1.0519 1.0519 0 0 1-0.3402-0.27171 1.6513 1.6513 0 0 0-0.1458 0.86155 2.5788 2.5788 0 0 0-0.35125-0.24962 1.2442 1.2442 0 0 0-0.24962 0.90573 4.0492 4.0492 0 0 0 0.5103 1.7629 3.314 3.314 0 0 1 0.32694 0.96096 0.58815 0.58815 0 0 0 0.56553 0.48821 0.5316 0.5316 0 0 0 0.49704-0.54344c0-0.54291-0.66714-0.89425-0.66714-1.8556 0-0.63339 0.48795-0.94946 0.49926-1.3454 0.01131-0.39587-0.30566-0.13547-0.55448-0.29382 0.3167-0.06786 0.49704-0.40674 0.77981-0.39543a0.27145 0.27145 0 0 1 0.30485 0.26951 0.84829 0.84829 0 0 1-0.12372 0.44181 1.1311 1.1311 0 0 0 0.38438-0.76877c0-0.27145-0.37351-0.57684-0.27171-1.1311a0.33932 0.33932 0 0 1 0-0.10161c0.11311 0.57684 0.93887 0.72432 0.93887 1.3012s-0.46417 0.43944-0.73563 0.824c0.35063-0.12442 0.67819-0.06592 0.67819 0.29602 0 0.29408-0.4397 0.46294-0.53018 0.59867-0.09048 0.13573-0.0903 0.10198-0.10162 0.18115v-0.486c0-0.13573-0.11338-0.22754-0.27171-0.22754-0.15835 0-0.85925 0.56615-0.486 1.4822a0.83698 0.83698 0 0 1 0.15684-0.59867 0.4298 0.4298 0 0 0 0.09058-0.27171 0.88222 0.88222 0 0 1 0.14801 0.50809c0 0.38456-0.28374 0.47495-0.14801 0.75772a1.7192 1.7192 0 0 0 0.09057 0.24962 1.4704 1.4704 0 0 1 0-0.35125 3.2574 3.2574 0 0 1 0.19219-0.35125 0.41849 0.41849 0 0 0 0-0.23637 0.7465 0.7465 0 0 1 0.2165 0.55448 1.1311 1.1311 0 0 1-0.1701 0.54344 0.89353 0.89353 0 0 0-0.09057 0.30485c-0.09049 0.65601-0.40771 0.96096-0.8262 0.96096a1.1989 1.1989 0 0 1-0.54344-0.22533c0 0.82567-0.94991 0.75799-0.94991 1.3123a0.70125 0.70125 0 0 0 0.20324 0.42857c0.1018 0.1018 0.48698 0.2498 0.63401 0.43077a0.84829 0.84829 0 0 0-0.55448 0.22533c0.35063 0.16966 0.33914 0.36282 0.38438 0.62296-0.33932-0.16966-0.4974-0.06786-0.57658 0-0.07917 0.06786-0.05699 0.24786-0.1701 0.41752 0-0.13573-0.14704-0.24962-0.28276-0.24962a0.72388 0.72388 0 0 0-0.45066 0.3402 0.3167 0.3167 0 0 1-0.32916 0.35125 0.4298 0.4298 0 0 0-0.11266 0.39543c-0.12442-0.12442-0.14686-0.20456-0.10162-0.43077-0.14704-0.06786-0.13582-0.19175-0.09058-0.30485a0.27145 0.27145 0 0 1-0.37334 0.07953 0.38456 0.38456 0 0 0-0.19219 0.30485c0-0.35063-4.43e-4 -0.46285 0.11266-0.50809a0.24883 0.24883 0 0 1 0.14801-0.30485 0.39587 0.39587 0 0 0 0-0.06849 0.26014 0.26014 0 0 1-0.24962-0.12372 0.32801 0.32801 0 0 0-0.29381 0.19219 0.5316 0.5316 0 0 1 0.27171-0.44181c0.12442-0.24883 0.3721-0.29505 0.51913-0.14801a0.76912 0.76912 0 0 0 0.47495 0.1701 0.6447 0.6447 0 0 0 0.43077-0.22533 0.58815 0.58815 0 0 0 0.07953-0.13696c0-0.1018 0.12406-0.21481-0.07953-0.47495-0.20359-0.26014-0.56527-0.59867-0.57658-0.88143a1.1311 1.1311 0 0 1 0.41752-0.92782h-0.1701c-0.29407 0-0.31537-0.18115-0.62076-0.18115a0.39587 0.39587 0 0 0-0.35125 0.41972 0.54291 0.54291 0 0 0 0.10161 0.34903 0.6447 0.6447 0 0 1 0.10162 0.44181 0.45242 0.45242 0 0 0-0.62076 0 0.68994 0.68994 0 0 1-0.27171 0.40648 0.4298 0.4298 0 0 0-0.72458-0.15684c0 0.07917-0.06733 0.24742-0.30485 0.24742h-0.1922a0.68994 0.68994 0 0 0-0.20324 0.30706 0.49766 0.49766 0 0 1 0.07732-0.41972c0-0.07917 8.9e-5 -0.28365 0.09057-0.3402a0.35063 0.35063 0 0 1-0.486 0c-0.07917 0-0.17019 0.07971-0.26068 0.26068a0.61077 0.61077 0 0 1 0.19441-0.46391c0-0.14704 0.20315-0.25926 0.39543-0.22533 0.19228 0.03393 0-6.19e-4 0-0.06849 0-0.06786-0.25016 0-0.22754-0.28276a0.36194 0.36194 0 0 0-0.3159 0.09057 0.45242 0.45242 0 0 1 0.38438-0.28276c0-0.09048 0.19254-0.10161 0.27171-0.10161a0.23752 0.23752 0 0 1 0.20324-0.04418 0.8596 0.8596 0 0 0 0.77981 0.32694 0.28276 0.28276 0 0 0 0.28276-0.30485c0-0.18097-0.30485-0.70135-0.30485-0.93887a0.97271 0.97271 0 0 1 0.72458-0.70249c0.88222 0 1.1298 0.36229 1.2768 0.36229 0.14704 0 0.31705 1.77e-4 0.36229-0.10161-0.41849-0.50898-0.68994-0.49731-1.1311-0.76877a0.8596 0.8596 0 0 1-0.32694-0.57658c-0.23752 0.05655-0.47646 0.38403-0.60087 0.58762a0.27145 0.27145 0 0 0-0.23637-0.1701c-0.19228 0-0.32898 0.26005-0.43077 0.47495-0.05655-0.24883-0.20324-0.47495-0.486-0.47495a0.44111 0.44111 0 0 0-0.38438 0.1701 0.36194 0.36194 0 0 1-0.43077 0.19219 0.44111 0.44111 0 0 0-0.22533 0.35125c-0.07917-0.32801 0-0.38447 0-0.47495a0.32801 0.32801 0 0 1 0.09058-0.3402c-0.13573 0-0.31679-3.54e-4 -0.37334-0.07952-0.05655-0.07917-0.19149-8.8e-5 -0.3159 0.19219a0.52029 0.52029 0 0 1 0.28276-0.42857c0-0.12442 0.21331-0.1701 0.34903-0.1701 0.13573 0 0-6.19e-4 0-0.06849a0.29407 0.29407 0 0 1-0.13475-0.29381c-0.11311-0.12442-0.22515 0-0.32694 0 0.16966-0.16966 0.37237-0.23602 0.50809-0.15684 0.29407-0.1018 0.40595-3.52e-4 0.42857 0.20324 0.02262 0.20359 0.32836 0.21428 0.64505 0.21428 0.66732 0 1.7426-0.62208 1.6634-1.1311a0.76912 0.76912 0 0 0-0.30485 0c-0.36194 0-0.80305 0.44155-1.1311 0.45286 0.18097-0.20359 0.06831-0.40744 0.1701-0.55448a3.5515 3.5515 0 0 1-0.77097 0.09057 0.67863 0.67863 0 0 0 0.2165-0.43077c0-0.09048-0.0018-0.28276-0.39763-0.28276a0.98402 0.98402 0 0 1-0.23637 0c-0.09048 0-0.35125 8.84e-4 -0.35125-0.22533a0.39587 0.39587 0 0 0-0.37334 0.11266 0.68994 0.68994 0 0 1 0.38438-0.33799 0.28276 0.28276 0 0 1 0.21649-0.15905v-0.06848c0-0.06786-0.31837-0.0676-0.30706-0.29382 0.01131-0.22622-0.15844-0.1131-0.37334 0 0.26014-0.20359 0.36264-0.16868 0.44181-0.13475a0.29407 0.29407 0 0 1 0.41972 0v-0.05743a0.39587 0.39587 0 0 1 0-0.35125c0-0.15835-0.06946-0.20244-0.2165-0.23637a0.59946 0.59946 0 0 1 0.5103 0.19219 0.3167 0.3167 0 0 1 0.28276 0.27171c0 0.28276-0.29408 0.47469 0.28276 0.76877a4.5242 4.5242 0 0 0 0.67819 0.26067 4.8749 4.8749 0 0 0 0.68924 0.18115c-0.10179-0.14704 6.23e-4 -0.30557-0.21427-0.46391a2.3639 2.3639 0 0 1 0.56553 0.09057c0-0.22621 7.06e-4 -0.22656-0.12372-0.36229h0.39543c0.65601 0.06786 0.66644-0.25996 0.79086-0.66714a1.8662 1.8662 0 0 0-0.94991 0.30485 1.0632 1.0632 0 0 0 0-0.32916 0.2149 0.2149 0 0 1 0.22533-0.22533h0.20544c0.13573 0 0.3379-0.15826 0.24742-0.47495a0.24883 0.24883 0 0 0-0.29382-0.20323 2.0698 2.0698 0 0 0-0.26067 0.079528c-0.11311 0-0.14553 0.12326-0.15684 0.23637 0-0.05655-3.54e-4 -0.19113-0.07952-0.23637a0.78043 0.78043 0 0 1-0.06849-0.15905v-0.079528a0.22621 0.22621 0 0 1 0.18115-0.3159l0.40648-0.10162a0.44111 0.44111 0 0 0 0.3402-0.27171c0.05655-0.12442 0.09023-0.18115 0.29382-0.18115h0.40648c0.3167 0 0.66758-0.26093 0.55448-0.53239zm-0.59424 0.729a2.8503 2.8503 0 0 0-0.36671 0.028719 0.33932 0.33932 0 0 0 0 0.29381 0.97271 0.97271 0 0 0 0.35125-0.11266c0.1018-0.067863 0.13626-0.12407 0.26068-0.20324a2.8503 2.8503 0 0 0-0.24521-0.00663zm-2.0567 0.70249c-0.06078 0.26696-0.04902 0.59425 0.32253 0.59425a2.8616 2.8616 0 0 0 0.92561-0.30706v0.10383a3.2461 3.2461 0 0 1-1.31 0.58762c-0.30538 0-0.41972-0.18132-0.41972-0.36229 0-0.17376 0.26057-0.36164 0.48158-0.61634zm9.2914 10.763-16.774 16.275a219.88 219.88 0 0 0 30.696 1.8225h0.15906s0.06716-0.55422 0.1237-1.1311c0.05655-0.57684 0.26227-0.76991 0.75993-0.81515l1.0405-0.10161-16.004-16.049zm1.2326 3.561c0.2149 0 0.30397 0.38562 0.24742 0.52135a1.3686 1.3686 0 0 0 0.52135-0.13696 0.90484 0.90484 0 0 1-0.3159 0.60087 0.99533 0.99533 0 0 0 0.54123-0.09057 1.3912 1.3912 0 0 1-0.36008 0.60971 0.89353 0.89353 0 0 1 0.60971 0.61192c-0.22621-0.09049-0.35116 0-0.54344 0a5.7345 5.7345 0 0 1 0.61192 1.109 3.9248 3.9248 0 0 0-0.486-0.23858c0.16966 0.38456-0.06786 0.75737 0 0.96096a0.90484 0.90484 0 0 1-0.3402-0.25847 1.493 1.493 0 0 0-0.14801 0.84829 1.8549 1.8549 0 0 0-0.34903-0.24962 1.2442 1.2442 0 0 0-0.23858 0.89247 4.0039 4.0039 0 0 0 0.49704 1.7319 3.2461 3.2461 0 0 1 0.32916 0.93887 0.57684 0.57684 0 0 0 0.55448 0.486 0.5316 0.5316 0 0 0 0.486-0.54344c0-0.5316-0.6561-0.87021-0.6561-1.8203 0-0.62208 0.48573-0.92738 0.49704-1.3232 0.01131-0.39587-0.31697-0.13546-0.55448-0.2938 0.30538 0 0.48626-0.39569 0.75772-0.38438 0.27145 0.01131 0.3068 0.14509 0.31811 0.26951a0.80305 0.80305 0 0 1-0.13696 0.43077 1.1311 1.1311 0 0 0 0.39763-0.75772c0-0.26014-0.37325-0.55361-0.28276-1.0626v-0.10162c0.1018 0.56553 0.91456 0.71133 0.91456 1.2768 0 0.56553-0.46223 0.44218-0.72237 0.80411 0.29408-0.07917 0.62076-0.02288 0.62076 0.2938 0 0.29408-0.45101 0.46294-0.53018 0.59867a0.38456 0.38456 0 0 0-0.10161 0.1701c-0.05655-0.19228 0-0.33923 0-0.47495 0-0.13573-0.11364-0.22754-0.26067-0.22754a1.0066 1.0066 0 0 0-0.43077 1.4271 0.78043 0.78043 0 0 1 0.14801-0.58982 0.40718 0.40718 0 0 0 0.09057-0.27171 0.97271 0.97271 0 0 1 0.1458 0.49926c0 0.38456-0.28126 0.46364-0.15684 0.75772 0 0.07917 0.05664 0.13457 0.09058 0.23637a1.1311 1.1311 0 0 1 0-0.34903c0-0.09049 0.16762-0.27234 0.17893-0.3402a0.49766 0.49766 0 0 0 0-0.22533 0.73519 0.73519 0 0 1 0.20544 0.53018 0.9614 0.9614 0 0 1-0.1701 0.54344 1.1311 1.1311 0 0 0-0.09058 0.30485c-0.07917 0.63339-0.39693 0.93887-0.80411 0.93887a1.1311 1.1311 0 0 1-0.49704-0.11266c0 0.81436-0.93887 0.75851-0.93887 1.2901a0.70125 0.70125 0 0 0 0.20324 0.42857 3.7438 3.7438 0 0 1 0.62296 0.41972 0.79174 0.79174 0 0 0-0.54344 0.21428c0.33932 0.16966 0.3281 0.36088 0.37334 0.60971-0.32801-0.15835-0.48636-0.06786-0.56553 0-0.07917 0.06786-4.43e-4 0.25034-0.1701 0.40868 0-0.12442-0.13573-0.23858-0.28276-0.23858a0.76912 0.76912 0 0 0-0.43961 0.3402 0.30539 0.30539 0 0 1-0.31811 0.33799 0.4298 0.4298 0 0 0-0.11266 0.39764c-0.12442-0.12442-0.14686-0.20456-0.10161-0.43078-0.14704 0-0.12477-0.19201-0.07952-0.2938-0.09048 0.07917-0.16975 0.18132-0.37334 0.07952a0.38456 0.38456 0 0 0-0.19219 0.29381c0-0.33932-4.43e-4 -0.4518 0.11266-0.49704a0.27145 0.27145 0 0 1 0.14801-0.30706v-0.06627a0.28276 0.28276 0 0 1-0.24962-0.11487c-0.11311 0-0.26014 0.11329-0.28276 0.18115a0.50898 0.50898 0 0 1 0.13696-0.45066c0.12442-0.26014 0.36106-0.30609 0.50809-0.15905a0.79174 0.79174 0 0 0 0.47495 0.1701 0.58815 0.58815 0 0 0 0.41972-0.22753 0.4298 0.4298 0 0 0 0.07732-0.12372c0-0.1018 0.12627-0.21481-0.07732-0.47495-0.20359-0.26014-0.55422-0.58789-0.56553-0.85934a1.1311 1.1311 0 0 1 0.40648-0.90573h-0.15905c-0.29407 0-0.31563-0.18115-0.60971-0.18115a0.38456 0.38456 0 0 0-0.35125 0.40868 0.56553 0.56553 0 0 0 0.10161 0.34903 0.59946 0.59946 0 0 1 0.10161 0.43077 0.46373 0.46373 0 0 0-0.62076-0.06849 0.59946 0.59946 0 0 1-0.26067 0.40868 0.41849 0.41849 0 0 0-0.71354-0.15905c0 0.07917-0.0676 0.24742-0.2938 0.24742h-0.19219a0.72388 0.72388 0 0 0-0.20324 0.29602 0.49766 0.49766 0 0 1 0.07953-0.40868c0-0.07917 8.8e-5 -0.27039 0.09058-0.32694a0.33932 0.33932 0 0 1-0.47495 0c-0.09048 0-0.17019 0.06645-0.26067 0.24742a0.6447 0.6447 0 0 1 0.19219-0.45066c0-0.13573 0.19184-0.26173 0.39543-0.2165v-0.06627s-0.24768-2.66e-4 -0.23637-0.27172a0.30539 0.30539 0 0 0-0.2938 0.07952 0.41849 0.41849 0 0 1 0.37112-0.27172c0-0.09049 0.1815-0.10162 0.26068-0.10162a0.23752 0.23752 0 0 1 0.24962 0.15684 0.84829 0.84829 0 0 0 0.75772 0.32916 0.28276 0.28276 0 0 0 0.28276-0.2938c0-0.18097-0.2938-0.70134-0.2938-0.93887a0.95009 0.95009 0 0 1 0.70028-0.67819 2.7145 2.7145 0 0 1 1.2569 0.34903c0.28276 0 0.3151-8.8e-5 0.34903-0.09058-0.40718-0.50898-0.65566-0.49757-1.0515-0.75772a0.8596 0.8596 0 0 1-0.32694-0.57658c-0.23752 0.05655-0.46347 0.37299-0.57657 0.57658a0.30539 0.30539 0 0 0-0.23858-0.15684c-0.19228 0-0.32703 0.2468-0.41752 0.4617a0.52029 0.52029 0 0 0-0.48821-0.4617c-0.15835 0-0.33914-0.0015-0.38438 0.15684a0.36194 0.36194 0 0 1-0.41752 0.20324c-0.09048 0-0.15772 0.08006-0.21428 0.3402-0.07917-0.32801 0-0.38474 0-0.46391a0.3167 0.3167 0 0 1 0.07732-0.3402c-0.12442 0-0.31484 0.0018-0.36008-0.07732-0.04524-0.07917-0.19395-8.8e-5 -0.30706 0.19219a0.52029 0.52029 0 0 1 0.27171-0.43077 0.36194 0.36194 0 0 1 0.3402-0.1701v-0.05523a0.29407 0.29407 0 0 1-0.14801-0.28276c-0.1018-0.12442-0.22542 0-0.3159 0 0.16966-0.18097 0.37263-0.24927 0.49704-0.1701 0.12442 0.07917 0.39684-3.52e-4 0.43077 0.20324 0.03393 0.20359 0.31537 0.21428 0.62076 0.21428 0.66732 0 1.7206-0.62208 1.6414-1.1311a0.97271 0.97271 0 0 0-0.29381 0c-0.36194 0-0.80305 0.44155-1.1311 0.45286 0.16966-0.20359-0.0015-0.3964 0.15684-0.54344a3.5854 3.5854 0 0 1-0.75772 0.07952 0.63339 0.63339 0 0 0 0.2165-0.41752c0-0.09048-0.0018-0.27171-0.39763-0.27171a0.87091 0.87091 0 0 1-0.22533 0c-0.09048 0-0.35125 8.83e-4 -0.35125-0.22533a0.37325 0.37325 0 0 0-0.36229 0.11266 0.66732 0.66732 0 0 1 0.37334-0.3402 0.23752 0.23752 0 0 1 0.2165-0.1458v-0.07953c0-0.07917-0.30706-0.06786-0.30706-0.28276 0-0.2149-0.15649-0.11399-0.36008-0.05743 0.26014-0.19228 0.34912-0.15738 0.43961-0.13475a0.30539 0.30539 0 0 1 0.40868 0 0.37325 0.37325 0 0 1 0-0.3402c0-0.14704-0.08077-0.1914-0.2165-0.22533a0.57684 0.57684 0 0 1 0.5103 0.18115 0.3167 0.3167 0 0 1 0.27171 0.26951c0 0.27145-0.28471 0.46586 0.26951 0.75993a7.103 7.103 0 0 0 0.66936 0.24742 4.807 4.807 0 0 0 0.67819 0.18115c-0.09048-0.14704-0.0016-0.30583-0.2165-0.45286a2.3526 2.3526 0 0 1 0.56553 0.07952c0-0.2149 7.07e-4 -0.21552-0.12372-0.35125h0.39543c0.63339 0.06786 0.64435-0.24892 0.76877-0.6561a1.8776 1.8776 0 0 0-0.92561 0.29602 1.4591 1.4591 0 0 0 0-0.31811 0.2149 0.2149 0 0 1 0.22533-0.22533h0.20324c0.13573 0 0.32907-0.15826 0.23858-0.47495-0.01967-0.06886-0.03909-0.11204-0.05744-0.14801v0.05744a3.0539 3.0539 0 0 1-1.2901 0.57658 0.35063 0.35063 0 0 1-0.39543-0.35125c0.04524-0.28276 0.24874-0.3736 0.47495-0.64505-0.07917 0.27145-0.06618 0.62296 0.30706 0.62296a2.6241 2.6241 0 0 0 0.24962-0.05964l-0.05744-0.16568-0.07952-0.1701v-0.06849a0.22621 0.22621 0 0 1 0.1701-0.3159l0.40647-0.10161c0.22621-0.06786 0.29275-0.14731 0.33799-0.27172 0.04524-0.12442 0.07917-0.1701 0.28276-0.1701h0.53239c0.3167 0 0.65654-0.2499 0.54344-0.52135zm-2.1362 1.7849 0.01988 0.05964a0.24883 0.24883 0 0 1 0.01768-0.06849 2.6241 2.6241 0 0 1-0.03755 0.0088zm0.03755-0.0088a2.6241 2.6241 0 0 0 0.59425-0.22754c-0.05868-0.08237-0.11636-0.04358-0.20324-0.01988l-0.26067 0.07732a0.24883 0.24883 0 0 0-0.13033 0.1701zm0.59425-0.22754c0.0071 0.01 0.01497 0.0214 0.02209 0.03535v-0.04418a2.6241 2.6241 0 0 1-0.02209 0.0088zm0.89026-0.98305a5.1237 5.1237 0 0 0-0.44844 0.0243 0.32801 0.32801 0 0 0 0 0.2938 0.8596 0.8596 0 0 0 0.33799-0.11266 2.0472 2.0472 0 0 0 0.26067-0.20544 5.1237 5.1237 0 0 0-0.15022 0zm13.452 18.799a201.93 201.93 0 0 0-29.633 1.7077c1.6174 9.3086 12.261 30.359 29.407 39.362 0.84829-6.9673 2.1826-23.969 2.1826-34.884v-4.1619l-0.02209 0.06849-1.0405-0.13475c-0.49766-0.05655-0.70338-0.31723-0.75993-0.8262-0.05655-0.50898-0.13475-1.1311-0.13475-1.1311zm8.6862 0.04418s-0.05585 0.62208-0.12372 1.1311c-0.06786 0.50898-0.27136 0.76965-0.75772 0.8262l-0.9963 0.09058v4.1619c0 10.915 1.4138 27.914 2.2621 34.882 17.147-9.0032 27.779-30.051 29.407-39.36a203.01 203.01 0 0 0-29.713-1.7077l-0.07952-0.02429z" fill="#68246d"/>
</svg>
