<?xml version="1.0" encoding="UTF-8"?>
<svg version="1.1" viewBox="0 0 240 99" xmlns="http://www.w3.org/2000/svg">
 <path fill="#002a41" d="m147.12 29.691v1.9102h0.37109a5.9 5.9 0 0 1 2.6094 0.54883c0.75 0.36 1.1211 1.2208 1.1211 2.5508v24.391c0 1.43-0.36984 2.329-1.0898 2.709a5.66 5.66 0 0 1-2.6406 0.57031h-0.37109v1.9102l12.24 0.009766v-1.9102h-0.13868a6 6 0 0 1-2.6113-0.51953c-0.75-0.35-1.1192-1.1913-1.1192-2.5312v-9.6191a9.53 9.53 0 0 1 1.3398-5.3691 4.67 4.67 0 0 1 4.1699-2c1.85 0 3.1506 0.54867 3.8906 1.6387a8.08 8.08 0 0 1 1.1192 4.5996v15.711h7.9199v-1.9102h-0.12891a5 5 0 0 1-2.5312-0.57031c-0.65-0.38-1-1.279-1-2.709v-10.76c0-3.12-0.69031-5.3874-2.0703-6.8008a8 8 0 0 0-6-2.1191 6.94 6.94 0 0 0-6.6094 4.1387h-0.23046c0.05999-0.82 0.10062-1.5287 0.14062-2.1387s0-1.1805 0-1.7305v-10h-8.3809zm-79.818 2.1094v1.9102h0.58984a5.84 5.84 0 0 1 2.6191 0.55078c0.74 0.36 1.1094 1.2088 1.1094 2.5488v22.281c0 1.43-0.35984 2.329-1.0898 2.709a5.66 5.66 0 0 1-2.6387 0.57031h-0.58984v1.9102l13.92 0.048828a15.55 15.55 0 0 0 8.2188-2 12.43 12.43 0 0 0 5-5.6484 20.66 20.66 0 0 0 1.6699-8.6504c0-5.16-1.3066-9.16-3.9199-12s-6.2564-4.2505-10.93-4.2305h-13.959zm8.9199 2.291h4c3.58 0 6.2801 1.1996 8.0801 3.5996 1.8 2.4 2.709 5.8498 2.709 10.34s-0.89899 7.9994-2.709 10.359-4.5109 3.6211-8.1309 3.6211h-4l0.050781-27.92zm109.58 5.3301a18.07 18.07 0 0 0-4.1309 0.42969 6.87 6.87 0 0 0-3 1.4102 3.23 3.23 0 0 0-1.0801 2.5293 2.46 2.46 0 0 0 1 2.2109 5.17 5.17 0 0 0 2.8906 0.6582 10 10 0 0 1 0.29883-2.5488 3 3 0 0 1 1.2012-1.7812 4.63 4.63 0 0 1 2.6094-0.63867 4.44 4.44 0 0 1 2.7793 0.73047 3.42 3.42 0 0 1 1.1914 2 13.72 13.72 0 0 1 0.26953 2.8887v2.7305l-3.7793 0.13086c-3.49 0.13-6.1006 0.75992-7.8106 1.9199a6 6 0 0 0-2.5703 5.3691c0 2.49 0.66 4.3298 2 5.5098a8.28 8.28 0 0 0 8.1504 1.2109l0.01953-0.009766a6.72 6.72 0 0 0 2.1406-1.5508 27.2 27.2 0 0 0 1.8691-2.25h0.36133l0.72851 3.9102h6.1504v-1.9102h-0.14062a2.9 2.9 0 0 1-2.1797-0.67969 3.87 3.87 0 0 1-0.63867-2.5996v-11.791c0-2.89-0.69031-4.9194-2.0703-6.1094s-3.4698-1.7695-6.2598-1.7695zm28.818 0a8.77 8.77 0 0 0-3.7988 0.79883 7.23 7.23 0 0 0-3.0703 3.3398h-0.16016l-0.58984-3.6895h-7.1504v1.9199h0.13086a5.24 5.24 0 0 1 2.5098 0.53906c0.67 0.37 1 1.2208 1 2.5508v14.211c0 1.43-0.32 2.329-1 2.709a5 5 0 0 1-2.5293 0.57031h-0.5918v1.9102h12.291v-1.9102h-0.13086a6.1 6.1 0 0 1-2.6191-0.51953c-0.75-0.35-1.1211-1.1913-1.1211-2.5312v-9.6094a12.81 12.81 0 0 1 0.5-3.6406 5.75 5.75 0 0 1 1.6406-2.709 4.51 4.51 0 0 1 3.1504-1 4.11 4.11 0 0 1 3.709 1.6406 8.44 8.44 0 0 1 1.0703 4.5996v15.709h7.9199v-1.9102h-0.13868a5 5 0 0 1-2.5215-0.57031c-0.66-0.38-1-1.279-1-2.709v-10.029a11.29 11.29 0 0 1 0.48047-3.3711 5.18 5.18 0 0 1 1.5703-2.4805 4.44 4.44 0 0 1 3-0.93945 4.11 4.11 0 0 1 3.7207 1.6406 8.44 8.44 0 0 1 1.0703 4.5996v15.711h7.9199v-1.9102h-0.14063a5 5 0 0 1-2.5195-0.57031c-0.66-0.38-1-1.2809-1-2.7109v-10.719c0-3.12-0.66666-5.3874-2-6.8008a7.09 7.09 0 0 0-5.4512-2.1191 9.71 9.71 0 0 0-3.9394 0.79883 7 7 0 0 0-3.2109 3.3398h-0.35937a5.74 5.74 0 0 0-2.6406-3.209 8.45 8.45 0 0 0-4-0.92969zm-72.949 0.019531a6.15 6.15 0 0 0-3.1406 0.67969 5.31 5.31 0 0 0-1.8184 1.8008 19.78 19.78 0 0 0-1.2812 2.4785h-0.23047l-0.85938-4.5098h-7v1.9004h0.14063a6 6 0 0 1 2.6191 0.53906c0.74 0.37 1.1211 1.2208 1.1211 2.5508v14.211c0 1.43-0.37156 2.329-1.1016 2.709a5.66 5.66 0 0 1-2.6387 0.57031h-0.14063v1.9102l13.08 0.009766v-1.9102h-1.2793a6.13 6.13 0 0 1-2.6211-0.51953c-0.74-0.35-1.1094-1.1913-1.1094-2.5312v-7.1484a22.26 22.26 0 0 1 0.2207-3 19.72 19.72 0 0 1 0.72852-3.2109 7.33 7.33 0 0 1 1.3711-2.5605 2.74 2.74 0 0 1 2.1387-1 2.07 2.07 0 0 1 1.8711 0.85156 5.17 5.17 0 0 1 0.53907 2.709 4.76 4.76 0 0 0 3.3105-0.87891 3.06 3.06 0 0 0 1-2.3301 2.84 2.84 0 0 0-1.209-2.4609 6.45 6.45 0 0 0-3.7109-0.85938zm-42.881 0.42969v1.9199h0.14063a5.9 5.9 0 0 1 2.6094 0.53906c0.75 0.37 1.1211 1.2208 1.1211 2.5508v10.93c0 3.1267 0.66666 5.3972 2 6.8105a7.2 7.2 0 0 0 5.5605 2.1191 10.33 10.33 0 0 0 4.0898-0.79883l-0.04102 0.009766a7.13 7.13 0 0 0 3.3203-3.3594h0.23047l0.58985 3.6895h7.25v-1.9102h-0.14063a6.1 6.1 0 0 1-2.6191-0.51953c-0.75-0.35-1.1211-1.1913-1.1211-2.5312v-19.449h-8.1895v1.9199h0.14063a5.78 5.78 0 0 1 2.6387 0.56055c0.73 0.39 1.0918 1.2888 1.0918 2.7188v9.3809a9.43 9.43 0 0 1-1.3613 5.3496 4.9 4.9 0 0 1-4.3789 2c-1.85 0-3.1112-0.53891-3.7812-1.6289a9 9 0 0 1-1-4.6016v-15.699h-8.1504zm91.061 12.029v3.6914a6.41 6.41 0 0 1-1.6387 4.6191 5.84 5.84 0 0 1-4.4219 1.7109c-2.46 0-3.6894-1.4202-3.6894-4.2402a5.33 5.33 0 0 1 1.4805-4.0703c0.98666-0.92667 2.7696-1.4534 5.3496-1.5801l2.9199-0.13086zm-11.83 20.881v2.5605h2.6406v-2.5605h-2.6406zm-66.58 0.039062v2.5605h2.6504v-2.5605h-2.6504zm-40.16 0.46094v12.23c0 6 3.55 9.1387 8.75 9.1387 5.26 0 8.7812-3.1903 8.7812-9.3203v-12.049h-2.3809v12.23c0 4.6-2.4598 6.9395-6.3398 6.9395s-6.4297-2.5498-6.4297-7.0898v-12.08h-2.3809zm114.79 0.81055v4.6895h-2.1602v2h2.1602v9.3789c0 3.16 1.9006 4.3906 4.3906 4.3906v0.041016a5.85 5.85 0 0 0 2.7988-0.66016v-2a4.9 4.9 0 0 1-2.2598 0.53906 2.29 2.29 0 0 1-2.6094-2.5801v-9.0801h4.9297v-2h-4.9297v-4.7188h-2.3203zm-44.721 4.2988c-4.3 0-7.459 3.6013-7.459 8.1113a7.74 7.74 0 0 0 7.7598 8.1191 8 8 0 0 0 6.4004-2.9199l-1.4609-1.2305a6.44 6.44 0 0 1-4.9004 2.1895 5.42 5.42 0 0 1-5.4688-5.1699l-0.08008-0.058593h12.449v-0.81055c0-4.57-2.6402-8.2305-7.2402-8.2305zm-40.279 0.060547a5.88 5.88 0 0 0-5.3203 3v-2.6992h-2.3105v15.568h2.3105v-8.8984a4.57 4.57 0 0 1 4.6602-4.8711c2.74 0 4.3008 1.7995 4.3008 4.6895v9.0801h2.3086v-9.6484c0-3.7-2.1892-6.2207-5.9492-6.2207zm67.199 0.019531c-3.07 0-5.2891 1.7695-5.2891 4.4395v0.060547c0 2.86 2.6987 3.7006 5.1387 4.3906 2 0.57 3.8809 1.1802 3.8809 2.7402v0.058594c0 1.5-1.3607 2.4609-3.2207 2.4609a9.09 9.09 0 0 1-5.3789-2l-1.1699 1.6504a10.64 10.64 0 0 0 6.4297 2.2891l0.07031 0.019531c3.1 0 5.5293-1.7182 5.5293-4.6582v-0.060547c0-2.8-2.58-3.7312-5-4.4512-2.07-0.63-4-1.1997-4-2.6797v-0.058594c0-1.29 1.18-2.25 3-2.25a8.83 8.83 0 0 1 4.5996 1.5l1-1.7402a10.64 10.64 0 0 0-5.5898-1.7109zm-7.6699 0.009766a6.65 6.65 0 0 0-6.3398 4.3203v-4.0488h-2.3106v15.51h2.3106v-6.1699c0-4.68 2.7702-7.1211 6.1602-7.1211h0.17969v-2.4902zm-49.01 0.30078v15.539h2.3203v-15.539h-2.3203zm5.5195 0 6.7812 15.66h2l6.7598-15.66h-2.4902l-5.2598 12.891-5.2305-12.891h-2.5605zm61.061 0v15.5h2.3106v-15.5h-2.3106zm17.07 0 7.0606 15.48c-0.93 2.19-1.8016 2.9102-3.1816 2.9102a4.89 4.89 0 0 1-2.4394-0.57031l-0.7793 1.8301a7 7 0 0 0 3.3106 0.78906h0.00976c2.34 0 3.8499-1.1806 5.1699-4.3906l6.5195-16.049h-2.4609l-5 12.949-5.6484-12.949h-2.5606zm-54.051 1.5605c3.06 0 4.69 2.3985 5 5.2285h-10.049c0.33-3 2.3688-5.2285 5.0488-5.2285z"/>
 <path fill="#68246d" d="m27.77 0.0019531a113.84 113.84 0 0 0-22.799 2.2793 4.39 4.39 0 0 0-3.5312 3.6602 95.68 95.68 0 0 0-1.3887 19.639c1.47-1.4 15-14.568 15-14.568l14.1 14.08a221.15 221.15 0 0 0-1.3809-25.09zm7.0312 0a207.69 207.69 0 0 0-1.3809 24.359v3.8906l0.91016 0.089844c0.44 0 0.60992 0.27875 0.66992 0.71875 0.06 0.44 0.11914 1 0.11914 1s16.471-0.12008 27.111-1.5801a103.41 103.41 0 0 0-1.0605-22.539 4.42 4.42 0 0 0-3.5801-3.6602 109.48 109.48 0 0 0-22.789-2.2793zm-11.711 2.3789c0.21 0 0.29023 0.36023 0.24023 0.49023a1.31 1.31 0 0 0 0.48047-0.11914 0.72 0.72 0 0 1-0.30078 0.54883 0.89 0.89 0 0 0 0.50976-0.070312 1.32 1.32 0 0 1-0.33008 0.56055 0.84 0.84 0 0 1 0.56055 0.58008c-0.2-0.09-0.32 0-0.5 0a5.41 5.41 0 0 1 0.60938 1.25 2.7 2.7 0 0 0-0.44922-0.2207c0.16 0.36-0.07 0.71039 0 0.90039a1 1 0 0 1-0.31055-0.24023 1.42 1.42 0 0 0-0.13867 0.79102 2.09 2.09 0 0 0-0.33008-0.24023 1.21 1.21 0 0 0-0.2207 0.83984 3.63 3.63 0 0 0 0.4707 1.6191 3.29 3.29 0 0 1 0.29883 0.89062 0.54 0.54 0 0 0 0.51953 0.44922 0.49 0.49 0 0 0 0.46094-0.5c0-0.51-0.60938-0.82899-0.60938-1.709 0-0.58 0.43898-0.87024 0.45898-1.2402s-0.28953-0.1293-0.51953-0.2793c0.29 0 0.4607-0.37133 0.7207-0.36133 0.26 0.01 0.2693 0.14 0.2793 0.25a0.84 0.84 0 0 1-0.10938 0.41016 1.14 1.14 0 0 0 0.35938-0.70898c0-0.25-0.34976-0.53-0.25976-1a0.56 0.56 0 0 1 0-0.099609c0.11 0.54 0.86914 0.67899 0.86914 1.209 0 0.53-0.42969 0.4-0.67969 0.75 0.27-0.23 0.58008-0.17891 0.58008 0.12109h-0.039062c0 0.27-0.42 0.42859-0.5 0.55859a0.43 0.43 0 0 0-0.091797 0.16016c-0.06-0.18 0-0.31922 0-0.44922 0-0.13-0.1-0.21094-0.25-0.21094a1 1 0 0 0-0.43945 1.3711 0.76 0.76 0 0 1 0.13086-0.55078 0.35 0.35 0 0 0 0.089844-0.25 0.86 0.86 0 0 1 0.13867 0.4707c0 0.36-0.25867 0.42922-0.13867 0.69922a2.16 2.16 0 0 0 0.080078 0.23047 1 1 0 0 1 0-0.33008c0-0.09 0.15992-0.25031 0.16992-0.32031a0.4 0.4 0 0 0 0-0.2207 0.71 0.71 0 0 1 0.18945 0.51172 1 1 0 0 1-0.15039 0.5 0.9 0.9 0 0 0-0.089844 0.28906c-0.08 0.6-0.36977 0.88086-0.75976 0.88086a1 1 0 0 1-0.58008-0.14062c0 0.77-0.86914 0.70899-0.86914 1.209a0.67 0.67 0 0 0 0.17969 0.40039c0.1 0.09 0.45008 0.22039 0.58008 0.40039a0.71 0.71 0 0 0-0.5 0.19922c0.31 0.16 0.29984 0.34031 0.33984 0.57031-0.31-0.15-0.4493-0.06-0.5293 0-0.08 0.06-3.91e-4 0.23062-0.15039 0.39062 0-0.12-0.13148-0.23047-0.27148-0.23047a0.68 0.68 0 0 0-0.4082 0.32031 0.3 0.3 0 0 1-0.30078 0.32031 0.37 0.37 0 0 0-0.099609 0.36914c-0.12-0.12-0.13961-0.18844-0.09961-0.39844-0.14-0.06-0.12008-0.18102-0.080078-0.29102a0.27 0.27 0 0 1-0.35156 0.070312 0.4 0.4 0 0 0-0.17969 0.2793c0-0.32 0.001328-0.42875 0.11133-0.46875a0.23 0.23 0 0 1 0.13867-0.28125 0.14 0.14 0 0 0 0-0.070313 0.26 0.26 0 0 1-0.23047-0.10938c-0.099997 0-0.23953 0.10969-0.26953 0.17969a0.47 0.47 0 0 1 0.25-0.40039c0.12-0.24 0.35047-0.27867 0.48047-0.13867a0.74 0.74 0 0 0 0.43945 0.15039 0.56 0.56 0 0 0 0.40039-0.21094 0.52 0.52 0 0 0 0.070312-0.11914c0-0.09 0.11969-0.20141-0.070312-0.44141-0.19-0.24-0.5193-0.54859-0.5293-0.80859a1 1 0 0 1 0.37891-0.85156h-0.15039c-0.27 0-0.29813-0.16992-0.57812-0.16992a0.36 0.36 0 0 0-0.32031 0.38086 0.52 0.52 0 0 0 0.089844 0.33008 0.5 0.5 0 0 1 0.089843 0.40039 0.42 0.42 0 0 0-0.57031 0 0.63 0.63 0 0 1-0.25 0.37891 0.39 0.39 0 0 0-0.66992-0.15039c0 0.07-0.059531 0.23047-0.26953 0.23047s-0.11969 0.001172-0.17969-0.048828a0.54 0.54 0 0 0-0.19141 0.2793 0.46 0.46 0 0 1 0.080078-0.39062c0-0.07 7.8e-5 -0.25859 0.080078-0.30859v-0.050781a0.31 0.31 0 0 1-0.43945 0c-0.08 0-0.16023 0.070234-0.24023 0.24023a0.56 0.56 0 0 1 0.16992-0.51953c0-0.13 0.17938-0.24117 0.35938-0.20117v-0.070313s-0.22875 2.35e-4 -0.21875-0.25976a0.26 0.26 0 0 0-0.28125 0.080078 0.39 0.39 0 0 1 0.35156-0.25977c0-0.08 0.16828-0.089843 0.23828-0.089843a0.23 0.23 0 0 1 0.24024 0.14062 0.78 0.78 0 0 0 0.71094 0.30859 0.27 0.27 0 0 0 0.26953-0.2793c0-0.17-0.28906-0.64914-0.28906-0.86914a0.9 0.9 0 0 1 0.66992-0.65039c0.81 0 0.99992 0.33984 1.1699 0.33984s0.29008-0.049844 0.33008-0.089844c-0.38-0.47-0.62-0.46094-1-0.71094a0.8 0.8 0 0 1-0.30078-0.53906c-0.23 0.05-0.45078 0.34906-0.55078 0.53906a0.26 0.26 0 0 0-0.21875-0.15039c-0.18 0-0.31039 0.24141-0.40039 0.44141 0-0.23-0.18922-0.44141-0.44922-0.44141a0.38 0.38 0 0 0-0.35156 0.16016 0.36 0.36 0 0 1-0.39844 0.18164c-0.08 0-0.15094 0.068594-0.21094 0.30859-0.07-0.3 0-0.34969 0-0.42969a0.32 0.32 0 0 1 0.070312-0.32031c-0.12 0-0.28984-3.126e-4 -0.33984-0.070313-0.05-0.07-0.17102 0.0016413-0.29102 0.18164a0.51 0.51 0 0 1 0.26172-0.40039c0-0.11 0.19836-0.16016 0.31836-0.16016v-0.060547a0.25 0.25 0 0 1-0.12891-0.25977c-0.1-0.12-0.21078-0.05-0.30078 0 0.16-0.17 0.34071-0.23016 0.4707-0.16016 0.27-0.09 0.37063-5.462e-4 0.39063 0.18945 0.019997 0.19 0.30985 0.20117 0.58984 0.20117 0.62 0 1.6091-0.58 1.5391-1a0.75 0.75 0 0 0-0.2793 0c-0.33 0-0.75031 0.41992-1.0703 0.41992 0.16-0.18 0.060391-0.37 0.15039-0.5a4.5 4.5 0 0 1-0.71094 0.070312 0.59 0.59 0 0 0 0.20117-0.39062c0-0.09-0.001096-0.25-0.37109-0.25a0.87 0.87 0 0 1-0.20898 0c-0.09 0-0.33008-7.037e-4 -0.33008-0.2207a0.4 0.4 0 0 0-0.33984 0.11133 0.63 0.63 0 0 1 0.34961-0.32031 0.26 0.26 0 0 1 0.20898-0.14062 0.56 0.56 0 0 0 0-0.070312c-0.13 0-0.2893-0.059532-0.2793-0.26953s-0.14961-0.1-0.34961 0c0.25-0.18 0.33992-0.14914 0.41992-0.11914a0.27 0.27 0 0 1 0.37891 0v-0.060547a0.31 0.31 0 0 1 0-0.31055c0-0.15-0.068987-0.18875-0.20898-0.21875a0.56 0.56 0 0 1 0.48047 0.16992 0.32 0.32 0 0 1 0.25977 0.25977c0 0.25-0.27 0.42922 0.25 0.69922a4.92 4.92 0 0 0 0.62891 0.24023 3.82 3.82 0 0 0 0.63086 0.16992c-0.09-0.14-0.001172-0.27969-0.20117-0.42969a2.26 2.26 0 0 1 0.53125 0.080078c0-0.2-0.001094-0.20008-0.12109-0.33008h0.37109c0.6 0.06 0.61047-0.22938 0.73047-0.60938a1.73 1.73 0 0 0-0.88086 0.2793 1 1 0 0 0 0-0.30078 0.2 0.2 0 0 1 0.20898-0.20898h0.19141c0.13 0 0.31047-0.14945 0.23047-0.43945 0-0.0028463-0.001831-0.0050082-0.001954-0.0078125a3 3 0 0 1-1.1895 0.52734 0.32 0.32 0 0 1-0.37891-0.33008c0.08-0.26 0.27922-0.34984 0.44922-0.58984-0.07 0.25-0.068982 0.57031 0.29102 0.57031a2.63 2.63 0 0 0 0.80469-0.26562c-0.047813-0.0825-0.15609-0.1257-0.24609-0.095703-0.12 0.04-0.11023 3.125e-4 -0.24023 0.070312a0.24 0.24 0 0 0-0.14844 0.2207s-0.050312-0.18094-0.070312-0.21094l-0.070313-0.16016v-0.058594a0.21 0.21 0 0 1 0.16016-0.30078l0.37891-0.089844c0.21-0.06 0.27055-0.14 0.31055-0.25s0.079531-0.16016 0.26953-0.16016h0.56055c0.29 0 0.61-0.23024 0.5-0.49023zm-1.4043 1.5254c0.014641 0.025264 0.022054 0.056212 0.023437 0.087891a3 3 0 0 0 0.021485-0.013672v-0.089844a2.63 2.63 0 0 1-0.044922 0.015625zm0.81055-0.93164a2.67 2.67 0 0 0-0.33594 0.027344 0.34 0.34 0 0 0 0 0.2793 1.22 1.22 0 0 0 0.32031-0.10938c0.1-0.06 0.13023-0.11141 0.24023-0.19141a2.67 2.67 0 0 0-0.22461-0.0058594zm-13.387 0.33594c0.19 0 0.2707 0.3507 0.2207 0.4707a1.21 1.21 0 0 0 0.45898-0.12109 0.71 0.71 0 0 1-0.2793 0.53125 0.84 0.84 0 0 0 0.49023-0.070312 1.38 1.38 0 0 1-0.32031 0.55078 0.78 0.78 0 0 1 0.54102 0.54883c-0.2-0.09-0.31047 0-0.48047 0a5.09 5.09 0 0 1 0.58008 1.1895 4.37 4.37 0 0 0-0.42969-0.20898c0.15 0.35-0.07 0.68914 0 0.86914a0.93 0.93 0 0 1-0.30078-0.24023 1.46 1.46 0 0 0-0.12891 0.76172 2.28 2.28 0 0 0-0.31055-0.2207 1.1 1.1 0 0 0-0.2207 0.80078 3.58 3.58 0 0 0 0.45117 1.5586 2.93 2.93 0 0 1 0.28906 0.84961 0.52 0.52 0 0 0 0.5 0.43164 0.47 0.47 0 0 0 0.43945-0.48047c0-0.48-0.58984-0.79063-0.58984-1.6406 0-0.56 0.43141-0.83945 0.44141-1.1895 0.009997-0.35-0.27024-0.11977-0.49023-0.25977 0.28-0.06 0.43945-0.35961 0.68945-0.34961a0.24 0.24 0 0 1 0.26953 0.23828 0.75 0.75 0 0 1-0.10938 0.39062 1 1 0 0 0 0.33984-0.67969c0-0.24-0.33023-0.51-0.24023-1a0.3 0.3 0 0 1 0-0.089844c0.1 0.51 0.83008 0.64039 0.83008 1.1504s-0.41039 0.38852-0.65039 0.72852c0.31-0.11 0.59961-0.05828 0.59961 0.26172 0 0.26-0.38875 0.4093-0.46875 0.5293-0.08 0.12-0.079844 0.090156-0.089844 0.16016v-0.42969c0-0.12-0.10024-0.20117-0.24023-0.20117-0.14 0-0.75969 0.50055-0.42969 1.3105a0.74 0.74 0 0 1 0.13867-0.5293 0.38 0.38 0 0 0 0.080078-0.24023 0.78 0.78 0 0 1 0.13086 0.44922c0 0.34-0.25086 0.41992-0.13086 0.66992a1.52 1.52 0 0 0 0.080078 0.2207 1.3 1.3 0 0 1 0-0.31055 2.88 2.88 0 0 1 0.16992-0.31055 0.37 0.37 0 0 0 0-0.20898 0.66 0.66 0 0 1 0.19141 0.49023 1 1 0 0 1-0.15039 0.48047 0.79 0.79 0 0 0-0.080078 0.26953c-0.08 0.58-0.36047 0.84961-0.73047 0.84961a1.06 1.06 0 0 1-0.48047-0.19922c0 0.73-0.83984 0.67016-0.83984 1.1602a0.62 0.62 0 0 0 0.17969 0.37891c0.09 0.09 0.43055 0.22086 0.56055 0.38086a0.75 0.75 0 0 0-0.49023 0.19922c0.31 0.15 0.29984 0.32078 0.33984 0.55078-0.3-0.15-0.43977-0.06-0.50977 0s-0.050391 0.21914-0.15039 0.36914c0-0.12-0.13-0.2207-0.25-0.2207a0.64 0.64 0 0 0-0.39844 0.30078 0.28 0.28 0 0 1-0.29102 0.31055 0.38 0.38 0 0 0-0.099609 0.34961c-0.11-0.11-0.12984-0.18086-0.089844-0.38086-0.13-0.06-0.12008-0.16953-0.080078-0.26953a0.24 0.24 0 0 1-0.33008 0.070313 0.34 0.34 0 0 0-0.16992 0.26953c0-0.31-3.903e-4 -0.40922 0.099609-0.44922a0.22 0.22 0 0 1 0.13086-0.26953 0.35 0.35 0 0 0 0-0.060547 0.23 0.23 0 0 1-0.2207-0.10938 0.29 0.29 0 0 0-0.25977 0.16992 0.47 0.47 0 0 1 0.24023-0.39062c0.11-0.22 0.32898-0.26086 0.45898-0.13086a0.68 0.68 0 0 0 0.41992 0.15039 0.57 0.57 0 0 0 0.38086-0.19922 0.52 0.52 0 0 0 0.070312-0.12109c0-0.09 0.10969-0.18992-0.070312-0.41992s-0.49977-0.5293-0.50977-0.7793a1 1 0 0 1 0.36914-0.82031h-0.15039c-0.26 0-0.27883-0.16016-0.54883-0.16016a0.35 0.35 0 0 0-0.31055 0.37109 0.48 0.48 0 0 0 0.089844 0.30859 0.57 0.57 0 0 1 0.089844 0.39062 0.4 0.4 0 0 0-0.54883 0 0.61 0.61 0 0 1-0.24023 0.35938 0.38 0.38 0 0 0-0.64062-0.13867c0 0.07-0.059532 0.21875-0.26953 0.21875h-0.16992a0.61 0.61 0 0 0-0.17969 0.27148 0.44 0.44 0 0 1 0.068359-0.37109c0-0.07 7.82e-5 -0.25078 0.080078-0.30078a0.31 0.31 0 0 1-0.42969 0c-0.07 0-0.15047 0.070469-0.23047 0.23047a0.54 0.54 0 0 1 0.17188-0.41016c0-0.13 0.17961-0.22922 0.34961-0.19922 0.17 0.03 0-5.47e-4 0-0.060547s-0.22117 0-0.20117-0.25a0.32 0.32 0 0 0-0.2793 0.080078 0.4 0.4 0 0 1 0.33984-0.25c0-0.08 0.17023-0.089844 0.24023-0.089844a0.21 0.21 0 0 1 0.17969-0.039062 0.76 0.76 0 0 0 0.68945 0.28906 0.25 0.25 0 0 0 0.25-0.26953c0-0.16-0.26953-0.62008-0.26953-0.83008a0.86 0.86 0 0 1 0.64062-0.62109c0.78 0 0.99891 0.32031 1.1289 0.32031 0.13 0 0.28031 1.559e-4 0.32031-0.089844-0.37-0.45-0.61-0.43969-1-0.67969a0.76 0.76 0 0 1-0.28906-0.50977c-0.21 0.05-0.42125 0.33953-0.53125 0.51953a0.24 0.24 0 0 0-0.20898-0.15039c-0.17 0-0.29086 0.22992-0.38086 0.41992-0.05-0.22-0.17969-0.41992-0.42969-0.41992a0.39 0.39 0 0 0-0.33984 0.15039 0.32 0.32 0 0 1-0.38086 0.16992 0.39 0.39 0 0 0-0.19922 0.31055c-0.07-0.29 0-0.33992 0-0.41992a0.29 0.29 0 0 1 0.080078-0.30078c-0.12 0-0.28008-3.126e-4 -0.33008-0.070313-0.05-0.07-0.1693-7.75e-5 -0.2793 0.16992a0.46 0.46 0 0 1 0.25-0.37891c0-0.11 0.18859-0.15039 0.30859-0.15039 0.12 0 0-5.471e-4 0-0.060547a0.26 0.26 0 0 1-0.11914-0.25977c-0.1-0.11-0.19906 0-0.28906 0 0.15-0.15 0.32922-0.20867 0.44922-0.13867 0.26-0.09 0.35891-3.119e-4 0.37891 0.17969s0.29031 0.18945 0.57031 0.18945c0.59 0 1.5407-0.55 1.4707-1a0.68 0.68 0 0 0-0.26953 0c-0.32 0-0.71 0.39039-1 0.40039 0.16-0.18 0.060391-0.36023 0.15039-0.49023a3.14 3.14 0 0 1-0.68164 0.080078 0.6 0.6 0 0 0 0.19141-0.38086c0-0.08-0.0015634-0.25-0.35156-0.25a0.87 0.87 0 0 1-0.20898 0c-0.08 0-0.31055 7.807e-4 -0.31055-0.19922a0.35 0.35 0 0 0-0.33008 0.099609 0.61 0.61 0 0 1 0.33984-0.29883 0.25 0.25 0 0 1 0.19141-0.14062v-0.060547c0-0.06-0.28148-0.059766-0.27148-0.25977s-0.14008-0.1-0.33008 0c0.23-0.18 0.32062-0.14914 0.39062-0.11914a0.26 0.26 0 0 1 0.37109 0v-0.050781a0.35 0.35 0 0 1 0-0.31055c0-0.14-0.061407-0.17898-0.19141-0.20898a0.53 0.53 0 0 1 0.45117 0.16992 0.28 0.28 0 0 1 0.25 0.24023c0 0.25-0.26 0.41969 0.25 0.67969a4 4 0 0 0 0.59961 0.23047 4.31 4.31 0 0 0 0.60938 0.16016c-0.09-0.13 5.463e-4 -0.27016-0.18945-0.41016a2.09 2.09 0 0 1 0.5 0.080078c0-0.2 6.247e-4 -0.20031-0.10938-0.32031h0.34961c0.58 0.06 0.58922-0.22984 0.69922-0.58984a1.65 1.65 0 0 0-0.83984 0.26953 0.94 0.94 0 0 0 0-0.29102 0.19 0.19 0 0 1 0.19922-0.19922h0.18164c0.12 0 0.29875-0.13992 0.21875-0.41992a0.22 0.22 0 0 0-0.25977-0.17969 1.83 1.83 0 0 0-0.23047 0.070313c-0.1 0-0.12867 0.10898-0.13867 0.20898 0-0.05-3.128e-4 -0.16898-0.070312-0.20898a0.69 0.69 0 0 1-0.060547-0.14062v-0.070313a0.2 0.2 0 0 1 0.16016-0.2793l0.35938-0.089844a0.39 0.39 0 0 0 0.30078-0.24023c0.05-0.11 0.079766-0.16016 0.25977-0.16016h0.35938c0.28 0 0.59023-0.2307 0.49023-0.4707zm-0.52539 0.64453a2.52 2.52 0 0 0-0.32422 0.025391 0.3 0.3 0 0 0 0 0.25977 0.86 0.86 0 0 0 0.31055-0.099609c0.09-0.06 0.12047-0.10969 0.23047-0.17969a2.52 2.52 0 0 0-0.2168-0.0058594zm-1.8184 0.62109c-0.053736 0.23603-0.043336 0.52539 0.28516 0.52539a2.53 2.53 0 0 0 0.81836-0.27148v0.091797a2.87 2.87 0 0 1-1.1582 0.51953c-0.27 0-0.37109-0.16031-0.37109-0.32031 0-0.15363 0.23038-0.31974 0.42578-0.54492zm8.2148 9.5156-14.83 14.389a194.4 194.4 0 0 0 27.139 1.6113h0.14063s0.059376-0.49 0.10937-1c0.05-0.51 0.23188-0.6807 0.67188-0.7207l0.91992-0.089844-14.15-14.189zm1.0898 3.1484c0.19 0 0.26875 0.34094 0.21875 0.46094a1.21 1.21 0 0 0 0.46094-0.12109 0.8 0.8 0 0 1-0.2793 0.53125 0.88 0.88 0 0 0 0.47852-0.080078 1.23 1.23 0 0 1-0.31836 0.53906 0.79 0.79 0 0 1 0.53906 0.54102c-0.2-0.08-0.31047 0-0.48047 0a5.07 5.07 0 0 1 0.54102 0.98047 3.47 3.47 0 0 0-0.42969-0.21094c0.15 0.34-0.06 0.66961 0 0.84961a0.8 0.8 0 0 1-0.30078-0.22852 1.32 1.32 0 0 0-0.13086 0.75 1.64 1.64 0 0 0-0.30859-0.2207 1.1 1.1 0 0 0-0.21094 0.78906 3.54 3.54 0 0 0 0.43945 1.5312 2.87 2.87 0 0 1 0.29102 0.83008 0.51 0.51 0 0 0 0.49023 0.42969 0.47 0.47 0 0 0 0.42969-0.48047c0-0.47-0.58008-0.76938-0.58008-1.6094 0-0.55 0.42945-0.81992 0.43945-1.1699 0.01-0.35-0.28024-0.11976-0.49023-0.25976 0.27 0 0.42992-0.34984 0.66992-0.33984 0.24 0.01 0.27125 0.12828 0.28125 0.23828a0.71 0.71 0 0 1-0.12109 0.38086 1 1 0 0 0 0.35156-0.66992c0-0.23-0.33-0.48946-0.25-0.93945v-0.089844c0.09 0.5 0.80859 0.62891 0.80859 1.1289 0 0.5-0.40867 0.39094-0.63867 0.71094 0.26-0.07 0.54883-0.020233 0.54883 0.25976 0 0.26-0.39875 0.4093-0.46875 0.5293a0.34 0.34 0 0 0-0.089843 0.15039c-0.05-0.17 0-0.29992 0-0.41992s-0.10047-0.20117-0.23047-0.20117a0.89 0.89 0 0 0-0.38086 1.2617 0.69 0.69 0 0 1 0.13086-0.52148 0.36 0.36 0 0 0 0.080078-0.24023 0.86 0.86 0 0 1 0.12891 0.44141c0 0.34-0.24867 0.40992-0.13867 0.66992 0 0.07 0.050078 0.11898 0.080078 0.20898a1 1 0 0 1 0-0.30859c0-0.08 0.1482-0.24078 0.1582-0.30078a0.44 0.44 0 0 0 0-0.19922 0.65 0.65 0 0 1 0.18164 0.46875 0.85 0.85 0 0 1-0.15039 0.48047 1 1 0 0 0-0.080078 0.26953c-0.07 0.56-0.35094 0.83008-0.71094 0.83008a1 1 0 0 1-0.43945-0.099609c0 0.72-0.83008 0.67062-0.83008 1.1406a0.62 0.62 0 0 0 0.17969 0.37891 3.31 3.31 0 0 1 0.55078 0.37109 0.7 0.7 0 0 0-0.48047 0.18945c0.3 0.15 0.29008 0.31906 0.33008 0.53906-0.29-0.14-0.43-0.06-0.5 0s-3.91e-4 0.22133-0.15039 0.36133c0-0.11-0.12-0.21094-0.25-0.21094a0.68 0.68 0 0 0-0.38867 0.30078 0.27 0.27 0 0 1-0.28125 0.29883 0.38 0.38 0 0 0-0.099609 0.35156c-0.11-0.11-0.12984-0.18086-0.089844-0.38086-0.13 0-0.11031-0.16976-0.070312-0.25976-0.08 0.07-0.15008 0.16031-0.33008 0.070312a0.34 0.34 0 0 0-0.16992 0.25977c0-0.3-3.91e-4 -0.39945 0.099609-0.43945a0.24 0.24 0 0 1 0.13086-0.27148v-0.058593a0.25 0.25 0 0 1-0.2207-0.10156c-0.1 0-0.23 0.10016-0.25 0.16016a0.45 0.45 0 0 1 0.12109-0.39844c0.11-0.23 0.31922-0.27062 0.44922-0.14062a0.7 0.7 0 0 0 0.41992 0.15039 0.52 0.52 0 0 0 0.37109-0.20117 0.38 0.38 0 0 0 0.06836-0.10938c0-0.09 0.11164-0.18992-0.06836-0.41992-0.18-0.23-0.49-0.51977-0.5-0.75977a1 1 0 0 1 0.35938-0.80078h-0.14062c-0.26 0-0.27906-0.16016-0.53906-0.16016a0.34 0.34 0 0 0-0.31055 0.36133 0.5 0.5 0 0 0 0.089844 0.30859 0.53 0.53 0 0 1 0.089844 0.38086 0.41 0.41 0 0 0-0.54883-0.060547 0.53 0.53 0 0 1-0.23047 0.36133 0.37 0.37 0 0 0-0.63086-0.14062c0 0.07-0.059767 0.21875-0.25976 0.21875h-0.16992a0.64 0.64 0 0 0-0.17969 0.26172 0.44 0.44 0 0 1 0.070313-0.36133c0-0.07 7.8e-5 -0.23906 0.080078-0.28906a0.3 0.3 0 0 1-0.41992 0c-0.08 0-0.15047 0.05875-0.23047 0.21875a0.57 0.57 0 0 1 0.16992-0.39844c0-0.12 0.16961-0.2314 0.34961-0.19141v-0.058593s-0.21898-2.35e-4 -0.20898-0.24024a0.27 0.27 0 0 0-0.25976 0.070313 0.37 0.37 0 0 1 0.32812-0.24024c0-0.079998 0.16047-0.089843 0.23047-0.089843a0.21 0.21 0 0 1 0.2207 0.13867 0.75 0.75 0 0 0 0.66992 0.29102 0.25 0.25 0 0 0 0.25-0.25976c0-0.16-0.25976-0.62008-0.25976-0.83008a0.84 0.84 0 0 1 0.61914-0.59961 2.4 2.4 0 0 1 1.1113 0.30859c0.25 0 0.27859-7.8e-5 0.30859-0.080078-0.36-0.45-0.57969-0.43992-0.92969-0.66992a0.76 0.76 0 0 1-0.28906-0.50977c-0.21 0.05-0.40977 0.32977-0.50976 0.50977a0.27 0.27 0 0 0-0.21094-0.13867c-0.17 0-0.28914 0.2182-0.36914 0.4082a0.46 0.46 0 0 0-0.43164-0.4082c-0.14 0-0.29984-0.001328-0.33984 0.13867a0.32 0.32 0 0 1-0.36914 0.17969c-0.08 0-0.13945 0.070782-0.18945 0.30078-0.07-0.29 0-0.34016 0-0.41016a0.28 0.28 0 0 1 0.06836-0.30078c-0.11 0-0.27836 0.001641-0.31836-0.068359s-0.17148-7.8e-5 -0.27148 0.16992a0.46 0.46 0 0 1 0.24023-0.38086 0.32 0.32 0 0 1 0.30078-0.15039v-0.048829a0.26 0.26 0 0 1-0.13086-0.25c-0.09-0.11-0.1993 0-0.2793 0 0.15-0.16 0.32945-0.22039 0.43945-0.15039s0.35086-3.11e-4 0.38086 0.17969c0.03 0.18 0.27883 0.18945 0.54883 0.18945 0.59 0 1.5212-0.55 1.4512-1a0.86 0.86 0 0 0-0.25977 0c-0.32 0-0.71 0.39039-1 0.40039 0.15-0.18-0.001328-0.35047 0.13867-0.48047a3.17 3.17 0 0 1-0.66992 0.070313 0.56 0.56 0 0 0 0.19141-0.36914c0-0.08-0.001562-0.24023-0.35156-0.24023a0.77 0.77 0 0 1-0.19922 0c-0.08 0-0.31055 7.81e-4 -0.31055-0.19922a0.33 0.33 0 0 0-0.32031 0.099609 0.59 0.59 0 0 1 0.33008-0.30078 0.21 0.21 0 0 1 0.19141-0.12891v-0.070313c0-0.069998-0.27148-0.06-0.27148-0.25 0-0.19-0.13836-0.10078-0.31836-0.050781 0.23-0.17 0.30867-0.13914 0.38867-0.11914a0.27 0.27 0 0 1 0.36133 0 0.33 0.33 0 0 1 0-0.30078c0-0.13-0.071406-0.16922-0.19141-0.19922a0.51 0.51 0 0 1 0.45117 0.16016 0.28 0.28 0 0 1 0.24023 0.23828c0 0.24-0.25172 0.41188 0.23828 0.67188a6.28 6.28 0 0 0 0.5918 0.21875 4.25 4.25 0 0 0 0.59961 0.16016c-0.08-0.13-0.001408-0.27039-0.19141-0.40039a2.08 2.08 0 0 1 0.5 0.070312c0-0.19 6.25e-4 -0.19055-0.10938-0.31055h0.34961c0.56 0.06 0.56969-0.22008 0.67969-0.58008a1.66 1.66 0 0 0-0.81836 0.26172 1.29 1.29 0 0 0 0-0.28125 0.19 0.19 0 0 1 0.19922-0.19922h0.17969c0.12 0 0.29094-0.13992 0.21094-0.41992-0.017394-0.060877-0.034559-0.099063-0.050781-0.13086v0.050781a2.7 2.7 0 0 1-1.1406 0.50977 0.31 0.31 0 0 1-0.34961-0.31055c0.04-0.25 0.21992-0.33031 0.41992-0.57031-0.07 0.24-0.058515 0.55078 0.27148 0.55078a2.32 2.32 0 0 0 0.2207-0.052735l-0.050782-0.14648-0.070312-0.15039v-0.060546a0.2 0.2 0 0 1 0.15039-0.2793l0.35937-0.089844c0.2-0.06 0.25883-0.13024 0.29883-0.24024 0.04-0.11 0.07-0.15039 0.25-0.15039h0.4707c0.28 0 0.58047-0.22094 0.48047-0.46094zm-1.8887 1.5781 0.017578 0.052735a0.22 0.22 0 0 1 0.015625-0.060547 2.32 2.32 0 0 1-0.033203 0.007812zm0.033203-0.007812a2.32 2.32 0 0 0 0.52539-0.20117c-0.051884-0.072829-0.10288-0.038526-0.17969-0.017578l-0.23047 0.068359a0.22 0.22 0 0 0-0.11523 0.15039zm0.52539-0.20117c0.006265 0.008793 0.013241 0.018921 0.019532 0.03125v-0.039063a2.32 2.32 0 0 1-0.019532 0.007813zm0.78711-0.86914a4.53 4.53 0 0 0-0.39648 0.021485 0.29 0.29 0 0 0 0 0.25976 0.76 0.76 0 0 0 0.29883-0.099609 1.81 1.81 0 0 0 0.23047-0.18164 4.53 4.53 0 0 0-0.13281 0zm11.893 16.621a178.53 178.53 0 0 0-26.199 1.5098c1.43 8.23 10.84 26.841 26 34.801 0.75-6.16 1.9297-21.192 1.9297-30.842v-3.6797l-0.019532 0.060547-0.91992-0.11914c-0.44-0.05-0.62188-0.28047-0.67188-0.73047-0.049999-0.45-0.11914-1-0.11914-1zm7.6797 0.039063s-0.049375 0.55-0.10938 1c-0.06 0.45-0.23992 0.68047-0.66992 0.73047l-0.88086 0.080079v3.6797c0 9.65 1.25 24.68 2 30.84 15.16-7.96 24.56-26.569 26-34.799a179.49 179.49 0 0 0-26.27-1.5098l-0.070313-0.021484z"/>
</svg>
