<?xml version="1.0" encoding="UTF-8"?>
<svg xmlns="http://www.w3.org/2000/svg" version="1.1" viewBox="0 0 1920 1080">
  <g fill="#65529d">
    <path d="M55.82,410.53v-37.22h1808.35v37.22H55.82Z"/>
    <path d="M1248,554.24c0,24.69,0,49.37,0,74.06s0,49.49,0,74.17c-2.6.75-44.9.99-49.91.31v-231.22c1.05-.1,1.95-.25,2.84-.26,16.34-.01,32.69.05,49.03-.07,2.37-.02,3.51.91,4.67,2.77,18.75,30.27,37.56,60.49,56.36,90.73.84,1.35,1.7,2.67,2.79,4.37.93-1.36,1.61-2.27,2.21-3.23,18.93-30.43,37.88-60.84,56.72-91.33,1.55-2.51,3.21-3.36,6.14-3.33,15.53.16,31.05.08,46.58.08h4.02v231.59h-50.3v-149.75c-.24-.08-.48-.16-.71-.23-21.61,32.71-43.14,65.49-65.18,98.85-4.93-7.03-9.07-13.59-13.37-20.06-4.27-6.42-8.47-12.87-12.71-19.31-4.3-6.53-8.61-13.06-12.92-19.59-4.24-6.43-8.49-12.86-12.73-19.29-4.27-6.48-8.55-12.97-12.82-19.45-.24.07-.48.14-.71.2Z"/>
    <path d="M662.03,620.36c18.87,27.59,37.43,54.74,56.25,82.25-1.09.2-1.71.4-2.33.41-18.21.02-36.42-.03-54.63.08-2.19.01-3.09-1.08-4.09-2.58-15.06-22.51-30.12-45.01-45.22-67.49-3.46-5.15-1.75-4.15-7.73-4.18-10.39-.06-20.78-.02-31.17-.02-1.15,0-2.29,0-3.78,0v73.95h-50.62c-.69-2.3-.89-227-.14-231.42,1.08-.05,2.22-.15,3.35-.15,34.08,0,68.17-.07,102.25.03,14.43.04,28.64,1.8,42.16,7.25,26.15,10.54,41.09,29.79,44.53,57.82,1.67,13.61.85,27.06-3.7,40.09-6.97,19.95-20.95,33.27-39.94,41.76-1.58.71-3.18,1.36-5.2,2.22ZM569.34,583.68c.87.08,1.42.17,1.98.17,17.5,0,35.01.12,52.51-.15,4.48-.07,9.08-.95,13.39-2.24,9.77-2.93,17.09-8.88,20.76-18.73,1.92-5.15,2.12-10.5,1.73-15.89-.86-11.71-6.46-20.25-17.18-25.24-6.57-3.06-13.58-4.22-20.75-4.26-16.57-.09-33.14-.05-49.71-.04-.88,0-1.77.17-2.73.28v66.08Z"/>
    <path d="M62.15,702.88v-231.49c1.15-.07,2.17-.18,3.19-.18,29.3,0,58.6-.15,87.9.04,24.24.16,47.27,5.43,68.15,18.16,28.94,17.65,46.65,43.26,52.31,76.73,5.13,30.3.12,58.88-16.95,84.75-16,24.25-38.71,39.37-66.46,47.17-11.85,3.33-23.97,4.95-36.29,4.96-29.54.02-59.07.01-88.61,0-1.02,0-2.04-.1-3.24-.16ZM113.2,517.45v139.34c.99.06,1.78.15,2.57.15,12.84,0,25.67.13,38.5-.09,4.99-.09,10.06-.52,14.92-1.57,25.26-5.48,42.37-20.26,49.85-45.27,4.55-15.23,4.32-30.68-.18-45.91-4.81-16.23-14.51-28.85-29.23-37.39-10.62-6.17-22.22-9.08-34.41-9.31-13.3-.25-26.6-.08-39.9-.08-.57,0-1.14.07-2.1.13Z"/>
    <path d="M784.57,610.55v92.36h-50.33c-.67-2.55-.94-225.39-.29-231.05,2.43-.71,46.23-.88,50.56-.13v91.03h94.11v-90.83c2.85-.78,46.88-.92,50.77-.22v231.18h-50.1c-.06-.05-.15-.13-.23-.21-.07-.08-.15-.17-.19-.27-.04-.11-.06-.23-.06-.34-.03-.35-.06-.7-.06-1.05-.04-30.01-.08-60.02-.12-90.03,0-.11-.06-.22-.09-.34-2.43-.79-89.8-.96-93.96-.1Z"/>
    <path d="M293.39,471.35h50.91c.05,1.38.14,2.72.14,4.07,0,41.69.02,83.38,0,125.06,0,8.2.61,16.33,2.77,24.27,3.34,12.31,9.73,22.41,21.13,28.82,6,3.38,12.52,5.14,19.31,5.77,7.59.71,15.16.4,22.58-1.56,15.77-4.17,25.83-14.31,30.83-29.66,2.7-8.3,3.47-16.88,3.46-25.56-.01-42.27,0-84.54,0-126.81,0-1.38,0-2.75,0-4.34h50.83c.08,1.12.23,2.12.23,3.13,0,43.09.09,86.18-.04,129.27-.05,15.01-1.98,29.81-7.07,44.03-10.12,28.27-29.88,46.21-58.64,54.3-16.37,4.6-33.1,5.32-49.97,3.89-9.93-.84-19.62-2.77-28.99-6.19-25.74-9.41-42.57-27.44-51.17-53.31-3.4-10.24-5.31-20.79-5.78-31.57-.31-6.99-.48-14-.49-21-.05-39.35-.02-78.7-.02-118.06v-4.55Z"/>
    <path d="M941.95,702.97c33.21-78.04,66.18-155.51,99.2-233.09h47.21c32.99,77.51,66,155.07,99.18,233.02h-53.32c-6.95-17.02-13.99-34.26-21.06-51.58h-98.09c-7.01,17.15-14.05,34.39-21.11,51.65h-52ZM1064.31,531.51c-2.53,4.09-30.13,72.09-30.29,74.47h60.79c-10.24-25-20.34-49.65-30.5-74.47Z"/>
    <path d="M1448.1,664.63c11.91-14.27,23.49-28.14,35.26-42.23,1.89,1.52,3.59,2.9,5.29,4.27,11.37,9.12,23.53,16.84,37.6,21.16,10.94,3.36,22.08,4.84,33.51,3.35,4.67-.61,9.16-1.8,13.18-4.35,6.18-3.93,7.77-9.7,6.06-17.14-.6-2.61-2.32-4.69-4.59-5.97-3.94-2.23-7.88-4.69-12.14-6.1-10.18-3.36-20.51-6.25-30.83-9.16-10.11-2.84-20.2-5.72-29.89-9.82-7.34-3.1-14.33-6.81-20.61-11.77-10.49-8.27-17.19-18.93-19.99-31.99-3.1-14.43-2.95-28.78,1.89-42.83,6.66-19.35,20.04-32.58,38.44-40.87,15.88-7.15,32.66-9.14,49.93-8.13,14.43.84,28.44,3.53,41.99,8.61,14.23,5.34,27.12,12.98,38.79,22.7.26.22.47.5,1.04,1.12-10.07,14.85-20.39,29.6-30.76,44.68-1.98-1.36-3.68-2.55-5.41-3.71-10.79-7.27-22.05-13.6-34.62-17.29-8.81-2.58-17.74-3.98-26.95-2.63-3.97.58-7.7,1.76-11.19,3.77-8.85,5.1-8.3,18.94-.39,23.21,3.68,1.99,7.41,4.07,11.37,5.32,10.33,3.27,20.79,6.16,31.22,9.09,12.37,3.47,24.59,7.34,36.04,13.3,8.68,4.52,16.51,10.11,22.83,17.68,7.74,9.28,11.73,20.13,12.8,32.01,1.19,13.17.1,26.12-5.03,38.51-7.37,17.81-20.55,29.74-37.99,37.23-10.93,4.69-22.42,7.05-34.28,7.87-27.93,1.91-54.3-3.66-79.19-16.34-11.5-5.86-21.95-13.29-31.51-21.97-.52-.47-1.06-.9-1.88-1.59ZM1587.42,574.58c-1.84-.73-3.2-1.35-4.62-1.81-6.11-1.95-12.21-3.92-18.35-5.74-11.06-3.28-22.18-6.35-33.21-9.72-5.03-1.54-9.67-3.97-14.03-7-11.18-7.77-11.87-27.08-.83-35.78,4.03-3.17,8.54-5.21,13.49-6.35,10.48-2.42,20.86-1.47,31.16,1.09,12.82,3.18,24.46,9.01,35.59,15.99,1.05.66,2.11,1.32,3.31,2.06,7-10.15,13.79-20.02,20.55-29.83-.46-.54-.65-.85-.92-1.06-1.03-.77-2.06-1.53-3.12-2.25-21.74-14.9-45.91-21.84-72.15-22.07-13.57-.12-26.76,1.84-39.2,7.47-15.9,7.2-27.59,18.53-33.48,35.26-3.68,10.45-4.14,21.25-2.77,32.14,1.63,12.89,6.83,23.99,17.25,32.12,3.57,2.78,7.46,5.22,11.43,7.39,8.01,4.38,16.62,7.37,25.37,9.91,13.31,3.88,26.67,7.59,40.02,11.35.2.06.45-.06.99-.14,7.64-10.74,15.41-21.65,23.52-33.05ZM1572.54,611.49c2.5,1.59,4.77,2.99,7,4.45,12.92,8.51,12.04,28.64.54,37.15-5.61,4.15-11.94,6.24-18.74,7.16-2.74.37-5.49.6-8.28.9v34.12c.64.11,1.09.26,1.54.25,13.08-.26,25.76-2.49,37.78-7.82,14.42-6.4,25.44-16.36,31.73-31.07,4.26-9.97,5.47-20.46,4.98-31.19-.79-17.35-7.97-31.22-22.56-40.95-3.27-2.18-6.74-4.06-10.39-6.24-8.01,11.29-15.76,22.2-23.6,33.23ZM1461.04,663.53c14.09,11.69,29.45,20.05,46.42,25.45,11.67,3.71,23.6,6.01,35.99,6.43v-34.83c-22.43-1.89-41.38-11.66-58.82-25.29-7.93,9.5-15.62,18.71-23.59,28.25Z"/>
    <path d="M1650.82,465.85h58.97c0,1.53,0,2.89,0,4.25,0,42.86-.03,85.71.02,128.57.01,8.56,1.02,17.01,4.03,25.1,5.53,14.85,16.24,23.2,31.86,25.41,7.01.99,13.95.78,20.87-.71,13.65-2.95,22.89-11.01,27.82-24.04,2.76-7.3,3.77-14.91,3.8-22.66.04-8.64.04-17.28.04-25.92,0-35.15,0-70.3,0-105.45v-4.05c2.76-.81,52.22-1.1,58.85-.4.09.81.28,1.69.28,2.57,0,44.49.11,88.98-.06,133.47-.05,14.3-2.16,28.39-6.97,41.94-10.71,30.21-31.88,49-62.74,56.96-14.46,3.73-29.19,4.72-44.1,3.71-11.71-.79-23.16-2.74-34.17-6.85-27.05-10.08-44.33-29.35-52.86-56.71-4.1-13.15-5.67-26.67-5.67-40.4,0-28.61,0-57.22,0-85.83,0-14.95,0-29.89,0-44.84v-4.12ZM1749.32,659.06c-1.96-.3-3.79-.57-5.61-.85-17.91-2.81-30.66-12.33-37.72-29.16-4.08-9.74-5.37-20-5.38-30.47-.01-39.7,0-79.39,0-119.09,0-1.37,0-2.73,0-4.02-4.62-.76-37.96-.56-40.51.21-.03.52-.1,1.09-.1,1.66.01,42.38-.08,84.76.11,127.14.05,11.82,1.84,23.49,5.49,34.79,7.36,22.84,21.66,39.43,44.04,48.67,10.89,4.49,22.3,6.69,34.02,7.39,1.82.11,3.66.02,5.66.02v-36.29ZM1758.82,695.34c1.52,0,2.68.05,3.83,0,8.06-.41,16.01-1.59,23.8-3.7,27.07-7.33,45.65-23.93,55.08-50.53,4.78-13.47,6.56-27.45,6.62-41.63.15-40.51.06-81.02.04-121.53,0-.89-.17-1.77-.27-2.67h-40.33v4.35c0,39.81,0,79.62,0,119.43,0,7.73-.63,15.4-2.7,22.87-5.45,19.69-17.89,32.03-38.2,35.94-2.59.5-5.22.78-7.87,1.17v36.3Z"/>
  </g>
</svg>
