<?xml version="1.0" encoding="UTF-8"?>
<svg version="1.1" viewBox="0 0 1840 365" xmlns="http://www.w3.org/2000/svg">
  <title>Durham Students' Union</title>
  <path fill="#614e9b" d="m15.824 15.811v37.219h1808.4v-37.219h-1808.4zm1488.9 89.506c-14.998-0.19797-29.582 2.107-43.476 8.3633-18.4 8.29-31.78 21.521-38.44 40.871-4.84 14.05-4.9906 28.4-1.8906 42.83 2.8 13.06 9.5002 23.718 19.99 31.988 6.28 4.96 13.269 8.6715 20.609 11.771 9.69 4.1 19.781 6.9803 29.891 9.8203 10.32 2.91 20.65 5.7982 30.83 9.1582 4.26 1.41 8.1987 3.8716 12.139 6.1016 2.27 1.28 3.9918 3.3588 4.5918 5.9688 1.71 7.44 0.1194 13.211-6.0606 17.141-4.02 2.55-8.5097 3.7396-13.18 4.3496-11.43 1.49-22.57 0.01038-33.51-3.3496-14.07-4.32-26.232-12.04-37.602-21.16-1.7-1.37-3.3991-2.7495-5.2891-4.2695-11.769 14.089-23.348 27.959-35.258 42.229 0.8115 0.68253 1.3504 1.1149 1.8672 1.582 9.56 8.68 20.01 16.109 31.51 21.969 24.89 12.68 51.261 18.25 79.191 16.34 11.86-0.82 23.349-3.1791 34.279-7.8691 17.44-7.49 30.62-19.42 37.99-37.23 5.13-12.39 6.2193-25.34 5.0293-38.51-1.07-11.88-5.0588-22.73-12.799-32.01-6.32-7.57-14.15-13.16-22.83-17.68-11.45-5.96-23.671-9.8308-36.041-13.301-10.43-2.93-20.889-5.8198-31.219-9.0898-3.96-1.25-7.6911-3.3303-11.371-5.3203-7.9099-4.27-8.4593-18.109 0.3907-23.209 3.49-2.01 7.2194-3.1915 11.189-3.7715 9.21-1.35 18.139 0.05086 26.949 2.6309 12.57 3.69 23.831 10.019 34.621 17.289 1.73 1.16 3.4302 2.3509 5.4102 3.7109 10.37-15.08 20.69-29.83 30.76-44.68-0.57-0.62-0.7811-0.9011-1.0411-1.1211-11.67-9.72-24.559-17.359-38.789-22.699-13.55-5.08-27.56-7.7694-41.99-8.6094-2.1587-0.12625-4.3104-0.20609-6.4531-0.23437zm-96.654 201.81c-5e-3 -0.00426-0.0066-0.0055-0.0117-0.00977l0.0098 0.01172 0.0019-0.00195zm378.1-199.04c-13.539 0.08625-26.595 0.36063-27.975 0.76563v4.0508 105.45c0 8.64 9e-4 17.28-0.0391 25.92-0.03 7.75-1.0408 15.36-3.8008 22.66-4.93 13.03-14.17 21.091-27.82 24.041-6.92 1.49-13.859 1.699-20.869 0.70899-15.62-2.21-26.329-10.56-31.859-25.41-3.01-8.09-4.0212-16.54-4.0312-25.1-0.05-42.86-0.0196-85.71-0.0196-128.57v-4.25h-58.971-0.0293v4.1211 44.84 85.83c0 13.73 1.5699 27.25 5.6699 40.4 8.53 27.36 25.809 46.629 52.859 56.709 11.01 4.11 22.46 6.0596 34.17 6.8496 14.91 1.01 29.642 0.02101 44.102-3.709 30.86-7.96 52.03-26.751 62.74-56.961 4.81-13.55 6.9188-27.639 6.9688-41.939 0.17-44.49 0.0605-88.981 0.0605-133.47 0-0.88-0.1893-1.7603-0.2793-2.5703-3.315-0.35-17.338-0.45149-30.877-0.36524zm-785.05 4.2969c-33.02 77.58-65.989 155.05-99.199 233.09h0.00976 52c7.06-17.26 14.099-34.5 21.109-51.65h98.09c7.07 17.32 14.11 34.56 21.06 51.58h53.32c-33.18-77.95-66.19-155.51-99.18-233.02h-47.211zm-931.86 1.2773c-14.65 0.01375-29.299 0.05274-43.949 0.05274-1.02 0-2.0414 0.10969-3.1914 0.17968v231.47c1.2 0.05999 2.2202 0.16015 3.2402 0.16015 29.54 0.01 59.071 0.02 88.611 0 12.32-0.01 24.439-1.629 36.289-4.959 27.75-7.8 50.461-22.92 66.461-47.17 17.07-25.87 22.079-54.45 16.949-84.75-5.66-33.47-23.371-59.08-52.311-76.73-20.88-12.73-43.91-18-68.15-18.16-14.65-0.095-29.299-0.10555-43.949-0.0918zm412.63 0.05274c-1.13 0-2.2716 0.09844-3.3516 0.14844-0.75 4.42-0.54938 229.12 0.14062 231.42h50.621v-73.949h3.7793c10.39 0 20.78-0.04047 31.17 0.01953 5.98 0.03 4.2705-0.97031 7.7305 4.1797 15.1 22.48 30.159 44.98 45.219 67.49 0.99999 1.5 1.8998 2.5901 4.0898 2.5801 18.21-0.11 36.421-0.06008 54.631-0.08008 0.62-0.01 1.2401-0.21016 2.3301-0.41015-18.817-27.505-37.374-54.651-56.24-82.236 2.0094-0.85525 3.6056-1.5055 5.1797-2.2129 18.99-8.49 32.969-21.81 39.939-41.76 4.55-13.03 5.3712-26.48 3.7012-40.09-3.44-28.03-18.379-47.28-44.529-57.82-13.52-5.45-27.73-7.21-42.16-7.25-34.08-0.1-68.17-0.02929-102.25-0.02929zm856.93 0c-2.93-0.03-4.5907 0.82008-6.1407 3.3301-18.84 30.49-37.791 60.898-56.721 91.328-0.6 0.96-1.2789 1.8705-2.2089 3.2305-1.09-1.7-1.9511-3.0191-2.7911-4.3691-18.8-30.24-37.609-60.46-56.359-90.73-1.16-1.86-2.3-2.7895-4.67-2.7695-16.34 0.12-32.689 0.06031-49.029 0.07031-0.89 0.01-1.7898 0.15977-2.8398 0.25977v231.22c5.01 0.68 47.31 0.4414 49.91-0.3086v-74.17-74.051c0.23-0.06 0.4689-0.12922 0.7089-0.19922 4.27 6.48 8.5504 12.969 12.82 19.449 4.24 6.43 8.4904 12.861 12.73 19.291 4.31 6.53 8.62 13.06 12.92 19.59 4.24 6.44 8.439 12.889 12.709 19.309 4.3 6.47 8.4411 13.031 13.371 20.061 22.04-33.36 43.57-66.14 65.18-98.85 0.23 0.07 0.469 0.15047 0.709 0.23047v149.75h50.301v-231.59h-4.0196c-15.53 0-31.05 0.07992-46.58-0.08008zm-620.33 0.03711c-11.795 0.0375-23.353 0.25633-24.568 0.61133-0.65 5.66-0.38094 228.5 0.28906 231.05h50.33v-92.359h0.01172c4.16-0.86 91.529-0.69039 93.959 0.09961 0.03 0.12 0.08985 0.22984 0.08985 0.33984l0.12109 90.029c0 0.35 0.02859 0.70078 0.05859 1.0508 0 0.11 0.02055 0.22985 0.06055 0.33985 0.04 0.1 0.11945 0.18953 0.18945 0.26953 0.08 0.08 0.17047 0.16094 0.23047 0.21093h50.1v-231.18c-3.89-0.7-47.92-0.56125-50.77 0.21875v90.83h-94.109v-91.029c-2.165-0.375-14.197-0.51992-25.992-0.48242zm-465.11 0.10156v4.5508c0 39.36-0.02851 78.711 0.02149 118.06 0.01 7 0.18023 14.01 0.49023 21 0.47 10.78 2.3793 21.328 5.7793 31.568 8.6 25.87 25.43 43.901 51.17 53.311 9.37 3.42 19.06 5.3495 28.99 6.1895 16.87 1.43 33.601 0.71132 49.971-3.8887 28.76-8.09 48.519-26.031 58.639-54.301 5.09-14.22 7.0203-29.019 7.0703-44.029 0.13-43.09 0.04102-86.18 0.04102-129.27 0-1.01-0.15047-2.0109-0.23047-3.1309h-50.83v4.3398c0 42.27-0.01 84.541 0 126.81 0.01 8.68-0.76094 17.259-3.4609 25.559-5 15.35-15.06 25.49-30.83 29.66-7.42 1.96-14.99 2.2705-22.58 1.5605-6.79-0.63-13.309-2.3895-19.309-5.7695-11.4-6.41-17.791-16.51-21.131-28.82-2.16-7.94-2.7695-16.07-2.7695-24.27 0.02-41.68 0-83.371 0-125.06 0-1.35-0.09062-2.6903-0.14062-4.0703h-50.891zm1250.9 0.75977c26.24 0.22999 50.41 7.1703 72.15 22.07 1.06 0.72 2.0892 1.48 3.1192 2.25 0.27 0.21 0.4599 0.52054 0.9199 1.0605-6.76 9.81-13.549 19.68-20.549 29.83-1.2-0.74-2.2605-1.4006-3.3105-2.0605-11.13-6.98-22.77-12.81-35.59-15.99-10.3-2.56-20.68-3.5098-31.16-1.0898-4.95 1.14-9.4602 3.1796-13.49 6.3496-11.04 8.7-10.35 28.011 0.83 35.781 4.36 3.03 8.9993 5.46 14.029 7 11.03 3.37 22.151 6.4388 33.211 9.7188 6.14 1.82 12.24 3.7902 18.35 5.7402 1.4165 0.45886 2.7763 1.079 4.6094 1.8066-8.1058 11.394-15.874 22.298-23.51 33.033-0.54 0.07999-0.7902 0.20062-0.9902 0.14062-13.35-3.76-26.71-7.4696-40.02-11.35-8.75-2.54-17.359-5.5302-25.369-9.9102-3.97-2.17-7.8597-4.6106-11.43-7.3906-10.42-8.13-15.62-19.229-17.25-32.119-1.37-10.89-0.9105-21.691 2.7695-32.141 5.89-16.73 17.58-28.06 33.48-35.26 12.44-5.63 25.629-7.5907 39.199-7.4707zm135.29 2.8926c9.2312-0.05125 18.721 0.08875 21.031 0.46875v4.0195c0 39.7-0.01 79.39 0 119.09 0.01 10.47 1.2989 20.731 5.3789 30.471 7.06 16.83 19.811 26.35 37.721 29.16 1.82 0.28 3.6494 0.54961 5.6094 0.84961v36.289c-2 0-3.8401 0.09047-5.6601-0.01953-11.72-0.7-23.13-2.9006-34.02-7.3906-22.38-9.24-36.679-25.83-44.039-48.67-3.65-11.3-5.4403-22.969-5.4903-34.789-0.19-42.38-0.0993-84.761-0.1093-127.14 0-0.57 0.0696-1.1402 0.0996-1.6602 1.275-0.385 10.247-0.62649 19.478-0.67774zm128.01 0.27735h40.33c0.1 0.9 0.2695 1.7799 0.2695 2.6699 0.02 40.51 0.109 81.021-0.041 121.53-0.06 14.18-1.8391 28.159-6.6191 41.629-9.43 26.6-28.01 43.201-55.08 50.531-7.79 2.11-15.741 3.2892-23.801 3.6992-1.15 0.05-2.3101 0-3.8301 0v-36.299c2.65-0.39 5.2811-0.67188 7.8711-1.1719 20.31-3.91 32.749-16.249 38.199-35.939 2.07-7.47 2.7012-15.139 2.7012-22.869v-119.43-4.3516zm-1672.3 41.986c6.65-0.01124 13.299 0.00977 19.949 0.13477 12.19 0.23 23.79 3.1406 34.41 9.3106 14.72 8.54 24.42 21.159 29.23 37.389 4.5 15.23 4.7297 30.68 0.17969 45.91-7.48 25.01-24.59 39.79-49.85 45.27-4.86 1.05-9.9299 1.4803-14.92 1.5703-12.83 0.22-25.66 0.08984-38.5 0.08984-0.79 0-1.5803-0.08843-2.5703-0.14843v-139.34h0.019531c0.96-0.06 1.5296-0.12891 2.0996-0.12891 6.65 0 13.301-0.04344 19.951-0.05469zm436.8 0.03516c16.57-0.01 33.141-0.05094 49.711 0.03906 7.17 0.04 14.18 1.1998 20.75 4.2598 10.72 4.99 16.32 13.53 17.18 25.24 0.39 5.39 0.18953 10.741-1.7305 15.891-3.67 9.85-10.99 15.8-20.76 18.73-4.31 1.29-8.9087 2.1683-13.389 2.2383-17.5 0.27-35.012 0.15039-52.512 0.15039-0.56 0-1.1085-0.08992-1.9785-0.16992v-0.01953-66.08c0.96-0.11 1.8485-0.2793 2.7285-0.2793zm492.24 14.209c10.16 24.82 20.26 49.471 30.5 74.471h-60.789c0.16-2.38 27.759-70.381 30.289-74.471zm531.83 46.74c3.65 2.18 7.1207 4.0602 10.391 6.2402 14.59 9.73 21.77 23.599 22.56 40.949 0.49 10.73-0.7205 21.221-4.9805 31.191-6.29 14.71-17.31 24.668-31.73 31.068-12.02 5.33-24.699 7.5603-37.779 7.8203-0.45 0.01-0.901-0.14-1.541-0.25v-34.119c2.79-0.3 5.5412-0.53039 8.2812-0.90039 6.8-0.92 13.13-3.0102 18.74-7.1602 11.5-8.51 12.379-28.64-0.541-37.15-2.23-1.46-4.5-2.8592-7-4.4492v-0.00976c7.84-11.03 15.59-21.94 23.6-33.23zm-111.51 57.041c17.44 13.63 36.39 23.399 58.82 25.289v34.83c-12.39-0.42-24.32-2.7197-35.99-6.4297-16.968-5.3993-32.326-13.76-46.414-25.447 7.9677-9.5373 15.656-18.745 23.584-28.242z"/>
</svg>
