<?xml version="1.0" encoding="UTF-8" standalone="no"?>
<svg
   id="Layer_1"
   data-name="Layer 1"
   viewBox="0 0 46.9292 57.828956"
   version="1.1"
   xml:space="preserve"
   width="46.929199"
   height="57.828957"
   xmlns="http://www.w3.org/2000/svg"
   xmlns:svg="http://www.w3.org/2000/svg"><defs
     id="defs1"><style
       id="style1">
      .cls-1 {
        fill: #fff;
      }
    </style></defs><path
     class="cls-1"
     d="M 0,0 V 46.9277 H 46.929201 V 0 Z m 23.504201,39.8061 c -8.8751,0 -16.362401,-7.0511 -16.362401,-16.2832 0,-9.2321 7.471501,-16.4012 16.362401,-16.4012 5.1537,0 10.1505,2.4142 13.4385,7.3275 l -3.6522,2.4574 c -2.2991,-2.8518 -5.9038,-5.0314 -9.7863,-5.0314 -6.3385,0 -11.6089,4.873 -11.6089,11.6477 0,6.4983 5.0242,11.5297 11.4894,11.5297 4.696,0 8.757,-2.5754 10.7767,-6.4983 l -11.0934,-3.5644 V 23.523 h 16.7194 c 0,9.0737 -8.0818,16.2832 -16.2832,16.2832 z"
     id="path1" /><g
     id="g7"
     transform="matrix(0.21007156,0,0,0.21007156,-12.618751,49.726959)"
     style="stroke-width:4.76029"><path
       class="cls-1"
       d="m 184.8314,9.2122 -0.1509,-0.3875 h -5.2463 l -0.1522,0.3847 -11.1199,28.1008 -0.3296,0.8325 h 4.5691 l 0.1485,-0.3936 2.9269,-7.7561 12.9192,-4e-4 2.925,7.7562 0.1484,0.394 h 4.6419 L 195.7879,37.313 184.8314,9.2123 Z m 2.1772,17.1165 -10.1121,4e-4 5.1069,-13.5436 -0.1463,-3e-4 z"
       id="path2"
       style="stroke-width:4.76029" /><path
       class="cls-1"
       d="m 76.8644,25.4805 c 1.6036,-0.579 2.9153,-1.5123 3.906,-2.781 1.1385,-1.4576 1.7158,-3.198 1.7158,-5.1728 0,-2.569 -0.8983,-4.6914 -2.6695,-6.3084 C 78.0581,9.6219 75.7381,8.813 72.9203,8.813 H 60.0693 V 38.131 H 64.379 V 26.126 h 8.1206 l 5.534,11.6574 0.1652,0.3476 h 4.7681 l -0.421,-0.8731 -5.6815,-11.7773 z m -12.49,-12.7443 h 8.3035 c 1.6832,0 3.0389,0.4711 4.0291,1.3547 0.9725,0.8641 1.465,2.0343 1.465,3.4791 0,1.4355 -0.4793,2.5609 -1.465,3.4403 -0.9904,0.8838 -2.3458,1.332 -4.0291,1.332 h -8.3035 z"
       id="path3"
       style="stroke-width:4.76029" /><path
       class="cls-1"
       d="m 235.3898,15.5778 c 0.927,-0.9816 2.0489,-1.766 3.3364,-2.3329 1.2989,-0.5734 2.662,-0.852 4.1685,-0.852 1.5187,0 3.0149,0.332 4.4464,0.9868 1.4412,0.6601 2.6662,1.5789 3.64,2.7309 l 0.4358,0.5153 0.4676,-0.4865 2.0451,-2.1267 0.3904,-0.4059 -0.3744,-0.4207 c -1.3621,-1.5303 -3.0267,-2.7299 -4.9476,-3.5657 -1.8867,-0.8208 -3.9973,-1.2547 -6.1033,-1.2547 -2.0834,0 -4.0553,0.3945 -5.8608,1.1726 -1.8036,0.7785 -3.3934,1.8564 -4.726,3.2041 -1.3326,1.3477 -2.3958,2.9664 -3.1604,4.8113 -0.7637,1.8526 -1.1505,3.8423 -1.1505,5.9153 0,2.0716 0.3871,4.0538 1.1508,5.8919 0.7606,1.8251 1.8159,3.4363 3.1368,4.7893 1.3184,1.3469 2.9091,2.4318 4.7289,3.2248 1.8288,0.7917 3.8072,1.1928 5.8813,1.1928 2.0822,0 4.0959,-0.4225 5.9858,-1.2559 1.8851,-0.8313 3.5606,-2.0275 4.9795,-3.5551 l 0.3954,-0.4256 -0.4069,-0.4148 -2.0064,-2.0453 -0.4726,-0.4818 -0.4306,0.5196 c -0.9552,1.1525 -2.1516,2.0545 -3.5562,2.6809 -1.4091,0.631 -2.8913,0.9508 -4.4062,0.9508 h -0.3412 c -1.3897,-0.0399 -2.6975,-0.3245 -3.892,-0.8475 -1.2939,-0.5659 -2.422,-1.3505 -3.353,-2.332 -0.9332,-0.9816 -1.6809,-2.166 -2.2228,-3.5205 -0.5461,-1.3545 -0.8226,-2.8247 -0.8226,-4.3713 0,-1.5466 0.2765,-3.0168 0.8219,-4.3698 0.5426,-1.3564 1.2903,-2.5406 2.223,-3.5215 z"
       id="path4"
       style="stroke-width:4.76029" /><polygon
       class="cls-1"
       points="282.8559,8.813 279.7637,8.813 279.1551,8.813 279.1551,9.4216 279.1551,21.3769 264.0583,21.3769 264.0583,9.4216 264.0583,8.813 263.4497,8.813 260.3573,8.813 259.7487,8.813 259.7487,9.4216 259.7487,37.5224 259.7487,38.131 260.3573,38.131 263.4497,38.131 264.0583,38.131 264.0583,37.5224 264.0583,25.3662 279.1551,25.3662 279.1551,37.5224 279.1551,38.131 279.7637,38.131 282.8559,38.131 283.4646,38.131 283.4646,37.5224 283.4646,9.4216 283.4646,8.813 "
       id="polygon4"
       style="stroke-width:4.76029" /><path
       class="cls-1"
       d="m 135.4035,24.0642 c -1.4462,-1.274 -3.7336,-2.1997 -6.7985,-2.7516 l -4.5037,-0.7658 c -1.7602,-0.2786 -3.0239,-0.7332 -3.7621,-1.3526 -0.6893,-0.5809 -1.0248,-1.3743 -1.0248,-2.4247 0,-1.2584 0.5399,-2.2892 1.6508,-3.1513 1.1415,-0.889 2.6365,-1.3394 4.444,-1.3394 1.5499,0 3.1223,0.2852 4.6737,0.8477 1.5553,0.5649 3.0501,1.3747 4.4426,2.4067 l 0.5141,0.3811 0.3547,-0.5325 1.605,-2.4088 0.3279,-0.4921 -0.4821,-0.3418 c -1.7677,-1.2537 -3.6067,-2.1932 -5.466,-2.7924 -1.838,-0.5935 -3.8596,-0.8945 -6.0082,-0.8945 -2.9733,0 -5.4409,0.8035 -7.3346,2.3879 -1.9289,1.616 -2.9067,3.7185 -2.9067,6.2495 0,2.0428 0.6661,3.6993 1.9802,4.9232 1.2743,1.1876 3.276,2.0288 5.9493,2.5007 l 4.5386,0.7654 c 2.1613,0.3816 3.697,0.9211 4.5599,1.6027 0.8039,0.6363 1.1947,1.5307 1.1947,2.7339 0,1.4181 -0.6181,2.5792 -1.8896,3.5495 -1.3021,0.9955 -2.9878,1.5002 -5.0104,1.5002 -1.7232,0 -3.3064,-0.3196 -4.7056,-0.9501 -1.4104,-0.6361 -2.955,-1.7341 -4.5909,-3.2637 l -0.4689,-0.4384 -0.413,0.4917 -1.8858,2.2461 -0.0504,0.0597 -0.0333,0.0704 -0.1907,0.4015 0.3198,0.3133 c 1.7644,1.653 3.6421,2.9018 5.5817,3.7116 1.9557,0.8175 4.0943,1.2321 6.3555,1.2321 1.5944,0 3.0891,-0.2256 4.4432,-0.6707 1.3754,-0.4515 2.58,-1.0802 3.5803,-1.8687 1.0119,-0.799 1.8162,-1.7713 2.3908,-2.8903 0.5775,-1.1299 0.87,-2.3582 0.87,-3.6522 0,-2.2625 -0.7575,-4.0772 -2.2513,-5.3933 z"
       id="path5"
       style="stroke-width:4.76029" /><path
       class="cls-1"
       d="m 218.1257,25.4809 c 1.6022,-0.578 2.9139,-1.5112 3.9058,-2.7812 1.1385,-1.4577 1.7158,-3.1982 1.7158,-5.1729 0,-2.5689 -0.898,-4.6914 -2.6693,-6.3082 -1.7591,-1.5965 -4.0789,-2.4055 -6.8964,-2.4055 h -12.8511 v 29.318 h 4.3098 v -12.005 h 8.1202 l 5.5341,11.6574 0.1651,0.3476 h 4.7683 L 223.807,37.258 218.1256,25.481 Z M 205.6355,12.7592 h 8.3036 c 1.6833,0 3.0389,0.4481 4.0291,1.3317 0.9724,0.8641 1.465,2.0343 1.465,3.4791 0,1.4354 -0.4793,2.5606 -1.465,3.4405 -0.9904,0.8836 -2.3458,1.3318 -4.0291,1.3318 h -8.3036 z"
       id="path6"
       style="stroke-width:4.76029" /><polygon
       class="cls-1"
       points="93.8694,34.2229 93.8694,25.2848 107.5063,25.2848 108.115,25.2848 108.115,24.6761 108.115,21.9856 108.115,21.3769 107.5063,21.3769 93.8694,21.3769 93.8694,12.7208 108.3061,12.7208 108.9148,12.7208 108.9148,12.1121 108.9148,9.4216 108.9148,8.813 108.3061,8.813 90.1686,8.813 89.5599,8.813 89.5599,9.4216 89.5599,37.5224 89.5599,38.131 90.1686,38.131 108.4694,38.131 109.0781,38.131 109.0781,37.5224 109.0781,34.8316 109.0781,34.2229 108.4694,34.2229 "
       id="polygon6"
       style="stroke-width:4.76029" /><polygon
       class="cls-1"
       points="148.1452,34.2229 148.1452,25.2848 161.7821,25.2848 162.3908,25.2848 162.3908,24.6761 162.3908,21.9856 162.3908,21.3769 161.7821,21.3769 148.1452,21.3769 148.1452,12.7208 162.5819,12.7208 163.1906,12.7208 163.1906,12.1121 163.1906,9.4216 163.1906,8.813 162.5819,8.813 144.4444,8.813 143.8357,8.813 143.8357,9.4216 143.8357,37.5224 143.8357,38.131 144.4444,38.131 162.7453,38.131 163.3539,38.131 163.3539,37.5224 163.3539,34.8316 163.3539,34.2229 162.7453,34.2229 "
       id="polygon7"
       style="stroke-width:4.76029" /></g></svg>
