<svg viewBox="0 0 19.477 24" xmlns="http://www.w3.org/2000/svg">
  <path d="m0 0v19.476h19.477v-19.476zm9.7547 2.9554c2.1389 0 4.2131 1.0022 5.5777 3.0413l-1.5158 1.0197c-0.95418-1.1836-2.4505-2.0881-4.0619-2.0881-2.6306 0-4.8182 2.0227-4.8182 4.8344 0 2.6969 2.0855 4.7849 4.7687 4.7849 1.9489 0 3.6346-1.0687 4.4728-2.6968l-4.6042-1.4793v-0.60875h6.9387c0 3.7658-3.3541 6.7579-6.7579 6.7579-3.6834 0-6.7903-2.9264-6.7903-6.7579 0-3.8315 3.1004-6.8073 6.7903-6.8073zm6.1848 18.412c-0.18164 0-0.35326 0.0343-0.51067 0.10214-0.15725 0.06787-0.29641 0.16216-0.41259 0.27965-0.11618 0.1175-0.20813 0.25823-0.27479 0.41908-0.06658 0.16152-0.10051 0.3348-0.10051 0.51554 0 0.18061 0.03393 0.35366 0.10051 0.51392 0.06631 0.15912 0.15801 0.29949 0.27317 0.41746 0.11494 0.11743 0.25393 0.21214 0.41259 0.28128 0.15944 0.069024 0.33146 0.10376 0.51229 0.10376 0.18154 0 0.35725-0.03677 0.52202-0.10943 0.16435-0.07248 0.31077-0.17646 0.43448-0.30965l0.03405-0.03729-0.03567-0.03567-0.17509-0.17833-0.04053-0.04215-0.0381 0.04539c-0.08328 0.10048-0.18719 0.17884-0.30965 0.23345-0.12285 0.05501-0.25214 0.08268-0.38422 0.08268h-0.02999c-0.12116-0.0035-0.23468-0.02817-0.33883-0.07376-0.11281-0.04934-0.21146-0.11789-0.29262-0.20346-0.08136-0.08558-0.14649-0.18831-0.19373-0.3064-0.04761-0.11809-0.07214-0.24695-0.07214-0.38179 0-0.13484 0.02459-0.26302 0.07214-0.38098 0.04731-0.11826 0.11241-0.22088 0.19373-0.3064 0.08082-0.08558 0.17875-0.15403 0.291-0.20346 0.11324-0.04999 0.2318-0.07457 0.36314-0.07457 0.13241 0 0.26266 0.02883 0.38746 0.08592 0.12565 0.05755 0.23285 0.13788 0.31775 0.23831l0.0381 0.04458 0.04053-0.04215 0.17833-0.18563 0.03404-0.03486-0.03242-0.03729c-0.11875-0.13342-0.26376-0.23759-0.43124-0.31046-0.16449-0.07156-0.34895-0.10943-0.53256-0.10943zm-10.246 0.0073c-0.25923 0-0.47446 0.07019-0.63956 0.20832-0.16817 0.14089-0.25372 0.32405-0.25372 0.54472 0 0.1781 0.058087 0.32291 0.17266 0.42961 0.1111 0.10354 0.28571 0.17691 0.51878 0.21805l0.39557 0.06647c0.18843 0.03327 0.32277 0.08 0.398 0.13942 0.070088 0.05548 0.10376 0.13422 0.10376 0.23912 0 0.12364-0.053695 0.22424-0.16455 0.30884-0.11352 0.08679-0.26057 0.13132-0.43691 0.13132-0.15024 0-0.28817-0.02852-0.41016-0.08349-0.12296-0.05546-0.25781-0.15116-0.40043-0.28452l-0.04053-0.0381-0.036476 0.04296-0.16455 0.19616-0.00405 0.0049-0.00324 0.0065-0.016212 0.03486 0.02756 0.02756c0.15383 0.14412 0.31806 0.25282 0.48717 0.32343 0.17051 0.07127 0.35649 0.107 0.55363 0.107 0.13901 0 0.26941-0.01956 0.38746-0.05836 0.11991-0.03937 0.22487-0.09418 0.31208-0.16293 0.088222-0.06966 0.15823-0.15453 0.20832-0.25209 0.050349-0.09851 0.076196-0.20494 0.076196-0.31775 0-0.19726-0.065927-0.35621-0.19616-0.47095-0.12609-0.11114-0.32534-0.19107-0.59255-0.23919l-0.39314-0.06728c-0.15346-0.02429-0.26393-0.06353-0.32829-0.11754-0.060096-0.05065-0.089165-0.11999-0.089165-0.21156 0-0.10971 0.047433-0.19963 0.14429-0.27479 0.099521-0.07751 0.22988-0.11673 0.38746-0.11673 0.13513 0 0.27166 0.02472 0.40692 0.07376 0.1356 0.04925 0.26606 0.11997 0.38746 0.20994l0.045393 0.03323 0.030803-0.0462 0.13942-0.20994 0.029181-0.04296-0.042151-0.02999c-0.15411-0.1093-0.31453-0.19093-0.47663-0.24318-0.16024-0.051745-0.33632-0.078628-0.52364-0.078628zm-5.6936 0.03161v2.5558h0.37611v-1.0465h0.70765l0.4823 1.0165 0.014591 0.02999h0.41583l-0.036477-0.075382-0.49608-1.027c0.13981-0.05048 0.25489-0.13176 0.34126-0.24237 0.09926-0.12708 0.14915-0.27933 0.14915-0.4515 0-0.22398-0.078219-0.4086-0.23264-0.54958-0.15332-0.13918-0.35579-0.20994-0.60146-0.20994zm2.5712 0v2.5558h1.7014v-0.34045h-1.3261v-0.77898h1.2426v-0.34126h-1.2426v-0.75466h1.3123v-0.34045h-1.635zm4.7322 0v2.5558h1.7014v-0.34045h-1.3261v-0.77898h1.2418v-0.34126h-1.2418v-0.75466h1.3115v-0.34045h-1.6342zm5.0127 0v2.5558h0.3753v-1.0465h0.70846l0.4823 1.0165 0.01459 0.02999h0.41502l-0.03648-0.07538-0.49527-1.027c0.13969-0.05039 0.25397-0.13164 0.34045-0.24237 0.09926-0.12709 0.14996-0.27934 0.14996-0.4515 0-0.22397-0.07821-0.40862-0.23264-0.54958-0.15337-0.13919-0.35582-0.20994-0.60146-0.20994zm5.0929 0v2.5558h0.37531v-1.1121h1.3164v1.1121h0.37612v-2.5558h-0.37612v1.0951h-1.3164v-1.0951h-0.32262zm-7.0019 8.11e-4 -0.01378 0.03404-0.96947 2.4496-0.02837 0.07295h0.398l0.01297-0.03486 0.25534-0.67603h1.1259l0.25534 0.67603 0.01297 0.03486h0.40448l-0.02837-0.07295-0.95488-2.4496-0.01297-0.03404zm-10.032 0.34126h0.72386c0.14675 0 0.26547 0.04131 0.3518 0.11835 0.084787 0.07534 0.12726 0.1772 0.12726 0.30316 0 0.12515-0.041325 0.22325-0.12726 0.29992-0.086348 0.07705-0.20504 0.11591-0.3518 0.11591h-0.72386zm12.316 0.0024h0.72386c0.14676 0 0.26466 0.03888 0.35099 0.11592 0.08478 0.07534 0.12807 0.1772 0.12807 0.30316 0 0.12514-0.04214 0.2232-0.12807 0.29992-0.08635 0.07704-0.20423 0.11591-0.35099 0.11591h-0.72386zm-2.067 0.01864 0.44258 1.164h-0.88111z" />
</svg>
