<?xml version="1.0" encoding="UTF-8"?>
<!-- Created with Inkscape (http://www.inkscape.org/) -->
<svg width="600" height="200" version="1.1" viewBox="0 0 600 200" xmlns="http://www.w3.org/2000/svg">
 <path d="m114.45 35.062c-26.94 0-54.576 11.461-54.576 66.562 0 55.101 31.64 63.312 58.303 63.312 22.076 0 35.469-9.4336 35.469-9.4336 0.552-0.30533 0.61133-1.077 0.61133-1.4316v-61.535c0-1.0427-0.84344-1.8887-1.8848-1.8887h-40.355c-1.0413 0-1.8867 0.84601-1.8867 1.8887v19.729c0 1.0413 0.84539 1.8906 1.8867 1.8906h15.742v24.514s-3.5353 1.2051-13.309 1.2051c-11.529 0-27.637-4.2142-27.637-39.633 0-35.424 16.772-40.086 32.518-40.086 13.631 0 19.503 2.3987 23.24 3.5547 1.1747 0.36 2.2598-0.80694 2.2598-1.8496l4.5-19.064c0-0.48667-0.16408-1.074-0.71875-1.4727-1.5173-1.0813-10.775-6.2617-34.162-6.2617zm159.41 4.7031c-1.0333 0-1.877 0.8491-1.877 1.8984v118.9c0 1.0493 0.84363 1.9024 1.877 1.9024h22.723c1.04 0 1.873-0.85301 1.873-1.9024v-50.859h35.42s-0.0625 50.855-0.0625 50.859c0 1.0493 0.84281 1.9024 1.8828 1.9024h22.777c1.0413 0 1.8723-0.85301 1.875-1.9024v-118.9c0-1.0493-0.83235-1.8984-1.875-1.8984h-22.723c-1.0373 0-1.8809 0.8491-1.8809 1.8984l6e-3 43.912h-35.42v-43.912c0-1.0493-0.83305-1.8984-1.873-1.8984zm188.29 0c-1.036 0-1.877 0.8491-1.877 1.8984v118.9c0 1.0493 0.84219 1.9024 1.8809 1.9024h15.811c0.712 0 1.2498-0.36711 1.6484-1.0098 0.39333-0.64 0.96094-5.4824 0.96094-5.4824s9.3164 8.8301 26.955 8.8301c20.709 0 32.586-10.504 32.586-47.154 0-36.652-18.969-41.441-31.785-41.441-12.807 0-21.516 5.7148-21.516 5.7148v-40.264c0-1.0493-0.84034-1.8984-1.875-1.8984zm-281.56 2.707c-8.0853 0-14.65 6.6116-14.65 14.793 0 8.1747 6.5651 14.805 14.65 14.805 8.0933 0 14.652-6.63 14.652-14.805 0-8.1813-6.559-14.793-14.652-14.793zm36.611 12.426c-0.904 0-1.3867 0.39763-1.3867 1.2656v23.27s-11.642 2.8091-12.43 3.0371c-0.78266 0.22667-1.3594 0.94984-1.3594 1.8125v14.621c0 1.052 0.84025 1.9004 1.8789 1.9004h11.91v35.18c0 26.129 18.327 28.695 30.693 28.695 5.652 0 12.413-1.8146 13.529-2.2266 0.67467-0.248 1.0664-0.94774 1.0664-1.7051l0.0195-16.088c0-1.048-0.88744-1.8965-1.8848-1.8965-0.99467 0-3.5344 0.40429-6.1504 0.40429-8.3733 0-11.209-3.8916-11.209-8.9316v-33.432h17.045c1.0387 0 1.8809-0.84839 1.8809-1.9004v-18.314c0-1.0493-0.84219-1.8945-1.8809-1.8945h-17.045s-0.0254-22.514-0.0254-22.518c0-0.85333-0.44044-1.2793-1.4258-1.2793zm-48.115 23.807c-1.0387 0-1.9688 1.0719-1.9688 2.1133v78.637c0 2.3107 1.4401 2.998 3.3027 2.998h20.408c2.24 0 2.7891-1.0992 2.7891-3.0352v-78.818c0-1.0427-0.84025-1.8945-1.8789-1.8945zm204.28 0.17773c-1.032 0-1.8789 0.85434-1.8789 1.9023v54.693c0 23.647 13.179 29.43 31.309 29.43 14.875 0 26.867-8.2148 26.867-8.2148s0.56946 4.3304 0.82812 4.8438c0.25734 0.512 0.93216 1.0293 1.6602 1.0293l14.559-0.0644c1.032 0 1.8789-0.85444 1.8789-1.8984l-0.01-79.818c0-1.048-0.84086-1.9023-1.8809-1.9023h-22.547c-1.0333 0-1.877 0.85434-1.877 1.9023v58.303s-5.7287 4.1914-13.859 4.1914c-8.1293 0-10.287-3.691-10.287-11.652v-50.842c0-1.048-0.84095-1.9023-1.877-1.9023zm127.61 19.004c6.9373 0.24735 12.928 4.244 12.928 21.193 0 20.425-3.5313 24.458-14.473 24.127-7.8213-0.23732-13.127-3.7871-13.127-3.7871v-37.654s5.233-3.2079 11.654-3.7813c1.015-0.09083 2.0265-0.13299 3.0176-0.09766z" fill="#161312"/>
</svg>
