<svg viewBox="0 0 58 23" xmlns="http://www.w3.org/2000/svg">
  <path d="m58 21.467v1.5333h-7.6316v-1.5333zm-18.316 0v1.5333h-7.6316v-1.5333zm5.9543 0-0.61396 1.5333-0.60586-1.5333zm-17.096 0c-1.095 0.9522-2.5392 1.5333-4.1516 1.5333h-12.18v-1.5333zm-17.858 0v1.5333h-10.684v-1.5333zm29-3.0667v1.5333h-7.6316v-1.5333zm7.1476 0-0.59412 1.5333h-2.4165l-0.59859-1.5333zm-16.763 0c-0.13778 0.54517-0.35786 1.06-0.64105 1.5333h-17.217v-1.5333zm-19.384 0v1.5333h-10.684v-1.5333zm47.316 0v1.5333h-7.6316v-1.5333zm-3.0526-3.0667v1.5333h-4.5789v-1.5333zm-15.263 0v1.5333h-4.5789v-1.5333zm8.3451 0-0.59969 1.5333h-4.8062l-0.60439-1.5333zm-18.175 0c0.13716 0.48886 0.21368 1.0024 0.21368 1.5333h-5.6474v-1.5333zm-10.013 0v1.5333h-4.5789v-1.5333zm-12.211 0v1.5333h-4.5789v-1.5333zm47.316-3.0667v1.5333h-4.5789v-1.5333zm-15.263 0v1.5333h-4.5789v-1.5333zm9.5411 0-0.5968 1.5333h-7.2195l-0.59213-1.5333zm-21.248 0c0.5264 0.43282 0.9797 0.9515 1.3279 1.5333h-14.042v-1.5333zm-20.346 0v1.5333h-4.5789v-1.5333zm36.967-3.0667 0.42758 1.2394 0.42723-1.2394h9.4938v1.5333h-4.5789v-1.409l-0.51895 1.409h-9.6616l-0.50368-1.4091v1.4091h-4.5789v-1.5333zm-36.967 0v1.5333h-4.5789v-1.5333zm21.674 0c-0.34819 0.58183-0.8015 1.1004-1.3279 1.5333h-12.714v-1.5333zm25.642-3.0667v1.5333h-8.9643l0.54029-1.5333zm-11.413 0 0.5403 1.5333h-8.9693v-1.5333zm-13.466 0c0 0.53081-0.07652 1.0443-0.21368 1.5333h-5.4337v-1.5333zm-10.226 0v1.5333h-4.5789v-1.5333zm-12.211 0v1.5333h-4.5789v-1.5333zm34.846-3.0667 0.53049 1.5333h-10.955l-1.44e-4 -1.5333zm15.523 0v1.5333h-10.961l0.5513-1.5333zm-28.573 0c0.28319 0.47338 0.50328 0.98816 0.64105 1.5333h-17.858v-1.5333zm-18.743 0v1.5333h-10.684v-1.5333zm30.721-3.0667 0.5406 1.5333h-9.8935l-1.48e-4 -1.5333zm16.594 0v1.5333h-9.8812l0.52783-1.5333zm-33.609 0c1.6007 0 3.0568 0.58113 4.1516 1.5333h-16.332v-1.5333zm-13.706 0v1.5333h-10.684v-1.5333z" />
</svg>
