<?xml version="1.0" encoding="UTF-8"?>
<svg version="1.1" viewBox="0 0 395.4 155.9" xmlns="http://www.w3.org/2000/svg">
<title>Intel</title>
<rect x="4.7" y="5.2" width="28.1" height="28.1" fill="#00c7fd"/>
<path d="m32.1 151.6v-101.3h-26.7v101.2h26.7zm176.8 1v-24.8c-3.9 0-7.2-0.2-9.6-0.6-2.8-0.4-4.9-1.4-6.3-2.8s-2.3-3.4-2.8-6.1c-0.4-2.5-0.6-5.8-0.6-9.8v-35.3h19.3v-22.9h-19.3v-39.4h-26.7v97.9c0 8.3 0.7 15.3 2.1 20.9 1.4 5.5 3.8 10 7.1 13.4s7.7 5.8 13 7.3c5.4 1.5 12.2 2.2 20.3 2.2h3.5zm152.8-1v-148.5h-26.7v148.5h26.7zm-224.5-91.3c-7.4-8-17.8-12-31-12-6.4 0-12.3 1.3-17.5 3.9-5.3 2.6-9.7 6.2-13.3 10.8l-1.4 1.9v-14.6h-26.3v101.2h26.5v-53.9 3.7-1.8c0.3-9.5 2.6-16.5 7-21 4.7-4.8 10.4-7.2 16.9-7.2 7.7 0 13.6 2.4 17.5 7 3.8 4.6 5.8 11.1 5.8 19.4v53.8h26.9v-57.4c0.1-14.4-3.7-25.8-11.1-33.8zm184 40.5c0-7.3-1.3-14.1-3.8-20.5-2.6-6.3-6.2-11.9-10.7-16.7-4.6-4.8-10.1-8.5-16.5-11.2s-13.5-4-21.2-4c-7.3 0-14.2 1.4-20.6 4.1-6.4 2.8-12 6.5-16.7 11.2s-8.5 10.3-11.2 16.7c-2.8 6.4-4.1 13.3-4.1 20.6s1.3 14.2 3.9 20.6 6.3 12 10.9 16.7 10.3 8.5 16.9 11.2c6.6 2.8 13.9 4.2 21.7 4.2 22.6 0 36.6-10.3 45-19.9l-19.2-14.6c-4 4.8-13.6 11.3-25.6 11.3-7.5 0-13.7-1.7-18.4-5.2-4.7-3.4-7.9-8.2-9.6-14.1l-0.3-0.9h79.5v-9.5zm-79.3-9.3c0-7.4 8.5-20.3 26.8-20.4 18.3 0 26.9 12.9 26.9 20.3l-53.7 0.1zm150.2 47.3c-0.5-1.2-1.2-2.2-2.1-3.1s-1.9-1.6-3.1-2.1-2.5-0.8-3.8-0.8c-1.4 0-2.6 0.3-3.8 0.8s-2.2 1.2-3.1 2.1-1.6 1.9-2.1 3.1-0.8 2.5-0.8 3.8c0 1.4 0.3 2.6 0.8 3.8s1.2 2.2 2.1 3.1 1.9 1.6 3.1 2.1 2.5 0.8 3.8 0.8c1.4 0 2.6-0.3 3.8-0.8s2.2-1.2 3.1-2.1 1.6-1.9 2.1-3.1 0.8-2.5 0.8-3.8-0.3-2.6-0.8-3.8zm-1.6 7c-0.4 1-1 1.9-1.7 2.6s-1.6 1.3-2.6 1.7-2 0.6-3.2 0.6c-1.1 0-2.2-0.2-3.2-0.6s-1.9-1-2.6-1.7-1.3-1.6-1.7-2.6-0.6-2-0.6-3.2c0-1.1 0.2-2.2 0.6-3.2s1-1.9 1.7-2.6 1.6-1.3 2.6-1.7 2-0.6 3.2-0.6c1.1 0 2.2 0.2 3.2 0.6s1.9 1 2.6 1.7 1.3 1.6 1.7 2.6 0.6 2 0.6 3.2-0.2 2.2-0.6 3.2zm-5.6-2.3c0.8-0.1 1.4-0.4 1.9-0.9s0.8-1.2 0.8-2.2c0-1.1-0.3-1.9-1-2.5-0.6-0.6-1.7-0.9-3-0.9h-4.4v11.3h2.1v-4.6h1.5l2.8 4.6h2.2l-2.9-4.8zm-1.1-1.7h-2.5v-3.2h2.5c0.3 0 0.6 0.1 0.9 0.2s0.5 0.3 0.6 0.5c0.2 0.2 0.2 0.5 0.2 0.9s-0.1 0.7-0.2 0.9c-0.2 0.2-0.4 0.4-0.6 0.5-0.3 0.1-0.6 0.2-0.9 0.2z" fill="#0068b5"/>
</svg>
