<?xml version="1.0" encoding="UTF-8"?>
<svg version="1.1" viewBox="0 0 566.9 198.4" xmlns="http://www.w3.org/2000/svg">
  <path
    fill="#14427C"
    d="m114.9 13.801c-6.6 0-12 5.4-12 12v40.1c0 6.6 5.4 12 12 12h12.699c1 0 2-0.10039 3-0.40039v6.6992c0 6.6 5.4 12 12 12h12.701c1 0 2-0.09844 3-0.39844v15.898c0 6.6 5.4 12 12 12h12.699c6.6 0 12-5.4 12-12v-15.898c1 0.3 2 0.39844 3 0.39844h12.699c6.6 0 12-5.4 12-12v-15.799c1 0.2 2 0.40039 3 0.40039h15.701 6.0996c3 0 5.8004-1.1 7.9004-3 2.5-2.2 4.0996-5.4 4.0996-9v-9.8008-2.8008c-0.1-4.3-2.4008-8.0992-5.8008-10.199-0.6-0.4-1.1984-0.7-1.8984-1l-35-17.9c-1.9-1-3.9004-1.3988-5.9004-1.2988h-0.30078-12.6c-2.8 0-5.4 0.99922-7.5 2.6992-2.1-1.7-4.7-2.6992-7.5-2.6992h-12.699c-2.8 0-5.4 0.99922-7.5 2.6992-2.1-1.7-4.7-2.6992-7.5-2.6992h-12.701c-2.8 0-5.4 0.99922-7.5 2.6992-2.1-1.7-4.7-2.6992-7.5-2.6992h-12.699zm0.19922 9h12.701c1.6 0 3 1.4 3 3v40.1c0 1.7-1.4 3-3 3h-12.701c-1.6 0-3-1.4-3-3v-40.1c0-1.6 1.4-3 3-3zm27.6 0h12.701c1.6 0 3 1.4 3 3v58.398c0 1.7-1.4 3-3 3h-12.701c-1.6 0-3-1.4-3-3v-58.398c0-1.6 1.4-3 3-3zm27.602 0h12.699c1.6 0 3 1.4 3 3v58.398 27.4c0 1.7-1.4 3.0996-3 3.0996h-12.699c-1.6 0-3-1.4-3-3v-27.5-58.398c0-1.6 1.4-3 3-3zm27.699 0h1.4004 11.199 0.30078c1.5 0.2 2.6992 1.4 2.6992 3v18.299 0.40039 0.099609 10.1 2.2012 27.4c0 1.6-1.4 3-3 3h-12.6c-1.6 0-3-1.4-3-3v-58.5c0-1.6 1.4-3 3-3zm24.6 5.3984 7.8008 4h-4.8008c-1 0-2 0.10039-3 0.40039v-4.4004zm3 12.9h21.801c0.3 0 0.60039 0.09961 0.90039 0.09961 0.3 0.1 0.59844 0.3 0.89844 0.5 0.7 0.6 1.2012 1.4004 1.2012 2.4004v12.701c0 1.6-1.4 3-3 3h-3.9004-17.9c-1.6 0-3-1.4-3-3v-7.7012-5c0-1.6 1.4-3 3-3zm22.701 0.20117 0.89844 0.5c-0.3-0.3-0.59844-0.4-0.89844-0.5zm-239.9 64v9.0996h1v-4.8008c0.4-0.5 1.2-1 2-1 0.9 0 1.5 0.3 1.5 1.5v4.4004h1v-4.6992c0-1.4-0.69961-2.1016-2.0996-2.1016-1 0-1.9004 0.60156-2.4004 1.1016v-3.5h-1zm-8.4004 0.09961v1h2.9004v8.0996h1.0996v-8.0996h2.9004v-1h-6.9004zm18.9 2.1992c-1.9 0-3.3008 1.6-3.3008 3.5 0 2.1 1.4004 3.5 3.4004 3.5 1.1 0 1.8996-0.3 2.5996-1l-0.5-0.69922c-0.5 0.5-1.2 0.79883-2 0.79883-1.4 0-2.3004-1.0988-2.4004-2.2988h5.4004v-0.30078c0-1.9-1.1992-3.5-3.1992-3.5zm-0.09961 0.90039c1.5 0 2.1992 1.1992 2.1992 2.1992h-4.4004c0.1-1 0.80118-2.1992 2.2012-2.1992zm336.9 14.699c-11.8 0-21.299 9.0016-21.299 22.102s9.4004 22.1 21.4 22.1c6 0 10.898-2.3008 14.898-6.8008l-1.6992-1.2988c-3.1 3.8-8.0008 6.1992-13.301 6.1992-10.7 0-19.1-8.2992-19.1-20.199 0-12.1 8.3996-20.201 19.1-20.201 5.4 0 10.301 2.4012 13.301 6.2012l1.5996-1.4004c-3.8-4.3-8.9004-6.7012-14.9-6.7012zm140 11.602c-5.2 0-8.3984 1.7988-11.398 5.2988l1.5 1.3008c2.9-3.5 5.8984-4.9004 9.8984-4.9004 4.7 0 8.7012 2.6992 8.7012 7.6992v7c-2.9-3.1-6.3012-4.5-10.701-4.5-5.5 0-10.799 3.7008-10.799 10.301s5.3988 10.301 10.799 10.301c4.4 0 7.8012-1.4 10.701-4.5v3.5996h1.9004v-22.301c0-6.2-4.5016-9.2988-10.602-9.2988zm-106.1 0.09961c-8.7 0-14.4 7.0992-14.4 16.199s5.7004 16.301 14.4 16.301c8.8 0 14.4-7.2008 14.4-16.301s-5.6004-16.199-14.4-16.199zm30.701 0c-4.4 0-8.6004 3.5996-9.9004 5.5996v-4.9004h-1.9004v30.9h1.9004v-24.1c2-3.1 6.0996-5.8008 9.5996-5.8008 4.7 0 6.6992 2.9012 6.6992 7.7012v22.299h1.9004v-24.199c1.9-3.2 6.0996-5.8008 9.5996-5.8008 4.7 0 6.7012 2.9012 6.7012 7.7012v22.299h1.9004v-22.299c0-6.1-2.7008-9.4004-8.3008-9.4004-4.3 0-8.4992 3.0004-10.199 5.9004-0.6-2.9-3.1-5.9004-8-5.9004zm44.1 0c-4.8 0-8.9996 2.8-11.1 6v-5.2012h-1.9004v42.701h1.9004v-17.1c2.5 3.6 6.4996 6.0996 11.1 6.0996 8.3 0 13.799-6.6008 13.799-16.301 0-9.8-5.4988-16.199-13.799-16.199zm59.6 0c-4.3 0-8.8992 2.7996-11.199 5.5996v-4.9004h-1.9004v30.9h1.9004v-24.1c2.1-3 6.6984-5.8008 10.898-5.8008 4.8 0 8 1.9004 8 8.4004v21.6h2v-21.6c0-7.3-3.5992-10.1-9.6992-10.1zm14.199 0.79883 13.301 31.102-2.8008 6.3984c-1.4 3.3-2.8984 4.2012-4.8984 4.2012-0.8 0-2.0012-0.2-2.7012-0.5l-0.5 1.7988c0.8 0.2 1.9996 0.40039 3.0996 0.40039 3.1 0 5.3008-1.8992 6.8008-5.1992l16.4-38.201h-2.2012l-12.1 28.701-12.199-28.701h-2.2012zm-148.6 0.90039c7.9 0 12.301 7 12.301 14.5s-4.4008 14.5-12.301 14.5-12.299-6.9-12.299-14.5c0-7.5 4.3988-14.5 12.299-14.5zm74.9 0c7.5 0 11.699 6.4 11.699 14.5s-4.1992 14.5-11.699 14.5c-4.8 0-9.1996-2.9988-11.1-6.2988v-16.602c1.9-3.2 6.2996-6.0996 11.1-6.0996zm29.699 11.9c4.1 0 7.8012 1.5992 10.201 4.6992v7.7012c-2.4 3.1-6.2012 4.6988-10.201 4.7988-5.6 0-9.1992-3.7996-9.1992-8.5996 0-4.8 3.5992-8.5996 9.1992-8.5996zm-204.1 36.1c-2 0-3.1992 1.4-3.1992 3 0 1.9 1.4 2.9004 3 2.9004 1.2 0 2.1996-0.80039 2.5996-1.4004v0.40039c0 1.7-0.69961 3.5996-2.5996 3.5996-1 0-1.5-0.40039-2-0.90039l-0.59961 0.90039c0.6 0.6 1.3996 1.1004 2.5996 0.90039 2.5 0 3.6992-2.1992 3.6992-4.6992s-0.9-4.7012-3.5-4.7012zm16.1 0c-2 0-3.1992 1.4-3.1992 3 0 1.9 1.4 2.9004 3 2.9004 1.2 0 2.1996-0.80039 2.5996-1.4004v0.40039c0 1.7-0.69961 3.5996-2.5996 3.5996-1 0-1.5-0.40039-2-0.90039l-0.59961 0.90039c0.6 0.6 1.2996 1.1004 2.5996 0.90039 2.5 0 3.6992-2.1992 3.6992-4.6992s-0.9-4.7012-3.5-4.7012zm-7.8984 0.09961c-1.5 0-3.1016 0.80039-3.1016 2.4004 0 1.2 0.9 1.9012 2 2.2012-1.2 0.3-2.1992 1.1984-2.1992 2.3984 0 1.6 1.4008 2.5 3.3008 2.5 1.8 0 3.2988-1 3.2988-2.5 0-1.2-1.0992-2.0984-2.1992-2.3984 1-0.3 2-1.0012 2-2.2012 0-1.7-1.5996-2.4004-3.0996-2.4004zm-14.301 0.10156-2.3008 2.3984 0.70117 0.70117 1.5-1.5v7.5h1.0996v-9.0996h-1zm-26.301 0.09961v9.0996h6v-1h-4.8984v-3.1992h4.7988v-1h-4.7988v-2.9004h4.8984v-1h-6zm14.301 0.69922v1.8008h-1.0996v0.90039h1.0996v4.2988c0 1 0.5 1.5996 1.5 1.5996 0.6 0 0.89922-0.19844 1.1992-0.39844l-0.29883-0.80078c-0.1 0.2-0.40117 0.30078-0.70117 0.30078-0.5 0-0.69922-0.40039-0.69922-0.90039v-4.0996h1.3008v-0.90039h-1.3008v-1.8008h-1zm18.1 0.20117c1.6 0 2.2008 1.4 2.3008 2.5-0.5 0.8-1.4008 1.3984-2.3008 1.3984-1.2 0-2.0996-0.7-2.0996-2 0-0.8 0.69961-1.8984 2.0996-1.8984zm8.0996 0c1.1 0 2 0.6 2 1.5 0 1.1-1.4 1.4996-2 1.5996-0.6-0.1-2-0.49961-2-1.5996 0-0.9 0.9-1.5 2-1.5zm7.9004 0c1.6 0 2.2008 1.4 2.3008 2.5-0.4 0.8-1.3008 1.3984-2.3008 1.3984-1.2 0-2.0996-0.7-2.0996-2 0-0.8 0.69961-1.8984 2.0996-1.8984zm-38.5 1.5c-1.6 0-2.5 0.89844-2.5 1.8984 0 2.5 4.0996 1.5016 4.0996 3.1016 0 0.6-0.59961 1.0996-1.5996 1.0996-0.9 0-1.7992-0.40039-2.1992-0.90039l-0.5 0.69922c0.6 0.7 1.4992 1.0016 2.6992 1.1016 1.7 0 2.5996-0.9 2.5996-2 0-2.6-4.0996-1.6016-4.0996-3.1016 0-0.5 0.6-1 1.5-1s1.6 0.30078 2 0.80078l0.5-0.69922c-0.6-0.6-1.4-1-2.5-1zm30.701 2.5c0.5 0.1 2.0996 0.59883 2.0996 1.7988 0 1-0.99961 1.5996-2.0996 1.5996s-2.1016-0.59961-2.1016-1.5996c0-1.2 1.5016-1.6988 2.1016-1.7988zm-48.9 0.5v0.89844h3.2988v-0.89844h-3.2988zm64.9 0v0.89844h3.2988v-0.89844h-3.2988zm-37.9 2.2988c-0.5 0-0.80078 0.40078-0.80078 0.80078s0.40078 0.79883 0.80078 0.79883c0.5 0 0.79883-0.39883 0.79883-0.79883 0-0.5-0.39883-0.80078-0.79883-0.80078z"
  />
  <path
    fill="#FCCD10"
    d="m0 123.6v43h9.0996v-13.199l3.4004-4 13 17.199h11.199l-18.199-22.799 17.1-20.201h-11.299l-15.201 19.201v-19.201h-9.0996zm39.1 0v43 0.09961h30.4v-8.0996h-21.301v-9.6992h20.801v-8.0996h-20.801v-9.1016h21.301v-8.0996h-30.4zm32.6 0 16.602 25.4v17.6h9.1992v-17.6l16.301-25.4h-10.4l-10.6 17.301-10.701-17.301h-10.4zm44.5 0v43 0.09961h23.301c8.2 0 12.5-5.1996 12.5-11.6 0-5.4-3.5992-9.8996-8.1992-10.6 4.1-0.9 7.3984-4.5004 7.3984-9.9004 0-5.8-4.1984-11-12.398-11h-22.602zm102 0-16.6 43h10.4l2.6992-7.2988h18.4l2.5996 7.2988h10.602l-16.602-43h-11.5zm30.301 0v43h9.0996v-15.299h6.7012l8.3984 15.299v0.09961h10.602l-9.7012-16.398c4.6-1.1 9.4004-5.2008 9.4004-12.801 0-8-5.4004-13.9-14.4-13.9h-20.1zm37 0v43h16.9c13.5 0 22.799-8.6 22.799-21.5s-9.2988-21.5-22.799-21.5h-16.9zm-160.2 7.9004h11.5c3.1 0 5 1.9992 5 4.6992s-1.9 4.6016-5 4.6016h-11.5v-9.3008zm169.3 0.09961h7.8008c8.9 0 13.5 5.9 13.5 13.5 0 7.3-5 13.4-13.5 13.4h-7.8008v-26.9zm-37 0.09961h9.5996c3.6 0 6.4004 2.2008 6.4004 5.8008s-2.8004 5.8008-6.4004 5.8008h-9.5996v-11.602zm-80.9 0.40039c-12.9 0-22.398 9.3012-22.398 22.201s9.4984 22.199 22.398 22.199c13 0 22.5-9.2992 22.5-22.199s-9.5-22.201-22.5-22.201zm47.102 0.70117 6.6992 18.5h-13.4l6.7012-18.5zm-47.102 7.3984c7.9 0 13.102 6.0016 13.102 14.102 0 8-5.2016 14.1-13.102 14.1s-13-6.0996-13-14.1 5.1-14.102 13-14.102zm-51.299 8.5h11.799c3.6 0 5.5 2.3 5.5 5 0 3.1-2.1 5-5.5 5h-11.799v-10z"
  />
</svg>
