<?xml version="1.0" encoding="UTF-8"?>
<svg version="1.1" viewBox="0 0 1070 389" xmlns="http://www.w3.org/2000/svg">
 <path d="m285.93-0.035156a21.986 21.986 0 0 0-21.986 21.986 21.986 21.986 0 0 0 21.986 21.986 21.986 21.986 0 0 0 21.986-21.986 21.986 21.986 0 0 0-21.986-21.986zm-266.96 6.3359c-8.6424 5.93e-4 -15.647 7.0059-15.648 15.648-2.2e-4 8.643 7.0053 15.65 15.648 15.65 6e-3 0 0.011678 7e-6 0.017578 0h31.828c6e-3 7e-6 0.011679 0 0.017579 0 8.643-5.93e-4 15.648-7.0078 15.648-15.65-5.9e-4 -8.6424-7.0059-15.647-15.648-15.648-6e-3 0-0.011679-7.9e-6 -0.017579 0h-31.828c-6e-3 -7.9e-6 -0.011678 1e-7 -0.017578 0zm125.37 0c-8.6424 5.93e-4 -15.647 7.0059-15.648 15.648-2.2e-4 8.643 7.0053 15.65 15.648 15.65 6e-3 0 0.01168 7e-6 0.01758 0h31.828c6e-3 7e-6 0.01168 0 0.01757 0 8.643-5.93e-4 15.648-7.0078 15.648-15.65-5.9e-4 -8.6424-7.0059-15.647-15.648-15.648-0.00599 0-0.01167-7.9e-6 -0.01757 0h-31.828c-6e-3 -7.9e-6 -0.01168 1e-7 -0.01758 0zm251.31 0c-8.6424 5.93e-4 -15.647 7.0059-15.648 15.648-2.2e-4 8.643 7.0054 15.65 15.648 15.65 6e-3 0 0.01168 7e-6 0.01758 0h31.826c6e-3 7e-6 0.01168 0 0.01758 0 8.643-5.93e-4 15.65-7.0078 15.65-15.65-5.9e-4 -8.6424-7.0079-15.647-15.65-15.648-6e-3 0-0.01168-7.9e-6 -0.01758 0h-31.826c-6e-3 -7.9e-6 -0.01168 1e-7 -0.01758 0zm125.13 0c-8.6424 5.93e-4 -15.647 7.0059-15.648 15.648-2.2e-4 8.643 7.0054 15.65 15.648 15.65 6e-3 0 0.01168 7e-6 0.01758 0h31.828c6e-3 7e-6 0.01168 0 0.01758 0 8.643-5.93e-4 15.648-7.0078 15.648-15.65-5.9e-4 -8.6424-7.006-15.647-15.648-15.648-6e-3 0-0.01168-7.9e-6 -0.01758 0h-31.828c-6e-3 -7.9e-6 -0.01168 1e-7 -0.01758 0zm501.76 0c-8.643 6e-4 -15.648 7.0078-15.648 15.65 6e-4 8.6424 7.0059 15.647 15.648 15.648 0.01 0 0.0116 1e-5 0.0176 0h31.828c0.01 1e-5 0.0116 0 0.0176 0 8.6424-5.9e-4 15.647-7.0059 15.648-15.648 2e-4 -8.643-7.0053-15.65-15.648-15.65h-0.0176-31.828-0.0176zm-736.61 87.812a21.986 21.986 0 0 0-21.986 21.986 21.986 21.986 0 0 0 21.986 21.986 21.986 21.986 0 0 0 21.986-21.986 21.986 21.986 0 0 0-21.986-21.986zm501.47 0a21.986 21.986 0 0 0-21.986 21.986 21.986 21.986 0 0 0 21.986 21.986 21.986 21.986 0 0 0 21.986-21.986 21.986 21.986 0 0 0-21.986-21.986zm-768.43 6.3359c-8.6424 5.9e-4 -15.647 7.0079-15.648 15.65-2.2e-4 8.643 7.0053 15.648 15.648 15.648h0.017578 31.828 0.017579c8.643-6e-4 15.648-7.0058 15.648-15.648-5.9e-4 -8.6424-7.0059-15.649-15.648-15.65-6e-3 0-0.011679-1e-5 -0.017579 0h-31.828c-6e-3 -1e-5 -0.011678 0-0.017578 0zm1003.6 0.00195c-8.643 6e-4 -15.648 7.0078-15.648 15.65 6e-4 8.6424 7.0059 15.647 15.648 15.648 0.01 0 0.0116 1e-5 0.0176 0h31.828c0.01 1e-5 0.0116 0 0.0176 0 8.6424-5.9e-4 15.647-7.006 15.648-15.648 2e-4 -8.643-7.0053-15.65-15.648-15.65h-0.0176-31.828-0.0176zm-501.76 0.00391c-8.6422 5.9e-4 -15.648 7.0062-15.648 15.648-2.2e-4 8.643 7.0056 15.65 15.648 15.65 6e-3 0 0.01178 1e-5 0.01758 0h31.826c6e-3 1e-5 0.01168 0 0.01758 0 8.643-5.9e-4 15.651-7.0076 15.65-15.65-5.9e-4 -8.6422-7.0082-15.648-15.65-15.648-6e-3 0-0.01168-1e-5 -0.01758 0h-31.826c-6e-3 -1e-5 -0.01178 0-0.01758 0zm266.62 87.729a21.986 21.986 0 0 0-21.986 21.986 21.986 21.986 0 0 0 21.986 21.986 21.986 21.986 0 0 0 21.986-21.986 21.986 21.986 0 0 0-21.986-21.986zm-768.43 6.3359c-8.6424 5.9e-4 -15.647 7.0079-15.648 15.65-2.2e-4 8.643 7.0053 15.648 15.648 15.648h0.017578 31.828 0.017579c8.643-6e-4 15.648-7.0058 15.648-15.648-5.9e-4 -8.6424-7.0059-15.649-15.648-15.65-6e-3 0-0.011679-1e-5 -0.017579 0h-31.828c-6e-3 -1e-5 -0.011678 0-0.017578 0zm501.81 0c-8.6424 5.9e-4 -15.647 7.0079-15.648 15.65-2.2e-4 8.643 7.0054 15.648 15.648 15.648 6e-3 0 0.01168 1e-5 0.01758 0h31.828c6e-3 1e-5 0.01168 0 0.01758 0 8.643-5.9e-4 15.648-7.0058 15.648-15.648-5.9e-4 -8.6424-7.006-15.649-15.648-15.65-6e-3 0-0.01168-1e-5 -0.01758 0h-31.828c-6e-3 -1e-5 -0.01168 0-0.01758 0zm125.04 0.00195c-8.643 5.9e-4 -15.65 7.0078-15.65 15.65 6e-4 8.6424 7.0079 15.647 15.65 15.648h0.01758 31.826 0.01758c8.6424-6e-4 15.647-7.0059 15.648-15.648 2.2e-4 -8.643-7.0053-15.65-15.648-15.65-6e-3 0-0.01168-1e-5 -0.01758 0h-31.826c-6e-3 -1e-5 -0.01168 0-0.01758 0zm251.3 0c-8.643 5.9e-4 -15.648 7.0078-15.648 15.65 5.9e-4 8.6424 7.006 15.647 15.648 15.648h0.01758 31.828 0.01758c8.6424-6e-4 15.647-7.0059 15.648-15.648 2.2e-4 -8.643-7.0054-15.65-15.648-15.65-6e-3 0-0.01168-1e-5 -0.01758 0h-31.828c-6e-3 -1e-5 -0.01168 0-0.01758 0zm125.42 0c-8.643 5.9e-4 -15.648 7.0078-15.648 15.65 6e-4 8.6424 7.0059 15.647 15.648 15.648h0.0176 31.828 0.0176c8.6424-6e-4 15.647-7.0059 15.648-15.648 2e-4 -8.643-7.0053-15.65-15.648-15.65-0.01 0-0.0116-1e-5 -0.0176 0h-31.828c-0.01-1e-5 -0.0116 0-0.0176 0zm-1002.8 144.04-19.777 48.184h6.9707l12.832-34.258 13.936 35.166 13.936-35.166 12.832 34.258h6.9707l-19.777-48.182-13.961 35.521-13.961-35.523zm950.19 0.68164c-15.854 0-27.672 10.608-27.672 25.51 0 13.796 11.964 24.209 27.084 24.209 8.2939 0 13.065-2.7984 16.514-4.6855l0.44141-6.832c-3.89 2.6031-8.8804 5.9219-17.027 5.9219-11.964 0-20.332-7.8739-20.332-19.393 0-11.323 8.3678-19.199 20.479-19.199 7.7067 0 13.433 3.45 15.561 5.207l0.58594-6.3125c-1.3946-1.0412-7.0449-4.4258-15.633-4.4258zm-185.01 0.09375v0.00782l0.00195-0.00196v-0.00195l-0.00195-0.00391zm0.00195 0.00586v6.7793 6.7832l13.959 35.523 19.777-48.184h-6.9707l-12.83 34.26-13.936-35.162zm0 6.7793-0.00195-6.7773-13.934 35.16-12.832-34.258h-6.9707l19.777 48.184 13.959-35.523 0.00195-6.7852zm-490.98-6.7695c-9.2892 0-15.697 4.9036-15.697 11.613 0 8.5163 7.7045 12.257 14.689 14.773 6.8409 2.3871 11.162 4.968 11.162 9.5488 0 4.8388-4.8971 7.8711-11.234 7.8711-5.4727 0-10.871-2.3217-15.48-4.7734l0.50391 6.4512c2.1603 1.1613 7.273 3.8066 14.834 3.8066 11.233 0 17.712-5.6127 17.713-13.096 0-8.2582-7.4876-12.583-16.561-15.68-5.6168-2-9.4336-4.5152-9.4336-8.8379 0-4.2582 4.6795-6.5156 9.5762-6.5156 4.5366 0 8.3529 2.064 12.674 4.5156v-6.5156c-2.2323-1.3549-6.481-3.1621-12.746-3.1621zm-170.17 0.00586-26.365 47.059h7.2832l6.0469-10.85h26.365l6.1191 10.85h7.2832l-26.732-47.059zm349.44 0.02148-26.367 47.057h7.2852l6.0449-10.85h26.365l6.1191 10.85h7.2832l-26.73-47.057zm404.33 0.33008-26.367 47.057h7.2852l6.0449-10.85h26.365l6.1191 10.85h7.2832l-26.73-47.057zm156.2 0.82813v45.877l31.348 0.00195v-5.4082h-24.414v-15.908h21.174v-5.2188h-21.174v-13.998h24.414v-5.3457h-31.348zm-673.49 0.11132v46.197h6.5488v-21.656h30.15v21.656h6.5469v-46.197h-6.5469v19.158h-30.15v-19.158h-6.5488zm260.92 0.00196v45.986h32.051v-5.5488h-25.41v-40.438h-6.6406zm-77.561 0.08984v45.986h32.051v-5.5488h-25.408v-40.438h-6.6426zm-349.37 0.23242v45.664h6.6328v-18.748c1.2255 0.0633 2.4504 0.1914 3.6758 0.1914 1.4417 0 2.8103-0.12806 4.252-0.1914l18.166 18.748h8.5078l-19.463-19.76c5.2624-1.14 12.758-4.8139 12.758-12.73 0-8.0434-7.3526-13.174-18.887-13.174h-15.643zm6.6328 4.9395h8.4336c8.29 0 12.977 2.7874 12.977 8.1074 0 8.3601-11.895 9.5-18.383 9.5-1.0092 0-2.018-0.12807-3.0273-0.19141v-17.416zm-77.025 6.2188 10.342 18.414h-20.611l10.27-18.414zm349.44 0.01953 10.342 18.414h-20.613l10.271-18.414zm404.33 0.33008 10.342 18.414h-20.613l10.271-18.414z" fill="#49134b"/>
</svg>
