<svg viewBox="0 0 1e3 297.4" xmlns="http://www.w3.org/2000/svg" >
 <path d="m149.77 0.0014648-21.091 21.091c-8.047 8.047-12.478 18.746-12.478 30.126 0 11.378 4.4305 22.077 12.478 30.123l21.091 21.092 21.091-21.092c16.609-16.611 16.61-43.639 0-60.248l-21.091-21.092zm206.05 5.7803v0.68115c1.194 3.924 6.312 16.037 6.312 27.979v58.173c0 15.183-6.4832 30.879-7.6772 35.143v0.85254h22.689v-0.85254c-1.194-4.264-7.6758-19.96-7.6758-35.143v-66.533l69.943 102.53h13.821v-87.004c0-15.184 6.4832-30.878 7.6772-34.972v-0.85254h-22.692v0.85254c1.194 4.094 7.6787 19.788 7.6787 34.972v58.515l-64.146-94.339h-25.931zm-206.05 9.3267 13.538 13.538c12.446 12.446 12.446 32.697 0 45.144l-13.538 13.538-13.538-13.538c-6.029-6.03-9.3501-14.046-9.3501-22.572 0-8.527 3.3211-16.543 9.3501-22.572l13.538-13.538zm538.55 1.7607c-6.654 11.772-15.015 21.666-31.05 27.637v5.6294h12.453v54.762c0 15.524 7.8486 25.248 21.497 25.248 12.624 0 20.982-8.358 25.248-18.082-5.46 3.413-10.747 4.4355-14.5 4.4355-7.506 0-12.113-4.4359-12.113-13.818v-52.545h23.542v-6.8232h-23.542v-26.443h-1.5337zm-99.119 24.908-20.814 2.729-3.9228 0.5127 0.16992 0.68262c1.195 2.899 4.4356 13.475 4.4356 24.224v67.386c0 10.577-3.2398 21.666-3.9228 24.737v0.68408h27.979v-0.68408c-0.683-3.071-3.9243-14.16-3.9243-24.737v-17.229c6.484 6.995 14.671 9.8936 22.518 9.8936 17.572 0 35.826-14.671 35.826-45.208 0-27.809-15.011-42.479-33.437-42.479-9.893 0-18.935 4.266-24.907 12.624v-13.135zm-76.087 0.51123c-23.884 0-41.285 16.718-41.285 43.673 0 28.66 19.96 44.186 41.285 44.186 18.595 0 31.733-12.114 36.85-24.737l-0.51269-0.5127c-9.895 8.36-18.424 11.602-27.636 11.602-18.084 0-26.785-13.648-27.979-32.925h56.808c0-22.349-12.283-41.285-37.531-41.285zm363.2 0c-11.942 0-20.983 6.1413-27.636 15.694v-14.67h-23.884v0.5127c0.682 3.239 3.9258 14.158 3.9258 24.907v34.46c0 10.577-3.2438 21.666-3.9258 24.737v0.68262h27.807v-0.68262c-0.681-3.071-3.9228-14.16-3.9228-24.737v-40.09c5.971-5.119 12.112-8.0186 18.766-8.0186 8.701 0.171 16.718 5.4577 16.718 18.595v29.514c0 10.577-3.2408 21.666-3.9228 24.737v0.68262h27.976v-0.68262c-0.681-3.071-3.9228-14.16-3.9228-24.737v-32.073c0-20.302-13.478-28.831-27.979-28.831zm86.155 0c-23.885 0-41.285 16.718-41.285 43.673 0 28.66 19.96 44.186 41.285 44.186 18.595 0 31.731-12.114 36.847-24.737l-0.50977-0.5127c-9.896 8.36-18.425 11.602-27.637 11.602-18.084 0-26.783-13.648-27.977-32.925h56.808c0-22.349-12.284-41.285-37.531-41.285zm-919.1 0.016114v29.826c0 23.49 19.113 42.602 42.604 42.602h29.827v-29.827c0-23.491-19.111-42.601-42.602-42.601h-29.829zm182.97 0c-23.491-1e-6 -42.604 19.11-42.604 42.601v29.827h29.827c23.491 0 42.602-19.112 42.602-42.602v-29.826h-29.826zm500.53 1.0078v0.5127c0.682 3.24 3.9243 14.158 3.9243 24.907v32.243c0 20.471 13.476 29.001 27.977 29.001 11.771 0 20.472-5.971 27.637-16.207 0.852 5.972 2.2176 12.113 3.4116 14.843h19.79v-0.68262c-0.682-3.07-3.9228-14.161-3.9228-24.737v-59.88h-23.886v0.5127c0.683 3.24 3.9243 14.158 3.9243 24.907v35.143c0 1.706 3.9e-4 3.4126 0.17139 5.2896-5.97 4.947-12.283 7.6758-18.595 7.6758-8.7 0-16.548-5.2898-16.548-18.425v-55.103h-23.884zm-214.1 5.1182c12.113 0 16.89 12.454 17.401 27.125l-36.507 3.9243c0-15.867 5.459-31.049 19.106-31.049zm449.36 0c12.113 0 16.89 12.454 17.401 27.125l-36.508 3.9243c0-15.867 5.4604-31.049 19.107-31.049zm-908.07 4.5557h19.146c17.601 0 31.92 14.318 31.92 31.919v19.146h-19.146c-17.601 0-31.92-14.319-31.92-31.92v-19.144zm172.29 0h19.146v19.144c0 17.601-14.321 31.92-31.922 31.92h-19.144v-19.146c0-17.601 14.318-31.919 31.92-31.919zm379.24 0.90381c14.158 0 20.13 14.671 20.13 31.56 0 19.108-7.1665 34.119-21.667 34.119-5.8 0-10.577-2.3887-14.842-5.9707v-51.69c4.778-4.777 10.065-8.0186 16.378-8.0186zm-554.36 61.261c-10.91 3.7e-4 -21.819 4.154-30.125 12.458l-21.092 21.089 21.092 21.092c8.0473 8.048 18.746 12.479 30.125 12.479 11.38 0 22.079-4.431 30.125-12.479l21.092-21.092-21.092-21.089c-8.3054-8.306-19.215-12.459-30.125-12.458zm196.03 0c-10.91 3.7e-4 -21.82 4.154-30.125 12.458l-21.091 21.089 21.091 21.092c8.047 8.048 18.746 12.479 30.126 12.479s22.078-4.431 30.123-12.479l21.092-21.092-21.092-21.089c-8.3055-8.306-19.215-12.459-30.125-12.458zm-196.03 10.677c8.1746-1.2e-4 16.348 3.111 22.57 9.334l13.538 13.537-13.538 13.54c-6.0277 6.029-14.046 9.3486-22.572 9.3486s-16.543-3.3196-22.573-9.3486l-13.537-13.54 13.537-13.535c6.2244-6.2235 14.4-9.3353 22.575-9.3354zm196.03 0c8.1746-1.2e-4 16.349 3.111 22.572 9.334l13.537 13.537-13.537 13.54h-0.00147c-6.028 6.029-14.044 9.3486-22.57 9.3486s-16.542-3.3196-22.573-9.3486l-13.537-13.54 13.537-13.535c6.224-6.2235 14.399-9.3353 22.573-9.3354zm488.15 35.281-20.812 2.5591-3.9228 0.68261 0.16992 0.51123c1.194 3.071 4.4356 13.648 4.4356 24.224v73.699c0 10.576-3.2408 21.667-3.9228 24.737v0.68262h27.979v-0.68262c-0.682-3.07-3.9258-14.161-3.9258-24.737v-40.772c5.632-4.6059 11.772-7.166 18.084-7.166 9.042 0 17.231 5.2885 17.231 18.426v29.512c0 10.576-3.2409 21.667-3.9229 24.737v0.68262h27.977v-0.68262c-0.682-3.07-3.9228-14.161-3.9228-24.737v-32.071c0-20.303-13.477-28.833-27.977-28.833-11.431 0-20.473 5.6304-27.469 15.013v-55.786zm-379.58 4.2656v0.68115c1.194 3.924 6.312 16.038 6.312 27.979v58.173c0 15.184-6.4832 30.879-7.6772 35.143v0.85401h22.689v-0.85401c-1.194-4.264-7.6758-19.959-7.6758-35.143v-66.533l69.943 102.53h13.821v-87.006c0-15.183 6.4832-30.878 7.6772-34.972v-0.85254h-22.692v0.85254c1.194 4.094 7.6787 19.789 7.6787 34.972v58.516l-64.146-94.34h-25.931zm315.78 11.087c-6.653 11.772-15.014 21.667-31.049 27.637v5.6294h12.453v54.763c0 15.523 7.8486 25.248 21.497 25.248 12.624 0 20.983-8.3595 25.248-18.083-5.459 3.4121-10.748 4.4356-14.502 4.4356-7.505 0-12.111-4.4347-12.111-13.818v-52.545h23.542v-6.8232h-23.542v-26.443h-1.5352zm-585.62 6.2051c-23.491 0-42.602 19.113-42.602 42.604v29.827h29.827c23.491 0 42.602-19.111 42.602-42.602v-29.829h-29.827zm97.764 0v29.829c0 23.491 19.111 42.602 42.601 42.602h29.827v-29.827c0-23.491-19.111-42.604-42.602-42.604h-29.826zm-97.764 10.683h19.146v19.146c0 17.601-14.319 31.92-31.92 31.92h-19.146v-19.146c0-17.601 14.319-31.92 31.92-31.92zm108.45 0h19.144c17.601 0 31.92 14.319 31.92 31.92v19.146h-19.146c-17.601 0-31.919-14.32-31.919-31.92v-19.146zm-44.65 1.6186-21.091 21.089c-8.047 8.0469-12.478 18.747-12.478 30.126s4.4305 22.078 12.478 30.125l21.091 21.091 21.091-21.091c16.609-16.612 16.61-43.64 0-60.249l-21.091-21.091zm471 6.2285c-11.919-0.36747-21.014 6.911-26.281 16.891v-15.182h-23.884v0.50976c0.682 3.241 3.9228 14.16 3.9228 24.908v34.46c0 10.576-3.2408 21.665-3.9228 24.735v0.68408h27.807v-0.68408c-0.682-3.0699-3.9228-14.159-3.9228-24.735v-40.091c10.918-9.5531 23.37-5.1182 31.047 2.0478h0.85254l3.0718-22.008c-3.0386-0.95985-5.9404-1.4518-8.6909-1.5366zm-106.12 0.68409c-23.371 0-42.82 15.184-42.82 43.503 0 28.32 19.449 44.355 42.82 44.355 23.202 0 43.162-16.036 43.162-44.355 0-28.319-19.96-43.503-43.162-43.503zm0 6.1406c13.819 0 20.643 17.914 20.643 37.362 0 19.618-6.8236 37.872-20.643 37.872s-20.471-18.423-20.471-37.872c0-19.448 6.6522-37.362 20.471-37.362zm-364.88 2.0522 13.538 13.538c12.446 12.445 12.446 32.698 0 45.144l-13.538 13.538-13.538-13.538c-6.029-6.0289-9.3501-14.045-9.3501-22.572 0-8.5262 3.3211-16.543 9.3501-22.572l13.538-13.538z" fill="#1e3267"/>
</svg>
