<?xml version="1.0" encoding="UTF-8"?>
<svg xmlns="http://www.w3.org/2000/svg" viewBox="0 0 253 44" fill="none"><path d="M164.194 31.0227L170.506 33.1249C169.319 37.5493 165.167 42.0779 158.096 42.0779C150.272 42.0779 144.122 36.142 144.122 27.9998C144.122 19.8576 150.162 13.9159 157.876 13.9159C165.103 13.9159 169.203 18.3924 170.338 22.8689L163.916 25.029C163.267 22.8168 161.594 20.5525 158.038 20.5525C154.482 20.5525 151.292 23.199 151.292 27.9998C151.292 32.8006 154.419 35.4992 158.09 35.4992C161.762 35.4992 163.592 33.0728 164.188 31.0227H164.194ZM84.9434 14.0318C82.0826 14.0318 78.9033 15.2711 77.2818 18.0218V14.7325H70.3209V41.2729H77.4961V26.0077C77.4961 22.9326 79.3318 20.5062 82.459 20.5062C85.9105 20.5062 87.3698 22.8284 87.3698 25.7934V41.2787H94.5449V24.5541C94.5449 18.7283 91.522 14.0318 84.9434 14.0318ZM124.16 27.6813C124.16 28.7063 124.05 29.7835 124.05 29.8935H105.062C105.224 33.4029 108.189 35.9336 111.75 35.9336C115.097 35.9336 116.927 34.2599 117.79 31.8856L123.778 33.6635C122.429 38.25 118.225 42.0779 111.692 42.0779C104.407 42.0779 97.9906 36.8428 97.9906 27.8898C97.9906 19.4175 104.251 13.9159 111.044 13.9159C119.244 13.9159 124.155 19.1511 124.155 27.6755L124.16 27.6813ZM117.095 24.9827C116.985 22.3419 115.26 19.7475 111.16 19.7475C107.436 19.7475 105.386 22.5504 105.224 24.9827H117.095ZM251.581 20.8826V14.7325H246.242V8.00906H239.767V10.5224C239.767 12.8967 238.47 14.7325 235.667 14.7325H234.752V20.8826H239.119V33.4492C239.119 38.5743 242.356 41.6493 247.533 41.6493C249.635 41.6493 250.933 41.2729 251.581 41.0007V35.0649C251.205 35.1749 250.232 35.2792 249.369 35.2792C247.319 35.2792 246.242 34.5263 246.242 32.2041V20.8768H251.581V20.8826ZM214.466 37.0686C214.466 38.4701 214.628 40.3579 214.791 41.2787H208.206C208.044 40.578 207.934 39.1186 207.934 38.0936C206.585 40.1958 204.048 42.0316 200.11 42.0316C194.447 42.0316 190.995 38.2037 190.995 34.0457C190.995 29.297 194.505 26.6563 198.923 26.0077L205.45 25.0348C206.961 24.8205 207.448 24.0619 207.448 23.1469C207.448 21.259 205.994 19.6954 202.971 19.6954C199.948 19.6954 198.118 21.6933 197.898 24.0098L191.534 22.6604C191.962 18.5083 195.796 13.9217 202.919 13.9217C211.333 13.9217 214.466 18.6704 214.466 24.0098V37.0686ZM207.453 29.3549L201.465 30.2699C199.63 30.5421 198.176 31.5671 198.176 33.6171C198.176 35.1807 199.311 36.6922 201.628 36.6922C204.65 36.6922 207.453 35.2386 207.453 30.5421V29.3549ZM180.641 18.6762V14.7383H173.68V41.2787H180.855V29.1406C180.855 23.4249 184.04 21.6412 187.706 21.6412C188.354 21.6412 189.055 21.6933 189.866 21.8555V14.6282C189.327 14.5761 188.789 14.5182 188.192 14.5182C185.928 14.5182 182.256 15.1668 180.641 18.6704V18.6762ZM142.286 20.8826V14.7325H136.947V8.00326H130.473V10.5166C130.473 12.8909 129.176 14.7267 126.373 14.7267H125.458V20.8768H129.824V33.4434C129.824 38.5685 133.061 41.6436 138.239 41.6436C140.341 41.6436 141.638 41.2671 142.286 40.995V35.0591C141.91 35.1691 140.937 35.2734 140.074 35.2734C138.024 35.2734 136.947 34.5205 136.947 32.1983V20.871H142.286V20.8826ZM228.811 11.7501C228.811 9.17306 230.334 7.9164 231.955 7.9164C232.442 7.9164 232.795 7.9164 233.085 7.9164V1.77208C232.523 1.77208 231.926 1.7605 231.243 1.7605C225.365 1.7605 221.584 5.6463 221.584 11.6343V14.7325H217.159V20.8826H221.584V41.2729H228.811V20.8826H233.137V14.7325H228.811V11.7443V11.7501Z" fill="#003E52"/><path d="M39.3908 24.3514C37.0628 24.3514 35.3197 22.2376 35.3197 22.2376L31.5149 17.9001L25.3706 10.9045C25.3706 10.9045 21.9886 6.80444 17.4774 6.80444H14.2981L14.2112 24.5309H15.8501C18.1781 24.5309 19.9212 26.6446 19.9212 26.6446L23.726 30.9821L29.8703 37.9777C29.8703 37.9777 33.2523 42.0778 37.7635 42.0778H40.9428L41.0297 24.3514H39.3908Z" fill="#42A7C6"/><path d="M53.9206 24.2761V15.0915C53.9206 11.0435 51.3609 8.9066 49.5483 7.89316C49.1603 7.66152 48.7434 7.46462 48.2859 7.29668C47.9732 7.17507 47.7763 7.11716 47.7763 7.11716V7.12874C47.0871 6.92606 46.3169 6.80444 45.454 6.80444H41.0355V24.2761H53.9264H53.9206Z" fill="#ECD925"/><path d="M1.41302 24.5425V33.7271C1.41302 37.7751 3.97267 39.912 5.78528 40.9254C6.17328 41.157 6.59024 41.3539 7.04773 41.5219C7.36045 41.6435 7.55734 41.7014 7.55734 41.7014V41.6898C8.24648 41.8925 9.01669 42.0141 9.87956 42.0141H14.2981V24.5425H1.41302Z" fill="#003E52"/></svg>
