<svg  viewBox="0 0 150 36" xmlns="http://www.w3.org/2000/svg">
  <!-- brand colour fill: #FF6223 -->
  <!-- dark grey fill: #272C36 -->
  <path
    d="M3.80759 11.8594L18.1014 28.7954V11.8594H22.505V35.4818H18.6982L4.36595 18.4803V35.4818H0.000732422V11.8594H3.80759ZM117.422 18.9879C118.588 17.063 120.808 15.9844 123.338 15.9844C127.854 15.9844 130.773 19.1414 130.773 24.0293V35.617H126.491V24.722C126.491 21.6824 124.934 19.8342 122.442 19.8342C119.601 19.8342 117.422 22.0299 117.422 26.1482V35.617H113.14V16.3703H117.422V18.9879ZM100.427 15.9844C94.6671 15.9844 90.2295 20.4119 90.2295 25.9925C90.2295 31.5732 94.6671 36.0007 100.427 36.0007C106.187 36.0007 110.625 31.5732 110.625 25.9925C110.625 20.4119 106.187 15.9844 100.427 15.9844ZM100.427 32.1757C96.9051 32.1757 94.4524 29.4745 94.4524 25.9925C94.4524 22.5105 96.9051 19.8094 100.427 19.8094C103.949 19.8094 106.363 22.5105 106.363 25.9925C106.363 29.4745 103.911 32.1757 100.427 32.1757ZM45.2018 25.955C45.2018 26.4357 45.1702 26.9051 45.1114 27.3609H45.1091H28.9729C29.5336 30.3554 32.0971 32.3751 35.332 32.3751C38.1826 32.3751 40.0702 31.3912 41.4515 29.6762L44.1732 32.2036C42.0098 34.643 38.8744 35.9632 35.2845 35.9632C29.086 35.9632 24.766 31.8426 24.766 25.955C24.766 20.0675 28.9865 15.9469 34.95 15.9469C40.9134 15.9469 45.2018 20.0675 45.2018 25.955ZM34.9477 19.3927C31.923 19.3927 29.9834 21.2522 29.2894 23.9669H40.71C40.2104 21.3312 37.9724 19.3927 34.9477 19.3927ZM66.0823 29.6107L61.6448 16.3688H58.3737L53.8977 29.6107L49.6952 16.3688H45.1786L51.7185 35.6178H55.7672L60.0104 23.1454L64.2897 35.6178H68.3384L74.8784 16.3688H70.3232L66.0823 29.6107ZM83.4947 20.1389V28.7209C83.4947 31.1084 84.5459 31.993 86.7636 31.993C87.5819 31.993 88.4364 31.8373 89.0603 31.6071V35.3802C88.2036 35.651 87.1908 35.8045 85.8684 35.8045C82.1316 35.8045 79.2132 33.7645 79.2132 29.4137V20.1412H79.2086V20.1367H75.1938L83.4947 11.8594V16.3659H88.4703V20.1389H83.4947Z"
    fill="#FF6223"
  />
  <path
    d="M142.651 0L137.379 5.26246L142.651 10.5249V0ZM130.772 11.8583L133.401 9.23383L136.03 6.60938V11.8583H130.772ZM143.541 14.8887L138.283 20.1376L138.281 9.6375L143.541 14.8887ZM144.77 13.6428V8.41875H150.004L147.386 11.0319L144.77 13.6428Z"
    fill="#FF6223"
  />
</svg>
