<?xml version="1.0" encoding="utf-8"?>
<!-- Generator: Adobe Illustrator 19.2.1, SVG Export Plug-In . SVG Version: 6.00 Build 0)  -->
<svg version="1.1" id="layer" xmlns="http://www.w3.org/2000/svg" xmlns:xlink="http://www.w3.org/1999/xlink" x="0px" y="0px"
	 viewBox="0 0 652 652" style="enable-background:new 0 0 652 652;" xml:space="preserve">
<style type="text/css">
	.st0{fill:#222620;}
</style>
<g>
	<path class="st0" d="M68,406.3c0,7.2,5.3,42.3,39.4,42.3c34.1,0,38.9-34.6,38.9-42.3V238.2c0-7.7-4.8-41.8-38.9-41.8
		C73.3,196.4,68,231,68,238.2V406.3z M31,447.2c-10.1-20.7-10.6-38.9-10.6-40.8V238.2c0-1.9,0.5-20.2,10.6-40.8
		c13.9-27.9,41.3-43.2,76.4-43.2c35.1,0,62.5,15.4,76.4,43.2c10.1,20.7,10.6,38.9,10.6,40.8v168.2c0,1.9-0.5,20.2-10.6,40.8
		c-13.9,27.9-41.3,43.2-76.4,43.2C72.3,490.4,44.9,475,31,447.2"/>
	<path class="st0" d="M327.1,343.2L301.9,226c-8.9,39.7-16.8,77.5-25.2,117.2H327.1z M336,383.8h-68.2l-21.9,102.3h-47.2l70-326.9
		H335l70,326.9h-47.2L336,383.8z"/>
	<path class="st0" d="M419.9,447.2c-10.1-20.7-10.6-38.9-10.6-40.8V238.2c0-1.9,0.5-20.2,10.6-40.8c13.9-27.9,41.3-43.2,76.4-43.2
		c35.1,0,62.5,15.4,76.4,43.2c10.1,20.7,10.6,38.9,10.6,40.8v21.1h-48v-21.1c0-7.7-4.8-41.8-38.9-41.8c-34.1,0-39.4,34.6-39.4,41.8
		v168.2c0,7.2,5.3,42.3,39.4,42.3c34.1,0,38.9-34.6,38.9-42.3v-62.9H504v-42.3h79.3v105.2c0,1.9-0.5,20.2-10.6,40.8
		c-13.9,27.9-41.3,43.2-76.4,43.2C461.3,490.4,433.9,475,419.9,447.2"/>
</g>
<g>
	<path class="st0" d="M602.9,180.9h1.6c1.9,0,3.5-0.6,3.5-2.2c0-1.4-1-2.3-3.2-2.3c-0.9,0-1.6,0.1-1.9,0.2V180.9z M602.8,189.3h-3.5
		v-14.9c1.4-0.3,3.3-0.5,5.7-0.5c2.8,0,4.1,0.5,5.2,1.1c0.8,0.6,1.5,1.8,1.5,3.3c0,1.6-1.3,2.9-3.1,3.5v0.2c1.5,0.6,2.3,1.6,2.7,3.6
		c0.5,2.3,0.7,3.2,1.1,3.7h-3.7c-0.5-0.5-0.7-1.9-1.2-3.6c-0.3-1.6-1.2-2.4-3.1-2.4h-1.6V189.3z M593.6,181.5
		c0,6.6,4.9,11.9,11.6,11.9c6.6,0,11.4-5.3,11.4-11.8c0-6.6-4.8-12-11.5-12S593.6,175,593.6,181.5 M620.4,181.5
		c0,8.5-6.6,15.1-15.3,15.1c-8.6,0-15.4-6.6-15.4-15.1c0-8.3,6.8-14.9,15.4-14.9C613.8,166.6,620.4,173.2,620.4,181.5"/>
</g>
</svg>