<?xml version="1.0" encoding="UTF-8"?>
<svg version="1.1" viewBox="0 0 130 38" xmlns="http://www.w3.org/2000/svg">
 <path d="m24.776 0.21057c-7.0885-0.12193-15.79 1.8969-15.807 9.4492-5.3727 3.4299-8.9219 9.0193-8.9219 15.016 0 7.2436 5.8756 13.119 13.119 13.119 7.2436 0 13.121-5.8755 13.121-13.119 0-5.5885-3.5024-10.385-8.4434-12.256-0.9594-0.3598-3.0213-1.0091-4.6523-0.86523-2.3505 1.4871-5.2291 4.5588-6.5723 7.6289 2.0148-2.4225 5.1566-3.4792 7.9629-3.0234 4.1014 0.6716 7.2441 4.2218 7.2441 8.5391 0 4.7731-3.8617 8.6348-8.6348 8.6348-2.6384 0-4.9892-1.1747-6.5723-3.0215-2.3745-2.7583-2.9738-5.7326-2.4941-8.6348 1.655-10.17 13.719-15.951 22.689-18.182-2.9262 1.559-8.2027 4.1011-11.896 6.8594 10.769 4.1735 12.52-4.9172 17.557-8.9707-1.589-0.62212-4.4772-1.1184-7.6992-1.1738zm104.31 9.9297c-2.135 0-3.7184 0.45513-4.7734 1.3906-1.032 0.9354-1.5586 2.3513-1.5586 4.2461v0.47852h-2.0156v3.7422h2.1348v14.271h4.0547v-14.271h3.0215v-3.6934h-2.9512v-0.33594c1e-5 -0.7435 0.21701-1.2468 0.625-1.5586 0.407-0.2878 1.0781-0.45703 2.0371-0.45703h0.28907v-3.7656c-0.12 0-0.26408-0.02344-0.45508-0.02344-0.192-0.024-0.3362-0.02344-0.4082-0.02344zm-55.455 0.28711v23.842h4.1016v-23.842zm-21.395 5.3008c-1.2233 0-2.4229 0.26342-3.5742 0.79102-1.1513 0.5037-2.2058 1.249-3.1172 2.2324-0.8395 0.8874-1.4628 1.8947-1.8945 2.998-0.4318 1.1033-0.64844 2.3016-0.64844 3.5488 0 1.2233 0.23961 2.399 0.69531 3.5742 0.4558 1.1753 1.1273 2.1828 1.9668 3.0703 0.9115 0.9354 1.9196 1.6296 3.0469 2.1094 1.1274 0.4797 2.3502 0.7207 3.6934 0.7207 1.9908 0 3.7663-0.55146 5.2773-1.6309 1.5351-1.1033 2.6622-2.6152 3.4297-4.582h-4.5098c-0.4317 0.7196-1.0299 1.2486-1.7734 1.6562-0.7436 0.3838-1.584 0.57422-2.5195 0.57422-1.4151 0-2.5657-0.38345-3.4531-1.127-0.90518-0.73844-1.4068-1.7623-1.5547-3.0449h14.41c0-0.0959 0.02344-0.24113 0.02344-0.45703 0.024-0.2159 0.02539-0.35918 0.02539-0.45508 0-1.2472-0.1204-2.3511-0.4082-3.3105-0.2878-0.9834-0.71932-1.8457-1.2949-2.6133-0.9594-1.2952-2.1119-2.2785-3.4551-2.998-1.3432-0.6956-2.8062-1.0566-4.3652-1.0566zm36.361 0c-1.2232 0-2.421 0.26332-3.5723 0.79102-1.1513 0.5037-2.2076 1.249-3.1191 2.2324-0.8395 0.8875-1.4628 1.8946-1.8945 2.998-0.4317 1.1033-0.64648 2.3015-0.64648 3.5488 1e-6 1.2232 0.21561 2.4229 0.69531 3.5742 0.4557 1.1753 1.1274 2.1828 1.9668 3.0703 0.9115 0.9354 1.9176 1.6297 3.0449 2.1094 1.1273 0.4797 2.3502 0.7207 3.6934 0.7207 1.9908 0 3.7662-0.55156 5.2773-1.6309 1.535-1.1034 2.6622-2.6152 3.4297-4.582h-4.5078c-0.4317 0.7195-1.0318 1.2484-1.7754 1.6562-0.7435 0.3837-1.5841 0.57422-2.5195 0.57422-1.4152 0-2.5657-0.38345-3.4531-1.127-0.88156-0.73853-1.4066-1.7619-1.5547-3.0449h14.41c0-0.096 0.02539-0.24113 0.02539-0.45703 0.0239-0.2158 0.02344-0.35908 0.02344-0.45508 0-1.2472-0.1204-2.3511-0.4082-3.3105-0.2878-0.9834-0.71932-1.8458-1.2949-2.6133-0.9594-1.2952-2.1099-2.2784-3.4531-2.998-1.3432-0.6956-2.8081-1.0566-4.3672-1.0566zm20.436 0.0957c-1.367 0-2.6134 0.21618-3.6934 0.67188-1.079 0.4557-2.0866 1.1519-2.9746 2.1113-0.839 0.8635-1.462 1.8706-1.918 2.998-0.4553 1.1273-0.67187 2.3265-0.67187 3.5977 0 2.6864 0.9125 4.9408 2.6875 6.7637s4.006 2.7344 6.668 2.7344c1.415 0 2.59-0.21674 3.502-0.64844 0.911-0.4317 1.6054-1.1027 2.1094-1.9902v2.2305h4.0293v-18.012h-4.0762v2.1816c-0.576-0.8875-1.3443-1.5585-2.2793-1.9902-0.935-0.4317-2.0638-0.64844-3.3828-0.64844zm-37.225 0.16797c-0.9354 0-1.7995 0.19237-2.543 0.57617-0.7675 0.3838-1.4623 0.95989-2.0859 1.7754v-2.0879h-3.9336v17.99h4.1973v-9.1875c0-1.8709 0.31138-3.1653 0.95898-3.8848 0.6476-0.7196 1.7753-1.1516 3.4062-1.2715zm-45.092 0.26367 6.8359 18.014h3.2852l7.1953-18.014h-4.3398l-4.3184 11.969-4.1973-11.969zm25.545 3.334c1.2712 0 2.35 0.31195 3.1895 0.93555 0.8395 0.6236 1.439 1.5351 1.7988 2.7344h-9.7871c0.3118-1.1033 0.91143-1.9905 1.7988-2.6621 0.8875-0.6716 1.8727-1.0078 3-1.0078zm36.336 0c1.2712 0 2.352 0.31195 3.1914 0.93555 0.8395 0.6236 1.4391 1.5352 1.7988 2.7344h-9.7871c0.3118-1.1033 0.91133-1.9905 1.7988-2.6621 0.8874-0.6716 1.8707-1.0078 2.998-1.0078zm20.604 0.38477c1.367 0 2.5428 0.52663 3.5508 1.582 1.007 1.0553 1.5117 2.3025 1.5117 3.7656 0 1.3671-0.50472 2.5663-1.5117 3.5977-1.008 1.0313-2.1595 1.5352-3.4785 1.5352-1.463 0-2.6854-0.50386-3.6934-1.5352-1.007-1.0314-1.5117-2.3014-1.5117-3.8125 0-1.4391 0.50472-2.6391 1.5117-3.6465 1.008-0.9834 2.2061-1.4863 3.6211-1.4863z" fill="#046530"/>
</svg>
