<?xml version="1.0" encoding="UTF-8"?>
<svg version="1.1" viewBox="99.8 25 803.5 283.4" xmlns="http://www.w3.org/2000/svg">
 <path fill="#153050" d="m296.3 157.7v115.9h15.1v-48.199h23c21.2 0 35.301-11.601 35.301-33.801 0-23.3-13.001-33.9-35.301-33.9h-38.1zm513.1 0v16.602h17.9v-16.602h-17.9zm-498 13.9h23c12.1 0 20 6.3012 20 20.201 0 13.9-7.8 20-20 20 0 0-4.9992-0.1-7.1992 0-13.1 0.7-15.801 11.699-15.801 11.699v-51.9zm475.8 2.0996-14.9 4.1016v14.699h-12.4v12.199h12.4v46.5c0 16.5 7.5992 22.5 23.699 22.5h7.6016v-12.299h-2.7012c-12 0-13.699-2.5012-13.699-15.201v-41.398h16.4v-12.201h-16.4v-18.9zm-260.4 17c-19.6 0-32.801 14.102-32.801 40.602 0 27.7 12.901 40.6 32.801 40.6 12.2 0 20.2-6.8004 23.5-13.9v15.6c0 16.7-7.7004 22.701-19.9 22.701-11.9 0-18.499-4.8012-20.199-16.201h-14.9c1.7 17.5 14.401 28.301 34.301 28.301 22.4 0 35.799-13.1 35.799-34.9v-81.1h-15.1v12.4c-3-6.3-10.9-14.102-23.5-14.102zm-107.4 0.10156c-13.1 0-21.799 2.7984-27.299 15.898v-14.199-0.09961h-14.9v81.1h14.9v-41.199c0-24 11.099-26.801 22.699-26.801h4.5996v-14.699zm450.6 0c-23.8 0-35.1 18.999-35.1 42.199 0 24.3 11.3 42.199 35.1 42.199 19.9 0 30.601-12.099 33.301-29.299h-15.1c-1.6 11.9-7.4012 17.199-18.201 17.199-13.2 0-20.199-9.7996-20.199-30.1s6.9992-30.1 20.199-30.1c10.3 0 15.701 4.8004 18.201 16.4h15.1c-3.5-17.1-12.901-28.5-33.301-28.5zm-415.4 0.09961c-18.1 0-31.301 10.099-31.301 25.299h15.1c0-7.9 5.3012-13.199 16.201-13.199 10.6 0 16.199 5.0992 16.199 15.699v6.1016c-33.6 1.5-50.301 10.799-50.301 27.799 0 12.9 9.9 22.701 24.5 22.701 10.6 0 20.701-6.3016 25.801-15.102-0.2 5.5 0 9.6004 1 13.4v0.09961h14.9c-0.8-5.8-1-15.398-1-35.398v-19.9c0-17.7-11.9-27.5-31.1-27.5zm269.5 0c-18.1 0-31.301 10.099-31.301 25.299h15.1c0-7.9 5.3012-13.199 16.201-13.199 10.6 0 16.199 5.0992 16.199 15.699v6.1016c-33.6 1.5-50.301 10.799-50.301 27.799 0 12.9 9.9 22.701 24.5 22.701 10.6 0 20.701-6.3016 25.801-15.102-0.2 5.5 0 9.6004 1 13.4v0.09961h14.9c-0.8-5.8-1-15.398-1-35.398v-19.9c0-17.7-11.9-27.5-31.1-27.5zm-108.4 0.09961c-10.1 0-17.601 6.7996-21.701 14.6v-12.9h-14.898v81.102h14.898v-49.701c0-13.3 7.3004-20.9 15.4-20.9 8.5 0 13.6 4.0004 13.6 14.4v56.1h15.102v-49.699c0-13.3 7.0992-20.9 15.199-20.9 8.6 0 13.6 4.0004 13.6 14.4v56.1 0.20117h15v-56.301c0-18.7-8.9992-26.5-22.199-26.5-10.3 0-17.5 5.6996-24 15.1-3-10.1-9.9-15.1-20-15.1zm195.2 1.5v81.1h14.9v-81.1h-14.9zm-280.8 10.4c13.1 0 21 9 21 28.5s-7.8 28.5-21 28.5c-13.3 0-21.201-9-21.201-28.5 0-19.4 8.0012-28.5 21.201-28.5zm-59.301 31.1v8.1992c0 12.5-10.6 21-21.9 20.9-8.1 0-13.4-4.0996-13.4-11.6 0-10.1 9.6008-16 35.301-17.5zm269.5 0v8.1992c0 12.5-10.6 21-21.9 20.9-8.1 0-13.4-4.0996-13.4-11.6 0-10.1 9.6008-16 35.301-17.5z"/>
 <path fill="#FCBE0C" d="m173.8 25c-40.9 0-74 33.301-74 74.301v0.19922 7.0996 88c1-1.9 2.2992-3.7992 3.6992-5.6992 11.9-15.4 27.701-15.301 35.301-15.301h2.3008 0.09961 30.299c0.8 0.1 1.5008 0.20117 2.3008 0.20117 40.8 0 74.1-33.4 74.1-74.4s-33.2-74.4-74.1-74.4zm-35 160c-7.3 0-20.9 0.5004-31.4 13.9-6 7.8-7.2996 15.599-7.5996 18.699v2.5996c0.1 5.4 1.3996 23.602 16.6 38.602 13.2 13 29.2 15 36.5 15.5 0-14.9 0.10117-29.001 0.20117-43.701 0.1-14.8 0.19922-30.6 0.19922-45.5h-12.199c-0.5-0.1-1.4008-0.09961-2.3008-0.09961z"/>
</svg>
