<?xml version="1.0" encoding="UTF-8"?>
<svg version="1.1" viewBox="0 0 290 331.92" xmlns="http://www.w3.org/2000/svg">
  <title>Qube Research &amp; Technologies</title>
  <path
        fill="#27aae1"
        d="m144.13 0-19.121 10.84 19.121 10.84zm1.7383 0v21.68l19.121-10.84zm-23.488 12.33-19.121 10.84 19.121 10.84zm1.7383 0v21.68l19.121-10.84zm41.762 0-19.121 10.84 19.121 10.84zm1.7383 0v21.68l19.121-10.84zm-67 12.33-19.109 10.84 19.109 10.84zm1.7402 0v21.68l19.121-10.84zm41.771 0-19.121 10.84 19.121 10.84zm1.7383 0v21.68l19.121-10.84zm41.762 0-19.111 10.84 19.111 10.84zm1.75 0v21.68l19.109-10.84zm-67 12.34-19.121 10.84 19.121 10.83zm1.7383 0v21.67l19.121-10.83zm41.762 0-19.121 10.84 19.121 10.83zm1.7383 0v21.67l19.121-10.83zm-23.488 12.33-19.121 10.84 19.121 10.84zm1.7383 0v21.68l19.121-10.84z"/>
  <path
        fill="#1b75bc"
        d="m80.609 37v21.67l19.121-10.83zm20.01 12.33-19.109 10.84 19.109 10.84zm1.7402 0v21.68l19.121-10.84zm-21.75 12.33v21.68l19.121-10.84zm41.771 0-19.121 10.84 19.121 10.84zm1.7383 0v21.68l19.121-10.84zm-23.5 12.33-19.109 10.84 19.109 10.84zm1.7402 0v21.68l19.121-10.84zm41.771 0-19.121 10.84 19.121 10.84zm-63.521 12.34v21.67l19.121-10.83zm41.771 0-19.121 10.83 19.121 10.84zm1.7383 0v21.67l19.121-10.83zm-23.5 12.33-19.109 10.84 19.109 10.84zm1.7402 0v21.67l19.121-10.83zm41.771 0-19.121 10.84 19.121 10.83zm-21.75 12.33-19.121 10.84 19.121 10.84zm1.7383 0v21.68l19.121-10.84zm20.012 12.33-19.121 10.84 19.121 10.84z"/>
  <path
        fill="#72c6ef"
        d="m209.39 37-19.121 10.84 19.121 10.83zm-21.76 12.33-19.111 10.84 19.111 10.84zm1.75 0v21.68l19.109-10.84zm-23.5 12.33-19.121 10.84 19.121 10.84zm1.7383 0v21.68l19.121-10.84zm41.771 0-19.121 10.84 19.121 10.84zm-63.521 12.33v21.68l19.121-10.84zm41.762 0-19.111 10.84 19.111 10.84zm1.75 0v21.68l19.109-10.84zm-23.5 12.34-19.121 10.83 19.121 10.84zm1.7383 0v21.67l19.121-10.83zm41.771 0-19.121 10.83 19.121 10.84zm-63.521 12.33v21.67l19.121-10.83zm41.762 0-19.111 10.84 19.111 10.84zm1.75 0v21.68l19.109-10.84zm-23.5 12.33-19.121 10.84 19.121 10.84zm1.7383 0v21.68l19.121-10.84zm-21.75 12.33v21.68l19.121-10.84z"/>
  <path
        d="m258.25 178.15h-50.5v18.59h31.91v89.83h18.59v-89.83h31.75v-18.59zm-59.46 59.94a39.79 39.79 0 0 0 4.49-9.83 38.51 38.51 0 0 0 1.62-11.26 37.19 37.19 0 0 0-3.09-15.1 39.68 39.68 0 0 0-20.68-20.68 37.06 37.06 0 0 0-15.1-3.1h-40.58v108.45h18.55v-89.83h22a19.66 19.66 0 0 1 14.4 6 20.16 20.16 0 0 1 4.34 22 21.69 21.69 0 0 1-4.34 6.66 19.66 19.66 0 0 1-14.4 6h-8l-7.59 18.59h12.7l19.67 30.51h22.12l-22.15-34.38a37.68 37.68 0 0 0 9.07-6 38.7 38.7 0 0 0 7-8.13m-88.74 11.16a56.56 56.56 0 0 1-7.2 14.87l9.76 9.91v26.33l-56.41-56.26v-26.35l33.14 33a37.3 37.3 0 0 0 4.63-18.44 37.7 37.7 0 0 0-2.79-14.41 37.05 37.05 0 0 0-8.21-12.23 37.92 37.92 0 0 0-12.23-8.29 37.22 37.22 0 0 0-14.56-2.87 36.77 36.77 0 0 0-14.41 2.87 38.07 38.07 0 0 0-12.24 8.29 37.05 37.05 0 0 0-8.21 12.23 37.88 37.88 0 0 0-2.78 14.41 38.39 38.39 0 0 0 2.78 14.48 37.94 37.94 0 0 0 20.45 20.52 37.63 37.63 0 0 0 14.43 2.79 34 34 0 0 0 3.94-0.23c1.3-0.16 2.56-0.34 3.8-0.54l14.71 14.71a60.55 60.55 0 0 1-10.76 3.41 56.27 56.27 0 0 1-33.61-3.18 55.77 55.77 0 0 1-17.89-12.08 57.5 57.5 0 0 1-12-18 56.66 56.66 0 0 1 0-43.83 57.5 57.5 0 0 1 12-18 55.77 55.77 0 0 1 17.89-12.08 55.07 55.07 0 0 1 21.92-4.41 55 55 0 0 1 22 4.41 56.5 56.5 0 0 1 30 30 55.11 55.11 0 0 1 4.42 21.92 56.13 56.13 0 0 1-2.56 17"
        fill="#0b072c"/>
  <path
        fill="#27aae1"
        d="m229.29 320.96a4.89 4.89 0 0 0-2.1504 0.39453 5.07 5.07 0 0 0-1.5801 1.0703 4.93 4.93 0 0 0-1.0606 1.5801 5 5 0 0 0 0 3.8594 4.92 4.92 0 0 0 2.6406 2.6406 5 5 0 0 0 3.8594 0 4.92 4.92 0 0 0 2.6094-2.6406 4.86 4.86 0 0 0 0.39062-1.9297 2.75 2.75 0 0 0 0-0.41016c0-0.14-0.06906-0.26867-0.03906-0.38867h-5.6719l-0.4082 1.6289h4.4199a3.34 3.34 0 0 1-0.87109 1.541 3.38 3.38 0 0 1-1.0801 0.72852 3.46 3.46 0 0 1-1.2793 0.24023 3.41 3.41 0 0 1-1.2695-0.24023 3.24 3.24 0 0 1-1.0703-0.72852 3.18 3.18 0 0 1-0.73047-1.0801 3.23 3.23 0 0 1-0.25-1.2715 3.2 3.2 0 0 1 0.25-1.2695 3.38 3.38 0 0 1 0.73047-1.0801 3.22 3.22 0 0 1 2.3398-1 3.28 3.28 0 0 1 1.2793 0.25 3.38 3.38 0 0 1 1.0801 0.73047l1.1406-1.1602a4.89 4.89 0 0 0-3.2793-1.4648zm-99.041 0.01562a4.77 4.77 0 0 0-1.9199 0.37891 5 5 0 0 0-1.5898 1.0703 4.93 4.93 0 0 0-1.0605 1.5801 5 5 0 0 0 0 3.8594 5 5 0 0 0 1.0605 1.5801 5 5 0 0 0 1.5898 1.0606 4.78 4.78 0 0 0 1.9199 0.39062 4.84 4.84 0 0 0 1.9394-0.39062 5.07 5.07 0 0 0 1.5801-1.0703l-1.1602-1.1191a3.34 3.34 0 0 1-1.0703 0.72851 3.44 3.44 0 0 1-1.2891 0.24024 3.21 3.21 0 0 1-2.3398-1 3.18 3.18 0 0 1-0.73047-1.0801 3.23 3.23 0 0 1-0.25-1.2695 3.2 3.2 0 0 1 0.25-1.2695 3.43 3.43 0 0 1 1.8105-1.8106 3.18 3.18 0 0 1 1.2598-0.25 3.26 3.26 0 0 1 1.2891 0.25 3.34 3.34 0 0 1 1.0703 0.73047l1.1602-1.1602a5.07 5.07 0 0 0-1.5801-1.0703 4.83 4.83 0 0 0-1.9394-0.37891zm46.359 0a5.09 5.09 0 0 0-1.9297 0.37891 5.07 5.07 0 0 0-1.5801 1.0703 4.93 4.93 0 0 0-1.0606 1.5801 5 5 0 0 0 0 3.8594 4.92 4.92 0 0 0 2.6406 2.6406 5 5 0 0 0 3.8594 0 5.24 5.24 0 0 0 1.5918-1.0703l-1.1309-1.1191a3.38 3.38 0 0 1-1.0801 0.72851 3.43 3.43 0 0 1-1.2793 0.24024 3.21 3.21 0 0 1-2.3516-1 3.15 3.15 0 0 1-0.71875-1.0801 3.24 3.24 0 0 1-0.25976-1.2695 3.21 3.21 0 0 1 0.25976-1.2695 3.37 3.37 0 0 1 1.7988-1.8106 3.2 3.2 0 0 1 1.2715-0.25 3.25 3.25 0 0 1 1.2793 0.25 3.38 3.38 0 0 1 1.0801 0.73047l1.1309-1.1602a5.24 5.24 0 0 0-1.5918-1.0703 5.09 5.09 0 0 0-1.9297-0.37891zm-133.4 0.00977a5.09 5.09 0 0 0-1.9316 0.37891 5 5 0 0 0-1.5801 1.0703 5 5 0 0 0-1.0488 5.4394 5 5 0 0 0 1.0488 1.5801 4.93 4.93 0 0 0 1.5801 1.0606 4.79 4.79 0 0 0 1.9316 0.39062 4.9 4.9 0 0 0 1-0.11133 4.79 4.79 0 0 0 0.94922-0.29883l-1.291-1.3008-0.33984 0.05078a1.94 1.94 0 0 1-0.33984 0 3.21 3.21 0 0 1-2.3496-1 3 3 0 0 1-0.7207-1.0801 3.23 3.23 0 0 1-0.25-1.2695 3.31 3.31 0 0 1 1-2.3516 3.38 3.38 0 0 1 1.0801-0.72851 3.2 3.2 0 0 1 1.2715-0.25 3.25 3.25 0 0 1 1.2793 0.25 3.34 3.34 0 0 1 1.0703 0.72851 3.21 3.21 0 0 1 1 2.3516 3.3 3.3 0 0 1-0.41016 1.6192l-2.9102-2.9004v2.3105l5 5v-2.3105l-0.85938-0.87891a5 5 0 0 0 0.85938-2.8008 4.82 4.82 0 0 0-0.39062-1.9297 5.08 5.08 0 0 0-2.7188-2.6406 5.09 5.09 0 0 0-1.9297-0.37891zm105.51 0a2.53 2.53 0 0 0-1 0.20898 2.65 2.65 0 0 0-0.85156 0.57032 2.88 2.88 0 0 0-0.56836 0.84961 2.53 2.53 0 0 0-0.21094 1 2.26 2.26 0 0 0 0.24024 1 5.17 5.17 0 0 0 0.61914 0.90039l-0.29883 0.21093-0.28125 0.22852a2.41 2.41 0 0 0-0.72852 1.7715 3.05 3.05 0 0 0 0.22852 1.1992 2.86 2.86 0 0 0 0.68164 1 3.1 3.1 0 0 0 3.3887 0.66992 2.88 2.88 0 0 0 1-0.66992 3.16 3.16 0 0 0 0.3711-0.44922 7 7 0 0 1 0.77929 1.1699l1.4805-0.73046a8.77 8.77 0 0 0-0.73047-1.1406 11.47 11.47 0 0 0-1-1.1094 1.62 1.62 0 0 1 1.25-1.6309l-0.5-1.5684a3.31 3.31 0 0 0-1.8691 1.3789 1.28 1.28 0 0 0-0.16015 0.26954c-0.04 0.08999-0.08086 0.19101-0.13086 0.29101l-0.68946-0.58008c-0.17-0.12-0.3207-0.24937-0.4707-0.35937l-0.41992-0.36133-0.41016-0.36914a4.4 4.4 0 0 1-0.36914-0.38086 2 2 0 0 1-0.26953-0.38867 0.78 0.78 0 0 1-0.11133-0.3711 1 1 0 0 1 1-1 1 1 0 0 1 0.72071 0.30078 1 1 0 0 1 0.30078 0.71876h1.6289a2.53 2.53 0 0 0-0.20898-1 3.06 3.06 0 0 0-0.56055-0.84961 2.65 2.65 0 0 0-0.84961-0.57032 2.6 2.6 0 0 0-1-0.20898zm53.639 0.01953a4.85 4.85 0 0 0-1.9297 0.38086 5.07 5.07 0 0 0-1.5801 1.0684 4.93 4.93 0 0 0-1.0606 1.5801 5 5 0 0 0 0 3.8613 4.92 4.92 0 0 0 2.6406 2.6387 5 5 0 0 0 3.8594 0 4.92 4.92 0 0 0 2.6406-2.6387 5 5 0 0 0 0-3.8613 4.93 4.93 0 0 0-1.0606-1.5801 5.07 5.07 0 0 0-1.5801-1.0684 4.82 4.82 0 0 0-1.9297-0.38086zm16.191 0a4.85 4.85 0 0 0-1.9316 0.38086 5.07 5.07 0 0 0-1.5801 1.0684 4.93 4.93 0 0 0-1.0586 1.5801 5 5 0 0 0 0 3.8613 4.92 4.92 0 0 0 2.6387 2.6387 5 5 0 0 0 3.8613 0 4.92 4.92 0 0 0 2.6387-2.6387 5 5 0 0 0 0-3.8613 4.93 4.93 0 0 0-1.0586-1.5801 5.07 5.07 0 0 0-1.5801-1.0684 4.85 4.85 0 0 0-1.9297-0.38086zm-123.28 0.11914a4.13 4.13 0 0 0-1.0801 0.15039 2.83 2.83 0 0 0-1 0.49024 2.61 2.61 0 0 0-0.72852 0.90039 2.94 2.94 0 0 0-0.28125 1.3594 2.4 2.4 0 0 0 1.2402 2 5 5 0 0 0 1.0703 0.56055c0.36 0.14 0.63008 0.22906 0.83008 0.28906a0.13 0.13 0 0 0 0.080079 0 0.25 0.25 0 0 0 0.089843 0h0.12891l0.49023 0.15039a2.91 2.91 0 0 1 0.50977 0.2207 1.3 1.3 0 0 1 0.49023 0.35938 0.85 0.85 0 0 1 0.25 0.61133 1.07 1.07 0 0 1-0.45898 0.89844 2 2 0 0 1-0.50977 0.24023 2.27 2.27 0 0 1-0.65039 0.08984 3.52 3.52 0 0 1-0.49023-0.04883 2.35 2.35 0 0 1-0.64062-0.16992 3.3 3.3 0 0 1-1-0.63086l-1.1289 1.1309a5.55 5.55 0 0 0 1.459 0.83008 5.3 5.3 0 0 0 2 0.35938 3.7 3.7 0 0 0 1.2812-0.21094 2.66 2.66 0 0 0 1-0.58008 2.54 2.54 0 0 0 0.61914-0.9082 3.3 3.3 0 0 0 0.2207-1.2109 2.46 2.46 0 0 0-1.3496-1.9199 4.76 4.76 0 0 0-0.60156-0.35938l-0.57031-0.25976-0.44922-0.16016-0.25977-0.08008h-0.16016l-0.5293-0.15039a3.71 3.71 0 0 1-0.55078-0.2207 1.62 1.62 0 0 1-0.49024-0.36914 0.88 0.88 0 0 1-0.24023-0.63086 1.08 1.08 0 0 1 0.60156-1 1.54 1.54 0 0 1 0.46875-0.17969 2.13 2.13 0 0 1 0.55078-0.07031 2.77 2.77 0 0 1 1.1992 0.26953 3.32 3.32 0 0 1 0.75 0.56055l1.1602-1.1699-0.25977-0.20899a2.5 2.5 0 0 0-0.33984-0.24023 6.3 6.3 0 0 0-1.0703-0.46094 4.9 4.9 0 0 0-1.6504-0.23047zm152.61 0a4.07 4.07 0 0 0-1.0801 0.15039 2.75 2.75 0 0 0-1 0.49024 2.5 2.5 0 0 0-0.73047 0.90039 2.94 2.94 0 0 0-0.28125 1.3594 2.4 2.4 0 0 0 1.2402 2 4.78 4.78 0 0 0 1.0703 0.56055c0.36 0.14 0.63031 0.22906 0.82031 0.28906h0.08008 0.09961a0.3 0.3 0 0 1 0.12109 0l0.49024 0.15039a3 3 0 0 1 0.51953 0.2207 1.39 1.39 0 0 1 0.49023 0.35938 0.9 0.9 0 0 1 0.25 0.61133 1.08 1.08 0 0 1-0.4707 0.89844 1.72 1.72 0 0 1-0.50977 0.24023 2.17 2.17 0 0 1-0.65039 0.08984 3.67 3.67 0 0 1-0.49023-0.04883 2.44 2.44 0 0 1-0.63867-0.16992 3.43 3.43 0 0 1-1-0.63086l-1.1309 1.1309a5.72 5.72 0 0 0 1.459 0.83008 5.31 5.31 0 0 0 2 0.35938 3.7 3.7 0 0 0 1.2812-0.21094 2.62 2.62 0 0 0 1-0.58008 2.42 2.42 0 0 0 0.61914-0.9082 3.11 3.11 0 0 0 0.22071-1.2109 2.46 2.46 0 0 0-1.3398-1.9199 4.24 4.24 0 0 0-0.60937-0.35938l-0.56055-0.25976-0.45117-0.16016-0.25977-0.08008h-0.16015l-0.53907-0.15039a3.21 3.21 0 0 1-0.54101-0.2207 1.62 1.62 0 0 1-0.48828-0.36914 0.85 0.85 0 0 1-0.25-0.63086 1.08 1.08 0 0 1 0.59961-1 1.71 1.71 0 0 1 0.47851-0.17969 2 2 0 0 1 0.54102-0.07031 2.77 2.77 0 0 1 1.1992 0.26953 2.93 2.93 0 0 1 0.75 0.56055l1.1602-1.1699-0.25-0.20899a2.65 2.65 0 0 0-0.34961-0.24023 6.15 6.15 0 0 0-1.0605-0.46094 5 5 0 0 0-1.6484-0.23047zm-170.64 0.02148v9.5391h1.6289v-7.9004h1.9414a1.79 1.79 0 0 1 1.6504 1.1016 1.72 1.72 0 0 1 0 1.3594 1.93 1.93 0 0 1-0.38086 0.58985 1.76 1.76 0 0 1-1.2695 0.5293h-0.71094l-0.66992 1.6406h1.1211l1.7285 2.6797h2l-2-3a3.27 3.27 0 0 0 1.4102-1.2402 3.32 3.32 0 0 0 0.54102-1.8496 3.33 3.33 0 0 0-0.23047-1.3301 3.56 3.56 0 0 0-1.8594-1.8496 3.29 3.29 0 0 0-1.3301-0.26954h-3.5703zm40.57 0v9.5391h1.6289v-7.9004h1.9414a1.69 1.69 0 0 1 1.2598 0.53125 1.74 1.74 0 0 1 0.38868 1.9297 2 2 0 0 1-0.38868 0.58985 1.72 1.72 0 0 1-1.2598 0.5293h-0.71094l-0.66992 1.6406h1.0898l1.7305 2.6797h2l-2-3a3.43 3.43 0 0 0 0.79883-0.51953 3.46 3.46 0 0 0 1.1504-2.5703 3.17 3.17 0 0 0-0.25-1.3594 3.49 3.49 0 0 0-0.73047-1.0801 3.45 3.45 0 0 0-1.0898-0.74023 3.25 3.25 0 0 0-1.3184-0.26954h-3.5703zm71.439 0.01954v9.5391h1.6406v-6.5293l3.8301 6.5293h1.7695v-9.5391h-1.6602v6.5195l-3.8301-6.5195h-1.75zm-140 0.00976v5.7207a4 4 0 0 0 1.1699 2.8398 4.18 4.18 0 0 0 1.2793 0.85937 3.85 3.85 0 0 0 1.5605 0.31055 3.91 3.91 0 0 0 1.5605-0.31055 4.13 4.13 0 0 0 1.2695-0.85937 3.9 3.9 0 0 0 0.85938-1.2812 3.85 3.85 0 0 0 0.32031-1.5586v-5.7207h-1.6387v5.7207a2.34 2.34 0 0 1-0.70117 1.6797 2.29 2.29 0 0 1-1.6699 0.69922 2.34 2.34 0 0 1-0.91016-0.17969 2.44 2.44 0 0 1-0.76953-0.51953 2.33 2.33 0 0 1-0.51953-0.76953 2.53 2.53 0 0 1-0.16992-0.91016v-5.7207h-1.6406zm17.961 0v9.541h6.3887v-1.6406h-4.7891v-2.3105h4l-0.41016-1.6406h-3.5605v-2.3086h4.791v-1.6406h-6.4199zm18.02 0v9.541h6.3789v-1.6406h-4.7793v-2.3105h4l-0.41016-1.6406h-3.5508v-2.3086h4.7812v-1.6406h-6.4199zm14.699 0v9.541h6.3906v-1.6406h-4.791v-2.3105h4l-0.41016-1.6406h-3.5586v-2.3086h4.7891v-1.6406h-6.4199zm11.18 0-4.3086 9.541h1.7988l0.73047-1.6406h4l-0.74024-1.6309h-2.4805l1.9414-4.2793 1.9297 4.2793 0.74023 1.6309 0.72852 1.6406h1.8008l-4.3496-9.541h-1.791zm23.26 0v9.541h1.6309v-3.9512h4v3.9512h1.6094v-9.541h-1.6094v3.9492h-4v-3.9492h-1.6309zm22.631 0v1.6406h2.8301v7.9004h1.6406v-7.9004h2.7891l-0.01954-1.6406h-7.2402zm7.7793 0v9.541h6.4199v-1.6406h-4.7891v-2.3105h4l-0.41016-1.6406h-3.5606v-2.3086h4.7598v-1.6406h-6.4199zm15.951 0v9.541h1.6387v-3.9512h4v3.9512h1.6309v-9.541h-1.6309v3.9492h-4v-3.9492h-1.6387zm57.049 0v9.541h6.4199v-1.6406h-4.7891v-2.3105h4l-0.41016-1.6406h-3.5293v-2.3086h4.7285v-1.6406h-6.4199zm-29.559 0.00977v9.5312h5.3887v-1.6406h-3.75v-7.8906h-1.6387zm26.66 0v9.5312h1.6289v-9.5312h-1.6289zm-176.4 0.00976v9.541h1.6387v-3.9512h3.3418a1.12 1.12 0 0 1 0.80859 0.33008 1.1 1.1 0 0 1 0.33008 0.81054 1.1 1.1 0 0 1-0.33008 0.81055 1.12 1.12 0 0 1-0.80859 0.33008h-2.0605l-0.66016 1.6387h2.6992a2.56 2.56 0 0 0 1.0703-0.21875 2.71 2.71 0 0 0 0.89062-0.58985 2.91 2.91 0 0 0 0.59961-0.89062 2.82 2.82 0 0 0 0.19922-1.0801 2.68 2.68 0 0 0-0.33008-1.3105 2.93 2.93 0 0 0-0.86914-1 3.14 3.14 0 0 0 0.42969-0.75977 2.84 2.84 0 0 0 0.14062-0.87891 2.64 2.64 0 0 0-0.2207-1.0801 2.78 2.78 0 0 0-0.58984-0.88085 2.59 2.59 0 0 0-0.89062-0.59961 2.64 2.64 0 0 0-1.0801-0.22071h-4.3086zm143.88 1.4102a3.28 3.28 0 0 1 1.2812 0.30078 3.38 3.38 0 0 1 1.0801 0.73047 3.2 3.2 0 0 1 0.71875 1.0801 3.38 3.38 0 0 1 0.25 1.2695 3.42 3.42 0 0 1-0.25 1.2695 3 3 0 0 1-0.71875 1.0801 3.38 3.38 0 0 1-1.0801 0.73047 3.46 3.46 0 0 1-1.2812 0.24023 3.41 3.41 0 0 1-1.2695-0.24023 3.24 3.24 0 0 1-1.0703-0.73047 3.18 3.18 0 0 1-0.73047-1.0801 3.23 3.23 0 0 1-0.25-1.2695 3.2 3.2 0 0 1 0.25-1.2695 3.38 3.38 0 0 1 0.73047-1.0801 3.22 3.22 0 0 1 2.3398-1v-0.03125zm16.191 0a3.2 3.2 0 0 1 1.2695 0.28125 3.32 3.32 0 0 1 1.0898 0.72852 3.2 3.2 0 0 1 0.7207 1.0801 3.38 3.38 0 0 1 0.25 1.2715 3.42 3.42 0 0 1-0.25 1.2695 3 3 0 0 1-0.7207 1.0801 3.32 3.32 0 0 1-1.0898 0.72851 3.48 3.48 0 0 1-2.541 0 3.24 3.24 0 0 1-1.0684-0.72851 3 3 0 0 1-0.73047-1.0801 3.31 3.31 0 0 1 1.7988-4.3496 3.2 3.2 0 0 1 1.2715-0.25v-0.03125zm-158.43 0.25977h2.6699a1.13 1.13 0 0 1 1.1406 1.1406 1.13 1.13 0 0 1-1.1406 1.1699h-2.6699v-2.3105zm88.102 3.8008a1.64 1.64 0 0 0 0.25 0.20898l0.26953 0.2207 0.67969 0.55078c0.24 0.19 0.47094 0.38961 0.71094 0.59961a1.47 1.47 0 0 1-0.54102 0.68946 1.43 1.43 0 0 1-0.84961 0.26953 1.37 1.37 0 0 1-0.58007-0.11914 1.4 1.4 0 0 1-0.47071-0.32031 1.67 1.67 0 0 1-0.30859-0.47071 1.4 1.4 0 0 1-0.12109-0.57812 0.84 0.84 0 0 1 0.17968-0.51172 2.3 2.3 0 0 1 0.78125-0.53906z"/>
</svg>
