<?xml version="1.0" encoding="UTF-8"?><svg id="Layer_2" xmlns="http://www.w3.org/2000/svg" viewBox="0 0 240 217.567"><defs><style>.cls-1{fill:#ec6216;}</style></defs><g id="Type"><g><path class="cls-1" d="M104.999,70.997c0-4.611-3.762-7.591-9.584-7.591h-12.008v15.084h12.008c5.822,0,9.584-2.941,9.584-7.493Z"/><path class="cls-1" d="M228.791,52.38C201.038-1.152,137.204-15.484,72.808,17.901,8.697,51.139-16.593,111.677,11.16,165.209c27.79,53.603,91.802,67.753,155.912,34.516,64.396-33.385,89.51-93.741,61.719-147.344Zm-156.645,3.146h23.679c12.449,0,20.493,5.459,20.493,13.908,0,5.834-3.675,10.008-9.396,11.015,6.304,.954,10.033,5.291,10.353,12.223l.489,10.721h-11.536l-.429-9.413c-.244-4.844-3.648-7.512-9.584-7.512h-12.809v16.925h-11.261V55.526Zm40.831,67.643h-16.065v39.302h-11.32v-39.302h-16.065v-8.564h43.45v8.564Zm33.585,31.872c9.149,0,16.081-4.957,16.857-12.053l.041-.376h11.244l-.028,.448c-.754,12.224-12.315,20.761-28.115,20.761-17.406,0-29.562-10.396-29.562-25.282s12.156-25.282,29.562-25.282c15.912,0,27.497,8.401,28.174,20.431l.025,.435-11.248,.274-.035-.394c-.644-7.161-7.6-12.163-16.915-12.163-10.66,0-18.105,6.866-18.105,16.698,0,9.717,7.445,16.503,18.105,16.503Z"/></g></g></svg>