<?xml version="1.0" encoding="UTF-8"?>
<svg version="1.1" viewBox="0 0 24 24" xmlns="http://www.w3.org/2000/svg">
 <path d="m20.856 11.405c-0.576-0.5808-1.2912-0.8256-2.3568-0.8256h-2.2896c-0.4176 0-0.648-0.2208-0.6432-0.6432v-1.2384c-0.0048-0.4224 0.2256-0.6432 0.6432-0.6432h5.1792v-2.8032h-5.4672c-2.0256-0.0192-3.192 1.1328-3.168 3.1632v1.824c0 1.032 0.2256 1.68 0.7872 2.2416 0.552 0.5568 1.2288 0.792 2.2512 0.792h2.4096c0.4176 0 0.648 0.2208 0.6432 0.6432v1.344c0 0.216-0.0528 0.3648-0.1632 0.48-0.1152 0.1152-0.2592 0.1632-0.48 0.1632h-7.272l-1.4832-2.4336c1.6656-0.0192 2.664-0.9936 2.6304-2.7024v-2.3424c0-1.08-0.2352-1.7568-0.8208-2.3376-0.576-0.5808-1.2768-0.8352-2.3472-0.8352h-6.2016v13.445h2.8416v-10.642h3.072c0.216 0 0.3648 0.0528 0.48 0.1632 0.1152 0.1152 0.1632 0.2592 0.1632 0.48v1.7136c0.0048 0.4224-0.2256 0.6432-0.6432 0.6432-0.8832 0.0192-1.7472-0.1632-2.2656 0.6672-0.3888 0.6048-0.2496 1.464 0.1248 2.0592 0.3984 0.7104 2.5632 4.56 2.5632 4.56 0.1296 0.2304 0.3696 0.36 0.6624 0.36h8.7984c2.0304 0.0288 3.1872-1.1424 3.168-3.168v-1.7856c0.0048-1.08-0.2352-1.7616-0.816-2.3424z" fill="#ef0000"/>
</svg>
