<?xml version="1.0" encoding="UTF-8"?>
<svg version="1.1" viewBox="0 0 230 122.55" xmlns="http://www.w3.org/2000/svg">
 <path d="m150.39 3.7753c-5.257 0-9.8507 1.9814-13.305 5.7344l-8.5703 8.5391a5.02 5.02 0 0 0-0.17188 0.17969c-1.042 1.065-1.9741 2.2763-2.7891 3.6133-3.267-2.322-7.4275-3.5469-12.27-3.5469l-84.047 0.0059c-4.759 0-8.844 2.0551-11.502 5.7891-1.868 2.625-2.9824 6.099-2.9824 9.293 0 3.087 0.88625 5.8764 2.6562 8.3164 0.301 0.41 0.61927 0.79992 0.94727 1.1699-2.073 0.536-3.6035 2.4192-3.6035 4.6602v7.8828c0 2.658 2.1545 4.8145 4.8125 4.8145h5.6816c-0.472 0.45-0.92724 0.92945-1.3652 1.4395-2.468 2.878-4.2788 6.7161-4.8398 10.246-0.577 3.515-0.06647 6.782 1.5195 9.709l0.07617 0.13476c0.718 1.23 1.5728 2.3141 2.4688 3.2871h-2.0273c-2.368 0-4.3839 1.7235-4.7539 4.0625l-1.5137 9.582c-0.219 1.391 0.17975 2.8079 1.0938 3.8789s2.2522 1.6875 3.6602 1.6875h172.6c9.237 0 17.333-7.1953 18.832-16.736 0.57999-3.69 0.15235-6.824-1.3066-9.584-0.66499-1.257-1.4961-2.3444-2.4121-3.3164h1.6445c2.368 0 4.3839-1.7216 4.7539-4.0605l1.5137-9.584c0.219-1.39-0.17975-2.8079-1.0938-3.8789-0.91399-1.071-2.2522-1.6875-3.6602-1.6875h-7.3438l5.4785-5.4766c1.075-1.075 1.666-2.5054 1.666-4.0254v-17.055l3.3457-3.3457c1.075-1.075 1.668-2.5054 1.668-4.0254v-11.453a5.7 5.7 0 0 0-5.6934-5.6934h-46.193c-1.573 0-3.0567 0.56942-4.2207 1.6074-2.609-1.425-5.5719-2.1641-8.7559-2.1641zm64.863 95.662c-2.659 0-4.8144 2.1555-4.8144 4.8144 0 2.659 2.1554 4.8145 4.8144 4.8145s4.8144-2.1555 4.8144-4.8145c0-2.659-2.1554-4.8144-4.8144-4.8144zm0 0.63867a4.18 4.18 0 0 1 4.1758 4.1758 4.18 4.18 0 0 1-4.1758 4.1758 4.18 4.18 0 0 1-4.1758-4.1758 4.18 4.18 0 0 1 4.1758-4.1758zm-1.7656 1.7656v4.7773h0.63672v-2.041h1.5527c0.157 0 0.283 0.0223 0.375 0.0703a0.63 0.63 0 0 1 0.22656 0.18945c0.057 0.078 0.0999 0.16749 0.12891 0.27149 0.029 0.10399 0.0474 0.21603 0.0644 0.33203a2.31 2.31 0 0 1 0.041 0.35351l0.0137 0.33985a2.08 2.08 0 0 0 0.0293 0.2832c0.016 0.084 0.0468 0.14922 0.0918 0.19922h0.70899c-0.068-0.081-0.11735-0.17139-0.15235-0.27539s-0.0582-0.21603-0.0762-0.33203l2e-3 2e-3a2.98 2.98 0 0 1-0.0332-0.35547c-5e-3 -0.12-0.0115-0.23852-0.0215-0.35352s-0.0326-0.22893-0.0566-0.33593a0.98 0.98 0 0 0-0.11329-0.29102 0.71 0.71 0 0 0-0.20703-0.22461c-0.087-0.063-0.19984-0.10781-0.33984-0.13281v-0.0137c0.291-0.081 0.50181-0.23022 0.63281-0.44922s0.19922-0.47267 0.19922-0.76367c0-0.387-0.13076-0.69302-0.38476-0.91602s-0.61336-0.33398-1.0684-0.33398zm0.63867 0.53515h1.5801c0.299 0 0.51343 0.0775 0.64843 0.22852 0.135 0.151 0.20118 0.34689 0.20118 0.58789 0 0.173-0.0298 0.31383-0.0918 0.42383a0.72 0.72 0 0 1-0.24024 0.26172 0.92 0.92 0 0 1-0.35156 0.13086 2.58 2.58 0 0 1-0.42187 0.0352h-1.3242z" fill="#333f48"/>
 <path d="m209.56 9.1449h-46.192a1.54 1.54 0 0 0-1.088 0.451l-2.643 2.643c-2.46-2.4-5.601-3.653-9.246-3.653-4.256 0-7.527 1.68-9.896 4.326l-1e-3 -7e-3 -8.58 8.551h7e-3c-2.482 2.465-4.072 5.933-4.848 9.717-2.234-5.075-6.913-8.068-13.786-8.068h-7.026v32.306h7.626c4.435 0 11.7-0.962 13.982-9.949 0.491 1.438 1.106 2.771 1.842 3.96 2.648 4.277 6.639 6.538 11.542 6.538 4.146 0 7.354-1.595 9.707-4.124l6e-3 1e-3 3.655-3.683c1.841 5.024 6.114 7.806 12.347 7.806 4.303 0 7.675-1.323 9.958-3.793h2e-3l5.809-5.809v8.169a0.88 0.88 0 0 0 0.879 0.879h12.309a0.88 0.88 0 0 0 0.622-0.257l8.625-8.625a0.88 0.88 0 0 0 0.257-0.622v-18.683a0.88 0.88 0 0 1 0.257-0.622l4.497-4.497a0.88 0.88 0 0 0 0.257-0.622v-11.454a0.88 0.88 0 0 0-0.879-0.879zm-94.562 38.47v-16.453c3.984 0 4.671 4.884 4.671 8.397 0 3.042-0.687 8.012-4.671 8.055zm-52.668-24.508-7.755 32.306h8.997l0.729-4.155h5.871l0.642 4.155h9.039l-6.855-32.306zm3.129 21.295 1.2-7.501c0.342-2.013 0.555-4.068 0.813-6.081h0.084l0.645 6.081 0.942 7.501zm-8.278-21.295h-18.553v7.885h4.8v24.421h8.739v-24.422h5.013v-7.885zm-37.616 10.275c0 2.279 0.671 4.016 1.723 5.465 1.096 1.49 2.565 2.691 4.251 3.975 0.545 0.374 1.052 0.745 1.428 1.2a2.42 2.42 0 0 1 0.675 1.74c0 0.013-3e-3 0.024-3e-3 0.036a1.77 1.77 0 0 1-0.032 0.318l-6e-3 0.024c-0.171 0.792-0.874 1.386-1.717 1.386h-6.319v7.885h6.665c0.761 0 1.525-0.057 2.267-0.225 4.666-1.055 7.724-5.217 7.724-10.21 0-2.36-0.548-4.016-1.555-5.425-0.969-1.409-2.398-2.569-4.206-3.81-0.466-0.371-1.096-0.786-1.558-1.285-0.275-0.294-0.527-0.622-0.685-0.995a1.93 1.93 0 0 1-0.105-0.32 1.69 1.69 0 0 1-0.039-0.368c0-0.017-5e-3 -0.032-5e-3 -0.049s3e-3 -0.023 4e-3 -0.035c1e-3 -0.027 5e-3 -0.053 8e-3 -0.079a1.73 1.73 0 0 1 1.722-1.62h6.42v-7.885l-6.984 5e-3c-7.319 0-9.672 6.625-9.672 10.27zm75.886-2.049c0 3.726 0.645 7.414 0.987 11.139l-0.087 0.087-6.984-19.453h-8.31v32.306h8.397v-9.468c0-3.042-0.387-6.042-0.6-9.085l0.087-0.084 6.51 18.637h8.401v-32.305h-8.401z" fill="#fff"/>
 <path d="m178.33 31.904c0 0.814 0.042 1.928-0.215 2.829-0.214 0.855-0.769 1.541-2.015 1.541-1.199 0-1.756-0.686-2.015-1.585-0.259-0.857-0.213-1.971-0.213-2.828v-20.31h-8.741v21.124c0 3.898 0.859 11.74 10.968 11.74 10.114 0 10.97-7.842 10.97-11.74v-21.123h-8.741v20.353zm-27.944-20.911c-8.869 0-12.339 8.829-12.339 16.711s3.471 16.71 12.339 16.71 12.34-8.826 12.34-16.71-3.471-16.711-12.34-16.711zm0 25.281c-1.031 0-1.752-0.64-2.256-1.582-0.05-0.094-0.099-0.191-0.145-0.291-0.196-0.425-0.354-0.898-0.483-1.393a12.3 12.3 0 0 1-0.127-0.542c-0.385-1.819-0.415-3.804-0.415-4.762 0-2.01 0.128-8.569 3.426-8.569 3.3 0 3.428 6.559 3.428 8.569s-0.128 8.57-3.428 8.57zm39.092-24.722v7.884h4.799v24.425h8.74v-24.425h5.012v-7.884z" fill="#49c5b1"/>
 <path d="m93.415 79.83c0.445-2.837 1.612-6.464 3.988-8.495 2.017-1.677 4.207-1.532 4.207-1.532h4.725l1.512-9.583-5.181 2e-3c-4.978 0-17.095 2.865-19.759 19.858-2.059 12.972 4.073 19.358 12.469 19.358h6.284l1.512-9.583-5.499 2e-3c-4.588-0.406-4.935-5.771-4.258-10.026zm-20.37-19.611-6.188 39.219h10.623l6.192-39.219zm-2.407 0h-22.551l-1.51 9.584h5.831l-4.678 29.635h10.623l4.682-29.635h6.094l1.51-9.584zm-33.329 3e-3c-8.747 0-12.816 8.044-13.52 12.469-0.454 2.767 0.049 4.875 1.003 6.636 1.056 1.809 2.567 3.267 4.327 4.826 0.602 0.454 1.105 0.905 1.457 1.457 0.45 0.553 0.651 1.208 0.504 2.112-0.091 0.596-0.381 1.085-0.775 1.471-0.601 0.556-1.552 0.649-1.972 0.661h-7.255l-1.514 9.584h7.845c7.139 0 12.972-5.633 14.078-12.669 0.45-2.865 0.098-4.875-0.806-6.587s-2.411-3.119-4.323-4.626c-0.45-0.45-1.154-0.954-1.609-1.56s-0.802-1.306-0.655-2.108c0.069-0.494 0.301-0.916 0.621-1.261a2.61 2.61 0 0 1 0.169-0.164c0.608-0.533 1.285-0.642 1.638-0.661h7.646l1.514-9.584h-8.37l-1e-3 3e-3zm118.42 24.008 1.463-9.27h-9.077l0.835-5.47h9.113l1.459-9.27h-19.74l-6.188 39.219h19.736l1.451-9.22h-9.113l0.937-5.988h9.124zm43.738-13.602c0.055-0.059 0.112-0.113 0.169-0.164 0.607-0.533 1.285-0.642 1.638-0.661h7.646l1.514-9.584h-8.37l-1e-3 3e-3c-8.747 0-12.816 8.044-13.52 12.469-0.454 2.767 0.049 4.875 1.003 6.636 1.056 1.809 2.567 3.267 4.327 4.826 0.602 0.454 1.105 0.905 1.457 1.457 0.45 0.553 0.651 1.208 0.504 2.112-0.091 0.596-0.381 1.085-0.775 1.471-0.601 0.556-1.552 0.649-1.972 0.661h-7.255l-1.514 9.584h7.845c7.139 0 12.972-5.633 14.078-12.669 0.45-2.865 0.098-4.875-0.806-6.587s-2.411-3.119-4.323-4.626c-0.45-0.45-1.154-0.954-1.609-1.56s-0.802-1.306-0.655-2.108c0.069-0.494 0.301-0.916 0.621-1.261zm-72.48 9.201 10.388-19.61h-9.859l-9.457 17.853 2.819-17.853h-10.627l-6.188 39.219h10.623l2.868-18.168 3.78 18.168h9.732l-4.08-19.609zm59.057-6.536c1.611-10.364-4.635-13.074-13.854-13.074h-10.262l-6.188 39.219h10.623l2.507-15.902 3.308 15.901h9.732l-3.402-16.353c4.4-1.691 6.864-5.511 7.537-9.792zm-10.576 0.102c-0.36 2.553-2.29 5-5.101 5l-0.678-0.051 1.565-9.685c2.913-0.157 4.792 1.302 4.215 4.737z" fill="#ff5c39"/>
</svg>
