<svg width="600" height="681" fill="none" xmlns="http://www.w3.org/2000/svg"><g clip-path="url(#a)"><path d="M600 0H0v601.064h600V0Z" fill="#000"/><path fill-rule="evenodd" clip-rule="evenodd" d="m270.473 541.356 111.903 54.675-110.531 84.764-1.372-139.439Z" fill="#000"/><path fill-rule="evenodd" clip-rule="evenodd" d="M99.804 85.816v76.06H76.702v-76.06h-27.02v-19.76h77.142v19.76h-27.02Zm147.107 76.06-7.43-18.812h-37.017l-7.026 18.812H170.31l40.124-95.82h22.427l39.719 95.82h-25.669Zm-25.669-70.24-12.159 32.886h24.048l-11.889-32.887Zm112.117 70.24v-95.82h23.237v75.654h37.017v20.166h-60.254Zm182.368 0-35.531-44.121h-.27v44.121h-22.697v-95.82h22.697v38.978h.405l34.18-38.978h28.912l-41.206 44.12 43.637 51.7h-30.127ZM111.152 294.98c0 3.79-.428 7.76-1.283 11.91-.856 4.151-2.432 7.963-4.729 11.436-2.296 3.474-5.494 6.339-9.592 8.594-4.098 2.256-9.389 3.384-15.874 3.384-8.106 0-14.86-2.098-20.265-6.293-5.404-4.196-9.006-9.587-10.808-16.173l20.4-6.903c.63 2.527 1.78 4.557 3.445 6.091 1.667 1.533 3.716 2.3 6.147 2.3 3.783 0 6.282-1.308 7.498-3.924 1.216-2.617 1.824-6.046 1.824-10.286v-63.203h23.237v63.067Zm122.52-38.165c-1.982-2.526-4.571-4.534-7.769-6.023-3.197-1.488-6.282-2.233-9.254-2.233-1.531 0-3.085.136-4.661.406-1.576.271-2.995.79-4.256 1.557a10.53 10.53 0 0 0-3.174 2.977c-.856 1.218-1.284 2.775-1.284 4.669 0 1.624.338 2.978 1.013 4.06.676 1.083 1.667 2.031 2.973 2.843 1.306.812 2.859 1.556 4.661 2.233 1.801.676 3.827 1.376 6.079 2.097a315.512 315.512 0 0 1 10.132 3.587c3.513 1.308 6.71 3.045 9.592 5.21 2.883 2.166 5.269 4.85 7.161 8.053 1.891 3.203 2.837 7.196 2.837 11.978 0 5.503-1.013 10.263-3.04 14.278-2.026 4.015-4.751 7.331-8.173 9.947-3.423 2.617-7.341 4.557-11.754 5.82a49.35 49.35 0 0 1-13.645 1.895 56.258 56.258 0 0 1-19.86-3.587c-6.394-2.391-11.708-5.797-15.941-10.218l15.131-15.429c2.341 2.888 5.426 5.301 9.254 7.241 3.828 1.94 7.633 2.91 11.416 2.91a22.94 22.94 0 0 0 4.999-.542c1.621-.36 3.039-.947 4.255-1.759 1.216-.812 2.184-1.895 2.905-3.248.72-1.354 1.081-2.978 1.081-4.872 0-1.805-.451-3.339-1.351-4.602-.901-1.263-2.184-2.413-3.851-3.451-1.666-1.038-3.737-1.985-6.214-2.842a321.902 321.902 0 0 0-8.444-2.775 80.59 80.59 0 0 1-8.984-3.518c-2.927-1.354-5.539-3.091-7.836-5.211-2.297-2.12-4.143-4.692-5.539-7.714-1.396-3.023-2.094-6.699-2.094-11.03 0-5.324 1.081-9.88 3.242-13.67 2.162-3.789 4.999-6.902 8.512-9.338 3.512-2.436 7.475-4.218 11.888-5.346a53.814 53.814 0 0 1 13.375-1.692c5.404 0 10.921.993 16.55 2.978 5.629 1.985 10.56 4.917 14.793 8.797l-14.725 15.564Z" fill="#fff"/><path d="M600 0H0v601.064h600V0Z" fill="#000"/><path fill-rule="evenodd" clip-rule="evenodd" d="m270.473 541.356 111.903 54.675-110.531 84.764-1.372-139.439Z" fill="#000"/><path fill-rule="evenodd" clip-rule="evenodd" d="M99.804 85.816v76.06H76.702v-76.06h-27.02v-19.76h77.142v19.76h-27.02Zm147.107 76.06-7.43-18.812h-37.017l-7.026 18.812H170.31l40.124-95.82h22.427l39.719 95.82h-25.669Zm-25.669-70.24-12.159 32.886h24.048l-11.889-32.887Zm112.117 70.24v-95.82h23.237v75.654h37.017v20.166h-60.254Zm182.368 0-35.531-44.121h-.27v44.121h-22.697v-95.82h22.697v38.978h.405l34.18-38.978h28.912l-41.206 44.12 43.637 51.7h-30.127ZM111.152 294.98c0 3.79-.428 7.76-1.283 11.91-.856 4.151-2.432 7.963-4.729 11.436-2.296 3.474-5.494 6.339-9.592 8.594-4.098 2.256-9.389 3.384-15.874 3.384-8.106 0-14.86-2.098-20.265-6.293-5.404-4.196-9.006-9.587-10.808-16.173l20.4-6.903c.63 2.527 1.78 4.557 3.445 6.091 1.667 1.533 3.716 2.3 6.147 2.3 3.783 0 6.282-1.308 7.498-3.924 1.216-2.617 1.824-6.046 1.824-10.286v-63.203h23.237v63.067Zm122.52-38.165c-1.982-2.526-4.571-4.534-7.769-6.023-3.197-1.488-6.282-2.233-9.254-2.233-1.531 0-3.085.136-4.661.406-1.576.271-2.995.79-4.256 1.557a10.53 10.53 0 0 0-3.174 2.977c-.856 1.218-1.284 2.775-1.284 4.669 0 1.624.338 2.978 1.013 4.06.676 1.083 1.667 2.031 2.973 2.843 1.306.812 2.859 1.556 4.661 2.233 1.801.676 3.827 1.376 6.079 2.097a315.512 315.512 0 0 1 10.132 3.587c3.513 1.308 6.71 3.045 9.592 5.21 2.883 2.166 5.269 4.85 7.161 8.053 1.891 3.203 2.837 7.196 2.837 11.978 0 5.503-1.013 10.263-3.04 14.278-2.026 4.015-4.751 7.331-8.173 9.947-3.423 2.617-7.341 4.557-11.754 5.82a49.35 49.35 0 0 1-13.645 1.895 56.258 56.258 0 0 1-19.86-3.587c-6.394-2.391-11.708-5.797-15.941-10.218l15.131-15.429c2.341 2.888 5.426 5.301 9.254 7.241 3.828 1.94 7.633 2.91 11.416 2.91a22.94 22.94 0 0 0 4.999-.542c1.621-.36 3.039-.947 4.255-1.759 1.216-.812 2.184-1.895 2.905-3.248.72-1.354 1.081-2.978 1.081-4.872 0-1.805-.451-3.339-1.351-4.602-.901-1.263-2.184-2.413-3.851-3.451-1.666-1.038-3.737-1.985-6.214-2.842a321.902 321.902 0 0 0-8.444-2.775 80.59 80.59 0 0 1-8.984-3.518c-2.927-1.354-5.539-3.091-7.836-5.211-2.297-2.12-4.143-4.692-5.539-7.714-1.396-3.023-2.094-6.699-2.094-11.03 0-5.324 1.081-9.88 3.242-13.67 2.162-3.789 4.999-6.902 8.512-9.338 3.512-2.436 7.475-4.218 11.888-5.346a53.814 53.814 0 0 1 13.375-1.692c5.404 0 10.921.993 16.55 2.978 5.629 1.985 10.56 4.917 14.793 8.797l-14.725 15.564Z" fill="#fff"/></g><defs><clipPath id="a"><path fill="#fff" d="M0 0h600v680.795H0z"/></clipPath></defs></svg>