<svg viewBox="0 0 600 681" xmlns="http://www.w3.org/2000/svg">
 <path d="m0 0v601.06h271.06l0.78515 79.73 103.97-79.73h224.19v-601.06h-600zm49.682 66.057h77.143v19.76h-27.02v76.061h-23.104v-76.061h-27.02v-19.76zm160.75 0h22.428l39.719 95.82h-25.67l-7.4297-18.812h-37.016l-7.0273 18.812h-25.127l40.123-95.82zm122.93 0h23.236v75.654h37.018v20.166h-60.254v-95.82zm123.87 0h22.697v38.977h0.4043l34.182-38.977h28.912l-41.207 44.119 43.637 51.701h-30.127l-35.531-44.121h-0.26953v44.121h-22.697v-95.82zm-235.99 25.58-12.16 32.885h24.049l-11.889-32.885zm-4.1875 137.84c5.404 0 10.92 0.99157 16.549 2.9766 5.629 1.985 10.56 4.9188 14.793 8.7988l-14.725 15.562c-1.982-2.526-4.5715-4.5325-7.7695-6.0215-3.197-1.488-6.2819-2.2344-9.2539-2.2344-1.531 0-3.0842 0.13625-4.6602 0.40625-1.576 0.271-2.9949 0.78964-4.2559 1.5566a10.53 10.53 0 0 0-3.1738 2.9766c-0.856 1.218-1.2852 2.7759-1.2852 4.6699 0 1.624 0.33867 2.9786 1.0137 4.0606 0.676 1.083 1.6667 2.0298 2.9727 2.8418s2.8601 1.5574 4.6621 2.2344c1.801 0.676 3.8261 1.3747 6.0781 2.0957a315.51 315.51 0 0 1 10.133 3.5879c3.513 1.308 6.7098 3.044 9.5918 5.209 2.883 2.166 5.2682 4.8517 7.1602 8.0547 1.891 3.203 2.8379 7.1946 2.8379 11.977 0 5.503-1.014 10.264-3.041 14.279-2.026 4.015-4.7499 7.3293-8.1719 9.9453-3.423 2.617-7.3409 4.5573-11.754 5.8203a49.35 49.35 0 0 1-13.646 1.8965 56.258 56.258 0 0 1-19.859-3.5879c-6.394-2.391-11.708-5.7978-15.941-10.219l15.131-15.428c2.341 2.888 5.4259 5.3002 9.2539 7.2402s7.633 2.9102 11.416 2.9102a22.94 22.94 0 0 0 5-0.54102c1.621-0.36 3.0379-0.94776 4.2539-1.7598s2.1852-1.895 2.9062-3.248c0.72-1.354 1.0801-2.979 1.0801-4.873 0-1.805-0.45156-3.3386-1.3516-4.6016-0.901-1.263-2.1826-2.4132-3.8496-3.4512-1.666-1.038-3.7378-1.9848-6.2148-2.8418a321.9 321.9 0 0 0-8.4434-2.7754 80.59 80.59 0 0 1-8.9844-3.5176c-2.927-1.354-5.5389-3.0909-7.8359-5.2109-2.297-2.12-4.1431-4.6909-5.5391-7.7129-1.396-3.023-2.0938-6.7002-2.0938-11.031 0-5.324 1.0812-9.8799 3.2422-13.67 2.162-3.789 4.9987-6.9019 8.5117-9.3379 3.512-2.436 7.4757-4.2177 11.889-5.3457a53.814 53.814 0 0 1 13.375-1.6914zm-129.14 2.4356h23.238v63.068c0 3.79-0.4282 7.7602-1.2832 11.91-0.856 4.151-2.4315 7.9626-4.7285 11.436-2.296 3.474-5.4938 6.3388-9.5918 8.5938-4.098 2.256-9.39 3.3848-15.875 3.3848-8.106 0-14.861-2.098-20.266-6.293-5.404-4.196-9.0046-9.5878-10.807-16.174l20.4-6.9023c0.63 2.527 1.7784 4.5558 3.4434 6.0898 1.667 1.533 3.7174 2.3008 6.1484 2.3008 3.783 0 6.282-1.3078 7.498-3.9238 1.216-2.617 1.8223-6.0471 1.8223-10.287v-63.203z"/>
</svg>
