<?xml version="1.0" encoding="UTF-8"?>
<svg xmlns="http://www.w3.org/2000/svg" viewBox="0 0 119.96 145.56">
  <path fill="#7f7f7f" d="M69.19,1.04l-12.19,14.5-.28.33h-22.49c-4.47,0-8.58,1.99-11.56,5.19-3.11,3.33-5.05,8.01-5.05,13.16v49.36c0,2.42.43,4.74,1.21,6.86l-9.94,12.7c-3.82-5.5-6.1-12.28-6.1-19.56v-49.36c0-9.01,3.47-17.24,9.05-23.23C17.56,4.84,25.5,1.04,34.23,1.04h34.96Z"/>
  <path fill="#7f7f7f" d="M118.51,50.28l-14.5,12.19-.33.28v22.49c0,4.47-1.99,8.58-5.19,11.56-3.33,3.11-8.01,5.05-13.16,5.05h-49.36c-2.42,0-4.74-.43-6.86-1.21l-12.7,9.94c5.5,3.82,12.28,6.1,19.56,6.1h49.36c9.01,0,17.24-3.47,23.23-9.05,6.14-5.72,9.94-13.65,9.94-22.39v-34.96Z"/>
  <polygon fill="#0e76bc" points="74.73 0 119.96 0 119.96 45.24 100.72 61.41 100.72 41.12 0 119.97 78.84 19.25 58.55 19.25 74.73 0"/>
  <path fill="#0e76bc" d="M12.41,129.26v16.08h-3.85v-16.08H2.79v-3.58h15.39v3.58h-5.77ZM35.03,126v3.34h-10.15v4.4h9.12v3.5h-9.12v4.45h10.48v3.66h-14.33v-19.66h14v.32h0ZM39.15,125.68h3.53v8.8l8.16-8.69.1-.1h4.95l-.49.54-7.47,8.14,7.6,10.49.37.51h-4.59l-.1-.13-6.08-8.02-2.43,2.62v5.53h-3.85v-19.66h.32ZM66.57,134.25h8.12s.32,0,.32,0v8.03l-.08.21c-.93,1.03-2.07,1.8-3.4,2.31-1.32.51-2.84.76-4.54.76-1.44,0-2.78-.24-3.99-.72-1.22-.48-2.32-1.19-3.29-2.15-.98-.95-1.72-2.04-2.21-3.25-.49-1.21-.73-2.54-.73-4s.25-2.79.75-4.01h0c.5-1.22,1.25-2.32,2.25-3.29,1-.97,2.1-1.7,3.31-2.19,1.21-.49,2.52-.73,3.93-.73s2.69.21,3.87.62c1.18.41,2.24,1.03,3.17,1.86l.21.19-.16.24-1.72,2.45-.2.29-.27-.23c-.36-.3-.72-.56-1.07-.77-.35-.21-.71-.37-1.06-.49-.36-.12-.75-.21-1.17-.26-.42-.06-.87-.09-1.36-.09-.92,0-1.77.15-2.54.44h0c-.76.29-1.46.74-2.09,1.33-1.24,1.18-1.86,2.74-1.86,4.67,0,.97.15,1.85.45,2.62.3.77.75,1.44,1.35,2.02.61.59,1.28,1.02,2,1.31.73.29,1.52.43,2.39.43s1.68-.09,2.41-.28c.66-.17,1.26-.42,1.81-.75v-2.72s-4.59,0-4.59,0h-.32v-3.85h.32ZM92.6,126v3.34h-10.15v4.4h9.12v3.5h-9.12v4.45h10.48v3.66h-14.33v-19.66h14v.32h0ZM99.93,145.35h-3.53v-19.66h5.53l.09.18,5.45,11.35,5.46-11.35.09-.18h5.5v19.66h-3.85v-13.84l-6.04,12-.09.18h-2.19l-.09-.18-6.01-11.99v13.83h-.32Z"/>
</svg>
