<?xml version="1.0" encoding="UTF-8" standalone="no"?>
<!-- Created with Inkscape (http://www.inkscape.org/) -->
<svg xmlns:dc="http://purl.org/dc/elements/1.1/" xmlns:cc="http://creativecommons.org/ns#" xmlns:rdf="http://www.w3.org/1999/02/22-rdf-syntax-ns#" xmlns:svg="http://www.w3.org/2000/svg" xmlns="http://www.w3.org/2000/svg" xmlns:sodipodi="http://sodipodi.sourceforge.net/DTD/sodipodi-0.dtd" xmlns:inkscape="http://www.inkscape.org/namespaces/inkscape" width="309.68506mm" height="176.15889mm" viewBox="0 0 309.68506 176.15889" version="1.1" id="svg8" inkscape:version="0.92.3 (2405546, 2018-03-11)" sodipodi:docname="TPP logo.svg">
  <defs id="defs2"/>
  <sodipodi:namedview id="base" pagecolor="#ffffff" bordercolor="#666666" borderopacity="1.0" inkscape:pageopacity="0.0" inkscape:pageshadow="2" inkscape:zoom="0.35" inkscape:cx="782.09653" inkscape:cy="278.56872" inkscape:document-units="mm" inkscape:current-layer="layer1" showgrid="false" inkscape:window-width="1920" inkscape:window-height="1013" inkscape:window-x="-9" inkscape:window-y="-9" inkscape:window-maximized="1"/>
  <metadata id="metadata5">
    <rdf:RDF>
      <cc:Work rdf:about="">
        <dc:format>image/svg+xml</dc:format>
        <dc:type rdf:resource="http://purl.org/dc/dcmitype/StillImage"/>
        <dc:title/>
      </cc:Work>
    </rdf:RDF>
  </metadata>
  <g inkscape:label="Layer 1" inkscape:groupmode="layer" id="layer1" transform="translate(487.65515,38.570288)">
    <path style="fill:#6c5353;stroke-width:0.26458332" d="" id="path826" inkscape:connector-curvature="0"/>
    <path style="fill:#005a8c;fill-opacity:1;stroke-width:0.26458332" d="m -238.75811,55.945867 c -0.10914,-0.11098 -0.19859,-0.50935 -0.19878,-0.88528 -1.9e-4,-0.37593 -0.30003,-1.93366 -0.66632,-3.46163 -1.81687,-7.57916 -5.39079,-14.54072 -10.39108,-20.24063 l -2.08897,-2.38125 2.14158,-2.26022 c 6.02004,-6.35353 12.26515,-14.729979 14.95414,-20.0576949 0.46648,-0.924232 0.90211,-1.626447 0.96808,-1.560481 0.33786,0.33786 1.50925,6.8420139 2.24001,12.4376129 l 0.54453,4.169629 -0.70781,2.577244 c -2.71908,9.90059 -5.98301,25.46384 -6.52472,31.11148 -0.0397,0.41415 -0.16152,0.6622 -0.27066,0.55122 z m 9.75239,-45.842137 c -0.9492,-6.3868719 -3.03949,-12.7251879 -5.90441,-17.9037319 -5.7552,-10.4029211 -15.83833,-18.7093331 -27.4165,-22.5855311 -1.72121,-0.576233 -3.1827,-1.100931 -3.24776,-1.165995 -0.13014,-0.130141 5.70947,-2.703447 8.2293,-3.626355 2.70456,-0.990568 8.44012,-2.359391 11.64844,-2.779965 9.31183,-1.220674 18.69046,0.277245 26.65555,4.257322 4.55499,2.276084 8.80362,5.290623 12.22613,8.674814 l 2.25859,2.233329 -3.64019,3.659732 c -7.89323,7.93561 -14.7629,18.54063914 -19.36703,29.897839 l -0.98333,2.425605 z m 25.4546,-38.023846 c -1.80112,-1.742378 -4.72141,-3.905866 -7.48636,-5.546288 -0.37494,-0.222439 -0.10681,-0.469295 1.62481,-1.495887 2.5853,-1.532703 4.89937,-2.483617 7.63008,-3.135396 2.98879,-0.713373 8.60734,-0.604588 11.77396,0.227965 2.7519,0.723519 7.99428,3.253541 10.31875,4.979926 l 1.71979,1.277294 -3.70417,0.166336 c -5.96966,0.268067 -11.41751,1.675019 -17.11436,4.419924 l -2.56225,1.234573 z" id="path839" inkscape:connector-curvature="0" sodipodi:nodetypes="sscscsccccscsssccsssccsccsccccsccsccc"/>
    <path inkscape:connector-curvature="0" id="path841" d="m -429.92338,84.605727 0.07,-52.98281 0.73821,-1.50326 c 0.80133,-1.6318 1.95259,-2.78822 3.70091,-3.71746 0.90551,-0.48129 1.54313,-0.59367 3.36608,-0.59323 1.92439,5.3e-4 2.44332,0.10256 3.5957,0.70744 2.16977,1.13891 3.78338,3.34916 4.20906,5.76538 0.0884,0.5019 0.18423,0.93451 0.2129,0.96134 0.0287,0.0268 0.76651,-0.60327 1.63963,-1.40023 6.12982,-5.5951 12.65678,-8.86504 20.63751,-10.339166 3.21499,-0.593841 10.65392,-0.576659 14.2875,0.033 10.09931,1.694516 18.08017,5.699296 24.86108,12.475226 13.57378,13.56383 16.91364,35.69396 8.06481,53.43804 -2.24894,4.50966 -4.55726,7.63199 -8.70814,11.77895 -5.89473,5.889173 -11.34149,9.126493 -18.49228,10.991033 -7.20611,1.87898 -16.34679,1.91847 -23.45256,0.10135 -6.0871,-1.55663 -12.40938,-5.07118 -17.22615,-9.57602 -0.89468,-0.836743 -1.70082,-1.521353 -1.79142,-1.521353 -0.0906,0 -0.16472,8.632033 -0.16472,19.182293 v 19.18229 h -7.80902 -7.80902 z m 51.35777,11.21035 c 11.64546,-3.097 20.05643,-12.0128 22.25216,-23.58777 0.47859,-2.52291 0.53941,-7.76207 0.12472,-10.74357 -0.48445,-3.4831 -1.99161,-7.7714 -3.86819,-11.0061 -4.61722,-7.95882 -12.40109,-13.16701 -21.64234,-14.48088 -8.98843,-1.27793 -18.01966,2.05944 -24.74023,9.14241 -8.94846,9.43102 -10.90178,23.05629 -4.99422,34.83696 1.6976,3.38531 3.51621,5.81254 6.4496,8.608 4.11328,3.91988 8.56768,6.32294 13.89214,7.49452 3.08711,0.67928 9.48742,0.54461 12.52636,-0.26357 z m 45.21641,-11.47494 0.0687,-53.24739 0.59309,-1.10959 c 1.81945,-3.40391 5.70692,-5.02024 9.45421,-3.93087 2.76432,0.80361 5.43082,4.14643 5.43082,6.80827 0,0.26463 0.0721,0.48115 0.16028,0.48115 0.0881,0 1.02298,-0.80367 2.07739,-1.78594 9.66343,-9.002233 22.71088,-12.394215 36.78838,-9.563975 18.09882,3.638715 31.47285,17.461855 34.84258,36.012615 0.83465,4.59489 0.8312,12.41754 -0.007,16.99083 -1.79029,9.76217 -6.64506,18.64574 -13.87272,25.385193 -5.87437,5.47758 -12.61979,8.98021 -20.23067,10.505 -4.02989,0.80736 -12.01555,1.00502 -16.13646,0.39941 -8.08194,-1.18771 -15.98772,-5.03147 -22.03203,-10.71187 -0.94492,-0.888033 -1.75012,-1.614603 -1.78934,-1.614603 -0.0392,0 -0.04,8.691583 -0.002,19.314623 l 0.0696,19.31461 -7.74161,-3e-5 -7.7416,-3e-5 z m 49.47953,11.86108 c 10.8422,-2.07446 19.69458,-9.87562 23.06208,-20.32348 1.04154,-3.23144 1.30579,-5.08731 1.30971,-9.19853 0.008,-8.39175 -2.82023,-15.87594 -8.19202,-21.67812 -3.88128,-4.19225 -9.93299,-7.49352 -16.11352,-8.79009 -2.65242,-0.55644 -8.85737,-0.42696 -11.54042,0.24082 -11.33535,2.82121 -20.38965,12.46178 -22.6118,24.07593 -0.49496,2.58688 -0.47849,7.87512 0.0337,10.812 1.07303,6.15325 3.79444,11.55803 8.12123,16.12899 4.3403,4.58522 9.58612,7.52611 15.54629,8.71547 2.35046,0.46904 7.97409,0.47825 10.38479,0.017 z m -159.4775,15.160393 c -7.12281,-0.67374 -13.80371,-2.82948 -18.65313,-6.01884 -2.00629,-1.31948 -5.67334,-4.87886 -6.93033,-6.726843 -1.56718,-2.30399 -3.0382,-5.56342 -3.84569,-8.5211 l -0.72235,-2.64583 -0.0824,-23.34948 -0.0824,-23.34948 h -3.64535 c -4.62791,0 -5.83816,-0.3309 -7.81368,-2.13641 -4.16786,-3.80919 -3.02538,-10.41941 2.20675,-12.76793 0.99183,-0.4452 1.91294,-0.56067 5.22555,-0.65508 l 4.02148,-0.11462 0.0796,-8.500998 c 0.0778,-8.3160549 0.0931,-8.5282639 0.7023,-9.7541259 2.68717,-5.407356 9.77609,-6.51805296 13.79229,-2.160987 2.21109,2.398749 2.24311,2.564206 2.3335,12.0563339 l 0.0798,8.377637 6.79939,0.0917 c 6.41765,0.0866 6.87366,0.1257 8.12231,0.69699 2.80164,1.28184 4.67333,4.03562 4.70046,6.91568 0.0288,3.06345 -1.41937,5.5625 -4.07637,7.03417 l -1.41784,0.78532 -7.07761,0.0819 -7.0776,0.0819 0.005,21.08474 c 0.005,23.25071 0.004,23.23909 1.63633,26.30808 2.44461,4.59714 7.31302,7.08697 14.6971,7.51647 l 2.97656,0.17313 v 7.897183 7.89717 l -1.78594,-0.0358 c -0.98226,-0.0197 -2.8575,-0.13712 -4.16718,-0.26101 z" style="fill:#00006a;fill-opacity:1;stroke-width:0.26458332" sodipodi:nodetypes="cccccccccssscscccssccccscccscccsscccssscsccssccsccccccssscccccccccccscccsccccccscccccscccccccccccc"/>
  </g>
</svg>