<?xml version="1.0" encoding="UTF-8"?>
<svg version="1.1" viewBox="0 0 567.04 311.04" xmlns="http://www.w3.org/2000/svg">
 <path d="m178.27 0v69.842c0 38.511 31.331 69.844 69.842 69.844s69.842-31.333 69.842-69.844v-69.842zm-178.27 171 20.578 73.121h15.982l12.953-45.125h0.20898l12.639 45.125h16.715l20.996-73.121h-18.908l-11.281 43.664h-0.20898l-11.699-43.664h-15.773l-12.223 43.664h-0.20703l-10.969-43.664zm167.13 5.1191-3.1348 12.012h-6.373v13.789h6.373v21.729c0 2.9246 0.10423 5.954 0.73047 8.6699 1.8809 7.939 8.2536 13.057 17.342 13.057 4.7006 0 10.445-1.1494 14.414-3.4473l-5.3262-12.326c-1.9847 1.0448-3.6558 1.5664-6.0586 1.5664-2.4022 0-3.4472-1.4614-3.8652-3.7598-0.31367-1.6716-0.31446-3.2377-0.31446-5.0137v-20.475h13.789v-13.789h-13.789v-12.012zm194.61 0-3.1348 12.012h-6.373v13.789h6.373v21.729c0 2.9246 0.10368 5.954 0.73047 8.6699 1.8798 7.939 8.2531 13.057 17.342 13.057 4.7006 0 10.445-1.1494 14.414-3.4473l-5.3262-12.326c-1.9847 1.0443-3.6564 1.5664-6.0586 1.5664-2.4033 0-3.4492-1.4614-3.8672-3.7598-0.31312-1.6716-0.3125-3.2377-0.3125-5.0137v-20.475h13.789v-13.789h-13.789v-12.012zm-234.82 10.758c-8.5658 0-17.131 2.1949-24.756 5.9551l4.3867 11.594c5.0143-2.5066 10.341-4.8027 16.609-4.8027 7.7297 0 10.236 4.0727 10.236 10.549v0.41797c-3.134-0.73116-6.476-1.1484-9.6094-1.1484-11.386 0-24.234 4.2838-24.234 17.863 0 11.387 9.8195 18.07 20.266 18.07 5.5362 0 11.386-1.358 14.729-5.6406l1.5664 4.3867h14.207v-33.531c0-14.624-8.0449-23.713-23.4-23.713zm102.27 2e-3c-16.296 0-28.621 13.057-28.621 30.084s11.908 28.412 28.518 28.412c12.222 0 19.116-4.5968 25.906-13.998l-10.863-7.416c-3.6558 5.0143-6.6867 8.043-13.895 8.043-6.8947 0-11.386-4.7007-12.535-11.699h38.232c0.4175-2.6115 0.73242-5.3271 0.73242-7.625 0-14.938-11.701-25.801-27.475-25.801zm65.705 0c-5.3274 0-9.5053 3.1325-12.639 7.9375l-1.4629-6.6856h-14.311v55.99h16.922v-37.918c1.8804-3.0296 5.7451-5.1191 9.5059-5.1191 1.8804 0 3.7609 0.41837 5.3281 1.2539l4.1777-13.998c-1.9847-0.83553-4.7006-1.4609-7.5215-1.4609zm31.965 0c-10.55 0-20.684 5.8494-20.684 17.34 0 9.715 6.9974 13.685 13.475 16.609 5.4318 2.5072 10.447 4.1782 10.447 7.834 0 2.6115-3.8651 3.6562-6.0586 3.6562-5.7449 0-9.1931-2.7158-13.58-6.8945l-9.1934 10.027c6.7898 6.3723 14.624 9.9238 23.713 9.9238 11.073 0 21.936-5.8498 21.936-18.176 0-10.969-9.192-14.415-16.295-17.34-4.4924-1.8804-8.252-3.6562-8.252-6.8945 0-1.9842 2.4031-3.0293 4.4922-3.0293 4.3875 0 8.0416 2.0888 10.967 4.8047l9.0879-10.027c-5.4318-5.223-12.325-7.834-20.055-7.834zm97.877 0c-17.34 0-29.562 12.744-29.562 29.248 0 16.505 12.222 29.248 29.562 29.248 17.34 0 29.561-12.743 29.561-29.248 0-16.504-12.22-29.248-29.561-29.248zm69.465 0c-5.7449 0-12.432 2.1936-17.133 8.4609l-1.4609-7.209h-14.207v55.99h16.922v-37.186c2.2984-3.8656 6.7909-5.8516 10.447-5.8516 2.8197 0 5.4314 1.0444 6.6856 3.8652 1.253 2.8203 1.252 7.1034 1.252 10.76v28.412h16.924v-29.039c0-7.8346-0.41936-14.938-5.0156-20.787-3.6564-4.4919-8.9823-7.416-14.414-7.416zm52.752 0c-10.55 0-20.684 5.8494-20.684 17.34 0 9.715 6.9974 13.685 13.475 16.609 5.4318 2.5072 10.445 4.1782 10.445 7.834 0 2.6115-3.8637 3.6562-6.0566 3.6562-5.7455 0-9.1931-2.7158-13.58-6.8945l-9.1934 10.027c6.7898 6.3723 14.624 9.9238 23.713 9.9238 11.073 0 21.936-5.8498 21.936-18.176 0-10.969-9.1915-14.415-16.295-17.34-4.4919-1.8804-8.252-3.6562-8.252-6.8945-1e-5 -1.9842 2.4031-3.0293 4.4922-3.0293 4.3875 0 8.0416 2.0888 10.967 4.8047l9.0879-10.027c-5.4312-5.223-12.324-7.834-20.055-7.834zm-317.24 12.951c5.3274 0 9.5052 3.135 9.8184 9.4023h-21.205c1.4623-5.5362 4.8057-9.4023 11.387-9.4023zm195.02 1.2539c7.5209 0 12.43 6.4778 12.43 15.043 0 8.5663-4.9088 15.041-12.43 15.041-7.5215 0-12.432-6.4747-12.432-15.041-1e-5 -8.5652 4.9102-15.043 12.432-15.043zm-298.02 18.072c2.1935 0 4.2814 0.41704 6.6836 0.93945v9.9238c-2.8203 2.611-5.7448 4.0742-9.7148 4.0742-3.9695 0-7.625-2.6108-7.625-6.7891 0-5.9542 5.5376-8.1484 10.656-8.1484zm-35.846 56.33v26.57h4.2852v-12.115c1.0631-1.7007 2.8345-2.7988 4.5352-2.7988 1.3108 0 2.2327 0.45997 2.7637 1.3809 0.67316 1.1336 0.70898 2.8339 0.70898 4.3574v9.1758h4.2852v-9.4941c0-2.6571-0.28258-5.0667-1.6289-6.8379-1.1336-1.453-2.8351-2.3379-5.0312-2.3379-2.1256 0-4.2154 0.95588-5.6328 2.9043v-10.805zm64.971 0v26.57h4.2871v-26.57zm205.72 0v26.57h4.2852v-12.115c1.0631-1.7007 2.8345-2.7988 4.5352-2.7988 1.3108 0 2.2327 0.45997 2.7637 1.3809 0.67316 1.1336 0.70898 2.8339 0.70898 4.3574v9.1758h4.2852v-9.4941c0-2.6571-0.28257-5.0667-1.6289-6.8379-1.1336-1.453-2.8332-2.3379-5.0293-2.3379-2.1256 0-4.2173 0.95588-5.6348 2.9043v-10.805zm-320.92 4.1445-0.46094 4.1797h-2.2676v3.6133h2.2676v8.1856c0 1.2047 0.10658 2.4074 0.46094 3.3633 0.70817 2.0906 2.4794 3.4746 5.207 3.4746 1.3458 0 2.9043-0.35496 3.9668-0.95704l-1.2734-3.2598c-0.60262 0.31881-1.2403 0.49609-2.0195 0.49609-1.3463 0-1.8427-0.81554-1.9844-2.2324-0.03554-0.56708-0.03516-0.99191-0.03516-1.5234v-7.5469h4.8164v-3.6133h-4.8164v-4.1797zm308.67 0-0.46094 4.1797h-2.2676v3.6133h2.2676v8.1856c0 1.2047 0.10659 2.4074 0.46094 3.3633 0.70817 2.0906 2.4794 3.4746 5.207 3.4746 1.3458 0 2.9062-0.35496 3.9688-0.95704l-1.2754-3.2598c-0.60207 0.31881-1.2403 0.49609-2.0195 0.49609-1.3463 0-1.8427-0.81554-1.9844-2.2324-0.0356-0.56708-0.0352-0.99191-0.0352-1.5234v-7.5469h4.8184v-3.6133h-4.8184v-4.1797zm100.5 0-0.46094 4.1797h-2.2676v3.6133h2.2676v8.1856c0 1.2047 0.10658 2.4074 0.46094 3.3633 0.70816 2.0906 2.4794 3.4746 5.207 3.4746 1.3458 0 2.9043-0.35496 3.9668-0.95704l-1.2734-3.2598c-0.60262 0.31881-1.2403 0.49609-2.0195 0.49609-1.3463 0-1.8428-0.81554-1.9844-2.2324-0.0356-0.56708-0.0351-0.99191-0.0351-1.5234v-7.5469h4.8184v-3.6133h-4.8184v-4.1797zm-208.34 2.5508v7.0508h-7.0508v3.6133h7.0508v7.084h3.6133v-7.084h7.0859v-3.6133h-7.0859v-7.0508zm-180.74 1.2051c-5.1726 0-9.1758 4.1805-9.1758 9.6719 0 5.4204 3.5433 9.4238 9.1758 9.4238 3.7907 0 6.1641-1.4186 8.1836-4.3945l-2.9043-1.9473c-1.1331 1.9128-2.6574 2.834-5.0312 2.834-2.9754 0-4.8177-2.2308-5.1016-4.959h13.285c0.10663-0.67317 0.17774-1.489 0.17774-2.1621 0-4.8888-3.6495-8.4668-8.6094-8.4668zm20.689 0c-5.4914 0-9.459 4.215-9.459 9.5293 0 5.7036 3.9675 9.5664 9.2812 9.5664 2.4449 0 4.57-0.67336 6.1641-2.0547l-2.2324-3.0469c-1.0275 0.88589-2.3382 1.3457-3.6484 1.3457-2.8343 0-5.207-2.4097-5.207-5.8105 0-3.1881 2.2682-5.7734 5.2441-5.7734 1.3458 0 2.5838 0.49552 3.6113 1.3809l2.127-3.1875c-1.6291-1.2397-3.6492-1.9492-5.8809-1.9492zm41.094 0c-2.1967 0-4.3576 1.0271-5.8106 3.1172l-0.21289-2.6914h-3.8965v18.244h4.2871v-12.115c1.0631-1.7007 2.8325-2.7988 4.5332-2.7988 1.3108 0 2.2327 0.45997 2.7637 1.3809 0.67317 1.1336 0.70898 2.8339 0.70898 4.3574v9.1758h4.2871v-9.4941c0-2.6571-0.28452-5.0667-1.6309-6.8379-1.1336-1.4524-2.8332-2.3379-5.0293-2.3379zm19.91 0c-5.4559 0-9.4609 4.215-9.4609 9.5293 0 5.3492 4.005 9.5664 9.4609 9.5664 5.4553 0 9.459-4.2172 9.459-9.5664 0-5.3143-4.0036-9.5293-9.459-9.5293zm31.139 0c-5.4559 0-9.459 4.215-9.459 9.5293 0 5.3492 4.0031 9.5664 9.459 9.5664 5.4553 0 9.459-4.2172 9.459-9.5664 0-5.3143-4.0036-9.5293-9.459-9.5293zm20.9 0c-5.2432 0-8.8203 4.3214-8.8203 9.2812 0 5.2787 3.755 9.3887 8.7148 9.3887 1.9484 0 4.2517-0.74454 5.5625-2.5508v2.0547c0 3.3303-2.233 4.748-5.0312 4.748-2.0195 0-4.6413-0.81517-6.5547-2.2676l-1.5938 3.543c2.4094 1.6652 5.4571 2.4785 8.2559 2.4785 3.4008 0 6.5169-1.1691 8.1465-4.1445 0.70871-1.2758 1.0996-2.8699 1.0996-4.8184v-17.287h-3.9336l-0.21289 2.0898c-1.3813-1.7357-3.6844-2.5156-5.6328-2.5156zm77.584 0c-5.2432 0-8.8223 4.3214-8.8223 9.2812 0 5.2787 3.755 9.3887 8.7148 9.3887 1.9484 0 4.2517-0.74454 5.5625-2.5508v2.0547c0 3.3303-2.2311 4.748-5.0293 4.748-2.0195 0-4.6413-0.81517-6.5547-2.2676l-1.5938 3.543c2.4094 1.6652 5.4552 2.4785 8.2539 2.4785 3.4008 0 6.5188-1.1691 8.1484-4.1445 0.70872-1.2758 1.0976-2.8699 1.0976-4.8184v-17.287h-3.9316l-0.21289 2.0898c-1.3813-1.7357-3.6844-2.5156-5.6328-2.5156zm23.453 0c-1.8779 0-3.3316 1.2405-4.4297 3.0117l-0.21289-2.5859h-3.9316v18.244h4.3223v-12.293c0.88534-1.5585 2.1954-2.4453 3.7539-2.4453 0.67317 0 1.2068 0.10736 1.7383 0.39062l0.95508-4.0039c-0.67262-0.21273-1.345-0.31836-2.1953-0.31836zm12.539 0c-5.4559 0-9.459 4.215-9.459 9.5293 0 5.3492 4.0031 9.5664 9.459 9.5664 5.4553 0 9.459-4.2172 9.459-9.5664 0-5.3143-4.0037-9.5293-9.459-9.5293zm93.951 0c-2.019 0-4.4293 0.81526-5.7051 2.7637l-0.24805-2.3379h-3.8965v27.102h4.2871v-10.699c1.4174 1.5585 3.5768 2.2676 5.4902 2.2676 5.2076 0 8.8223-4.5007 8.8223-9.4961 0-5.3492-3.7546-9.5996-8.75-9.5996zm20.121 0c-2.621 0-5.4209 0.74357-7.582 1.8066l1.1699 3.2246c1.5591-0.8148 3.5778-1.5957 5.6328-1.5957 2.7988 0 3.8965 1.4894 3.8965 3.9688v0.42578c-1.3463-0.28382-2.4791-0.39063-3.4356-0.39063-3.8613 0-8.043 1.4162-8.043 5.9512 0 3.8263 3.1539 5.7051 6.5547 5.7051 2.0906 0 3.8611-0.56789 5.1719-2.127l0.21289 1.7012h3.8262v-11.018c0-4.7472-2.2311-7.6523-7.4043-7.6523zm21.113 0c-1.8778 0-3.3297 1.2405-4.4277 3.0117l-0.21289-2.5859h-3.9316v18.244h4.3223v-12.293c0.88534-1.5585 2.1954-2.4453 3.7539-2.4453 0.67317 0 1.2053 0.10736 1.7363 0.39062l0.95703-4.0039c-0.67262-0.21273-1.3469-0.31836-2.1973-0.31836zm28.766 0c-2.1967 0-4.3576 1.0271-5.8106 3.1172l-0.21289-2.6914h-3.8945v18.244h4.2852v-12.115c1.0631-1.7007 2.8344-2.7988 4.5352-2.7988 1.3108 0 2.2327 0.45997 2.7637 1.3809 0.67309 1.1336 0.70703 2.8339 0.70703 4.3574v9.1758h4.2871v-9.4941c0-2.6571-0.28257-5.0667-1.6289-6.8379-1.1336-1.4524-2.8351-2.3379-5.0312-2.3379zm19.627 0c-5.1726 0-9.1758 4.1805-9.1758 9.6719 0 5.4204 3.5433 9.4238 9.1758 9.4238 3.7907 0 6.1641-1.4186 8.1836-4.3945l-2.9062-1.9473c-1.1331 1.9128-2.6554 2.834-5.0293 2.834-2.9754 0-4.8178-2.2308-5.1016-4.959h13.285c0.10663-0.67317 0.17578-1.489 0.17578-2.1621 0-4.8888-3.6475-8.4668-8.6074-8.4668zm21.148 0c-1.8779 0-3.3297 1.2405-4.4277 3.0117l-0.21289-2.5859h-3.9316v18.244h4.3223v-12.293c0.88534-1.5585 2.1954-2.4453 3.7539-2.4453 0.67317 0 1.2048 0.10736 1.7363 0.39062l0.95704-4.0039c-0.67262-0.21273-1.3469-0.31836-2.1973-0.31836zm10.344 0c-3.2242 0-6.2695 1.8077-6.2695 5.5273 0 3.2592 2.7632 4.4989 4.9238 5.3848 1.6302 0.67316 3.4004 1.3804 3.4004 2.6562 0 1.4524-1.4163 2.0898-2.7266 2.0898-1.6302 0-2.8709-0.7439-4.1816-2.0547l-2.6211 2.4805c1.7712 1.949 4.2155 3.0117 6.9082 3.0117 3.5425 0 6.873-1.7721 6.873-5.8105 0-3.3658-2.9761-4.6059-5.3144-5.5274-1.6291-0.67317-3.1524-1.3111-3.1524-2.5508 0-1.0986 0.91991-1.7715 2.1602-1.7715 1.3458 0 2.7274 0.63872 3.6133 1.418l2.4082-2.6211c-1.594-1.488-3.7542-2.2324-6.0215-2.2324zm-316.28 0.42578 6.5527 17.395-2.9043 7.6875 3.8262 1.4531 10.273-26.535h-4.6758l-4.1816 12.08h-0.0703l-4.1094-12.08zm112.16 0.0352 5.0293 18.209h4.6777l3.3652-11.939h0.0703l3.2949 11.939h4.498l5.2793-18.209h-4.3926l-3.2598 12.398h-0.0703l-3.2949-12.398h-4.0371l-3.5098 12.434h-0.0703l-2.9746-12.434zm-258.15 2.9746c2.2672 0 4.0027 1.7375 4.1094 4.1113h-8.8223c0.56708-2.3383 2.0913-4.1113 4.7129-4.1113zm430.89 0c2.2672 0 4.0008 1.7375 4.1074 4.1113h-8.8203c0.56708-2.3383 2.0913-4.1113 4.7129-4.1113zm-349.3 0.32031c2.9759 0 5.1016 2.5853 5.1016 5.7734 0 3.2236-2.1256 5.8105-5.1016 5.8105-2.9759 0-5.1016-2.5869-5.1016-5.8105 0-3.1881 2.1256-5.7734 5.1016-5.7734zm31.139 0c2.9759 0 5.1016 2.5853 5.1016 5.7734 0 3.2236-2.1256 5.8105-5.1016 5.8105-2.9759 0-5.1016-2.5869-5.1016-5.8105 0-3.1881 2.1256-5.7734 5.1016-5.7734zm21.717 0c1.6657 0 3.4009 0.70867 4.6406 2.3027v6.0566c-1.0275 1.9484-3.0124 2.7988-4.748 2.7988-3.1531 0-5.1719-2.585-5.1719-5.5254 0-2.7632 1.7013-5.6328 5.2793-5.6328zm77.582 0c1.6652 0 3.4009 0.70867 4.6406 2.3027v6.0566c-1.0275 1.9484-3.0104 2.7988-4.7461 2.7988-3.1531 0-5.1719-2.585-5.1719-5.5254 0-2.7632 1.6993-5.6328 5.2773-5.6328zm35.178 0c2.9759 0 5.1016 2.5853 5.1016 5.7734 0 3.2236-2.1256 5.8105-5.1016 5.8105-2.9759 0-5.1016-2.5869-5.1016-5.8105 0-3.1881 2.1256-5.7734 5.1016-5.7734zm93.135 0c3.1887 0 5.209 2.7623 5.209 5.7383 0 2.7982-1.7013 5.8457-5.2793 5.8457-1.7007 0-3.4361-0.70813-4.6758-2.3027v-6.4473c1.0275-1.9834 3.0104-2.834 4.7461-2.834zm21.256 6.4824c0.8148 0 1.7008 0.1058 2.7988 0.35352v3.5078c-1.2397 1.0625-2.5499 1.8066-4.1445 1.8066-1.6652 0-3.1172-0.81392-3.1172-2.6562 0-2.3733 2.4439-3.0117 4.4629-3.0117z" fill="#142943" stroke-width=".54646"/>
 <path d="m308.72 0.07617-12.543 0.0156v69.834c0 12.543 10.203 22.748 22.746 22.748 12.544 0 22.748-10.205 22.748-22.748v-69.834l-12.574-0.0156 0.0176 69.85c0 5.6183-4.5721 10.189-10.191 10.189-5.6183 0-10.188-4.5712-10.188-10.189zm-36.09 8e-3v69.84c0 25.528 20.767 46.297 46.295 46.297 25.527 0 46.295-20.769 46.295-46.297v-69.84h-12.559v69.84c0 18.603-15.134 33.738-33.736 33.738-18.603 0-33.736-15.136-33.736-33.738v-69.84zm-23.549 2e-3v69.84c0 38.51 31.331 69.844 69.842 69.844 38.511 0 69.844-31.334 69.844-69.844v-69.84h-12.559v69.84c0 31.586-25.698 57.285-57.285 57.285-31.586 0-57.281-25.699-57.281-57.285v-69.84z" fill="#78f992" stroke-width="1.0264"/>
</svg>
