<?xml version="1.0" encoding="UTF-8" standalone="no"?>
<svg
   viewBox="0 0 567.03998 311.04001"
   width="567.03998"
   height="311.04001"
   preserveAspectRatio="xMidYMid meet"
   version="1.1"
   id="svg228"
   sodipodi:docname="waterstons.svg"
   inkscape:version="1.1.2 (0a00cf5339, 2022-02-04)"
   xmlns:inkscape="http://www.inkscape.org/namespaces/inkscape"
   xmlns:sodipodi="http://sodipodi.sourceforge.net/DTD/sodipodi-0.dtd"
   xmlns="http://www.w3.org/2000/svg"
   xmlns:svg="http://www.w3.org/2000/svg">
  <sodipodi:namedview
     id="namedview230"
     pagecolor="#505050"
     bordercolor="#eeeeee"
     borderopacity="1"
     inkscape:pageshadow="0"
     inkscape:pageopacity="0"
     inkscape:pagecheckerboard="0"
     showgrid="false"
     fit-margin-top="0"
     fit-margin-left="0"
     fit-margin-right="0"
     fit-margin-bottom="0"
     inkscape:zoom="2"
     inkscape:cx="-25.5"
     inkscape:cy="103"
     inkscape:window-width="3440"
     inkscape:window-height="1313"
     inkscape:window-x="0"
     inkscape:window-y="32"
     inkscape:window-maximized="1"
     inkscape:current-layer="layer2" />
  <defs
     id="defs14">
    <clipPath
       id="__lottie_element_2">
      <rect
         width="300"
         height="58"
         x="0"
         y="0"
         id="rect2" />
    </clipPath>
    <filter
       id="__lottie_element_35">
      <feColorMatrix
         type="matrix"
         color-interpolation-filters="sRGB"
         values="0 0 0 0 1 0 0 0 0 0.25882354378700256 0 0 0 0 0.6196078658103943 0 0 0 1 0"
         id="feColorMatrix5" />
    </filter>
    <filter
       id="__lottie_element_38">
      <feColorMatrix
         type="matrix"
         color-interpolation-filters="sRGB"
         values="0 0 0 0 0 0 0 0 0 1 0 0 0 0 0.960784375667572 0 0 0 1 0"
         id="feColorMatrix8" />
    </filter>
  </defs>
  <g
     inkscape:groupmode="layer"
     id="layer2"
     inkscape:label="SVG"
     transform="translate(111.99113,185.94122)"
     style="display:inline">
    <g
       opacity="1"
       transform="matrix(0.23456,0,0,0.23456,57.699109,-34.3104)"
       id="g18" />
    <g
       id="g963"
       transform="matrix(2.3297222,0,0,2.3297222,-341.14991,102.18234)">
      <g
         opacity="1"
         transform="matrix(0.23456,0,0,0.23456,119.84039,-34.580379)"
         id="g22">
        <path
           fill="#142943"
           fill-opacity="1"
           d="m 35.938,12.999 c 0,0 0.382,0 0.382,0 0,0 20.644001,-79.903999 20.644001,-79.903999 0,0 34.600002,0 34.600002,0 0,0 -38.422005,133.809998 -38.422005,133.809998 0,0 -30.585998,0 -30.585998,0 0,0 -23.13,-82.579999 -23.13,-82.579999 0,0 -0.38199997,0 -0.38199997,0 0,0 -23.70400003,82.579999 -23.70400003,82.579999 0,0 -29.247001,0 -29.247001,0 0,0 -37.657002,-133.809998 -37.657002,-133.809998 0,0 34.407002,0 34.407002,0 0,0 20.072002,79.903999 20.072002,79.903999 0,0 0.382,0 0.382,0 0,0 22.365999,-79.903999 22.365999,-79.903999 0,0 28.864,0 28.864,0 0,0 21.411,79.903999 21.411,79.903999 z"
           id="path20" />
      </g>
      <g
         opacity="1"
         transform="matrix(0.23456,0,0,0.23456,151.98848,-30.90365)"
         id="g26">
        <path
           fill="#142943"
           fill-opacity="1"
           d="m 20.454,51.23 c 0,0 -2.867,-8.028 -2.867,-8.028 C 11.47,51.039001 0.76499999,53.525002 -9.3660002,53.525002 -28.482,53.525002 -46.451,41.291 -46.451,20.454 c 0,-24.8499999 23.513,-32.688 44.349,-32.688 5.734,0 11.8509996,0.764 17.586,2.102 0,0 0,-0.764 0,-0.764 0,-11.851 -4.588,-19.306 -18.7330001,-19.306 -11.4699999,0 -21.2189999,4.204001 -30.3950009,8.791001 0,0 -8.028,-21.218003 -8.028,-21.218003 13.954001,-6.880996 29.629001,-10.896 45.304001,-10.896 28.1,0 42.819,16.631001 42.819,43.393002 0,0 0,61.362 0,61.362 0,0 -25.997,0 -25.997,0 z M 15.484,7.2639999 C 11.088,6.3080001 7.2639999,5.5440001 3.25,5.5440001 c -9.3670001,0 -19.497999,4.0139995 -19.497999,14.9099999 0,7.646 6.6899994,12.425002 13.9539991,12.425002 7.2650001,0 12.6169999,-2.676003 17.7779999,-7.454003 0,0 0,-18.1609991 0,-18.1609991 z"
           id="path24" />
      </g>
      <g
         opacity="1"
         transform="matrix(0.23456,0,0,0.23456,174.36245,-33.212894)"
         id="g30">
        <path
           fill="#142943"
           fill-opacity="1"
           d="m 7.073,-16.153 c 0,0 0,37.466999 0,37.466999 0,3.25 0,6.117001 0.5739998,9.176001 0.7649999,4.205999 2.6760002,6.880998 7.0720002,6.880998 4.396999,0 7.455999,-0.954998 11.087999,-2.866996 0,0 9.748001,22.556999 9.748001,22.556999 C 28.292,61.265999 17.778,63.368 9.1759996,63.368 -7.4549999,63.368 -19.115,54.001999 -22.556999,39.473999 c -1.146,-4.969997 -1.337,-10.512999 -1.337,-15.865 0,0 0,-39.761999 0,-39.761999 0,0 -11.661001,0 -11.661001,0 0,0 0,-25.231998 0,-25.231998 0,0 11.661001,0 11.661001,0 0,0 5.734999,-21.983002 5.734999,-21.983002 0,0 25.232,0 25.232,0 0,0 0,21.983002 0,21.983002 0,0 25.233,0 25.233,0 0,0 0,25.231998 0,25.231998 0,0 -25.233,0 -25.233,0 z"
           id="path28" />
      </g>
      <g
         opacity="1"
         transform="matrix(0.23456,0,0,0.23456,196.4899,-30.90365)"
         id="g34">
        <path
           fill="#142943"
           fill-opacity="1"
           d="M 0.86000001,53.523998 C -29.534,53.523998 -51.326,32.687 -51.326,1.529 c 0,-31.158 22.556,-55.052998 52.377,-55.052998 28.865,0 50.275,19.879997 50.275,47.2159979 0,4.2050002 -0.574001,9.1750002 -1.338001,13.954 0,0 -69.963999,0 -69.963999,0 C -17.872999,20.452999 -9.6540003,29.056 2.9630001,29.056 16.153,29.056 21.697001,23.511999 28.386999,14.336 c 0,0 19.879999,13.573 19.879999,13.573 C 35.841999,45.112999 23.225,53.523998 0.86000001,53.523998 Z M 19.976,-12.617 c -0.573,-11.469 -8.22,-17.203999 -17.969,-17.203999 -12.043,0 -18.16,7.073 -20.836,17.203999 0,0 38.805,0 38.805,0 z"
           id="path32" />
      </g>
      <g
         opacity="1"
         transform="matrix(0.23456,0,0,0.23456,220.45537,-31.172691)"
         id="g38">
        <path
           fill="#142943"
           fill-opacity="1"
           d="m -4.013,-37.848999 c 5.734,-8.792999 13.3799996,-14.528 23.128999,-14.528 5.162001,0 10.132,1.146999 13.764002,2.675999 0,0 -7.647001,25.615 -7.647001,25.615 -2.868,-1.529 -6.308001,-2.293999 -9.749,-2.293999 -6.8819998,0 -13.954,3.823 -17.395,9.366999 0,0 0,69.389999 0,69.389999 0,0 -30.968002,0 -30.968002,0 0,0 0,-102.459999 0,-102.459999 0,0 26.1890019,0 26.1890019,0 0,0 2.6770001,12.234001 2.6770001,12.234001 z"
           id="path36" />
      </g>
      <g
         opacity="1"
         transform="matrix(0.23456,0,0,0.23456,237.47082,-30.90365)"
         id="g42">
        <path
           fill="#142943"
           fill-opacity="1"
           d="m 25.138,-20.837 c -5.353,-4.969999 -12.043,-8.792999 -20.072,-8.792999 -3.823,0 -8.2190001,1.911999 -8.2190001,5.542999 0,5.926001 6.881,9.177 15.1020001,12.618 12.998001,5.3519999 29.819002,11.659 29.819002,31.730999 0,22.556002 -19.879002,33.261999 -40.142002,33.261999 -16.632,0 -30.967999,-6.498996 -43.392998,-18.16 0,0 16.821998,-18.351999 16.821998,-18.351999 8.028,7.647001 14.337,12.617001 24.85,12.617001 4.0139999,0 11.087,-1.911 11.087,-6.690001 C 10.992,16.249001 1.817,13.19 -8.1230001,8.6020002 -19.976,3.25 -32.783001,-4.0139999 -32.783001,-21.792 c 0,-21.027 18.543001,-31.731998 37.849001,-31.731998 14.145,0 26.761999,4.778 36.702002,14.335998 0,0 -16.630002,18.351 -16.630002,18.351 z"
           id="path40" />
      </g>
      <g
         opacity="1"
         transform="matrix(0.23456,0,0,0.23456,257.89396,-33.212894)"
         id="g46">
        <path
           fill="#142943"
           fill-opacity="1"
           d="m 7.073,-16.153 c 0,0 0,37.466999 0,37.466999 0,3.25 0,6.117001 0.5729999,9.176001 0.7650004,4.205999 2.6760001,6.880998 7.0740001,6.880998 4.395999,0 7.454999,-0.955997 11.086999,-2.866996 0,0 9.749001,22.556999 9.749001,22.556999 C 28.292,61.265999 17.778999,63.368 9.177,63.368 c -16.6319999,0 -28.292999,-9.366001 -31.733,-23.894001 -1.146999,-4.969997 -1.337999,-10.512999 -1.337999,-15.865 0,0 0,-39.761999 0,-39.761999 0,0 -11.662001,0 -11.662001,0 0,0 0,-25.231998 0,-25.231998 0,0 11.662001,0 11.662001,0 0,0 5.734999,-21.983002 5.734999,-21.983002 0,0 25.232,0 25.232,0 0,0 0,21.983002 0,21.983002 0,0 25.232,0 25.232,0 0,0 0,25.231998 0,25.231998 0,0 -25.232,0 -25.232,0 z"
           id="path44" />
      </g>
      <g
         opacity="1"
         transform="matrix(0.23456,0,0,0.23456,280.67138,-30.90365)"
         id="g50">
        <path
           fill="#142943"
           fill-opacity="1"
           d="m 54.097,-0.001 c 0,30.203 -22.364,53.524998 -54.096,53.524998 -31.732001,0 -54.098,-23.321998 -54.098,-53.524998 0,-30.201999 22.365999,-53.522998 54.098,-53.522998 31.732,0 54.096,23.320999 54.096,53.522998 z M 0.001,-27.527 c -13.764,0 -22.748,11.852 -22.748,27.526 0,15.676 8.984,27.526999 22.748,27.526999 13.763,0 22.746999,-11.850999 22.746999,-27.526999 0,-15.674 -8.983999,-27.526 -22.746999,-27.526 z"
           id="path48" />
      </g>
      <g
         opacity="1"
         transform="matrix(0.23456,0,0,0.23456,307.6188,-31.172691)"
         id="g54">
        <path
           fill="#142943"
           fill-opacity="1"
           d="m -21.792,-50.083 c 0,0 2.676001,13.189998 2.676001,13.189998 C -10.514,-48.362 1.721,-52.375999 12.234,-52.375999 c 9.94,0 19.688001,5.352001 26.378999,13.571998 C 47.023998,-28.1 47.789001,-15.101 47.789001,-0.764 c 0,0 0,53.139999 0,53.139999 0,0 -30.968002,0 -30.968002,0 0,0 0,-51.99299901 0,-51.99299901 0,-6.69100009 0,-14.52799999 -2.292999,-19.68899999 -2.295,-5.162 -7.074,-7.073 -12.2340001,-7.073 -6.6909997,0 -14.9109999,3.631001 -19.1169999,10.705 0,0 0,68.049999 0,68.049999 0,0 -30.967001,0 -30.967001,0 0,0 0,-102.458999 0,-102.458999 0,0 25.998001,0 25.998001,0 z"
           id="path52" />
      </g>
      <g
         opacity="1"
         transform="matrix(0.23456,0,0,0.23456,331.94293,-30.90365)"
         id="g58">
        <path
           fill="#142943"
           fill-opacity="1"
           d="m 25.138,-20.837 c -5.353,-4.969999 -12.043,-8.792999 -20.072,-8.792999 -3.823,0 -8.2190001,1.911999 -8.2190001,5.542999 0,5.926001 6.881,9.177 15.1010001,12.618 12.999001,5.3519999 29.818998,11.659 29.818998,31.730999 0,22.556002 -19.878998,33.261999 -40.141998,33.261999 -16.632,0 -30.966999,-6.498996 -43.391998,-18.16 0,0 16.821998,-18.351999 16.821998,-18.351999 C -16.917,24.659 -10.608,29.629 -0.094,29.629 c 4.0129999,0 11.085,-1.911 11.085,-6.690001 C 10.991,16.249001 1.816,13.19 -8.1239996,8.6020002 -19.976999,3.25 -32.783001,-4.0139999 -32.783001,-21.792 c 0,-21.027 18.543001,-31.731998 37.849001,-31.731998 14.146,0 26.761999,4.778 36.700998,14.335998 0,0 -16.628998,18.351 -16.628998,18.351 z"
           id="path56" />
      </g>
    </g>
    <g
       opacity="1"
       transform="matrix(0.23456,0,0,0.23456,212.34006,-0.50631656)"
       id="g66" />
    <g
       id="g1096"
       transform="matrix(2.3270082,0,0,2.3270082,-323.32802,116.0982)">
      <g
         style="display:block"
         transform="matrix(0.235,0,0,0.235,107.10639,-11.410792)"
         opacity="1"
         id="g210">
        <g
           opacity="1"
           transform="translate(10.883,28.440001)"
           id="g112">
          <path
             fill="#152943"
             fill-opacity="1"
             d="m 1.166,-6.6090002 c 0,0 0,13.7990003 0,13.7990003 0,0.9719996 0,1.7499995 0.065,2.7870001 C 1.49,12.568 2.3970001,14.057 4.8590002,14.057 c 1.4249997,0 2.5909996,-0.324 3.6929998,-0.907 0,0 2.331,5.961 2.331,5.961 -1.9430004,1.101 -4.7939998,1.75 -7.255,1.75 -4.988,0 -8.2279999,-2.528 -9.523,-6.351 -0.6480002,-1.748 -0.8429999,-3.95 -0.8429999,-6.1529996 0,0 0,-14.9660006 0,-14.9660006 0,0 -4.1460001,0 -4.1460001,0 0,0 0,-6.6079998 0,-6.6079998 0,0 4.1460001,0 4.1460001,0 0,0 0.8429999,-7.644 0.8429999,-7.644 0,0 7.061,0 7.061,0 0,0 0,7.644 0,7.644 0,0 8.8099998,0 8.8099998,0 0,0 0,6.6079998 0,6.6079998 0,0 -8.8099998,0 -8.8099998,0 z"
             id="path110" />
        </g>
        <g
           opacity="1"
           transform="translate(41.202,31.906)"
           id="g116">
          <path
             fill="#152943"
             fill-opacity="1"
             d="m -8.3570004,1.976 c 0.5190006,4.9890002 3.8870006,9.069 9.32800042,9.069 C 5.3119998,11.045 8.099,9.3610001 10.171,5.8629999 c 0,0 5.313,3.5629997 5.313,3.5629997 C 11.791,14.868 7.4510002,17.459 0.51899999,17.459 -9.7810001,17.459 -16.26,10.139 -16.26,0.227 -16.26,-9.8149996 -8.9399996,-17.459 0.51899999,-17.459 9.5889997,-17.459 16.26,-10.916 16.26,-1.976 c 0,1.231 -0.128,2.721 -0.323,3.952 0,0 -24.2940004,0 -24.2940004,0 z M 0.713,-11.175 c -4.7939999,0 -7.5800001,3.2390001 -8.6169998,7.5149999 0,0 16.1319995,0 16.1319995,0 C 8.033,-8.0010004 4.8590002,-11.175 0.713,-11.175 Z"
             id="path114" />
        </g>
        <g
           opacity="1"
           transform="translate(76.378998,31.906)"
           id="g120">
          <path
             fill="#152943"
             fill-opacity="1"
             d="m 14.123,13.702 c -2.915,2.526001 -6.8019999,3.757 -11.2730001,3.757 -9.717,0 -16.9729999,-7.061 -16.9729999,-17.491 0,-9.718 7.2559999,-17.427 17.298,-17.427 4.081,0 7.774,1.296 10.753,3.563 0,0 -3.887,5.83 -3.887,5.83 -1.8790003,-1.6190004 -4.146,-2.526 -6.607,-2.526 -5.4419999,0 -9.5890002,4.73 -9.5890002,10.56 0,6.2189998 4.3410002,10.624 9.5240002,10.624 2.3959999,0 4.7929997,-0.842 6.672,-2.4619999 0,0 4.082,5.5719999 4.082,5.5719999 z"
             id="path118" />
        </g>
        <g
           opacity="1"
           transform="translate(112.009,24.294001)"
           id="g124">
          <path
             fill="#152943"
             fill-opacity="1"
             d="m -7.3210001,-4.5349998 c 2.592,-3.5629998 6.41400009,-5.3120003 10.3010001,-5.3120003 4.0159998,0 7.126,1.6190004 9.199,4.276 2.462,3.2390001 2.98,7.6440001 2.98,12.5030003 0,0 0,17.3620008 0,17.3620008 0,0 -7.8379999,0 -7.8379999,0 0,0 0,-16.7790011 0,-16.7790011 C 7.3210001,4.7290001 7.2550001,1.619 6.0240002,-0.454 5.053,-2.138 3.368,-2.98 0.97100002,-2.98 c -3.10999992,0 -6.34799992,2.008 -8.29200012,5.118 0,0 0,22.156001 0,22.156001 0,0 -7.8379999,0 -7.8379999,0 0,0 0,-48.588002 0,-48.588002 0,0 7.8379999,0 7.8379999,0 0,0 0,19.7590012 0,19.7590012 z"
             id="path122" />
        </g>
        <g
           opacity="1"
           transform="translate(151.72,31.518)"
           id="g128">
          <path
             fill="#152943"
             fill-opacity="1"
             d="m -8.0340004,-16.294001 c 0,0 0.3890004,4.924001 0.3890004,4.924001 2.6570001,-3.822 6.6080001,-5.7 10.625,-5.7 4.0159998,0 7.126,1.618 9.199,4.274 2.462,3.2389998 2.98,7.645 2.98,12.504 0,0 0,17.362 0,17.362 0,0 -7.8389998,0 -7.8389998,0 0,0 0,-16.778 0,-16.778 0,-2.786 -0.065,-5.897 -1.296,-7.97 C 5.053,-9.3620005 3.368,-10.204 0.97100002,-10.204 c -3.10999992,0 -6.34799992,2.0090003 -8.29200012,5.119 0,0 0,22.155 0,22.155 0,0 -7.8379999,0 -7.8379999,0 0,0 0,-33.364001 0,-33.364001 0,0 7.1249996,0 7.1249996,0 z"
             id="path126" />
        </g>
        <g
           opacity="1"
           transform="translate(191.108,31.906)"
           id="g132">
          <path
             fill="#152943"
             fill-opacity="1"
             d="m 17.298,-0.032 c 0,9.782 -7.3209998,17.491 -17.297,17.491 -9.9769998,0 -17.299,-7.709 -17.299,-17.491 0,-9.718 7.3220002,-17.427 17.299,-17.427 9.9760002,0 17.297,7.709 17.297,17.427 z M 0.001,-10.592 c -5.442,0 -9.3300005,4.73 -9.3300005,10.56 0,5.8949999 3.8880005,10.624 9.3300005,10.624 5.4419998,0 9.3280005,-4.7290001 9.3280005,-10.624 0,-5.83 -3.8860007,-10.56 -9.3280005,-10.56 z"
             id="path130" />
        </g>
        <g
           opacity="1"
           transform="translate(219.58,24.294001)"
           id="g136">
          <path
             fill="#152943"
             fill-opacity="1"
             d="m 3.9189999,24.294001 c 0,0 -7.8379998,0 -7.8379998,0 0,0 0,-48.588002 0,-48.588002 0,0 7.8379998,0 7.8379998,0 0,0 0,48.588002 0,48.588002 z"
             id="path134" />
        </g>
        <g
           opacity="1"
           transform="translate(248.05099,31.906)"
           id="g140">
          <path
             fill="#152943"
             fill-opacity="1"
             d="m 17.297001,-0.032 c 0,9.782 -7.3200008,17.491 -17.296001,17.491 -9.9769998,0 -17.299,-7.709 -17.299,-17.491 0,-9.718 7.3220002,-17.427 17.299,-17.427 9.9760002,0 17.296001,7.709 17.296001,17.427 z M 0.001,-10.592 c -5.442,0 -9.3300005,4.73 -9.3300005,10.56 0,5.8949999 3.8880005,10.624 9.3300005,10.624 5.4419998,0 9.3280005,-4.7290001 9.3280005,-10.624 0,-5.83 -3.8860007,-10.56 -9.3280005,-10.56 z"
             id="path138" />
        </g>
        <g
           opacity="1"
           transform="translate(287.14801,38.838001)"
           id="g144">
          <path
             fill="#152943"
             fill-opacity="1"
             d="M 17.006001,8.0010004 C 17.006001,11.564 16.292999,14.479 14.997,16.812 c -2.98,5.441 -8.681,7.579001 -14.9,7.579001 -5.1179999,0 -10.689,-1.490002 -15.095,-4.535 0,0 2.915,-6.478001 2.915,-6.478001 3.4990004,2.656 8.293,4.146 11.986,4.146 5.117,0 9.1990002,-2.591 9.1990002,-8.6809996 0,0 0,-3.7570004 0,-3.7570004 C 6.7049999,8.3889999 2.494,9.75 -1.069,9.75 c -9.07,0 -15.937001,-7.5150001 -15.937001,-17.1680002 0,-9.0700008 6.543001,-16.9730008 16.131001,-16.9730008 3.563,0 7.7740002,1.426001 10.3000002,4.600001 0,0 0.3899994,-3.823 0.3899994,-3.823 0,0 7.1910014,0 7.1910014,0 0,0 0,31.6150004 0,31.6150004 z M 9.1020002,-13.313 C 6.835,-16.228001 3.661,-17.524 0.61500001,-17.524 c -6.54300001,0 -9.65199971,5.248 -9.65199971,10.301 0,5.377 3.6919999,10.1059999 9.4579997,10.1059999 3.174,0 6.802,-1.555 8.6810002,-5.1179998 0,0 0,-11.0780001 0,-11.0780001 z"
             id="path142" />
        </g>
        <g
           opacity="1"
           transform="translate(325.10999,39.486)"
           id="g148">
          <path
             fill="#152943"
             fill-opacity="1"
             d="m -7.6110001,-24.261999 c 0,0 7.5130001,22.090999 7.5130001,22.090999 0,0 0.131,0 0.131,0 0,0 7.644,-22.090999 7.644,-22.090999 0,0 8.552,0 8.552,0 0,0 -18.788,48.523998 -18.788,48.523998 0,0 -6.9960003,-2.656999 -6.9960003,-2.656999 0,0 5.3120003,-14.0570001 5.3120003,-14.0570001 0,0 -11.985001,-31.8099989 -11.985001,-31.8099989 0,0 8.6170009,0 8.6170009,0 z"
             id="path146" />
        </g>
        <g
           opacity="1"
           transform="translate(375.57501,28.472)"
           id="g152">
          <path
             fill="#152943"
             fill-opacity="1"
             d="m 3.2720001,-3.336 c 0,0 12.9569999,0 12.9569999,0 0,0 0,6.6080001 0,6.6080001 0,0 -12.9569999,0 -12.9569999,0 0,0 0,12.9560009 0,12.9560009 0,0 -6.6080001,0 -6.6080001,0 0,0 0,-12.9560009 0,-12.9560009 0,0 -12.893,0 -12.893,0 0,0 0,-6.6080001 0,-6.6080001 0,0 12.893,0 12.893,0 0,0 0,-12.892001 0,-12.892001 0,0 6.6080001,0 6.6080001,0 0,0 0,12.892001 0,12.892001 z"
             id="path150" />
        </g>
        <g
           opacity="1"
           transform="translate(429.021,38.838001)"
           id="g156">
          <path
             fill="#152943"
             fill-opacity="1"
             d="M 17.006001,8.0010004 C 17.006001,11.564 16.292999,14.479 14.997,16.812 c -2.98,5.441 -8.681,7.579001 -14.9,7.579001 -5.1179999,0 -10.689,-1.490002 -15.095,-4.535 0,0 2.915,-6.478001 2.915,-6.478001 3.4990004,2.656 8.293,4.146 11.986,4.146 5.117,0 9.1990002,-2.591 9.1990002,-8.6809996 0,0 0,-3.7570004 0,-3.7570004 C 6.7049999,8.3889999 2.494,9.75 -1.069,9.75 c -9.07,0 -15.937001,-7.5150001 -15.937001,-17.1680002 0,-9.0700008 6.543001,-16.9730008 16.131001,-16.9730008 3.563,0 7.7740002,1.426001 10.3000002,4.600001 0,0 0.3899994,-3.823 0.3899994,-3.823 0,0 7.1910014,0 7.1910014,0 0,0 0,31.6150004 0,31.6150004 z M 9.1020002,-13.313 C 6.835,-16.228001 3.6600001,-17.524 0.61500001,-17.524 c -6.54300001,0 -9.65199971,5.248 -9.65199971,10.301 0,5.377 3.6919999,10.1059999 9.4579997,10.1059999 3.174,0 6.802,-1.555 8.6810002,-5.1179998 0,0 0,-11.0780001 0,-11.0780001 z"
             id="path154" />
        </g>
        <g
           opacity="1"
           transform="translate(465.202,31.517)"
           id="g160">
          <path
             fill="#152943"
             fill-opacity="1"
             d="m -2.267,-11.564 c 2.008,-3.239 4.6640001,-5.506 8.0979999,-5.506 1.5550003,0 2.7850003,0.194001 4.0149998,0.583 0,0 -1.7469997,7.3200002 -1.7469997,7.3200002 -0.9720001,-0.5180006 -1.9450002,-0.7130003 -3.1760001,-0.7130003 -2.8499999,0 -5.24799989,1.6199999 -6.8669999,4.4700003 0,0 0,22.4799998 0,22.4799998 0,0 -7.9019997,0 -7.9019997,0 0,0 0,-33.362999 0,-33.362999 0,0 7.1899998,0 7.1899998,0 0,0 0.3889999,4.728999 0.3889999,4.728999 z"
             id="path158" />
        </g>
        <g
           opacity="1"
           transform="translate(493.965,31.906)"
           id="g164">
          <path
             fill="#152943"
             fill-opacity="1"
             d="M 17.297001,-0.032 C 17.297001,9.75 9.9759998,17.459 0,17.459 c -9.9770002,0 -17.298,-7.709 -17.298,-17.491 0,-9.718 7.3209998,-17.427 17.298,-17.427 9.9759998,0 17.297001,7.709 17.297001,17.427 z M 0,-10.592 c -5.4419999,0 -9.3290005,4.73 -9.3290005,10.56 0,5.8949999 3.8870006,10.624 9.3290005,10.624 5.4419999,0 9.3290005,-4.7290001 9.3290005,-10.624 0,-5.83 -3.8870006,-10.56 -9.3290005,-10.56 z"
             id="path162" />
        </g>
        <g
           opacity="1"
           transform="translate(537.95203,31.938)"
           id="g168">
          <path
             fill="#152943"
             fill-opacity="1"
             d="m 9.8479996,6.0250001 c 0,0 0.1290006,0 0.1290006,0 0,0 5.9599998,-22.6740001 5.9599998,-22.6740001 0,0 8.032,0 8.032,0 0,0 -9.652,33.298 -9.652,33.298 0,0 -8.2279998,0 -8.2279998,0 0,0 -6.0240002,-21.8310002 -6.0240002,-21.8310002 0,0 -0.13,0 -0.13,0 0,0 -6.1539999,21.8310002 -6.1539999,21.8310002 0,0 -8.5520001,0 -8.5520001,0 0,0 -9.198,-33.298 -9.198,-33.298 0,0 8.422,0 8.422,0 0,0 5.44,22.7390002 5.44,22.7390002 0,0 0.1299998,0 0.1299998,0 0,0 6.4150002,-22.7390002 6.4150002,-22.7390002 0,0 7.385,0 7.385,0 0,0 6.0249996,22.6740001 6.0249996,22.6740001 z"
             id="path166" />
        </g>
        <g
           opacity="1"
           transform="translate(575.33002,28.440001)"
           id="g172">
          <path
             fill="#152943"
             fill-opacity="1"
             d="m 1.1670001,-6.6090002 c 0,0 0,13.7990003 0,13.7990003 0,0.9719996 0,1.7499995 0.065,2.7870001 C 1.4910001,12.568 2.398,14.057 4.8600001,14.057 c 1.4249997,0 2.5910001,-0.324 3.6919999,-0.907 0,0 2.332,5.961 2.332,5.961 -1.943,1.101 -4.7939998,1.75 -7.2550001,1.75 C -1.359,20.861 -4.599,18.333 -5.8940001,14.51 -6.5419998,12.762 -6.737,10.56 -6.737,8.3570004 c 0,0 0,-14.9660006 0,-14.9660006 0,0 -4.146,0 -4.146,0 0,0 0,-6.6079998 0,-6.6079998 0,0 4.146,0 4.146,0 0,0 0.8429999,-7.644 0.8429999,-7.644 0,0 7.0610002,0 7.0610002,0 0,0 0,7.644 0,7.644 0,0 8.8100001,0 8.8100001,0 0,0 0,6.6079998 0,6.6079998 0,0 -8.8100001,0 -8.8100001,0 z"
             id="path170" />
        </g>
        <g
           opacity="1"
           transform="translate(607.01001,24.294001)"
           id="g176">
          <path
             fill="#152943"
             fill-opacity="1"
             d="m -7.3210001,-4.5349998 c 2.592,-3.5629998 6.41400009,-5.3120003 10.3010001,-5.3120003 4.0159998,0 7.126,1.6190004 9.199,4.276 2.462,3.2390001 2.98,7.6440001 2.98,12.5030003 0,0 0,17.3620008 0,17.3620008 0,0 -7.8379999,0 -7.8379999,0 0,0 0,-16.7790011 0,-16.7790011 C 7.3210001,4.7290001 7.2550001,1.619 6.0240002,-0.454 5.053,-2.138 3.368,-2.98 0.97100002,-2.98 c -3.10999992,0 -6.34799992,2.008 -8.29200012,5.118 0,0 0,22.156001 0,22.156001 0,0 -7.8379999,0 -7.8379999,0 0,0 0,-48.588002 0,-48.588002 0,0 7.8379999,0 7.8379999,0 0,0 0,19.7590012 0,19.7590012 z"
             id="path174" />
        </g>
        <g
           opacity="1"
           transform="translate(664.76398,39.615002)"
           id="g180">
          <path
             fill="#152943"
             fill-opacity="1"
             d="m -9.8800001,-24.391001 c 0,0 0.4540005,4.276001 0.4540005,4.276001 2.3329997,-3.562999 6.7379996,-5.052999 10.4299995,-5.052999 9.1350001,0 16.0009991,7.774 16.0009991,17.555999 0,9.135 -6.606999,17.362 -16.129999,17.362 -3.4990001,0 -7.4499998,-1.2959995 -10.0419998,-4.1459999 0,0 0,19.5650009 0,19.5650009 0,0 -7.8379992,0 -7.8379992,0 0,0 0,-49.560002 0,-49.560002 0,0 7.1249989,0 7.1249989,0 z m 0.7130003,23.0630011 c 2.2669997,2.916 5.4409997,4.2109998 8.5509998,4.2109998 6.543,0 9.6529997,-5.5719998 9.6529997,-10.6890001 0,-5.4419998 -3.6919999,-10.4950008 -9.5229997,-10.4950008 -3.1740001,0 -6.8020001,1.555001 -8.6809998,5.182001 0,0 0,11.7910001 0,11.7910001 z"
             id="path178" />
        </g>
        <g
           opacity="1"
           transform="translate(701.68903,31.906)"
           id="g184">
          <path
             fill="#152943"
             fill-opacity="1"
             d="m 7.4180002,16.681999 c 0,0 -0.3890004,-3.109999 -0.3890004,-3.109999 C 4.632,16.423 1.3940001,17.459 -2.4289999,17.459 -8.6479998,17.459 -14.414,14.026 -14.414,7.0289998 -14.414,-1.2640001 -6.7690001,-3.855 0.292,-3.855 c 1.7489999,0 3.8219998,0.194 6.2840002,0.713 0,0 0,-0.7780001 0,-0.7780001 0,-4.5340004 -2.0080004,-7.2549999 -7.12600021,-7.2549999 C -4.3080001,-11.175 -8,-9.75 -10.851,-8.2600002 c 0,0 -2.138,-5.8949998 -2.138,-5.8949998 3.9520003,-1.944001 9.0700001,-3.304 13.86300001,-3.304 C 10.334,-17.459 14.414,-12.147 14.414,-3.4660001 c 0,0 0,20.1479991 0,20.1479991 0,0 -6.9959998,0 -6.9959998,0 z M 6.5760002,1.911 C 4.5679998,1.4579999 2.948,1.263 1.4579999,1.263 -2.234,1.263 -6.7049999,2.4300001 -6.7049999,6.77 c 0,3.369 2.6560001,4.859 5.701,4.859 2.9159998,0 5.3129999,-1.361 7.5800001,-3.3040002 0,0 0,-6.4139998 0,-6.4139998 z"
             id="path182" />
        </g>
        <g
           opacity="1"
           transform="translate(735.34399,31.517)"
           id="g188">
          <path
             fill="#152943"
             fill-opacity="1"
             d="m -2.267,-11.564 c 2.008,-3.239 4.6640001,-5.506 8.0979999,-5.506 1.5550003,0 2.7850003,0.194001 4.0149998,0.583 0,0 -1.7480001,7.3200002 -1.7480001,7.3200002 -0.9709997,-0.5180006 -1.9429994,-0.7130003 -3.1739998,-0.7130003 -2.8499999,0 -5.2479998,1.6199999 -6.8669998,4.4700003 0,0 0,22.4799998 0,22.4799998 0,0 -7.9029997,0 -7.9029997,0 0,0 0,-33.362999 0,-33.362999 0,0 7.1899998,0 7.1899998,0 0,0 0.3889999,4.728999 0.3889999,4.728999 z"
             id="path186" />
        </g>
        <g
           opacity="1"
           transform="translate(759.11798,28.440001)"
           id="g192">
          <path
             fill="#152943"
             fill-opacity="1"
             d="m 1.1670001,-6.6090002 c 0,0 0,13.7990003 0,13.7990003 0,0.9719996 -0.001,1.7499995 0.064,2.7870001 C 1.49,12.568 2.3970001,14.057 4.8590002,14.057 c 1.4249997,0 2.5909996,-0.324 3.6929998,-0.907 0,0 2.331,5.961 2.331,5.961 -1.9430004,1.101 -4.7939998,1.75 -7.255,1.75 -4.988,0 -8.2279999,-2.528 -9.523,-6.351 -0.6480002,-1.748 -0.8429999,-3.95 -0.8429999,-6.1529996 0,0 0,-14.9660006 0,-14.9660006 0,0 -4.1460001,0 -4.1460001,0 0,0 0,-6.6079998 0,-6.6079998 0,0 4.1460001,0 4.1460001,0 0,0 0.8429999,-7.644 0.8429999,-7.644 0,0 7.0620001,0 7.0620001,0 0,0 0,7.644 0,7.644 0,0 8.8100001,0 8.8100001,0 0,0 0,6.6079998 0,6.6079998 0,0 -8.8100001,0 -8.8100001,0 z"
             id="path190" />
        </g>
        <g
           opacity="1"
           transform="translate(790.797,31.518)"
           id="g196">
          <path
             fill="#152943"
             fill-opacity="1"
             d="m -8.0340004,-16.294001 c 0,0 0.3890004,4.924001 0.3890004,4.924001 2.6570001,-3.822 6.6080001,-5.7 10.625,-5.7 4.0159998,0 7.126,1.618 9.199,4.274 2.462,3.2389998 2.98,7.645 2.98,12.504 0,0 0,17.362 0,17.362 0,0 -7.8389998,0 -7.8389998,0 0,0 0,-16.778 0,-16.778 0,-2.786 -0.065,-5.897 -1.296,-7.97 C 5.053,-9.3620005 3.368,-10.204 0.97100002,-10.204 c -3.10999992,0 -6.34799992,2.0090003 -8.29200012,5.119 0,0 0,22.155 0,22.155 0,0 -7.8379999,0 -7.8379999,0 0,0 0,-33.364001 0,-33.364001 0,0 7.1249996,0 7.1249996,0 z"
             id="path194" />
        </g>
        <g
           opacity="1"
           transform="translate(829.14899,31.906)"
           id="g200">
          <path
             fill="#152943"
             fill-opacity="1"
             d="m -8.3570004,1.976 c 0.5190006,4.9890002 3.8870006,9.069 9.32800042,9.069 4.34099978,0 7.12699958,-1.6839999 9.19899998,-5.1820001 0,0 5.314,3.5629997 5.314,3.5629997 C 11.791,14.868 7.4499998,17.459 0.51800001,17.459 -9.7819996,17.459 -16.26,10.139 -16.26,0.227 -16.26,-9.8149996 -8.941,-17.459 0.51800001,-17.459 9.5880003,-17.459 16.26,-10.916 16.26,-1.976 c 0,1.231 -0.128,2.721 -0.323,3.952 0,0 -24.2940004,0 -24.2940004,0 z M 0.713,-11.175 c -4.7939999,0 -7.5800001,3.2390001 -8.6169998,7.5149999 0,0 16.131,0 16.131,0 C 8.0319996,-8.0010004 4.8590002,-11.175 0.713,-11.175 Z"
             id="path198" />
        </g>
        <g
           opacity="1"
           transform="translate(862.51099,31.517)"
           id="g204">
          <path
             fill="#152943"
             fill-opacity="1"
             d="m -2.267,-11.564 c 2.008,-3.239 4.6640001,-5.506 8.0979999,-5.506 1.5550003,0 2.7850003,0.194001 4.0149998,0.583 0,0 -1.7469997,7.3200002 -1.7469997,7.3200002 -0.9720001,-0.5180006 -1.9439998,-0.7130003 -3.1750002,-0.7130003 -2.8499999,0 -5.2479998,1.6199999 -6.8669998,4.4700003 0,0 0,22.4799998 0,22.4799998 0,0 -7.9029997,0 -7.9029997,0 0,0 0,-33.362999 0,-33.362999 0,0 7.1899998,0 7.1899998,0 0,0 0.3889999,4.728999 0.3889999,4.728999 z"
             id="path202" />
        </g>
        <g
           opacity="1"
           transform="translate(886.18799,31.906)"
           id="g208">
          <path
             fill="#152943"
             fill-opacity="1"
             d="M 7.677,-8.5839996 C 6.0570002,-10.009 3.53,-11.175 1.069,-11.175 c -2.268,0 -3.9530001,1.2300003 -3.9530001,3.2390001 0,2.2669998 2.7880001,3.4330001 5.767,4.6639998 C 7.1589999,-1.587 12.6,0.68000001 12.6,6.835 c 0,7.385 -6.0899998,10.624 -12.568,10.624 -4.9240002,0 -9.3940005,-1.943 -12.633,-5.507 0,0 4.7939998,-4.5339998 4.7939998,-4.5339998 C -5.4099998,9.8149996 -3.142,11.175 -0.161,11.175 2.2349999,11.175 4.8260002,10.009 4.8260002,7.3530002 4.8260002,5.02 1.5880001,3.7249999 -1.393,2.494 -5.3439999,0.87400001 -10.398,-1.393 -10.398,-7.3530002 -10.398,-14.155 -4.8270001,-17.459 1.069,-17.459 c 4.1460002,0 8.0970004,1.359999 11.012,4.081 0,0 -4.404,4.7940004 -4.404,4.7940004 z"
             id="path206" />
        </g>
      </g>
    </g>
    <g
       id="g1107"
       transform="matrix(4.3756715,0,0,4.3756715,-116.35192,34.032426)">
      <path
         fill="#142943"
         fill-opacity="1"
         d="m 0,68.049004 c -37.521999,0 -68.047997,-30.528004 -68.047997,-68.050004 0,0 0,-68.048004 0,-68.048004 0,0 136.095994,0 136.095994,0 0,0 0,68.048004 0,68.048004 0,37.522 -30.525998,68.050004 -68.047997,68.050004 z"
         id="path16"
         transform="matrix(0.23456,0,0,0.23456,57.69911,-34.3104)" />
      <g
         style="display:block"
         transform="matrix(0.23456,0,0,0.23456,57.921525,-50.25465)"
         opacity="1"
         id="g224">
        <g
           opacity="1"
           transform="translate(68.049004,68.056999)"
           id="g214">
          <path
             fill="#78f992"
             fill-opacity="1"
             d="m 68.049004,-68.047997 c 0,0 -12.237004,0 -12.237004,0 0,0 0,68.047997 0,68.047997 0,30.775 -25.037,55.813 -55.813,55.813 -30.774999,0 -55.811,-25.038 -55.811,-55.813 0,0 0,-68.047997 0,-68.047997 m 0,0 c 0,0 -12.237004,0 -12.237004,0 0,0 0,68.047997 0,68.047997 0,37.521 30.526005,68.049004 68.048004,68.049004 C 37.521,68.049004 68.049004,37.521 68.049004,0 c 0,0 0,-68.047997 0,-68.047997"
             id="path212" />
        </g>
        <g
           opacity="1"
           transform="translate(68.049004,56.584999)"
           id="g218">
          <path
             fill="#78f992"
             fill-opacity="1"
             d="m -45.105999,-56.577 c 0,0 0,68.047 0,68.047 0,24.871999 20.233999,45.107 45.105999,45.107 24.871,0 45.105999,-20.235001 45.105999,-45.107 0,0 0,-68.047 0,-68.047 0,0 -12.236,0 -12.236,0 0,0 0,68.047 0,68.047 C 32.869999,29.594999 18.125,44.341 0,44.341 c -18.125,0 -32.869999,-14.746001 -32.869999,-32.871 0,0 0,-68.047 0,-68.047 0,0 -12.236,0 -12.236,0 z"
             id="path216" />
        </g>
        <g
           opacity="1"
           transform="translate(68.049004,45.110001)"
           id="g222">
          <path
             fill="#78f992"
             fill-opacity="1"
             d="m 22.163,-45.094002 c 0,0 -12.2519997,-0.016 -12.2519997,-0.016 0,0 0.017,68.056 0.017,68.056 0,5.474001 -4.4540005,9.928002 -9.9290005,9.928002 -5.4739999,0 -9.9270005,-4.454001 -9.9270005,-9.928002 0,0 -0.014999,-68.056 -0.014999,-68.056 0,0 -12.2200003,0.016 -12.2200003,0.016 0,0 0,68.040001 0,68.040001 0,12.221001 9.941,22.164002 22.1620001,22.164002 C 12.221,45.110001 22.163,35.167 22.163,22.945999 c 0,0 0,-22.16299901 0,-22.16299901 0,0 0,-45.87700199 0,-45.87700199 z"
             id="path220" />
        </g>
      </g>
    </g>
  </g>
</svg>
