<svg width="264" height="457" viewBox="0 0 264 457" fill="none" xmlns="http://www.w3.org/2000/svg">
    <g filter="url(#filter0_f_135_449)">
        <g filter="url(#filter1_d_135_449)">
            <path
                d="M130.643 349.816V325.357V300.898V40C130.643 40 92.6007 56.1995 66.732 133.147C51.8502 177.414 45.0989 218.746 41.3087 262.171C38.873 290.077 40.2293 319.242 42.1948 349.816L44.3239 366.122L48.0716 382.429H59.8844H80.6189H130.643V366.122V349.816Z"
                fill="#182051"/>
            <path
                d="M130.643 349.816L130.643 325.357V300.898L130.643 40C130.643 40 169.742 56.1995 196.329 133.147C211.624 177.414 218.563 218.746 222.459 262.171C224.962 290.077 223.568 319.242 221.548 349.816L219.824 366.486L217.839 382.429H203.347H194.042H182.056H130.643V366.122V349.816Z"
                fill="#13299B"/>
            <path d="M75.2587 382.725H184.259L177.653 416.725H85.1678L75.2587 382.725Z" fill="#5B6575"/>
            <circle cx="131.161" cy="125.607" r="35.2857" fill="#3CA3BD" stroke="#3C2F62" stroke-width="10"/>
        </g>
    </g>
    <defs>
        <filter id="filter0_f_135_449" x="0" y="0" width="263.804" height="456.725" filterUnits="userSpaceOnUse"
                color-interpolation-filters="sRGB">
            <feFlood flood-opacity="0" result="BackgroundImageFix"/>
            <feBlend mode="normal" in="SourceGraphic" in2="BackgroundImageFix" result="shape"/>
            <feGaussianBlur stdDeviation="20" result="effect1_foregroundBlur_135_449"/>
        </filter>
        <filter id="filter1_d_135_449" x="20" y="40" width="223.804" height="416.725" filterUnits="userSpaceOnUse"
                color-interpolation-filters="sRGB">
            <feFlood flood-opacity="0" result="BackgroundImageFix"/>
            <feColorMatrix in="SourceAlpha" type="matrix" values="0 0 0 0 0 0 0 0 0 0 0 0 0 0 0 0 0 0 127 0"
                           result="hardAlpha"/>
            <feOffset dy="20"/>
            <feGaussianBlur stdDeviation="10"/>
            <feComposite in2="hardAlpha" operator="out"/>
            <feColorMatrix type="matrix" values="0 0 0 0 0.000466371 0 0 0 0 0.00841453 0 0 0 0 0.0799479 0 0 0 0.5 0"/>
            <feBlend mode="normal" in2="BackgroundImageFix" result="effect1_dropShadow_135_449"/>
            <feBlend mode="normal" in="SourceGraphic" in2="effect1_dropShadow_135_449" result="shape"/>
        </filter>
    </defs>
</svg>
