<svg width="268" height="377" viewBox="0 0 268 377" fill="none" xmlns="http://www.w3.org/2000/svg">
<path d="M38.4576 153.569C41.1494 152.101 43 151 45.5 150C47.698 149.121 48.5747 148.606 51 148C53 147.5 54.4522 148.048 54.9522 148.048C55.335 146.134 55.2986 146.457 55.717 144.376C53.717 143.876 52.97 143.75 49.97 144.25C45.97 145.25 47.4049 144.81 44.4049 145.81C41.4049 146.81 42.0409 146.58 40.5409 147.08C39.5319 147.441 38.7227 147.613 37.8047 148.164L38.4576 153.569Z" fill="#4A448D"/>
<path d="M232.609 228.543L237.848 231.719C237.118 232.302 236.672 232.601 235.877 233.112C235.64 233.26 235.397 233.412 235.152 233.566L235.15 233.567C234.323 234.086 233.468 234.622 232.67 235.08C230.195 236.403 228.8 237.135 226.273 238.366L225.984 233.125C227.126 232.477 227.746 232.063 228.851 231.317C229.846 230.6 230.37 230.232 231.293 229.523C231.848 229.098 232.043 228.93 232.609 228.543Z" fill="#4A448D"/>
<path d="M133.643 309.816V285.357V260.898V0C133.643 0 95.6007 16.1995 69.732 93.1474C54.8501 137.414 48.0988 178.746 44.3086 222.171C41.873 250.077 43.2293 279.242 45.1948 309.816L47.3239 326.122L51.0716 342.429H62.8844H83.6189H133.643V326.122V309.816Z" fill="#ACC8D7"/>
<path d="M133.643 309.816L133.643 285.357V260.898L133.643 0C133.643 0 172.742 16.1995 199.329 93.1474C214.624 137.414 221.563 178.746 225.459 222.171C227.962 250.077 226.568 279.242 224.548 309.816L222.824 326.486L220.839 342.429H206.347H197.042H185.056H133.643V326.122V309.816Z" fill="#D2E6F0"/>
<path d="M78.2587 342.725H187.259L180.653 376.725H88.1678L78.2587 342.725Z" fill="#5B6575"/>
<circle cx="134.161" cy="85.6071" r="35.2857" fill="#3CA3BD" stroke="#3C2F62" stroke-width="10"/>
<path d="M171.821 125.179C156.379 134.022 141.154 156.053 137.134 164.29C137.134 164.29 132.953 171.548 128.186 180.29C127.634 181.141 127.076 182.21 126.638 183.047C126.347 183.605 126.109 184.06 125.964 184.278C124.857 185.929 123.708 187.713 122.526 189.547L122.523 189.552C121.932 190.469 121.333 191.399 120.727 192.331C120.481 193.006 120.142 193.703 119.7 194.425C110.596 209.292 92.5236 237.028 72.9805 243.752C82.7126 242.494 91.2166 238.037 91.2166 238.037C91.2166 238.037 96.6468 235.247 103.992 229.779C108.419 226.748 120.416 215.656 123.537 210.094C126.658 204.533 117.352 223.462 110.194 230.961C108.171 233.073 107.274 234.07 106.475 234.959C105.615 235.915 104.866 236.747 102.949 238.708C98.5698 242.705 91.6867 246.24 85.327 248.885C78.9669 251.53 70.3455 251.839 68.9331 251.839C68.8637 251.839 68.7783 251.84 68.6776 251.84C66.7247 251.851 59.0292 251.891 51.4959 249.279C50.6034 248.969 49.7508 248.684 48.9256 248.408C42.4261 246.231 37.6534 244.632 28.8268 236.488C27.7042 235.452 24.9619 232.221 23.6668 230.694L23.8472 230.907L23.8432 230.902L23.8416 230.9C23.4138 230.396 21.3646 226.926 21.314 226.877C21.1104 226.68 20.1153 224.661 18.468 220.71C14.4496 211.072 13.4661 205.692 13.4661 195.901C13.5356 195.244 13.6011 194.592 13.6661 193.944C14.3871 186.769 15.0561 180.111 20.4853 171.943C21.202 170.866 21.8284 169.91 22.3908 169.052C26.4729 162.824 27.1835 161.739 34.5714 156.342C36.0991 155.225 37.4638 154.264 38.7032 153.43C38.5648 151.554 38.4014 149.723 38.2039 147.951C32.3161 150.922 28.6643 153.199 23.0218 158.845C16.7687 165.102 9.68414 173.831 7.92491 178.387C7.56269 179.325 7.17617 180.171 6.76588 181.069C5.1835 184.533 3.24803 188.77 0.993545 202.029C-1.8455 218.726 2.30226 227.445 2.30226 227.445C2.30226 227.445 2.25648 229.527 8.61034 240.095C14.3367 248.567 19.4126 255.533 28.1173 260.573C37.7065 267.498 45.0821 270 58.9117 270C72.7417 270 79.738 268.664 95.1797 259.821C108.648 252.108 125.457 227.172 129.533 218.839C130.333 217.554 131.125 216.271 131.913 214.997L131.92 214.985L131.925 214.977C135.022 209.966 138.037 205.087 141.036 200.722C143.847 196.779 146.854 192.028 149.707 187.523C151.571 184.578 153.368 181.738 155.001 179.298C164.028 165.804 164.689 165.179 170.693 159.505C171.721 158.533 172.907 157.412 174.319 156.053C174.983 155.555 175.605 155.078 176.209 154.615C179.265 152.274 181.829 150.309 186.779 147.878C187.411 147.567 188.048 147.24 188.698 146.905C192.595 144.901 197.001 142.634 204.125 142.108L204.383 142.089C208.299 141.8 211.012 141.599 214.332 142.139C209.761 140.903 207.599 140.907 201.094 140.919C200.407 140.92 199.672 140.922 198.881 140.922C187.31 140.922 175.783 146.963 175.783 146.963C175.783 146.963 170.353 149.753 163.008 155.221C158.581 158.252 146.584 169.344 143.463 174.906C140.342 180.467 149.648 161.538 156.806 154.039C158.83 151.927 159.726 150.93 160.526 150.041C161.385 149.085 162.134 148.253 164.051 146.292C168.43 142.295 175.313 138.76 181.673 136.115C188.033 133.471 196.655 133.161 198.067 133.161C198.136 133.161 198.222 133.16 198.323 133.16C200.276 133.149 207.971 133.109 215.504 135.721C223.428 138.469 229.258 140.922 239.204 150.1C240.7 151.48 243.427 154.615 243.767 155.221C244.492 156.51 245.052 157.475 245.515 158.274C246.784 160.462 247.325 161.395 248.532 164.29C252.551 173.928 253.534 179.309 253.534 189.099C253.465 189.756 253.399 190.408 253.334 191.056C252.613 198.231 251.944 204.889 246.515 213.056C245.798 214.134 245.172 215.09 244.61 215.947L244.609 215.949C240.527 222.177 239.825 223.27 232.438 228.668C234.888 230.167 235.2 230.353 237.587 231.803C239.575 230.316 241.6 228.535 243.979 226.155C250.231 219.898 257.316 211.169 259.075 206.613C259.435 205.68 259.82 204.837 260.228 203.943L260.229 203.941L260.231 203.937L260.233 203.933L260.234 203.931C261.817 200.467 263.752 196.23 266.007 182.971C268.845 166.274 264.698 157.556 264.698 157.556C264.698 157.556 264.744 155.473 258.39 144.905C252.663 136.433 247.588 129.467 238.883 124.427C229.294 117.502 221.918 115 208.088 115C194.258 115 187.262 116.335 171.821 125.179Z" fill="#4A448D"/>
</svg>
