<svg width="224" height="417" viewBox="0 0 224 417" fill="none" xmlns="http://www.w3.org/2000/svg">
    <g filter="url(#filter0_d_136_460)">
        <path
            d="M110.643 309.816V285.357V260.898V0C110.643 0 72.6007 16.1995 46.732 93.1474C31.8502 137.414 25.0989 178.746 21.3087 222.171C18.873 250.077 20.2293 279.242 22.1948 309.816L24.3239 326.122L28.0716 342.429H39.8844H60.6189H110.643V326.122V309.816Z"
            fill="#ACC8D7"/>
        <path
            d="M110.643 309.816V285.357L110.643 260.898L110.643 0C110.643 0 149.742 16.1995 176.329 93.1474C191.624 137.414 198.563 178.746 202.459 222.171C204.962 250.077 203.568 279.242 201.548 309.816L199.824 326.486L197.839 342.429H183.347H174.042H162.056H110.643V326.122L110.643 309.816Z"
            fill="#D2E6F0"/>
        <path d="M55.2587 342.725H164.259L157.653 376.725H65.1678L55.2587 342.725Z" fill="#5B6575"/>
        <circle cx="111.161" cy="85.6072" r="35.2857" fill="#3CA3BD" stroke="#3C2F62" stroke-width="10"/>
    </g>
    <defs>
        <filter id="filter0_d_136_460" x="0" y="0" width="223.804" height="416.725" filterUnits="userSpaceOnUse"
                color-interpolation-filters="sRGB">
            <feFlood flood-opacity="0" result="BackgroundImageFix"/>
            <feColorMatrix in="SourceAlpha" type="matrix" values="0 0 0 0 0 0 0 0 0 0 0 0 0 0 0 0 0 0 127 0"
                           result="hardAlpha"/>
            <feOffset dy="20"/>
            <feGaussianBlur stdDeviation="10"/>
            <feComposite in2="hardAlpha" operator="out"/>
            <feColorMatrix type="matrix" values="0 0 0 0 0.000466371 0 0 0 0 0.00841453 0 0 0 0 0.0799479 0 0 0 0.5 0"/>
            <feBlend mode="normal" in2="BackgroundImageFix" result="effect1_dropShadow_136_460"/>
            <feBlend mode="normal" in="SourceGraphic" in2="effect1_dropShadow_136_460" result="shape"/>
        </filter>
    </defs>
</svg>
