<svg width="308" height="417" viewBox="0 0 308 417" fill="none" xmlns="http://www.w3.org/2000/svg">
    <g filter="url(#filter0_d_4_54)">
        <path
            d="M58.4576 153.569C61.1494 152.101 63 151 65.5 150C67.698 149.121 68.5747 148.606 71 148C73 147.5 74.4522 148.048 74.9522 148.048C75.335 146.134 75.2986 146.457 75.717 144.376C73.717 143.876 72.97 143.751 69.97 144.251C65.97 145.251 67.4049 144.81 64.4049 145.81C61.4049 146.81 62.0409 146.58 60.5409 147.08C59.5319 147.441 58.7227 147.613 57.8047 148.164L58.4576 153.569Z"
            fill="#4A448D"/>
        <path
            d="M252.609 228.543L257.848 231.719C257.118 232.303 256.672 232.601 255.877 233.112C255.64 233.26 255.397 233.412 255.152 233.566L255.15 233.567C254.323 234.086 253.468 234.622 252.67 235.08C250.195 236.403 248.8 237.135 246.273 238.366L245.984 233.125C247.126 232.477 247.746 232.063 248.851 231.317C249.846 230.6 250.37 230.232 251.293 229.523C251.848 229.098 252.043 228.93 252.609 228.543Z"
            fill="#4A448D"/>
        <path
            d="M153.643 309.816V285.357V260.898V0C153.643 0 115.601 16.1995 89.732 93.1474C74.8501 137.414 68.0988 178.746 64.3086 222.171C61.873 250.077 63.2293 279.242 65.1948 309.816L67.3239 326.122L71.0716 342.429H82.8844H103.619H153.643V326.122V309.816Z"
            fill="#ACC8D7"/>
        <path
            d="M153.643 309.816L153.643 285.357V260.898L153.643 0C153.643 0 192.742 16.1995 219.329 93.1474C234.624 137.414 241.563 178.746 245.459 222.171C247.962 250.077 246.568 279.242 244.548 309.816L242.824 326.486L240.839 342.429H226.347H217.042H205.056H153.643V326.122V309.816Z"
            fill="#D2E6F0"/>
        <path d="M98.2587 342.725H207.259L200.653 376.725H108.168L98.2587 342.725Z" fill="#5B6575"/>
        <circle cx="154.161" cy="85.6071" r="35.2857" fill="#3CA3BD" stroke="#3C2F62" stroke-width="10"/>
        <path
            d="M191.821 125.179C176.379 134.022 161.154 156.053 157.134 164.29C157.134 164.29 152.953 171.548 148.186 180.29C147.634 181.141 147.076 182.21 146.638 183.047C146.347 183.605 146.109 184.06 145.964 184.278C144.857 185.929 143.708 187.713 142.526 189.547L142.523 189.552C141.932 190.469 141.333 191.399 140.727 192.331C140.481 193.006 140.142 193.703 139.7 194.425C130.596 209.292 112.524 237.028 92.9805 243.752C102.713 242.494 111.217 238.037 111.217 238.037C111.217 238.037 116.647 235.247 123.992 229.779C128.419 226.748 140.416 215.656 143.537 210.094C146.658 204.533 137.352 223.462 130.194 230.961C128.171 233.073 127.274 234.07 126.475 234.959C125.615 235.915 124.866 236.747 122.949 238.708C118.57 242.705 111.687 246.24 105.327 248.885C98.9669 251.53 90.3455 251.839 88.9331 251.839C88.8637 251.839 88.7783 251.84 88.6776 251.84C86.7247 251.851 79.0292 251.891 71.4959 249.279C70.6034 248.969 69.7508 248.684 68.9256 248.408C62.4261 246.231 57.6534 244.632 48.8268 236.488C47.7042 235.452 44.9619 232.221 43.6668 230.694L43.8472 230.907L43.8432 230.902L43.8416 230.9C43.4138 230.396 41.3646 226.926 41.314 226.877C41.1104 226.68 40.1153 224.661 38.468 220.71C34.4496 211.072 33.4661 205.692 33.4661 195.901C33.5356 195.244 33.6011 194.592 33.6661 193.944C34.3871 186.769 35.0561 180.111 40.4853 171.943C41.202 170.866 41.8284 169.91 42.3908 169.052C46.4729 162.824 47.1835 161.739 54.5714 156.342C56.0991 155.225 57.4638 154.264 58.7032 153.43C58.5648 151.554 58.4014 149.723 58.2039 147.951C52.3161 150.922 48.6643 153.199 43.0218 158.845C36.7687 165.102 29.6841 173.831 27.9249 178.387C27.5627 179.325 27.1762 180.171 26.7659 181.069C25.1835 184.533 23.248 188.77 20.9935 202.029C18.1545 218.726 22.3023 227.445 22.3023 227.445C22.3023 227.445 22.2565 229.527 28.6103 240.095C34.3367 248.567 39.4126 255.533 48.1173 260.573C57.7065 267.498 65.0821 270 78.9117 270C92.7417 270 99.738 268.664 115.18 259.821C128.648 252.108 145.457 227.172 149.533 218.839C150.333 217.554 151.125 216.271 151.913 214.997L151.92 214.985L151.925 214.977C155.022 209.966 158.037 205.087 161.036 200.722C163.847 196.779 166.854 192.028 169.707 187.523C171.571 184.578 173.368 181.738 175.001 179.298C184.028 165.804 184.689 165.179 190.693 159.505C191.721 158.533 192.907 157.412 194.319 156.053C194.983 155.555 195.605 155.078 196.209 154.615C199.265 152.274 201.829 150.309 206.779 147.878C207.411 147.567 208.048 147.24 208.698 146.905C212.595 144.901 217.001 142.634 224.125 142.108L224.383 142.089C228.299 141.8 231.012 141.599 234.332 142.139C229.761 140.903 227.599 140.907 221.094 140.919C220.407 140.92 219.672 140.922 218.881 140.922C207.31 140.922 195.783 146.963 195.783 146.963C195.783 146.963 190.353 149.753 183.008 155.221C178.581 158.252 166.584 169.344 163.463 174.906C160.342 180.467 169.648 161.538 176.806 154.039C178.83 151.927 179.726 150.93 180.526 150.041C181.385 149.085 182.134 148.253 184.051 146.292C188.43 142.295 195.313 138.76 201.673 136.115C208.033 133.471 216.655 133.161 218.067 133.161C218.136 133.161 218.222 133.16 218.323 133.16C220.276 133.149 227.971 133.109 235.504 135.721C243.428 138.469 249.258 140.922 259.204 150.1C260.7 151.48 263.427 154.615 263.767 155.221C264.492 156.51 265.052 157.475 265.515 158.274C266.784 160.462 267.325 161.395 268.532 164.29C272.551 173.928 273.534 179.309 273.534 189.099C273.465 189.756 273.399 190.408 273.334 191.056C272.613 198.231 271.944 204.889 266.515 213.056C265.798 214.134 265.172 215.09 264.61 215.947L264.609 215.949C260.527 222.177 259.825 223.27 252.438 228.668C254.888 230.167 255.2 230.353 257.587 231.803C259.575 230.316 261.6 228.535 263.979 226.155C270.231 219.898 277.316 211.169 279.075 206.613C279.435 205.68 279.82 204.837 280.228 203.943L280.229 203.941L280.231 203.937L280.233 203.933L280.234 203.931C281.817 200.467 283.752 196.23 286.007 182.971C288.845 166.274 284.698 157.556 284.698 157.556C284.698 157.556 284.744 155.473 278.39 144.905C272.663 136.433 267.588 129.467 258.883 124.427C249.294 117.502 241.918 115 228.088 115C214.258 115 207.262 116.335 191.821 125.179Z"
            fill="#4A448D"/>
    </g>
    <defs>
        <filter id="filter0_d_4_54" x="0" y="0" width="307.09" height="416.725" filterUnits="userSpaceOnUse"
                color-interpolation-filters="sRGB">
            <feFlood flood-opacity="0" result="BackgroundImageFix"/>
            <feColorMatrix in="SourceAlpha" type="matrix" values="0 0 0 0 0 0 0 0 0 0 0 0 0 0 0 0 0 0 127 0"
                           result="hardAlpha"/>
            <feOffset dy="20"/>
            <feGaussianBlur stdDeviation="10"/>
            <feComposite in2="hardAlpha" operator="out"/>
            <feColorMatrix type="matrix" values="0 0 0 0 0 0 0 0 0 0.00784314 0 0 0 0 0.0784314 0 0 0 0.5 0"/>
            <feBlend mode="normal" in2="BackgroundImageFix" result="effect1_dropShadow_4_54"/>
            <feBlend mode="normal" in="SourceGraphic" in2="effect1_dropShadow_4_54" result="shape"/>
        </filter>
    </defs>
</svg>
