<svg width="308" height="437" viewBox="0 0 308 437" fill="none" xmlns="http://www.w3.org/2000/svg">
<g filter="url(#filter0_f_4_83)">
<path d="M58.4576 173.569C61.1494 172.101 63 171 65.5 170C67.698 169.121 68.5747 168.606 71 168C73 167.5 74.4522 168.048 74.9522 168.048C75.335 166.134 75.2986 166.457 75.717 164.376C73.717 163.876 72.97 163.751 69.97 164.251C65.97 165.251 67.4049 164.81 64.4049 165.81C61.4049 166.81 62.0409 166.58 60.5409 167.08C59.5319 167.441 58.7227 167.613 57.8047 168.164L58.4576 173.569Z" fill="#4A448D"/>
<path d="M252.609 248.543L257.848 251.719C257.118 252.303 256.672 252.601 255.877 253.112C255.64 253.26 255.397 253.412 255.152 253.566L255.15 253.567C254.323 254.086 253.468 254.622 252.67 255.08C250.195 256.403 248.8 257.135 246.273 258.366L245.984 253.125C247.126 252.477 247.746 252.063 248.851 251.317C249.846 250.6 250.37 250.232 251.293 249.523C251.848 249.098 252.043 248.93 252.609 248.543Z" fill="#4A448D"/>
<g filter="url(#filter1_d_4_83)">
<path d="M153.643 329.816V305.357V280.898V20C153.643 20 115.601 36.1995 89.732 113.147C74.8501 157.414 68.0988 198.746 64.3086 242.171C61.873 270.077 63.2293 299.242 65.1948 329.816L67.3239 346.122L71.0716 362.429H82.8844H103.619H153.643V346.122V329.816Z" fill="#182051"/>
<path d="M153.643 329.816L153.643 305.357V280.898L153.643 20C153.643 20 192.742 36.1995 219.329 113.147C234.624 157.414 241.563 198.746 245.459 242.171C247.962 270.077 246.568 299.242 244.548 329.816L242.824 346.486L240.839 362.429H226.347H217.042H205.056H153.643V346.122V329.816Z" fill="#13299B"/>
<path d="M98.2587 362.725H207.259L200.653 396.725H108.168L98.2587 362.725Z" fill="#5B6575"/>
<circle cx="154.161" cy="105.607" r="35.2857" fill="#3CA3BD" stroke="#3C2F62" stroke-width="10"/>
</g>
<path d="M191.821 145.179C176.379 154.022 161.154 176.053 157.134 184.29C157.134 184.29 152.953 191.548 148.186 200.29C147.634 201.141 147.076 202.21 146.638 203.047C146.347 203.605 146.109 204.06 145.964 204.278C144.857 205.929 143.708 207.713 142.526 209.547L142.523 209.552C141.932 210.469 141.333 211.399 140.727 212.331C140.481 213.006 140.142 213.703 139.7 214.425C130.596 229.292 112.524 257.028 92.9805 263.752C102.713 262.494 111.217 258.037 111.217 258.037C111.217 258.037 116.647 255.247 123.992 249.779C128.419 246.748 140.416 235.656 143.537 230.094C146.658 224.533 137.352 243.462 130.194 250.961C128.171 253.073 127.274 254.07 126.475 254.959C125.615 255.915 124.866 256.747 122.949 258.708C118.57 262.705 111.687 266.24 105.327 268.885C98.9669 271.53 90.3455 271.839 88.9331 271.839C88.8637 271.839 88.7783 271.84 88.6776 271.84C86.7247 271.851 79.0292 271.891 71.4959 269.279C70.6034 268.969 69.7508 268.684 68.9256 268.408C62.4261 266.231 57.6534 264.632 48.8268 256.488C47.7042 255.452 44.9619 252.221 43.6668 250.694L43.8472 250.907L43.8432 250.902L43.8416 250.9C43.4138 250.396 41.3646 246.926 41.314 246.877C41.1104 246.68 40.1153 244.661 38.468 240.71C34.4496 231.072 33.4661 225.692 33.4661 215.901C33.5356 215.244 33.6011 214.592 33.6661 213.944C34.3871 206.769 35.0561 200.111 40.4853 191.943C41.202 190.866 41.8284 189.91 42.3908 189.052C46.4729 182.824 47.1835 181.739 54.5714 176.342C56.0991 175.225 57.4638 174.264 58.7032 173.43C58.5648 171.554 58.4014 169.723 58.2039 167.951C52.3161 170.922 48.6643 173.199 43.0218 178.845C36.7687 185.102 29.6841 193.831 27.9249 198.387C27.5627 199.325 27.1762 200.171 26.7659 201.069C25.1835 204.533 23.248 208.77 20.9935 222.029C18.1545 238.726 22.3023 247.445 22.3023 247.445C22.3023 247.445 22.2565 249.527 28.6103 260.095C34.3367 268.567 39.4126 275.533 48.1173 280.573C57.7065 287.498 65.0821 290 78.9117 290C92.7417 290 99.738 288.664 115.18 279.821C128.648 272.108 145.457 247.172 149.533 238.839C150.333 237.554 151.125 236.271 151.913 234.997L151.92 234.985L151.925 234.977C155.022 229.966 158.037 225.087 161.036 220.722C163.847 216.779 166.854 212.028 169.707 207.523C171.571 204.578 173.368 201.738 175.001 199.298C184.028 185.804 184.689 185.179 190.693 179.505C191.721 178.533 192.907 177.412 194.319 176.053C194.983 175.555 195.605 175.078 196.209 174.615C199.265 172.274 201.829 170.309 206.779 167.878C207.411 167.567 208.048 167.24 208.698 166.905C212.595 164.901 217.001 162.634 224.125 162.108L224.383 162.089C228.299 161.8 231.012 161.599 234.332 162.139C229.761 160.903 227.599 160.907 221.094 160.919C220.407 160.92 219.672 160.922 218.881 160.922C207.31 160.922 195.783 166.963 195.783 166.963C195.783 166.963 190.353 169.753 183.008 175.221C178.581 178.252 166.584 189.344 163.463 194.906C160.342 200.467 169.648 181.538 176.806 174.039C178.83 171.927 179.726 170.93 180.526 170.041C181.385 169.085 182.134 168.253 184.051 166.292C188.43 162.295 195.313 158.76 201.673 156.115C208.033 153.471 216.655 153.161 218.067 153.161C218.136 153.161 218.222 153.16 218.323 153.16C220.276 153.149 227.971 153.109 235.504 155.721C243.428 158.469 249.258 160.922 259.204 170.1C260.7 171.48 263.427 174.615 263.767 175.221C264.492 176.51 265.052 177.475 265.515 178.274C266.784 180.462 267.325 181.395 268.532 184.29C272.551 193.928 273.534 199.309 273.534 209.099C273.465 209.756 273.399 210.408 273.334 211.056C272.613 218.231 271.944 224.889 266.515 233.056C265.798 234.134 265.172 235.09 264.61 235.947L264.609 235.949C260.527 242.177 259.825 243.27 252.438 248.668C254.888 250.167 255.2 250.353 257.587 251.803C259.575 250.316 261.6 248.535 263.979 246.155C270.231 239.898 277.316 231.169 279.075 226.613C279.435 225.68 279.82 224.837 280.228 223.943L280.229 223.941L280.231 223.937L280.233 223.933L280.234 223.931C281.817 220.467 283.752 216.23 286.007 202.971C288.845 186.274 284.698 177.556 284.698 177.556C284.698 177.556 284.744 175.473 278.39 164.905C272.663 156.433 267.588 149.467 258.883 144.427C249.294 137.502 241.918 135 228.088 135C214.258 135 207.262 136.335 191.821 145.179Z" fill="#4A448D"/>
</g>
<defs>
<filter id="filter0_f_4_83" x="-20" y="-20" width="347.09" height="456.725" filterUnits="userSpaceOnUse" color-interpolation-filters="sRGB">
<feFlood flood-opacity="0" result="BackgroundImageFix"/>
<feBlend mode="normal" in="SourceGraphic" in2="BackgroundImageFix" result="shape"/>
<feGaussianBlur stdDeviation="20" result="effect1_foregroundBlur_4_83"/>
</filter>
<filter id="filter1_d_4_83" x="43" y="20" width="223.804" height="416.725" filterUnits="userSpaceOnUse" color-interpolation-filters="sRGB">
<feFlood flood-opacity="0" result="BackgroundImageFix"/>
<feColorMatrix in="SourceAlpha" type="matrix" values="0 0 0 0 0 0 0 0 0 0 0 0 0 0 0 0 0 0 127 0" result="hardAlpha"/>
<feOffset dy="20"/>
<feGaussianBlur stdDeviation="10"/>
<feComposite in2="hardAlpha" operator="out"/>
<feColorMatrix type="matrix" values="0 0 0 0 0.000466371 0 0 0 0 0.00841453 0 0 0 0 0.0799479 0 0 0 0.5 0"/>
<feBlend mode="normal" in2="BackgroundImageFix" result="effect1_dropShadow_4_83"/>
<feBlend mode="normal" in="SourceGraphic" in2="effect1_dropShadow_4_83" result="shape"/>
</filter>
</defs>
</svg>
