<svg width="1440px" height="430px"  viewBox="0 0 1440 430" fill="none" xmlns="http://www.w3.org/2000/svg">
    <g id="smoke-clouds-background" filter="url(#clouds-background-filter)" fill="url(#clouds-background-gradient)">
        <path d="M-3.65607 373.267C-3.65607 424.221 -55.7137 465.526 -119.93 465.526C-184.146 465.526 -236.204 424.221 -236.204 373.267C-236.204 322.314 -184.146 281.008 -119.93 281.008C-55.7137 281.008 -3.65607 322.314 -3.65607 373.267Z"/>
        <path d="M231.253 417.758C231.253 468.97 178.667 510.485 113.798 510.485C48.9301 510.485 -3.65607 468.97 -3.65607 417.758C-3.65607 366.546 48.9301 325.03 113.798 325.03C178.667 325.03 231.253 366.546 231.253 417.758Z"/>
        <path d="M647.95 259.933C647.95 295.885 611.219 325.03 565.909 325.03C520.599 325.03 483.868 295.885 483.868 259.933C483.868 223.981 520.599 194.837 565.909 194.837C611.219 194.837 647.95 223.981 647.95 259.933Z"/>
        <path d="M791.964 271.173C791.964 307.125 755.233 336.27 709.923 336.27C664.613 336.27 627.883 307.125 627.883 271.173C627.883 235.221 664.613 206.076 709.923 206.076C755.233 206.076 791.964 235.221 791.964 271.173Z"/>
        <path d="M847.445 226.214C847.445 250.268 822.87 269.768 792.555 269.768C762.239 269.768 737.664 250.268 737.664 226.214C737.664 202.16 762.239 182.66 792.555 182.66C822.87 182.66 847.445 202.16 847.445 226.214Z"/>
        <path d="M1054.02 185.002C1054.02 209.056 1029.45 228.556 999.133 228.556C968.817 228.556 944.242 209.056 944.242 185.002C944.242 160.948 968.817 141.448 999.133 141.448C1029.45 141.448 1054.02 160.948 1054.02 185.002Z"/>
        <path d="M1374.59 241.618C1369.14 268.168 1337.34 286.153 1303.56 281.789C1269.78 277.426 1246.81 252.365 1252.26 225.815C1257.7 199.266 1289.51 181.28 1323.29 185.644C1357.07 190.008 1380.04 215.068 1374.59 241.618Z"/>
        <path d="M1539.86 246.36C1534.36 273.165 1502.52 291.357 1468.74 286.993C1434.95 282.629 1412.03 257.362 1417.53 230.557C1423.03 203.752 1454.87 185.56 1488.65 189.924C1522.43 194.288 1545.36 219.555 1539.86 246.36Z"/>
        <path d="M1438.04 258.829C1434.42 276.444 1413.5 288.398 1391.3 285.531C1369.1 282.663 1354.03 266.059 1357.64 248.444C1361.26 230.829 1382.18 218.875 1404.38 221.742C1426.58 224.61 1441.65 241.214 1438.04 258.829Z"/>
        <path d="M984.377 205.14C984.377 240.833 947.382 269.768 901.746 269.768C856.11 269.768 819.115 240.833 819.115 205.14C819.115 169.446 856.11 140.511 901.746 140.511C947.382 140.511 984.377 169.446 984.377 205.14Z"/>
        <path d="M1299.27 194.878C1292.46 228.065 1253.03 250.589 1211.21 245.186C1169.38 239.783 1140.99 208.5 1147.8 175.313C1154.61 142.125 1194.04 119.602 1235.86 125.005C1277.69 130.407 1306.08 161.691 1299.27 194.878Z"/>
        <path d="M511.018 298.336C511.018 319.286 489.878 336.27 463.8 336.27C437.723 336.27 416.583 319.286 416.583 298.336C416.583 277.385 437.723 260.402 463.8 260.402C489.878 260.402 511.018 277.385 511.018 298.336Z"/>
        <path d="M45.9227 378.887C45.9227 399.837 24.254 416.821 -2.47563 416.821C-29.2053 416.821 -50.8739 399.837 -50.8739 378.887C-50.8739 357.937 -29.2053 340.953 -2.47563 340.953C24.254 340.953 45.9227 357.937 45.9227 378.887Z"/>
        <path d="M298.538 378.887C298.538 399.837 277.134 416.821 250.73 416.821C224.326 416.821 202.922 399.837 202.922 378.887C202.922 357.937 224.326 340.953 250.73 340.953C277.134 340.953 298.538 357.937 298.538 378.887Z"/>
        <path d="M365.823 378.887C365.823 399.837 344.683 416.821 318.606 416.821C292.528 416.821 271.388 399.837 271.388 378.887C271.388 357.937 292.528 340.953 318.606 340.953C344.683 340.953 365.823 357.937 365.823 378.887Z"/>
        <path d="M481.004 344.017C492.576 366.864 473.521 394.453 438.443 405.639C403.366 416.825 365.549 407.371 353.977 384.524C342.405 361.677 361.46 334.088 396.538 322.902C431.615 311.717 469.432 321.17 481.004 344.017Z"/>
        <path d="M1008.61 145.285C1076.64 124.006 1095.36 39.572 1096.22 0.0147705H1140.03C1113.23 90.0416 1214.75 143.921 1268.86 159.608L1085.91 210.76C1031.8 197.801 940.583 166.564 1008.61 145.285Z"/>
        <path d="M257.813 386.848L-171.279 352.661V411.669H1535.65L1526.2 239.795H1491.38C1480.16 239.795 1461.28 239.795 1431.18 244.947C1401.07 250.098 1391.04 251.503 1333.79 239.795C1276.54 228.087 1294.83 229.492 1271.23 217.316C1247.62 205.14 1196.86 182.192 1181.51 177.977C1166.17 173.762 1117.77 172.825 1086.49 170.952C1055.2 169.079 945.422 216.379 923.584 217.316C901.746 218.253 863.381 231.834 826.788 238.859C790.194 245.884 733.532 260.87 699.299 261.807C671.913 262.556 588.338 274.92 549.973 281.008C527.348 290.374 480.799 309.575 475.605 311.449C469.112 313.79 380.579 371.394 372.906 371.394C366.768 371.394 293.62 381.697 257.813 386.848Z"/>
    </g>
    <g id="smoke-clouds-foreground" filter="url(#clouds-foreground-filter)" fill="url(#clouds-foreground-gradient)">
        <path d="M170.236 398.625C170.236 453.025 126.136 497.125 71.7362 497.125C17.3362 497.125 -26.7638 453.025 -26.7638 398.625C-26.7638 344.225 17.3362 300.125 71.7362 300.125C126.136 300.125 170.236 344.225 170.236 398.625Z"/>
        <path d="M369.236 446.125C369.236 500.801 324.689 545.125 269.736 545.125C214.784 545.125 170.236 500.801 170.236 446.125C170.236 391.449 214.784 347.125 269.736 347.125C324.689 347.125 369.236 391.449 369.236 446.125Z"/>
        <path d="M722.236 277.625C722.236 316.009 691.12 347.125 652.736 347.125C614.352 347.125 583.236 316.009 583.236 277.625C583.236 239.241 614.352 208.125 652.736 208.125C691.12 208.125 722.236 239.241 722.236 277.625Z"/>
        <path d="M844.236 289.625C844.236 328.009 813.12 359.125 774.736 359.125C736.352 359.125 705.236 328.009 705.236 289.625C705.236 251.241 736.352 220.125 774.736 220.125C813.12 220.125 844.236 251.241 844.236 289.625Z"/>
        <path d="M891.236 241.625C891.236 267.306 870.417 288.125 844.736 288.125C819.055 288.125 798.236 267.306 798.236 241.625C798.236 215.944 819.055 195.125 844.736 195.125C870.417 195.125 891.236 215.944 891.236 241.625Z"/>
        <path d="M1066.24 197.625C1066.24 223.306 1045.42 244.125 1019.74 244.125C994.055 244.125 973.236 223.306 973.236 197.625C973.236 171.944 994.055 151.125 1019.74 151.125C1045.42 151.125 1066.24 171.944 1066.24 197.625Z"/>
        <path d="M1337.8 258.071C1333.19 286.417 1306.25 305.618 1277.63 300.959C1249.01 296.3 1229.55 269.545 1234.17 241.199C1238.78 212.853 1265.72 193.652 1294.34 198.311C1322.96 202.97 1342.42 229.725 1337.8 258.071Z"/>
        <path d="M1477.81 263.133C1473.15 291.751 1446.17 311.174 1417.55 306.515C1388.94 301.856 1369.51 274.88 1374.17 246.261C1378.83 217.643 1405.81 198.221 1434.43 202.88C1463.04 207.539 1482.47 234.515 1477.81 263.133Z"/>
        <path d="M1391.55 276.446C1388.49 295.252 1370.76 308.015 1351.95 304.954C1333.15 301.892 1320.38 284.165 1323.44 265.359C1326.51 246.552 1344.23 233.789 1363.04 236.85C1381.85 239.912 1394.61 257.639 1391.55 276.446Z"/>
        <path d="M1007.24 219.125C1007.24 257.232 975.896 288.125 937.236 288.125C898.576 288.125 867.236 257.232 867.236 219.125C867.236 181.017 898.576 150.125 937.236 150.125C975.896 150.125 1007.24 181.017 1007.24 219.125Z"/>
        <path d="M1273.99 208.169C1268.22 243.601 1234.82 267.648 1199.39 261.88C1163.96 256.112 1139.91 222.712 1145.68 187.28C1151.45 151.848 1184.85 127.801 1220.28 133.569C1255.71 139.338 1279.76 172.737 1273.99 208.169Z"/>
        <path d="M606.236 318.625C606.236 340.992 588.328 359.125 566.236 359.125C544.145 359.125 526.236 340.992 526.236 318.625C526.236 296.257 544.145 278.125 566.236 278.125C588.328 278.125 606.236 296.257 606.236 318.625Z"/>
        <path d="M212.236 404.625C212.236 426.992 193.88 445.125 171.236 445.125C148.593 445.125 130.236 426.992 130.236 404.625C130.236 382.257 148.593 364.125 171.236 364.125C193.88 364.125 212.236 382.257 212.236 404.625Z"/>
        <path d="M426.236 404.625C426.236 426.992 408.104 445.125 385.736 445.125C363.369 445.125 345.236 426.992 345.236 404.625C345.236 382.257 363.369 364.125 385.736 364.125C408.104 364.125 426.236 382.257 426.236 404.625Z"/>
        <path d="M483.236 404.625C483.236 426.992 465.328 445.125 443.236 445.125C421.145 445.125 403.236 426.992 403.236 404.625C403.236 382.257 421.145 364.125 443.236 364.125C465.328 364.125 483.236 382.257 483.236 404.625Z"/>
        <path d="M580.81 367.397C590.613 391.789 574.471 421.244 544.755 433.186C515.04 445.129 483.004 435.036 473.201 410.643C463.398 386.251 479.54 356.796 509.255 344.853C538.971 332.911 571.007 343.004 580.81 367.397Z"/>
        <path d="M1027.76 155.222C1085.39 132.503 1101.26 42.3578 1101.98 0.124756H1139.09C1116.39 96.2413 1202.4 153.766 1248.24 170.513L1093.25 225.125C1047.41 211.29 970.137 177.94 1027.76 155.222Z"/>
        <path d="M391.736 413.125L28.2362 376.625V439.625H1474.24L1466.24 256.125H1436.74C1427.24 256.125 1411.24 256.125 1385.74 261.625C1360.24 267.125 1351.74 268.625 1303.24 256.125C1254.74 243.625 1270.24 245.125 1250.24 232.125C1230.24 219.125 1187.24 194.625 1174.24 190.125C1161.24 185.625 1120.24 184.625 1093.74 182.625C1067.24 180.625 974.236 231.125 955.736 232.125C937.236 233.125 904.736 247.625 873.736 255.125C842.736 262.625 794.736 278.625 765.736 279.625C742.536 280.425 671.736 293.625 639.236 300.125C620.07 310.125 580.636 330.625 576.236 332.625C570.736 335.125 495.736 396.625 489.236 396.625C484.036 396.625 422.07 407.625 391.736 413.125Z"/>
    </g>
    <defs>
        <filter id="clouds-foreground-filter" x="-76.7638" y="0.124756" width="1605.26" height="645" filterUnits="userSpaceOnUse" color-interpolation-filters="sRGB">
            <feFlood flood-opacity="0" result="BackgroundImageFix"/>
            <feColorMatrix in="SourceAlpha" type="matrix" values="0 0 0 0 0 0 0 0 0 0 0 0 0 0 0 0 0 0 127 0" result="hardAlpha"/>
            <feOffset dy="50"/>
            <feGaussianBlur stdDeviation="25"/>
            <feComposite in2="hardAlpha" operator="out"/>
            <feColorMatrix type="matrix" values="0 0 0 0 0 0 0 0 0 0 0 0 0 0 0 0 0 0 0.4 0"/>
            <feBlend mode="normal" in2="BackgroundImageFix" result="effect1_dropShadow_111_7"/>
            <feBlend mode="normal" in="SourceGraphic" in2="effect1_dropShadow_111_7" result="shape"/>
        </filter>
        <filter id="clouds-background-filter" x="-286.204" y="0.0147705" width="1876.88" height="610.471" filterUnits="userSpaceOnUse" color-interpolation-filters="sRGB">
            <feFlood flood-opacity="0" result="BackgroundImageFix"/>
            <feColorMatrix in="SourceAlpha" type="matrix" values="0 0 0 0 0 0 0 0 0 0 0 0 0 0 0 0 0 0 127 0" result="hardAlpha"/>
            <feOffset dy="50"/>
            <feGaussianBlur stdDeviation="25"/>
            <feComposite in2="hardAlpha" operator="out"/>
            <feColorMatrix type="matrix" values="0 0 0 0 0 0 0 0 0 0 0 0 0 0 0 0 0 0 0.4 0"/>
            <feBlend mode="normal" in2="BackgroundImageFix" result="effect1_dropShadow_112_2"/>
            <feBlend mode="normal" in="SourceGraphic" in2="effect1_dropShadow_112_2" result="shape"/>
        </filter>
        <linearGradient id="clouds-foreground-gradient" x1="725.867" y1="0.125" x2="725.867" y2="430.125" gradientUnits="userSpaceOnUse">
            <stop stop-color="#7B6199"/>
            <stop offset="0.8" stop-color="#FBC4B4"/>
            <stop offset="1" stop-color="#FDE7E0"/>
        </linearGradient>
        <linearGradient id="clouds-background-gradient" x1="652.236" y1="138.805" x2="652" y2="290" gradientUnits="userSpaceOnUse">
            <stop stop-color="#382E66"/>
            <stop offset="0.323403" stop-color="#896AA4"/>
            <stop offset="0.979167" stop-color="#3CA3BD"/>
        </linearGradient>
    </defs>
</svg>
